<?xml version="1.0" encoding="UTF-8" standalone="no"?>
<!DOCTYPE svg PUBLIC "-//W3C//DTD SVG 1.1//EN"
"http://www.w3.org/Graphics/SVG/1.1/DTD/svg11.dtd">
<svg viewBox="0 0 935 1210" version="1.1" xmlns="http://www.w3.org/2000/svg" xmlns:xlink="http://www.w3.org/1999/xlink">
<defs>
<style type="text/css"><![CDATA[
.g14_2{
}
.g7_2{
fill: #636363;
stroke: #000000;
stroke-width: 3;
stroke-linecap: round;
stroke-linejoin: round;
stroke-miterlimit: 2;
}
.g2_2{
fill: none;
stroke: #FFFFFF;
stroke-width: 3;
stroke-linecap: round;
stroke-linejoin: miter;
stroke-miterlimit: 2;
}
.g13_2{
fill: none;
stroke: #000000;
stroke-width: 3;
stroke-linecap: round;
stroke-linejoin: round;
stroke-miterlimit: 2;
}
.g3_2{
fill: #FFFFFF;
stroke: #000000;
stroke-width: 2;
stroke-linecap: butt;
stroke-linejoin: miter;
stroke-miterlimit: 2;
}
.g1_2{
fill: #B3B3B3;
}
.g11_2{
fill: none;
stroke: #FFFFFF;
stroke-width: 2;
stroke-linecap: round;
stroke-linejoin: round;
stroke-miterlimit: 2;
}
.g4_2{
fill: none;
stroke: #000000;
stroke-width: 2;
stroke-linecap: butt;
stroke-linejoin: miter;
stroke-miterlimit: 2;
}
.g8_2{
fill: none;
stroke: #FFFFFF;
stroke-width: 1;
stroke-linecap: round;
stroke-linejoin: round;
stroke-miterlimit: 2;
stroke-dasharray: 4,3,1,3;
}
.g5_2{
fill: none;
stroke: #000000;
stroke-width: 1;
stroke-linecap: butt;
stroke-linejoin: miter;
stroke-miterlimit: 2;
}
.g10_2{
stroke: #000000;
stroke-width: 2;
stroke-linecap: round;
stroke-linejoin: round;
stroke-miterlimit: 2;
}
.g12_2{
fill: #FFFFFF;
}
.g9_2{
fill: none;
stroke: #FFFFFF;
stroke-width: 2;
stroke-linecap: round;
stroke-linejoin: round;
stroke-miterlimit: 2;
stroke-dasharray: 8,8;
}
.g6_2{
fill: none;
stroke: #000000;
stroke-width: 1;
stroke-linecap: round;
stroke-linejoin: round;
stroke-miterlimit: 2;
}
]]></style>
</defs>
<path fill-rule="evenodd" d="M55,54l824,0l0,1101l-824,0Z" class="g1_2" />
<path d="M55.5,256.5l27,0" class="g2_2" />
<path d="M55.5,430.5l27,0" class="g2_2" />
<path d="M55.5,605.5l27,0" class="g2_2" />
<path d="M55.5,779.5l27,0" class="g2_2" />
<path d="M55.5,953.5l27,0" class="g2_2" />
<path d="M852.5,256.5l28,0" class="g2_2" />
<path d="M852.5,605.5l28,0" class="g2_2" />
<path d="M852.5,779.5l28,0" class="g2_2" />
<path d="M852.5,953.5l28,0" class="g2_2" />
<path d="M236.5,82.5l0,-27" class="g2_2" />
<path d="M390.5,82.5l0,-27" class="g2_2" />
<path d="M544.5,82.5l0,-27" class="g2_2" />
<path d="M698.5,82.5l0,-27" class="g2_2" />
<path d="M236.5,1155.5l0,-28" class="g2_2" />
<path d="M390.5,1155.5l0,-28" class="g2_2" />
<path d="M544.5,1155.5l0,-28" class="g2_2" />
<path d="M698.5,1155.5l0,-28" class="g2_2" />
<path fill-rule="evenodd" d="M82,82l770,0l0,1045l-770,0Z" class="g3_2" />
<path d="M82,1097l770,0" class="g4_2" />
<path d="M466.5,1099.5l0,28" class="g5_2" />
<path d="M468.5,1099.5l0,28" class="g5_2" />
<path d="M272.5,1099.5l0,28" class="g5_2" />
<path d="M274.5,1099.5l0,28" class="g5_2" />
<path d="M664.5,1099.5l0,28" class="g5_2" />
<path d="M666.5,1099.5l0,28" class="g5_2" />
<path d="M274.5,1099.5l192,0" class="g6_2" />
<path d="M468.5,1099.5l196,0" class="g6_2" />
<path d="M666.5,1099.5l186,0" class="g6_2" />
<path d="M272.5,1099.5l-190,0" class="g6_2" />
<path d="M852.5,430.5l28,0" class="g2_2" />
<path fill-rule="evenodd" d="M274.5,231.5l388,0l0,798l-388,0Z" class="g7_2" />
<path d="M343.5,399.5l176,0l0,495l-176,0Z" class="g8_2" />
<path d="M302,234l0,791" class="g9_2" />
<path d="M343.5,377.5l0,22l-20,0" class="g8_2" />
<path d="M519.5,377.5l0,22l20,0" class="g8_2" />
<path d="M343.5,915.5l0,-21l-20,0" class="g8_2" />
<path d="M519.5,915.5l0,-21l20,0" class="g8_2" />
<path fill-rule="evenodd" d="M343.9,887.4c3.8,0,6.8,3.1,6.8,6.9c0,3.8,-3,6.9,-6.8,6.9c-3.8,0,-6.9,-3.1,-6.9,-6.9c0,-3.8,3.1,-6.9,6.9,-6.9Z" class="g10_2" />
<path fill-rule="evenodd" d="M519.1,887.4c3.8,0,6.9,3.1,6.9,6.9c0,3.8,-3.1,6.9,-6.9,6.9c-3.8,0,-6.9,-3.1,-6.9,-6.9c0,-3.8,3.1,-6.9,6.9,-6.9Z" class="g10_2" />
<path fill-rule="evenodd" d="M343.9,392.4c3.8,0,6.8,3.1,6.8,6.9c0,3.8,-3,6.9,-6.8,6.9c-3.8,0,-6.9,-3.1,-6.9,-6.9c0,-3.8,3.1,-6.9,6.9,-6.9Z" class="g10_2" />
<path fill-rule="evenodd" d="M519.2,392.4c3.8,0,6.8,3.1,6.8,6.9c0,3.8,-3,6.9,-6.8,6.9c-3.8,0,-6.9,-3.1,-6.9,-6.9c0,-3.8,3.1,-6.9,6.9,-6.9Z" class="g10_2" />
<path d="M343,370l0,-22" class="g11_2" />
<path d="M518,370l0,-22" class="g11_2" />
<path d="M343.7,355.6l9.4,-4.7l0,9.4Zm8.9,-0.8l0,1.6l-0.1,0l-0.1,0l0,-0.1l-0.1,0l-0.1,0l0,-0.1l-0.1,0l0,-0.1l-0.1,0l0,-0.1l-0.1,0l0,-0.1l0,-0.1l-0.1,-0.1l0,-0.1l0,-0.1l0.1,0l0,-0.1l0,-0.1l0,-0.1l0.1,0l0,-0.1l0.1,0l0,-0.1l0.1,0l0,-0.1l0.1,0l0.1,0l0.1,-0.1l0.1,0Zm61.3,1.6l-61.3,0l0,-1.6l61.3,0Zm0,0l0,-1.6l0.1,0l0.1,0l0,0.1l0.1,0l0.1,0l0,0.1l0.1,0l0.1,0l0,0.1l0.1,0l0,0.1l0,0.1l0.1,0l0,0.1l0,0.1l0,0.1l0,0.1l0,0.1l0,0.1l-0.1,0l0,0.1l0,0.1l-0.1,0l0,0.1l-0.1,0l-0.1,0.1l-0.1,0l-0.1,0l0,0.1l-0.1,0Z" class="g12_2" />
<path d="M519,355.6l-9.5,4.7l0,-9.4Zm-9,0.8l0,-1.6l0.1,0l0.1,0.1l0.1,0l0.1,0l0,0.1l0.1,0l0.1,0.1l0.1,0.1l0,0.1l0.1,0.1l0,0.1l0,0.1l0,0.1l0,0.1l-0.1,0.1l0,0.1l-0.1,0.1l-0.1,0.1l-0.1,0.1l-0.1,0l-0.1,0l0,0.1l-0.1,0Zm-57.5,-1.6l57.5,0l0,1.6l-57.5,0Zm0,0l0,1.6l-0.1,0l-0.1,-0.1l-0.1,0l-0.1,0l0,-0.1l-0.1,0l0,-0.1l-0.1,0l0,-0.1l-0.1,-0.1l0,-0.1l0,-0.1l0,-0.1l0,-0.1l0,-0.1l0,-0.1l0.1,-0.1l0,-0.1l0.1,0l0,-0.1l0.1,0l0.1,-0.1l0.1,0l0.1,0l0,-0.1l0.1,0Z" class="g12_2" />
<path d="M548,399l23,0" class="g11_2" />
<path d="M547,894l23,0" class="g11_2" />
<path d="M563.6,399.3l4.7,9.5l-9.4,0Zm0.8,9l-1.5,0l0,-0.1l0,-0.1l0,-0.1l0,-0.1l0.1,0l0,-0.1l0.1,0l0,-0.1l0.1,0l0,-0.1l0.1,0l0.1,0l0,-0.1l0.1,0l0.1,0l0.1,0l0.1,0l0.1,0l0,0.1l0.1,0l0.1,0l0,0.1l0.1,0l0,0.1l0.1,0l0,0.1l0,0.1l0.1,0l0,0.1l0,0.1Zm-1.5,213.2l0,-213.2l1.5,0l0,213.2Zm0,0l1.5,0l0,0.1l0,0.1l0,0.1l-0.1,0l0,0.1l0,0.1l-0.1,0l0,0.1l-0.1,0l0,0.1l-0.1,0l-0.1,0l0,0.1l-0.1,0l-0.1,0l-0.1,0l-0.1,0l-0.1,0l-0.1,-0.1l-0.1,0l0,-0.1l-0.1,0l0,-0.1l-0.1,0l0,-0.1l-0.1,0l0,-0.1l0,-0.1l0,-0.1Z" class="g12_2" />
<path d="M563.6,894.3l-4.7,-9.4l9.4,0Zm-0.7,-8.9l1.5,0l0,0.1l0,0.1l-0.1,0l0,0.1l0,0.1l-0.1,0l0,0.1l-0.1,0l0,0.1l-0.1,0l-0.1,0.1l-0.1,0l-0.1,0l-0.1,0l-0.1,0l-0.1,0l-0.1,0l0,-0.1l-0.1,0l-0.1,-0.1L563,885.8l0,-0.1l-0.1,0l0,-0.1l0,-0.1l0,-0.1Zm1.5,-216.5l0,216.5l-1.5,0l0,-216.5Zm0,0l-1.5,0l0,-0.1l0,-0.1l0,-0.1l0.1,-0.1l0,-0.1l0.1,0l0,-0.1l0.1,0l0,-0.1l0.1,0l0.1,0l0.1,-0.1l0.1,0l0.1,0l0.1,0l0,0.1l0.1,0l0.1,0l0.1,0.1l0.1,0.1l0.1,0.1l0,0.1l0.1,0.1l0,0.1l0,0.1Z" class="g12_2" />
<path d="M662.5,231.5l0,-18" class="g13_2" />
<path d="M662.5,231.5l18,0" class="g13_2" />
<path d="M662.5,1029.5l18,0" class="g13_2" />
<path d="M662.5,1029.5l0,17" class="g13_2" />
<path d="M274.5,231.5l0,-18" class="g13_2" />
<path d="M274.5,231.5l-17,0" class="g13_2" />
<path d="M274.5,1029.5l-17,0" class="g13_2" />
<path d="M274.5,1029.5l0,17" class="g13_2" />
<path fill-rule="evenodd" d="M383,171l169,0l0,1l-169,0Z" class="g14_2" />
</svg>