<?xml version="1.0" encoding="UTF-8" standalone="no"?>
<!DOCTYPE svg PUBLIC "-//W3C//DTD SVG 1.1//EN"
"http://www.w3.org/Graphics/SVG/1.1/DTD/svg11.dtd">
<svg version="1.1" xmlns="http://www.w3.org/2000/svg" xmlns:xlink="http://www.w3.org/1999/xlink">
<defs>
<style type="text/css"><![CDATA[
.g7_4{
fill: #636363;
stroke: #000000;
stroke-width: 3;
stroke-linecap: round;
stroke-linejoin: round;
stroke-miterlimit: 2;
}
.g2_4{
fill: none;
stroke: #FFFFFF;
stroke-width: 3;
stroke-linecap: round;
stroke-linejoin: miter;
stroke-miterlimit: 2;
}
.g13_4{
fill: none;
stroke: #000000;
stroke-width: 3;
stroke-linecap: round;
stroke-linejoin: round;
stroke-miterlimit: 2;
}
.g3_4{
fill: #FFFFFF;
stroke: #000000;
stroke-width: 2;
stroke-linecap: butt;
stroke-linejoin: miter;
stroke-miterlimit: 2;
}
.g1_4{
fill: #B3B3B3;
}
.g11_4{
fill: none;
stroke: #FFFFFF;
stroke-width: 2;
stroke-linecap: round;
stroke-linejoin: round;
stroke-miterlimit: 2;
}
.g4_4{
fill: none;
stroke: #000000;
stroke-width: 2;
stroke-linecap: butt;
stroke-linejoin: miter;
stroke-miterlimit: 2;
}
.g8_4{
fill: none;
stroke: #FFFFFF;
stroke-width: 1;
stroke-linecap: round;
stroke-linejoin: round;
stroke-miterlimit: 2;
stroke-dasharray: 4,3,1,3;
}
.g5_4{
fill: none;
stroke: #000000;
stroke-width: 1;
stroke-linecap: butt;
stroke-linejoin: miter;
stroke-miterlimit: 2;
}
.g10_4{
stroke: #000000;
stroke-width: 2;
stroke-linecap: round;
stroke-linejoin: round;
stroke-miterlimit: 2;
}
.g12_4{
fill: #FFFFFF;
}
.g9_4{
fill: none;
stroke: #FFFFFF;
stroke-width: 2;
stroke-linecap: round;
stroke-linejoin: round;
stroke-miterlimit: 2;
stroke-dasharray: 8,8;
}
.g6_4{
fill: none;
stroke: #000000;
stroke-width: 1;
stroke-linecap: round;
stroke-linejoin: round;
stroke-miterlimit: 2;
}
]]></style>
</defs>
<path fill-rule="evenodd" d="M55,54l824,0l0,1101l-824,0Z" class="g1_4" />
<path d="M852.5,430.5l28,0" class="g2_4" />
<path d="M55.5,256.5l27,0" class="g2_4" />
<path d="M55.5,430.5l27,0" class="g2_4" />
<path d="M55.5,605.5l27,0" class="g2_4" />
<path d="M55.5,779.5l27,0" class="g2_4" />
<path d="M55.5,953.5l27,0" class="g2_4" />
<path d="M852.5,256.5l28,0" class="g2_4" />
<path d="M852.5,605.5l28,0" class="g2_4" />
<path d="M852.5,779.5l28,0" class="g2_4" />
<path d="M852.5,953.5l28,0" class="g2_4" />
<path d="M236.5,82.5l0,-27" class="g2_4" />
<path d="M390.5,82.5l0,-27" class="g2_4" />
<path d="M544.5,82.5l0,-27" class="g2_4" />
<path d="M698.5,82.5l0,-27" class="g2_4" />
<path d="M236.5,1155.5l0,-28" class="g2_4" />
<path d="M390.5,1155.5l0,-28" class="g2_4" />
<path d="M544.5,1155.5l0,-28" class="g2_4" />
<path d="M698.5,1155.5l0,-28" class="g2_4" />
<path fill-rule="evenodd" d="M82,82l770,0l0,1045l-770,0Z" class="g3_4" />
<path d="M82,1097l770,0" class="g4_4" />
<path d="M466.5,1099.5l0,28" class="g5_4" />
<path d="M468.5,1099.5l0,28" class="g5_4" />
<path d="M272.5,1099.5l0,28" class="g5_4" />
<path d="M274.5,1099.5l0,28" class="g5_4" />
<path d="M664.5,1099.5l0,28" class="g5_4" />
<path d="M666.5,1099.5l0,28" class="g5_4" />
<path d="M274.5,1099.5l192,0" class="g6_4" />
<path d="M468.5,1099.5l196,0" class="g6_4" />
<path d="M666.5,1099.5l186,0" class="g6_4" />
<path d="M272.5,1099.5l-190,0" class="g6_4" />
<path d="M372.5,172.5l190,0" class="g6_4" />
<path fill-rule="evenodd" d="M271.5,231.5l389,0l0,798l-389,0Z" class="g7_4" />
<path d="M360.5,312.5l179,0l0,660l-179,0Z" class="g8_4" />
<path d="M302,234l0,791" class="g9_4" />
<path d="M360.5,290.5l0,22l-20,0" class="g8_4" />
<path d="M539.5,290.5l0,22l20,0" class="g8_4" />
<path d="M360.5,993.5l0,-21l-20,0" class="g8_4" />
<path d="M539.5,993.5l0,-21l20,0" class="g8_4" />
<path fill-rule="evenodd" d="M357.5,965.5c6.4,0,9.5,3.1,9.5,6.9c0,3.8,-3.1,6.9,-6.9,6.9c-3.8,0,-6.8,-3.1,-6.8,-6.9c0,-3.8,3,-6.9,6.8,-6.9Z" class="g10_4" />
<path fill-rule="evenodd" d="M539.4,965.5c1.4,0,6.9,3.1,6.9,6.9c-2.4,3.8,-3.1,6.9,-6.9,6.9c-6.2,0,-6.8,-3.1,-6.8,-6.9c-2.5,-3.8,3,-6.9,6.8,-6.9Z" class="g10_4" />
<path fill-rule="evenodd" d="M357.5,305.5c6.4,0,9.5,3.1,9.5,6.9c0,3.8,-3.1,6.9,-6.9,6.9c-3.8,0,-6.8,-3.1,-6.8,-6.9c0,-3.8,3,-6.9,6.8,-6.9Z" class="g10_4" />
<path fill-rule="evenodd" d="M539.4,305.5c1.4,0,6.9,3.1,6.9,6.9c-2.4,3.8,-3.1,6.9,-6.9,6.9c-6.2,0,-6.8,-3.1,-6.8,-6.9c-2.5,-3.8,3,-6.9,6.8,-6.9Z" class="g10_4" />
<path d="M359,283l0,-22" class="g11_4" />
<path d="M539,283l0,-22" class="g11_4" />
<path d="M359.9,268.7l9.5,-4.7l0,9.5Zm9,-0.7l0,1.5l-0.1,0l-0.1,0l-0.1,0l0,-0.1l-0.1,0l-0.1,0l0,-0.1l-0.1,0l0,-0.1l-0.1,0l0,-0.1l0,-0.1l-0.1,0l0,-0.1l0,-0.1l0,-0.1l0,-0.1l0,-0.1l0.1,-0.1l0,-0.1l0.1,-0.1l0.1,-0.1l0.1,0l0,-0.1l0.1,0l0.1,0l0.1,0Zm61.3,1.5l-61.3,0l0,-1.5l61.3,0Zm0,0l0,-1.5l0.1,0l0.1,0l0.1,0l0.1,0.1l0.1,0l0,0.1l0.1,0l0,0.1l0.1,0l0,0.1l0,0.1l0.1,0.1l0,0.1l0,0.1l0,0.1l-0.1,0l0,0.1l0,0.1l-0.1,0.1l-0.1,0.1l-0.1,0.1l-0.1,0l0,0.1l-0.1,0l-0.1,0l-0.1,0Z" class="g12_4" />
<path d="M539.1,268.7l-9.5,4.7l0,-9.4Zm-9,0.8l0,-1.5l0.1,0l0.1,0l0.1,0l0.1,0l0,0.1l0.1,0l0,0.1l0.1,0l0,0.1l0.1,0l0,0.1l0,0.1l0.1,0l0,0.1l0,0.1l0,0.1l0,0.1l0,0.1l-0.1,0l0,0.1l0,0.1l-0.1,0l0,0.1l-0.1,0l-0.1,0.1l-0.1,0l0,0.1l-0.1,0l-0.1,0ZM468.8,268l61.3,0l0,1.5l-61.3,0Zm0,0l0,1.5l-0.1,0l-0.1,0l-0.1,0l0,-0.1l-0.1,0l-0.1,-0.1l-0.1,0l0,-0.1l-0.1,0l0,-0.1l0,-0.1l-0.1,0l0,-0.1l0,-0.1l0,-0.1l0,-0.1l0,-0.1l0.1,0l0,-0.1l0,-0.1l0.1,0l0,-0.1l0.1,0l0,-0.1l0.1,0l0,-0.1l0.1,0l0.1,0l0.1,0Z" class="g12_4" />
<path d="M564,312l23,0" class="g11_4" />
<path d="M563,972l23,0" class="g11_4" />
<path d="M579.9,312.5l4.7,9.4l-9.4,0Zm0.7,8.9l-1.5,0l0,-0.1l0,-0.1l0.1,0l0,-0.1l0,-0.1l0.1,-0.1l0.1,-0.1l0.1,0l0,-0.1l0.1,0l0.1,0l0.1,-0.1l0.1,0l0.1,0l0,0.1l0.1,0l0.1,0l0.1,0l0,0.1l0.1,0l0,0.1l0.1,0l0,0.1l0.1,0l0,0.1l0,0.1l0,0.1l0,0.1Zm-1.5,277.2l0,-277.2l1.5,0l0,277.2Zm0,0l1.5,0l0,0.1l0,0.1l0,0.1l0,0.1l-0.1,0l0,0.1l-0.1,0l0,0.1l-0.1,0l0,0.1l-0.1,0l-0.1,0l-0.1,0.1l-0.1,0l-0.1,0l-0.1,0l0,-0.1l-0.1,0l-0.1,0l0,-0.1l-0.1,0l-0.1,-0.1L579.2,599l0,-0.1l0,-0.1l-0.1,0l0,-0.1l0,-0.1Z" class="g12_4" />
<path d="M579.9,972.1l-4.7,-9.4l9.4,0Zm-0.8,-8.9l1.5,0l0,0.1l0,0.1l0,0.1l-0.1,0l0,0.1l-0.1,0.1l-0.1,0.1l-0.1,0l0,0.1l-0.1,0l-0.1,0l-0.1,0l-0.1,0l-0.1,0l-0.1,0l0,-0.1l-0.1,0l-0.1,0l0,-0.1l-0.1,0l0,-0.1l-0.1,0l0,-0.1l0,-0.1l-0.1,-0.1l0,-0.1Zm1.5,-301.3l0,301.3l-1.5,0l0,-301.3Zm0,0l-1.5,0l0,-0.1l0,-0.1l0.1,-0.1l0,-0.1l0,-0.1l0.1,0l0,-0.1l0.1,0l0,-0.1l0.1,0l0.1,0l0,-0.1l0.1,0l0.1,0l0.1,0l0.1,0l0.1,0l0.1,0.1l0.1,0l0.1,0.1l0.1,0.1l0,0.1l0.1,0l0,0.1l0,0.1l0,0.1Z" class="g12_4" />
<path d="M662.5,231.5l0,-18" class="g13_4" />
<path d="M662.5,231.5l18,0" class="g13_4" />
<path d="M662.5,1029.5l18,0" class="g13_4" />
<path d="M662.5,1029.5l0,17" class="g13_4" />
<path d="M274.5,231.5l0,-18" class="g13_4" />
<path d="M274.5,231.5l-17,0" class="g13_4" />
<path d="M274.5,1029.5l-17,0" class="g13_4" />
<path d="M274.5,1029.5l0,17" class="g13_4" />
<image x="102" y="102" width="114" height="39" xlink:href="img/1.png" />
</svg>