<?xml version="1.0" encoding="UTF-8" standalone="no"?>
<!DOCTYPE svg PUBLIC "-//W3C//DTD SVG 1.1//EN"
"http://www.w3.org/Graphics/SVG/1.1/DTD/svg11.dtd">
<svg version="1.1" xmlns="http://www.w3.org/2000/svg" xmlns:xlink="http://www.w3.org/1999/xlink">
<defs>
<clipPath id="c0_2"><path d="M671.7,1065.5L532,1055.9l0,-101l139.7,0l0,110.6Z" /></clipPath>
<clipPath id="c1_2"><path d="M694.1,991.5l0,-42.1l158.1,42.1Z" /></clipPath>
<style type="text/css"><![CDATA[
.g5_2{
fill: #696C6D;
}
.g15_2{
fill: none;
stroke: #000000;
stroke-width: 1;
stroke-linecap: butt;
stroke-linejoin: miter;
stroke-miterlimit: 4;
stroke-dasharray: 4,4;
}
.g6_2{
fill: #B92D34;
}
.g16_2{
fill: none;
stroke: #000000;
stroke-width: 1;
stroke-linecap: butt;
stroke-linejoin: miter;
stroke-miterlimit: 4;
stroke-dasharray: 3,3;
}
.g8_2{
fill: #578DAA;
}
.g13_2{
fill: #FFFFFF;
}
.g11_2{
fill: none;
stroke: #040503;
stroke-width: 1;
stroke-linecap: round;
stroke-linejoin: round;
stroke-miterlimit: 2;
}
.g7_2{
fill: #060706;
}
.g1_2{
fill: #1A1412;
}
.g10_2{
fill: #7A9C3D;
}
.g9_2{
fill: #D46537;
}
.g12_2{
fill: #040503;
}
.g2_2{
fill: #CDCACC;
}
.g14_2{
fill: none;
stroke: #000000;
stroke-width: 1;
stroke-linecap: butt;
stroke-linejoin: miter;
stroke-miterlimit: 4;
}
.g4_2{
fill: #DEDFDE;
}
.g3_2{
fill: none;
stroke: #646669;
stroke-width: 1;
stroke-linecap: butt;
stroke-linejoin: miter;
}
]]></style>
</defs>
<path d="M0,126l935,0L935,0L0,0L0,126Z" class="g1_2" />
<path d="M366,434l569,0l0,-308l-569,0l0,308Z" class="g2_2" />
<image x="-1" y="124" width="368" height="313" xlink:href="img/1.png" />
<path d="M495.5,684.5l162,0" class="g3_2" />
<path d="M657.5,684.5l179,0" class="g3_2" />
<path d="M659,716l55,0l0,-21l-55,0l0,21Z" class="g4_2" />
<path d="M659,742l55,0l0,-21l-55,0l0,21Z" class="g5_2" />
<path d="M659,820l55,0l0,-21l-55,0l0,21Z" class="g6_2" />
<path d="M659,768l55,0l0,-21l-55,0l0,21Z" class="g7_2" />
<path d="M659,846l55,0l0,-21l-55,0l0,21Z" class="g8_2" />
<path d="M659,794l55,0l0,-21l-55,0l0,21Z" class="g9_2" />
<path d="M659,873l55,0l0,-22l-55,0l0,22Z" class="g10_2" />
<path d="M495,716l55,0l0,-21l-55,0l0,21Z" class="g4_2" />
<path d="M495,742l55,0l0,-21l-55,0l0,21Z" class="g5_2" />
<path d="M495,768l55,0l0,-21l-55,0l0,21Z" class="g7_2" />
<image x="75" y="464" width="180" height="108" xlink:href="img/2.png" />
<image x="278" y="464" width="180" height="108" xlink:href="img/3.png" />
<image x="480" y="464" width="180" height="108" xlink:href="img/4.png" />
<image x="683" y="464" width="180" height="108" xlink:href="img/5.png" />
<g clip-path="url(#c0_2)">
<path d="M567.2,999.3l0,-4c0,0,0,-0.8,-0.9,-0.8l-28.3,0c0,0,-3.3,0,-3.3,-3.2l0,-5.8c0,0,-0.3,-3.5,3.1,-3.5l123.4,0c0,0,3.1,0.1,3.1,3.1l0,14.1M653,990c-0.9,0,-1.6,-0.7,-1.6,-1.7c0,-0.9,0.7,-1.6,1.6,-1.6c1,0,1.7,0.7,1.7,1.6c0,1,-0.7,1.7,-1.7,1.7Zm-53.4,0c-0.9,0,-1.7,-0.7,-1.7,-1.7c0,-0.9,0.8,-1.6,1.7,-1.6c0.9,0,1.7,0.7,1.7,1.6c0,1,-0.8,1.7,-1.7,1.7Zm-54.4,0c-0.9,0,-1.6,-0.7,-1.6,-1.7c0,-0.9,0.7,-1.6,1.6,-1.6c1,0,1.7,0.7,1.7,1.6c0,1,-0.7,1.7,-1.7,1.7Zm121.3,9.8c0,-0.4,-0.2,-0.6,-0.7,-0.6l-132.2,0c0,0,-0.9,0,-0.9,0.7c0,0.8,0,39.9,0,41c0,1,0.7,5.2,5.2,5.2l123.2,0c0,0,5.3,0,5.3,-5.2c0,-5.3,0.1,-41.1,0.1,-41.1Zm-1.1,-0.6l0,41.9c0,0,0,4.1,-4.3,4.1l-123.1,0c-0.7,0,-4.3,-0.3,-4.3,-4.3l0,-41.7" class="g11_2" />
</g>
<path d="M607.5,999.5l0,-1l-21,0l0,1" class="g11_2" />
<path d="M663.5,998.5l-55,0m-23,0l-17,0" class="g11_2" />
<path d="M600.5,989.5l0,-3m0,-5l0,-25m-6,25l0,-25" class="g11_2" />
<path d="M590.7,956.6c1.4,-1.1,2.8,-0.9,3.9,-0.6c1.1,0.4,2.7,1.2,5.3,0c2.7,-1.1,4.5,0.1,4.5,0.1" class="g11_2" />
<path fill-rule="evenodd" d="M806,979l-8,0l0,-3l8,0l0,3Z" class="g12_2" />
<path d="M806.5,979.5l-8,0l0,-3l8,0l0,3Z" class="g11_2" />
<path fill-rule="evenodd" d="M807,970l-9,0l0,3l9,0l0,-3Z" class="g12_2" />
<path d="M807.5,970.5l-9,0l0,3l9,0l0,-3Z" class="g11_2" />
<g clip-path="url(#c1_2)">
<path d="M750.1,972.5l0,4.7l2.5,0c0,0,2.2,-0.3,2.2,-2.4c0,-2,-1.7,-2.4,-2.2,-2.4c-0.6,0,-2.5,0.1,-2.5,0.1Z" class="g11_2" />
<path fill-rule="evenodd" d="M750.6,973l0,3.6l2,0c0,0,1.6,-0.2,1.6,-1.8c0,-1.6,-1.2,-1.8,-1.7,-1.8c-0.4,0,-1.9,0,-1.9,0Z" class="g12_2" />
<path d="M750.6,973l0,3.6l2,0c0,0,1.6,-0.2,1.6,-1.8c0,-1.6,-1.2,-1.8,-1.7,-1.8c-0.4,0,-1.9,0,-1.9,0Z" class="g11_2" />
</g>
<path d="M750.6,973l-0.5,-0.5m0,4.7l0.5,-0.6" class="g11_2" />
<g clip-path="url(#c1_2)">
<path d="M730.5,972.5l0,4.7l2.6,0c0,0,2.1,-0.3,2.1,-2.4c0,-2,-1.6,-2.4,-2.2,-2.4c-0.5,0,-2.5,0.1,-2.5,0.1Z" class="g11_2" />
<path fill-rule="evenodd" d="M731.1,973l0,3.6l1.9,0c0,0,1.7,-0.2,1.7,-1.8c0,-1.6,-1.3,-1.8,-1.7,-1.8c-0.4,0,-1.9,0,-1.9,0Z" class="g12_2" />
<path d="M731.1,973l0,3.6l1.9,0c0,0,1.7,-0.2,1.7,-1.8c0,-1.6,-1.3,-1.8,-1.7,-1.8c-0.4,0,-1.9,0,-1.9,0Z" class="g11_2" />
</g>
<path d="M731.1,973l-0.6,-0.5m0,4.7l0.6,-0.6" class="g11_2" />
<g clip-path="url(#c1_2)">
<path d="M757.5,977.6l5.4,0c0.1,0,0.2,0.1,0.2,0.2l0,2.2c0,0.1,-0.1,0.2,-0.2,0.2l-5.4,0c-0.1,0,-0.2,-0.1,-0.2,-0.2l0,-2.2c0,-0.1,0.1,-0.2,0.2,-0.2Z" class="g11_2" />
<path fill-rule="evenodd" d="M757.9,978l4.6,0c0.1,0,0.1,0.1,0.1,0.1l0,1.5c0,0.1,0,0.1,-0.1,0.1l-4.6,0c-0.1,0,-0.1,0,-0.1,-0.1l0,-1.5c0,0,0,-0.1,0.1,-0.1Z" class="g12_2" />
<path d="M757.9,978l4.6,0c0.1,0,0.1,0.1,0.1,0.1l0,1.5c0,0.1,0,0.1,-0.1,0.1l-4.6,0c-0.1,0,-0.1,0,-0.1,-0.1l0,-1.5c0,0,0,-0.1,0.1,-0.1Z" class="g11_2" />
</g>
<path d="M757.3,977.6l0.5,0.5m-0.5,2l0.5,-0.4m5.2,-2.1l-0.4,0.5m0.4,2l-0.4,-0.4" class="g11_2" />
<g clip-path="url(#c1_2)">
<path d="M757,969.4l6.4,0c0.1,0,0.1,0.1,0.1,0.2l0,2.3c0,0.1,0,0.1,-0.1,0.1l-6.4,0c-0.1,0,-0.1,0,-0.1,-0.1l0,-2.3c0,-0.1,0,-0.2,0.1,-0.2Z" class="g11_2" />
<path fill-rule="evenodd" d="M757.5,969.9l5.4,0c0.1,0,0.2,0,0.2,0.1l0,1.5c0,0,-0.1,0.1,-0.2,0.1l-5.4,0c-0.1,0,-0.1,-0.1,-0.1,-0.1l0,-1.5c0,-0.1,0,-0.1,0.1,-0.1Z" class="g12_2" />
<path d="M757.5,969.9l5.4,0c0.1,0,0.2,0,0.2,0.1l0,1.5c0,0,-0.1,0.1,-0.2,0.1l-5.4,0c-0.1,0,-0.1,-0.1,-0.1,-0.1l0,-1.5c0,-0.1,0,-0.1,0.1,-0.1Z" class="g11_2" />
</g>
<path d="M756.9,969.5l0.5,0.4m-0.5,2.1l0.5,-0.5m6.1,-2l-0.5,0.4m0.5,2.1L763,971.5" class="g11_2" />
<g clip-path="url(#c1_2)">
<path d="M738,977.6l5.5,0c0.1,0,0.2,0.1,0.2,0.2l0,2.2c0,0.1,-0.1,0.2,-0.2,0.2l-5.5,0c-0.1,0,-0.2,-0.1,-0.2,-0.2l0,-2.2c0,-0.1,0.1,-0.2,0.2,-0.2Z" class="g11_2" />
<path fill-rule="evenodd" d="M738.5,978l4.6,0c0,0,0.1,0.1,0.1,0.1l0,1.5c0,0.1,-0.1,0.1,-0.1,0.1l-4.6,0c-0.1,0,-0.2,0,-0.2,-0.1l0,-1.5c0,0,0.1,-0.1,0.2,-0.1Z" class="g12_2" />
<path d="M738.5,978l4.6,0c0,0,0.1,0.1,0.1,0.1l0,1.5c0,0.1,-0.1,0.1,-0.1,0.1l-4.6,0c-0.1,0,-0.2,0,-0.2,-0.1l0,-1.5c0,0,0.1,-0.1,0.2,-0.1Z" class="g11_2" />
</g>
<path d="M737.9,977.6l0.5,0.5m-0.5,2l0.5,-0.4m5.2,-2.1l-0.5,0.5m0.5,2l-0.5,-0.4" class="g11_2" />
<g clip-path="url(#c1_2)">
<path d="M737.6,969.4l6.3,0c0.1,0,0.2,0.1,0.2,0.2l0,2.3c0,0.1,-0.1,0.1,-0.2,0.1l-6.3,0c-0.1,0,-0.2,0,-0.2,-0.1l0,-2.3c0,-0.1,0.1,-0.2,0.2,-0.2Z" class="g11_2" />
<path fill-rule="evenodd" d="M738,969.9l5.5,0c0.1,0,0.1,0,0.1,0.1l0,1.5c0,0,0,0.1,-0.1,0.1l-5.5,0c0,0,-0.1,-0.1,-0.1,-0.1l0,-1.5c0,-0.1,0.1,-0.1,0.1,-0.1Z" class="g12_2" />
<path d="M738,969.9l5.5,0c0.1,0,0.1,0,0.1,0.1l0,1.5c0,0,0,0.1,-0.1,0.1l-5.5,0c0,0,-0.1,-0.1,-0.1,-0.1l0,-1.5c0,-0.1,0.1,-0.1,0.1,-0.1Z" class="g11_2" />
</g>
<path d="M737.5,969.5l0.5,0.4m-0.5,2.1l0.5,-0.5m6,-2l-0.5,0.4M744,972l-0.5,-0.5" class="g11_2" />
<g clip-path="url(#c1_2)">
<path d="M806.4,970.2l-7.2,0c-0.3,0,-0.6,0.3,-0.6,0.6l0,2.7c0,0.4,0.3,0.7,0.6,0.7l7.2,0c0.4,0,0.6,-0.3,0.6,-0.7l0,-2.7c0,-0.3,-0.2,-0.6,-0.6,-0.6Z" class="g11_2" />
<path fill-rule="evenodd" d="M799.4,972.5l0,-0.9c0,-0.2,0.2,-0.4,0.5,-0.4l5.9,0c0.3,0,0.5,0.2,0.5,0.4l0,0.9Z" class="g13_2" />
<path d="M799.4,972.5l0,-0.9c0,-0.2,0.2,-0.4,0.5,-0.4l5.9,0c0.3,0,0.5,0.2,0.5,0.4l0,0.9l-6.9,0Zm0.5,-0.3l0,-0.5c0,-0.1,0.1,-0.2,0.2,-0.2l5.6,0c0.1,0,0.2,0.1,0.2,0.2l0,0.5l-6,0Z" class="g11_2" />
</g>
<path d="M805.9,972.2l0.4,0.3m-6.4,-0.3l-0.5,0.3m7.6,-1.9l-8.4,0m8.4,3.2l-8.4,0" class="g11_2" />
<g clip-path="url(#c1_2)">
<path d="M806.4,975.7l-7.2,0c-0.3,0,-0.6,0.3,-0.6,0.6l0,2.7c0,0.4,0.3,0.6,0.6,0.6l7.2,0c0.4,0,0.6,-0.2,0.6,-0.6l0,-2.7c0,-0.3,-0.2,-0.6,-0.6,-0.6Z" class="g11_2" />
<path fill-rule="evenodd" d="M799.4,978l0,-0.9c0,-0.2,0.2,-0.4,0.5,-0.4l5.9,0c0.3,0,0.5,0.2,0.5,0.4l0,0.9Z" class="g13_2" />
<path d="M799.4,978l0,-0.9c0,-0.2,0.2,-0.4,0.5,-0.4l5.9,0c0.3,0,0.5,0.2,0.5,0.4l0,0.9l-6.9,0Zm0.5,-0.4l0,-0.4c0,-0.1,0.1,-0.2,0.2,-0.2l5.6,0c0.1,0,0.2,0.1,0.2,0.2l0,0.4l-6,0Z" class="g11_2" />
</g>
<path d="M805.9,977.6l0.4,0.4m-6.4,-0.4l-0.5,0.4m7.6,-1.9l-8.4,0m8.4,3.2l-8.4,0" class="g11_2" />
<g clip-path="url(#c1_2)">
<path d="M695.5,960.7l132.6,0c0.2,0,0.4,0.2,0.4,0.4l0,27.3c0,0.3,-0.2,0.5,-0.4,0.5l-132.6,0c-0.3,0,-0.5,-0.2,-0.5,-0.5l0,-27.3c0,-0.2,0.2,-0.4,0.5,-0.4Z" class="g11_2" />
</g>
<path d="M696.5,986.5l0,-23m0,21l0,-19m130,21l0,-23m1,21l0,-19" class="g11_2" />
<g clip-path="url(#c1_2)">
<path d="M712.3,963.3l7.2,0c0.9,0,1.6,0.7,1.6,1.6l0,19.9c0,0.9,-0.7,1.6,-1.6,1.6l-7.2,0c-0.9,0,-1.6,-0.7,-1.6,-1.6l0,-19.9c0,-0.9,0.7,-1.6,1.6,-1.6Z" class="g11_2" />
<path d="M715.9,964.8c1.9,0,3.5,1.6,3.5,3.5l0,13.3c0,2,-1.6,3.6,-3.5,3.6c-2,0,-3.6,-1.6,-3.6,-3.6l0,-13.3c0,-1.9,1.6,-3.5,3.6,-3.5Zm-1.6,4.7l3.3,0.7c0.5,0.1,0.9,0.4,0.9,1l0,7.5c0,0.6,-0.4,0.9,-0.9,1l-3.3,0.6c-0.5,0.1,-1,-0.4,-1,-1l0,-8.9c0,-0.5,0.5,-1.1,1,-0.9Z" class="g11_2" />
<path d="M714.5,970l2.8,0.6c0.5,0.1,0.8,0.4,0.8,0.8l0,7.2c0,0.4,-0.3,0.7,-0.8,0.8l-2.8,0.5c-0.4,0.1,-0.8,-0.4,-0.8,-0.8l0,-8.3c0,-0.5,0.4,-0.9,0.8,-0.8Zm0.1,7.6c0.2,0,0.3,0.1,0.3,0.3c0,0.1,-0.1,0.2,-0.3,0.2c-0.1,0,-0.2,-0.1,-0.2,-0.2c0,-0.2,0.1,-0.3,0.2,-0.3Zm0,-1.5c0.2,0,0.3,0.2,0.3,0.3c0,0.2,-0.1,0.3,-0.3,0.3c-0.1,0,-0.2,-0.1,-0.2,-0.3c0,-0.1,0.1,-0.3,0.2,-0.3Zm0,-1.4c0.2,0,0.3,0.1,0.3,0.3c0,0.1,-0.1,0.2,-0.3,0.2c-0.1,0,-0.2,-0.1,-0.2,-0.2c0,-0.2,0.1,-0.3,0.2,-0.3Zm0,-1.5c0.2,0,0.3,0.1,0.3,0.2c0,0.2,-0.1,0.3,-0.3,0.3c-0.1,0,-0.2,-0.1,-0.2,-0.3c0,-0.1,0.1,-0.2,0.2,-0.2Zm0,-1.5c0.2,0,0.3,0.1,0.3,0.2c0,0.2,-0.1,0.3,-0.3,0.3c-0.1,0,-0.2,-0.1,-0.2,-0.3c0,-0.1,0.1,-0.2,0.2,-0.2Zm1.3,-0.8c0.2,0,0.3,0.2,0.3,0.3c0,0.2,-0.1,0.3,-0.3,0.3c-0.1,0,-0.2,-0.1,-0.2,-0.3c0,-0.1,0.1,-0.3,0.2,-0.3Zm0,1.5c0.2,0,0.3,0.1,0.3,0.3c0,0.1,-0.1,0.2,-0.3,0.2c-0.1,0,-0.2,-0.1,-0.2,-0.2c0,-0.2,0.1,-0.3,0.2,-0.3Zm0,1.5c0.2,0,0.3,0.1,0.3,0.3c0,0.1,-0.1,0.2,-0.3,0.2c-0.1,0,-0.2,-0.1,-0.2,-0.2c0,-0.2,0.1,-0.3,0.2,-0.3Zm0,1.5c0.2,0,0.3,0.1,0.3,0.2c0,0.2,-0.1,0.3,-0.3,0.3c-0.1,0,-0.2,-0.1,-0.2,-0.3c0,-0.1,0.1,-0.2,0.2,-0.2Zm0,1.4c0.2,0,0.3,0.2,0.3,0.3c0,0.2,-0.1,0.3,-0.3,0.3c-0.1,0,-0.2,-0.1,-0.2,-0.3c0,-0.1,0.1,-0.3,0.2,-0.3Zm1.3,0.8c0.2,0,0.3,0.1,0.3,0.3c0,0.1,-0.1,0.2,-0.3,0.2c-0.1,0,-0.2,-0.1,-0.2,-0.2c0,-0.2,0.1,-0.3,0.2,-0.3Zm0,-1.5c0.2,0,0.3,0.2,0.3,0.3c0,0.2,-0.1,0.3,-0.3,0.3c-0.1,0,-0.2,-0.1,-0.2,-0.3c0,-0.1,0.1,-0.3,0.2,-0.3Zm0,-1.5c0.2,0,0.3,0.2,0.3,0.3c0,0.2,-0.1,0.3,-0.3,0.3c-0.1,0,-0.2,-0.1,-0.2,-0.3c0,-0.1,0.1,-0.3,0.2,-0.3Zm0,-1.4c0.2,0,0.3,0.1,0.3,0.3c0,0.1,-0.1,0.2,-0.3,0.2c-0.1,0,-0.2,-0.1,-0.2,-0.2c0,-0.2,0.1,-0.3,0.2,-0.3Zm0,-1.5c0.2,0,0.3,0.1,0.3,0.2c0,0.2,-0.1,0.3,-0.3,0.3c-0.1,0,-0.2,-0.1,-0.2,-0.3c0,-0.1,0.1,-0.2,0.2,-0.2Z" class="g11_2" />
</g>
<path d="M714.4,965.9l1.5,-0.9l1.6,0.9l0,1.8l-1.6,0.9l-1.5,-1l0,-1.7Z" class="g11_2" />
<g clip-path="url(#c1_2)">
<path d="M715.9,965.4c0.8,0,1.5,0.6,1.5,1.4c0,0.8,-0.7,1.4,-1.5,1.4c-0.7,0,-1.4,-0.6,-1.4,-1.4c0,-0.8,0.7,-1.4,1.4,-1.4Zm0,0.5c0.5,0,1,0.4,1,0.9c0,0.5,-0.5,0.9,-1,0.9c-0.5,0,-0.9,-0.4,-0.9,-0.9c0,-0.5,0.4,-0.9,0.9,-0.9Zm0,0.4c0.3,0,0.6,0.2,0.6,0.5c0,0.3,-0.3,0.5,-0.6,0.5c-0.3,0,-0.5,-0.2,-0.5,-0.5c0,-0.3,0.2,-0.5,0.5,-0.5Z" class="g11_2" />
</g>
<path d="M714.4,982.1l1.5,-0.9l1.6,0.8l0,1.8l-1.6,0.9l-1.5,-0.9l0,-1.7Z" class="g11_2" />
<g clip-path="url(#c1_2)">
<path d="M715.9,981.5c0.8,0,1.5,0.7,1.5,1.4c0,0.8,-0.7,1.5,-1.5,1.5c-0.7,0,-1.4,-0.7,-1.4,-1.5c0,-0.7,0.7,-1.4,1.4,-1.4Zm0,0.5c0.5,0,1,0.4,1,0.9c0,0.6,-0.5,1,-1,1c-0.5,0,-0.9,-0.4,-0.9,-1c0,-0.5,0.4,-0.9,0.9,-0.9Zm0,0.4c0.3,0,0.6,0.3,0.6,0.5c0,0.3,-0.3,0.6,-0.6,0.6c-0.3,0,-0.5,-0.3,-0.5,-0.6c0,-0.2,0.2,-0.5,0.5,-0.5Zm53.5,-9.9l0,4.7l2.5,0c0,0,2.2,-0.3,2.2,-2.4c0,-2,-1.7,-2.4,-2.2,-2.4c-0.6,0,-2.5,0.1,-2.5,0.1Z" class="g11_2" />
<path fill-rule="evenodd" d="M769.9,973l0,3.6l2,0c0,0,1.6,-0.2,1.6,-1.8c0,-1.6,-1.2,-1.8,-1.6,-1.8c-0.5,0,-2,0,-2,0Z" class="g12_2" />
<path d="M769.9,973l0,3.6l2,0c0,0,1.6,-0.2,1.6,-1.8c0,-1.6,-1.2,-1.8,-1.6,-1.8c-0.5,0,-2,0,-2,0Z" class="g11_2" />
</g>
<path d="M769.9,973l-0.5,-0.5m0,4.7l0.5,-0.6" class="g11_2" />
<g clip-path="url(#c1_2)">
<path d="M776.8,977.6l5.4,0c0.1,0,0.2,0.1,0.2,0.2l0,2.2c0,0.1,-0.1,0.2,-0.2,0.2l-5.4,0c-0.1,0,-0.2,-0.1,-0.2,-0.2l0,-2.2c0,-0.1,0.1,-0.2,0.2,-0.2Z" class="g11_2" />
<path fill-rule="evenodd" d="M777.2,978l4.6,0c0.1,0,0.1,0.1,0.1,0.1l0,1.5c0,0.1,0,0.1,-0.1,0.1l-4.6,0c0,0,-0.1,0,-0.1,-0.1l0,-1.5c0,0,0.1,-0.1,0.1,-0.1Z" class="g12_2" />
<path d="M777.2,978l4.6,0c0.1,0,0.1,0.1,0.1,0.1l0,1.5c0,0.1,0,0.1,-0.1,0.1l-4.6,0c0,0,-0.1,0,-0.1,-0.1l0,-1.5c0,0,0.1,-0.1,0.1,-0.1Z" class="g11_2" />
</g>
<path d="M776.6,977.6l0.5,0.5m-0.5,2l0.5,-0.4m5.2,-2.1l-0.4,0.5m0.4,2l-0.4,-0.4" class="g11_2" />
<g clip-path="url(#c1_2)">
<path d="M776.4,969.4l6.3,0c0.1,0,0.2,0.1,0.2,0.2l0,2.3c0,0.1,-0.1,0.1,-0.2,0.1l-6.3,0c-0.2,0,-0.2,0,-0.2,-0.1l0,-2.3c0,-0.1,0,-0.2,0.2,-0.2Z" class="g11_2" />
<path fill-rule="evenodd" d="M776.8,969.9l5.4,0c0.1,0,0.2,0,0.2,0.1l0,1.5c0,0,-0.1,0.1,-0.2,0.1l-5.4,0c-0.1,0,-0.1,-0.1,-0.1,-0.1l0,-1.5c0,-0.1,0,-0.1,0.1,-0.1Z" class="g12_2" />
<path d="M776.8,969.9l5.4,0c0.1,0,0.2,0,0.2,0.1l0,1.5c0,0,-0.1,0.1,-0.2,0.1l-5.4,0c-0.1,0,-0.1,-0.1,-0.1,-0.1l0,-1.5c0,-0.1,0,-0.1,0.1,-0.1Z" class="g11_2" />
</g>
<path d="M776.2,969.5l0.5,0.4m-0.5,2.1l0.5,-0.5m6.1,-2l-0.5,0.4m0.5,2.1l-0.5,-0.5" class="g11_2" />
<path d="M697.1,960.7l0,-2l129.2,0l0,2m-96.8,0l0,-2m-32.3,30.2l0,2l129.1,0l0,-2m-131.1,27.3l45.6,0c0.3,0,0.6,0.2,0.6,0.6l0,27c0,0.3,-0.3,0.6,-0.6,0.6l-45.6,0c-0.3,0,-0.6,-0.3,-0.6,-0.6l0,-27c0,-0.4,0.3,-0.6,0.6,-0.6Zm6.4,28.2l0,1.9l39.1,0c0,0,3.3,0.2,3.3,-3.3l0,-25.6c0,0,-0.1,-1.1,1.2,-1.1l13.4,0l0,-2.1l-13.4,0c0,0,-3.3,-0.1,-3.3,3.2l0,25.6c0,0,0.1,1.4,-1.3,1.4m21.2,-12.1c1,1.4,0.9,2.7,0.6,3.9c-0.4,1.1,-1.2,2.7,0,5.3c1.1,2.7,-0.1,4.5,-0.1,4.5" class="g11_2" />
<path d="M545.5,969.5l54,0m-54,-2l0,4m54,-4l0,4m-64,-20l128,0m-128,-2l0,4m128,-4l0,4m31,0l133,0m-133,-2l0,3m133,-3l0,3m-227,15l52,0m-52,-2l0,4m52,-4l0,4m-124,28l0,47m1,-47l-3,0m3,47l-3,0m308,-87l0,32m2,-32l-4,0m4,32l-4,0m-337,-9l0,64m1,-64l-3,0m3,64l-3,0" class="g14_2" />
<path d="M499.5,982.5l34,0" class="g15_2" />
<path d="M535.5,955.5l0,25" class="g16_2" />
<path d="M545.5,985.5l0,-12" class="g15_2" />
<path d="M663.5,955.5l0,25" class="g16_2" />
<path d="M652.5,985.5l0,-12m-53,12l0,-12" class="g15_2" />
<path d="M751.6,972.5l0,4.7l2.5,0c0,0,2.1,-0.3,2.1,-2.4c0,-2,-1.6,-2.4,-2.2,-2.4c-0.5,0,-2.4,0.1,-2.4,0.1Z" class="g11_2" />
<path fill-rule="evenodd" d="M752.1,973l0,3.6l2,0c0,0,1.6,-0.2,1.6,-1.8c0,-1.6,-1.3,-1.8,-1.7,-1.8c-0.4,0,-1.9,0,-1.9,0Z" class="g12_2" />
<path d="M752.1,973l0,3.6l2,0c0,0,1.6,-0.2,1.6,-1.8c0,-1.6,-1.3,-1.8,-1.7,-1.8c-0.4,0,-1.9,0,-1.9,0ZM732,972.5l0,4.7l2.5,0c0,0,2.2,-0.3,2.2,-2.4c0,-2,-1.7,-2.4,-2.2,-2.4c-0.6,0,-2.5,0.1,-2.5,0.1Z" class="g11_2" />
<path fill-rule="evenodd" d="M732.6,973l0,3.6l1.9,0c0,0,1.6,-0.2,1.6,-1.8c0,-1.6,-1.2,-1.8,-1.6,-1.8c-0.5,0,-1.9,0,-1.9,0Z" class="g12_2" />
<path d="M732.6,973l0,3.6l1.9,0c0,0,1.6,-0.2,1.6,-1.8c0,-1.6,-1.2,-1.8,-1.6,-1.8c-0.5,0,-1.9,0,-1.9,0Zm26.3,4.6l5.5,0c0.1,0,0.2,0,0.2,0.2l0,2.2c0,0.1,-0.1,0.2,-0.2,0.2l-5.5,0c-0.1,0,-0.2,-0.1,-0.2,-0.2l0,-2.2c0,-0.2,0.1,-0.2,0.2,-0.2Z" class="g11_2" />
<path fill-rule="evenodd" d="M759.4,978l4.6,0c0,0,0.1,0.1,0.1,0.1l0,1.5c0,0.1,-0.1,0.1,-0.1,0.1l-4.6,0c-0.1,0,-0.1,0,-0.1,-0.1l0,-1.5c0,0,0,-0.1,0.1,-0.1Z" class="g12_2" />
<path d="M759.4,978l4.6,0c0,0,0.1,0.1,0.1,0.1l0,1.5c0,0.1,-0.1,0.1,-0.1,0.1l-4.6,0c-0.1,0,-0.1,0,-0.1,-0.1l0,-1.5c0,0,0,-0.1,0.1,-0.1Zm-0.9,-8.6l6.3,0c0.1,0,0.2,0.1,0.2,0.2l0,2.3c0,0.1,-0.1,0.1,-0.2,0.1l-6.3,0c-0.1,0,-0.2,0,-0.2,-0.1l0,-2.3c0,-0.1,0.1,-0.2,0.2,-0.2Z" class="g11_2" />
<path fill-rule="evenodd" d="M759,969.9l5.4,0c0.1,0,0.1,0,0.1,0.1l0,1.5c0,0,0,0.1,-0.1,0.1l-5.4,0c-0.1,0,-0.2,-0.1,-0.2,-0.1l0,-1.5c0,-0.1,0.1,-0.1,0.2,-0.1Z" class="g12_2" />
<path d="M759,969.9l5.4,0c0.1,0,0.1,0,0.1,0.1l0,1.5c0,0,0,0.1,-0.1,0.1l-5.4,0c-0.1,0,-0.2,-0.1,-0.2,-0.1l0,-1.5c0,-0.1,0.1,-0.1,0.2,-0.1Zm-19.5,7.7l5.4,0c0.1,0,0.2,0.1,0.2,0.2l0,2.2c0,0.1,-0.1,0.2,-0.2,0.2l-5.4,0c-0.1,0,-0.2,-0.1,-0.2,-0.2l0,-2.2c0,-0.1,0.1,-0.2,0.2,-0.2Z" class="g11_2" />
<path fill-rule="evenodd" d="M739.9,978l4.6,0c0.1,0,0.1,0.1,0.1,0.1l0,1.5c0,0.1,0,0.1,-0.1,0.1l-4.6,0c0,0,-0.1,0,-0.1,-0.1l0,-1.5c0,0,0.1,-0.1,0.1,-0.1Z" class="g12_2" />
<path d="M739.9,978l4.6,0c0.1,0,0.1,0.1,0.1,0.1l0,1.5c0,0.1,0,0.1,-0.1,0.1l-4.6,0c0,0,-0.1,0,-0.1,-0.1l0,-1.5c0,0,0.1,-0.1,0.1,-0.1Zm-0.8,-8.6l6.3,0c0.1,0,0.2,0.1,0.2,0.2l0,2.3c0,0.1,-0.1,0.1,-0.2,0.1l-6.3,0c-0.1,0,-0.2,0,-0.2,-0.1l0,-2.3c0,-0.1,0.1,-0.2,0.2,-0.2Z" class="g11_2" />
<path fill-rule="evenodd" d="M739.5,969.9l5.5,0c0,0,0.1,0,0.1,0.1l0,1.5c0,0,-0.1,0.1,-0.1,0.1l-5.5,0c-0.1,0,-0.1,-0.1,-0.1,-0.1l0,-1.5c0,-0.1,0,-0.1,0.1,-0.1Z" class="g12_2" />
<path d="M739.5,969.9l5.5,0c0,0,0.1,0,0.1,0.1l0,1.5c0,0,-0.1,0.1,-0.1,0.1l-5.5,0c-0.1,0,-0.1,-0.1,-0.1,-0.1l0,-1.5c0,-0.1,0,-0.1,0.1,-0.1Z" class="g11_2" />
<path d="M807.9,970.2l-7.2,0c-0.3,0,-0.6,0.3,-0.6,0.6l0,2.7c0,0.4,0.3,0.7,0.6,0.7l7.2,0c0.3,0,0.6,-0.3,0.6,-0.7l0,-2.7c0,-0.3,-0.3,-0.6,-0.6,-0.6Z" class="g11_2" />
<path fill-rule="evenodd" d="M800.9,972.5l0,-0.9c0,-0.2,0.2,-0.4,0.5,-0.4l5.9,0c0.2,0,0.4,0.2,0.4,0.4l0,0.9Z" class="g13_2" />
<path d="M800.9,972.5l0,-0.9c0,-0.2,0.2,-0.4,0.5,-0.4l5.9,0c0.2,0,0.4,0.2,0.4,0.4l0,0.9l-6.8,0Zm0.4,-0.3l0,-0.5c0,-0.1,0.1,-0.2,0.2,-0.2l5.6,0c0.1,0,0.2,0.1,0.2,0.2l0,0.5l-6,0Z" class="g11_2" />
<path d="M807.9,975.7l-7.2,0c-0.3,0,-0.6,0.3,-0.6,0.6l0,2.7c0,0.4,0.3,0.6,0.6,0.6l7.2,0c0.3,0,0.6,-0.2,0.6,-0.6l0,-2.7c0,-0.3,-0.3,-0.6,-0.6,-0.6Z" class="g11_2" />
<path fill-rule="evenodd" d="M800.9,978l0,-0.9c0,-0.2,0.2,-0.4,0.5,-0.4l5.9,0c0.2,0,0.4,0.2,0.4,0.4l0,0.9Z" class="g13_2" />
<path d="M800.9,978l0,-0.9c0,-0.2,0.2,-0.4,0.5,-0.4l5.9,0c0.2,0,0.4,0.2,0.4,0.4l0,0.9l-6.8,0Zm0.4,-0.4l0,-0.4c0,-0.1,0.1,-0.2,0.2,-0.2l5.6,0c0.1,0,0.2,0.1,0.2,0.2l0,0.4l-6,0Z" class="g11_2" />
<path d="M696.9,960.7l132.6,0c0.3,0,0.5,0.2,0.5,0.4l0,27.3c0,0.3,-0.2,0.5,-0.5,0.5l-132.6,0c-0.2,0,-0.4,-0.2,-0.4,-0.5l0,-27.3c0,-0.2,0.2,-0.4,0.4,-0.4Z" class="g11_2" />
<path d="M713.8,963.3l7.2,0c0.9,0,1.6,0.7,1.6,1.6l0,19.9c0,0.9,-0.7,1.6,-1.6,1.6l-7.2,0c-0.9,0,-1.6,-0.7,-1.6,-1.6l0,-19.9c0,-0.9,0.7,-1.6,1.6,-1.6Z" class="g11_2" />
<path d="M717.3,964.8c2,0,3.6,1.6,3.6,3.5l0,13.3c0,2,-1.6,3.6,-3.6,3.6c-1.9,0,-3.5,-1.6,-3.5,-3.6l0,-13.3c0,-1.9,1.6,-3.5,3.5,-3.5Zm-1.6,4.7l3.3,0.7c0.6,0.1,1,0.4,1,1l0,7.5c0,0.6,-0.4,0.9,-1,1l-3.3,0.6c-0.5,0.1,-0.9,-0.4,-0.9,-1l0,-8.9c0,-0.5,0.4,-1.1,0.9,-0.9Z" class="g11_2" />
<path d="M716,970l2.8,0.6c0.4,0.1,0.8,0.4,0.8,0.8l0,7.2c0,0.4,-0.4,0.7,-0.8,0.8l-2.8,0.5c-0.4,0.1,-0.8,-0.4,-0.8,-0.8l0,-8.3c0,-0.5,0.4,-0.9,0.8,-0.8Zm0.1,7.6c0.2,0,0.3,0.1,0.3,0.3c0,0.1,-0.1,0.2,-0.3,0.2c-0.1,0,-0.3,-0.1,-0.3,-0.2c0,-0.2,0.2,-0.3,0.3,-0.3Zm0,-1.5c0.2,0,0.3,0.2,0.3,0.3c0,0.2,-0.1,0.3,-0.3,0.3c-0.1,0,-0.3,-0.1,-0.3,-0.3c0,-0.1,0.2,-0.3,0.3,-0.3Zm0,-1.4c0.2,0,0.3,0.1,0.3,0.3c0,0.1,-0.1,0.2,-0.3,0.2c-0.1,0,-0.3,-0.1,-0.3,-0.2c0,-0.2,0.2,-0.3,0.3,-0.3Zm0,-1.5c0.2,0,0.3,0.1,0.3,0.2c0,0.2,-0.1,0.3,-0.3,0.3c-0.1,0,-0.3,-0.1,-0.3,-0.3c0,-0.1,0.2,-0.2,0.3,-0.2Zm0,-1.5c0.2,0,0.3,0.1,0.3,0.2c0,0.2,-0.1,0.3,-0.3,0.3c-0.1,0,-0.3,-0.1,-0.3,-0.3c0,-0.1,0.2,-0.2,0.3,-0.2Zm1.3,-0.8c0.1,0,0.3,0.2,0.3,0.3c0,0.2,-0.2,0.3,-0.3,0.3c-0.1,0,-0.3,-0.1,-0.3,-0.3c0,-0.1,0.2,-0.3,0.3,-0.3Zm0,1.5c0.1,0,0.3,0.1,0.3,0.3c0,0.1,-0.2,0.2,-0.3,0.2c-0.1,0,-0.3,-0.1,-0.3,-0.2c0,-0.2,0.2,-0.3,0.3,-0.3Zm0,1.5c0.1,0,0.3,0.1,0.3,0.3c0,0.1,-0.2,0.2,-0.3,0.2c-0.1,0,-0.3,-0.1,-0.3,-0.2c0,-0.2,0.2,-0.3,0.3,-0.3Zm0,1.5c0.1,0,0.3,0.1,0.3,0.2c0,0.2,-0.2,0.3,-0.3,0.3c-0.1,0,-0.3,-0.1,-0.3,-0.3c0,-0.1,0.2,-0.2,0.3,-0.2Zm0,1.4c0.1,0,0.3,0.2,0.3,0.3c0,0.2,-0.2,0.3,-0.3,0.3c-0.1,0,-0.3,-0.1,-0.3,-0.3c0,-0.1,0.2,-0.3,0.3,-0.3Zm1.3,0.8c0.1,0,0.3,0.1,0.3,0.3c0,0.1,-0.2,0.2,-0.3,0.2c-0.2,0,-0.3,-0.1,-0.3,-0.2c0,-0.2,0.1,-0.3,0.3,-0.3Zm0,-1.5c0.1,0,0.3,0.2,0.3,0.3c0,0.2,-0.2,0.3,-0.3,0.3c-0.2,0,-0.3,-0.1,-0.3,-0.3c0,-0.1,0.1,-0.3,0.3,-0.3Zm0,-1.5c0.1,0,0.3,0.2,0.3,0.3c0,0.2,-0.2,0.3,-0.3,0.3c-0.2,0,-0.3,-0.1,-0.3,-0.3c0,-0.1,0.1,-0.3,0.3,-0.3Zm0,-1.4c0.1,0,0.3,0.1,0.3,0.3c0,0.1,-0.2,0.2,-0.3,0.2c-0.2,0,-0.3,-0.1,-0.3,-0.2c0,-0.2,0.1,-0.3,0.3,-0.3Zm0,-1.5c0.1,0,0.3,0.1,0.3,0.2c0,0.2,-0.2,0.3,-0.3,0.3c-0.2,0,-0.3,-0.1,-0.3,-0.3c0,-0.1,0.1,-0.2,0.3,-0.2Zm-1.3,-6.3c0.8,0,1.4,0.6,1.4,1.4c0,0.8,-0.6,1.4,-1.4,1.4c-0.8,0,-1.4,-0.6,-1.4,-1.4c0,-0.8,0.6,-1.4,1.4,-1.4Zm0,0.5c0.5,0,0.9,0.4,0.9,0.9c0,0.5,-0.4,0.9,-0.9,0.9c-0.5,0,-0.9,-0.4,-0.9,-0.9c0,-0.5,0.4,-0.9,0.9,-0.9Zm0,0.4c0.3,0,0.5,0.2,0.5,0.5c0,0.3,-0.2,0.5,-0.5,0.5c-0.3,0,-0.5,-0.2,-0.5,-0.5c0,-0.3,0.2,-0.5,0.5,-0.5Zm0,15.2c0.8,0,1.4,0.7,1.4,1.4c0,0.8,-0.6,1.5,-1.4,1.5c-0.8,0,-1.4,-0.7,-1.4,-1.5c0,-0.7,0.6,-1.4,1.4,-1.4Zm0,0.5c0.5,0,0.9,0.4,0.9,0.9c0,0.6,-0.4,1,-0.9,1c-0.5,0,-0.9,-0.4,-0.9,-1c0,-0.5,0.4,-0.9,0.9,-0.9Zm0,0.4c0.3,0,0.5,0.3,0.5,0.5c0,0.3,-0.2,0.6,-0.5,0.6c-0.3,0,-0.5,-0.3,-0.5,-0.6c0,-0.2,0.2,-0.5,0.5,-0.5Zm53.5,-9.9l0,4.7l2.5,0c0,0,2.1,-0.3,2.1,-2.4c0,-2,-1.6,-2.4,-2.1,-2.4c-0.6,0,-2.5,0.1,-2.5,0.1Z" class="g11_2" />
<path fill-rule="evenodd" d="M771.4,973l0,3.6l2,0c0,0,1.6,-0.2,1.6,-1.8c0,-1.6,-1.3,-1.8,-1.7,-1.8c-0.4,0,-1.9,0,-1.9,0Z" class="g12_2" />
<path d="M771.4,973l0,3.6l2,0c0,0,1.6,-0.2,1.6,-1.8c0,-1.6,-1.3,-1.8,-1.7,-1.8c-0.4,0,-1.9,0,-1.9,0Zm6.8,4.6l5.5,0c0.1,0,0.2,0,0.2,0.2l0,2.2c0,0.1,-0.1,0.2,-0.2,0.2l-5.5,0c-0.1,0,-0.2,-0.1,-0.2,-0.2l0,-2.2c0,-0.2,0.1,-0.2,0.2,-0.2Z" class="g11_2" />
<path fill-rule="evenodd" d="M778.7,978l4.6,0c0,0,0.1,0.1,0.1,0.1l0,1.5c0,0.1,-0.1,0.1,-0.1,0.1l-4.6,0c-0.1,0,-0.1,0,-0.1,-0.1l0,-1.5c0,0,0,-0.1,0.1,-0.1Z" class="g12_2" />
<path d="M778.7,978l4.6,0c0,0,0.1,0.1,0.1,0.1l0,1.5c0,0.1,-0.1,0.1,-0.1,0.1l-4.6,0c-0.1,0,-0.1,0,-0.1,-0.1l0,-1.5c0,0,0,-0.1,0.1,-0.1Zm-0.9,-8.6l6.3,0c0.1,0,0.2,0.1,0.2,0.2l0,2.3c0,0.1,-0.1,0.1,-0.2,0.1l-6.3,0c-0.1,0,-0.2,0,-0.2,-0.1l0,-2.3c0,-0.1,0.1,-0.2,0.2,-0.2Z" class="g11_2" />
<path fill-rule="evenodd" d="M778.3,969.9l5.4,0c0.1,0,0.1,0,0.1,0.1l0,1.5c0,0,0,0.1,-0.1,0.1l-5.4,0c-0.1,0,-0.2,-0.1,-0.2,-0.1l0,-1.5c0,-0.1,0.1,-0.1,0.2,-0.1Z" class="g12_2" />
<path d="M778.3,969.9l5.4,0c0.1,0,0.1,0,0.1,0.1l0,1.5c0,0,0,0.1,-0.1,0.1l-5.4,0c-0.1,0,-0.2,-0.1,-0.2,-0.1l0,-1.5c0,-0.1,0.1,-0.1,0.2,-0.1Z" class="g11_2" />
<path d="M696.7,1016.2l45.6,0c0.3,0,0.6,0.2,0.6,0.6l0,27c0,0.3,-0.3,0.6,-0.6,0.6l-45.6,0c-0.3,0,-0.6,-0.3,-0.6,-0.6l0,-27c0,-0.4,0.3,-0.6,0.6,-0.6Zm6.3,28.2l0,1.9l39.1,0c0,0,3.4,0.2,3.4,-3.3l0,-25.6c0,0,-0.2,-1.1,1.2,-1.1l13.3,0l0,-2.1l-13.4,0c0,0,-3.2,-0.1,-3.2,3.2l0,25.6c0,0,0.1,1.4,-1.4,1.4m0.9,-10.3l0.5,0m-0.5,8.2l0.1,0l0,1.7m2.5,-8.3l18.3,0m-18.3,5.8l18.3,0m-0.5,-9.2c1,1.4,0.8,2.7,0.5,3.9c-0.3,1.1,-1.1,2.7,0,5.3c1.1,2.7,0,4.5,0,4.5" class="g11_2" />
</svg>