<?xml version="1.0" encoding="UTF-8" standalone="no"?>
<!DOCTYPE svg PUBLIC "-//W3C//DTD SVG 1.1//EN"
"http://www.w3.org/Graphics/SVG/1.1/DTD/svg11.dtd">
<svg version="1.1" xmlns="http://www.w3.org/2000/svg" xmlns:xlink="http://www.w3.org/1999/xlink">
<defs>
<style type="text/css"><![CDATA[
.g1_19{
fill: none;
stroke: #231F20;
stroke-width: 1;
stroke-linecap: butt;
stroke-linejoin: miter;
stroke-miterlimit: 4;
}
]]></style>
</defs>
<path d="M110.5,217.5l770,0" class="g1_19" />
<path d="M110.5,253.5l770,0" class="g1_19" />
<path d="M110.5,290.5l770,0" class="g1_19" />
<path d="M110.5,326.5l770,0" class="g1_19" />
<path d="M110.5,363.5l770,0" class="g1_19" />
<path d="M110.5,400.5l770,0" class="g1_19" />
<path d="M110.5,436.5l770,0" class="g1_19" />
<path d="M110.5,473.5l770,0" class="g1_19" />
<path d="M110.5,509.5l770,0" class="g1_19" />
<path d="M110.5,546.5l770,0" class="g1_19" />
<path d="M110.5,582.5l770,0" class="g1_19" />
<path d="M110.5,619.5l770,0" class="g1_19" />
<path d="M110.5,655.5l770,0" class="g1_19" />
<path d="M110.5,692.5l770,0" class="g1_19" />
<path d="M110.5,728.5l770,0" class="g1_19" />
<path d="M110.5,765.5l770,0" class="g1_19" />
<path d="M110.5,802.5l770,0" class="g1_19" />
<path d="M110.5,875.5l770,0" class="g1_19" />
<path d="M110.5,948.5l770,0" class="g1_19" />
<path d="M110.5,1021.5l770,0" class="g1_19" />
<path d="M110.5,838.5l770,0" class="g1_19" />
<path d="M110.5,911.5l770,0" class="g1_19" />
<path d="M110.5,984.5l770,0" class="g1_19" />
<path d="M110.5,1057.5l770,0" class="g1_19" />
<path d="M110.5,1094.5l770,0" class="g1_19" />
</svg>