<?xml version="1.0" encoding="UTF-8" standalone="no"?>
<!DOCTYPE svg PUBLIC "-//W3C//DTD SVG 1.1//EN"
"http://www.w3.org/Graphics/SVG/1.1/DTD/svg11.dtd">
<svg viewBox="0 0 935 1210" version="1.1" xmlns="http://www.w3.org/2000/svg" xmlns:xlink="http://www.w3.org/1999/xlink">
<defs>
<style type="text/css"><![CDATA[
.g14_3{
fill: #E0E0E0;
}
.g15_3{
fill: none;
stroke: #FFFFFF;
stroke-width: 6;
stroke-linecap: round;
stroke-linejoin: round;
stroke-miterlimit: 2;
}
.g2_3{
fill: none;
stroke: #FFFFFF;
stroke-width: 3;
stroke-linecap: round;
stroke-linejoin: miter;
stroke-miterlimit: 2;
}
.g17_3{
fill: none;
stroke: #000000;
stroke-width: 3;
stroke-linecap: round;
stroke-linejoin: round;
stroke-miterlimit: 2;
}
.g9_3{
stroke: #000000;
stroke-width: 1;
stroke-linecap: round;
stroke-linejoin: round;
stroke-miterlimit: 2;
}
.g16_3{
fill: none;
stroke: #000000;
stroke-width: 2;
stroke-linecap: round;
stroke-linejoin: round;
stroke-miterlimit: 2;
stroke-dasharray: 3,4;
}
.g3_3{
fill: #FFFFFF;
stroke: #000000;
stroke-width: 2;
stroke-linecap: butt;
stroke-linejoin: miter;
stroke-miterlimit: 2;
}
.g1_3{
fill: #B3B3B3;
}
.g7_3{
fill: #636363;
stroke: #000000;
stroke-width: 1;
stroke-linecap: butt;
stroke-linejoin: miter;
stroke-miterlimit: 2;
}
.g11_3{
fill: none;
stroke: #000000;
stroke-width: 2;
stroke-linecap: round;
stroke-linejoin: round;
stroke-miterlimit: 2;
}
.g12_3{
fill: #FFFFFF;
stroke: #000000;
stroke-width: 2;
stroke-linecap: round;
stroke-linejoin: round;
stroke-miterlimit: 2;
}
.g18_3{
fill: none;
stroke: #FFFFFF;
stroke-width: 4;
stroke-linecap: round;
stroke-linejoin: round;
stroke-miterlimit: 2;
}
.g5_3{
fill: none;
stroke: #000000;
stroke-width: 2;
stroke-linecap: butt;
stroke-linejoin: miter;
stroke-miterlimit: 2;
}
.g4_3{
fill: none;
stroke: #000000;
stroke-width: 1;
stroke-linecap: butt;
stroke-linejoin: miter;
stroke-miterlimit: 2;
}
.g13_3{
fill: #FFFFFF;
}
.g10_3{
fill: #FFFFFF;
stroke: #000000;
stroke-width: 1;
stroke-linecap: round;
stroke-linejoin: round;
stroke-miterlimit: 2;
}
.g6_3{
}
.g8_3{
fill: none;
stroke: #000000;
stroke-width: 1;
stroke-linecap: round;
stroke-linejoin: round;
stroke-miterlimit: 2;
}
]]></style>
</defs>
<path fill-rule="evenodd" d="M55,54l824,0l0,1101l-824,0Z" class="g1_3" />
<path d="M55.5,256.5l27,0" class="g2_3" />
<path d="M55.5,430.5l27,0" class="g2_3" />
<path d="M55.5,605.5l27,0" class="g2_3" />
<path d="M55.5,779.5l27,0" class="g2_3" />
<path d="M55.5,953.5l27,0" class="g2_3" />
<path d="M852.5,256.5l28,0" class="g2_3" />
<path d="M852.5,605.5l28,0" class="g2_3" />
<path d="M236.5,82.5l0,-27" class="g2_3" />
<path d="M390.5,82.5l0,-27" class="g2_3" />
<path d="M544.5,82.5l0,-27" class="g2_3" />
<path d="M698.5,82.5l0,-27" class="g2_3" />
<path d="M236.5,1155.5l0,-28" class="g2_3" />
<path d="M390.5,1155.5l0,-28" class="g2_3" />
<path d="M544.5,1155.5l0,-28" class="g2_3" />
<path d="M698.5,1155.5l0,-28" class="g2_3" />
<path d="M852.5,430.5l28,0" class="g2_3" />
<path d="M852.5,779.5l28,0" class="g2_3" />
<path d="M852.5,953.5l28,0" class="g2_3" />
<path fill-rule="evenodd" d="M82,82l770,0l0,1045l-770,0Z" class="g3_3" />
<path d="M184.5,209.5l646,0" class="g4_3" />
<path d="M103.5,278.5l727,0" class="g4_3" />
<path d="M82,1097l770,0" class="g5_3" />
<path d="M466.5,1099.5l0,28" class="g4_3" />
<path d="M468.5,1099.5l0,28" class="g4_3" />
<path d="M272.5,1099.5l0,28" class="g4_3" />
<path d="M274.5,1099.5l0,28" class="g4_3" />
<path d="M664.5,1099.5l0,28" class="g4_3" />
<path d="M666.5,1099.5l0,28" class="g4_3" />
<path fill-rule="evenodd" d="M106,289l37,0l0,38l-37,0Z" class="g6_3" />
<path fill-rule="evenodd" d="M103.5,287.5l38,0l0,37l-38,0Z" class="g7_3" />
<path d="M274.5,1099.5l192,0" class="g8_3" />
<path d="M468.5,1099.5l196,0" class="g8_3" />
<path d="M666.5,1099.5l186,0" class="g8_3" />
<path d="M272.5,1099.5l-190,0" class="g8_3" />
<path fill-rule="evenodd" d="M106.5,337.5l178,0l0,75l-178,0Z" class="g9_3" />
<path fill-rule="evenodd" d="M104.5,335.5l178,0l0,75l-178,0Z" class="g10_3" />
<path d="M206.9,354.9l4.8,18.2" class="g8_3" />
<path d="M226,354.9l4.8,18.2" class="g8_3" />
<path d="M216.5,354.9l4.7,18.2" class="g8_3" />
<path d="M245.5,356.5l3.9,15.1" class="g8_3" />
<path d="M235.6,354.9l4.6,18" class="g8_3" />
<path d="M255.6,358.7l2.6,9.8" class="g8_3" />
<path d="M218.5,358l3.6,11.9l1.1,0" class="g8_3" />
<path d="M219.2,369.9L215.6,358l-1.2,0" class="g8_3" />
<path d="M209,358l3.5,11.9l1.2,0" class="g8_3" />
<path d="M209.7,369.9L206.1,358l-1.2,0" class="g8_3" />
<path d="M228.1,358l3.5,11.9l1.2,0" class="g8_3" />
<path d="M228.7,369.9L225.2,358l-1.2,0" class="g8_3" />
<path d="M237.7,358.4l3.2,10.9l1.4,-0.2" class="g8_3" />
<path d="M238.2,369.5L234.7,358l-1.2,0" class="g8_3" />
<path d="M247.6,359.6l2.5,8.3l1.3,0" class="g8_3" />
<path d="M247.4,368.5l-2.8,-9.4L243.4,359" class="g8_3" />
<path d="M257.7,361.6l1.3,4.3l1.2,-0.3" class="g8_3" />
<path d="M256.4,366.8l-1.8,-5.9l-1.3,-0.5" class="g8_3" />
<path d="M204.2,369.9l5.5,0l2,3.2l2,-3.2l5.5,0l2,3.2l2,-3.2l5.5,0" class="g11_3" />
<path d="M228.7,370c0.7,1,1.4,2,2.1,3.1c0.6,-1,1.3,-2,2,-3.1c1.8,-0.2,3.5,-0.3,5.4,-0.5c0.7,1.1,1.4,2.3,2,3.4c0.7,-1.2,1.4,-2.5,2.1,-3.8c1.7,-0.2,3.4,-0.3,5.1,-0.6c0.7,1,1.3,2,2,3.1c0.7,-1.2,1.3,-2.4,2,-3.7c1.6,-0.3,3.3,-0.7,5,-1c0.5,0.6,1.2,1.2,1.8,1.9c0.7,-1,1.4,-2.1,2,-3.2c0.8,-0.2,1.7,-0.5,2.3,-0.7c0.6,-0.3,1.2,-0.6,1.7,-0.9c-1.2,-0.5,-2.4,-1.1,-3.5,-1.5c-1.1,-0.4,-2.1,-0.8,-3.1,-1" class="g11_3" />
<path d="M199.4,358l5.5,0l2,-3.1L209,358l5.4,0l2.1,-3.1l2,3.1l5.5,0" class="g11_3" />
<path d="M224,358l2,-3.1l2.1,3.1l5.4,0l2.1,-3.1l2.1,3.5l5.7,0.6l2.1,-2.5l2.1,3l5.7,0.9l2.3,-1.9l2.1,3" class="g11_3" />
<path d="M197.4,354.9l4.8,18.2" class="g8_3" />
<path d="M199.4,358l3.5,11.9l1.3,0" class="g8_3" />
<path d="M200.1,369.9L196.6,358l-1.3,0" class="g8_3" />
<path fill-rule="evenodd" d="M164,363.5c0,10.9,-8.8,19.6,-19.6,19.6c-10.8,0,-19.6,-8.7,-19.6,-19.6c0,-10.8,8.8,-19.5,19.6,-19.5c10.8,0,19.6,8.7,19.6,19.5Z" class="g12_3" />
<path fill-rule="evenodd" d="M193.9,363.1c0.1,-4.1,1.1,-8,2.7,-11.3c1.6,-3.3,4,-6.3,7.1,-8.8c0.6,0,1.3,0,2,0c0,13.4,0,26.8,0,40.2c-0.6,0,-1.3,0,-2,0c-3.1,-2.5,-5.5,-5.5,-7.1,-8.8c-1.6,-3.3,-2.6,-7.2,-2.7,-11.3Z" class="g12_3" />
<path d="M203.5,345.5l0,35" class="g8_3" />
<path fill-rule="evenodd" d="M155,365.2l0,0.2l0,0.1l0,0.1l0,0.2l-0.1,0.1l-0.1,0.1l0,0.1l-0.1,0.1l-0.1,0.1l-0.1,0.1l-0.1,0l0,0.1l-0.1,0l-0.2,0l-0.1,0.1l-0.1,0.1l-0.1,0l-0.1,0l-0.1,0l-6.4,0l0,6.4l0,0.1l0,0.1l0,0.1l-0.1,0l0,0.2l0,0.1l0,0.1l-0.1,0l0,0.1l-0.1,0.1l-0.1,0.1l-0.1,0.1l-0.1,0l-0.1,0.1l0,0.1l-0.2,0l-0.1,0l-0.1,0l0,0.1l-0.1,0l-0.1,0l-0.1,0l-3.2,0l-0.1,0l-0.1,0l-0.1,-0.1l-0.1,0l-0.1,0l-0.2,0l0,-0.1l-0.1,-0.1l-0.2,-0.1L141.5,374l0,-0.1l-0.1,-0.1l-0.1,-0.1l0,-0.1l-0.1,-0.2l0,-0.1l0,-0.1l0,-0.1l0,-6.4l-6.4,0l-0.1,0l-0.1,0l-0.1,-0.1l-0.1,0l-0.1,-0.1l-0.2,0l-0.1,0l0,-0.1l-0.1,0l-0.1,-0.1l-0.1,-0.1l0,-0.1L133.6,366l0,-0.1l-0.1,0l0,-0.1l-0.1,-0.2l0,-0.1l0,-0.1l0,-0.2l0,-3.1l0,-0.2l0,-0.1l0,-0.1l0.1,-0.1l0,-0.2l0.1,-0.1l0.1,0l0,-0.1l0,-0.1l0.1,-0.1l0.1,0l0.1,0l0,-0.1l0.1,0l0,-0.1l0.2,-0.1l0.1,0l0.1,0l0.1,-0.1l0.1,0l0.1,0l6.4,0l0,-6.3l0,-0.2l0,-0.1l0,-0.1l0,-0.1l0.1,0l0,-0.2l0.1,-0.1l0.1,-0.1l0.1,-0.1l0,-0.1l0.2,-0.1l0.1,0l0,-0.1l0.2,-0.1l0.1,0l0.1,0l0.1,-0.1l0.1,0l0.1,0l3.2,0l0.1,0l0.1,0l0.1,0l0,0.1l0.1,0l0.1,0l0.2,0.1l0,0.1l0.1,0l0.1,0l0.1,0.1l0,0.1l0.1,0.1l0.1,0l0,0.1l0.1,0l0,0.1l0,0.2l0.1,0.1l0,0.1l0,0.1l0,0.2l0,6.3l6.4,0l0.1,0l0.1,0l0.1,0l0.1,0.1l0.1,0l0.2,0.1l0,0.1l0.1,0l0,0.1l0.1,0l0.1,0l0.1,0.1l0,0.1l0.1,0.1l0.1,0l0,0.1l0.1,0.2l0,0.1l0,0.1l0,0.1l0,0.2Z" class="g10_3" />
<path fill-rule="evenodd" d="M398.8,248.9C414.1,240,429.6,231.1,445,222.1c0.6,-0.7,1.2,-1.5,1.7,-2.3c0.3,-0.3,0.3,-0.6,0.3,-0.7c-0.1,-0.2,-0.4,-0.3,-0.7,-0.3c-1,0.1,-2.1,0.2,-3.1,0.3c-15.2,8.8,-30.4,17.7,-45.7,26.5c0.4,1.1,0.8,2.2,1.3,3.3Z" class="g13_3" />
<path d="M387.5,255.4c19.1,-11.1,38.3,-22.2,57.5,-33.3c0.6,-0.7,1.2,-1.5,1.7,-2.3c0.3,-0.3,0.3,-0.6,0.3,-0.7c-0.1,-0.2,-0.4,-0.3,-0.7,-0.3c-1,0.1,-2.1,0.2,-3.1,0.3c-19,11,-38,21.9,-57,33" class="g11_3" />
<path d="M444.1,221.9c0.1,-0.6,0.6,-1.1,1,-1.4c0.4,-0.4,1,-0.7,1.6,-0.9" class="g8_3" />
<path d="M442.6,220.1c0.8,0,1.5,-0.2,2.2,-0.4c0.6,-0.2,1.2,-0.5,1.6,-0.8" class="g8_3" />
<path fill-rule="evenodd" d="M403.2,236.9c-0.8,0.5,-1.7,1,-2.6,1.5c-0.4,0.3,-0.8,0.7,-1.1,1.1c-0.3,0.4,-0.6,1,-0.7,1.6c0,0.4,0,0.8,-0.1,0.9c-0.2,0.1,-0.4,0.1,-0.7,0c-0.8,-0.6,-1.8,-1,-2.7,-1.1c-0.9,-0.1,-1.9,0.1,-2.7,0.4c-9.2,5.4,-18.5,10.7,-27.7,16c-2,2,-3.2,4,-3.5,5.9c-0.3,1.9,0.2,3.8,1.5,5.6c1.7,1.9,3.5,3.1,5.3,3.4c1.9,0.3,4,-0.2,6.1,-1.5c8.7,-5,17.3,-10,26,-15c0.9,-0.8,1.6,-1.7,2,-2.5c0.4,-0.9,0.6,-1.9,0.6,-2.9c0,-0.4,0.2,-0.7,0.3,-0.8c0.2,0,0.5,0.1,0.8,0.4c0.5,0.2,1,0.5,1.5,0.5c0.4,0,0.9,-0.1,1.3,-0.3c1,-0.5,2.1,-1.1,3.1,-1.7c0.9,-0.9,1.3,-2.1,1.2,-3.4c0,-1.3,-0.7,-2.9,-1.7,-4.6c-1.1,-1.5,-2.2,-2.5,-3.2,-3.1c-1,-0.6,-2,-0.7,-3,-0.4Z" class="g13_3" />
<path d="M398.9,242c-0.1,-1.5,0.4,-2.8,1.3,-3.3c1,-0.5,1.9,-1.1,2.9,-1.7c1.8,-1,4.8,0.7,6.6,3.9c1.8,3.1,1.8,6.5,0,7.6c-0.9,0.5,-1.9,1.1,-2.9,1.6c-0.9,0.6,-2.3,0.3,-3.6,-0.5" class="g11_3" />
<path d="M402.3,250.9c-0.1,-1.5,-0.6,-3.2,-1.6,-4.9c-0.7,-1.2,-1.6,-2.3,-2.6,-3.1" class="g8_3" />
<path d="M403,248.9c-0.1,-1.1,-0.4,-2.3,-1.1,-3.5c-0.7,-1.2,-1.6,-2.1,-2.4,-2.7" class="g8_3" />
<path d="M404.9,249.5c-0.7,-0.2,-1.2,-0.2,-1.5,-0.2c-0.3,0.1,-0.5,0.4,-0.5,0.8c0,1.2,-0.2,2.4,-0.6,3.2c-0.4,0.9,-1.1,1.7,-1.8,2.2c-9.3,5.3,-18.5,10.7,-27.7,16c-1.2,0.6,-2,0.8,-3.4,0.8c-4.4,0,-8,-3.7,-8,-8.1c0,-2.6,1.4,-5.1,3.5,-6.6c9.1,-5.4,18.3,-10.7,27.6,-16.1c0.7,-0.3,1.6,-0.5,2.5,-0.5c0.8,0.1,1.9,0.5,3,1c0.4,0.3,0.9,0.3,1.2,0.1c0.3,-0.1,0.5,-0.5,0.6,-1.1" class="g11_3" />
<path d="M366.2,257.6c2.1,0.2,4.5,2.1,6.2,5c1.5,2.7,2,5.6,1.4,7.5" class="g8_3" />
<path d="M406.3,250c1.4,-1.1,1.3,-4.1,-0.3,-7c-1.7,-2.8,-4.3,-4.5,-6,-3.8" class="g8_3" />
<path d="M370.1,257.7L395,243.2" class="g8_3" />
<path d="M372.5,259.1l24.2,-14.4" class="g8_3" />
<path d="M375.1,264.1l24.5,-14.8" class="g8_3" />
<path d="M375.6,266.9L400.1,252" class="g8_3" />
<path d="M372.5,259.1c-1,0.6,-3.9,-0.1,-2.4,-1.4" class="g8_3" />
<path d="M375.1,264.1c-1.4,0.9,-1.2,3.6,0.5,2.8" class="g8_3" />
<path d="M400.1,252c1.4,-0.7,1.7,-4.1,-0.5,-2.7" class="g8_3" />
<path d="M396.7,244.7c1.5,-0.8,0,-2.5,-1.7,-1.5" class="g8_3" />
<path fill-rule="evenodd" d="M219.3,230.3c0,0,0.7,-0.6,0.9,-0.7c0.4,-0.2,0.8,-0.4,1.2,-0.6c0.3,-0.4,0.6,-0.8,0.9,-1.2c0,0,0.1,-0.2,0.1,-0.2c-0.1,-0.1,-0.3,-0.1,-0.3,-0.1c-0.2,0.1,-0.4,0.2,-0.7,0.4c-0.1,0.1,-0.3,0.3,-0.5,0.4c-0.1,0.2,-0.2,0.4,-0.4,0.6c-0.4,0.3,-0.8,0.6,-1.2,0.8c0,0.2,0,0.4,0,0.6Z" class="g14_3" />
<path d="M219.3,230.3c0.3,-0.2,0.6,-0.4,0.9,-0.7c0.4,-0.2,0.8,-0.3,1.2,-0.5c0.3,-0.5,0.7,-1,1.1,-1.4c0.1,-0.3,0.1,-0.4,0.1,-0.5c-0.1,-0.1,-0.2,-0.2,-0.5,-0.2c-0.6,0.1,-1.2,0.1,-1.9,0.2c-0.3,0.3,-0.6,0.5,-0.9,0.8c-0.4,0.2,-0.8,0.3,-1.1,0.5" class="g11_3" />
<path d="M220.6,228.9c0.1,-0.3,0.3,-0.6,0.6,-0.8c0.3,-0.2,0.6,-0.5,0.9,-0.6" class="g8_3" />
<path d="M220.2,227.8c0.3,0,0.6,-0.1,0.9,-0.2c0.3,-0.1,0.6,-0.3,0.9,-0.5" class="g11_3" />
<path fill-rule="evenodd" d="M219.3,230.3c-0.1,0.1,-0.1,0.2,-0.1,0.3c-1.9,1.1,-3.7,2.1,-5.5,3.2c-0.2,0,-0.4,0.1,-0.6,0.1c0,0,-0.1,0,-0.2,0c0,0,-0.1,-0.1,-0.2,-0.1c-0.3,-0.2,-0.5,-0.4,-0.6,-0.6c-0.1,-0.2,-0.2,-0.4,-0.2,-0.7c0,-0.2,0,-0.3,0.1,-0.4c0,-0.1,0,-0.2,0.1,-0.3c1.8,-1.1,3.6,-2.1,5.5,-3.2c0.1,0,0.2,0,0.3,-0.1c0.1,0,0.2,0,0.3,0c0.1,0,0.3,0.1,0.4,0.2c0.2,0.1,0.3,0.3,0.5,0.5c0.1,0.2,0.1,0.3,0.2,0.5c0,0.2,0,0.4,0,0.6Z" class="g13_3" />
<path d="M211.9,232.7l0,-0.3l0,-0.1l0.1,-0.1l0,-0.1l0,-0.2l0.1,-0.1" class="g11_3" />
<path d="M212.5,233.7l0.4,0.2" class="g11_3" />
<path d="M212.5,233.7l0,-0.1l-0.2,-0.1l-0.1,-0.1l-0.1,-0.1L212,233.1l0,-0.1l-0.1,-0.2l0,-0.1" class="g11_3" />
<path d="M211.9,232.7l0,-0.2l0.1,-0.1l0,-0.1l0.1,0l0.1,0l0.1,0l0.2,0l0.1,0.1l0.1,0.1l0.1,0.1l0.1,0.1l0.1,0.2l0,0.1l0.1,0.2l0,0.1" class="g8_3" />
<path d="M212.9,231.7l0,0.2L213,232l0,0.2l0.1,0.1l0.1,0.1l0.2,0.1l0.1,0.1l0.2,0.1" class="g8_3" />
<path d="M213.5,233.3l0,0.1l0.1,0.1l0,0.1l0,0.1l0.1,0.1" class="g8_3" />
<path d="M213.1,233.3l0,0.2l-0.1,0.1l-0.1,0.1l-0.1,0l-0.1,0l-0.1,0l-0.1,0" class="g8_3" />
<path d="M212.1,231.8l0.1,0l0.1,0l0.1,0l0.2,0l0.1,0l0.2,-0.1" class="g8_3" />
<path d="M213.7,232.7l-0.1,0.2l0,0.1l0,0.1l-0.1,0.1l0,0.1" class="g8_3" />
<path d="M213.7,233.8l-0.2,0l-0.1,0.1l-0.2,0l-0.1,0l-0.1,0l-0.1,0" class="g11_3" />
<path d="M212.1,231.8l5.5,-3.2" class="g11_3" />
<path d="M212.9,231.7l5.5,-3.2" class="g8_3" />
<path d="M213.7,232.7l5.5,-3.2" class="g8_3" />
<path d="M213.7,233.8l5.5,-3.2" class="g11_3" />
<path d="M217.6,228.6l0.1,0l0.2,-0.1l0.1,0l0.1,0l0.1,0l0.1,0" class="g11_3" />
<path d="M219.3,230l0,-0.1l0,-0.2l0,-0.2l-0.1,-0.2l-0.1,-0.2L218.9,229l-0.1,-0.2l-0.2,-0.1l-0.1,-0.1" class="g8_3" />
<path d="M219.3,230l0,0.1l0,0.1l0,0.1l-0.1,0.1l0,0.2" class="g11_3" />
<path d="M218.3,228.5l0.2,0.1" class="g11_3" />
<path d="M218.3,228.5l0.1,0l0.1,0.1l0.2,0.1l0.1,0.1l0.1,0.1L219,229l0,0.1l0.1,0.1l0,0.2l0.1,0.1l0,0.1l0.1,0.1l0,0.1l0,0.1l0,0.1" class="g11_3" />
<path fill-rule="evenodd" d="M210.3,229c0.7,0.2,1.3,0.4,2,0.6c0.7,0.1,1.3,0.1,2,0.2c0.4,0.1,0.7,0.3,1.1,0.6c0.3,0.2,0.6,0.6,0.8,1c0.3,0.6,0.6,1.2,0.6,1.7c0.1,0.4,0,0.9,-0.2,1.2c-0.2,0.4,-0.4,0.8,-0.5,1.2c-0.1,0.3,-0.3,0.8,-0.3,1.1c-0.1,0.7,-0.3,1.2,-0.5,1.7c-0.3,0.4,-0.6,0.7,-0.9,0.9c-2.1,1.2,-4.1,2.4,-6.2,3.6c-0.1,0.4,-0.3,0.8,-0.5,1.1c-0.2,0.2,-0.4,0.4,-0.7,0.5c-0.5,1.2,-1.3,2.3,-2.2,3.1c-0.9,0.9,-2.1,1.6,-3.4,2.2c-0.1,0.3,-0.5,0.7,-1.1,1.2c-0.6,0.4,-1.6,0.9,-2.7,1.5c-0.1,0.2,-0.3,0.5,-0.5,0.6c-0.1,0.2,-0.4,0.4,-0.6,0.5c-1.9,1,-3.8,2.1,-5.7,3.2c-0.2,0.4,-0.6,0.9,-0.9,1.2c-0.4,0.3,-0.8,0.6,-1.3,0.8c-2.5,1.5,-5.1,3,-7.8,4.5c0,0.4,0,0.9,0.1,1.4c-1.2,0.6,-2.3,1.3,-3.5,2c-0.2,-0.1,-0.3,-0.2,-0.5,-0.3c0,-0.6,0,-1.3,0,-1.9c-0.8,0.5,-1.7,0.9,-2.5,1.4c-0.1,0.1,-0.3,0.2,-0.3,0.3c-0.1,0.2,-0.2,0.4,-0.2,0.5c0,0.2,0,0.4,0,0.6c-0.6,0.4,-1.2,0.7,-1.8,1.1c-1.6,0.9,-3.4,1.3,-5.1,1.2c-1.8,-0.1,-3.6,-0.8,-5.5,-1.9c-1.2,-0.7,-2.5,-1.5,-3.8,-2.3c-0.6,-1,-0.9,-2.2,-0.9,-3.5c0,-1.3,0.4,-2.8,1,-4.4c0.2,-0.4,0.4,-0.7,0.6,-1c0.2,-0.4,0.3,-0.7,0.5,-0.9c-0.4,-0.2,-1.2,-0.5,-2.1,-0.7c-0.9,-0.2,-2,-0.4,-3.3,-0.6c-2.4,-0.7,-4.6,-1.4,-6.3,-2c-1.7,-0.6,-3.1,-1.3,-4,-2c-0.5,-0.4,-1.1,-0.6,-1.5,-0.7c-0.4,0,-0.9,0.1,-1.2,0.3c-1.3,0.6,-2.6,0.9,-3.5,1c-0.9,0.1,-1.7,0,-2.3,-0.3c-2.7,-1.6,-5.5,-3.1,-8.2,-4.7c-0.2,-0.2,-0.3,-0.4,-0.5,-0.7c-0.4,-0.1,-0.8,-0.3,-1.2,-0.6c-0.8,-1,-1.2,-2.3,-1.2,-3.9c-0.1,-1.5,0.2,-3.3,0.8,-5.2c0.2,-0.4,0.3,-0.7,0.5,-1.1c0.4,-0.3,0.7,-0.7,1,-1.2c0.2,-0.5,0.4,-1,0.5,-1.6c0.4,-0.5,0.8,-1,1.2,-1.5c2.9,-1.7,5.9,-3.4,8.9,-5.1c0.3,0,0.8,-0.2,1.2,-0.4c0.4,-0.2,0.8,-0.6,1.1,-1.1c1,-0.5,1.9,-1,2.9,-1.5c0.2,-0.2,0.6,-0.3,0.9,-0.3c0.3,0,0.7,0.1,1,0.2c3,1.6,6,3.3,9.1,4.9c0.5,0.4,1,1.1,1.4,2c0.4,1,0.8,2.3,1,3.9c0.1,0.7,0.2,1.4,0.4,2.2c-0.2,1.3,-0.5,2.4,-0.8,3.4c-0.3,1,-0.8,1.8,-1.2,2.4c2.1,0.5,3.9,1.1,5.3,1.6c1.5,0.4,2.7,1,3.5,1.5c0.8,0.3,1.6,0.6,2.3,0.6c0.7,0.1,1.3,-0.1,1.7,-0.3c0.3,-0.2,0.6,-0.3,0.9,-0.3c0.2,0,0.4,0,0.6,0.2c0.5,-0.4,0.9,-0.6,1.2,-0.8c0.3,-0.1,0.6,0,0.8,0.1c0.9,0.5,1.9,1,2.8,1.6c0.6,-0.4,1.3,-0.8,1.9,-1.2c0.5,-0.1,0.9,-0.1,1.3,-0.1c0.3,0.1,0.5,0.3,0.7,0.6c3.6,-2.1,7.2,-4.2,10.8,-6.3c0.3,0,0.6,-0.1,0.8,-0.2c0.1,-0.1,0.2,-0.2,0.2,-0.3c1.2,-0.7,2.5,-1.4,3.7,-2.1c0.1,-0.1,0.4,-0.2,0.5,-0.2c0.2,0,0.5,0,0.6,0c0.1,-0.2,0.4,-0.5,0.9,-0.7c0.5,-0.2,1.2,-0.6,2.2,-0.8c0.7,-0.3,1.4,-0.5,2.1,-0.5c0.7,0,1.5,0,2.2,0c0.2,-0.1,0.6,-0.3,1,-0.3c0.3,0,0.7,0.1,1.1,0.1c2,-1.1,4.1,-2.3,6.2,-3.6c0.2,-0.1,0.5,-0.2,0.8,-0.2c0.2,0,0.5,0,0.7,0Z" class="g13_3" />
<path d="M129.5,247.4c0,-0.1,-0.2,-0.3,-0.4,-0.4c-0.2,-0.1,-0.5,-0.3,-0.8,-0.5c-1.2,-0.7,-2.3,-1.4,-3.5,-2c-0.8,-1,-1.3,-2.4,-1.3,-4.3c0,-1.8,0.5,-3.8,1.3,-5.7c0.5,-0.5,0.7,-0.8,1,-1.4c0.4,-0.6,0.5,-1,0.6,-1.6c0.4,-0.5,0.7,-1,1.1,-1.4c2.9,-1.7,5.9,-3.4,8.9,-5.2c1.3,0.1,2.4,-1.3,2.4,-1.3c0.9,-0.6,1.8,-1.1,2.8,-1.7c0.7,-0.4,1.3,-0.4,1.7,-0.2c3.1,1.7,6.2,3.4,9.4,5.1" class="g11_3" />
<path d="M134.6,250.4c-2.7,-1.6,-5.4,-3.2,-8.2,-4.8c0,-0.1,0,-0.2,-0.1,-0.2" class="g11_3" />
<path d="M136.5,235.2l14.4,-8.3" class="g8_3" />
<path d="M150.9,226.9c0.6,-0.4,1.2,-0.4,1.6,-0.2" class="g8_3" />
<path d="M136.5,235.2c-1.3,1.6,-2.3,3.3,-3,5c-0.6,1.7,-1,3.4,-1.1,5.3c0.1,1.7,0.5,3,1.1,3.9c0.3,0.3,0.5,0.6,0.8,0.8" class="g8_3" />
<path d="M212.4,229.6c0.7,0.1,1.3,0.2,1.9,0.3c0.7,0,1.5,0.7,2,1.6c0.6,1,0.7,2,0.4,2.6c-0.2,0.5,-0.5,1.1,-0.7,1.7" class="g11_3" />
<path d="M212.9,229.8c0.9,0.3,1.8,1.1,2.5,2.2c0.7,1.2,0.9,2.5,0.7,3.4" class="g8_3" />
<path d="M210.7,229.1c0.6,0.2,1.3,0.4,2,0.6c0.9,0.3,1.9,1.2,2.6,2.4c0.7,1.3,1,2.6,0.7,3.5c-0.1,0.7,-0.3,1.3,-0.4,2" class="g11_3" />
<path d="M202.6,232.9c2,-1.2,4.1,-2.4,6.1,-3.6c0.6,-0.3,1.3,-0.4,2,-0.2" class="g11_3" />
<path d="M212,229.7c0.9,0.7,1.8,1.7,2.5,2.9c0.7,1.2,1.1,2.5,1.1,3.6" class="g8_3" />
<path d="M215.6,237.6c-0.2,0.7,-0.6,1.2,-1.1,1.6c-2.1,1.2,-4.2,2.4,-6.3,3.6" class="g11_3" />
<path d="M200.7,233.2c1.7,0.3,3.8,2,5.1,4.4c1.5,2.4,1.8,5,1.3,6.6" class="g8_3" />
<path d="M193.6,235c2.3,-1.2,5.9,0.9,8.1,4.8c2.2,3.8,2.2,8,0,9.4" class="g8_3" />
<path d="M201.8,249.6c-0.1,0.1,-0.2,0.1,-0.4,0.2" class="g11_3" />
<path d="M193.3,234.7c2.4,-1.3,6.2,0.8,8.6,5c2.3,4.1,2.3,8.5,-0.1,9.9" class="g8_3" />
<path d="M187.7,237.7c0.2,-0.1,0.3,-0.2,0.4,-0.3c0.2,-0.1,0.3,-0.2,0.5,-0.3c0.9,-0.6,1.9,-1.1,2.8,-1.7c2.5,-1.4,6.5,0.9,8.9,5.2c2.5,4.2,2.5,8.8,0,10.2c-0.9,0.6,-1.9,1.1,-2.8,1.7" class="g11_3" />
<path d="M188.2,237.7c0.1,-0.1,0.2,-0.2,0.3,-0.3c2.4,-1.3,6.3,0.9,8.6,5c2.1,3.6,2.4,7.5,0.8,9.3" class="g8_3" />
<path d="M205.1,231.4c1.5,-0.9,4.1,0.6,5.7,3.3c1.5,2.7,1.5,5.7,0,6.6" class="g8_3" />
<path d="M188.6,237.1c2.5,-1.5,6.5,0.8,8.9,5.1c2.5,4.2,2.5,8.9,0,10.3" class="g8_3" />
<path d="M189.2,252.2c0.7,-0.4,1.4,-0.5,1.9,-0.2c0.5,0.3,0.8,0.9,0.8,1.7" class="g8_3" />
<path d="M191.9,253.7c0,0.8,-0.3,1.8,-0.8,2.7c-0.5,0.9,-1.2,1.6,-1.9,2" class="g11_3" />
<path d="M189.2,258.4l-8.4,4.8" class="g11_3" />
<path d="M180.8,263.2l-3.4,2" class="g8_3" />
<path d="M189.2,252.2l-3.6,2" class="g8_3" />
<path d="M185,254.6l-3.6,2.1" class="g8_3" />
<path d="M180.8,257.1l-3.2,1.8" class="g8_3" />
<path d="M183.7,260.1c0.2,0,0.6,-0.1,0.8,-0.2c0.8,-0.5,1.5,-0.9,2.3,-1.3c0.4,-0.3,0.8,-0.7,1.1,-1.3c0.6,-0.9,0.7,-1.8,0.4,-2.4" class="g8_3" />
<path d="M188.3,254.9c-0.1,-0.1,-0.2,-0.2,-0.4,-0.3c-0.3,-0.1,-0.7,-0.1,-1.1,0.1c-0.7,0.5,-1.5,0.9,-2.3,1.3c-0.4,0.3,-0.8,0.7,-1.1,1.3c-0.7,1.1,-0.7,2.3,0,2.7c0.1,0,0.2,0.1,0.3,0.1" class="g8_3" />
<path d="M184,258.8c0.2,0.1,0.3,0.2,0.5,0.3c0.3,0.2,0.7,0.2,1.2,-0.1c0.3,-0.1,0.6,-0.3,0.9,-0.5c0.4,-0.3,0.8,-0.7,1.1,-1.2c0.7,-1.1,0.7,-2.3,0,-2.7" class="g8_3" />
<path d="M185.1,255.8c-0.2,0.2,-0.4,0.4,-0.6,0.7c-0.6,1.1,-0.6,2.2,0,2.6" class="g8_3" />
<path d="M183.2,259.8c0.2,0,0.5,-0.1,0.7,-0.3c0.2,-0.1,0.5,-0.2,0.7,-0.4" class="g8_3" />
<path d="M187.7,255.8c0,-0.3,-0.1,-0.5,-0.3,-0.7c-0.2,-0.1,-0.6,-0.1,-0.9,0.1c-0.2,0.2,-0.5,0.3,-0.8,0.5c-0.3,0.2,-0.6,0.5,-0.9,0.9c-0.5,0.8,-0.5,1.7,0,2c0.1,0.1,0.2,0.1,0.4,0.1" class="g8_3" />
<path d="M185.2,258.7c0.2,0,0.3,0,0.5,-0.2" class="g8_3" />
<path d="M186.5,258.1c0.3,-0.2,0.7,-0.5,0.9,-1c0.2,-0.2,0.3,-0.6,0.3,-0.9" class="g8_3" />
<path d="M183.7,256.7c-0.3,0.9,-0.2,1.8,0.3,2.1" class="g8_3" />
<path d="M184.5,257.9c0.1,0.1,0.1,0.3,0.3,0.3c0.2,0.1,0.4,0.1,0.7,-0.1c0.2,-0.1,0.5,-0.2,0.7,-0.4c0.3,-0.1,0.5,-0.4,0.7,-0.8c0.4,-0.6,0.4,-1.4,0,-1.6c0,-0.1,-0.1,-0.1,-0.2,-0.1" class="g8_3" />
<path d="M188.2,255.6l0.2,0.1l3.5,-2l6.5,-4.7" class="g8_3" />
<path d="M188.3,250.8l-3,1.8" class="g8_3" />
<path d="M188.3,250.8c1.2,-0.2,2,-0.1,2.6,0.4c0.6,0.5,0.9,1.3,1,2.5" class="g8_3" />
<path d="M157.9,257.2c0.6,-1,1.2,-1.9,1.7,-2.6c0.6,-0.7,1.1,-1.3,1.6,-1.7c8.7,-5.1,17.5,-10.1,26.2,-15.2c1.6,-0.1,3.2,0.3,4.8,1.2c1.7,1,3.3,2.4,4.9,4.5c1.7,3.9,1.7,7.7,0,9.7c-2,1.1,-4.1,2.3,-6.2,3.5" class="g11_3" />
<path d="M197.1,243.4l-13.3,7.7l1.9,3.1" class="g8_3" />
<path d="M185.2,248.1c-1.1,-1.2,-2.2,-2.1,-3.4,-2.8c-1.1,-0.7,-2.1,-1.1,-3.2,-1.3c-0.2,0,-0.4,0,-0.1,-0.3c3.1,-1.8,6.2,-3.6,9.3,-5.4c0.4,-0.1,0.5,-0.1,0.6,-0.1c1.1,0.1,2.2,0.5,3.4,1.2c1.2,0.7,2.2,1.7,3.4,2.9c0.1,0.1,0.4,0.3,0,0.6c-3.1,1.7,-6.2,3.5,-9.3,5.3c-0.4,0.3,-0.7,-0.1,-0.7,-0.1Z" class="g8_3" />
<path d="M143.5,250.3c-1.1,-0.6,-1.1,-2.8,0,-4.8c0.6,-0.9,1.3,-1.7,2.1,-2.2c0.3,-0.2,0.7,-0.2,1,-0.2c0.4,0,0.8,0.2,1.2,0.4c2.4,1,4.6,1.9,6.8,2.6c2.1,0.7,4.1,1.3,6,1.7c0.5,0.1,1.2,0.2,1.9,0.2c0.6,0,1.4,-0.1,2.1,-0.2c0.9,-0.2,1.7,-0.2,2.3,-0.1c0.7,0.1,1.2,0.5,1.6,1" class="g8_3" />
<path d="M158.9,255.5c-0.3,-0.1,-0.8,-0.4,-1.4,-0.5c-0.7,-0.2,-1.5,-0.4,-2.4,-0.6c-2.7,-0.6,-5,-1.2,-7.1,-2c-2.1,-0.8,-3.9,-1.7,-5.5,-2.6" class="g11_3" />
<path d="M167.8,243.9c-0.1,0,-0.2,-0.1,-0.2,-0.1c-0.3,-0.2,-0.7,-0.1,-1.1,0.1c-0.5,0.3,-0.9,0.5,-1.6,0.5c-0.6,0,-1.4,-0.2,-2.3,-0.5c-1.5,-0.8,-3.1,-1.5,-4.9,-2.1c-1.7,-0.6,-3.5,-1,-5.5,-1.5c-0.8,-0.1,-1.4,-0.3,-1.7,-0.6c-0.3,-0.3,-0.4,-0.5,-0.3,-0.9" class="g11_3" />
<path d="M126.4,231.5l4.9,2.8" class="g8_3" />
<path d="M124.8,234.5l4.8,2.7" class="g8_3" />
<path d="M131.3,234.3c0.7,0.4,0.9,1.4,0.5,2.2c-0.5,0.8,-1.5,1.2,-2.2,0.7" class="g8_3" />
<path d="M136.5,235.2l-8.9,-5.1" class="g8_3" />
<path d="M138.8,223.6c1.7,1,3.5,2,5.3,3.1c0.7,0.3,0.7,0.9,0,1.3c-0.7,0.4,-1.7,0.4,-2.4,0c-1.8,-1,-3.5,-2,-5.3,-3.1" class="g8_3" />
<path d="M152.7,226.8c0.6,0.3,1.2,1.1,1.7,2.5c0.5,1.4,0.8,3.2,1.1,5.5c-0.4,2.3,-0.9,4,-1.6,5.3c-0.1,0.1,-0.2,0.3,-0.3,0.5" class="g11_3" />
<path d="M142.4,249.7c-0.5,-0.3,-1.1,-0.4,-1.6,-0.4c-0.5,0,-1.1,0.2,-1.6,0.5" class="g11_3" />
<path d="M141.5,249.4c-1.7,0.8,-3.2,1.3,-4.3,1.5c-1.1,0.1,-2,0,-2.6,-0.5" class="g11_3" />
<path d="M173.2,261.4c-1.3,0.7,-1.8,2.4,-1.8,4.2c0,1.7,0.5,2.8,1.8,2.1" class="g8_3" />
<path d="M157.9,257.2c-0.8,1.3,-1.1,3.1,-1.1,4.8c0,1.7,0.3,3,1.1,3.4c1.4,0.8,2.8,1.6,4.2,2.4" class="g11_3" />
<path d="M152.4,229.3c-0.5,1.4,-1.1,2.8,-1.4,4.3c-0.4,1.6,-0.7,3.2,-0.8,5" class="g8_3" />
<path d="M136.3,236.2c0.4,0.2,0.7,0.6,0.9,0.8c0.2,0.3,0.4,0.7,0.5,1.1c0.3,1.6,0.9,2.9,1.6,4c0.7,1,1.6,1.9,2.6,2.4" class="g8_3" />
<path d="M142.4,249.7c-1.1,-0.7,-1.1,-2.8,0,-4.8c0.6,-1,1.3,-1.8,2.1,-2.2c1.4,-0.8,2.9,-1.7,4.4,-2.5c0.7,-0.5,1.5,-0.5,2,-0.2" class="g8_3" />
<path d="M142.1,249.5c-1.1,-0.6,-1.1,-2.8,0,-4.7c0.6,-1.1,1.4,-1.8,2.1,-2.2c1.5,-0.9,2.9,-1.7,4.4,-2.6c0.7,-0.4,1.5,-0.5,2.1,-0.2" class="g8_3" />
<path d="M151,240c0,-0.1,0.1,-0.3,0.2,-0.4c0.1,-0.1,0.3,-0.3,0.4,-0.4c0.5,-0.4,1.2,-1,1.7,-1.6c0.6,-0.6,1.3,-1.3,1.9,-1.9c0.1,-0.2,0.1,-0.3,0.2,-0.4c0,-0.1,0.1,-0.1,0.1,-0.2" class="g8_3" />
<path d="M182.9,258.9c-3.9,2.2,-7.7,4.4,-11.5,6.7c-1.7,0.7,-3.5,0.9,-5.2,0.7c-1.7,-0.2,-3.5,-0.8,-5.2,-1.9c-1.4,-0.8,-2.8,-1.6,-4.2,-2.4" class="g8_3" />
<path d="M172.6,244.8c-0.9,-0.5,-1.8,-1,-2.7,-1.5c-0.5,-0.3,-0.9,-0.2,-1.4,0.1c-0.2,0.2,-0.4,0.4,-0.7,0.6" class="g11_3" />
<path d="M176.4,244c0,-0.1,-0.1,-0.2,-0.3,-0.3c-0.4,-0.3,-1.1,-0.3,-1.6,0c-0.5,0.3,-1.1,0.6,-1.6,0.9c-0.2,0.1,-0.4,0.3,-0.4,0.4c0,0.5,0,0.9,0,1.3" class="g11_3" />
<path d="M172.5,245c0,0.2,0.2,0.4,0.4,0.5c0.2,0.1,0.5,0.2,0.7,0.2" class="g8_3" />
<path d="M172.5,246c-0.2,0.1,-0.2,0.3,-0.1,0.4" class="g8_3" />
<path d="M172.5,245.3c-0.3,0.2,-0.6,0.4,-0.9,0.6c-0.3,0.1,-0.6,0.2,-0.9,0.2c-0.2,0,-0.6,0,-0.8,-0.1" class="g8_3" />
<path d="M171.1,246c-0.7,-0.1,-1.3,-0.4,-1.9,-0.7c-0.5,-0.4,-1,-0.9,-1.4,-1.4" class="g8_3" />
<path d="M177.5,265.1c0,-0.1,0,-0.3,0,-0.5c0,-0.1,0,-0.1,-0.1,-0.2" class="g8_3" />
<path d="M181,256.9l-0.2,-0.3l0,-1.3L180.4,255l-3.4,2l0,1.9" class="g11_3" />
<path d="M177,258.9c0,0,-1.7,-1,-1.7,-1" class="g8_3" />
<path d="M180.5,256.8l-2.7,1.6" class="g8_3" />
<path d="M183.8,251.1l1.5,1.5l0.4,1.6" class="g8_3" />
<path d="M181.3,254.4l-8.4,4.8" class="g8_3" />
<path d="M177.1,259.8L175.2,258" class="g8_3" />
<path d="M177,257l0.4,0.2" class="g8_3" />
<path d="M181.3,254.4c0.6,-0.4,1,0,1,0c0,0,0.2,0.1,0.2,0.1" class="g8_3" />
<path d="M181.5,252.5l0,1" class="g8_3" />
<path d="M180.8,255.5c0.6,-0.3,1.2,-0.6,1.8,-1c0,0,0.5,-0.2,0.4,-0.7" class="g11_3" />
<path d="M183,253.8c0,-0.1,-0.1,-0.2,-0.1,-0.2c-0.3,-0.4,-0.5,-0.8,-0.7,-1.2c0,0,-0.3,-0.7,-0.9,-0.4c-2.9,1.7,-5.9,3.4,-8.8,5.1c-0.1,0.1,-0.2,0.2,-0.2,0.2" class="g8_3" />
<path d="M172.3,257.3c-0.3,0.4,-0.1,0.8,-0.1,0.8c0.6,1,1.1,1.9,1.7,2.9c0,0,0,0.6,0,0.6c0.1,0.2,0.2,0.3,0.3,0.3" class="g11_3" />
<path d="M174.2,261.9c0.1,0,0.2,-0.1,0.2,-0.1c0.9,-0.4,1.7,-0.9,2.6,-1.5c0,0,0.4,-0.2,0.5,-0.8c0,-0.2,0,-0.4,0,-0.6c0,-0.1,-0.1,-0.2,-0.1,-0.3c0,-0.4,0,-0.9,0,-1.4c0,0,3.4,-1.9,3.4,-1.9" class="g8_3" />
<path d="M176.8,264.4c0,0,0.2,-0.1,0.2,0.1c0,0.6,0,1.2,0,1.8c0.1,0.1,0.2,0.2,0.4,0.3c1.1,-0.6,2.3,-1.3,3.4,-2c0,0,0,-1.4,0,-1.4" class="g11_3" />
<path d="M177.5,266.5l0,-1" class="g8_3" />
<path d="M182.1,249.3c0.6,-0.4,1.3,-0.7,2,-1.1c0,0,0.2,0.2,0.3,0.3c0.1,0.1,0.2,0.3,0.4,0.4" class="g8_3" />
<path d="M184.8,248.9c-0.7,0.4,-1.4,0.8,-2,1.2c-0.2,-0.1,-0.3,-0.3,-0.4,-0.4c-0.1,-0.1,-0.3,-0.3,-0.4,-0.4" class="g8_3" />
<path d="M181.2,248.5c0.6,-0.4,1.3,-0.8,2,-1.2c0.1,0.1,0.2,0.2,0.3,0.4c0.2,0.1,0.3,0.2,0.4,0.3" class="g8_3" />
<path d="M183.9,248c-0.7,0.4,-1.3,0.8,-2,1.2c-0.1,-0.1,-0.2,-0.3,-0.3,-0.4c-0.2,-0.1,-0.3,-0.2,-0.4,-0.3" class="g8_3" />
<path d="M180.2,247.7c0.6,-0.4,1.3,-0.8,2,-1.2c0.1,0.1,0.2,0.2,0.3,0.3c0.1,0.1,0.3,0.3,0.5,0.4" class="g8_3" />
<path d="M183,247.2c-0.7,0.4,-1.3,0.8,-2,1.2c-0.1,-0.2,-0.3,-0.3,-0.4,-0.4c-0.1,-0.1,-0.3,-0.2,-0.4,-0.3" class="g8_3" />
<path d="M179,246.9c0.7,-0.4,1.4,-0.8,2,-1.2c0.2,0.1,0.3,0.2,0.5,0.3c0.1,0.1,0.3,0.2,0.5,0.4" class="g8_3" />
<path d="M182,246.4c-0.7,0.3,-1.4,0.7,-2,1.1c-0.2,-0.1,-0.3,-0.2,-0.5,-0.3c-0.1,-0.1,-0.3,-0.3,-0.5,-0.3" class="g8_3" />
<path d="M177.8,246.2c0.7,-0.3,1.4,-0.7,2,-1.1c0.1,0,0.3,0.1,0.5,0.2c0.2,0.1,0.3,0.2,0.5,0.3" class="g8_3" />
<path d="M180.8,245.6c-0.6,0.4,-1.3,0.8,-2,1.2c-0.1,-0.1,-0.3,-0.2,-0.4,-0.3c-0.2,-0.1,-0.4,-0.2,-0.6,-0.3" class="g8_3" />
<path d="M176.6,245.8c0.7,-0.4,1.3,-0.8,2.1,-1.2c0.1,0,0.2,0.1,0.4,0.2c0.1,0,0.3,0.1,0.5,0.2" class="g8_3" />
<path d="M179.6,245c-0.7,0.3,-1.3,0.7,-2,1.1c-0.1,0,-0.3,-0.1,-0.4,-0.1c-0.2,-0.1,-0.4,-0.2,-0.6,-0.2" class="g8_3" />
<path d="M175.4,245.5c0.6,-0.3,1.3,-0.7,2,-1.1c0.1,0,0.3,0,0.4,0c0.2,0,0.4,0.1,0.6,0.2" class="g8_3" />
<path d="M178.4,244.6c-0.7,0.3,-1.4,0.7,-2,1.1c-0.1,0,-0.3,-0.1,-0.5,-0.1c-0.1,0,-0.3,-0.1,-0.5,-0.1" class="g8_3" />
<path d="M170.5,256c1.4,-0.8,2.9,-1.6,4.3,-2.5c0.1,0.1,0.2,0.3,0.4,0.4c0.1,0.1,0.2,0.3,0.3,0.4" class="g8_3" />
<path d="M175.5,254.3c-1.4,0.8,-2.9,1.6,-4.3,2.5c-0.1,-0.1,-0.3,-0.3,-0.4,-0.4c-0.1,-0.1,-0.2,-0.3,-0.3,-0.4" class="g8_3" />
<path d="M169.6,255.2c1.5,-0.8,2.9,-1.7,4.4,-2.5c0.1,0,0.2,0.2,0.3,0.3c0.1,0.1,0.2,0.3,0.4,0.4" class="g8_3" />
<path d="M174.7,253.4c-1.5,0.8,-2.9,1.6,-4.4,2.5c-0.1,-0.1,-0.2,-0.3,-0.3,-0.4c-0.2,-0.1,-0.3,-0.2,-0.4,-0.3" class="g8_3" />
<path d="M168.7,254.4c1.4,-0.9,2.8,-1.7,4.3,-2.6c0,0.1,0.2,0.2,0.3,0.3c0.1,0.1,0.3,0.3,0.5,0.4" class="g8_3" />
<path d="M173.8,252.5c-1.5,0.8,-2.9,1.7,-4.4,2.5c-0.1,-0.1,-0.3,-0.3,-0.4,-0.3c-0.1,-0.1,-0.3,-0.3,-0.4,-0.3" class="g8_3" />
<path d="M167.5,253.5c1.4,-0.8,2.8,-1.6,4.3,-2.4c0.2,0,0.3,0.2,0.5,0.2c0.1,0.1,0.3,0.3,0.4,0.4" class="g8_3" />
<path d="M172.7,251.7c-1.4,0.8,-2.9,1.6,-4.3,2.5c-0.1,-0.1,-0.3,-0.2,-0.4,-0.3c-0.2,-0.1,-0.4,-0.3,-0.6,-0.3" class="g8_3" />
<path d="M166.3,252.9c1.4,-0.8,2.9,-1.6,4.3,-2.5c0.1,0,0.3,0.2,0.5,0.2c0.1,0.1,0.3,0.2,0.5,0.3" class="g8_3" />
<path d="M171.6,250.9c-1.4,0.9,-2.9,1.7,-4.3,2.5c-0.1,0,-0.3,-0.1,-0.5,-0.2c-0.1,-0.1,-0.3,-0.2,-0.5,-0.3" class="g8_3" />
<path d="M165.1,252.5c1.4,-0.8,2.9,-1.7,4.3,-2.5c0.1,0,0.3,0.1,0.4,0.1c0.2,0.1,0.4,0.1,0.6,0.2" class="g8_3" />
<path d="M170.4,250.3c-1.5,0.8,-2.9,1.7,-4.4,2.5c-0.1,0,-0.3,-0.1,-0.4,-0.1c-0.2,-0.1,-0.4,-0.2,-0.5,-0.2" class="g8_3" />
<path d="M163.8,252.2c1.5,-0.8,2.9,-1.6,4.4,-2.5c0.1,0,0.3,0.1,0.4,0.1c0.2,0,0.4,0.1,0.5,0.1" class="g8_3" />
<path d="M169.1,249.9c-1.4,0.8,-2.9,1.6,-4.3,2.5c-0.1,0,-0.3,-0.1,-0.5,-0.1c-0.1,0,-0.3,-0.1,-0.5,-0.1" class="g8_3" />
<path d="M212,238.8l-3.7,2.1" class="g8_3" />
<path d="M211.5,240.5l-3.2,1.9" class="g8_3" />
<path d="M211.6,240.2l-3.3,1.9" class="g8_3" />
<path d="M211.9,238.4l-3.6,2.1" class="g8_3" />
<path d="M211.7,237l-3.7,2.2" class="g8_3" />
<path d="M211.5,236.4l-3.7,2.2" class="g8_3" />
<path d="M210.9,235l-3.8,2.1" class="g8_3" />
<path d="M210.5,234.4l-3.7,2.2" class="g8_3" />
<path d="M209.5,233l-3.7,2.2" class="g8_3" />
<path d="M209,232.6l-3.6,2.1" class="g8_3" />
<path d="M208,231.8l-3.6,2.1" class="g8_3" />
<path d="M207.5,231.5l-3.5,2" class="g8_3" />
<path d="M206.2,231.2L203,233" class="g8_3" />
<path d="M205.8,231.2l-3.1,1.8" class="g8_3" />
<path d="M205.2,231.3c1.6,-0.9,4.2,0.6,5.7,3.3c1.6,2.7,1.6,5.7,0,6.6" class="g8_3" />
<path d="M192.9,235c0.1,-0.1,0.2,-0.2,0.4,-0.3c1.3,-0.7,2.7,-1.3,3.8,-1.5c1.2,-0.3,2.4,-0.3,3.4,-0.1c1.8,-1,4.8,0.6,6.6,3.8c1.7,3.1,1.7,6.5,-0.1,7.5c-0.4,1,-1.1,2,-1.9,2.9c-0.9,0.8,-2,1.6,-3.3,2.3" class="g11_3" />
<path d="M177.4,264.4c-0.1,-0.3,-0.4,-0.1,-0.4,-0.1c-0.9,0.5,-1.7,1,-2.6,1.5c0,0,-0.4,0.2,-0.5,0.9c0,0,0,0.5,0,0.5c-0.3,0.2,-0.7,0.4,-1,0.6c-0.8,0.4,-1.5,0.8,-2.3,1.1c-0.7,0.3,-1.5,0.5,-2.2,0.6c-0.7,0.1,-1.6,0.1,-2.7,-0.2c-1,-0.3,-2.2,-0.8,-3.6,-1.5" class="g11_3" />
<path d="M184.5,248.5l0,1" class="g8_3" />
<path d="M183.5,247.5l0,1" class="g8_3" />
<path d="M182.5,246.5l0,1" class="g8_3" />
<path d="M181.5,245.5l0,1" class="g8_3" />
<path d="M179.5,245.5l0,1" class="g8_3" />
<path d="M178.5,244.5l0,1" class="g8_3" />
<path d="M177.5,244.5l0,1" class="g8_3" />
<path d="M174.5,253.5l0,1" class="g8_3" />
<path d="M173.5,252.5l0,1" class="g8_3" />
<path d="M172.5,251.5l0,1" class="g8_3" />
<path d="M171.5,251.5l0,1" class="g8_3" />
<path d="M170.5,250.5l0,1" class="g8_3" />
<path d="M169.5,249.5l0,1" class="g8_3" />
<path d="M168.5,249.5l0,1" class="g8_3" />
<path d="M252.8,231c0.4,0.2,0.7,0.5,1.1,0.7c0,0.4,0,0.8,0,1.3c-0.4,0.2,-0.8,0.4,-1.1,0.5c-0.3,0.1,-0.6,0.2,-0.8,0.2" class="g8_3" />
<path d="M253.9,231.7c-2.8,1.7,-1.3,2.1,-2.7,2.8c-0.6,0.4,-1.2,0.7,-1.9,1.1c0,0.1,-0.2,0.1,-0.3,0.1c-0.1,0,-0.3,0.1,-0.4,0.1" class="g8_3" />
<path d="M252.8,231c-2.8,1.7,-0.6,2.9,-3.5,4.6" class="g8_3" />
<path d="M251.1,232.1c-2.9,1.6,-0.7,2.9,-3.5,4.5c-0.4,0.2,-0.8,0.5,-1.2,0.7c-0.1,0,-0.3,0.1,-0.4,0.1c0,0,-0.2,0.1,-0.3,0.1" class="g8_3" />
<path d="M251.7,231.9c-0.1,0,-0.3,0.1,-0.4,0.1c0,0,-0.2,0.1,-0.2,0.1c-0.4,0.2,-0.8,0.4,-1.2,0.7c-2.9,1.6,-0.7,2.8,-3.5,4.5" class="g8_3" />
<path d="M248.2,233.7c-2.9,1.7,-0.7,2.9,-3.5,4.6c-0.4,0.2,-0.8,0.4,-1.2,0.7c-0.1,0,-0.2,0.1,-0.3,0.1c-0.1,0,-0.3,0.1,-0.3,0.1" class="g8_3" />
<path d="M248.9,233.5c-0.2,0,-0.4,0.1,-0.4,0.1c-0.1,0,-0.3,0.1,-0.3,0.1c-0.4,0.2,-0.8,0.5,-1.2,0.7c-2.8,1.7,-0.6,2.9,-3.5,4.6" class="g8_3" />
<path d="M245.3,235.4c-2.9,1.6,-0.7,2.9,-3.5,4.6c-0.4,0.2,-0.8,0.4,-1.2,0.6c-0.1,0.1,-0.2,0.2,-0.3,0.2c-0.1,0,-0.3,0,-0.3,0" class="g8_3" />
<path d="M246,235.2c-0.2,0,-0.4,0.1,-0.4,0.1c-0.1,0,-0.3,0.1,-0.3,0.1c-0.4,0.2,-0.8,0.5,-1.2,0.7c-2.8,1.6,-0.6,2.9,-3.5,4.5" class="g8_3" />
<path d="M242.5,237c-2.8,1.7,-0.7,2.9,-3.5,4.6c-0.4,0.2,-0.8,0.4,-1.2,0.6c-0.1,0.1,-0.3,0.2,-0.3,0.2c-0.1,0,-0.2,0,-0.3,0" class="g8_3" />
<path d="M243.1,236.8c-0.1,0,-0.3,0.1,-0.4,0.1c0,0,-0.1,0.1,-0.2,0.1c-0.4,0.2,-0.8,0.5,-1.2,0.7c-2.8,1.6,-0.7,2.9,-3.5,4.5" class="g8_3" />
<path d="M239.6,238.7c-2.8,1.6,-0.7,2.9,-3.5,4.6c-0.4,0.2,-0.8,0.4,-1.2,0.6c-0.1,0.1,-0.3,0.1,-0.3,0.1c-0.1,0,-0.2,0.1,-0.3,0.1" class="g8_3" />
<path d="M240.2,238.5c-0.1,0,-0.3,0.1,-0.4,0.1c0,0,-0.1,0.1,-0.2,0.1c-0.4,0.2,-0.8,0.5,-1.2,0.7c-2.8,1.6,-0.7,2.8,-3.5,4.5" class="g8_3" />
<path d="M236.6,240.4c-2.8,1.7,-0.6,2.9,-3.4,4.5c-4.7,2.7,-9.3,5.4,-13.9,8.1c-0.3,0.1,-0.8,-0.1,-1.1,-0.6c-0.3,-0.6,-0.3,-1.1,0,-1.3c6.1,-3.6,12.3,-7.1,18.4,-10.7c0.1,0,0.2,-0.1,0.3,-0.1c0.1,0,0.3,-0.1,0.4,-0.1" class="g8_3" />
<path d="M218.2,251.1c0.1,0,0.3,0,0.4,0.1c0.1,0.1,0.3,0.3,0.4,0.4c0.2,0.3,0.4,0.6,0.4,0.8c0,0.2,0,0.5,-0.1,0.6" class="g8_3" />
<path d="M337.9,224.3l18,10.8" class="g11_3" />
<path d="M335.1,226.1L353,236.8" class="g8_3" />
<path d="M333.7,229.9l17.9,10.7" class="g8_3" />
<path d="M334.1,231.5L353,242.7" class="g11_3" />
<path d="M266.4,267.7l60.9,-36.3c3.3,-2,4.7,-1.1,6.8,0.1" class="g11_3" />
<path d="M267.7,265.5l59.8,-35.8c2.7,-1.6,4.6,-0.7,6.2,0.2" class="g8_3" />
<path d="M266.2,261.8l60.9,-36.2c2.8,-1.7,5.3,-1.1,8,0.5" class="g8_3" />
<path d="M263.5,260.1l59.7,-35.8c6.5,-3.7,9.9,-2.7,14.7,0" class="g11_3" />
<path d="M351.6,240.5c0.7,-0.4,1.9,-2.1,1.4,-3.7" class="g8_3" />
<path d="M353,236.8c0.8,0.5,2.7,-0.6,2.9,-1.7" class="g8_3" />
<path d="M351.6,240.6c0.8,0.1,1.8,0.9,1.4,2.1" class="g8_3" />
<path d="M353,242.7c0.2,-0.6,1.8,-2,2.9,-1.6" class="g11_3" />
<path d="M355.9,241.1c-0.5,-1.1,0.5,-3.8,1.4,-3.9" class="g11_3" />
<path d="M355.9,235.1c0,0.7,0.2,1.8,1.4,2.1" class="g11_3" />
<path d="M267.7,265.5c-0.6,-0.5,-1.9,-2.1,-1.3,-3.8" class="g8_3" />
<path d="M266.4,261.7c-0.9,0.5,-2.7,-0.5,-2.9,-1.6" class="g8_3" />
<path d="M267.7,265.5c-0.8,0.1,-1.7,1,-1.3,2.2" class="g8_3" />
<path d="M266.4,267.7c-0.3,-0.6,-1.9,-2.1,-2.9,-1.7" class="g11_3" />
<path d="M263.5,266c0.4,-1.1,-0.5,-3.8,-1.5,-3.9" class="g11_3" />
<path d="M263.5,260.1c0,0.7,-0.2,1.8,-1.5,2" class="g11_3" />
<path d="M408.5,174.5l118,0" class="g8_3" />
<path d="M598.1,937.2c-0.4,-27,47.1,-50.7,105.3,-50.7c12.5,0,24,0.3,35.2,2.3" class="g11_3" />
<path d="M806.8,938.6c3.1,26.7,-45.8,49.7,-103.4,48.3C645.8,985.5,598.5,964.2,598.1,937.2" class="g11_3" />
<path d="M741.6,874.5c21.9,3.6,40.8,10.6,54.6,19.8c18.5,12.3,26.6,27.5,23.8,42.2" class="g11_3" />
<path d="M585,931.7c5.3,-30.7,52.9,-58.5,117.3,-59.8c2.3,0,4.5,-0.1,6.8,0" class="g11_3" />
<path d="M820,936.5c0.4,2.2,0.6,4.3,0.6,6.4c0,33,-51,59.9,-118.9,58.2c-68,-1.7,-115.9,-29.2,-117.1,-62.5c-0.1,-2.3,0,-4.6,0.4,-6.9" class="g11_3" />
<path d="M806.2,936.3c-7.2,22.6,-51.4,40.6,-102.5,39.3c-54.2,-1.3,-99.3,-20.2,-104.8,-45" class="g11_3" />
<path d="M803.3,930.5c-12.2,19.9,-53.1,34.9,-99.9,33.7C654,963,612.1,947.1,601,925.6" class="g11_3" />
<path d="M604.7,919.8c0,0,-0.1,0,-0.1,0" class="g11_3" />
<path d="M799.2,925.5c-15.9,16.9,-53.3,28.9,-95.3,27.9c-45.5,-1.1,-84.6,-14.6,-99.2,-33.6" class="g11_3" />
<path d="M791.6,919c-18,14.3,-52.1,23.9,-90,23c-39.9,-1,-74.9,-11.5,-92.7,-26.9" class="g11_3" />
<path d="M717,860.8c31.9,1.4,60.5,9.7,79.2,22.2c18.5,12.3,26.8,27.1,24,41.8" class="g11_3" />
<path d="M585.1,931.4c-1.9,-16.1,4.7,-27.6,15.7,-38.3c18.6,-18.1,52.2,-29.3,89.3,-32" class="g11_3" />
<path d="M697.3,849.8c1.5,-0.1,3.1,-0.1,4.6,-0.2c37.7,-0.7,72.3,8.1,93.8,22.4c18.5,12.3,27.3,26.7,24.5,41.4" class="g11_3" />
<path d="M585.1,920.6c-1.8,-16.2,4.2,-27.7,15.2,-38.5c15.9,-15.4,42.7,-25.9,73.3,-30.2" class="g11_3" />
<path d="M680.2,840.1c7.1,-0.8,14.4,-1.3,21.8,-1.5c37.7,-0.7,72.3,8.1,93.9,22.5c18.4,12.3,27.1,26.8,24.3,41.4" class="g11_3" />
<path d="M645.4,847c3.1,-0.9,6.3,-1.8,9.6,-2.6" class="g11_3" />
<path d="M585.1,909.8c-1.9,-16.1,4.3,-27.9,15.4,-38.7c8.2,-8,19.4,-14.6,32.5,-19.8" class="g11_3" />
<path d="M790.3,901.9L666,832.2" class="g11_3" />
<path d="M785,914.6L660,844.1" class="g11_3" />
<path d="M599.9,808.2c-0.8,0.2,-1.7,-0.5,-2.2,-1.6c-0.4,-1.2,-0.1,-2.3,0.7,-2.6" class="g11_3" />
<path d="M598.4,804c0.7,-0.3,1.7,0.4,2.1,1.6c0.4,1.1,0.2,2.3,-0.6,2.6" class="g8_3" />
<path d="M597.7,804.8c0.5,0.3,1,0.8,1.3,1.5c0.2,0.7,0.2,1.3,0.1,1.8" class="g11_3" />
<path d="M594.6,809.5c-0.8,-0.9,-1.4,-2.7,-1.4,-4.5c0,-2.7,1.2,-4.9,2.8,-4.9" class="g11_3" />
<path d="M596,800.1l14.2,7.9" class="g11_3" />
<path d="M596.2,808.6l14,7.9" class="g8_3" />
<path d="M594.6,809.5l14.2,7.9" class="g11_3" />
<path d="M610.2,808l0,8.5l-1.1,0.8" class="g8_3" />
<path d="M596.2,808.6c-0.8,-0.8,-1.2,-2.7,-1.2,-4.5c0,-1.6,0.3,-3.1,1,-4" class="g8_3" />
<path d="M596.2,808.6l-1.3,0.6" class="g8_3" />
<path d="M614.1,802.1c-0.7,0.3,-1.7,-0.5,-2.1,-1.6c-0.4,-1.2,-0.2,-2.3,0.6,-2.6" class="g11_3" />
<path d="M612.6,797.9c0.8,-0.3,1.7,0.4,2.2,1.6c0.4,1.1,0.1,2.3,-0.7,2.6" class="g8_3" />
<path d="M611.9,798.7c0.6,0.3,1,0.8,1.3,1.6c0.2,0.6,0.3,1.2,0.1,1.7" class="g11_3" />
<path d="M608.9,803.4c-0.9,-0.9,-1.5,-2.7,-1.5,-4.5c0,-2.7,1.3,-4.9,2.9,-4.9" class="g11_3" />
<path d="M610.3,794l14.1,7.9" class="g11_3" />
<path d="M610.4,802.5l14,8" class="g8_3" />
<path d="M608.9,803.4l14.2,7.9" class="g11_3" />
<path d="M624.4,801.9l0,8.6l-1.1,0.8" class="g8_3" />
<path d="M610.4,802.5c-0.8,-0.8,-1.1,-2.6,-1.1,-4.4c0,-1.7,0.2,-3.2,1,-4.1" class="g8_3" />
<path d="M610.4,802.5l-1.3,0.7" class="g8_3" />
<path d="M596,818.1c-0.8,-0.6,-1.3,-1.6,-1.3,-2.8c0,-1.8,1.4,-3.3,3.1,-3.3c0.5,0,1,0.1,1.5,0.3" class="g11_3" />
<path d="M617.9,822.4c1,0.6,1.1,1.7,1.1,3c0,1.9,-1.4,3.6,-3.1,3.6c-0.7,0,-1.5,-0.2,-2,-0.6" class="g8_3" />
<path d="M599.3,812.3L618,822.5" class="g11_3" />
<path d="M596,818.1l18.7,10.7" class="g11_3" />
<path d="M602.4,821.7l0,3.8l7.2,4.1l1.8,9.6L633,851.3" class="g11_3" />
<path d="M602.7,825.6l6.3,0.2l0.6,3.6" class="g8_3" />
<path d="M611.3,838.9L622,834.5l20.1,11.3" class="g8_3" />
<path d="M622,834.5l2,-15.1l6.5,-5.8l0,-13.3" class="g8_3" />
<path d="M630.5,813.6l21.1,11.9" class="g8_3" />
<path d="M624,819.4l21,11.9" class="g8_3" />
<path d="M633,851.3c0.8,0.2,5,0.6,7.8,-0.2c2,-0.6,3,-2.2,3,-2.8" class="g11_3" />
<path d="M642.1,845.8c0,0,2.3,1.4,1.7,2.5" class="g8_3" />
<path d="M655.8,844.7l-7.2,-2.6l-4.8,6.2" class="g11_3" />
<path d="M648.2,841.8c-1.2,1.5,-2.5,2.8,-3.7,3.7" class="g8_3" />
<path d="M654.8,832.8c0,0,-3,5.1,-6.4,9.1" class="g11_3" />
<path d="M641.9,845.7c0,0,1.3,0.6,2.6,-0.2" class="g8_3" />
<path d="M651.6,825.5c0,0,3.2,2,3.6,4.1" class="g8_3" />
<path d="M645,831.3c0,0,3.8,2.2,9.6,1.7" class="g8_3" />
<path d="M655.1,817.2l0.1,13.8c0,0,0,1.1,-0.4,1.8" class="g11_3" />
<path d="M607.8,806.7l2.5,-2.5" class="g11_3" />
<path d="M630.5,800.3l-7.7,-1.4c0,0,-1.6,-0.3,-2.4,0.8" class="g11_3" />
<path d="M630.5,800.3l21.8,12.5c0,0,2.8,1.7,2.8,4.4" class="g11_3" />
<path d="M655.1,820.9l9.8,8.1" class="g11_3" />
<path d="M655.8,844.7c0.9,0,5,0.5,8.4,-5.3c3.4,-5.5,1,-9.9,0.7,-10.4" class="g11_3" />
<path d="M126.6,972.2l2,-413" class="g11_3" />
<path d="M823.7,290.2L128.5,593.1" class="g8_3" />
<path d="M128.6,559.2L771.6,279" class="g11_3" />
<path d="M154,994.1l2,-413" class="g8_3" />
<path d="M418.6,730.1l192.2,109m83.8,47.6l43,24.4" class="g8_3" />
<path d="M297.5,661.3l121.1,68.8" class="g8_3" />
<path d="M156,581.1l69.9,39.6" class="g8_3" />
<path d="M785,914.6c11.9,7.1,20.4,15.7,21.8,24" class="g11_3" />
<path d="M790.3,901.9c17.1,9.4,28.6,21.5,29.7,34.6" class="g11_3" />
<path d="M791.7,919c-0.1,0,-0.1,0,-0.1,0" class="g11_3" />
<path d="M737.1,1057.7l0.2,-56.3m0.2,-64.5l0.1,-25.8" class="g8_3" />
<path d="M737.6,911.1L760.9,901m66,-28.2l18.7,-8" class="g8_3" />
<path d="M443.6,643.6l-18.1,5.3c0,0,-3.5,0.8,-4.3,2.5" class="g11_3" />
<path d="M443.6,643.6l10.2,2.9l0,1.8l-5.6,1.8" class="g11_3" />
<path d="M416.7,664.9c0.5,3.3,2.7,5.5,4.7,6.1c2,0.7,10.9,3.2,10.9,3.2c0,0,6.2,0.3,9.8,-7.8" class="g11_3" />
<path d="M442.1,666.4c1,-2.3,1,-7.1,0.6,-9" class="g11_3" />
<path d="M442.7,657.4l10.9,-4l0,-1.4l-9.8,-3.2l-9.2,2.5" class="g11_3" />
<path d="M434.6,651.3c-1.5,0.7,-2.9,3.4,-3,4.9c0,1.6,-0.3,13.9,-10.7,14.2" class="g11_3" />
<path d="M434.4,654.3l6.5,2.2" class="g8_3" />
<path d="M444.1,651.6c2.2,0,4,0.7,4,1.5c0,0.8,-1.8,1.4,-4,1.4c-2.2,0,-4,-0.6,-4,-1.4c0,-0.8,1.8,-1.5,4,-1.5Z" class="g8_3" />
<path d="M444.1,646.2c2.2,0,4,0.6,4,1.4c0,0.8,-1.8,1.5,-4,1.5c-2.2,0,-4,-0.7,-4,-1.5c0,-0.8,1.8,-1.4,4,-1.4Z" class="g8_3" />
<path d="M444,684l0,-30" class="g15_3" />
<path d="M444,684l0,-32" class="g16_3" />
<path d="M441,699.6l0.1,-9l2.8,-6.3l3.2,5.9l0,9.5" class="g17_3" />
<path d="M443.9,699.9c3.7,0,6.7,1.3,6.7,3c0,1.7,-3.2,4.8,-6.8,4.8c-3.7,0,-6.5,-3.1,-6.5,-4.8c0,-1.7,3,-3,6.6,-3Z" class="g17_3" />
<path d="M446.1,706.1c-0.1,-0.6,0.3,-1,1,-1.4l-1,-0.6c-0.6,1.1,-3.3,1.4,-4.9,0.2l-0.5,0.5c0.7,0.5,0.6,0.5,0.8,1.1" class="g8_3" />
<path d="M441,698c0,-0.7,1.3,-1.4,3,-1.4c1.7,0,3.1,0.7,3.1,1.4" class="g8_3" />
<path d="M441,695.6c0,-0.8,1.3,-1.4,3,-1.4c1.7,0,3.1,0.6,3.1,1.4" class="g8_3" />
<path d="M441,693.5c0,-0.8,1.3,-1.4,3,-1.4c1.7,0,3.1,0.6,3.1,1.4" class="g8_3" />
<path d="M441,691.1c0,-0.8,1.3,-1.4,3,-1.4c1.7,0,3.1,0.6,3.1,1.4" class="g8_3" />
<path d="M620.6,706.8l-18.2,5.3c0,0,-3.5,0.8,-4.2,2.5" class="g11_3" />
<path d="M620.6,706.8l10.1,3l0,1.8l-5.6,1.7" class="g11_3" />
<path d="M593.6,728.2c0.6,3.3,2.7,5.4,4.7,6.1c2,0.7,10.9,3.2,10.9,3.2c0,0,6.3,0.2,9.8,-7.9" class="g11_3" />
<path d="M619,729.6c1,-2.2,1,-7.1,0.6,-9" class="g11_3" />
<path d="M619.6,720.6l11,-3.9l0,-1.5l-9.9,-3.1l-9.2,2.5" class="g11_3" />
<path d="M611.5,714.6c-1.5,0.6,-2.9,3.3,-2.9,4.9c-0.1,1.6,-0.3,13.9,-10.8,14.2" class="g11_3" />
<path d="M611.4,717.5l6.4,2.3" class="g8_3" />
<path d="M621.1,714.9c2.1,0,3.9,0.7,3.9,1.5c0,0.8,-1.8,1.4,-3.9,1.4c-2.2,0,-4,-0.6,-4,-1.4c0,-0.8,1.8,-1.5,4,-1.5Z" class="g8_3" />
<path d="M621.1,709.4c2.1,0,3.9,0.7,3.9,1.5c0,0.8,-1.8,1.4,-3.9,1.4c-2.2,0,-4,-0.6,-4,-1.4c0,-0.8,1.8,-1.5,4,-1.5Z" class="g8_3" />
<path d="M621,747l0,-30" class="g15_3" />
<path d="M621,747l0,-31" class="g16_3" />
<path d="M617.9,762.9l0.1,-9l2.9,-6.3l3.1,5.8l0,9.6" class="g17_3" />
<path d="M620.9,763.1c3.6,0,6.6,1.4,6.6,3.1c0,1.6,-3.1,4.7,-6.8,4.7c-3.7,0,-6.5,-3.1,-6.5,-4.7c0,-1.7,3,-3.1,6.7,-3.1Z" class="g17_3" />
<path d="M623,769.3c0,-0.5,0.4,-1,1,-1.4l-0.9,-0.5c-0.6,1.1,-3.4,1.4,-5,0.2l-0.5,0.4c0.8,0.6,0.6,0.6,0.8,1.2" class="g8_3" />
<path d="M617.9,761.3c0,-0.8,1.4,-1.4,3.1,-1.4c1.7,0,3,0.6,3,1.4" class="g8_3" />
<path d="M617.9,758.9c0,-0.8,1.4,-1.4,3.1,-1.4c1.7,0,3,0.6,3,1.4" class="g8_3" />
<path d="M617.9,756.8c0,-0.8,1.4,-1.4,3.1,-1.4c1.7,0,3,0.6,3,1.4" class="g8_3" />
<path d="M617.9,754.4c0,-0.8,1.4,-1.4,3.1,-1.4c1.7,0,3,0.6,3,1.4" class="g8_3" />
<path d="M369.5,629.8c14.4,8.2,40.3,18.4,62,27.1m13.3,5c38.6,14.2,136.8,48.6,163.1,57.4m13.6,4.7c37.9,13.6,113.4,43.6,143.8,64.6c34.5,23.9,77,58.6,55.1,104.6" class="g11_3" />
<path d="M355.4,635.9c14.1,8,45.1,23.2,71.2,32.7m11,3.9c36.1,12.6,135,47.1,167.3,57.9m12.4,4.2c35.3,12.1,109.2,39.6,140.7,61.5c30.5,21.1,64.6,45.7,56.8,83" class="g11_3" />
<path d="M405.7,735l16.2,-14.4" class="g18_3" />
<path d="M437.7,706.5l-3.9,9.8l-6.3,-7Zm-6.3,6.2l-0.8,-0.4l0.1,0l0,-0.1l0.1,0l0.1,0l0.1,0l0.1,0l0.1,0l0.1,0l0,0.1l0.1,0l0,0.1l0.1,0l0,0.1l0,0.1l-0.1,0l0,0.1Zm-77.2,67.7l76.4,-68.1l0.8,0.4l-76.5,68.1Zm0,0l0.7,0.4l0,0.1l-0.1,0l-0.1,0l-0.1,0l0,0.1l-0.1,0l0,-0.1l-0.1,0l-0.1,0l-0.1,0l0,-0.1l-0.1,0l0,-0.1l0,-0.1l0,-0.1l0.1,0l0,-0.1Z" class="g6_3" />
<path d="M573.5,830.5L586,822.6" class="g18_3" />
<path d="M595.1,816.8l-5.5,9.1l-5,-8Zm-7.3,5.1l-0.6,-0.5l0.1,0l0,-0.1l0.1,0l0.1,0l0.1,0l0.1,0l0,0.1l0.1,0l0.1,0l0,0.1l0.1,0l0,0.1l0,0.1l-0.1,0l0,0.1l0,0.1l-0.1,0Zm-44,27l43.4,-27.5l0.6,0.5l-43.4,27.5Zm0,0l0.6,0.5l-0.1,0l-0.1,0l-0.1,0l-0.1,0l-0.1,0l-0.1,0l0,-0.1l-0.1,0l0,-0.1l0,-0.1l0,-0.1l0,-0.1l0.1,0Z" class="g6_3" />
<path d="M455.4,464.7l-9.7,4.2c0,0,-2.8,1.8,-2.8,4.8c0,3,0,41.4,0,41.4c0,0,-0.1,3.3,2.9,2.2c3,-1.1,10,-4.3,10,-4.3c0,0,3,-1.5,3.2,-5.3c0.2,-3.7,-0.1,-41,-0.1,-41c0,0,-0.1,-3.5,-3.5,-2Z" class="g8_3" />
<path d="M450.5,512.9c2.1,-0.9,6.2,-5.3,6.1,-10.5c0,-5.2,-0.3,-29.4,-0.3,-29.4c0,0,-0.3,-2.8,-2.5,-3.4" class="g11_3" />
<path d="M445.2,504.1l0.1,4c0,0,0.5,2.1,1.2,2.8" class="g8_3" />
<path d="M454.7,506.3l-5.2,-1c0,0,-3.1,-0.1,-3.3,3.9c-0.2,3.9,3,3.6,4.3,3.7" class="g11_3" />
<path d="M448.6,504.5l-3.4,-0.4c-0.8,-0.1,-1.3,-0.5,-1.4,-1.8c0,-1.3,-0.2,-17.9,-0.2,-17.9c0,0,0.1,-2.8,2.2,-3c2.1,-0.1,4.6,-0.7,4.6,-0.7l2.2,0.6l2.9,0.5" class="g11_3" />
<path d="M445.2,504.1c2.5,-1.8,5.5,-4.2,5.5,-4.2c0,0,1.3,-0.3,1.2,-3.2c-0.2,-2.9,0,-12.5,0,-12.5c0,0,-0.7,-3.6,-2.4,-3.3" class="g8_3" />
<path d="M449.2,506.8c0.7,0.2,1,1.1,0.7,2.2c-0.3,1.1,-1.2,1.8,-1.9,1.7c-0.7,-0.1,-1,-1.1,-0.7,-2.2c0.4,-1,1.2,-1.8,1.9,-1.7Z" class="g8_3" />
<path d="M454.9,472.5l-5.2,-1c0,0,-3.1,-0.1,-3.3,3.9c-0.2,3.9,5.4,4,6.7,4.1" class="g11_3" />
<path d="M449.4,473c0.7,0.2,1,1.1,0.7,2.2c-0.3,1.1,-1.1,1.8,-1.8,1.7c-0.8,-0.1,-1.1,-1.1,-0.7,-2.2c0.3,-1,1.1,-1.8,1.8,-1.7Z" class="g8_3" />
<path d="M449.1,512.3c0.6,-1.2,1.5,-2.5,1.9,-2.6" class="g8_3" />
<path d="M451.2,506.2c-0.4,0.4,-0.4,2.7,-0.1,3.5" class="g8_3" />
<path d="M451.1,509.7l1.5,0.2" class="g8_3" />
<path d="M449.2,478.4c0.6,-1.2,1.5,-2.5,2,-2.6" class="g8_3" />
<path d="M451.4,472.4c-0.5,0.3,-0.5,2.6,-0.2,3.4" class="g8_3" />
<path d="M451.2,475.8l4.7,1" class="g8_3" />
<path d="M453.6,479.6c0.6,-1.3,1.5,-2.5,1.9,-2.7" class="g8_3" />
<path d="M452.4,499.2l3.6,1.2" class="g8_3" />
<path d="M453.8,469.6c-0.8,-0.4,-3.8,0.1,-4.6,1" class="g8_3" />
<path d="M445.9,476c-0.3,1.2,-0.2,5.4,-0.2,5.4" class="g8_3" />
<path d="M252.2,575c0.7,1.3,0.8,3.3,0,5.1c-0.6,1.5,-1.6,2.6,-2.6,3.1" class="g11_3" />
<path d="M249.1,573.6c0.6,-0.2,1.2,-0.1,1.8,0.1c0.6,0.3,1,0.7,1.3,1.3" class="g8_3" />
<path d="M249.1,573.6l-4.4,2.1" class="g8_3" />
<path d="M249.5,583.2l-4.7,2.3" class="g11_3" />
<path d="M244.6,585.4l0.1,-9.7l1.9,1.1l-0.1,7.6" class="g8_3" />
<path d="M246.6,576.8l3,-1.6c0,0,1.3,-0.6,2.5,0.8" class="g8_3" />
<path d="M246.6,576.8l5.3,3.2" class="g8_3" />
<path d="M267.7,559.5l0,5.1l-11.1,4.8" class="g11_3" />
<path d="M256.4,569.5l0,-5.4l11.3,-4.9" class="g8_3" />
<path d="M256.4,564.1l1.8,1.3" class="g8_3" />
<path d="M258.2,568.7l0,-3.3l9.3,-4.1" class="g8_3" />
<path d="M258.2,565.4l3.1,1.7" class="g8_3" />
<path d="M267.1,577.4l0,4.6l-10,4.3" class="g11_3" />
<path d="M256.9,586.5l0,-4.9l10.2,-4.4" class="g8_3" />
<path d="M256.9,581.6l1.6,1.1" class="g8_3" />
<path d="M258.5,585.8l0,-3.1l8.4,-3.7" class="g8_3" />
<path d="M258.5,582.7l2.8,1.6" class="g8_3" />
<path d="M285.7,560.1c0.8,1.3,0.8,3.2,0,5.1c-0.6,1.5,-1.5,2.6,-2.6,3.1" class="g11_3" />
<path d="M282.6,558.7c0.6,-0.2,1.3,-0.1,1.9,0.1c0.5,0.3,0.9,0.7,1.2,1.3" class="g8_3" />
<path d="M282.6,558.7l-4.3,2.1" class="g8_3" />
<path d="M283,568.3l-4.7,2.3" class="g11_3" />
<path d="M278.1,570.5l0.2,-9.7l1.8,1.1l-0.1,7.6" class="g8_3" />
<path d="M280.1,561.9l3,-1.6c0,0,1.3,-0.6,2.6,0.8" class="g8_3" />
<path d="M280.1,561.9l5.3,3.2" class="g8_3" />
<path d="M301.2,544.6l0,5.1l-11,4.8" class="g11_3" />
<path d="M289.9,554.6l0,-5.4l11.3,-4.9" class="g8_3" />
<path d="M289.9,549.2l1.8,1.3" class="g8_3" />
<path d="M291.7,553.8l0,-3.3l9.4,-4.1" class="g8_3" />
<path d="M291.7,550.5l3.1,1.7" class="g8_3" />
<path d="M300.6,562.5l0,4.6l-10,4.3" class="g11_3" />
<path d="M290.4,571.6l0,-4.9l10.2,-4.4" class="g8_3" />
<path d="M290.4,566.7l1.6,1.1" class="g8_3" />
<path d="M292,570.8l0,-3l8.4,-3.7" class="g8_3" />
<path d="M292,567.8l2.8,1.6" class="g8_3" />
<path d="M480.5,456.5l0,43" class="g8_3" />
<path d="M497.8,448.7l0,43.5" class="g8_3" />
<path d="M482.6,453l12.6,-5.5" class="g8_3" />
<path d="M482.7,501.2l12.6,-5.6" class="g8_3" />
<path d="M482.6,453c0,0,-2,0.9,-2.5,3.7" class="g8_3" />
<path d="M497.8,448.7c0,0,0.2,-2.1,-2.6,-1.2" class="g8_3" />
<path d="M480.1,500c0,0,0,1.9,2.6,1.2" class="g8_3" />
<path d="M497.8,492.2c0,0,0.2,1.9,-2.5,3.4" class="g8_3" />
<path d="M539.5,504.9c0.6,0.5,1,1.1,1,1.7c0,1.7,-2.8,3.1,-6.2,3.1c-3.4,0,-6.2,-1.4,-6.2,-3.1c0,-0.6,0.4,-1.2,1,-1.7" class="g8_3" />
<path d="M529.1,504.9c1.1,-0.9,3,-1.4,5.2,-1.4c2.2,0,4.1,0.6,5.2,1.4" class="g11_3" />
<path d="M539.2,504.7c0.4,1.8,-2.1,3.1,-5,3.1c-2.8,0,-5.3,-1.3,-4.9,-3.1" class="g8_3" />
<path d="M533.4,504.7l1.4,-0.1l0.6,0.7l-0.5,0.7l-1.4,0l-0.6,-0.6Z" class="g8_3" />
<path d="M520.7,432.2l-289,125.7" class="g11_3" />
<path d="M524.5,482.5l0,-46" class="g8_3" />
<path d="M231.1,616.2L519.4,490.7" class="g8_3" />
<path d="M225.9,563.6l-0.2,53.2" class="g11_3" />
<path d="M526.5,481.5l0,-47" class="g8_3" />
<path d="M595.5,528.4l0,-59.4" class="g11_3" />
<path d="M243.8,620.3L526.7,497.5" class="g8_3" />
<path d="M244,624.5L526.3,501.7" class="g8_3" />
<path d="M496.1,571l77.1,-33.3" class="g11_3" />
<path d="M310.1,652.2L328,644.4" class="g11_3" />
<path d="M580.6,537.6l12.6,-5.5" class="g11_3" />
<path d="M497.1,573.9l-32.5,13.9m0,0l-17.5,8.1" class="g11_3" />
<path d="M295.9,661.5l18,-7.8" class="g11_3" />
<path d="M240.8,631.5L292.2,661" class="g11_3" />
<path d="M539.1,502.2l52.3,29.7" class="g8_3" />
<path d="M540,498.4l50.9,29" class="g8_3" />
<path d="M532.6,491l62.1,35" class="g8_3" />
<path d="M532.4,433l61.9,34.8" class="g11_3" />
<path d="M594.7,526l-2.6,1.5c0,0,-0.6,0.1,-1.2,-0.1" class="g8_3" />
<path d="M594.7,526c0,0,0.5,-0.1,0.8,-0.9" class="g8_3" />
<path d="M595.5,528.4c0,0,0.2,2.6,-2.3,3.7" class="g11_3" />
<path d="M519.4,490.7c0,0,6.4,-2.3,13.2,0.3" class="g8_3" />
<path d="M526.7,497.5c0,0,6.4,-1.9,13.3,0.9" class="g8_3" />
<path d="M526.3,501.7c0,0,6.4,-2.3,12.8,0.5" class="g8_3" />
<path d="M520.7,432.2c0,0,6.2,-1.7,11.7,0.8" class="g11_3" />
<path d="M231.7,557.9c0,0,-2.9,1.2,-4.4,2.6c-1.4,1.3,-1.4,2.8,-1.4,3.1" class="g11_3" />
<path d="M315.4,650c0,0,0.2,3,-1.5,3.7" class="g11_3" />
<path d="M499,570c0,0,-0.2,3.1,-1.9,3.9" class="g11_3" />
<path d="M313.4,653.9c0,0,-4.4,-0.3,-3.3,-1.7" class="g8_3" />
<path d="M328,644.4c0,0,1.6,-0.5,2.5,0.5c1,0.9,2.6,0.4,3.2,0.1" class="g11_3" />
<path d="M573.2,537.7c0,0,2.6,-1,3.6,-0.1c1,1,3.2,0.2,3.8,0" class="g11_3" />
<path d="M329.9,644.6l-10.8,4.7l-2.3,-0.1" class="g11_3" />
<path d="M497.1,573.9c0,0.2,-3.9,0.1,-1.3,-3" class="g8_3" />
<path d="M605.2,481.5c0.6,0.5,0.9,1.1,0.9,1.7c0,1.8,-2.7,3.2,-6.1,3.2c-1.8,0,-3.4,-0.4,-4.5,-1" class="g8_3" />
<path d="M595.5,481.1c1.1,-0.6,2.7,-1,4.5,-1c2.2,0,4.1,0.6,5.2,1.4" class="g11_3" />
<path d="M604.9,481.3c0.4,1.9,-2.1,3.1,-5,3.1c-1.8,0,-3.6,-0.5,-4.4,-1.4" class="g8_3" />
<path d="M599.1,481.3l1.4,-0.1l0.5,0.7l-0.4,0.8l-1.4,0L598.6,482Z" class="g8_3" />
<path d="M594.3,467.8c0,0,0.8,0.1,1.2,1.2" class="g11_3" />
<path d="M597.3,469.5l15.7,9.1" class="g8_3" />
<path d="M597.2,473.6l15.7,9.1" class="g8_3" />
<path d="M614.2,480.2l0,4.6" class="g11_3" />
<path d="M595.5,494.4l17.1,-7.6" class="g11_3" />
<path d="M614.2,484.8c0,0,0,1.5,-1.6,2" class="g11_3" />
<path d="M613,478.6c0,0,1.1,0.5,1.3,1.5" class="g8_3" />
<path d="M612.9,482.7c0,0,0.8,0.3,1.3,1.1" class="g8_3" />
<path d="M595.7,473.6c0,0,0.6,-0.4,1.5,0" class="g8_3" />
<path d="M595.7,469.1c0,0,0.5,-0.2,1.6,0.4" class="g8_3" />
<path d="M591.4,531.9c0,0,0.9,0.4,1.6,0.1" class="g8_3" />
<path d="M405.1,501.2l-11.5,5.1" class="g8_3" />
<path d="M406,507l0,-6" class="g11_3" />
<path d="M393.5,514.5l11.6,-5.1" class="g11_3" />
<path d="M391.5,508.5l0,6" class="g8_3" />
<path d="M406.7,502.7l-12.6,5.5" class="g8_3" />
<path d="M394.5,508.5l0,6" class="g8_3" />
<path d="M406.7,505.3l-10.4,4.6" class="g11_3" />
<path d="M396,509l0,2" class="g11_3" />
<path d="M406.7,507.4l-10.4,4.5" class="g11_3" />
<path d="M394.1,508.2l3.2,1.2" class="g8_3" />
<path d="M396.3,511.9l1.6,0.7" class="g11_3" />
<path d="M392,508c0,0,0,-1,1.6,-1.7" class="g8_3" />
<path d="M392,514.3c0,0,0,0.9,1.5,0.2" class="g8_3" />
<path d="M406.7,507.5c0,0,0.1,1.2,-1.6,1.9" class="g11_3" />
<path d="M406.7,501.4c0,0,0,-0.9,-1.6,-0.2" class="g8_3" />
<path d="M405.2,512.7l-11.6,5.1" class="g8_3" />
<path d="M406,519l0,-7" class="g11_3" />
<path d="M393.6,526.1L405.1,521" class="g11_3" />
<path d="M392.5,519.5l0,6" class="g8_3" />
<path d="M406.7,514.3l-12.5,5.5" class="g8_3" />
<path d="M394.5,519.5l0,6" class="g8_3" />
<path d="M406.7,516.8l-10.4,4.6" class="g11_3" />
<path d="M396,521l0,2" class="g11_3" />
<path d="M406.7,518.9l-10.4,4.6" class="g11_3" />
<path d="M394.2,519.8l3.1,1.2" class="g8_3" />
<path d="M396.3,523.5l1.7,0.6" class="g11_3" />
<path d="M392,519.6c0,0,0,-1.1,1.6,-1.8" class="g8_3" />
<path d="M392,525.9c0,0,0,0.9,1.6,0.2" class="g8_3" />
<path d="M406.7,519.1c0,0,0.1,1.1,-1.6,1.9" class="g11_3" />
<path d="M406.7,513c0,0,0,-1,-1.5,-0.3" class="g8_3" />
<path d="M318.9,546.1c0.7,1.3,0.8,3.3,0,5.1c-0.6,1.5,-1.6,2.6,-2.6,3.1" class="g11_3" />
<path d="M315.8,544.7c0.6,-0.2,1.2,-0.1,1.8,0.1c0.6,0.3,1,0.7,1.3,1.3" class="g8_3" />
<path d="M315.8,544.7l-4.4,2.1" class="g8_3" />
<path d="M316.2,554.4l-4.7,2.2" class="g11_3" />
<path d="M311.3,556.5l0.1,-9.7l1.9,1.1l-0.1,7.6" class="g8_3" />
<path d="M313.3,547.9l3,-1.6c0,0,1.3,-0.5,2.5,0.9" class="g8_3" />
<path d="M313.3,547.9l5.3,3.2" class="g8_3" />
<path d="M334.4,530.6l0,5.1l-11.1,4.8" class="g11_3" />
<path d="M323.1,540.6l0,-5.4l11.3,-4.9" class="g8_3" />
<path d="M323.1,535.2l1.8,1.3" class="g8_3" />
<path d="M324.9,539.9l0,-3.4l9.3,-4.1" class="g8_3" />
<path d="M324.9,536.5l3.1,1.7" class="g8_3" />
<path d="M333.7,548.6l0,4.5l-9.9,4.4" class="g11_3" />
<path d="M323.6,557.6l0,-4.9l10.1,-4.4" class="g8_3" />
<path d="M323.6,552.7l1.6,1.1" class="g8_3" />
<path d="M325.2,556.9l0,-3.1l8.4,-3.7" class="g8_3" />
<path d="M325.2,553.8l2.8,1.6" class="g8_3" />
<path d="M352.4,531.2c0.8,1.3,0.8,3.3,0,5.1c-0.6,1.5,-1.5,2.6,-2.6,3.1" class="g11_3" />
<path d="M349.3,529.8c0.6,-0.2,1.3,-0.1,1.9,0.1c0.5,0.3,0.9,0.7,1.2,1.3" class="g8_3" />
<path d="M349.3,529.8l-4.3,2.1" class="g8_3" />
<path d="M349.7,539.5l-4.7,2.2" class="g11_3" />
<path d="M344.8,541.6l0.2,-9.7l1.8,1.1l-0.1,7.6" class="g8_3" />
<path d="M346.8,533l3,-1.6c0,0,1.3,-0.5,2.6,0.8" class="g8_3" />
<path d="M346.8,533l5.3,3.2" class="g8_3" />
<path d="M367.9,515.7l0,5.1l-11,4.8" class="g11_3" />
<path d="M356.6,525.7l0,-5.4l11.3,-4.9" class="g8_3" />
<path d="M356.6,520.3l1.8,1.3" class="g8_3" />
<path d="M358.4,524.9l0,-3.3l9.4,-4.1" class="g8_3" />
<path d="M358.4,521.6l3.1,1.7" class="g8_3" />
<path d="M367.3,533.7l0,4.5l-10,4.4" class="g11_3" />
<path d="M357.1,542.7l0,-4.9l10.2,-4.4" class="g8_3" />
<path d="M357.1,537.8l1.6,1.1" class="g8_3" />
<path d="M358.7,542l0,-3.1l8.4,-3.7" class="g8_3" />
<path d="M358.7,538.9l2.8,1.6" class="g8_3" />
<path d="M567.6,521.1c0.6,0.5,1,1.1,1,1.7c0,1.7,-2.8,3.1,-6.2,3.1c-3.4,0,-6.2,-1.4,-6.2,-3.1c0,-0.6,0.4,-1.2,1,-1.7" class="g8_3" />
<path d="M557.2,521.1c1.1,-0.9,3,-1.4,5.2,-1.4c2.2,0,4.1,0.5,5.2,1.4" class="g11_3" />
<path d="M567.3,520.9c0.4,1.8,-2.1,3,-5,3c-2.8,0,-5.3,-1.2,-4.8,-3" class="g8_3" />
<path d="M561.5,520.9l1.4,-0.1l0.6,0.7l-0.5,0.7l-1.4,0L561,521.6Z" class="g8_3" />
<path d="M283.5,644.2c0.6,0.5,1,1.1,1,1.7c0,1.8,-2.8,3.2,-6.2,3.2c-3.4,0,-6.2,-1.4,-6.2,-3.2c0,-0.6,0.4,-1.2,1,-1.7" class="g8_3" />
<path d="M273.1,644.2c1.1,-0.8,3,-1.4,5.2,-1.4c2.2,0,4.1,0.6,5.2,1.4" class="g11_3" />
<path d="M283.2,644c0.4,1.9,-2.1,3.1,-5,3.1c-2.8,0,-5.3,-1.2,-4.8,-3" class="g8_3" />
<path d="M277.4,644l1.4,-0.1l0.6,0.7l-0.5,0.8l-1.4,0l-0.6,-0.7Z" class="g8_3" />
<path d="M255.3,628.2c0.6,0.5,0.9,1.1,0.9,1.7c0,1.7,-2.7,3.1,-6.1,3.1c-3.4,0,-6.2,-1.4,-6.2,-3.1c0,-0.6,0.4,-1.2,1,-1.7" class="g8_3" />
<path d="M244.9,628.2c1.1,-0.9,3,-1.4,5.2,-1.4c2.2,0,4.1,0.5,5.2,1.4" class="g11_3" />
<path d="M255,628c0.4,1.8,-2.1,3.1,-5,3.1c-2.8,0,-5.3,-1.3,-4.9,-3.1" class="g8_3" />
<path d="M249.2,628l1.4,-0.1l0.6,0.7l-0.5,0.7l-1.4,0l-0.6,-0.6Z" class="g8_3" />
<path d="M333.7,645L447.1,595.9" class="g11_3" />
<path d="M292.2,661c0,0,1.5,1,3.7,0.5" class="g11_3" />
<path d="M240.8,631.5c-0.3,-0.2,-0.8,-0.9,-1,-1.6c-0.2,-0.6,-0.2,-1.3,-0.2,-1.4c0,-0.4,0,-4.5,0,-4.5" class="g11_3" />
<path d="M243.8,620.3c0,0,-1.5,0.7,-2.5,1.5c-1.1,0.9,-1.7,1.9,-1.7,2.2" class="g8_3" />
<path d="M244,624.5c0,0,-1.4,0.5,-2.5,1.4c-1.1,0.8,-1.9,2,-1.9,2.2" class="g8_3" />
<path d="M239.8,629.9L228,623.1c0,0,-1.2,-1.1,-1.7,-2.5c-0.6,-1.5,-0.6,-3.4,-0.6,-3.8" class="g11_3" />
<path d="M231.1,616.2c0,0,-5.1,2.1,-4.5,5.1" class="g8_3" />
<path d="M533.5,497.5l0,2" class="g8_3" />
<path d="M532.5,497.5l0,2" class="g8_3" />
</svg>