<?xml version="1.0" encoding="UTF-8" standalone="no"?>
<!DOCTYPE svg PUBLIC "-//W3C//DTD SVG 1.1//EN"
"http://www.w3.org/Graphics/SVG/1.1/DTD/svg11.dtd">
<svg viewBox="0 0 935 1210" version="1.1" xmlns="http://www.w3.org/2000/svg" xmlns:xlink="http://www.w3.org/1999/xlink">
<defs>
<style type="text/css"><![CDATA[
.g16_1{
fill: #D4D4D4;
}
.g2_1{
fill: none;
stroke: #FFFFFF;
stroke-width: 3;
stroke-linecap: round;
stroke-linejoin: miter;
stroke-miterlimit: 2;
}
.g17_1{
stroke: #000000;
stroke-width: 1;
stroke-linecap: round;
stroke-linejoin: round;
stroke-miterlimit: 2;
}
.g3_1{
fill: #FFFFFF;
stroke: #000000;
stroke-width: 2;
stroke-linecap: butt;
stroke-linejoin: miter;
stroke-miterlimit: 2;
}
.g11_1{
fill: #636363;
stroke: #000000;
stroke-width: 1;
stroke-linecap: round;
stroke-linejoin: round;
stroke-miterlimit: 2;
}
.g18_1{
fill: #E0E0E0;
}
.g1_1{
fill: #B3B3B3;
}
.g7_1{
fill: #636363;
stroke: #000000;
stroke-width: 1;
stroke-linecap: butt;
stroke-linejoin: miter;
stroke-miterlimit: 2;
}
.g10_1{
fill: none;
stroke: #000000;
stroke-width: 2;
stroke-linecap: round;
stroke-linejoin: round;
stroke-miterlimit: 2;
}
.g5_1{
fill: none;
stroke: #000000;
stroke-width: 2;
stroke-linecap: butt;
stroke-linejoin: miter;
stroke-miterlimit: 2;
}
.g14_1{
fill: none;
stroke: #FFFFFF;
stroke-width: 1;
stroke-linecap: round;
stroke-linejoin: round;
stroke-miterlimit: 2;
stroke-dasharray: 2,2,4,2;
}
.g4_1{
fill: none;
stroke: #000000;
stroke-width: 1;
stroke-linecap: butt;
stroke-linejoin: miter;
stroke-miterlimit: 2;
}
.g9_1{
fill: #FFFFFF;
}
.g15_1{
fill: #636363;
stroke: #000000;
stroke-width: 2;
stroke-linecap: round;
stroke-linejoin: round;
stroke-miterlimit: 2;
}
.g13_1{
fill: #FFFFFF;
stroke: #000000;
stroke-width: 1;
stroke-linecap: round;
stroke-linejoin: round;
stroke-miterlimit: 2;
}
.g6_1{
}
.g12_1{
fill: none;
stroke: #FFFFFF;
stroke-width: 1;
stroke-linecap: round;
stroke-linejoin: round;
stroke-miterlimit: 2;
}
.g8_1{
fill: none;
stroke: #000000;
stroke-width: 1;
stroke-linecap: round;
stroke-linejoin: round;
stroke-miterlimit: 2;
}
]]></style>
</defs>
<path fill-rule="evenodd" d="M55,54l824,0l0,1101l-824,0Z" class="g1_1" />
<path d="M55.5,256.5l27,0" class="g2_1" />
<path d="M55.5,430.5l27,0" class="g2_1" />
<path d="M55.5,605.5l27,0" class="g2_1" />
<path d="M55.5,779.5l27,0" class="g2_1" />
<path d="M55.5,953.5l27,0" class="g2_1" />
<path d="M852.5,256.5l28,0" class="g2_1" />
<path d="M852.5,605.5l28,0" class="g2_1" />
<path d="M852.5,779.5l28,0" class="g2_1" />
<path d="M852.5,953.5l28,0" class="g2_1" />
<path d="M236.5,82.5l0,-27" class="g2_1" />
<path d="M390.5,82.5l0,-27" class="g2_1" />
<path d="M544.5,82.5l0,-27" class="g2_1" />
<path d="M698.5,82.5l0,-27" class="g2_1" />
<path d="M236.5,1155.5l0,-28" class="g2_1" />
<path d="M390.5,1155.5l0,-28" class="g2_1" />
<path d="M544.5,1155.5l0,-28" class="g2_1" />
<path d="M698.5,1155.5l0,-28" class="g2_1" />
<path fill-rule="evenodd" d="M82,82l770,0l0,1045l-770,0Z" class="g3_1" />
<path d="M184.5,209.5l646,0" class="g4_1" />
<path d="M103.5,278.5l727,0" class="g4_1" />
<path d="M82,1097l770,0" class="g5_1" />
<path d="M466.5,1099.5l0,28" class="g4_1" />
<path d="M468.5,1099.5l0,28" class="g4_1" />
<path d="M272.5,1099.5l0,28" class="g4_1" />
<path d="M274.5,1099.5l0,28" class="g4_1" />
<path d="M664.5,1099.5l0,28" class="g4_1" />
<path d="M666.5,1099.5l0,28" class="g4_1" />
<path fill-rule="evenodd" d="M106,289l37,0l0,38l-37,0Z" class="g6_1" />
<path fill-rule="evenodd" d="M103.5,287.5l38,0l0,37l-38,0Z" class="g7_1" />
<path d="M103.5,673.5l727,0" class="g4_1" />
<path d="M274.5,1099.5l192,0" class="g8_1" />
<path d="M468.5,1099.5l196,0" class="g8_1" />
<path d="M666.5,1099.5l186,0" class="g8_1" />
<path d="M272.5,1099.5l-190,0" class="g8_1" />
<path fill-rule="evenodd" d="M479,289l37,0l0,38l-37,0Z" class="g6_1" />
<path fill-rule="evenodd" d="M477.5,287.5l37,0l0,37l-37,0Z" class="g7_1" />
<path fill-rule="evenodd" d="M347.1,1085.2l-52.9,-18l0.5,-12.2l53.8,21.4Z" class="g9_1" />
<path d="M852.5,430.5l28,0" class="g2_1" />
<path fill-rule="evenodd" d="M106,683l37,0l0,38l-37,0Z" class="g6_1" />
<path fill-rule="evenodd" d="M103.5,681.5l38,0l0,38l-38,0Z" class="g7_1" />
<path d="M467.8,673.3L466.6,278.8" class="g4_1" />
<path fill-rule="evenodd" d="M363.1,247.9c15.4,-8.9,30.8,-17.8,46.3,-26.8c0.5,-0.7,1.1,-1.5,1.7,-2.3c0.2,-0.3,0.3,-0.6,0.2,-0.7c-0.1,-0.2,-0.3,-0.3,-0.7,-0.3c-0.9,0.1,-2,0.2,-3,0.3c-15.2,8.8,-30.5,17.6,-45.7,26.5c0.4,1.1,0.8,2.2,1.2,3.3Z" class="g9_1" />
<path d="M351.8,254.4c19.2,-11.1,38.4,-22.2,57.6,-33.3c0.5,-0.7,1.1,-1.5,1.7,-2.3c0.2,-0.3,0.3,-0.6,0.2,-0.7c-0.1,-0.2,-0.3,-0.3,-0.7,-0.3c-0.9,0.1,-2,0.2,-3,0.3c-19,11,-38,21.9,-57,33" class="g10_1" />
<path d="M408.4,220.9c0.2,-0.6,0.6,-1.1,1,-1.4c0.4,-0.4,1.1,-0.7,1.7,-0.9" class="g8_1" />
<path d="M407,219c0.7,0,1.5,-0.1,2.1,-0.3c0.7,-0.2,1.3,-0.5,1.7,-0.8" class="g8_1" />
<path fill-rule="evenodd" d="M367.6,235.9c-0.9,0.5,-1.7,1,-2.6,1.5c-0.5,0.3,-0.9,0.7,-1.2,1.1c-0.2,0.4,-0.5,1,-0.7,1.6c0,0.4,0,0.7,-0.1,0.9c-0.1,0.1,-0.3,0.1,-0.6,0c-0.9,-0.6,-1.9,-1,-2.7,-1.1c-0.9,-0.1,-1.9,0.1,-2.8,0.4c-9.2,5.4,-18.4,10.7,-27.6,16c-2,2,-3.3,4,-3.6,5.9c-0.2,1.9,0.3,3.8,1.6,5.6c1.6,1.9,3.4,3.1,5.3,3.4c1.8,0.3,3.9,-0.2,6.1,-1.5c8.6,-5,17.3,-10,26,-15c0.9,-0.8,1.6,-1.7,2,-2.5c0.4,-0.9,0.6,-1.9,0.6,-2.9c0,-0.4,0.1,-0.7,0.3,-0.8c0.2,-0.1,0.5,0.1,0.8,0.4c0.4,0.2,1,0.5,1.4,0.5c0.5,0,1,-0.1,1.4,-0.3c1,-0.5,2,-1.1,3.1,-1.7c0.9,-0.9,1.3,-2.1,1.2,-3.4c-0.1,-1.4,-0.7,-2.9,-1.7,-4.6c-1.1,-1.5,-2.2,-2.6,-3.2,-3.1c-1,-0.6,-2.1,-0.7,-3,-0.4Z" class="g9_1" />
<path d="M363.3,241c-0.1,-1.5,0.4,-2.8,1.3,-3.3c0.9,-0.5,1.9,-1.1,2.9,-1.7c1.8,-1,4.8,0.7,6.6,3.9c1.8,3.1,1.8,6.5,0,7.6c-0.9,0.5,-1.9,1.1,-2.9,1.6c-1,0.6,-2.3,0.3,-3.6,-0.5" class="g10_1" />
<path d="M366.7,249.9c-0.1,-1.5,-0.7,-3.2,-1.6,-4.9c-0.7,-1.3,-1.6,-2.3,-2.6,-3.1" class="g8_1" />
<path d="M367.3,247.9c0,-1.1,-0.4,-2.4,-1.1,-3.5c-0.6,-1.2,-1.5,-2.1,-2.4,-2.7" class="g8_1" />
<path d="M369.2,248.4c-0.6,-0.1,-1.1,-0.1,-1.4,-0.1c-0.3,0.1,-0.5,0.4,-0.5,0.8c0,1.2,-0.3,2.4,-0.7,3.2c-0.4,0.9,-1,1.7,-1.8,2.2c-9.2,5.3,-18.4,10.6,-27.6,16c-1.2,0.6,-2.1,0.8,-3.4,0.8c-4.4,0,-8,-3.7,-8,-8.1c0,-2.6,1.4,-5.1,3.4,-6.6c9.2,-5.4,18.4,-10.7,27.6,-16.1c0.7,-0.3,1.7,-0.5,2.5,-0.5c0.9,0.1,2,0.5,3,1c0.5,0.3,1,0.3,1.3,0.1c0.2,-0.1,0.5,-0.5,0.6,-1.1" class="g10_1" />
<path d="M330.6,256.6c2,0.2,4.5,2.1,6.2,5c1.5,2.7,1.9,5.6,1.4,7.5" class="g8_1" />
<path d="M370.6,249c1.5,-1.1,1.4,-4.1,-0.3,-7c-1.6,-2.8,-4.2,-4.5,-5.9,-3.8" class="g8_1" />
<path d="M334.5,256.7l24.9,-14.5" class="g8_1" />
<path d="M336.9,258.1l24.2,-14.4" class="g8_1" />
<path d="M339.5,263.1l24.4,-14.8" class="g8_1" />
<path d="M340,265.9L364.4,251" class="g8_1" />
<path d="M336.9,258.1c-1,0.6,-3.9,-0.1,-2.4,-1.4" class="g8_1" />
<path d="M339.5,263.1c-1.4,0.9,-1.3,3.5,0.5,2.8" class="g8_1" />
<path d="M364.4,251c1.5,-0.7,1.7,-4.1,-0.5,-2.7" class="g8_1" />
<path d="M361.1,243.7c1.4,-0.8,0,-2.5,-1.7,-1.5" class="g8_1" />
<path d="M104.2,659.8l0,-229.6c0,0,0.3,-0.8,0.8,-0.9" class="g10_1" />
<path d="M104.9,429.3c-0.4,-0.3,-0.7,-0.3,-0.7,-0.9c0,-0.7,0,-20.3,0,-20.3c0,0,0.3,-0.8,1.2,-1.1c0.8,-0.3,312.3,-94.5,312.3,-94.5" class="g10_1" />
<path d="M105,429.3L455.5,323.4" class="g8_1" />
<path d="M120.5,425.5l0,234" class="g8_1" />
<path d="M121.4,425.1l304.9,92.5l29.2,-9" class="g8_1" />
<path d="M426.5,517.5l0,142" class="g8_1" />
<path d="M183.9,436.8l109,-33" class="g8_1" />
<path d="M132.2,421.1l51.7,15.7" class="g8_1" />
<path d="M241.2,388.1l51.7,15.7" class="g8_1" />
<path fill-rule="evenodd" d="M132.2,421.1l109,-33l51.7,15.7l-109,33Z" class="g11_1" />
<path d="M137.2,422.3L244.9,389.6" class="g12_1" />
<path fill-rule="evenodd" d="M248.7,391.7l11.1,3.6c0,0,0.4,-0.2,0.5,-0.4c0.2,-0.3,0.8,0,1.2,-0.2c0.5,-0.2,1,-0.4,1.4,-0.7c0.4,-0.2,2.8,-0.5,2.8,-0.5l-11.3,-3.6c0,0,-1.9,0,-1.6,0.5c0.3,0.5,-2.1,0.2,-2.3,0.4c-0.2,0.2,-0.6,0.3,-0.6,0.3Z" class="g13_1" />
<path fill-rule="evenodd" d="M140.3,425.2l11.1,3.6c0,0,0.4,-0.2,0.6,-0.4c0.1,-0.3,0.7,0,1.1,-0.2c0.5,-0.2,1,-0.4,1.4,-0.7c0.4,-0.2,2.8,-0.5,2.8,-0.5L146,423.4c0,0,-1.9,0,-1.6,0.5c0.3,0.5,-2.1,0.2,-2.3,0.4c-0.2,0.1,-0.5,0.3,-0.5,0.3Z" class="g13_1" />
<path fill-rule="evenodd" d="M175.7,436.3l11.2,3.7c0,0,0.4,-0.2,0.5,-0.5c0.2,-0.2,0.7,0.1,1.2,-0.1c0.5,-0.2,0.9,-0.5,1.3,-0.7c0.4,-0.3,2.9,-0.5,2.9,-0.5l-11.4,-3.6c0,0,-1.9,0,-1.6,0.5c0.3,0.4,-2,0.2,-2.2,0.3c-0.3,0.2,-0.6,0.4,-0.6,0.4Z" class="g13_1" />
<path fill-rule="evenodd" d="M281.4,402.5l11.1,3.7c0,0,0.4,-0.2,0.5,-0.5c0.2,-0.2,0.7,0.1,1.2,-0.1c0.5,-0.2,1,-0.5,1.4,-0.7c0.3,-0.3,2.8,-0.5,2.8,-0.5l-11.3,-3.6c0,0,-2,0,-1.7,0.5c0.3,0.5,-2,0.2,-2.2,0.4c-0.2,0.1,-0.6,0.3,-0.6,0.3Z" class="g13_1" />
<path d="M155.9,420.5l82.5,-24.8l22.3,6.8l-82.5,24.8Z" class="g14_1" />
<path d="M179.3,460.1c-0.3,-0.2,-0.7,-0.4,-1.1,-0.6c-0.4,0.2,-0.8,0.4,-1.2,0.7c0,0.4,0.1,0.9,0.1,1.2c0.1,0.4,0.1,0.7,0.2,0.9" class="g8_1" />
<path d="M178.2,459.5c0,3.5,-1.2,2.3,-1.2,3.9c0,0.8,0,1.5,0,2.3c0,0.1,0,0.2,0.1,0.4c0,0.1,0,0.2,0.1,0.4" class="g8_1" />
<path d="M179.3,460.1c0.1,3.5,-2.2,2.2,-2.3,5.6" class="g8_1" />
<path d="M179.3,462.3c0.1,3.4,-2.2,2.1,-2.3,5.5c0,0.5,0,1,0,1.5c0.1,0.1,0.1,0.3,0.1,0.3c0,0.1,0.1,0.3,0.1,0.4" class="g8_1" />
<path d="M179.1,461.6c0.1,0.1,0.1,0.3,0.2,0.4c0,0.1,0,0.2,0,0.3c0,0.5,0,0.9,0,1.4c0,3.5,-2.2,2.1,-2.3,5.6" class="g8_1" />
<path d="M179.4,465.7c-0.1,3.5,-2.3,2.2,-2.4,5.6c0,0.5,0,0.9,0.1,1.5c0,0,0,0.2,0,0.3c0,0.1,0.1,0.3,0.1,0.3" class="g8_1" />
<path d="M179.1,465c0.1,0.2,0.1,0.4,0.2,0.4c0,0.1,0,0.3,0.1,0.3c-0.1,0.5,-0.1,1,-0.1,1.5c0,3.4,-2.2,2.1,-2.2,5.6" class="g8_1" />
<path d="M179.3,469.2c0,3.5,-2.2,2.2,-2.3,5.6c0,0.5,0,0.9,0,1.5c0,0.1,0.1,0.2,0.1,0.3c0,0.1,0.1,0.2,0.1,0.3" class="g8_1" />
<path d="M179.1,468.6c0.1,0.1,0.1,0.3,0.2,0.4c0,0,0,0.2,0,0.2c0,0.5,0,1,0,1.5c0,3.4,-2.2,2.1,-2.3,5.6" class="g8_1" />
<path d="M179.3,472.6c0,3.5,-2.2,2.1,-2.3,5.6c0.1,0.5,0,1,0,1.4c0.1,0.2,0.1,0.3,0.1,0.4c0.1,0.1,0.1,0.2,0.1,0.3" class="g8_1" />
<path d="M179.2,472c0,0.1,0,0.3,0.1,0.4c0,0,0,0.2,0,0.2c0,0.5,0,1,0,1.5c0,3.4,-2.2,2.1,-2.3,5.5" class="g8_1" />
<path d="M179.3,476.1c0,3.5,-2.2,2.1,-2.3,5.6c0,0.5,0,1,0,1.4c0.1,0.2,0.1,0.4,0.1,0.4c0.1,0.1,0,0.2,0.1,0.3" class="g8_1" />
<path d="M179.1,475.5c0.1,0.1,0.1,0.3,0.2,0.4c0,0,0,0.2,0,0.2c0,0.5,0,1,0,1.5c0,3.4,-2.2,2.1,-2.3,5.5" class="g8_1" />
<path d="M179.3,479.7c0,3.5,-2.2,2.1,-2.3,5.6c0,5.6,0,11.2,0,16.8c0,0.3,0.5,0.7,1.2,0.6c0.6,0,1.1,-0.3,1.1,-0.6c0,-7.5,0,-14.9,0,-22.4c0,0,0,-0.2,0,-0.3c-0.1,0,-0.1,-0.3,-0.1,-0.4" class="g8_1" />
<path d="M179.3,502.1c0,-0.1,-0.2,-0.3,-0.3,-0.3c-0.2,-0.1,-0.5,-0.2,-0.7,-0.2c-0.3,0,-0.7,0,-0.9,0.1c-0.2,0,-0.3,0.2,-0.4,0.4" class="g8_1" />
<path fill-rule="evenodd" d="M187.8,497.9C187,497,186,496.1,185.1,495.2c-0.8,-1,-1.6,-2,-2.3,-3c-0.5,-0.6,-1.2,-1,-1.9,-1.3c-0.7,-0.3,-1.6,-0.4,-2.6,-0.4c-1.2,0.1,-2.4,0.2,-3.2,0.6c-0.8,0.4,-1.5,0.9,-1.9,1.5c-0.4,0.7,-0.9,1.4,-1.4,1.9c-0.4,0.6,-1,1.2,-1.6,1.7c-0.9,0.7,-1.7,1.5,-2.1,2.3c-0.5,0.8,-0.8,1.7,-0.8,2.4c0,4.5,0,9,0,13.5c-0.6,0.6,-1,1.2,-1.3,1.8c-0.2,0.6,-0.3,1.1,-0.3,1.7c-1.4,2,-2.4,4.2,-3,6.5c-0.5,2.3,-0.6,4.9,-0.2,7.6c-0.5,0.5,-0.8,1.6,-0.9,3c-0.1,1.5,-0.1,3.5,0,5.9c-0.3,0.3,-0.5,0.9,-0.6,1.3c-0.1,0.4,-0.1,1,-0.1,1.5c0.1,4.1,0.1,8.2,0.1,12.3c-0.5,0.9,-0.9,1.8,-1,2.7c-0.2,0.9,-0.3,1.9,-0.2,2.8c0,5.6,0,11.3,-0.1,17c-0.7,0.4,-1.4,0.9,-2.2,1.2c-0.1,2.5,0,5.1,0,7.6c0.3,0.2,0.5,0.4,0.9,0.6c1,-0.6,2.1,-1.2,3.2,-1.8c0,1.8,0,3.6,0,5.5c-0.1,0.3,-0.1,0.6,-0.3,0.8c-0.1,0.2,-0.3,0.5,-0.6,0.7c-0.3,0.2,-0.6,0.4,-1,0.6c0,1.2,0,2.5,0,3.9c0.1,3.6,1.1,6.7,2.9,9.6c1.8,2.8,4.6,5.2,8.2,7.1c2.4,1.3,4.9,2.7,7.4,4.1c2.3,0,4.5,-0.7,6.6,-1.9c2.2,-1.2,4.3,-3.2,6.3,-5.7c0.4,-0.7,0.8,-1.3,1.1,-1.9c0.4,-0.7,0.7,-1.3,0.9,-1.8c0.8,0.6,1.9,1.5,3.1,2.8c1.2,1.3,2.7,2.9,4.2,4.8c3.4,3.4,6.5,6.3,9.2,8.5c2.6,2.1,5.1,3.8,7.1,4.7c1,0.5,2,1.1,2.5,1.8c0.4,0.7,0.7,1.4,0.7,2.2c0.3,2.7,0.9,5.1,1.6,6.7c0.7,1.7,1.6,2.8,2.7,3.4c5.1,3,10.3,6.1,15.4,9.1c0.5,0,1.1,0.1,1.6,0.2c0.7,0.5,1.4,0.9,2.2,1.4c2.4,0.2,4.9,-0.3,7.5,-1.7c2.5,-1.4,5.1,-3.5,7.8,-6.4c0.4,-0.6,0.8,-1.2,1.2,-1.8c0.2,-0.9,0.6,-1.9,1.1,-2.7c0.6,-0.8,1.3,-1.8,2.2,-2.5c0.4,-1,0.9,-2.1,1.3,-3.2c0,-6.4,0,-12.9,0,-19.5c-0.3,-0.6,-0.5,-1.4,-0.5,-2.3c0,-0.8,0.2,-1.9,0.6,-2.9c-0.1,-2,-0.1,-4,-0.1,-6.1c0.1,-0.6,-0.1,-1.3,-0.4,-1.8c-0.3,-0.6,-0.8,-1,-1.4,-1.4c-5.4,-3.4,-11,-6.8,-16.6,-10.2c-1.1,-0.6,-2.7,-0.8,-4.6,-0.5c-1.9,0.2,-4.5,0.8,-7.3,1.9c-1.2,0.6,-2.5,1.1,-3.9,1.6c-1.9,1.5,-3.5,3.1,-4.8,4.5c-1.3,1.4,-2.2,2.9,-2.9,4.3c-2.8,-3,-5.4,-5.4,-7.6,-7.3c-2.1,-1.9,-4.2,-3.4,-5.7,-4.3c-1.4,-1,-2.6,-2.1,-3.2,-3.1c-0.7,-1.1,-1.1,-2.2,-1.2,-3.2c0.1,-0.6,0,-1.3,-0.2,-1.7c-0.2,-0.4,-0.6,-0.7,-1.1,-0.8c0.3,-1.1,0.3,-2,0.2,-2.6c-0.1,-0.6,-0.4,-1.1,-0.9,-1.3c-1.7,-1,-3.4,-2.1,-5.1,-3.2c-0.1,-1.3,0,-2.7,0,-4.2c-0.3,-0.9,-0.6,-1.6,-1,-2c-0.4,-0.5,-1,-0.7,-1.6,-0.7c0,-7.9,0,-15.8,0,-23.7c-0.2,-0.5,-0.3,-1.1,-0.4,-1.4c0,-0.3,0.2,-0.7,0.4,-0.8c0,-2.6,0,-5.3,-0.1,-8c0.1,-0.3,0,-0.7,-0.2,-1c-0.1,-0.2,-0.4,-0.7,-0.6,-1c0.3,-0.3,0.5,-1,0.4,-2c-0.1,-1.1,-0.3,-2.6,-0.8,-4.5c-0.2,-1.3,-0.6,-2.7,-1.2,-3.9c-0.6,-1.2,-1.3,-2.4,-2.1,-3.5c0,-0.6,-0.1,-1.3,-0.4,-1.9c-0.3,-0.5,-0.8,-1.1,-1.2,-1.6c-0.1,-4.6,-0.1,-9.1,0,-13.7c-0.1,-0.5,-0.2,-1.1,-0.4,-1.5c-0.2,-0.3,-0.5,-0.9,-0.8,-1.2Z" class="g9_1" />
<path d="M234.2,647.6c0.2,0,0.6,0.1,1,0.3c0.3,0.2,1,0.5,1.7,0.9c2.1,1.2,4.3,2.5,6.5,3.8c2.4,0.4,5.2,-0.1,8.2,-1.9c2.9,-1.7,5.8,-4.4,8.2,-7.6c0.3,-1.1,0.6,-1.9,1.3,-3c0.7,-1.1,1.2,-1.7,2,-2.4c0.6,-1.1,1,-2,1.4,-3.1c0,-6.4,0,-12.9,0,-19.4c-1.4,-2.1,0,-5.3,0,-5.3c0,-2,0,-4.1,0,-6.2c0,-1.4,-0.5,-2.5,-1.3,-2.9c-5.7,-3.5,-11.4,-7.1,-17.1,-10.6" class="g10_1" />
<path d="M224.4,642.1c5.2,2.9,10.5,5.9,15.7,8.9c0.1,-0.1,0.3,-0.1,0.4,-0.1" class="g10_1" />
<path d="M247.5,624.8l0.1,-31.5" class="g8_1" />
<path d="M247.6,593.3c0,-1.4,-0.5,-2.4,-1.2,-3" class="g8_1" />
<path d="M247.5,624.8c-1.4,3.6,-3.2,6.7,-5.3,9.5c-2.2,2.7,-4.6,4.9,-7.6,6.8c-2.9,1.5,-5.3,2.1,-7.5,1.9c-0.7,-0.1,-1.4,-0.3,-2,-0.6" class="g8_1" />
<path d="M184.9,495c-0.7,-0.9,-1.5,-1.9,-2.2,-2.8c-0.7,-1,-2.5,-1.7,-4.6,-1.7c-2,0,-3.8,0.7,-4.6,1.8c-0.6,0.9,-1.3,1.8,-2.1,2.7" class="g10_1" />
<path d="M184.1,494.4c-1.2,-1.2,-3.4,-1.9,-5.9,-1.9c-2.7,0,-5,0.8,-6.2,2" class="g8_1" />
<path d="M187.4,497.5c-1,-1,-1.9,-1.9,-2.9,-2.8c-1.4,-1.2,-3.7,-2,-6.4,-2c-2.7,0,-5.1,0.8,-6.4,2.1c-0.9,0.9,-1.9,1.7,-2.8,2.6" class="g10_1" />
<path d="M188.9,514.3c0,-4.5,0,-9,0,-13.6c0,-1.2,-0.5,-2.3,-1.5,-3.2" class="g10_1" />
<path d="M185.1,495.9c-1.8,-0.9,-4.3,-1.4,-7,-1.4c-2.7,0,-5.2,0.5,-7,1.5" class="g8_1" />
<path d="M168.9,497.4c-1,1,-1.5,2.1,-1.5,3.3c-0.1,4.6,-0.1,9.2,0,13.8" class="g10_1" />
<path d="M190.2,517.6c-2.2,-2.5,-6.8,-4.3,-12.1,-4.3c-5.3,0,-9.9,1.8,-12.1,4.4" class="g8_1" />
<path d="M193.8,531c-0.1,-4.8,-7,-8.7,-15.4,-8.8c-8.4,0.1,-15.3,4,-15.4,8.9" class="g8_1" />
<path d="M162.2,531.2c0,0.3,0,0.6,0.1,0.9" class="g10_1" />
<path d="M194.6,531.2c0,-5.2,-7.2,-9.4,-16.2,-9.4c-8.9,0,-16.2,4.2,-16.2,9.4" class="g8_1" />
<path d="M195,543.1c0,-0.3,0.1,-0.7,0.1,-0.9c0.1,-0.3,0.1,-0.8,0.1,-1.1c0,-2.1,0,-4.1,0,-6.2c0,-5.4,-7.5,-9.7,-16.8,-9.7c-9.2,0,-16.8,4.3,-16.8,9.7c0,2.1,0,4.1,0,6.2" class="g10_1" />
<path d="M194.7,542.4c0,-0.3,0,-0.6,0,-0.8c0,-5.2,-7.3,-9.4,-16.3,-9.5c-7.9,0.1,-14.5,3.3,-16,7.6" class="g8_1" />
<path d="M189,508.8c0,-3.4,-4.9,-6.3,-10.8,-6.3c-6,0,-10.9,2.9,-10.9,6.3" class="g8_1" />
<path d="M195.2,541.1c0.1,-5.4,-7.5,-9.8,-16.8,-9.7c-9.3,-0.1,-16.8,4.3,-16.8,9.7" class="g8_1" />
<path d="M169.9,554.4c0.1,-1.5,-0.5,-2.7,-1.5,-3.2c-0.9,-0.6,-2.2,-0.5,-3.5,0.3" class="g8_1" />
<path d="M164.9,551.5c-1.3,0.7,-2.6,2,-3.7,3.8c-0.9,1.7,-1.4,3.5,-1.4,5" class="g10_1" />
<path d="M159.8,560.3l-0.1,18.3" class="g10_1" />
<path d="M159.7,578.6l0.1,7.5" class="g8_1" />
<path d="M169.9,554.4l0,7.8" class="g8_1" />
<path d="M169.9,563.5l0,8" class="g8_1" />
<path d="M169.9,572.8l0,7" class="g8_1" />
<path d="M162.2,570.9c-0.3,-0.4,-0.5,-1,-0.5,-1.6c0,-1.6,0,-3.2,0,-4.9c0.1,-0.9,0.4,-2,1,-3.1c0.9,-1.7,2.5,-2.8,3.6,-2.7" class="g8_1" />
<path d="M166.3,558.6c0.3,0,0.6,0.1,0.8,0.2c0.5,0.4,0.9,1.1,0.9,2c0,1.6,0,3.2,0,4.9c0,1,-0.3,2.1,-0.9,3.1c-1.2,2.1,-3.2,3.2,-4.5,2.6c-0.1,-0.2,-0.3,-0.3,-0.4,-0.5" class="g8_1" />
<path d="M163.9,569.2c-0.2,-0.2,-0.5,-0.4,-0.9,-0.6c-0.6,-0.3,-0.9,-1,-0.9,-1.9c-0.1,-0.7,-0.1,-1.4,0,-2.1c-0.1,-0.9,0.3,-2,0.9,-3c1.2,-2.1,3,-3.1,4.3,-2.5" class="g8_1" />
<path d="M167.9,564.5c-0.1,0.6,-0.4,1.1,-0.7,1.6c-1.1,2.1,-3,3.2,-4.2,2.5" class="g8_1" />
<path d="M163.2,571.5c-0.2,-0.4,-0.3,-0.9,-0.3,-1.5c0,-0.5,-0.1,-1,0,-1.5" class="g8_1" />
<path d="M165.4,560.2c0.5,-0.3,1,-0.3,1.4,0c0.5,0.2,0.7,0.8,0.7,1.5c0,0.6,0,1.1,0,1.7c0,0.7,-0.3,1.6,-0.7,2.3c-0.9,1.7,-2.4,2.5,-3.3,1.9c-0.2,0,-0.4,-0.2,-0.5,-0.5" class="g8_1" />
<path d="M163,567.1c-0.1,-0.2,-0.2,-0.5,-0.2,-0.9" class="g8_1" />
<path d="M162.8,564.4c0,-0.7,0.2,-1.6,0.7,-2.3c0.3,-0.6,0.7,-1.1,1.2,-1.5" class="g8_1" />
<path d="M167.6,567.7c-1.1,1.4,-2.7,2,-3.7,1.5" class="g8_1" />
<path d="M165,567.4c-0.3,0.1,-0.6,0.1,-0.7,0c-0.4,-0.3,-0.6,-0.7,-0.6,-1.3c0,-0.5,-0.1,-1,0,-1.6c0,-0.6,0.2,-1.2,0.6,-1.9c0.7,-1.3,1.9,-2,2.7,-1.6c0.1,0.1,0.2,0.2,0.3,0.3" class="g8_1" />
<path d="M165.2,559.3l-0.3,-0.2l-0.1,-7.6l1.6,-15.1" class="g8_1" />
<path d="M173,554.6l-0.1,6.6" class="g8_1" />
<path d="M173,554.6c-0.7,-2.1,-1.7,-3.4,-3.1,-3.9c-1.3,-0.6,-3,-0.3,-5,0.8" class="g8_1" />
<path d="M191.2,610.4c1.2,-1.9,2.1,-3.7,2.7,-5.3c0.7,-1.5,1.1,-3,1.3,-4.2c0,-19,0.1,-38.1,0.1,-57.2c-1.3,-2.8,-3.5,-5.1,-6.5,-6.8c-3.1,-1.8,-7.1,-3.1,-12,-3.8c-7.9,0.9,-14.2,4.6,-15.8,9.2c0,4.4,0,9,0,13.5" class="g10_1" />
<path d="M176.8,533.1l0,29.1l-6.9,-0.1" class="g8_1" />
<path d="M180.4,557.2c3,0.6,5.6,1.5,7.7,2.8c2.2,1.1,3.8,2.5,5.2,4.1c0.2,0.3,0.4,0.5,0.6,-0.2c0,-6.8,0,-13.6,0,-20.3c-0.2,-0.8,-0.3,-1,-0.4,-1.2c-1.2,-1.7,-2.9,-3.1,-5.1,-4.3c-2.2,-1.3,-4.9,-2.1,-8,-2.9c-0.3,0,-0.9,-0.3,-0.9,0.6c0,6.7,0,13.5,0,20.3c-0.1,1,0.9,1.1,0.9,1.1Z" class="g8_1" />
<path d="M216.2,627.5c2.1,1.2,5.6,-0.8,7.8,-4.5c1,-1.9,1.6,-3.9,1.6,-5.5c0,-0.7,-0.2,-1.4,-0.5,-2c-0.4,-0.6,-1.1,-1.1,-1.8,-1.5c-3.9,-2.9,-7.6,-5.8,-10.7,-8.6c-3.2,-2.8,-6.1,-5.6,-8.5,-8.3c-0.7,-0.8,-1.4,-1.8,-2.1,-2.9c-0.6,-1.1,-1.1,-2.4,-1.6,-3.7c-0.6,-1.6,-1.4,-2.9,-2.2,-3.8c-0.7,-1,-1.8,-1.5,-3,-1.7" class="g8_1" />
<path d="M193,607.1c0.6,0.5,1.5,1.1,2.3,1.9c0.9,0.9,2,2,3.2,3.3c3.4,3.9,6.7,7,10,9.8c3.3,2.8,6.4,4.9,9.5,6.5" class="g10_1" />
<path d="M203.7,581.7c0.1,0,0.3,0.1,0.4,0.2c0.6,0.4,0.9,1,0.8,1.8c0,1.2,0.2,2,0.8,3c0.6,1.1,1.7,2.3,3,3.4c2.7,1.7,5.3,3.7,7.9,6c2.7,2.4,5.1,4.9,7.7,7.8c1,1.1,1.9,1.8,2.6,2.1c0.8,0.3,1.3,0.1,1.8,-0.3" class="g10_1" />
<path d="M263.1,637.7l-9.2,-5.4" class="g8_1" />
<path d="M259.8,643.1l-9.1,-5.3" class="g8_1" />
<path d="M253.9,632.3c-1.3,-0.7,-3.1,-0.1,-4,1.4c-0.9,1.5,-0.5,3.4,0.8,4.1" class="g8_1" />
<path d="M247.5,624.8l16.7,9.6" class="g8_1" />
<path d="M264.5,609.9c-3.4,-1.9,-6.7,-3.8,-10.1,-5.8c-1.2,-0.7,-2.3,-0.1,-2.3,1.3c0,1.5,1,3.2,2.3,4c3.3,1.9,6.7,3.8,10.1,5.8" class="g8_1" />
<path d="M246.1,590.2c-1.2,-0.8,-3.1,-0.9,-5.8,-0.5c-2.7,0.6,-5.9,1.7,-10.1,3.5c-3.3,2.8,-5.6,5.2,-7.1,7.5c-0.2,0.4,-0.4,0.7,-0.6,1" class="g10_1" />
<path d="M218.2,628.7c1,0.6,1.7,1.5,2.2,2.3c0.5,0.8,0.7,1.9,0.7,3" class="g10_1" />
<path d="M219.6,629.9c0.3,3.6,0.8,6.4,1.6,8.4c0.9,2,2,3.4,3.2,3.8" class="g10_1" />
<path d="M170,589.4c0,2.7,-2.3,5.2,-5.1,6.9c-2.9,1.6,-5.2,1.7,-5.2,-1" class="g8_1" />
<path d="M191.2,610.4c-1.4,2.5,-3.9,4.7,-6.7,6.4c-2.8,1.6,-5.3,2.2,-6.7,1.4c-2.6,-1.5,-5.2,-3,-7.9,-4.6" class="g10_1" />
<path d="M242.1,593c-1.6,2.2,-3.5,4.5,-5.6,6.5c-2.2,2,-4.7,4.1,-7.4,6" class="g8_1" />
<path d="M246.1,626c-0.7,-0.4,-1.5,-0.6,-2.2,-0.7c-0.7,-0.2,-1.5,-0.1,-2.1,0.1c-3,1,-5.8,1.4,-8.2,1.2c-2.4,-0.1,-4.6,-0.8,-6.4,-2" class="g8_1" />
<path d="M218.2,628.7c2.2,1.2,5.7,-0.8,7.9,-4.6c1.1,-1.9,1.6,-3.8,1.6,-5.4c0,-3.2,0,-6.4,0,-9.6c0,-1.6,-0.6,-2.9,-1.6,-3.5" class="g8_1" />
<path d="M218.7,629c2.2,1.2,5.7,-0.8,7.9,-4.5c1.1,-2,1.6,-3.9,1.6,-5.5c0,-3.2,0,-6.4,0,-9.6c0,-1.6,-0.5,-2.9,-1.6,-3.6" class="g8_1" />
<path d="M226.1,605.5c0,-0.2,0.2,-0.5,0.3,-0.8c0.1,-0.2,0.2,-0.6,0.3,-0.9c0.2,-1.4,0.6,-2.9,1,-4.5c0.4,-1.5,0.9,-3.1,1.4,-4.8c0.1,-0.2,0.3,-0.5,0.4,-0.7c0.1,-0.1,0.2,-0.2,0.3,-0.3" class="g8_1" />
<path d="M164.9,571.1c0,8.4,0,16.8,0,25.2c0.4,3.4,1.6,6.5,3.6,9.2c1.9,2.6,4.7,4.9,8.1,6.7c2.6,1.5,5.2,3,7.9,4.6" class="g8_1" />
<path d="M197.6,574.6c1.7,1,3.4,2,5.1,3c1.1,0.6,1.2,1.3,1.2,2.3c-0.1,0.6,-0.2,1.2,-0.3,1.8" class="g10_1" />
<path d="M195.3,567.7c0.3,-0.1,0.6,-0.1,1,0.1c0.8,0.4,1.5,1.6,1.4,2.6c0,1.2,0,2.3,0,3.5c0.1,0.5,-0.1,0.9,-0.3,1c-0.7,0.4,-1.4,0.8,-2.1,1.3" class="g10_1" />
<path d="M197.4,574.9c-0.3,0.2,-0.7,0.2,-1.1,-0.1c-0.4,-0.2,-0.8,-0.6,-1.1,-1" class="g8_1" />
<path d="M195.9,575.9c-0.1,0.4,-0.4,0.6,-0.7,0.6" class="g8_1" />
<path d="M197,575.3c0,0.6,0,1.3,0,2c-0.1,0.5,0,1.2,0.3,1.6c0.2,0.5,0.6,0.9,1,1.3" class="g8_1" />
<path d="M197.1,578.3c0.9,0.9,1.9,1.7,3,2.2c1.1,0.6,2.4,1,3.6,1.2" class="g8_1" />
<path d="M159.8,585.8c0.2,-0.1,0.6,-0.3,0.9,-0.5c0.1,0,0.2,-0.1,0.3,-0.1" class="g8_1" />
<path d="M170,572.3l0.6,0.1l2.2,-1.3l0.9,0.4l-0.1,7.5l-3.1,1.8" class="g10_1" />
<path d="M170.5,580.8c0,0,3.2,1.8,3.2,1.8" class="g8_1" />
<path d="M170.6,573l0,6" class="g8_1" />
<path d="M176.8,562.2l-3.9,-1l-3,0.9" class="g8_1" />
<path d="M173.8,569.4l0,18.3" class="g8_1" />
<path d="M168.8,581.5l4.9,1.3" class="g8_1" />
<path d="M173.5,579l-0.6,-0.4" class="g8_1" />
<path d="M173.8,569.4c0,-1.3,-0.9,-1.5,-0.9,-1.5c0,0,-0.6,-0.3,-0.6,-0.3" class="g8_1" />
<path d="M177,566.6l-2.8,1.6" class="g8_1" />
<path d="M172.3,571.3c0,-1.3,0,-2.6,0,-3.9c0,0,-0.1,-1,0.8,-1.2" class="g10_1" />
<path d="M173.1,566.2c0.2,-0.1,0.3,-0.1,0.5,-0.1c0.9,0,1.7,0,2.7,0c0,0,1.2,-0.2,1.3,1.2c0,6.3,0,12.7,0,19.1c0,0.3,0,0.5,-0.1,0.6" class="g8_1" />
<path d="M177.5,587c-0.3,0.8,-1.3,0.8,-1.3,0.8c-2,0,-4.1,0,-6.3,0c0,0,-0.9,0.5,-0.9,0.5c-0.5,0.2,-0.7,0.1,-0.8,-0.1" class="g10_1" />
<path d="M168.2,588.2c-0.1,-0.2,-0.1,-0.5,-0.1,-0.5c-0.1,-1.8,-0.1,-3.7,0,-5.6c0,0,-0.1,-0.9,0.9,-1.5c0.3,-0.2,0.6,-0.4,0.9,-0.6c0.2,-0.1,0.5,-0.2,0.7,-0.2c0.7,-0.4,1.5,-0.9,2.2,-1.3c0,0,0,-7.4,0,-7.4" class="g8_1" />
<path d="M161.6,586.2c0,0,0,-0.3,-0.3,-0.1c-1,0.5,-2,1.1,-3,1.7c-0.3,-0.1,-0.5,-0.3,-0.8,-0.5c-0.1,-2.4,0,-4.9,0,-7.4c0,0,2.2,-1.3,2.2,-1.3" class="g10_1" />
<path d="M157.4,587.4l2.3,-1.3" class="g8_1" />
<path d="M181.3,563.4c0,-1.4,0,-2.9,0.1,-4.4c-0.3,0,-0.6,-0.1,-0.9,-0.2c-0.3,0,-0.7,-0.1,-1,-0.2" class="g8_1" />
<path d="M179.5,558.6c0,1.4,-0.1,2.9,-0.1,4.4c0.3,0,0.7,0.2,1,0.2c0.3,0.1,0.8,0.2,1,0.3" class="g8_1" />
<path d="M183.5,564.1c0,-1.5,0,-2.9,0.1,-4.4c-0.3,-0.1,-0.6,-0.2,-0.9,-0.3c-0.3,-0.1,-0.7,-0.2,-1,-0.2" class="g8_1" />
<path d="M181.7,559.2c0,1.4,0,2.9,0,4.3c0.3,0,0.6,0.2,0.9,0.3c0.3,0,0.7,0.2,1,0.3" class="g8_1" />
<path d="M185.8,564.9c0,-1.4,0,-2.9,0,-4.3c-0.1,-0.1,-0.5,-0.2,-0.8,-0.4c-0.2,-0.1,-0.7,-0.2,-1,-0.4" class="g8_1" />
<path d="M184,559.8c-0.1,1.5,-0.1,3,-0.1,4.4c0.3,0.1,0.7,0.3,1,0.4c0.3,0.1,0.7,0.2,1,0.3" class="g8_1" />
<path d="M188.2,566c0,-1.4,0,-2.9,0,-4.3c-0.3,-0.1,-0.6,-0.3,-0.9,-0.5c-0.3,-0.2,-0.7,-0.3,-1,-0.5" class="g8_1" />
<path d="M186.3,560.7c0,1.4,0,2.9,0,4.4c0.3,0.2,0.7,0.3,1,0.4c0.2,0.2,0.6,0.3,0.9,0.5" class="g8_1" />
<path d="M190.4,567.4c0,-1.4,0,-2.9,0,-4.4c-0.2,-0.1,-0.5,-0.3,-0.8,-0.5c-0.3,-0.2,-0.7,-0.4,-1,-0.7" class="g8_1" />
<path d="M188.6,561.8c0,1.5,0,3,0,4.4c0.2,0.1,0.6,0.4,0.9,0.5c0.3,0.2,0.6,0.4,0.9,0.7" class="g8_1" />
<path d="M192.3,569c0,-1.5,0,-2.9,-0.1,-4.5c-0.1,-0.1,-0.3,-0.3,-0.6,-0.5c-0.2,-0.3,-0.5,-0.5,-0.8,-0.7" class="g8_1" />
<path d="M190.8,563.3c0,1.5,0,2.9,0,4.4c0.2,0.1,0.5,0.3,0.7,0.5c0.2,0.3,0.6,0.5,0.8,0.8" class="g8_1" />
<path d="M193.9,570.8c-0.1,-1.4,-0.1,-2.9,-0.1,-4.4c-0.1,-0.1,-0.3,-0.4,-0.5,-0.7c-0.1,-0.2,-0.4,-0.5,-0.7,-0.8" class="g8_1" />
<path d="M192.6,564.9c0.1,1.4,0.1,2.9,0.1,4.4c0.1,0.2,0.4,0.4,0.5,0.7c0.2,0.2,0.5,0.5,0.7,0.8" class="g8_1" />
<path d="M181.3,588.6c0.1,-3,0,-6.2,0.1,-9.4c-0.3,-0.1,-0.7,-0.1,-1,-0.2c-0.3,-0.1,-0.7,-0.1,-1,-0.2" class="g8_1" />
<path d="M179.4,578.8c0,3.1,0.1,6.3,0,9.5c0.3,0.1,0.7,0.1,1,0.2c0.3,0.1,0.7,0.1,0.9,0.2" class="g8_1" />
<path d="M183.5,589.3c0,-3.1,0,-6.3,0,-9.5c-0.2,-0.1,-0.5,-0.2,-0.8,-0.2c-0.3,-0.1,-0.7,-0.2,-1,-0.2" class="g8_1" />
<path d="M181.7,579.4c0,3,0,6.2,0,9.4c0.3,0.1,0.6,0.2,0.9,0.3c0.3,0.1,0.7,0.2,0.9,0.2" class="g8_1" />
<path d="M185.8,590.1c0,-3.1,0,-6.2,0,-9.4c-0.1,-0.1,-0.5,-0.2,-0.8,-0.3c-0.2,-0.2,-0.7,-0.3,-1.1,-0.4" class="g8_1" />
<path d="M183.9,580c0.1,3.1,0.1,6.3,0,9.4c0.3,0.1,0.8,0.3,1,0.4c0.3,0.1,0.7,0.2,0.9,0.4" class="g8_1" />
<path d="M188.2,591.2c0,-3,0,-6.2,0,-9.3c-0.3,-0.2,-0.6,-0.4,-0.9,-0.6c-0.3,-0.1,-0.7,-0.2,-1,-0.4" class="g8_1" />
<path d="M186.3,580.9c0,3.2,0,6.3,0,9.5c0.2,0.1,0.6,0.2,0.9,0.4c0.3,0.2,0.7,0.4,1,0.5" class="g8_1" />
<path d="M190.4,592.6c0,-3.1,0,-6.3,0,-9.5c-0.2,-0.1,-0.6,-0.3,-0.8,-0.5c-0.3,-0.2,-0.7,-0.4,-1,-0.5" class="g8_1" />
<path d="M188.6,582.1c0,3.1,0,6.2,0,9.4c0.2,0.1,0.6,0.3,0.8,0.5c0.3,0.2,0.7,0.4,1,0.6" class="g8_1" />
<path d="M192.2,594.2c0,-3.1,0,-6.3,0.1,-9.5c-0.2,-0.1,-0.5,-0.3,-0.7,-0.5c-0.2,-0.2,-0.5,-0.5,-0.8,-0.8" class="g8_1" />
<path d="M190.8,583.4c0,3.2,0,6.4,0,9.6c0.2,0.2,0.4,0.4,0.7,0.6c0.2,0.2,0.5,0.4,0.8,0.6" class="g8_1" />
<path d="M193.8,596c0,-3.1,0,-6.2,0,-9.4c-0.1,-0.2,-0.4,-0.5,-0.5,-0.7c-0.2,-0.3,-0.5,-0.5,-0.7,-0.8" class="g8_1" />
<path d="M192.6,585.1c0.1,3.2,0.1,6.3,0,9.5c0.2,0.2,0.5,0.4,0.6,0.7c0.2,0.3,0.5,0.5,0.7,0.8" class="g8_1" />
<path d="M170.2,504.5l0.1,7.9" class="g8_1" />
<path d="M167.9,506.9l0,6.9" class="g8_1" />
<path d="M168.4,506.3l0,7.2" class="g8_1" />
<path d="M171,504.2l0,7.8" class="g8_1" />
<path d="M173.5,503.2l0,8.1" class="g8_1" />
<path d="M174.6,503l-0.1,8" class="g8_1" />
<path d="M177.6,502.6l0,8.2" class="g8_1" />
<path d="M178.8,502.6l0,8.2" class="g8_1" />
<path d="M182,503l0.1,8.1" class="g8_1" />
<path d="M183.2,503.4l0,7.9" class="g8_1" />
<path d="M185.5,504.3l0,7.9" class="g8_1" />
<path d="M186.4,504.8l0,7.7" class="g8_1" />
<path d="M188.2,506.8l0.1,6.9" class="g8_1" />
<path d="M188.6,507.3l0,6.7" class="g8_1" />
<path d="M188.9,508.4c0,-3.4,-4.8,-6.2,-10.8,-6.2c-5.9,0,-10.7,2.8,-10.8,6.3" class="g8_1" />
<path d="M194.6,532.1c0,-0.3,0,-0.6,0,-0.9c0,-2.9,-0.3,-5.6,-1,-7.8c-0.8,-2.1,-1.8,-4.1,-3.2,-5.5c0.1,-4,-5.5,-7.2,-12.3,-7.2c-6.8,0,-12.3,3.3,-12.3,7.2c-1.3,1.6,-2.2,3.7,-2.8,5.9c-0.6,2.2,-0.9,4.7,-0.8,7.4" class="g10_1" />
<path d="M161,585.2c0.7,-0.1,0.6,0.7,0.6,0.7c0,1.8,0,3.7,0,5.6c0,0,0,1,-0.9,1.6c0,0,-1,0.6,-1,0.6c0,0,0.1,0,0.1,0c-0.1,0.7,-0.1,1.4,0,2.2c0,1.6,0.1,3.3,0.3,4.7c0.3,1.5,0.6,3,1.1,4.2c0.5,1.4,1.4,2.8,2.8,4.3c1.5,1.4,3.5,2.9,5.9,4.5" class="g10_1" />
<path d="M181.4,559l-1.7,1" class="g8_1" />
<path d="M183.6,559.7l-1.7,1" class="g8_1" />
<path d="M185.8,560.6l-1.6,0.9" class="g8_1" />
<path d="M188.2,561.7l-1.8,1" class="g8_1" />
<path d="M190.4,563l-1.6,1" class="g8_1" />
<path d="M192.2,564.5l-1.2,0.8" class="g8_1" />
<path d="M193.8,566.4l-1,0.6" class="g8_1" />
<path d="M181.3,579.2l-1.7,1" class="g8_1" />
<path d="M183.5,579.8l-1.7,1" class="g8_1" />
<path d="M185.8,580.7l-1.7,1" class="g8_1" />
<path d="M188.2,581.9l-1.8,1" class="g8_1" />
<path d="M190.4,583.1l-1.7,1" class="g8_1" />
<path d="M192.3,584.7l-1.4,0.8" class="g8_1" />
<path d="M193.8,586.6l-1.1,0.6" class="g8_1" />
<path fill-rule="evenodd" d="M252,427l207,0l0,78l-207,0Z" class="g9_1" />
<path fill-rule="evenodd" d="M623.9,445.2l12.2,-3.5l0,-7.7l10.7,-3.1L630,416l-5.7,-1.6L608.6,439l5.7,1.6l3.9,-1.2l0,4.2Z" class="g15_1" />
<path fill-rule="evenodd" d="M618.2,443.6l12.2,-3.5l0,-7.6l10.7,-3.2L624.3,414.4L608.6,439l9.6,-2.9Z" class="g16_1" />
<path d="M624.5,414.5L608.6,439l5.7,1.6l3.9,-1.2l0,4.2l5.7,1.6l12.2,-3.7l0,-7.5l10.7,-3.1L630,416Z" class="g10_1" />
<path d="M609,438.9l9.2,-2.8" class="g8_1" />
<path d="M630.5,432.4l10.6,-3.1l5.7,1.6l-5.7,-1.6L624.5,414.5" class="g8_1" />
<path d="M618.2,443.6l12.2,-3.5l0.1,-7.7l-0.1,7.7l5.7,1.6" class="g8_1" />
<path d="M618,439l0,-3" class="g10_1" />
<path fill-rule="evenodd" d="M155.9,420c1,0,1.9,0.2,1.9,0.5c0,0.3,-0.9,0.6,-1.9,0.6c-1,0,-1.8,-0.3,-1.8,-0.6c0,-0.3,0.8,-0.5,1.8,-0.5Z" class="g17_1" />
<path fill-rule="evenodd" d="M178.2,426.8c1,0,1.8,0.2,1.8,0.5c0,0.3,-0.8,0.6,-1.8,0.6c-1,0,-1.8,-0.3,-1.8,-0.6c0,-0.3,0.8,-0.5,1.8,-0.5Z" class="g17_1" />
<path fill-rule="evenodd" d="M238.4,395.1c1,0,1.9,0.3,1.9,0.6c0,0.3,-0.9,0.5,-1.9,0.5c-1,0,-1.8,-0.2,-1.8,-0.5c0,-0.3,0.8,-0.6,1.8,-0.6Z" class="g17_1" />
<path fill-rule="evenodd" d="M260.7,401.9c1,0,1.8,0.3,1.8,0.6c0,0.3,-0.8,0.5,-1.8,0.5c-1,0,-1.8,-0.2,-1.8,-0.5c0,-0.3,0.8,-0.6,1.8,-0.6Z" class="g17_1" />
<path d="M538.5,637.5l214,0" class="g8_1" />
<path fill-rule="evenodd" d="M569.1,434.2c1.4,0,2.6,0.3,2.6,0.7c0,0.5,-1.2,0.8,-2.6,0.8c-1.4,0,-2.6,-0.3,-2.6,-0.8c0,-0.4,1.2,-0.7,2.6,-0.7Z" class="g13_1" />
<path fill-rule="evenodd" d="M597.3,445.4c1.5,0,2.6,0.4,2.6,0.8c0,0.4,-1.1,0.8,-2.6,0.8c-1.4,0,-2.6,-0.4,-2.6,-0.8c0,-0.4,1.2,-0.8,2.6,-0.8Z" class="g13_1" />
<path fill-rule="evenodd" d="M664.2,406.1c1.5,0,2.6,0.4,2.6,0.8c0,0.4,-1.1,0.8,-2.6,0.8c-1.4,0,-2.6,-0.4,-2.6,-0.8c0,-0.4,1.2,-0.8,2.6,-0.8Z" class="g13_1" />
<path fill-rule="evenodd" d="M692.4,417.2c1.4,0,2.6,0.3,2.6,0.7c0,0.4,-1.2,0.8,-2.6,0.8c-1.4,0,-2.6,-0.4,-2.6,-0.8c0,-0.4,1.2,-0.7,2.6,-0.7Z" class="g13_1" />
<path fill-rule="evenodd" d="M271.7,232.2c0,0,0.7,-0.5,0.9,-0.7c0.4,-0.1,0.8,-0.3,1.2,-0.5c0.3,-0.5,0.6,-0.9,0.9,-1.3c0,0,0.1,-0.1,0,-0.2c0,-0.1,-0.2,-0.1,-0.2,-0.1c-0.2,0.1,-0.5,0.3,-0.7,0.4c-0.2,0.2,-0.3,0.3,-0.5,0.5c-0.1,0.2,-0.3,0.4,-0.4,0.6c-0.4,0.2,-0.9,0.5,-1.2,0.7c0,0.2,0,0.4,0,0.6Z" class="g18_1" />
<path d="M271.7,232.3c0.2,-0.3,0.5,-0.5,0.8,-0.7c0.4,-0.2,0.8,-0.4,1.2,-0.6c0.4,-0.5,0.8,-0.9,1.1,-1.4c0.2,-0.2,0.2,-0.4,0.1,-0.5c0,-0.1,-0.1,-0.1,-0.4,-0.1c-0.6,0,-1.2,0.1,-1.9,0.1c-0.3,0.3,-0.6,0.6,-1,0.8c-0.3,0.2,-0.7,0.4,-1,0.5" class="g10_1" />
<path d="M272.9,230.9c0.2,-0.4,0.4,-0.6,0.7,-0.9c0.2,-0.2,0.6,-0.4,0.9,-0.6" class="g8_1" />
<path d="M272.5,229.7c0.3,0,0.6,-0.1,0.9,-0.2c0.3,-0.1,0.6,-0.3,0.9,-0.5" class="g10_1" />
<path fill-rule="evenodd" d="M271.6,232.3c0,0.1,0,0.2,0,0.3c-1.9,1,-3.7,2.1,-5.6,3.1c-0.1,0.1,-0.3,0.1,-0.5,0.1c-0.1,0,-0.1,0,-0.2,0c-0.1,0,-0.1,0,-0.2,-0.1c-0.3,-0.1,-0.5,-0.3,-0.6,-0.5c-0.2,-0.3,-0.2,-0.5,-0.2,-0.8c0,-0.1,0,-0.3,0,-0.4c0.1,-0.1,0.1,-0.2,0.1,-0.3c1.9,-1,3.7,-2.1,5.5,-3.1c0.1,-0.1,0.2,-0.1,0.3,-0.1c0.1,-0.1,0.2,-0.1,0.4,-0.1c0.1,0.1,0.3,0.1,0.4,0.2c0.2,0.2,0.3,0.4,0.5,0.6c0,0.1,0.1,0.3,0.2,0.5c0,0.2,0,0.4,-0.1,0.6Z" class="g9_1" />
<path d="M264.3,234.6l0,-0.3l0,-0.1l0,-0.1l0.1,-0.1l0,-0.1l0,-0.2" class="g10_1" />
<path d="M264.9,235.6l0.3,0.2" class="g10_1" />
<path d="M264.9,235.6l-0.1,0l-0.1,-0.1l-0.1,-0.2l-0.1,-0.1l-0.1,-0.1l0,-0.2l-0.1,-0.2l0,-0.1" class="g10_1" />
<path d="M264.3,234.6l0,-0.1l0.1,-0.1l0,-0.1l0.1,-0.1l0.1,0l0.1,0l0.1,0l0.1,0.1l0.2,0.1l0.1,0.1l0.1,0.2l0,0.1l0.1,0.2l0,0.1l0,0.2" class="g8_1" />
<path d="M265.2,233.7l0.1,0.1l0.1,0.2l0,0.1l0.1,0.1l0.1,0.2l0.1,0.1l0.2,0.1l0.1,0.1" class="g8_1" />
<path d="M265.9,235.3l0,0.1l0,0.1l0.1,0l0,0.1l0,0.1" class="g8_1" />
<path d="M265.4,235.3l0,0.1l0,0.1l-0.1,0.1l-0.1,0.1l-0.1,0l-0.2,-0.1" class="g8_1" />
<path d="M264.4,233.7l0.1,0.1l0.1,0l0.1,0l0.1,0l0.1,-0.1l0.2,0l0.1,0" class="g8_1" />
<path d="M266,234.7l0,0.1l0,0.1l-0.1,0.1l0,0.2l0,0.1" class="g8_1" />
<path d="M266,235.7l-0.1,0.1l-0.2,0l-0.1,0l-0.1,0l-0.1,0l-0.1,0l-0.1,0" class="g10_1" />
<path d="M264.4,233.7l5.5,-3.2" class="g10_1" />
<path d="M265.2,233.7l5.5,-3.2" class="g8_1" />
<path d="M266,234.7l5.5,-3.2" class="g8_1" />
<path d="M266,235.7l5.5,-3.2" class="g10_1" />
<path d="M269.9,230.5l0.2,0l0.1,0l0.2,0l0,-0.1l0.1,0l0.1,0l0.1,0l0,0.1" class="g10_1" />
<path d="M271.7,232l0,-0.1l0,-0.2l-0.1,-0.2l0,-0.2l-0.2,-0.2l-0.1,-0.2l-0.1,-0.2L271,230.6l-0.1,-0.1" class="g8_1" />
<path d="M271.7,231.9l0,0.1l0,0.1l-0.1,0.2l0,0.1l-0.1,0.1" class="g10_1" />
<path d="M270.7,230.5l0.2,0" class="g10_1" />
<path d="M270.7,230.5l0.2,0.1l0.1,0.1l0.2,0l0,0.1l0.1,0.2l0.1,0.1l0.1,0.1l0,0.1l0,0.2l0.1,0.1l0.1,0.1l0,0.1l0,0.1" class="g10_1" />
<path fill-rule="evenodd" d="M262.7,231c0.6,0.1,1.3,0.3,2,0.5c0.6,0.1,1.3,0.2,2,0.3c0.3,0,0.7,0.3,1,0.5c0.3,0.2,0.7,0.6,0.9,1.1c0.3,0.6,0.5,1.1,0.6,1.6c0,0.5,0,0.9,-0.2,1.3c-0.2,0.3,-0.4,0.8,-0.5,1.1c-0.1,0.4,-0.3,0.8,-0.3,1.2c-0.1,0.6,-0.3,1.2,-0.5,1.6c-0.3,0.4,-0.6,0.8,-0.9,1c-2.1,1.1,-4.2,2.3,-6.2,3.5c-0.2,0.5,-0.3,0.8,-0.5,1.1c-0.2,0.3,-0.4,0.5,-0.7,0.6c-0.5,1.2,-1.3,2.2,-2.2,3.1c-0.9,0.8,-2.1,1.6,-3.4,2.1c-0.1,0.3,-0.5,0.8,-1.1,1.2c-0.7,0.4,-1.6,1,-2.8,1.5c0,0.3,-0.2,0.5,-0.4,0.7c-0.1,0.1,-0.4,0.3,-0.6,0.4c-1.9,1,-3.8,2.1,-5.7,3.2c-0.3,0.5,-0.6,0.9,-1,1.2c-0.3,0.3,-0.8,0.6,-1.2,0.8c-2.6,1.5,-5.2,3,-7.8,4.5c0,0.5,0,0.9,0.1,1.4c-1.2,0.7,-2.4,1.3,-3.5,2c-0.2,-0.1,-0.3,-0.1,-0.5,-0.3c0,-0.6,0,-1.2,0,-1.9c-0.9,0.5,-1.7,1,-2.5,1.5c-0.2,0,-0.3,0.2,-0.4,0.3c0,0.1,-0.1,0.3,-0.1,0.5c0,0.2,0,0.3,0,0.6c-0.6,0.3,-1.2,0.6,-1.8,1c-1.7,0.9,-3.4,1.3,-5.2,1.2c-1.7,-0.1,-3.6,-0.7,-5.4,-1.9c-1.3,-0.7,-2.5,-1.5,-3.8,-2.3c-0.6,-1,-0.9,-2.2,-0.9,-3.5c0,-1.3,0.4,-2.8,0.9,-4.4c0.2,-0.3,0.4,-0.7,0.6,-1c0.2,-0.3,0.4,-0.6,0.6,-0.9c-0.5,-0.2,-1.2,-0.4,-2.1,-0.6c-0.9,-0.2,-2,-0.5,-3.3,-0.7c-2.5,-0.6,-4.6,-1.3,-6.3,-2c-1.7,-0.6,-3.1,-1.3,-4,-2c-0.5,-0.3,-1.1,-0.6,-1.5,-0.6c-0.5,-0.1,-0.9,0,-1.2,0.2c-1.4,0.6,-2.6,0.9,-3.5,1.1c-1,0.1,-1.7,0,-2.3,-0.4c-2.7,-1.5,-5.5,-3.1,-8.2,-4.6c-0.2,-0.2,-0.4,-0.5,-0.6,-0.7c-0.4,-0.2,-0.8,-0.4,-1.1,-0.6c-0.8,-1.1,-1.2,-2.4,-1.3,-3.9c0,-1.5,0.3,-3.3,0.9,-5.3c0.2,-0.3,0.3,-0.7,0.5,-1c0.4,-0.3,0.7,-0.8,0.9,-1.2c0.3,-0.5,0.5,-1.1,0.6,-1.7c0.4,-0.5,0.7,-1,1.1,-1.5c3,-1.7,5.9,-3.4,8.9,-5.1c0.4,0,0.9,-0.1,1.2,-0.4c0.4,-0.2,0.9,-0.6,1.2,-1c1,-0.5,1.9,-1,2.8,-1.6c0.3,-0.2,0.7,-0.3,1,-0.3c0.3,0,0.6,0.1,1,0.3c3,1.6,6,3.2,9,4.9c0.6,0.3,1.1,1,1.5,2c0.4,0.9,0.8,2.2,1,3.8c0.1,0.7,0.2,1.5,0.3,2.2c-0.2,1.3,-0.4,2.4,-0.8,3.4c-0.3,1,-0.7,1.8,-1.1,2.5c2,0.5,3.8,1,5.3,1.5c1.4,0.5,2.7,1,3.5,1.5c0.8,0.3,1.6,0.6,2.3,0.7c0.6,0,1.3,-0.1,1.7,-0.4c0.3,-0.1,0.6,-0.3,0.8,-0.3c0.3,0,0.5,0.1,0.7,0.3c0.4,-0.4,0.8,-0.7,1.1,-0.8c0.4,-0.1,0.7,-0.1,0.9,0.1c0.9,0.5,1.8,1,2.8,1.5c0.6,-0.4,1.2,-0.8,1.9,-1.1c0.5,-0.2,0.9,-0.2,1.2,-0.1c0.3,0.1,0.6,0.3,0.8,0.5c3.6,-2,7.2,-4.1,10.8,-6.2c0.3,-0.1,0.6,-0.2,0.7,-0.2c0.2,-0.1,0.3,-0.3,0.3,-0.4c1.2,-0.7,2.4,-1.4,3.7,-2.1c0.1,-0.1,0.3,-0.2,0.5,-0.2c0.1,0,0.4,0,0.6,0c0.1,-0.2,0.3,-0.4,0.8,-0.7c0.6,-0.2,1.3,-0.5,2.3,-0.8c0.6,-0.2,1.4,-0.4,2.1,-0.5c0.7,0,1.4,0,2.1,0.1c0.3,-0.2,0.7,-0.3,1,-0.3c0.3,0,0.8,0,1.1,0.1c2.1,-1.2,4.2,-2.4,6.3,-3.6c0.2,-0.1,0.5,-0.3,0.7,-0.3c0.3,0,0.6,0,0.8,0.1Z" class="g9_1" />
<path d="M181.9,249.3c0,-0.1,-0.2,-0.2,-0.4,-0.3c-0.2,-0.2,-0.5,-0.4,-0.9,-0.6c-1.1,-0.6,-2.2,-1.3,-3.4,-2c-0.8,-1,-1.3,-2.4,-1.3,-4.2c0,-1.8,0.5,-3.9,1.3,-5.8c0.4,-0.4,0.7,-0.8,1,-1.4c0.3,-0.6,0.5,-1,0.6,-1.6c0.4,-0.5,0.7,-0.9,1.1,-1.4c2.9,-1.7,5.9,-3.4,8.8,-5.1c1.3,0,2.4,-1.4,2.4,-1.4c1,-0.6,1.9,-1.1,2.9,-1.6c0.6,-0.4,1.3,-0.5,1.7,-0.2c3.1,1.6,6.2,3.3,9.3,5" class="g10_1" />
<path d="M187,252.3c-2.7,-1.6,-5.5,-3.2,-8.2,-4.8c0,-0.1,0,-0.1,-0.1,-0.2" class="g10_1" />
<path d="M188.8,237.2l14.4,-8.4" class="g8_1" />
<path d="M203.2,228.8c0.7,-0.4,1.3,-0.4,1.7,-0.2" class="g8_1" />
<path d="M188.8,237.2c-1.3,1.6,-2.2,3.2,-2.9,4.9c-0.7,1.7,-1.1,3.5,-1.1,5.3c0,1.7,0.4,3,1.1,4c0.2,0.3,0.5,0.5,0.8,0.7" class="g8_1" />
<path d="M264.8,231.6c0.6,0,1.2,0.1,1.9,0.2c0.6,0.1,1.4,0.7,2,1.6c0.5,1,0.6,2,0.4,2.6c-0.3,0.6,-0.5,1.1,-0.7,1.7" class="g10_1" />
<path d="M265.3,231.7c0.9,0.3,1.8,1.1,2.4,2.3c0.7,1.2,1,2.5,0.7,3.3" class="g8_1" />
<path d="M263,231.1c0.7,0.2,1.4,0.4,2.1,0.5c0.9,0.4,1.9,1.2,2.6,2.4c0.7,1.3,0.9,2.6,0.7,3.5c-0.2,0.7,-0.3,1.4,-0.5,2" class="g10_1" />
<path d="M254.9,234.8c2.1,-1.2,4.1,-2.4,6.2,-3.6c0.6,-0.3,1.2,-0.3,1.9,-0.1" class="g10_1" />
<path d="M264.3,231.7c0.9,0.6,1.8,1.6,2.5,2.8c0.8,1.3,1.2,2.6,1.2,3.7" class="g8_1" />
<path d="M267.9,239.5c-0.2,0.7,-0.5,1.3,-1.1,1.6c-2,1.2,-4.2,2.4,-6.3,3.6" class="g10_1" />
<path d="M253,235.1c1.8,0.3,3.8,2,5.2,4.4c1.4,2.5,1.8,5,1.2,6.7" class="g8_1" />
<path d="M246,237c2.2,-1.2,5.8,0.9,8.1,4.7c2.2,3.9,2.2,8,0,9.4" class="g8_1" />
<path d="M254.2,251.5c-0.1,0.1,-0.3,0.2,-0.4,0.2" class="g10_1" />
<path d="M245.7,236.7c2.3,-1.4,6.2,0.8,8.6,4.9c2.3,4.1,2.3,8.5,-0.1,9.9" class="g8_1" />
<path d="M240.1,239.6c0.1,0,0.3,-0.2,0.4,-0.3c0.1,-0.1,0.3,-0.2,0.5,-0.3c0.9,-0.5,1.9,-1.1,2.8,-1.6c2.5,-1.4,6.5,0.8,8.9,5.1c2.5,4.2,2.5,8.9,0,10.3c-1,0.5,-1.9,1.1,-2.8,1.6" class="g10_1" />
<path d="M240.5,239.6c0.2,-0.1,0.3,-0.2,0.4,-0.2c2.4,-1.4,6.2,0.8,8.6,4.9c2.1,3.6,2.4,7.6,0.8,9.4" class="g8_1" />
<path d="M257.4,233.3c1.6,-0.9,4.2,0.6,5.8,3.3c1.5,2.8,1.5,5.7,0,6.6" class="g8_1" />
<path d="M241,239c2.4,-1.4,6.4,0.9,8.9,5.1c2.4,4.3,2.4,8.9,0,10.3" class="g8_1" />
<path d="M241.6,254.1c0.6,-0.4,1.3,-0.5,1.8,-0.2c0.6,0.3,0.8,0.9,0.8,1.7" class="g8_1" />
<path d="M244.2,255.6c0,0.8,-0.2,1.8,-0.8,2.7c-0.5,0.9,-1.2,1.6,-1.8,2" class="g10_1" />
<path d="M241.6,260.3l-8.4,4.9" class="g10_1" />
<path d="M233.2,265.2l-3.5,1.9" class="g8_1" />
<path d="M241.6,254.1l-3.6,2.1" class="g8_1" />
<path d="M237.4,256.5l-3.6,2.1" class="g8_1" />
<path d="M233.1,259l-3.1,1.8" class="g8_1" />
<path d="M236.1,262c0.2,0.1,0.5,0,0.8,-0.2c0.7,-0.4,1.5,-0.8,2.3,-1.3c0.4,-0.3,0.8,-0.7,1.1,-1.2c0.6,-0.9,0.6,-1.9,0.3,-2.4" class="g8_1" />
<path d="M240.6,256.9c-0.1,-0.1,-0.2,-0.3,-0.3,-0.3c-0.3,-0.2,-0.7,-0.2,-1.1,0.1c-0.8,0.4,-1.5,0.8,-2.3,1.3c-0.4,0.3,-0.9,0.7,-1.2,1.2c-0.6,1.1,-0.6,2.3,0,2.7c0.1,0.1,0.3,0.1,0.4,0.1" class="g8_1" />
<path d="M236.4,260.8c0.1,0,0.3,0.1,0.5,0.2c0.3,0.2,0.7,0.2,1.1,0c0.4,-0.2,0.7,-0.4,1,-0.6c0.4,-0.2,0.8,-0.7,1.1,-1.2c0.6,-1.1,0.6,-2.2,0,-2.6" class="g8_1" />
<path d="M237.4,257.7c-0.1,0.2,-0.3,0.5,-0.5,0.7c-0.6,1.1,-0.6,2.3,0,2.6" class="g8_1" />
<path d="M235.5,261.7c0.3,0,0.5,-0.1,0.8,-0.2c0.2,-0.2,0.4,-0.3,0.7,-0.4" class="g8_1" />
<path d="M240.1,257.7c0,-0.3,-0.1,-0.5,-0.3,-0.6c-0.3,-0.2,-0.6,-0.1,-0.9,0.1c-0.3,0.1,-0.5,0.3,-0.8,0.4c-0.3,0.2,-0.7,0.5,-0.9,1c-0.5,0.8,-0.5,1.7,0,2c0.1,0,0.2,0.1,0.4,0" class="g8_1" />
<path d="M237.6,260.6c0.1,0,0.3,0,0.5,-0.1" class="g8_1" />
<path d="M238.9,260c0.3,-0.2,0.6,-0.5,0.9,-0.9c0.2,-0.3,0.3,-0.6,0.3,-0.9" class="g8_1" />
<path d="M236.1,258.7c-0.3,0.9,-0.2,1.7,0.3,2.1" class="g8_1" />
<path d="M236.9,259.8c0,0.2,0.1,0.3,0.2,0.3c0.2,0.1,0.5,0.1,0.8,0c0.2,-0.2,0.5,-0.3,0.7,-0.4c0.3,-0.2,0.5,-0.5,0.7,-0.8c0.4,-0.7,0.4,-1.5,0,-1.7c0,0,-0.1,0,-0.2,0" class="g8_1" />
<path d="M240.6,257.5l0.2,0.2l3.5,-2l6.4,-4.7" class="g8_1" />
<path d="M240.7,252.8l-3,1.7" class="g8_1" />
<path d="M240.7,252.8c1.1,-0.3,2,-0.2,2.6,0.3c0.6,0.5,0.9,1.3,0.9,2.6" class="g8_1" />
<path d="M210.3,259.2c0.5,-1.1,1.1,-2,1.7,-2.7c0.5,-0.7,1.1,-1.3,1.6,-1.7c8.7,-5,17.4,-10.1,26.2,-15.1c1.6,-0.2,3.2,0.2,4.8,1.2c1.6,0.9,3.3,2.4,4.9,4.4c1.7,3.9,1.7,7.7,0,9.7c-2.1,1.2,-4.1,2.3,-6.2,3.6" class="g10_1" />
<path d="M249.5,245.3L236.2,253l1.8,3.2" class="g8_1" />
<path d="M237.5,250.1c-1.1,-1.3,-2.2,-2.2,-3.3,-2.9c-1.1,-0.6,-2.2,-1,-3.3,-1.2c-0.2,0,-0.3,-0.1,0,-0.4c3.1,-1.7,6.2,-3.5,9.3,-5.3c0.4,-0.2,0.5,-0.2,0.6,-0.2c1.1,0.2,2.2,0.6,3.3,1.3c1.2,0.6,2.3,1.6,3.5,2.9c0.1,0.1,0.3,0.3,0,0.5c-3.1,1.8,-6.2,3.6,-9.3,5.4c-0.5,0.3,-0.8,-0.1,-0.8,-0.1Z" class="g8_1" />
<path d="M195.9,252.3c-1.2,-0.7,-1.2,-2.8,0,-4.8c0.6,-1,1.3,-1.8,2.1,-2.2c0.3,-0.2,0.7,-0.3,1,-0.3c0.4,0,0.8,0.2,1.2,0.4c2.3,1.1,4.6,2,6.7,2.7c2.1,0.7,4.2,1.3,6.1,1.6c0.5,0.2,1.2,0.2,1.8,0.2c0.7,0,1.5,-0.1,2.2,-0.2c0.9,-0.1,1.7,-0.1,2.3,0c0.6,0.1,1.2,0.4,1.6,0.9" class="g8_1" />
<path d="M211.3,257.5c-0.3,-0.2,-0.8,-0.4,-1.5,-0.6c-0.6,-0.1,-1.4,-0.4,-2.3,-0.6c-2.7,-0.5,-5,-1.2,-7.2,-2c-2.1,-0.8,-3.9,-1.6,-5.4,-2.6" class="g10_1" />
<path d="M220.2,245.9c-0.1,-0.1,-0.2,-0.1,-0.3,-0.2c-0.3,-0.1,-0.6,-0.1,-1,0.1c-0.5,0.3,-1,0.5,-1.6,0.5c-0.7,0,-1.5,-0.2,-2.3,-0.5c-1.5,-0.8,-3.1,-1.5,-4.9,-2c-1.8,-0.6,-3.6,-1.1,-5.6,-1.5c-0.7,-0.2,-1.3,-0.4,-1.6,-0.7c-0.4,-0.2,-0.4,-0.5,-0.4,-0.9" class="g10_1" />
<path d="M178.8,233.4l4.9,2.9" class="g8_1" />
<path d="M177.2,236.4l4.8,2.8" class="g8_1" />
<path d="M183.7,236.3c0.7,0.4,0.9,1.3,0.4,2.1c-0.4,0.8,-1.4,1.2,-2.1,0.8" class="g8_1" />
<path d="M188.8,237.2L180,232.1" class="g8_1" />
<path d="M191.1,225.5c1.8,1,3.6,2,5.4,3.1c0.6,0.3,0.6,1,0,1.4c-0.7,0.4,-1.8,0.4,-2.4,0c-1.8,-1.1,-3.5,-2.1,-5.4,-3.1" class="g8_1" />
<path d="M205,228.7c0.7,0.4,1.3,1.2,1.8,2.5c0.4,1.4,0.8,3.2,1.1,5.5c-0.4,2.3,-0.9,4,-1.6,5.3c-0.1,0.2,-0.2,0.3,-0.3,0.5" class="g10_1" />
<path d="M194.8,251.6c-0.6,-0.2,-1.2,-0.4,-1.7,-0.4c-0.5,0,-1,0.2,-1.5,0.5" class="g10_1" />
<path d="M193.9,251.3c-1.7,0.8,-3.2,1.3,-4.3,1.5c-1.2,0.2,-2.1,0,-2.6,-0.5" class="g10_1" />
<path d="M225.5,263.3c-1.2,0.7,-1.8,2.5,-1.8,4.2c0,1.7,0.6,2.8,1.8,2.1" class="g8_1" />
<path d="M210.3,259.2c-0.8,1.3,-1.1,3,-1.1,4.7c0,1.8,0.3,3,1.1,3.5c1.4,0.8,2.7,1.5,4.2,2.4" class="g10_1" />
<path d="M204.8,231.3c-0.6,1.3,-1.1,2.7,-1.5,4.3c-0.3,1.5,-0.6,3.2,-0.8,4.9" class="g8_1" />
<path d="M188.6,238.2c0.4,0.2,0.7,0.5,1,0.8c0.2,0.2,0.4,0.6,0.4,1c0.4,1.6,0.9,3,1.6,4c0.8,1.1,1.7,1.9,2.7,2.5" class="g8_1" />
<path d="M194.8,251.6c-1.2,-0.6,-1.2,-2.8,0,-4.8c0.6,-1,1.3,-1.7,2.1,-2.1c1.4,-0.9,2.9,-1.7,4.3,-2.6c0.8,-0.4,1.5,-0.5,2.1,-0.2" class="g8_1" />
<path d="M194.5,251.5c-1.1,-0.7,-1.1,-2.8,0,-4.8c0.6,-1,1.3,-1.8,2.1,-2.2c1.4,-0.8,2.9,-1.7,4.4,-2.5c0.7,-0.5,1.5,-0.6,2,-0.2" class="g8_1" />
<path d="M203.3,241.9c0.1,-0.1,0.2,-0.2,0.3,-0.3c0.1,-0.2,0.2,-0.3,0.4,-0.4c0.5,-0.5,1.1,-1.1,1.7,-1.7c0.6,-0.6,1.2,-1.2,1.9,-1.9c0,-0.1,0.1,-0.3,0.2,-0.3c0,-0.1,0,-0.2,0,-0.2" class="g8_1" />
<path d="M235.3,260.8c-3.9,2.2,-7.7,4.5,-11.6,6.7c-1.6,0.7,-3.4,1,-5.1,0.8c-1.8,-0.2,-3.5,-0.9,-5.2,-2c-1.4,-0.8,-2.8,-1.5,-4.2,-2.4" class="g8_1" />
<path d="M225,246.8c-0.9,-0.5,-1.8,-1,-2.7,-1.6c-0.6,-0.3,-0.9,-0.2,-1.4,0.1c-0.2,0.2,-0.5,0.4,-0.7,0.6" class="g10_1" />
<path d="M228.8,246c0,-0.2,-0.1,-0.3,-0.3,-0.4c-0.5,-0.3,-1.2,-0.3,-1.6,0c-0.5,0.3,-1.1,0.6,-1.6,0.9c-0.3,0.2,-0.4,0.3,-0.4,0.5c0,0.4,0,0.8,0,1.3" class="g10_1" />
<path d="M224.9,247c0,0.2,0.1,0.3,0.4,0.4c0.2,0.2,0.4,0.2,0.7,0.2" class="g8_1" />
<path d="M224.8,247.9c-0.1,0.2,-0.1,0.3,0,0.5" class="g8_1" />
<path d="M224.9,247.2c-0.3,0.2,-0.7,0.4,-1,0.6c-0.2,0.1,-0.5,0.3,-0.8,0.3c-0.3,0,-0.6,-0.1,-0.9,-0.2" class="g8_1" />
<path d="M223.5,248c-0.7,-0.2,-1.3,-0.4,-1.9,-0.8c-0.5,-0.4,-1,-0.8,-1.4,-1.3" class="g8_1" />
<path d="M229.8,267.1c0,-0.2,0,-0.4,0,-0.6c0,-0.1,0,-0.1,0,-0.1" class="g8_1" />
<path d="M233.3,258.8l-0.1,-0.2l0,-1.4l-0.5,-0.3l-3.4,2l0,1.9" class="g10_1" />
<path d="M229.3,260.8c0,0,-1.6,-0.9,-1.6,-0.9" class="g8_1" />
<path d="M232.9,258.7l-2.8,1.6" class="g8_1" />
<path d="M236.2,253l1.5,1.5l0.3,1.7" class="g8_1" />
<path d="M233.6,256.3l-8.3,4.8" class="g8_1" />
<path d="M229.5,261.8l-1.9,-1.9" class="g8_1" />
<path d="M229.4,259l0.3,0.2" class="g8_1" />
<path d="M233.6,256.3c0.7,-0.3,1,0,1,0c0,0,0.3,0.2,0.3,0.2" class="g8_1" />
<path d="M234.5,254.5l0,1" class="g8_1" />
<path d="M233.2,257.5c0.6,-0.3,1.2,-0.7,1.8,-1.1c0,0,0.5,-0.1,0.3,-0.7" class="g10_1" />
<path d="M235.3,255.7c0,0,0,-0.1,0,-0.2c-0.3,-0.4,-0.5,-0.8,-0.8,-1.2c0,0,-0.2,-0.6,-0.9,-0.3c-2.9,1.7,-5.8,3.3,-8.7,5.1c-0.1,0,-0.2,0.1,-0.3,0.2" class="g8_1" />
<path d="M224.6,259.3c-0.2,0.3,0,0.8,0,0.8c0.5,0.9,1.1,1.9,1.7,2.9c0,0,0,0.5,0,0.5c0,0.3,0.1,0.4,0.3,0.4" class="g10_1" />
<path d="M226.6,263.9c0.1,0,0.2,-0.1,0.2,-0.1c0.9,-0.5,1.7,-1,2.6,-1.5c0,0,0.4,-0.2,0.4,-0.8c0,-0.2,0,-0.4,0,-0.6c0,-0.1,0,-0.3,0,-0.4c0,-0.4,0,-0.9,0,-1.3c0,0,3.4,-2,3.4,-2" class="g8_1" />
<path d="M229.2,266.3c0,0,0.1,-0.1,0.1,0.1c0,0.6,0,1.3,0,1.9c0.2,0.1,0.3,0.1,0.5,0.2c1.1,-0.6,2.2,-1.3,3.4,-1.9c0,0,0,-1.4,0,-1.4" class="g10_1" />
<path d="M229.5,268.5l0,-1" class="g8_1" />
<path d="M234.4,251.3c0.7,-0.4,1.4,-0.8,2,-1.2c0.1,0.1,0.2,0.2,0.3,0.4c0.2,0.1,0.3,0.2,0.4,0.3" class="g8_1" />
<path d="M237.1,250.8c-0.6,0.4,-1.3,0.8,-2,1.2c-0.1,-0.1,-0.2,-0.3,-0.4,-0.4c-0.1,-0.1,-0.2,-0.2,-0.3,-0.3" class="g8_1" />
<path d="M233.5,250.5c0.7,-0.4,1.4,-0.8,2,-1.2c0.1,0.1,0.3,0.2,0.4,0.3c0.1,0.1,0.3,0.3,0.4,0.4" class="g8_1" />
<path d="M236.3,250c-0.7,0.3,-1.4,0.7,-2,1.1c-0.1,-0.1,-0.3,-0.2,-0.4,-0.3c-0.1,-0.2,-0.3,-0.3,-0.4,-0.4" class="g8_1" />
<path d="M232.6,249.6c0.6,-0.4,1.3,-0.8,1.9,-1.1c0.1,0,0.3,0.2,0.4,0.2c0.1,0.1,0.3,0.3,0.5,0.4" class="g8_1" />
<path d="M235.4,249.1c-0.7,0.4,-1.4,0.8,-2,1.2c-0.1,-0.1,-0.3,-0.2,-0.5,-0.4c-0.1,-0.1,-0.2,-0.2,-0.3,-0.3" class="g8_1" />
<path d="M231.4,248.8c0.7,-0.3,1.3,-0.7,2,-1.1c0.1,0.1,0.3,0.2,0.4,0.2c0.2,0.1,0.4,0.3,0.6,0.4" class="g8_1" />
<path d="M234.4,248.3c-0.7,0.4,-1.4,0.7,-2,1.1c-0.2,0,-0.4,-0.2,-0.5,-0.3c-0.2,-0.1,-0.3,-0.2,-0.5,-0.3" class="g8_1" />
<path d="M230.2,248.2c0.7,-0.4,1.3,-0.8,2,-1.2c0.1,0,0.3,0.2,0.5,0.2c0.1,0.1,0.3,0.2,0.5,0.3" class="g8_1" />
<path d="M233.2,247.5c-0.6,0.4,-1.3,0.8,-2,1.2c-0.1,-0.1,-0.3,-0.2,-0.5,-0.3c-0.1,-0.1,-0.3,-0.2,-0.5,-0.2" class="g8_1" />
<path d="M229,247.7c0.7,-0.3,1.3,-0.7,2,-1.1c0.1,0,0.3,0.1,0.5,0.1c0.1,0,0.3,0.1,0.5,0.2" class="g8_1" />
<path d="M232,246.9c-0.7,0.4,-1.4,0.8,-2,1.2c-0.2,-0.1,-0.3,-0.2,-0.5,-0.2c-0.1,0,-0.3,-0.1,-0.5,-0.2" class="g8_1" />
<path d="M227.7,247.5c0.7,-0.4,1.4,-0.8,2,-1.2c0.1,0,0.3,0.1,0.5,0.1c0.2,0,0.4,0.1,0.5,0.1" class="g8_1" />
<path d="M230.7,246.5c-0.6,0.3,-1.3,0.7,-1.9,1.1c-0.2,0,-0.4,0,-0.5,0c-0.2,0,-0.4,-0.1,-0.6,-0.1" class="g8_1" />
<path d="M222.9,257.9c1.4,-0.8,2.8,-1.6,4.3,-2.5c0.1,0.1,0.2,0.3,0.3,0.4c0.2,0.1,0.3,0.3,0.4,0.4" class="g8_1" />
<path d="M227.9,256.2c-1.5,0.8,-2.9,1.7,-4.4,2.5c-0.1,-0.1,-0.2,-0.3,-0.3,-0.4c-0.1,-0.1,-0.2,-0.2,-0.4,-0.3" class="g8_1" />
<path d="M222,257.1c1.4,-0.8,2.9,-1.6,4.3,-2.5c0.1,0.1,0.3,0.2,0.4,0.3c0.1,0.1,0.2,0.3,0.3,0.4" class="g8_1" />
<path d="M227,255.3c-1.4,0.8,-2.8,1.7,-4.3,2.5c-0.1,-0.1,-0.3,-0.2,-0.4,-0.3c-0.1,-0.2,-0.2,-0.3,-0.3,-0.4" class="g8_1" />
<path d="M221,256.3c1.4,-0.8,2.9,-1.7,4.3,-2.5c0.1,0,0.3,0.2,0.4,0.3c0.1,0,0.3,0.2,0.5,0.3" class="g8_1" />
<path d="M226.2,254.4c-1.5,0.9,-2.9,1.7,-4.4,2.6c-0.1,-0.2,-0.3,-0.3,-0.4,-0.4c-0.1,-0.1,-0.3,-0.2,-0.4,-0.3" class="g8_1" />
<path d="M219.9,255.5c1.4,-0.9,2.8,-1.7,4.3,-2.5c0.1,0.1,0.3,0.2,0.4,0.3c0.2,0.1,0.4,0.2,0.5,0.3" class="g8_1" />
<path d="M225.1,253.6c-1.4,0.8,-2.9,1.7,-4.3,2.5c-0.2,0,-0.3,-0.2,-0.5,-0.3c-0.1,-0.1,-0.3,-0.2,-0.5,-0.3" class="g8_1" />
<path d="M218.7,254.8c1.4,-0.8,2.8,-1.6,4.3,-2.5c0.1,0.1,0.3,0.2,0.5,0.3c0.1,0,0.3,0.2,0.5,0.3" class="g8_1" />
<path d="M224,252.9c-1.4,0.8,-2.9,1.6,-4.3,2.5c-0.2,-0.1,-0.4,-0.2,-0.5,-0.3c-0.2,-0.1,-0.4,-0.2,-0.6,-0.3" class="g8_1" />
<path d="M217.5,254.4c1.4,-0.8,2.8,-1.6,4.3,-2.5c0.1,0,0.3,0.1,0.4,0.2c0.2,0,0.4,0.1,0.6,0.1" class="g8_1" />
<path d="M222.8,252.2c-1.5,0.8,-2.9,1.7,-4.4,2.6c-0.1,-0.1,-0.3,-0.2,-0.5,-0.2c-0.1,0,-0.3,-0.2,-0.5,-0.2" class="g8_1" />
<path d="M216.2,254.2c1.4,-0.8,2.9,-1.7,4.3,-2.5c0.1,0,0.3,0,0.5,0c0.2,0,0.3,0.1,0.5,0.1" class="g8_1" />
<path d="M221.5,251.8c-1.4,0.8,-2.9,1.7,-4.3,2.5c-0.2,0,-0.4,0,-0.5,0c-0.2,0,-0.4,-0.1,-0.6,-0.1" class="g8_1" />
<path d="M264.3,240.8l-3.6,2.1" class="g8_1" />
<path d="M263.9,242.5l-3.2,1.8" class="g8_1" />
<path d="M264,242.1l-3.3,1.9" class="g8_1" />
<path d="M264.3,240.3l-3.6,2.1" class="g8_1" />
<path d="M264.1,238.9l-3.7,2.2" class="g8_1" />
<path d="M263.9,238.4l-3.7,2.1" class="g8_1" />
<path d="M263.3,236.9l-3.8,2.2" class="g8_1" />
<path d="M262.9,236.3l-3.7,2.2" class="g8_1" />
<path d="M261.9,235l-3.7,2.1" class="g8_1" />
<path d="M261.4,234.5l-3.6,2.1" class="g8_1" />
<path d="M260.4,233.7l-3.6,2.1" class="g8_1" />
<path d="M259.9,233.4l-3.5,2.1" class="g8_1" />
<path d="M258.5,233.1l-3.1,1.8" class="g8_1" />
<path d="M258.2,233.1l-3.1,1.8" class="g8_1" />
<path d="M257.6,233.3c1.6,-0.9,4.1,0.5,5.7,3.2c1.6,2.8,1.6,5.7,0,6.7" class="g8_1" />
<path d="M245.2,236.9c0.2,0,0.3,-0.2,0.5,-0.2c1.3,-0.8,2.6,-1.4,3.8,-1.6c1.2,-0.2,2.4,-0.3,3.4,0c1.8,-1.1,4.7,0.6,6.5,3.7c1.8,3.1,1.8,6.5,0,7.5c-0.4,1.1,-1.1,2,-2,2.9c-0.8,0.9,-1.9,1.6,-3.2,2.3" class="g10_1" />
<path d="M229.8,266.4c-0.1,-0.4,-0.5,-0.2,-0.5,-0.2c-0.8,0.5,-1.6,1,-2.5,1.5c0,0,-0.5,0.3,-0.5,0.9c0,0,0,0.6,0,0.6c0,0,0,-0.1,0,-0.1c-0.3,0.2,-0.7,0.4,-1,0.6c-0.8,0.5,-1.6,0.9,-2.3,1.1c-0.8,0.3,-1.5,0.5,-2.2,0.7c-0.7,0.1,-1.6,0,-2.7,-0.2c-1.1,-0.3,-2.3,-0.8,-3.6,-1.5" class="g10_1" />
<path d="M236.5,250.5l0,1" class="g8_1" />
<path d="M235.5,249.5l0,1" class="g8_1" />
<path d="M234.5,248.5l0,1" class="g8_1" />
<path d="M233.5,247.5l0,1" class="g8_1" />
<path d="M232.5,247.5l0,1" class="g8_1" />
<path d="M231.5,246.5l0,1" class="g8_1" />
<path d="M227.5,255.5l0,1" class="g8_1" />
<path d="M226.5,254.5l0,1" class="g8_1" />
<path d="M225.5,253.5l0,1" class="g8_1" />
<path d="M224.5,253.5l0,1" class="g8_1" />
<path d="M222.5,252.5l0,1" class="g8_1" />
<path d="M221.5,251.5l0,1" class="g8_1" />
<path d="M220.5,251.5l0,1" class="g8_1" />
<path d="M305.2,233c0.3,0.2,0.7,0.4,1.1,0.6c0,0.4,0,0.9,0,1.3c-0.4,0.2,-0.8,0.4,-1.1,0.5c-0.3,0.2,-0.6,0.3,-0.9,0.3" class="g8_1" />
<path d="M306.3,233.6c-2.9,1.7,-1.3,2.1,-2.7,2.9c-0.6,0.3,-1.3,0.7,-1.9,1.1c-0.1,0,-0.2,0.1,-0.3,0.1c-0.1,0,-0.3,0.1,-0.4,0.1" class="g8_1" />
<path d="M305.2,233c-2.9,1.6,-0.7,2.9,-3.5,4.6" class="g8_1" />
<path d="M303.4,234c-2.8,1.6,-0.6,2.9,-3.5,4.6c-0.4,0.2,-0.7,0.4,-1.2,0.6c-0.1,0.1,-0.2,0.2,-0.3,0.2c-0.1,0,-0.2,0,-0.3,0" class="g8_1" />
<path d="M304.1,233.8c-0.1,0,-0.3,0.1,-0.4,0.1c-0.1,0,-0.2,0.1,-0.3,0.1c-0.4,0.2,-0.8,0.5,-1.1,0.7c-2.9,1.6,-0.7,2.9,-3.6,4.5" class="g8_1" />
<path d="M300.6,235.6c-2.9,1.7,-0.7,2.9,-3.5,4.6c-0.4,0.2,-0.8,0.5,-1.2,0.7c-0.1,0,-0.3,0.1,-0.3,0.1c-0.1,0,-0.3,0.1,-0.4,0.1" class="g8_1" />
<path d="M301.2,235.5c-0.1,0,-0.3,0.1,-0.4,0.1c0,0,-0.2,0,-0.2,0c-0.4,0.3,-0.8,0.5,-1.2,0.7c-2.9,1.7,-0.7,2.9,-3.5,4.6" class="g8_1" />
<path d="M297.7,237.3c-2.9,1.7,-0.7,2.9,-3.5,4.6c-0.4,0.2,-0.8,0.4,-1.2,0.7c-0.1,0,-0.3,0.1,-0.3,0.1c-0.1,0,-0.3,0,-0.4,0" class="g8_1" />
<path d="M298.3,237.2c-0.1,0,-0.3,0,-0.4,0c0,0,-0.2,0.1,-0.2,0.1c-0.4,0.3,-0.8,0.5,-1.2,0.7c-2.9,1.7,-0.7,2.9,-3.5,4.6" class="g8_1" />
<path d="M294.9,239c-2.9,1.6,-0.7,2.8,-3.5,4.5c-0.4,0.2,-0.8,0.4,-1.2,0.7c-0.1,0,-0.3,0.1,-0.4,0.1c0,0,-0.2,0.1,-0.2,0.1" class="g8_1" />
<path d="M295.5,238.8c-0.1,0,-0.3,0.1,-0.4,0.1c-0.1,0,-0.2,0,-0.2,0.1c-0.4,0.2,-0.8,0.4,-1.2,0.6c-2.8,1.7,-0.7,2.9,-3.5,4.6" class="g8_1" />
<path d="M292,240.6c-2.9,1.7,-0.7,2.9,-3.5,4.6c-0.4,0.2,-0.8,0.4,-1.2,0.7c-0.1,0,-0.3,0.1,-0.4,0.1c0,0,-0.2,0.1,-0.2,0.1" class="g8_1" />
<path d="M292.6,240.5c-0.1,0,-0.3,0,-0.4,0c-0.1,0,-0.2,0.1,-0.2,0.1c-0.4,0.3,-0.8,0.5,-1.2,0.7c-2.8,1.7,-0.7,2.9,-3.5,4.6" class="g8_1" />
<path d="M289,242.3c-2.8,1.7,-0.7,2.9,-3.5,4.6c-4.6,2.7,-9.2,5.3,-13.8,8c-0.4,0.2,-0.9,-0.1,-1.1,-0.6c-0.4,-0.6,-0.4,-1.1,0,-1.3c6.1,-3.5,12.3,-7.1,18.4,-10.7c0,0,0.2,-0.1,0.3,-0.1c0.1,0,0.3,-0.1,0.4,-0.1" class="g8_1" />
<path d="M270.6,253c0.1,0,0.3,0.1,0.4,0.2c0.1,0,0.3,0.2,0.4,0.4c0.2,0.3,0.3,0.6,0.4,0.8c0,0.2,0,0.4,-0.1,0.5" class="g8_1" />
<path d="M158.6,1083.3l0,-199.9c0,0,0.4,-1,1,-1.2" class="g10_1" />
<path d="M159.4,882.2c-0.4,-0.3,-0.8,-0.3,-0.8,-1.1c0,-0.8,0,-24.1,0,-24.1c0,0,0.4,-0.9,1.4,-1.3c1,-0.4,562.3,-170.3,562.3,-170.3" class="g10_1" />
<path d="M159.6,882.2L807.7,686.8" class="g8_1" />
<path d="M178.5,877.5l0,207" class="g8_1" />
<path d="M541.5,1029.1L820.1,942.7" class="g8_1" />
<path d="M265.1,913.3l116.8,49l117.8,49.3l41.8,17.5M179.1,877.3L219,894" class="g8_1" />
<path d="M541.5,1046.5l0,36" class="g8_1" />
<path d="M541.5,1029.5l0,17" class="g8_1" />
<path d="M408.5,172.5l118,0" class="g8_1" />
</svg>