<?xml version="1.0" encoding="UTF-8" standalone="no"?>
<!DOCTYPE svg PUBLIC "-//W3C//DTD SVG 1.1//EN"
"http://www.w3.org/Graphics/SVG/1.1/DTD/svg11.dtd">
<svg viewBox="0 0 935 1210" version="1.1" xmlns="http://www.w3.org/2000/svg" xmlns:xlink="http://www.w3.org/1999/xlink">
<defs>
<style type="text/css"><![CDATA[
.g21_3{
fill: none;
stroke: #000000;
stroke-width: 2;
stroke-linecap: round;
stroke-linejoin: round;
stroke-miterlimit: 2;
stroke-dasharray: 4,6;
}
.g16_3{
fill: #636363;
}
.g17_3{
fill: #D4D4D4;
}
.g11_3{
fill: none;
stroke: #FFFFFF;
stroke-width: 4;
stroke-linecap: round;
stroke-linejoin: round;
stroke-miterlimit: 2;
}
.g2_3{
fill: none;
stroke: #FFFFFF;
stroke-width: 3;
stroke-linecap: round;
stroke-linejoin: miter;
stroke-miterlimit: 2;
}
.g19_3{
fill: none;
stroke: #000000;
stroke-width: 3;
stroke-linecap: round;
stroke-linejoin: round;
stroke-miterlimit: 2;
}
.g13_3{
stroke: #000000;
stroke-width: 1;
stroke-linecap: round;
stroke-linejoin: round;
stroke-miterlimit: 2;
}
.g3_3{
fill: #FFFFFF;
stroke: #000000;
stroke-width: 2;
stroke-linecap: butt;
stroke-linejoin: miter;
stroke-miterlimit: 2;
}
.g1_3{
fill: #B3B3B3;
}
.g7_3{
fill: #636363;
stroke: #000000;
stroke-width: 1;
stroke-linecap: butt;
stroke-linejoin: miter;
stroke-miterlimit: 2;
}
.g10_3{
fill: none;
stroke: #000000;
stroke-width: 2;
stroke-linecap: round;
stroke-linejoin: round;
stroke-miterlimit: 2;
}
.g15_3{
fill: #FFFFFF;
stroke: #000000;
stroke-width: 2;
stroke-linecap: round;
stroke-linejoin: round;
stroke-miterlimit: 2;
}
.g5_3{
fill: none;
stroke: #000000;
stroke-width: 2;
stroke-linecap: butt;
stroke-linejoin: miter;
stroke-miterlimit: 2;
}
.g12_3{
fill: none;
stroke: #000000;
stroke-width: 1;
stroke-linecap: round;
stroke-linejoin: round;
stroke-miterlimit: 2;
stroke-dasharray: 2,3;
}
.g4_3{
fill: none;
stroke: #000000;
stroke-width: 1;
stroke-linecap: butt;
stroke-linejoin: miter;
stroke-miterlimit: 2;
}
.g9_3{
fill: #FFFFFF;
}
.g14_3{
fill: #FFFFFF;
stroke: #000000;
stroke-width: 1;
stroke-linecap: round;
stroke-linejoin: round;
stroke-miterlimit: 2;
}
.g20_3{
fill: none;
stroke: #000000;
stroke-width: 2;
stroke-linecap: round;
stroke-linejoin: round;
stroke-miterlimit: 2;
stroke-dasharray: 4,5;
}
.g6_3{
}
.g18_3{
fill: #FFFFFF;
stroke: #000000;
stroke-width: 3;
stroke-linecap: round;
stroke-linejoin: round;
stroke-miterlimit: 2;
}
.g8_3{
fill: none;
stroke: #000000;
stroke-width: 1;
stroke-linecap: round;
stroke-linejoin: round;
stroke-miterlimit: 2;
}
]]></style>
</defs>
<path fill-rule="evenodd" d="M55,54l824,0l0,1101l-824,0Z" class="g1_3" />
<path d="M55.5,256.5l27,0" class="g2_3" />
<path d="M55.5,430.5l27,0" class="g2_3" />
<path d="M55.5,605.5l27,0" class="g2_3" />
<path d="M55.5,779.5l27,0" class="g2_3" />
<path d="M55.5,953.5l27,0" class="g2_3" />
<path d="M852.5,256.5l28,0" class="g2_3" />
<path d="M852.5,605.5l28,0" class="g2_3" />
<path d="M236.5,82.5l0,-27" class="g2_3" />
<path d="M390.5,82.5l0,-27" class="g2_3" />
<path d="M544.5,82.5l0,-27" class="g2_3" />
<path d="M698.5,82.5l0,-27" class="g2_3" />
<path d="M236.5,1155.5l0,-28" class="g2_3" />
<path d="M390.5,1155.5l0,-28" class="g2_3" />
<path d="M544.5,1155.5l0,-28" class="g2_3" />
<path d="M698.5,1155.5l0,-28" class="g2_3" />
<path d="M852.5,430.5l28,0" class="g2_3" />
<path d="M852.5,779.5l28,0" class="g2_3" />
<path d="M852.5,953.5l28,0" class="g2_3" />
<path fill-rule="evenodd" d="M82,82l770,0l0,1045l-770,0Z" class="g3_3" />
<path d="M184.5,209.5l646,0" class="g4_3" />
<path d="M103.5,278.5l727,0" class="g4_3" />
<path d="M82,1097l770,0" class="g5_3" />
<path d="M466.5,1099.5l0,28" class="g4_3" />
<path d="M468.5,1099.5l0,28" class="g4_3" />
<path d="M272.5,1099.5l0,28" class="g4_3" />
<path d="M274.5,1099.5l0,28" class="g4_3" />
<path d="M664.5,1099.5l0,28" class="g4_3" />
<path d="M666.5,1099.5l0,28" class="g4_3" />
<path fill-rule="evenodd" d="M106,289l37,0l0,38l-37,0Z" class="g6_3" />
<path fill-rule="evenodd" d="M103.5,287.5l38,0l0,37l-38,0Z" class="g7_3" />
<path d="M274.5,1099.5l192,0" class="g8_3" />
<path d="M468.5,1099.5l196,0" class="g8_3" />
<path d="M666.5,1099.5l186,0" class="g8_3" />
<path d="M272.5,1099.5l-190,0" class="g8_3" />
<path fill-rule="evenodd" d="M283.1,247.9c15.3,-8.9,30.8,-17.8,46.2,-26.8c0.6,-0.7,1.1,-1.5,1.7,-2.3c0.3,-0.3,0.3,-0.6,0.3,-0.7c-0.2,-0.2,-0.4,-0.3,-0.7,-0.3c-1,0.1,-2.1,0.2,-3.1,0.3c-15.2,8.8,-30.5,17.6,-45.7,26.5c0.4,1.1,0.8,2.2,1.3,3.3Z" class="g9_3" />
<path d="M271.8,254.4c19.1,-11.1,38.3,-22.2,57.5,-33.3c0.6,-0.7,1.1,-1.5,1.7,-2.3c0.3,-0.3,0.3,-0.6,0.3,-0.7c-0.2,-0.2,-0.4,-0.3,-0.7,-0.3c-1,0.1,-2.1,0.2,-3.1,0.3c-19,11,-38,21.9,-57,33" class="g10_3" />
<path d="M328.4,220.9c0.1,-0.6,0.5,-1.1,0.9,-1.4c0.4,-0.4,1.1,-0.7,1.7,-0.9" class="g8_3" />
<path d="M326.9,219c0.8,0,1.5,-0.1,2.2,-0.3c0.6,-0.2,1.2,-0.5,1.6,-0.8" class="g8_3" />
<path fill-rule="evenodd" d="M287.5,235.9c-0.8,0.5,-1.7,1,-2.6,1.5c-0.4,0.3,-0.8,0.7,-1.1,1.1c-0.3,0.4,-0.6,1,-0.7,1.6c0,0.4,0,0.7,-0.1,0.9c-0.2,0.1,-0.4,0.1,-0.7,0c-0.9,-0.6,-1.8,-1,-2.7,-1.1c-0.9,-0.1,-1.9,0.1,-2.7,0.4c-9.3,5.4,-18.5,10.7,-27.7,16c-2,2,-3.2,4,-3.5,5.9c-0.3,1.9,0.2,3.8,1.5,5.6c1.7,1.9,3.5,3.1,5.3,3.4c1.9,0.3,3.9,-0.2,6.1,-1.5c8.6,-5,17.3,-10,26,-15c0.9,-0.8,1.6,-1.7,2,-2.5c0.4,-0.9,0.6,-1.9,0.6,-2.9c0,-0.4,0.2,-0.7,0.3,-0.8c0.2,-0.1,0.5,0.1,0.8,0.4c0.4,0.2,1,0.5,1.4,0.5c0.5,0,1,-0.1,1.4,-0.3c1,-0.5,2.1,-1.1,3.1,-1.7c0.9,-0.9,1.3,-2.1,1.2,-3.4c0,-1.4,-0.7,-2.9,-1.7,-4.6c-1.1,-1.5,-2.2,-2.6,-3.2,-3.1c-1,-0.6,-2,-0.7,-3,-0.4Z" class="g9_3" />
<path d="M283.2,241c-0.1,-1.5,0.4,-2.8,1.3,-3.3c0.9,-0.5,1.9,-1.1,2.9,-1.7c1.8,-1,4.8,0.7,6.6,3.9c1.8,3.1,1.8,6.5,0,7.6c-0.9,0.5,-1.9,1.1,-2.9,1.6c-1,0.6,-2.3,0.3,-3.6,-0.5" class="g10_3" />
<path d="M286.6,249.9C286.5,248.4,286,246.7,285,245c-0.7,-1.3,-1.6,-2.3,-2.6,-3.1" class="g8_3" />
<path d="M287.2,247.9c0,-1.1,-0.4,-2.4,-1.1,-3.5c-0.6,-1.2,-1.5,-2.1,-2.3,-2.7" class="g8_3" />
<path d="M289.2,248.4c-0.7,-0.1,-1.2,-0.1,-1.5,-0.1c-0.3,0.1,-0.5,0.4,-0.5,0.8c0,1.2,-0.2,2.4,-0.7,3.2c-0.4,0.9,-1,1.7,-1.8,2.2c-9.2,5.3,-18.4,10.6,-27.6,16c-1.2,0.6,-2,0.8,-3.4,0.8c-4.4,0,-8,-3.7,-8,-8.1c0,-2.6,1.4,-5.1,3.4,-6.6c9.2,-5.4,18.4,-10.7,27.6,-16.1c0.7,-0.3,1.7,-0.5,2.5,-0.5c0.9,0.1,2,0.5,3.1,1c0.4,0.3,0.9,0.3,1.2,0.1c0.3,-0.1,0.5,-0.5,0.6,-1.1" class="g10_3" />
<path d="M250.5,256.6c2.1,0.2,4.5,2.1,6.2,5c1.5,2.7,2,5.6,1.4,7.5" class="g8_3" />
<path d="M290.5,249c1.5,-1.1,1.4,-4.1,-0.2,-7c-1.7,-2.8,-4.3,-4.5,-6,-3.8" class="g8_3" />
<path d="M201.6,780C130.4,763.1,118.4,680.7,132.8,619.2C147.2,557.8,214.1,470.1,303.2,490.7" class="g10_3" />
<path d="M198.5,793.1C120.3,774.7,104.1,683.5,120,616.1C135.8,548.7,209.7,457.2,307.5,479.8" class="g10_3" />
<path d="M314.7,545.7l-112,-32" class="g10_3" />
<path d="M188.1,509.7L141.3,496.4" class="g10_3" />
<path d="M328.1,549.3l21.6,6.2L565.5,468.9" class="g10_3" />
<path d="M592,458.4l22.6,-8.7" class="g10_3" />
<path d="M695.6,416.7L828.9,363.6" class="g10_3" />
<path d="M475.9,474.6c12.3,-4.5,28.6,-10.1,38.6,-12.2c10,-2.1,22.8,-4.9,39.3,-5.5c16.5,-0.6,44.4,1.9,55.4,2.9c11,1,18.7,2.2,19.9,2.1" class="g10_3" />
<path d="M480.4,486.3c13.8,-5.8,33.2,-11.5,40,-12.9c6.8,-1.3,27.8,-4.6,45.1,-4.5c17.2,0.2,31.6,2,31.6,2c0,0,28.1,3.7,32,3.2" class="g10_3" />
<path d="M641.1,474.1c2.9,-0.6,5.8,-1.8,8.6,-3.8c2.8,-1.9,5.2,-3.5,5.3,-4.3" class="g10_3" />
<path d="M319.8,483.4c16.2,3.8,34.8,7.1,44.9,8.1c10.1,1,21.7,1.4,30.4,1.2c8.7,-0.2,19.5,-1.5,26.2,-2.6c6.7,-1.1,21.6,-3.5,43.3,-11.3" class="g10_3" />
<path d="M315.8,494.8c16.2,3.8,38.8,7.6,48.9,8.6c10.1,1,21.7,1.4,30.4,1.2c8.7,-0.2,19.5,-1.5,26.2,-2.6c6.7,-1.1,25.6,-3.9,47.3,-11.7" class="g10_3" />
<path d="M324.9,471.3c1.1,-0.5,5.2,-2,5.2,-2.3c0,-0.3,0.2,-1.5,0.2,-1.5" class="g10_3" />
<path d="M295.3,476.6c0.4,-1.1,2.8,-3.8,4.8,-4.8c2,-1,17.6,-7.1,17.6,-7.1c0,0,1.5,-0.6,3,0c1.5,0.6,9.6,2.8,9.6,2.8" class="g10_3" />
<path d="M319.9,480.9c0.2,3.1,-0.5,8.6,-2.3,11.2c-1.8,2.7,-4.5,5.6,-7.7,5.4c-3.3,-0.2,-12.3,-3.3,-12.3,-3.3c0,0,-3.5,-0.8,-4.3,-4.6" class="g10_3" />
<path d="M320,480.3c0.3,-1,1.2,-2,2.3,-2.5c1.1,-0.5,8.3,-4.1,8.3,-4.1m0,0l-11.3,-3.5l-8.2,2.9c-1.8,0.7,-3.8,2.6,-3.6,5.5c0.1,2.8,-0.9,13,-7.2,14.8" class="g10_3" />
<path d="M310.6,475.8l8.4,2.4" class="g8_3" />
<path d="M315.5,474.3c0,-0.8,2.1,-1.5,4.7,-1.5c2.5,0,4.6,0.7,4.6,1.5" class="g10_3" />
<path d="M324.8,474.3c0,0.9,-2.1,1.6,-4.6,1.6c-2.6,0,-4.7,-0.7,-4.7,-1.6" class="g8_3" />
<path d="M315.5,468.8c0,-0.8,2.1,-1.5,4.7,-1.5c2.5,0,4.6,0.7,4.6,1.5" class="g10_3" />
<path d="M324.8,468.8c0,0.9,-2.1,1.6,-4.6,1.6c-2.6,0,-4.7,-0.7,-4.7,-1.6" class="g8_3" />
<path d="M461.6,466.8l-9.4,3.8l9.4,3.9c0,0,3.3,1,3.1,3.5c-0.2,2.5,0.9,11,5.2,13.3c4.3,2.4,6.8,2.7,9.3,1.5c2.6,-1.3,8,-3,8,-3c0,0,4.9,-1.7,4.9,-7" class="g10_3" />
<path d="M456.6,467.7l-3.8,-1.1c0,0,-1.5,-0.9,-0.8,-1.4c0.8,-0.5,9.6,-4.3,9.6,-4.3l21,5.7c0,0,4,1,5.3,3.1" class="g10_3" />
<path d="M461.6,466.8l10.3,2.7c0,0,3.2,1.3,3.1,4.2c-0.1,2.8,0.3,10.3,4.3,13.1c4.1,2.7,7.3,2.5,7.3,2.5" class="g10_3" />
<path d="M457.7,470.8c0,-0.9,2.1,-1.6,4.7,-1.6c2.5,0,4.6,0.7,4.6,1.6" class="g10_3" />
<path d="M467,470.8c0,0.8,-2.1,1.5,-4.6,1.5c-2.6,0,-4.7,-0.7,-4.7,-1.5" class="g8_3" />
<path d="M457.7,465.3c0,-0.9,2.1,-1.6,4.7,-1.6c2.5,0,4.6,0.7,4.6,1.6" class="g10_3" />
<path d="M467,465.3c0,0.8,-2.1,1.5,-4.6,1.5c-2.6,0,-4.7,-0.7,-4.7,-1.5" class="g8_3" />
<path d="M464.7,474.2l6.9,-2.4" class="g8_3" />
<path d="M629.1,452.9c0,-1.6,3.4,-2.4,5.9,-2.4c2.4,0,5.8,0.4,5.8,2.3" class="g8_3" />
<path d="M629,452l0,39" class="g10_3" />
<path d="M640,491l0,-38" class="g10_3" />
<path d="M629.1,455.4c0,-1.5,3.4,-2.4,5.9,-2.4c2.4,0,5.8,0.5,5.8,2.3" class="g8_3" />
<path d="M629.1,458c0,-1.6,3.4,-2.4,5.9,-2.4c2.4,0,5.8,0.5,5.8,2.3" class="g8_3" />
<path d="M629.1,460.6c0,-1.6,3.4,-2.4,5.9,-2.4c2.4,0,5.8,0.5,5.8,2.3" class="g8_3" />
<path d="M629.1,463.2c0,-1.6,3.4,-2.4,5.9,-2.4c2.4,0,5.8,0.4,5.8,2.2" class="g8_3" />
<path d="M629.1,465.7c0,-1.5,3.4,-2.4,5.9,-2.4c2.4,0,5.8,0.5,5.8,2.3" class="g8_3" />
<path d="M629.1,468.3c0,-1.6,3.4,-2.4,5.9,-2.4c2.4,0,5.8,0.5,5.8,2.3" class="g8_3" />
<path d="M629.1,470.8c0,-1.5,3.4,-2.4,5.9,-2.4c2.4,0,5.8,0.5,5.8,2.3" class="g8_3" />
<path d="M629.1,473.4c0,-1.6,3.4,-2.4,5.9,-2.4c2.4,0,5.8,0.5,5.8,2.3" class="g8_3" />
<path d="M629.1,476c0,-1.6,3.4,-2.4,5.9,-2.4c2.4,0,5.8,0.5,5.8,2.3" class="g8_3" />
<path d="M629.1,478.6c0,-1.6,3.4,-2.4,5.9,-2.4c2.4,0,5.8,0.4,5.8,2.2" class="g8_3" />
<path d="M629.1,481.1c0,-1.5,3.4,-2.4,5.9,-2.4c2.4,0,5.8,0.5,5.8,2.3" class="g8_3" />
<path d="M629.1,483.6c0,-1.6,3.4,-2.4,5.9,-2.4c2.4,0,5.8,0.5,5.8,2.3" class="g8_3" />
<path d="M629.1,486.2c0,-1.6,3.4,-2.4,5.9,-2.4c2.4,0,5.8,0.4,5.8,2.2" class="g8_3" />
<path d="M629.1,488.7c0,-1.5,3.4,-2.4,5.9,-2.4c2.4,0,5.8,0.5,5.8,2.3" class="g8_3" />
<path d="M629.1,491.3c0,-1.5,3.4,-2.4,5.9,-2.4c2.4,0,5.8,0.5,5.8,2.3" class="g8_3" />
<path d="M659.2,503.3l0,11.6c0,4.7,-10.9,8.5,-24.3,8.5c-13.3,0,-24.2,-3.8,-24.2,-8.5l0,-11.6" class="g10_3" />
<path d="M610.7,514.9c0,-4.7,10.9,-8.5,24.2,-8.5c13.4,0,24.3,3.8,24.3,8.5" class="g8_3" />
<path d="M610.7,503.3c0,-4.6,10.9,-8.4,24.2,-8.4c13.4,0,24.3,3.8,24.3,8.4" class="g10_3" />
<path d="M617.4,497.1c0,-3.4,7.9,-6.2,17.5,-6.2c9.7,0,17.6,2.8,17.6,6.2" class="g10_3" />
<path d="M656.2,514.9c0,4.1,-9.5,7.5,-21.3,7.5c-11.7,0,-21.2,-3.4,-21.2,-7.5" class="g8_3" />
<path d="M613.7,514.9c0,-4.1,9.5,-7.4,21.2,-7.4c11.8,0,21.3,3.3,21.3,7.4" class="g8_3" />
<path d="M634.5,506.5l0,-12" class="g8_3" />
<path d="M631.5,506.5l0,-12" class="g8_3" />
<path d="M629.5,506.5l0,-12" class="g8_3" />
<path d="M628.5,506.5l0,-11" class="g8_3" />
<path d="M626.5,506.5l0,-11" class="g8_3" />
<path d="M624.5,507.5l0,-12" class="g8_3" />
<path d="M622.5,507.5l0,-12" class="g8_3" />
<path d="M621.5,507.5l0,-11" class="g8_3" />
<path d="M620.5,508.5l0,-12" class="g8_3" />
<path d="M618.5,508.5l0,-12" class="g8_3" />
<path d="M617.5,509.5l0,-12" class="g8_3" />
<path d="M616.5,509.5l0,-12" class="g8_3" />
<path d="M614.5,510.5l0,-12" class="g8_3" />
<path d="M613.5,510.5l0,-11" class="g8_3" />
<path d="M611.5,512.5l0,-11" class="g8_3" />
<path d="M636.5,506.5l0,-12" class="g8_3" />
<path d="M638.5,506.5l0,-12" class="g8_3" />
<path d="M640.5,506.5l0,-11" class="g8_3" />
<path d="M642.5,506.5l0,-11" class="g8_3" />
<path d="M644.5,506.5l0,-11" class="g8_3" />
<path d="M645.5,507.5l0,-12" class="g8_3" />
<path d="M647.5,507.5l0,-11" class="g8_3" />
<path d="M648.5,507.5l0,-11" class="g8_3" />
<path d="M649.5,508.5l0,-12" class="g8_3" />
<path d="M651.5,508.5l0,-12" class="g8_3" />
<path d="M652.5,509.5l0,-12" class="g8_3" />
<path d="M654.5,509.5l0,-11" class="g8_3" />
<path d="M655.5,510.5l0,-12" class="g8_3" />
<path d="M656.5,510.5l0,-11" class="g8_3" />
<path d="M657.5,511.5l0,-11" class="g8_3" />
<path d="M658.5,512.5l0,-12" class="g8_3" />
<path d="M690.5,428.7c0,-1.6,3.5,-2.4,5.9,-2.4c2.5,0,5.9,0.5,5.9,2.3" class="g8_3" />
<path d="M690,428l0,39" class="g10_3" />
<path d="M702,467l0,-39" class="g10_3" />
<path d="M690.5,431.3c0,-1.6,3.5,-2.4,5.9,-2.4c2.5,0,5.9,0.4,5.9,2.2" class="g8_3" />
<path d="M690.5,433.8c0,-1.5,3.5,-2.4,5.9,-2.4c2.5,0,5.9,0.5,5.9,2.3" class="g8_3" />
<path d="M690.5,436.4c0,-1.6,3.5,-2.4,5.9,-2.4c2.5,0,5.9,0.5,5.9,2.3" class="g8_3" />
<path d="M690.5,439c0,-1.6,3.5,-2.4,5.9,-2.4c2.5,0,5.9,0.5,5.9,2.3" class="g8_3" />
<path d="M690.5,441.6c0,-1.6,3.5,-2.4,5.9,-2.4c2.5,0,5.9,0.4,5.9,2.2" class="g8_3" />
<path d="M690.5,444.1c0,-1.6,3.5,-2.4,5.9,-2.4c2.5,0,5.9,0.5,5.9,2.3" class="g8_3" />
<path d="M690.5,446.7c0,-1.6,3.5,-2.4,5.9,-2.4c2.5,0,5.9,0.4,5.9,2.2" class="g8_3" />
<path d="M690.5,449.2c0,-1.5,3.5,-2.4,5.9,-2.4c2.5,0,5.9,0.5,5.9,2.3" class="g8_3" />
<path d="M690.5,451.8c0,-1.5,3.5,-2.4,5.9,-2.4c2.5,0,5.9,0.5,5.9,2.3" class="g8_3" />
<path d="M690.5,454.4c0,-1.6,3.5,-2.4,5.9,-2.4c2.5,0,5.9,0.5,5.9,2.3" class="g8_3" />
<path d="M690.5,457c0,-1.6,3.5,-2.4,5.9,-2.4c2.5,0,5.9,0.4,5.9,2.2" class="g8_3" />
<path d="M690.5,459.4c0,-1.5,3.5,-2.4,5.9,-2.4c2.5,0,5.9,0.5,5.9,2.3" class="g8_3" />
<path d="M690.5,462c0,-1.6,3.5,-2.4,5.9,-2.4c2.5,0,5.9,0.5,5.9,2.3" class="g8_3" />
<path d="M690.5,464.6c0,-1.6,3.5,-2.4,5.9,-2.4c2.5,0,5.9,0.4,5.9,2.2" class="g8_3" />
<path d="M690.5,467.2c0,-1.6,3.5,-2.4,5.9,-2.4c2.5,0,5.9,0.4,5.9,2.2" class="g8_3" />
<path d="M720.6,479.2l0,11.5c0,4.7,-10.8,8.5,-24.2,8.5c-13.4,0,-24.2,-3.8,-24.2,-8.5l0,-11.5" class="g10_3" />
<path d="M672.2,490.7c0,-4.7,10.8,-8.5,24.2,-8.5c13.4,0,24.2,3.8,24.2,8.5" class="g8_3" />
<path d="M672.2,479.2c0,-4.7,10.8,-8.5,24.2,-8.5c13.4,0,24.2,3.8,24.2,8.5" class="g10_3" />
<path d="M678.9,472.9c0,-3.4,7.8,-6.1,17.5,-6.1c9.7,0,17.6,2.7,17.6,6.1" class="g10_3" />
<path d="M717.6,490.7c0,4.2,-9.5,7.5,-21.2,7.5c-11.7,0,-21.2,-3.3,-21.2,-7.5" class="g8_3" />
<path d="M675.2,490.7c0,-4.1,9.5,-7.4,21.2,-7.4c11.7,0,21.2,3.3,21.2,7.4" class="g8_3" />
<path d="M695.5,482.5l0,-12" class="g8_3" />
<path d="M693.5,482.5l0,-12" class="g8_3" />
<path d="M691.5,482.5l0,-12" class="g8_3" />
<path d="M689.5,482.5l0,-12" class="g8_3" />
<path d="M687.5,482.5l0,-11" class="g8_3" />
<path d="M685.5,483.5l0,-12" class="g8_3" />
<path d="M684.5,483.5l0,-12" class="g8_3" />
<path d="M682.5,483.5l0,-11" class="g8_3" />
<path d="M681.5,484.5l0,-12" class="g8_3" />
<path d="M679.5,484.5l0,-12" class="g8_3" />
<path d="M678.5,485.5l0,-12" class="g8_3" />
<path d="M677.5,485.5l0,-12" class="g8_3" />
<path d="M675.5,486.5l0,-12" class="g8_3" />
<path d="M674.5,486.5l0,-11" class="g8_3" />
<path d="M672.5,488.5l0,-11" class="g8_3" />
<path d="M697.5,482.5l0,-12" class="g8_3" />
<path d="M699.5,482.5l0,-12" class="g8_3" />
<path d="M701.5,482.5l0,-12" class="g8_3" />
<path d="M703.5,482.5l0,-12" class="g8_3" />
<path d="M705.5,482.5l0,-11" class="g8_3" />
<path d="M707.5,483.5l0,-12" class="g8_3" />
<path d="M708.5,483.5l0,-12" class="g8_3" />
<path d="M710.5,483.5l0,-11" class="g8_3" />
<path d="M711.5,484.5l0,-12" class="g8_3" />
<path d="M712.5,484.5l0,-12" class="g8_3" />
<path d="M714.5,484.5l0,-11" class="g8_3" />
<path d="M715.5,485.5l0,-12" class="g8_3" />
<path d="M716.5,486.5l0,-12" class="g8_3" />
<path d="M717.5,486.5l0,-11" class="g8_3" />
<path d="M718.5,487.5l0,-12" class="g8_3" />
<path d="M719.5,488.5l0,-12" class="g8_3" />
<path d="M628.1,458.4l-11,-3.3c0,0,-1.9,-1.1,-1.9,-2.8c0,-1.6,-0.1,-4,-0.1,-4c0,0,0.4,-1.2,2.1,-1.8c1.8,-0.7,72.3,-29,72.3,-29c0,0,5,-1.6,11.4,-0.1c6.3,1.4,37.1,10.7,37.1,10.7c0,0,2.4,1.2,2.6,-1.7c0.2,-2.8,-0.2,-9.4,-0.2,-9.4l4.4,1.4l0.2,10.8c0,0,0.1,3.3,-4.6,5.2c-4.6,1.9,-4.2,1.6,-4.2,1.6" class="g10_3" />
<path d="M739,426l0,-27" class="g10_3" />
<path d="M715,420c1.3,-1.3,2.7,-6,2.6,-10.5" class="g10_3" />
<path d="M735.5,426.5l0,-25" class="g8_3" />
<path d="M617.1,452.1L690,422.9c0,0,3.8,-2,10.6,-0.1c6.7,1.8,37,10.6,37,10.6c0,0,3.6,1,4.8,-0.1" class="g8_3" />
<path d="M672.2,481.5c-5,2.2,-7.1,3.4,-7.9,3.7c-0.9,0.2,-1.3,0.5,-5.5,-0.6c-4.2,-1.2,-4.9,-2.2,-5.3,-5.6c-0.3,-3.4,-1,-10.6,-1,-10.6l18,-6.8c0,0,1.9,-0.5,1.9,-3.2c0,-2.7,0.1,-4.9,0.1,-4.9" class="g10_3" />
<path d="M641.8,462l13.2,4" class="g10_3" />
<path d="M672.5,453.5c0,0,-0.7,-1.2,-2,-0.6c-1.2,0.6,-5.5,2.5,-5.5,2.5" class="g10_3" />
<path d="M703.6,440.1l4.2,-2c0,0,3.6,-0.3,5.1,0.1c1.5,0.5,8.2,2.4,8.2,2.4" class="g10_3" />
<path d="M717.8,442.3l14.8,-5.9c0,0,2.4,-0.5,4.6,0.4c2.3,1,2.5,1.9,2.5,3.1c0,1.1,0,8.1,0,8.1c0,0,-0.9,6.8,-5.7,9.1c-4.8,2.3,-23.1,9.2,-23.1,9.2" class="g10_3" />
<path d="M707.3,439.4c1.4,1.4,1.7,2.7,1.7,4.9c0,2.2,0.2,18.9,0.2,18.9c0,0,0.1,1.8,1.5,3.2c1,1,3,1.5,4.4,1.8c3.4,0.6,3.6,1.6,3.6,1.6c0,0,1.1,4.1,-0.7,4.6" class="g10_3" />
<path d="M672.4,458.4c-0.1,6.4,-0.1,17.4,-0.1,17.4l0,2.7" class="g10_3" />
<path d="M671.9,478c0,0,-9.6,4.6,-11.3,5c-1.6,0.4,-5.1,0.8,-5.6,-0.1" class="g8_3" />
<path d="M710.9,463.1l19,-7.6c0,0,4.9,-2.1,5.3,-9.4c0.5,-7.4,0.3,-8.5,0.3,-8.5" class="g8_3" />
<path d="M703.6,440.1c0.9,1.2,1.1,1.9,1.3,3.6C705,445.5,705,463,705,463c0,0,-0.4,3.7,1.2,4.8" class="g8_3" />
<path d="M664.1,456.5l6.9,2.4" class="g8_3" />
<path d="M196.2,778.6c1.3,-1.5,3,-2.1,4.8,-1.9c1.8,0.2,19.2,2.3,19.2,2.3c0,0,3.5,0.1,5.2,-0.1c1.6,-0.3,5.4,-0.5,8.8,0.5c3.3,1,32.4,9.1,32.4,9.1c0,0,1.7,0.4,1.7,2.3c0,1.9,-0.1,12.7,-0.1,12.7c0,0,-0.1,1.1,-1.3,2.3c-1.2,1.2,-4.6,4.2,-4.6,4.2c0,0,-0.9,0.5,-0.9,2.2c0,1.8,-1.1,11.9,-1.3,13.4c-0.2,1.4,-0.9,2,-2.2,2.6c-1.4,0.6,-6.7,2.7,-6.7,2.7c0,0,-1.3,0.4,-3.3,-0.3C246,830,222.2,823.5,222.2,823.5c0,0,-1.8,0.1,-2.5,-3.5c-0.7,-3.6,-2,-12.8,-2,-12.8c0,0,-0.5,-1.6,-2.1,-2.3c-1.6,-0.6,-18.1,-7.6,-18.9,-8.1c-0.9,-0.5,-3.5,-0.5,-4.2,-5.3" class="g10_3" />
<path d="M221.7,821.6l9.5,-3.2" class="g8_3" />
<path d="M233.9,818.4l24.9,7.4" class="g8_3" />
<path d="M232.8,816.5l1,-10.3" class="g8_3" />
<path d="M236.3,804.1l23.9,6.7" class="g8_3" />
<path d="M240.2,796l27.3,7.8" class="g8_3" />
<path d="M240.2,783.4L240,793.5" class="g8_3" />
<path d="M218.4,799.5c4.3,-2.9,5.4,-7.8,5.6,-10.6c0.2,-2.9,-0.4,-7.2,-3.6,-8.1c-3.1,-0.9,11.4,-0.7,11.4,-0.7c0,0,2.6,-0.7,13.3,2.3" class="g8_3" />
<path d="M240.2,796c-1.2,-0.3,-3.1,-0.4,-4.8,-0.2L223.3,797c-2.5,0.5,-3.6,1.3,-5,2.6" class="g8_3" />
<path d="M236.5,804.1c0,0,-3.3,-0.7,-5.3,-1.4l-0.4,-0.2l-7.4,-3.6c0,0,-3.6,-0.7,-5.1,0.7" class="g8_3" />
<path d="M207.7,802.1c0,2.2,1.4,3.3,4.1,4.5c2.6,1.2,3.8,1.5,6.1,1.4" class="g10_3" />
<path d="M192.9,793.2c0.9,0.9,5.7,3.3,8.5,0.7c2.8,-2.6,4,-4.3,4.2,-8.6c0.3,-4.4,-1.3,-7.3,-5.1,-7.8" class="g8_3" />
<path d="M200.4,779.4c2.9,0.8,4.2,4,3,8.4c-1.5,5.5,-5.6,5.6,-6.7,5.3" class="g8_3" />
<path d="M231.2,818.4c0.9,-0.3,1.9,-0.3,3,0.1" class="g8_3" />
<path d="M261.5,824.4l16.2,4.5c0,0,3.5,0.6,4.4,-3.2c0.9,-3.8,-1,-4.8,-2.5,-5.3c-1.5,-0.4,-17.8,-4.9,-17.8,-4.9" class="g10_3" />
<path d="M269.6,804.2l9.1,2.4l2,-1.1l1.7,-3.1l0,-3.4l-1.2,-2.8l-12,-3.6" class="g10_3" />
<path d="M262.5,811l2.9,0.7l2,-1.1l1.8,-3.1l-0.1,-3.4" class="g10_3" />
<path d="M320,526l0,-50" class="g11_3" />
<path d="M462,522l0,-49" class="g11_3" />
<path d="M316.8,546.3l0.1,-10.1l3.2,-7.1l3.6,6.6l0,10.7" class="g10_3" />
<path d="M320.1,546.6c4.1,0,7.5,1.6,7.5,3.4c0,1.9,-3.4,4.9,-7.5,4.9c-4.2,0,-7.5,-3,-7.5,-4.9c0,-1.8,3.3,-3.4,7.5,-3.4Z" class="g10_3" />
<path d="M322.5,553.6c0,-0.6,0.4,-1.1,1.1,-1.6l-1,-0.6c-0.7,1.2,-3.8,1.6,-5.6,0.2l-0.6,0.6c0.9,0.6,0.7,0.6,0.9,1.3" class="g8_3" />
<path d="M316.7,544.6c0,-0.9,1.6,-1.6,3.5,-1.6c1.9,0,3.5,0.7,3.5,1.6" class="g8_3" />
<path d="M316.7,541.8c0,-0.8,1.6,-1.5,3.5,-1.5c1.9,0,3.5,0.7,3.5,1.5" class="g8_3" />
<path d="M316.7,539.4c0,-0.8,1.6,-1.5,3.5,-1.5c1.9,0,3.5,0.7,3.5,1.5" class="g8_3" />
<path d="M316.7,536.7c0,-0.8,1.6,-1.5,3.5,-1.5c1.9,0,3.5,0.7,3.5,1.5" class="g8_3" />
<path d="M320.5,526.5l0,-51" class="g12_3" />
<path d="M462.5,522.5l0,-50" class="g12_3" />
<path fill-rule="evenodd" d="M107.5,339.5l177,0l0,75l-177,0Z" class="g13_3" />
<path fill-rule="evenodd" d="M104.5,336.5l178,0l0,75l-178,0Z" class="g14_3" />
<path d="M207.1,356.6l4.7,18.1" class="g8_3" />
<path d="M226.1,356.6l4.8,18.1" class="g8_3" />
<path d="M216.6,356.6l4.8,18.1" class="g8_3" />
<path d="M245.6,358.2l3.9,15" class="g8_3" />
<path d="M235.6,356.6l4.7,17.9" class="g8_3" />
<path d="M255.6,360.3l2.6,9.9" class="g8_3" />
<path d="M218.6,359.7l3.6,11.8l1.1,0" class="g8_3" />
<path d="M219.3,371.5l-3.5,-11.8l-1.2,0" class="g8_3" />
<path d="M209.1,359.7l3.5,11.8l1.3,0" class="g8_3" />
<path d="M209.8,371.5l-3.5,-11.8l-1.2,0" class="g8_3" />
<path d="M228.2,359.7l3.5,11.8l1.2,0" class="g8_3" />
<path d="M228.8,371.5l-3.5,-11.8l-1.2,0" class="g8_3" />
<path d="M237.8,360.1l3.2,10.8l1.4,-0.2" class="g8_3" />
<path d="M238.2,371.2l-3.4,-11.5l-1.2,0" class="g8_3" />
<path d="M247.6,361.2l2.5,8.3l1.3,0" class="g8_3" />
<path d="M247.4,370.1l-2.7,-9.3l-1.3,-0.2" class="g8_3" />
<path d="M257.7,363.2l1.3,4.4l1.2,-0.3" class="g8_3" />
<path d="M256.4,368.4l-1.7,-5.9l-1.3,-0.4" class="g8_3" />
<path d="M204.3,371.5l5.5,0l2,3.2l2.1,-3.2l5.4,0l2.1,3.2l1.9,-3.2l5.5,0" class="g10_3" />
<path d="M228.8,371.6c0.7,1,1.4,2,2.1,3.1c0.6,-1,1.3,-2,2,-3.1c1.7,-0.1,3.5,-0.3,5.3,-0.4c0.7,1,1.4,2.2,2.1,3.3c0.7,-1.2,1.4,-2.5,2.1,-3.8c1.6,-0.2,3.3,-0.3,5.1,-0.5c0.6,1,1.3,1.9,2,3c0.6,-1.2,1.2,-2.4,1.9,-3.7c1.7,-0.3,3.3,-0.6,5,-1c0.6,0.6,1.2,1.2,1.8,1.9c0.7,-1,1.3,-2.1,2,-3.1c0.8,-0.3,1.6,-0.6,2.3,-0.8c0.6,-0.2,1.2,-0.6,1.6,-0.8c-1.1,-0.6,-2.3,-1.2,-3.4,-1.6c-1.1,-0.4,-2.1,-0.7,-3.1,-1" class="g10_3" />
<path d="M199.6,359.7l5.5,0l2,-3.1l2,3.1l5.5,0l2,-3.1l2,3.1l5.5,0" class="g10_3" />
<path d="M224.1,359.7l2,-3.1l2.1,3.1l5.4,0l2,-3.1l2.2,3.5l5.6,0.5l2.2,-2.4l2,2.9l5.8,1l2.2,-1.9l2.1,2.9" class="g10_3" />
<path d="M197.6,356.6l4.7,18.1" class="g8_3" />
<path d="M199.6,359.7l3.5,11.8l1.2,0" class="g8_3" />
<path d="M200.3,371.5l-3.5,-11.8l-1.3,0" class="g8_3" />
<path fill-rule="evenodd" d="M164.2,365.2c0,10.7,-8.7,19.5,-19.5,19.5c-10.7,0,-19.5,-8.8,-19.5,-19.5c0,-10.8,8.8,-19.5,19.5,-19.5c10.8,0,19.5,8.7,19.5,19.5Z" class="g15_3" />
<path fill-rule="evenodd" d="M194.1,364.7c0.1,-4.1,1.1,-7.9,2.7,-11.2c1.6,-3.3,4,-6.3,7.1,-8.9c0.6,0,1.3,0,2,0c0,13.4,0,26.8,0,40.1c-0.7,0,-1.3,0,-2,0c-3.1,-2.5,-5.5,-5.5,-7.1,-8.7c-1.6,-3.3,-2.6,-7.1,-2.7,-11.3Z" class="g15_3" />
<path d="M203.5,347.5l0,34" class="g8_3" />
<path fill-rule="evenodd" d="M155.4,366.9l0,0.1l0,0.1l0,0.1l-0.1,0l0,0.2l-0.1,0.2l-0.1,0l0,0.1l-0.1,0.1l0,0.1l-0.1,0l-0.1,0.1l-0.1,0l0,0.1l-0.1,0.1l-0.2,0l-0.1,0l-0.1,0.1l-0.1,0l-0.2,0l-6.3,0l0,6.4l0,0.1l0,0.1l0,0.1l-0.1,0l0,0.2l-0.1,0.1l0,0.1l-0.1,0l0,0.1l0,0.1l-0.1,0.1l-0.1,0l-0.1,0.1l-0.1,0.1l-0.1,0.1l-0.2,0l-0.1,0l-0.1,0.1l-0.1,0l-0.2,0l-3.1,0l-0.2,0l-0.1,0l0,-0.1l-0.1,0l-0.2,0l-0.1,0l0,-0.1l-0.1,0l-0.1,-0.1L142,375.7l-0.2,-0.1l0,-0.1l0,-0.1l-0.1,-0.1l0,-0.1L141.6,375l-0.1,-0.1l0,-0.1l0,-0.1l0,-6.4l-6.3,0l-0.2,0l-0.1,-0.1l-0.1,0l-0.1,0l-0.2,0l0,-0.1l-0.1,0L134.3,368l-0.1,-0.1l-0.1,0L134,367.8l0,-0.1l0,-0.1l-0.1,0l0,-0.2l-0.1,-0.2l-0.1,-0.1l0,-0.1l0,-0.1l0,-3.2l0,-0.1l0,-0.1l0.1,-0.1l0.1,-0.2l0,-0.2l0.1,0l0,-0.1l0,-0.1l0.1,-0.1l0.1,0l0.1,-0.1l0.1,-0.1l0.1,0l0,-0.1l0.2,0l0.1,0l0.1,0l0.1,-0.1l0.2,0l6.3,0l0,-6.4l0,-0.1l0,-0.1l0.1,-0.1l0,-0.1l0.1,-0.1l0,-0.1l0.1,-0.1l0,-0.1l0,-0.1l0.2,-0.1l0.1,-0.1l0.1,-0.1l0.1,0l0,-0.1l0.1,0l0.2,0l0.1,0l0,-0.1l0.1,0l0.2,0l3.1,0l0.2,0l0.1,0l0.1,0.1l0.1,0l0.2,0l0.1,0.1l0.1,0.1l0.1,0.1l0.1,0l0.1,0.1l0,0.1l0,0.1l0.1,0l0,0.1l0.1,0.1l0,0.1l0.1,0.1l0,0.1l0,0.1l0,0.1l0,6.4l6.3,0l0.2,0l0.1,0l0.1,0.1l0.1,0l0.2,0l0.1,0.1l0,0.1l0.1,0l0.1,0.1l0.1,0l0,0.1l0.1,0.1l0,0.1l0.1,0l0.1,0.2l0,0.2l0.1,0l0,0.1l0,0.1l0,0.1Z" class="g14_3" />
<path d="M570.8,546.6c-7.1,-2.6,-17.3,-8.1,-18.1,-14.9c-0.8,-6.8,7.8,-14.5,13.4,-16.9" class="g10_3" />
<path fill-rule="evenodd" d="M570.8,546.6l15.1,-5.9l0.1,-6.4c0,0,-19.3,-5.5,-19.3,-9.8c0,-4.4,5.4,-6.5,7.2,-7.3c1.8,-0.8,11.2,2.7,11.2,2.7l4.5,-10.6l0,-6.4l-31.3,3.3l0,6.2c0,0,0.2,0.3,-0.5,1.4c-0.7,1.2,-4.1,4.2,-4.4,6.6c-0.2,2.5,-1.6,7.6,-0.7,11.3c1,3.6,2.5,7.8,18.1,14.9Z" class="g16_3" />
<path fill-rule="evenodd" d="M571.1,546.7l14.8,-6c-0.7,0.3,-12.3,-3.7,-14,-5.3c-0.8,-0.8,-4.7,-2.6,-5.8,-6.2c-0.4,-1.4,0.1,-2.9,0.9,-4.6c1.7,-4,4.8,-5.6,6.6,-6.4c1.8,-0.8,11.7,2.5,11.7,2.5l4.6,-11.3l-31.3,3.1c0,0,7.5,2.3,6.2,3c-1.4,0.6,-8.8,5.6,-10.6,10c-1.9,4.4,-2.2,2.6,-1.2,6.3c0.9,3.6,2.5,7.8,18.1,14.9Z" class="g17_3" />
<path d="M558.3,506.2l0,6.5l8.2,2.2" class="g10_3" />
<path d="M573.9,517.2l11.2,2.7l4.5,-10.6l0,-6.4l-31.3,3.3" class="g10_3" />
<path d="M558.3,512.7l31.3,-3.4" class="g8_3" />
<path d="M571.1,546.7l14.8,-6l0.1,-6.4c0,0,-16.7,-3.9,-19.6,-10.5" class="g10_3" />
<path d="M573.9,517.2c-5.1,2.1,-8.4,5.9,-8.1,10.2" class="g10_3" />
<path d="M559.3,512.9c-4.1,3.5,-6.3,7.1,-6.7,11c-0.3,3.8,0,7.1,0,7.1c0,0,0.2,8.9,18.5,15.7" class="g10_3" />
<path d="M565.8,527.4c-0.2,5.2,8,10.7,20.1,13.3" class="g8_3" />
<path d="M566.5,514.9c-6,2,-14.1,9.9,-13.9,16.1" class="g8_3" />
<path fill-rule="evenodd" d="M771.1,499.4l-0.1,7.9l-31.1,3.4l-0.1,-6.6l4.8,-10.7l10.8,2.9l4,-2.1l2.7,-3.1L762,487.9l-3.5,-3L753.1,482l-4.4,-1.6l-4.8,-1.2l0,-6.7l14.8,-5.7l8.8,4.2l5.3,4l3.6,5l0.6,4.3l0,4.2l-0.7,4.1l-2.1,3.6Z" class="g16_3" />
<path d="M743.9,479.2l0,-6.7l14.8,-5.7" class="g10_3" />
<path d="M739.9,510.7l-0.1,-6.6l4.8,-10.7l10.8,2.9c0,0,5.8,-1.5,7.5,-7.1" class="g10_3" />
<path d="M745.2,499.9l-0.6,-6.5" class="g8_3" />
<path d="M755.5,502.4l-0.1,-6.1" class="g8_3" />
<path fill-rule="evenodd" d="M772,498.6l-8.9,6.1l7.9,2.7l-31.1,3.3l5.3,-10.8l10.3,2.5l3.2,-1.4l3,-2.3l1.6,-2.4l0.8,-2.8L764,491.4l-2,-3.5l-3.5,-3L753.1,482l-4.4,-1.6l-4.8,-1.2l14.8,-5.8l6,2.5l5.1,2.9l4.6,4.1l1.9,2.9l0.7,3.4l-0.6,2.7l-2.2,4.3Z" class="g17_3" />
<path d="M764.1,492.6c0.1,-5.5,-9.3,-11.1,-20.2,-13.4" class="g10_3" />
<path d="M758.7,473.4c10.8,3.8,17.8,9.4,18.3,15.1" class="g8_3" />
<path d="M743.9,479.2l14.8,-5.8l0,-6.6" class="g8_3" />
<path d="M763.1,504.7c6.3,-3,13.8,-9.1,13.9,-15.5c0.1,-6.4,-0.1,-7,-0.1,-7c0,0,0.4,-8.3,-18.2,-15.4" class="g10_3" />
<path d="M739.9,510.7l5.3,-10.8l10.3,2.5c0,0,8.4,-2.1,8.6,-9.8" class="g8_3" />
<path d="M739.9,510.7L771,507.3l0.2,-6.3" class="g10_3" />
<path d="M763.1,504.7l7.9,2.6" class="g8_3" />
<path fill-rule="evenodd" d="M620,750.6c112.3,0,203.4,65.4,203.4,146.1c0,80.8,-91.1,146.2,-203.4,146.2c-112.4,0,-203.5,-65.4,-203.5,-146.2C416.5,816,507.6,750.6,620,750.6Z" class="g1_3" />
<path fill-rule="evenodd" d="M620,757.1c107.3,0,194.3,62.5,194.3,139.6c0,77.2,-87,139.7,-194.3,139.7c-107.4,0,-194.4,-62.5,-194.4,-139.7c0,-77.1,87,-139.6,194.4,-139.6Z" class="g18_3" />
<path d="M684.5,967.7c0.8,0,1.2,0.8,1.2,1.7c0,0.8,-0.1,17.2,-0.1,17.2c0,0,0.1,6.1,6.6,6c6.6,0,9,0,9,0l0,-4.6c0,0,-8.7,0,-9.4,0c-0.7,0.1,-1.6,-0.6,-1.6,-1.6c0,-1,0,-16.7,0,-17.5c0,-0.8,-0.4,-1.3,-0.4,-1.3l-41.1,0.1l-0.1,-4.5l46,0c0,0,2.1,-0.3,2.1,-1.5c0,-1.2,0,-8.9,0,-8.9l4.3,-0.2l0.1,9.4c0,0,-0.1,5.7,-5.7,5.6c-5.6,0,-5.6,0,-5.6,0" class="g10_3" />
<path d="M656,963.2l0,-17.4l9.5,0l0,17.4" class="g10_3" />
<path d="M655.9,967.7l0,21l-8.2,0l0,4.3c0,0,-0.1,1.2,-1,1.4" class="g10_3" />
<path d="M665.6,967.7l0,21l8.2,0l0,4.3c0,0,0.1,1.2,1,1.4" class="g10_3" />
<path d="M655,988l10,0" class="g10_3" />
<path d="M641,994l39,0l0,9l-39,0Z" class="g10_3" />
<path d="M645.8,1004.3c6.8,4.8,19.2,7,30.7,-0.4" class="g10_3" />
<path d="M643.4,994.5c0,-0.2,0,9.3,0,9.3" class="g8_3" />
<path d="M645,994.5c0,-0.2,0,9.3,0,9.3" class="g8_3" />
<path d="M647.2,994.5c0,-0.2,0,9.3,0,9.3" class="g8_3" />
<path d="M649.6,994.5c0,-0.2,0,9.3,0,9.3" class="g8_3" />
<path d="M651.9,994.5c0,-0.2,0,9.3,0,9.3" class="g8_3" />
<path d="M654.4,994.5c0,-0.2,0,9.3,0,9.3" class="g8_3" />
<path d="M656.5,994.5c0,-0.2,0,9.3,0,9.3" class="g8_3" />
<path d="M658.6,994.5c0,-0.2,0,9.3,0,9.3" class="g8_3" />
<path d="M661,994.5c0,-0.2,0,9.3,0,9.3" class="g8_3" />
<path d="M663.3,994.5c0,-0.2,0,9.3,0,9.3" class="g8_3" />
<path d="M665.8,994.5c0,-0.2,0,9.3,0,9.3" class="g8_3" />
<path d="M668.2,994.5c0,-0.2,0,9.3,0,9.3" class="g8_3" />
<path d="M670.2,994.5c0,-0.2,0,9.3,0,9.3" class="g8_3" />
<path d="M672,994.5c0,-0.2,0,9.3,0,9.3" class="g8_3" />
<path d="M673.8,994.5c0,-0.2,0,9.3,0,9.3" class="g8_3" />
<path d="M675.6,994.5c0,-0.2,0,9.3,0,9.3" class="g8_3" />
<path d="M677.2,994.5c0,-0.2,0,9.3,0,9.3" class="g8_3" />
<path d="M678.5,994.5c0,-0.2,0,9.3,0,9.3" class="g8_3" />
<path d="M640,907.1l0,-4.7l41.4,0c0,0,8.8,0.3,9.8,-9.2" class="g10_3" />
<path d="M681.8,907.1c4,-0.2,8,-2.6,9.4,-4.3" class="g10_3" />
<path d="M691.2,963.2l0,-87.7c0,0,-0.3,-9.8,-11.4,-9.8c-11.1,0,-86.4,0,-86.4,0l0,-4.4l86.5,0c0,0,15.7,0,15.7,14.4c0,14.4,0,87.2,0,87.2" class="g10_3" />
<path d="M695,967l0,18l-4,0l0,-18" class="g10_3" />
<path d="M676.9,796.4c3.1,0,4.3,5.1,4.3,5.1c0,0,0,55.4,0,57.5c-0.1,2.1,-1.8,2.2,-1.8,2.2c0,0,-101.6,0.1,-103.4,0c-1.9,-0.1,-2.4,-1.6,-2.4,-1.6l0,-63.2Z" class="g10_3" />
<path d="M681.2,837.3l3.6,0l1.8,2.1l0,20.9l-5.9,0" class="g10_3" />
<path d="M655.9,986.7l9.7,-1.6" class="g8_3" />
<path d="M655.9,984.8l9.7,-1.6" class="g8_3" />
<path d="M655.9,982.9l9.7,-1.6" class="g8_3" />
<path d="M655.9,981.1l9.7,-1.6" class="g8_3" />
<path d="M655.9,979.2l9.7,-1.6" class="g8_3" />
<path d="M655.9,977.3l9.7,-1.6" class="g8_3" />
<path d="M655.9,975.4l9.7,-1.7" class="g8_3" />
<path d="M655.9,973.5l9.7,-1.7" class="g8_3" />
<path d="M655.9,971.6l9.7,-1.6" class="g8_3" />
<path d="M655.9,969.9l9.7,-1.7" class="g8_3" />
<path d="M655.9,962.4l9.7,-1.6" class="g8_3" />
<path d="M655.9,960.5l9.7,-1.6" class="g8_3" />
<path d="M655.9,958.6l9.7,-1.6" class="g8_3" />
<path d="M655.9,956.7l9.7,-1.7" class="g8_3" />
<path d="M655.9,954.8l9.7,-1.7" class="g8_3" />
<path d="M655.9,952.9l9.7,-1.6" class="g8_3" />
<path d="M655.9,951l9.8,-1.6" class="g8_3" />
<path d="M655.9,949.2l9.8,-1.6" class="g8_3" />
<path d="M655.9,947.4l9.8,-1.6" class="g8_3" />
<path fill-rule="evenodd" d="M427.3,907.1l262.3,0l0,37.8l-250.8,0l-4.4,-9.6l-2.9,-8l-1.9,-6.7L428.2,914Z" class="g16_3" />
<path d="M426.6,907.1l261.3,0c0,0,2.3,0.6,2.3,2.2c0,1.5,-0.1,33.9,-0.1,33.9c0,0,0.4,2.3,-2.2,2.3c-2.6,0,-249.4,0,-249.4,0" class="g10_3" />
<path d="M687,843.9c2.3,0,8.8,0.2,8.8,0.2" class="g19_3" />
<path d="M695.8,844.1c7.9,-0.2,22.7,5.8,22.7,21.4c0,15.6,0,151,0,151" class="g19_3" />
<path d="M687,852.9c2.3,0,9,0.3,9,0.3" class="g19_3" />
<path d="M696,853.2c7.8,-0.2,13.2,4.9,13.2,16.1c0,11.1,0,150.9,0,150.9" class="g19_3" />
<path d="M415,907l-100,0" class="g20_3" />
<path d="M424,946l-109,0" class="g21_3" />
<path d="M333.1,905.4l-7,-13.9l14,0ZM332,892.2l2.2,0l0,0.1l0,0.1l0,0.1l-0.1,0l0,0.1l-0.1,0l0,0.1l-0.1,0l0,0.1l-0.1,0l-0.1,0l0,0.1l-0.1,0l-0.1,0l-0.1,0.1l-0.1,0l-0.1,0l-0.1,0l-0.1,0l-0.1,0l-0.1,0l-0.1,-0.1l-0.1,0l-0.1,0l0,-0.1l-0.1,0l-0.1,0l0,-0.1l-0.1,0l-0.1,-0.1l0,-0.1l-0.1,0l0,-0.1l0,-0.1l0,-0.1Zm2.2,-23.5l0,23.5l-2.2,0l0,-23.5Zm0,0l-2.2,0l0,-0.1l0,-0.1l0,-0.1l0.1,0l0,-0.1l0.1,0l0,-0.1l0.1,0l0.1,-0.1l0.1,0l0.1,-0.1l0.1,0l0.1,0l0.1,0l0.1,-0.1l0.1,0l0.1,0l0.1,0.1l0.1,0l0.1,0l0.1,0l0.1,0.1l0.1,0l0.1,0.1l0.1,0l0,0.1l0.1,0l0,0.1l0.1,0.1l0,0.1l0,0.1Z" class="g6_3" />
<path d="M333.1,948.4l7,14l-14,0ZM332,961.7l0,0l0,-0.1l0,-0.1l0,-0.1l0.1,0l0,-0.1l0.1,0l0,-0.1l0.1,0l0.1,-0.1l0.1,0l0.1,-0.1l0.1,0l0.1,0l0.1,0l0.1,0l0.1,0l0.1,0l0.1,0l0.1,0l0.1,0l0.1,0l0.1,0.1l0.1,0l0.1,0.1l0.1,0l0,0.1l0.1,0l0,0.1l0.1,0l0,0.1l0,0.1l0,0.1Zm2.2,21l-2.2,0l0,-21l2.2,0Zm0,0l0,0.1l0,0.1l0,0.1l-0.1,0l0,0.1l-0.1,0.1l-0.1,0l0,0.1l-0.1,0l-0.1,0.1l-0.1,0l-0.1,0l-0.1,0.1l-0.1,0l-0.1,0l-0.1,0l-0.1,0l-0.1,0l-0.1,0l-0.1,-0.1l-0.1,0l-0.1,0l-0.1,-0.1l-0.1,0l0,-0.1l-0.1,0l-0.1,0l0,-0.1L332,983l0,-0.1l0,-0.1l0,-0.1Z" class="g6_3" />
<path d="M673.5,487.5l0,-11" class="g8_3" />
<path d="M612.5,511.5l0,-11" class="g8_3" />
<path d="M458.8,541.5l0.1,-10.1l3.2,-7.1l3.6,6.6l0,10.7" class="g10_3" />
<path d="M462.1,541.8c4.1,0,7.5,1.6,7.5,3.4c0,1.9,-3.4,4.9,-7.5,4.9c-4.2,0,-7.5,-3,-7.5,-4.9c0,-1.8,3.3,-3.4,7.5,-3.4Z" class="g10_3" />
<path d="M464.5,548.8c0,-0.6,0.4,-1.1,1.1,-1.6l-1,-0.6c-0.7,1.2,-3.8,1.6,-5.6,0.2l-0.6,0.6c0.8,0.6,0.7,0.6,0.9,1.3" class="g8_3" />
<path d="M458.7,539.8c0,-0.9,1.6,-1.6,3.5,-1.6c1.9,0,3.5,0.7,3.5,1.6" class="g8_3" />
<path d="M458.7,537c0,-0.8,1.6,-1.5,3.5,-1.5c1.9,0,3.5,0.7,3.5,1.5" class="g8_3" />
<path d="M458.7,534.6c0,-0.8,1.6,-1.5,3.5,-1.5c1.9,0,3.5,0.7,3.5,1.5" class="g8_3" />
<path d="M458.7,531.9c0,-0.8,1.6,-1.5,3.5,-1.5c1.9,0,3.5,0.7,3.5,1.5" class="g8_3" />
<path d="M254.4,256.7l24.9,-14.5" class="g8_3" />
<path d="M256.8,258.1L281,243.7" class="g8_3" />
<path d="M259.4,263.1l24.5,-14.8" class="g8_3" />
<path d="M259.9,265.9L284.4,251" class="g8_3" />
<path d="M256.8,258.1c-1,0.6,-3.9,-0.1,-2.4,-1.4" class="g8_3" />
<path d="M259.4,263.1c-1.4,0.9,-1.2,3.5,0.5,2.8" class="g8_3" />
<path d="M284.4,251c1.4,-0.7,1.7,-4.1,-0.5,-2.7" class="g8_3" />
<path d="M281,243.7c1.4,-0.8,0,-2.5,-1.7,-1.5" class="g8_3" />
<path d="M223,223.6l17.9,10.8" class="g10_3" />
<path d="M220.1,225.4L238,236.1" class="g8_3" />
<path d="M218.7,229.2l17.9,10.7" class="g8_3" />
<path d="M219.2,230.8L238,242" class="g10_3" />
<path d="M151.4,267l60.9,-36.3c3.3,-2,4.7,-1.2,6.9,0.1" class="g10_3" />
<path d="M152.7,264.7L212.5,229c2.7,-1.6,4.6,-0.7,6.2,0.2" class="g8_3" />
<path d="M151.2,261.1l60.9,-36.3c2.8,-1.6,5.3,-1,8,0.6" class="g8_3" />
<path d="M148.5,259.3l59.7,-35.7c6.5,-3.8,9.9,-2.8,14.8,0" class="g10_3" />
<path d="M236.7,239.8c0.6,-0.4,1.9,-2.1,1.3,-3.7" class="g8_3" />
<path d="M238,236.1c0.9,0.5,2.7,-0.6,2.9,-1.7" class="g8_3" />
<path d="M236.6,239.9c0.9,0.1,1.8,0.9,1.4,2.1" class="g8_3" />
<path d="M238,242c0.3,-0.6,1.8,-2.1,2.9,-1.7" class="g10_3" />
<path d="M240.9,240.3c-0.4,-1,0.5,-3.7,1.5,-3.9" class="g10_3" />
<path d="M240.9,234.4c0,0.7,0.2,1.8,1.5,2" class="g10_3" />
<path d="M152.7,264.7c-0.6,-0.4,-1.9,-2.1,-1.3,-3.7" class="g8_3" />
<path d="M151.4,261c-0.9,0.5,-2.7,-0.6,-2.9,-1.7" class="g8_3" />
<path d="M152.7,264.7c-0.8,0.2,-1.7,1.1,-1.3,2.3" class="g8_3" />
<path d="M151.4,267c-0.3,-0.7,-1.8,-2.1,-2.9,-1.7" class="g10_3" />
<path d="M148.5,265.3c0.4,-1.1,-0.5,-3.8,-1.4,-3.9" class="g10_3" />
<path d="M148.5,259.3c0,0.7,-0.2,1.8,-1.4,2.1" class="g10_3" />
<path d="M408.5,169.5l118,0" class="g8_3" />
</svg>