<?xml version="1.0" encoding="UTF-8" standalone="no"?>
<!DOCTYPE svg PUBLIC "-//W3C//DTD SVG 1.1//EN"
"http://www.w3.org/Graphics/SVG/1.1/DTD/svg11.dtd">
<svg version="1.1" xmlns="http://www.w3.org/2000/svg" xmlns:xlink="http://www.w3.org/1999/xlink">
<defs>
<style type="text/css"><![CDATA[
.g2_17{
fill: none;
stroke: #231F20;
stroke-width: 1;
stroke-linecap: butt;
stroke-linejoin: miter;
stroke-miterlimit: 4;
}
.g1_17{
fill: #040503;
}
]]></style>
</defs>
<path d="M124.1,942.2l-11.3,0c-0.7,0,-1.3,-0.6,-1.3,-1.3l0,-20.9c0,-0.7,0.6,-1.3,1.3,-1.3l20.9,0c0.7,0,1.3,0.6,1.3,1.3l0,20.9c0,0.7,-0.6,1.3,-1.3,1.3l-6,0l0,-9.1l3.1,0l0.4,-3.5l-3.5,0l0,-2.3c0,-1,0.3,-1.7,1.8,-1.7l1.8,0l0,-3.2c-0.3,0,-1.4,-0.1,-2.7,-0.1c-2.7,0,-4.5,1.6,-4.5,4.7l0,2.6l-3.1,0l0,3.5l3.1,0Z" class="g1_17" />
<path d="M170.3,940.3l-4.8,0l0,-6.9c0,-1.8,-0.7,-3,-2.4,-3c-1.2,0,-1.9,0.8,-2.2,1.6c-0.2,0.3,-0.2,0.7,-0.2,1.1l0,7.2l-4.7,0c0,0,0.1,-12.2,0,-13.3l4.7,0l0,2.1c0.3,-1,1.8,-2.3,4.2,-2.3c3,0,5.4,2,5.4,6.1Zm-19,-15l-0.1,0c-1.5,0,-2.5,-1,-2.5,-2.3c0,-1.3,1.1,-2.3,2.6,-2.3c1.6,0,2.5,1,2.5,2.3c0,1.3,-0.9,2.3,-2.5,2.3m-2,1.7l4.2,0l0,13.3l-4.2,0l0,-13.3Z" class="g1_17" />
<path d="M206.4,923c-0.9,0.4,-1.8,0.7,-2.8,0.8c1,-0.6,1.8,-1.6,2.1,-2.7c-0.9,0.5,-1.9,0.9,-3,1.2c-0.9,-1,-2.2,-1.6,-3.5,-1.6c-2.7,0,-4.9,2.2,-4.9,4.9c0,0.4,0.1,0.8,0.2,1.2c-4,-0.2,-7.6,-2.2,-10,-5.2c-0.4,0.7,-0.6,1.6,-0.6,2.5c0,1.7,0.8,3.2,2.1,4.1c-0.8,0,-1.5,-0.3,-2.2,-0.6c0,2.4,1.7,4.4,3.9,4.9c-0.4,0.1,-0.8,0.2,-1.3,0.2c-0.3,0,-0.6,-0.1,-0.9,-0.1c0.6,1.9,2.4,3.4,4.5,3.4c-1.6,1.3,-3.7,2.1,-5.9,2.1c-0.4,0,-0.8,0,-1.2,-0.1c2.1,1.4,4.7,2.3,7.4,2.3c8.8,0,13.7,-7.6,13.7,-14.1c0,-0.2,0,-0.4,0,-0.6c0.9,-0.7,1.7,-1.6,2.4,-2.6Z" class="g1_17" />
<path d="M227.9,933.5l0,-6.6l6.3,3.3Zm13.9,-7.7c0,0,-0.2,-1.7,-0.9,-2.4c-0.9,-0.9,-1.9,-0.9,-2.4,-1c-3.2,-0.2,-8.2,-0.2,-8.2,-0.2c0,0,-4.9,0,-8.2,0.2c-0.4,0.1,-1.4,0.1,-2.3,1c-0.7,0.7,-1,2.4,-1,2.4c0,0,-0.2,1.9,-0.2,3.8l0,1.8c0,1.9,0.2,3.8,0.2,3.8c0,0,0.3,1.6,1,2.3c0.9,1,2,1,2.5,1.1c1.9,0.1,8,0.2,8,0.2c0,0,5,0,8.2,-0.3c0.5,0,1.5,0,2.4,-1c0.7,-0.7,0.9,-2.3,0.9,-2.3c0,0,0.3,-1.9,0.3,-3.8l0,-1.8c0,-1.9,-0.3,-3.8,-0.3,-3.8Z" class="g1_17" />
<path d="M880.5,569.5l-770,0" class="g2_17" />
<path d="M880.5,884.5l-770,0" class="g2_17" />
</svg>