<?xml version="1.0" encoding="UTF-8" standalone="no"?>
<!DOCTYPE svg PUBLIC "-//W3C//DTD SVG 1.1//EN"
"http://www.w3.org/Graphics/SVG/1.1/DTD/svg11.dtd">
<svg version="1.1" xmlns="http://www.w3.org/2000/svg" xmlns:xlink="http://www.w3.org/1999/xlink">
<defs>
<clipPath id="c0_2"><path d="M36.5,627.5l0,-26l101,0l0,26Z" /></clipPath>
<style type="text/css"><![CDATA[
.g2_2{
fill: #231F20;
}
.g1_2{
fill: none;
stroke: #646669;
stroke-width: 1;
stroke-linecap: butt;
stroke-linejoin: miter;
stroke-miterlimit: 4;
}
]]></style>
</defs>
<image x="51" y="87" width="337" height="153" xlink:href="img/1.png" />
<path d="M39.5,91.5l359,0" class="g1_2" />
<image x="51" y="246" width="336" height="173" xlink:href="img/2.png" />
<path d="M39.5,255.5l359,0" class="g1_2" />
<g clip-path="url(#c0_2)">
<path d="M63.1,617.8c-2.1,3.6,-5.9,6.1,-10.9,7.4c4.6,-1.6,7,-4,8.3,-6.2c2.3,-3.8,2,-8,0.7,-10.5c-2.7,-5.1,-10.9,-5.6,-20.1,-4.9c10.5,-2.3,18.7,-0.9,21.9,4c2,3,2,6.8,0.1,10.2m-6.5,3.4c2.1,-2.8,2.8,-6.4,1.8,-9.9c-1.1,-4.1,-5.6,-6.5,-13.2,-7.2c8.8,-0.2,13.6,1.3,15.3,4.7c1.2,2.2,1.5,6.3,-0.6,9.8c-1.1,1.8,-2.9,3.7,-6.1,5.2c1.1,-0.7,2,-1.6,2.8,-2.6m7.1,-14c-3.9,-5.8,-14.3,-7,-27.1,-3.2c0,0.1,-0.1,0.1,-0.1,0.1c-0.1,0,-0.1,0.1,-0.1,0.1l0,0.1l0,0.1c0,0.1,0,0.1,0,0.1c0,0,0,0.1,0,0.1c0,0,0.1,0,0.1,0c0,0.1,0,0.1,0,0.1c0.1,0,0.1,0,0.1,0l0.1,0l0.1,0c8.5,-0.3,19.1,0.5,20.9,6.8c1,3.3,0.3,6.6,-1.7,9.3c-2,2.5,-5,4.1,-8.9,4.9c-1.7,0.3,-3.6,0.4,-5.7,0.4c-0.2,0,-0.3,0.1,-0.3,0.3c-0.1,0,-0.1,0.1,-0.1,0.1c0,0,0,0.1,0,0.1c0.1,0,0.1,0,0.1,0c0,0.1,0,0.1,0,0.1l0,0.1c0.1,0,0.1,0,0.1,0l0.1,0c0,0.1,0,0.1,0,0.1c0.1,0,0.1,0,0.1,0c0.9,0,1.7,0.1,2.5,0.1c9.3,0,16.6,-3.2,19.8,-8.8c2.1,-3.7,2.1,-7.8,0,-11Z" class="g2_2" />
</g>
<path d="M36.9,627.1c-0.2,0,-0.4,-0.2,-0.4,-0.4l0,-20.5c0,-0.2,0.2,-0.4,0.4,-0.4c0.2,0,0.3,0.2,0.3,0.4l0,20.5c0,0.2,-0.1,0.4,-0.3,0.4Z" class="g2_2" />
<path d="M38.3,627.1c-0.2,0,-0.4,-0.2,-0.4,-0.4l0,-20.5c0,-0.2,0.2,-0.4,0.4,-0.4c0.2,0,0.4,0.2,0.4,0.4l0,20.5c0,0.2,-0.2,0.4,-0.4,0.4Z" class="g2_2" />
<path d="M39.7,627.1c-0.2,0,-0.3,-0.2,-0.3,-0.4l0,-20.5c0,-0.2,0.1,-0.4,0.3,-0.4c0.2,0,0.4,0.2,0.4,0.4l0,20.5c0,0.2,-0.2,0.4,-0.4,0.4Z" class="g2_2" />
<path d="M76.6,620.1c3.1,0,5.4,-2.3,5.4,-5.5c0,-3.1,-2.3,-5.4,-5.4,-5.4l-2.9,0l0,10.9ZM71.5,607.5c0,-0.2,0.2,-0.4,0.4,-0.4l4.9,0c4.2,0,7.6,3.4,7.6,7.5c0,4.2,-3.4,7.6,-7.6,7.6l-4.9,0c-0.2,0,-0.4,-0.2,-0.4,-0.4Z" class="g2_2" />
<path d="M86.1,607.5c0,-0.2,0.1,-0.4,0.4,-0.4l8.6,0c0.2,0,0.4,0.2,0.4,0.4l0,1.2c0,0.3,-0.2,0.5,-0.4,0.5l-6.8,0l0,4.3l5.7,0c0.2,0,0.4,0.2,0.4,0.4l0,1.2c0,0.3,-0.2,0.5,-0.4,0.5l-5.7,0l0,4.6l6.8,0c0.2,0,0.4,0.2,0.4,0.4l0,1.2c0,0.2,-0.2,0.4,-0.4,0.4l-8.6,0c-0.3,0,-0.4,-0.2,-0.4,-0.4Z" class="g2_2" />
<path d="M98,607.6c0,-0.2,0.2,-0.5,0.5,-0.5l1.3,0c0.3,0,0.5,0.3,0.5,0.5l0,6l6.1,-6.3c0,-0.1,0.2,-0.2,0.4,-0.2l1.6,0c0.4,0,0.6,0.5,0.3,0.8l-6.2,6.3l6.5,7.3c0.2,0.2,0.1,0.7,-0.3,0.7l-1.8,0c-0.2,0,-0.3,-0.1,-0.3,-0.2l-6.3,-7l0,6.7c0,0.2,-0.2,0.5,-0.5,0.5l-1.3,0c-0.3,0,-0.5,-0.3,-0.5,-0.5Z" class="g2_2" />
<path d="M110.9,607.6c0,-0.2,0.2,-0.5,0.5,-0.5l1.3,0c0.3,0,0.5,0.3,0.5,0.5l0,6l6.1,-6.3c0.1,-0.1,0.2,-0.2,0.4,-0.2l1.6,0c0.4,0,0.6,0.5,0.3,0.8l-6.2,6.3l6.6,7.3c0.1,0.2,0,0.7,-0.4,0.7l-1.8,0c-0.2,0,-0.3,-0.1,-0.3,-0.2l-6.3,-7l0,6.7c0,0.2,-0.2,0.5,-0.5,0.5l-1.3,0c-0.3,0,-0.5,-0.3,-0.5,-0.5Z" class="g2_2" />
<g clip-path="url(#c0_2)">
<path d="M129.4,620.3c3.1,0,5.6,-2.6,5.6,-5.6c0,-3.1,-2.5,-5.7,-5.6,-5.7c-3,0,-5.6,2.6,-5.6,5.7c0,3,2.6,5.6,5.6,5.6m0,-13.4c4.3,0,7.7,3.5,7.7,7.8c0,4.3,-3.4,7.7,-7.7,7.7c-4.3,0,-7.7,-3.4,-7.7,-7.7c0,-4.3,3.4,-7.8,7.7,-7.8Z" class="g2_2" />
</g>
</svg>