<?xml version="1.0" encoding="UTF-8" standalone="no"?>
<!DOCTYPE svg PUBLIC "-//W3C//DTD SVG 1.1//EN"
"http://www.w3.org/Graphics/SVG/1.1/DTD/svg11.dtd">
<svg version="1.1" xmlns="http://www.w3.org/2000/svg" xmlns:xlink="http://www.w3.org/1999/xlink">
<defs>
<style type="text/css"><![CDATA[
.g21_2{
fill: #636363;
}
.g12_2{
fill: #FFFFFF;
stroke: #FFFFFF;
stroke-width: 6;
stroke-linecap: round;
stroke-linejoin: round;
stroke-miterlimit: 2;
}
.g2_2{
fill: none;
stroke: #FFFFFF;
stroke-width: 3;
stroke-linecap: round;
stroke-linejoin: miter;
stroke-miterlimit: 2;
}
.g17_2{
fill: none;
stroke: #000000;
stroke-width: 3;
stroke-linecap: round;
stroke-linejoin: round;
stroke-miterlimit: 2;
}
.g16_2{
fill: #999999;
}
.g20_2{
stroke: #FFFFFF;
stroke-width: 1;
stroke-linecap: round;
stroke-linejoin: round;
stroke-miterlimit: 2;
}
.g3_2{
fill: #FFFFFF;
stroke: #000000;
stroke-width: 2;
stroke-linecap: butt;
stroke-linejoin: miter;
stroke-miterlimit: 2;
}
.g14_2{
fill: #D4D4D4;
}
.g1_2{
fill: #B3B3B3;
}
.g7_2{
fill: #636363;
stroke: #000000;
stroke-width: 1;
stroke-linecap: butt;
stroke-linejoin: miter;
stroke-miterlimit: 2;
}
.g9_2{
fill: none;
stroke: #000000;
stroke-width: 2;
stroke-linecap: round;
stroke-linejoin: round;
stroke-miterlimit: 2;
}
.g19_2{
fill: #FFFFFF;
stroke: #FFFFFF;
stroke-width: 2;
stroke-linecap: round;
stroke-linejoin: round;
stroke-miterlimit: 2;
}
.g18_2{
fill: #FFFFFF;
stroke: #000000;
stroke-width: 2;
stroke-linecap: round;
stroke-linejoin: round;
stroke-miterlimit: 2;
}
.g5_2{
fill: none;
stroke: #000000;
stroke-width: 2;
stroke-linecap: butt;
stroke-linejoin: miter;
stroke-miterlimit: 2;
}
.g10_2{
fill: #808080;
stroke: #000000;
stroke-width: 1;
stroke-linecap: round;
stroke-linejoin: round;
stroke-miterlimit: 2;
}
.g15_2{
fill: none;
stroke: #000000;
stroke-width: 8;
stroke-linecap: round;
stroke-linejoin: round;
stroke-miterlimit: 2;
}
.g4_2{
fill: none;
stroke: #000000;
stroke-width: 1;
stroke-linecap: butt;
stroke-linejoin: miter;
stroke-miterlimit: 2;
}
.g11_2{
fill: #FFFFFF;
}
.g13_2{
fill: #636363;
stroke: #000000;
stroke-width: 2;
stroke-linecap: round;
stroke-linejoin: round;
stroke-miterlimit: 2;
}
.g22_2{
fill: none;
stroke: #FFFFFF;
stroke-width: 5;
stroke-linecap: round;
stroke-linejoin: round;
stroke-miterlimit: 2;
}
.g6_2{
}
.g8_2{
fill: none;
stroke: #000000;
stroke-width: 1;
stroke-linecap: round;
stroke-linejoin: round;
stroke-miterlimit: 2;
}
]]></style>
</defs>
<path fill-rule="evenodd" d="M55,54l824,0l0,1101l-824,0Z" class="g1_2" />
<path d="M55.5,256.5l27,0" class="g2_2" />
<path d="M55.5,430.5l27,0" class="g2_2" />
<path d="M55.5,605.5l27,0" class="g2_2" />
<path d="M55.5,779.5l27,0" class="g2_2" />
<path d="M55.5,953.5l27,0" class="g2_2" />
<path d="M852.5,256.5l28,0" class="g2_2" />
<path d="M852.5,605.5l28,0" class="g2_2" />
<path d="M852.5,779.5l28,0" class="g2_2" />
<path d="M852.5,953.5l28,0" class="g2_2" />
<path d="M236.5,82.5l0,-27" class="g2_2" />
<path d="M390.5,82.5l0,-27" class="g2_2" />
<path d="M544.5,82.5l0,-27" class="g2_2" />
<path d="M698.5,82.5l0,-27" class="g2_2" />
<path d="M236.5,1155.5l0,-28" class="g2_2" />
<path d="M390.5,1155.5l0,-28" class="g2_2" />
<path d="M544.5,1155.5l0,-28" class="g2_2" />
<path d="M698.5,1155.5l0,-28" class="g2_2" />
<path fill-rule="evenodd" d="M82,82l770,0l0,1045l-770,0Z" class="g3_2" />
<path d="M184.5,209.5l646,0" class="g4_2" />
<path d="M103.5,278.5l727,0" class="g4_2" />
<path d="M82,1097l770,0" class="g5_2" />
<path d="M466.5,1099.5l0,28" class="g4_2" />
<path d="M468.5,1099.5l0,28" class="g4_2" />
<path d="M272.5,1099.5l0,28" class="g4_2" />
<path d="M274.5,1099.5l0,28" class="g4_2" />
<path d="M664.5,1099.5l0,28" class="g4_2" />
<path d="M666.5,1099.5l0,28" class="g4_2" />
<path fill-rule="evenodd" d="M106,289l37,0l0,38l-37,0Z" class="g6_2" />
<path fill-rule="evenodd" d="M103.5,287.5l38,0l0,37l-38,0Z" class="g7_2" />
<path d="M103.5,673.5l727,0" class="g4_2" />
<path d="M274.5,1099.5l192,0" class="g8_2" />
<path d="M468.5,1099.5l196,0" class="g8_2" />
<path d="M666.5,1099.5l186,0" class="g8_2" />
<path d="M272.5,1099.5l-190,0" class="g8_2" />
<path d="M852.5,430.5l28,0" class="g2_2" />
<path fill-rule="evenodd" d="M106,683l37,0l0,38l-37,0Z" class="g6_2" />
<path fill-rule="evenodd" d="M103.5,681.5l38,0l0,38l-38,0Z" class="g7_2" />
<path d="M189.8,220.3c0.1,-0.1,0.3,-0.2,0.4,-0.3" class="g8_2" />
<path d="M190.2,220c0.3,-0.1,0.7,-0.1,1.1,-0.1c0.6,0.2,1.2,0.5,2,1.1c6.3,-1.6,12.2,-2.7,18.1,-3.4c5.8,-0.5,11.2,-0.6,16.5,-0.2" class="g8_2" />
<path d="M228.6,217.7c-0.3,-0.5,-0.9,-0.9,-1.7,-1.2c-0.8,-0.2,-1.8,-0.4,-3,-0.4c-7.2,-0.2,-13.6,0.1,-19.2,0.7c-5.6,0.7,-10.5,1.8,-14.5,3.2" class="g9_2" />
<path d="M187.3,228.5c1,0.7,2.1,1.4,3.2,2c1.1,0.6,2.2,1.1,3.4,1.5c3.8,-0.5,7.6,-1,11.4,-1.4" class="g8_2" />
<path d="M205.3,230.6c0.3,-0.1,0.6,-0.1,0.9,-0.2c0,-0.4,0,-0.9,0,-1.4c-0.4,-0.3,-0.7,-0.6,-0.9,-0.9c-0.1,-0.3,-0.2,-0.5,-0.2,-0.8c0.2,-1.2,0.7,-2.1,1.3,-2.7c0.7,-0.6,1.6,-1,2.7,-1c1.3,-0.1,2.2,-0.1,3,0c0.7,0.2,1.1,0.5,1.2,0.9c0.9,-0.1,2,-0.2,3.3,-0.4c1.4,-0.3,3,-0.6,4.7,-1.1c1.1,-0.3,1.9,-0.3,2.5,0.1" class="g9_2" />
<path d="M223.8,223.1c0.6,0.4,0.9,1.2,1,2.4c0.1,1,0.2,2.1,0.3,3.2" class="g8_2" />
<path d="M189.8,220.3c-0.4,2,-0.8,3.9,-1.3,5.9c0,0.3,-0.2,0.5,-0.4,0.6c-0.2,0.2,-0.4,0.2,-0.7,0.2c0,0.5,-0.1,1,-0.1,1.5" class="g9_2" />
<path d="M193.3,221.1c-0.1,2.4,-0.1,4.9,-0.2,7.4c0,0.3,0.1,0.7,0.2,1c0.2,0.4,0.4,0.7,0.7,1.1" class="g8_2" />
<path d="M194.1,230.6l12.1,-1.5" class="g8_2" />
<path d="M194.1,230.6L193.5,243" class="g8_2" />
<path d="M225.1,228.7c0,1,0.2,1.7,0.5,2.2c0.3,0.4,0.9,0.6,1.5,0.6" class="g8_2" />
<path d="M222.2,222.9c0.2,1.3,0.4,2.6,0.6,3.9c0.1,0.9,0,1.6,-0.4,2.1c-0.4,0.6,-1.2,0.9,-2.2,1.1c-4.1,0.7,-8.3,1.5,-12.5,2.2" class="g9_2" />
<path d="M224.4,230.2l-1.6,-1" class="g8_2" />
<path fill-rule="evenodd" d="M195.2,222.9c-0.1,0.5,0.1,1,0.5,1c0.3,0.1,0.6,-0.2,0.7,-0.7c0.1,-0.5,-0.1,-1,-0.4,-1c-0.3,-0.1,-0.7,0.3,-0.8,0.7Z" class="g10_2" />
<path fill-rule="evenodd" d="M194.8,228.1c0,0.5,0.1,0.9,0.5,1c0.3,0,0.6,-0.3,0.7,-0.8c0.1,-0.5,-0.1,-0.9,-0.4,-1c-0.3,-0.1,-0.7,0.3,-0.8,0.8Z" class="g10_2" />
<path fill-rule="evenodd" d="M205,222.4c-0.1,0.5,0.1,1,0.4,1.1c0.3,0,0.7,-0.3,0.8,-0.8c0.1,-0.5,-0.1,-0.9,-0.4,-1c-0.4,-0.1,-0.7,0.3,-0.8,0.7Z" class="g10_2" />
<path d="M227.2,222.3c0,-1,-0.3,-1.6,-0.9,-2.1c-0.7,-0.4,-1.7,-0.6,-3.1,-0.5c-1.7,-0.1,-3.8,-0.1,-6.5,0c-2.6,0.1,-5.7,0.3,-9.4,0.6c-1.2,0.1,-2.1,0.5,-2.6,1.1c-0.5,0.7,-0.7,1.5,-0.5,2.8c0.2,0.8,0.4,1.5,0.5,2.2" class="g8_2" />
<path d="M205.6,225.9c0.7,-0.1,1.5,0,2.1,0.2c0.7,0.3,1.3,0.7,1.8,1.3c0.5,-0.9,0.9,-1.8,1.3,-2.6" class="g9_2" />
<path d="M208.2,223.7c1.2,0.2,2.1,0.6,2.6,1.1c0.6,0.4,1,1,1.1,1.6" class="g8_2" />
<path d="M211.9,226.4c0.2,-0.5,0.4,-1,0.6,-1.3c0.3,-0.3,0.6,-0.5,0.9,-0.6" class="g9_2" />
<path d="M211.9,226.4l-1.4,-0.8" class="g9_2" />
<path d="M209.5,227.4l-1.7,-0.9" class="g8_2" />
<path d="M207,225.9c0.3,0.2,0.6,0.5,0.9,0.7" class="g8_2" />
<path d="M208,248.3c0.3,-0.2,0.7,-0.5,1,-0.7c7.2,-1.6,14.5,-3.3,21.7,-4.9c0,0,1.9,-1.2,2.3,-2.7c0,-1.8,0.1,-3.6,0.1,-5.4c-0.3,-2.4,-2.3,-4,-2.3,-4c-0.3,-0.4,-0.3,-0.6,-0.4,-0.9c-0.2,-0.3,-0.3,-0.8,-0.4,-1.2c0,0,-1.4,-10.7,-1.4,-10.7" class="g9_2" />
<path d="M205.3,230.6c0.2,3.8,0.1,8.2,-0.1,13.1c-0.3,4.9,-0.8,10.3,-1.5,16.2" class="g9_2" />
<path d="M203.7,259.9l-3.1,0.7" class="g8_2" />
<path d="M233,234.7l-23.9,4.9" class="g8_2" />
<path d="M209.1,239.6c0,-1.1,0,-2.3,0,-3.5c0,-0.1,0,-0.1,-0.1,-0.2c0,0,-0.1,-0.1,-0.2,-0.1c-0.3,-0.1,-0.5,-0.2,-0.6,-0.4c-0.2,-0.2,-0.3,-0.5,-0.3,-0.8c0,-1.1,-0.2,-2.1,-0.5,-2.9c-0.3,-0.9,-0.7,-1.6,-1.2,-2.1" class="g9_2" />
<path d="M233,240l-28,5.9" class="g8_2" />
<path d="M205,245.9c0.2,-0.1,0.3,-0.2,0.3,-0.3c0.1,-0.1,0.2,-0.2,0.2,-0.4c0,-1.6,0.1,-3.2,0.2,-4.8c0,-1.2,0,-2.4,0,-3.6c0,0,-0.1,-0.1,-0.1,-0.1c0,-0.1,-0.1,-0.1,-0.2,-0.2" class="g8_2" />
<path d="M208.9,236l-3.1,0.7" class="g8_2" />
<path d="M207.8,235.4l-2.2,0.5" class="g8_2" />
<path d="M216.8,230.7c1.6,0.1,2.9,0.7,3.8,1.6c0.9,0.9,1.5,2.3,1.8,4c0,0.1,0.1,0.3,0.1,0.3c0.1,0.1,0.1,0.2,0.2,0.2" class="g8_2" />
<path d="M222.3,242.3c-0.2,0.7,-0.7,1.3,-1.3,1.8c-0.7,0.6,-1.7,1.1,-2.9,1.4" class="g8_2" />
<path d="M222.8,236.8l-0.1,5.3" class="g8_2" />
<path d="M227.7,231.3l2.2,-0.5" class="g8_2" />
<path d="M225,230.9c0,0.3,-0.2,0.6,-0.4,0.7c-0.1,0.2,-0.4,0.3,-0.7,0.3c-0.7,0.2,-1.4,0.3,-2.2,0.5" class="g8_2" />
<path d="M220.1,232.8l-11.3,2" class="g8_2" />
<path d="M202.2,231.1c0.2,3.8,0.1,8.2,-0.1,13.1c-0.3,4.9,-0.8,10.4,-1.5,16.4" class="g8_2" />
<path d="M203.9,258.8l2.9,-0.7" class="g8_2" />
<path d="M206.8,258.1c0.4,-1.1,0.8,-2.4,1,-3.8c0.2,-1.4,0.3,-3.1,0.3,-4.8c-0.1,-0.7,-0.1,-1.4,0,-2c0.1,-0.6,0.4,-1.1,0.7,-1.5" class="g9_2" />
<path d="M209.5,247.6c0.8,0.3,1.4,1.6,1.5,3.2c0.2,1.9,-0.4,3.6,-1.4,3.6c-0.6,0.3,-1.2,0.5,-1.9,0.8" class="g9_2" />
<path d="M210.9,252.9l7.2,4.3" class="g9_2" />
<path d="M218.1,257.2l-25.3,6.2" class="g8_2" />
<path d="M192.8,263.4l-4.3,-2.9" class="g8_2" />
<path d="M190.6,271.7l-0.2,-0.1" class="g8_2" />
<path d="M193.8,251.7l0,1.6l-2.8,0.5l-1.1,-0.5" class="g9_2" />
<path d="M187.6,252.1c0,-1.7,0,-3.4,0,-5.1c-0.1,-0.8,-0.2,-1.7,-0.2,-2.6c0,-0.9,-0.1,-2,-0.1,-3c0,-0.2,-0.1,-0.5,-0.1,-0.6c-0.1,-0.2,-0.1,-0.4,-0.2,-0.5c-0.1,-0.1,-0.2,-0.2,-0.3,-0.4c0,-0.2,-0.1,-0.4,-0.1,-0.7c0.1,-1.1,0.1,-2.5,0.2,-4.3c0.1,-1.8,0.3,-3.9,0.4,-6.4" class="g9_2" />
<path d="M190.9,253.8c0,-1.7,0,-3.3,0,-5c0.3,-0.7,0.5,-1.5,0.7,-2.3c0.2,-0.9,0.4,-1.8,0.5,-2.7c0.1,-0.2,0.2,-0.4,0.2,-0.5" class="g8_2" />
<path d="M192.3,243.3c0.2,-0.1,0.3,-0.1,0.5,-0.1c0.2,0.1,0.4,0.2,0.6,0.2c0.3,0.1,0.5,0.1,0.9,0" class="g9_2" />
<path d="M187.6,247l3.4,1.7l7.3,-1l1.4,-4.5" class="g8_2" />
<path d="M187.6,252.1l0.8,0.4l1.3,-0.1" class="g9_2" />
<path d="M187.1,259.4L183,256.7" class="g8_2" />
<path d="M188.5,252.5l0,-1" class="g8_2" />
<path d="M189,253l0,-1" class="g9_2" />
<path d="M188.4,251.6c0.1,-0.4,0.3,-0.7,0.6,-0.8" class="g8_2" />
<path d="M189,250.8c0.3,-0.1,0.7,0.4,0.9,1c0,0.2,0,0.4,0,0.5" class="g9_2" />
<path d="M200.4,259.7L199,260" class="g8_2" />
<path d="M199,260c0.3,-2.7,0.6,-5.5,0.8,-8.2c0.2,-2.7,0.3,-5.4,0.3,-8.1c0,-0.2,-0.1,-0.5,-0.2,-0.8" class="g8_2" />
<path d="M199.9,242.9c-0.3,0,-0.6,0,-1,0c-1.5,0.1,-3.1,0.3,-4.6,0.5" class="g9_2" />
<path d="M199,260l-1.2,-0.8" class="g8_2" />
<path d="M198.3,247.7c0,0.7,0,2.1,-0.1,4c-0.1,1.9,-0.2,4.4,-0.4,7.5" class="g8_2" />
<path d="M200.6,260.6c-0.1,0,-0.2,-0.1,-0.3,-0.1c0,0,-0.1,-0.1,-0.1,-0.1" class="g8_2" />
<path d="M201.9,231c0.1,3.8,0.1,8,-0.2,12.9c-0.2,5,-0.7,10.4,-1.4,16.4" class="g8_2" />
<path d="M213.7,256.3l-3.5,-2.1" class="g8_2" />
<path d="M209.7,257.2l-2.2,-1.3" class="g8_2" />
<path d="M212.3,256.8l-3.4,-2.1" class="g9_2" />
<path d="M208.2,257.6l-1,-0.6" class="g9_2" />
<path d="M213.7,256.4l-1.4,0.4" class="g9_2" />
<path d="M209.8,257.3l-1.6,0.4" class="g9_2" />
<path fill-rule="evenodd" d="M230.4,232.6c0.3,0.6,0.2,1.1,0,1.3c-0.3,0.1,-0.8,-0.2,-1.1,-0.7c-0.3,-0.6,-0.3,-1.2,0,-1.3c0.3,-0.2,0.8,0.2,1.1,0.7Z" class="g10_2" />
<path d="M187.1,259.4l3.2,-0.7" class="g8_2" />
<path d="M192.1,258.3l0.9,-0.2" class="g8_2" />
<path d="M193.8,251.7c0,-0.2,0.1,-0.4,0.1,-0.6c0.3,-0.8,1,-1.3,1.7,-1.1" class="g9_2" />
<path d="M195.6,250c0.4,0.1,0.7,0.6,0.7,1.1c0.1,2,0.2,4,0.4,6.1c0,0.4,0.2,0.8,0.3,1.1c0.2,0.2,0.5,0.4,0.8,0.5" class="g8_2" />
<path d="M197.2,258.5L193.5,256" class="g8_2" />
<path d="M192.2,254.4c0.6,0.2,1.2,0.6,1.2,1" class="g9_2" />
<path d="M193.4,255.4c0,0.5,-1,1,-2.3,1c-1.3,0,-2.3,-0.5,-2.3,-1" class="g8_2" />
<path d="M188.8,255.4c0,-0.4,0.6,-0.8,1.3,-1" class="g9_2" />
<path d="M188.5,255.5l0,1" class="g8_2" />
<path d="M189,257.3c0.4,0.4,1.2,0.6,2.1,0.6c0.6,0,1.2,-0.1,1.6,-0.3" class="g9_2" />
<path d="M193.5,256.5l0,-1" class="g8_2" />
<path d="M190.1,253.3c0,0.7,0,1.3,0,2c0,0.3,0.4,0.5,1,0.5c0.6,0,1.1,-0.2,1.1,-0.5c0,-0.6,0,-1.1,0,-1.7" class="g8_2" />
<path d="M190,257l0,3" class="g9_2" />
<path d="M192.5,257.5l0,2" class="g8_2" />
<path d="M190.5,263.5l0,8" class="g8_2" />
<path d="M192.2,263.7l0,5.7l-1.6,2.4" class="g9_2" />
<path d="M192.9,258.1c0.2,0,0.4,-0.1,0.7,-0.1c0.8,0,1.4,0.3,1.4,0.6" class="g8_2" />
<path d="M190.5,257.5l0,2" class="g8_2" />
<path d="M190,263l0,8" class="g9_2" />
<path d="M211.3,225.2c0.1,0.2,0.2,0.5,0.2,0.7" class="g8_2" />
<path d="M211.4,225.9l-0.9,-0.5" class="g8_2" />
<path d="M189,256c0.2,0,0.4,0.2,0.5,0.6c0.1,0.3,-0.1,0.6,-0.3,0.7" class="g8_2" />
<path d="M188.4,256.2c0.2,-0.1,0.5,0.2,0.5,0.5c0.1,0.4,0,0.7,-0.3,0.7" class="g8_2" />
<path d="M193.1,256.4c-0.3,-0.2,-0.7,-0.1,-0.9,0.2c-0.2,0.3,-0.1,0.6,0.1,0.8" class="g8_2" />
<path d="M192.8,257.7c0.2,0.1,0.6,0,0.8,-0.2c0.2,-0.3,0.1,-0.7,-0.1,-0.9" class="g9_2" />
<path d="M193.5,256.6c-0.2,-0.1,-0.6,0,-0.8,0.3c-0.2,0.3,-0.2,0.6,0.1,0.8" class="g8_2" />
<path d="M193.5,256.7l-0.4,-0.3" class="g8_2" />
<path d="M192.7,257.6l-0.4,-0.2" class="g8_2" />
<path d="M192.8,263.3l-3,-1l-4.3,-2.9" class="g8_2" />
<path d="M187.1,259.4l-3,-1l-4.2,-2.8" class="g8_2" />
<path d="M213.3,256.5l-3.6,-2.1" class="g8_2" />
<path d="M209.3,257.4l-1.9,-1.2" class="g8_2" />
<path d="M189.8,262.3l-0.2,0.4" class="g8_2" />
<path d="M184.1,258.4l-0.2,0.4" class="g8_2" />
<path d="M218.1,257.2c0,0.2,0,0.3,0,0.5c-8.4,2,-16.9,4,-25.3,6.1c-1,-0.3,-2.1,-0.7,-3.2,-1c-1.4,-1,-2.9,-2,-4.3,-3c0,-0.1,0.1,-0.2,0.2,-0.4c1,0.3,2,0.6,3,1c2,-0.4,3.9,-0.8,5.9,-1.3c0.3,-0.1,0.6,-0.3,0.6,-0.5" class="g9_2" />
<path d="M188.7,255.4l-5.7,1.3l0,-0.1l-3,-1l-0.1,0.1l-0.2,0.4l4.1,2.8l1.6,0.5" class="g9_2" />
<path d="M187.1,259.9l3.2,-0.8" class="g8_2" />
<path d="M192.2,258.7c0.2,-0.1,0.5,-0.1,0.8,-0.2c0.1,0,0.4,-0.1,0.6,-0.1c0.6,0,1,0.2,1.2,0.3" class="g8_2" />
<path d="M189.2,257.3c-0.2,0,-0.3,0.1,-0.5,0.1l-0.1,0c-0.2,0.1,-0.4,-0.2,-0.5,-0.5c-0.1,-0.4,0.1,-0.7,0.3,-0.7c0,0,-0.1,-0.1,-0.1,-0.1c0.2,0,0.5,0,0.7,-0.1" class="g9_2" />
<path d="M229.3,237.3l0.7,-0.2l0,-0.7" class="g8_2" />
<path d="M230,237.1l0.2,0.1" class="g8_2" />
<path d="M230.5,236.9l0.7,-0.1l0,-0.7" class="g8_2" />
<path d="M231.2,236.8l0.2,0.1" class="g8_2" />
<path d="M231.8,236.7l0.6,-0.2l0,-0.7" class="g8_2" />
<path d="M232.4,236.5l0.2,0.2" class="g8_2" />
<path d="M231.8,238l0.6,-0.2l0,-0.6" class="g8_2" />
<path d="M232.4,237.9l0.2,0.1" class="g8_2" />
<path d="M231.8,239.4l0.6,-0.2l0,-0.7" class="g8_2" />
<path d="M232.4,239.2l0.2,0.2" class="g8_2" />
<path d="M230.5,239.6l0.7,-0.1l0,-0.7" class="g8_2" />
<path d="M231.2,239.5l0.2,0.1" class="g8_2" />
<path d="M230.5,238.3l0.6,-0.2l0,-0.7" class="g8_2" />
<path d="M231.2,238.2l0.2,0.1" class="g8_2" />
<path d="M229.3,238.6l0.7,-0.2l0,-0.7" class="g8_2" />
<path d="M230,238.4l0.2,0.2" class="g8_2" />
<path d="M229.3,239.9l0.6,-0.1l0,-0.7" class="g8_2" />
<path d="M229.9,239.8l0.2,0.1" class="g8_2" />
<path d="M194.3,229.7l10.6,-1.2" class="g8_2" />
<path fill-rule="evenodd" d="M268.3,247.2c11.4,-6.5,22.8,-13.1,34.2,-19.8c0.4,-0.5,0.9,-1.1,1.3,-1.7c0.2,-0.2,0.2,-0.4,0.2,-0.5C303.9,225,303.7,225,303.5,225c-0.8,0,-1.5,0.1,-2.3,0.2c-11.3,6.5,-22.6,13.1,-33.9,19.6c0.3,0.8,0.6,1.6,1,2.4Z" class="g11_2" />
<path d="M259.9,252.1c14.2,-8.3,28.4,-16.5,42.6,-24.7c0.4,-0.5,0.9,-1.1,1.3,-1.7c0.2,-0.2,0.2,-0.4,0.2,-0.5C303.9,225,303.7,225,303.5,225c-0.8,0,-1.5,0.1,-2.3,0.2C287.1,233.3,273,241.4,259,249.6" class="g9_2" />
<path d="M301.8,227.3c0.2,-0.5,0.5,-0.8,0.8,-1.1c0.3,-0.3,0.7,-0.5,1.2,-0.6" class="g8_2" />
<path d="M300.8,225.9c0.5,0,1.1,-0.1,1.5,-0.3c0.5,-0.1,0.9,-0.3,1.3,-0.6" class="g8_2" />
<path fill-rule="evenodd" d="M271.6,238.4c-0.7,0.3,-1.3,0.7,-1.9,1.1c-0.4,0.2,-0.7,0.5,-0.9,0.8c-0.2,0.3,-0.4,0.7,-0.5,1.2c0,0.3,0,0.5,-0.1,0.6c-0.1,0.1,-0.3,0.2,-0.5,0.1c-0.6,-0.5,-1.4,-0.8,-2,-0.8c-0.6,-0.1,-1.4,0,-2,0.3c-6.8,3.9,-13.7,7.9,-20.5,11.8c-1.5,1.5,-2.4,2.9,-2.6,4.3c-0.2,1.5,0.2,2.9,1.1,4.2c1.2,1.4,2.6,2.3,3.9,2.5c1.4,0.2,3,-0.1,4.6,-1.1c6.4,-3.7,12.8,-7.4,19.2,-11.1c0.7,-0.6,1.2,-1.2,1.5,-1.9c0.3,-0.6,0.4,-1.4,0.4,-2.1c0,-0.3,0.2,-0.5,0.3,-0.6c0.1,0,0.3,0.1,0.5,0.3c0.4,0.2,0.8,0.4,1.1,0.4c0.4,0,0.8,-0.1,1.1,-0.2c0.7,-0.4,1.5,-0.9,2.2,-1.3c0.7,-0.7,1,-1.5,0.9,-2.5c0,-1,-0.5,-2.2,-1.3,-3.4c-0.8,-1.1,-1.6,-1.9,-2.3,-2.3c-0.8,-0.5,-1.5,-0.6,-2.2,-0.3Z" class="g11_2" />
<path d="M268.4,242.1c-0.1,-1.1,0.3,-2,1,-2.4c0.6,-0.4,1.4,-0.8,2.1,-1.2c1.3,-0.8,3.5,0.5,4.9,2.8c1.3,2.3,1.3,4.9,0,5.6c-0.7,0.4,-1.4,0.9,-2.1,1.3c-0.8,0.4,-1.8,0.2,-2.8,-0.4" class="g9_2" />
<path d="M270.9,248.7c-0.1,-1.1,-0.5,-2.3,-1.2,-3.6c-0.5,-0.9,-1.2,-1.7,-1.9,-2.3" class="g8_2" />
<path d="M271.4,247.2c-0.1,-0.7,-0.3,-1.7,-0.8,-2.5c-0.5,-0.9,-1.2,-1.6,-1.8,-2" class="g8_2" />
<path d="M272.8,247.7c-0.5,-0.2,-0.9,-0.2,-1.1,-0.1c-0.2,0,-0.4,0.3,-0.4,0.5c0,0.9,-0.1,1.8,-0.4,2.4c-0.3,0.7,-0.8,1.3,-1.4,1.6c-6.8,4,-13.6,7.9,-20.5,11.9c-0.9,0.4,-1.5,0.6,-2.4,0.6c-3.3,0,-6,-2.7,-6,-6c0,-1.9,1.1,-3.8,2.6,-4.9c6.7,-4,13.6,-7.9,20.4,-11.9c0.5,-0.3,1.2,-0.4,1.8,-0.4c0.7,0.1,1.5,0.4,2.3,0.8c0.3,0.1,0.7,0.1,0.9,0.1c0.2,-0.1,0.4,-0.5,0.5,-0.9" class="g9_2" />
<path d="M244.1,253.7c1.6,0.2,3.4,1.5,4.6,3.7c1.2,2,1.5,4.1,1.1,5.6" class="g8_2" />
<path d="M273.8,248.1c1.1,-0.9,1,-3.1,-0.2,-5.2c-1.2,-2.1,-3.1,-3.3,-4.4,-2.8" class="g8_2" />
<path d="M247,253.8L265.5,243" class="g8_2" />
<path d="M248.8,254.8l17.9,-10.6" class="g8_2" />
<path d="M250.8,258.5l18.1,-11" class="g8_2" />
<path d="M251.1,260.6l18.1,-11" class="g8_2" />
<path d="M248.8,254.8c-0.7,0.5,-2.9,0,-1.8,-1" class="g8_2" />
<path d="M250.8,258.5c-1.1,0.7,-1,2.7,0.3,2.1" class="g8_2" />
<path d="M269.2,249.6c1.1,-0.6,1.3,-3.1,-0.3,-2.1" class="g8_2" />
<path d="M266.7,244.2c1.1,-0.7,0,-1.9,-1.2,-1.2" class="g8_2" />
<path d="M430.9,1026.5l-0.3,2.6c0,0,0,1,-1,1.5c-1,0.6,-15.2,7.5,-15.2,7.5c0,0,-6.1,2.2,-8.4,0.9c-2.2,-1.2,-7.7,-4.6,-7.7,-4.6c0,0,-0.9,-0.5,-0.8,-1.6c0.1,-1.2,0.6,-6.4,0.6,-6.4c0,0,-0.1,-2.8,1.9,-3.9c2,-1.2,16.5,-8.3,16.5,-8.3c0,0,0.8,-0.4,1.6,0c0.7,0.4,3.9,2.4,3.9,2.4" class="g9_2" />
<path d="M398.2,1033.9c-0.5,-0.6,0.1,-3.3,1.6,-4.1c1.5,-0.9,16.5,-8.1,16.5,-8.1" class="g8_2" />
<path d="M429.7,1029.6L417.1,1022c0,0,-0.4,-0.4,-0.3,-1.1c0,-0.8,0.5,-6,0.5,-6" class="g8_2" />
<path d="M399.6,1029.3l0.6,-6.1" class="g8_2" />
<path d="M429.2,1027.2l8.9,-4.3l0.2,-2.4" class="g9_2" />
<path d="M438.3,1020.5c-0.7,-0.6,-1.4,-2,-1.5,-2.8" class="g9_2" />
<path d="M436.8,1017.7l-7.1,-4.3" class="g9_2" />
<path d="M429.7,1013.4c-0.3,0.6,-1.6,1,-2.2,0.8" class="g9_2" />
<path d="M438.1,1022.9c-0.4,-0.1,-10.9,-6.4,-10.9,-6.4l0.2,-2.2" class="g8_2" />
<path d="M427.4,1014.3l-8.5,3.9" class="g9_2" />
<path d="M429.5,1027.3c-0.4,-0.1,-11,-6.5,-11,-6.5l0.3,-2.2" class="g8_2" />
<path d="M427.2,1016.5l-8.7,4.3" class="g8_2" />
<path d="M428.6,1014.9l8.6,5.4l-0.1,0.8" class="g8_2" />
<path d="M437.1,1021.1l-8.7,-5.3l0.2,-0.9" class="g9_2" />
<path d="M436,1019.5l0.1,-0.7l-0.3,-0.2l0,0.8" class="g8_2" />
<path d="M435.3,1019.1l0,-0.8l-0.2,-0.2l-0.1,0.8" class="g8_2" />
<path d="M434.5,1018.6l0,-0.8l-0.2,-0.2l-0.1,0.8" class="g8_2" />
<path d="M433.7,1018.1l0.1,-0.8l-0.3,-0.2l-0.1,0.8" class="g8_2" />
<path d="M432.9,1017.6l0,-0.8l-0.2,-0.2l-0.1,0.8" class="g8_2" />
<path d="M432.2,1017.2l0,-0.9l-0.2,-0.1l-0.1,0.7" class="g8_2" />
<path d="M431.3,1016.6l0.1,-0.8l-0.2,-0.2l-0.1,0.8" class="g8_2" />
<path d="M430.5,1016.1l0.1,-0.7l-0.3,-0.2l0,0.8" class="g8_2" />
<path d="M429.8,1015.7l0.1,-0.8l-0.3,-0.1l0,0.7" class="g8_2" />
<path d="M429,1016.1l-0.1,0.8l0.3,0.1l0.1,-0.7" class="g8_2" />
<path d="M429.8,1016.6l-0.1,0.8l0.3,0.1l0,-0.7" class="g8_2" />
<path d="M430.6,1017.1l-0.1,0.8l0.3,0.2l0,-0.8" class="g8_2" />
<path d="M431.4,1017.6l-0.1,0.8l0.2,0.1l0.1,-0.7" class="g8_2" />
<path d="M432.2,1018.1l-0.1,0.8l0.2,0.2l0.1,-0.8" class="g8_2" />
<path d="M432.9,1018.5l-0.1,0.8l0.3,0.2l0,-0.8" class="g8_2" />
<path d="M433.7,1019l-0.1,0.9l0.3,0.1l0.1,-0.7" class="g8_2" />
<path d="M434.5,1019.5l-0.1,0.8l0.3,0.2l0.1,-0.8" class="g8_2" />
<path d="M435.2,1020l-0.1,0.7l0.3,0.2l0.1,-0.8" class="g8_2" />
<path d="M435.9,1020.4l-0.1,0.7l0.3,0.2l0.1,-0.8" class="g8_2" />
<path d="M415.6,1034l-1.2,0.5l-4.5,-1l-1.8,-3.2l0.9,-0.6" class="g9_2" />
<path d="M415.6,1033.8l-4.6,-1.1l-1.8,-3.1" class="g8_2" />
<path d="M415.3,1033.9l-4.6,-1.1l-1.8,-3.1" class="g8_2" />
<path d="M413.2,1035.2l-1.2,0.5l-4.5,-1l-1.7,-3.3l0.9,-0.6" class="g9_2" />
<path d="M413.3,1035l-4.6,-1.1l-1.8,-3.1" class="g8_2" />
<path d="M413,1035.1l-4.6,-1.1l-1.8,-3.1" class="g8_2" />
<path d="M410.9,1036.3l-1.1,0.5l-4.6,-1l-1.7,-3.2l0.9,-0.6" class="g9_2" />
<path d="M411,1036.1l-4.6,-1.1l-1.8,-3.1" class="g8_2" />
<path d="M410.7,1036.2l-4.6,-1.1l-1.8,-3.1" class="g8_2" />
<path d="M486.5,744.5l0,-15" class="g8_2" />
<path d="M480.2,744.6c1.2,0.7,2.8,0,3.7,-1.7c1,-1.8,0.8,-3.5,-0.5,-4.2" class="g8_2" />
<path d="M483.4,738.4c-1.2,-0.7,-3,0.1,-3.9,1.9c-1,1.8,-0.7,3.8,0.5,4.5" class="g9_2" />
<path d="M480.9,745.2c1.3,0.7,3,-0.1,4,-1.9c0.9,-1.8,0.7,-3.8,-0.5,-4.5" class="g8_2" />
<path d="M483.4,738.4l1,0.4" class="g9_2" />
<path d="M480,744.8c0.1,0,0.9,0.4,0.9,0.4" class="g9_2" />
<path d="M479.8,742.6c0.3,-0.3,1.2,-1.1,1.2,0.6" class="g8_2" />
<path d="M481.3,739.5c0,1.7,0.8,1,1.1,0.8c0.4,-0.2,0.5,0.7,0.5,0.7" class="g8_2" />
<path d="M481.1,743.3l0.8,-0.5" class="g8_2" />
<path d="M481.9,742.8c-0.4,-0.9,-0.3,-1.5,1,-1.8" class="g8_2" />
<path d="M479.8,742.6l-0.1,-0.7" class="g8_2" />
<path d="M481.3,739.5c-0.6,0.3,-0.6,0.4,-0.6,0.4" class="g8_2" />
<path d="M479.7,741.9c0.7,-0.4,1.2,-0.9,1,-2" class="g8_2" />
<path d="M478.9,757.6L478.1,757l0,-6.5l8,-3.9c0,0,1.6,-0.8,2.8,0c1.2,0.7,2.9,1.6,2.9,1.6l-0.1,1.9c0,0,0.2,0.7,0.7,0.7" class="g9_2" />
<path d="M491.7,750.1c0.8,-1.1,1.3,-1.4,2.6,-2.1c1.2,-0.7,11.7,-5.7,11.7,-5.7l61.1,37.8l0,1.3l-9.5,4.9" class="g9_2" />
<path d="M484.8,757.5l0.1,0.9c0,0,-0.4,1.9,-1.6,2.2" class="g9_2" />
<path d="M481.4,759l-3.2,1.3l0,6.8l1.1,0.5" class="g9_2" />
<path d="M478.2,767.1l7.8,-3.8c0,0,2.1,-0.7,3.6,0.1c1.4,0.9,8.3,5.2,8.3,5.2l0,11.2l51,31.4" class="g8_2" />
<path d="M549.3,800.4l-0.4,10.8L548,812" class="g9_2" />
<path d="M558.9,794.4l0.1,12.8c0,0.4,-0.5,1.3,-1.5,1.5" class="g9_2" />
<path d="M557.4,807.7c0.2,-0.2,0.3,-1,-0.1,-1.3c-0.5,-0.3,-7.5,-4.7,-7.5,-4.7" class="g8_2" />
<path d="M549.8,800.8l8,4.9c0,0,1.2,0.6,1,1.8" class="g8_2" />
<path d="M479.3,767.6l7.3,-3.6c0,0,1.3,-0.6,2.1,-0.1c0.8,0.5,8.3,5.2,8.3,5.2l0,11.2l51,31.4" class="g8_2" />
<path d="M481.9,758.6c0,0.7,0.1,2.3,1.2,2.1" class="g8_2" />
<path d="M482.8,759c0,0.5,0.1,1.2,0.3,1.7" class="g8_2" />
<path d="M487.8,762.1l-0.2,-14.7" class="g8_2" />
<path d="M492.7,750.9c0.4,-0.8,0.8,-1.3,1.8,-1.8c1.1,-0.5,11.5,-5.6,11.5,-5.6l61.1,37.9L506,743.5l0,-1.2" class="g8_2" />
<path d="M493.7,750.8l10.7,6.3" class="g8_2" />
<path d="M510.5,760.9l39,23.3" class="g8_2" />
<path d="M497,769.1l0.9,-0.5l0,11.2l-0.9,0.5" class="g8_2" />
<path d="M511.2,759.5c0.1,-1.4,-1.4,-2.5,-3.6,-2.5c-2.3,0,-3.9,1,-4,2.3" class="g8_2" />
<path d="M503.3,759.4c-0.1,1.4,1.7,2.5,4,2.6c2.2,0,4.1,-1.1,4.2,-2.4" class="g9_2" />
<path d="M511.5,758.2c0,-1.4,-1.7,-2.5,-4,-2.5c-2.2,-0.1,-4.1,1,-4.2,2.4c-0.1,1.4,0,1.3,0,1.3" class="g9_2" />
<path d="M503.3,759.4l0,-0.9" class="g8_2" />
<path d="M511.5,759.6c0,-0.1,0,-1,0,-1" class="g9_2" />
<path d="M509.2,761.2c-0.4,-0.1,-1.6,-0.6,0,-1.2" class="g8_2" />
<path d="M505.6,761.2c1.6,-0.6,0.6,-1,0.2,-1.2c-0.4,-0.1,0.4,-0.6,0.4,-0.6" class="g8_2" />
<path d="M509.3,759.9l-0.9,-0.5" class="g8_2" />
<path d="M508.4,759.4c-0.7,0.7,-1.3,0.8,-2.2,0" class="g8_2" />
<path d="M509.2,761.2l-0.6,0.3" class="g8_2" />
<path d="M505.6,761.2c0.5,0.3,0.7,0.3,0.7,0.3" class="g8_2" />
<path d="M508.6,761.5c-0.7,-0.4,-1.5,-0.6,-2.3,0" class="g8_2" />
<path d="M509.5,755.9l0,-2.8m0,-9l0.1,-15.7M505.2,756l0,-2.8m0,-11.9l0.1,-12.9" class="g9_2" />
<path d="M509.6,738.9c0,-0.7,-0.8,-1.3,-2,-1.3c-1.3,-0.1,-2.2,0.5,-2.2,1.2" class="g8_2" />
<path d="M509.6,739.8c0.1,-0.7,-0.7,-1.3,-2,-1.3c-1.2,-0.1,-2.1,0.5,-2.2,1.2" class="g8_2" />
<path d="M509.5,740.7c0,-0.8,-0.7,-1.4,-2,-1.4c-1.2,0,-2.2,0.5,-2.2,1.3" class="g8_2" />
<path d="M509.4,741.6c0.1,-0.7,-0.7,-1.3,-1.9,-1.3c-1.3,0,-2.2,0.5,-2.3,1.2" class="g8_2" />
<path d="M509.5,742.5c0.1,-0.8,-0.7,-1.3,-1.9,-1.4c-1.3,0,-2.2,0.6,-2.3,1.3" class="g8_2" />
<path d="M509.6,743.4c0,-0.7,-0.8,-1.3,-2,-1.3" class="g8_2" />
<path d="M509.4,753.8c0.1,-0.8,-0.7,-1.4,-2,-1.4c-1.2,0,-2.1,0.5,-2.2,1.3" class="g8_2" />
<path d="M509.5,754.7c0.1,-0.8,-0.7,-1.4,-2,-1.4c-1.2,0,-2.1,0.5,-2.2,1.3" class="g8_2" />
<path d="M509.5,755.5c0,-0.7,-0.7,-1.3,-2,-1.3c-1.2,-0.1,-2.1,0.5,-2.2,1.2" class="g8_2" />
<path d="M509.5,756.4c0,-0.8,-0.8,-1.4,-2,-1.4c-1.3,0,-2.2,0.5,-2.2,1.3" class="g8_2" />
<path d="M557.5,780c0.1,-1.4,-1.3,-2.5,-3.6,-2.5c-2.3,0,-3.9,0.9,-4,2.3" class="g8_2" />
<path d="M549.6,779.9c0,0.9,0.8,1.8,2,2.2m4.5,-0.1c1,-0.5,1.7,-1.2,1.7,-2" class="g9_2" />
<path d="M549.8,801.7l0,-0.9" class="g8_2" />
<path d="M511.4,753.3c0.1,-1.4,-1.3,-2.5,-3.6,-2.5c-2.2,0,-3.9,0.9,-4,2.3" class="g8_2" />
<path d="M503.6,753.2c-0.1,0.9,0.6,1.6,1.6,2.1m4.7,0c1.1,-0.4,1.8,-1.1,1.9,-2" class="g9_2" />
<path d="M558.9,794.4c-0.1,-1.2,-2,-2.4,-2,-2.4l-3.2,-2l-0.1,-1.3" class="g9_2" />
<path d="M480.2,757.9c1.2,0.7,2.8,0,3.7,-1.7c1,-1.8,0.8,-3.5,-0.5,-4.3" class="g8_2" />
<path d="M483.4,751.7c-1.2,-0.7,-3,0.1,-3.9,1.9c-1,1.8,-0.7,3.8,0.5,4.5" class="g9_2" />
<path d="M480.9,758.5c1.3,0.7,3,-0.1,4,-1.9c0.9,-1.8,0.7,-3.8,-0.5,-4.5" class="g8_2" />
<path d="M483.4,751.7l1,0.4" class="g9_2" />
<path d="M480,758.1c0.1,0,0.9,0.4,0.9,0.4" class="g9_2" />
<path d="M479.8,755.9c0.3,-0.3,1.2,-1.1,1.2,0.6" class="g8_2" />
<path d="M481.3,752.8c0,1.7,0.8,1,1.1,0.8c0.4,-0.2,0.5,0.7,0.5,0.7" class="g8_2" />
<path d="M481.1,756.6l0.8,-0.5" class="g8_2" />
<path d="M481.9,756.1c-0.4,-0.9,-0.3,-1.5,1,-1.8" class="g8_2" />
<path d="M479.8,755.9l-0.1,-0.7" class="g8_2" />
<path d="M481.3,752.8c-0.6,0.3,-0.6,0.4,-0.6,0.4" class="g8_2" />
<path d="M479.7,755.2c0.7,-0.4,1.2,-0.9,1,-2" class="g8_2" />
<path d="M509.6,728.4c0,-0.7,-0.8,-1.3,-2,-1.3c-1.3,0,-2.2,0.5,-2.2,1.3" class="g9_2" />
<path d="M509.6,732.5c0.1,-0.8,-0.7,-1.4,-2,-1.4c-1.2,0,-2.1,0.5,-2.2,1.3" class="g8_2" />
<path d="M509.5,733.4c0,-0.8,-0.7,-1.4,-2,-1.4c-1.2,0,-2.2,0.5,-2.2,1.3" class="g8_2" />
<path d="M509.4,734.3c0.1,-0.8,-0.7,-1.3,-1.9,-1.4c-1.3,0,-2.2,0.6,-2.3,1.3" class="g8_2" />
<path d="M509.5,735.2c0.1,-0.8,-0.7,-1.4,-1.9,-1.4c-1.3,0,-2.2,0.5,-2.3,1.3" class="g8_2" />
<path d="M509.6,736.1c0,-0.8,-0.8,-1.4,-2,-1.4c-1.3,0,-2.2,0.5,-2.2,1.3" class="g8_2" />
<path d="M509.6,737c0,-0.8,-0.8,-1.4,-2,-1.4c-1.3,0,-2.2,0.5,-2.2,1.3" class="g8_2" />
<path d="M509.6,737.9c0,-0.8,-0.8,-1.4,-2,-1.4c-1.3,0,-2.2,0.5,-2.2,1.3" class="g8_2" />
<path d="M509.6,728.9c0.1,-0.8,-0.7,-1.4,-2,-1.4c-1.2,0,-2.1,0.5,-2.2,1.3" class="g8_2" />
<path d="M509.5,729.7c0,-0.7,-0.7,-1.3,-2,-1.3c-1.2,0,-2.2,0.5,-2.2,1.3" class="g8_2" />
<path d="M509.4,730.7c0.1,-0.8,-0.7,-1.4,-1.9,-1.4c-1.3,0,-2.2,0.5,-2.3,1.3" class="g8_2" />
<path d="M509.5,731.6c0.1,-0.8,-0.7,-1.4,-1.9,-1.4c-1.3,0,-2.2,0.5,-2.3,1.3" class="g8_2" />
<path d="M557.3,786.2c0,-1.4,-1.4,-2.5,-3.6,-2.5c-2.3,0,-4,0.9,-4.1,2.3" class="g8_2" />
<path d="M549.4,786.1c-0.1,1.4,1.7,2.5,3.9,2.6c2.3,0,4.2,-1.1,4.3,-2.4" class="g9_2" />
<path d="M557.5,784.9c0.1,-1.4,-1.6,-2.5,-3.9,-2.5c-2.3,-0.1,-4.2,1,-4.3,2.4c-0.1,1.3,0.1,1.3,0.1,1.3" class="g9_2" />
<path d="M549.4,786.1l-0.1,-1" class="g8_2" />
<path d="M557.6,786.3c0,-0.1,-0.1,-1,-0.1,-1" class="g9_2" />
<path d="M555.3,787.8c-0.5,0,-1.6,-0.5,-0.1,-1.1" class="g8_2" />
<path d="M551.6,787.9c1.7,-0.6,0.6,-1,0.3,-1.2c-0.4,-0.1,0.4,-0.6,0.4,-0.6" class="g8_2" />
<path d="M555.3,786.5l-0.8,-0.4" class="g8_2" />
<path d="M554.5,786.1c-0.7,0.7,-1.3,0.8,-2.2,0" class="g8_2" />
<path d="M555.3,787.8l-0.6,0.4" class="g8_2" />
<path d="M551.6,787.9c0.6,0.3,0.8,0.3,0.8,0.3" class="g8_2" />
<path d="M554.7,788.2c-0.8,-0.4,-1.5,-0.6,-2.3,0" class="g8_2" />
<path d="M555.6,782.6l0,-2.8m0,-7.3l0,-17.4m-4.3,27.5l0,-2.7m0,-9.8l0,-15" class="g9_2" />
<path d="M555.6,765.6c0.1,-0.7,-0.7,-1.3,-2,-1.3c-1.2,-0.1,-2.1,0.5,-2.2,1.2" class="g8_2" />
<path d="M555.7,766.5c0.1,-0.8,-0.7,-1.3,-2,-1.4c-1.2,0,-2.1,0.6,-2.2,1.3" class="g8_2" />
<path d="M555.6,767.4c0,-0.8,-0.8,-1.4,-2,-1.4c-1.3,0,-2.2,0.5,-2.2,1.3" class="g8_2" />
<path d="M555.5,768.3c0.1,-0.7,-0.7,-1.3,-2,-1.3c-1.2,-0.1,-2.1,0.5,-2.2,1.2" class="g8_2" />
<path d="M555.6,769.2c0.1,-0.8,-0.7,-1.4,-2,-1.4c-1.2,0,-2.1,0.5,-2.2,1.3" class="g8_2" />
<path d="M555.5,780.5c0.1,-0.8,-0.7,-1.4,-2,-1.4c-1.2,0,-2.1,0.5,-2.2,1.3" class="g8_2" />
<path d="M555.6,781.3c0,-0.7,-0.8,-1.3,-2,-1.3c-1.3,0,-2.2,0.5,-2.2,1.3" class="g8_2" />
<path d="M555.6,782.2c0,-0.7,-0.8,-1.3,-2,-1.4c-1.3,0,-2.2,0.6,-2.2,1.3" class="g8_2" />
<path d="M555.5,783.1c0.1,-0.8,-0.7,-1.4,-2,-1.4c-1.2,0,-2.1,0.5,-2.2,1.3" class="g8_2" />
<path d="M557.5,780c0.1,-1.4,-1.3,-2.5,-3.6,-2.5c-2.3,0,-3.9,0.9,-4,2.3" class="g8_2" />
<path d="M549.6,779.9c0,0.9,0.6,1.6,1.7,2.1m4.7,0c1,-0.4,1.8,-1.1,1.8,-2" class="g9_2" />
<path d="M555.6,755.1c0.1,-0.7,-0.7,-1.3,-2,-1.3c-1.2,0,-2.1,0.5,-2.2,1.3" class="g9_2" />
<path d="M555.7,759.2c0.1,-0.8,-0.7,-1.4,-2,-1.4c-1.2,0,-2.1,0.5,-2.2,1.3" class="g8_2" />
<path d="M555.6,760.1c0,-0.8,-0.8,-1.4,-2,-1.4c-1.3,0,-2.2,0.5,-2.2,1.3" class="g8_2" />
<path d="M555.5,761c0.1,-0.8,-0.7,-1.3,-2,-1.4c-1.2,0,-2.1,0.6,-2.2,1.3" class="g8_2" />
<path d="M555.6,761.9c0.1,-0.8,-0.7,-1.4,-2,-1.4c-1.2,0,-2.1,0.5,-2.2,1.3" class="g8_2" />
<path d="M555.6,762.8c0.1,-0.8,-0.7,-1.4,-2,-1.4c-1.2,0,-2.1,0.5,-2.2,1.3" class="g8_2" />
<path d="M555.6,763.6c0.1,-0.7,-0.7,-1.3,-1.9,-1.3c-1.3,0,-2.2,0.5,-2.3,1.3" class="g8_2" />
<path d="M555.6,764.6c0.1,-0.8,-0.7,-1.4,-1.9,-1.4c-1.3,0,-2.2,0.5,-2.3,1.3" class="g8_2" />
<path d="M555.7,755.6c0.1,-0.8,-0.7,-1.4,-2,-1.4c-1.2,0,-2.1,0.5,-2.2,1.3" class="g8_2" />
<path d="M555.6,756.4c0,-0.7,-0.8,-1.3,-2,-1.3c-1.3,0,-2.2,0.5,-2.2,1.3" class="g8_2" />
<path d="M555.5,757.4c0.1,-0.8,-0.7,-1.4,-2,-1.4c-1.2,0,-2.1,0.5,-2.2,1.3" class="g8_2" />
<path d="M555.6,758.2c0.1,-0.7,-0.7,-1.3,-2,-1.3c-1.2,0,-2.1,0.5,-2.2,1.3" class="g8_2" />
<path d="M555.7,770.2c0.1,-0.7,-0.7,-1.3,-2,-1.3c-1.2,-0.1,-2.1,0.5,-2.2,1.2" class="g8_2" />
<path d="M555.6,771.1c0,-0.8,-0.8,-1.4,-2,-1.4c-1.3,0,-2.2,0.5,-2.2,1.3" class="g8_2" />
<path d="M555.5,772c0.1,-0.7,-0.6,-1.4,-2,-1.3c-0.5,0,-0.9,0.1,-1.2,0.2" class="g8_2" />
<path d="M555.6,772.9c0.1,-0.8,-0.7,-1.3,-2,-1.4" class="g8_2" />
<path fill-rule="evenodd" d="M431.6,1006.6l-0.1,-7.5l2.6,-1.3l-15.9,-7.4l0.1,-7.1L488.5,973l0,7l-9,39.2L461,1009.5l-10,6.7Z" class="g12_2" />
<path d="M442.4,1004.3c-0.2,-1.4,3.7,-3,6.1,-3.1c2.5,-0.2,7.3,1.1,7.6,3.2" class="g8_2" />
<path d="M462.8,1003.8l-5.1,3.6" class="g8_2" />
<path fill-rule="evenodd" d="M465.5,995.7L436.6,1009l-5,-1.9l-0.1,-8l2.6,-1.3l-15.9,-7.4l0.1,-7.1l76.1,-4.7l0,7Z" class="g13_2" />
<path fill-rule="evenodd" d="M462.6,1010.5l-11.6,5.7l-19.4,-9.7l10.6,-4.8l-24,-11.3l76.2,-4.8l-14.9,33.6Z" class="g14_2" />
<path d="M431.6,1007.1l19.4,9.1l11,-5.4l17.5,8.2l14.9,-33.4" class="g9_2" />
<path d="M418.2,990.4l76.2,-4.8" class="g8_2" />
<path d="M431.6,1006.6l10.6,-4.9" class="g8_2" />
<path d="M418.2,990.4l24,11.3" class="g9_2" />
<path d="M82,82l770,0l0,1045l-770,0Z" class="g9_2" />
<path d="M326.6,954.9c-18.1,12.1,-35.3,22.9,-26.2,66.2c6.6,31,63.2,30.1,93.3,16.2" class="g15_2" />
<path fill-rule="evenodd" d="M408,186l118,0l0,1l-118,0Z" class="g6_2" />
<path d="M221.1,597.6l0,-4.8" class="g8_2" />
<path d="M225.2,597.8l0,-4.8" class="g8_2" />
<path d="M277.8,447c1.2,0.7,2.8,0.1,3.7,-1.7c1,-1.7,0.7,-3.5,-0.5,-4.2" class="g8_2" />
<path d="M281,440.9c-1.2,-0.8,-3,0.1,-4,1.9c-0.9,1.7,-0.7,3.7,0.6,4.4" class="g9_2" />
<path d="M278.5,447.7c1.2,0.7,3,-0.2,3.9,-1.9c1,-1.8,0.8,-3.8,-0.5,-4.5" class="g8_2" />
<path d="M281,440.9l0.9,0.4" class="g9_2" />
<path d="M277.6,447.2c0,0.1,0.9,0.5,0.9,0.5" class="g9_2" />
<path d="M277.3,445c0.3,-0.3,1.3,-1,1.3,0.6" class="g8_2" />
<path d="M278.9,441.9c-0.1,1.8,0.8,1.1,1.1,0.9c0.3,-0.3,0.4,0.6,0.4,0.6" class="g8_2" />
<path d="M278.7,445.8l0.8,-0.5" class="g8_2" />
<path d="M279.5,445.3c-0.4,-0.9,-0.3,-1.5,0.9,-1.9" class="g8_2" />
<path d="M278.9,441.9c-0.6,0.3,-0.7,0.5,-0.7,0.5" class="g8_2" />
<path d="M277.2,444.3c0.7,-0.4,1.3,-0.9,1,-1.9" class="g8_2" />
<path d="M273.1,457.1c1,0.7,2.3,0.3,3.3,-1.2c1.1,-1.5,1.1,-3.1,0.2,-3.8" class="g8_2" />
<path d="M276.6,451.9c-0.9,-0.7,-2.5,0,-3.5,1.4c-1,1.5,-1.1,3.3,-0.2,4" class="g9_2" />
<path d="M273.9,457.9c0.9,0.7,2.5,0,3.5,-1.4c1,-1.5,1.1,-3.3,0.2,-4c-0.2,-0.2,-1,-0.6,-1,-0.6" class="g9_2" />
<path d="M272.8,455c0.3,-0.2,1.1,-0.8,0.9,0.5" class="g8_2" />
<path d="M274.4,452.6c-0.3,1.4,0.5,0.9,0.7,0.7c0.3,-0.2,0.2,0.5,0.2,0.5" class="g8_2" />
<path d="M274.4,455.3c-0.2,-0.8,0,-1.2,0.9,-1.5" class="g8_2" />
<path d="M272.8,455l0.1,-0.5" class="g8_2" />
<path d="M274.4,452.6c-0.5,0.2,-0.5,0.3,-0.5,0.3" class="g8_2" />
<path d="M272.9,454.5c0.5,-0.4,1,-0.7,1,-1.6" class="g8_2" />
<path d="M276.1,457.4c0.5,0.4,1.2,0.1,1.8,-0.7c0.6,-0.8,0.6,-1.6,0.1,-2" class="g8_2" />
<path d="M278.4,458.9c0.5,0.4,1.3,0.1,1.8,-0.7c0.6,-0.8,0.6,-1.7,0.1,-2.1" class="g8_2" />
<path d="M277.9,458.6c0.5,0.4,1.3,0.1,1.8,-0.7c0.6,-0.8,0.6,-1.7,0.1,-2.1" class="g8_2" />
<path d="M277.4,458.2c0.5,0.4,1.3,0.2,1.9,-0.7c0.5,-0.8,0.5,-1.6,0,-2" class="g8_2" />
<path d="M276.9,457.9c0.5,0.4,1.3,0.1,1.8,-0.7c0.6,-0.8,0.6,-1.7,0.1,-2.1" class="g8_2" />
<path d="M276.4,457.6c0.5,0.4,1.3,0.1,1.8,-0.7c0.6,-0.8,0.6,-1.7,0.1,-2.1" class="g8_2" />
<path d="M280.3,456.1c0,0,-2,-1.3,-2.1,-1.4" class="g9_2" />
<path d="M272.9,457.3c0.1,0,1,0.6,1,0.6" class="g9_2" />
<path d="M278.4,458.9c0,0,-1.9,-1.3,-2,-1.3" class="g9_2" />
<path d="M521.2,416.9c-0.7,-0.5,-1.8,-0.3,-2.7,0.4m-1.8,4.3c0.1,0.4,0.3,0.7,0.6,0.9" class="g9_2" />
<path d="M517.3,422.5c0.1,0.1,1,0.6,1,0.6" class="g9_2" />
<path d="M518.8,417.6c-0.4,0.2,-0.5,0.3,-0.5,0.3" class="g8_2" />
<path d="M517.9,421.3c0.6,0.4,1.4,0.1,1.9,-0.7c0.6,-0.9,0.7,-1.8,0.1,-2.2" class="g8_2" />
<path d="M516.9,420.6c0.5,0.4,1.3,0.1,1.9,-0.7c0.6,-0.9,0.6,-1.8,0.1,-2.2" class="g8_2" />
<path d="M516.6,419.9c0.3,-0.1,0.7,-0.4,1,-0.8c0.5,-0.8,0.6,-1.7,0,-2.1" class="g8_2" />
<path d="M519.9,418.4l-2.9,-2" class="g9_2" />
<path fill-rule="evenodd" d="M239.4,469.6l0.1,2.5l1.2,1.2l23.5,-12l0,1l-2.9,1.7l4.3,3.3l1.8,1.1l4.2,-7.8l-1.7,-1.1l-1.6,0.8l-0.1,-3.5l-1.5,-1.3Z" class="g16_2" />
<path d="M264.2,459.3l0,3l-2.9,1.7l4.3,3.3l1.8,1.1l4.2,-7.8l-1.7,-1.1l-3.2,1.7" class="g9_2" />
<path d="M266.7,455.5l-27.2,14l0,2.6l1.6,1l23.1,-11.8" class="g9_2" />
<path d="M268.3,460.3l-0.1,-3.5" class="g9_2" />
<path d="M265.6,467.3l4.3,-7.8" class="g8_2" />
<path d="M239.5,472l24.7,-12.7" class="g8_2" />
<path d="M266.5,461.5l0,-6" class="g8_2" />
<path d="M266.7,455.5l1.6,1.3" class="g9_2" />
<path d="M518.3,423.1c1,0.8,2.6,0.1,3.7,-1.5c1.1,-1.5,1.2,-3.4,0.2,-4.1c-0.2,-0.2,-1,-0.6,-1,-0.6" class="g9_2" />
<path d="M517.5,422.3c1,0.8,2.4,0.3,3.5,-1.3c1.1,-1.5,1.1,-3.2,0.2,-3.9" class="g8_2" />
<path d="M517.7,421.2l-0.9,-0.6" class="g9_2" />
<path d="M278.3,455.6l0.1,-0.5" class="g9_2" />
<path d="M273.5,552.3l-0.3,10.5c0,0,0,0.7,1.3,1.5c1.2,0.8,71.3,41.2,71.3,41.2c0,0,0.6,0.4,1.7,-0.2c1,-0.6,170.9,-82.9,170.9,-82.9c0,0,1.4,-0.2,1.4,-1.8c0,-1.7,-0.1,-10.1,-0.1,-10.1l-72,-43.7l-0.7,0.4l-0.7,-0.4Z" class="g9_2" />
<path d="M360.8,512.5c1.1,0.8,1.2,2.9,0.1,4.5c-1.1,1.7,-2.9,2.3,-4.1,1.5c-1.2,-0.9,-1.2,-2.9,-0.1,-4.5c1,-1.7,2.9,-2.3,4.1,-1.5Z" class="g8_2" />
<path d="M357.7,518.8c0,0,1.7,-0.6,2.7,-2.4c1,-1.8,0.9,-3.2,0.1,-4.1" class="g8_2" />
<path d="M356.4,516.2l0.8,-0.5" class="g9_2" />
<path d="M358.3,516.7l0,-1.6l1.1,-0.6" class="g9_2" />
<path d="M358.2,513.8l0,-0.5" class="g9_2" />
<path d="M358.4,517l-0.8,0.1l-0.1,-1.5l-1.3,0.4l0.1,-0.6l1,-0.8l0.2,-1.3l0.8,-0.3l-0.1,1l1.5,-0.3l0,0.8l-0.8,0L358.4,514l0.6,0.5l-0.9,1.4l-0.6,-0.3l-1.3,0.4l0.1,-0.6l1,-0.8l0.5,0.3" class="g8_2" />
<path d="M276.6,560.8l26.6,-13.2m7.9,-3.8l26.7,-13.2m10.3,-5.1l30.1,-14.8" class="g8_2" />
<path d="M341.6,530.9l26.6,-13.1m7.9,-3.9l26.7,-13.1m10.4,-5.1l30,-14.8" class="g8_2" />
<path d="M451.6,479.3l17.7,10.8m5.2,3.2l17.2,10.4" class="g8_2" />
<path d="M475.3,495.9l17.6,10.8m5.2,3.2l17.2,10.4" class="g8_2" />
<path d="M446.3,467.3l0,10.5c0,0,0.4,1.4,0.8,1.5c0.3,0.1,0.7,-1.5,0.7,-1.5l0,-10.7l-0.8,0.4l0.1,11.8" class="g8_2" />
<path d="M484.5,485.3c-0.8,0.5,-2,-0.3,-2.7,-1.7c-0.6,-1.5,-0.5,-3,0.3,-3.5" class="g8_2" />
<path d="M482.1,480.1c0.8,-0.5,1.9,0.3,2.6,1.7c0.7,1.5,0.6,3,-0.2,3.5" class="g8_2" />
<path d="M284.7,570.2c-16.1,12.8,-29.7,11.6,-51,21.7" class="g9_2" />
<path d="M233.7,591.9c0,0,-0.9,1.4,0.2,3.6c1.1,2.2,2.5,2.1,2.5,2.1" class="g8_2" />
<path d="M233.4,590.8c0,0,-1.3,1.8,-0.2,4.7c1.2,2.9,3.7,3.2,3.7,3.2" class="g8_2" />
<path d="M238.7,596.8c0,0,0,1.6,-1.8,1.9" class="g9_2" />
<path d="M235.5,590.5c0,0,-1.3,-0.7,-2.1,0.3" class="g9_2" />
<path d="M234,590.4l-5.5,2.3l-2.6,-1.6c-1.8,-0.5,-3.8,-0.2,-6.3,0.7c-2.6,1,-16.6,8,-16.6,8l-0.4,7.5c0,0,0,0.3,0.5,0.6c0.5,0.3,12.5,7.1,12.5,7.1c0,0,-0.1,0.2,0.8,-0.2c0.9,-0.5,15,-7.4,15,-7.4c0,0,2.5,-1.2,2.6,-3.7c0.1,-2.5,0,-3.6,0,-3.6l3.4,-1.5" class="g9_2" />
<path d="M204.6,606.7l16,-7.9c0,0,2.4,-0.8,5.5,1.3c3.1,2,6,4.3,6,4.3c0,0,0.6,0.8,-0.1,1.5c-0.8,0.7,-15.6,7.9,-15.6,7.9" class="g8_2" />
<path d="M228.6,593.2c0,0,-2.1,0.2,-1.6,3.5c0.6,3.2,2.1,3.9,2.1,3.9c0,0,1.2,1.2,3.1,0.6" class="g8_2" />
<path d="M234,600.1l-2.2,1" class="g9_2" />
<path d="M228.9,593.1l-0.5,0.9" class="g8_2" />
<path d="M230.9,592.3l-0.2,0.6" class="g8_2" />
<path d="M231.7,594.5l-1.1,0.5l0.6,0.3l0.6,-0.2l-0.6,0.2c0,0,0,1.2,1.3,2.6" class="g8_2" />
<path d="M232.5,597.9l0.7,-0.2l0.5,0.6l-1.1,0.6Z" class="g8_2" />
<path d="M232.6,598.9c0,0,-2,-1.4,-2,-3.9" class="g8_2" />
<path d="M231.7,594.7c0,0,0,1.5,1.8,3.4" class="g9_2" />
<path d="M229.4,595.8c0,0,0,1.5,1.8,3.4" class="g9_2" />
<path d="M229.3,595.6l-1,0.5l1.1,0.5l1,1.8l-0.1,1.4l1.1,-0.4l-1.1,0.4c0,0,-1.2,-0.4,-2,-3.7" class="g8_2" />
<path d="M228.7,593.9l0.9,-0.4c0,0,-0.1,-0.2,0.3,-0.9" class="g9_2" />
<path d="M231.1,592.9l0.9,-0.4c0,0,0,-0.8,0.2,-0.9" class="g9_2" />
<path d="M217.3,604.7l4.4,0.9l1.4,2.3" class="g17_2" />
<path d="M219.6,603.7l4.4,0.9l1.3,2.2" class="g17_2" />
<path d="M221.6,602.7l4.4,0.8l1.3,2.3" class="g17_2" />
<path d="M196.7,610.3l4.8,-2.3" class="g8_2" />
<path d="M202.5,605l-6.7,3.2l0,2.4l10.2,5.7l6,-2.9" class="g9_2" />
<path d="M286.9,427.9l-2.4,118.9l-0.7,0.3l2.3,-118.9" class="g8_2" />
<path d="M277.6,441.5l0.2,-9l-9.4,4.9L447.2,346.5" class="g9_2" />
<path d="M277.4,451.9l0.1,-4.4" class="g9_2" />
<path d="M275.5,551.4l1.8,-92.8" class="g9_2" />
<path d="M268.4,437.6l8,4.6" class="g8_2" />
<path d="M447.1,348.1l0.2,115.7" class="g8_2" />
<path d="M517.9,509.4l-0.3,-22.6" class="g9_2" />
<path d="M517.6,479.3l-1.4,-89.7l8.2,5L470.2,360.8M466,358.2L447.2,346.5" class="g9_2" />
<path d="M516.7,402.5c0,0,1.6,1.5,0.1,4.1" class="g9_2" />
<path d="M223,525.5c0,0,1.3,-2.2,4.7,-2.1c3.4,0,4.7,2.1,4.7,2.1" class="g8_2" />
<path d="M223,525.5l0,-1.1c0,0,0.4,-2.2,4.7,-2.1c4.3,0,4.6,1.9,4.6,1.9l0.1,1.3c0,0,0,3,-4.9,3c-4.8,0.1,-4.5,-2.9,-4.5,-3Z" class="g9_2" />
<path d="M226.5,528l1.1,-0.4l1,0.5l0.7,-0.4" class="g8_2" />
<path d="M226.5,528l-0.7,-0.4" class="g8_2" />
<path d="M226,527.5l0.7,-0.3" class="g8_2" />
<path d="M229.1,527.7l-0.6,-0.5l1,-0.8L229,525.9l-1.1,0.8l-1.3,-0.8l-0.5,0.3" class="g8_2" />
<path d="M225.8,526.4l1,0.6" class="g8_2" />
<path d="M227.6,527.6l0.1,-0.6" class="g8_2" />
<path d="M225.4,522.2L226.2,493" class="g9_2" />
<path d="M230.8,495.7l-0.5,26.5" class="g9_2" />
<path d="M225.8,521.7c0,0,1.8,-1.6,4.1,0" class="g8_2" />
<path d="M225.9,520.3c0,0,1.8,-1.6,4.1,-0.1" class="g8_2" />
<path d="M225.8,519c0,0,1.8,-1.6,4.1,-0.1" class="g8_2" />
<path d="M226,517.6c0,0,1.8,-1.7,4.1,-0.1" class="g8_2" />
<path d="M225.9,516.2c0,0,1.8,-1.6,4.1,-0.1" class="g8_2" />
<path d="M226,514.8c0,0,1.8,-1.6,4.1,0" class="g8_2" />
<path d="M226.1,513.4c0,0,1.8,-1.6,4.1,-0.1" class="g8_2" />
<path d="M226,512.1c0,0,1.8,-1.6,4.1,-0.1" class="g8_2" />
<path d="M226.1,510.6c0,0,1.7,-1.6,4.1,-0.1" class="g8_2" />
<path d="M226,509.3c0,0,1.8,-1.6,4.1,-0.1" class="g8_2" />
<path d="M226.2,507.9c0,0,1.7,-1.6,4.1,-0.1" class="g8_2" />
<path d="M226.2,506.5c0,0,1.8,-1.6,4.2,-0.1" class="g8_2" />
<path d="M226.2,505.1c0,0,1.8,-1.6,4.1,0" class="g8_2" />
<path d="M226.3,503.7c0,0,1.8,-1.6,4.1,-0.1" class="g8_2" />
<path d="M226.2,502.4c0,0,1.8,-1.6,4.1,-0.1" class="g8_2" />
<path d="M226.4,501c0,0,1.8,-1.6,4.1,-0.1" class="g8_2" />
<path d="M226.5,499.6c0,0,1.8,-1.7,4.1,-0.1" class="g8_2" />
<path d="M226.4,498.2c0,0,1.8,-1.6,4.2,-0.1" class="g8_2" />
<path d="M226.5,498.2c0,0,1.7,-1.6,4.1,-0.1" class="g8_2" />
<path d="M226.5,496.8c0,0,1.8,-1.6,4.2,-0.1" class="g8_2" />
<path d="M226.5,495.5c0,0,1.8,-1.6,4.1,-0.1" class="g8_2" />
<path d="M518.4,378.7c0,0,1.1,-2.2,4.5,-2.3c3.5,-0.1,4.8,1.9,4.8,1.9" class="g8_2" />
<path d="M518.4,378.7l-0.1,-1.1c0,0,0.3,-2.1,4.6,-2.3c4.2,-0.1,4.7,1.7,4.7,1.7l0.1,1.3c0,0,0.2,3,-4.7,3.3c-4.9,0.2,-4.6,-2.8,-4.6,-2.9Z" class="g9_2" />
<path d="M522,381.1l1,-0.4l1.1,0.4l0.7,-0.4" class="g8_2" />
<path d="M522,381.1l-0.8,-0.3" class="g8_2" />
<path d="M521.5,380.6l0.6,-0.3" class="g8_2" />
<path d="M524.6,380.6l-0.7,-0.4l1,-0.8l-0.5,-0.5l-1.1,0.8L522,379l-0.6,0.4" class="g8_2" />
<path d="M521.2,379.6l1,0.5" class="g8_2" />
<path d="M523,380.7l0.1,-0.7" class="g8_2" />
<path d="M520.6,375.3L520,346.2" class="g9_2" />
<path d="M524.8,348.7l0.6,26.5" class="g9_2" />
<path d="M521,374.2c0,0,1.7,-1.7,4.1,-0.3" class="g8_2" />
<path d="M520.8,372.8c0,0,1.8,-1.7,4.2,-0.3" class="g8_2" />
<path d="M520.9,371.4c0,0,1.7,-1.7,4.1,-0.3" class="g8_2" />
<path d="M520.9,370c0,0,1.8,-1.7,4.2,-0.3" class="g8_2" />
<path d="M520.8,368.7c0,0,1.7,-1.7,4.1,-0.3" class="g8_2" />
<path d="M520.8,367.3c0,0,1.7,-1.7,4.2,-0.3" class="g8_2" />
<path d="M520.7,365.9c0,0,1.7,-1.7,4.1,-0.3" class="g8_2" />
<path d="M520.7,364.5c0,0,1.7,-1.7,4.1,-0.3" class="g8_2" />
<path d="M520.7,363.1c0,0,1.7,-1.7,4.1,-0.3" class="g8_2" />
<path d="M520.6,361.7c0,0,1.7,-1.7,4.1,-0.3" class="g8_2" />
<path d="M520.7,360.3c0,0,1.7,-1.7,4.1,-0.3" class="g8_2" />
<path d="M520.5,359c0,0,1.8,-1.7,4.2,-0.3" class="g8_2" />
<path d="M520.6,357.6c0,0,1.7,-1.7,4.1,-0.3" class="g8_2" />
<path d="M520.6,356.2c0,0,1.7,-1.7,4.1,-0.3" class="g8_2" />
<path d="M520.5,354.8c0,0,1.7,-1.7,4.1,-0.3" class="g8_2" />
<path d="M520.6,353.4c0,0,1.7,-1.7,4.2,-0.3" class="g8_2" />
<path d="M520.5,352c0,0,1.7,-1.6,4.1,-0.2" class="g8_2" />
<path d="M520.5,350.7c0,0,1.8,-1.7,4.2,-0.3" class="g8_2" />
<path d="M520.4,349.3c0,0,1.7,-1.7,4.1,-0.3" class="g8_2" />
<path d="M565.5,408.2c0,0,1.1,-2.2,4.6,-2.3c3.4,-0.1,4.8,1.9,4.8,1.9" class="g8_2" />
<path d="M565.5,408.2l0,-1.1c0,0,0.2,-2.2,4.5,-2.3c4.3,-0.1,4.7,1.7,4.7,1.7l0.2,1.3c0,0,0.1,3,-4.8,3.2c-4.8,0.3,-4.6,-2.7,-4.6,-2.8Z" class="g9_2" />
<path d="M569.1,410.6l1,-0.4l1.1,0.4l0.7,-0.4" class="g8_2" />
<path d="M569.1,410.6l-0.8,-0.4" class="g8_2" />
<path d="M568.6,410.1l0.6,-0.4" class="g8_2" />
<path d="M571.7,410.1l-0.6,-0.4l0.9,-0.8l-0.5,-0.5l-1.1,0.8l-1.3,-0.7l-0.5,0.3" class="g8_2" />
<path d="M568.3,409l1,0.6" class="g8_2" />
<path d="M570.1,410.2l0.1,-0.7" class="g8_2" />
<path d="M567.7,404.8l-1,-36.7" class="g9_2" />
<path d="M571.2,367.9l1.4,36.8" class="g9_2" />
<path d="M568.1,404.4c0,0,1.7,-1.7,4.1,-0.3" class="g8_2" />
<path d="M568.1,402.9c0,0,1.7,-1.6,4.1,-0.2" class="g8_2" />
<path d="M568,401.6c0,0,1.7,-1.7,4.1,-0.3" class="g8_2" />
<path d="M568.1,400.2c0,0,1.7,-1.7,4.1,-0.3" class="g8_2" />
<path d="M567.9,398.8c0,0,1.7,-1.7,4.1,-0.2" class="g8_2" />
<path d="M567.9,397.5c0,0,1.8,-1.7,4.2,-0.3" class="g8_2" />
<path d="M568,396c0,0,1.7,-1.6,4.1,-0.2" class="g8_2" />
<path d="M567.8,394.7c0,0,1.7,-1.7,4.1,-0.3" class="g8_2" />
<path d="M567.8,393.3c0,0,1.7,-1.7,4.2,-0.3" class="g8_2" />
<path d="M567.7,391.9c0,0,1.7,-1.7,4.1,-0.3" class="g8_2" />
<path d="M567.8,390.5c0,0,1.7,-1.7,4.1,-0.3" class="g8_2" />
<path d="M567.8,389.1c0,0,1.7,-1.7,4.1,-0.3" class="g8_2" />
<path d="M567.7,387.8c0,0,1.7,-1.7,4.1,-0.3" class="g8_2" />
<path d="M567.7,386.4c0,0,1.8,-1.7,4.2,-0.3" class="g8_2" />
<path d="M567.6,385c0,0,1.7,-1.7,4.1,-0.3" class="g8_2" />
<path d="M567.7,383.6c0,0,1.8,-1.7,4.2,-0.3" class="g8_2" />
<path d="M567.8,382.2c0,0,1.7,-1.7,4.1,-0.3" class="g8_2" />
<path d="M567.6,380.8c0,0,1.7,-1.7,4.1,-0.3" class="g8_2" />
<path d="M567.6,380.9c0,0,1.8,-1.7,4.2,-0.3" class="g8_2" />
<path d="M567.7,379.4c0,0,1.7,-1.7,4.1,-0.2" class="g8_2" />
<path d="M567.5,378.1c0,0,1.7,-1.7,4.2,-0.3" class="g8_2" />
<path d="M275.9,532.6l-43.2,-25l-0.1,-11l-9.2,-5.7l0.5,-17.2l7.9,-4l1,0.6l-0.3,6.1l-3.9,2.2L228.1,478L228,476.5c0,0,-0.5,0,-1,0.6c-0.5,0.5,-0.7,1.1,-0.7,1.1l-0.1,6.2c0,0,0.5,0.1,1.1,-0.4c0.6,-0.6,0.6,-1.1,0.6,-1.1l0.2,-1.8l3.3,-1.6l1.2,0.7l-0.2,6.2l-7.7,4.1" class="g9_2" />
<path d="M275.5,531.4L233.9,506.9l-1.2,0.7l1.2,-0.7L233.7,496l-1.1,0.6l1.1,-0.6l-9.2,-5.3l7.9,-4.3l-1,-0.6l-7.6,4l7.6,-4l0.2,-6" class="g8_2" />
<path d="M226.1,484.7L225.3,484l0.1,-6.1c0,0,0.3,-0.7,0.6,-1.1c0.3,-0.5,0.7,-0.8,0.7,-0.8c0,0,0.8,-0.5,1.3,0.2" class="g8_2" />
<path d="M223.2,489.2l-7.6,-4.6l0,-1.3l7.8,-4" class="g9_2" />
<path d="M215.6,484.6l7.9,-4" class="g8_2" />
<path d="M229.7,478.3L276.4,506" class="g9_2" />
<path d="M231.9,470l-0.2,5.9l-3.4,1.7l0.3,1l1.1,-0.3" class="g8_2" />
<path d="M271.3,554.7c0,0,-0.9,-1.8,0.3,-2.8c1.1,-1,2.3,-1.3,3.6,-1.2" class="g8_2" />
<path d="M273.1,555.5c0,0,-1.3,0,-2.2,-1.1c-1,-1,-0.7,-2,-0.7,-2c0,0,0.2,-1.2,1.3,-1.8c1.1,-0.6,1.9,-1,3.7,-0.9" class="g9_2" />
<path d="M273,531.7l-0.3,17.8" class="g9_2" />
<path d="M273,549.1c0,0,0.5,-0.7,2.3,-0.6" class="g8_2" />
<path d="M273.1,547.8c0,0,0.4,-0.7,2.3,-0.6" class="g8_2" />
<path d="M273.1,546.3c0,0,0.4,-0.7,2.3,-0.5" class="g8_2" />
<path d="M273.1,544.9c0,0,0.4,-0.7,2.3,-0.6" class="g8_2" />
<path d="M273.1,543.5c0,0,0.4,-0.7,2.3,-0.5" class="g8_2" />
<path d="M273.2,542.2c0,0,0.4,-0.7,2.3,-0.6" class="g8_2" />
<path d="M273.2,540.9c0,0,0.4,-0.7,2.3,-0.6" class="g8_2" />
<path d="M273.2,539.4c0,0,0.4,-0.7,2.3,-0.5" class="g8_2" />
<path d="M273.3,538.1c0,0,0.4,-0.7,2.3,-0.6" class="g8_2" />
<path d="M273.3,536.7c0,0,0.4,-0.7,2.3,-0.6" class="g8_2" />
<path d="M273.4,535.3c0,0,0.4,-0.7,2.3,-0.6" class="g8_2" />
<path d="M273.4,534c0,0,0.4,-0.7,2.3,-0.6" class="g8_2" />
<path d="M273.4,532.6c0,0,0.2,-0.3,1.1,-0.5" class="g8_2" />
<path d="M524.7,394.7l-7.9,4.2" class="g8_2" />
<path d="M520,346.2L519.9,339" class="g9_2" />
<path d="M524.8,348.7l-0.3,-10.2" class="g9_2" />
<path d="M520.4,348c0,0,1.7,-1.7,4.1,-0.3" class="g8_2" />
<path d="M520.4,346.6c0,0,1.8,-1.7,4.2,-0.3" class="g8_2" />
<path d="M520.3,345.3c0,0,1.7,-1.7,4.1,-0.3" class="g8_2" />
<path d="M520.3,343.9c0,0,1.7,-1.7,4.1,-0.3" class="g8_2" />
<path d="M520.3,342.5c0,0,1.7,-1.7,4.1,-0.3" class="g8_2" />
<path d="M520.2,341.2c0,0,1.7,-1.7,4.1,-0.3" class="g8_2" />
<path d="M520.2,341.2c0,0,1.7,-1.7,4.1,-0.3" class="g8_2" />
<path d="M520,339.8c0,0,1.7,-1.6,4.1,-0.2" class="g8_2" />
<path d="M520,339.1c0,0,1.7,-1.6,4.1,-0.2" class="g8_2" />
<path d="M519.7,338.8c0,0,2,-2.6,5,-0.5" class="g8_2" />
<path d="M526.1,338.3c0,0,-0.2,-1.7,-3.9,-1.7c-3.6,0.1,-3.6,2.4,-3.6,2.4" class="g8_2" />
<path d="M518.6,339c0,0,-0.2,0.8,1,1.4" class="g8_2" />
<path d="M526.1,338.3c0,0,0.2,1.7,-1.2,2" class="g8_2" />
<path d="M567.2,375.4c0,0,1.7,-1.7,4.1,-0.3" class="g8_2" />
<path d="M567.1,374c0,0,1.7,-1.7,4.1,-0.3" class="g8_2" />
<path d="M567.1,372.7c0,0,1.7,-1.7,4.1,-0.3" class="g8_2" />
<path d="M567.1,371.3c0,0,1.7,-1.7,4.1,-0.3" class="g8_2" />
<path d="M566.9,369.9c0,0,1.8,-1.7,4.2,-0.3" class="g8_2" />
<path d="M566.9,369.9c0,0,1.8,-1.7,4.2,-0.3" class="g8_2" />
<path d="M566.8,368.6c0,0,1.7,-1.7,4.1,-0.3" class="g8_2" />
<path d="M566.5,368.2c0,0,2,-2.6,4.9,-0.5" class="g8_2" />
<path d="M572.8,367.7c0,0,-0.2,-1.7,-3.8,-1.6c-3.6,0,-3.7,2.3,-3.7,2.3" class="g8_2" />
<path d="M565.3,368.4c0,0,-0.1,0.8,1,1.4" class="g8_2" />
<path d="M572.8,367.7c0,0,0.3,1.7,-1.1,2.1" class="g8_2" />
<path d="M520.2,373.5l-8.5,-5.3L511.9,357l-8.7,-5.5c0,0,-0.5,-0.5,-1.4,-0.1c-0.9,0.4,-7.8,4.2,-7.8,4.2l-1,-0.7l-0.1,-6.7l3.8,-1.9l0.9,0.5l0,1.4c0,0,0.7,0.2,1.3,-0.6c0.6,-0.8,0.8,-1.4,0.8,-1.4l-0.1,-5.5c0,0,-0.1,-0.7,-0.6,-0.5c-0.5,0.1,-1.1,0.5,-1.3,1.6c-0.3,1.2,-0.1,1.7,-0.1,1.7l-3.8,2.1l-0.9,-0.7l-0.1,-6.6l8.2,-4.2c0,0,1.6,-0.5,2.4,0c0.9,0.4,3.3,1.9,3.3,1.9l0,1.9c0,0,0.8,-1.3,1.5,-1.7c0.7,-0.3,12.3,-6.3,12.3,-6.3c0,0,0.5,-0.3,1.1,0.1c0.7,0.4,60.8,38.4,60.8,38.4l0,1.4l-10.9,5.4l0,1.9l1.6,1l0.4,17.2l-0.9,0.7" class="g9_2" />
<path d="M573.2,394.3l-0.8,-0.5" class="g8_2" />
<path d="M566.8,390.3l-2.3,-1.5" class="g8_2" />
<path d="M567.2,397.6l-2.7,1.5" class="g8_2" />
<path d="M564.6,392.4l2.2,-1.1l-2.3,-1.4l0,-0.8l-0.1,10.7l-1.2,0.7L528,378.4" class="g9_2" />
<path d="M564.5,399.1l0.7,0.6l2.1,-1" class="g9_2" />
<path d="M564,399.7L527.9,377.1" class="g8_2" />
<path d="M582.1,369.5L521.4,331c0,0,-0.3,-0.2,-0.9,0.1c-0.5,0.2,-11.9,6,-11.9,6c0,0,-0.9,0.3,-1,1.3" class="g8_2" />
<path d="M520.8,330.2l-0.1,0.8" class="g8_2" />
<path d="M493.2,344.7l3.5,-1.9l0.6,0.6l-0.6,-0.6l0.1,-1.4c0,0,1.1,-3,2.5,-1.5" class="g8_2" />
<path d="M496.7,346.7c0,0,-0.2,1.2,0.7,1.7" class="g8_2" />
<path d="M493,354.9l8.7,-4.5c0,0,0.7,-0.5,2,0.3c1.3,0.8,9.2,5.7,9.2,5.7l-1,0.6l1,-0.6l-0.1,11.2l-1.1,0.6l1.1,-0.6l7.3,4.7" class="g8_2" />
<path d="M567.1,376.8c0,0,1.7,-1.7,4.1,-0.3" class="g8_2" />
<path d="M498.6,475.9l1.5,-0.8l10.5,6.6" class="g9_2" />
<path d="M512.9,488.6l0.1,10.9l-1.5,0.7" class="g9_2" />
<path d="M498.6,475.9l0.3,16.7l12.6,7.6" class="g8_2" />
<path d="M500.2,475.1l0.2,16.8l12.6,7.6" class="g8_2" />
<path d="M498.9,492.6l1.5,-0.7" class="g8_2" />
<path d="M626.5,473.6c-44,9,-78.1,-10.4,-121.9,11" class="g9_2" />
<path d="M627.4,480.5c-44.6,8.4,-76.1,-10.8,-118.8,10.2" class="g9_2" />
<path d="M508.6,490.7c-1.4,0.8,-2.7,-0.8,-3.3,-1.7c-0.7,-0.9,-1.8,-3.6,-0.7,-4.4" class="g8_2" />
<path fill-rule="evenodd" d="M662.1,479.6c-47.7,0,-86.4,15.9,-86.4,35.5c0,19.6,38.7,35.5,86.4,35.5c47.8,0,86.5,-15.9,86.5,-35.5c0,-19.6,-38.7,-35.5,-86.5,-35.5Zm0,6.9c-42.5,0,-77,12.8,-77,28.6c0,15.8,34.5,28.6,77,28.6c42.6,0,77.1,-12.8,77.1,-28.6c0,-15.8,-34.5,-28.6,-77.1,-28.6Z" class="g18_2" />
<path fill-rule="evenodd" d="M662.1,488.8c-47.7,0,-86.4,15.9,-86.4,35.6c0,19.6,38.7,35.5,86.4,35.5c47.8,0,86.5,-15.9,86.5,-35.5c0,-19.7,-38.7,-35.6,-86.5,-35.6Zm0,7c-42.5,0,-77,12.8,-77,28.6c0,15.7,34.5,28.5,77,28.5c42.6,0,77.1,-12.8,77.1,-28.5c0,-15.8,-34.5,-28.6,-77.1,-28.6Z" class="g18_2" />
<path fill-rule="evenodd" d="M662.1,498.3c-47.7,0,-86.4,15.9,-86.4,35.5c0,19.6,38.7,35.5,86.4,35.5c47.8,0,86.5,-15.9,86.5,-35.5c0,-19.6,-38.7,-35.5,-86.5,-35.5Zm0,6.9c-42.5,0,-77,12.8,-77,28.6c0,15.8,34.5,28.6,77,28.6c42.6,0,77.1,-12.8,77.1,-28.6c0,-15.8,-34.5,-28.6,-77.1,-28.6Z" class="g18_2" />
<path fill-rule="evenodd" d="M662.1,508.1c-47.7,0,-86.4,15.9,-86.4,35.6c0,19.6,38.7,35.5,86.4,35.5c47.8,0,86.5,-15.9,86.5,-35.5c0,-19.7,-38.7,-35.6,-86.5,-35.6Zm0,7c-42.5,0,-77,12.8,-77,28.6c0,15.7,34.5,28.5,77,28.5c42.6,0,77.1,-12.8,77.1,-28.5c0,-15.8,-34.5,-28.6,-77.1,-28.6Z" class="g18_2" />
<path d="M733.1,494.8C721.4,484.6,694,477.4,662.1,477.4c-12.5,0,-24.3,1.1,-34.7,3.1" class="g9_2" />
<path d="M748,510.3c0.4,-1.4,0.6,-2.9,0.6,-4.3c0,-19.6,-38.7,-35.5,-86.5,-35.5c-12.7,0,-24.7,1.1,-35.6,3.1" class="g9_2" />
<path fill-rule="evenodd" d="M589.7,561.7l-11.4,-9.4l0.7,7.8l12.3,7.1Z" class="g19_2" />
<path d="M653.5,647.2c-23.1,9.4,-53.1,20.4,-65.8,8.5c-12.8,-11.9,-18.2,-29.1,-8.9,-48.5C588.1,587.7,593,583.9,578,551.9" class="g9_2" />
<path d="M649.6,639.6c-24.3,9.8,-49.1,19.3,-59.3,6.6c-10.2,-12.8,-9.4,-24.4,1,-43.6c9.6,-17.8,4.2,-35.7,-5.1,-54.1" class="g9_2" />
<path d="M663.9,641.3c0.8,0.2,0.9,0,1.6,0.8c0.6,0.8,1.4,5.6,1.4,5.6c0,0,0.5,1.9,1.8,2.5c1.3,0.7,4.2,1.2,7.1,-0.1c2.8,-1.4,14.7,-7.2,14.7,-7.2c0,0,1.1,-0.6,1.2,-1.6c0.2,-1,0.6,-6.1,0.6,-6.1" class="g9_2" />
<path d="M659.6,639.5c-0.5,-1,-1.3,-4.9,1.8,-6.5c3,-1.6,17.4,-8.6,17.4,-8.6" class="g8_2" />
<path d="M682.9,629.1l-17.3,8.4c0,0,-2.3,1.5,-2.1,3" class="g8_2" />
<path d="M684.6,638.6l-14.4,7c0,0,-2.2,1.5,-2.1,2.9" class="g8_2" />
<path d="M658.6,630.6c0,-1.9,0.9,-5.1,3.2,-6.3c2.4,-1.2,17.1,-8.3,17.5,-8.5c0.4,-0.3,4.6,-0.2,4.6,-0.2c0,0,1.3,0.5,1.3,0.6" class="g9_2" />
<path d="M658.6,630.6l-7.5,5.4c0,0,-2.9,2.2,-0.6,6.9c2.3,4.7,4,5.5,6.4,4.7c2.5,-0.8,9.4,-3,9.4,-3" class="g9_2" />
<path d="M659.4,639c-0.9,-2.9,-1,-4.8,-0.8,-7.4" class="g8_2" />
<path d="M682.9,617.4l11,-5.3l1.1,0.5c0,0,2.4,1.5,0.2,5.6" class="g9_2" />
<path d="M695.2,618.2L684,623.7" class="g9_2" />
<path d="M684,623.7l-1,-0.6l0,-5.7" class="g8_2" />
<path d="M683,623.1l11.3,-5.5c0,0,2.1,-5,-0.4,-5.5" class="g8_2" />
<path d="M694.3,617.6l0.9,0.6" class="g8_2" />
<path d="M691.3,622.7l11,-5.4l1,0.5c0,0,2.5,1.5,0.2,5.6" class="g9_2" />
<path d="M703.5,623.4l-11.1,5.5" class="g9_2" />
<path d="M692.4,628.9l-1,-0.5l0,-5.7" class="g8_2" />
<path d="M691.4,628.4l11.3,-5.6c0,0,2.1,-5,-0.4,-5.5" class="g8_2" />
<path d="M702.7,622.8l0.8,0.6" class="g8_2" />
<path d="M692.8,621.9l-2,-1.5" class="g9_2" />
<path d="M680.3,615.6c-1,0.2,-1.1,0.7,-1.1,1.6c0,0.9,0.2,5.8,0.2,5.8c0,0,0.1,1.5,0.8,2c0.6,0.6,2.7,3.1,2.7,3.1c0,0,0.9,1,0.9,2.1c0,1,1.1,7.4,1.1,7.4c0,0,0.5,1.4,1.6,2.1c1,0.6,3.7,2.3,3.7,2.3c0,0,1.4,0.2,1.5,-0.7" class="g8_2" />
<path d="M686.9,632.4l14.6,-7.1c1.1,-0.6,2.6,-0.4,3.4,0.9c0.8,1.4,0.1,2.7,-0.9,3.2c-0.9,0.5,-14.5,7.2,-14.5,7.2" class="g9_2" />
<path d="M692.2,636.6l3.3,-1.6c0,0,0.8,-0.4,0.8,-1.6" class="g9_2" />
<path d="M695.5,634.7l-2,-0.1" class="g8_2" />
<path d="M686.9,632.4c-0.8,0.5,-0.5,2.2,-0.2,2.8c0.3,0.5,1.4,2,2.8,1.4" class="g8_2" />
<path d="M692.5,614.2c-0.6,-0.2,-1.3,0.4,-1.6,1.4c-0.4,1,-0.2,1.8,0.4,2" class="g8_2" />
<path d="M691.3,617.7c0.6,0.2,1.3,-0.5,1.7,-1.5c0.3,-1,0.2,-2,-0.4,-2.1" class="g9_2" />
<path d="M693.1,614.7c-0.5,0.2,-0.9,0.6,-1.1,1.4c-0.2,0.6,-0.2,1.1,-0.1,1.4" class="g8_2" />
<path d="M701,619.5c-0.6,-0.2,-1.3,0.3,-1.7,1.4c-0.3,1,-0.2,1.8,0.4,2" class="g8_2" />
<path d="M699.7,623c0.6,0.2,1.4,-0.5,1.7,-1.5c0.4,-1,0.2,-2,-0.4,-2.2" class="g9_2" />
<path d="M701.5,620c-0.4,0.2,-0.8,0.6,-1,1.4c-0.2,0.6,-0.2,1.1,-0.2,1.4" class="g8_2" />
<path d="M484.5,484.7c-0.6,0.4,-1.6,-0.3,-2.1,-1.5c-0.6,-1.1,-0.5,-2.4,0.1,-2.8" class="g8_2" />
<path d="M482.5,480.4c0.7,-0.4,1.7,0.2,2.2,1.4c0.6,1.2,0.5,2.5,-0.2,2.9" class="g8_2" />
<path d="M441,363.5c1.2,0.7,2.7,0.1,3.6,-1.6c0.9,-1.7,0.7,-3.4,-0.5,-4.1" class="g8_2" />
<path d="M444.1,357.6c-1.2,-0.7,-2.9,0.1,-3.8,1.8c-0.9,1.7,-0.7,3.7,0.5,4.3" class="g9_2" />
<path d="M441.7,364.2c1.2,0.6,2.9,-0.2,3.8,-1.9c0.9,-1.7,0.7,-3.6,-0.5,-4.3" class="g8_2" />
<path d="M444.1,357.6L445,358" class="g9_2" />
<path d="M440.8,363.7c0.1,0.1,0.9,0.5,0.9,0.5" class="g9_2" />
<path d="M440.6,361.6c0.2,-0.3,1.2,-1,1.2,0.6" class="g8_2" />
<path d="M442.1,358.6c-0.1,1.7,0.8,1,1.1,0.8c0.3,-0.2,0.4,0.7,0.4,0.7" class="g8_2" />
<path d="M441.9,362.3l0.8,-0.4" class="g8_2" />
<path d="M442.7,361.9c-0.4,-0.9,-0.3,-1.5,0.9,-1.8" class="g8_2" />
<path d="M440.6,361.6l-0.1,-0.7" class="g8_2" />
<path d="M442.1,358.6c-0.6,0.3,-0.7,0.5,-0.7,0.5" class="g8_2" />
<path d="M440.5,360.9c0.7,-0.4,1.2,-0.9,0.9,-1.8" class="g8_2" />
<path d="M440.6,374.5c0.2,-0.3,1.2,-1,1.2,0.6" class="g8_2" />
<path d="M441.9,375.2l0.8,-0.4" class="g8_2" />
<path d="M440.6,374.5l-0.1,-0.6" class="g8_2" />
<path d="M437.5,373.6c0.9,0.6,2.2,0.2,3.2,-1.2c1,-1.5,1.1,-3,0.2,-3.7" class="g8_2" />
<path d="M440.9,368.5c-0.9,-0.7,-2.4,0,-3.4,1.4c-1,1.4,-1.1,3.2,-0.2,3.8" class="g9_2" />
<path d="M438.3,374.3c0.8,0.7,2.4,0.1,3.4,-1.4c1,-1.4,1,-3.1,0.1,-3.8c-0.2,-0.2,-0.9,-0.6,-0.9,-0.6" class="g9_2" />
<path d="M437.3,373.7c0.1,0.1,1,0.6,1,0.6" class="g9_2" />
<path d="M437.2,371.5c0.3,-0.2,1,-0.8,0.8,0.5" class="g8_2" />
<path d="M438.7,369.2c-0.2,1.3,0.5,0.8,0.7,0.7c0.3,-0.2,0.3,0.5,0.3,0.5" class="g8_2" />
<path d="M438.1,372.2l0.6,-0.4" class="g8_2" />
<path d="M438.7,371.8c-0.1,-0.7,0,-1.2,1,-1.4" class="g8_2" />
<path d="M437.2,371.5l0,-0.5" class="g8_2" />
<path d="M438.7,369.2c-0.4,0.1,-0.5,0.3,-0.5,0.3" class="g8_2" />
<path d="M437.2,371c0.6,-0.3,1.1,-0.7,1,-1.5" class="g8_2" />
<path d="M440.4,373.9c0.5,0.3,1.2,0.1,1.7,-0.7c0.6,-0.8,0.6,-1.6,0.1,-2" class="g8_2" />
<path d="M442.6,375.3c0.5,0.4,1.3,0.1,1.8,-0.7c0.5,-0.8,0.6,-1.6,0.1,-2" class="g8_2" />
<path d="M441.7,374.6c0.5,0.4,1.2,0.2,1.7,-0.6c0.6,-0.8,0.6,-1.6,0.1,-2" class="g8_2" />
<path d="M444.5,372.6c0,0,-2,-1.3,-2.1,-1.3" class="g9_2" />
<path d="M442.6,375.3c0,0,-1.8,-1.3,-1.9,-1.3" class="g9_2" />
<path d="M526.3,349l39.3,24.4" class="g8_2" />
<path d="M508.9,338.3l9.8,6.1" class="g8_2" />
<path fill-rule="evenodd" d="M568.7,354.2c1.3,0,2.3,1,2.3,2.3c0,1.3,-1,2.3,-2.3,2.3c-1.3,0,-2.3,-1,-2.3,-2.3c0,-1.3,1,-2.3,2.3,-2.3Z" class="g20_2" />
<path d="M613.4,330.8l-8,0l-36.7,25.7" class="g8_2" />
<path fill-rule="evenodd" d="M451.5,371.6l4.2,3.7l1.9,1l4.3,-7.9l-1.7,-1.2l-2.1,1l0.2,-1.5l30.1,-14.9l0,-2.5l-2,-1.1l-32.2,16.1l0,5.8Z" class="g16_2" />
<path d="M486.5,348.3l-32.2,15.9l0,5.8l-3,1.7l4.4,3.5l1.9,1.1l4.4,-8l-1.8,-1.2l-3.3,1.7" class="g9_2" />
<path d="M458.5,367.9l0,-1.1l29.9,-15l0,-2.5" class="g9_2" />
<path d="M455.7,375.2l4.5,-8.1" class="g8_2" />
<path d="M456.9,368.8l0,-3.3l29.5,-14.8l0,-2.5l0,2.5l2,1.1" class="g8_2" />
<path d="M456.9,365.5l1.6,1.3" class="g8_2" />
<path d="M486.4,348.2l2,1.1" class="g9_2" />
<path d="M502.5,348.5l0,-13" class="g8_2" />
<path d="M290.3,574.1c-16.1,12.7,-32.2,13.3,-53.6,23.4" class="g9_2" />
<path fill-rule="evenodd" d="M271.5,565.8c-1.3,0,-2.3,-1,-2.3,-2.3c0,-1.3,1,-2.3,2.3,-2.3c1.3,0,2.4,1,2.4,2.3c0,1.3,-1.1,2.3,-2.4,2.3Z" class="g20_2" />
<path d="M181.1,538.8l8,0l82.4,24.7" class="g8_2" />
<path d="M400.2,895.7c1.2,0.9,1.3,2.9,0.2,4.5c-1.1,1.7,-2.9,2.4,-4.1,1.5c-1.2,-0.8,-1.3,-2.8,-0.2,-4.5c1.1,-1.6,3,-2.3,4.1,-1.5Z" class="g8_2" />
<path d="M397.1,902.1c0,0,1.8,-0.7,2.8,-2.5c0.9,-1.8,0.9,-3.2,0,-4.1" class="g8_2" />
<path d="M395.9,899.4l0.8,-0.5" class="g9_2" />
<path d="M397.8,900l0,-1.7l1.1,-0.6" class="g9_2" />
<path d="M397.7,897l0,-0.5" class="g9_2" />
<path d="M397.8,900.2l-0.8,0.1l0,-1.4l-1.3,0.3l0.1,-0.5l0.9,-0.8l0.3,-1.3l0.7,-0.4l0,1l1.5,-0.3l-0.1,0.8l-0.7,0l-0.5,-0.5l0.6,0.5l-0.9,1.4l-0.7,-0.2l-1.2,0.3l0.1,-0.5l0.9,-0.8l0.6,0.2" class="g8_2" />
<path d="M316,944l26.7,-13.1m7.9,-3.9l26.7,-13.1m10.3,-5.1L417.7,894" class="g8_2" />
<path d="M381.1,914.2l26.6,-13.1m7.9,-3.9L442.3,884m10.3,-5.1l30.1,-14.7" class="g8_2" />
<path d="M491.1,862.6l17.7,10.7m5.2,3.2L531.1,887" class="g8_2" />
<path d="M514.7,879.1l17.7,10.8m5.2,3.2l17.2,10.5" class="g8_2" />
<path d="M485.8,850.5l0,10.6c0,0,0.4,1.4,0.7,1.4c0.4,0.1,0.8,-1.5,0.8,-1.5l-0.1,-10.6l-0.8,0.4l0.1,11.7" class="g8_2" />
<path d="M524,868.5c-0.8,0.5,-2,-0.3,-2.7,-1.7c-0.6,-1.5,-0.5,-3,0.2,-3.5" class="g8_2" />
<path d="M521.5,863.3c0.8,-0.5,2,0.3,2.7,1.8c0.7,1.4,0.6,3,-0.2,3.4" class="g8_2" />
<path d="M326.3,811.2L324,930l-0.7,0.3l2.2,-118.8" class="g8_2" />
<path d="M317.1,822.5l0.2,-6.7l-9.5,4.8L486.6,729.7" class="g9_2" />
<path d="M315,934.6l1.6,-84.3" class="g9_2" />
<path d="M486.6,766.6l0.2,80.4" class="g8_2" />
<path d="M557.4,892.6L557.1,870" class="g9_2" />
<path d="M505.4,741.4L486.6,729.7" class="g9_2" />
<path d="M563.9,777.8l-8.3,-5.2m-4.5,-2.8L509.7,744" class="g9_2" />
<path d="M556,791.4l-0.1,-2.9" class="g9_2" />
<path d="M557.1,862.6l-0.9,-55.8" class="g9_2" />
<path d="M538.1,859.1l1.5,-0.7l10.5,6.6" class="g9_2" />
<path d="M552.3,871.8l0.1,10.9l-1.4,0.8" class="g9_2" />
<path d="M538.1,859.1l0.3,16.8l12.6,7.6" class="g8_2" />
<path d="M539.7,858.4l0.2,16.7l12.6,7.6" class="g8_2" />
<path d="M538.4,875.9l1.5,-0.8" class="g8_2" />
<path d="M666,856.8c-44,9,-78.1,-10.4,-121.9,11.1" class="g9_2" />
<path d="M666.9,863.7c-44.6,8.4,-76.1,-10.8,-118.8,10.2" class="g9_2" />
<path d="M548.1,873.9c-1.4,0.9,-2.7,-0.8,-3.4,-1.7c-0.6,-0.9,-1.7,-3.6,-0.6,-4.3" class="g8_2" />
<path fill-rule="evenodd" d="M701.6,862.8c-47.7,0,-86.5,15.9,-86.5,35.5c0,19.7,38.8,35.6,86.5,35.6c47.8,0,86.5,-15.9,86.5,-35.6c0,-19.6,-38.7,-35.5,-86.5,-35.5Zm0,7c-42.5,0,-77.1,12.8,-77.1,28.5c0,15.8,34.6,28.6,77.1,28.6c42.6,0,77.1,-12.8,77.1,-28.6c0,-15.7,-34.5,-28.5,-77.1,-28.5Z" class="g18_2" />
<path fill-rule="evenodd" d="M701.6,872.1c-47.7,0,-86.5,15.9,-86.5,35.5c0,19.6,38.8,35.5,86.5,35.5c47.8,0,86.5,-15.9,86.5,-35.5c0,-19.6,-38.7,-35.5,-86.5,-35.5Zm0,6.9c-42.5,0,-77.1,12.8,-77.1,28.6c0,15.8,34.6,28.6,77.1,28.6c42.6,0,77.1,-12.8,77.1,-28.6C778.7,891.8,744.2,879,701.6,879Z" class="g18_2" />
<path fill-rule="evenodd" d="M701.6,881.5c-47.7,0,-86.5,15.9,-86.5,35.6c0,19.6,38.8,35.5,86.5,35.5c47.8,0,86.5,-15.9,86.5,-35.5c0,-19.7,-38.7,-35.6,-86.5,-35.6Zm0,7c-42.5,0,-77.1,12.8,-77.1,28.6c0,15.7,34.6,28.5,77.1,28.5c42.6,0,77.1,-12.8,77.1,-28.5c0,-15.8,-34.5,-28.6,-77.1,-28.6Z" class="g18_2" />
<path fill-rule="evenodd" d="M701.6,891.4c-47.7,0,-86.5,15.9,-86.5,35.5c0,19.6,38.8,35.5,86.5,35.5c47.8,0,86.5,-15.9,86.5,-35.5c0,-19.6,-38.7,-35.5,-86.5,-35.5Zm0,6.9c-42.5,0,-77.1,12.8,-77.1,28.6c0,15.8,34.6,28.6,77.1,28.6c42.6,0,77.1,-12.8,77.1,-28.6c0,-15.8,-34.5,-28.6,-77.1,-28.6Z" class="g18_2" />
<path d="M772.6,878.1c-11.7,-10.3,-39.1,-17.4,-71,-17.4c-12.5,0,-24.3,1.1,-34.7,3" class="g9_2" />
<path d="M787.5,893.5c0.4,-1.4,0.6,-2.8,0.6,-4.3c0,-19.6,-38.7,-35.5,-86.5,-35.5c-12.7,0,-24.7,1.1,-35.6,3.1" class="g9_2" />
<path fill-rule="evenodd" d="M631.5,944.9l-13.8,-9.3l1.1,7.8l12.2,7Z" class="g19_2" />
<path d="M693,1030.4c-23.1,9.5,-53.1,20.4,-65.8,8.5c-12.8,-11.9,-18.2,-29,-9,-48.5c9.3,-19.5,14.3,-23.2,-0.7,-55.2" class="g9_2" />
<path d="M689.1,1022.8c-24.3,9.8,-49.1,19.4,-59.3,6.6c-10.3,-12.8,-9.4,-24.4,1,-43.6c9.6,-17.8,4.2,-35.6,-5.2,-54.1" class="g9_2" />
<path d="M703.4,1024.6c0.8,0.1,0.9,-0.1,1.5,0.7c0.7,0.8,1.5,5.6,1.5,5.6c0,0,0.5,1.9,1.8,2.6c1.3,0.6,4.2,1.1,7,-0.2c2.9,-1.4,14.8,-7.1,14.8,-7.1c0,0,1.1,-0.6,1.2,-1.6c0.2,-1.1,0.5,-6.2,0.5,-6.2" class="g9_2" />
<path d="M699.1,1022.8c-0.5,-1.1,-1.3,-4.9,1.7,-6.6c3.1,-1.6,17.5,-8.5,17.5,-8.5" class="g8_2" />
<path d="M722.4,1012.4l-17.4,8.3c0,0,-2.2,1.6,-2.1,3" class="g8_2" />
<path d="M724.1,1021.8l-14.4,7c0,0,-2.3,1.6,-2.2,3" class="g8_2" />
<path d="M698,1013.9c0,-2,0.9,-5.1,3.3,-6.3c2.4,-1.2,17.1,-8.4,17.5,-8.6c0.3,-0.2,4.6,-0.1,4.6,-0.1c0,0,1.3,0.4,1.3,0.5" class="g9_2" />
<path d="M698,1013.9l-7.4,5.3c0,0,-2.9,2.2,-0.6,6.9c2.3,4.7,4,5.5,6.4,4.7c2.4,-0.8,9.4,-3,9.4,-3" class="g9_2" />
<path d="M698.9,1022.3c-0.9,-3,-1,-4.9,-0.8,-7.4" class="g8_2" />
<path d="M722.4,1000.7l11,-5.4l1.1,0.5c0,0,2.4,1.5,0.2,5.7" class="g9_2" />
<path d="M734.7,1001.5l-11.2,5.4" class="g9_2" />
<path d="M723.5,1006.9l-1,-0.5l0,-5.7" class="g8_2" />
<path d="M722.5,1006.4l11.3,-5.6c0,0,2.1,-4.9,-0.4,-5.5" class="g8_2" />
<path d="M733.8,1000.8l0.9,0.7" class="g8_2" />
<path d="M730.8,1005.9l11,-5.3l1,0.4c0,0,2.5,1.5,0.2,5.7" class="g9_2" />
<path d="M743,1006.7l-11.1,5.5" class="g9_2" />
<path d="M731.9,1012.2l-1,-0.6l0,-5.7" class="g8_2" />
<path d="M730.9,1011.6l11.3,-5.6c0,0,2.1,-4.9,-0.4,-5.4" class="g8_2" />
<path d="M742.2,1006l0.8,0.7" class="g8_2" />
<path d="M732.3,1005.2l-2,-1.6" class="g9_2" />
<path d="M719.8,998.9c-1,0.1,-1.1,0.7,-1.1,1.5c0,0.9,0.2,5.9,0.2,5.9c0,0,0.1,1.4,0.8,2c0.6,0.5,2.7,3,2.7,3c0,0,0.8,1,0.8,2.1c0,1.1,1.2,7.4,1.2,7.4c0,0,0.5,1.4,1.5,2.1c1.1,0.6,3.8,2.3,3.8,2.3c0,0,1.4,0.3,1.5,-0.6" class="g8_2" />
<path d="M726.4,1015.7l14.6,-7.2c1.1,-0.5,2.6,-0.4,3.4,1c0.8,1.3,0.1,2.7,-0.9,3.2c-0.9,0.5,-14.6,7.1,-14.6,7.1" class="g9_2" />
<path d="M731.6,1019.9l3.3,-1.6c0,0,0.8,-0.4,0.9,-1.7" class="g9_2" />
<path d="M735,1018l-2,-0.2" class="g8_2" />
<path d="M726.4,1015.7c-0.8,0.4,-0.5,2.1,-0.2,2.7c0.3,0.6,1.4,2.1,2.7,1.4" class="g8_2" />
<path d="M732,997.4c-0.6,-0.1,-1.3,0.4,-1.6,1.4c-0.4,1,-0.2,1.9,0.3,2.1" class="g8_2" />
<path d="M730.8,1001c0.5,0.2,1.3,-0.5,1.7,-1.5c0.3,-1.1,0.1,-2,-0.4,-2.2" class="g9_2" />
<path d="M732.5,998c-0.4,0.1,-0.8,0.6,-1,1.3c-0.2,0.6,-0.2,1.1,-0.1,1.5" class="g8_2" />
<path d="M740.4,1002.7c-0.6,-0.2,-1.2,0.4,-1.6,1.4c-0.3,1,-0.2,1.9,0.4,2" class="g8_2" />
<path d="M739.2,1006.3c0.6,0.1,1.4,-0.5,1.7,-1.6c0.4,-1,0.2,-2,-0.4,-2.1" class="g9_2" />
<path d="M741,1003.3c-0.4,0.1,-0.8,0.6,-1.1,1.3c-0.1,0.6,-0.1,1.1,-0.1,1.5" class="g8_2" />
<path d="M524,867.9c-0.6,0.4,-1.6,-0.2,-2.2,-1.4c-0.5,-1.2,-0.4,-2.5,0.2,-2.9" class="g8_2" />
<path d="M522,863.6c0.7,-0.4,1.6,0.3,2.2,1.5c0.5,1.1,0.5,2.4,-0.2,2.8" class="g8_2" />
<path d="M317.1,822.6l0.2,-6.8" class="g9_2" />
<path d="M314.8,824.6l-7,-4" class="g8_2" />
<path d="M317.1,822.7l0.2,-6.6" class="g9_2" />
<path d="M315.9,828.8c1.3,0.8,2.8,0.1,3.8,-1.6c0.9,-1.8,0.7,-3.6,-0.5,-4.3" class="g8_2" />
<path d="M319.2,822.7c-1.3,-0.7,-3,0.1,-4,1.9c-0.9,1.8,-0.7,3.8,0.5,4.5" class="g9_2" />
<path d="M316.6,829.5c1.3,0.7,3,-0.2,4,-1.9c0.9,-1.8,0.7,-3.8,-0.5,-4.5" class="g8_2" />
<path d="M319.2,822.7l0.9,0.4" class="g9_2" />
<path d="M315.7,829.1c0.1,0,0.9,0.4,0.9,0.4" class="g9_2" />
<path d="M315.5,826.9c0.3,-0.4,1.2,-1.1,1.3,0.6" class="g8_2" />
<path d="M317,823.8c0,1.7,0.9,1,1.2,0.8c0.3,-0.2,0.4,0.7,0.4,0.7" class="g8_2" />
<path d="M316.8,827.6l0.9,-0.5" class="g8_2" />
<path d="M317.7,827.1c-0.4,-0.9,-0.3,-1.5,0.9,-1.8" class="g8_2" />
<path d="M315.5,826.9l-0.1,-0.7" class="g8_2" />
<path d="M317,823.8c-0.5,0.2,-0.6,0.4,-0.6,0.4" class="g8_2" />
<path d="M315.4,826.2c0.7,-0.4,1.3,-0.9,1,-2" class="g8_2" />
<path d="M323.7,830.7l-1,-0.5l-6.6,3.1c0,0,-1.2,0.7,-1.2,1.8c0,0.1,0,0.3,0,0.6m0,5.7c0,4.4,0,9.5,0,9.5c0,0,0.2,1.2,1.1,1.5" class="g9_2" />
<path d="M313.3,840.3l-6.6,3.3l0,1.3l8.2,4.8" class="g9_2" />
<path d="M306.7,844.9l8.2,-4" class="g8_2" />
<path d="M316.6,841.9l0,2.2c0,0,-0.1,1.1,0.7,0.9" class="g8_2" />
<path d="M317.3,845c1,-0.3,1.9,-1.5,1.9,-3.3" class="g9_2" />
<path d="M317.3,842l0,2.1c0,0,-0.1,1.1,0.8,0.9" class="g8_2" />
<path d="M320.3,837.8l2,-1.1c0,0,0.6,-0.2,0.6,-1.4c0,-1.1,0,-5,0,-5" class="g8_2" />
<path d="M320.2,838.8l2.9,-1.6c0,0,0.6,-0.4,0.6,-1.6c0,-1.2,0,-5,0,-5" class="g8_2" />
<path d="M314.9,850.9c0,-0.7,0.7,-1,1.5,-1.4c0.7,-0.4,6.1,-3.1,6.1,-3.1l0.2,-6.2" class="g8_2" />
<path d="M316.3,851.6c-0.3,-0.3,-0.5,-0.9,0.2,-1.2c0.6,-0.4,6.6,-3.4,6.6,-3.4l0.3,-6.2" class="g8_2" />
<path d="M323.4,840.8l-0.7,-0.6l-3.5,1.5" class="g9_2" />
<path d="M315.1,841c1.2,0.8,2.8,0.1,3.7,-1.6c1,-1.8,0.7,-3.6,-0.5,-4.3" class="g8_2" />
<path d="M318.3,834.9c-1.2,-0.7,-3,0.1,-3.9,1.9c-1,1.7,-0.8,3.8,0.5,4.5" class="g9_2" />
<path d="M315.8,841.7c1.2,0.7,3,-0.2,3.9,-1.9c1,-1.8,0.8,-3.8,-0.5,-4.5" class="g8_2" />
<path d="M318.3,834.9l0.9,0.4" class="g9_2" />
<path d="M314.9,841.3c0,0,0.9,0.4,0.9,0.4" class="g9_2" />
<path d="M314.6,839.1c0.3,-0.4,1.3,-1.1,1.3,0.6" class="g8_2" />
<path d="M316.2,836c-0.1,1.7,0.8,1,1.1,0.8c0.3,-0.2,0.4,0.7,0.4,0.7" class="g8_2" />
<path d="M316,839.8l0.8,-0.5" class="g8_2" />
<path d="M316.8,839.3c-0.4,-0.9,-0.3,-1.5,0.9,-1.8" class="g8_2" />
<path d="M314.6,839.1l-0.1,-0.7" class="g8_2" />
<path d="M316.2,836c-0.6,0.2,-0.7,0.4,-0.7,0.4" class="g8_2" />
<path d="M314.5,838.4c0.8,-0.4,1.3,-0.9,1,-2" class="g8_2" />
<path d="M316.7,833l0,-3.4" class="g9_2" />
<path fill-rule="evenodd" d="M290.9,598.9l9.8,-4.9l-12.2,-6.8l-9.8,4.8l-13.2,-7.8l-5.1,23.1l42.3,-1.6Z" class="g14_2" />
<path d="M260.5,607.5l0,-6" class="g8_2" />
<path fill-rule="evenodd" d="M265.5,578.9l-5.1,23l0,5.4l5.2,-23.1l13,7.8l9.9,-5l12.2,7l0,-5.3l-12.2,-6.8l-9.9,4.8Z" class="g21_2" />
<path fill-rule="evenodd" d="M290.8,599l12,6.7l0,-5.3l-6.9,-3.9Z" class="g21_2" />
<path d="M290.8,599l9.9,-4.9l0,-5.4l-12.2,-7l-9.9,5l-13.1,-7.8l-5.1,23l0,5.4l42.3,-1.5l0,-5.3l-7,-3.9" class="g9_2" />
<path d="M278.6,592l-13.1,-7.8l-5.1,23.1l42.3,-1.5L290.8,599" class="g8_2" />
<path d="M278.7,592l9.8,-4.8" class="g8_2" />
<path d="M290.9,598.9l9.8,-4.8" class="g8_2" />
<path d="M288.5,587l12.2,7.1" class="g8_2" />
<path d="M297.8,597.8l-2.1,-1.2" class="g8_2" />
<path d="M278.7,586.7l9.8,-4.8" class="g8_2" />
<path d="M288.5,581.7l12.2,7.1" class="g8_2" />
<path d="M265.5,584.5l0,-6" class="g8_2" />
<path d="M278.5,591.5l0,-5" class="g8_2" />
<path d="M288.5,587.5l0,-6" class="g8_2" />
<path d="M300.5,593.5l0,-5" class="g8_2" />
<path fill-rule="evenodd" d="M317.8,949.8l20.1,11.6l-1.1,-14L323,946Z" class="g11_2" />
<path d="M326.6,954.9c-18.1,12.1,-35.3,22.9,-26.2,66.2c6.6,31,63.2,30.1,93.3,16.2" class="g22_2" />
<path fill-rule="evenodd" d="M403.1,1037.4l-5.3,2.4c0,0,-2.5,0.8,-4.1,-2.5c-1.7,-3.3,-1,-5.1,0.3,-5.7c1.2,-0.7,3.8,-2,3.8,-2l-0.3,3.2l0.1,0.8l0.7,0.8Z" class="g18_2" />
<path d="M313,935.6L312.7,946c0,0,0,0.8,1.3,1.5c1.2,0.8,71.2,41.3,71.2,41.3c0,0,0.7,0.3,1.8,-0.3c1,-0.6,170.9,-82.9,170.9,-82.9c0,0,1.4,-0.1,1.4,-1.8c0,-1.7,-0.1,-10.1,-0.1,-10.1L487.2,850l-0.7,0.4L485.8,850Z" class="g9_2" />
<image x="102" y="102" width="114" height="39" xlink:href="img/1.png" />
</svg>