<?xml version="1.0" encoding="UTF-8" standalone="no"?>
<!DOCTYPE svg PUBLIC "-//W3C//DTD SVG 1.1//EN"
"http://www.w3.org/Graphics/SVG/1.1/DTD/svg11.dtd">
<svg version="1.1" xmlns="http://www.w3.org/2000/svg" xmlns:xlink="http://www.w3.org/1999/xlink">
<defs>
<style type="text/css"><![CDATA[
.g11_3{
fill: #E0E0E0;
}
.g13_3{
fill: none;
stroke: #000000;
stroke-width: 4;
stroke-linecap: round;
stroke-linejoin: round;
stroke-miterlimit: 2;
}
.g2_3{
fill: none;
stroke: #FFFFFF;
stroke-width: 3;
stroke-linecap: round;
stroke-linejoin: miter;
stroke-miterlimit: 2;
}
.g3_3{
fill: #FFFFFF;
stroke: #000000;
stroke-width: 2;
stroke-linecap: butt;
stroke-linejoin: miter;
stroke-miterlimit: 2;
}
.g1_3{
fill: #B3B3B3;
}
.g7_3{
fill: #636363;
stroke: #000000;
stroke-width: 1;
stroke-linecap: butt;
stroke-linejoin: miter;
stroke-miterlimit: 2;
}
.g9_3{
fill: none;
stroke: #000000;
stroke-width: 2;
stroke-linecap: round;
stroke-linejoin: round;
stroke-miterlimit: 2;
}
.g14_3{
fill: none;
stroke: #FFFFFF;
stroke-width: 2;
stroke-linecap: round;
stroke-linejoin: round;
stroke-miterlimit: 2;
}
.g5_3{
fill: none;
stroke: #000000;
stroke-width: 2;
stroke-linecap: butt;
stroke-linejoin: miter;
stroke-miterlimit: 2;
}
.g15_3{
fill: none;
stroke: #808080;
stroke-width: 2;
stroke-linecap: round;
stroke-linejoin: round;
stroke-miterlimit: 2;
}
.g12_3{
stroke: #000000;
stroke-width: 2;
stroke-linecap: round;
stroke-linejoin: round;
stroke-miterlimit: 2;
}
.g4_3{
fill: none;
stroke: #000000;
stroke-width: 1;
stroke-linecap: butt;
stroke-linejoin: miter;
stroke-miterlimit: 2;
}
.g10_3{
fill: #FFFFFF;
}
.g6_3{
}
.g8_3{
fill: none;
stroke: #000000;
stroke-width: 1;
stroke-linecap: round;
stroke-linejoin: round;
stroke-miterlimit: 2;
}
]]></style>
</defs>
<path fill-rule="evenodd" d="M55,54l824,0l0,1101l-824,0Z" class="g1_3" />
<path d="M55.5,256.5l27,0" class="g2_3" />
<path d="M55.5,430.5l27,0" class="g2_3" />
<path d="M55.5,605.5l27,0" class="g2_3" />
<path d="M55.5,779.5l27,0" class="g2_3" />
<path d="M55.5,953.5l27,0" class="g2_3" />
<path d="M852.5,256.5l28,0" class="g2_3" />
<path d="M852.5,605.5l28,0" class="g2_3" />
<path d="M236.5,82.5l0,-27" class="g2_3" />
<path d="M390.5,82.5l0,-27" class="g2_3" />
<path d="M544.5,82.5l0,-27" class="g2_3" />
<path d="M698.5,82.5l0,-27" class="g2_3" />
<path d="M236.5,1155.5l0,-28" class="g2_3" />
<path d="M390.5,1155.5l0,-28" class="g2_3" />
<path d="M544.5,1155.5l0,-28" class="g2_3" />
<path d="M698.5,1155.5l0,-28" class="g2_3" />
<path d="M852.5,430.5l28,0" class="g2_3" />
<path d="M852.5,779.5l28,0" class="g2_3" />
<path d="M852.5,953.5l28,0" class="g2_3" />
<path fill-rule="evenodd" d="M82,82l770,0l0,1045l-770,0Z" class="g3_3" />
<path d="M184.5,209.5l646,0" class="g4_3" />
<path d="M103.5,278.5l727,0" class="g4_3" />
<path d="M82,1097l770,0" class="g5_3" />
<path d="M466.5,1099.5l0,28" class="g4_3" />
<path d="M468.5,1099.5l0,28" class="g4_3" />
<path d="M272.5,1099.5l0,28" class="g4_3" />
<path d="M274.5,1099.5l0,28" class="g4_3" />
<path d="M664.5,1099.5l0,28" class="g4_3" />
<path d="M666.5,1099.5l0,28" class="g4_3" />
<path fill-rule="evenodd" d="M106,289l37,0l0,38l-37,0Z" class="g6_3" />
<path fill-rule="evenodd" d="M103.5,287.5l38,0l0,37l-38,0Z" class="g7_3" />
<path d="M274.5,1099.5l192,0" class="g8_3" />
<path d="M468.5,1099.5l196,0" class="g8_3" />
<path d="M666.5,1099.5l186,0" class="g8_3" />
<path d="M272.5,1099.5l-190,0" class="g8_3" />
<path d="M174.7,523.1c-1,0.3,-1.7,1.9,-1.7,1.9l0,506.1l0.1,0" class="g9_3" />
<path d="M174.4,523c-0.7,-0.5,-1.3,-0.5,-1.3,-1.8c0,-1.3,0,-41.4,0,-41.4c0,0,0.7,-1.6,2.3,-2.2C177.1,476.9,738.9,307,738.9,307" class="g9_3" />
<path d="M174.7,523.1L794.7,336" class="g8_3" />
<path d="M206.5,515.5l0,564" class="g8_3" />
<path d="M573.8,524l0,-61.4c0,0,-0.3,-2,-2,-2.3c-1.7,-0.4,-70.9,-21.9,-70.9,-21.9c0,0,-6.4,-1.2,-11.3,0c-4.9,1.2,-210.9,64.2,-210.9,64.2c0,0,-3.4,0.6,-3.4,3.8c0,3.2,0,60.4,0,60.4c0,0,-0.4,2.5,2.7,3.7c3.2,1.2,12.3,3.8,12.3,3.8" class="g9_3" />
<path d="M571.2,459.8c-0.1,0.3,4,-1.1,4,-1.1c0,0,0.5,-0.3,2.4,0.1c1.9,0.4,18.4,5.8,18.4,5.8c0,0,1.4,0.8,1.4,2.3c0,1.4,0,3.5,0,3.5c0,0,-0.3,0.9,-1.3,1.4c-0.9,0.5,-20.4,6.2,-20.4,6.2" class="g9_3" />
<path d="M597.4,470.4c0,-0.5,-0.2,-0.7,-0.8,-1c-0.5,-0.2,-19,-6,-19,-6c0,0,-0.8,-0.2,-1.3,0.3" class="g8_3" />
<path d="M461.6,591.6L795.2,692.7" class="g8_3" />
<path d="M494.5,441.5l0,55" class="g8_3" />
<path d="M497.5,442.5l0,55" class="g8_3" />
<path d="M386.9,488.7l-11.2,3.5l-0.2,5.8" class="g8_3" />
<path d="M375.5,498L387,494.7l-0.1,-6" class="g9_3" />
<path d="M378,496.4l0,-2.6l8.4,-2.5" class="g8_3" />
<path d="M375.7,492.2l2.3,1.6" class="g8_3" />
<path d="M386.9,507.7l-11.2,3.5l-0.2,5.8" class="g8_3" />
<path d="M375.5,517L387,513.7l-0.1,-6" class="g9_3" />
<path d="M378,515.5l0,-2.7l8.4,-2.5" class="g8_3" />
<path d="M375.7,511.2l2.3,1.6" class="g8_3" />
<path d="M420.3,478.9l-11.1,3.5l-0.2,5.7" class="g8_3" />
<path d="M409,488.1l11.5,-3.2l-0.2,-6" class="g9_3" />
<path d="M411.4,486.6l0,-2.7l8.5,-2.5" class="g8_3" />
<path d="M409.2,482.4l2.2,1.5" class="g8_3" />
<path d="M420.3,497.9l-11.1,3.5l-0.2,5.7" class="g8_3" />
<path d="M409,507.1l11.5,-3.2l-0.2,-6" class="g9_3" />
<path d="M411.4,505.6l0,-2.6l8.5,-2.5" class="g8_3" />
<path d="M409.2,501.4l2.2,1.6" class="g8_3" />
<path d="M364,513.3l0,-10.2l3.8,-1.7" class="g8_3" />
<path d="M366.6,512.6l0,-8.2l3.9,-1.7" class="g8_3" />
<path d="M364,513.3l4.3,-1.1c0,0,5.5,-2.3,3.1,-9.4" class="g9_3" />
<path d="M371.2,502.5c-0.6,-1.2,-1.8,-1.9,-3.4,-1.1" class="g8_3" />
<path d="M366.6,504.4L364,503.1" class="g8_3" />
<path d="M397.1,503.3l0,-10.2l3.8,-1.7" class="g8_3" />
<path d="M399.8,502.6l0,-8.1l3.8,-1.7" class="g8_3" />
<path d="M397.1,503.3l4.3,-1c0,0,5.6,-2.4,3.2,-9.5" class="g9_3" />
<path d="M404.4,492.6c-0.6,-1.2,-1.8,-1.9,-3.5,-1.2" class="g8_3" />
<path d="M399.8,494.5l-2.7,-1.4" class="g8_3" />
<path d="M459.5,468.8c0.6,0.4,0.6,0.9,0.7,1.3c0,0.4,-0.1,6.1,-0.1,6.1c0,0,-0.1,1.5,-1.2,2c-1,0.5,-11.6,3.7,-11.6,3.7c0,0,-1.5,0.2,-1.7,-0.2" class="g9_3" />
<path d="M445.2,480.9l0,-6.2c0,0,0.3,-2,2,-2.5c1.7,-0.6,11.4,-3.7,11.4,-3.7" class="g8_3" />
<path d="M447.1,482.1l0,-6.2c0,0,0.3,-2,2,-2.6c1.7,-0.5,11.4,-3.7,11.4,-3.7" class="g8_3" />
<path d="M449.9,478.6L449.8,476l9.2,-3" class="g9_3" />
<path d="M449.9,478.6l2.4,1" class="g9_3" />
<path d="M449.9,478.6l9.4,-3.1" class="g8_3" />
<path d="M459.5,481.9c0.6,0.4,0.6,1,0.7,1.4c0,0.3,-0.1,6,-0.1,6c0,0,-0.1,1.5,-1.2,2c-1,0.5,-11.6,3.7,-11.6,3.7c0,0,-1.5,0.2,-1.7,-0.2" class="g9_3" />
<path d="M445.2,494l0,-6.2c0,0,0.3,-2,2,-2.5c1.7,-0.6,11.4,-3.7,11.4,-3.7" class="g8_3" />
<path d="M447.1,495.2l0,-6.2c0,0,0.3,-2,2,-2.6c1.7,-0.5,11.4,-3.7,11.4,-3.7" class="g8_3" />
<path d="M449.9,491.7l-0.1,-2.5l9.2,-3" class="g9_3" />
<path d="M449.9,491.7l9.4,-3.1" class="g8_3" />
<path d="M295.5,576.5c0,-1.1,3,-2,6.6,-2c3.7,0,6.6,0.9,6.6,2" class="g8_3" />
<path d="M308.7,576.5c0,1,-2.9,1.9,-6.6,1.9c-3.6,0,-6.6,-0.9,-6.6,-1.9" class="g8_3" />
<path d="M308,575.9c0,1.2,-2.6,2.1,-5.9,2.1c-3.3,0,-6,-0.9,-6,-2.1" class="g8_3" />
<path d="M297.4,575.6c0.5,-0.6,2.3,-1.1,4.7,-1.1c2.4,0,4.2,0.5,4.7,1.1" class="g8_3" />
<path d="M299.8,576l0.8,-0.4c0,0,1.4,1.3,3.3,0.1" class="g8_3" />
<path d="M303.9,575.7l0.8,0.3c0.2,0.1,-3.1,1.7,-0.2,1.7" class="g8_3" />
<path d="M299.8,576c1.3,0.7,1.4,1.3,-0.1,1.7" class="g8_3" />
<path d="M328,586.2c0,-1.1,3,-1.9,6.6,-1.9c3.7,0,6.6,0.8,6.6,1.9" class="g8_3" />
<path d="M341.2,586.2c0,1.1,-2.9,1.9,-6.6,1.9c-3.6,0,-6.6,-0.8,-6.6,-1.9" class="g8_3" />
<path d="M340.5,585.7c0,1.1,-2.6,2,-5.9,2c-3.3,0,-6,-0.9,-6,-2" class="g8_3" />
<path d="M329.9,585.4c0.5,-0.6,2.3,-1.2,4.7,-1.2c2.4,0,4.2,0.5,4.7,1.2" class="g8_3" />
<path d="M332.3,585.7l0.8,-0.4c0,0,1.4,1.3,3.3,0.1" class="g8_3" />
<path d="M336.4,585.4l0.8,0.4c0.2,0.1,-3.1,1.6,-0.2,1.6" class="g8_3" />
<path d="M332.3,585.8c1.3,0.6,1.4,1.3,-0.1,1.6" class="g8_3" />
<path d="M499.4,515c0,-1,3,-1.9,6.6,-1.9c3.7,0,6.6,0.9,6.6,1.9" class="g8_3" />
<path d="M512.6,515c0,1.1,-2.9,2,-6.6,2c-3.6,0,-6.6,-0.9,-6.6,-2" class="g8_3" />
<path d="M511.9,514.5c0,1.1,-2.6,2,-5.9,2c-3.3,0,-6,-0.9,-6,-2" class="g8_3" />
<path d="M501.3,514.2c0.5,-0.6,2.3,-1.1,4.7,-1.1c2.4,0,4.2,0.4,4.7,1.1" class="g8_3" />
<path d="M503.7,514.6l0.8,-0.4c0,0,1.4,1.3,3.3,0" class="g8_3" />
<path d="M507.8,514.2l0.8,0.4c0.2,0.1,-3.1,1.6,-0.2,1.6" class="g8_3" />
<path d="M503.7,514.6c1.3,0.7,1.4,1.3,-0.1,1.6" class="g8_3" />
<path d="M531.4,524.8c0,-1.1,3,-1.9,6.6,-1.9c3.7,0,6.6,0.8,6.6,1.9" class="g8_3" />
<path d="M544.6,524.8c0,1.1,-2.9,1.9,-6.6,1.9c-3.6,0,-6.6,-0.8,-6.6,-1.9" class="g8_3" />
<path d="M543.9,524.3c0,1.1,-2.6,2,-5.9,2c-3.3,0,-6,-0.9,-6,-2" class="g8_3" />
<path d="M533.3,524c0.5,-0.6,2.3,-1.2,4.7,-1.2c2.4,0,4.2,0.5,4.7,1.2" class="g8_3" />
<path d="M535.7,524.3l0.8,-0.4c0,0,1.4,1.3,3.3,0.1" class="g8_3" />
<path d="M539.8,524l0.8,0.4c0.2,0,-3.1,1.6,-0.2,1.6" class="g8_3" />
<path d="M535.7,524.4c1.3,0.6,1.4,1.3,0,1.6" class="g8_3" />
<path d="M574.1,524.1c-0.2,1.3,-1.7,1.9,-2.8,1.8c-1.1,-0.1,-59.1,-18.2,-59.1,-18.2c0,0,-8.9,-1.9,-15.8,-0.1c-7,1.9,-202.2,60.9,-202.2,60.9c0,0,-1.6,0.1,-2.7,1.2" class="g8_3" />
<path d="M451.1,561.9c1.7,0.8,4.1,1,6.3,0.3c2.2,-0.8,12,-4.1,12,-4.1" class="g9_3" />
<path d="M574.1,528.8c-0.2,1.3,-1.7,1.9,-2.8,1.8c-1.1,-0.1,-59.1,-18.1,-59.1,-18.1c0,0,-8.9,-2,-15.8,-0.1c-7,1.8,-202.2,60.9,-202.2,60.9c0,0,-3.4,0.1,-3.5,3.5" class="g8_3" />
<path d="M310.6,497.7l-10.7,3.4c0,0,-3,1.5,-3,4.9c0,3.3,0,45.7,0,45.7c0,0,-0.2,3.6,3.1,2.8c3.4,-0.8,11.1,-3.4,11.1,-3.4c0,0,3.3,-1.3,3.5,-5.4c0.2,-4.1,-0.1,-45.3,-0.1,-45.3c0,0,-0.1,-3.8,-3.9,-2.7Z" class="g8_3" />
<path d="M305.2,550.2c2.3,-0.6,6.8,-5,6.8,-10.7c-0.1,-5.7,-0.3,-32.4,-0.3,-32.4c0,0,-0.4,-3.3,-2.8,-4.2" class="g9_3" />
<path d="M299.4,539.9l0.1,4.4c0,0,0.6,2.4,1.4,3.3" class="g8_3" />
<path d="M309.9,543.6l-5.8,-1.8c0,0,-3.4,-0.5,-3.6,3.8c-0.2,4.4,3.3,4.4,4.7,4.6" class="g9_3" />
<path d="M303.1,540.7l-3.7,-0.8c-0.8,-0.3,-1.5,-0.8,-1.5,-2.2c-0.1,-1.4,-0.2,-19.8,-0.2,-19.8c0,0,0,-3.1,2.3,-3c2.3,0.2,5.2,-0.2,5.2,-0.2l2.4,1l3.2,0.9" class="g9_3" />
<path d="M299.4,539.9c2.7,-1.6,6.1,-4,6.1,-4c0,0,1.4,-0.1,1.2,-3.3c-0.2,-3.3,0,-13.9,0,-13.9c0,0,-0.6,-4,-2.6,-3.9" class="g8_3" />
<path d="M303.8,543.4c0.8,0.3,1.1,1.4,0.8,2.5c-0.4,1.2,-1.3,1.9,-2.1,1.6c-0.8,-0.2,-1.1,-1.3,-0.8,-2.5c0.4,-1.1,1.3,-1.8,2.1,-1.6Z" class="g8_3" />
<path d="M310.1,506.3l-5.7,-1.8c0,0,-3.4,-0.5,-3.7,3.8c-0.2,4.4,6,5.1,7.4,5.4" class="g9_3" />
<path d="M304.1,506.1c0.7,0.3,1.1,1.4,0.7,2.5c-0.4,1.2,-1.3,1.9,-2,1.6C302,510,301.6,508.9,302,507.7c0.4,-1.1,1.3,-1.8,2.1,-1.6Z" class="g8_3" />
<path d="M303.7,549.5c0.7,-1.3,1.6,-2.6,2.1,-2.7" class="g8_3" />
<path d="M306.1,543c-0.5,0.4,-0.6,2.9,-0.2,3.8" class="g8_3" />
<path d="M305.9,546.8l1.7,0.5" class="g8_3" />
<path d="M303.8,512.1c0.7,-1.3,1.7,-2.6,2.2,-2.7" class="g8_3" />
<path d="M306.2,505.6c-0.5,0.4,-0.5,2.9,-0.2,3.8" class="g8_3" />
<path d="M306,509.4l5.2,1.8" class="g8_3" />
<path d="M308.6,513.9c0.7,-1.3,1.7,-2.6,2.2,-2.7" class="g8_3" />
<path d="M307.4,535.4l3.9,1.8" class="g8_3" />
<path d="M308.9,502.9c-0.9,-0.5,-4.2,-0.4,-5.1,0.5" class="g8_3" />
<path d="M300.2,509c-0.4,1.2,-0.2,5.9,-0.2,5.9" class="g8_3" />
<path d="M353.8,498.4l-11.2,3.5l-0.1,5.8" class="g8_3" />
<path d="M342.5,507.7l11.4,-3.2l-0.1,-6.1" class="g9_3" />
<path d="M344.9,506.2l0,-2.7l8.4,-2.5" class="g8_3" />
<path d="M342.6,501.9l2.3,1.6" class="g8_3" />
<path d="M353.8,517.5L342.6,521l-0.1,5.7" class="g8_3" />
<path d="M342.5,526.7l11.4,-3.2l-0.1,-6" class="g9_3" />
<path d="M344.9,525.2l0,-2.7l8.4,-2.5" class="g8_3" />
<path d="M342.6,521l2.3,1.5" class="g8_3" />
<path d="M330.9,523l0,-10.2l3.8,-1.7" class="g8_3" />
<path d="M333.6,522.3l0,-8.2l3.8,-1.7" class="g8_3" />
<path d="M330.9,523l4.3,-1c0,0,5.6,-2.4,3.1,-9.5" class="g9_3" />
<path d="M338.2,512.2c-0.7,-1.1,-1.9,-1.8,-3.5,-1.1" class="g8_3" />
<path d="M333.6,514.1l-2.7,-1.3" class="g8_3" />
<path d="M206.9,514.4l65.3,19.8" class="g8_3" />
<path fill-rule="evenodd" d="M398.8,248.9C414.1,240,429.6,231.1,445,222.1c0.6,-0.7,1.2,-1.5,1.7,-2.3c0.3,-0.3,0.3,-0.6,0.3,-0.7c-0.1,-0.2,-0.4,-0.3,-0.7,-0.3c-1,0.1,-2.1,0.2,-3.1,0.3c-15.2,8.8,-30.4,17.7,-45.7,26.5c0.4,1.1,0.8,2.2,1.3,3.3Z" class="g10_3" />
<path d="M387.5,255.4c19.1,-11.1,38.3,-22.2,57.5,-33.3c0.6,-0.7,1.2,-1.5,1.7,-2.3c0.3,-0.3,0.3,-0.6,0.3,-0.7c-0.1,-0.2,-0.4,-0.3,-0.7,-0.3c-1,0.1,-2.1,0.2,-3.1,0.3c-19,11,-38,21.9,-57,33" class="g9_3" />
<path d="M444.1,221.9c0.1,-0.6,0.6,-1.1,1,-1.4c0.4,-0.4,1,-0.7,1.6,-0.9" class="g8_3" />
<path d="M442.6,220.1c0.8,0,1.5,-0.2,2.2,-0.4c0.6,-0.2,1.2,-0.5,1.6,-0.8" class="g8_3" />
<path fill-rule="evenodd" d="M403.2,236.9c-0.8,0.5,-1.7,1,-2.6,1.5c-0.4,0.3,-0.8,0.7,-1.1,1.1c-0.3,0.4,-0.6,1,-0.7,1.6c0,0.4,0,0.8,-0.1,0.9c-0.2,0.1,-0.4,0.1,-0.7,0c-0.8,-0.6,-1.8,-1,-2.7,-1.1c-0.9,-0.1,-1.9,0.1,-2.7,0.4c-9.2,5.4,-18.5,10.7,-27.7,16c-2,2,-3.2,4,-3.5,5.9c-0.3,1.9,0.2,3.8,1.5,5.6c1.7,1.9,3.5,3.1,5.3,3.4c1.9,0.3,4,-0.2,6.1,-1.5c8.7,-5,17.3,-10,26,-15c0.9,-0.8,1.6,-1.7,2,-2.5c0.4,-0.9,0.6,-1.9,0.6,-2.9c0,-0.4,0.2,-0.7,0.3,-0.8c0.2,0,0.5,0.1,0.8,0.4c0.5,0.2,1,0.5,1.5,0.5c0.4,0,0.9,-0.1,1.3,-0.3c1,-0.5,2.1,-1.1,3.1,-1.7c0.9,-0.9,1.3,-2.1,1.2,-3.4c0,-1.3,-0.7,-2.9,-1.7,-4.6c-1.1,-1.5,-2.2,-2.5,-3.2,-3.1c-1,-0.6,-2,-0.7,-3,-0.4Z" class="g10_3" />
<path d="M398.9,242c-0.1,-1.5,0.4,-2.8,1.3,-3.3c1,-0.5,1.9,-1.1,2.9,-1.7c1.8,-1,4.8,0.7,6.6,3.9c1.8,3.1,1.8,6.5,0,7.6c-0.9,0.5,-1.9,1.1,-2.9,1.6c-0.9,0.6,-2.3,0.3,-3.6,-0.5" class="g9_3" />
<path d="M402.3,250.9c-0.1,-1.5,-0.6,-3.2,-1.6,-4.9c-0.7,-1.2,-1.6,-2.3,-2.6,-3.1" class="g8_3" />
<path d="M403,248.9c-0.1,-1.1,-0.4,-2.3,-1.1,-3.5c-0.7,-1.2,-1.6,-2.1,-2.4,-2.7" class="g8_3" />
<path d="M404.9,249.5c-0.7,-0.2,-1.2,-0.2,-1.5,-0.2c-0.3,0.1,-0.5,0.4,-0.5,0.8c0,1.2,-0.2,2.4,-0.6,3.2c-0.4,0.9,-1.1,1.7,-1.8,2.2c-9.3,5.3,-18.5,10.7,-27.7,16c-1.2,0.6,-2,0.8,-3.4,0.8c-4.4,0,-8,-3.7,-8,-8.1c0,-2.6,1.4,-5.1,3.5,-6.6c9.1,-5.4,18.3,-10.7,27.6,-16.1c0.7,-0.3,1.6,-0.5,2.5,-0.5c0.8,0.1,1.9,0.5,3,1c0.4,0.3,0.9,0.3,1.2,0.1c0.3,-0.1,0.5,-0.5,0.6,-1.1" class="g9_3" />
<path d="M366.2,257.6c2.1,0.2,4.5,2.1,6.2,5c1.5,2.7,2,5.6,1.4,7.5" class="g8_3" />
<path d="M406.3,250c1.4,-1.1,1.3,-4.1,-0.3,-7c-1.7,-2.8,-4.3,-4.5,-6,-3.8" class="g8_3" />
<path d="M370.1,257.7L395,243.2" class="g8_3" />
<path d="M372.5,259.1l24.2,-14.4" class="g8_3" />
<path d="M375.1,264.1l24.5,-14.8" class="g8_3" />
<path d="M375.6,266.9L400.1,252" class="g8_3" />
<path d="M372.5,259.1c-1,0.6,-3.9,-0.1,-2.4,-1.4" class="g8_3" />
<path d="M375.1,264.1c-1.4,0.9,-1.2,3.6,0.5,2.8" class="g8_3" />
<path d="M400.1,252c1.4,-0.7,1.7,-4.1,-0.5,-2.7" class="g8_3" />
<path d="M396.7,244.7c1.5,-0.8,0,-2.5,-1.7,-1.5" class="g8_3" />
<path fill-rule="evenodd" d="M219.3,230.3c0,0,0.7,-0.6,0.9,-0.7c0.4,-0.2,0.8,-0.4,1.2,-0.6c0.3,-0.4,0.6,-0.8,0.9,-1.2c0,0,0.1,-0.2,0.1,-0.2c-0.1,-0.1,-0.3,-0.1,-0.3,-0.1c-0.2,0.1,-0.4,0.2,-0.7,0.4c-0.1,0.1,-0.3,0.3,-0.5,0.4c-0.1,0.2,-0.2,0.4,-0.4,0.6c-0.4,0.3,-0.8,0.6,-1.2,0.8c0,0.2,0,0.4,0,0.6Z" class="g11_3" />
<path d="M219.3,230.3c0.3,-0.2,0.6,-0.4,0.9,-0.7c0.4,-0.2,0.8,-0.3,1.2,-0.5c0.3,-0.5,0.7,-1,1.1,-1.4c0.1,-0.3,0.1,-0.4,0.1,-0.5c-0.1,-0.1,-0.2,-0.2,-0.5,-0.2c-0.6,0.1,-1.2,0.1,-1.9,0.2c-0.3,0.3,-0.6,0.5,-0.9,0.8c-0.4,0.2,-0.8,0.3,-1.1,0.5" class="g9_3" />
<path d="M220.6,228.9c0.1,-0.3,0.3,-0.6,0.6,-0.8c0.3,-0.2,0.6,-0.5,0.9,-0.6" class="g8_3" />
<path d="M220.2,227.8c0.3,0,0.6,-0.1,0.9,-0.2c0.3,-0.1,0.6,-0.3,0.9,-0.5" class="g9_3" />
<path fill-rule="evenodd" d="M219.3,230.3c-0.1,0.1,-0.1,0.2,-0.1,0.3c-1.9,1.1,-3.7,2.1,-5.5,3.2c-0.2,0,-0.4,0.1,-0.6,0.1c0,0,-0.1,0,-0.2,0c0,0,-0.1,-0.1,-0.2,-0.1c-0.3,-0.2,-0.5,-0.4,-0.6,-0.6c-0.1,-0.2,-0.2,-0.4,-0.2,-0.7c0,-0.2,0,-0.3,0.1,-0.4c0,-0.1,0,-0.2,0.1,-0.3c1.8,-1.1,3.6,-2.1,5.5,-3.2c0.1,0,0.2,0,0.3,-0.1c0.1,0,0.2,0,0.3,0c0.1,0,0.3,0.1,0.4,0.2c0.2,0.1,0.3,0.3,0.5,0.5c0.1,0.2,0.1,0.3,0.2,0.5c0,0.2,0,0.4,0,0.6Z" class="g10_3" />
<path d="M211.9,232.7l0,-0.3l0,-0.1l0.1,-0.1l0,-0.1l0,-0.2l0.1,-0.1" class="g9_3" />
<path d="M212.5,233.7l0.4,0.2" class="g9_3" />
<path d="M212.5,233.7l0,-0.1l-0.2,-0.1l-0.1,-0.1l-0.1,-0.1L212,233.1l0,-0.1l-0.1,-0.2l0,-0.1" class="g9_3" />
<path d="M211.9,232.7l0,-0.2l0.1,-0.1l0,-0.1l0.1,0l0.1,0l0.1,0l0.2,0l0.1,0.1l0.1,0.1l0.1,0.1l0.1,0.1l0.1,0.2l0,0.1l0.1,0.2l0,0.1" class="g8_3" />
<path d="M212.9,231.7l0,0.2L213,232l0,0.2l0.1,0.1l0.1,0.1l0.2,0.1l0.1,0.1l0.2,0.1" class="g8_3" />
<path d="M213.5,233.3l0,0.1l0.1,0.1l0,0.1l0,0.1l0.1,0.1" class="g8_3" />
<path d="M213.1,233.3l0,0.2l-0.1,0.1l-0.1,0.1l-0.1,0l-0.1,0l-0.1,0l-0.1,0" class="g8_3" />
<path d="M212.1,231.8l0.1,0l0.1,0l0.1,0l0.2,0l0.1,0l0.2,-0.1" class="g8_3" />
<path d="M213.7,232.7l-0.1,0.2l0,0.1l0,0.1l-0.1,0.1l0,0.1" class="g8_3" />
<path d="M213.7,233.8l-0.2,0l-0.1,0.1l-0.2,0l-0.1,0l-0.1,0l-0.1,0" class="g9_3" />
<path d="M212.1,231.8l5.5,-3.2" class="g9_3" />
<path d="M212.9,231.7l5.5,-3.2" class="g8_3" />
<path d="M213.7,232.7l5.5,-3.2" class="g8_3" />
<path d="M213.7,233.8l5.5,-3.2" class="g9_3" />
<path d="M217.6,228.6l0.1,0l0.2,-0.1l0.1,0l0.1,0l0.1,0l0.1,0" class="g9_3" />
<path d="M219.3,230l0,-0.1l0,-0.2l0,-0.2l-0.1,-0.2l-0.1,-0.2L218.9,229l-0.1,-0.2l-0.2,-0.1l-0.1,-0.1" class="g8_3" />
<path d="M219.3,230l0,0.1l0,0.1l0,0.1l-0.1,0.1l0,0.2" class="g9_3" />
<path d="M218.3,228.5l0.2,0.1" class="g9_3" />
<path d="M218.3,228.5l0.1,0l0.1,0.1l0.2,0.1l0.1,0.1l0.1,0.1L219,229l0,0.1l0.1,0.1l0,0.2l0.1,0.1l0,0.1l0.1,0.1l0,0.1l0,0.1l0,0.1" class="g9_3" />
<path fill-rule="evenodd" d="M210.3,229c0.7,0.2,1.3,0.4,2,0.6c0.7,0.1,1.3,0.1,2,0.2c0.4,0.1,0.7,0.3,1.1,0.6c0.3,0.2,0.6,0.6,0.8,1c0.3,0.6,0.6,1.2,0.6,1.7c0.1,0.4,0,0.9,-0.2,1.2c-0.2,0.4,-0.4,0.8,-0.5,1.2c-0.1,0.3,-0.3,0.8,-0.3,1.1c-0.1,0.7,-0.3,1.2,-0.5,1.7c-0.3,0.4,-0.6,0.7,-0.9,0.9c-2.1,1.2,-4.1,2.4,-6.2,3.6c-0.1,0.4,-0.3,0.8,-0.5,1.1c-0.2,0.2,-0.4,0.4,-0.7,0.5c-0.5,1.2,-1.3,2.3,-2.2,3.1c-0.9,0.9,-2.1,1.6,-3.4,2.2c-0.1,0.3,-0.5,0.7,-1.1,1.2c-0.6,0.4,-1.6,0.9,-2.7,1.5c-0.1,0.2,-0.3,0.5,-0.5,0.6c-0.1,0.2,-0.4,0.4,-0.6,0.5c-1.9,1,-3.8,2.1,-5.7,3.2c-0.2,0.4,-0.6,0.9,-0.9,1.2c-0.4,0.3,-0.8,0.6,-1.3,0.8c-2.5,1.5,-5.1,3,-7.8,4.5c0,0.4,0,0.9,0.1,1.4c-1.2,0.6,-2.3,1.3,-3.5,2c-0.2,-0.1,-0.3,-0.2,-0.5,-0.3c0,-0.6,0,-1.3,0,-1.9c-0.8,0.5,-1.7,0.9,-2.5,1.4c-0.1,0.1,-0.3,0.2,-0.3,0.3c-0.1,0.2,-0.2,0.4,-0.2,0.5c0,0.2,0,0.4,0,0.6c-0.6,0.4,-1.2,0.7,-1.8,1.1c-1.6,0.9,-3.4,1.3,-5.1,1.2c-1.8,-0.1,-3.6,-0.8,-5.5,-1.9c-1.2,-0.7,-2.5,-1.5,-3.8,-2.3c-0.6,-1,-0.9,-2.2,-0.9,-3.5c0,-1.3,0.4,-2.8,1,-4.4c0.2,-0.4,0.4,-0.7,0.6,-1c0.2,-0.4,0.3,-0.7,0.5,-0.9c-0.4,-0.2,-1.2,-0.5,-2.1,-0.7c-0.9,-0.2,-2,-0.4,-3.3,-0.6c-2.4,-0.7,-4.6,-1.4,-6.3,-2c-1.7,-0.6,-3.1,-1.3,-4,-2c-0.5,-0.4,-1.1,-0.6,-1.5,-0.7c-0.4,0,-0.9,0.1,-1.2,0.3c-1.3,0.6,-2.6,0.9,-3.5,1c-0.9,0.1,-1.7,0,-2.3,-0.3c-2.7,-1.6,-5.5,-3.1,-8.2,-4.7c-0.2,-0.2,-0.3,-0.4,-0.5,-0.7c-0.4,-0.1,-0.8,-0.3,-1.2,-0.6c-0.8,-1,-1.2,-2.3,-1.2,-3.9c-0.1,-1.5,0.2,-3.3,0.8,-5.2c0.2,-0.4,0.3,-0.7,0.5,-1.1c0.4,-0.3,0.7,-0.7,1,-1.2c0.2,-0.5,0.4,-1,0.5,-1.6c0.4,-0.5,0.8,-1,1.2,-1.5c2.9,-1.7,5.9,-3.4,8.9,-5.1c0.3,0,0.8,-0.2,1.2,-0.4c0.4,-0.2,0.8,-0.6,1.1,-1.1c1,-0.5,1.9,-1,2.9,-1.5c0.2,-0.2,0.6,-0.3,0.9,-0.3c0.3,0,0.7,0.1,1,0.2c3,1.6,6,3.3,9.1,4.9c0.5,0.4,1,1.1,1.4,2c0.4,1,0.8,2.3,1,3.9c0.1,0.7,0.2,1.4,0.4,2.2c-0.2,1.3,-0.5,2.4,-0.8,3.4c-0.3,1,-0.8,1.8,-1.2,2.4c2.1,0.5,3.9,1.1,5.3,1.6c1.5,0.4,2.7,1,3.5,1.5c0.8,0.3,1.6,0.6,2.3,0.6c0.7,0.1,1.3,-0.1,1.7,-0.3c0.3,-0.2,0.6,-0.3,0.9,-0.3c0.2,0,0.4,0,0.6,0.2c0.5,-0.4,0.9,-0.6,1.2,-0.8c0.3,-0.1,0.6,0,0.8,0.1c0.9,0.5,1.9,1,2.8,1.6c0.6,-0.4,1.3,-0.8,1.9,-1.2c0.5,-0.1,0.9,-0.1,1.3,-0.1c0.3,0.1,0.5,0.3,0.7,0.6c3.6,-2.1,7.2,-4.2,10.8,-6.3c0.3,0,0.6,-0.1,0.8,-0.2c0.1,-0.1,0.2,-0.2,0.2,-0.3c1.2,-0.7,2.5,-1.4,3.7,-2.1c0.1,-0.1,0.4,-0.2,0.5,-0.2c0.2,0,0.5,0,0.6,0c0.1,-0.2,0.4,-0.5,0.9,-0.7c0.5,-0.2,1.2,-0.6,2.2,-0.8c0.7,-0.3,1.4,-0.5,2.1,-0.5c0.7,0,1.5,0,2.2,0c0.2,-0.1,0.6,-0.3,1,-0.3c0.3,0,0.7,0.1,1.1,0.1c2,-1.1,4.1,-2.3,6.2,-3.6c0.2,-0.1,0.5,-0.2,0.8,-0.2c0.2,0,0.5,0,0.7,0Z" class="g10_3" />
<path d="M129.5,247.4c0,-0.1,-0.2,-0.3,-0.4,-0.4c-0.2,-0.1,-0.5,-0.3,-0.8,-0.5c-1.2,-0.7,-2.3,-1.4,-3.5,-2c-0.8,-1,-1.3,-2.4,-1.3,-4.3c0,-1.8,0.5,-3.8,1.3,-5.7c0.5,-0.5,0.7,-0.8,1,-1.4c0.4,-0.6,0.5,-1,0.6,-1.6c0.4,-0.5,0.7,-1,1.1,-1.4c2.9,-1.7,5.9,-3.4,8.9,-5.2c1.3,0.1,2.4,-1.3,2.4,-1.3c0.9,-0.6,1.8,-1.1,2.8,-1.7c0.7,-0.4,1.3,-0.4,1.7,-0.2c3.1,1.7,6.2,3.4,9.4,5.1" class="g9_3" />
<path d="M134.6,250.4c-2.7,-1.6,-5.4,-3.2,-8.2,-4.8c0,-0.1,0,-0.2,-0.1,-0.2" class="g9_3" />
<path d="M136.5,235.2l14.4,-8.3" class="g8_3" />
<path d="M150.9,226.9c0.6,-0.4,1.2,-0.4,1.6,-0.2" class="g8_3" />
<path d="M136.5,235.2c-1.3,1.6,-2.3,3.3,-3,5c-0.6,1.7,-1,3.4,-1.1,5.3c0.1,1.7,0.5,3,1.1,3.9c0.3,0.3,0.5,0.6,0.8,0.8" class="g8_3" />
<path d="M212.4,229.6c0.7,0.1,1.3,0.2,1.9,0.3c0.7,0,1.5,0.7,2,1.6c0.6,1,0.7,2,0.4,2.6c-0.2,0.5,-0.5,1.1,-0.7,1.7" class="g9_3" />
<path d="M212.9,229.8c0.9,0.3,1.8,1.1,2.5,2.2c0.7,1.2,0.9,2.5,0.7,3.4" class="g8_3" />
<path d="M210.7,229.1c0.6,0.2,1.3,0.4,2,0.6c0.9,0.3,1.9,1.2,2.6,2.4c0.7,1.3,1,2.6,0.7,3.5c-0.1,0.7,-0.3,1.3,-0.4,2" class="g9_3" />
<path d="M202.6,232.9c2,-1.2,4.1,-2.4,6.1,-3.6c0.6,-0.3,1.3,-0.4,2,-0.2" class="g9_3" />
<path d="M212,229.7c0.9,0.7,1.8,1.7,2.5,2.9c0.7,1.2,1.1,2.5,1.1,3.6" class="g8_3" />
<path d="M215.6,237.6c-0.2,0.7,-0.6,1.2,-1.1,1.6c-2.1,1.2,-4.2,2.4,-6.3,3.6" class="g9_3" />
<path d="M200.7,233.2c1.7,0.3,3.8,2,5.1,4.4c1.5,2.4,1.8,5,1.3,6.6" class="g8_3" />
<path d="M193.6,235c2.3,-1.2,5.9,0.9,8.1,4.8c2.2,3.8,2.2,8,0,9.4" class="g8_3" />
<path d="M201.8,249.6c-0.1,0.1,-0.2,0.1,-0.4,0.2" class="g9_3" />
<path d="M193.3,234.7c2.4,-1.3,6.2,0.8,8.6,5c2.3,4.1,2.3,8.5,-0.1,9.9" class="g8_3" />
<path d="M187.7,237.7c0.2,-0.1,0.3,-0.2,0.4,-0.3c0.2,-0.1,0.3,-0.2,0.5,-0.3c0.9,-0.6,1.9,-1.1,2.8,-1.7c2.5,-1.4,6.5,0.9,8.9,5.2c2.5,4.2,2.5,8.8,0,10.2c-0.9,0.6,-1.9,1.1,-2.8,1.7" class="g9_3" />
<path d="M188.2,237.7c0.1,-0.1,0.2,-0.2,0.3,-0.3c2.4,-1.3,6.3,0.9,8.6,5c2.1,3.6,2.4,7.5,0.8,9.3" class="g8_3" />
<path d="M205.1,231.4c1.5,-0.9,4.1,0.6,5.7,3.3c1.5,2.7,1.5,5.7,0,6.6" class="g8_3" />
<path d="M188.6,237.1c2.5,-1.5,6.5,0.8,8.9,5.1c2.5,4.2,2.5,8.9,0,10.3" class="g8_3" />
<path d="M189.2,252.2c0.7,-0.4,1.4,-0.5,1.9,-0.2c0.5,0.3,0.8,0.9,0.8,1.7" class="g8_3" />
<path d="M191.9,253.7c0,0.8,-0.3,1.8,-0.8,2.7c-0.5,0.9,-1.2,1.6,-1.9,2" class="g9_3" />
<path d="M189.2,258.4l-8.4,4.8" class="g9_3" />
<path d="M180.8,263.2l-3.4,2" class="g8_3" />
<path d="M189.2,252.2l-3.6,2" class="g8_3" />
<path d="M185,254.6l-3.6,2.1" class="g8_3" />
<path d="M180.8,257.1l-3.2,1.8" class="g8_3" />
<path d="M183.7,260.1c0.2,0,0.6,-0.1,0.8,-0.2c0.8,-0.5,1.5,-0.9,2.3,-1.3c0.4,-0.3,0.8,-0.7,1.1,-1.3c0.6,-0.9,0.7,-1.8,0.4,-2.4" class="g8_3" />
<path d="M188.3,254.9c-0.1,-0.1,-0.2,-0.2,-0.4,-0.3c-0.3,-0.1,-0.7,-0.1,-1.1,0.1c-0.7,0.5,-1.5,0.9,-2.3,1.3c-0.4,0.3,-0.8,0.7,-1.1,1.3c-0.7,1.1,-0.7,2.3,0,2.7c0.1,0,0.2,0.1,0.3,0.1" class="g8_3" />
<path d="M184,258.8c0.2,0.1,0.3,0.2,0.5,0.3c0.3,0.2,0.7,0.2,1.2,-0.1c0.3,-0.1,0.6,-0.3,0.9,-0.5c0.4,-0.3,0.8,-0.7,1.1,-1.2c0.7,-1.1,0.7,-2.3,0,-2.7" class="g8_3" />
<path d="M185.1,255.8c-0.2,0.2,-0.4,0.4,-0.6,0.7c-0.6,1.1,-0.6,2.2,0,2.6" class="g8_3" />
<path d="M183.2,259.8c0.2,0,0.5,-0.1,0.7,-0.3c0.2,-0.1,0.5,-0.2,0.7,-0.4" class="g8_3" />
<path d="M187.7,255.8c0,-0.3,-0.1,-0.5,-0.3,-0.7c-0.2,-0.1,-0.6,-0.1,-0.9,0.1c-0.2,0.2,-0.5,0.3,-0.8,0.5c-0.3,0.2,-0.6,0.5,-0.9,0.9c-0.5,0.8,-0.5,1.7,0,2c0.1,0.1,0.2,0.1,0.4,0.1" class="g8_3" />
<path d="M185.2,258.7c0.2,0,0.3,0,0.5,-0.2" class="g8_3" />
<path d="M186.5,258.1c0.3,-0.2,0.7,-0.5,0.9,-1c0.2,-0.2,0.3,-0.6,0.3,-0.9" class="g8_3" />
<path d="M183.7,256.7c-0.3,0.9,-0.2,1.8,0.3,2.1" class="g8_3" />
<path d="M184.5,257.9c0.1,0.1,0.1,0.3,0.3,0.3c0.2,0.1,0.4,0.1,0.7,-0.1c0.2,-0.1,0.5,-0.2,0.7,-0.4c0.3,-0.1,0.5,-0.4,0.7,-0.8c0.4,-0.6,0.4,-1.4,0,-1.6c0,-0.1,-0.1,-0.1,-0.2,-0.1" class="g8_3" />
<path d="M188.2,255.6l0.2,0.1l3.5,-2l6.5,-4.7" class="g8_3" />
<path d="M188.3,250.8l-3,1.8" class="g8_3" />
<path d="M188.3,250.8c1.2,-0.2,2,-0.1,2.6,0.4c0.6,0.5,0.9,1.3,1,2.5" class="g8_3" />
<path d="M157.9,257.2c0.6,-1,1.2,-1.9,1.7,-2.6c0.6,-0.7,1.1,-1.3,1.6,-1.7c8.7,-5.1,17.5,-10.1,26.2,-15.2c1.6,-0.1,3.2,0.3,4.8,1.2c1.7,1,3.3,2.4,4.9,4.5c1.7,3.9,1.7,7.7,0,9.7c-2,1.1,-4.1,2.3,-6.2,3.5" class="g9_3" />
<path d="M197.1,243.4l-13.3,7.7l1.9,3.1" class="g8_3" />
<path d="M185.2,248.1c-1.1,-1.2,-2.2,-2.1,-3.4,-2.8c-1.1,-0.7,-2.1,-1.1,-3.2,-1.3c-0.2,0,-0.4,0,-0.1,-0.3c3.1,-1.8,6.2,-3.6,9.3,-5.4c0.4,-0.1,0.5,-0.1,0.6,-0.1c1.1,0.1,2.2,0.5,3.4,1.2c1.2,0.7,2.2,1.7,3.4,2.9c0.1,0.1,0.4,0.3,0,0.6c-3.1,1.7,-6.2,3.5,-9.3,5.3c-0.4,0.3,-0.7,-0.1,-0.7,-0.1Z" class="g8_3" />
<path d="M143.5,250.3c-1.1,-0.6,-1.1,-2.8,0,-4.8c0.6,-0.9,1.3,-1.7,2.1,-2.2c0.3,-0.2,0.7,-0.2,1,-0.2c0.4,0,0.8,0.2,1.2,0.4c2.4,1,4.6,1.9,6.8,2.6c2.1,0.7,4.1,1.3,6,1.7c0.5,0.1,1.2,0.2,1.9,0.2c0.6,0,1.4,-0.1,2.1,-0.2c0.9,-0.2,1.7,-0.2,2.3,-0.1c0.7,0.1,1.2,0.5,1.6,1" class="g8_3" />
<path d="M158.9,255.5c-0.3,-0.1,-0.8,-0.4,-1.4,-0.5c-0.7,-0.2,-1.5,-0.4,-2.4,-0.6c-2.7,-0.6,-5,-1.2,-7.1,-2c-2.1,-0.8,-3.9,-1.7,-5.5,-2.6" class="g9_3" />
<path d="M167.8,243.9c-0.1,0,-0.2,-0.1,-0.2,-0.1c-0.3,-0.2,-0.7,-0.1,-1.1,0.1c-0.5,0.3,-0.9,0.5,-1.6,0.5c-0.6,0,-1.4,-0.2,-2.3,-0.5c-1.5,-0.8,-3.1,-1.5,-4.9,-2.1c-1.7,-0.6,-3.5,-1,-5.5,-1.5c-0.8,-0.1,-1.4,-0.3,-1.7,-0.6c-0.3,-0.3,-0.4,-0.5,-0.3,-0.9" class="g9_3" />
<path d="M126.4,231.5l4.9,2.8" class="g8_3" />
<path d="M124.8,234.5l4.8,2.7" class="g8_3" />
<path d="M131.3,234.3c0.7,0.4,0.9,1.4,0.5,2.2c-0.5,0.8,-1.5,1.2,-2.2,0.7" class="g8_3" />
<path d="M136.5,235.2l-8.9,-5.1" class="g8_3" />
<path d="M138.8,223.6c1.7,1,3.5,2,5.3,3.1c0.7,0.3,0.7,0.9,0,1.3c-0.7,0.4,-1.7,0.4,-2.4,0c-1.8,-1,-3.5,-2,-5.3,-3.1" class="g8_3" />
<path d="M152.7,226.8c0.6,0.3,1.2,1.1,1.7,2.5c0.5,1.4,0.8,3.2,1.1,5.5c-0.4,2.3,-0.9,4,-1.6,5.3c-0.1,0.1,-0.2,0.3,-0.3,0.5" class="g9_3" />
<path d="M142.4,249.7c-0.5,-0.3,-1.1,-0.4,-1.6,-0.4c-0.5,0,-1.1,0.2,-1.6,0.5" class="g9_3" />
<path d="M141.5,249.4c-1.7,0.8,-3.2,1.3,-4.3,1.5c-1.1,0.1,-2,0,-2.6,-0.5" class="g9_3" />
<path d="M173.2,261.4c-1.3,0.7,-1.8,2.4,-1.8,4.2c0,1.7,0.5,2.8,1.8,2.1" class="g8_3" />
<path d="M157.9,257.2c-0.8,1.3,-1.1,3.1,-1.1,4.8c0,1.7,0.3,3,1.1,3.4c1.4,0.8,2.8,1.6,4.2,2.4" class="g9_3" />
<path d="M152.4,229.3c-0.5,1.4,-1.1,2.8,-1.4,4.3c-0.4,1.6,-0.7,3.2,-0.8,5" class="g8_3" />
<path d="M136.3,236.2c0.4,0.2,0.7,0.6,0.9,0.8c0.2,0.3,0.4,0.7,0.5,1.1c0.3,1.6,0.9,2.9,1.6,4c0.7,1,1.6,1.9,2.6,2.4" class="g8_3" />
<path d="M142.4,249.7c-1.1,-0.7,-1.1,-2.8,0,-4.8c0.6,-1,1.3,-1.8,2.1,-2.2c1.4,-0.8,2.9,-1.7,4.4,-2.5c0.7,-0.5,1.5,-0.5,2,-0.2" class="g8_3" />
<path d="M142.1,249.5c-1.1,-0.6,-1.1,-2.8,0,-4.7c0.6,-1.1,1.4,-1.8,2.1,-2.2c1.5,-0.9,2.9,-1.7,4.4,-2.6c0.7,-0.4,1.5,-0.5,2.1,-0.2" class="g8_3" />
<path d="M151,240c0,-0.1,0.1,-0.3,0.2,-0.4c0.1,-0.1,0.3,-0.3,0.4,-0.4c0.5,-0.4,1.2,-1,1.7,-1.6c0.6,-0.6,1.3,-1.3,1.9,-1.9c0.1,-0.2,0.1,-0.3,0.2,-0.4c0,-0.1,0.1,-0.1,0.1,-0.2" class="g8_3" />
<path d="M182.9,258.9c-3.9,2.2,-7.7,4.4,-11.5,6.7c-1.7,0.7,-3.5,0.9,-5.2,0.7c-1.7,-0.2,-3.5,-0.8,-5.2,-1.9c-1.4,-0.8,-2.8,-1.6,-4.2,-2.4" class="g8_3" />
<path d="M172.6,244.8c-0.9,-0.5,-1.8,-1,-2.7,-1.5c-0.5,-0.3,-0.9,-0.2,-1.4,0.1c-0.2,0.2,-0.4,0.4,-0.7,0.6" class="g9_3" />
<path d="M176.4,244c0,-0.1,-0.1,-0.2,-0.3,-0.3c-0.4,-0.3,-1.1,-0.3,-1.6,0c-0.5,0.3,-1.1,0.6,-1.6,0.9c-0.2,0.1,-0.4,0.3,-0.4,0.4c0,0.5,0,0.9,0,1.3" class="g9_3" />
<path d="M172.5,245c0,0.2,0.2,0.4,0.4,0.5c0.2,0.1,0.5,0.2,0.7,0.2" class="g8_3" />
<path d="M172.5,246c-0.2,0.1,-0.2,0.3,-0.1,0.4" class="g8_3" />
<path d="M172.5,245.3c-0.3,0.2,-0.6,0.4,-0.9,0.6c-0.3,0.1,-0.6,0.2,-0.9,0.2c-0.2,0,-0.6,0,-0.8,-0.1" class="g8_3" />
<path d="M171.1,246c-0.7,-0.1,-1.3,-0.4,-1.9,-0.7c-0.5,-0.4,-1,-0.9,-1.4,-1.4" class="g8_3" />
<path d="M177.5,265.1c0,-0.1,0,-0.3,0,-0.5c0,-0.1,0,-0.1,-0.1,-0.2" class="g8_3" />
<path d="M181,256.9l-0.2,-0.3l0,-1.3L180.4,255l-3.4,2l0,1.9" class="g9_3" />
<path d="M177,258.9c0,0,-1.7,-1,-1.7,-1" class="g8_3" />
<path d="M180.5,256.8l-2.7,1.6" class="g8_3" />
<path d="M183.8,251.1l1.5,1.5l0.4,1.6" class="g8_3" />
<path d="M181.3,254.4l-8.4,4.8" class="g8_3" />
<path d="M177.1,259.8L175.2,258" class="g8_3" />
<path d="M177,257l0.4,0.2" class="g8_3" />
<path d="M181.3,254.4c0.6,-0.4,1,0,1,0c0,0,0.2,0.1,0.2,0.1" class="g8_3" />
<path d="M181.5,252.5l0,1" class="g8_3" />
<path d="M180.8,255.5c0.6,-0.3,1.2,-0.6,1.8,-1c0,0,0.5,-0.2,0.4,-0.7" class="g9_3" />
<path d="M183,253.8c0,-0.1,-0.1,-0.2,-0.1,-0.2c-0.3,-0.4,-0.5,-0.8,-0.7,-1.2c0,0,-0.3,-0.7,-0.9,-0.4c-2.9,1.7,-5.9,3.4,-8.8,5.1c-0.1,0.1,-0.2,0.2,-0.2,0.2" class="g8_3" />
<path d="M172.3,257.3c-0.3,0.4,-0.1,0.8,-0.1,0.8c0.6,1,1.1,1.9,1.7,2.9c0,0,0,0.6,0,0.6c0.1,0.2,0.2,0.3,0.3,0.3" class="g9_3" />
<path d="M174.2,261.9c0.1,0,0.2,-0.1,0.2,-0.1c0.9,-0.4,1.7,-0.9,2.6,-1.5c0,0,0.4,-0.2,0.5,-0.8c0,-0.2,0,-0.4,0,-0.6c0,-0.1,-0.1,-0.2,-0.1,-0.3c0,-0.4,0,-0.9,0,-1.4c0,0,3.4,-1.9,3.4,-1.9" class="g8_3" />
<path d="M176.8,264.4c0,0,0.2,-0.1,0.2,0.1c0,0.6,0,1.2,0,1.8c0.1,0.1,0.2,0.2,0.4,0.3c1.1,-0.6,2.3,-1.3,3.4,-2c0,0,0,-1.4,0,-1.4" class="g9_3" />
<path d="M177.5,266.5l0,-1" class="g8_3" />
<path d="M182.1,249.3c0.6,-0.4,1.3,-0.7,2,-1.1c0,0,0.2,0.2,0.3,0.3c0.1,0.1,0.2,0.3,0.4,0.4" class="g8_3" />
<path d="M184.8,248.9c-0.7,0.4,-1.4,0.8,-2,1.2c-0.2,-0.1,-0.3,-0.3,-0.4,-0.4c-0.1,-0.1,-0.3,-0.3,-0.4,-0.4" class="g8_3" />
<path d="M181.2,248.5c0.6,-0.4,1.3,-0.8,2,-1.2c0.1,0.1,0.2,0.2,0.3,0.4c0.2,0.1,0.3,0.2,0.4,0.3" class="g8_3" />
<path d="M183.9,248c-0.7,0.4,-1.3,0.8,-2,1.2c-0.1,-0.1,-0.2,-0.3,-0.3,-0.4c-0.2,-0.1,-0.3,-0.2,-0.4,-0.3" class="g8_3" />
<path d="M180.2,247.7c0.6,-0.4,1.3,-0.8,2,-1.2c0.1,0.1,0.2,0.2,0.3,0.3c0.1,0.1,0.3,0.3,0.5,0.4" class="g8_3" />
<path d="M183,247.2c-0.7,0.4,-1.3,0.8,-2,1.2c-0.1,-0.2,-0.3,-0.3,-0.4,-0.4c-0.1,-0.1,-0.3,-0.2,-0.4,-0.3" class="g8_3" />
<path d="M179,246.9c0.7,-0.4,1.4,-0.8,2,-1.2c0.2,0.1,0.3,0.2,0.5,0.3c0.1,0.1,0.3,0.2,0.5,0.4" class="g8_3" />
<path d="M182,246.4c-0.7,0.3,-1.4,0.7,-2,1.1c-0.2,-0.1,-0.3,-0.2,-0.5,-0.3c-0.1,-0.1,-0.3,-0.3,-0.5,-0.3" class="g8_3" />
<path d="M177.8,246.2c0.7,-0.3,1.4,-0.7,2,-1.1c0.1,0,0.3,0.1,0.5,0.2c0.2,0.1,0.3,0.2,0.5,0.3" class="g8_3" />
<path d="M180.8,245.6c-0.6,0.4,-1.3,0.8,-2,1.2c-0.1,-0.1,-0.3,-0.2,-0.4,-0.3c-0.2,-0.1,-0.4,-0.2,-0.6,-0.3" class="g8_3" />
<path d="M176.6,245.8c0.7,-0.4,1.3,-0.8,2.1,-1.2c0.1,0,0.2,0.1,0.4,0.2c0.1,0,0.3,0.1,0.5,0.2" class="g8_3" />
<path d="M179.6,245c-0.7,0.3,-1.3,0.7,-2,1.1c-0.1,0,-0.3,-0.1,-0.4,-0.1c-0.2,-0.1,-0.4,-0.2,-0.6,-0.2" class="g8_3" />
<path d="M175.4,245.5c0.6,-0.3,1.3,-0.7,2,-1.1c0.1,0,0.3,0,0.4,0c0.2,0,0.4,0.1,0.6,0.2" class="g8_3" />
<path d="M178.4,244.6c-0.7,0.3,-1.4,0.7,-2,1.1c-0.1,0,-0.3,-0.1,-0.5,-0.1c-0.1,0,-0.3,-0.1,-0.5,-0.1" class="g8_3" />
<path d="M170.5,256c1.4,-0.8,2.9,-1.6,4.3,-2.5c0.1,0.1,0.2,0.3,0.4,0.4c0.1,0.1,0.2,0.3,0.3,0.4" class="g8_3" />
<path d="M175.5,254.3c-1.4,0.8,-2.9,1.6,-4.3,2.5c-0.1,-0.1,-0.3,-0.3,-0.4,-0.4c-0.1,-0.1,-0.2,-0.3,-0.3,-0.4" class="g8_3" />
<path d="M169.6,255.2c1.5,-0.8,2.9,-1.7,4.4,-2.5c0.1,0,0.2,0.2,0.3,0.3c0.1,0.1,0.2,0.3,0.4,0.4" class="g8_3" />
<path d="M174.7,253.4c-1.5,0.8,-2.9,1.6,-4.4,2.5c-0.1,-0.1,-0.2,-0.3,-0.3,-0.4c-0.2,-0.1,-0.3,-0.2,-0.4,-0.3" class="g8_3" />
<path d="M168.7,254.4c1.4,-0.9,2.8,-1.7,4.3,-2.6c0,0.1,0.2,0.2,0.3,0.3c0.1,0.1,0.3,0.3,0.5,0.4" class="g8_3" />
<path d="M173.8,252.5c-1.5,0.8,-2.9,1.7,-4.4,2.5c-0.1,-0.1,-0.3,-0.3,-0.4,-0.3c-0.1,-0.1,-0.3,-0.3,-0.4,-0.3" class="g8_3" />
<path d="M167.5,253.5c1.4,-0.8,2.8,-1.6,4.3,-2.4c0.2,0,0.3,0.2,0.5,0.2c0.1,0.1,0.3,0.3,0.4,0.4" class="g8_3" />
<path d="M172.7,251.7c-1.4,0.8,-2.9,1.6,-4.3,2.5c-0.1,-0.1,-0.3,-0.2,-0.4,-0.3c-0.2,-0.1,-0.4,-0.3,-0.6,-0.3" class="g8_3" />
<path d="M166.3,252.9c1.4,-0.8,2.9,-1.6,4.3,-2.5c0.1,0,0.3,0.2,0.5,0.2c0.1,0.1,0.3,0.2,0.5,0.3" class="g8_3" />
<path d="M171.6,250.9c-1.4,0.9,-2.9,1.7,-4.3,2.5c-0.1,0,-0.3,-0.1,-0.5,-0.2c-0.1,-0.1,-0.3,-0.2,-0.5,-0.3" class="g8_3" />
<path d="M165.1,252.5c1.4,-0.8,2.9,-1.7,4.3,-2.5c0.1,0,0.3,0.1,0.4,0.1c0.2,0.1,0.4,0.1,0.6,0.2" class="g8_3" />
<path d="M170.4,250.3c-1.5,0.8,-2.9,1.7,-4.4,2.5c-0.1,0,-0.3,-0.1,-0.4,-0.1c-0.2,-0.1,-0.4,-0.2,-0.5,-0.2" class="g8_3" />
<path d="M163.8,252.2c1.5,-0.8,2.9,-1.6,4.4,-2.5c0.1,0,0.3,0.1,0.4,0.1c0.2,0,0.4,0.1,0.5,0.1" class="g8_3" />
<path d="M169.1,249.9c-1.4,0.8,-2.9,1.6,-4.3,2.5c-0.1,0,-0.3,-0.1,-0.5,-0.1c-0.1,0,-0.3,-0.1,-0.5,-0.1" class="g8_3" />
<path d="M212,238.8l-3.7,2.1" class="g8_3" />
<path d="M211.5,240.5l-3.2,1.9" class="g8_3" />
<path d="M211.6,240.2l-3.3,1.9" class="g8_3" />
<path d="M211.9,238.4l-3.6,2.1" class="g8_3" />
<path d="M211.7,237l-3.7,2.2" class="g8_3" />
<path d="M211.5,236.4l-3.7,2.2" class="g8_3" />
<path d="M210.9,235l-3.8,2.1" class="g8_3" />
<path d="M210.5,234.4l-3.7,2.2" class="g8_3" />
<path d="M209.5,233l-3.7,2.2" class="g8_3" />
<path d="M209,232.6l-3.6,2.1" class="g8_3" />
<path d="M208,231.8l-3.6,2.1" class="g8_3" />
<path d="M207.5,231.5l-3.5,2" class="g8_3" />
<path d="M206.2,231.2L203,233" class="g8_3" />
<path d="M205.8,231.2l-3.1,1.8" class="g8_3" />
<path d="M205.2,231.3c1.6,-0.9,4.2,0.6,5.7,3.3c1.6,2.7,1.6,5.7,0,6.6" class="g8_3" />
<path d="M192.9,235c0.1,-0.1,0.2,-0.2,0.4,-0.3c1.3,-0.7,2.7,-1.3,3.8,-1.5c1.2,-0.3,2.4,-0.3,3.4,-0.1c1.8,-1,4.8,0.6,6.6,3.8c1.7,3.1,1.7,6.5,-0.1,7.5c-0.4,1,-1.1,2,-1.9,2.9c-0.9,0.8,-2,1.6,-3.3,2.3" class="g9_3" />
<path d="M177.4,264.4c-0.1,-0.3,-0.4,-0.1,-0.4,-0.1c-0.9,0.5,-1.7,1,-2.6,1.5c0,0,-0.4,0.2,-0.5,0.9c0,0,0,0.5,0,0.5c-0.3,0.2,-0.7,0.4,-1,0.6c-0.8,0.4,-1.5,0.8,-2.3,1.1c-0.7,0.3,-1.5,0.5,-2.2,0.6c-0.7,0.1,-1.6,0.1,-2.7,-0.2c-1,-0.3,-2.2,-0.8,-3.6,-1.5" class="g9_3" />
<path d="M184.5,248.5l0,1" class="g8_3" />
<path d="M183.5,247.5l0,1" class="g8_3" />
<path d="M182.5,246.5l0,1" class="g8_3" />
<path d="M181.5,245.5l0,1" class="g8_3" />
<path d="M179.5,245.5l0,1" class="g8_3" />
<path d="M178.5,244.5l0,1" class="g8_3" />
<path d="M177.5,244.5l0,1" class="g8_3" />
<path d="M174.5,253.5l0,1" class="g8_3" />
<path d="M173.5,252.5l0,1" class="g8_3" />
<path d="M172.5,251.5l0,1" class="g8_3" />
<path d="M171.5,251.5l0,1" class="g8_3" />
<path d="M170.5,250.5l0,1" class="g8_3" />
<path d="M169.5,249.5l0,1" class="g8_3" />
<path d="M168.5,249.5l0,1" class="g8_3" />
<path d="M252.8,231c0.4,0.2,0.7,0.5,1.1,0.7c0,0.4,0,0.8,0,1.3c-0.4,0.2,-0.8,0.4,-1.1,0.5c-0.3,0.1,-0.6,0.2,-0.8,0.2" class="g8_3" />
<path d="M253.9,231.7c-2.8,1.7,-1.3,2.1,-2.7,2.8c-0.6,0.4,-1.2,0.7,-1.9,1.1c0,0.1,-0.2,0.1,-0.3,0.1c-0.1,0,-0.3,0.1,-0.4,0.1" class="g8_3" />
<path d="M252.8,231c-2.8,1.7,-0.6,2.9,-3.5,4.6" class="g8_3" />
<path d="M251.1,232.1c-2.9,1.6,-0.7,2.9,-3.5,4.5c-0.4,0.2,-0.8,0.5,-1.2,0.7c-0.1,0,-0.3,0.1,-0.4,0.1c0,0,-0.2,0.1,-0.3,0.1" class="g8_3" />
<path d="M251.7,231.9c-0.1,0,-0.3,0.1,-0.4,0.1c0,0,-0.2,0.1,-0.2,0.1c-0.4,0.2,-0.8,0.4,-1.2,0.7c-2.9,1.6,-0.7,2.8,-3.5,4.5" class="g8_3" />
<path d="M248.2,233.7c-2.9,1.7,-0.7,2.9,-3.5,4.6c-0.4,0.2,-0.8,0.4,-1.2,0.7c-0.1,0,-0.2,0.1,-0.3,0.1c-0.1,0,-0.3,0.1,-0.3,0.1" class="g8_3" />
<path d="M248.9,233.5c-0.2,0,-0.4,0.1,-0.4,0.1c-0.1,0,-0.3,0.1,-0.3,0.1c-0.4,0.2,-0.8,0.5,-1.2,0.7c-2.8,1.7,-0.6,2.9,-3.5,4.6" class="g8_3" />
<path d="M245.3,235.4c-2.9,1.6,-0.7,2.9,-3.5,4.6c-0.4,0.2,-0.8,0.4,-1.2,0.6c-0.1,0.1,-0.2,0.2,-0.3,0.2c-0.1,0,-0.3,0,-0.3,0" class="g8_3" />
<path d="M246,235.2c-0.2,0,-0.4,0.1,-0.4,0.1c-0.1,0,-0.3,0.1,-0.3,0.1c-0.4,0.2,-0.8,0.5,-1.2,0.7c-2.8,1.6,-0.6,2.9,-3.5,4.5" class="g8_3" />
<path d="M242.5,237c-2.8,1.7,-0.7,2.9,-3.5,4.6c-0.4,0.2,-0.8,0.4,-1.2,0.6c-0.1,0.1,-0.3,0.2,-0.3,0.2c-0.1,0,-0.2,0,-0.3,0" class="g8_3" />
<path d="M243.1,236.8c-0.1,0,-0.3,0.1,-0.4,0.1c0,0,-0.1,0.1,-0.2,0.1c-0.4,0.2,-0.8,0.5,-1.2,0.7c-2.8,1.6,-0.7,2.9,-3.5,4.5" class="g8_3" />
<path d="M239.6,238.7c-2.8,1.6,-0.7,2.9,-3.5,4.6c-0.4,0.2,-0.8,0.4,-1.2,0.6c-0.1,0.1,-0.3,0.1,-0.3,0.1c-0.1,0,-0.2,0.1,-0.3,0.1" class="g8_3" />
<path d="M240.2,238.5c-0.1,0,-0.3,0.1,-0.4,0.1c0,0,-0.1,0.1,-0.2,0.1c-0.4,0.2,-0.8,0.5,-1.2,0.7c-2.8,1.6,-0.7,2.8,-3.5,4.5" class="g8_3" />
<path d="M236.6,240.4c-2.8,1.7,-0.6,2.9,-3.4,4.5c-4.7,2.7,-9.3,5.4,-13.9,8.1c-0.3,0.1,-0.8,-0.1,-1.1,-0.6c-0.3,-0.6,-0.3,-1.1,0,-1.3c6.1,-3.6,12.3,-7.1,18.4,-10.7c0.1,0,0.2,-0.1,0.3,-0.1c0.1,0,0.3,-0.1,0.4,-0.1" class="g8_3" />
<path d="M218.2,251.1c0.1,0,0.3,0,0.4,0.1c0.1,0.1,0.3,0.3,0.4,0.4c0.2,0.3,0.4,0.6,0.4,0.8c0,0.2,0,0.5,-0.1,0.6" class="g8_3" />
<path d="M337.9,224.3l18,10.8" class="g9_3" />
<path d="M335.1,226.1L353,236.8" class="g8_3" />
<path d="M333.7,229.9l17.9,10.7" class="g8_3" />
<path d="M334.1,231.5L353,242.7" class="g9_3" />
<path d="M266.4,267.7l60.9,-36.3c3.3,-2,4.7,-1.1,6.8,0.1" class="g9_3" />
<path d="M267.7,265.5l59.8,-35.8c2.7,-1.6,4.6,-0.7,6.2,0.2" class="g8_3" />
<path d="M266.2,261.8l60.9,-36.2c2.8,-1.7,5.3,-1.1,8,0.5" class="g8_3" />
<path d="M263.5,260.1l59.7,-35.8c6.5,-3.7,9.9,-2.7,14.7,0" class="g9_3" />
<path d="M351.6,240.5c0.7,-0.4,1.9,-2.1,1.4,-3.7" class="g8_3" />
<path d="M353,236.8c0.8,0.5,2.7,-0.6,2.9,-1.7" class="g8_3" />
<path d="M351.6,240.6c0.8,0.1,1.8,0.9,1.4,2.1" class="g8_3" />
<path d="M353,242.7c0.2,-0.6,1.8,-2,2.9,-1.6" class="g9_3" />
<path d="M355.9,241.1c-0.5,-1.1,0.5,-3.8,1.4,-3.9" class="g9_3" />
<path d="M355.9,235.1c0,0.7,0.2,1.8,1.4,2.1" class="g9_3" />
<path d="M267.7,265.5c-0.6,-0.5,-1.9,-2.1,-1.3,-3.8" class="g8_3" />
<path d="M266.4,261.7c-0.9,0.5,-2.7,-0.5,-2.9,-1.6" class="g8_3" />
<path d="M267.7,265.5c-0.8,0.1,-1.7,1,-1.3,2.2" class="g8_3" />
<path d="M266.4,267.7c-0.3,-0.6,-1.9,-2.1,-2.9,-1.7" class="g9_3" />
<path d="M263.5,266c0.4,-1.1,-0.5,-3.8,-1.5,-3.9" class="g9_3" />
<path d="M263.5,260.1c0,0.7,-0.2,1.8,-1.5,2" class="g9_3" />
<path d="M456.1,766.7c1.7,0.1,3.7,-0.2,5.6,-0.9" class="g8_3" />
<path d="M472.8,759.7c1.6,8.3,-15.9,16.8,-19.9,8.2c-0.2,-0.5,-0.4,-0.9,-0.6,-1.2" class="g9_3" />
<path d="M455,773.5c4.1,9.1,23.5,-0.9,19.5,-9.5" class="g8_3" />
<path d="M458.2,771.3c2.6,5.8,15.2,-0.6,12.6,-6.2" class="g8_3" />
<path d="M472.8,761.6c0.9,0.7,1,1.2,1.3,1.9c0,0,1.5,3.3,2.4,5.3c3.9,8.7,-15.3,18.6,-19.4,9.5c-1.5,-3,-1.8,-3.7,-1.7,-3.6c-0.5,-0.7,-0.9,-2.1,-0.4,-3.4" class="g9_3" />
<path d="M459.9,783.9c3.9,9.1,23.5,-0.6,19.5,-9.3" class="g8_3" />
<path d="M463.1,781.7c2.5,5.9,15.2,-0.4,12.7,-6" class="g8_3" />
<path d="M477,771.7c1.2,0.5,1.8,1.7,2.1,2.4c0,0,1.4,3.4,2.3,5.3c3.8,8.8,-15.5,18.4,-19.6,9.3c-1.4,-3.1,-1.6,-3.8,-1.6,-3.6c-0.4,-0.8,-0.9,-2.2,-0.3,-3.5" class="g9_3" />
<path d="M464.7,794.5c3.5,9.2,23.5,0.3,19.9,-8.5" class="g8_3" />
<path d="M468,792.4c2.3,6,15.2,0.2,12.9,-5.5" class="g8_3" />
<path d="M482.4,783c1.1,0.5,1.6,1.8,1.9,2.5c0,0,1.3,3.4,2.1,5.4c3.4,8.9,-16.3,17.7,-20,8.5c-1.2,-3.2,-1.5,-3.9,-1.4,-3.7c-0.4,-0.8,-0.8,-2.2,-0.2,-3.5" class="g9_3" />
<path d="M468.5,804.9c3.1,9.4,23.5,1.5,20.3,-7.5" class="g8_3" />
<path d="M471.9,802.9c2,6.2,15.2,1.1,13.2,-4.8" class="g8_3" />
<path d="M486.7,794.3c1.1,0.6,1.6,1.9,1.8,2.6c0,0,1.2,3.5,1.8,5.5c3,9,-17.1,16.9,-20.3,7.4c-1.1,-3.2,-1.3,-3.9,-1.3,-3.7c-0.4,-0.8,-0.6,-2.2,0,-3.5" class="g9_3" />
<path d="M472,815.3c3,9.5,23.5,1.9,20.4,-7.2" class="g8_3" />
<path d="M475.4,813.5c2,6.1,15.2,1.1,13.3,-4.7" class="g8_3" />
<path d="M490.3,805c1.2,0.6,1.6,1.9,1.9,2.6c0,0,1,3.5,1.7,5.5c2.9,9.1,-17.4,16.7,-20.4,7.2c-1.1,-3.2,-1.3,-3.9,-1.3,-3.7c-0.3,-0.8,-0.6,-2.3,0.1,-3.5" class="g9_3" />
<path d="M475.8,825.8c2.7,9.5,23.4,2.3,20.6,-6.8" class="g8_3" />
<path d="M479.3,824c1.7,6.1,15.1,1.5,13.3,-4.4" class="g8_3" />
<path d="M494.4,815.8c1.1,0.6,1.4,1.9,1.7,2.7c0,0,1,3.5,1.6,5.6c2.7,9.1,-17.7,16.2,-20.6,6.7c-1,-3.3,-1.2,-4,-1.1,-3.8c-0.4,-0.8,-0.6,-2.3,0.1,-3.5" class="g9_3" />
<path d="M478.9,836.6c2.6,9.6,23.4,2.7,20.7,-6.4" class="g8_3" />
<path d="M482.4,834.8c1.7,6.2,15.1,1.8,13.4,-4.1" class="g8_3" />
<path d="M497.6,826.9c1.1,0.7,1.5,2,1.7,2.7c0,0,1,3.5,1.5,5.6c2.6,9.2,-17.9,16,-20.7,6.4c-0.9,-3.2,-1.1,-4,-1.1,-3.8c-0.3,-0.8,-0.5,-2.2,0.2,-3.5" class="g9_3" />
<path d="M481.6,847.4c2.3,9.7,23.3,3.6,20.9,-5.7" class="g8_3" />
<path d="M485.2,845.8c1.4,6.3,15,2.3,13.5,-3.7" class="g8_3" />
<path d="M500.7,838.4c1,0.7,1.3,2,1.6,2.8c0,0,0.8,3.6,1.3,5.6c2.2,9.3,-18.5,15.4,-20.9,5.7c-0.8,-3.3,-1,-4,-1,-3.8c-0.3,-0.8,-0.4,-2.3,0.3,-3.5" class="g9_3" />
<path d="M484.3,858.6c2.3,9.6,23.2,3.5,20.9,-5.7" class="g8_3" />
<path d="M487.8,856.9c1.5,6.3,15.1,2.3,13.6,-3.7" class="g8_3" />
<path d="M503.3,849.5c1.1,0.7,1.4,2,1.6,2.8c0,0,0.9,3.6,1.4,5.6c2.2,9.3,-18.6,15.4,-20.9,5.7c-0.9,-3.3,-1,-4,-1,-3.8c-0.3,-0.8,-0.5,-2.3,0.3,-3.5" class="g9_3" />
<path d="M486.4,869.3c2.1,9.7,23.2,3.9,21,-5.4" class="g8_3" />
<path d="M490,867.7c1.4,6.3,15,2.5,13.6,-3.5" class="g8_3" />
<path d="M505.6,860.6c1.1,0.7,1.4,2,1.6,2.7c0,0,0.8,3.6,1.2,5.7c2.1,9.3,-18.8,15.1,-21,5.4c-0.7,-3.3,-0.9,-4.1,-0.9,-3.9c-0.3,-0.8,-0.4,-2.3,0.4,-3.5" class="g9_3" />
<path d="M488,879.8c1.5,9.8,22.9,5.2,21.3,-4.1" class="g8_3" />
<path d="M491.7,878.4c1,6.4,14.8,3.4,13.7,-2.6" class="g8_3" />
<path d="M507.7,872.2c1,0.8,1.2,2.1,1.4,2.9c0,0,0.5,3.6,0.9,5.7c1.5,9.4,-19.6,13.9,-21.3,4.2c-0.6,-3.4,-0.7,-4.1,-0.7,-4c-0.2,-0.8,-0.3,-2.3,0.6,-3.4" class="g9_3" />
<path d="M435.2,611.2c0,0.4,0,0.8,-0.1,1.1c-0.6,9,18.7,11.9,21.3,3.7" class="g8_3" />
<path d="M456.6,620.6c-0.7,9.9,-22.4,7.2,-21.5,-2.3" class="g8_3" />
<path d="M452.8,619.6c-0.4,6.4,-14.5,4.6,-13.9,-1.5" class="g8_3" />
<path d="M435.8,615.5c-0.6,1,-0.5,1.5,-0.6,2.2c0,0,-0.2,3.7,-0.4,5.8c-0.7,9.5,20.7,12.2,21.6,2.3c0.2,-3.4,0.3,-4.1,0.3,-4c0.2,-0.8,0.1,-2.3,-0.8,-3.3" class="g9_3" />
<path d="M455.6,632c-0.5,9.9,-22.3,7.5,-21.5,-2" class="g8_3" />
<path d="M451.8,631c-0.3,6.4,-14.4,4.9,-13.9,-1.3" class="g8_3" />
<path d="M435.3,626.4c-0.9,0.9,-1,2.2,-1.1,3c0,0,-0.2,3.7,-0.3,5.8c-0.6,9.5,20.9,11.9,21.5,2c0.3,-3.4,0.3,-4.2,0.3,-4c0.2,-0.8,0.1,-2.3,-0.9,-3.4" class="g9_3" />
<path d="M454.7,643.6c-0.1,9.9,-21.9,8.4,-21.6,-1.1" class="g8_3" />
<path d="M450.9,642.7c-0.1,6.5,-14.2,5.5,-14,-0.7" class="g8_3" />
<path d="M434.2,638.8c-0.9,1,-0.9,2.3,-1,3.1c0,0,0,3.6,-0.1,5.8c-0.1,9.5,21.4,11,21.7,1.1c0.1,-3.4,0,-4.2,0.1,-4c0.1,-0.9,-0.1,-2.3,-1.1,-3.3" class="g9_3" />
<path d="M454.7,654.7c0.4,9.9,-21.5,9.5,-21.6,-0.1" class="g8_3" />
<path d="M450.9,654c0.2,6.4,-14,6.2,-14.1,0" class="g8_3" />
<path d="M434,650.9c-0.9,1,-0.8,2.4,-0.9,3.1c0,0,0.2,3.7,0.3,5.8c0.3,9.6,21.9,10,21.6,0c-0.1,-3.4,-0.1,-4.1,-0.1,-3.9c0.1,-0.9,-0.1,-2.3,-1.2,-3.3" class="g9_3" />
<path d="M455,665.7c0.5,9.9,-21.4,9.8,-21.6,0.2" class="g8_3" />
<path d="M451.2,665.1c0.3,6.4,-13.9,6.3,-14.1,0.2" class="g8_3" />
<path d="M434.2,662.2c-0.8,1,-0.7,2.4,-0.8,3.1c0,0,0.2,3.7,0.3,5.8c0.4,9.5,22,9.7,21.7,-0.2c-0.1,-3.4,-0.2,-4.1,-0.2,-4c0.1,-0.9,-0.1,-2.3,-1.2,-3.2" class="g9_3" />
<path d="M455.1,676.8c0.6,9.9,-21.2,10.2,-21.7,0.7" class="g8_3" />
<path d="M451.2,676.3c0.4,6.4,-13.7,6.6,-14,0.5" class="g8_3" />
<path d="M434.2,673.8c-0.8,1,-0.7,2.3,-0.7,3.1c0,0,0.2,3.7,0.4,5.8c0.6,9.5,22.2,9.2,21.6,-0.7c-0.2,-3.4,-0.2,-4.2,-0.2,-4c0.1,-0.9,-0.2,-2.3,-1.3,-3.2" class="g9_3" />
<path d="M455.9,688c0.8,9.9,-21.1,10.6,-21.7,1.1" class="g8_3" />
<path d="M452,687.6c0.5,6.4,-13.6,6.8,-14,0.7" class="g8_3" />
<path d="M435,685.3c-0.9,1,-0.7,2.4,-0.7,3.1c0,0,0.3,3.7,0.5,5.8c0.7,9.5,22.3,8.9,21.6,-1c-0.2,-3.4,-0.3,-4.1,-0.3,-4c0.1,-0.8,-0.2,-2.3,-1.3,-3.2" class="g9_3" />
<path d="M457,699.1c1.2,9.9,-20.6,11.3,-21.6,1.9" class="g8_3" />
<path d="M453.1,698.8c0.8,6.4,-13.3,7.4,-13.9,1.2" class="g8_3" />
<path d="M436,697.2c-0.7,1,-0.6,2.4,-0.5,3.1c0,0,0.4,3.7,0.7,5.8c1.1,9.5,22.6,8.1,21.6,-1.8c-0.4,-3.4,-0.5,-4.1,-0.5,-4c0,-0.8,-0.3,-2.3,-1.4,-3.1" class="g9_3" />
<path d="M458.3,710.5c1.2,9.9,-20.6,11.3,-21.6,1.8" class="g8_3" />
<path d="M454.4,710.2c0.8,6.4,-13.3,7.3,-13.9,1.2" class="g8_3" />
<path d="M437.3,708.5c-0.7,1.1,-0.6,2.4,-0.5,3.2c0,0,0.4,3.6,0.7,5.8c1.1,9.4,22.6,8,21.6,-1.9c-0.4,-3.3,-0.5,-4.1,-0.5,-3.9c0,-0.9,-0.3,-2.3,-1.4,-3.2" class="g9_3" />
<path d="M460,721.3c1.3,9.8,-20.5,11.6,-21.6,2.2" class="g8_3" />
<path d="M456.1,721.1c0.9,6.3,-13.3,7.5,-14,1.4" class="g8_3" />
<path d="M439,719.7c-0.8,1,-0.6,2.4,-0.5,3.2c0,0,0.5,3.6,0.8,5.7c1.2,9.5,22.8,7.7,21.5,-2.2c-0.4,-3.3,-0.5,-4.1,-0.5,-3.9c0,-0.9,-0.4,-2.3,-1.5,-3.2" class="g9_3" />
<path d="M462.1,731.7c1.9,9.8,-19.7,12.8,-21.4,3.4" class="g8_3" />
<path d="M458.2,731.7c1.3,6.3,-12.8,8.3,-13.8,2.2" class="g8_3" />
<path d="M441.1,731.3c-0.7,1.1,-0.5,2.5,-0.4,3.2c0,0,0.8,3.6,1.2,5.7c1.8,9.4,23.1,6.4,21.3,-3.4c-0.6,-3.3,-0.7,-4.1,-0.7,-3.9c0,-0.9,-0.5,-2.3,-1.7,-3" class="g9_3" />
<path d="M402,753.1c7,-8.2,13.6,-16.4,29.3,-9.6c15.6,6.8,35.2,2.4,38.2,-15.1c3,-17.5,14.6,-18.5,26.8,-17.7" class="g9_3" />
<path d="M411.1,772.5c7.1,-8.2,13.7,-16.4,29.4,-9.6c15.6,6.8,35.2,2.4,38.2,-15.1c3,-17.5,14.6,-18.5,26.8,-17.7" class="g9_3" />
<path fill-rule="evenodd" d="M646,790l140,0l0,-22l-140,0Z" class="g12_3" />
<path d="M687,800l-26,0" class="g13_3" />
<path d="M687,815l-26,0" class="g13_3" />
<path d="M687,833l-26,0" class="g13_3" />
<path d="M687,833l-26,0" class="g14_3" />
<path d="M687,815l-26,0" class="g15_3" />
<path d="M457,609.4c-0.6,9.9,-22.3,7.5,-21.6,-2" class="g8_3" />
<path d="M453.2,608.4c-0.4,6.4,-14.5,4.8,-14,-1.3" class="g8_3" />
<path d="M436.6,603.8c-0.9,0.8,-1,2.2,-1.1,3c0,0,-0.2,3.6,-0.3,5.8c-0.5,9.5,20.9,11.9,21.6,1.9c0.2,-3.3,0.2,-4.1,0.3,-3.9c0.1,-0.9,0,-2.3,-0.9,-3.4" class="g9_3" />
<path d="M457.4,598c0.2,9.9,-21.7,9.1,-21.6,-0.4" class="g8_3" />
<path d="M453.6,597.3c0.1,6.4,-14.1,5.9,-14.1,-0.3" class="g8_3" />
<path d="M436,595.4c-0.1,0.6,-0.1,1.2,-0.1,1.6c0,0,0,3.6,0.1,5.8c0.1,9.5,21.7,10.3,21.6,0.4c0,-3.4,0,-4.2,0,-4c0.1,-0.9,-0.1,-2.3,-1.1,-3.3" class="g9_3" />
<path d="M456.6,585.6c1.3,9.8,-20.5,11.6,-21.6,2.2" class="g8_3" />
<path d="M452.7,585.4c0.8,6.3,-13.3,7.5,-14,1.4" class="g8_3" />
<path d="M435.5,584c-0.7,1,-0.5,2.4,-0.5,3.1c0,0,0.5,3.7,0.8,5.8c1.3,9.5,22.8,7.7,21.6,-2.2c-0.4,-3.3,-0.6,-4.1,-0.5,-3.9c0,-0.9,-0.4,-2.3,-1.5,-3.1" class="g9_3" />
<path d="M453.1,570.9c5,8.6,-14.4,18.6,-19.1,10.2" class="g8_3" />
<path d="M449.4,572.2c2.5,4.3,-4.4,9.1,-9,8.6" class="g8_3" />
<path d="M433.1,577.5c-0.3,1.2,0.4,2.4,0.7,3.1c0,0,1.9,3.1,2.9,5c4.8,8.2,24,-1.6,19.1,-10.2c-1.6,-3,-2,-3.6,-1.9,-3.5c-0.4,-0.8,-1.3,-2,-2.6,-2.3" class="g9_3" />
<path d="M445.1,564.6c0.6,7.1,-9.3,17.4,-15.5,12.9" class="g8_3" />
<path d="M429.1,577.1c0,0,3.1,2.1,4.8,3.3c7.5,5.2,20,-10.1,14,-16.5c-1.1,-1.1,-2.5,-1.4,-2.5,-1.4" class="g9_3" />
<path d="M435.9,567.5c-1.1,5.1,-4.4,9.6,-9,8.9" class="g8_3" />
<path d="M426.3,576.3c0,0,3.7,0.5,5.8,0.7c3.9,0.4,6.8,-2.9,8.3,-7" class="g9_3" />
<path d="M425.6,570.3c-0.9,3.6,-3,6.4,-6.3,6.6" class="g8_3" />
<path d="M421.5,571.3c-0.7,1.1,-1.7,1.8,-3,1.9" class="g8_3" />
<path d="M417.8,576.9c0.3,0,0.6,0,0.9,0c0,0,3.6,-0.3,5.8,-0.5c3.7,-0.3,5.8,-3.8,6.5,-7.8" class="g9_3" />
<path fill-rule="evenodd" d="M438.8,571.1l-54.2,13.7l0.8,-21l55.9,-7.7Z" class="g10_3" />
<path d="M291.5,569.7c-0.5,0.5,-0.8,1.3,-0.8,2.4c-0.1,3.4,-0.9,4.7,2.8,6.1c3.7,1.5,51.1,15.6,51.1,15.6c0,0,6.1,1.4,11.7,-0.3c5.5,-1.6,46.4,-14.1,46.4,-14.1c0,0,2.2,-0.6,3.2,-0.3c1,0.3,2.2,0.7,4.4,0c2.1,-0.7,29.8,-9.1,29.8,-9.1c0,0,4.3,-1.5,4.5,-6.4" class="g9_3" />
<path d="M388.1,584c2.2,0.3,4.1,0.1,6.8,-0.3c3.5,-0.7,15.4,-4.6,15.4,-4.6c0,0,1.3,-2,1.1,-2.9c-0.3,-0.9,21.6,-6.8,21.6,-6.8" class="g9_3" />
<path d="M576.3,463.7c-0.5,0.3,-0.6,0.8,-0.6,1.3c0,0.5,0,59.1,0,60.7c0,1.6,-0.8,3.7,-4,4.8c-3.2,1.2,-93.1,27.9,-94.2,28.3c-1.2,0.4,-2.3,0.4,-3.4,0c-1.2,-0.4,-6.3,-2.1,-6.3,-2.1c0,0,-2.5,-0.5,-4,0.1c-1.5,0.6,-31.5,9.5,-31.5,9.5c0,0,-1.2,0.7,0,1.2" class="g9_3" />
<path d="M440,569.3l-8.2,-2.4" class="g8_3" />
<path d="M408.5,172.5l118,0" class="g8_3" />
<image x="102" y="102" width="114" height="39" xlink:href="img/1.png" />
</svg>