<?xml version="1.0" encoding="UTF-8" standalone="no"?>
<!DOCTYPE svg PUBLIC "-//W3C//DTD SVG 1.1//EN"
"http://www.w3.org/Graphics/SVG/1.1/DTD/svg11.dtd">
<svg version="1.1" xmlns="http://www.w3.org/2000/svg" xmlns:xlink="http://www.w3.org/1999/xlink">
<defs>
<clipPath id="c0_1"><path d="M200.3,1083.9c-56.7,0,-102.7,-46,-102.7,-102.8c0,-56.7,46,-102.7,102.7,-102.7c56.7,0,102.7,46,102.7,102.7c0,56.8,-46,102.8,-102.7,102.8Z" /></clipPath>
<style type="text/css"><![CDATA[
.g20_1{
fill: #B3B3B3;
stroke: #000000;
stroke-width: 1;
stroke-linecap: round;
stroke-linejoin: round;
stroke-miterlimit: 2;
}
.g15_1{
fill: #636363;
}
.g21_1{
fill: #E6E6E6;
stroke: #000000;
stroke-width: 1;
stroke-linecap: round;
stroke-linejoin: round;
stroke-miterlimit: 2;
}
.g18_1{
fill: none;
stroke: #FFFFFF;
stroke-width: 5;
stroke-linecap: round;
stroke-linejoin: round;
stroke-miterlimit: 2;
}
.g2_1{
fill: none;
stroke: #FFFFFF;
stroke-width: 3;
stroke-linecap: round;
stroke-linejoin: miter;
stroke-miterlimit: 2;
}
.g16_1{
fill: #999999;
}
.g19_1{
fill: none;
stroke: #000000;
stroke-width: 2;
stroke-linecap: round;
stroke-linejoin: round;
stroke-miterlimit: 2;
stroke-dasharray: 3,4;
}
.g3_1{
fill: #FFFFFF;
stroke: #000000;
stroke-width: 2;
stroke-linecap: butt;
stroke-linejoin: miter;
stroke-miterlimit: 2;
}
.g17_1{
fill: #999999;
stroke: #000000;
stroke-width: 2;
stroke-linecap: round;
stroke-linejoin: round;
stroke-miterlimit: 2;
}
.g13_1{
fill: #636363;
stroke: #000000;
stroke-width: 1;
stroke-linecap: round;
stroke-linejoin: round;
stroke-miterlimit: 2;
}
.g14_1{
fill: #D4D4D4;
}
.g1_1{
fill: #B3B3B3;
}
.g7_1{
fill: #636363;
stroke: #000000;
stroke-width: 1;
stroke-linecap: butt;
stroke-linejoin: miter;
stroke-miterlimit: 2;
}
.g9_1{
fill: none;
stroke: #000000;
stroke-width: 2;
stroke-linecap: round;
stroke-linejoin: round;
stroke-miterlimit: 2;
}
.g22_1{
fill: #CCCCCC;
}
.g5_1{
fill: none;
stroke: #000000;
stroke-width: 2;
stroke-linecap: butt;
stroke-linejoin: miter;
stroke-miterlimit: 2;
}
.g10_1{
fill: #808080;
stroke: #000000;
stroke-width: 1;
stroke-linecap: round;
stroke-linejoin: round;
stroke-miterlimit: 2;
}
.g23_1{
fill: none;
stroke: #000000;
stroke-width: 4;
stroke-linecap: round;
stroke-linejoin: round;
stroke-miterlimit: 2;
}
.g4_1{
fill: none;
stroke: #000000;
stroke-width: 1;
stroke-linecap: butt;
stroke-linejoin: miter;
stroke-miterlimit: 2;
}
.g11_1{
fill: #FFFFFF;
}
.g6_1{
}
.g8_1{
fill: none;
stroke: #000000;
stroke-width: 1;
stroke-linecap: round;
stroke-linejoin: round;
stroke-miterlimit: 2;
}
.g12_1{
fill: #FFFFFF;
stroke: #FFFFFF;
stroke-width: 3;
stroke-linecap: round;
stroke-linejoin: round;
stroke-miterlimit: 2;
}
]]></style>
</defs>
<path fill-rule="evenodd" d="M55,54l824,0l0,1101l-824,0Z" class="g1_1" />
<path d="M55.5,256.5l27,0" class="g2_1" />
<path d="M55.5,430.5l27,0" class="g2_1" />
<path d="M55.5,605.5l27,0" class="g2_1" />
<path d="M55.5,779.5l27,0" class="g2_1" />
<path d="M55.5,953.5l27,0" class="g2_1" />
<path d="M852.5,256.5l28,0" class="g2_1" />
<path d="M852.5,605.5l28,0" class="g2_1" />
<path d="M852.5,779.5l28,0" class="g2_1" />
<path d="M852.5,953.5l28,0" class="g2_1" />
<path d="M236.5,82.5l0,-27" class="g2_1" />
<path d="M390.5,82.5l0,-27" class="g2_1" />
<path d="M544.5,82.5l0,-27" class="g2_1" />
<path d="M698.5,82.5l0,-27" class="g2_1" />
<path d="M236.5,1155.5l0,-28" class="g2_1" />
<path d="M390.5,1155.5l0,-28" class="g2_1" />
<path d="M544.5,1155.5l0,-28" class="g2_1" />
<path d="M698.5,1155.5l0,-28" class="g2_1" />
<path fill-rule="evenodd" d="M82,82l770,0l0,1045l-770,0Z" class="g3_1" />
<path d="M184.5,209.5l646,0" class="g4_1" />
<path d="M103.5,278.5l727,0" class="g4_1" />
<path d="M82,1097l770,0" class="g5_1" />
<path d="M466.5,1099.5l0,28" class="g4_1" />
<path d="M468.5,1099.5l0,28" class="g4_1" />
<path d="M272.5,1099.5l0,28" class="g4_1" />
<path d="M274.5,1099.5l0,28" class="g4_1" />
<path d="M664.5,1099.5l0,28" class="g4_1" />
<path d="M666.5,1099.5l0,28" class="g4_1" />
<path fill-rule="evenodd" d="M106,289l37,0l0,38l-37,0Z" class="g6_1" />
<path fill-rule="evenodd" d="M103.5,287.5l38,0l0,37l-38,0Z" class="g7_1" />
<path d="M103.5,673.5l727,0" class="g4_1" />
<path d="M274.5,1099.5l192,0" class="g8_1" />
<path d="M468.5,1099.5l196,0" class="g8_1" />
<path d="M666.5,1099.5l186,0" class="g8_1" />
<path d="M272.5,1099.5l-190,0" class="g8_1" />
<path d="M467.5,673.5l0,-395" class="g4_1" />
<path fill-rule="evenodd" d="M479,289l37,0l0,38l-37,0Z" class="g6_1" />
<path fill-rule="evenodd" d="M477.5,287.5l37,0l0,37l-37,0Z" class="g7_1" />
<path d="M852.5,430.5l28,0" class="g2_1" />
<path fill-rule="evenodd" d="M106,683l37,0l0,38l-37,0Z" class="g6_1" />
<path fill-rule="evenodd" d="M103.5,681.5l38,0l0,38l-38,0Z" class="g7_1" />
<path d="M189.8,220.3c0.1,-0.1,0.3,-0.2,0.4,-0.3" class="g8_1" />
<path d="M190.2,220c0.3,-0.1,0.7,-0.1,1.1,-0.1c0.6,0.2,1.2,0.5,2,1.1c6.3,-1.6,12.2,-2.7,18.1,-3.4c5.8,-0.5,11.2,-0.6,16.5,-0.2" class="g8_1" />
<path d="M228.6,217.7c-0.3,-0.5,-0.9,-0.9,-1.7,-1.2c-0.8,-0.2,-1.8,-0.4,-3,-0.4c-7.2,-0.2,-13.6,0.1,-19.2,0.7c-5.6,0.7,-10.5,1.8,-14.5,3.2" class="g9_1" />
<path d="M187.3,228.5c1,0.7,2.1,1.4,3.2,2c1.1,0.6,2.2,1.1,3.4,1.5c3.8,-0.5,7.6,-1,11.4,-1.4" class="g8_1" />
<path d="M205.3,230.6c0.3,-0.1,0.6,-0.1,0.9,-0.2c0,-0.4,0,-0.9,0,-1.4c-0.4,-0.3,-0.7,-0.6,-0.9,-0.9c-0.1,-0.3,-0.2,-0.5,-0.2,-0.8c0.2,-1.2,0.7,-2.1,1.3,-2.7c0.7,-0.6,1.6,-1,2.7,-1c1.3,-0.1,2.2,-0.1,3,0c0.7,0.2,1.1,0.5,1.2,0.9c0.9,-0.1,2,-0.2,3.3,-0.4c1.4,-0.3,3,-0.6,4.7,-1.1c1.1,-0.3,1.9,-0.3,2.5,0.1" class="g9_1" />
<path d="M223.8,223.1c0.6,0.4,0.9,1.2,1,2.4c0.1,1,0.2,2.1,0.3,3.2" class="g8_1" />
<path d="M189.8,220.3c-0.4,2,-0.8,3.9,-1.3,5.9c0,0.3,-0.2,0.5,-0.4,0.6c-0.2,0.2,-0.4,0.2,-0.7,0.2c0,0.5,-0.1,1,-0.1,1.5" class="g9_1" />
<path d="M193.3,221.1c-0.1,2.4,-0.1,4.9,-0.2,7.4c0,0.3,0.1,0.7,0.2,1c0.2,0.4,0.4,0.7,0.7,1.1" class="g8_1" />
<path d="M194.1,230.6l12.1,-1.5" class="g8_1" />
<path d="M194.1,230.6L193.5,243" class="g8_1" />
<path d="M225.1,228.7c0,1,0.2,1.7,0.5,2.2c0.3,0.4,0.9,0.6,1.5,0.6" class="g8_1" />
<path d="M222.2,222.9c0.2,1.3,0.4,2.6,0.6,3.9c0.1,0.9,0,1.6,-0.4,2.1c-0.4,0.6,-1.2,0.9,-2.2,1.1c-4.1,0.7,-8.3,1.5,-12.5,2.2" class="g9_1" />
<path d="M224.4,230.2l-1.6,-1" class="g8_1" />
<path fill-rule="evenodd" d="M195.2,222.9c-0.1,0.5,0.1,1,0.5,1c0.3,0.1,0.6,-0.2,0.7,-0.7c0.1,-0.5,-0.1,-1,-0.4,-1c-0.3,-0.1,-0.7,0.3,-0.8,0.7Z" class="g10_1" />
<path fill-rule="evenodd" d="M194.8,228.1c0,0.5,0.1,0.9,0.5,1c0.3,0,0.6,-0.3,0.7,-0.8c0.1,-0.5,-0.1,-0.9,-0.4,-1c-0.3,-0.1,-0.7,0.3,-0.8,0.8Z" class="g10_1" />
<path fill-rule="evenodd" d="M205,222.4c-0.1,0.5,0.1,1,0.4,1.1c0.3,0,0.7,-0.3,0.8,-0.8c0.1,-0.5,-0.1,-0.9,-0.4,-1c-0.4,-0.1,-0.7,0.3,-0.8,0.7Z" class="g10_1" />
<path d="M227.2,222.3c0,-1,-0.3,-1.6,-0.9,-2.1c-0.7,-0.4,-1.7,-0.6,-3.1,-0.5c-1.7,-0.1,-3.8,-0.1,-6.5,0c-2.6,0.1,-5.7,0.3,-9.4,0.6c-1.2,0.1,-2.1,0.5,-2.6,1.1c-0.5,0.7,-0.7,1.5,-0.5,2.8c0.2,0.8,0.4,1.5,0.5,2.2" class="g8_1" />
<path d="M205.6,225.9c0.7,-0.1,1.5,0,2.1,0.2c0.7,0.3,1.3,0.7,1.8,1.3c0.5,-0.9,0.9,-1.8,1.3,-2.6" class="g9_1" />
<path d="M208.2,223.7c1.2,0.2,2.1,0.6,2.6,1.1c0.6,0.4,1,1,1.1,1.6" class="g8_1" />
<path d="M211.9,226.4c0.2,-0.5,0.4,-1,0.6,-1.3c0.3,-0.3,0.6,-0.5,0.9,-0.6" class="g9_1" />
<path d="M211.9,226.4l-1.4,-0.8" class="g9_1" />
<path d="M209.5,227.4l-1.7,-0.9" class="g8_1" />
<path d="M207,225.9c0.3,0.2,0.6,0.5,0.9,0.7" class="g8_1" />
<path d="M208,248.3c0.3,-0.2,0.7,-0.5,1,-0.7c7.2,-1.6,14.5,-3.3,21.7,-4.9c0,0,1.9,-1.2,2.3,-2.7c0,-1.8,0.1,-3.6,0.1,-5.4c-0.3,-2.4,-2.3,-4,-2.3,-4c-0.3,-0.4,-0.3,-0.6,-0.4,-0.9c-0.2,-0.3,-0.3,-0.8,-0.4,-1.2c0,0,-1.4,-10.7,-1.4,-10.7" class="g9_1" />
<path d="M205.3,230.6c0.2,3.8,0.1,8.2,-0.1,13.1c-0.3,4.9,-0.8,10.3,-1.5,16.2" class="g9_1" />
<path d="M203.7,259.9l-3.1,0.7" class="g8_1" />
<path d="M233,234.7l-23.9,4.9" class="g8_1" />
<path d="M209.1,239.6c0,-1.1,0,-2.3,0,-3.5c0,-0.1,0,-0.1,-0.1,-0.2c0,0,-0.1,-0.1,-0.2,-0.1c-0.3,-0.1,-0.5,-0.2,-0.6,-0.4c-0.2,-0.2,-0.3,-0.5,-0.3,-0.8c0,-1.1,-0.2,-2.1,-0.5,-2.9c-0.3,-0.9,-0.7,-1.6,-1.2,-2.1" class="g9_1" />
<path d="M233,240l-28,5.9" class="g8_1" />
<path d="M205,245.9c0.2,-0.1,0.3,-0.2,0.3,-0.3c0.1,-0.1,0.2,-0.2,0.2,-0.4c0,-1.6,0.1,-3.2,0.2,-4.8c0,-1.2,0,-2.4,0,-3.6c0,0,-0.1,-0.1,-0.1,-0.1c0,-0.1,-0.1,-0.1,-0.2,-0.2" class="g8_1" />
<path d="M208.9,236l-3.1,0.7" class="g8_1" />
<path d="M207.8,235.4l-2.2,0.5" class="g8_1" />
<path d="M216.8,230.7c1.6,0.1,2.9,0.7,3.8,1.6c0.9,0.9,1.5,2.3,1.8,4c0,0.1,0.1,0.3,0.1,0.3c0.1,0.1,0.1,0.2,0.2,0.2" class="g8_1" />
<path d="M222.3,242.3c-0.2,0.7,-0.7,1.3,-1.3,1.8c-0.7,0.6,-1.7,1.1,-2.9,1.4" class="g8_1" />
<path d="M222.8,236.8l-0.1,5.3" class="g8_1" />
<path d="M227.7,231.3l2.2,-0.5" class="g8_1" />
<path d="M225,230.9c0,0.3,-0.2,0.6,-0.4,0.7c-0.1,0.2,-0.4,0.3,-0.7,0.3c-0.7,0.2,-1.4,0.3,-2.2,0.5" class="g8_1" />
<path d="M220.1,232.8l-11.3,2" class="g8_1" />
<path d="M202.2,231.1c0.2,3.8,0.1,8.2,-0.1,13.1c-0.3,4.9,-0.8,10.4,-1.5,16.4" class="g8_1" />
<path d="M203.9,258.8l2.9,-0.7" class="g8_1" />
<path d="M206.8,258.1c0.4,-1.1,0.8,-2.4,1,-3.8c0.2,-1.4,0.3,-3.1,0.3,-4.8c-0.1,-0.7,-0.1,-1.4,0,-2c0.1,-0.6,0.4,-1.1,0.7,-1.5" class="g9_1" />
<path d="M209.5,247.6c0.8,0.3,1.4,1.6,1.5,3.2c0.2,1.9,-0.4,3.6,-1.4,3.6c-0.6,0.3,-1.2,0.5,-1.9,0.8" class="g9_1" />
<path d="M210.9,252.9l7.2,4.3" class="g9_1" />
<path d="M218.1,257.2l-25.3,6.2" class="g8_1" />
<path d="M192.8,263.4l-4.3,-2.9" class="g8_1" />
<path d="M190.6,271.7l-0.2,-0.1" class="g8_1" />
<path d="M193.8,251.7l0,1.6l-2.8,0.5l-1.1,-0.5" class="g9_1" />
<path d="M187.6,252.1c0,-1.7,0,-3.4,0,-5.1c-0.1,-0.8,-0.2,-1.7,-0.2,-2.6c0,-0.9,-0.1,-2,-0.1,-3c0,-0.2,-0.1,-0.5,-0.1,-0.6c-0.1,-0.2,-0.1,-0.4,-0.2,-0.5c-0.1,-0.1,-0.2,-0.2,-0.3,-0.4c0,-0.2,-0.1,-0.4,-0.1,-0.7c0.1,-1.1,0.1,-2.5,0.2,-4.3c0.1,-1.8,0.3,-3.9,0.4,-6.4" class="g9_1" />
<path d="M190.9,253.8c0,-1.7,0,-3.3,0,-5c0.3,-0.7,0.5,-1.5,0.7,-2.3c0.2,-0.9,0.4,-1.8,0.5,-2.7c0.1,-0.2,0.2,-0.4,0.2,-0.5" class="g8_1" />
<path d="M192.3,243.3c0.2,-0.1,0.3,-0.1,0.5,-0.1c0.2,0.1,0.4,0.2,0.6,0.2c0.3,0.1,0.5,0.1,0.9,0" class="g9_1" />
<path d="M187.6,247l3.4,1.7l7.3,-1l1.4,-4.5" class="g8_1" />
<path d="M187.6,252.1l0.8,0.4l1.3,-0.1" class="g9_1" />
<path d="M187.1,259.4L183,256.7" class="g8_1" />
<path d="M188.5,252.5l0,-1" class="g8_1" />
<path d="M189,253l0,-1" class="g9_1" />
<path d="M188.4,251.6c0.1,-0.4,0.3,-0.7,0.6,-0.8" class="g8_1" />
<path d="M189,250.8c0.3,-0.1,0.7,0.4,0.9,1c0,0.2,0,0.4,0,0.5" class="g9_1" />
<path d="M200.4,259.7L199,260" class="g8_1" />
<path d="M199,260c0.3,-2.7,0.6,-5.5,0.8,-8.2c0.2,-2.7,0.3,-5.4,0.3,-8.1c0,-0.2,-0.1,-0.5,-0.2,-0.8" class="g8_1" />
<path d="M199.9,242.9c-0.3,0,-0.6,0,-1,0c-1.5,0.1,-3.1,0.3,-4.6,0.5" class="g9_1" />
<path d="M199,260l-1.2,-0.8" class="g8_1" />
<path d="M198.3,247.7c0,0.7,0,2.1,-0.1,4c-0.1,1.9,-0.2,4.4,-0.4,7.5" class="g8_1" />
<path d="M200.6,260.6c-0.1,0,-0.2,-0.1,-0.3,-0.1c0,0,-0.1,-0.1,-0.1,-0.1" class="g8_1" />
<path d="M201.9,231c0.1,3.8,0.1,8,-0.2,12.9c-0.2,5,-0.7,10.4,-1.4,16.4" class="g8_1" />
<path d="M213.7,256.3l-3.5,-2.1" class="g8_1" />
<path d="M209.7,257.2l-2.2,-1.3" class="g8_1" />
<path d="M212.3,256.8l-3.4,-2.1" class="g9_1" />
<path d="M208.2,257.6l-1,-0.6" class="g9_1" />
<path d="M213.7,256.4l-1.4,0.4" class="g9_1" />
<path d="M209.8,257.3l-1.6,0.4" class="g9_1" />
<path fill-rule="evenodd" d="M230.4,232.6c0.3,0.6,0.2,1.1,0,1.3c-0.3,0.1,-0.8,-0.2,-1.1,-0.7c-0.3,-0.6,-0.3,-1.2,0,-1.3c0.3,-0.2,0.8,0.2,1.1,0.7Z" class="g10_1" />
<path d="M187.1,259.4l3.2,-0.7" class="g8_1" />
<path d="M192.1,258.3l0.9,-0.2" class="g8_1" />
<path d="M193.8,251.7c0,-0.2,0.1,-0.4,0.1,-0.6c0.3,-0.8,1,-1.3,1.7,-1.1" class="g9_1" />
<path d="M195.6,250c0.4,0.1,0.7,0.6,0.7,1.1c0.1,2,0.2,4,0.4,6.1c0,0.4,0.2,0.8,0.3,1.1c0.2,0.2,0.5,0.4,0.8,0.5" class="g8_1" />
<path d="M197.2,258.5L193.5,256" class="g8_1" />
<path d="M192.2,254.4c0.6,0.2,1.2,0.6,1.2,1" class="g9_1" />
<path d="M193.4,255.4c0,0.5,-1,1,-2.3,1c-1.3,0,-2.3,-0.5,-2.3,-1" class="g8_1" />
<path d="M188.8,255.4c0,-0.4,0.6,-0.8,1.3,-1" class="g9_1" />
<path d="M188.5,255.5l0,1" class="g8_1" />
<path d="M189,257.3c0.4,0.4,1.2,0.6,2.1,0.6c0.6,0,1.2,-0.1,1.6,-0.3" class="g9_1" />
<path d="M193.5,256.5l0,-1" class="g8_1" />
<path d="M190.1,253.3c0,0.7,0,1.3,0,2c0,0.3,0.4,0.5,1,0.5c0.6,0,1.1,-0.2,1.1,-0.5c0,-0.6,0,-1.1,0,-1.7" class="g8_1" />
<path d="M190,257l0,3" class="g9_1" />
<path d="M192.5,257.5l0,2" class="g8_1" />
<path d="M190.5,263.5l0,8" class="g8_1" />
<path d="M192.2,263.7l0,5.7l-1.6,2.4" class="g9_1" />
<path d="M192.9,258.1c0.2,0,0.4,-0.1,0.7,-0.1c0.8,0,1.4,0.3,1.4,0.6" class="g8_1" />
<path d="M190.5,257.5l0,2" class="g8_1" />
<path d="M190,263l0,8" class="g9_1" />
<path d="M211.3,225.2c0.1,0.2,0.2,0.5,0.2,0.7" class="g8_1" />
<path d="M211.4,225.9l-0.9,-0.5" class="g8_1" />
<path d="M189,256c0.2,0,0.4,0.2,0.5,0.6c0.1,0.3,-0.1,0.6,-0.3,0.7" class="g8_1" />
<path d="M188.4,256.2c0.2,-0.1,0.5,0.2,0.5,0.5c0.1,0.4,0,0.7,-0.3,0.7" class="g8_1" />
<path d="M193.1,256.4c-0.3,-0.2,-0.7,-0.1,-0.9,0.2c-0.2,0.3,-0.1,0.6,0.1,0.8" class="g8_1" />
<path d="M192.8,257.7c0.2,0.1,0.6,0,0.8,-0.2c0.2,-0.3,0.1,-0.7,-0.1,-0.9" class="g9_1" />
<path d="M193.5,256.6c-0.2,-0.1,-0.6,0,-0.8,0.3c-0.2,0.3,-0.2,0.6,0.1,0.8" class="g8_1" />
<path d="M193.5,256.7l-0.4,-0.3" class="g8_1" />
<path d="M192.7,257.6l-0.4,-0.2" class="g8_1" />
<path d="M192.8,263.3l-3,-1l-4.3,-2.9" class="g8_1" />
<path d="M187.1,259.4l-3,-1l-4.2,-2.8" class="g8_1" />
<path d="M213.3,256.5l-3.6,-2.1" class="g8_1" />
<path d="M209.3,257.4l-1.9,-1.2" class="g8_1" />
<path d="M189.8,262.3l-0.2,0.4" class="g8_1" />
<path d="M184.1,258.4l-0.2,0.4" class="g8_1" />
<path d="M218.1,257.2c0,0.2,0,0.3,0,0.5c-8.4,2,-16.9,4,-25.3,6.1c-1,-0.3,-2.1,-0.7,-3.2,-1c-1.4,-1,-2.9,-2,-4.3,-3c0,-0.1,0.1,-0.2,0.2,-0.4c1,0.3,2,0.6,3,1c2,-0.4,3.9,-0.8,5.9,-1.3c0.3,-0.1,0.6,-0.3,0.6,-0.5" class="g9_1" />
<path d="M188.7,255.4l-5.7,1.3l0,-0.1l-3,-1l-0.1,0.1l-0.2,0.4l4.1,2.8l1.6,0.5" class="g9_1" />
<path d="M187.1,259.9l3.2,-0.8" class="g8_1" />
<path d="M192.2,258.7c0.2,-0.1,0.5,-0.1,0.8,-0.2c0.1,0,0.4,-0.1,0.6,-0.1c0.6,0,1,0.2,1.2,0.3" class="g8_1" />
<path d="M189.2,257.3c-0.2,0,-0.3,0.1,-0.5,0.1l-0.1,0c-0.2,0.1,-0.4,-0.2,-0.5,-0.5c-0.1,-0.4,0.1,-0.7,0.3,-0.7c0,0,-0.1,-0.1,-0.1,-0.1c0.2,0,0.5,0,0.7,-0.1" class="g9_1" />
<path d="M229.3,237.3l0.7,-0.2l0,-0.7" class="g8_1" />
<path d="M230,237.1l0.2,0.1" class="g8_1" />
<path d="M230.5,236.9l0.7,-0.1l0,-0.7" class="g8_1" />
<path d="M231.2,236.8l0.2,0.1" class="g8_1" />
<path d="M231.8,236.7l0.6,-0.2l0,-0.7" class="g8_1" />
<path d="M232.4,236.5l0.2,0.2" class="g8_1" />
<path d="M231.8,238l0.6,-0.2l0,-0.6" class="g8_1" />
<path d="M232.4,237.9l0.2,0.1" class="g8_1" />
<path d="M231.8,239.4l0.6,-0.2l0,-0.7" class="g8_1" />
<path d="M232.4,239.2l0.2,0.2" class="g8_1" />
<path d="M230.5,239.6l0.7,-0.1l0,-0.7" class="g8_1" />
<path d="M231.2,239.5l0.2,0.1" class="g8_1" />
<path d="M230.5,238.3l0.6,-0.2l0,-0.7" class="g8_1" />
<path d="M231.2,238.2l0.2,0.1" class="g8_1" />
<path d="M229.3,238.6l0.7,-0.2l0,-0.7" class="g8_1" />
<path d="M230,238.4l0.2,0.2" class="g8_1" />
<path d="M229.3,239.9l0.6,-0.1l0,-0.7" class="g8_1" />
<path d="M229.9,239.8l0.2,0.1" class="g8_1" />
<path d="M194.3,229.7l10.6,-1.2" class="g8_1" />
<path fill-rule="evenodd" d="M268.3,247.2c11.4,-6.5,22.8,-13.1,34.2,-19.8c0.4,-0.5,0.9,-1.1,1.3,-1.7c0.2,-0.2,0.2,-0.4,0.2,-0.5C303.9,225,303.7,225,303.5,225c-0.8,0,-1.5,0.1,-2.3,0.2c-11.3,6.5,-22.6,13.1,-33.9,19.6c0.3,0.8,0.6,1.6,1,2.4Z" class="g11_1" />
<path d="M259.9,252.1c14.2,-8.3,28.4,-16.5,42.6,-24.7c0.4,-0.5,0.9,-1.1,1.3,-1.7c0.2,-0.2,0.2,-0.4,0.2,-0.5C303.9,225,303.7,225,303.5,225c-0.8,0,-1.5,0.1,-2.3,0.2C287.1,233.3,273,241.4,259,249.6" class="g9_1" />
<path d="M301.8,227.3c0.2,-0.5,0.5,-0.8,0.8,-1.1c0.3,-0.3,0.7,-0.5,1.2,-0.6" class="g8_1" />
<path d="M300.8,225.9c0.5,0,1.1,-0.1,1.5,-0.3c0.5,-0.1,0.9,-0.3,1.3,-0.6" class="g8_1" />
<path fill-rule="evenodd" d="M271.6,238.4c-0.7,0.3,-1.3,0.7,-1.9,1.1c-0.4,0.2,-0.7,0.5,-0.9,0.8c-0.2,0.3,-0.4,0.7,-0.5,1.2c0,0.3,0,0.5,-0.1,0.6c-0.1,0.1,-0.3,0.2,-0.5,0.1c-0.6,-0.5,-1.4,-0.8,-2,-0.8c-0.6,-0.1,-1.4,0,-2,0.3c-6.8,3.9,-13.7,7.9,-20.5,11.8c-1.5,1.5,-2.4,2.9,-2.6,4.3c-0.2,1.5,0.2,2.9,1.1,4.2c1.2,1.4,2.6,2.3,3.9,2.5c1.4,0.2,3,-0.1,4.6,-1.1c6.4,-3.7,12.8,-7.4,19.2,-11.1c0.7,-0.6,1.2,-1.2,1.5,-1.9c0.3,-0.6,0.4,-1.4,0.4,-2.1c0,-0.3,0.2,-0.5,0.3,-0.6c0.1,0,0.3,0.1,0.5,0.3c0.4,0.2,0.8,0.4,1.1,0.4c0.4,0,0.8,-0.1,1.1,-0.2c0.7,-0.4,1.5,-0.9,2.2,-1.3c0.7,-0.7,1,-1.5,0.9,-2.5c0,-1,-0.5,-2.2,-1.3,-3.4c-0.8,-1.1,-1.6,-1.9,-2.3,-2.3c-0.8,-0.5,-1.5,-0.6,-2.2,-0.3Z" class="g11_1" />
<path d="M268.4,242.1c-0.1,-1.1,0.3,-2,1,-2.4c0.6,-0.4,1.4,-0.8,2.1,-1.2c1.3,-0.8,3.5,0.5,4.9,2.8c1.3,2.3,1.3,4.9,0,5.6c-0.7,0.4,-1.4,0.9,-2.1,1.3c-0.8,0.4,-1.8,0.2,-2.8,-0.4" class="g9_1" />
<path d="M270.9,248.7c-0.1,-1.1,-0.5,-2.3,-1.2,-3.6c-0.5,-0.9,-1.2,-1.7,-1.9,-2.3" class="g8_1" />
<path d="M271.4,247.2c-0.1,-0.7,-0.3,-1.7,-0.8,-2.5c-0.5,-0.9,-1.2,-1.6,-1.8,-2" class="g8_1" />
<path d="M272.8,247.7c-0.5,-0.2,-0.9,-0.2,-1.1,-0.1c-0.2,0,-0.4,0.3,-0.4,0.5c0,0.9,-0.1,1.8,-0.4,2.4c-0.3,0.7,-0.8,1.3,-1.4,1.6c-6.8,4,-13.6,7.9,-20.5,11.9c-0.9,0.4,-1.5,0.6,-2.4,0.6c-3.3,0,-6,-2.7,-6,-6c0,-1.9,1.1,-3.8,2.6,-4.9c6.7,-4,13.6,-7.9,20.4,-11.9c0.5,-0.3,1.2,-0.4,1.8,-0.4c0.7,0.1,1.5,0.4,2.3,0.8c0.3,0.1,0.7,0.1,0.9,0.1c0.2,-0.1,0.4,-0.5,0.5,-0.9" class="g9_1" />
<path d="M244.1,253.7c1.6,0.2,3.4,1.5,4.6,3.7c1.2,2,1.5,4.1,1.1,5.6" class="g8_1" />
<path d="M273.8,248.1c1.1,-0.9,1,-3.1,-0.2,-5.2c-1.2,-2.1,-3.1,-3.3,-4.4,-2.8" class="g8_1" />
<path d="M247,253.8L265.5,243" class="g8_1" />
<path d="M248.8,254.8l17.9,-10.6" class="g8_1" />
<path d="M250.8,258.5l18.1,-11" class="g8_1" />
<path d="M251.1,260.6l18.1,-11" class="g8_1" />
<path d="M248.8,254.8c-0.7,0.5,-2.9,0,-1.8,-1" class="g8_1" />
<path d="M250.8,258.5c-1.1,0.7,-1,2.7,0.3,2.1" class="g8_1" />
<path d="M269.2,249.6c1.1,-0.6,1.3,-3.1,-0.3,-2.1" class="g8_1" />
<path d="M266.7,244.2c1.1,-0.7,0,-1.9,-1.2,-1.2" class="g8_1" />
<path d="M288.1,497.9l42.2,-28.4" class="g8_1" />
<path d="M301.2,501l29.4,-19.8" class="g8_1" />
<path d="M325.8,472.6l-0.3,-14.1" class="g8_1" />
<path d="M325.8,498.6l-0.3,-14" class="g8_1" />
<path d="M117.4,630.7l-12.9,-9" class="g8_1" />
<path d="M344.6,538.4l-66.3,46" class="g8_1" />
<path fill-rule="evenodd" d="M104.8,620.3c1.2,0,2,0.6,1.8,1.4c-0.2,0.8,-1.3,1.4,-2.4,1.4c-1.1,0,-1.9,-0.6,-1.8,-1.4c0.2,-0.8,1.3,-1.4,2.4,-1.4Z" class="g6_1" />
<path fill-rule="evenodd" d="M182.3,649.5c1.1,0,2.1,0.7,2.1,1.5c0,0.7,-1,1.4,-2.1,1.4c-1.1,0,-2.1,-0.7,-2.1,-1.4c0,-0.8,1,-1.5,2.1,-1.5Z" class="g6_1" />
<path fill-rule="evenodd" d="M344.6,537c1.2,0,2.1,0.6,2.1,1.4c0,0.8,-0.9,1.4,-2.1,1.4c-1.1,0,-2,-0.6,-2,-1.4c0,-0.8,0.9,-1.4,2,-1.4Z" class="g6_1" />
<path fill-rule="evenodd" d="M324.3,484.1c0.6,-1,1.7,-1.6,2.3,-1.2c0.7,0.4,0.7,1.5,0.1,2.5c-0.6,1,-1.7,1.5,-2.3,1.2c-0.7,-0.4,-0.7,-1.5,-0.1,-2.5Z" class="g6_1" />
<path fill-rule="evenodd" d="M324.6,471.9c0.6,-1,1.6,-1.5,2.3,-1.2c0.7,0.4,0.7,1.5,0.1,2.5c-0.7,1.1,-1.7,1.6,-2.4,1.2c-0.6,-0.4,-0.7,-1.5,0,-2.5Z" class="g6_1" />
<path d="M564,625.3l56.2,39.2l209.7,-144" class="g9_1" />
<path d="M817.9,528.8L773.5,499.7L575.8,633.6" class="g9_1" />
<path d="M564,625.3L773.8,483.9l0,15.8l0,-15.8l56.1,36.6" class="g8_1" />
<path d="M122.8,609.4l43.7,30.5l163.2,-112" class="g9_1" />
<path d="M320.3,534.3L285.8,511.7L132,615.8" class="g9_1" />
<path d="M122.8,609.4L286,499.4l0,12.3l0,-12.3l43.7,28.5" class="g8_1" />
<path d="M122.8,512.4l43.7,30.5l163.2,-112" class="g8_1" />
<path d="M329.7,444.3L166.5,555.2L122.8,525.6" class="g9_1" />
<path d="M122.8,525.6l0,-13.2L286,402.4l43.7,28.5l0,13.4" class="g9_1" />
<path d="M166.5,555.5l0,-13" class="g8_1" />
<path fill-rule="evenodd" d="M217.6,595.2L211.9,592l-0.3,-6.3l-12.5,8l-5.7,-3.1l24.3,-63.5l6,2.3l27.4,30.8l-16.8,10.7l0.6,12.7Z" class="g12_1" />
<path d="M221,584.3c-1.3,-0.6,-0.6,-5,0.5,-7.2c1.1,-2.3,4.4,-5.8,6.3,-4.9" class="g8_1" />
<path d="M230.5,566l0.4,6.6" class="g8_1" />
<path fill-rule="evenodd" d="M225.2,558.9L222,592.2l-4.4,3L211.9,592l-0.3,-6.3l-12.5,8l-5.7,-3.1l24.3,-63.5l6,2.3Z" class="g13_1" />
<path fill-rule="evenodd" d="M234.3,571.1l0.6,12.5l-17.3,11.6l-0.6,-13l-17.9,11.5l24.6,-64.3l27.4,30.8Z" class="g14_1" />
<path d="M217.6,595.2l17.3,-11.6l-0.6,-12.7l16.8,-10.7L223.7,529.4" class="g8_1" />
<path d="M199.1,593.7l24.6,-64.3" class="g8_1" />
<path d="M217.6,595.2l-0.6,-13" class="g8_1" />
<path d="M199.1,593.7L217,582.2" class="g8_1" />
<path d="M120.5,610.8l-17,11.5l-2.2,1.5" class="g8_1" />
<path d="M164.9,641.5l-17,11.4l-2.3,1.5" class="g8_1" />
<path fill-rule="evenodd" d="M149,650.9c1.2,0,2,0.7,1.8,1.5c-0.2,0.8,-1.2,1.4,-2.4,1.4c-1.1,0,-1.9,-0.6,-1.7,-1.4c0.1,-0.8,1.2,-1.5,2.3,-1.5Z" class="g6_1" />
<path d="M148.7,652.4L132.2,640.8" class="g8_1" />
<path d="M184.9,652.8L168.4,641.2" class="g8_1" />
<path d="M347.2,540.2L331.2,529" class="g8_1" />
<path d="M249.6,604.3L182.3,651" class="g8_1" />
<path d="M603.7,553l0,-7.4l0.9,-0.8" class="g9_1" />
<path d="M603.7,545.6l8.9,6l0,10" class="g8_1" />
<path d="M607.6,558.2l5,3.4l1.1,-0.6" class="g9_1" />
<path d="M604.8,544.9l8.8,6l0,10" class="g8_1" />
<path d="M612.6,551.6l1,-0.7" class="g8_1" />
<path d="M606.4,550.9c0.7,-0.5,2.3,0.2,3.3,1.6c1,1.5,1,3.3,0.3,3.7" class="g8_1" />
<path d="M570.6,535.7l0,-9.8l0.8,-0.8" class="g9_1" />
<path d="M570.6,525.9l8.8,6l0,10" class="g8_1" />
<path d="M570.6,535.7l8.8,6.2l1.1,-0.5" class="g9_1" />
<path d="M571.6,525.2l8.9,6l0,10" class="g8_1" />
<path d="M576.9,533.1l-3.6,-2.5" class="g8_1" />
<path d="M576.8,537.1c0,0,-2.3,-1.5,-4.1,-1.1" class="g9_1" />
<path d="M572,535l0,-4" class="g9_1" />
<path d="M572.7,531.5c0.1,-0.3,0.3,-0.7,0.6,-0.9" class="g9_1" />
<path d="M576.9,533.1c-2,-0.9,-3.1,-1.6,-4.2,-1.5" class="g8_1" />
<path d="M576.5,533.5l0,4" class="g8_1" />
<path d="M570.8,525.5l-0.1,-12L570,459.6" class="g9_1" />
<path d="M602.5,564.3c8.6,5.9,15.6,10.6,15.6,10.6c0,0,0.5,0.3,1,0c0.6,-0.3,204.6,-137.3,204.6,-137.3c0,0,0.6,-0.5,0.6,-1.3c0,-0.7,0,-5.1,0,-5.1c0,0,0.1,-0.5,-0.5,-0.9c-0.6,-0.3,-1,-0.6,-1,-0.6" class="g9_1" />
<path d="M570.6,533.9c0,0,-1,0.8,-1.3,1c-0.3,0.2,-0.2,0.4,-0.2,0.7c0,0.3,0,5.3,0,5.3c0,0,0.1,0.5,0.4,0.7c0.2,0.1,14.5,10,27.6,18.9" class="g9_1" />
<path d="M822.7,431.6l0.5,-50.8" class="g9_1" />
<path d="M823.6,366.9l0,-10.9" class="g9_1" />
<path d="M559.6,450c-0.4,0.3,-0.6,0.7,-0.6,1.1c0.1,0.5,0.4,0.8,0.4,0.8l56.9,38.7c0,0,1.4,0.9,2.4,0.3c1,-0.6,215.4,-142.5,215.4,-142.5c0,0,0.4,-0.4,0.4,-0.8c0,-0.3,0.1,-0.6,-0.7,-1.2C833,345.9,776.7,310.9,776.7,310.9c0,0,-1,-0.3,-1.7,0.1c-0.7,0.4,-215.4,139,-215.4,139Z" class="g9_1" />
<path d="M559.2,450.7c0.1,0.1,0.2,0.2,0.2,0.2l56.9,38.7c0,0,1.4,0.9,2.4,0.3c1,-0.6,215.4,-142.5,215.4,-142.5c0,0,0.1,-0.1,0.2,-0.2" class="g8_1" />
<path d="M576.5,450.2c0,0.1,0.1,0.2,0.4,0.4c0.2,0.1,40.4,27,40.4,27c0,0,0.3,0.2,0.9,-0.1c0.5,-0.3,198.9,-130.4,198.9,-130.4c0,0,0.3,-0.2,0.3,-0.3" class="g9_1" />
<path d="M817.4,346.8c0,0,0.3,0,-0.5,-0.5c-0.7,-0.5,-40.1,-25.2,-40.1,-25.2c0,0,-0.6,-0.3,-1.1,0.1c-0.5,0.3,-198.8,128.4,-198.9,128.5c-0.1,0,-0.3,0.3,-0.3,0.5" class="g8_1" />
<path d="M816.7,347.3c-0.1,-0.1,-1.5,-0.9,-3.6,-2.3M780,324.3c-2,-1.2,-3.2,-2,-3.2,-2c0,0,-0.6,-0.3,-1.1,0c-0.5,0.3,-198.5,128.3,-198.6,128.4" class="g8_1" />
<path d="M675.7,388.5l0,-1.5l2.3,-1.4l1.6,-1l3.5,2.2" class="g9_1" />
<path d="M675.9,387.1l2.8,2l0,0.7" class="g8_1" />
<path d="M678.1,385.6l2.7,2l0,0.7" class="g8_1" />
<path d="M678.7,389.1l2.1,-1.5" class="g8_1" />
<path d="M711.9,412l1,3.2" class="g9_1" />
<path d="M719,407.5l3.1,1.9" class="g9_1" />
<path d="M716.2,411l0,-0.6l2.2,-1.5l2.3,1.5" class="g9_1" />
<path d="M716.2,410.4l2.1,1.3" class="g8_1" />
<path d="M716.2,411.2l1.6,1" class="g8_1" />
<path d="M712.6,411.6l3.2,2.1" class="g8_1" />
<path d="M581.1,452.9L581,452.6l-1.7,-1.3l-0.9,0.1" class="g9_1" />
<path d="M581.1,452.9c0,0,99.6,-64.5,100,-64.7c0.5,-0.3,1.1,-0.5,1.7,-0.1c0.7,0.4,7.9,5.1,7.9,5.1c0,0,0.3,0.4,0.4,0.8c0,0.5,-0.1,2.8,-0.1,3c0,0.2,0,0.3,0.3,0.5c0.3,0.2,8.2,5.3,8.2,5.3c0,0,0.5,0.1,0.9,0.1c0.5,0,5.2,0.1,5.2,0.1l0.9,0.4l7.4,4.8c0,0,0.5,0.3,0.5,0.9c0,0.5,0,0.8,0,0.8c0,0,-0.1,0.4,-0.4,0.7c-0.4,0.3,-99.3,65.1,-99.3,65.1" class="g9_1" />
<path d="M714.2,408.7c0,0,-0.1,0.5,-0.5,0.7c-0.3,0.3,-99,64.9,-99.3,65.1c-0.3,0.2,-1,0.2,-1.4,0.1" class="g8_1" />
<path d="M678.5,389.9L677,388.6c-0.6,-0.4,-1,-0.3,-1.3,-0.1" class="g8_1" />
<path d="M677.1,390.8l-1.5,-1.3c-0.6,-0.3,-1,-0.2,-1.3,0" class="g8_1" />
<path d="M674.8,392.1c-0.3,-0.4,-0.6,-0.7,-0.7,-1.4c-0.2,-0.7,0,-1.2,0.3,-1.4c0.3,-0.2,1.4,-0.8,1.4,-0.8" class="g9_1" />
<path d="M676.6,390.7L675.7,390c-0.3,-0.2,-0.6,-0.1,-0.7,0" class="g8_1" />
<path d="M675.2,391.6c-0.2,-0.2,-0.3,-0.4,-0.4,-0.8c-0.1,-0.4,0,-0.7,0.2,-0.8" class="g8_1" />
<path d="M676.3,390.9l-0.6,-0.5c-0.2,-0.2,-0.3,-0.1,-0.5,0" class="g8_1" />
<path d="M675.4,391.5c-0.1,-0.1,-0.2,-0.3,-0.3,-0.6c0,-0.3,0,-0.5,0.2,-0.6" class="g8_1" />
<path d="M683,388.1c-0.1,-0.1,-0.1,-0.3,-0.1,-0.4c0,-0.2,0,-0.5,0,-0.5c0,0,0.2,-0.4,0.5,-0.6c0.3,-0.1,95.8,-62,95.8,-62c0,0,1,-0.6,1.7,-0.2c0.7,0.4,31.7,19.9,31.7,19.9c0,0,0.5,0.2,0.5,0.7c0,0.5,0,0.9,0,0.9l2.9,1.7" class="g9_1" />
<path d="M812.7,349.9l-2.1,-2.3" class="g9_1" />
<path d="M811.6,346.8l-95.7,62.6c0,0,-0.7,0.4,-1.3,0.1" class="g9_1" />
<path d="M691.3,394.4l5.9,0.1l8.5,5.5l0.3,3.1" class="g9_1" />
<path d="M691.4,393.1l5.8,0.1l8.9,5.9l0.3,3.8" class="g8_1" />
<path d="M691.3,393l-7.6,-4.9c0,0,-1.1,-0.8,-0.6,-1.2" class="g8_1" />
<path d="M697.5,394.5l0,-1" class="g8_1" />
<path d="M714.6,408.3c0.6,0.2,1.3,-0.2,1.3,-0.2L812,345.2c0.4,-0.2,0.9,-0.7,0.6,-0.9" class="g8_1" />
<path d="M811.6,346.8c0.4,-0.2,1.5,-0.8,1.5,-1.1" class="g8_1" />
<path d="M814.6,348.6l-3,-1.8" class="g8_1" />
<path d="M618.5,574.5l-0.6,-58.4L617.8,492" class="g8_1" />
<path d="M618.5,568.5L606,560" class="g8_1" />
<path d="M600.4,556.3l-31.2,-21" class="g8_1" />
<path d="M600,556.7l-31.1,-21" class="g8_1" />
<path d="M618.5,569.2l-13.1,-8.8" class="g8_1" />
<path d="M624.7,564.2L624.2,512l0,-24.5" class="g8_1" />
<path d="M621,502.5c0.1,0.3,0.1,0.9,0,1" class="g8_1" />
<path d="M620.1,504.1c0.2,-0.1,0.7,-0.4,0.9,-0.6" class="g8_1" />
<path d="M621.5,502.3l-0.5,0.2" class="g8_1" />
<path d="M621.6,503l-0.1,-0.7" class="g8_1" />
<path d="M622.2,502.7l-0.6,0.3" class="g8_1" />
<path d="M621,504.8l0.4,-0.3l0.1,-0.7l0.6,-0.2l0.1,-0.9" class="g8_1" />
<path d="M620.3,504.6L620,504.2" class="g8_1" />
<path d="M620.9,504.3l-0.6,0.3" class="g8_1" />
<path d="M621,504.8l-0.1,-0.5" class="g8_1" />
<path d="M621.9,501.2c0.7,0.5,0.8,1.8,0,2.9c-0.7,1.1,-2,1.5,-2.7,1" class="g8_1" />
<path d="M618.8,504.8C618,504.3,618,503,618.7,501.9c0.8,-1.1,2,-1.5,2.8,-1" class="g8_1" />
<path d="M619.3,505.1c-0.8,-0.5,-0.9,-1.8,-0.1,-2.9c0.7,-1,2,-1.5,2.8,-0.9" class="g8_1" />
<path d="M593.6,546.3c-0.5,0.5,-0.6,1.5,-0.1,2.4c0.5,0.9,1.4,1.3,1.9,0.8" class="g8_1" />
<path d="M595.3,549.6c0.5,-0.5,0.6,-1.5,0.1,-2.4c-0.5,-0.9,-1.4,-1.2,-1.9,-0.8" class="g8_1" />
<path d="M618.5,568.4L824.1,430.7" class="g8_1" />
<path d="M618.5,569.2L824.4,431.3" class="g8_1" />
<path d="M620.8,513.8l-0.2,-0.3" class="g8_1" />
<path d="M822.6,368.4c0.1,0.3,0,0.9,0,1.1" class="g8_1" />
<path d="M821.7,370c0.2,-0.1,0.7,-0.3,0.9,-0.5" class="g8_1" />
<path d="M823.1,368.2l-0.5,0.2" class="g8_1" />
<path d="M823.2,368.9l-0.1,-0.7" class="g8_1" />
<path d="M823.8,368.6l-0.6,0.3" class="g8_1" />
<path d="M822.5,370.8l0.5,-0.4l0.1,-0.6l0.6,-0.3l0.1,-0.9" class="g8_1" />
<path d="M821.8,370.5l-0.2,-0.4" class="g8_1" />
<path d="M822.4,370.2l-0.6,0.3" class="g8_1" />
<path d="M822.5,370.8l-0.1,-0.6" class="g8_1" />
<path d="M823.4,367.1c0.8,0.5,0.9,1.8,0.1,2.9c-0.7,1.1,-2,1.5,-2.8,1" class="g8_1" />
<path d="M820.4,370.7c-0.8,-0.5,-0.8,-1.8,-0.1,-2.9c0.8,-1,2,-1.5,2.8,-0.9" class="g8_1" />
<path d="M820.8,371.1c-0.8,-0.6,-0.8,-1.9,0,-3c0.7,-1,2,-1.5,2.7,-0.9" class="g8_1" />
<path d="M822.4,379.8l-0.2,-0.4" class="g8_1" />
<path d="M776.2,322.2l0,4.1" class="g8_1" />
<path d="M584.7,448.7c0.3,0.3,0.3,0.9,0,1.4c-0.3,0.4,-0.7,0.6,-1,0.4" class="g8_1" />
<path d="M583.7,450.5c-0.3,-0.2,-0.3,-0.8,0,-1.3c0.3,-0.5,0.7,-0.7,1,-0.4" class="g8_1" />
<path d="M769.4,329.1c0.3,0.2,0.3,0.8,0,1.3c-0.3,0.5,-0.7,0.7,-1,0.4" class="g8_1" />
<path d="M768.4,330.9c-0.3,-0.3,-0.3,-0.9,0,-1.4c0.3,-0.4,0.7,-0.6,1,-0.4" class="g8_1" />
<path d="M593.8,546.8c-0.4,0.3,-0.4,1.1,0,1.7c0.3,0.7,0.9,0.9,1.3,0.6" class="g8_1" />
<path d="M595.1,549.1c0.4,-0.3,0.4,-1.1,0,-1.7c-0.3,-0.6,-0.9,-0.9,-1.3,-0.6" class="g8_1" />
<path fill-rule="evenodd" d="M585.9,608.8l6.3,-4l0.1,4.7l0.6,8.2l0.9,6.3l-5.8,4.2l-1.1,-7l-0.7,-6.9Z" class="g11_1" />
<path d="M606.4,550.9c-6.7,4.5,-31.9,29.5,-14.7,93.7" class="g9_1" />
<path d="M610,556.2c-6.7,4.5,-29.5,28.1,-10.4,94" class="g9_1" />
<path fill-rule="evenodd" d="M737.8,519.1l-34,73.4l-5.5,-3.1L668.4,559.8l20.4,-12.9l0,-13.4l22.4,-15.3l5,2.9l0.1,6.8L733,516.3Z" class="g15_1" />
<path fill-rule="evenodd" d="M737.8,519.1l-21.5,14.6l-0.1,-12.6l-22.4,15.1l0,12.6l-20.5,13.9l30.5,29.8Z" class="g14_1" />
<path d="M737.8,519.1l-34,73.4l-5.5,-3.1L668.5,559.9l2.6,-1.8l17.7,-12l0,-12.8l22.4,-15.1l5,2.9l0.1,12.5" class="g9_1" />
<path d="M737.8,519.1L733,516.3l-16.7,11.6" class="g9_1" />
<path d="M737.8,519.1l-21.5,14.6" class="g8_1" />
<path d="M673.3,562.7l20.5,-13.9l0,-12.6l22.4,-15.1" class="g8_1" />
<path d="M693.8,536.2l-5,-2.9" class="g8_1" />
<path d="M693.8,548.8l-4.9,-2.7" class="g8_1" />
<path d="M703.8,592.5L673.3,562.7" class="g8_1" />
<path d="M673.3,562.7l-4.8,-2.8" class="g8_1" />
<path d="M620.8,513.8l-0.2,-0.3" class="g8_1" />
<path d="M621,511.9c0.1,0.3,0.1,0.9,0,1" class="g8_1" />
<path d="M620.1,513.5c0.2,-0.1,0.7,-0.4,0.9,-0.6" class="g8_1" />
<path d="M621.5,511.7l-0.5,0.2" class="g8_1" />
<path d="M621.6,512.4l-0.1,-0.7" class="g8_1" />
<path d="M622.2,512.1l-0.6,0.3" class="g8_1" />
<path d="M621,514.2l0.4,-0.3l0.1,-0.7l0.6,-0.2l0.1,-0.9" class="g8_1" />
<path d="M620.3,514L620,513.6" class="g8_1" />
<path d="M620.9,513.7l-0.6,0.3" class="g8_1" />
<path d="M621,514.2l-0.1,-0.5" class="g8_1" />
<path d="M621.9,510.6c0.7,0.5,0.8,1.8,0,2.9c-0.7,1.1,-2,1.5,-2.7,1" class="g8_1" />
<path d="M618.8,514.2c-0.8,-0.5,-0.8,-1.8,-0.1,-2.9c0.8,-1.1,2,-1.5,2.8,-1" class="g8_1" />
<path d="M619.3,514.5c-0.8,-0.5,-0.9,-1.8,-0.1,-2.9c0.7,-1,2,-1.5,2.8,-0.9" class="g8_1" />
<path d="M822.6,378.2c0.1,0.4,0,0.9,0,1.1" class="g8_1" />
<path d="M821.7,379.8c0.2,-0.1,0.7,-0.3,0.9,-0.5" class="g8_1" />
<path d="M823.1,378l-0.5,0.2" class="g8_1" />
<path d="M823.2,378.8L823.1,378" class="g8_1" />
<path d="M823.8,378.4l-0.6,0.4" class="g8_1" />
<path d="M822.5,380.6l0.5,-0.3l0.1,-0.7l0.6,-0.2l0.1,-1" class="g8_1" />
<path d="M821.8,380.3l-0.2,-0.4" class="g8_1" />
<path d="M822.4,380.1l-0.6,0.2" class="g8_1" />
<path d="M822.5,380.6l-0.1,-0.5" class="g8_1" />
<path d="M823.4,376.9c0.8,0.6,0.9,1.9,0.1,2.9c-0.7,1.1,-2,1.6,-2.8,1" class="g8_1" />
<path d="M820.4,380.6c-0.8,-0.6,-0.8,-1.9,-0.1,-2.9c0.8,-1.1,2,-1.5,2.8,-1" class="g8_1" />
<path d="M820.8,380.9c-0.8,-0.5,-0.8,-1.9,0,-2.9c0.7,-1.1,2,-1.5,2.7,-1" class="g8_1" />
<path fill-rule="evenodd" d="M268.9,781.6l0.8,-1.1l1.7,-0.7l127,0l5.5,0l1.1,0.1l0.8,0.5l0.5,0.6l0.2,1l4.4,21.5l0.1,0.8l-0.1,1.8l-0.3,0.8l-0.4,0.5l-0.6,0.5l-0.9,0.2l-137.2,0.1l-2.8,0l-2,-0.1l-1,-0.2L265,807.4l-0.5,-1l-0.1,-1.1l0.1,-1.4Z" class="g16_1" />
<path d="M188.6,1000.8L263.2,717.5" class="g9_1" />
<path d="M470.8,945.1L411.5,717.5" class="g9_1" />
<path d="M324.5,718.5l6,0l0,8l-6,0Z" class="g8_1" />
<path d="M324.5,720.5l5,0l0,6l-5,0Z" class="g8_1" />
<path d="M324.9,720.5L324,718.4l6.5,0l-1.2,2.1" class="g8_1" />
<path d="M324,721l5,0" class="g9_1" />
<path d="M329,721l0,0" class="g9_1" />
<path d="M345.5,719.5l7,0l0,7l-7,0Z" class="g8_1" />
<path d="M346.5,721.5l5,0l0,5l-5,0Z" class="g8_1" />
<path d="M346.6,721.1l-0.9,-1.7l6.5,0l-1.2,1.7" class="g8_1" />
<path d="M346,722l4,0" class="g9_1" />
<path d="M350,722l1,0" class="g9_1" />
<path d="M344.5,735.5l-0.1,-3.1c0,-1.1,-2.3,-2.8,-6.4,-2.8c-4.2,0,-6.4,1.9,-6.4,3.2c0,1.3,0,2.7,0,2.7" class="g8_1" />
<path d="M331,735l13,0" class="g9_1" />
<path d="M343.2,733.6c0,-0.8,-1.9,-2.5,-5.2,-2.5c-3.4,0,-5.2,1.8,-5.2,2.7c0,1,0,1.7,0,1.7l10.4,0Z" class="g8_1" />
<path d="M343.2,735.6l0,-0.7c0,-0.9,-1.9,-2.5,-5.2,-2.5c-3.4,0,-5.2,1.8,-5.2,2.7c0,0.2,0,0.3,0,0.5" class="g9_1" />
<path d="M295.8,758L301,717.5" class="g8_1" />
<path d="M378,758l-83,0" class="g9_1" />
<path d="M378.6,758c0.2,-2.3,-0.2,-8.2,-0.5,-10.8c-0.3,-2.6,-4,-29.7,-4,-29.7" class="g9_1" />
<path d="M297.4,757.9c-0.1,-2.5,0.2,-6.8,0.8,-11.3c0.5,-4.5,3.6,-29.1,3.6,-29.1" class="g9_1" />
<path d="M299.5,750.5l78,0" class="g8_1" />
<path d="M270.7,763.4l2.4,0m8,0l112.8,0m8.1,-0.1l1.7,0.1c0,0,1.6,-0.2,1.9,1.3c0.3,1.4,36.5,178.3,36.5,178.3c0,0,0.3,1.5,0,2.3" class="g9_1" />
<path d="M442.1,945.3l-210,0.1" class="g8_1" />
<path d="M232.1,945.4c-0.1,-1,-0.1,-1.7,0.1,-2.4c0.1,-0.8,37,-178.4,37,-178.4c0,0,0.3,-1.2,1.5,-1.2" class="g9_1" />
<path d="M232.1,943.4c0.2,-1.3,1.2,-4.2,5.4,-7.4" class="g8_1" />
<path d="M442.3,943.4c-0.2,-1.3,-1.3,-4.2,-5.4,-7.4" class="g8_1" />
<path d="M436.9,936L403.6,764.5l-2.1,0m-6.8,0L280.4,764.4m-6.8,0l-2.5,0" class="g8_1" />
<path d="M237.5,935.5l199,0" class="g8_1" />
<path d="M237.5,936L271.1,764.4" class="g8_1" />
<path d="M337.2,897.5c6,0,10.8,3.5,10.8,7.9c0,4.3,-4.8,7.9,-10.8,7.9c-6,0,-10.9,-3.6,-10.9,-7.9c0,-4.4,4.9,-7.9,10.9,-7.9Z" class="g8_1" />
<path d="M340,904l0,2.3l-2.8,1.4l-2.8,-1.2l0.1,-2.5" class="g9_1" />
<path d="M334.5,904l2.7,-1.2L340,904" class="g8_1" />
<path d="M335.7,907.1l1.5,-0.7l1.4,0.6" class="g8_1" />
<path d="M337.5,906.5l0,-4" class="g8_1" />
<path d="M329.6,779.7c-0.2,-0.4,-0.4,-0.9,-0.4,-1.4c0,-2.4,3.6,-4.3,8,-4.3c4.4,0,8,1.9,7.9,4.3c0,0.5,-0.1,1,-0.4,1.4" class="g8_1" />
<path d="M339.3,777.6l0,1.3l-2.1,0.7l-2,-0.6l0,-1.4" class="g9_1" />
<path d="M335.2,777.6l2,-0.7l2.1,0.7" class="g8_1" />
<path d="M336.1,779.3l1.1,-0.4l1,0.3" class="g8_1" />
<path d="M337.5,778.5l0,-2" class="g8_1" />
<path d="M413.3,889.9c0.3,1.8,-1.6,3.4,-3.5,3.4l-145.1,0c-1.9,0,-3.8,-1.6,-3.5,-3.4" class="g9_1" />
<path d="M399.8,808.2l13.5,81.7" class="g8_1" />
<path d="M261.2,889.9l13.7,-81.6" class="g8_1" />
<path d="M269.7,861.2l135.1,0c1.9,0,2.8,1.1,2.9,1.9l4.5,28.7c0.1,0.6,-0.5,1.5,-2.4,1.5l-145.1,0c-1.9,0,-2.6,-1.1,-2.5,-1.4l4.6,-28.4c0.3,-1.3,1,-2.3,2.9,-2.3Z" class="g9_1" />
<path d="M402.3,831.4c0.1,0.6,-0.5,1.4,-2.2,1.4l-44.7,0m-33.8,0l-47,0c-1.8,0,-2.4,-1,-2.4,-1.3" class="g8_1" />
<path d="M398.1,808.3c0.5,0.3,0.8,0.8,0.9,1.2l3.3,21.9" class="g9_1" />
<path d="M272.2,831.5l3.5,-21.7c0.1,-0.6,0.3,-1.2,0.8,-1.5" class="g9_1" />
<path d="M272,831l0,2" class="g9_1" />
<path d="M402,831l0,2" class="g9_1" />
<path d="M276,808l0,0" class="g9_1" />
<path d="M398,808l0,0" class="g9_1" />
<path d="M269,966.2l136.2,0.1l4.4,34.5" class="g8_1" />
<path d="M268.5,969.9l0.5,-3.7" class="g9_1" />
<path d="M263.5,1000.8c0,0,2,-15.7,3.1,-24c1.1,-8.2,3.6,-8.3,4.1,-8.3c0.4,-0.1,130,0,130,0" class="g9_1" />
<path d="M400.7,968.5c1.3,0,2.7,0.6,3.2,2c0.5,1.4,1.4,4.5,1.8,8.5c0.5,4,2.8,21.8,2.8,21.8" class="g9_1" />
<path d="M270.5,971.5l131,0" class="g8_1" />
<path d="M324,726l6,0" class="g9_1" />
<path d="M345,726l7,0" class="g9_1" />
<path d="M346,726l0,-5" class="g9_1" />
<path d="M351,726l0,-5" class="g9_1" />
<path d="M329,726l0,-6" class="g9_1" />
<path d="M324,726l0,-6" class="g9_1" />
<path d="M405.5,966.5l0,3" class="g8_1" />
<path d="M403.4,969.6l1.8,0l4,31.1" class="g9_1" />
<path d="M337.2,897.1c6.3,0,11.5,3.7,11.5,8.3c0,4.6,-5.2,8.3,-11.5,8.3c-6.4,0,-11.5,-3.7,-11.5,-8.3c0,-4.6,5.1,-8.3,11.5,-8.3Z" class="g8_1" />
<path d="M329.2,779.7c-0.2,-0.4,-0.4,-0.9,-0.4,-1.4c0,-2.5,3.8,-4.5,8.4,-4.5c4.6,0,8.3,2,8.3,4.5c0,0.5,-0.1,1,-0.4,1.5" class="g8_1" />
<path d="M276.3,867.4c3.1,0,5.6,1.7,5.6,3.8c0,2.1,-2.5,3.8,-5.6,3.8c-3.1,0,-5.6,-1.7,-5.6,-3.8c0,-2.1,2.5,-3.8,5.6,-3.8Z" class="g8_1" />
<path d="M270,871.7c0,-2.4,2.8,-4.3,6.3,-4.3c3.5,0,6.3,1.9,6.3,4.3" class="g9_1" />
<path d="M282.6,871.7c0,2.3,-2.8,4.3,-6.3,4.3c-3.5,0,-6.3,-2,-6.3,-4.3" class="g8_1" />
<path d="M282.6,876.8c0,2.4,-2.8,4.3,-6.3,4.3c-3.5,0,-6.3,-1.9,-6.3,-4.3" class="g8_1" />
<path d="M269,876l0,-5" class="g9_1" />
<path d="M282,876l0,-5" class="g9_1" />
<path d="M279.7,869.9l-0.1,2.4l-3.4,1.4L273,872.3" class="g9_1" />
<path d="M273,872.3l0.5,-2.4l3.2,-1.3l3,1.3" class="g8_1" />
<path d="M274.8,873l1.9,-0.7l1.4,0.6" class="g8_1" />
<path d="M276.5,872.5l0,-4" class="g8_1" />
<path d="M273.5,872.5l0,-3" class="g8_1" />
<path d="M284.8,811.6c2.6,0,4.8,1.5,4.8,3.3c0,1.8,-2.2,3.3,-4.8,3.3c-2.7,0,-4.9,-1.5,-4.9,-3.3c0,-1.8,2.2,-3.3,4.9,-3.3Z" class="g8_1" />
<path d="M279.3,815.3c0,-2,2.4,-3.7,5.5,-3.7c3,0,5.4,1.7,5.4,3.7" class="g9_1" />
<path d="M290.2,815.3c0,2.1,-2.4,3.7,-5.4,3.7c-3.1,0,-5.5,-1.6,-5.5,-3.7" class="g8_1" />
<path d="M290.2,819.8c0,2,-2.4,3.7,-5.4,3.7c-3.1,0,-5.5,-1.7,-5.5,-3.7" class="g8_1" />
<path d="M279,819l0,-4" class="g9_1" />
<path d="M290,819l0,-4" class="g9_1" />
<path d="M287.7,813.8l-0.1,2.1l-2.9,1.2l-2.8,-1.2" class="g9_1" />
<path d="M281.9,815.9l0.4,-2.1l2.8,-1.1l2.6,1.1" class="g8_1" />
<path d="M283.4,816.5l1.7,-0.6l1.3,0.5" class="g8_1" />
<path d="M285.5,815.5l0,-3" class="g8_1" />
<path d="M282.5,816.5l0,-3" class="g8_1" />
<path d="M397.6,867.4c3.1,0,5.6,1.7,5.6,3.8c0,2.1,-2.5,3.8,-5.6,3.8c-3.1,0,-5.6,-1.7,-5.6,-3.8c0,-2.1,2.5,-3.8,5.6,-3.8Z" class="g8_1" />
<path d="M391.3,871.7c0,-2.4,2.8,-4.3,6.3,-4.3c3.5,0,6.3,1.9,6.3,4.3" class="g9_1" />
<path d="M403.9,871.7c0,2.3,-2.8,4.3,-6.3,4.3c-3.5,0,-6.3,-2,-6.3,-4.3" class="g8_1" />
<path d="M403.9,876.8c0,2.4,-2.8,4.3,-6.3,4.3c-3.5,0,-6.3,-1.9,-6.3,-4.3" class="g8_1" />
<path d="M391,876l0,-5" class="g9_1" />
<path d="M403,876l0,-5" class="g9_1" />
<path d="M401.1,869.9l-0.2,2.4l-3.4,1.4l-3.2,-1.4" class="g9_1" />
<path d="M394.3,872.3l0.5,-2.4l3.2,-1.3l3.1,1.3" class="g8_1" />
<path d="M396.1,873l1.9,-0.7l1.5,0.6" class="g8_1" />
<path d="M398.5,872.5l0,-4" class="g8_1" />
<path d="M394.5,872.5l0,-3" class="g8_1" />
<path d="M390.2,811.6c2.6,0,4.8,1.5,4.8,3.3c0,1.8,-2.2,3.3,-4.8,3.3c-2.7,0,-4.9,-1.5,-4.9,-3.3c0,-1.8,2.2,-3.3,4.9,-3.3Z" class="g8_1" />
<path d="M384.7,815.3c0,-2,2.5,-3.7,5.5,-3.7c3,0,5.4,1.7,5.4,3.7" class="g9_1" />
<path d="M395.6,815.3c0,2.1,-2.4,3.7,-5.4,3.7c-3,0,-5.5,-1.6,-5.5,-3.7" class="g8_1" />
<path d="M395.6,819.8c0,2,-2.4,3.7,-5.4,3.7c-3,0,-5.5,-1.7,-5.5,-3.7" class="g8_1" />
<path d="M384,819l0,-4" class="g9_1" />
<path d="M395,819l0,-4" class="g9_1" />
<path d="M393.2,813.8l-0.2,2.1l-2.9,1.2l-2.8,-1.2" class="g9_1" />
<path d="M387.3,815.9l0.4,-2.1l2.8,-1.1l2.7,1.1" class="g8_1" />
<path d="M388.9,816.5l1.6,-0.6l1.3,0.5" class="g8_1" />
<path d="M390.5,815.5l0,-3" class="g8_1" />
<path d="M387.5,816.5l0,-3" class="g8_1" />
<path d="M274.5,792.4c0,-1.3,1.8,-2.4,4,-2.4c2.3,-0.1,4.1,0.9,4.1,2.3" class="g8_1" />
<path d="M410.8,803.4c0.3,1.1,-0.7,2.5,-2.4,2.5l-141.3,0c-1.7,0,-2.8,-1.2,-2.6,-2.1" class="g8_1" />
<path d="M264.5,803.8l4.3,-22c0.3,-1.1,1.5,-2,3.2,-2l131.9,0c1.6,0,2.4,0.9,2.5,1.7l4.4,21.9" class="g9_1" />
<path d="M410.9,806.1c-0.1,1,-1,2,-2.5,2l-141.3,0.1c-1.5,0,-2.6,-1,-2.7,-2c0,-0.9,0,-2.2,0,-2.2" class="g9_1" />
<path d="M410.9,806.1l0,-2.4" class="g9_1" />
<path d="M275.2,793.7c0.6,-0.8,2,-1.4,3.6,-1.5c1.5,0,2.7,0.4,3.5,1.1" class="g9_1" />
<path d="M400.8,792.4c0,-1.3,-1.8,-2.4,-4,-2.4c-2.2,-0.1,-4.1,0.9,-4.1,2.3" class="g8_1" />
<path d="M400.1,793.7c-0.6,-0.8,-2,-1.4,-3.6,-1.5c-1.4,0,-2.7,0.4,-3.4,1.1" class="g9_1" />
<path d="M402.3,833.6c0.1,0.5,-0.5,1.3,-2.2,1.3l-44.5,0m-34.2,0l-46.8,0c-1.8,0,-2.4,-0.9,-2.4,-1.2" class="g9_1" />
<path d="M291.9,861.2l2.8,-26.3" class="g8_1" />
<path d="M292.6,861.2l2.8,-26.3" class="g9_1" />
<path d="M383.5,861.2l-2.8,-26.3" class="g8_1" />
<path d="M382.9,861.2l-2.8,-26.3" class="g9_1" />
<path fill-rule="evenodd" d="M329.7,839.2l0,22l16.9,0l0,-22l8.8,0l0,-8.1L338.5,811.3l-16.9,20.2l0,7.6Z" class="g17_1" />
<path d="M321.6,839.1l16.8,-20.2l17,20.3" class="g8_1" />
<path d="M338.4,818.9l0.1,-7.6" class="g8_1" />
<path d="M261.7,891.8l14,-83.6" class="g8_1" />
<path d="M277.4,849.9c0,-1.4,1.8,-2.6,4,-2.7c2.3,0,4.1,1.1,4.1,2.5" class="g8_1" />
<path d="M285.5,849.7c0.1,1.4,-1.7,2.6,-4,2.6c-2.2,0.1,-4,-1,-4.1,-2.4" class="g9_1" />
<path d="M277.5,850.3c0.4,-1.2,2,-2.1,3.9,-2.1c2.1,-0.1,3.8,0.8,4.1,2" class="g9_1" />
<path d="M389.7,849.9c0,-1.4,1.8,-2.6,4,-2.7c2.3,0,4.1,1.1,4.1,2.5" class="g8_1" />
<path d="M397.8,849.7c0,1.4,-1.7,2.6,-4,2.6c-2.2,0.1,-4.1,-1,-4.1,-2.4" class="g9_1" />
<path d="M389.8,850.3c0.4,-1.2,2,-2.1,3.9,-2.1c2,-0.1,3.7,0.8,4.1,2" class="g9_1" />
<path d="M399.2,808.1L413,891.5" class="g8_1" />
<path d="M393.8,849.5l1.9,-38.7M396.6,793L398,765.5" class="g18_1" />
<path d="M281.4,849.4l-1.9,-38.1m-1,-18.3l-1.4,-27.6" class="g18_1" />
<path d="M393.8,851l2,-42.1m0.8,-15.1L398,765.5" class="g19_1" />
<path d="M281.5,851l-2.1,-42m-0.8,-15.5l-1.5,-28.1" class="g19_1" />
<path d="M392.7,792.3c0,1.3,1.8,2.4,4,2.4c2.2,0.1,4.1,-0.9,4.1,-2.3" class="g9_1" />
<path fill-rule="evenodd" d="M405.1,743.8l-0.5,-1.2l-1,-0.9l-1.7,-0.8l-1.7,-0.3l-1.6,-0.1l-1.6,0.1l-1.7,0.4l-1.3,0.7l-1,0.9l-0.4,1l0,5.7l0,0.4l0.1,0.3l0.6,0.8l0.7,0.7l0.8,0.3l-0.7,11.6l0.1,0.4l0.4,0.4l0.5,0.4L396,765l1,0.2l1,0.2l1,-0.1l1.3,-0.3l0.9,-0.5l0.5,-0.4l0.3,-0.5l0.7,-11.5l0.7,-0.4l0.6,-0.5l0.7,-0.8l0.3,-0.8Z" class="g16_1" />
<path d="M403.6,764.5c-0.1,-0.5,0.7,-1.1,1.2,-0.9" class="g8_1" />
<path d="M399,740.6c-3.1,0,-5.5,1.2,-5.6,2.8c0,1.6,2.4,2.9,5.4,2.9c3.1,0.1,5.5,-1.1,5.6,-2.7c0,-1.6,-2.4,-2.9,-5.4,-3Z" class="g8_1" />
<path d="M405.1,744c0,-1.8,-2.7,-3.3,-6.1,-3.4c-3.5,0,-6.3,1.4,-6.3,3.1" class="g9_1" />
<path d="M392.7,743.7c0,1.8,2.7,3.3,6.1,3.4c3.4,0.1,6.2,-1.3,6.3,-3.1" class="g8_1" />
<path d="M392.6,749.5c-0.1,1.7,2.7,3.2,6.1,3.3c3.4,0.1,6.2,-1.3,6.3,-3.1" class="g9_1" />
<path d="M405,749.7l0.1,-5.7" class="g9_1" />
<path d="M392.6,749.5l0.1,-5.8" class="g9_1" />
<path d="M395.5,742.5l0.2,1.8l3.2,1.1l3.2,-1" class="g9_1" />
<path d="M402.1,744.4l-0.4,-1.8l-3.2,-1l-3,0.9" class="g8_1" />
<path d="M400.4,744.9l-1.9,-0.6l-1.4,0.4" class="g8_1" />
<path d="M398.5,744.3l0,-2.7" class="g8_1" />
<path d="M401.7,744.5l0,-1.9" class="g8_1" />
<path d="M394.2,762.1c0,1.2,1.7,2.1,3.9,2.2c2.2,0,4,-0.9,4,-2" class="g8_1" />
<path d="M394.3,760.7c-0.1,1.1,1.7,2.1,3.9,2.1c2.2,0,4,-0.8,4,-2" class="g8_1" />
<path d="M394.4,759.2c0,1.2,1.7,2.1,3.9,2.2c2.2,0,4,-0.9,4,-2" class="g8_1" />
<path d="M394.4,757.8c0,1.1,1.8,2.1,4,2.1c2.2,0,4,-0.9,4,-2" class="g8_1" />
<path d="M394.5,756.2c0,1.2,1.7,2.1,3.9,2.2c2.2,0,4,-0.9,4.1,-2" class="g8_1" />
<path d="M394.5,754.7c0,1.2,1.8,2.2,4,2.2c2.2,0,4,-0.9,4,-2" class="g8_1" />
<path d="M394.6,753.3c0,1.1,1.7,2.1,3.9,2.1c2.2,0,4,-0.8,4.1,-2" class="g8_1" />
<path d="M394.8,751.8c-0.1,1.1,1.7,2.1,3.9,2.1c2.2,0.1,4,-0.8,4,-2" class="g8_1" />
<path d="M394.1,763.5l0.6,-11.4" class="g9_1" />
<path d="M402,763.5l0.7,-11.4" class="g9_1" />
<path d="M394,763.3c0,1.2,1.8,2.1,4,2.2c2.2,0,4,-0.9,4,-2" class="g9_1" />
<path fill-rule="evenodd" d="M270,743.9l0.5,-1.3l1.1,-0.9l1.7,-0.7l1.6,-0.4l1.7,-0.1l1.5,0.2l1.7,0.4l1.3,0.6l1,0.9l0.4,1l0,5.7l0,0.4l-0.1,0.4l-0.6,0.8l-0.7,0.6l-0.8,0.4l0.8,11.5l-0.2,0.4l-0.3,0.4l-0.6,0.5l-0.9,0.3l-1,0.3l-0.9,0.1l-1.1,-0.1L274.8,765l-0.9,-0.5l-0.5,-0.4l-0.2,-0.5l-0.8,-11.4l-0.6,-0.4l-0.7,-0.5l-0.7,-0.9l-0.2,-0.8Z" class="g17_1" />
<path d="M271.1,764.4c-0.1,-0.3,-0.6,-1,-1.5,-0.5" class="g8_1" />
<path d="M276.2,740.5c3,0,5.5,1.2,5.5,2.8c0,1.6,-2.4,2.9,-5.4,2.9c-3,0.1,-5.5,-1.1,-5.6,-2.7c0,-1.6,2.4,-2.9,5.5,-3Z" class="g8_1" />
<path d="M270,743.9c0,-1.8,2.7,-3.3,6.2,-3.4c3.4,0,6.2,1.4,6.2,3.1" class="g9_1" />
<path d="M282.4,743.6c0.1,1.8,-2.7,3.3,-6.1,3.4c-3.4,0,-6.2,-1.3,-6.3,-3.1" class="g8_1" />
<path d="M282.5,749.3c0.1,1.8,-2.7,3.3,-6.1,3.4c-3.4,0.1,-6.2,-1.3,-6.2,-3.1" class="g9_1" />
<path d="M270.2,749.6L270,743.9" class="g9_1" />
<path d="M282.5,749.3l-0.1,-5.7" class="g9_1" />
<path d="M279.6,742.4l-0.1,1.8l-3.3,1.1l-3.2,-1" class="g9_1" />
<path d="M273,744.3l0.4,-1.8l3.2,-1l3,0.9" class="g8_1" />
<path d="M274.8,744.8l1.8,-0.6l1.5,0.4" class="g8_1" />
<path d="M276.6,744.2l0,-2.7" class="g8_1" />
<path d="M273.5,744.4l-0.1,-1.9" class="g8_1" />
<path d="M280.9,762c0.1,1.2,-1.7,2.1,-3.9,2.2c-2.2,0,-4,-0.9,-4,-2" class="g8_1" />
<path d="M280.9,760.5c0,1.2,-1.8,2.1,-4,2.2c-2.2,0,-4,-0.9,-4,-2" class="g8_1" />
<path d="M280.7,759.1c0.1,1.2,-1.7,2.1,-3.9,2.2c-2.2,0,-4,-0.9,-4,-2" class="g8_1" />
<path d="M280.7,757.6c0,1.2,-1.8,2.1,-3.9,2.2c-2.2,0,-4,-0.9,-4.1,-2" class="g8_1" />
<path d="M280.6,756.1c0,1.2,-1.7,2.1,-3.9,2.2c-2.2,0,-4,-0.9,-4,-2" class="g8_1" />
<path d="M280.6,754.6c0,1.2,-1.8,2.1,-3.9,2.2c-2.2,0,-4,-0.9,-4.1,-2" class="g8_1" />
<path d="M280.5,753.1c0,1.2,-1.7,2.1,-3.9,2.2c-2.2,0,-4,-0.9,-4,-2" class="g8_1" />
<path d="M280.4,751.7c0,1.1,-1.8,2.1,-4,2.1c-2.2,0.1,-4,-0.8,-4,-2" class="g8_1" />
<path d="M281.1,763.4L280.4,752" class="g9_1" />
<path d="M273.1,763.4L272.4,752" class="g9_1" />
<path d="M281.1,763.2c0,1.2,-1.8,2.1,-4,2.2c-2.1,0,-3.9,-0.9,-4,-2" class="g9_1" />
<path fill-rule="evenodd" d="M338.5,811.3l16.9,19.8l0,8.1l-17,-20.3Z" class="g20_1" />
<path fill-rule="evenodd" d="M338.4,811.5l-16.8,20l0,7.6l16.8,-20.2Z" class="g21_1" />
<path d="M329.7,861.2l0,-22l-8.1,0l0,-7.7l16.9,-20.2l16.9,19.8l0,8.1l-8.8,0l0,22Z" class="g9_1" />
<path d="M282.6,792.3c0.1,1.3,-1.7,2.4,-4,2.4c-2.2,0.1,-4.1,-0.9,-4.1,-2.3" class="g9_1" />
<path fill-rule="evenodd" d="M672,751.4l105.8,0l1.3,0.3l0.7,1l1.4,18.4l-0.1,0.6l-0.8,0.5l-0.8,0.1l-20.3,0.2l0,9.1l0,2.6l-0.7,1.5l-1.7,1.1l-1.7,0.3l-6.5,0l0,5l4.8,0l2.6,0.5l1.7,1.1l0.8,1.6l0,22.6l-0.7,2.3l-1.7,1.6l-2.3,0.5l-12,0.4L741.2,810l-4,0l0.1,2.3l0.8,0.2l0.3,0.2l0.1,0.4l0,3.5l0,0.3l-0.5,0.4l-0.8,0.2l-0.6,0.4l-0.3,0.5l-0.6,0.2l-24,0l-0.9,-0.1L710.2,818l-0.4,-0.4l-0.6,-0.2l-0.7,-0.1l-0.3,-0.4l0,-3.5l0.1,-0.6l0.3,-0.5l0.9,-0.3l0,-2l-3.6,0.1l-0.7,12.4l-8.9,0l-1.7,-0.1l-1.5,-0.3l-1.4,-0.5l-1.3,-1l-0.8,-1.4l-0.2,-1.3l0,-22l0.4,-1.6l1.1,-1.1l1.4,-0.7l2.2,-0.4l4.8,0l0,-5l-6.6,0l-1.6,-0.2l-1.8,-0.8l-0.8,-1l-0.3,-1.3l0,-11.5l-18,0l-1,-0.2l-0.7,-0.6l-0.1,-0.7l0,-0.9l1.6,-17l0.2,-0.7l0.6,-0.6Z" class="g16_1" />
<path fill-rule="evenodd" d="M719.2,848.2l1.7,0l3.5,-0.1l3.9,0l8.1,0.1l0.5,0l0.8,0.2l0.3,0.7l0,14.5l2.1,0l1.3,0.4l0.7,1.6l0.1,39.7l-0.8,3.1l-1.7,3.4l-2.5,2.8l-3,2l-2.6,0l0,6l-0.4,1.9l-1,1.5l-1,1.3l0,19.1l-0.5,8.4l-0.9,8.3l-0.9,5.6l-11.7,0l0.8,-4.5l0.6,-4.4l0.6,-6.4l0.3,-7.1l0.1,-19.9L717,925.5l-0.7,-1.1l-0.6,-1.3l0,-6.5l-2.7,0.1l-2.7,-2.1L707.8,912l-1.6,-2.9l-1,-3.8l0,-39.7l0.6,-1.4l1.4,-0.6l2.3,0l0,-13.8l0.1,-1l0.7,-0.6Z" class="g22_1" />
<path d="M742.3,901.4l25.6,0c1.8,0,3.1,1.5,3.3,3.3l6.1,85.5c0.1,1.8,-1.5,3.3,-3.3,3.3l-98.1,0c-1.8,0,-3.4,-1.5,-3.3,-3.3l6.5,-85.5c0.1,-1.8,1.5,-3.3,3.3,-3.3l22.9,0" class="g9_1" />
<path d="M637.3,1033.3l23,-200.7" class="g8_1" />
<path d="M670.8,880l34.3,0m37.1,0l36.8,0c0,0,1,-0.1,1.2,1.1c0.2,1.2,13.2,146.9,13.2,146.9c0,0,0.2,1.3,0,2" class="g9_1" />
<path d="M793.4,1030l-136.9,0.1" class="g8_1" />
<path d="M656.5,1030.1c-0.1,-0.9,0,-1.4,0,-2.1c0.1,-0.6,13.3,-147,13.3,-147c0,0,0.2,-1,1,-1" class="g9_1" />
<path d="M656.5,1028.4c0.2,-1.1,0.7,-1.9,3.3,-4.6" class="g8_1" />
<path d="M793.5,1028.4c-0.1,-1.1,-0.9,-1.9,-3.6,-4.6" class="g8_1" />
<path d="M789.9,1023.8l-11,-142.9l-36.7,0m-37,0l-34.2,0" class="g8_1" />
<path d="M659.5,1023.5l130,0" class="g8_1" />
<path d="M659.8,1023.8L671,880.9" class="g8_1" />
<path d="M671,880.9c0,-0.3,-0.4,-0.8,-0.9,-0.5" class="g8_1" />
<path d="M778.9,880.9c0,-0.3,0.5,-0.8,0.8,-0.7" class="g8_1" />
<path d="M724.9,996.9c3.9,0,7.1,2.4,7.1,5.4c0,3,-3.2,5.5,-7.1,5.5c-3.8,0,-7,-2.5,-7,-5.5c0,-3,3.2,-5.4,7,-5.4Z" class="g8_1" />
<path d="M726.8,1001.3l0,1.7l-1.8,0.9l-1.8,-0.8l0,-1.7" class="g9_1" />
<path d="M723.2,1001.4l1.8,-0.9l1.8,0.8" class="g8_1" />
<path d="M724,1003.5l1,-0.5l0.8,0.4" class="g8_1" />
<path d="M724.5,1003.5l0,-3" class="g8_1" />
<path d="M777.2,990.6c0.2,1.6,-1,2.9,-2.2,2.9l-100.2,0c-1.2,0,-2.4,-1.3,-2.2,-2.9" class="g9_1" />
<path d="M672.6,990.6l6.6,-86.3c0.1,-1.6,1,-2.9,2.2,-2.9l23.8,0m37,0l26.7,0c1.3,0,2.2,1.3,2.3,2.9l6,86.3" class="g8_1" />
<path d="M676.8,968.7l96.4,0c1.2,0,1.8,0.9,1.9,1.7l1.4,21.8c0.1,0.5,-0.3,1.3,-1.5,1.3l-100.2,0c-1.2,0,-1.6,-0.9,-1.6,-1.2l1.7,-21.7c0.1,-1.1,0.6,-1.9,1.9,-1.9Z" class="g9_1" />
<path d="M772.9,943.9c0.1,0.5,-0.3,1.2,-1.4,1.2l-42.3,0m-11.6,0l-39,0c-1.2,0,-1.6,-0.8,-1.6,-1.1" class="g8_1" />
<path d="M677,944l1.4,-19.2c0,-1,0.5,-1.7,1.7,-1.7l35.6,0m15.9,0l38.4,0c1.1,0,1.7,0.8,1.8,1.5l1.1,19.3" class="g9_1" />
<path d="M677,944l0,1" class="g9_1" />
<path d="M772,943l0,2" class="g9_1" />
<path d="M715.5,923.1l-35.3,0c-1.1,0,-1.6,-0.8,-1.6,-1.1l1.6,-17.9c0.1,-1,0.5,-1.7,1.6,-1.7l23.4,0m37,0l26.5,0c1.1,0,1.6,0.8,1.6,1.4l1.4,18.1c0,0.5,-0.2,1.2,-1.3,1.2l-38.8,0" class="g9_1" />
<path d="M678,922l0,1" class="g9_1" />
<path d="M771,922l0,1" class="g9_1" />
<path d="M724.9,996.6c4.2,0,7.5,2.5,7.5,5.7c0,3.2,-3.3,5.8,-7.5,5.8c-4.1,0,-7.4,-2.6,-7.4,-5.8c0,-3.2,3.3,-5.7,7.4,-5.7Z" class="g8_1" />
<path d="M709.5,868.8l0,-19.7c0,0,0.2,-0.9,0.8,-0.9c0.3,0,5,-0.1,14.1,-0.1c11.1,0,12.5,0.1,12.5,0.1c0,0,1.1,-0.1,1.1,0.9c0,0.9,0,19.5,0,19.5" class="g9_1" />
<path d="M709.5,868.8c0,0.6,0.6,0.8,1,0.8c0.5,0,1,-0.1,1.7,0.5c0.6,0.6,1.2,1.1,1.2,1.1c0,0,0.6,0.4,1.4,0.4c0.8,0,17.9,0,17.9,0c0,0,0.7,-0.1,1.2,-0.6c0.5,-0.4,1.2,-1,1.2,-1c0,0,0.6,-0.4,1.3,-0.4c0.7,0,1.6,-0.2,1.6,-1" class="g8_1" />
<path d="M709.5,851.3c0,0.5,0.6,0.7,1,0.7c0.5,0,1,0,1.7,0.5c0.6,0.6,1.2,1.2,1.2,1.2c0,0,0.6,0.3,1.4,0.3c0.8,0,17.9,0,17.9,0c0,0,0.7,-0.1,1.2,-0.5c0.5,-0.5,1.2,-1,1.2,-1c0,0,0.6,-0.5,1.3,-0.5c0.7,0,1.6,-0.1,1.6,-1" class="g8_1" />
<path d="M713.5,870.5l0,-16" class="g8_1" />
<path d="M733.5,870.5l0,-16" class="g8_1" />
<path d="M711.5,869.5l0,-17" class="g8_1" />
<path d="M726.5,871.5l0,-2l-6,0l0,-4l6,0l0,-6l-6,0l0,-3l6,0l0,-2" class="g8_1" />
<path d="M715.5,861.5l4,0l0,3l-4,0Z" class="g8_1" />
<path d="M715.5,863.5l4,0" class="g8_1" />
<path d="M715.5,864.5l4,0" class="g8_1" />
<path d="M727.5,861.5l4,0l0,3l-4,0Z" class="g8_1" />
<path d="M727.5,863.5l4,0" class="g8_1" />
<path d="M727.5,864.5l4,0" class="g8_1" />
<path d="M735.6,851.4l0,-1.3L724.7,850l-12.9,0l0,1.4" class="g8_1" />
<path d="M725.2,851.9l8.5,0l0.9,-0.5l1,0" class="g9_1" />
<path d="M711.8,851.4l0.9,0l0.9,0.5l10.4,0" class="g9_1" />
<path d="M715,851l0,1Z" class="g9_1" />
<path d="M717,851l1,0l0,1l-1,0Z" class="g9_1" />
<path d="M719,851l1,0l0,1l-1,0Z" class="g9_1" />
<path d="M721,851l1,0l0,1l-1,0Z" class="g9_1" />
<path d="M723,851l1,0l0,1l-1,0Z" class="g9_1" />
<path d="M725,851l1,0l0,1l-1,0Z" class="g9_1" />
<path d="M727,851l1,0l0,1l-1,0Z" class="g9_1" />
<path d="M729,851l1,0l0,1l-1,0Z" class="g9_1" />
<path d="M731,851l1,0l0,1l-1,0Z" class="g9_1" />
<path d="M732.5,849.5l1,0l-1,0Z" class="g8_1" />
<path d="M730.5,849.5l1,0l-1,0Z" class="g8_1" />
<path d="M728.5,849.5l1,0l-1,0Z" class="g8_1" />
<path d="M720.5,849.5l1,0l-1,0Z" class="g8_1" />
<path d="M715.5,849.5l1,0l-1,0Z" class="g8_1" />
<path d="M713.5,849.5l1,0l-1,0Z" class="g8_1" />
<path d="M713.5,849.5l0,2" class="g8_1" />
<path d="M715.5,849.5l0,2" class="g8_1" />
<path d="M715.5,849.5l0,2" class="g8_1" />
<path d="M716.5,849.5l0,2" class="g8_1" />
<path d="M717.5,849.5l0,2" class="g8_1" />
<path d="M719.5,849.5l0,2" class="g8_1" />
<path d="M719.5,849.5l0,2" class="g8_1" />
<path d="M721.5,849.5l0,2" class="g8_1" />
<path d="M721.5,849.5l0,2" class="g8_1" />
<path d="M727.5,850.5l0,1" class="g8_1" />
<path d="M726.5,849.5l0,2" class="g8_1" />
<path d="M728.5,850.5l0,1" class="g8_1" />
<path d="M729.5,850.5l0,1" class="g8_1" />
<path d="M730.5,850.5l0,1" class="g8_1" />
<path d="M731.5,850.5l0,1" class="g8_1" />
<path d="M732.5,850.5l0,1" class="g8_1" />
<path d="M733.5,850.5l0,1" class="g8_1" />
<path d="M742.1,872.8c0,1.1,-0.9,2,-2,2l-32.9,0c-1.1,0,-2,-0.9,-2,-2" class="g8_1" />
<path d="M705.2,872.8l0,-7.2c0,-1.1,0.9,-2,2,-2l2.3,0m28.5,0l2.1,0c1.1,0,2,0.9,2,2l0,7.2" class="g9_1" />
<path d="M708,892l0,-15l30,0l0,15" class="g9_1" />
<path d="M738.5,892.5l-30,0" class="g8_1" />
<path d="M738.5,892.5l-30,0" class="g8_1" />
<path d="M705.2,872.8l0,32.5c0,0,0.3,6.9,7.9,11.3" class="g9_1" />
<path d="M742.2,872.8l0,32.5c0,0,-0.3,6.9,-7.9,11.3" class="g9_1" />
<path d="M713,916l21,0" class="g9_1" />
<path d="M714.8,896.8l0,2l7.8,3.6c0,0,1,0.6,2.7,-0.2c1.8,-0.9,6.6,-3.1,6.6,-3.1l0,-2.1" class="g9_1" />
<path d="M714.8,896.8l7.9,3.5c0,0,1.3,0.5,2.7,-0.3c1.5,-0.7,6.5,-3,6.5,-3" class="g8_1" />
<path d="M714.8,897.4l7.9,3.5c0,0,1.3,0.5,2.7,-0.3c1.5,-0.7,6.5,-3,6.5,-3" class="g8_1" />
<path d="M714.8,901.1l0,2l7.8,3.6c0,0,1,0.6,2.7,-0.3c1.8,-0.8,6.6,-3,6.6,-3l0,-2.2" class="g9_1" />
<path d="M714.8,901.1l7.9,3.5c0,0,1.3,0.4,2.7,-0.3c1.5,-0.7,6.5,-3.1,6.5,-3.1" class="g8_1" />
<path d="M714.8,901.7l7.9,3.5c0,0,1.3,0.4,2.7,-0.3c1.5,-0.7,6.5,-3.1,6.5,-3.1" class="g8_1" />
<path d="M714.8,905.3l0,1.9l7.8,3.6c0,0,1,0.6,2.7,-0.2c1.8,-0.9,6.6,-3.1,6.6,-3.1l0,-2.1" class="g9_1" />
<path d="M714.8,905.3l7.9,3.4c0,0,1.3,0.5,2.7,-0.3c1.5,-0.7,6.5,-3,6.5,-3" class="g8_1" />
<path d="M714.8,905.9l7.9,3.4c0,0,1.3,0.5,2.7,-0.3c1.5,-0.7,6.5,-3,6.5,-3" class="g8_1" />
<path d="M717.6,926.4l0,18.9c0,0,-0.2,12.9,-2.4,23.4" class="g9_1" />
<path d="M729.2,927l0,18.6c0,0,-0.1,12.6,-2.3,23.1" class="g9_1" />
<path d="M723.5,849.5l0,2" class="g8_1" />
<path d="M723.5,849.5l0,2" class="g8_1" />
<path d="M725.5,849.5l0,2" class="g8_1" />
<path d="M724.5,849.5l1,0l-1,0Z" class="g8_1" />
<path d="M726.5,849.5l1,0l-1,0Z" class="g8_1" />
<path d="M682.8,974.6c2.1,0,3.8,1.2,3.8,2.7c0,1.5,-1.7,2.7,-3.8,2.7c-2.1,0,-3.8,-1.2,-3.8,-2.7c0,-1.5,1.7,-2.7,3.8,-2.7Z" class="g8_1" />
<path d="M678.5,977.7c0,-1.7,1.9,-3.1,4.3,-3.1c2.4,0,4.3,1.4,4.3,3.1" class="g9_1" />
<path d="M687.1,977.7c0,1.7,-1.9,3,-4.3,3c-2.4,0,-4.3,-1.3,-4.3,-3" class="g8_1" />
<path d="M687.1,981.4c0,1.7,-1.9,3,-4.3,3c-2.4,0,-4.3,-1.3,-4.3,-3" class="g8_1" />
<path d="M678,981l0,-4" class="g9_1" />
<path d="M687,981l0,-4" class="g9_1" />
<path d="M685.2,976.4l-0.2,1.7l-2.3,1l-2.1,-1" class="g9_1" />
<path d="M680.6,978.1l0.3,-1.7l2.2,-0.9l2.1,0.9" class="g8_1" />
<path d="M681.8,978.6l1.3,-0.5l1,0.4" class="g8_1" />
<path d="M683.5,978.5l0,-3" class="g8_1" />
<path d="M680.5,978.5l0,-2" class="g8_1" />
<path d="M685.5,927.6c2,0,3.5,1.1,3.5,2.5c0,1.4,-1.5,2.5,-3.5,2.5c-1.9,0,-3.5,-1.1,-3.5,-2.5c0,-1.4,1.6,-2.5,3.5,-2.5Z" class="g8_1" />
<path d="M681.6,930.4c0,-1.5,1.8,-2.8,3.9,-2.8c2.2,0,4,1.3,4,2.8" class="g9_1" />
<path d="M689.5,930.4c0,1.6,-1.8,2.8,-4,2.8c-2.1,0,-3.9,-1.2,-3.9,-2.8" class="g8_1" />
<path d="M689.5,933.8c0,1.5,-1.8,2.8,-4,2.8c-2.1,0,-3.9,-1.3,-3.9,-2.8" class="g8_1" />
<path d="M681,933l0,-3" class="g9_1" />
<path d="M689,933l0,-3" class="g9_1" />
<path d="M687.7,929.3l-0.1,1.6l-2.1,0.9l-2,-1" class="g9_1" />
<path d="M683.5,930.8l0.3,-1.6l2,-0.8l1.9,0.9" class="g8_1" />
<path d="M684.6,931.3l1.2,-0.5l0.9,0.4" class="g8_1" />
<path d="M685.5,930.5l0,-2" class="g8_1" />
<path d="M683.5,930.5l0,-1" class="g8_1" />
<path d="M686.9,906.5c1.9,0,3.4,1,3.4,2.3c0,1.3,-1.5,2.4,-3.4,2.4c-1.9,0,-3.5,-1.1,-3.5,-2.4c0,-1.3,1.6,-2.3,3.5,-2.3Z" class="g8_1" />
<path d="M683,909.1c0,-1.4,1.7,-2.6,3.9,-2.6c2.1,0,3.8,1.2,3.8,2.6" class="g9_1" />
<path d="M690.7,909.1c0,1.5,-1.7,2.7,-3.8,2.7c-2.2,0,-3.9,-1.2,-3.9,-2.7" class="g8_1" />
<path d="M690.7,912.4c0,1.4,-1.7,2.6,-3.8,2.6c-2.2,0,-3.9,-1.2,-3.9,-2.6" class="g8_1" />
<path d="M682,912l0,-3" class="g9_1" />
<path d="M690,912l0,-3" class="g9_1" />
<path d="M689,908l-0.1,1.6l-2.1,0.8l-2,-0.9" class="g9_1" />
<path d="M684.8,909.5l0.3,-1.5l2,-0.7L689,908" class="g8_1" />
<path d="M685.9,910l1.2,-0.5l0.9,0.4" class="g8_1" />
<path d="M687.5,909.5l0,-2" class="g8_1" />
<path d="M685.5,909.5l0,-1" class="g8_1" />
<path d="M640.8,809.1L651.3,829" class="g9_1" />
<path d="M651.2,834.3c0.1,1.2,-0.1,2.8,-1.9,3.9c-3.1,1.9,-8.6,0.2,-9.1,-3.3c-0.5,-3.4,0.3,-7.4,0.3,-7.4" class="g9_1" />
<path d="M640.1,812.6l10.7,20.1c0,0,0.3,0.6,0.4,1.6" class="g8_1" />
<path d="M642.8,829.4l2.9,-0.6l0.9,2.6" class="g9_1" />
<path d="M643.6,831.9l-0.8,-2.5" class="g8_1" />
<path d="M643.6,831.9l0.2,-2.5" class="g8_1" />
<path d="M651.2,835.3l0.5,-4.1c0,0,0.1,-1.2,-0.4,-2.2" class="g9_1" />
<path d="M640.3,835.5l0.5,8.3" class="g8_1" />
<path d="M640.8,843.8c5,-0.1,10.7,-1.5,13.9,-4.2c3.2,-2.7,6.5,-5.8,7.2,-12.9c0.7,-7.2,1,-10.2,1,-10.2c0,0,0.1,-0.6,-0.8,-0.7c-0.9,0,-17.6,0,-17.6,0" class="g9_1" />
<path d="M648.8,824.4l3.4,0c0,0,0,0.6,0,1.4c0,0.8,0.7,0.7,0.7,0.7l7.9,0c0.5,0.1,1.2,-0.5,1.2,-0.9" class="g8_1" />
<path d="M652.6,825.9l0.7,-5.2" class="g8_1" />
<path d="M653.5,820.1c0,0,0,-1.4,0,-1.4l-7.6,0" class="g9_1" />
<path d="M652.3,824.3l0.7,-5.7" class="g8_1" />
<path d="M640.1,812.6l0.4,14.5Z" class="g8_1" />
<path d="M640.8,809.1l-0.7,3.5" class="g8_1" />
<path d="M640.1,830.5l-30.3,199.2" class="g9_1" />
<path d="M559,1014.7c1.9,-7.7,70.1,-315.5,70.1,-315.5c0,0,0.5,-1.3,2.1,-1.4c1.6,0,3.5,0,3.5,0c0,0,1.3,-0.1,1.5,2.1c0.1,2.1,1.3,28.9,1.3,28.9c0,0,0.2,3.2,0.1,5.6c-0.1,2.4,-0.4,11,-0.4,11c0,0,-0.3,3.7,0.2,6.7c0.4,3,1.6,28.8,1.6,28.8c0,0,0.2,1.9,0.7,2.7c0.5,0.8,0.6,1.2,0.6,1.2c0,0,0.2,0.1,0.2,1.9c0.1,1.8,1.2,23.5,1.2,23.5" class="g9_1" />
<path d="M630.6,697.9l3.8,-17.2" class="g9_1" />
<path d="M661.3,680.7L641.5,807.4" class="g8_1" />
<path d="M661.9,680.8l-20,129.6" class="g8_1" />
<path d="M667.2,680.7l2.3,70.7l-7.4,64.4" class="g8_1" />
<path d="M669.5,751.4l110.6,0l2,-70.7" class="g8_1" />
<path d="M636.2,699.9c-0.4,-1.4,-1,-0.1,-1.2,0.9c-0.1,0.7,-43.3,211.2,-64.8,315.9" class="g8_1" />
<path d="M808.4,813.4l33.1,216.8" class="g8_1" />
<path d="M809.1,813.4l33.2,216.3" class="g8_1" />
<path d="M819.8,700.1l27.6,126.4" class="g9_1" />
<path d="M806.8,808.7l0.4,3.5c0,0,0.1,1.2,1.9,1.2c1.8,0,3.2,0.1,3.2,0.1c0,0,1.4,-0.3,1.5,-2.3c0.2,-2,1.4,-26.1,1.4,-26.1c0,0,0.1,-2,0,-3.8c-0.1,-1.9,-0.5,-12.7,-0.5,-12.7c0,0,-0.1,-1.6,0.1,-4.8c0.3,-3.2,1.5,-28.7,1.5,-28.7c0,0,0,-0.9,0.5,-2c0.5,-1,1.3,-3.3,1.3,-3.3c0,0,0.2,-1,0.3,-2.1c0,-1.2,1.4,-28.7,1.4,-28.7c0,0,0.3,-1.9,-0.7,-6.2c-0.9,-4.2,-2.6,-12.1,-2.6,-12.1" class="g9_1" />
<path d="M810.2,680.7l2.8,13.2c0,0,0.7,3.6,0.5,6.9c-0.2,3.3,-1.1,27.8,-1.1,27.8c0,0,-0.1,1.3,-0.8,2.6c-0.8,1.4,-1.1,3.1,-1.1,3.1c0,0,-0.1,1.2,-0.2,2.8c0,1.7,-2,28,-2,28c0,0,0,1.3,0.2,2.6c0.1,1.3,0.6,14.1,0.6,14.1c0,0,0.1,2.5,0.1,3.6c0,1.1,-1.2,25.8,-1.3,26.5c0,0.8,-0.6,0.7,-0.7,0.3" class="g8_1" />
<path d="M804.8,797L787,680.7" class="g9_1" />
<path d="M814.5,696.5l4,0" class="g8_1" />
<path d="M812.5,729.5l5,0" class="g8_1" />
<path d="M810.5,734.5l5,0" class="g8_1" />
<path d="M808.5,765.5l5,0" class="g8_1" />
<path d="M809.5,783.5l5,0" class="g8_1" />
<path d="M809,843.8c-5.1,-0.1,-10.7,-1.5,-13.9,-4.2c-3.2,-2.7,-6.5,-5.8,-7.2,-12.9c-0.7,-7.2,-1,-10.2,-1,-10.2c0,0,-0.1,-0.6,0.8,-0.7c0.9,0,7,0.1,7.5,0c0.4,-0.1,0.8,-0.4,0.8,-0.8" class="g9_1" />
<path d="M787.5,826.5l22,0" class="g8_1" />
<path d="M808.9,845.8l1.2,-19.1c0,0,0.1,-1.8,-0.4,-4.6" class="g8_1" />
<path d="M809.1,818.9l-12,0c0,0,0,0.5,0,1.4c0,0.3,-0.1,0.5,-0.2,0.6" class="g8_1" />
<path d="M796.8,820.3l-0.6,-4.7" class="g8_1" />
<path d="M796,815c0,0,0,-1.4,0,-1.4l12.4,0" class="g9_1" />
<path d="M797.1,818.4l-0.7,-4.9" class="g8_1" />
<path d="M809.1,820.5l-11.6,0" class="g8_1" />
<path d="M787.7,815.8l-7.6,-64.4" class="g8_1" />
<path d="M789.8,833.4L813,1037.3" class="g8_1" />
<path d="M796,813.6l10.7,-20.1" class="g9_1" />
<path d="M798.5,813.6l8.8,-16.7l-0.6,-3.4" class="g8_1" />
<path d="M807.3,796.9l-0.4,12.3" class="g8_1" />
<path d="M645.7,832.7c1.3,0,2.3,0.8,2.3,1.9c0,1,-1,1.8,-2.3,1.8c-1.3,0,-2.3,-0.8,-2.3,-1.8c0,-1.1,1,-1.9,2.3,-1.9Z" class="g8_1" />
<path d="M645.7,831.4c2.1,0,3.9,1.4,3.9,3.2c0,1.7,-1.8,3.1,-3.9,3.1c-2.1,0,-3.9,-1.4,-3.9,-3.1c0,-1.8,1.8,-3.2,3.9,-3.2Z" class="g8_1" />
<path d="M645.7,832.7c1.1,0,1.9,0.7,1.9,1.6c0,0.8,-0.8,1.5,-1.9,1.5c-1,0,-1.8,-0.7,-1.8,-1.5c0,-0.9,0.8,-1.6,1.8,-1.6Z" class="g8_1" />
<path d="M645.5,839l-0.5,1l-2.5,-1l0.4,-0.8" class="g9_1" />
<path d="M767.2,974.6c-2.1,0,-3.8,1.2,-3.8,2.7c0,1.5,1.7,2.7,3.8,2.7c2.1,0,3.8,-1.2,3.8,-2.7c0,-1.5,-1.7,-2.7,-3.8,-2.7Z" class="g8_1" />
<path d="M771.5,977.7c0,-1.7,-1.9,-3.1,-4.3,-3.1c-2.4,0,-4.3,1.4,-4.3,3.1" class="g9_1" />
<path d="M762.9,977.7c0,1.7,1.9,3,4.3,3c2.4,0,4.3,-1.3,4.3,-3" class="g8_1" />
<path d="M762.9,981.4c0,1.7,1.9,3,4.3,3c2.4,0,4.3,-1.3,4.3,-3" class="g8_1" />
<path d="M771,981l0,-4" class="g9_1" />
<path d="M762,981l0,-4" class="g9_1" />
<path d="M764.8,976.4l0.2,1.7l2.3,1l2.1,-1" class="g9_1" />
<path d="M769.4,978.1l-0.3,-1.7l-2.2,-0.9l-2.1,0.9" class="g8_1" />
<path d="M768.2,978.6l-1.3,-0.5l-1,0.4" class="g8_1" />
<path d="M766.5,978.5l0,-3" class="g8_1" />
<path d="M769.5,978.5l0,-2" class="g8_1" />
<path d="M772.9,945.8c0.1,0.5,-0.3,1.2,-1.4,1.2l-42.4,0m-11.6,0l-38.9,0c-1.2,0,-1.6,-0.8,-1.6,-1.1" class="g9_1" />
<path d="M764.4,927.6c-1.9,0,-3.5,1.1,-3.5,2.5c0,1.4,1.6,2.5,3.5,2.5c1.9,0,3.5,-1.1,3.5,-2.5c0,-1.4,-1.6,-2.5,-3.5,-2.5Z" class="g8_1" />
<path d="M768.4,930.4c0,-1.5,-1.8,-2.8,-4,-2.8c-2.2,0,-4,1.3,-4,2.8" class="g9_1" />
<path d="M760.4,930.4c0,1.6,1.8,2.8,4,2.8c2.2,0,4,-1.2,4,-2.8" class="g8_1" />
<path d="M760.4,933.8c0,1.5,1.8,2.8,4,2.8c2.2,0,4,-1.3,4,-2.8" class="g8_1" />
<path d="M768,933l0,-3" class="g9_1" />
<path d="M760,933l0,-3" class="g9_1" />
<path d="M762.2,929.3l0.1,1.6l2.2,0.9l2,-1" class="g9_1" />
<path d="M766.5,930.8l-0.3,-1.6l-2.1,-0.8l-1.9,0.9" class="g8_1" />
<path d="M765.3,931.3l-1.2,-0.5l-0.9,0.4" class="g8_1" />
<path d="M764.5,930.5l0,-2" class="g8_1" />
<path d="M766.5,930.5l0,-1" class="g8_1" />
<path d="M763,906.5c-1.9,0,-3.5,1,-3.5,2.3c0,1.3,1.6,2.4,3.5,2.4c1.9,0,3.4,-1.1,3.4,-2.4c0,-1.3,-1.5,-2.3,-3.4,-2.3Z" class="g8_1" />
<path d="M766.8,909.1c0,-1.4,-1.7,-2.6,-3.8,-2.6c-2.2,0,-3.9,1.2,-3.9,2.6" class="g9_1" />
<path d="M759.1,909.1c0,1.5,1.7,2.7,3.9,2.7c2.1,0,3.8,-1.2,3.8,-2.7" class="g8_1" />
<path d="M759.1,912.4c0,1.4,1.7,2.6,3.9,2.6c2.1,0,3.8,-1.2,3.8,-2.6" class="g8_1" />
<path d="M766,912l0,-3" class="g9_1" />
<path d="M759,912l0,-3" class="g9_1" />
<path d="M760.8,908l0.1,1.6l2.1,0.8l2,-0.9" class="g9_1" />
<path d="M765,909.5L764.7,908l-2,-0.7l-1.9,0.7" class="g8_1" />
<path d="M763.9,910l-1.2,-0.5l-0.9,0.4" class="g8_1" />
<path d="M762.5,909.5l0,-2" class="g8_1" />
<path d="M764.5,909.5l0,-1" class="g8_1" />
<path d="M716.8,916.6c1.1,1.3,4.1,2.5,4.8,2.6" class="g9_1" />
<path d="M721,919l0,2" class="g9_1" />
<path d="M716.8,921.2c1.1,1.3,4.1,2.4,4.8,2.6" class="g9_1" />
<path d="M721,923l0,3" class="g9_1" />
<path d="M716.8,921.2C716.4,920.8,716,920,716,920" class="g9_1" />
<path d="M730.4,916.6c-1.1,1.3,-4,2.5,-4.7,2.6" class="g9_1" />
<path d="M725,919l0,2" class="g9_1" />
<path d="M730.4,921.2c-1.1,1.3,-4,2.4,-4.7,2.6" class="g9_1" />
<path d="M725,923l0,3" class="g9_1" />
<path d="M730.4,921.2c0.4,-0.4,0.8,-1.2,0.8,-1.2" class="g9_1" />
<path d="M716.8,919c1.1,1.3,4.1,2.4,4.8,2.6" class="g8_1" />
<path d="M716.8,919c-0.4,-0.4,-0.8,-1.2,-0.8,-1.2" class="g8_1" />
<path d="M730.4,919c-1.1,1.2,-4,2.4,-4.7,2.5" class="g8_1" />
<path d="M730.4,919c0.4,-0.4,0.8,-1.2,0.8,-1.2" class="g8_1" />
<path d="M716.8,923.6c1.1,1.3,4.1,2.4,4.8,2.6" class="g8_1" />
<path d="M716.8,923.6c-0.4,-0.4,-0.8,-1.2,-0.8,-1.2" class="g8_1" />
<path d="M730.4,923.6c-1.1,1.2,-4,2.4,-4.7,2.5" class="g8_1" />
<path d="M730.4,923.6c0.4,-0.4,0.8,-1.2,0.8,-1.2" class="g8_1" />
<path d="M715.8,923.1c0,1.2,2.3,5.3,7.8,5.3c5.6,0,7.9,-3.1,7.9,-5.3" class="g9_1" />
<path d="M731,916l0,7" class="g9_1" />
<path d="M715,916l0,7" class="g9_1" />
<path d="M715.5,917.5l2,0" class="g8_1" />
<path d="M715.5,922.5l2,0" class="g8_1" />
<path d="M729.5,922.5l2,0" class="g8_1" />
<path d="M729.5,917.5l2,0" class="g8_1" />
<path d="M688.2,772.3l0,11.5c0,0,-0.1,3.1,4.5,3.3c4.6,0.2,6.4,0,6.4,0" class="g9_1" />
<path d="M699,805l0,-18" class="g9_1" />
<path d="M699.3,792.1l-4.8,0c0,0,-5.1,0.1,-5.1,3.8c0,3.6,0,22,0,22c0,0,-0.5,4.6,6.9,4.6c7.3,0,9,0,9,0l0.6,-12.4" class="g9_1" />
<path d="M705,809l36,0" class="g9_1" />
<path d="M689.4,802.1c0,1.8,1.4,3.5,4.3,3.5c3,0,5.6,0,5.6,0" class="g8_1" />
<path d="M759.2,772.5l0,11.3c0,0,0.1,3.1,-4.5,3.3c-4.6,0.2,-5.9,0,-5.9,0" class="g9_1" />
<path d="M748,805l0,-18" class="g9_1" />
<path d="M748.6,792.1l4.8,0c0,0,5.1,0.1,5.1,3.8c0,3.6,0,22,0,22c0,0,0.5,4.6,-6.9,4.6c-7.3,0,-9.8,0.2,-9.8,0.2l-0.5,-12.4" class="g9_1" />
<path d="M758.5,802.1c0,1.8,-1.4,3.5,-4.3,3.5c-3,0,-5.6,0,-5.6,0" class="g8_1" />
<path d="M742,810l-0.2,12.7" class="g8_1" />
<path d="M705.1,810l0.1,12.7" class="g8_1" />
<path d="M704.8,772.3l0.1,10.3" class="g8_1" />
<path d="M742.3,772.3l-0.2,10.3l-37.2,0" class="g8_1" />
<path d="M739.7,802.3c0,0.8,-0.7,1.5,-1.5,1.5l-29,0c-0.8,0,-1.5,-0.7,-1.5,-1.5" class="g8_1" />
<path d="M707.7,802.3l0,-11.7c0,-0.8,0.7,-1.5,1.5,-1.5l29,0c0.8,0,1.5,0.7,1.5,1.5l0,11.7" class="g9_1" />
<path d="M739.7,801c0,0.8,-0.7,1.5,-1.5,1.5l-29,0c-0.8,0,-1.5,-0.7,-1.5,-1.5" class="g8_1" />
<path d="M781.2,769.6c0,0.4,-0.4,1.1,-1.7,1.1l-56.6,0l-52.7,0c-1.3,0,-1.8,-0.8,-1.8,-1" class="g8_1" />
<path d="M668.4,769.7L670,752.9c0.1,-0.9,0.7,-1.5,2,-1.5l51.3,0l54.4,0c1.4,0,2.1,0.7,2.1,1.3l1.4,18.5" class="g9_1" />
<path d="M668,769l0,2" class="g9_1" />
<path d="M781.2,771.2c0,0.5,-0.4,1.1,-1.7,1.1l-56.7,0l-52.6,0c-1.3,0,-1.8,-0.7,-1.8,-1" class="g9_1" />
<path d="M675.5,760.8c0,-0.9,1.5,-1.7,3.3,-1.7c1.8,0,3.3,0.8,3.3,1.7" class="g8_1" />
<path d="M682.1,760.8c0,1,-1.5,1.8,-3.3,1.8c-1.8,0,-3.3,-0.8,-3.3,-1.8" class="g9_1" />
<path d="M676,761.5c0.5,-0.5,1.6,-0.9,2.8,-0.9c1.3,0,2.4,0.4,2.9,1" class="g9_1" />
<path d="M767.4,760.8c0,-0.9,1.5,-1.7,3.3,-1.7c1.8,0,3.3,0.8,3.3,1.7" class="g8_1" />
<path d="M774,760.8c0,1,-1.5,1.8,-3.3,1.8c-1.8,0,-3.3,-0.8,-3.3,-1.8" class="g9_1" />
<path d="M767.8,761.5c0.6,-0.5,1.7,-0.9,2.9,-0.9c1.2,0,2.3,0.4,2.9,1" class="g9_1" />
<path d="M746.2,765c0,0.7,-1,1.2,-2.1,1.2l-40.3,0c-1.2,0,-2.1,-0.5,-2.1,-1.2c0,-0.6,0.3,-8.3,0.3,-8.3" class="g9_1" />
<path d="M701.7,765l0.3,-8.6c0,-0.6,0.9,-1.1,2.1,-1.1l39.7,0c1.1,0,2.1,0.5,2.1,1.1l0.3,8.6" class="g8_1" />
<path d="M741.9,757.2l1.9,0c1.1,0,2.1,0.5,2.1,1.1" class="g8_1" />
<path d="M705,757l36,0" class="g9_1" />
<path d="M702,758.3c0,-0.6,0.9,-1.1,2.1,-1.1l1.3,0" class="g8_1" />
<path d="M704.8,766.2l0.4,-9" class="g8_1" />
<path d="M705,766l0,-9" class="g9_1" />
<path d="M742.3,766.2l-0.3,-9" class="g8_1" />
<path d="M741,766l0,-9" class="g9_1" />
<path d="M705,759l3,0" class="g9_1" />
<path d="M738,759l3,0" class="g9_1" />
<path d="M746.2,765l-0.3,-8.6" class="g9_1" />
<path d="M709.3,777.7c0,0.3,0.3,0.6,0.8,0.6c0.6,0.1,26.6,0,26.6,0c0,0,0.6,-0.2,0.7,-0.8" class="g8_1" />
<path d="M709,777l0,-5" class="g9_1" />
<path d="M737,777l0,-5" class="g9_1" />
<path d="M754.4,792.2l-0.2,-5" class="g9_1" />
<path d="M691,873l14,0" class="g9_1" />
<path d="M742,873l16,0" class="g9_1" />
<path d="M758.5,873.5l0.1,-2.4c0,0,0.1,-1.2,-0.1,-6" class="g9_1" />
<path d="M756.1,821.6l2.4,43.5" class="g9_1" />
<path d="M693,760.6l-2.9,-0.1" class="g8_1" />
<path d="M692,759l0,1" class="g9_1" />
<path d="M694.5,759.5l-2,0" class="g8_1" />
<path d="M694,760l0,-1" class="g9_1" />
<path d="M697.5,760.5l-3,0" class="g8_1" />
<path d="M690,760l0,1l2,0l0,1l2,0l0,-1l3,0l0,-1" class="g9_1" />
<path d="M693.6,758c3,0,5.5,1.3,5.5,2.9c0,1.6,-2.5,2.9,-5.5,2.9c-3.1,0,-5.6,-1.3,-5.6,-2.9c0,-1.6,2.5,-2.9,5.6,-2.9Z" class="g8_1" />
<path d="M693.6,757.8c3.3,0,5.9,1.4,5.9,3.1c0,1.8,-2.6,3.2,-5.9,3.2c-3.3,0,-6,-1.4,-6,-3.2c0,-1.7,2.7,-3.1,6,-3.1Z" class="g8_1" />
<path d="M753.9,760.6L751,760.5" class="g8_1" />
<path d="M753,759l0,1" class="g9_1" />
<path d="M755.5,759.5l-2,0" class="g8_1" />
<path d="M755,760l0,-1" class="g9_1" />
<path d="M757.5,760.5l-2,0" class="g8_1" />
<path d="M751,760l0,1l2,0l0,1l2,0l0,-1l2,0l0,-1" class="g9_1" />
<path d="M754.5,758c3.1,0,5.5,1.3,5.5,2.9c0,1.6,-2.4,2.9,-5.5,2.9c-3.1,0,-5.6,-1.3,-5.6,-2.9c0,-1.6,2.5,-2.9,5.6,-2.9Z" class="g8_1" />
<path d="M754.5,757.8c3.3,0,5.9,1.4,5.9,3.1c0,1.8,-2.6,3.2,-5.9,3.2c-3.3,0,-6,-1.4,-6,-3.2c0,-1.7,2.7,-3.1,6,-3.1Z" class="g8_1" />
<path d="M742.1,782.6l-0.3,-10.1" class="g8_1" />
<path d="M704.9,782.6l0.3,-10.1" class="g8_1" />
<path d="M738.5,762c0,0,-0.2,0.5,-0.7,0.6c-0.5,0.1,-0.9,0.2,-1.2,0.5c-0.2,0.4,-0.2,0.7,-1.2,0.7c-0.9,0,-23.9,0,-23.9,0c0,0,-0.9,0,-1.2,-0.4c-0.3,-0.4,-0.6,-0.7,-1.1,-0.7c-0.4,-0.1,-1,-0.1,-1,-0.6" class="g8_1" />
<path d="M708.2,762.1l0,-2.7c0,0,0.1,-1.1,1.4,-1.1c1.2,0,27.4,0,27.4,0c0,0,1.5,0,1.5,1c0,1.1,0,2.7,0,2.7" class="g9_1" />
<path d="M738.5,762.2c0,0.2,0,0.5,0,0.7c0,0,-0.2,0.6,-0.7,0.7c-0.5,0.1,-0.9,0.1,-1.2,0.5c-0.2,0.3,-0.2,0.7,-1.2,0.7c-0.9,0,-23.9,0,-23.9,0c0,0,-0.9,0,-1.2,-0.4c-0.3,-0.4,-0.6,-0.7,-1.1,-0.8c-0.4,0,-1,0,-1,-0.5l0,-0.6" class="g9_1" />
<path d="M737.6,759.8c0,0.7,0,2,0,2c0,0,-0.2,0.4,-0.6,0.4c-0.4,0.1,-0.7,0.1,-0.9,0.4c-0.2,0.3,-0.1,0.5,-0.8,0.5c-0.8,0,-23.7,0,-23.7,0c0,0,-0.6,0,-0.8,-0.3c-0.2,-0.3,-0.5,-0.5,-0.8,-0.5c-0.3,-0.1,-0.8,-0.1,-0.7,-0.4l0,-2.1" class="g9_1" />
<path d="M709.3,759.8c0,0,0,-0.8,1,-0.8c0.9,0,26.1,0,26.1,0c0,0,1.2,0,1.2,0.8" class="g8_1" />
<path d="M709,763l0,3" class="g9_1" />
<path d="M737,763l0,3" class="g9_1" />
<path d="M714,763l0,-2l18,0l0,2" class="g9_1" />
<path d="M714.3,762l1.4,0.4l15.2,0l1.5,-1" class="g8_1" />
<path d="M715.5,762.5l1,0" class="g8_1" />
<path d="M717.5,762.5l1,0" class="g8_1" />
<path d="M719.5,762.5l1,0" class="g8_1" />
<path d="M721.5,762.5l1,0" class="g8_1" />
<path d="M722.5,762.5l1,0" class="g8_1" />
<path d="M724.5,762.5l1,0" class="g8_1" />
<path d="M726.5,762.5l1,0" class="g8_1" />
<path d="M728.5,762.5l1,0" class="g8_1" />
<path d="M729.5,762.5l1,0" class="g8_1" />
<path d="M709.3,812c-0.9,0.1,-1.1,0.9,-1.1,0.9l0,3.4l0,0.6c0,0.5,0.6,0.5,1,0.5c0.5,0.1,0.8,0.4,1.1,0.8c0.3,0.4,1.2,0.4,1.2,0.4c0,0,23,0,23.9,0c1,0,1,-0.4,1.2,-0.7c0.3,-0.4,0.7,-0.4,1.2,-0.5c0.5,-0.1,0.7,-0.7,0.7,-0.7c0,-0.2,0,-0.5,0,-0.7c0,-0.3,0,-2.9,0,-2.9c0,0,-0.1,-0.8,-1.2,-0.8" class="g9_1" />
<path d="M738.5,815.1c0,0.2,0,0.5,0,0.7c0,0,-0.2,0.6,-0.7,0.7c-0.5,0.1,-0.9,0.1,-1.2,0.5c-0.2,0.3,-0.2,0.7,-1.2,0.7c-0.9,0,-23.9,0,-23.9,0c0,0,-0.9,0,-1.2,-0.4c-0.3,-0.4,-0.6,-0.7,-1.1,-0.8c-0.4,0,-1,0,-1,-0.5l0,-0.6" class="g8_1" />
<path d="M737.3,814.8c0,0.2,0,0.5,0,0.7c0,0,-0.2,0.5,-0.7,0.6c-0.5,0.1,-0.8,0.1,-1.1,0.5c-0.2,0.3,-0.2,0.6,-1,0.6c-0.9,0,-22.1,0,-22.1,0c0,0,-0.8,0,-1,-0.4c-0.3,-0.3,-0.6,-0.6,-1,-0.6c-0.4,-0.1,-1,-0.1,-0.9,-0.6l0,-0.5" class="g8_1" />
<path d="M709,815l0,-5" class="g9_1" />
<path d="M737,815l0,-5" class="g9_1" />
<path d="M711.5,816.5l0,-6" class="g8_1" />
<path d="M735.5,816.5l0,-6" class="g8_1" />
<path d="M736.5,815.5l0,-5" class="g8_1" />
<path d="M710.5,815.5l0,-5" class="g8_1" />
<path d="M681.4,959.4c0,-1.1,1.3,-2,2.9,-2c1.6,0,2.8,0.9,2.8,2" class="g8_1" />
<path d="M679.9,958.5c0,-1.7,2,-3,4.4,-3c2.4,0,4.3,1.3,4.3,3" class="g8_1" />
<path d="M688.6,958.5c0,1.7,-1.9,3.1,-4.3,3.1c-2.4,0,-4.4,-1.4,-4.4,-3.1" class="g8_1" />
<path d="M681.5,959.5c0.3,-0.9,1.4,-1.6,2.8,-1.6c1.3,0,2.5,0.7,2.8,1.6" class="g9_1" />
<path d="M762.5,959.4c0,-1.1,1.3,-2,2.9,-2c1.6,0,2.9,0.9,2.9,2" class="g8_1" />
<path d="M761,958.5c0,-1.7,2,-3,4.4,-3c2.4,0,4.4,1.3,4.4,3" class="g8_1" />
<path d="M769.8,958.5c0,1.7,-2,3.1,-4.4,3.1c-2.4,0,-4.4,-1.4,-4.4,-3.1" class="g8_1" />
<path d="M762.6,959.5c0.3,-0.9,1.4,-1.6,2.8,-1.6c1.4,0,2.5,0.7,2.8,1.6" class="g9_1" />
<path d="M693.3,947l-1.1,21.7" class="g8_1" />
<path d="M693.8,947l-1,21.7" class="g9_1" />
<path d="M756.7,947l1.1,21.7" class="g8_1" />
<path d="M756.2,947l1.1,21.7" class="g9_1" />
<path d="M743.5,866.5l14,0" class="g8_1" />
<path d="M693.5,866.5l10,0" class="g8_1" />
<path d="M691,873.5l3.1,-51.2" class="g8_1" />
<path d="M692.1,873.5L692,871.1c0,0,-0.1,-1.2,0.1,-6" class="g9_1" />
<path d="M694.4,822.3l-2.3,42.8" class="g9_1" />
<path d="M695.8,792.1l0.3,-4.9" class="g9_1" />
<path d="M684.3,960.1l-5,-183.7m-0.5,-16.7l-0.7,-26" class="g18_1" />
<path d="M771.3,733.7l-0.7,25.6m-0.4,17.4l-4.8,183.4" class="g18_1" />
<path d="M684.3,960.1L679.2,772.3m-0.3,-11.2l-0.8,-27.4" class="g19_1" />
<path d="M771.3,733.7l-0.6,28.9m-0.4,9.7l-4.9,187.8" class="g19_1" />
<path d="M687.1,959.4c0,1.1,-1.2,2,-2.8,2c-1.6,0,-2.9,-0.9,-2.9,-2" class="g9_1" />
<path d="M768.3,959.4c0,1.1,-1.3,2,-2.9,2c-1.6,0,-2.9,-0.9,-2.9,-2" class="g9_1" />
<path fill-rule="evenodd" d="M776.5,716.9L776.1,716l-0.8,-0.7L774,714.7l-1.3,-0.3l-1.3,0l-1.1,0.1l-1.3,0.3l-1,0.5l-0.8,0.7l-0.3,0.7l-0.1,4.4l0.1,0.3l0,0.3l0.5,0.6l0.6,0.5l0.5,0.3l-0.2,9l0.1,0.3l0.2,0.4l0.5,0.3l0.6,0.3l0.8,0.2l0.8,0l0.8,0l1,-0.3l0.7,-0.3l0.4,-0.3l0.1,-0.4l0.3,-9l0.5,-0.3l0.5,-0.4l0.6,-0.6l0.2,-0.7Z" class="g16_1" />
<path d="M771.8,714.3c-2.3,0,-4.2,0.9,-4.3,2.1c0,1.2,1.9,2.2,4.2,2.3c2.3,0,4.2,-0.9,4.2,-2.1c0,-1.2,-1.8,-2.2,-4.1,-2.3Z" class="g8_1" />
<path d="M776.5,716.9c0,-1.4,-2.1,-2.5,-4.7,-2.6c-2.6,0,-4.8,1,-4.8,2.4" class="g9_1" />
<path d="M767,716.7c-0.1,1.4,2,2.5,4.7,2.6c2.6,0,4.7,-1,4.8,-2.4" class="g8_1" />
<path d="M766.9,721.1c0,1.3,2.1,2.5,4.7,2.5c2.6,0.1,4.7,-1,4.8,-2.3" class="g9_1" />
<path d="M776.4,721.3l0.1,-4.4" class="g9_1" />
<path d="M766.9,721.1l0.1,-4.4" class="g9_1" />
<path d="M769.1,715.7l0.1,1.4l2.6,0.9l2.4,-0.8" class="g9_1" />
<path d="M774.2,717.2l-0.3,-1.4L771.4,715l-2.3,0.7" class="g8_1" />
<path d="M772.8,717.6l-1.4,-0.4l-1.1,0.3" class="g8_1" />
<path d="M771.4,717.2l0,-2.2" class="g8_1" />
<path d="M773.8,717.3l0.1,-1.5" class="g8_1" />
<path d="M768.3,730.8c0,0.8,1.4,1.6,3,1.6c1.7,0,3.1,-0.6,3.1,-1.5" class="g8_1" />
<path d="M768.2,729.6c0,0.9,1.3,1.7,3,1.7c1.7,0,3,-0.7,3.1,-1.5" class="g8_1" />
<path d="M768.3,728.6c0,0.8,1.3,1.6,3,1.6c1.7,0,3,-0.7,3.1,-1.5" class="g8_1" />
<path d="M768.3,727.4c0,0.9,1.3,1.6,3,1.7c1.7,0,3.1,-0.7,3.1,-1.6" class="g8_1" />
<path d="M768.4,726.3c-0.1,0.8,1.3,1.6,3,1.6c1.7,0,3,-0.7,3.1,-1.5" class="g8_1" />
<path d="M768.4,725.1c0,0.9,1.3,1.6,3,1.7c1.7,0,3.1,-0.7,3.1,-1.6" class="g8_1" />
<path d="M768.4,724c0,0.9,1.4,1.6,3,1.6c1.7,0.1,3.1,-0.6,3.1,-1.5" class="g8_1" />
<path d="M768.6,722.9c-0.1,0.8,1.3,1.6,3,1.6c1.6,0,3,-0.6,3,-1.5" class="g8_1" />
<path d="M768.3,732.1l0.2,-9" class="g9_1" />
<path d="M774.4,732.1l0.2,-9" class="g9_1" />
<path d="M768.3,732.1c0,0.8,1.3,1.6,3,1.6c1.7,0,3.1,-0.8,3.1,-1.6" class="g9_1" />
<path fill-rule="evenodd" d="M672.9,716.9l0.4,-0.9l0.8,-0.7l1.3,-0.6l1.3,-0.3l1.3,0l1.1,0.1l1.3,0.3l1,0.5l0.8,0.7l0.3,0.7l0,4.4l0,0.3l-0.1,0.3l-0.4,0.6l-0.6,0.5l-0.5,0.3l0.2,9l-0.1,0.3l-0.3,0.4l-0.4,0.3l-0.7,0.3l-0.7,0.2l-0.8,0l-0.8,0l-1,-0.3L675.6,733l-0.4,-0.3L675,732.3l-0.2,-9L674.3,723l-0.5,-0.4L673.2,722L673,721.3Z" class="g16_1" />
<path d="M677.6,714.3c2.4,0,4.3,0.9,4.3,2.1c0,1.2,-1.8,2.2,-4.2,2.3c-2.3,0,-4.2,-0.9,-4.2,-2.1c0,-1.2,1.8,-2.2,4.1,-2.3Z" class="g8_1" />
<path d="M673,716.9c-0.1,-1.4,2,-2.5,4.6,-2.6c2.7,0,4.8,1,4.8,2.4" class="g9_1" />
<path d="M682.4,716.7c0.1,1.4,-2,2.5,-4.6,2.6c-2.7,0,-4.8,-1,-4.8,-2.4" class="g8_1" />
<path d="M682.5,721.1c0.1,1.3,-2,2.5,-4.7,2.5c-2.6,0.1,-4.7,-1,-4.7,-2.3" class="g9_1" />
<path d="M673.1,721.3L673,716.9" class="g9_1" />
<path d="M682.5,721.1l-0.1,-4.4" class="g9_1" />
<path d="M680.3,715.7l-0.1,1.4l-2.5,0.9l-2.5,-0.8" class="g9_1" />
<path d="M675.2,717.2l0.3,-1.4L678,715l2.3,0.7" class="g8_1" />
<path d="M676.6,717.6l1.4,-0.4l1.1,0.3" class="g8_1" />
<path d="M678,717.2l0,-2.2" class="g8_1" />
<path d="M675.6,717.3l-0.1,-1.5" class="g8_1" />
<path d="M681.1,730.8c0,0.8,-1.3,1.6,-3,1.6c-1.7,0,-3.1,-0.6,-3.1,-1.5" class="g8_1" />
<path d="M681.2,729.6c0.1,0.9,-1.3,1.7,-3,1.7c-1.6,0,-3,-0.7,-3,-1.5" class="g8_1" />
<path d="M681.1,728.6c0.1,0.8,-1.3,1.6,-3,1.6c-1.6,0,-3,-0.7,-3,-1.5" class="g8_1" />
<path d="M681.1,727.4c0,0.9,-1.3,1.6,-3,1.7c-1.7,0,-3.1,-0.7,-3.1,-1.6" class="g8_1" />
<path d="M681,726.3c0.1,0.8,-1.3,1.6,-3,1.6c-1.6,0,-3,-0.7,-3,-1.5" class="g8_1" />
<path d="M681,725.1c0,0.9,-1.3,1.6,-3,1.7c-1.7,0,-3,-0.7,-3.1,-1.6" class="g8_1" />
<path d="M681,724c0,0.9,-1.4,1.6,-3,1.6c-1.7,0.1,-3.1,-0.6,-3.1,-1.5" class="g8_1" />
<path d="M680.9,722.9c0,0.8,-1.4,1.6,-3,1.6c-1.7,0,-3.1,-0.6,-3.1,-1.5" class="g8_1" />
<path d="M681.1,732.1l-0.2,-9" class="g9_1" />
<path d="M675,732.1l-0.2,-9" class="g9_1" />
<path d="M681.1,732.1c0,0.8,-1.3,1.6,-3,1.6c-1.7,0,-3.1,-0.8,-3.1,-1.6" class="g9_1" />
<path fill-rule="evenodd" d="M200.3,878.4c56.7,0,102.7,46,102.7,102.7c0,56.8,-46,102.8,-102.7,102.8c-56.7,0,-102.7,-46,-102.7,-102.8c0,-56.7,46,-102.7,102.7,-102.7Z" class="g11_1" />
<g clip-path="url(#c0_1)">
<path fill-rule="evenodd" d="M153.2,966l0.5,-0.7l1,-0.5l91,0l0.6,0.1l0.6,0.4l0.4,0.4l0.2,0.6l2.3,14.2l0.6,3.6l-0.1,1.6l-0.4,-0.3l-0.5,-0.2l-0.7,0l-96.4,-0.1l-0.8,0l-0.6,0.2l-0.6,0.4l0,-0.9l0,-0.9Z" class="g16_1" />
<path d="M93.8,1085.2l53.4,-203" class="g9_1" />
<path d="M306.4,1085.2l-52.9,-203" class="g9_1" />
<path d="M190.5,882.5l5,0l0,6l-5,0Z" class="g8_1" />
<path d="M191.5,884.5l3,0l0,4l-3,0Z" class="g8_1" />
<path d="M191.5,884.3l-0.7,-1.5l4.6,0l-0.8,1.5" class="g8_1" />
<path d="M191,885l3,0" class="g9_1" />
<path d="M194,885l0,0" class="g9_1" />
<path d="M206.5,883.5l5,0l0,5l-5,0Z" class="g8_1" />
<path d="M207.5,884.5l3,0l0,4l-3,0Z" class="g8_1" />
<path d="M207,884.8l-0.6,-1.2l4.6,0l-0.8,1.2" class="g8_1" />
<path d="M207,885l2,0" class="g9_1" />
<path d="M209,885l1,0" class="g9_1" />
<path d="M205.5,895.1l-0.1,-2.2c0,-0.8,-1.6,-2.1,-4.6,-2.1c-3,0,-4.6,1.4,-4.6,2.3c0,0.9,0,2,0,2" class="g8_1" />
<path d="M196,895l9,0" class="g9_1" />
<path d="M204.5,893.7c0,-0.6,-1.3,-1.7,-3.7,-1.7c-2.4,0,-3.7,1.2,-3.7,1.9c0,0.7,0,1.2,0,1.2l7.5,0Z" class="g8_1" />
<path d="M204.5,895.1l0,-0.5c0,-0.6,-1.3,-1.7,-3.7,-1.7c-2.4,0,-3.7,1.2,-3.7,1.9c0,0.1,0,0.2,0,0.3" class="g9_1" />
<path d="M170.6,911.2l3.7,-29" class="g8_1" />
<path d="M230,911l-60,0" class="g9_1" />
<path d="M230,911.2c0.1,-1.6,-0.2,-5.9,-0.4,-7.7c-0.3,-1.9,-2.9,-21.3,-2.9,-21.3" class="g9_1" />
<path d="M171.7,911.1c-0.1,-1.8,0.2,-4.9,0.6,-8.1c0.4,-3.2,2.6,-20.8,2.6,-20.8" class="g9_1" />
<path d="M173.5,906.5l55,0" class="g8_1" />
<path d="M152.6,915.1l95.3,0c0,0,1.2,-0.2,1.4,0.9c0.2,1,26.2,127.8,26.2,127.8c0,0,0.1,1.1,-0.1,1.7" class="g9_1" />
<path d="M275.4,1045.5l-150.5,0" class="g8_1" />
<path d="M124.9,1045.5c-0.1,-0.7,0,-1.2,0.1,-1.7c0.1,-0.6,26.5,-127.9,26.5,-127.9c0,0,0.3,-0.8,1.1,-0.8" class="g9_1" />
<path d="M124.9,1044c0.2,-0.9,0.9,-2.9,3.9,-5.2" class="g8_1" />
<path d="M275.6,1044c-0.2,-0.9,-0.9,-2.9,-3.9,-5.2" class="g8_1" />
<path d="M271.7,1038.8l-23.9,-123l-94.9,0" class="g8_1" />
<path d="M128.5,1038.5l143,0" class="g8_1" />
<path d="M128.8,1038.8l24.1,-123" class="g8_1" />
<path d="M152.9,915.8c-0.1,-0.2,-0.5,-0.7,-1.1,-0.4" class="g8_1" />
<path d="M247.8,915.8c0,-0.3,0.6,-0.7,0.9,-0.6" class="g8_1" />
<path d="M200.3,1011.2c4.2,0,7.7,2.5,7.7,5.6c0,3.1,-3.5,5.7,-7.7,5.7c-4.3,0,-7.8,-2.6,-7.8,-5.7c0,-3.1,3.5,-5.6,7.8,-5.6Z" class="g8_1" />
<path d="M202.3,1015.8l0,1.7l-2,1l-2,-0.9l0,-1.8" class="g9_1" />
<path d="M198.3,1015.8l2,-0.8l2,0.8" class="g8_1" />
<path d="M199.2,1018l1.1,-0.4l1,0.4" class="g8_1" />
<path d="M200.5,1017.5l0,-3" class="g8_1" />
<path d="M200.3,922.7c3.1,0,5.7,1.4,5.7,3.1c0,1.7,-2.6,3.1,-5.7,3.1c-3.2,0,-5.8,-1.4,-5.8,-3.1c0,-1.7,2.6,-3.1,5.8,-3.1Z" class="g8_1" />
<path d="M201.8,925.2l0,1l-1.5,0.5l-1.5,-0.5l0,-1" class="g9_1" />
<path d="M198.8,925.2l1.5,-0.4l1.5,0.4" class="g8_1" />
<path d="M199.5,926.5l0.8,-0.3l0.7,0.2" class="g8_1" />
<path d="M200.5,926.5l0,-2" class="g8_1" />
<path d="M254.8,1005.7c0.2,1.3,-1.1,2.5,-2.5,2.5l-104,0c-1.4,0,-2.7,-1.2,-2.5,-2.5" class="g9_1" />
<path d="M145.8,1005.7L158,933.1c0.2,-1.4,1.1,-2.5,2.5,-2.5l79.8,0c1.4,0,2.3,1.1,2.5,2.5l12,72.6" class="g8_1" />
<path d="M151.9,985.2l96.8,0c1.4,0,2,0.8,2.1,1.4l3.2,20.5c0.1,0.4,-0.3,1.1,-1.7,1.1l-104,0c-1.4,0,-1.8,-0.8,-1.8,-1l3.3,-20.4c0.2,-0.9,0.7,-1.6,2.1,-1.6Z" class="g9_1" />
<path d="M155.2,964.8l90.2,0c1.4,0,2,0.8,2.1,1.3l2.8,17.7c0,0.4,-0.4,1.1,-1.7,1.1l-96.4,0c-1.4,0,-1.9,-0.8,-1.9,-1l2.9,-17.5c0.1,-1,0.6,-1.6,2,-1.6Z" class="g9_1" />
<path d="M150,983l0,2" class="g9_1" />
<path d="M250,983l0,2" class="g9_1" />
<path d="M158.1,946.9l84.5,0c1.3,0,1.9,0.7,1.9,1.2l2.4,15.7c0.1,0.4,-0.3,1,-1.6,1l-89.9,0c-1.3,0,-1.8,-0.7,-1.7,-0.9l2.5,-15.6c0.1,-0.8,0.6,-1.4,1.9,-1.4Z" class="g9_1" />
<path d="M153,963l0,2" class="g9_1" />
<path d="M246,963l0,2" class="g9_1" />
<path d="M160.6,931.1l79.3,0c1.2,0,1.7,0.7,1.8,1.2l2.3,13.5c0.1,0.4,-0.3,1,-1.5,1l-84.3,0c-1.2,0,-1.6,-0.7,-1.6,-0.9l2.2,-13.4c0.2,-0.8,0.6,-1.4,1.8,-1.4Z" class="g9_1" />
<path d="M156,945l0,2" class="g9_1" />
<path d="M244,945l0,2" class="g9_1" />
<path d="M151.4,1060.4l97.6,0.1l3.1,24.7" class="g8_1" />
<path d="M151,1063.1l0.4,-2.7" class="g9_1" />
<path d="M147.4,1085.2c0,0,1.5,-11.3,2.3,-17.2c0.8,-5.9,2.5,-5.9,2.9,-5.9c0.3,-0.1,93.2,0,93.2,0" class="g9_1" />
<path d="M245.8,1062.1c0.9,0,1.9,0.4,2.3,1.4c0.3,1,1,3.2,1.3,6.1c0.3,2.9,2,15.6,2,15.6" class="g9_1" />
<path d="M152.5,1064.5l94,0" class="g8_1" />
<path d="M190,888l5,0" class="g9_1" />
<path d="M206,888l5,0" class="g9_1" />
<path d="M207,888l0,-4" class="g9_1" />
<path d="M210,888l0,-4" class="g9_1" />
<path d="M194,888l0,-4" class="g9_1" />
<path d="M191,888l0,-4" class="g9_1" />
<path d="M248.5,1060.5l0,2" class="g8_1" />
<path d="M247.7,1062.8l1.3,0l2.8,22.3" class="g9_1" />
<path d="M200.3,1010.9c4.5,0,8.2,2.6,8.2,5.9c0,3.3,-3.7,6,-8.2,6c-4.6,0,-8.3,-2.7,-8.3,-6c0,-3.3,3.7,-5.9,8.3,-5.9Z" class="g8_1" />
<path d="M200.3,922.5c3.3,0,5.9,1.5,5.9,3.3c0,1.8,-2.6,3.3,-5.9,3.3c-3.4,0,-6,-1.5,-6,-3.3c0,-1.8,2.6,-3.3,6,-3.3Z" class="g8_1" />
<path d="M156.6,989.6c2.2,0,4,1.2,4,2.7c0,1.5,-1.8,2.7,-4,2.7c-2.2,0,-4,-1.2,-4,-2.7c0,-1.5,1.8,-2.7,4,-2.7Z" class="g8_1" />
<path d="M152.1,992.7c0,-1.7,2,-3.1,4.5,-3.1c2.5,0,4.5,1.4,4.5,3.1" class="g9_1" />
<path d="M161.1,992.7c0,1.7,-2,3,-4.5,3c-2.5,0,-4.5,-1.3,-4.5,-3" class="g8_1" />
<path d="M161.1,996.4c0,1.7,-2,3,-4.5,3c-2.5,0,-4.5,-1.3,-4.5,-3" class="g8_1" />
<path d="M152,996l0,-4" class="g9_1" />
<path d="M161,996l0,-4" class="g9_1" />
<path d="M159.1,991.4l-0.1,1.7l-2.5,1l-2.2,-1" class="g9_1" />
<path d="M154.3,993.1l0.3,-1.7l2.3,-0.9l2.2,0.9" class="g8_1" />
<path d="M155.5,993.6l1.4,-0.5l1,0.4" class="g8_1" />
<path d="M156.5,993.5l0,-3" class="g8_1" />
<path d="M154.5,993.5l0,-2" class="g8_1" />
<path d="M160,968.1c2.1,0,3.8,1.1,3.8,2.6c0,1.4,-1.7,2.6,-3.8,2.6c-2.1,0,-3.8,-1.2,-3.8,-2.6c0,-1.5,1.7,-2.6,3.8,-2.6Z" class="g8_1" />
<path d="M155.7,971c0,-1.6,1.9,-2.9,4.3,-2.9c2.4,0,4.3,1.3,4.3,2.9" class="g9_1" />
<path d="M164.3,971c0,1.6,-1.9,2.9,-4.3,2.9c-2.4,0,-4.3,-1.3,-4.3,-2.9" class="g8_1" />
<path d="M164.3,974.5c0,1.7,-1.9,3,-4.3,3c-2.4,0,-4.3,-1.3,-4.3,-3" class="g8_1" />
<path d="M155,974l0,-3" class="g9_1" />
<path d="M164,974l0,-3" class="g9_1" />
<path d="M162.4,969.8l-0.2,1.7l-2.3,0.9l-2.2,-1" class="g9_1" />
<path d="M157.7,971.4l0.4,-1.6l2.2,-0.9l2.1,0.9" class="g8_1" />
<path d="M159,971.9l1.3,-0.5l1,0.4" class="g8_1" />
<path d="M160.5,971.5l0,-3" class="g8_1" />
<path d="M158.5,971.5l0,-2" class="g8_1" />
<path d="M162.7,949.6c1.9,0,3.4,1.1,3.4,2.4c0,1.3,-1.5,2.3,-3.4,2.3c-1.9,0,-3.5,-1,-3.5,-2.3c0,-1.3,1.6,-2.4,3.5,-2.4Z" class="g8_1" />
<path d="M158.8,952.3c0,-1.5,1.7,-2.7,3.9,-2.7c2.1,0,3.9,1.2,3.9,2.7" class="g9_1" />
<path d="M166.6,952.3c0,1.5,-1.8,2.7,-3.9,2.7c-2.2,0,-3.9,-1.2,-3.9,-2.7" class="g8_1" />
<path d="M166.6,955.5c0,1.5,-1.8,2.7,-3.9,2.7c-2.2,0,-3.9,-1.2,-3.9,-2.7" class="g8_1" />
<path d="M158,955l0,-3" class="g9_1" />
<path d="M166,955l0,-3" class="g9_1" />
<path d="M164.8,951.2l-0.1,1.5l-2.1,0.9l-2,-0.9" class="g9_1" />
<path d="M160.6,952.7l0.3,-1.5l2,-0.8l1.9,0.8" class="g8_1" />
<path d="M161.7,953.1l1.2,-0.4l0.9,0.3" class="g8_1" />
<path d="M162.5,952.5l0,-2" class="g8_1" />
<path d="M160.5,952.5l0,-1" class="g8_1" />
<path d="M165,933.4c1.8,0,3.2,1,3.2,2.2c0,1.2,-1.4,2.2,-3.2,2.2c-1.8,0,-3.3,-1,-3.3,-2.2c0,-1.2,1.5,-2.2,3.3,-2.2Z" class="g8_1" />
<path d="M161.3,935.9c0,-1.4,1.7,-2.5,3.7,-2.5c2,0,3.7,1.1,3.7,2.5" class="g9_1" />
<path d="M168.7,935.9c0,1.4,-1.7,2.5,-3.7,2.5c-2,0,-3.7,-1.1,-3.7,-2.5" class="g8_1" />
<path d="M168.7,938.9c0,1.4,-1.7,2.5,-3.7,2.5c-2,0,-3.7,-1.1,-3.7,-2.5" class="g8_1" />
<path d="M161,938l0,-3" class="g9_1" />
<path d="M168,938l0,-3" class="g9_1" />
<path d="M167,934.8l-0.1,1.5l-2,0.8l-1.8,-0.9" class="g9_1" />
<path d="M163.1,936.2l0.2,-1.4l1.9,-0.7l1.8,0.7" class="g8_1" />
<path d="M164.1,936.7l1.1,-0.5l0.9,0.4" class="g8_1" />
<path d="M165.5,936.5l0,-2" class="g8_1" />
<path d="M163.5,936.5l0,-2" class="g8_1" />
<path d="M243.6,989.6c2.2,0,4,1.2,4,2.7c0,1.5,-1.8,2.7,-4,2.7c-2.2,0,-4,-1.2,-4,-2.7c0,-1.5,1.8,-2.7,4,-2.7Z" class="g8_1" />
<path d="M239.1,992.7c0,-1.7,2,-3.1,4.5,-3.1c2.5,0,4.5,1.4,4.5,3.1" class="g9_1" />
<path d="M248.1,992.7c0,1.7,-2,3,-4.5,3c-2.5,0,-4.5,-1.3,-4.5,-3" class="g8_1" />
<path d="M248.1,996.4c0,1.7,-2,3,-4.5,3c-2.5,0,-4.5,-1.3,-4.5,-3" class="g8_1" />
<path d="M239,996l0,-4" class="g9_1" />
<path d="M248,996l0,-4" class="g9_1" />
<path d="M246,991.4l-0.1,1.7l-2.4,1l-2.3,-1" class="g9_1" />
<path d="M241.2,993.1l0.3,-1.7l2.4,-0.9l2.1,0.9" class="g8_1" />
<path d="M242.5,993.6l1.4,-0.5l1,0.4" class="g8_1" />
<path d="M243.5,993.5l0,-3" class="g8_1" />
<path d="M241.5,993.5l0,-2" class="g8_1" />
<path d="M240.9,968.1c2.1,0,3.8,1.1,3.8,2.6c0,1.4,-1.7,2.6,-3.8,2.6c-2.1,0,-3.8,-1.2,-3.8,-2.6c0,-1.5,1.7,-2.6,3.8,-2.6Z" class="g8_1" />
<path d="M236.6,971c0,-1.6,1.9,-2.9,4.3,-2.9c2.4,0,4.3,1.3,4.3,2.9" class="g9_1" />
<path d="M245.2,971c0,1.6,-1.9,2.9,-4.3,2.9c-2.4,0,-4.3,-1.3,-4.3,-2.9" class="g8_1" />
<path d="M245.2,974.5c0,1.7,-1.9,3,-4.3,3c-2.4,0,-4.3,-1.3,-4.3,-3" class="g8_1" />
<path d="M236,974l0,-3" class="g9_1" />
<path d="M245,974l0,-3" class="g9_1" />
<path d="M243.3,969.8l-0.1,1.7l-2.3,0.9l-2.2,-1" class="g9_1" />
<path d="M238.7,971.4l0.3,-1.6l2.2,-0.9l2.1,0.9" class="g8_1" />
<path d="M239.9,971.9l1.3,-0.5l1,0.4" class="g8_1" />
<path d="M241.5,971.5l0,-3" class="g8_1" />
<path d="M238.5,971.5l0,-2" class="g8_1" />
<path d="M238.2,949.6c1.9,0,3.5,1.1,3.5,2.4c0,1.3,-1.6,2.3,-3.5,2.3c-1.9,0,-3.4,-1,-3.4,-2.3c0,-1.3,1.5,-2.4,3.4,-2.4Z" class="g8_1" />
<path d="M234.3,952.3c0,-1.5,1.8,-2.7,3.9,-2.7c2.2,0,3.9,1.2,3.9,2.7" class="g9_1" />
<path d="M242.1,952.3c0,1.5,-1.7,2.7,-3.9,2.7c-2.1,0,-3.9,-1.2,-3.9,-2.7" class="g8_1" />
<path d="M242.1,955.5c0,1.5,-1.7,2.7,-3.9,2.7c-2.1,0,-3.9,-1.2,-3.9,-2.7" class="g8_1" />
<path d="M234,955l0,-3" class="g9_1" />
<path d="M242,955l0,-3" class="g9_1" />
<path d="M240.4,951.2l-0.1,1.5l-2.1,0.9l-2,-0.9" class="g9_1" />
<path d="M236.2,952.7l0.3,-1.5l2,-0.8l1.9,0.8" class="g8_1" />
<path d="M237.3,953.1l1.2,-0.4l0.9,0.3" class="g8_1" />
<path d="M238.5,952.5l0,-2" class="g8_1" />
<path d="M236.5,952.5l0,-1" class="g8_1" />
<path d="M235.8,933.4c1.8,0,3.2,1,3.2,2.2c0,1.2,-1.4,2.2,-3.2,2.2c-1.8,0,-3.3,-1,-3.3,-2.2c0,-1.2,1.5,-2.2,3.3,-2.2Z" class="g8_1" />
<path d="M232.1,935.9c0,-1.4,1.6,-2.5,3.7,-2.5c2,0,3.6,1.1,3.6,2.5" class="g9_1" />
<path d="M239.4,935.9c0,1.4,-1.6,2.5,-3.6,2.5c-2.1,0,-3.7,-1.1,-3.7,-2.5" class="g8_1" />
<path d="M239.4,938.9c0,1.4,-1.6,2.5,-3.6,2.5c-2.1,0,-3.7,-1.1,-3.7,-2.5" class="g8_1" />
<path d="M232,938l0,-3" class="g9_1" />
<path d="M239,938l0,-3" class="g9_1" />
<path d="M237.8,934.8l-0.1,1.5l-2,0.8l-1.9,-0.9" class="g9_1" />
<path d="M233.8,936.2l0.3,-1.4l1.9,-0.7l1.8,0.7" class="g8_1" />
<path d="M234.9,936.7l1.1,-0.5l0.8,0.4" class="g8_1" />
<path d="M236.5,936.5l0,-2" class="g8_1" />
<path d="M234.5,936.5l0,-2" class="g8_1" />
</g>
<path d="M200.3,878.4c56.7,0,102.7,46,102.7,102.7c0,56.8,-46,102.8,-102.7,102.8c-56.7,0,-102.7,-46,-102.7,-102.8c0,-56.7,46,-102.7,102.7,-102.7Z" class="g23_1" />
<path fill-rule="evenodd" d="M719.7,834.3l0,11l8.4,0l0,-11l4.4,0l0,-4L724,820.4l-8.4,10.1l0,3.8Z" class="g17_1" />
<path d="M715.6,834.3L724,824.2l8.5,10.1" class="g8_1" />
<path d="M724,824.2l0,-3.8" class="g8_1" />
<path fill-rule="evenodd" d="M724,820.4l8.5,9.9l0,4L724,824.2Z" class="g20_1" />
<path fill-rule="evenodd" d="M724,820.5l-8.4,10l0,3.8L724,824.2Z" class="g21_1" />
<path d="M719.7,845.3l0,-11l-4.1,0l0,-3.8L724,820.4l8.5,9.9l0,4l-4.4,0l0,11Z" class="g9_1" />
<path d="M823.2,376.1l0,-5.1" class="g9_1" />
<path d="M82,82l770,0l0,1045l-770,0Z" class="g9_1" />
<path fill-rule="evenodd" d="M408,187l118,0l-118,0Z" class="g6_1" />
<image x="102" y="102" width="114" height="39" xlink:href="img/1.png" />
</svg>