<?xml version="1.0" encoding="UTF-8" standalone="no"?>
<!DOCTYPE svg PUBLIC "-//W3C//DTD SVG 1.1//EN"
"http://www.w3.org/Graphics/SVG/1.1/DTD/svg11.dtd">
<svg version="1.1" xmlns="http://www.w3.org/2000/svg" xmlns:xlink="http://www.w3.org/1999/xlink">
<defs>
<style type="text/css"><![CDATA[
.g15_2{
fill: none;
stroke: #231F20;
stroke-width: 1;
stroke-linecap: butt;
stroke-linejoin: miter;
stroke-miterlimit: 4;
stroke-dasharray: 4,4;
}
.g5_2{
fill: #696C6D;
}
.g6_2{
fill: #B92D34;
}
.g8_2{
fill: #578DAA;
}
.g13_2{
fill: #FFFFFF;
}
.g11_2{
fill: none;
stroke: #040503;
stroke-width: 1;
stroke-linecap: round;
stroke-linejoin: round;
stroke-miterlimit: 2;
}
.g7_2{
fill: #060706;
}
.g1_2{
fill: #1A1412;
}
.g10_2{
fill: #7A9C3D;
}
.g9_2{
fill: #D46537;
}
.g12_2{
fill: #040503;
}
.g2_2{
fill: #CDCACC;
}
.g14_2{
fill: none;
stroke: #000000;
stroke-width: 1;
stroke-linecap: butt;
stroke-linejoin: miter;
stroke-miterlimit: 4;
}
.g4_2{
fill: #DEDFDE;
}
.g3_2{
fill: none;
stroke: #646669;
stroke-width: 1;
stroke-linecap: butt;
stroke-linejoin: miter;
}
]]></style>
</defs>
<path d="M0,126l935,0L935,0L0,0L0,126Z" class="g1_2" />
<path d="M366,436l569,0l0,-310l-569,0l0,310Z" class="g2_2" />
<image x="-1" y="124" width="369" height="314" xlink:href="img/1.png" />
<path d="M82.5,911.5l162,0" class="g3_2" />
<path d="M244.5,911.5l179,0" class="g3_2" />
<path d="M247,944l55,0l0,-22l-55,0l0,22Z" class="g4_2" />
<path d="M247,970l55,0l0,-22l-55,0l0,22Z" class="g5_2" />
<path d="M247,1048l55,0l0,-22l-55,0l0,22Z" class="g6_2" />
<path d="M247,996l55,0l0,-22l-55,0l0,22Z" class="g7_2" />
<path d="M247,1074l55,0l0,-21l-55,0l0,21Z" class="g8_2" />
<path d="M247,1022l55,0l0,-22l-55,0l0,22Z" class="g9_2" />
<path d="M247,1100l55,0l0,-21l-55,0l0,21Z" class="g10_2" />
<path d="M82,944l55,0l0,-22l-55,0l0,22Z" class="g4_2" />
<path d="M82,970l55,0l0,-22l-55,0l0,22Z" class="g5_2" />
<path d="M82,996l55,0l0,-22l-55,0l0,22Z" class="g7_2" />
<image x="64" y="442" width="187" height="140" xlink:href="img/2.png" />
<image x="268" y="442" width="187" height="140" xlink:href="img/3.png" />
<image x="472" y="442" width="186" height="140" xlink:href="img/4.png" />
<image x="675" y="442" width="187" height="140" xlink:href="img/5.png" />
<path d="M709.9,931.9l121.8,0c0.5,0,0.9,0.4,0.9,0.9l0,36.1c0,0.5,-0.4,1,-0.9,1l-121.8,0c-0.5,0,-0.9,-0.5,-0.9,-1l0,-36.1c0,-0.5,0.4,-0.9,0.9,-0.9Zm-12,-2.7l145.8,0l0,2.7l-145.8,0l0,-2.7Z" class="g11_2" />
<path fill-rule="evenodd" d="M803,956l-11,0l0,-4l11,0l0,4Z" class="g12_2" />
<path d="M803.5,956.5l-11,0l0,-4l11,0l0,4Z" class="g11_2" />
<path fill-rule="evenodd" d="M803,944l-11,0l0,5l11,0l0,-5Z" class="g12_2" />
<path d="M803.8,945l-11.6,0l0,4.4l11.6,0l0,-4.4ZM727,948.1l0,6.3l3.5,0c0,0,2.9,-0.3,2.9,-3.1c0,-2.8,-2.3,-3.2,-3,-3.2c-0.7,0,-3.4,0,-3.4,0Z" class="g11_2" />
<path fill-rule="evenodd" d="M727.8,948.8l0,4.9l2.6,0c0,0,2.2,-0.3,2.2,-2.4c0,-2.2,-1.7,-2.5,-2.3,-2.5c-0.5,0,-2.5,0,-2.5,0Z" class="g12_2" />
<path d="M727.8,948.8l0,4.9l2.6,0c0,0,2.2,-0.3,2.2,-2.4c0,-2.2,-1.7,-2.5,-2.3,-2.5c-0.5,0,-2.5,0,-2.5,0Zm0,0L727,948.1m0,6.3l0.8,-0.7M737,955l7.4,0c0.1,0,0.3,0.1,0.3,0.3l0,3c0,0.1,-0.2,0.3,-0.3,0.3l-7.4,0c-0.1,0,-0.2,-0.2,-0.2,-0.3l0,-3c0,-0.2,0.1,-0.3,0.2,-0.3Z" class="g11_2" />
<path fill-rule="evenodd" d="M737.6,955.6l6.2,0c0.1,0,0.2,0.1,0.2,0.2l0,2c0,0.1,-0.1,0.1,-0.2,0.1l-6.2,0c-0.1,0,-0.1,0,-0.1,-0.1l0,-2c0,-0.1,0,-0.2,0.1,-0.2Z" class="g12_2" />
<path d="M737.6,955.6l6.2,0c0.1,0,0.2,0.1,0.2,0.2l0,2c0,0.1,-0.1,0.1,-0.2,0.1l-6.2,0c-0.1,0,-0.1,0,-0.1,-0.1l0,-2c0,-0.1,0,-0.2,0.1,-0.2Zm-0.8,-0.5l0.7,0.6m-0.7,2.7l0.7,-0.6m7.1,-2.7l-0.7,0.6m0.7,2.7l-0.7,-0.6M736.4,944l8.6,0c0.1,0,0.3,0.1,0.3,0.2l0,3.1c0,0.1,-0.2,0.2,-0.3,0.2l-8.6,0c-0.1,0,-0.2,-0.1,-0.2,-0.2l0,-3.1c0,-0.1,0.1,-0.2,0.2,-0.2Z" class="g11_2" />
<path fill-rule="evenodd" d="M737,944.6l7.4,0c0.1,0,0.2,0,0.2,0.1l0,2c0,0.1,-0.1,0.2,-0.2,0.2l-7.4,0c0,0,-0.1,-0.1,-0.1,-0.2l0,-2c0,-0.1,0.1,-0.1,0.1,-0.1Z" class="g12_2" />
<path d="M737,944.6l7.4,0c0.1,0,0.2,0,0.2,0.1l0,2c0,0.1,-0.1,0.2,-0.2,0.2l-7.4,0c0,0,-0.1,-0.1,-0.1,-0.2l0,-2c0,-0.1,0.1,-0.1,0.1,-0.1ZM736.3,944l0.6,0.6m-0.6,2.8l0.6,-0.6m8.3,-2.8l-0.7,0.6m0.7,2.8l-0.7,-0.6" class="g11_2" />
<path d="M802.9,944.5l-10,0c-0.4,0,-0.8,0.3,-0.8,0.8l0,3.7c0,0.5,0.4,0.9,0.8,0.9l10,0c0.5,0,0.9,-0.4,0.9,-0.9l0,-3.7c0,-0.5,-0.4,-0.8,-0.9,-0.8Z" class="g11_2" />
<path fill-rule="evenodd" d="M793.3,947.6l0,-1.2c0,-0.4,0.2,-0.7,0.6,-0.7l8.2,0c0.3,0,0.6,0.3,0.6,0.7l0,1.2Z" class="g13_2" />
<path d="M793.3,947.6l0,-1.2c0,-0.4,0.2,-0.7,0.6,-0.7l8.2,0c0.3,0,0.6,0.3,0.6,0.7l0,1.2l-9.4,0Zm0.5,-0.5l0,-0.6c0,-0.1,0.2,-0.3,0.3,-0.3l7.8,0c0.1,0,0.3,0.2,0.3,0.3l0,0.6l-8.4,0Zm8.4,0l0.5,0.5m-8.9,-0.5l-0.5,0.5M803.7,945l-11.6,0m11.6,4.4l-11.6,0" class="g11_2" />
<path d="M802.9,952.1l-10,0c-0.4,0,-0.8,0.3,-0.8,0.8l0,3.7c0,0.5,0.4,0.9,0.8,0.9l10,0c0.5,0,0.9,-0.4,0.9,-0.9l0,-3.7c0,-0.5,-0.4,-0.8,-0.9,-0.8Z" class="g11_2" />
<path fill-rule="evenodd" d="M793.3,955.2l0,-1.2c0,-0.4,0.2,-0.6,0.6,-0.6l8.2,0c0.3,0,0.6,0.2,0.6,0.6l0,1.2Z" class="g13_2" />
<path d="M793.3,955.2l0,-1.2c0,-0.4,0.2,-0.6,0.6,-0.6l8.2,0c0.3,0,0.6,0.2,0.6,0.6l0,1.2l-9.4,0Zm0.5,-0.5l0,-0.6c0,-0.1,0.2,-0.3,0.3,-0.3l7.8,0c0.1,0,0.3,0.2,0.3,0.3l0,0.6l-8.4,0Zm8.4,0l0.5,0.5m-8.9,-0.5l-0.5,0.5m10.4,-2.6l-11.6,0m11.6,4.4l-11.6,0m-38.5,-8.9l0,6.3l3.4,0c0,0,2.9,-0.3,2.9,-3.1c0,-2.8,-2.2,-3.2,-2.9,-3.2c-0.8,0,-3.4,0,-3.4,0Z" class="g11_2" />
<path fill-rule="evenodd" d="M754.3,948.8l0,4.9l2.7,0c0,0,2.2,-0.3,2.2,-2.4c0,-2.2,-1.7,-2.5,-2.3,-2.5c-0.6,0,-2.6,0,-2.6,0Z" class="g12_2" />
<path d="M754.3,948.8l0,4.9l2.7,0c0,0,2.2,-0.3,2.2,-2.4c0,-2.2,-1.7,-2.5,-2.3,-2.5c-0.6,0,-2.6,0,-2.6,0Zm0,0l-0.7,-0.7m0,6.3l0.7,-0.7m9.3,1.3l7.4,0c0.1,0,0.2,0.1,0.2,0.3l0,3c0,0.1,-0.1,0.3,-0.2,0.3l-7.4,0c-0.2,0,-0.3,-0.2,-0.3,-0.3l0,-3c0,-0.2,0.1,-0.3,0.3,-0.3Z" class="g11_2" />
<path fill-rule="evenodd" d="M764.2,955.6l6.2,0c0.1,0,0.2,0.1,0.2,0.2l0,2c0,0.1,-0.1,0.1,-0.2,0.1l-6.2,0c-0.1,0,-0.2,0,-0.2,-0.1l0,-2c0,-0.1,0.1,-0.2,0.2,-0.2Z" class="g12_2" />
<path d="M764.2,955.6l6.2,0c0.1,0,0.2,0.1,0.2,0.2l0,2c0,0.1,-0.1,0.1,-0.2,0.1l-6.2,0c-0.1,0,-0.2,0,-0.2,-0.1l0,-2c0,-0.1,0.1,-0.2,0.2,-0.2Zm-0.8,-0.5l0.7,0.6m-0.7,2.7l0.7,-0.6m7,-2.7l-0.6,0.6m0.6,2.7l-0.6,-0.6M763,944l8.6,0c0.1,0,0.2,0.1,0.2,0.2l0,3.1c0,0.1,-0.1,0.2,-0.2,0.2l-8.6,0c-0.1,0,-0.3,-0.1,-0.3,-0.2l0,-3.1c0,-0.1,0.2,-0.2,0.3,-0.2Z" class="g11_2" />
<path fill-rule="evenodd" d="M763.6,944.6l7.4,0c0.1,0,0.1,0,0.1,0.1l0,2c0,0.1,0,0.2,-0.1,0.2l-7.4,0c-0.1,0,-0.2,-0.1,-0.2,-0.2l0,-2c0,-0.1,0.1,-0.1,0.2,-0.1Z" class="g12_2" />
<path d="M763.6,944.6l7.4,0c0.1,0,0.1,0,0.1,0.1l0,2c0,0.1,0,0.2,-0.1,0.2l-7.4,0c-0.1,0,-0.2,-0.1,-0.2,-0.2l0,-2c0,-0.1,0.1,-0.1,0.2,-0.1ZM762.8,944l0.7,0.6m-0.7,2.8l0.7,-0.6m8.2,-2.8l-0.6,0.6m0.6,2.8l-0.6,-0.6" class="g11_2" />
<path d="M710.5,979.5l120,0m-120,-2l0,3m120,-3l0,3m19,-52l0,41m2,-41l-4,0m4,41l-4,0" class="g14_2" />
<path d="M651.2,1056.9l-136.3,0c-2.7,0,-5,-2.2,-5,-4.9l0,-42.8c0,-2.3,1.9,-4.1,4.1,-4.1l137.7,0c2.3,0,4.1,1.8,4.1,4.1l0,43.1c0,2.5,-2.1,4.6,-4.6,4.6Zm-135.7,-5.5c-1.2,0,-2.2,-1,-2.2,-2.3c0,-1.2,1,-2.2,2.2,-2.2c1.2,0,2.2,1,2.2,2.2c0,1.3,-1,2.3,-2.2,2.3Zm0,-36.6c-1.2,0,-2.2,-1,-2.2,-2.2c0,-1.3,1,-2.3,2.2,-2.3c1.2,0,2.2,1,2.2,2.3c0,1.2,-1,2.2,-2.2,2.2Zm134.7,36.6c-1.2,0,-2.2,-1,-2.2,-2.3c0,-1.2,1,-2.2,2.2,-2.2c1.2,0,2.2,1,2.2,2.2c0,1.3,-1,2.3,-2.2,2.3Zm0,-36.6c-1.2,0,-2.2,-1,-2.2,-2.2c0,-1.3,1,-2.3,2.2,-2.3c1.2,0,2.2,1,2.2,2.3c0,1.2,-1,2.2,-2.2,2.2Zm-5.7,-9.7l0,-6.7c0,0,0.2,-0.9,-0.6,-0.9c-0.7,0,-0.8,0,-0.8,0l0,7.6m-0.3,0l0,-8.3l-120.2,0l0,8.3m-1.5,0l0,-6.7c0,0,0,-0.8,0.8,-0.8c0.8,0,0.5,0,0.5,0l0,7.5M552,996.8l0,-1.6l-1.1,-1.1l-10.1,0l-1.1,1.2l0,1.5M552,995.2l-12.3,0m103.9,61.7c-0.8,2,-3.7,3.7,-6.8,3.7l-107.8,0c0,0,-4.5,0.2,-7,-3.7m120,0c-0.9,1.3,-3,2.4,-5.4,2.4l-107.6,0c0,0,-3,0.2,-5.4,-2.4m18.8,-62.8l0,-30.4m7.1,30.4l0,-30.4" class="g11_2" />
<path d="M536.3,964.2c1.9,-1.4,3.8,-1.2,5.4,-0.8c1.5,0.5,3.8,1.6,7.5,0c3.7,-1.5,6.3,0.1,6.3,0.1" class="g11_2" />
<path d="M509.5,956.5l145,0m-145,-2l0,4m145,-4l0,4m-131,107l121,0m-121,-1l0,3m121,-3l0,3m-141,-56l0,39m2,-39l-3,0m3,39l-3,0" class="g14_2" />
<path d="M660.5,1005.5l0,52m2,-52l-3,0m3,52l-3,0" class="g14_2" />
<path d="M654.5,962.5l0,40m-145,-40l0,40" class="g15_2" />
<path d="M709.5,1065.5l62,0m-62,-2l0,4m62,-4l0,4" class="g14_2" />
<path d="M709.6,1018.4l59.1,0c2.3,0,3.4,1.7,3.4,3.2l0,34.1c0,0.4,-0.4,0.8,-0.8,0.8l-61.7,0c-0.4,0,-0.7,-0.4,-0.7,-0.8l0,-36.6c0,-0.4,0.3,-0.7,0.7,-0.7Zm3.2,-2.7l51.7,0l0,2.7l-51.7,0l0,-2.7Zm59.3,26.8l2.3,0l1.1,1.2l0,12.4l-3.3,0l0,-1.7l-0.1,0m2.3,-11.9l0,13.6m1.1,-9.7l30.5,0m-30.5,7.1l30.5,0" class="g11_2" />
<path d="M805.5,1040.9c1.4,1.9,1.2,3.8,0.7,5.4c-0.4,1.6,-1.6,3.8,0,7.5c1.6,3.7,-0.1,6.3,-0.1,6.3" class="g11_2" />
</svg>