<?xml version="1.0" encoding="UTF-8" standalone="no"?>
<!DOCTYPE svg PUBLIC "-//W3C//DTD SVG 1.1//EN"
"http://www.w3.org/Graphics/SVG/1.1/DTD/svg11.dtd">
<svg version="1.1" xmlns="http://www.w3.org/2000/svg" xmlns:xlink="http://www.w3.org/1999/xlink">
<defs>
<clipPath id="c0_13"><path d="M227.5,376.5l0,-68l92,0l0,68Z" /></clipPath>
<clipPath id="c1_13"><path d="M222.5,481.5l0,-62l99,0l0,62Z" /></clipPath>
<style type="text/css"><![CDATA[
.g11_13{
fill: none;
stroke: #231F20;
stroke-width: 1;
stroke-linecap: butt;
stroke-linejoin: miter;
stroke-miterlimit: 4;
}
.g7_13{
fill: #DF4826;
}
.g8_13{
fill: #C12025;
}
.g10_13{
fill: #61903E;
}
.g4_13{
fill: #FFFFFF;
}
.g9_13{
fill: #267896;
}
.g12_13{
fill: none;
stroke: #231F20;
stroke-width: 4;
stroke-linecap: butt;
stroke-linejoin: miter;
stroke-miterlimit: 4;
}
.g15_13{
fill: none;
stroke: #040503;
stroke-width: 1;
stroke-linecap: round;
stroke-linejoin: round;
stroke-miterlimit: 2;
}
.g1_13{
fill: none;
stroke: #231F20;
stroke-width: 4;
stroke-linecap: butt;
stroke-linejoin: miter;
}
.g3_13{
fill: #F5F5F6;
}
.g14_13{
fill: none;
stroke: #BDBEC1;
stroke-width: 4;
stroke-linecap: butt;
stroke-linejoin: miter;
stroke-miterlimit: 4;
}
.g16_13{
fill: none;
stroke: #040503;
stroke-width: 1;
stroke-linecap: butt;
stroke-linejoin: miter;
stroke-miterlimit: 2;
}
.g13_13{
fill: none;
stroke: #808285;
stroke-width: 4;
stroke-linecap: butt;
stroke-linejoin: miter;
stroke-miterlimit: 4;
}
.g5_13{
fill: #505750;
}
.g6_13{
fill: #231F20;
}
.g2_13{
fill: none;
stroke: #231F20;
stroke-width: 1;
stroke-linecap: butt;
stroke-linejoin: miter;
}
]]></style>
</defs>
<path d="M110,191l245,0" class="g1_13" />
<path d="M354,191l175,0" class="g1_13" />
<path d="M530,191l69,0" class="g1_13" />
<path d="M600,191l69,0" class="g1_13" />
<path d="M669,191l70,0" class="g1_13" />
<path d="M739,191l70,0" class="g1_13" />
<path d="M810,191l69,0" class="g1_13" />
<path d="M110.5,518.5l245,0" class="g2_13" />
<path d="M354.5,518.5l175,0" class="g2_13" />
<path d="M530.5,518.5l69,0" class="g2_13" />
<path d="M600.5,518.5l69,0" class="g2_13" />
<path d="M669.5,518.5l70,0" class="g2_13" />
<path d="M739.5,518.5l70,0" class="g2_13" />
<path d="M810.5,518.5l69,0" class="g2_13" />
<path d="M110.5,300.5l245,0" class="g2_13" />
<path d="M354.5,300.5l175,0" class="g2_13" />
<path d="M530.5,300.5l69,0" class="g2_13" />
<path d="M600.5,300.5l69,0" class="g2_13" />
<path d="M669.5,300.5l70,0" class="g2_13" />
<path d="M739.5,300.5l70,0" class="g2_13" />
<path d="M810.5,300.5l69,0" class="g2_13" />
<path d="M110.5,409.5l245,0" class="g2_13" />
<path d="M354.5,409.5l175,0" class="g2_13" />
<path d="M530.5,409.5l69,0" class="g2_13" />
<path d="M600.5,409.5l69,0" class="g2_13" />
<path d="M669.5,409.5l70,0" class="g2_13" />
<path d="M739.5,409.5l70,0" class="g2_13" />
<path d="M810.5,409.5l69,0" class="g2_13" />
<path d="M110,768l210,0l0,339l-210,0l0,-339Z" class="g3_13" />
<path d="M110,768l210,0" class="g1_13" />
<path d="M354,768l105,0" class="g1_13" />
<path d="M460,768l280,0" class="g1_13" />
<path d="M739,768l140,0" class="g1_13" />
<path d="M130,900l35,0l0,-13l-35,0l0,13Z" class="g4_13" />
<path d="M130,915l35,0l0,-13l-35,0l0,13Z" class="g5_13" />
<path d="M130,929l35,0l0,-12l-35,0l0,12Z" class="g6_13" />
<path d="M130,944l35,0l0,-12l-35,0l0,12Z" class="g7_13" />
<path d="M130,959l35,0l0,-13l-35,0l0,13Z" class="g8_13" />
<path d="M130,974l35,0l0,-13l-35,0l0,13Z" class="g9_13" />
<path d="M130,989l35,0l0,-13l-35,0l0,13Z" class="g10_13" />
<path d="M130,819l35,0l0,-13l-35,0l0,13Z" class="g4_13" />
<path d="M130,834l35,0l0,-13l-35,0l0,13Z" class="g5_13" />
<path d="M130,849l35,0l0,-13l-35,0l0,13Z" class="g6_13" />
<path d="M355.5,806.5l84,0l0,-19l-84,0l0,19Z" class="g11_13" />
<path d="M460.5,806.5l260,0l0,-19l-260,0l0,19Z" class="g11_13" />
<path d="M740.5,806.5l139,0l0,-19l-139,0l0,19Z" class="g11_13" />
<path d="M454.2,797.1l-7.6,-3.8l0,7.7Z" class="g6_13" />
<path d="M734.7,797.1l-7.6,-3.8l0,7.7Z" class="g6_13" />
<path d="M739,1046l61,0" class="g12_13" />
<path d="M801,1046l16,0" class="g13_13" />
<path d="M818,1046l19,0" class="g14_13" />
<path d="M235.2,211.9l9.7,-4.1" class="g15_13" />
<path d="M245.3,207.8l48.3,15.4" class="g15_13" />
<path d="M235.5,212.5l46.2,14.8" class="g15_13" />
<path d="M283.8,227.4l9.8,-4.2" class="g15_13" />
<path d="M281.7,227.3c0,0,0.9,0.4,2.1,0.1" class="g15_13" />
<path d="M235.1,212.6l46.7,14.9" class="g15_13" />
<path d="M284,227.5l9.8,-4.2" class="g15_13" />
<path d="M281.8,227.5c0,0,1.1,0.3,2.2,0" class="g15_13" />
<path d="M284.1,237.2L294,233l0,-9.4" class="g15_13" />
<path d="M293.6,223.2c0,0,0.4,0,0.4,0.5" class="g15_13" />
<path d="M235.4,222.5l46.5,14.8" class="g15_13" />
<path d="M234.8,212.4l0,9.7" class="g15_13" />
<path d="M234.8,222.1c0,0,0.1,0.1,0.6,0.4" class="g15_13" />
<path d="M281.9,237.3c0,0,1.4,0.3,2.2,-0.1" class="g15_13" />
<path d="M238,217.7l0,1.6l0.7,0.3" class="g15_13" />
<path d="M238,217.7l0.8,0.2" class="g15_13" />
<path d="M238,217.7l0.3,0.1l0,1.3l-0.3,0.2" class="g15_13" />
<path d="M238.3,217.8l0.1,0.1l0,1.1l-0.1,0.1" class="g15_13" />
<path d="M238.3,219.1l0.5,0.2" class="g15_13" />
<path d="M238.4,219c0,0,0.5,0.3,0.6,0.2" class="g15_13" />
<path d="M238.4,219l0.8,-0.3" class="g15_13" />
<path d="M238.7,219.6c0,0,0.5,0.1,0.6,-0.5" class="g15_13" />
<path d="M238.8,219.3c0,0,0.3,0.1,0.4,-0.2" class="g15_13" />
<path d="M241.5,221.6L240,221.1l0,-0.9l0.2,0.1l0,0.6l1.3,0.4l0,-0.1l-1.1,-0.4l0.5,-0.3l-0.5,-0.1l0,0.4l-0.2,0.1l-0.2,0.2" class="g15_13" />
<path d="M240,220.2l1.5,0.5l0,0.8" class="g15_13" />
<path d="M241.6,218.7l-1.8,-0.6l0,-0.9l0.3,0.1l0,0.6l0.1,-0.1l0.6,-0.2l-0.6,-0.2l0,0.4l1.4,0.5l0,0.1l-1.5,-0.5l-0.3,0.2" class="g15_13" />
<path d="M239.9,217.2l1.7,0.6l0,0.8" class="g15_13" />
<path d="M283.5,228.5l0,8" class="g15_13" />
<path d="M277.5,229.5l0,3" class="g15_13" />
<path d="M276.4,229.1l0.6,0.1" class="g15_13" />
<path d="M276.4,232.5l0.6,0.1" class="g15_13" />
<path d="M276.5,232.4l0.5,0.1" class="g15_13" />
<path d="M277.3,232.2c0,0,-0.3,0.2,-0.3,0.4" class="g15_13" />
<path d="M277,229.2c0,0,0,0.4,0.3,0.6" class="g15_13" />
<path d="M276.5,229.2c0,-0.1,0,3.2,0,3.2l0.8,-0.4" class="g15_13" />
<path d="M276.4,229.1l0,3.4" class="g15_13" />
<path d="M277.3,232.2l0.4,-0.1" class="g15_13" />
<path d="M277,232.6l0.4,0" class="g15_13" />
<path d="M277.4,232.6c0,0,-0.1,-0.3,0.3,-0.5" class="g15_13" />
<path d="M277.7,232.1l0,-2.5" class="g15_13" />
<path d="M276.6,228.7l0.8,0.2" class="g15_13" />
<path d="M277.4,228.9c0,0,0,0.4,0.3,0.7" class="g15_13" />
<path d="M276.4,229.1l0.5,-0.3" class="g15_13" />
<path d="M276.5,229l0,-0.3" class="g15_13" />
<path d="M277,229.2l0.4,-0.2" class="g15_13" />
<path d="M277.3,229.8l0.4,-0.2" class="g15_13" />
<path d="M277.6,230l-0.1,0.1l0,0.1l0.1,0l0,0.3l-0.1,0l0,0.1l0.2,0" class="g15_13" />
<path d="M277.6,231.2l-0.1,0.1l0,0.1l0.1,0l0,0.3l-0.1,0l0,0.1l0.2,0" class="g15_13" />
<path d="M277.1,229.6l0,2.3l0.1,0" class="g15_13" />
<path d="M277.1,229.7l-0.5,0.2" class="g15_13" />
<path d="M277.1,230.2l-0.5,0.1" class="g15_13" />
<path d="M277.1,230.9l-0.5,0.2" class="g15_13" />
<path d="M277.1,231.3l-0.5,0.2" class="g15_13" />
<path d="M278,235.3l-0.1,0l-2,-0.7c-0.2,0,-0.4,-0.4,-0.4,-0.5l0,-7.4c0,-0.3,0.2,-0.4,0.4,-0.3" class="g15_13" />
<path d="M278,235.3c0.2,0,0.4,-0.2,0.4,-0.3l0,-7.3c0,-0.2,-0.1,-0.5,-0.4,-0.6l-2.1,-0.7c-0.2,-0.1,-0.3,0,-0.3,0" class="g15_13" />
<path d="M278.2,235.2c0,0.1,-0.1,0.1,-0.1,0.1l-2.2,-0.7c-0.2,-0.1,-0.3,-0.4,-0.3,-0.6l0,-7.3c0,-0.2,0,-0.3,0.1,-0.3" class="g15_13" />
<path d="M234.9,212.3c0,0,0,0.2,0.2,0.3" class="g15_13" />
<path d="M234.8,212.4c0,0,0,-0.4,0.4,-0.5" class="g15_13" />
<path d="M235.5,211.8l9.7,-4" class="g15_13" />
<path d="M235.5,211.8c0,0,-0.7,0.3,0,0.7" class="g15_13" />
<path d="M244.9,207.8c0,0,0.2,-0.1,0.4,0" class="g15_13" />
<path d="M282.5,228.5l0,8" class="g15_13" />
<path d="M294,232.9c2.6,-0.6,5.6,-0.8,8.9,-0.8c9.6,0,16.9,2.8,16.7,7" class="g15_13" />
<path d="M319.4,239.9c-0.8,3.5,-7.9,6.3,-16.6,6.3c-6.1,0,-11.3,-1.4,-14.2,-3.5c-0.9,-0.7,-1.2,-1.4,-1.3,-2.2" class="g15_13" />
<path d="M319.6,239.1c0,0.3,-0.1,0.5,-0.1,0.8" class="g15_13" />
<path d="M319.5,241.5c-0.9,3.5,-8,6.3,-16.6,6.3c-6.1,0,-11.4,-1.4,-14.2,-3.5c-0.9,-0.7,-1.3,-1.4,-1.5,-2.2" class="g15_13" />
<path d="M319.5,243.1c-0.9,3.5,-8.1,6.3,-16.7,6.3c-6.1,0,-11.4,-1.5,-14.2,-3.5c-0.9,-0.7,-1.2,-1.4,-1.3,-2.1" class="g15_13" />
<path d="M319.5,244.7c-0.9,3.6,-8,6.3,-16.6,6.3c-6.1,0,-11.3,-1.4,-14.2,-3.5c-1.5,-1.1,-1.7,-2.5,-1.4,-3.6" class="g15_13" />
<path d="M289.1,239.8c0,-2.3,6.4,-4.4,13.9,-4.3c7.5,0.2,13.9,2.5,14.4,4.4" class="g15_13" />
<path d="M317.7,239.1c0,2.3,-7,5,-14.7,5c-7.7,0,-13.9,-2,-13.9,-4.3" class="g15_13" />
<path d="M289.3,240.6c1.4,-1.9,7.1,-3.6,13.6,-3.4c6.3,0.1,11.9,1.8,13.8,3.4" class="g15_13" />
<path d="M290.3,241.5c2.1,-1.6,7.1,-2.8,12.8,-2.7c5.2,0.1,9.9,1.3,12.5,2.6" class="g15_13" />
<path d="M291.7,242.3c2.5,-1.2,6.7,-2,11.4,-1.9c4.2,0.1,8,0.8,10.7,1.8" class="g15_13" />
<path d="M292.3,235.5c2.6,-1,6.4,-1.6,10.7,-1.6c7.5,0.2,14,2.5,14.5,4.4" class="g15_13" />
<path d="M317.5,238.3c0,0,0.1,0.3,0.2,0.8" class="g15_13" />
<path d="M292.3,235.5l-3.4,1.3" class="g15_13" />
<path d="M288.9,236.8c0,0,-2.2,1.3,-1.6,3.7" class="g15_13" />
<path d="M287.3,240.6c0,0,-0.3,0.5,-0.1,1.5" class="g15_13" />
<path d="M287.3,242.3c0,0,-0.3,0.5,-0.1,1.5" class="g15_13" />
<path d="M319.4,239.9c0,0,0.3,0.4,0.1,1.6" class="g15_13" />
<path d="M319.4,241.5c0,0,0.3,0.4,0.1,1.6" class="g15_13" />
<path d="M319.5,243.2c0,0,0.2,0.3,0,1.6" class="g15_13" />
<path d="M319.5,244.8c0,0,0.9,2.6,-2.8,4.8" class="g15_13" />
<path d="M316.7,249.6l-1.2,0.6l-17.2,7.6" class="g15_13" />
<path d="M311.1,250.1L297.6,256" class="g15_13" />
<path d="M239.2,219.1c0.1,-0.9,-0.4,-1.2,-0.4,-1.2L238,217.7" class="g15_13" />
<path d="M239,219.5c0.1,0,0.2,-0.2,0.2,-0.4" class="g15_13" />
<path d="M243.3,219.4l0,1.7l0.7,0.2" class="g15_13" />
<path d="M243.3,219.4l0.8,0.2" class="g15_13" />
<path d="M243.3,219.4l0.3,0.2l0,1.3l-0.3,0.2" class="g15_13" />
<path d="M243.6,219.6l0.2,0l0,1.2l-0.2,0.1" class="g15_13" />
<path d="M243.6,220.9l0.6,0.2" class="g15_13" />
<path d="M243.8,220.8c0,0,0.5,0.2,0.5,0.2" class="g15_13" />
<path d="M243.8,220.8l0.8,-0.3" class="g15_13" />
<path d="M244,221.3c0,0,0.5,0.1,0.6,-0.5" class="g15_13" />
<path d="M244.2,221.1c0,0,0.2,0,0.4,-0.3" class="g15_13" />
<path d="M246.8,223.3l-1.5,-0.5l0,-0.9l0.2,0.2l0,0.5l1.4,0.5l0,-0.2l-1.2,-0.3l0.6,-0.3l-0.6,-0.2l0,0.5l-0.2,0l-0.2,0.2" class="g15_13" />
<path d="M245.3,221.9l1.6,0.5l0,0.9" class="g15_13" />
<path d="M246.9,220.4l-1.7,-0.6l0,-0.9l0.2,0.2l0,0.5l0.2,0l0.6,-0.3l-0.6,-0.2l0,0.5L247,220l0,0.2l-1.6,-0.6l-0.2,0.2" class="g15_13" />
<path d="M245.2,218.9l1.8,0.6l0,0.9" class="g15_13" />
<path d="M244.6,220.8c0.1,-0.9,-0.5,-1.1,-0.5,-1.1l-0.8,-0.3" class="g15_13" />
<path d="M244.3,221.3c0.2,-0.1,0.3,-0.2,0.3,-0.5" class="g15_13" />
<path d="M271.5,227.5l0,3" class="g15_13" />
<path d="M270.4,227.1l0.6,0.2" class="g15_13" />
<path d="M270.4,230.5l0.6,0.2" class="g15_13" />
<path d="M270.5,230.5l0.6,0.1" class="g15_13" />
<path d="M271.4,230.3c0,0,-0.3,0.2,-0.4,0.4" class="g15_13" />
<path d="M271,227.3c0,0,0.1,0.3,0.4,0.6" class="g15_13" />
<path d="M270.5,227.3c0,-0.1,0,3.2,0,3.2l0.9,-0.4" class="g15_13" />
<path d="M270.4,227.1l0,3.4" class="g15_13" />
<path d="M271.4,230.3l0.3,-0.1" class="g15_13" />
<path d="M271,230.7l0.4,0" class="g15_13" />
<path d="M271.4,230.7c0,0,0,-0.3,0.3,-0.5" class="g15_13" />
<path d="M271.7,230.2l0,-2.5" class="g15_13" />
<path d="M270.6,226.8l0.8,0.2" class="g15_13" />
<path d="M271.4,227c0,0,0,0.3,0.3,0.7" class="g15_13" />
<path d="M270.4,227.1l0.6,-0.2" class="g15_13" />
<path d="M270.6,227.1l0,-0.3" class="g15_13" />
<path d="M271,227.3l0.5,-0.2" class="g15_13" />
<path d="M271.3,227.9l0.4,-0.2" class="g15_13" />
<path d="M271.7,228.1l-0.2,0.1l0,0.1l0.1,0l0,0.3l-0.1,0l0,0.1l0.2,0" class="g15_13" />
<path d="M271.7,229.3l-0.1,0.1l-0.1,0.1l0.1,0l0,0.3l0,0.1l0.1,0" class="g15_13" />
<path d="M271.1,227.7l0,2.3l0.2,0" class="g15_13" />
<path d="M271.1,227.8l-0.4,0.2" class="g15_13" />
<path d="M271.1,228.2l-0.5,0.2" class="g15_13" />
<path d="M271.1,229l-0.5,0.1" class="g15_13" />
<path d="M271.1,229.4l-0.5,0.2" class="g15_13" />
<path d="M272.1,233.4c-0.1,0,-0.1,0,-0.1,0l-2.1,-0.7c-0.2,0,-0.4,-0.4,-0.4,-0.5l0,-7.4c0,-0.3,0.2,-0.4,0.4,-0.3" class="g15_13" />
<path d="M272.1,233.4c0.1,0,0.3,-0.2,0.3,-0.3l0,-7.3c0,-0.2,-0.1,-0.5,-0.3,-0.6l-2.2,-0.7c-0.1,-0.1,-0.2,0,-0.2,0" class="g15_13" />
<path d="M272.3,233.3c-0.1,0.1,-0.2,0.1,-0.2,0.1L270,232.6c-0.2,0,-0.4,-0.3,-0.4,-0.5l0,-7.3c0,-0.2,0.1,-0.3,0.2,-0.3" class="g15_13" />
<path d="M285.6,236.7c1.6,0.2,3.1,0.2,4.6,-0.4" class="g15_13" />
<path d="M257.5,248.9l-0.1,-8.7" class="g15_13" />
<path d="M258.5,250.5l0,5" class="g15_13" />
<path d="M258.9,240.1l0,8.8" class="g15_13" />
<path d="M257.4,240.2c0,-0.2,0.4,-0.4,0.8,-0.4c0.4,0,0.7,0.2,0.7,0.3" class="g15_13" />
<path d="M258.9,255.5c0,0.1,-0.3,0.2,-0.7,0.2c-0.4,0,-0.8,0,-0.8,-0.2" class="g15_13" />
<path d="M258.9,240.2c0,0.1,-0.3,0.3,-0.7,0.3c-0.4,0,-0.8,-0.2,-0.8,-0.3" class="g15_13" />
<path d="M258.9,240.6c0,0.1,-0.3,0.2,-0.7,0.2c-0.4,0,-0.8,-0.1,-0.8,-0.2" class="g15_13" />
<path d="M258.9,241c0,0.1,-0.3,0.2,-0.7,0.2c-0.4,0,-0.8,-0.1,-0.8,-0.2" class="g15_13" />
<path d="M258.9,241.3c0,0.2,-0.3,0.3,-0.7,0.3c-0.4,0,-0.8,-0.1,-0.8,-0.3" class="g15_13" />
<path d="M258.9,241.7c0,0.2,-0.3,0.3,-0.7,0.3c-0.4,0,-0.8,-0.1,-0.8,-0.3" class="g15_13" />
<path d="M258.9,242.1c0,0.2,-0.3,0.3,-0.7,0.3c-0.4,0,-0.8,-0.1,-0.8,-0.3" class="g15_13" />
<path d="M258.9,242.5c0,0.2,-0.3,0.3,-0.7,0.3c-0.4,0,-0.8,-0.1,-0.8,-0.3" class="g15_13" />
<path d="M258.9,242.9c0,0.2,-0.3,0.3,-0.7,0.3c-0.4,0,-0.8,-0.1,-0.8,-0.3" class="g15_13" />
<path d="M258.9,243.3c0,0.2,-0.3,0.3,-0.7,0.3c-0.4,0,-0.8,-0.1,-0.8,-0.3" class="g15_13" />
<path d="M258.9,243.7c0,0.2,-0.3,0.3,-0.7,0.3c-0.4,0,-0.8,-0.1,-0.8,-0.3" class="g15_13" />
<path d="M258.9,243.3c0,0.2,-0.3,0.3,-0.7,0.3c-0.4,0,-0.8,-0.1,-0.8,-0.3" class="g15_13" />
<path d="M258.9,243.7c0,0.2,-0.3,0.3,-0.7,0.3c-0.4,0,-0.8,-0.1,-0.8,-0.3" class="g15_13" />
<path d="M258.9,244.1c0,0.2,-0.3,0.3,-0.7,0.3c-0.4,0,-0.8,-0.1,-0.8,-0.3" class="g15_13" />
<path d="M258.9,255.1c0,0.2,-0.3,0.3,-0.7,0.3c-0.5,0,-0.8,-0.1,-0.8,-0.3" class="g15_13" />
<path d="M260.1,255.4l0,0.1c0,0.4,-0.8,0.7,-1.9,0.7c-1.2,0,-2,-0.3,-2,-0.7" class="g15_13" />
<path d="M256.2,255.5c0,-0.4,0.5,-0.6,1.2,-0.7" class="g15_13" />
<path d="M260.1,255.6c0.5,0.2,0.8,0.4,0.8,0.7c0,0.6,-1.2,1.1,-2.7,1.1c-1.6,0,-2.8,-0.5,-2.8,-1.1c0,-0.3,0.3,-0.5,0.8,-0.7" class="g15_13" />
<path d="M261.1,257.7c0,0.6,-1.3,1.1,-3,1.1c-1.6,0,-2.9,-0.5,-2.9,-1.1" class="g15_13" />
<path d="M260.2,256.3l0,0.1c0,0.4,-0.9,0.7,-2,0.7c-1.1,0,-2,-0.3,-2,-0.7" class="g15_13" />
<path d="M256.2,255.5l0,0.9" class="g15_13" />
<path d="M260.1,255.4l0.1,0.9" class="g15_13" />
<path d="M255.2,257.7l0,-1.4" class="g15_13" />
<path d="M255.2,256.3c0.1,-0.3,0.3,-0.6,1,-0.8" class="g15_13" />
<path d="M261.1,256.2l0,1.5" class="g15_13" />
<path d="M260.1,255.5c0,0,0.9,0.2,1,0.7" class="g15_13" />
<path d="M255.5,256.5l0,2" class="g15_13" />
<path d="M261.1,256.3c0,0.6,-1.5,1.1,-3,1.1c-1.6,0,-2.9,-0.5,-2.9,-1.1" class="g15_13" />
<path d="M258.2,257.4l0,1.4" class="g15_13" />
<path d="M260.9,256.7l0,1.4" class="g15_13" />
<path d="M261,256.6l0,1.4" class="g15_13" />
<path d="M258.8,233.3l0,0.8" class="g15_13" />
<path d="M259.1,234.4l11,3.5" class="g15_13" />
<path d="M271.4,237.9l3.8,-1.6" class="g15_13" />
<path d="M259,233.1l3.4,-1.4c0.3,-0.1,0.4,-0.3,0.5,-0.4" class="g15_13" />
<path d="M259,233.1c0,0,-0.2,0.1,-0.2,0.2" class="g15_13" />
<path d="M258.8,234.1c0,0,0,0.1,0.3,0.2" class="g15_13" />
<path d="M270.1,237.9c0,0,0.7,0.1,1.3,0" class="g15_13" />
<path d="M275.1,236.3c0.3,-0.1,0.6,-0.4,0.9,-0.9" class="g15_13" />
<path d="M271.6,237.1l3.3,-1.4c0.3,-0.1,0.5,-0.3,0.6,-0.4" class="g15_13" />
<path d="M270.2,237.2l-11.1,-3.5" class="g15_13" />
<path d="M258.8,233.5c0,0,0.1,0.1,0.3,0.2" class="g15_13" />
<path d="M271.6,237.1c0,0,-0.4,0.3,-1.4,0.1" class="g15_13" />
<path d="M259.5,234.4l0,12.4c0,0.1,0.1,0.2,0.1,0.2" class="g15_13" />
<path d="M259,233.8l0,0.3" class="g15_13" />
<path d="M270.4,237.4l0,0.3" class="g15_13" />
<path d="M271.1,237.4l0,0.3" class="g15_13" />
<path d="M256.5,257.2l0,1.4" class="g15_13" />
<path d="M255.6,256.9l0,1.4" class="g15_13" />
<path d="M256,257l0,1.4" class="g15_13" />
<path d="M256.9,257.3l0,1.4" class="g15_13" />
<path d="M257.3,257.4l0,1.4" class="g15_13" />
<path d="M257.7,257.4l0,1.4" class="g15_13" />
<path d="M261.5,256.5l0,2" class="g15_13" />
<path d="M259.9,257.2l0,1.4" class="g15_13" />
<path d="M260.7,256.9l0,1.4" class="g15_13" />
<path d="M260.3,257l0,1.4" class="g15_13" />
<path d="M259.4,257.3l0,1.4" class="g15_13" />
<path d="M259,257.4l0,1.4" class="g15_13" />
<path d="M258.6,257.4l0,1.4" class="g15_13" />
<path d="M263.7,235.8c0.7,0.7,1.9,0.7,2.4,0.8" class="g15_13" />
<path d="M259.5,232.5l0,-2" class="g15_13" />
<path d="M263.6,235.8l0,1.7" class="g15_13" />
<path d="M264.8,239.2l11,3.6" class="g15_13" />
<path d="M264.3,239.4l10.7,3.5c0.4,0.1,0.6,0,0.8,-0.1" class="g15_13" />
<path d="M264.3,239.4c-0.7,-0.2,-1.1,-1.2,-1.1,-1.7c0,-0.5,0,-2,0,-2" class="g15_13" />
<path d="M263.6,237.5c0,0.4,0.4,1.5,1.2,1.7" class="g15_13" />
<path d="M256.1,248.5l1.3,-0.6m1.5,-0.6l0.7,-0.3" class="g15_13" />
<path d="M276.5,255.1l3.9,-1.6" class="g15_13" />
<path d="M276.5,255.8l3.8,-1.6" class="g15_13" />
<path d="M255.9,248.8l0,0.8" class="g15_13" />
<path d="M256.2,249.9l18.3,5.9" class="g15_13" />
<path d="M256.3,249.2l18.1,5.9" class="g15_13" />
<path d="M256.1,248.5c0,0,-0.2,0.1,-0.2,0.3" class="g15_13" />
<path d="M255.9,249.6c0,0.1,0.1,0.2,0.3,0.3" class="g15_13" />
<path d="M255.9,248.8c0,0.1,0,0.3,0.4,0.4" class="g15_13" />
<path d="M274.4,255.1c0.7,0.3,1.7,0.2,2.1,0" class="g15_13" />
<path d="M262,247.9l-0.6,0.3" class="g15_13" />
<path d="M259.6,247l2.4,0.9" class="g15_13" />
<path d="M262.2,248.5l0,-0.4c0,0,0,-0.2,-0.2,-0.2" class="g15_13" />
<path d="M280.3,253.4c-0.1,0.1,0.1,0,-0.3,0.2" class="g15_13" />
<path d="M280.9,251.6l-0.4,0.2l0,0.1l0,1.4c0,0,0,0.1,-0.1,0.2" class="g15_13" />
<path d="M280.6,251.9l0.3,-0.1" class="g15_13" />
<path d="M281,253.1l0,-1.3" class="g15_13" />
<path d="M280.5,251.5l0.4,0.1" class="g15_13" />
<path d="M280.9,251.6c0,0,0.1,0.1,0.1,0.2" class="g15_13" />
<path d="M281,253.1c0,0,0,0.8,-0.7,1.1" class="g15_13" />
<path d="M261.4,248.3l3.1,1l0.2,-0.1l0.2,-0.1l8.8,2.9c0.1,0,0.4,0.2,0.4,0.4" class="g15_13" />
<path d="M277.5,252.9l-0.6,0.3c-0.1,0,-0.3,0,-0.9,-0.3" class="g15_13" />
<path d="M277.5,252.9l2.2,0.7c0.1,0,0.2,0,0.3,0" class="g15_13" />
<path d="M275.3,255.5l0,0.3" class="g15_13" />
<path d="M276.2,255.5l0,0.3" class="g15_13" />
<path d="M256,249.1l0,0.5" class="g15_13" />
<path d="M279.6,254.5l0.3,0.1" class="g15_13" />
<path d="M280,254.3l0.4,0.1" class="g15_13" />
<path d="M280,254.9l0,1.2" class="g15_13" />
<path d="M280.5,254.6l0,1.3" class="g15_13" />
<path d="M276.5,255.8l2.7,0.9" class="g15_13" />
<path d="M265.2,253.4l8.8,2.9" class="g15_13" />
<path d="M280.5,255.9c0,0,-0.1,0.4,-0.4,0.6c-0.2,0.1,-0.4,0.1,-0.4,0.1" class="g15_13" />
<path d="M279.2,256.7c0,0,0.4,0.1,0.5,-0.1" class="g15_13" />
<path d="M280,256.1c0,0,0,0.3,-0.3,0.5" class="g15_13" />
<path d="M279.9,254.6c0,0,0.1,0.1,0.1,0.3" class="g15_13" />
<path d="M280.4,254.4c0,0,0.1,0.1,0.1,0.2" class="g15_13" />
<path d="M280.1,254.8l0.3,-0.1" class="g15_13" />
<path d="M280,254.6l0.2,-0.1" class="g15_13" />
<path d="M280.1,256.1l0.2,-0.1" class="g15_13" />
<path d="M263.5,238.6l0.3,-0.1" class="g15_13" />
<path d="M263.6,238.8l0.3,-0.2" class="g15_13" />
<path d="M264.8,252.7c0,0,-0.1,0.5,0.4,0.7" class="g15_13" />
<path d="M274,256.3c0.2,0.1,0.4,0,0.5,-0.1" class="g15_13" />
<path d="M274,256.3c-0.1,-0.1,-0.3,-0.4,-0.3,-0.7" class="g15_13" />
<path d="M274.4,255.8c0.7,0.2,1.7,0.2,2.1,0" class="g15_13" />
<path d="M274.5,252.5l-1,-0.3" class="g15_13" />
<path d="M273.5,252.2c0.1,-0.1,0.3,-0.1,0.4,-0.1" class="g15_13" />
<path d="M260.1,255.5c0,-0.4,-0.5,-0.6,-1.2,-0.7" class="g15_13" />
<path d="M257.5,250.5l0,5" class="g15_13" />
<path d="M258.9,254.7c0,0.2,-0.3,0.3,-0.7,0.3c-0.4,0,-0.8,-0.1,-0.8,-0.3" class="g15_13" />
<path d="M258.9,254.3c0,0.2,-0.3,0.3,-0.7,0.3c-0.5,0,-0.8,-0.1,-0.8,-0.3" class="g15_13" />
<path d="M258.9,253.9c0,0.2,-0.3,0.3,-0.7,0.3c-0.4,0,-0.8,-0.1,-0.8,-0.3" class="g15_13" />
<path d="M258.9,253.5c0,0.2,-0.3,0.3,-0.7,0.3c-0.5,0,-0.8,-0.1,-0.8,-0.3" class="g15_13" />
<path d="M258.9,253.1c0,0.2,-0.3,0.3,-0.7,0.3c-0.4,0,-0.8,-0.1,-0.8,-0.2" class="g15_13" />
<path d="M258.9,252.8c0,0.1,-0.3,0.3,-0.7,0.3c-0.5,0,-0.8,-0.2,-0.8,-0.3" class="g15_13" />
<path d="M258.9,252.4c0,0.1,-0.3,0.3,-0.7,0.3c-0.4,0,-0.8,-0.1,-0.8,-0.3" class="g15_13" />
<path d="M258.9,252c0,0.2,-0.3,0.3,-0.7,0.3c-0.5,0,-0.8,-0.1,-0.8,-0.3" class="g15_13" />
<path d="M258.9,251.6c0,0.2,-0.3,0.3,-0.7,0.3c-0.4,0,-0.8,-0.1,-0.8,-0.3" class="g15_13" />
<path d="M258.9,251.2c0,0.2,-0.3,0.3,-0.7,0.3c-0.5,0,-0.8,-0.1,-0.8,-0.3" class="g15_13" />
<path d="M258.9,250.8c0,0.2,-0.3,0.3,-0.7,0.3c-0.4,0,-0.8,-0.1,-0.8,-0.2" class="g15_13" />
<path d="M258.6,250.7c-0.1,0,-0.3,0,-0.4,0c-0.5,0,-0.8,-0.1,-0.8,-0.2" class="g15_13" />
<path d="M258.9,248.9c0,0.1,-0.3,0.3,-0.7,0.3c-0.5,0,-0.8,-0.2,-0.8,-0.3" class="g15_13" />
<path d="M258.9,244.5c0,0.2,-0.3,0.3,-0.7,0.3c-0.4,0,-0.8,-0.1,-0.8,-0.3" class="g15_13" />
<path d="M258.9,244.9c0,0.2,-0.3,0.3,-0.7,0.3c-0.4,0,-0.8,-0.1,-0.8,-0.3" class="g15_13" />
<path d="M258.9,245.3c0,0.2,-0.3,0.3,-0.7,0.3c-0.4,0,-0.8,-0.1,-0.8,-0.3" class="g15_13" />
<path d="M258.9,245.7c0,0.1,-0.3,0.3,-0.7,0.3c-0.4,0,-0.8,-0.2,-0.8,-0.3" class="g15_13" />
<path d="M258.9,246.1c0,0.1,-0.3,0.3,-0.7,0.3c-0.4,0,-0.8,-0.2,-0.8,-0.3" class="g15_13" />
<path d="M258.9,246.5c0,0.1,-0.3,0.3,-0.7,0.3c-0.4,0,-0.8,-0.2,-0.8,-0.3" class="g15_13" />
<path d="M258.9,246.9c0,0.1,-0.3,0.2,-0.7,0.2c-0.4,0,-0.8,-0.1,-0.8,-0.2" class="g15_13" />
<path d="M258.9,247.3c0,0.1,-0.3,0.3,-0.7,0.3c-0.4,0,-0.8,-0.2,-0.8,-0.3" class="g15_13" />
<path d="M258.9,247.7c0,0.1,-0.3,0.3,-0.7,0.3c-0.4,0,-0.8,-0.2,-0.8,-0.3" class="g15_13" />
<path d="M258.9,248.1c0,0.1,-0.3,0.2,-0.7,0.2c-0.4,0,-0.8,-0.1,-0.8,-0.2" class="g15_13" />
<path d="M258.9,247.7c0,0.1,-0.3,0.2,-0.7,0.2c-0.4,0,-0.8,-0.1,-0.8,-0.2" class="g15_13" />
<path d="M258.9,248.1c0,0.1,-0.3,0.2,-0.7,0.2c-0.4,0,-0.8,-0.1,-0.8,-0.2" class="g15_13" />
<path d="M258.9,248.4c0,0.2,-0.3,0.3,-0.7,0.3c-0.4,0,-0.8,-0.1,-0.8,-0.3" class="g15_13" />
<path d="M258.9,248.8c0,0.2,-0.3,0.3,-0.7,0.3c-0.4,0,-0.8,-0.1,-0.8,-0.3" class="g15_13" />
<path d="M275.8,242.8c0.5,-0.4,0.5,-0.7,0.5,-1.1l0,-6.2" class="g15_13" />
<path d="M274.5,254.4l0,-8.7" class="g15_13" />
<path d="M275.5,255.5l0,5" class="g15_13" />
<path d="M276,245.6l0,8.8" class="g15_13" />
<path d="M274.5,245.7c0,-0.2,0.3,-0.3,0.7,-0.3c0.4,0,0.8,0.1,0.8,0.2" class="g15_13" />
<path d="M276,261c0,0.1,-0.4,0.3,-0.8,0.3c-0.4,0,-0.7,-0.1,-0.7,-0.3" class="g15_13" />
<path d="M276,245.7c0,0.2,-0.4,0.3,-0.8,0.3c-0.4,0,-0.7,-0.1,-0.7,-0.3" class="g15_13" />
<path d="M276,246.1c0,0.1,-0.4,0.3,-0.8,0.3c-0.4,0,-0.7,-0.2,-0.7,-0.3" class="g15_13" />
<path d="M276,246.5c0,0.1,-0.4,0.3,-0.8,0.3c-0.4,0,-0.7,-0.2,-0.7,-0.3" class="g15_13" />
<path d="M276,246.9c0,0.1,-0.4,0.2,-0.8,0.2c-0.4,0,-0.7,-0.1,-0.7,-0.2" class="g15_13" />
<path d="M276,247.3c0,0.1,-0.4,0.2,-0.8,0.2c-0.4,0,-0.7,-0.1,-0.7,-0.2" class="g15_13" />
<path d="M276,247.7c0,0.1,-0.4,0.2,-0.8,0.2c-0.4,0,-0.7,-0.1,-0.7,-0.2" class="g15_13" />
<path d="M276,248c0,0.2,-0.4,0.3,-0.8,0.3c-0.4,0,-0.7,-0.1,-0.7,-0.3" class="g15_13" />
<path d="M276,248.5c0,0.1,-0.4,0.2,-0.8,0.2c-0.4,0,-0.7,-0.1,-0.7,-0.2" class="g15_13" />
<path d="M276,248.9c0,0.1,-0.4,0.2,-0.8,0.2c-0.4,0,-0.7,-0.1,-0.7,-0.2" class="g15_13" />
<path d="M276,249.2c0,0.2,-0.4,0.3,-0.8,0.3c-0.4,0,-0.7,-0.1,-0.7,-0.3" class="g15_13" />
<path d="M276,248.8c0,0.2,-0.4,0.3,-0.8,0.3c-0.4,0,-0.7,-0.1,-0.7,-0.3" class="g15_13" />
<path d="M276,249.2c0,0.2,-0.4,0.3,-0.8,0.3c-0.4,0,-0.7,-0.1,-0.7,-0.3" class="g15_13" />
<path d="M276,249.6c0,0.2,-0.4,0.3,-0.8,0.3c-0.4,0,-0.7,-0.1,-0.7,-0.3" class="g15_13" />
<path d="M276,260.6c0,0.2,-0.4,0.3,-0.8,0.3c-0.4,0,-0.7,-0.1,-0.7,-0.3" class="g15_13" />
<path d="M277.2,260.9c0,0.1,0,0.1,0,0.1c0,0.4,-0.9,0.7,-2,0.7c-1.1,0,-2,-0.3,-2,-0.7" class="g15_13" />
<path d="M273.3,261c0,-0.3,0.5,-0.6,1.2,-0.7" class="g15_13" />
<path d="M277.2,261.1c0.5,0.2,0.8,0.4,0.8,0.7c0,0.6,-1.2,1.1,-2.8,1.1c-1.5,0,-2.7,-0.5,-2.7,-1.1c0,-0.3,0.3,-0.5,0.7,-0.7" class="g15_13" />
<path d="M278.2,263.2c0,0.7,-1.3,1.2,-3,1.2c-1.6,0,-2.9,-0.5,-2.9,-1.2" class="g15_13" />
<path d="M277.2,261.8c0,0.1,0,0.1,0,0.1c0,0.4,-0.9,0.7,-2,0.7c-1.1,0,-2,-0.3,-2,-0.7" class="g15_13" />
<path d="M273.3,261l-0.1,0.9" class="g15_13" />
<path d="M277.2,260.9l0,0.9" class="g15_13" />
<path d="M272.3,263.2l0,-1.4" class="g15_13" />
<path d="M272.3,261.8c0,-0.3,0.3,-0.6,1,-0.7" class="g15_13" />
<path d="M278.2,261.8l0,1.4" class="g15_13" />
<path d="M277.2,261.1c0,0,0.9,0.1,1,0.7" class="g15_13" />
<path d="M272.5,262.5l0,1" class="g15_13" />
<path d="M278.2,261.8c0,0.6,-1.5,1.2,-3.1,1.2c-1.5,0,-2.8,-0.6,-2.8,-1.2" class="g15_13" />
<path d="M275.2,263l0.1,1.3" class="g15_13" />
<path d="M278,262.2l0,1.4" class="g15_13" />
<path d="M278.1,262.1l0,1.4" class="g15_13" />
<path d="M273.5,262.7l0,1.4" class="g15_13" />
<path d="M272.7,262.4l0,1.4" class="g15_13" />
<path d="M273.1,262.5l0,1.4" class="g15_13" />
<path d="M274,262.8l0,1.4" class="g15_13" />
<path d="M274.4,262.9l0,1.4" class="g15_13" />
<path d="M274.8,262.9l0,1.4" class="g15_13" />
<path d="M278.5,262.5l0,1" class="g15_13" />
<path d="M276.9,262.7l0,1.4" class="g15_13" />
<path d="M277.8,262.4l0,1.4" class="g15_13" />
<path d="M277.4,262.5l0,1.4" class="g15_13" />
<path d="M276.5,262.8l0,1.4" class="g15_13" />
<path d="M276.1,262.9l0,1.4" class="g15_13" />
<path d="M275.7,262.9l0,1.4" class="g15_13" />
<path d="M277.2,261c0,-0.3,-0.5,-0.6,-1.2,-0.7" class="g15_13" />
<path d="M274.5,255.5l0,1l0,4" class="g15_13" />
<path d="M276,260.2c0,0.2,-0.4,0.3,-0.8,0.3c-0.4,0,-0.7,-0.1,-0.7,-0.2" class="g15_13" />
<path d="M276,259.9c0,0.1,-0.4,0.2,-0.8,0.2c-0.4,0,-0.7,-0.1,-0.7,-0.2" class="g15_13" />
<path d="M276,259.4c0,0.2,-0.4,0.3,-0.8,0.3c-0.4,0,-0.7,-0.1,-0.7,-0.2" class="g15_13" />
<path d="M276,259.1c0,0.1,-0.4,0.2,-0.8,0.2c-0.4,0,-0.7,-0.1,-0.7,-0.2" class="g15_13" />
<path d="M276,258.7c0,0.1,-0.4,0.3,-0.8,0.3c-0.4,0,-0.7,-0.1,-0.7,-0.3" class="g15_13" />
<path d="M276,258.3c0,0.2,-0.4,0.3,-0.8,0.3c-0.4,0,-0.7,-0.1,-0.7,-0.3" class="g15_13" />
<path d="M276,257.9c0,0.2,-0.4,0.3,-0.8,0.3c-0.4,0,-0.7,-0.1,-0.7,-0.3" class="g15_13" />
<path d="M276,257.5c0,0.2,-0.4,0.3,-0.8,0.3c-0.4,0,-0.7,-0.1,-0.7,-0.3" class="g15_13" />
<path d="M276,257.1c0,0.2,-0.4,0.3,-0.8,0.3c-0.4,0,-0.7,-0.1,-0.7,-0.2" class="g15_13" />
<path d="M276,256.8c0,0.1,-0.4,0.2,-0.8,0.2c-0.4,0,-0.7,-0.1,-0.7,-0.2" class="g15_13" />
<path d="M276,256.4c0,0.1,-0.4,0.2,-0.8,0.2c-0.4,0,-0.7,0,-0.7,-0.2" class="g15_13" />
<path d="M276,254.4c0,0.2,-0.4,0.3,-0.8,0.3c-0.4,0,-0.7,-0.1,-0.7,-0.3" class="g15_13" />
<path d="M276,250.1c0,0.1,-0.4,0.2,-0.8,0.2c-0.4,0,-0.7,-0.1,-0.7,-0.2" class="g15_13" />
<path d="M276,250.4c0,0.2,-0.4,0.3,-0.8,0.3c-0.4,0,-0.7,-0.1,-0.7,-0.3" class="g15_13" />
<path d="M276,250.8c0,0.2,-0.4,0.3,-0.8,0.3c-0.4,0,-0.7,-0.1,-0.7,-0.3" class="g15_13" />
<path d="M276,251.2c0,0.2,-0.4,0.3,-0.8,0.3c-0.4,0,-0.7,-0.1,-0.7,-0.3" class="g15_13" />
<path d="M276,251.6c0,0.2,-0.4,0.3,-0.8,0.3c-0.4,0,-0.7,-0.1,-0.7,-0.3" class="g15_13" />
<path d="M276,252c0,0.2,-0.4,0.3,-0.8,0.3c-0.4,0,-0.7,-0.1,-0.7,-0.3" class="g15_13" />
<path d="M276,252.4c0,0.1,-0.4,0.3,-0.8,0.3c-0.4,0,-0.7,-0.2,-0.7,-0.3" class="g15_13" />
<path d="M276,252.8c0,0.2,-0.4,0.3,-0.8,0.3c-0.4,0,-0.7,-0.1,-0.7,-0.3" class="g15_13" />
<path d="M276,253.2c0,0.2,-0.4,0.3,-0.8,0.3c-0.4,0,-0.7,-0.1,-0.7,-0.3" class="g15_13" />
<path d="M276,253.6c0,0.1,-0.4,0.3,-0.8,0.3c-0.4,0,-0.7,-0.2,-0.7,-0.3" class="g15_13" />
<path d="M276,253.2c0,0.1,-0.4,0.3,-0.8,0.3c-0.4,0,-0.7,-0.2,-0.7,-0.3" class="g15_13" />
<path d="M276,253.6c0,0.1,-0.4,0.3,-0.8,0.3c-0.4,0,-0.7,-0.2,-0.7,-0.3" class="g15_13" />
<path d="M276,254c0,0.1,-0.4,0.3,-0.8,0.3c-0.4,0,-0.7,-0.2,-0.7,-0.3" class="g15_13" />
<path d="M276,254.3c0,0.2,-0.4,0.3,-0.8,0.3c-0.4,0,-0.7,-0.1,-0.7,-0.3" class="g15_13" />
<path d="M276,256c0,0.2,-0.4,0.3,-0.8,0.3c-0.4,0,-0.7,-0.1,-0.7,-0.3" class="g15_13" />
<path d="M280.3,253.4c0.1,0,0.1,-0.1,0.1,-0.3l0,-16.2" class="g15_13" />
<path d="M284.1,237.2c0.3,0,0.5,-0.1,0.7,-0.2c0.5,-0.1,5.3,-2.2,5.3,-2.2c0,0,0.2,-0.1,0.3,-0.2" class="g15_13" />
<path d="M279.8,253.6c0.1,0,0.1,-0.1,0.1,-0.3l0,-16.6" class="g15_13" />
<path d="M248.6,221.1l0,1.6l0.7,0.2" class="g15_13" />
<path d="M248.6,221.1l0.8,0.2" class="g15_13" />
<path d="M248.6,221.1l0.3,0.1l0,1.3l-0.3,0.2" class="g15_13" />
<path d="M248.9,221.2l0.1,0.1l0,1.1l-0.1,0.1" class="g15_13" />
<path d="M248.9,222.5l0.6,0.2" class="g15_13" />
<path d="M249,222.4c0,0,0.6,0.3,0.6,0.2" class="g15_13" />
<path d="M249,222.4l0.8,-0.3" class="g15_13" />
<path d="M249.3,222.9c0,0,0.5,0.2,0.6,-0.4" class="g15_13" />
<path d="M249.5,222.7c0,0,0.2,0.1,0.4,-0.2" class="g15_13" />
<path d="M252.1,225l-1.5,-0.5l0,-1l0.2,0.2l0,0.6l1.3,0.4l0,-0.1L251,224.2l0.6,-0.3L251,223.7l0,0.5l-0.2,0.1l-0.2,0.2" class="g15_13" />
<path d="M250.6,223.5l1.5,0.6l0,0.8" class="g15_13" />
<path d="M252.2,222.1l-1.8,-0.6l0,-0.9l0.3,0.1l0,0.6l0.1,-0.1l0.6,-0.3l-0.6,-0.2l0,0.5l1.5,0.5l0,0.1l-1.6,-0.5l-0.3,0.2" class="g15_13" />
<path d="M250.5,220.6l1.8,0.6l0,0.8" class="g15_13" />
<path d="M249.9,222.5c0,-0.9,-0.5,-1.2,-0.5,-1.2l-0.8,-0.2" class="g15_13" />
<path d="M249.6,222.9c0.2,0,0.2,-0.2,0.3,-0.4" class="g15_13" />
<path d="M254,222.8l0,1.7l0.6,0.2" class="g15_13" />
<path d="M254,222.8l0.7,0.2" class="g15_13" />
<path d="M254,222.8l0.2,0.2l0,1.2l-0.2,0.3" class="g15_13" />
<path d="M254.2,223l0.2,0l0,1.2l-0.2,0" class="g15_13" />
<path d="M254.2,224.2l0.6,0.3" class="g15_13" />
<path d="M254.4,224.2c0,0,0.5,0.2,0.6,0.2" class="g15_13" />
<path d="M254.4,224.2l0.8,-0.3" class="g15_13" />
<path d="M254.6,224.7c0,0,0.5,0.1,0.6,-0.5" class="g15_13" />
<path d="M254.8,224.5c0,0,0.2,0,0.4,-0.3" class="g15_13" />
<path d="M257.5,226.7l-1.6,-0.5l0,-0.9l0.3,0.2l0,0.5l1.3,0.5l0,-0.2l-1.2,-0.4l0.6,-0.2l-0.6,-0.2l0,0.4l-0.1,0.1l-0.3,0.2" class="g15_13" />
<path d="M256,225.3l1.5,0.5l0,0.9" class="g15_13" />
<path d="M257.6,223.8l-1.8,-0.6l0,-0.9l0.2,0.2l0,0.5l0.2,-0.1l0.6,-0.2l-0.6,-0.2l0,0.4l1.4,0.5l0,0.1L256,223l-0.2,0.2" class="g15_13" />
<path d="M255.8,222.3l1.8,0.6l0,0.9" class="g15_13" />
<path d="M255.2,224.2c0.1,-0.9,-0.5,-1.1,-0.5,-1.1L254,222.8" class="g15_13" />
<path d="M254.9,224.7c0.2,-0.1,0.3,-0.3,0.3,-0.5" class="g15_13" />
<path d="M261.6,224.3l2.1,0.7c0.1,0,0.1,0.1,0.1,0.1l0,1.2c0,0.1,0,0.2,-0.1,0.1l-2.1,-0.7c-0.1,0,-0.1,-0.1,-0.1,-0.1l0,-1.2c0,-0.1,0,-0.1,0.1,-0.1Z" class="g15_13" />
<path d="M263.8,226.2l-1.9,-0.6c-0.1,-0.1,-0.1,-0.1,-0.1,-0.2l0,-1" class="g15_13" />
<path d="M263.8,225.5l-1.7,-0.6l0,-0.3l0.1,-0.1" class="g15_13" />
<path d="M261.5,225.6l0.3,-0.1" class="g15_13" />
<path d="M261.8,225.4l0.8,-0.3" class="g15_13" />
<path d="M262.2,224.6l1.6,0.6l0,0.2l-1.6,-0.5c0,0,-0.1,0,-0.1,-0.1l0,-0.1c0,-0.1,0.1,-0.1,0.1,-0.1Z" class="g15_13" />
<path d="M262.2,224.6l0,-0.1" class="g15_13" />
<path d="M261.6,226.3l2.1,0.6c0.1,0.1,0.1,0.1,0.1,0.2l0,1.2c0,0.1,0,0.1,-0.1,0.1l-2.1,-0.7c-0.1,0,-0.1,-0.1,-0.1,-0.2l0,-1.2c0,0,0,-0.1,0.1,0Z" class="g15_13" />
<path d="M263.8,228.2l-1.9,-0.7c-0.1,0,-0.1,-0.1,-0.1,-0.2l0,-1" class="g15_13" />
<path d="M263.8,227.4l-1.7,-0.5l0,-0.1l0,-0.2l0.1,-0.1" class="g15_13" />
<path d="M261.5,227.6l0.3,-0.1" class="g15_13" />
<path d="M261.8,227.4l0.8,-0.3" class="g15_13" />
<path d="M262.2,226.6l1.6,0.5l0,0.1l0,0.1c0,0.1,0,0.1,0,0.1l-1.6,-0.5c0,-0.1,-0.1,-0.1,-0.1,-0.1l0,-0.2c0,0,0.1,0,0.1,0Z" class="g15_13" />
<path d="M262.2,226.6l0,-0.1" class="g15_13" />
<path d="M284,261.1l-0.3,0.2l0,4l3.1,1.1l0.4,-0.1l0.3,0c0,0,0,0.1,0.2,0c0.1,-0.1,5.2,-2.2,5.2,-2.2c0,0,0.3,-0.2,0.5,-0.4c0.2,-0.3,0.5,-0.6,0.5,-0.6c0,0,0.2,-0.2,0.5,-0.3c0.4,-0.2,1.9,-0.8,1.9,-0.8c0,0,0.2,-0.1,0.2,-0.4l0,-4.6c0,0,0.1,-0.2,-0.2,-0.3c-0.3,-0.1,-1.1,-0.3,-1.1,-0.3c0,0,-0.1,-0.1,-0.2,-0.2c-0.2,-0.2,-0.4,-0.6,-0.4,-0.6c0,0,-0.1,-0.1,-0.3,-0.2c-0.2,0,-1.3,-0.4,-1.3,-0.4c0,0,-0.2,0,-0.4,0c-0.2,0.1,-2.5,1.1,-2.5,1.1" class="g15_13" />
<path d="M289.4,255.9c0.1,0,0.3,0,0.4,0c0.1,0.1,1,0.4,1,0.4c0,0,0.4,0.1,0.4,0.2c0.1,0.2,0.4,1.2,0.4,1.2" class="g15_13" />
<path d="M290,256c0,-0.1,-0.1,-0.3,-0.5,-0.4c-0.4,-0.2,-1.6,-0.6,-1.6,-0.6c0,0,-0.3,0,-0.5,0.1c-0.3,0.1,-2.8,1.1,-2.8,1.1c0,0,-0.7,0.4,-0.7,1.3l0,3.7" class="g15_13" />
<path d="M293,258.2l3.2,-1.3" class="g15_13" />
<path d="M291.1,256.4c0,0,-0.3,-0.1,-0.6,0c-0.2,0.2,-2.3,1,-2.3,1c0,0,-0.8,0.4,-0.8,1.3l0,7.4c0,0.1,0.1,0.3,0.3,0.2" class="g15_13" />
<path d="M291.5,256.9l2.9,-1.2" class="g15_13" />
<path d="M291.7,257.7l3.3,-1.4" class="g15_13" />
<path d="M284,261.1l3.2,1l0,1.1" class="g15_13" />
<path d="M283.7,261.3l3.1,1l0.4,-0.2l-0.4,0.2l0,4.1" class="g15_13" />
<path d="M287.2,266.3l0,-1.1l-0.2,0" class="g15_13" />
<path d="M287,265.3l0,-2l0.2,-0.1" class="g15_13" />
<path d="M287,265.3l0.2,-0.1" class="g15_13" />
<path d="M284.3,262.9c0.4,0.1,0.8,0.3,1,0.6" class="g15_13" />
<path d="M284.3,264.2c0.4,0.1,0.8,0.3,1,0.6" class="g15_13" />
<path d="M285.3,264.8c0.3,0.1,0.8,0,1,-0.1" class="g15_13" />
<path d="M285.3,263.5c0.3,0,0.8,0,1,-0.1" class="g15_13" />
<path d="M286.3,264.9l0,-1.5l-0.2,-0.1" class="g15_13" />
<path d="M284.5,262.5l0,2" class="g15_13" />
<path d="M284.9,263c0.2,0,0.4,0.2,0.5,0.4" class="g15_13" />
<path d="M284.9,262.7c0.2,0.1,0.4,0.3,0.5,0.5" class="g15_13" />
<path d="M285.4,263.2c0.2,0,0.6,0,0.7,-0.1" class="g15_13" />
<path d="M285.4,263.4c0.2,0,0.6,0,0.7,0" class="g15_13" />
<path d="M284.9,262.7l1.2,0.4l0,0.2l0,-0.2l-1.2,-0.4Z" class="g15_13" />
<path d="M284.9,264.7c0.2,0.1,0.4,0.3,0.5,0.4" class="g15_13" />
<path d="M284.9,264.5c0.2,0,0.4,0.2,0.5,0.4" class="g15_13" />
<path d="M285.4,264.9c0.2,0,0.6,0,0.7,0" class="g15_13" />
<path d="M285.4,265.2c0.2,0,0.6,0,0.7,-0.1" class="g15_13" />
<path d="M285.9,264.8l0.2,0.1l0,0.2l0,-0.2l-0.2,-0.1Z" class="g15_13" />
<path d="M285.5,265.5l0,-1" class="g15_13" />
<path d="M285.5,264.5l0,-1" class="g15_13" />
<path d="M286.3,263.4l-0.2,-0.1m-1.2,-0.4l-0.6,-0.2l0,1.6" class="g15_13" />
<path d="M286.3,264.9L286,264.8m-1,-0.3l-0.7,-0.2" class="g15_13" />
<path d="M284.3,256.9l3.1,1" class="g15_13" />
<path d="M294.8,255.9l1.7,-0.3c0,0,0.3,-0.1,0.7,0.2c0.3,0.2,0.6,0.5,0.8,0.9c0.2,0.5,0.3,1,0.2,1.4c-0.1,0.4,-0.3,0.7,-0.5,0.8c-0.2,0.2,-1.2,0.9,-1.2,0.9" class="g15_13" />
<path d="M288.3,259.6l2.5,0.8l0.2,-0.1l0.4,-0.3l0,-0.5L291,258.9l-2.4,-0.8" class="g15_13" />
<path d="M288.6,258.1l-0.3,0.1l0,1.4" class="g15_13" />
<path d="M288.3,258.2l2.5,0.8l0.4,0.6l0,0.5l-0.4,0.3" class="g15_13" />
<path d="M291.2,259.6l0.2,-0.1" class="g15_13" />
<path d="M291.2,260.1l0.2,-0.1" class="g15_13" />
<path d="M290.8,259l0.2,-0.1" class="g15_13" />
<path d="M290.7,260c-0.1,0.1,-0.3,0,-0.4,-0.3c0,-0.2,0,-0.4,0.1,-0.4" class="g15_13" />
<path d="M290.4,259.3c0.2,-0.1,0.4,0,0.4,0.3c0.1,0.2,0.1,0.4,-0.1,0.4" class="g15_13" />
<path d="M290.8,260c-0.1,-0.1,-0.2,-0.2,-0.2,-0.3c-0.1,-0.2,-0.1,-0.3,0,-0.4" class="g15_13" />
<path d="M291.2,259.1l1.5,0.5l0.2,-0.1l0.3,-0.3l0.1,-0.5l-0.4,-0.6l-2.5,-0.8" class="g15_13" />
<path d="M290.4,257.3l-0.2,0.1l0,1.3" class="g15_13" />
<path d="M290.2,257.4l2.5,0.8l0.3,0.6l0,0.5l-0.3,0.3" class="g15_13" />
<path d="M293,258.8l0.3,-0.1" class="g15_13" />
<path d="M293,259.3l0.3,-0.1" class="g15_13" />
<path d="M292.7,258.2l0.2,-0.1" class="g15_13" />
<path d="M292.6,259.2c-0.1,0.1,-0.3,0,-0.4,-0.3c-0.1,-0.2,0,-0.4,0.1,-0.4" class="g15_13" />
<path d="M292.3,258.5c0.2,-0.1,0.3,0,0.4,0.3c0.1,0.2,0.1,0.4,-0.1,0.4" class="g15_13" />
<path d="M292.7,259.2c-0.1,-0.1,-0.2,-0.2,-0.2,-0.3c-0.1,-0.2,-0.1,-0.3,0,-0.4" class="g15_13" />
<path d="M289.2,261.6c-0.1,0,-0.2,-0.3,-0.1,-0.6c0,-0.3,0.2,-0.5,0.4,-0.4" class="g15_13" />
<path d="M289.5,260.6l3.1,0.9" class="g15_13" />
<path d="M289.2,261.6l3.1,1c0.3,0.1,0.6,0,0.7,-0.3c0.1,-0.3,0,-0.6,-0.4,-0.8" class="g15_13" />
<path d="M234.8,320.8l9.8,-4.1" class="g15_13" />
<path d="M245,316.7l48.7,15.5" class="g15_13" />
<path d="M235.2,321.4l46.5,15" class="g15_13" />
<path d="M283.8,336.4l9.9,-4.1" class="g15_13" />
<path d="M281.7,336.4c0,0,1,0.3,2.1,0" class="g15_13" />
<path d="M234.7,321.6l47.1,14.9" class="g15_13" />
<path d="M284,336.5l9.9,-4.2" class="g15_13" />
<path d="M281.8,336.5c0,0,1.1,0.4,2.2,0" class="g15_13" />
<path d="M284.1,346.4l10,-4.3l0,-9.4" class="g15_13" />
<path d="M293.7,332.2c0,0,0.4,0,0.4,0.5" class="g15_13" />
<path d="M235.1,331.5l46.9,15" class="g15_13" />
<path d="M282,346.5c0,0,1.3,0.2,2.1,-0.1" class="g15_13" />
<path d="M237.6,326.7l0.1,1.6l0.6,0.3" class="g15_13" />
<path d="M237.6,326.7l0.8,0.2" class="g15_13" />
<path d="M237.6,326.7l0.3,0.1l0,1.3l-0.2,0.2" class="g15_13" />
<path d="M237.9,326.8l0.2,0.1l0,1.1l-0.2,0.1" class="g15_13" />
<path d="M237.9,328.1l0.6,0.2" class="g15_13" />
<path d="M238.1,328c0,0,0.5,0.3,0.5,0.2" class="g15_13" />
<path d="M238.1,328l0.8,-0.3" class="g15_13" />
<path d="M238.3,328.6c0,0,0.5,0.1,0.6,-0.5" class="g15_13" />
<path d="M238.5,328.3c0,0,0.2,0.1,0.4,-0.2" class="g15_13" />
<path d="M241.2,330.6l-1.6,-0.5l0,-0.9l0.3,0.1l0,0.6l1.3,0.4l0,-0.1L240,329.8l0.6,-0.3L240,329.4l0,0.4l-0.1,0.1l-0.3,0.2" class="g15_13" />
<path d="M239.7,329.2l1.5,0.5l0,0.8" class="g15_13" />
<path d="M241.3,327.7l-1.8,-0.6l0,-1l0.2,0.2l0,0.6l0.2,-0.1l0.6,-0.3l-0.6,-0.2l0,0.5l1.4,0.5l0,0.1l-1.6,-0.5l-0.2,0.2" class="g15_13" />
<path d="M239.5,326.1l1.8,0.6l0,0.9" class="g15_13" />
<path d="M283.5,337.5l0,8" class="g15_13" />
<path d="M277.5,338.5l0,3" class="g15_13" />
<path d="M276.3,338.1l0.6,0.2" class="g15_13" />
<path d="M276.3,341.6l0.7,0.1" class="g15_13" />
<path d="M276.5,341.5l0.5,0.1" class="g15_13" />
<path d="M277.3,341.3c0,0,-0.3,0.2,-0.3,0.4" class="g15_13" />
<path d="M276.9,338.3c0,0,0.1,0.3,0.4,0.6" class="g15_13" />
<path d="M276.4,338.2c0.1,0,0.1,3.3,0.1,3.3l0.8,-0.4" class="g15_13" />
<path d="M276.3,338.1l0,3.5" class="g15_13" />
<path d="M277.3,341.3l0.4,-0.1" class="g15_13" />
<path d="M277,341.7l0.3,0" class="g15_13" />
<path d="M277.3,341.7c0,0,0,-0.3,0.4,-0.5" class="g15_13" />
<path d="M277.7,341.2l0,-2.6" class="g15_13" />
<path d="M276.5,337.8l0.9,0.2" class="g15_13" />
<path d="M277.4,338c0,0,-0.1,0.3,0.3,0.6" class="g15_13" />
<path d="M276.3,338.1l0.6,-0.2" class="g15_13" />
<path d="M276.5,338.1l0,-0.4" class="g15_13" />
<path d="M276.9,338.3l0.5,-0.2" class="g15_13" />
<path d="M277.3,338.9l0.4,-0.2" class="g15_13" />
<path d="M277.6,339.1l-0.1,0.1l0,0.1l0.1,0.3l-0.1,0l0,0.1l0.1,0" class="g15_13" />
<path d="M277.6,340.3l-0.1,0.1l0,0.1l0.1,0l0,0.3l-0.1,0l0,0.1l0.1,0" class="g15_13" />
<path d="M277.1,338.7l0,2.3l0.1,0" class="g15_13" />
<path d="M277.1,338.8l-0.5,0.1" class="g15_13" />
<path d="M277,339.2l-0.5,0.2" class="g15_13" />
<path d="M277,340l-0.4,0.1" class="g15_13" />
<path d="M277,340.4l-0.5,0.2" class="g15_13" />
<path d="M278,344.5c0,0,-0.1,0,-0.1,-0.1l-2.1,-0.6c-0.2,-0.1,-0.4,-0.4,-0.4,-0.6l0,-7.4c0,-0.3,0.2,-0.4,0.4,-0.4" class="g15_13" />
<path d="M278,344.5c0.2,-0.1,0.3,-0.2,0.3,-0.4l0,-7.4c0,-0.2,-0.1,-0.5,-0.3,-0.5l-2.2,-0.8c-0.1,0,-0.2,0.1,-0.2,0.1" class="g15_13" />
<path d="M278.2,344.4c0,0,-0.1,0,-0.2,0l-2.1,-0.7c-0.2,-0.1,-0.4,-0.4,-0.4,-0.6l0,-7.3c0,-0.2,0.1,-0.3,0.2,-0.4" class="g15_13" />
<path d="M235.2,320.8l9.7,-4.1" class="g15_13" />
<path d="M244.6,316.7c0,0,0.2,-0.1,0.4,0" class="g15_13" />
<path d="M282.5,337.5l0,8" class="g15_13" />
<g clip-path="url(#c0_13)">
<path d="M294.1,342.1c2.6,-0.7,5.7,-0.9,9,-0.9c9.7,0,17.1,2.9,16.8,7.1" class="g15_13" />
</g>
<path d="M319.7,349c-0.8,3.6,-8,6.4,-16.7,6.4c-6.1,0,-11.4,-1.4,-14.3,-3.5c-0.9,-0.7,-1.3,-1.5,-1.4,-2.3" class="g15_13" />
<path d="M319.8,350.7c-0.9,3.5,-8.1,6.3,-16.8,6.3c-6.1,0,-11.4,-1.4,-14.3,-3.5c-0.9,-0.7,-1.3,-1.4,-1.4,-2.2" class="g15_13" />
<path d="M319.8,352.3c-0.9,3.6,-8.2,6.3,-16.9,6.3c-6.1,0,-11.4,-1.4,-14.3,-3.5c-0.8,-0.7,-1.2,-1.4,-1.3,-2.1" class="g15_13" />
<path d="M319.8,353.9c-0.9,3.6,-8,6.4,-16.7,6.4c-6.2,0,-11.5,-1.5,-14.3,-3.6c-1.6,-1.1,-1.8,-2.4,-1.4,-3.6" class="g15_13" />
<path d="M289.1,349c0,-2.3,6.5,-4.5,14,-4.4c7.6,0.2,14.1,2.5,14.6,4.5" class="g15_13" />
<path d="M317.9,348.3c0,2.3,-7,5,-14.8,5c-7.7,0,-14,-2,-14,-4.3" class="g15_13" />
<path d="M289.4,349.7c1.4,-1.9,7.1,-3.5,13.7,-3.4c6.3,0.1,12,1.8,13.9,3.5" class="g15_13" />
<path d="M290.3,350.7c2.2,-1.6,7.3,-2.9,13,-2.7c5.2,0.1,10,1.2,12.5,2.6" class="g15_13" />
<path d="M291.8,351.4c2.5,-1.1,6.8,-1.9,11.5,-1.8c4.2,0.1,8.1,0.8,10.8,1.8" class="g15_13" />
<path d="M292.4,344.6c2.6,-1,6.5,-1.6,10.8,-1.6c7.5,0.2,14.1,2.5,14.6,4.5" class="g15_13" />
<path d="M292.4,344.6l-3.4,1.3" class="g15_13" />
<path d="M289,345.9c0,0,-2.3,1.3,-1.7,3.8" class="g15_13" />
<path d="M287.3,349.8c0,0,-0.3,0.5,0,1.5" class="g15_13" />
<path d="M287.3,351.5c0,0,-0.2,0.5,0,1.5" class="g15_13" />
<path d="M316.9,358.9l-1.2,0.6l-17.3,7.6" class="g15_13" />
<path d="M311.3,359.4l-13.5,5.9" class="g15_13" />
<path d="M238.9,328.1c0.1,-1,-0.5,-1.2,-0.5,-1.2l-0.8,-0.2" class="g15_13" />
<path d="M238.6,328.5c0.2,0,0.3,-0.2,0.3,-0.4" class="g15_13" />
<path d="M243,328.4l0,1.7l0.7,0.2" class="g15_13" />
<path d="M243,328.4l0.8,0.2" class="g15_13" />
<path d="M243,328.4l0.3,0.2l0,1.3l-0.3,0.2" class="g15_13" />
<path d="M243.3,328.6l0.2,0l0,1.2l-0.2,0.1" class="g15_13" />
<path d="M243.3,329.9l0.6,0.2" class="g15_13" />
<path d="M243.5,329.8c0,0,0.5,0.2,0.5,0.2" class="g15_13" />
<path d="M243.5,329.8l0.8,-0.3" class="g15_13" />
<path d="M243.7,330.3c0,0,0.5,0.1,0.6,-0.5" class="g15_13" />
<path d="M243.9,330.1c0,0,0.2,0,0.4,-0.3" class="g15_13" />
<path d="M246.6,332.3L245,331.8l0,-0.9l0.3,0.2l0,0.5l1.3,0.5l0,-0.1l-1.2,-0.4l0.6,-0.3l-0.6,-0.2l0,0.5l-0.1,0l-0.3,0.2" class="g15_13" />
<path d="M245,330.9l1.6,0.5l0,0.9" class="g15_13" />
<path d="M246.7,329.4l-1.8,-0.6l0,-0.9l0.2,0.2l0,0.5l0.2,0l0.6,-0.3l-0.6,-0.2l0,0.5l1.4,0.4l0,0.2l-1.6,-0.6l-0.2,0.2" class="g15_13" />
<path d="M244.9,327.9l1.8,0.6l0,0.9" class="g15_13" />
<path d="M244.3,329.9c0.1,-1,-0.5,-1.2,-0.5,-1.2L243,328.4" class="g15_13" />
<path d="M244,330.3c0.2,-0.1,0.3,-0.2,0.3,-0.4" class="g15_13" />
<path d="M271.5,336.5l0,3" class="g15_13" />
<path d="M270.3,336.2l0.6,0.2" class="g15_13" />
<path d="M270.3,339.6l0.7,0.2" class="g15_13" />
<path d="M270.5,339.5l0.5,0.2" class="g15_13" />
<path d="M271.3,339.4c0,0,-0.3,0.2,-0.3,0.4" class="g15_13" />
<path d="M270.9,336.4c0,0,0.1,0.3,0.4,0.5" class="g15_13" />
<path d="M270.4,336.3c0.1,0,0.1,3.3,0.1,3.3l0.8,-0.4" class="g15_13" />
<path d="M270.3,336.2l0,3.4" class="g15_13" />
<path d="M271.3,339.4l0.4,-0.1" class="g15_13" />
<path d="M271,339.8l0.3,0" class="g15_13" />
<path d="M271.3,339.8c0,0,0,-0.3,0.4,-0.5" class="g15_13" />
<path d="M271.7,339.3l0,-2.6" class="g15_13" />
<path d="M270.5,335.8l0.9,0.3" class="g15_13" />
<path d="M271.4,336.1c0,0,-0.1,0.3,0.3,0.6" class="g15_13" />
<path d="M270.3,336.2l0.6,-0.3" class="g15_13" />
<path d="M270.5,336.1l0,-0.3" class="g15_13" />
<path d="M270.9,336.4l0.5,-0.2" class="g15_13" />
<path d="M271.3,336.9l0.4,-0.1" class="g15_13" />
<path d="M271.6,337.2l-0.1,0.1l0,0.1l0.1,0.2l-0.1,0.1l0,0.1l0.1,0" class="g15_13" />
<path d="M271.6,338.4l-0.1,0.1l0,0.1l0.1,0l0,0.2l-0.1,0.1l0,0.1l0.1,0" class="g15_13" />
<path d="M271.1,336.8l0,2.2l0.1,0.1" class="g15_13" />
<path d="M271.1,336.8l-0.5,0.2" class="g15_13" />
<path d="M271,337.3l-0.5,0.2" class="g15_13" />
<path d="M271,338l-0.5,0.2" class="g15_13" />
<path d="M271,338.5l-0.5,0.2" class="g15_13" />
<path d="M272,342.5c0,0,-0.1,0,-0.1,0l-2.1,-0.7c-0.2,0,-0.4,-0.4,-0.4,-0.5l0,-7.4c0,-0.3,0.2,-0.4,0.4,-0.4" class="g15_13" />
<path d="M272,342.5c0.2,0,0.3,-0.2,0.3,-0.3l0,-7.4c0,-0.2,-0.1,-0.5,-0.3,-0.6l-2.2,-0.7c-0.1,0,-0.2,0,-0.2,0" class="g15_13" />
<path d="M272.2,342.4c0,0.1,-0.1,0.1,-0.2,0.1l-2.1,-0.7c-0.2,-0.1,-0.4,-0.4,-0.4,-0.6l0,-7.4c0,-0.1,0.1,-0.2,0.2,-0.3" class="g15_13" />
<path d="M286.3,345.9c1.4,0.1,2.7,0,4,-0.5" class="g15_13" />
<path d="M283.7,346.5c0.5,0.2,1.4,-0.1,1.6,-0.2c0.1,0,0.4,-0.1,1,-0.4c2.2,-0.9,7.2,-3,7.2,-3c0,0,0.4,-0.3,0.5,-0.7" class="g15_13" />
<path d="M248.4,330.1l0,1.6L249,332" class="g15_13" />
<path d="M248.4,330.1l0.7,0.2" class="g15_13" />
<path d="M248.4,330.1l0.2,0.1l0,1.3l-0.2,0.2" class="g15_13" />
<path d="M248.6,330.2l0.2,0.1l0,1.2l-0.2,0" class="g15_13" />
<path d="M248.6,331.5l0.6,0.3" class="g15_13" />
<path d="M248.8,331.5c0,0,0.5,0.2,0.6,0.2" class="g15_13" />
<path d="M248.8,331.5l0.8,-0.4" class="g15_13" />
<path d="M249,332c0,0,0.5,0.1,0.6,-0.5" class="g15_13" />
<path d="M249.2,331.8c0,0,0.2,0,0.4,-0.3" class="g15_13" />
<path d="M251.9,334l-1.6,-0.5l0,-0.9l0.3,0.1l0,0.6l1.3,0.4l0,-0.1l-1.2,-0.4l0.6,-0.2l-0.6,-0.2l0,0.4l-0.1,0.1l-0.3,0.2" class="g15_13" />
<path d="M250.4,332.6l1.5,0.5l0,0.9" class="g15_13" />
<path d="M252,331.1l-1.8,-0.6l0,-0.9l0.2,0.1l0,0.6l0.2,-0.1l0.6,-0.2l-0.6,-0.2l0,0.4l1.4,0.5l0,0.1l-1.6,-0.5l-0.2,0.2" class="g15_13" />
<path d="M250.2,329.6l1.8,0.6l0,0.8" class="g15_13" />
<path d="M249.6,331.5c0.1,-0.9,-0.5,-1.2,-0.5,-1.2l-0.7,-0.2" class="g15_13" />
<path d="M249.3,332c0.2,-0.1,0.3,-0.3,0.3,-0.5" class="g15_13" />
<path d="M253.7,331.8l0,1.7l0.7,0.2" class="g15_13" />
<path d="M253.7,331.8l0.8,0.3" class="g15_13" />
<path d="M253.7,331.8L254,332l0,1.3l-0.3,0.2" class="g15_13" />
<path d="M254,332l0.2,0l0,1.2l-0.2,0.1" class="g15_13" />
<path d="M254,333.3l0.6,0.2" class="g15_13" />
<path d="M254.2,333.2c0,0,0.5,0.2,0.5,0.2" class="g15_13" />
<path d="M254.2,333.2l0.8,-0.3" class="g15_13" />
<path d="M254.4,333.7c0,0,0.5,0.1,0.6,-0.4" class="g15_13" />
<path d="M254.6,333.5c0,0,0.2,0,0.4,-0.3" class="g15_13" />
<path d="M257.3,335.8l-1.6,-0.5l0,-1l0.3,0.2l0,0.6l1.3,0.4l0,-0.1L256.1,335l0.6,-0.3l-0.6,-0.2l0,0.5l-0.1,0.1l-0.3,0.2" class="g15_13" />
<path d="M255.8,334.3l1.5,0.5l0,0.9" class="g15_13" />
<path d="M257.4,332.8l-1.8,-0.5l0,-1l0.2,0.2l0,0.6L256,332l0.6,-0.3L256,331.5l0,0.5l1.4,0.4l0,0.2l-1.6,-0.5l-0.2,0.2" class="g15_13" />
<path d="M255.6,331.3l1.8,0.6l0,0.9" class="g15_13" />
<path d="M255,333.3c0.1,-1,-0.5,-1.2,-0.5,-1.2l-0.8,-0.3" class="g15_13" />
<path d="M254.7,333.7c0.2,-0.1,0.3,-0.2,0.3,-0.4" class="g15_13" />
<path d="M261.4,333.3l2.2,0.7c0,0,0.1,0.1,0.1,0.2l0,1.2c0,0.1,-0.1,0.1,-0.1,0.1l-2.2,-0.7c0,0,-0.1,-0.1,-0.1,-0.2l0,-1.2c0,-0.1,0.1,-0.1,0.1,-0.1Z" class="g15_13" />
<path d="M263.7,335.2l-2,-0.6c0,0,-0.1,-0.1,-0.1,-0.2l0,-1" class="g15_13" />
<path d="M263.7,334.5c0,0,-0.1,0,-0.1,0L262,334c-0.1,0,-0.1,-0.1,-0.1,-0.1l0,-0.3l0.1,-0.1" class="g15_13" />
<path d="M261.4,334.7l0.2,-0.1" class="g15_13" />
<path d="M261.7,334.5l0.7,-0.4" class="g15_13" />
<path d="M262,333.7l1.7,0.5l0,0.2L262,333.9l0,-0.2Z" class="g15_13" />
<path d="M262,333.7l0,-0.2" class="g15_13" />
<path d="M261.4,335.3l2.2,0.7c0,0,0.1,0.1,0.1,0.2l0,1.2c0,0.1,-0.1,0.1,-0.1,0.1l-2.2,-0.7c0,0,-0.1,-0.1,-0.1,-0.2l0,-1.2c0,-0.1,0.1,-0.1,0.1,-0.1Z" class="g15_13" />
<path d="M263.7,337.2l-2,-0.6c0,0,-0.1,-0.1,-0.1,-0.2l0,-1" class="g15_13" />
<path d="M263.7,336.5c0,0,-0.1,0,-0.1,0L262,336c-0.1,-0.1,-0.1,-0.1,-0.1,-0.1l0,-0.3l0.1,-0.1" class="g15_13" />
<path d="M261.4,336.7l0.2,-0.2" class="g15_13" />
<path d="M261.7,336.4l0.7,-0.3" class="g15_13" />
<path d="M262,335.7l1.7,0.5l0,0.2L262,335.9l0,-0.2Z" class="g15_13" />
<path d="M262,335.6l0,-0.1" class="g15_13" />
<path d="M284,370.4l-0.2,0.2l0,4.1l3.1,1l0.4,-0.1l0.2,0.1c0,0,0.1,0,0.2,0c0.2,-0.1,5.3,-2.2,5.3,-2.2c0,0,0.3,-0.2,0.5,-0.5c0.2,-0.2,0.5,-0.5,0.5,-0.5c0,0,0.2,-0.2,0.6,-0.4c0.3,-0.1,1.8,-0.7,1.8,-0.7c0,0,0.2,-0.1,0.2,-0.5l0,-4.6c0,0,0.1,-0.2,-0.2,-0.3c-0.3,-0.1,-1,-0.3,-1,-0.3c0,0,-0.2,-0.1,-0.3,-0.3c-0.1,-0.1,-0.3,-0.5,-0.3,-0.5c0,0,-0.2,-0.1,-0.4,-0.2c-0.2,0,-1.3,-0.4,-1.3,-0.4c0,0,-0.2,-0.1,-0.4,0c-0.2,0.1,-2.5,1,-2.5,1" class="g15_13" />
<path d="M289.4,365.2c0.2,0,0.4,0,0.5,0c0,0.1,1,0.4,1,0.4c0,0,0.3,0.1,0.4,0.2c0.1,0.2,0.4,1.2,0.4,1.2" class="g15_13" />
<path d="M290.1,365.3C290,365.2,290,365,289.6,364.8c-0.4,-0.1,-1.6,-0.5,-1.6,-0.5c0,0,-0.3,0,-0.6,0.1c-0.3,0.1,-2.8,1.1,-2.8,1.1c0,0,-0.7,0.4,-0.7,1.3l0,3.7" class="g15_13" />
<path d="M293.1,367.5l3.3,-1.3" class="g15_13" />
<path d="M291.2,365.7c0,0,-0.3,-0.1,-0.6,0c-0.3,0.2,-2.3,1,-2.3,1c0,0,-0.8,0.4,-0.8,1.3l0,7.5c0,0.1,0.1,0.3,0.2,0.2" class="g15_13" />
<path d="M291.6,366.2l2.9,-1.3" class="g15_13" />
<path d="M291.8,367l3.3,-1.4" class="g15_13" />
<path d="M284,370.4l3.2,1.1l0,1" class="g15_13" />
<path d="M283.8,370.6l3.1,1l0.3,-0.1l-0.3,0.1l0,4.1" class="g15_13" />
<path d="M287.2,375.6l0,-1L287,374.5" class="g15_13" />
<path d="M287,374.7l0,-2.1l0.2,-0.1" class="g15_13" />
<path d="M287,374.7l0.2,-0.1" class="g15_13" />
<path d="M284.3,372.2c0.4,0.1,0.9,0.4,1.1,0.7" class="g15_13" />
<path d="M284.3,373.5c0.4,0.1,0.9,0.4,1.1,0.7" class="g15_13" />
<path d="M285.4,374.2c0.3,0,0.8,0,0.9,-0.1" class="g15_13" />
<path d="M285.4,372.9c0.3,0,0.8,-0.1,0.9,-0.2" class="g15_13" />
<path d="M286.3,374.2l0,-1.5l-0.1,0" class="g15_13" />
<path d="M284.5,372.5l0,1" class="g15_13" />
<path d="M284.9,372.3c0.2,0.1,0.5,0.3,0.6,0.5" class="g15_13" />
<path d="M284.9,372.1c0.2,0,0.5,0.2,0.6,0.4" class="g15_13" />
<path d="M285.5,372.5c0.2,0,0.5,0,0.7,0" class="g15_13" />
<path d="M285.5,372.8c0.2,0,0.5,0,0.7,-0.1" class="g15_13" />
<path d="M284.9,372.1l1.3,0.4l0,0.2l0,-0.2l-1.3,-0.4Z" class="g15_13" />
<path d="M284.9,374.1c0.2,0,0.5,0.2,0.6,0.4" class="g15_13" />
<path d="M284.9,373.8c0.2,0.1,0.5,0.3,0.6,0.5" class="g15_13" />
<path d="M285.5,374.3c0.2,0,0.5,0,0.7,-0.1" class="g15_13" />
<path d="M285.5,374.5c0.2,0,0.5,0,0.7,0" class="g15_13" />
<path d="M286,374.2l0.2,0l0,0.2l0,-0.2l-0.2,0Z" class="g15_13" />
<path d="M284.5,374.5l0,-1" class="g15_13" />
<path d="M285.5,374.5l0,-2" class="g15_13" />
<path d="M286.3,372.7l-0.1,0m-1.3,-0.4l-0.6,-0.2l0,1.5" class="g15_13" />
<path d="M286.3,374.3L286,374.2m-1,-0.4l-0.7,-0.2" class="g15_13" />
<path d="M284.3,366.2l3.2,1" class="g15_13" />
<path d="M294.9,365.2l1.7,-0.3c0,0,0.3,-0.1,0.7,0.2c0.4,0.2,0.6,0.5,0.8,0.9c0.2,0.5,0.3,1,0.3,1.4c-0.1,0.4,-0.3,0.7,-0.5,0.8c-0.2,0.2,-1.3,0.9,-1.3,0.9" class="g15_13" />
<path d="M288.4,368.9l2.5,0.9l0.2,-0.1l0.3,-0.4l0.1,-0.5l-0.4,-0.6l-2.5,-0.8" class="g15_13" />
<path d="M288.6,367.4l-0.2,0.1l0,1.4" class="g15_13" />
<path d="M288.4,367.5l2.5,0.8l0.3,0.6l0,0.5l-0.3,0.4" class="g15_13" />
<path d="M291.2,368.9l0.3,-0.1" class="g15_13" />
<path d="M291.2,369.4l0.3,-0.1" class="g15_13" />
<path d="M290.9,368.3l0.2,0" class="g15_13" />
<path d="M290.8,369.4c-0.1,0,-0.3,-0.1,-0.4,-0.3c-0.1,-0.2,0,-0.5,0.1,-0.5" class="g15_13" />
<path d="M290.5,368.6c0.2,-0.1,0.3,0.1,0.4,0.3c0.1,0.2,0.1,0.4,-0.1,0.5" class="g15_13" />
<path d="M290.9,369.3c-0.1,-0.1,-0.2,-0.2,-0.2,-0.3c-0.1,-0.2,-0.1,-0.3,0,-0.4" class="g15_13" />
<path d="M291.3,368.4l1.5,0.5l0.2,-0.1l0.3,-0.3l0.1,-0.5L293,367.4l-2.5,-0.8" class="g15_13" />
<path d="M290.5,366.6l-0.2,0.1l0,1.3" class="g15_13" />
<path d="M290.3,366.7l2.5,0.8l0.3,0.6l0,0.5l-0.3,0.3" class="g15_13" />
<path d="M293.1,368.1l0.3,-0.1" class="g15_13" />
<path d="M293.1,368.6l0.3,-0.1" class="g15_13" />
<path d="M292.8,367.5l0.2,-0.1" class="g15_13" />
<path d="M292.7,368.6c-0.1,0,-0.3,-0.1,-0.4,-0.3c-0.1,-0.3,0,-0.5,0.1,-0.5" class="g15_13" />
<path d="M292.4,367.8c0.2,-0.1,0.3,0.1,0.4,0.3c0.1,0.2,0.1,0.4,-0.1,0.5" class="g15_13" />
<path d="M292.8,368.5c-0.1,-0.1,-0.2,-0.2,-0.2,-0.3c-0.1,-0.2,-0.1,-0.3,0,-0.4" class="g15_13" />
<path d="M289.3,371c-0.2,-0.1,-0.3,-0.4,-0.2,-0.7c0.1,-0.3,0.3,-0.5,0.5,-0.4" class="g15_13" />
<path d="M289.6,369.9l3.1,1" class="g15_13" />
<path d="M289.3,371l3.1,1c0.3,0,0.6,-0.1,0.7,-0.4c0.1,-0.2,0,-0.6,-0.4,-0.7" class="g15_13" />
<path d="M245.6,316.8c0,-0.4,0.3,-0.9,0.8,-1.1c0.6,-0.3,2.6,-1.1,2.6,-1.1c0,0,0.8,-0.1,1.3,0c0.5,0.2,1.4,0.5,1.4,0.5c0,0,0.4,0.1,0.4,0.3l0,0.6c0,0,0,0.2,-0.3,0.3c-0.3,0.2,-2.3,1,-2.5,1.1c-0.1,0,-0.4,0.2,-0.3,0.5" class="g15_13" />
<path d="M252.1,315.3c0,0,0,0.2,-0.3,0.3c-0.3,0.1,-2.5,1,-2.5,1c0,0,-0.8,0.3,-0.8,1.2" class="g15_13" />
<path d="M248.7,315.5c0,-0.2,0.3,-0.3,0.6,-0.3c0.3,0,0.6,0.1,0.6,0.3" class="g15_13" />
<path d="M249.9,315.5c0,0.1,-0.3,0.3,-0.6,0.3c-0.3,0,-0.6,-0.2,-0.6,-0.3" class="g15_13" />
<path d="M248.9,315.7c0.1,-0.1,0.3,-0.1,0.4,-0.1c0.2,0,0.3,0,0.4,0.1" class="g15_13" />
<path d="M251.7,318.8c0.1,-0.4,0.3,-0.9,0.9,-1.1c0.5,-0.3,2.6,-1.1,2.6,-1.1c0,0,0.7,-0.1,1.2,0c0.5,0.2,40.4,12.9,40.4,12.9c0,0,0.4,0.1,0.4,0.3l0,0.7c0,0,0,0.2,-0.3,0.3c-0.3,0.1,-2.3,1,-2.4,1c-0.2,0.1,-0.4,0.3,-0.4,0.8" class="g15_13" />
<path d="M297.2,329.8c0,0,0,0.2,-0.3,0.3c-0.3,0.1,-2.4,1,-2.4,1c0,0,-0.7,0.3,-0.8,1.1" class="g15_13" />
<path d="M271.4,322.7c0,-0.1,0.3,-0.3,0.6,-0.3c0.4,0,0.6,0.2,0.6,0.3" class="g15_13" />
<path d="M272.6,322.7c0,0.2,-0.2,0.4,-0.6,0.4c-0.3,0,-0.6,-0.2,-0.6,-0.4" class="g15_13" />
<path d="M271.6,323c0.1,-0.1,0.3,-0.1,0.4,-0.1c0.2,0,0.3,0,0.4,0.1" class="g15_13" />
<path d="M294.2,329.9c0,-0.1,0.3,-0.3,0.6,-0.3c0.4,0,0.6,0.2,0.6,0.3" class="g15_13" />
<path d="M295.4,329.9c0,0.2,-0.2,0.3,-0.6,0.3c-0.3,0,-0.6,-0.1,-0.6,-0.3" class="g15_13" />
<path d="M294.4,330.2c0.1,-0.1,0.3,-0.1,0.4,-0.1c0.2,0,0.3,0,0.4,0.1" class="g15_13" />
<path d="M292.2,330.3c0,0.1,0,0.1,-0.1,0.2c0,0,-0.6,0.2,-0.6,1" class="g15_13" />
<path d="M278,327.2c0,-0.4,0.2,-0.8,0.5,-1c0.4,-0.2,0.7,-0.2,1.2,0c0.4,0.1,12.2,3.9,12.2,3.9c0,0,0.3,0.1,0.3,0.2" class="g15_13" />
<path d="M278.4,327.3c0.1,-0.3,0.2,-0.3,0.3,-0.4c0.1,-0.1,0.5,-0.2,1,0c0.4,0.1,10.6,3.4,12,3.9" class="g15_13" />
<path d="M246.2,316.2l2.3,0.8" class="g15_13" />
<path d="M252.3,318.2l25.6,8.3" class="g15_13" />
<path d="M291.9,331l1.8,0.6" class="g15_13" />
<path d="M246,316.3l2.3,0.7" class="g15_13" />
<path d="M252,318.2l25.7,8.3" class="g15_13" />
<path d="M291.7,331.1l1.8,0.6" class="g15_13" />
<path d="M234.5,321.4l0,9.7" class="g15_13" />
<path d="M234.5,331.1c0,0,0,0.1,0.6,0.4" class="g15_13" />
<path d="M234.5,321.2c0,0,0,0.3,0.2,0.4" class="g15_13" />
<path d="M234.5,321.4c0,0,-0.1,-0.4,0.3,-0.6" class="g15_13" />
<path d="M235.2,320.8c0,0,-0.8,0.3,0,0.6" class="g15_13" />
<path d="M319.9,348.3c0,0.2,-0.1,0.5,-0.1,0.7" class="g15_13" />
<path d="M317.8,347.5c0,0,0.1,0.3,0.1,0.8" class="g15_13" />
<path d="M319.7,349c0,0,0.3,0.4,0.1,1.7" class="g15_13" />
<path d="M319.8,350.7c0,0,0.2,0.3,0,1.6" class="g15_13" />
<g clip-path="url(#c0_13)">
<path d="M319.8,352.3c0,0,0.2,0.4,0,1.7" class="g15_13" />
<path d="M319.8,354c0,0,1,2.7,-2.9,4.9" class="g15_13" />
</g>
<g clip-path="url(#c1_13)">
<path d="M198.6,458.9c2.3,-0.5,5.1,-0.8,8,-0.8c8.8,0.1,15.5,2.6,15.2,6.5" class="g15_13" />
<path d="M221.7,465.2c-0.8,3.3,-7.3,5.8,-15.1,5.8c-5.6,0,-10.4,-1.3,-12.9,-3.2c-0.9,-0.6,-1.2,-1.3,-1.3,-2" class="g15_13" />
<path d="M221.7,466.7c-0.8,3.2,-7.2,5.7,-15.1,5.7c-5.6,0,-10.3,-1.2,-12.9,-3.1c-0.8,-0.6,-1.2,-1.3,-1.3,-2" class="g15_13" />
<path d="M221.7,468.2c-0.8,3.2,-7.3,5.7,-15.2,5.7c-5.5,0,-10.3,-1.3,-12.9,-3.2c-0.8,-0.6,-1.1,-1.2,-1.2,-1.9" class="g15_13" />
<path d="M221.7,469.6c-0.8,3.3,-7.2,5.8,-15.1,5.8c-5.5,0,-10.3,-1.4,-12.9,-3.2c-1.4,-1,-1.5,-2.3,-1.2,-3.3" class="g15_13" />
<path d="M220.1,464.5c0,2.1,-6.4,4.6,-13.4,4.6c-7,0,-12.7,-1.8,-12.7,-3.9" class="g15_13" />
<path d="M221.8,464.6c0,0.2,0,0.4,-0.1,0.6" class="g15_13" />
<path d="M219.9,463.8c0,0,0.1,0.3,0.2,0.7" class="g15_13" />
<path d="M221.7,465.2c0,0,0.2,0.4,0,1.5" class="g15_13" />
<path d="M221.7,466.7c0,0,0.2,0.3,0,1.5" class="g15_13" />
<path d="M221.7,468.2c0,0,0.2,0.4,0,1.5" class="g15_13" />
<path d="M221.7,469.7c0,0,0.9,2.4,-2.5,4.4" class="g15_13" />
</g>
<path d="M228.5,429L271,442.8" class="g15_13" />
<path d="M271,442.8c0,0,0.3,0.1,0.7,0.2" class="g15_13" />
<path d="M228.1,429.1l43,13.9" class="g15_13" />
<path d="M271.1,443c0,0,0.3,0,0.6,0.1" class="g15_13" />
<path d="M228.4,438.1L271.2,452" class="g15_13" />
<path d="M227.9,429l0,8.8" class="g15_13" />
<path d="M227.9,437.8c0,0,0,0.1,0.5,0.3" class="g15_13" />
<path d="M271.2,452c0,0,0.2,0.1,0.5,0.1" class="g15_13" />
<path d="M230.9,433.6l0,1.5l0.6,0.2" class="g15_13" />
<path d="M230.9,433.6l0.7,0.2" class="g15_13" />
<path d="M230.9,433.6l0.2,0.1l0,1.2l-0.2,0.2" class="g15_13" />
<path d="M231.1,433.7l0.2,0.1l0,1l-0.2,0.1" class="g15_13" />
<path d="M231.1,434.9l0.5,0.2" class="g15_13" />
<path d="M231.3,434.8c0,0,0.4,0.2,0.5,0.2" class="g15_13" />
<path d="M231.3,434.8l0.7,-0.3" class="g15_13" />
<path d="M231.5,435.3c0,0,0.5,0.1,0.5,-0.5" class="g15_13" />
<path d="M231.6,435.1c0,0,0.3,0,0.4,-0.3" class="g15_13" />
<path d="M234.1,437.1l-1.4,-0.4l0,-0.9l0.2,0.2l0,0.5l1.2,0.4l0,-0.1L233,436.4l0.6,-0.2L233,436l0,0.4l-0.1,0.1l-0.2,0.2" class="g15_13" />
<path d="M232.7,435.8l1.4,0.5l0,0.8" class="g15_13" />
<path d="M234.2,434.5l-1.7,-0.6l0,-0.8l0.3,0.1l0,0.6l0.1,-0.1l0.6,-0.2l-0.6,-0.2l0,0.4l1.3,0.4l0,0.1l-1.4,-0.4l-0.3,0.1" class="g15_13" />
<path d="M232.6,433.1l1.6,0.5l0,0.8" class="g15_13" />
<path d="M267.5,444.5l0,3" class="g15_13" />
<path d="M266.2,444.3l0.6,0.2" class="g15_13" />
<path d="M266.2,447.4l0.6,0.2" class="g15_13" />
<path d="M266.3,447.4l0.5,0.1" class="g15_13" />
<path d="M267.1,447.2c0,0,-0.3,0.2,-0.3,0.4" class="g15_13" />
<path d="M266.8,444.5c0,0,0,0.3,0.3,0.5" class="g15_13" />
<path d="M266.3,444.4c0,0,0,3,0,3l0.8,-0.4" class="g15_13" />
<path d="M266.2,444.3l0,3.1" class="g15_13" />
<path d="M267.1,447.2l0.3,-0.1" class="g15_13" />
<path d="M266.8,447.6l0.3,-0.1" class="g15_13" />
<path d="M267.1,447.5c0,0,0,-0.2,0.3,-0.4" class="g15_13" />
<path d="M267.4,447.1l0,-2.3" class="g15_13" />
<path d="M266.4,444l0.8,0.2" class="g15_13" />
<path d="M267.2,444.2c0,0,0,0.3,0.2,0.6" class="g15_13" />
<path d="M266.2,444.3l0.6,-0.2" class="g15_13" />
<path d="M266.4,444.3l0,-0.3" class="g15_13" />
<path d="M266.8,444.5l0.4,-0.2" class="g15_13" />
<path d="M267.1,445l0.3,-0.2" class="g15_13" />
<path d="M267.4,445.2l-0.1,0.1l0,0.1l0,0.2l0,0.1l0,0.1l0.1,-0.1" class="g15_13" />
<path d="M267.4,446.3l-0.1,0.1l0,0.1l0.1,0.2l-0.1,0l0,0.1l0.1,0" class="g15_13" />
<path d="M266.9,444.8l0,2.1l0.1,0" class="g15_13" />
<path d="M266.9,444.9l-0.4,0.2" class="g15_13" />
<path d="M266.9,445.3l-0.5,0.2" class="g15_13" />
<path d="M266.9,446l-0.5,0.1" class="g15_13" />
<path d="M266.9,446.4l-0.5,0.1" class="g15_13" />
<path d="M267.7,450.1l0,-0.1l-1.9,-0.6c-0.2,0,-0.4,-0.3,-0.4,-0.5l0,-6.7c0,-0.3,0.2,-0.4,0.4,-0.3" class="g15_13" />
<path d="M267.7,450.1c0.2,0,0.3,-0.2,0.3,-0.4l0,-6.6c0.1,-0.2,0,-0.5,-0.2,-0.6l-2,-0.6c-0.2,-0.1,-0.2,0,-0.2,0" class="g15_13" />
<path d="M267.9,450c0,0,-0.1,0,-0.1,0l-2,-0.6c-0.1,-0.1,-0.3,-0.4,-0.3,-0.5l0,-6.7c0,-0.2,0,-0.3,0.2,-0.3" class="g15_13" />
<path d="M227.9,428.8c0,0,0,0.3,0.2,0.3" class="g15_13" />
<path d="M227.9,429c0,0,0,-0.1,0,-0.1" class="g15_13" />
<path d="M228.2,428.8c0.1,0.1,0.1,0.1,0.3,0.2" class="g15_13" />
<path d="M271.5,444.5l0,6" class="g15_13" />
<path d="M291.8,447.9c3,-1.1,7.2,-1.6,11.7,-1.6c10.1,0,17.7,3,17.4,7.3" class="g15_13" />
<path d="M320.8,454.4c-0.9,3.7,-8.3,6.6,-17.3,6.6c-6.4,0,-11.9,-1.5,-14.8,-3.6c-1,-0.7,-1.3,-1.5,-1.5,-2.4" class="g15_13" />
<path d="M320.9,453.6c0,0.3,0,0.6,-0.1,0.8" class="g15_13" />
<path d="M320.8,456.1c-0.9,3.7,-8.3,6.6,-17.3,6.6c-6.4,0,-11.9,-1.5,-14.8,-3.7c-0.9,-0.7,-1.3,-1.4,-1.5,-2.2" class="g15_13" />
<path d="M320.8,457.8c-0.9,3.7,-8.4,6.5,-17.4,6.5c-6.4,0,-11.9,-1.5,-14.8,-3.6c-0.9,-0.7,-1.2,-1.4,-1.4,-2.2" class="g15_13" />
<path d="M320.8,459.5c-0.9,3.7,-8.3,6.5,-17.3,6.5c-6.3,0,-11.8,-1.5,-14.8,-3.6c-1.6,-1.2,-1.7,-2.6,-1.4,-3.8" class="g15_13" />
<path d="M289.1,454.4c0,-2.4,6.7,-4.7,14.5,-4.5c7.8,0.1,14.6,2.6,15.1,4.6" class="g15_13" />
<path d="M318.9,453.6c0,2.4,-7.3,5.2,-15.3,5.2c-8,0,-14.5,-2.1,-14.5,-4.4" class="g15_13" />
<path d="M289.4,455.1c1.4,-2,7.4,-3.6,14.2,-3.5c6.5,0.1,12.3,1.9,14.3,3.6" class="g15_13" />
<path d="M290.3,456.1c2.3,-1.7,7.5,-2.9,13.5,-2.8c5.4,0.1,10.3,1.3,13,2.7" class="g15_13" />
<path d="M291.8,456.9c2.7,-1.2,7.1,-2,11.9,-1.9c4.4,0,8.4,0.8,11.2,1.9" class="g15_13" />
<path d="M292.5,449.9c2.6,-1.1,6.7,-1.8,11.1,-1.7c7.9,0.2,14.7,2.6,15.1,4.6" class="g15_13" />
<path d="M318.7,452.8c0,0,0.2,0.3,0.2,0.8" class="g15_13" />
<path d="M292.5,449.9l-3.6,1.3" class="g15_13" />
<path d="M288.9,451.2c0,0,-2.3,1.3,-1.7,3.8" class="g15_13" />
<path d="M287.2,455.2c0,0,-0.2,0.5,0,1.6" class="g15_13" />
<path d="M287.2,456.9c0,0,-0.2,0.6,0,1.6" class="g15_13" />
<path d="M320.8,454.4c0,0,0.2,0.4,0,1.7" class="g15_13" />
<path d="M320.8,456.1c0,0,0.2,0.4,0,1.7" class="g15_13" />
<path d="M320.8,457.8c0,0,0.3,0.4,0,1.7" class="g15_13" />
<g clip-path="url(#c1_13)">
<path d="M320.8,459.5c0,0,1,2.8,-2.9,5.1" class="g15_13" />
</g>
<path d="M317.9,464.6l-1.3,0.6l-17.9,7.9" class="g15_13" />
<path d="M312.1,465.1L298,471.2" class="g15_13" />
<path d="M232,434.9c0.1,-0.9,-0.4,-1.1,-0.4,-1.1l-0.7,-0.2" class="g15_13" />
<path d="M231.7,435.3c0.2,-0.1,0.3,-0.2,0.3,-0.4" class="g15_13" />
<path d="M235.8,435.2l0,1.5l0.6,0.2" class="g15_13" />
<path d="M235.8,435.2l0.7,0.2" class="g15_13" />
<path d="M235.8,435.2l0.2,0.1l0,1.2l-0.2,0.2" class="g15_13" />
<path d="M236,435.3l0.2,0.1l0,1l-0.2,0.1" class="g15_13" />
<path d="M236,436.5l0.5,0.2" class="g15_13" />
<path d="M236.2,436.4c0,0,0.4,0.2,0.5,0.2" class="g15_13" />
<path d="M236.2,436.4l0.7,-0.3" class="g15_13" />
<path d="M236.4,436.9c0,0,0.4,0.1,0.5,-0.5" class="g15_13" />
<path d="M236.5,436.7c0,0,0.3,0,0.4,-0.3" class="g15_13" />
<path d="M239,438.7l-1.4,-0.4l0,-0.9l0.2,0.2l0,0.5l1.2,0.4l0,-0.1L237.9,438l0.6,-0.2l-0.6,-0.2l0,0.4l-0.1,0.1l-0.2,0.2" class="g15_13" />
<path d="M237.6,437.4l1.4,0.5l0,0.8" class="g15_13" />
<path d="M239.1,436.1l-1.7,-0.6l0,-0.8l0.3,0.1l0,0.6l0.1,-0.1l0.5,-0.3l-0.5,-0.1l0,0.4l1.3,0.4l0,0.1l-1.4,-0.4l-0.3,0.1" class="g15_13" />
<path d="M237.5,434.7l1.6,0.5l0,0.8" class="g15_13" />
<path d="M236.9,436.5c0.1,-0.9,-0.4,-1.1,-0.4,-1.1l-0.7,-0.2" class="g15_13" />
<path d="M236.6,436.9c0.2,-0.1,0.3,-0.2,0.3,-0.4" class="g15_13" />
<path d="M261.5,443.5l0,2" class="g15_13" />
<path d="M260.8,442.6l0.5,0.1" class="g15_13" />
<path d="M260.8,445.7l0.6,0.1" class="g15_13" />
<path d="M260.9,445.6l0.5,0.1" class="g15_13" />
<path d="M261.6,445.5c0,0,-0.2,0.2,-0.2,0.3" class="g15_13" />
<path d="M261.3,442.7c0,0,0.1,0.3,0.3,0.5" class="g15_13" />
<path d="M260.9,442.7c0,0,0,2.9,0,2.9l0.7,-0.3" class="g15_13" />
<path d="M260.8,442.6l0,3.1" class="g15_13" />
<path d="M261.6,445.5l0.4,-0.1" class="g15_13" />
<path d="M261.4,445.8l0.3,0" class="g15_13" />
<path d="M261.7,445.8c0,0,0,-0.2,0.3,-0.4" class="g15_13" />
<path d="M262,445.4l0,-2.4" class="g15_13" />
<path d="M261,442.2l0.7,0.3" class="g15_13" />
<path d="M261.7,442.5c0,0,0,0.3,0.3,0.5" class="g15_13" />
<path d="M260.8,442.6l0.5,-0.3" class="g15_13" />
<path d="M260.9,442.5l0,-0.3" class="g15_13" />
<path d="M261.3,442.7l0.5,-0.1" class="g15_13" />
<path d="M261.6,443.2l0.4,-0.1" class="g15_13" />
<path d="M261.9,443.5l-0.1,0.1l0.1,0l0,0.3l-0.1,0l0,0.1l0.2,0" class="g15_13" />
<path d="M262,444.5l-0.2,0.1l0,0.1l0.1,0l0,0.3l-0.1,0l0,0.1l0.2,0" class="g15_13" />
<path d="M261.5,443.1l-0.1,2.1l0.2,0" class="g15_13" />
<path d="M261.5,443.1l-0.5,0.2" class="g15_13" />
<path d="M261.4,443.6l-0.4,0.2" class="g15_13" />
<path d="M261.4,444.2l-0.4,0.2" class="g15_13" />
<path d="M261.4,444.6l-0.4,0.2" class="g15_13" />
<path d="M262.3,448.3l-0.1,0l-1.9,-0.6c-0.1,-0.1,-0.3,-0.4,-0.3,-0.5l0,-6.8c0,-0.2,0.2,-0.3,0.3,-0.3" class="g15_13" />
<path d="M262.3,448.3c0.2,0,0.3,-0.2,0.3,-0.3l0,-6.7c0,-0.2,-0.1,-0.4,-0.3,-0.5l-2,-0.7c-0.1,0,-0.2,0.1,-0.2,0.1" class="g15_13" />
<path d="M262.5,448.2c-0.1,0.1,-0.1,0.1,-0.2,0.1l-1.9,-0.7c-0.2,0,-0.3,-0.3,-0.3,-0.5l0,-6.7c0,-0.1,0,-0.2,0.1,-0.3" class="g15_13" />
<path d="M283.4,448.5c1.5,0.6,3.9,1.3,8.4,-0.6" class="g15_13" />
<path d="M280.4,449.8c2.7,0.9,6.7,2.1,9.9,0.9" class="g15_13" />
<path d="M274.4,455.1c-0.1,0.1,-0.5,0.1,-0.8,0L226.2,439.7c-0.2,-0.1,-0.5,-0.4,-0.5,-0.7l0,-12.7c0,-0.2,0.1,-0.4,0.5,-0.6" class="g15_13" />
<path d="M225.8,426c0.1,-0.1,0.2,-0.1,0.4,-0.1l47.2,15.4c0.4,0.1,0.7,0.6,0.7,1l0,12.4c0,0.2,0,0.3,-0.1,0.4" class="g15_13" />
<path d="M226.2,425.7c0.1,-0.1,0.2,-0.1,0.3,-0.1l47.3,15.5c0.4,0.1,0.7,0.6,0.7,1l0,12.7c0,0.1,0,0.2,-0.1,0.3" class="g15_13" />
<path d="M271.7,452.1c-0.1,0.1,-0.2,0.1,-0.3,0.1l-43.1,-14c-0.3,-0.1,-0.5,-0.4,-0.5,-0.7l0,-8.3c0,-0.2,0,-0.3,0.1,-0.4" class="g15_13" />
<path d="M227.9,428.8c0.1,0,0.2,-0.1,0.4,0l43.1,14c0.2,0.1,0.5,0.4,0.5,0.7l0,8.3c0,0.1,-0.1,0.2,-0.2,0.3" class="g15_13" />
<path d="M274.5,452.4l10.1,-4.5c0,0,0.4,-0.2,0.4,-0.7c0,-0.6,0,-8.7,0,-8.7c0,0,0,-0.9,-0.6,-1.1c0,0,-7.3,-2.3,-7.4,-2.3c-0.4,-0.2,-0.6,0,-0.7,0c-0.2,0.1,-0.6,0.3,-0.6,0.3c0,0,-0.1,0.1,-0.6,-0.1c-0.5,-0.1,-4.2,-1.3,-4.2,-1.3" class="g15_13" />
<path d="M272.9,433.2c-0.1,0,-0.1,0,-0.2,0c-0.2,0.1,-3.6,1.6,-3.6,1.6c0,0,-0.2,0,-0.4,0C268.5,434.7,244,426.9,244,426.9c0,0,-0.2,-0.1,-0.2,-0.1" class="g15_13" />
<path d="M272.9,434.6l0,-1.3c0,0,0,-0.1,0,-0.1" class="g15_13" />
<path d="M229.8,426.7l9.1,-3.7c0.1,0,0.2,0,0.4,0c0.1,0,4.4,1.4,4.4,1.4" class="g15_13" />
<path d="M273.2,434.7l0,-1.4c0,-0.1,-0.1,-0.3,-0.1,-0.4" class="g15_13" />
<path d="M268.9,434.5c0,0,0.1,0,0.1,0c0.2,-0.1,3.8,-1.6,3.8,-1.6c0,0,0.2,-0.1,0.3,0" class="g15_13" />
<path d="M268.9,434.5c-0.1,0,-0.1,-0.2,-0.1,-0.2l0,-2.6c0,-0.8,-0.5,-0.9,-0.5,-0.9c0,0,-23.6,-7.6,-23.8,-7.6c-0.2,-0.1,-0.3,0,-0.3,0c0,0,-0.1,0,-0.3,0.1c-0.2,0.1,-0.2,0.4,-0.2,0.4l0,2.9c0,0.1,0,0.1,0.1,0.2" class="g15_13" />
<path d="M273,432.9l-3.8,-1.3" class="g15_13" />
<path d="M274.8,442.2l9.6,-4" class="g15_13" />
<path d="M274.7,444.2c-0.1,0,-0.2,-0.2,-0.1,-0.4c0.1,-0.1,0.3,-0.2,0.4,-0.2" class="g15_13" />
<path d="M275,443.6c0.1,0.1,0.1,0.3,0,0.4c-0.1,0.2,-0.2,0.3,-0.3,0.2" class="g15_13" />
<path d="M274.7,451c-0.1,-0.1,-0.2,-0.3,-0.1,-0.4c0.1,-0.2,0.3,-0.3,0.4,-0.2" class="g15_13" />
<path d="M275,450.4c0.1,0,0.1,0.2,0,0.4c-0.1,0.1,-0.2,0.2,-0.3,0.2" class="g15_13" />
<path d="M269,434.8c-0.2,0,-0.4,0,-0.4,-0.3l0,-2.9c0,0,0.1,-0.5,-0.5,-0.7c-0.6,-0.3,-23.7,-7.6,-23.7,-7.6c0,0,-0.3,-0.1,-0.5,0" class="g15_13" />
<path d="M266.3,432.7c-0.1,0,-0.3,-0.1,-0.4,-0.3c-0.1,-0.2,0,-0.4,0.1,-0.5" class="g15_13" />
<path d="M266,431.9c0.1,-0.1,0.3,0.1,0.4,0.3c0.1,0.2,0.1,0.4,-0.1,0.5" class="g15_13" />
<path d="M266,431.8c-0.2,0.1,-0.2,0.4,-0.1,0.6c0.1,0.3,0.4,0.4,0.6,0.3" class="g15_13" />
<path d="M266,431.8c0.2,-0.1,0.4,0.1,0.6,0.3c0.1,0.3,0,0.6,-0.1,0.6" class="g15_13" />
<path d="M266.2,431.7c0.1,0,0.4,0.1,0.5,0.4c0.1,0.2,0.1,0.5,-0.1,0.6" class="g15_13" />
<path d="M266.8,433.1c-0.3,0.1,-0.8,-0.1,-1,-0.6c-0.2,-0.5,-0.2,-1,0.2,-1.1" class="g15_13" />
<path d="M266,431.4c0.3,-0.2,0.7,0.1,1,0.5c0.2,0.5,0.1,1,-0.2,1.2" class="g15_13" />
<path d="M266.3,431.2c0.3,-0.1,0.8,0.1,1,0.6c0.2,0.5,0.1,1,-0.2,1.1" class="g15_13" />
<path d="M266,431.4l0.3,-0.2" class="g15_13" />
<path d="M266.8,433.1l0.3,-0.2" class="g15_13" />
<path d="M266,431.8l0.2,-0.1" class="g15_13" />
<path d="M266.5,432.7l0.1,0" class="g15_13" />
<path d="M269.6,430.3c0.2,-0.1,0.4,0.1,0.5,0.3c0.2,0.3,0.1,0.6,-0.1,0.7" class="g15_13" />
<path d="M269.3,430.4c0.2,-0.1,0.4,0.1,0.6,0.3c0.1,0.3,0,0.6,-0.1,0.7" class="g15_13" />
<path d="M269,430.5c0.2,-0.1,0.5,0.1,0.6,0.4c0.1,0.2,0.1,0.5,-0.1,0.6" class="g15_13" />
<path d="M268.7,430.7c0.2,-0.1,0.5,0,0.6,0.3c0.1,0.3,0.1,0.5,-0.1,0.6" class="g15_13" />
<path d="M268.4,430.8c0.2,-0.1,0.5,0,0.6,0.3c0.1,0.3,0.1,0.6,-0.1,0.6" class="g15_13" />
<path d="M269.6,430.3l-1.2,0.5" class="g15_13" />
<path d="M270,431.3l-1.1,0.4" class="g15_13" />
<path d="M270.3,431.7c-0.3,0.1,-0.6,0,-0.8,-0.2m-0.4,-1c-0.1,-0.3,0.1,-0.6,0.3,-0.7" class="g15_13" />
<path d="M269.4,429.8c0.4,-0.2,0.8,0.1,1.1,0.7c0.2,0.5,0.1,1.1,-0.2,1.2" class="g15_13" />
<path d="M269.7,429.7c0.3,-0.2,0.8,0.1,1.1,0.6c0.2,0.6,0.1,1.1,-0.2,1.3" class="g15_13" />
<path d="M269.4,429.8l0.3,-0.1" class="g15_13" />
<path d="M270.3,431.7l0.3,-0.1" class="g15_13" />
<path d="M245.3,426c-0.2,0,-0.4,-0.1,-0.5,-0.3c-0.1,-0.2,0,-0.4,0.1,-0.5" class="g15_13" />
<path d="M244.9,425.2c0.1,0,0.3,0.1,0.4,0.3c0.1,0.2,0.1,0.4,0,0.5" class="g15_13" />
<path d="M244.9,425.1c-0.2,0.1,-0.2,0.4,-0.1,0.6c0.1,0.3,0.4,0.5,0.6,0.4" class="g15_13" />
<path d="M244.9,425.1c0.2,-0.1,0.4,0.1,0.6,0.3c0.1,0.3,0,0.6,-0.1,0.7" class="g15_13" />
<path d="M245.1,425.1c0.1,-0.1,0.4,0,0.5,0.3c0.1,0.2,0.1,0.5,-0.1,0.6" class="g15_13" />
<path d="M245.7,426.4c-0.3,0.2,-0.8,-0.1,-1,-0.6c-0.2,-0.5,-0.2,-1,0.2,-1.1" class="g15_13" />
<path d="M244.9,424.7c0.3,-0.2,0.7,0.1,1,0.6c0.2,0.4,0.1,1,-0.2,1.1" class="g15_13" />
<path d="M245.2,424.5c0.3,-0.1,0.8,0.1,1,0.6c0.2,0.5,0.2,1,-0.2,1.2" class="g15_13" />
<path d="M244.9,424.7l0.3,-0.2" class="g15_13" />
<path d="M245.7,426.4l0.3,-0.1" class="g15_13" />
<path d="M244.9,425.1l0.2,0" class="g15_13" />
<path d="M245.4,426.1l0.1,-0.1" class="g15_13" />
<path d="M248.5,423.6c0.2,-0.1,0.4,0.1,0.5,0.3c0.2,0.3,0.1,0.6,-0.1,0.7" class="g15_13" />
<path d="M248.2,423.7c0.2,0,0.4,0.1,0.6,0.4c0,0.1,0.1,0.3,0,0.5" class="g15_13" />
<path d="M248,423.9c0.1,-0.1,0.4,0,0.5,0.3c0,0.1,0.1,0.2,0.1,0.3" class="g15_13" />
<path d="M247.6,424c0.2,-0.1,0.5,0,0.6,0.3c0,0,0,0.1,0,0.1" class="g15_13" />
<path d="M247.4,424.1c0.1,0,0.2,0,0.3,0.1" class="g15_13" />
<path d="M248.5,423.6l-1.1,0.5" class="g15_13" />
<path d="M249,424.6l-0.1,0" class="g15_13" />
<path d="M248,423.8c-0.1,-0.3,0.1,-0.6,0.3,-0.7" class="g15_13" />
<path d="M248.3,423.1c0.4,-0.1,0.9,0.2,1.1,0.7c0.2,0.3,0.2,0.7,0.1,1" class="g15_13" />
<path d="M248.6,423c0.4,-0.2,0.8,0.1,1.1,0.7c0.2,0.4,0.2,0.9,-0.1,1.1" class="g15_13" />
<path d="M248.3,423.1l0.3,-0.1" class="g15_13" />
<path d="M252.7,439.8l2,0.6c0,0,0.1,0.1,0.1,0.2l0,1.1c0,0,-0.1,0.1,-0.1,0.1l-2,-0.7c-0.1,0,-0.1,-0.1,-0.1,-0.1l0,-1.1c0,-0.1,0,-0.2,0.1,-0.1Z" class="g15_13" />
<path d="M254.8,441.5L253,440.9c-0.1,0,-0.2,0,-0.2,-0.1l0,-1" class="g15_13" />
<path d="M254.8,440.9c0,0,-0.1,0,-0.1,0l-1.5,-0.5c0,0,-0.1,-0.1,-0.1,-0.1l0,-0.2l0.1,-0.2" class="g15_13" />
<path d="M252.6,441l0.2,-0.1" class="g15_13" />
<path d="M252.9,440.8l0.7,-0.3" class="g15_13" />
<path d="M253.2,440.1l1.5,0.5c0,0,0.1,0,0.1,0l0,0.2c0,0,-0.1,0,-0.1,0l-1.5,-0.5l0,-0.2Z" class="g15_13" />
<path d="M253.2,440.1l0,-0.2" class="g15_13" />
<path d="M252.7,441.6l2,0.6c0,0.1,0.1,0.1,0.1,0.2l0,1.1c0,0.1,-0.1,0.1,-0.1,0.1l-2,-0.6c-0.1,-0.1,-0.1,-0.1,-0.1,-0.2l0,-1.1c0,-0.1,0,-0.1,0.1,-0.1Z" class="g15_13" />
<path d="M254.8,443.4L253,442.8c-0.1,0,-0.2,-0.1,-0.2,-0.2l0,-0.9" class="g15_13" />
<path d="M254.8,442.7c0,0,-0.1,0,-0.1,0l-1.5,-0.5c0,0,-0.1,0,-0.1,-0.1l0,-0.2l0.1,-0.1" class="g15_13" />
<path d="M252.6,442.8l0.2,-0.1" class="g15_13" />
<path d="M252.9,442.7l0.7,-0.3" class="g15_13" />
<path d="M253.2,441.9l1.5,0.5c0,0,0.1,0,0.1,0l0,0.2c0,0,-0.1,0,-0.1,0l-1.5,-0.4c0,0,0,-0.1,0,-0.1l0,-0.2Z" class="g15_13" />
<path d="M253.2,441.9l0,-0.1" class="g15_13" />
<g clip-path="url(#c1_13)">
<path d="M284,476.5l-0.3,0.2l0,4.2l3.2,1l0.4,-0.1l0.3,0.1c0,0,0.1,0,0.2,0c0.2,-0.1,5.4,-2.3,5.4,-2.3c0,0,0.4,-0.2,0.6,-0.5c0.2,-0.2,0.5,-0.5,0.5,-0.5c0,0,0.2,-0.3,0.5,-0.4c0.4,-0.2,1.9,-0.8,1.9,-0.8c0,0,0.2,-0.1,0.2,-0.4l0,-4.8c0,0,0.1,-0.2,-0.2,-0.3c-0.3,0,-1.1,-0.3,-1.1,-0.3c0,0,-0.1,0,-0.3,-0.2c-0.1,-0.2,-0.3,-0.6,-0.3,-0.6c0,0,-0.1,-0.1,-0.3,-0.2c-0.2,0,-1.4,-0.4,-1.4,-0.4c0,0,-0.2,-0.1,-0.4,0c-0.2,0.1,-2.6,1.1,-2.6,1.1" class="g15_13" />
</g>
<path d="M289.6,471.1c0.1,0,0.3,0,0.4,0c0.1,0.1,1.1,0.4,1.1,0.4c0,0,0.3,0.1,0.4,0.3c0.1,0.1,0.4,1.2,0.4,1.2" class="g15_13" />
<path d="M290.2,471.2c0,-0.1,-0.1,-0.3,-0.5,-0.5c-0.4,-0.1,-1.7,-0.5,-1.7,-0.5c0,0,-0.2,-0.1,-0.5,0.1c-0.3,0.1,-2.9,1.1,-2.9,1.1c0,0,-0.7,0.4,-0.7,1.4l0,3.8" class="g15_13" />
<path d="M293.4,473.5l3.3,-1.4" class="g15_13" />
<g clip-path="url(#c1_13)">
<path d="M291.3,471.6c0,0,-0.2,-0.1,-0.5,0.1c-0.3,0.1,-2.4,1,-2.4,1c0,0,-0.8,0.3,-0.8,1.3l0,7.7c0,0,0,0.2,0.2,0.2" class="g15_13" />
</g>
<path d="M291.8,472.1l3,-1.3" class="g15_13" />
<path d="M292,472.9l3.4,-1.3" class="g15_13" />
<path d="M284,476.5l3.3,1l0,1.1" class="g15_13" />
<path d="M283.7,476.7l3.2,1l0.4,-0.2l-0.4,0.2l0,4.2" class="g15_13" />
<path d="M287.3,481.8l0,-1l-0.2,-0.1" class="g15_13" />
<path d="M287.1,480.8l0,-2.1l0.2,-0.1" class="g15_13" />
<path d="M287.1,480.8l0.2,0" class="g15_13" />
<path d="M284.3,478.3c0.5,0.1,0.9,0.4,1.1,0.7" class="g15_13" />
<path d="M284.3,479.7c0.5,0.1,0.9,0.3,1.1,0.6" class="g15_13" />
<path d="M285.4,480.3c0.3,0.1,0.8,0,0.9,-0.1" class="g15_13" />
<path d="M285.4,479c0.3,0,0.8,0,0.9,-0.1" class="g15_13" />
<path d="M286.4,480.4l0,-1.5l-0.2,-0.1" class="g15_13" />
<path d="M284.5,478.5l0,1" class="g15_13" />
<path d="M284.9,478.4c0.2,0.1,0.5,0.3,0.6,0.5" class="g15_13" />
<path d="M284.9,478.2c0.2,0,0.5,0.2,0.6,0.4" class="g15_13" />
<path d="M285.5,478.6c0.2,0,0.6,0,0.7,0" class="g15_13" />
<path d="M285.5,478.9c0.2,0,0.6,0,0.7,-0.1" class="g15_13" />
<path d="M284.9,478.2l1.3,0.4l0,0.2l0,-0.2l-1.3,-0.4Z" class="g15_13" />
<path d="M284.9,480.2c0.2,0.1,0.5,0.3,0.6,0.5" class="g15_13" />
<path d="M284.9,480c0.2,0,0.5,0.2,0.6,0.4" class="g15_13" />
<path d="M285.5,480.4c0.2,0,0.6,0,0.7,0" class="g15_13" />
<path d="M285.5,480.7c0.2,0,0.6,0,0.7,-0.1" class="g15_13" />
<path d="M286,480.3l0.2,0.1l0,0.2l0,-0.2L286,480.3Z" class="g15_13" />
<path d="M284.5,480.5l0,-1" class="g15_13" />
<path d="M285.5,480.5l0,-2" class="g15_13" />
<path d="M286.4,478.9l-0.2,-0.1m-1.3,-0.4l-0.6,-0.2l0,1.5" class="g15_13" />
<path d="M286.4,480.4l-0.3,-0.1M285,480l-0.7,-0.3" class="g15_13" />
<path d="M284.3,472.2l3.3,1" class="g15_13" />
<path d="M295.2,471.1l1.7,-0.3c0,0,0.4,-0.1,0.7,0.2c0.4,0.2,0.7,0.5,0.9,0.9c0.2,0.5,0.3,1.1,0.2,1.5c-0.1,0.4,-0.3,0.6,-0.5,0.8c-0.2,0.2,-1.3,0.9,-1.3,0.9" class="g15_13" />
<path d="M288.5,474.9l2.6,0.9l0.2,-0.1l0.3,-0.3l0,-0.6l-0.3,-0.6l-2.6,-0.8" class="g15_13" />
<path d="M288.7,473.4l-0.2,0.1l0,1.4" class="g15_13" />
<path d="M288.5,473.5l2.6,0.8l0.3,0.6l0,0.5l-0.3,0.4" class="g15_13" />
<path d="M291.4,474.9l0.2,-0.1" class="g15_13" />
<path d="M291.4,475.4l0.2,-0.1" class="g15_13" />
<path d="M291.1,474.3l0.2,-0.1" class="g15_13" />
<path d="M291,475.4c-0.2,0,-0.3,-0.1,-0.4,-0.3c-0.1,-0.2,-0.1,-0.5,0.1,-0.5" class="g15_13" />
<path d="M290.7,474.6c0.1,-0.1,0.3,0.1,0.4,0.3c0.1,0.2,0,0.4,-0.1,0.5" class="g15_13" />
<path d="M291.1,475.3c-0.1,0,-0.2,-0.1,-0.3,-0.3c0,-0.2,0,-0.3,0,-0.4" class="g15_13" />
<path d="M291.5,474.4l1.5,0.5l0.2,-0.1l0.4,-0.3l0,-0.5l-0.4,-0.6l-2.5,-0.8" class="g15_13" />
<path d="M290.7,472.6l-0.3,0.1l0,1.2" class="g15_13" />
<path d="M290.4,472.7l2.6,0.8l0.4,0.6l0,0.5l-0.4,0.3" class="g15_13" />
<path d="M293.4,474.1l0.2,-0.1" class="g15_13" />
<path d="M293.4,474.6l0.2,-0.1" class="g15_13" />
<path d="M293,473.5l0.2,-0.1" class="g15_13" />
<path d="M292.9,474.6c-0.1,0,-0.3,-0.1,-0.4,-0.4c-0.1,-0.2,0,-0.4,0.1,-0.5" class="g15_13" />
<path d="M292.6,473.7c0.2,0,0.4,0.1,0.4,0.4c0.1,0.2,0.1,0.4,-0.1,0.5" class="g15_13" />
<path d="M293,474.5c-0.1,-0.1,-0.2,-0.2,-0.2,-0.3c-0.1,-0.2,-0.1,-0.3,0,-0.4" class="g15_13" />
<path d="M289.4,477c-0.2,0,-0.2,-0.3,-0.2,-0.6c0.1,-0.3,0.3,-0.5,0.5,-0.5" class="g15_13" />
<path d="M289.7,475.9l3.2,1" class="g15_13" />
<path d="M289.4,477l3.2,1c0.3,0.1,0.6,0,0.7,-0.3c0.1,-0.3,0,-0.6,-0.4,-0.8" class="g15_13" />
<path d="M273.1,432.9c0,0,-0.1,0,-0.1,-0.1" class="g15_13" />
<path d="M273.2,433.8l0.7,0.3c0,0,0.1,0,0.1,0.1l0,0.4c0,0,0,0.1,-0.1,0.2c-0.1,0,-0.2,0.1,-0.3,0.1" class="g15_13" />
<path d="M274,434.1c0,0.1,0,0.2,-0.2,0.2c-0.1,0,-0.3,0.2,-0.6,0.2" class="g15_13" />
<path d="M240.7,436.7l0,1.6l0.6,0.2" class="g15_13" />
<path d="M240.7,436.7l0.7,0.3" class="g15_13" />
<path d="M240.7,436.7l0.2,0.2l0,1.2l-0.2,0.2" class="g15_13" />
<path d="M240.9,436.9l0.2,0l0,1.1l-0.2,0.1" class="g15_13" />
<path d="M240.9,438.1l0.5,0.2" class="g15_13" />
<path d="M241.1,438c0,0,0.4,0.2,0.5,0.2" class="g15_13" />
<path d="M241.1,438l0.7,-0.3" class="g15_13" />
<path d="M241.3,438.5c0,0,0.4,0.1,0.5,-0.5" class="g15_13" />
<path d="M241.4,438.3c0,0,0.2,0,0.4,-0.3" class="g15_13" />
<path d="M243.9,440.3l-1.5,-0.5l0.1,-0.8l0.2,0.2l0,0.5l1.2,0.4l0,-0.1l-1.1,-0.4l0.6,-0.2l-0.6,-0.2l0,0.4l-0.1,0.1l-0.2,0.1" class="g15_13" />
<path d="M242.5,439l1.4,0.5l0,0.8" class="g15_13" />
<path d="M244,437.7l-1.7,-0.6l0,-0.8l0.3,0.1l0,0.5l0.1,0l0.5,-0.3l-0.5,-0.1l0,0.4l1.3,0.4l0,0.1l-1.4,-0.5l-0.3,0.2" class="g15_13" />
<path d="M242.4,436.3l1.6,0.5l0,0.8" class="g15_13" />
<path d="M241.8,438.1c0.1,-0.9,-0.4,-1.1,-0.4,-1.1l-0.7,-0.3" class="g15_13" />
<path d="M241.5,438.5c0.2,-0.1,0.3,-0.3,0.3,-0.4" class="g15_13" />
<path d="M245.5,438.3l0.1,1.6l0.5,0.2" class="g15_13" />
<path d="M245.5,438.3l0.8,0.3" class="g15_13" />
<path d="M245.5,438.3l0.3,0.2l0,1.2l-0.2,0.2" class="g15_13" />
<path d="M245.8,438.5l0.1,0l0,1.1l-0.1,0.1" class="g15_13" />
<path d="M245.8,439.7l0.5,0.2" class="g15_13" />
<path d="M245.9,439.6c0,0,0.5,0.2,0.6,0.2" class="g15_13" />
<path d="M245.9,439.6l0.8,-0.3" class="g15_13" />
<path d="M246.1,440.1c0,0,0.5,0.1,0.6,-0.5" class="g15_13" />
<path d="M246.3,439.9c0,0,0.2,0,0.4,-0.3" class="g15_13" />
<path d="M248.7,441.9l-1.4,-0.5l0,-0.8l0.3,0.2l0,0.5l1.2,0.4l0,-0.1l-1.1,-0.4l0.5,-0.2l-0.5,-0.2l0,0.4l-0.1,0.1l-0.2,0.1" class="g15_13" />
<path d="M247.4,440.6l1.4,0.5l0,0.8" class="g15_13" />
<path d="M248.8,439.2l-1.6,-0.5l0,-0.8l0.3,0.1l-0.1,0.5l0.2,0l0.5,-0.3l-0.5,-0.1l0,0.4l1.3,0.4l0,0.1l-1.5,-0.5l-0.2,0.2" class="g15_13" />
<path d="M247.2,437.9l1.7,0.5l0,0.8" class="g15_13" />
<path d="M246.7,439.6c0.1,-0.8,-0.4,-1,-0.4,-1l-0.8,-0.3" class="g15_13" />
<path d="M246.4,440.1c0.2,-0.1,0.3,-0.3,0.3,-0.5" class="g15_13" />
<path d="M219.6,579.4l-0.3,0l-0.7,-0.9l3.6,-9.7l13,-0.2" class="g15_13" />
<path d="M219.3,579.4l3.5,-9.7l13.1,-0.1l-0.6,-1m-12.5,1.1l-0.6,-0.9" class="g16_13" />
<path d="M239.7,571c0,0,0.7,1.1,0.9,1.2c0.1,0.2,0.1,0.5,0,0.8l-2,5.3c-0.2,0.6,-0.9,1.1,-1.6,1.1l-15.1,0c-0.3,0,-0.6,-0.2,-0.7,-0.4c-0.2,-0.1,-0.9,-1.1,-0.9,-1.1" class="g15_13" />
<path d="M221.2,579c-0.2,-0.1,-0.2,-0.4,-0.1,-0.7l2,-5.3c0.2,-0.6,0.9,-1.1,1.6,-1.1l15.1,0c0.4,0,0.6,0.1,0.8,0.3m-20.3,5.7c-0.1,-0.2,-0.1,-0.5,0,-0.7l2,-5.4c0.2,-0.5,0.9,-1,1.6,-1l15.1,0c0.3,0,0.6,0.1,0.7,0.2m-16,8.4c0,0.5,-0.3,1.2,-1,1.7c-0.9,0.6,-2,0.6,-2.4,0" class="g16_13" />
<path d="M220.3,581.1c-0.4,-0.6,-0.1,-1.6,0.8,-2.2m3.4,0.5c-0.1,0.7,-0.6,1.6,-1.5,2.2c-1.3,0.9,-2.8,0.8,-3.4,-0.1" class="g15_13" />
<path d="M219.6,581.5c-0.6,-0.8,-0.1,-2.2,1.1,-3.1" class="g16_13" />
<path d="M220.3,574c-0.6,0.1,-1.3,0.3,-1.9,0.7c-1.3,0.9,-1.8,2.3,-1.2,3.2c0.6,0.9,2.4,3.6,2.4,3.6" class="g15_13" />
<path d="M240,568c0.4,0.6,0.1,1.6,-0.8,2.2c-0.9,0.6,-1.9,0.6,-2.3,0" class="g16_13" />
<path d="M236.9,570.2c-0.5,-0.6,-0.1,-1.6,0.8,-2.2c0.9,-0.6,1.9,-0.6,2.3,0m0.8,-0.4c0.4,0.5,0.3,1.2,0,1.9" class="g15_13" />
<path d="M235.9,569.6c0.1,-0.7,0.7,-1.5,1.5,-2.1c1.3,-0.8,2.8,-0.8,3.4,0.1" class="g16_13" />
<path d="M233.8,567.1c0.6,0.9,1,1.5,1,1.5m3.6,-4.7c-0.6,-0.9,-2.1,-0.9,-3.4,0c-1.3,0.9,-1.9,2.3,-1.2,3.2m7,2.4l0.3,0l-0.9,2.2m-1.8,-7.8c0.6,0.9,2.4,3.7,2.4,3.7m-4.2,-21.5l7.8,0m-15.6,10.8l-0.4,0L227.8,556l0.3,-0.9l-0.4,-0.7l3,-8.1l0.3,0" class="g15_13" />
<path d="M236.4,547.1l8.7,-0.1l-0.7,-0.9m-16,10.8l3.6,-9.8" class="g16_13" />
<path d="M248.9,548.5c0,0,0.7,1,0.8,1.2c0.2,0.2,0.2,0.4,0.1,0.7l-2,5.3c-0.2,0.6,-0.9,1.1,-1.6,1.1l-15.1,0c-0.4,0,-0.6,-0.1,-0.8,-0.3c-0.1,-0.2,-0.8,-1.2,-0.8,-1.2" class="g15_13" />
<path d="M230.3,556.5c-0.1,-0.2,-0.1,-0.5,0,-0.8l1.9,-5.3c0.3,-0.6,1,-1.1,1.6,-1.1l15.2,0c0.3,0,0.6,0.2,0.7,0.4m-20.2,5.6c-0.1,-0.2,-0.1,-0.4,0,-0.7l1.9,-5.3c0.3,-0.6,1,-1.1,1.6,-1.1l15.2,0c0.3,0,0.5,0.1,0.7,0.3m-16,8.3c0,0.6,-0.4,1.3,-1.1,1.7c-0.9,0.6,-1.9,0.6,-2.4,0" class="g16_13" />
<path d="M229.4,558.5c-0.4,-0.6,0,-1.6,0.8,-2.2m3.4,0.5c0,0.8,-0.6,1.6,-1.4,2.2c-1.3,0.9,-2.9,0.9,-3.5,0" class="g15_13" />
<path d="M228.7,559c-0.6,-0.9,-0.1,-2.3,1.1,-3.2" class="g16_13" />
<path d="M228.7,551.6c-0.4,0.1,-0.8,0.3,-1.1,0.5c-1.3,0.9,-1.9,2.3,-1.3,3.2c0.7,0.9,2.4,3.7,2.4,3.7" class="g15_13" />
<path d="M249.2,545.5c0.4,0.6,0,1.6,-0.9,2.2c-0.8,0.5,-1.9,0.5,-2.3,-0.1" class="g16_13" />
<path d="M246,547.6c-0.4,-0.6,0,-1.6,0.8,-2.2c0.9,-0.5,2,-0.5,2.4,0.1M250,545c0.3,0.5,0.3,1.2,-0.1,1.9" class="g15_13" />
<path d="M245.1,547c0.1,-0.7,0.6,-1.5,1.4,-2c1.3,-0.9,2.8,-0.9,3.5,0" class="g16_13" />
<path d="M242.9,544.5c0.6,0.9,1,1.6,1,1.6m3.7,-4.7c-0.6,-0.9,-2.2,-1,-3.5,-0.1c-1.3,0.9,-1.8,2.3,-1.2,3.2m7,2.4l0.3,0l-0.8,2.3m-1.8,-7.8c0.6,0.9,2.4,3.6,2.4,3.6m-13.6,2.1c0.2,-0.6,0.3,-1.2,0,-1.6c-0.3,-0.4,-5.3,-8,-5.3,-8" class="g15_13" />
<path d="M232,547.1c0.1,-0.6,0.5,-1.2,1.2,-1.6c1.2,-0.8,2.6,-0.8,3.2,0" class="g15_13" />
<path d="M226.8,540.4c-0.6,-0.8,-0.1,-2.1,1.1,-2.9c1.2,-0.8,2.6,-0.8,3.2,0m-0.4,8.8c-0.3,-0.5,-3.9,-5.9,-3.9,-5.9" class="g15_13" />
<path d="M230.6,546.3l0.6,0.8l0.3,-1" class="g16_13" />
<path d="M231.2,547l0.3,-0.8" class="g15_13" />
<path d="M231,546.3l0.3,0.4" class="g16_13" />
<path d="M246.5,556.8c-0.2,0.6,-0.6,1.2,-1.3,1.6c-1.1,0.8,-2.5,0.8,-3,0m-1,-1.6c0.6,0.9,1,1.6,1,1.6m-4.4,-6.9c0.2,0.3,0.6,1,1.2,1.9" class="g15_13" />
<path d="M242.2,558.4c-0.3,-0.5,-0.2,-1.1,0.2,-1.6" class="g15_13" />
<path d="M236.6,554.5l5.7,0l0.8,-0.7l0.5,-0.1l0.8,-2.2" class="g16_13" />
<path d="M236.2,553.8l0.4,0.7" class="g15_13" />
<path d="M235.8,553.7l0.4,0.1" class="g16_13" />
<path d="M244.4,551.5l-7.8,0l-0.8,2.2m0.3,-0.2l5.5,0l0.8,-0.7l0.5,-0.1l0.4,-1.2" class="g15_13" />
<path d="M243.6,553.7l-0.6,-1m0.1,1.1l-0.7,-1m-0.1,1.7l-0.7,-1" class="g16_13" />
<path d="M236.2,553.8l-0.3,-0.5m65.1,-8l7.7,-0.1m-14.7,5l1.9,-4.9M293.2,556l-0.4,0l-0.6,-0.9l1.5,-4" class="g15_13" />
<path d="M300.8,546.2l8.6,0l-0.6,-1m-16,10.8l3.5,-9.7" class="g16_13" />
<path d="M313.2,547.6c0,0,0.8,1,0.9,1.2c0.1,0.2,0.2,0.5,0.1,0.8l-2,5.3c-0.2,0.6,-1,1.1,-1.6,1.1l-15.2,0c-0.3,0,-0.5,-0.2,-0.7,-0.4c-0.1,-0.2,-0.8,-1.2,-0.8,-1.2" class="g15_13" />
<path d="M294.7,555.6c-0.1,-0.2,-0.2,-0.4,-0.1,-0.7l2,-5.3c0.2,-0.6,1,-1.1,1.6,-1.1l15.1,0c0.4,0,0.7,0.1,0.8,0.3m-20.2,5.6c-0.1,-0.1,-0.2,-0.4,-0.1,-0.6l2,-5.4c0.2,-0.6,1,-1,1.6,-1l15.2,0c0.3,0,0.5,0.1,0.6,0.2m-16,8.4c0.1,0.5,-0.3,1.2,-1,1.7c-0.9,0.6,-2,0.6,-2.4,-0.1" class="g16_13" />
<path d="M293.8,557.6c-0.4,-0.6,0,-1.5,0.8,-2.1M298,556c-0.1,0.7,-0.6,1.6,-1.4,2.2c-1.3,0.9,-2.9,0.8,-3.5,-0.1" class="g15_13" />
<path d="M293.1,558.1c-0.6,-0.8,-0.1,-2.2,1.1,-3.1" class="g16_13" />
<path d="M290.8,552.5c-0.4,0.7,-0.4,1.4,-0.1,2c0.6,0.9,2.4,3.6,2.4,3.6" class="g15_13" />
<path d="M313.5,544.6c0.5,0.6,0.1,1.6,-0.8,2.2c-0.9,0.6,-1.9,0.6,-2.3,0" class="g16_13" />
<path d="M310.4,546.8c-0.4,-0.6,-0.1,-1.6,0.8,-2.2c0.9,-0.6,1.9,-0.6,2.3,0m0.8,-0.4c0.4,0.5,0.4,1.2,0,1.9" class="g15_13" />
<path d="M309.4,546.2c0.2,-0.8,0.7,-1.5,1.5,-2.1c1.3,-0.9,2.8,-0.8,3.4,0.1" class="g16_13" />
<path d="M307.3,543.7c0.6,0.9,1,1.5,1,1.5m3.6,-4.7c-0.6,-0.9,-2.1,-0.9,-3.4,0c-1.3,0.8,-1.8,2.3,-1.2,3.2m7,2.4l0.3,0l-0.9,2.2m-1.8,-7.8c0.7,0.9,2.4,3.7,2.4,3.7m-13.5,2c0.2,-0.5,0.2,-1.1,-0.1,-1.6c-0.3,-0.4,-5.2,-7.9,-5.2,-7.9" class="g15_13" />
<path d="M296.3,546.3c0.2,-0.6,0.6,-1.2,1.3,-1.7c1.1,-0.8,2.6,-0.8,3.1,0" class="g15_13" />
<path d="M291.2,539.6c-0.6,-0.8,-0.1,-2.1,1.1,-3c1.2,-0.8,2.6,-0.7,3.2,0.1m0.1,9.4c-0.3,-0.4,-4.5,-6.5,-4.5,-6.5" class="g15_13" />
<path d="M295.6,546.2l0.3,-0.9" class="g16_13" />
<path d="M310.9,556c-0.2,0.5,-0.6,1.1,-1.3,1.5c-1.1,0.8,-2.5,0.8,-3,0m-1,-1.5c0.5,0.9,1,1.5,1,1.5m-5,-7.7c0.2,0.2,1.8,2.8,2.3,3.7" class="g15_13" />
<path d="M306.6,557.5c-0.3,-0.4,-0.2,-1,0.1,-1.6" class="g15_13" />
<path d="M309.4,549.8l-8.3,0l-2,5.7" class="g15_13" />
<path d="M299.1,555.5l8.2,-0.1l2.1,-5.6" class="g16_13" />
<path d="M299.8,553.5l6.3,0l1.4,-3.7" class="g16_13" />
<path d="M307.3,555.4l-1.2,-1.9" class="g16_13" />
<path d="M292.4,568.6l7.8,-0.1" class="g15_13" />
<path d="M292.3,569.5l8.6,-0.1l-0.6,-0.9m-16,10.8l3.5,-9.7" class="g16_13" />
<path d="M304.7,570.9c0,0,0.8,1,0.9,1.2c0.1,0.2,0.1,0.5,0,0.7l-1.9,5.4c-0.3,0.6,-1,1,-1.6,1l-15.2,0c-0.3,0,-0.6,-0.1,-0.7,-0.3c-0.1,-0.2,-0.8,-1.2,-0.8,-1.2" class="g15_13" />
<path d="M286.2,578.9c-0.1,-0.2,-0.2,-0.4,-0.1,-0.7l2,-5.4c0.2,-0.6,0.9,-1,1.6,-1l15.1,0c0.4,0,0.6,0.1,0.8,0.3m-20.2,5.6c-0.1,-0.2,-0.2,-0.4,-0.1,-0.7l2,-5.3c0.2,-0.6,1,-1.1,1.6,-1.1l15.1,0c0.3,0,0.6,0.1,0.7,0.3m-16,8.3c0.1,0.6,-0.3,1.3,-1,1.8c-0.9,0.6,-2,0.5,-2.4,-0.1" class="g16_13" />
<path d="M285.3,580.9c-0.4,-0.6,-0.1,-1.5,0.8,-2.2m3.4,0.6c-0.1,0.7,-0.6,1.6,-1.5,2.2c-1.2,0.8,-2.8,0.8,-3.4,-0.1" class="g15_13" />
<path d="M284.6,581.4c-0.6,-0.9,-0.1,-2.2,1.1,-3.1" class="g16_13" />
<path d="M282.3,575.8c-0.4,0.7,-0.5,1.4,-0.1,2c0.6,0.9,2.4,3.6,2.4,3.6" class="g15_13" />
<path d="M305,567.9c0.5,0.6,0.1,1.6,-0.8,2.2c-0.9,0.6,-1.9,0.6,-2.3,0" class="g16_13" />
<path d="M301.9,570.1c-0.4,-0.7,-0.1,-1.6,0.8,-2.2c0.9,-0.6,1.9,-0.6,2.3,0m0.8,-0.5c0.4,0.6,0.3,1.3,0,1.9" class="g15_13" />
<path d="M300.9,569.4c0.2,-0.7,0.7,-1.4,1.5,-2c1.3,-0.9,2.8,-0.9,3.4,0" class="g16_13" />
<path d="M298.8,567c0.6,0.9,1,1.5,1,1.5m3.6,-4.7c-0.6,-0.9,-2.1,-0.9,-3.4,0c-1.3,0.8,-1.8,2.3,-1.2,3.2m7,2.3l0.3,0l-0.9,2.3m-1.8,-7.8c0.7,0.9,2.4,3.6,2.4,3.6m-13.5,2.1c0.2,-0.6,0.2,-1.1,-0.1,-1.6c-0.3,-0.4,-1.8,-2.7,-1.8,-2.7" class="g15_13" />
<path d="M287.8,569.6c0.2,-0.6,0.6,-1.3,1.3,-1.7c1.1,-0.8,2.6,-0.8,3.1,0" class="g15_13" />
<path d="M286.1,568.1c-0.6,-0.9,-0.1,-2.2,1.1,-3c1.2,-0.8,2.6,-0.8,3.2,0.1m-3.8,3.5c-0.3,-0.4,-0.5,-0.6,-0.5,-0.6" class="g15_13" />
<path d="M287.1,569.4l0.3,-0.8m-0.5,0.1l0.3,0.4" class="g16_13" />
<path d="M302.3,579.2c-0.1,0.6,-0.6,1.2,-1.2,1.6c-1.1,0.8,-2.5,0.8,-3.1,0c-0.5,-0.8,-1,-1.6,-1,-1.6" class="g15_13" />
<path d="M298.1,580.8c-0.3,-0.4,-0.3,-1,0.1,-1.6m5.5,-5.6c0.7,1,0.1,2.6,-1.4,3.6c-0.7,0.4,-1.4,0.7,-2.1,0.7" class="g15_13" />
<path d="M301.8,572.8c0.8,0,1.5,0.2,1.9,0.8" class="g15_13" />
<path d="M289.9,578c-0.7,0,-1.3,-0.2,-1.6,-0.7" class="g16_13" />
<path d="M288.3,577.3c-0.7,-1,-0.1,-2.6,1.3,-3.6c0.7,-0.5,1.5,-0.7,2.2,-0.7" class="g15_13" />
<path d="M302.1,572.8L291.6,573" class="g16_13" />
<path d="M300.2,577.9L290,578" class="g15_13" />
<path d="M302.6,572.9c-0.1,0.8,-0.7,1.7,-1.6,2.3c-0.7,0.5,-1.5,0.7,-2.1,0.7m-10.3,0.2c-0.2,0,-0.4,0,-0.6,-0.1m10.8,-0.1l-10.2,0.2m-3.8,-2.5l1.8,-4.9l0.3,0m-2.2,10.6l-0.4,0l-0.6,-0.9l0.3,-0.8l-0.4,-0.8l0.8,-2.1" class="g15_13" />
<path d="M286.5,568.8l0.6,0.7l0.3,-0.9m3.7,0.3c0.2,0.3,0,0.8,-0.4,1.1c-0.4,0.3,-0.9,0.2,-1.1,0" class="g16_13" />
<path d="M289.6,570c-0.2,-0.3,0,-0.8,0.4,-1.1c0.4,-0.3,0.9,-0.3,1.1,0m9.2,6.4l0.2,0.2m-4.2,0.5c0.3,-0.3,0.5,-0.6,0.9,-0.8c1.1,-0.8,2.5,-0.8,3.1,0.1" class="g15_13" />
<path d="M301,579.2c0,0.3,-0.2,0.6,-0.5,0.9c-0.4,0.2,-0.9,0.2,-1.1,-0.1" class="g16_13" />
<path d="M299.4,580c-0.2,-0.2,-0.1,-0.5,0.1,-0.8" class="g15_13" />
<path d="M301.3,575l0.8,-2.2M272.2,552.6l18.6,-0.1c0.2,0,0.6,-0.2,0.6,-0.8c0,-0.7,-0.3,-0.9,-0.8,-0.9c-0.4,0,-17.8,0,-17.8,0" class="g16_13" />
<path d="M291.3,552.2l3,-1.3M291,550.8l3.2,-0.6" class="g15_13" />
<path d="M294.3,550.9c0.2,-0.1,0.2,-0.9,-0.1,-0.7" class="g16_13" />
<path d="M263.6,575.8l18.6,0c0.2,0,0.7,-0.2,0.6,-0.9c0,-0.7,-0.3,-0.9,-0.7,-0.9c-0.5,0,-17.9,0,-17.9,0" class="g16_13" />
<path d="M282.8,575.4l2.9,-1.3m-3.3,0l3.2,-0.7" class="g15_13" />
<path d="M285.7,574.1c0.3,-0.1,0.2,-0.8,-0.1,-0.7" class="g16_13" />
<path d="M243.6,574.1c0.1,-0.1,0.2,-0.1,0.4,-0.1c0.4,0,18.3,0,18.3,0" class="g15_13" />
<path d="M243.6,574.2c0.1,0.1,0.1,0.3,0.1,0.5c0,0.4,-0.2,0.6,-0.4,0.7" class="g15_13" />
<path d="M262.5,575.8l-18.7,0c-0.1,0,-0.4,-0.1,-0.5,-0.3m-0.1,-0.1l-3.1,-0.9m3.5,-0.4l-3.3,-0.4m11.9,-22.8c0.1,0,0.2,-0.1,0.4,-0.1c0.4,0,18.3,0.1,18.3,0.1" class="g15_13" />
<path d="M252.2,551c0.1,0.2,0.1,0.3,0.1,0.5c0,0.4,-0.2,0.6,-0.4,0.7" class="g15_13" />
<path d="M270.8,552.6l-18.4,0c-0.1,0,-0.4,-0.1,-0.5,-0.3m-0.1,-0.1l-2.4,-0.7m2.8,-0.6l-2.5,-0.3" class="g15_13" />
<path d="M261.8,575.8L256.1,591c0,0,-0.2,1,-0.3,1.3c0,0.4,0.3,0.6,0.6,0.7c0.3,0.1,0.6,0,0.8,-0.2c0.1,-0.1,0.6,-1.1,0.6,-1.1l5.8,-15.9" class="g16_13" />
<path d="M264.2,574l8,-21.4m-8.6,22.6c0.3,-0.3,0.5,-0.8,0.6,-1.2m6,-21.4L262.3,574" class="g15_13" />
<path d="M262.5,575.8c0.2,0,0.4,-0.2,0.5,-0.3M262.3,574c0.4,0,0.7,0.7,0.8,1" class="g16_13" />
<path d="M272.1,552c0.3,-0.3,0.5,-0.8,0.6,-1.2c0.2,-0.4,0.1,-0.9,-0.4,-1.2c-0.4,-0.2,-1,0,-1.2,0.5c-0.2,0.6,-0.3,0.8,-0.3,0.8" class="g15_13" />
<path d="M270.8,552.6c0.2,0.1,0.5,-0.2,0.6,-0.3m-0.6,-1.5c0.3,0,0.6,0.7,0.7,1" class="g15_13" />
<path d="M257.8,591.6c-0.1,0.3,-0.5,0.4,-1,0.2c-0.4,-0.2,-0.6,-0.6,-0.5,-0.8" class="g16_13" />
</svg>