<?xml version="1.0" encoding="UTF-8" standalone="no"?>
<!DOCTYPE svg PUBLIC "-//W3C//DTD SVG 1.1//EN"
"http://www.w3.org/Graphics/SVG/1.1/DTD/svg11.dtd">
<svg viewBox="0 0 935 1210" version="1.1" xmlns="http://www.w3.org/2000/svg" xmlns:xlink="http://www.w3.org/1999/xlink">
<defs>
<style type="text/css"><![CDATA[
.g12_3{
fill: #636363;
}
.g15_3{
fill: none;
stroke: #000000;
stroke-width: 4;
stroke-linecap: round;
stroke-linejoin: round;
stroke-miterlimit: 2;
}
.g2_3{
fill: none;
stroke: #FFFFFF;
stroke-width: 3;
stroke-linecap: round;
stroke-linejoin: miter;
stroke-miterlimit: 2;
}
.g3_3{
fill: #FFFFFF;
stroke: #000000;
stroke-width: 2;
stroke-linecap: butt;
stroke-linejoin: miter;
stroke-miterlimit: 2;
}
.g13_3{
fill: #D4D4D4;
}
.g1_3{
fill: #B3B3B3;
}
.g7_3{
fill: #636363;
stroke: #000000;
stroke-width: 1;
stroke-linecap: butt;
stroke-linejoin: miter;
stroke-miterlimit: 2;
}
.g10_3{
fill: none;
stroke: #000000;
stroke-width: 2;
stroke-linecap: round;
stroke-linejoin: round;
stroke-miterlimit: 2;
}
.g16_3{
fill: none;
stroke: #FFFFFF;
stroke-width: 2;
stroke-linecap: round;
stroke-linejoin: round;
stroke-miterlimit: 2;
}
.g5_3{
fill: none;
stroke: #000000;
stroke-width: 2;
stroke-linecap: butt;
stroke-linejoin: miter;
stroke-miterlimit: 2;
}
.g17_3{
fill: none;
stroke: #808080;
stroke-width: 2;
stroke-linecap: round;
stroke-linejoin: round;
stroke-miterlimit: 2;
}
.g11_3{
fill: #808080;
stroke: #000000;
stroke-width: 1;
stroke-linecap: round;
stroke-linejoin: round;
stroke-miterlimit: 2;
}
.g14_3{
stroke: #000000;
stroke-width: 2;
stroke-linecap: round;
stroke-linejoin: round;
stroke-miterlimit: 2;
}
.g4_3{
fill: none;
stroke: #000000;
stroke-width: 1;
stroke-linecap: butt;
stroke-linejoin: miter;
stroke-miterlimit: 2;
}
.g9_3{
fill: #FFFFFF;
}
.g6_3{
}
.g8_3{
fill: none;
stroke: #000000;
stroke-width: 1;
stroke-linecap: round;
stroke-linejoin: round;
stroke-miterlimit: 2;
}
]]></style>
</defs>
<path fill-rule="evenodd" d="M55,54l824,0l0,1101l-824,0Z" class="g1_3" />
<path d="M55.5,256.5l27,0" class="g2_3" />
<path d="M55.5,430.5l27,0" class="g2_3" />
<path d="M55.5,605.5l27,0" class="g2_3" />
<path d="M55.5,779.5l27,0" class="g2_3" />
<path d="M55.5,953.5l27,0" class="g2_3" />
<path d="M852.5,256.5l28,0" class="g2_3" />
<path d="M852.5,605.5l28,0" class="g2_3" />
<path d="M236.5,82.5l0,-27" class="g2_3" />
<path d="M390.5,82.5l0,-27" class="g2_3" />
<path d="M544.5,82.5l0,-27" class="g2_3" />
<path d="M698.5,82.5l0,-27" class="g2_3" />
<path d="M236.5,1155.5l0,-28" class="g2_3" />
<path d="M390.5,1155.5l0,-28" class="g2_3" />
<path d="M544.5,1155.5l0,-28" class="g2_3" />
<path d="M698.5,1155.5l0,-28" class="g2_3" />
<path d="M852.5,430.5l28,0" class="g2_3" />
<path d="M852.5,779.5l28,0" class="g2_3" />
<path d="M852.5,953.5l28,0" class="g2_3" />
<path fill-rule="evenodd" d="M82,82l770,0l0,1045l-770,0Z" class="g3_3" />
<path d="M184.5,209.5l646,0" class="g4_3" />
<path d="M103.5,278.5l727,0" class="g4_3" />
<path d="M82,1097l770,0" class="g5_3" />
<path d="M466.5,1099.5l0,28" class="g4_3" />
<path d="M468.5,1099.5l0,28" class="g4_3" />
<path d="M272.5,1099.5l0,28" class="g4_3" />
<path d="M274.5,1099.5l0,28" class="g4_3" />
<path d="M664.5,1099.5l0,28" class="g4_3" />
<path d="M666.5,1099.5l0,28" class="g4_3" />
<path fill-rule="evenodd" d="M106,289l37,0l0,38l-37,0Z" class="g6_3" />
<path fill-rule="evenodd" d="M103.5,287.5l38,0l0,37l-38,0Z" class="g7_3" />
<path d="M274.5,1099.5l192,0" class="g8_3" />
<path d="M468.5,1099.5l196,0" class="g8_3" />
<path d="M666.5,1099.5l186,0" class="g8_3" />
<path d="M272.5,1099.5l-190,0" class="g8_3" />
<path fill-rule="evenodd" d="M279,248.7c13.3,-7.7,26.7,-15.5,40.1,-23.2c0.5,-0.7,1,-1.3,1.5,-2c0.2,-0.3,0.3,-0.5,0.2,-0.7c-0.1,-0.1,-0.3,-0.2,-0.6,-0.2c-0.9,0.1,-1.8,0.2,-2.7,0.3c-13.2,7.6,-26.4,15.3,-39.6,22.9c0.3,1,0.7,1.9,1.1,2.9Z" class="g9_3" />
<path d="M269.2,254.3c16.6,-9.6,33.2,-19.2,49.9,-28.8c0.5,-0.7,1,-1.3,1.5,-2c0.2,-0.3,0.3,-0.5,0.2,-0.7c-0.1,-0.1,-0.3,-0.2,-0.6,-0.2c-0.9,0.1,-1.8,0.2,-2.7,0.3c-16.4,9.5,-32.9,19,-49.4,28.6" class="g10_3" />
<path d="M318.3,225.3c0.1,-0.5,0.5,-1,0.8,-1.3c0.4,-0.3,1,-0.6,1.5,-0.7" class="g8_3" />
<path d="M317,223.7c0.7,0,1.3,-0.2,1.9,-0.3c0.5,-0.2,1,-0.4,1.5,-0.7" class="g8_3" />
<path fill-rule="evenodd" d="M282.9,238.3c-0.8,0.4,-1.6,0.9,-2.3,1.3c-0.4,0.2,-0.8,0.6,-1,0.9c-0.3,0.4,-0.5,0.9,-0.6,1.5c0,0.3,0,0.6,-0.1,0.7c-0.1,0.1,-0.3,0.2,-0.6,0.1c-0.7,-0.5,-1.6,-0.9,-2.3,-1c-0.8,-0.1,-1.7,0.1,-2.4,0.4c-8,4.6,-16,9.2,-24,13.8c-1.8,1.8,-2.8,3.5,-3.1,5.1c-0.2,1.7,0.2,3.3,1.4,4.9c1.4,1.7,2.9,2.7,4.6,2.9c1.6,0.3,3.4,-0.1,5.2,-1.2c7.5,-4.4,15.1,-8.7,22.6,-13.1c0.8,-0.7,1.4,-1.4,1.7,-2.2c0.4,-0.7,0.6,-1.6,0.6,-2.4c0,-0.4,0.1,-0.7,0.3,-0.8c0.1,0,0.4,0.1,0.6,0.4c0.4,0.2,0.9,0.4,1.3,0.4c0.4,0,0.8,0,1.2,-0.2c0.8,-0.5,1.7,-1,2.6,-1.5c0.8,-0.8,1.2,-1.8,1.1,-3c-0.1,-1.1,-0.6,-2.5,-1.5,-4c-1,-1.3,-1.9,-2.2,-2.8,-2.7c-0.8,-0.5,-1.7,-0.6,-2.5,-0.3Z" class="g9_3" />
<path d="M279.1,242.7c-0.1,-1.3,0.3,-2.4,1.1,-2.8c0.8,-0.5,1.7,-1,2.6,-1.5c1.5,-0.9,4.1,0.6,5.7,3.4c1.6,2.7,1.6,5.6,0,6.5c-0.8,0.5,-1.7,1,-2.5,1.5c-0.9,0.5,-2,0.3,-3.2,-0.5" class="g10_3" />
<path d="M282,250.5c-0.1,-1.4,-0.5,-2.8,-1.4,-4.3c-0.6,-1.1,-1.3,-2,-2.2,-2.7" class="g8_3" />
<path d="M282.6,248.7c0,-0.9,-0.3,-2,-1,-3c-0.5,-1,-1.3,-1.8,-2,-2.3" class="g8_3" />
<path d="M284.3,249.2c-0.6,-0.2,-1,-0.2,-1.3,-0.1c-0.2,0,-0.4,0.4,-0.4,0.7c0,1,-0.2,2,-0.6,2.8c-0.4,0.7,-0.9,1.4,-1.6,1.8c-8,4.7,-16,9.3,-24,14c-1,0.4,-1.7,0.6,-2.9,0.6c-3.8,0,-6.9,-3.1,-6.9,-7c0,-2.2,1.2,-4.4,2.9,-5.8c8,-4.6,16,-9.2,24,-13.9c0.6,-0.3,1.4,-0.4,2.2,-0.4c0.7,0.1,1.7,0.4,2.6,0.9c0.4,0.2,0.8,0.2,1,0.1c0.3,-0.1,0.5,-0.5,0.6,-1" class="g10_3" />
<path d="M250.7,256.3c1.8,0.1,3.9,1.8,5.4,4.3c1.3,2.3,1.7,4.9,1.2,6.5" class="g8_3" />
<path d="M285.5,249.7c1.2,-1,1.1,-3.6,-0.3,-6.1c-1.4,-2.5,-3.7,-3.9,-5.2,-3.3" class="g8_3" />
<path d="M254.1,256.3l21.6,-12.5" class="g8_3" />
<path d="M256.2,257.5l21,-12.4" class="g8_3" />
<path d="M258.4,261.9L279.7,249" class="g8_3" />
<path d="M258.9,264.3l21.2,-12.9" class="g8_3" />
<path d="M256.2,257.6c-0.9,0.5,-3.4,-0.1,-2.1,-1.3" class="g8_3" />
<path d="M258.4,261.9c-1.2,0.8,-1,3.1,0.5,2.5" class="g8_3" />
<path d="M280.1,251.5c1.2,-0.7,1.5,-3.6,-0.4,-2.5" class="g8_3" />
<path d="M277.2,245.1c1.2,-0.7,0,-2.2,-1.5,-1.3" class="g8_3" />
<path d="M193.1,221.3c0.2,-0.1,0.3,-0.2,0.4,-0.3" class="g8_3" />
<path d="M193.5,221c0.4,-0.1,0.7,-0.2,1.1,-0.1c0.6,0.1,1.2,0.5,2,1.1c6.3,-1.7,12.3,-2.7,18.1,-3.4c5.8,-0.6,11.2,-0.7,16.5,-0.2" class="g8_3" />
<path d="M232,218.7c-0.4,-0.5,-1,-1,-1.8,-1.2c-0.8,-0.3,-1.8,-0.4,-2.9,-0.4c-7.3,-0.2,-13.7,0.1,-19.3,0.7c-5.6,0.6,-10.5,1.7,-14.5,3.2" class="g10_3" />
<path d="M190.6,229.4c1.1,0.8,2.1,1.4,3.3,2.1c1,0.5,2.1,1,3.3,1.5c3.8,-0.5,7.6,-1,11.4,-1.5" class="g8_3" />
<path d="M208.6,231.5c0.3,0,0.6,0,0.9,-0.1c0,-0.5,0,-0.9,0,-1.4c-0.4,-0.4,-0.7,-0.7,-0.8,-0.9c-0.2,-0.3,-0.3,-0.6,-0.3,-0.8c0.3,-1.2,0.7,-2.1,1.3,-2.7c0.7,-0.7,1.6,-1,2.7,-1c1.3,-0.2,2.3,-0.2,3,0c0.7,0.2,1.1,0.4,1.3,0.8c0.8,0,1.9,-0.1,3.3,-0.4c1.3,-0.2,2.9,-0.6,4.7,-1c1,-0.4,1.8,-0.3,2.4,0.1" class="g10_3" />
<path d="M227.1,224.1c0.6,0.4,0.9,1.2,1,2.3c0.1,1.1,0.2,2.2,0.3,3.2" class="g8_3" />
<path d="M193.1,221.3c-0.4,1.9,-0.8,3.9,-1.2,5.8c-0.1,0.3,-0.3,0.6,-0.5,0.7c-0.1,0.1,-0.4,0.2,-0.7,0.2c0,0.5,-0.1,1,-0.1,1.5" class="g10_3" />
<path d="M196.6,222c-0.1,2.5,-0.1,5,-0.2,7.5c0,0.3,0.1,0.7,0.3,1c0.1,0.3,0.4,0.7,0.6,1.1" class="g8_3" />
<path d="M197.4,231.6L209.5,230" class="g8_3" />
<path d="M197.4,231.6L196.8,244" class="g8_3" />
<path d="M228.4,229.6c0,1,0.2,1.8,0.5,2.2c0.4,0.5,0.9,0.7,1.5,0.6" class="g8_3" />
<path d="M225.5,223.8c0.2,1.3,0.4,2.6,0.6,3.9c0.2,0.9,0,1.7,-0.4,2.2c-0.4,0.5,-1.2,0.9,-2.1,1c-4.2,0.8,-8.4,1.5,-12.6,2.3" class="g10_3" />
<path d="M227.7,231.2l-1.6,-1.1" class="g8_3" />
<path fill-rule="evenodd" d="M198.6,223.9c-0.1,0.5,0.1,1,0.4,1c0.3,0.1,0.7,-0.3,0.8,-0.8c0,-0.4,-0.1,-0.9,-0.5,-1c-0.3,0,-0.6,0.3,-0.7,0.8Z" class="g11_3" />
<path fill-rule="evenodd" d="M198.2,229c-0.1,0.5,0.1,1,0.4,1c0.3,0.1,0.7,-0.3,0.8,-0.8c0.1,-0.4,-0.1,-0.9,-0.5,-1c-0.3,0,-0.6,0.3,-0.7,0.8Z" class="g11_3" />
<path fill-rule="evenodd" d="M208.3,223.4c-0.1,0.5,0.1,0.9,0.5,1c0.3,0.1,0.6,-0.3,0.7,-0.8c0.1,-0.5,-0.1,-0.9,-0.4,-1c-0.3,0,-0.7,0.3,-0.8,0.8Z" class="g11_3" />
<path d="M230.5,223.3c0.1,-1,-0.2,-1.7,-0.9,-2.1c-0.7,-0.5,-1.7,-0.6,-3.1,-0.6c-1.6,0,-3.8,0,-6.4,0.1c-2.7,0.1,-5.8,0.3,-9.4,0.6c-1.3,0.1,-2.2,0.4,-2.7,1.1c-0.5,0.6,-0.6,1.5,-0.4,2.7c0.1,0.9,0.3,1.6,0.4,2.2" class="g8_3" />
<path d="M208.9,226.8c0.7,-0.1,1.5,0,2.1,0.3c0.7,0.2,1.3,0.7,1.9,1.3c0.4,-0.9,0.8,-1.8,1.3,-2.7" class="g10_3" />
<path d="M211.6,224.7c1.1,0.2,2,0.6,2.6,1c0.5,0.5,0.9,1,1,1.7" class="g8_3" />
<path d="M215.3,227.4c0.1,-0.6,0.3,-1,0.6,-1.3c0.2,-0.3,0.5,-0.5,0.8,-0.6" class="g10_3" />
<path d="M215.3,227.4l-1.5,-0.8" class="g10_3" />
<path d="M212.8,228.3l-1.6,-0.8" class="g8_3" />
<path d="M210.3,226.9c0.3,0.2,0.6,0.4,0.9,0.7" class="g8_3" />
<path d="M211.4,249.2c0.3,-0.2,0.6,-0.4,0.9,-0.6c7.3,-1.7,14.5,-3.3,21.8,-5c0,0,1.8,-1.1,2.2,-2.7c0,-1.7,0.1,-3.5,0.1,-5.3c-0.3,-2.4,-2.3,-4,-2.3,-4c-0.3,-0.4,-0.3,-0.6,-0.4,-0.9c-0.2,-0.3,-0.3,-0.9,-0.4,-1.2c0,0,-1.4,-10.7,-1.4,-10.7" class="g10_3" />
<path d="M208.7,231.6c0.1,3.8,0,8.2,-0.2,13.1c-0.3,4.8,-0.8,10.2,-1.5,16.1" class="g10_3" />
<path d="M207,260.8l-3.1,0.8" class="g8_3" />
<path d="M236.3,235.6l-23.9,5" class="g8_3" />
<path d="M212.4,240.6c0,-1.2,0,-2.3,0,-3.5c0,-0.1,0,-0.2,-0.1,-0.2c0,-0.1,-0.1,-0.1,-0.2,-0.1c-0.3,-0.1,-0.5,-0.3,-0.6,-0.4c-0.1,-0.2,-0.2,-0.5,-0.2,-0.8c-0.1,-1.1,-0.3,-2.1,-0.6,-3c-0.2,-0.8,-0.7,-1.5,-1.2,-2" class="g10_3" />
<path d="M236.3,241l-28,5.8" class="g8_3" />
<path d="M208.3,246.9c0.2,-0.1,0.3,-0.2,0.4,-0.3c0,-0.1,0.1,-0.3,0.1,-0.4c0,-1.6,0.1,-3.2,0.2,-4.9c0,-1.1,0,-2.3,0,-3.5c0,-0.1,-0.1,-0.1,-0.1,-0.2c0,0,-0.1,-0.1,-0.2,-0.1" class="g8_3" />
<path d="M212.2,237l-3,0.7" class="g8_3" />
<path d="M211.2,236.4l-2.3,0.5" class="g8_3" />
<path d="M220.1,231.7c1.6,0.1,2.9,0.6,3.8,1.5c0.9,1,1.6,2.3,1.8,4.1c0,0.1,0.1,0.2,0.1,0.3c0.1,0.1,0.2,0.1,0.3,0.2" class="g8_3" />
<path d="M225.6,243.2c-0.2,0.7,-0.6,1.4,-1.3,1.9c-0.7,0.5,-1.7,1,-2.8,1.4" class="g8_3" />
<path d="M226.1,237.8l-0.1,5.3" class="g8_3" />
<path d="M231,232.3l2.3,-0.5" class="g8_3" />
<path d="M228.3,231.9c0,0.3,-0.2,0.5,-0.3,0.7c-0.2,0.1,-0.5,0.3,-0.8,0.3c-0.7,0.2,-1.4,0.3,-2.2,0.5" class="g8_3" />
<path d="M223.4,233.7l-11.3,2.1" class="g8_3" />
<path d="M205.5,232c0.2,3.8,0.1,8.2,-0.1,13.2c-0.3,4.9,-0.8,10.4,-1.5,16.4" class="g8_3" />
<path d="M207.2,259.8l2.9,-0.8" class="g8_3" />
<path d="M210.1,259c0.4,-1,0.8,-2.3,1,-3.7c0.2,-1.5,0.3,-3.1,0.3,-4.8c-0.1,-0.8,0,-1.4,0.1,-2c0.1,-0.6,0.3,-1.1,0.6,-1.6" class="g10_3" />
<path d="M212.9,248.5c0.7,0.4,1.3,1.7,1.5,3.3c0.1,1.9,-0.5,3.5,-1.4,3.6c-0.7,0.3,-1.3,0.5,-2,0.8" class="g10_3" />
<path d="M214.2,253.8l7.2,4.4" class="g10_3" />
<path d="M221.4,258.2l-25.3,6.1" class="g8_3" />
<path d="M196.1,264.3l-4.2,-2.9" class="g8_3" />
<path d="M193.9,272.7l-0.2,-0.2" class="g8_3" />
<path d="M197.1,252.6l0,1.7l-2.8,0.5l-1.1,-0.5" class="g10_3" />
<path d="M190.9,253.1c0,-1.7,0,-3.4,0,-5.1c-0.1,-0.8,-0.2,-1.7,-0.2,-2.6c0,-1,-0.1,-2,-0.1,-3.1c0,-0.2,0,-0.4,-0.1,-0.6c0,-0.1,-0.1,-0.3,-0.2,-0.4c-0.1,-0.1,-0.2,-0.3,-0.2,-0.4C190,240.7,190,240.4,190,240.2c0,-1.1,0.1,-2.6,0.2,-4.3c0.1,-1.8,0.2,-4,0.4,-6.4" class="g10_3" />
<path d="M194.3,254.8c0,-1.7,0,-3.4,0,-5.1c0.2,-0.7,0.4,-1.5,0.6,-2.3c0.2,-0.8,0.4,-1.7,0.6,-2.7c0,-0.1,0.1,-0.3,0.2,-0.5" class="g8_3" />
<path d="M195.7,244.2c0.1,0,0.3,0,0.4,-0.1c0.2,0.2,0.4,0.3,0.7,0.3c0.2,0,0.5,0,0.8,0" class="g10_3" />
<path d="M190.9,248l3.4,1.7l7.3,-1.1l1.4,-4.4" class="g8_3" />
<path d="M190.9,253.1l0.8,0.4l1.3,-0.1" class="g10_3" />
<path d="M190.5,260.4l-4.2,-2.8" class="g8_3" />
<path d="M191.5,253.5l0,-1" class="g8_3" />
<path d="M193,254l0,-1" class="g10_3" />
<path d="M191.7,252.6c0.1,-0.4,0.3,-0.8,0.6,-0.8" class="g8_3" />
<path d="M192.3,251.8c0.4,-0.1,0.8,0.3,0.9,1c0,0.2,0.1,0.3,0,0.5" class="g10_3" />
<path d="M203.7,260.6l-1.4,0.4" class="g8_3" />
<path d="M202.3,261c0.4,-2.8,0.6,-5.5,0.8,-8.2c0.2,-2.7,0.3,-5.4,0.4,-8.1c-0.1,-0.3,-0.2,-0.5,-0.3,-0.8" class="g8_3" />
<path d="M203.2,243.9c-0.3,0,-0.6,0,-0.9,-0.1c-1.6,0.2,-3.1,0.4,-4.7,0.6" class="g10_3" />
<path d="M202.3,261l-1.2,-0.8" class="g8_3" />
<path d="M201.6,248.7c0,0.7,0,2,-0.1,3.9c-0.1,2,-0.2,4.5,-0.4,7.6" class="g8_3" />
<path d="M203.9,261.6c-0.1,0,-0.2,-0.1,-0.2,-0.1c-0.1,-0.1,-0.1,-0.1,-0.1,-0.1" class="g8_3" />
<path d="M205.2,232c0.2,3.8,0.1,8,-0.2,12.9c-0.2,4.9,-0.7,10.3,-1.4,16.4" class="g8_3" />
<path d="M217,257.3l-3.5,-2.1" class="g8_3" />
<path d="M213,258.2l-2.2,-1.3" class="g8_3" />
<path d="M215.6,257.7l-3.4,-2" class="g10_3" />
<path d="M211.5,258.6l-1,-0.6" class="g10_3" />
<path d="M217,257.4l-1.4,0.3" class="g10_3" />
<path d="M213.1,258.3l-1.5,0.3" class="g10_3" />
<path fill-rule="evenodd" d="M233.7,233.6c0.3,0.5,0.3,1.1,0,1.2c-0.3,0.2,-0.8,-0.1,-1.1,-0.7c-0.2,-0.5,-0.2,-1.1,0.1,-1.2c0.2,-0.2,0.7,0.1,1,0.7Z" class="g11_3" />
<path d="M190.5,260.4l3.1,-0.7" class="g8_3" />
<path d="M195.5,259.2l0.8,-0.2" class="g8_3" />
<path d="M197.1,252.6c0.1,-0.2,0.1,-0.4,0.2,-0.6c0.2,-0.8,1,-1.3,1.6,-1.1" class="g10_3" />
<path d="M198.9,250.9c0.4,0.2,0.7,0.7,0.7,1.2c0.1,2,0.2,4,0.4,6c0,0.5,0.2,0.9,0.3,1.1c0.2,0.3,0.5,0.5,0.8,0.6" class="g8_3" />
<path d="M200.5,259.5l-3.7,-2.6" class="g8_3" />
<path d="M195.5,255.4c0.6,0.2,1.2,0.5,1.2,0.9" class="g10_3" />
<path d="M196.7,256.3c0,0.6,-1,1.1,-2.3,1.1c-1.3,0,-2.3,-0.5,-2.3,-1.1" class="g8_3" />
<path d="M192.1,256.3c0,-0.4,0.6,-0.7,1.3,-1" class="g10_3" />
<path d="M192.5,256.5l0,1" class="g8_3" />
<path d="M192.3,258.3c0.4,0.4,1.2,0.6,2.1,0.6c0.6,0,1.2,-0.1,1.6,-0.3" class="g10_3" />
<path d="M196.5,257.5l0,-1" class="g8_3" />
<path d="M193.4,254.3c0,0.6,0,1.3,0,2c0,0.2,0.5,0.4,1,0.4c0.6,0,1.1,-0.2,1.1,-0.4c0,-0.6,0,-1.2,0,-1.8" class="g8_3" />
<path d="M193,258l0,3" class="g10_3" />
<path d="M195.5,258.5l0,2" class="g8_3" />
<path d="M193.5,264.5l0,8" class="g8_3" />
<path d="M195.5,264.6l0,5.8l-1.5,2.3" class="g10_3" />
<path d="M196.2,259.1c0.2,-0.1,0.5,-0.1,0.7,-0.1c0.8,0,1.4,0.2,1.4,0.6" class="g8_3" />
<path d="M193.5,258.5l0,2" class="g8_3" />
<path d="M193,264l0,8" class="g10_3" />
<path d="M214.6,226.2c0.1,0.2,0.2,0.5,0.2,0.7" class="g8_3" />
<path d="M214.7,226.8l-0.9,-0.5" class="g8_3" />
<path d="M192.3,257c0.2,-0.1,0.5,0.2,0.5,0.5c0.1,0.4,0,0.7,-0.3,0.8" class="g8_3" />
<path d="M191.7,257.1c0.2,0,0.5,0.2,0.5,0.6c0.1,0.3,0,0.6,-0.3,0.7" class="g8_3" />
<path d="M196.4,257.3c-0.3,-0.1,-0.6,0,-0.8,0.3c-0.2,0.2,-0.2,0.6,0,0.8" class="g8_3" />
<path d="M196.1,258.7c0.2,0.1,0.6,0,0.8,-0.3c0.2,-0.2,0.2,-0.6,-0.1,-0.8" class="g10_3" />
<path d="M196.8,257.6c-0.2,-0.1,-0.6,0,-0.8,0.2c-0.2,0.3,-0.2,0.7,0.1,0.9" class="g8_3" />
<path d="M196.8,257.6l-0.4,-0.3" class="g8_3" />
<path d="M196,258.6l-0.4,-0.2" class="g8_3" />
<path d="M196.1,264.3l-3,-1l-4.3,-3" class="g8_3" />
<path d="M190.4,260.3l-2.9,-1l-4.2,-2.7" class="g8_3" />
<path d="M216.6,257.5l-3.5,-2.1" class="g8_3" />
<path d="M212.6,258.4l-1.9,-1.2" class="g8_3" />
<path d="M193.1,263.3l-0.2,0.4" class="g8_3" />
<path d="M187.4,259.3l-0.2,0.5" class="g8_3" />
<path d="M221.4,258.2c0,0.1,0,0.3,0,0.4c-8.4,2.1,-16.8,4.1,-25.3,6.2c-1,-0.4,-2.1,-0.7,-3.2,-1c-1.4,-1,-2.9,-2,-4.3,-3c0.1,-0.1,0.1,-0.3,0.2,-0.4l0,-0.1c1,0.4,2,0.7,3,1.1l0.1,0c1.9,-0.4,3.9,-0.9,5.8,-1.3c0.4,-0.1,0.6,-0.3,0.6,-0.5" class="g10_3" />
<path d="M192,256.3l-5.7,1.3l-3,-1l-0.3,0.5l4.2,2.7l1.6,0.5" class="g10_3" />
<path d="M190.5,260.8l3.1,-0.7" class="g8_3" />
<path d="M195.5,259.6c0.2,0,0.5,-0.1,0.8,-0.1c0.2,-0.1,0.4,-0.1,0.6,-0.1c0.6,0,1.1,0.1,1.3,0.3" class="g8_3" />
<path d="M192.5,258.3c-0.1,0,-0.3,0,-0.5,0.1l-0.1,0c-0.2,0,-0.4,-0.2,-0.5,-0.6c-0.1,-0.3,0.1,-0.6,0.3,-0.7c0.2,0,0.4,-0.1,0.6,-0.1" class="g10_3" />
<path d="M232.6,238.2l0.7,-0.1l0,-0.7" class="g8_3" />
<path d="M233.3,238.1l0.2,0.1" class="g8_3" />
<path d="M233.8,237.9l0.7,-0.2l0,-0.6" class="g8_3" />
<path d="M234.5,237.8l0.2,0.1" class="g8_3" />
<path d="M235.1,237.6l0.6,-0.1l0,-0.7" class="g8_3" />
<path d="M235.8,237.5l0.1,0.1" class="g8_3" />
<path d="M235.1,239l0.6,-0.2l0,-0.7" class="g8_3" />
<path d="M235.8,238.8l0.1,0.2" class="g8_3" />
<path d="M235.1,240.3l0.6,-0.1l0,-0.7" class="g8_3" />
<path d="M235.8,240.2l0.1,0.1" class="g8_3" />
<path d="M233.8,240.6l0.7,-0.2l0,-0.6" class="g8_3" />
<path d="M234.5,240.5l0.2,0.1" class="g8_3" />
<path d="M233.8,239.2l0.7,-0.1l0,-0.7" class="g8_3" />
<path d="M234.5,239.1l0.2,0.1" class="g8_3" />
<path d="M232.6,239.6l0.7,-0.2l0,-0.7" class="g8_3" />
<path d="M233.3,239.4l0.2,0.1" class="g8_3" />
<path d="M232.6,240.9l0.6,-0.2l0,-0.6" class="g8_3" />
<path d="M233.3,240.8l0.2,0.1" class="g8_3" />
<path d="M197.6,230.7l10.6,-1.3" class="g8_3" />
<path d="M103.5,669.5l727,0" class="g4_3" />
<path fill-rule="evenodd" d="M106,681l37,0l0,37l-37,0Z" class="g6_3" />
<path fill-rule="evenodd" d="M103.5,679.5l38,0l0,37l-38,0Z" class="g7_3" />
<path d="M380.5,222.1l18,10.8" class="g10_3" />
<path d="M377.7,223.8l17.9,10.7" class="g8_3" />
<path d="M376.3,227.7l17.9,10.7" class="g8_3" />
<path d="M376.7,229.2l18.9,11.3" class="g10_3" />
<path d="M309,265.4l60.9,-36.2c3.3,-2,4.7,-1.2,6.8,0" class="g10_3" />
<path d="M310.3,263.2l59.8,-35.7c2.7,-1.6,4.6,-0.7,6.2,0.2" class="g8_3" />
<path d="M308.8,259.6l60.9,-36.3c2.8,-1.6,5.3,-1,8,0.5" class="g8_3" />
<path d="M306.1,257.8l59.7,-35.7c6.5,-3.8,9.9,-2.8,14.7,0" class="g10_3" />
<path d="M394.2,238.3c0.7,-0.5,1.9,-2.1,1.4,-3.8" class="g8_3" />
<path d="M395.6,234.5c0.8,0.5,2.7,-0.5,2.9,-1.6" class="g8_3" />
<path d="M394.2,238.4c0.8,0.1,1.8,0.9,1.4,2.1" class="g8_3" />
<path d="M395.6,240.5c0.2,-0.6,1.8,-2.1,2.9,-1.7" class="g10_3" />
<path d="M398.5,238.8c-0.5,-1.1,0.5,-3.7,1.4,-3.9" class="g10_3" />
<path d="M398.5,232.9c0,0.7,0.2,1.8,1.4,2" class="g10_3" />
<path d="M310.3,263.2c-0.6,-0.4,-1.9,-2.1,-1.3,-3.7" class="g8_3" />
<path d="M309,259.5c-0.9,0.5,-2.7,-0.6,-2.9,-1.7" class="g8_3" />
<path d="M310.3,263.2c-0.8,0.1,-1.7,1,-1.3,2.2" class="g8_3" />
<path d="M309,265.4c-0.3,-0.6,-1.9,-2,-2.9,-1.6" class="g10_3" />
<path d="M306.1,263.8c0.4,-1.1,-0.5,-3.8,-1.5,-3.9" class="g10_3" />
<path d="M306.1,257.8c0,0.7,-0.2,1.8,-1.5,2.1" class="g10_3" />
<path d="M408.5,173.5l118,0" class="g8_3" />
<path d="M284,402l0,80" class="g10_3" />
<path d="M284.9,402.1L586.5,298.8" class="g10_3" />
<path d="M586.5,298.5l0,6" class="g8_3" />
<path d="M284.9,482.5l5.5,-1.8" class="g8_3" />
<path d="M624.5,412.8l0,56.1" class="g10_3" />
<path d="M522.5,503.3l0,-52.9" class="g8_3" />
<path d="M520.9,502.4l0,-51.4" class="g10_3" />
<path d="M490.5,457.6l0,-14.7" class="g10_3" />
<path d="M492.2,458.5l-0.1,-14.7" class="g8_3" />
<path d="M460.6,426.8l0,-19.8" class="g10_3" />
<path d="M462.2,426.7L462.1,408" class="g8_3" />
<path d="M490.5,457.6c0,0,0.2,1.3,2.1,1" class="g10_3" />
<path d="M619.2,347.4L463.8,401.9" class="g10_3" />
<path d="M621.1,348l-155,54.3" class="g8_3" />
<path d="M463.8,401.9c0,0,-3.1,1.5,-3.2,5.1" class="g10_3" />
<path d="M462.1,408c0,0,-0.2,-4,4,-5.7" class="g8_3" />
<path d="M463.7,428.5l26.2,10.7" class="g8_3" />
<path d="M462.7,430.5l26,10.6" class="g10_3" />
<path d="M462.2,426.7c0,0,0.1,1.1,1.5,1.8" class="g8_3" />
<path d="M460.6,426.8c0,0,-0.1,2.6,2.1,3.7" class="g10_3" />
<path d="M489.9,439.2c0,0,2.2,1.3,2.2,4.6" class="g8_3" />
<path d="M488.7,441.1c0,0,1.5,0.5,1.8,1.8" class="g10_3" />
<path d="M538.3,434.9l-32.6,11.3" class="g10_3" />
<path d="M538.3,440.4l0,-5.5" class="g8_3" />
<path d="M505.7,452l32.6,-11.6" class="g8_3" />
<path d="M505.7,446.2l0,5.8" class="g10_3" />
<path d="M505.7,450.8l31,-10.9" class="g10_3" />
<path d="M536.7,435.4l0,4.5" class="g10_3" />
<path d="M536.7,439.9l1.6,0.5" class="g8_3" />
<path d="M618,373.9L504.5,413.8" class="g8_3" />
<path d="M520.1,449.3l-27.5,9.3" class="g10_3" />
<path d="M520.1,449.3c0,0,0.8,-0.5,0.8,1.7" class="g10_3" />
<path d="M520.1,449.3c0,0,2.4,-0.9,2.4,1.1" class="g10_3" />
<path d="M627.1,376c-2.7,-1,-4,-4.8,-2.7,-8.5c1.3,-3.8,4.6,-6,7.4,-5.1" class="g10_3" />
<path d="M631.8,362.4c2.8,1,4,4.8,2.7,8.6c-1.3,3.7,-4.6,5.9,-7.4,5" class="g10_3" />
<path d="M628.5,376.2c-2.8,-1,-4.1,-4.5,-2.9,-8.3c1.3,-3.7,4.6,-5.8,7.3,-4.8" class="g8_3" />
<path d="M631,366.9l1,-0.2l0.4,2.3l1.5,-0.4l0.1,1.2l-1.5,0.9l-0.3,2.2l-1.2,0.3l-0.1,-2l-1.8,0.3L629,370.3l1.9,-0.8Z" class="g8_3" />
<path d="M611.2,367.1c-2,-0.5,-3,-2.9,-2.4,-5.5c0.7,-2.6,2.8,-4.3,4.7,-3.8" class="g10_3" />
<path d="M612.7,366.5c-0.3,0.3,-0.8,0.8,-1.5,0.6" class="g8_3" />
<path d="M613.5,357.8c0.9,0.2,1.4,0.8,1.6,1.8" class="g8_3" />
<path d="M611.1,365.8c-0.3,0.4,-0.7,0.5,-1.4,0.3" class="g8_3" />
<path d="M612.3,357.7c0.7,0.2,1,0.3,1.2,1.1" class="g8_3" />
<path d="M623.9,370.8l-15,-6.1" class="g10_3" />
<path d="M611.5,358l15,6" class="g10_3" />
<path d="M616,367.6c-1.3,-0.4,-1.6,-2.7,-1.1,-4.5c0.6,-1.7,2.1,-2.8,3.5,-2.4" class="g8_3" />
<path d="M618,368.4c-1.3,-0.5,-1.7,-2.8,-1.1,-4.5c0.6,-1.8,2.1,-2.8,3.4,-2.4" class="g8_3" />
<path d="M620.1,369.2c-1.3,-0.4,-1.6,-2.8,-1,-4.6c0.5,-1.7,2.1,-2.6,3.4,-2.2" class="g8_3" />
<path d="M622.1,370.1c-1.3,-0.5,-1.6,-2.8,-1.1,-4.5c0.6,-1.7,2.1,-2.8,3.4,-2.4" class="g8_3" />
<path d="M623.9,370.8c-1.3,-0.4,-1.5,-2.7,-0.9,-4.4c0.6,-1.8,2.1,-2.8,3.4,-2.4" class="g8_3" />
<path d="M611.7,365.8c-1.3,-0.4,-1.7,-2.7,-1.1,-4.5c0.5,-1.7,2.1,-2.8,3.4,-2.3" class="g8_3" />
<path d="M613.7,366.7c-1.3,-0.5,-1.6,-2.9,-1,-4.6c0.6,-1.8,2.1,-2.7,3.4,-2.2" class="g8_3" />
<path d="M493.6,426.2c-2.8,-1,-4,-4.8,-2.7,-8.6c1.3,-3.7,4.6,-5.9,7.4,-5" class="g10_3" />
<path d="M498.3,412.6c2.8,1,4,4.8,2.7,8.5c-1.3,3.8,-4.6,6,-7.4,5.1" class="g10_3" />
<path d="M495,426.4c-2.8,-1,-4.1,-4.5,-2.9,-8.3c1.3,-3.7,4.5,-5.8,7.3,-4.9" class="g8_3" />
<path d="M497.5,417.1l1,-0.2l0.4,2.3l1.5,-0.5l0.1,1.2l-1.6,1l-0.2,2.1l-1.2,0.4l-0.1,-2l-1.8,0.2l-0.1,-1.2l1.9,-0.7Z" class="g8_3" />
<path d="M473.7,415.5c-1.9,-0.5,-3,-2.9,-2.4,-5.5c0.7,-2.6,2.8,-4.3,4.7,-3.8" class="g10_3" />
<path d="M475.2,414.9c-0.3,0.3,-0.8,0.8,-1.5,0.6" class="g8_3" />
<path d="M476,406.2c0.9,0.2,1.4,0.8,1.6,1.8" class="g8_3" />
<path d="M473.6,414.2c-0.3,0.4,-0.7,0.5,-1.3,0.3" class="g8_3" />
<path d="M474.8,406.1c0.7,0.2,1.1,0.3,1.2,1.1" class="g8_3" />
<path d="M490.4,421l-19,-7.7" class="g10_3" />
<path d="M473.9,406.5l19.1,7.7" class="g10_3" />
<path d="M482.5,417.8c-1.3,-0.5,-1.6,-2.8,-1.1,-4.5c0.6,-1.8,2.1,-2.8,3.5,-2.4" class="g8_3" />
<path d="M484.5,418.5c-1.3,-0.4,-1.7,-2.7,-1.1,-4.4c0.6,-1.8,2.1,-2.8,3.4,-2.4" class="g8_3" />
<path d="M486.6,419.4c-1.3,-0.4,-1.6,-2.8,-1,-4.6c0.5,-1.7,2.1,-2.7,3.4,-2.2" class="g8_3" />
<path d="M488.6,420.2c-1.3,-0.4,-1.6,-2.7,-1.1,-4.4c0.6,-1.8,2.1,-2.8,3.4,-2.4" class="g8_3" />
<path d="M490.4,421c-1.3,-0.5,-1.5,-2.7,-0.9,-4.5c0.6,-1.7,2.1,-2.8,3.4,-2.3" class="g8_3" />
<path d="M476.2,415.2c-1.3,-0.4,-1.7,-2.7,-1.1,-4.5c0.6,-1.7,2.1,-2.8,3.4,-2.3" class="g8_3" />
<path d="M478.2,416c-1.3,-0.5,-1.7,-2.8,-1.1,-4.5c0.5,-1.7,2.1,-2.8,3.4,-2.4" class="g8_3" />
<path d="M480.2,416.8c-1.3,-0.4,-1.6,-2.8,-1,-4.5c0.6,-1.8,2.1,-2.7,3.4,-2.3" class="g8_3" />
<path d="M474.1,414.3c-1.3,-0.4,-1.7,-2.7,-1.1,-4.4c0.5,-1.8,2.1,-2.8,3.4,-2.4" class="g8_3" />
<path d="M648.8,395.9l-38.6,13.4" class="g10_3" />
<path d="M619.5,410.7l-9.3,3.1" class="g10_3" />
<path d="M620.3,411.6l-9.8,3.4" class="g8_3" />
<path d="M620.8,472.5l-10.6,4" class="g10_3" />
<path d="M648.2,467.4l-37.6,13.4" class="g10_3" />
<path d="M649,468.3l-38.4,13.6" class="g8_3" />
<path d="M654.8,385.9l0,4.8" class="g10_3" />
<path d="M652.6,382c0,0,2.1,1.3,2.2,3.9" class="g10_3" />
<path d="M648.8,395.9l5,-3.3" class="g10_3" />
<path d="M653.8,392.6c0,0,0.9,-0.9,1,-1.9" class="g10_3" />
<path d="M623,411c0,0,1.5,0.3,1.5,1.8" class="g10_3" />
<path d="M624.4,412.1l0.1,0.7" class="g10_3" />
<path d="M623,411c0,0,1.3,0.4,1.5,1.8" class="g10_3" />
<path d="M619.2,410.8l1.1,0.8" class="g8_3" />
<path d="M610.2,409.3l0,5.7" class="g10_3" />
<path d="M648.2,467.4l3.9,0" class="g10_3" />
<path d="M649,468.3l4.3,0" class="g8_3" />
<path d="M652.1,467.4c0,0,2.4,0.3,2.6,1.7" class="g10_3" />
<path d="M654.7,469.1l0.1,1.5" class="g10_3" />
<path d="M653.3,468.3c0,0,1.1,-0.1,1.4,0.8" class="g8_3" />
<path d="M648.2,467.4l0.8,0.9" class="g8_3" />
<path d="M620.8,472.5l1.4,-0.7c0,0,2.2,-1.2,2.3,-2.9" class="g10_3" />
<path d="M610.2,476.5l0,5.6" class="g10_3" />
<path d="M624.5,462.7l17.2,7" class="g10_3" />
<path d="M520.9,499.9l-58.4,20.7" class="g10_3" />
<path d="M518.9,505.3l-28.4,9.9" class="g10_3" />
<path d="M520.8,505.7l-28.7,10.2" class="g8_3" />
<path d="M653.4,476.1L491.5,533.6" class="g10_3" />
<path d="M620.3,490.6L494,535.3m-11.3,4l-16.3,5.8" class="g10_3" />
<path d="M520.9,502.4c0,0,0.1,1.7,-2,2.9" class="g10_3" />
<path d="M522.5,503.3c0,0,0.1,1.5,-1.7,2.4" class="g8_3" />
<path d="M462.5,520.6l26.6,10.9" class="g8_3" />
<path d="M463.6,523.2l25.6,10.5" class="g10_3" />
<path d="M490.5,515.2l0,15.6" class="g10_3" />
<path d="M492.1,515.9l0.1,15.3" class="g8_3" />
<path d="M489.1,531.5c0,0,1.2,0.4,1.4,-0.7" class="g10_3" />
<path d="M492.2,531.2c0,0,0.1,1.4,-0.9,2.3" class="g8_3" />
<path d="M489.2,533.7c0,0,0.8,0.4,2.3,-0.1" class="g10_3" />
<path d="M490.5,515.2l1.6,0.7" class="g8_3" />
<path d="M462.1,524l0.1,18.3" class="g8_3" />
<path d="M460.6,522.6l0,19.6" class="g10_3" />
<path d="M485.9,543.3c-2.8,-1,-4,-4.8,-2.7,-8.5c0.4,-1.1,0.9,-2.1,1.6,-2.8" class="g10_3" />
<path d="M493.5,533c0.5,1.5,0.4,3.4,-0.2,5.3c-1.3,3.7,-4.6,6,-7.4,5" class="g10_3" />
<path d="M487.2,543.5c-2.8,-0.9,-4.1,-4.5,-2.8,-8.2c0.4,-1.1,0.9,-2.1,1.6,-2.8" class="g8_3" />
<path d="M489.8,534.2l1,-0.2l0.4,2.3l1.4,-0.4l0.2,1.2l-1.6,1l-0.2,2.1l-1.2,0.3l-0.1,-2l-1.8,0.3l-0.1,-1.2l1.9,-0.8Z" class="g8_3" />
<path d="M474,535.7c-1.9,-0.5,-3,-3,-2.3,-5.5c0.3,-1.2,0.9,-2.3,1.6,-2.9" class="g10_3" />
<path d="M475.5,535.1c-0.2,0.3,-0.8,0.8,-1.5,0.6" class="g8_3" />
<path d="M473.9,534.4c-0.3,0.4,-0.6,0.5,-1.3,0.3" class="g8_3" />
<path d="M482.7,538.1l-8.9,-3.6" class="g10_3" />
<path d="M478.9,536.5c-1.3,-0.4,-1.6,-2.8,-1.1,-4.5c0.4,-1,1,-1.8,1.7,-2.1" class="g8_3" />
<path d="M480.9,537.4c-1.3,-0.4,-1.7,-2.8,-1.1,-4.5c0.3,-1,1,-1.8,1.7,-2.2" class="g8_3" />
<path d="M482.7,538.1c-1.3,-0.4,-1.5,-2.7,-0.9,-4.4c0.3,-1,1,-1.8,1.7,-2.2" class="g8_3" />
<path d="M476.5,535.4c-1.3,-0.5,-1.6,-2.8,-1.1,-4.5c0.3,-0.9,0.9,-1.7,1.6,-2.1" class="g8_3" />
<path d="M474.2,534.6c-1.3,-0.4,-1.5,-2.8,-0.9,-4.5c0.3,-1,0.9,-1.8,1.6,-2.2" class="g8_3" />
<path d="M460.6,522.6c0,-0.2,0.3,-0.8,0.7,-1.3c0.4,-0.4,1.1,-0.7,1.2,-0.7" class="g10_3" />
<path d="M462.1,524c0,0,0.1,-1.4,1.5,-0.8" class="g10_3" />
<path d="M623.4,494.7c-2.3,-0.8,-3.5,-3.6,-3.1,-6.7" class="g10_3" />
<path d="M630.9,484.2c0.6,1.5,0.6,3.5,-0.1,5.5c-1.3,3.8,-4.6,6,-7.4,5" class="g10_3" />
<path d="M624.8,495c-2.6,-0.9,-4,-4.1,-3.1,-7.6" class="g8_3" />
<path d="M627.3,485.7l1,-0.2l0.4,2.2l1.5,-0.4l0.1,1.2l-1.5,1l-0.3,2.1l-1.2,0.4l-0.1,-2l-1.8,0.2l0,-1.2l1.8,-0.7Z" class="g8_3" />
<path d="M460.6,542.2c0,0,0.1,2.3,2.5,2.9c2.4,0.6,3.3,0,3.3,0" class="g10_3" />
<path d="M462.2,542.3c0,0,0.2,2.5,1.5,2.9" class="g10_3" />
<path d="M618.4,488.5l1.8,0.8" class="g10_3" />
<path d="M654.8,470.6l0,3.2c0,0,0.1,1.8,-1.4,2.3" class="g10_3" />
<path d="M646.6,384.5L493.7,438.1" class="g8_3" />
<path d="M646.8,388.7L495.4,441.2" class="g8_3" />
<path d="M538.2,502l-32.6,11.3" class="g10_3" />
<path d="M538.2,507.5l0,-5.5" class="g8_3" />
<path d="M505.6,519.2l32.6,-11.7" class="g8_3" />
<path d="M505.6,513.3l0,5.9" class="g10_3" />
<path d="M505.6,518l31,-11" class="g10_3" />
<path d="M536.6,502.6l0,4.4" class="g10_3" />
<path d="M536.6,507l1.6,0.5" class="g8_3" />
<path d="M619.2,347.4c0.3,-0.1,1.1,-0.2,1.8,-0.2c0.7,0.1,1.2,0.3,1.4,0.4c0.2,0.1,1.2,0.4,1.7,1c0.5,0.7,0.6,1.5,0.6,1.7c0,0.3,0,13,0,13" class="g10_3" />
<path d="M632.9,373.9l19.7,8.1" class="g10_3" />
<path d="M620.3,411.6c0,0,1.1,-0.5,3.3,-0.3" class="g8_3" />
<path d="M619.5,410.7c0,0,1.7,-0.5,3.5,0.3" class="g10_3" />
<path d="M412.2,397.1c0,0,0.2,0.3,0.1,0.6c0,0.1,-0.2,0.2,-0.2,0.2c-0.3,0.1,-10.8,3.8,-10.8,3.8c0,0,-0.8,0.4,-1.3,0.7c-0.3,0.2,-0.4,0.5,-0.4,0.5c0,0.3,0,3.9,0,3.9l3.2,1.4c0,0,0.9,0.3,1.9,0.3c0.8,0,1.7,-0.3,1.9,-0.3c0.2,-0.1,26.9,-9.7,26.9,-9.7l0,-3.6c0,0,0,-0.2,-0.2,-0.3c-0.2,-0.2,-0.6,-0.4,-0.8,-0.5c-0.1,-0.1,-1.7,-0.7,-1.7,-0.7l73.3,-25.7l0,2.6l3,1.2c0,0,0.9,0.3,2,0.3c0.8,0,1.7,-0.2,1.9,-0.3C511.7,371.3,632,329,632,329c0,0,1.2,-0.3,1.5,0.2" class="g10_3" />
<path d="M381.2,407.2l29,-10.1c0,0,1.5,-0.5,2,0" class="g8_3" />
<path d="M430.8,393.4l-3.7,-1.6c0,0,-0.5,-0.3,0.1,-0.7" class="g10_3" />
<path d="M399.6,403.3l3.6,1.5c0,0,0.8,0.2,1.6,0.2c0.7,0,1.4,-0.2,1.6,-0.3c0.4,-0.1,26.9,-9.5,26.9,-9.5" class="g8_3" />
<path d="M427.2,391.1l87.3,-30.6c0,0,1.2,-0.4,1.8,0" class="g8_3" />
<path d="M516.3,360.5c0,0,0.3,0.1,0.4,0.4c0,0.2,-0.2,0.4,-0.3,0.5c-0.4,0.1,-11.4,4,-11.4,4c0,0,-0.4,0.1,-0.6,0.4c-0.2,0.2,-0.3,0.4,-0.3,0.5c0,0.3,0,1.4,0,1.4" class="g10_3" />
<path d="M504.1,366.7l3.2,1.5c0,0,0.8,0.3,1.7,0.3c0.8,0,1.7,-0.3,1.9,-0.4c0.5,-0.2,122.6,-43,122.6,-43" class="g8_3" />
<path d="M403.5,405.5l0,2" class="g8_3" />
<path d="M405.5,405.5l0,2" class="g8_3" />
<path d="M508.5,369.5l0,1" class="g8_3" />
<path d="M509.5,369.5l0,1" class="g8_3" />
<path d="M381.2,407.2c-0.1,0,-0.4,0.1,-0.5,0.4c0,0.3,0.3,0.5,0.4,0.5c0.2,0.1,5.9,2.4,5.9,2.4c0,0,0.2,0.1,0.4,0.2c0.1,0.1,0.1,0.3,0.1,0.4c0,0.2,0,3.1,0,3.1c0,0,0,0.3,-0.2,0.5c-0.2,0.3,-0.8,0.5,-0.9,0.5c-0.2,0.1,-46.6,16.3,-46.6,16.3c0,0,-1.3,0.4,-2.2,1.1c-0.8,0.7,-1,1.9,-1,2c0,0.4,0.1,59.1,0.1,59.1c0,0,0,1.4,1,1.6" class="g10_3" />
<path d="M384.9,409.6l14.7,-5.1" class="g10_3" />
<path d="M386.5,410.3l13.1,-4.6" class="g10_3" />
<path d="M416.2,432.2c-1.7,-0.7,-2.3,-3.4,-1.3,-6.1c0.9,-2.7,3.2,-4.4,4.9,-3.7" class="g10_3" />
<path d="M419.8,422.4c1.7,0.6,2.3,3.3,1.3,6c-1,2.7,-3.2,4.4,-4.9,3.8" class="g10_3" />
<path d="M418.2,429.1l1,-1.5l0,-1.9l-1.3,-0.4" class="g8_3" />
<path d="M417.9,425.3l-1.1,1.4l0,1.9l1.4,0.5" class="g8_3" />
<path d="M419.2,427.6l-2.4,-0.9" class="g8_3" />
<path d="M418.2,429.1l-1.4,-1.8" class="g8_3" />
<path d="M419.2,425.7l-1.8,0.3" class="g8_3" />
<path d="M345.9,429.4l-1.3,51.3l-8,3" class="g10_3" />
<path d="M346.6,429.1l-1.2,51.4" class="g8_3" />
<path d="M345.7,480.4l10.8,-3.9l0,-30.1c0,0,0.2,-3.8,2.1,-6.7c1.9,-2.7,4.4,-4.4,5.8,-4.6c0.7,0,2.1,1,2.8,2.5c0.7,1.5,0.5,3.6,0.5,3.9c0,0.5,0.1,28,0.1,28" class="g10_3" />
<path d="M364.5,434.9c0.4,-0.1,2.6,0,4.2,1.5c1.5,1.3,2,3.8,2,4.8c0,0.6,0,30.3,0,30.3" class="g8_3" />
<path d="M336.6,484.3l20.6,-7.4l0,-1.7L370,470.5l0,1.9l23.6,-8.2l0,-1.9l12.9,-4.5l0,1.8L475,435.5" class="g8_3" />
<path d="M357.2,475.2c0,0,-0.5,-0.3,-0.5,-0.3" class="g8_3" />
<path d="M370,470.5l-2.2,-1" class="g8_3" />
<path d="M393.6,462.3l-0.7,-0.1" class="g8_3" />
<path d="M406.5,457.8L404,456.7" class="g8_3" />
<path d="M370.9,471.4l21.9,-7.8" class="g10_3" />
<path d="M400.9,422c0.3,-0.1,2.5,0,4.1,1.5c1.5,1.3,2,3.8,2,4.8c0,0.6,0,30.3,0,30.3" class="g8_3" />
<path d="M393.6,462.3c0,0,-0.6,-0.3,-0.6,-0.3" class="g8_3" />
<path d="M406.4,457.6l-2.3,-1" class="g8_3" />
<path d="M392.8,463.6l0,-30.1c0,0,0.2,-3.8,2.1,-6.6c1.9,-2.8,4.4,-4.5,5.8,-4.6c0.7,-0.1,2.1,0.9,2.8,2.4c0.7,1.6,0.5,3.7,0.5,3.9c0,0.5,0.1,27.9,0.1,27.9" class="g10_3" />
<path d="M407.2,458.5l14.9,-5.3l-1.3,-50.1" class="g10_3" />
<path d="M421.4,402.9l1.4,50.5" class="g8_3" />
<path d="M422.9,453.2l51.3,-18.1" class="g10_3" />
<path d="M393.8,429l10.2,4.1" class="g10_3" />
<path d="M392.8,440.2l11.3,4.7" class="g10_3" />
<path d="M392.8,441.3l11.3,4.7" class="g8_3" />
<path d="M392.8,443.3l11.2,4.8" class="g8_3" />
<path d="M336.6,485.7L476.8,436.2" class="g10_3" />
<path d="M381.1,473.8c-0.1,0,-0.3,0.2,-0.3,0.5c0,0.2,0.2,0.3,0.3,0.3c0.2,0.1,5.8,2.4,5.8,2.4c0,0,0.3,0.2,0.5,0.4c0.1,0.1,0.1,0.3,0.1,0.4c0,0.1,0,2.9,0,2.9c0,0,0.1,0.4,-0.1,0.6c-0.2,0.2,-0.6,0.4,-0.7,0.4c-0.2,0.1,-48.3,17,-48.3,17c0,0,-1.9,0.2,-2.6,0c-0.6,-0.3,-50.9,-20.6,-50.9,-20.6" class="g10_3" />
<path d="M412.2,463.6c0.2,0,0.4,0.2,0.4,0.5c0,0.1,-0.3,0.3,-0.5,0.4c-0.3,0.1,-11.5,4.2,-11.5,4.2c0,0,-0.5,0.2,-0.8,0.5c-0.2,0.2,-0.1,0.4,-0.1,0.5c-0.1,0.3,0,3.3,0,3.3c0,0,0,0.1,0.1,0.3c0,0.1,0.2,0.2,0.3,0.2c0.2,0.1,3.1,1.3,3.1,1.3c0,0,0.8,0.2,1.6,0.2c0.8,0,1.5,-0.2,1.7,-0.3c0.4,-0.1,26.4,-9.3,26.4,-9.3c0,0,0.4,-0.1,0.6,-0.4c0.2,-0.2,0.2,-0.4,0.2,-0.5c0,-0.2,0,-3,0,-3c0,0,0,-0.2,-0.1,-0.4c-0.2,-0.2,-0.5,-0.3,-0.6,-0.3c-0.2,-0.2,-5.6,-2.4,-5.6,-2.4c0,0,-0.9,-0.5,-0.1,-0.9" class="g10_3" />
<path d="M384.7,476.1l14.9,-5.2" class="g10_3" />
<path d="M381.1,473.8l29.2,-10.2c0,0,1.2,-0.5,1.9,-0.2" class="g8_3" />
<path d="M337.7,495.3L387.1,478" class="g8_3" />
<path d="M399.7,469.9l3.5,1.4c0,0,0.7,0.2,1.6,0.2c0.7,0,1.6,-0.2,1.8,-0.3c0.4,-0.2,26.9,-9.5,26.9,-9.5" class="g8_3" />
<path d="M427.3,457.5L482,438.3" class="g8_3" />
<path d="M430.9,459.8l55.6,-19.6" class="g10_3" />
<path d="M619.5,333.5l0,14" class="g8_3" />
<path d="M621,332l0,15" class="g10_3" />
<path d="M636.8,375.4c0,0.1,0,-46.7,0,-46.7c0,0,-0.1,-1.3,-0.7,-2.2c-0.5,-0.7,-1.5,-1.1,-1.7,-1.2C633.9,325,577.7,301.8,577.7,301.8" class="g10_3" />
<path d="M634.3,364.2l0,-33.7c0,0,0,-1.2,-0.5,-1.4" class="g8_3" />
<path d="M634.5,372.5l0,2" class="g8_3" />
<path d="M287,412l46.4,19.3" class="g8_3" />
<path d="M288.2,409.7L334.8,429" class="g8_3" />
<path d="M387.2,411.3l-48.4,17.1c0,0,-2.3,0.8,-3.5,2.4c-1.1,1.5,-1.3,3.8,-1.3,3.9c0,0.2,0,60.4,0,60.4c0,0,0.1,2.8,1.6,3.2" class="g8_3" />
<path fill-rule="evenodd" d="M477.3,509.3l12,-5l0,-6.2L455.9,484.4l12.8,-4.7l12.5,5l5.4,-16.6l0.1,-6.3l-43.3,1.5l-0.1,6.3l4.9,1.9L423,481l0,6.2Z" class="g12_3" />
<path fill-rule="evenodd" d="M477.2,502.9l12.1,-4.8L447.7,481.2l21,-7.8l12.5,5l5.5,-16.6l-43.3,1.5l13.4,5.2L423,481Z" class="g13_3" />
<path d="M423,481l54.2,21.8" class="g8_3" />
<path d="M456.8,468.5l-25.4,8.8" class="g8_3" />
<path d="M468.7,473.4l-21,7.4" class="g8_3" />
<path d="M489.3,498.1l-12.1,4.7" class="g8_3" />
<path d="M481.2,478.4l5.5,-16.6l-43.3,1.5l13.4,5.2" class="g8_3" />
<path d="M481.2,478.4l-12.5,-5" class="g8_3" />
<path d="M423,487.2L477.2,509" class="g8_3" />
<path d="M468.7,479.7l-4.4,1.5" class="g8_3" />
<path d="M481.2,484.7l5.4,-16.6l0.1,-6.3l-43.3,1.5l-0.1,6.3l4.9,1.9" class="g8_3" />
<path d="M481.2,484.7l-12.5,-5" class="g8_3" />
<path d="M468.7,473.4l0.1,5.9" class="g8_3" />
<path d="M477.2,502.8l0,5.9" class="g8_3" />
<path d="M447.7,481.1l41.6,17l0,6.2L477.2,509L423,487.2l0,-6.2l33.8,-12.5" class="g10_3" />
<path d="M448.2,471.5l-4.9,-1.9l0.1,-6.3l43.3,-1.5l-0.1,6.3l-5.4,16.6l-12.5,-5l-13.1,4.6" class="g10_3" />
<path d="M481.2,478.4l0.1,5.9" class="g8_3" />
<path d="M498.8,775.3l0,3l3.5,1.5c0,0,1.1,0.3,2.3,0.3c0.9,0,1.9,-0.3,2.3,-0.4c0.7,-0.2,140.6,-49.3,140.6,-49.3c0,0,1.4,-0.4,1.8,0.1" class="g10_3" />
<path d="M392,808.6c0,0,0.1,1.3,0.1,1.6c0,0.1,-0.2,0.2,-0.3,0.2c-0.3,0.1,-12.5,4.4,-12.5,4.4c0,0,-1,0.5,-1.6,0.9c-0.3,0.2,-0.4,0.5,-0.4,0.6c0,0.3,0,4.4,0,4.4l3.7,1.7c0,0,1.1,0.4,2.2,0.4c1,0,2,-0.4,2.2,-0.4c0.3,-0.1,31.3,-11.2,31.3,-11.2l0,-4.3c0,0,0,-0.1,-0.2,-0.3c-0.3,-0.2,-0.8,-0.5,-0.9,-0.6c-0.2,0,-2,-0.8,-2,-0.8l14.5,-5.1" class="g10_3" />
<path d="M413.6,805.2l-4.3,-1.8c0,0,-0.6,-0.5,0,-0.9" class="g10_3" />
<path d="M377.3,816.7l4.2,1.8c0,0,1,0.2,1.9,0.2c0.8,0,1.6,-0.3,1.8,-0.4c0.4,-0.1,31.3,-11,31.3,-11" class="g8_3" />
<path d="M513.5,766.8c0,0,0,0.5,-0.1,0.6c-0.1,0.2,-0.2,0.5,-0.4,0.6c-0.4,0.1,-13.1,4.7,-13.1,4.7c0,0,-0.5,0.1,-0.7,0.4c-0.3,0.2,-0.4,0.5,-0.4,0.6c0,0.3,0,1.6,0,1.6" class="g10_3" />
<path d="M498.8,774.2l3.7,1.6c0,0,1,0.4,2,0.4c1,0,2,-0.3,2.2,-0.4c0.6,-0.2,142.5,-50,142.5,-50" class="g8_3" />
<path d="M382.5,819.5l0,2" class="g8_3" />
<path d="M384.5,819.5l0,2" class="g8_3" />
<path d="M503.5,777.5l0,1" class="g8_3" />
<path d="M505.5,776.5l0,2" class="g8_3" />
<path d="M355.9,821.2c-0.1,0.1,-0.5,0.2,-0.5,0.5c-0.1,0.4,0.3,0.6,0.4,0.6c0.2,0.1,6.8,2.8,6.8,2.8c0,0,0.3,0.1,0.5,0.3c0.1,0.1,0.1,0.3,0.1,0.4c0,0.3,0.1,3.6,0.1,3.6c0,0,0,0.3,-0.3,0.6c-0.3,0.3,-0.9,0.5,-1,0.6c-0.3,0.1,-54.2,18.9,-54.2,18.9c0,0,-1.6,0.4,-2.6,1.3c-0.9,0.8,-1.2,2.1,-1.2,2.3c0,0.4,0.1,68.7,0.1,68.7c0,0,0,1.6,1.3,1.9" class="g10_3" />
<path d="M360.2,824.1l13.9,-4.9" class="g10_3" />
<path d="M362.1,824.9l12.1,-4.3" class="g10_3" />
<path d="M396.6,850.3c-2,-0.8,-2.7,-3.9,-1.6,-7.1c1.2,-3.1,3.8,-5,5.8,-4.3" class="g10_3" />
<path d="M400.8,838.9c2,0.7,2.7,3.9,1.5,7c-1.1,3.2,-3.7,5.1,-5.7,4.4" class="g10_3" />
<path d="M398.9,846.7l1.2,-1.7l0,-2.2l-1.5,-0.5" class="g8_3" />
<path d="M398.6,842.3l-1.2,1.6l0,2.2l1.5,0.6" class="g8_3" />
<path d="M400.1,845l-2.7,-1.1" class="g8_3" />
<path d="M398.9,846.7l-1.5,-2.1" class="g8_3" />
<path d="M400.1,842.8l-2.1,0.3" class="g8_3" />
<path d="M314.9,847l-1.5,59.7l-9.3,3.4" class="g10_3" />
<path d="M315.7,846.8l-1.4,59.7" class="g8_3" />
<path d="M314.6,906.4l12.6,-4.6l0,-35c0,0,0.2,-4.5,2.4,-7.7c2.2,-3.3,5.2,-5.2,6.8,-5.4c0.8,-0.1,2.4,1.1,3.2,2.8c0.9,1.9,0.6,4.3,0.6,4.6c0,0.6,0.1,32.5,0.1,32.5" class="g10_3" />
<path d="M336.5,853.5c0.5,-0.1,3,-0.1,4.9,1.7c1.7,1.5,2.3,4.4,2.3,5.5c0,0.8,0,35.3,0,35.3" class="g8_3" />
<path d="M304.1,910.9L328,902.3l0.1,-2l14.8,-5.4l0,2.2l27.4,-9.6l0,-2.1L385.4,880l0,2.2l24.4,-8.6" class="g8_3" />
<path d="M328.1,900.3c0,0,-0.7,-0.3,-0.7,-0.4" class="g8_3" />
<path d="M342.9,894.9l-2.6,-1.3" class="g8_3" />
<path d="M370.3,885.4l-0.8,-0.2" class="g8_3" />
<path d="M385.4,880l-2.9,-1.2" class="g8_3" />
<path d="M343.9,895.9l25.5,-9" class="g10_3" />
<path d="M378.8,838.5c0.4,-0.1,2.9,-0.1,4.8,1.7c1.7,1.5,2.3,4.5,2.3,5.5c0,0.8,0,35.3,0,35.3" class="g8_3" />
<path d="M370.3,885.3c0,0,-0.6,-0.3,-0.7,-0.4" class="g8_3" />
<path d="M385.2,879.9l-2.6,-1.3" class="g8_3" />
<path d="M369.4,886.9l0,-35c0,0,0.2,-4.5,2.4,-7.8c2.2,-3.2,5.2,-5.2,6.8,-5.3c0.8,-0.1,2.4,1.1,3.2,2.8c0.9,1.8,0.6,4.3,0.6,4.6c0,0.6,0.1,32.3,0.1,32.3" class="g10_3" />
<path d="M386.2,880.9l17.2,-6.1l-1.5,-58.4" class="g10_3" />
<path d="M402.7,816.2l1.6,58.7" class="g8_3" />
<path d="M404.4,874.7l5.1,-1.8" class="g10_3" />
<path d="M370.6,846.6l11.8,4.8" class="g10_3" />
<path d="M369.4,859.6l13.1,5.5" class="g10_3" />
<path d="M369.4,860.9l13.1,5.5" class="g8_3" />
<path d="M369.4,863.2l13.1,5.5" class="g8_3" />
<path d="M304.1,912.3L409.3,875.4" class="g10_3" />
<path d="M355.8,898.7c-0.1,0,-0.4,0.3,-0.4,0.6c0,0.2,0.3,0.3,0.4,0.4c0.2,0.1,6.8,2.7,6.8,2.7c0,0,0.3,0.2,0.5,0.4c0.2,0.2,0.2,0.4,0.2,0.5c0,0.1,0,3.5,0,3.5c0,0,0,0.3,-0.2,0.6c-0.2,0.2,-0.7,0.4,-0.8,0.5c-0.2,0.1,-56.2,19.8,-56.2,19.8c0,0,-2.2,0.2,-2.9,-0.1c-0.8,-0.3,-61.4,-24.8,-61.4,-24.8" class="g10_3" />
<path d="M392.3,887c0.2,0.1,0.1,0.3,0.1,0.3c0,0.3,-0.4,0.5,-0.5,0.5c-0.4,0.2,-13.4,4.9,-13.4,4.9c0,0,-0.6,0.3,-0.9,0.7c-0.2,0.2,-0.2,0.4,-0.2,0.6c0,0.2,0,3.7,0,3.7c0,0,0,0.2,0.1,0.3c0.1,0.2,0.2,0.3,0.4,0.3c0.3,0.2,3.6,1.5,3.6,1.5c0,0,0.9,0.3,1.9,0.3c0.8,0,1.7,-0.3,1.9,-0.3c0.5,-0.2,30.7,-10.9,30.7,-10.9c0,0,0.5,-0.1,0.7,-0.4c0.2,-0.2,0.2,-0.6,0.2,-0.7c0,-0.2,0,-3.4,0,-3.4c0,0,0,-0.3,-0.1,-0.5c-0.2,-0.2,-0.5,-0.3,-0.7,-0.4c-0.2,-0.1,-6.5,-2.7,-6.5,-2.7" class="g10_3" />
<path d="M360,901.4l14.5,-5.1" class="g10_3" />
<path d="M305.4,923.7l57.4,-20.1" class="g8_3" />
<path d="M377.4,894.1l4,1.6c0,0,1,0.3,1.9,0.3c0.9,0,1.9,-0.2,2.1,-0.4c0.5,-0.2,31.3,-11,31.3,-11" class="g8_3" />
<path d="M413.7,882.5l14.4,-5.2" class="g10_3" />
<path d="M653.3,798.5c-0.1,0.2,-0.2,-68.5,-0.2,-68.5c0,0,-0.1,-1.5,-0.9,-2.5c-0.5,-0.9,-1.6,-1.4,-1.9,-1.5c-0.6,-0.3,-68.4,-28.3,-68.4,-28.3" class="g10_3" />
<path d="M650.4,799l0,-67c0,0,0,-1.2,-0.8,-1.5" class="g8_3" />
<path d="M243.8,826.3l54.7,23" class="g8_3" />
<path d="M245.3,823.9L300.2,847" class="g8_3" />
<path d="M362.9,826l-56.3,19.9c0,0,-2.6,0.9,-4,2.8c-1.4,1.7,-1.6,4.4,-1.6,4.5c0,0.3,0.1,70.3,0.1,70.3c0,0,0,3.2,1.8,3.7" class="g8_3" />
<path d="M356.2,821.2l18.3,-6.4" class="g8_3" />
<path d="M530.1,771.6L530,835" class="g10_3" />
<path d="M411.8,874.9l0,-62" class="g8_3" />
<path d="M409.9,873.8l0,-60.2" class="g10_3" />
<path d="M374.3,821.9l0,-17.1" class="g10_3" />
<path d="M376.2,823l0,-17.1" class="g8_3" />
<path d="M339.6,786.1l-0.1,-23" class="g10_3" />
<path d="M341.4,786l-0.1,-21.7" class="g8_3" />
<path d="M374.3,821.9c0,0,0.3,1.6,2.4,1.2" class="g10_3" />
<path d="M524,693.8L343.3,757.2" class="g10_3" />
<path d="M526.1,694.4L346,757.6" class="g8_3" />
<path d="M343.3,757.2c0,0,-3.6,1.7,-3.8,5.9" class="g10_3" />
<path d="M341.3,764.3c0,0,-0.3,-4.7,4.7,-6.7" class="g8_3" />
<path d="M343.1,788.1l30.5,12.4" class="g8_3" />
<path d="M342,790.4l30.2,12.3" class="g10_3" />
<path d="M341.4,786c0,0,0.1,1.3,1.7,2.1" class="g8_3" />
<path d="M339.6,786.1c0,0,-0.2,3,2.4,4.3" class="g10_3" />
<path d="M373.6,800.5c0,0,2.6,1.5,2.6,5.4" class="g8_3" />
<path d="M372.2,802.7c0,0,1.7,0.6,2.1,2.1" class="g10_3" />
<path d="M429.9,795.5L392,808.6" class="g10_3" />
<path d="M430.1,801.9l0,-6.5" class="g8_3" />
<path d="M416.5,806.6l13.6,-4.7" class="g8_3" />
<path d="M415.5,805.7l12.7,-4.5" class="g10_3" />
<path d="M428.2,796.1l0,5.1" class="g10_3" />
<path d="M428.2,801.2l1.9,0.7" class="g8_3" />
<path d="M522.6,724.6L345.3,786.9" class="g8_3" />
<path d="M514.6,716.7c-2.2,-0.5,-3.5,-3.4,-2.7,-6.4c0.7,-3,3.1,-5,5.4,-4.5" class="g10_3" />
<path d="M516.4,716c-0.4,0.4,-1,0.9,-1.8,0.7" class="g8_3" />
<path d="M517.3,705.8c1.1,0.3,1.7,1.1,1.9,2.2" class="g8_3" />
<path d="M514.5,715.2c-0.3,0.5,-0.8,0.5,-1.6,0.3" class="g8_3" />
<path d="M515.9,705.8c0.8,0.2,1.2,0.3,1.4,1.3" class="g8_3" />
<path d="M354.7,773c-2.2,-0.6,-3.4,-3.4,-2.7,-6.4c0.8,-3.1,3.2,-5,5.4,-4.5" class="g10_3" />
<path d="M356.5,772.2c-0.3,0.5,-1,1,-1.8,0.8" class="g8_3" />
<path d="M357.4,762.1c1.1,0.3,1.7,1,1.9,2.1" class="g8_3" />
<path d="M354.6,771.5c-0.3,0.4,-0.7,0.5,-1.5,0.3" class="g8_3" />
<path d="M356.1,762.1c0.8,0.2,1.2,0.3,1.4,1.3" class="g8_3" />
<path d="M558.4,750.2l-44.9,15.6" class="g10_3" />
<path d="M525.8,839.2l-12.3,4.6" class="g10_3" />
<path d="M565.3,738.6l0,5.5" class="g10_3" />
<path d="M562.7,734c0,0,2.6,1.6,2.6,4.6" class="g10_3" />
<path d="M558.4,750.2l5.7,-3.9" class="g10_3" />
<path d="M564.1,746.3c0,0,1.1,-1,1.2,-2.2" class="g10_3" />
<path d="M513.5,765.8l0,2" class="g10_3" />
<path d="M525.8,839.2l1.6,-0.8c0,0,2.6,-1.4,2.6,-3.4" class="g10_3" />
<path d="M513.5,843.8l0,0.9" class="g10_3" />
<path d="M407.3,877.3l-32.6,11.1" class="g10_3" />
<path d="M409.4,877.5l-33.1,11.7" class="g8_3" />
<path d="M563.7,843.5L375.8,909.7c-0.9,0.4,-1.6,0.6,-3.2,-0.1" class="g10_3" />
<path d="M525.2,860.2L378.3,912.3M365.2,917l-19,6.7" class="g10_3" />
<path d="M409.9,873.8c0,0,-0.2,2.2,-2.6,3.5" class="g10_3" />
<path d="M411.8,874.9c0,0,-0.1,1.7,-2.4,2.6" class="g8_3" />
<path d="M363.3,903.3l9.3,3.8" class="g8_3" />
<path d="M374.7,888.4l-0.1,17.3" class="g10_3" />
<path d="M376.3,889.2l0,18.3" class="g8_3" />
<path d="M372.6,907.1c0.1,0,2,0.6,2,-1.4" class="g10_3" />
<path d="M374.7,888.4l1.6,0.8" class="g8_3" />
<path d="M341.4,915.2l0,5.2" class="g8_3" />
<path d="M339.5,915.9l0,4.4" class="g10_3" />
<path d="M528.9,865.1c-2.8,-0.9,-4.2,-4.2,-3.7,-7.9" class="g10_3" />
<path d="M537.5,852.8c0.7,1.8,0.7,4.2,0,6.4c-1.5,4.4,-5.4,7,-8.6,5.9" class="g10_3" />
<path d="M530.4,865.4c-3,-1.1,-4.5,-4.8,-3.5,-8.8" class="g8_3" />
<path d="M533.4,854.5l1.1,-0.2L535,857l1.7,-0.5l0.1,1.4L535,859l-0.2,2.5l-1.4,0.4l-0.1,-2.4l-2.2,0.4l0,-1.5l2.2,-0.8Z" class="g8_3" />
<path d="M339.5,920.3c0,0,0.2,2.7,2.9,3.4c2.8,0.6,3.8,0,3.8,0" class="g10_3" />
<path d="M341.4,920.4c0,0,0.2,2.9,1.7,3.4" class="g8_3" />
<path d="M523.1,857.9l2,0.9" class="g10_3" />
<path d="M565.2,836.4l0.1,4.3c0,0,0.1,2.2,-1.6,2.8" class="g10_3" />
<path d="M554.3,738.6L376.5,800.9" class="g8_3" />
<path d="M558.6,739.4l-176,61" class="g8_3" />
<path d="M429.9,873l-38,13.7" class="g10_3" />
<path d="M430.1,879.6l0,-6.6" class="g8_3" />
<path d="M416.9,884.3l13.2,-4.7" class="g8_3" />
<path d="M415.9,883.4L428.2,879" class="g10_3" />
<path d="M428.3,873.6l-0.1,5.4" class="g10_3" />
<path d="M428.2,879l1.9,0.6" class="g8_3" />
<path d="M524,693.8c0.2,-0.1,1.2,-0.3,2.1,-0.2c0.8,0.1,1.4,0.3,1.6,0.4c0.2,0.1,1.3,0.5,1.9,1.2c0.6,0.7,0.8,1.8,0.8,2c-0.1,0.4,-0.1,13.1,-0.1,13.1" class="g10_3" />
<path d="M562.7,734L532.9,721.8c-1.8,-0.9,-2.7,-1.9,-2.7,-5" class="g10_3" />
<path d="M372.7,909.7l-9.4,-4" class="g10_3" />
<path d="M355.8,898.7l18.9,-6.6" class="g8_3" />
<path d="M513.9,844.7l-13.2,4.9c0,0,-0.9,0.4,-1.4,0.9c-0.2,0.2,-0.3,0.5,-0.3,0.6c0,0.3,0.1,4.1,0.1,4.1L503,857c0,0,0.9,0.3,1.9,0.3c1.1,0,2.2,-0.3,2.4,-0.4c0.4,-0.2,117,-41.4,117,-41.4" class="g10_3" />
<path d="M499,851.1l4,1.9c0,0,1,0.3,2,0.3c1.1,0,2.2,-0.5,2.4,-0.5c0.4,-0.2,112.5,-39.7,112.5,-39.7" class="g8_3" />
<path d="M643.4,808.8l5.7,-2.1c0,0,4,-1.8,4.2,-8.2" class="g10_3" />
<path d="M637.2,807L648,803.3c0,0,2.4,-1.1,2.4,-4.3" class="g8_3" />
<path d="M504.5,854.5l0,1" class="g8_3" />
<path d="M505.5,854.5l0,1" class="g8_3" />
<path d="M382.5,896.5l0,2" class="g8_3" />
<path d="M384.5,896.5l0,2" class="g8_3" />
<path d="M635.6,734.7l0.2,61l-7.9,3" class="g10_3" />
<path d="M633.3,735.5l0.1,59.4l-8.5,3.2" class="g8_3" />
<path d="M625.4,797.2l7,-2.5c0,0,0.8,-0.3,0.8,-1.1" class="g8_3" />
<path d="M591.9,795.9c0,-2.1,0.9,-5,2.1,-7.1c3,-5,8.4,-7.5,12.2,-5.3c0.2,0.1,0.4,0.2,0.6,0.4" class="g8_3" />
<path d="M598.2,797.1c0.1,-1.5,0.5,-3.1,1.2,-4.6c2.3,-4.6,7.2,-6.8,9.9,-5.2c1.4,0.8,2,1.6,2.4,3.7" class="g8_3" />
<path d="M606.9,784.1c0.8,0.1,1.6,0.3,2.3,0.7c0.3,0.2,2.4,1.2,3.1,6.4" class="g10_3" />
<path d="M595.1,796.6c0,-2.1,1,-4.6,2.3,-6.8c2.4,-4,6.2,-6.2,9.5,-5.7" class="g8_3" />
<path d="M591.9,795.9l0.2,15.3" class="g8_3" />
<path d="M595.1,796.6L595,812.3" class="g8_3" />
<path d="M598.2,797.1l0,15.2" class="g8_3" />
<path d="M600.9,804.1c-1.6,-1.8,-2.2,-5.1,-1.2,-8.8c1.4,-5,4.9,-7.4,7.6,-7.2c1.7,0.2,2.5,1.3,2.9,2.3" class="g10_3" />
<path d="M637.4,798.5l7.2,2.7" class="g8_3" />
<path d="M639.7,796l7.2,2.8" class="g8_3" />
<path d="M530.1,832.8l62,-21.7l2.9,1.2l3.2,0l11.4,-4.1" class="g10_3" />
<path d="M530,831.2l62,-21.9" class="g10_3" />
<path d="M376.7,823.1l3.4,-1.1" class="g10_3" />
<path d="M241,814l0,93" class="g10_3" />
<path d="M241.8,814.1L338.6,781M531.7,714.8l59.1,-20.2" class="g10_3" />
<path d="M590.5,694.5l0,6" class="g8_3" />
<path d="M241.8,907.2l6.4,-2.1" class="g8_3" />
<path d="M514.6,716.8c-2.3,-0.5,-3.5,-3.4,-2.8,-6.5c0.8,-3,3.2,-5,5.5,-4.5" class="g10_3" />
<path d="M516.4,716.1c-0.4,0.4,-1,0.9,-1.8,0.7" class="g8_3" />
<path d="M517.3,705.8c1.1,0.3,1.7,1.1,1.9,2.2" class="g8_3" />
<path d="M361.7,779c-3.3,-1.2,-4.7,-5.6,-3.2,-10c1.5,-4.4,5.4,-7.1,8.7,-6" class="g10_3" />
<path d="M367.2,763c3.3,1.2,4.7,5.6,3.2,10c-1.5,4.4,-5.4,7.1,-8.7,6" class="g10_3" />
<path d="M363.2,779.2c-3.2,-1.1,-4.8,-5.3,-3.3,-9.7c1.6,-4.4,5.3,-6.9,8.6,-5.7" class="g8_3" />
<path d="M366.3,768.3l1.1,-0.3l0.5,2.7l1.7,-0.4l0.2,1.3l-1.9,1.2l-0.2,2.5l-1.4,0.4l-0.1,-2.4l-2.2,0.4l-0.1,-1.5l2.3,-0.8Z" class="g8_3" />
<path d="M354.7,773.1c-2.3,-0.5,-3.5,-3.5,-2.7,-6.5c0.7,-3,3.2,-5,5.4,-4.5" class="g10_3" />
<path d="M356.5,772.4c-0.3,0.4,-1,0.9,-1.8,0.7" class="g8_3" />
<path d="M357.4,762.1c1.1,0.3,1.7,1.1,1.9,2.2" class="g8_3" />
<path d="M357.9,772.8l-5.8,-2.3m-12.8,-5l-11.9,-5" class="g10_3" />
<path d="M330.3,752.5l12.7,5.1m11.9,4.9l6.1,2.4" class="g10_3" />
<path d="M353.4,771c-1.5,-0.5,-1.9,-3.3,-1.2,-5.4c0.7,-2,2.5,-3.1,4,-2.6" class="g8_3" />
<path d="M355.8,772c-1.5,-0.5,-1.9,-3.2,-1.3,-5.3c0.7,-2,2.5,-3.3,4,-2.7" class="g8_3" />
<path d="M357.9,772.8c-1.5,-0.5,-1.7,-3.1,-1.1,-5.2c0.7,-2,2.5,-3.3,4,-2.7" class="g8_3" />
<path d="M338.7,765.1c-1.5,-0.5,-2,-3.2,-1.3,-5.3c0.7,-2,2.5,-3.3,4,-2.7" class="g8_3" />
<path d="M327.4,760.5c-1.6,-0.6,-2,-3.2,-1.4,-5.3c0.7,-2,2.5,-3.3,4,-2.8" class="g8_3" />
<path d="M336.3,764c-1.5,-0.5,-2,-3.2,-1.3,-5.2c0.6,-2.1,2.4,-3.3,4,-2.8" class="g8_3" />
<path d="M333.7,762.9c-1.6,-0.5,-2,-3.2,-1.4,-5.2c0.7,-2.1,2.5,-3.3,4,-2.8" class="g8_3" />
<path d="M330.9,761.7c-1.5,-0.5,-2,-3.1,-1.3,-5.2c0.7,-2,2.5,-3.3,4,-2.8" class="g8_3" />
<path d="M328.3,760.7c-1.6,-0.5,-2,-3.2,-1.4,-5.3c0.7,-2,2.5,-3.2,4,-2.7" class="g8_3" />
<path d="M521.5,722.7c-3.2,-1.1,-4.7,-5.6,-3.2,-10c1.6,-4.4,5.4,-7.1,8.7,-5.9" class="g10_3" />
<path d="M527,706.8c3.3,1.1,4.7,5.6,3.2,10c-1.5,4.4,-5.4,7,-8.7,5.9" class="g10_3" />
<path d="M523.1,722.9c-3.3,-1.1,-4.8,-5.3,-3.3,-9.7c1.5,-4.4,5.3,-6.9,8.6,-5.7" class="g8_3" />
<path d="M526.1,712l1.2,-0.2l0.4,2.7l1.8,-0.5l0.1,1.3l-1.8,1.2l-0.3,2.5l-1.4,0.4L526,717.1l-2.2,0.3l0,-1.5l2.2,-0.8Z" class="g8_3" />
<path d="M514.6,716.8c-2.3,-0.5,-3.5,-3.4,-2.8,-6.5c0.8,-3,3.2,-5,5.5,-4.5" class="g10_3" />
<path d="M516.4,716.1c-0.4,0.4,-1,0.9,-1.8,0.7" class="g8_3" />
<path d="M517.3,705.8c1.1,0.3,1.7,1.1,1.9,2.2" class="g8_3" />
<path d="M517.8,716.6l-5.9,-2.4m-21.6,-8.7l-3,-1.3" class="g10_3" />
<path d="M490.1,696.2l12.4,5m12.3,5l6,2.4" class="g10_3" />
<path d="M513.3,714.7c-1.6,-0.5,-1.9,-3.3,-1.2,-5.4c0.6,-2,2.4,-3.1,4,-2.6" class="g8_3" />
<path d="M515.7,715.7c-1.6,-0.5,-2,-3.2,-1.3,-5.2c0.7,-2.1,2.4,-3.3,4,-2.8" class="g8_3" />
<path d="M517.8,716.6c-1.6,-0.5,-1.8,-3.2,-1.1,-5.2c0.7,-2.1,2.5,-3.3,4,-2.8" class="g8_3" />
<path d="M497.6,702.6c0.9,-1.4,2.4,-2.3,3.6,-1.8" class="g8_3" />
<path d="M487.2,704.2c-1.5,-0.5,-2,-3.2,-1.3,-5.3c0.7,-2,2.5,-3.3,4,-2.7" class="g8_3" />
<path d="M494.5,704c0,-0.5,0.1,-1,0.3,-1.5c0.8,-2.1,2.5,-3.3,4,-2.8" class="g8_3" />
<path d="M492.1,704.8c-0.3,-1,-0.3,-2.3,0.1,-3.4c0.7,-2,2.4,-3.3,4,-2.8" class="g8_3" />
<path d="M490.8,705.5c-1.6,-0.5,-2,-3.2,-1.4,-5.3c0.7,-2,2.5,-3.3,4,-2.8" class="g8_3" />
<path d="M488.1,704.4c-1.5,-0.5,-2,-3.2,-1.3,-5.2c0.7,-2.1,2.5,-3.3,4,-2.8" class="g8_3" />
<path d="M361.9,912.6c-1.5,-0.3,-2.5,-1.7,-2.8,-3.5" class="g10_3" />
<path d="M363.7,911.8c-0.3,0.5,-1,1,-1.8,0.8" class="g8_3" />
<path d="M361.8,911.1c-0.3,0.4,-0.8,0.5,-1.6,0.3" class="g8_3" />
<path d="M368.9,918.4c-3.3,-1.1,-4.7,-5.6,-3.2,-10c0.1,-0.3,0.2,-0.5,0.3,-0.8" class="g10_3" />
<path d="M378.1,909.7c0,0.9,-0.2,1.9,-0.6,2.8c-1.5,4.4,-5.3,7.1,-8.6,5.9" class="g10_3" />
<path d="M370.4,918.7c-3.3,-1.1,-4.8,-5.3,-3.3,-9.7c0.2,-0.5,0.3,-0.9,0.5,-1.3" class="g8_3" />
<path d="M373.4,909.8l1.3,0.1l0.4,0.3l1.7,-0.5l0.1,1.4l-1.8,1.2l-0.3,2.5l-1.4,0.4l-0.1,-2.4l-2.1,0.3l-0.1,-1.4l2.2,-0.9Z" class="g8_3" />
<path d="M361.9,912.6c-1.5,-0.4,-2.5,-1.7,-2.8,-3.4" class="g10_3" />
<path d="M363.7,911.8c-0.3,0.5,-1,1,-1.8,0.8" class="g8_3" />
<path d="M365.1,912.3L359.3,910" class="g10_3" />
<path d="M360.6,910.5c-0.7,-0.2,-1.1,-0.9,-1.4,-1.7" class="g8_3" />
<path d="M363,911.5c-1,-0.4,-1.6,-1.7,-1.6,-3.1" class="g8_3" />
<path d="M365.1,912.3c-1.6,-0.5,-1.8,-3.1,-1.1,-5.2" class="g8_3" />
<path fill-rule="evenodd" d="M519,1017l140,0l0,-22l-140,0Z" class="g14_3" />
<path d="M557,1027l-25,0" class="g15_3" />
<path d="M557,1043l-25,0" class="g15_3" />
<path d="M557,1060l-25,0" class="g15_3" />
<path d="M557,1060l-25,0" class="g16_3" />
<path d="M557,1043l-25,0" class="g17_3" />
<path d="M770.7,597.4c-4.8,-5,-15.2,6.1,-10.6,10.8" class="g8_3" />
<path d="M769.1,599.6c-3.1,-3.2,-9.8,4,-6.8,7" class="g10_3" />
<path d="M760.5,608.5c0,0,-1.8,-1.9,-2.8,-3c-4.6,-4.8,5.7,-15.7,10.5,-10.8c1.7,1.7,2.5,2.8,2.5,2.7" class="g10_3" />
<path d="M765.2,591.6c-4.5,-5.2,-15.5,5.3,-11,10.3" class="g8_3" />
<path d="M763.6,593.8c-3,-3.4,-10.1,3.4,-7.2,6.6" class="g8_3" />
<path d="M756.4,603.3c-0.9,-0.1,-1.5,-0.8,-1.9,-1.2c0,0,-1.6,-1.9,-2.6,-3c-4.4,-5,6.4,-15.5,11,-10.3c1.6,1.8,1.9,2.2,1.9,2.1c0.4,0.4,1,1.2,0.9,2.2" class="g10_3" />
<path d="M759.6,585.8c-4.7,-5.1,-15.4,5.6,-10.9,10.5" class="g8_3" />
<path d="M757.9,588c-3,-3.3,-9.9,3.6,-7,6.8" class="g8_3" />
<path d="M750.9,597.7c-0.8,-0.1,-1.5,-0.8,-1.9,-1.1c0,0,-1.7,-2,-2.7,-3.1c-4.4,-4.9,6.2,-15.5,10.9,-10.4c1.6,1.7,1.9,2.1,1.9,2c0.4,0.4,1,1.3,1,2.2" class="g10_3" />
<path d="M753.8,579.6c-4.7,-5.1,-15.3,5.8,-10.7,10.6" class="g8_3" />
<path d="M752.2,581.8c-3,-3.3,-9.9,3.7,-6.9,6.8" class="g8_3" />
<path d="M745.3,591.6c-0.8,-0.1,-1.5,-0.8,-1.9,-1.2c0,0,-1.7,-1.9,-2.7,-3c-4.5,-4.8,6,-15.6,10.7,-10.5c1.6,1.7,2,2.1,1.9,2c0.5,0.4,1.1,1.2,1,2.2" class="g10_3" />
<path d="M748.3,574c-4.5,-5.3,-15.5,5.2,-11.1,10.2" class="g8_3" />
<path d="M746.7,576.1c-3,-3.4,-10.1,3.4,-7.2,6.6" class="g8_3" />
<path d="M739.5,585.6c-0.9,0,-1.6,-0.8,-1.9,-1.1c0,0,-1.7,-2,-2.6,-3.1c-4.4,-5,6.5,-15.4,11,-10.2c1.6,1.8,1.9,2.2,1.9,2.1c0.4,0.4,1,1.2,0.9,2.2" class="g10_3" />
<path d="M742.8,568.5c-3.9,-5.7,-16,3.5,-12.1,8.9" class="g8_3" />
<path d="M740.9,570.4c-2.5,-3.7,-10.3,2.3,-7.8,5.8" class="g8_3" />
<path d="M732.7,579.1c-0.8,-0.2,-1.4,-1,-1.7,-1.4c0,0,-1.4,-2.1,-2.3,-3.3c-3.8,-5.5,8.2,-14.6,12.1,-9c1.4,2,1.7,2.4,1.6,2.3c0.4,0.4,0.9,1.4,0.7,2.3" class="g8_3" />
<path d="M738.1,562.3c-4,-5.6,-15.9,3.9,-11.9,9.2" class="g8_3" />
<path d="M736.3,564.3c-2.6,-3.6,-10.4,2.5,-7.8,6" class="g8_3" />
<path d="M728.2,573.2c-0.9,-0.2,-1.4,-1,-1.7,-1.4c0,0,-1.5,-2.1,-2.4,-3.3c-3.8,-5.4,7.9,-14.7,12,-9.2c1.4,2,1.7,2.4,1.6,2.3c0.4,0.4,0.9,1.3,0.7,2.3" class="g10_3" />
<path d="M733.6,555.8c-3.8,-5.8,-16.1,3.1,-12.4,8.6" class="g8_3" />
<path d="M731.6,557.7c-2.4,-3.8,-10.4,2,-8,5.6" class="g8_3" />
<path d="M723.2,566.2c-0.9,-0.2,-1.4,-1,-1.7,-1.5c0,0,-1.4,-2.1,-2.2,-3.4c-3.6,-5.6,8.6,-14.4,12.4,-8.6c1.3,2,1.5,2.4,1.5,2.3c0.4,0.5,0.8,1.4,0.6,2.4" class="g8_3" />
<path d="M728.8,549.3c-3.9,-5.8,-16.1,3.4,-12.3,8.8" class="g8_3" />
<path d="M726.8,551.2c-2.4,-3.7,-10.3,2.2,-7.9,5.7" class="g8_3" />
<path d="M718.5,559.8c-0.8,-0.2,-1.4,-1,-1.7,-1.4c0,0,-1.4,-2.1,-2.2,-3.4c-3.7,-5.5,8.3,-14.5,12.2,-8.8c1.4,2,1.6,2.4,1.6,2.3c0.4,0.5,0.8,1.4,0.6,2.3" class="g8_3" />
<path d="M724,542.3c-3.9,-5.7,-16,3.5,-12.2,8.9" class="g8_3" />
<path d="M722.1,544.2c-2.6,-3.7,-10.4,2.3,-7.9,5.8" class="g8_3" />
<path d="M713.9,552.9c-0.9,-0.2,-1.4,-0.9,-1.8,-1.4c0,0,-1.4,-2.1,-2.2,-3.3c-3.8,-5.5,8.1,-14.6,12.1,-9c1.3,2,1.6,2.4,1.6,2.3c0.4,0.5,0.8,1.4,0.7,2.3" class="g8_3" />
<path d="M719,535.9c-4,-5.6,-15.9,3.8,-12,9.2" class="g8_3" />
<path d="M717.1,537.9c-2.6,-3.7,-10.3,2.5,-7.7,5.9" class="g8_3" />
<path d="M709.1,546.7c-0.9,-0.1,-1.5,-0.9,-1.8,-1.3c0,0,-1.5,-2.1,-2.3,-3.3c-3.9,-5.4,7.9,-14.8,11.9,-9.2c1.4,1.9,1.7,2.3,1.7,2.2c0.4,0.5,0.9,1.4,0.7,2.4" class="g10_3" />
<path d="M715.2,529.8c-3.3,-6,-16.2,2,-12.9,7.7" class="g8_3" />
<path d="M713.1,531.6c-2.1,-3.9,-10.5,1.2,-8.4,5" class="g8_3" />
<path d="M704.1,539.4c-0.8,-0.3,-1.3,-1.1,-1.6,-1.5c0,0,-1.2,-2.3,-1.9,-3.6c-3.2,-5.8,9.6,-13.7,13,-7.7c1.1,2.1,1.4,2.6,1.3,2.4c0.4,0.5,0.8,1.5,0.5,2.4" class="g8_3" />
<path d="M710.9,523c-3.4,-6,-16.2,2.2,-12.8,7.9" class="g8_3" />
<path d="M708.9,524.8c-2.2,-3.9,-10.5,1.4,-8.3,5.1" class="g8_3" />
<path d="M700,532.8c-0.9,-0.3,-1.4,-1.1,-1.6,-1.6c0,0,-1.3,-2.2,-2,-3.5c-3.3,-5.8,9.3,-13.9,12.8,-7.9c1.2,2,1.4,2.5,1.4,2.4c0.4,0.5,0.8,1.4,0.5,2.4" class="g8_3" />
<path d="M707.1,516c-3.2,-6.1,-16.4,1.4,-13.2,7.3" class="g8_3" />
<path d="M704.9,517.7c-2,-4,-10.5,0.9,-8.5,4.7" class="g8_3" />
<path d="M695.7,525.3c-0.9,-0.3,-1.3,-1.2,-1.6,-1.6c0,0,-1.1,-2.3,-1.8,-3.7c-3,-5.9,10,-13.4,13.2,-7.2c1.1,2.1,1.3,2.5,1.3,2.4c0.3,0.5,0.7,1.5,0.3,2.4" class="g8_3" />
<path d="M703,509c-3.3,-6.1,-16.3,1.8,-13.1,7.6" class="g8_3" />
<path d="M700.8,510.8c-2,-4,-10.5,1.1,-8.4,4.8" class="g8_3" />
<path d="M691.7,518.5c-0.8,-0.3,-1.3,-1.1,-1.6,-1.6c0,0,-1.1,-2.3,-1.8,-3.6c-3.2,-5.8,9.7,-13.6,13,-7.5c1.2,2.1,1.4,2.6,1.4,2.4c0.3,0.5,0.7,1.5,0.4,2.4" class="g8_3" />
<path d="M698.9,501.6c-3.3,-6.1,-16.3,1.9,-13,7.7" class="g8_3" />
<path d="M696.8,503.3c-2.1,-3.9,-10.5,1.3,-8.4,5" class="g8_3" />
<path d="M687.8,511.1c-0.9,-0.2,-1.3,-1.1,-1.6,-1.5c0,0,-1.2,-2.3,-1.9,-3.6c-3.2,-5.8,9.6,-13.7,12.9,-7.6c1.2,2,1.4,2.5,1.4,2.4c0.3,0.5,0.7,1.4,0.4,2.4" class="g8_3" />
<path d="M694.6,494.7c-3.4,-6,-16.2,2.2,-12.8,7.9" class="g8_3" />
<path d="M692.5,496.5c-2.2,-3.9,-10.5,1.4,-8.3,5.1" class="g8_3" />
<path d="M683.6,504.5c-0.8,-0.3,-1.3,-1.1,-1.6,-1.5c0,0,-1.2,-2.3,-2,-3.6c-3.3,-5.7,9.4,-13.8,12.9,-7.9c1.2,2.1,1.4,2.5,1.4,2.4c0.3,0.5,0.7,1.5,0.5,2.4" class="g8_3" />
<path d="M690.3,487.9c-3.3,-6.1,-16.3,1.9,-13,7.7" class="g8_3" />
<path d="M688.2,489.6c-2.1,-3.9,-10.5,1.3,-8.4,5" class="g8_3" />
<path d="M679.2,497.5c-0.9,-0.3,-1.3,-1.1,-1.6,-1.6c0,0,-1.2,-2.2,-1.9,-3.5c-3.2,-5.9,9.6,-13.8,12.9,-7.7c1.2,2,1.4,2.5,1.4,2.4c0.4,0.5,0.7,1.4,0.4,2.4" class="g8_3" />
<path d="M686,481c-3.4,-6,-16.2,2.2,-12.8,8" class="g8_3" />
<path d="M683.9,482.8c-2.2,-3.9,-10.5,1.5,-8.3,5.1" class="g8_3" />
<path d="M675,490.8c-0.8,-0.2,-1.3,-1.1,-1.6,-1.5c0,0,-1.2,-2.2,-2,-3.5c-3.3,-5.8,9.4,-13.9,12.9,-7.9c1.2,2,1.4,2.5,1.4,2.4c0.3,0.4,0.7,1.4,0.5,2.3" class="g8_3" />
<path d="M682.1,474.1c-3.1,-6.2,-16.3,1.4,-13.2,7.3" class="g8_3" />
<path d="M680,475.8c-2,-4,-10.6,0.9,-8.6,4.7" class="g8_3" />
<path d="M670.7,483.3c-0.8,-0.3,-1.3,-1.1,-1.5,-1.6c0,0,-1.2,-2.3,-1.8,-3.6c-3.1,-5.9,10,-13.4,13.2,-7.3c1.1,2.1,1.3,2.6,1.2,2.5c0.4,0.5,0.7,1.4,0.4,2.4" class="g8_3" />
<path d="M678,467.1c-3.2,-6.1,-16.3,1.7,-13,7.5" class="g8_3" />
<path d="M675.9,468.8c-2.1,-3.9,-10.5,1.1,-8.4,4.9" class="g8_3" />
<path d="M666.8,476.5c-0.9,-0.2,-1.3,-1.1,-1.6,-1.5c0,0,-1.2,-2.3,-1.9,-3.6c-3.1,-5.9,9.8,-13.6,13.1,-7.5c1.1,2,1.4,2.5,1.3,2.4c0.4,0.5,0.7,1.5,0.4,2.4" class="g8_3" />
<path d="M674,459.6c-3.3,-6,-16.3,2,-13,7.7" class="g8_3" />
<path d="M671.9,461.4c-2.2,-3.9,-10.6,1.2,-8.4,5" class="g8_3" />
<path d="M662.8,469.2c-0.8,-0.3,-1.3,-1.1,-1.5,-1.5c0,0,-1.3,-2.3,-2,-3.6c-3.2,-5.8,9.6,-13.7,13,-7.7c1.2,2.1,1.4,2.5,1.4,2.4c0.3,0.5,0.7,1.5,0.4,2.4" class="g8_3" />
<path d="M669.7,452.8c-3.5,-6,-16.3,2.2,-12.9,7.9" class="g8_3" />
<path d="M667.6,454.6c-2.2,-3.9,-10.5,1.4,-8.3,5.1" class="g8_3" />
<path d="M658.7,462.6c-0.9,-0.3,-1.3,-1.1,-1.6,-1.6c0,0,-1.3,-2.2,-2,-3.5c-3.3,-5.8,9.4,-13.9,12.8,-7.9c1.2,2,1.5,2.5,1.4,2.4c0.4,0.5,0.8,1.4,0.5,2.4" class="g8_3" />
<path d="M664.7,445.6c-3.9,-5.7,-16,3.5,-12.1,8.9" class="g8_3" />
<path d="M662.8,447.5c-2.5,-3.7,-10.4,2.3,-7.9,5.8" class="g8_3" />
<path d="M654.6,456.2c-0.9,-0.2,-1.4,-0.9,-1.7,-1.4c0,0,-1.5,-2.1,-2.3,-3.3c-3.8,-5.5,8.1,-14.6,12.1,-9c1.4,2,1.7,2.4,1.6,2.3c0.4,0.5,0.9,1.4,0.7,2.3" class="g8_3" />
<path d="M659.8,438.6c-4,-5.6,-15.9,3.8,-12,9.1" class="g8_3" />
<path d="M657.9,440.6c-2.5,-3.7,-10.3,2.4,-7.8,5.9" class="g8_3" />
<path d="M649.8,449.4c-0.8,-0.2,-1.4,-1,-1.7,-1.4c0,0,-1.5,-2.1,-2.3,-3.3c-3.9,-5.4,7.9,-14.7,12,-9.1c1.4,1.9,1.7,2.4,1.6,2.3c0.4,0.4,0.9,1.3,0.7,2.3" class="g8_3" />
<path d="M654.7,432.3c-4,-5.6,-15.8,4,-11.8,9.3" class="g8_3" />
<path d="M652.9,434.3c-2.6,-3.6,-10.3,2.6,-7.7,6" class="g8_3" />
<path d="M645,443.2c-0.9,-0.1,-1.5,-0.9,-1.8,-1.3c0,0,-1.5,-2.1,-2.4,-3.3c-3.9,-5.3,7.7,-14.8,11.9,-9.3c1.4,1.9,1.7,2.4,1.6,2.3c0.4,0.4,0.9,1.3,0.8,2.3" class="g10_3" />
<path d="M649.2,425.3c-4.9,-4.9,-15.2,6.3,-10.4,10.9" class="g8_3" />
<path d="M647.6,427.6c-3.1,-3.2,-9.8,4,-6.7,7" class="g8_3" />
<path d="M639.8,437.1c-0.3,-0.2,-0.5,-0.5,-0.7,-0.6c0,0,-1.8,-1.9,-2.8,-2.9c-4.7,-4.8,5.5,-15.8,10.4,-10.9c1.7,1.6,2,2,2,1.9c0.4,0.4,1.1,1.2,1,2.2" class="g10_3" />
<path d="M643.2,419.3c-4.9,-4.9,-15.1,6.4,-10.3,11" class="g8_3" />
<path d="M641.7,421.6c-3.2,-3.2,-9.8,4.1,-6.7,7.1" class="g8_3" />
<path d="M635.2,431.6c-0.9,0,-1.6,-0.7,-2,-1c0,0,-1.8,-1.8,-2.8,-2.9c-4.7,-4.7,5.3,-15.8,10.3,-11c1.7,1.6,2,2,1.9,1.9c0.5,0.4,1.2,1.2,1.1,2.2" class="g10_3" />
<path d="M637.1,413.9c-5,-4.8,-15,6.7,-10.1,11.3" class="g8_3" />
<path d="M635.6,416.2c-3.2,-3.1,-9.7,4.4,-6.5,7.3" class="g8_3" />
<path d="M629.4,426.4c-0.9,0,-1.6,-0.7,-2,-1c0,0,-1.4,-1.4,-2.5,-2.4m0,-8.3c2.4,-3.5,6.8,-6,9.6,-3.3c1.8,1.6,2.1,2,2.1,1.9c0.4,0.3,1.1,1.1,1.1,2.1" class="g10_3" />
<path d="M761.9,606.2c2.9,3.4,10.1,-3.3,7.2,-6.6" class="g8_3" />
<path d="M770.7,597.4c4.3,5.1,-5.7,16.3,-10.2,11.1" class="g10_3" />
<path d="M762.5,603c10.8,11.7,14.8,55,14.8,55" class="g10_3" />
<path d="M763.6,601c10.8,11.7,33.9,46,33.9,46" class="g10_3" />
<path d="M766,599.4c10.8,11.7,45.6,31.2,45.6,31.2" class="g10_3" />
<path d="M795.5,1012.5c-4.9,-5.2,-15.7,6.3,-10.9,11.2" class="g8_3" />
<path d="M793.9,1014.8c-3.2,-3.4,-10.2,4.1,-7,7.2" class="g10_3" />
<path d="M785,1023.9c0,0,-1.8,-1.9,-2.9,-3c-4.8,-5,5.9,-16.3,10.9,-11.2c1.7,1.8,2.6,2.9,2.5,2.8" class="g10_3" />
<path d="M789.9,1006.5c-4.7,-5.4,-16,5.5,-11.4,10.6" class="g8_3" />
<path d="M788.2,1008.7c-3.1,-3.5,-10.4,3.6,-7.4,6.9" class="g8_3" />
<path d="M780.8,1018.6c-1,-0.1,-1.6,-0.8,-2,-1.2c0,0,-1.7,-2,-2.7,-3.2c-4.5,-5.2,6.7,-16,11.4,-10.6c1.6,1.8,2,2.2,1.9,2.1c0.5,0.4,1.1,1.3,1,2.3" class="g10_3" />
<path d="M784,1000.5c-4.8,-5.3,-15.9,5.8,-11.2,10.8" class="g8_3" />
<path d="M782.3,1002.7c-3.1,-3.4,-10.3,3.8,-7.3,7.1" class="g8_3" />
<path d="M775.1,1012.8c-0.9,-0.1,-1.6,-0.8,-2,-1.2c0,0,-1.7,-2,-2.8,-3.1c-4.6,-5.1,6.4,-16.1,11.3,-10.9c1.6,1.8,2,2.3,1.9,2.2c0.5,0.4,1.1,1.2,1,2.3" class="g10_3" />
<path d="M778.1,994c-4.9,-5.3,-15.9,6,-11.2,11" class="g8_3" />
<path d="M776.4,996.3c-3.1,-3.4,-10.3,3.9,-7.2,7.1" class="g8_3" />
<path d="M769.3,1006.4c-0.9,0,-1.6,-0.8,-2,-1.1c0,0,-1.8,-2,-2.8,-3.1c-4.7,-5.1,6.2,-16.2,11.1,-11c1.7,1.8,2,2.2,2,2.1c0.4,0.4,1,1.2,1,2.3" class="g10_3" />
<path d="M772.4,988.2c-4.7,-5.4,-16.1,5.4,-11.5,10.6" class="g8_3" />
<path d="M770.7,990.4c-3.1,-3.5,-10.5,3.5,-7.5,6.9" class="g8_3" />
<path d="M763.2,1000.3c-0.9,-0.1,-1.6,-0.8,-2,-1.2c0,0,-1.7,-2.1,-2.7,-3.2c-4.5,-5.2,6.8,-16,11.5,-10.6c1.6,1.8,2,2.3,1.9,2.2c0.5,0.4,1.1,1.3,1,2.3" class="g10_3" />
<path d="M766.7,982.5c-4.1,-5.9,-16.6,3.7,-12.6,9.3" class="g8_3" />
<path d="M764.7,984.5c-2.6,-3.8,-10.7,2.4,-8.1,6" class="g8_3" />
<path d="M756.2,993.5c-0.9,-0.2,-1.4,-1,-1.8,-1.4c0,0,-1.5,-2.2,-2.3,-3.5c-3.9,-5.6,8.4,-15.1,12.5,-9.3c1.4,2.1,1.7,2.5,1.7,2.4c0.4,0.5,0.9,1.4,0.7,2.4" class="g10_3" />
<path d="M761.8,976.1c-4.2,-5.8,-16.5,4,-12.4,9.5" class="g8_3" />
<path d="M759.9,978.2c-2.7,-3.8,-10.7,2.6,-8.1,6.2" class="g8_3" />
<path d="M751.5,987.4c-0.9,-0.2,-1.4,-1,-1.8,-1.4c0,0,-1.5,-2.2,-2.4,-3.5c-4,-5.5,8.2,-15.3,12.4,-9.5c1.4,2,1.7,2.5,1.7,2.4c0.4,0.4,0.9,1.3,0.7,2.4" class="g10_3" />
<path d="M757.1,969.4c-3.9,-6.1,-16.7,3.2,-12.9,8.9" class="g8_3" />
<path d="M755,971.3c-2.5,-3.9,-10.8,2.1,-8.3,5.8" class="g8_3" />
<path d="M746.3,980.1c-0.9,-0.2,-1.5,-1,-1.8,-1.5c0,0,-1.4,-2.2,-2.2,-3.5c-3.8,-5.8,8.9,-14.9,12.8,-8.9c1.4,2,1.6,2.5,1.6,2.4c0.4,0.5,0.9,1.4,0.6,2.4" class="g8_3" />
<path d="M752.1,962.6c-4,-5.9,-16.6,3.5,-12.7,9.1" class="g8_3" />
<path d="M750.1,964.6c-2.6,-3.8,-10.7,2.3,-8.2,5.9" class="g8_3" />
<path d="M741.5,973.5c-0.9,-0.2,-1.4,-1,-1.8,-1.4c0,0,-1.4,-2.2,-2.3,-3.5c-3.8,-5.7,8.6,-15.1,12.7,-9.2c1.4,2.1,1.7,2.5,1.6,2.4c0.4,0.5,0.9,1.4,0.7,2.4" class="g10_3" />
<path d="M747.1,955.3c-4,-5.9,-16.5,3.7,-12.5,9.3" class="g8_3" />
<path d="M745.2,957.4c-2.7,-3.9,-10.8,2.4,-8.2,6" class="g8_3" />
<path d="M736.7,966.4c-0.9,-0.2,-1.5,-1,-1.8,-1.4c0,0,-1.5,-2.2,-2.4,-3.5c-3.9,-5.7,8.5,-15.2,12.6,-9.3c1.4,2,1.7,2.5,1.6,2.4c0.4,0.4,0.9,1.4,0.7,2.4" class="g10_3" />
<path d="M742,948.7c-4.2,-5.8,-16.5,4,-12.4,9.5" class="g8_3" />
<path d="M740,950.8c-2.7,-3.8,-10.7,2.6,-8,6.1" class="g8_3" />
<path d="M731.7,960c-0.9,-0.2,-1.5,-1,-1.8,-1.4c0,0,-1.5,-2.2,-2.4,-3.5c-4,-5.5,8.1,-15.3,12.4,-9.5c1.4,2,1.7,2.5,1.7,2.4c0.4,0.4,0.9,1.3,0.7,2.3" class="g10_3" />
<path d="M738.1,942.5c-3.4,-6.3,-16.9,1.9,-13.5,7.9" class="g8_3" />
<path d="M735.9,944.3c-2.2,-4.1,-10.9,1.3,-8.7,5.1" class="g8_3" />
<path d="M726.6,952.4c-0.9,-0.3,-1.4,-1.2,-1.7,-1.6c0,0,-1.2,-2.4,-2,-3.7c-3.3,-6,10,-14.2,13.5,-8c1.2,2.2,1.4,2.6,1.4,2.5c0.3,0.5,0.7,1.5,0.4,2.5" class="g8_3" />
<path d="M733.6,935.4c-3.5,-6.3,-16.8,2.2,-13.3,8.1" class="g8_3" />
<path d="M731.5,937.2c-2.3,-4,-10.9,1.5,-8.6,5.3" class="g8_3" />
<path d="M722.3,945.5c-0.9,-0.3,-1.4,-1.1,-1.7,-1.6c0,0,-1.3,-2.3,-2.1,-3.7c-3.4,-5.9,9.7,-14.3,13.3,-8.1c1.3,2.1,1.5,2.6,1.5,2.4c0.4,0.5,0.8,1.5,0.5,2.5" class="g8_3" />
<path d="M729.6,928.1c-3.2,-6.4,-16.9,1.5,-13.7,7.6" class="g8_3" />
<path d="M727.4,929.9c-2.1,-4.2,-11,0.9,-8.9,4.9" class="g8_3" />
<path d="M717.8,937.7c-0.9,-0.3,-1.3,-1.2,-1.6,-1.6c0,0,-1.2,-2.4,-1.9,-3.8c-3.1,-6.1,10.4,-13.9,13.7,-7.5c1.1,2.1,1.4,2.6,1.3,2.5c0.4,0.5,0.7,1.5,0.4,2.5" class="g8_3" />
<path d="M725.4,920.9c-3.4,-6.3,-16.9,1.8,-13.6,7.8" class="g8_3" />
<path d="M723.2,922.7c-2.2,-4.1,-11,1.1,-8.8,5" class="g8_3" />
<path d="M713.7,930.7c-0.9,-0.3,-1.3,-1.2,-1.6,-1.6c0,0,-1.2,-2.4,-2,-3.8c-3.2,-6,10.2,-14,13.6,-7.7c1.2,2.1,1.4,2.6,1.4,2.5c0.3,0.5,0.7,1.5,0.4,2.5" class="g8_3" />
<path d="M721.2,913.2c-3.5,-6.3,-16.9,2,-13.5,7.9" class="g8_3" />
<path d="M719,915c-2.2,-4.1,-10.9,1.3,-8.7,5.1" class="g8_3" />
<path d="M709.6,923.1c-0.9,-0.3,-1.3,-1.2,-1.6,-1.6c0,0,-1.3,-2.4,-2,-3.7c-3.3,-6,9.9,-14.2,13.4,-8c1.2,2.2,1.5,2.7,1.4,2.6c0.4,0.5,0.8,1.4,0.5,2.4" class="g8_3" />
<path d="M716.7,906.1c-3.5,-6.3,-16.8,2.3,-13.3,8.2" class="g8_3" />
<path d="M714.6,907.9c-2.3,-4,-10.9,1.5,-8.7,5.3" class="g8_3" />
<path d="M705.3,916.2c-0.8,-0.3,-1.3,-1.1,-1.6,-1.6c0,0,-1.3,-2.3,-2.1,-3.6c-3.4,-6,9.7,-14.4,13.3,-8.2c1.2,2.1,1.5,2.6,1.5,2.5c0.3,0.4,0.7,1.4,0.5,2.4" class="g8_3" />
<path d="M712.3,899c-3.5,-6.3,-16.9,2,-13.5,7.9" class="g8_3" />
<path d="M710.1,900.8c-2.2,-4.1,-10.9,1.3,-8.7,5.2" class="g8_3" />
<path d="M700.7,908.9c-0.9,-0.3,-1.3,-1.1,-1.6,-1.6c0,0,-1.3,-2.3,-2,-3.7c-3.3,-6,9.9,-14.2,13.4,-7.9c1.2,2.1,1.5,2.6,1.4,2.5c0.4,0.5,0.8,1.5,0.5,2.4" class="g8_3" />
<path d="M707.8,891.9c-3.6,-6.2,-16.8,2.3,-13.3,8.2" class="g8_3" />
<path d="M705.7,893.7c-2.3,-4,-10.9,1.5,-8.7,5.3" class="g8_3" />
<path d="M696.4,902c-0.9,-0.3,-1.3,-1.1,-1.6,-1.6c0,0,-1.3,-2.3,-2.1,-3.6c-3.4,-6,9.7,-14.4,13.3,-8.2c1.2,2.1,1.5,2.6,1.5,2.5c0.3,0.5,0.7,1.5,0.5,2.4" class="g8_3" />
<path d="M703.8,884.7c-3.3,-6.4,-16.9,1.4,-13.7,7.5" class="g8_3" />
<path d="M701.6,886.4c-2.1,-4.1,-11,1,-8.9,4.9" class="g8_3" />
<path d="M692,894.2c-0.9,-0.3,-1.4,-1.1,-1.6,-1.6c0,0,-1.2,-2.4,-1.9,-3.8c-3.2,-6.1,10.3,-13.9,13.7,-7.5c1.1,2.2,1.3,2.7,1.3,2.5c0.3,0.6,0.7,1.6,0.4,2.5" class="g8_3" />
<path d="M699.5,877.4c-3.3,-6.3,-16.9,1.8,-13.5,7.8" class="g8_3" />
<path d="M697.3,879.2c-2.1,-4.1,-10.9,1.2,-8.7,5.1" class="g8_3" />
<path d="M687.9,887.2c-0.9,-0.3,-1.4,-1.1,-1.7,-1.6c0,0,-1.2,-2.4,-1.9,-3.7c-3.2,-6.1,10.1,-14.1,13.5,-7.8c1.2,2.1,1.5,2.6,1.4,2.5c0.4,0.5,0.8,1.5,0.4,2.5" class="g8_3" />
<path d="M695.3,869.7c-3.4,-6.3,-16.8,2,-13.4,8" class="g8_3" />
<path d="M693.1,871.5c-2.2,-4.1,-10.9,1.3,-8.7,5.2" class="g8_3" />
<path d="M683.8,879.6c-0.9,-0.3,-1.4,-1.1,-1.7,-1.6c0,0,-1.2,-2.3,-2,-3.7c-3.3,-6,10,-14.2,13.5,-7.9c1.2,2.1,1.4,2.6,1.4,2.5c0.4,0.5,0.8,1.5,0.5,2.5" class="g8_3" />
<path d="M690.9,862.6c-3.6,-6.2,-16.9,2.3,-13.4,8.2" class="g8_3" />
<path d="M688.7,864.5c-2.3,-4.1,-10.9,1.4,-8.6,5.3" class="g8_3" />
<path d="M679.5,872.7c-0.9,-0.2,-1.4,-1.1,-1.7,-1.6c0,0,-1.3,-2.3,-2,-3.6c-3.4,-6,9.7,-14.4,13.3,-8.2c1.2,2.1,1.5,2.6,1.4,2.5c0.4,0.5,0.8,1.5,0.5,2.4" class="g8_3" />
<path d="M685.7,855.1c-4,-5.9,-16.6,3.7,-12.6,9.3" class="g8_3" />
<path d="M683.7,857.2c-2.6,-3.9,-10.7,2.3,-8.1,6" class="g8_3" />
<path d="M675.2,866.2c-0.9,-0.2,-1.4,-1,-1.8,-1.5c0,0,-1.4,-2.2,-2.3,-3.4c-3.9,-5.7,8.4,-15.2,12.6,-9.3c1.4,2,1.7,2.4,1.6,2.3c0.4,0.5,0.9,1.4,0.7,2.4" class="g10_3" />
<path d="M680.6,847.9c-4.1,-5.8,-16.5,3.9,-12.4,9.5" class="g8_3" />
<path d="M678.7,850c-2.7,-3.8,-10.7,2.5,-8.1,6.1" class="g8_3" />
<path d="M670.3,859.1c-0.9,-0.2,-1.5,-1,-1.8,-1.4c0,0,-1.5,-2.2,-2.4,-3.5c-4,-5.6,8.3,-15.2,12.5,-9.4c1.4,2,1.7,2.4,1.6,2.3c0.5,0.5,1,1.4,0.8,2.4" class="g10_3" />
<path d="M675.4,841.4c-4.2,-5.8,-16.5,4.2,-12.3,9.6" class="g8_3" />
<path d="M673.5,843.5c-2.8,-3.8,-10.7,2.7,-8,6.2" class="g8_3" />
<path d="M665.3,852.7c-0.9,-0.1,-1.5,-0.9,-1.9,-1.4c0,0,-1.5,-2.1,-2.4,-3.3c-4.1,-5.6,8,-15.4,12.2,-9.7c1.5,2,1.8,2.4,1.8,2.3c0.4,0.4,0.9,1.4,0.7,2.4" class="g10_3" />
<path d="M669.6,834.1c-5,-5.1,-15.7,6.5,-10.8,11.3" class="g8_3" />
<path d="M668,836.5c-3.2,-3.4,-10.1,4.2,-7,7.3" class="g8_3" />
<path d="M659.9,846.3c-0.3,-0.2,-0.5,-0.4,-0.7,-0.6c0,0,-1.9,-1.9,-2.9,-3c-4.9,-4.9,5.7,-16.4,10.8,-11.3c1.7,1.7,2.1,2.1,2,2c0.5,0.4,1.1,1.3,1.1,2.3" class="g10_3" />
<path d="M663.4,827.9c-5.1,-5.1,-15.6,6.7,-10.7,11.4" class="g8_3" />
<path d="M661.8,830.2c-3.3,-3.2,-10.1,4.4,-6.9,7.4" class="g8_3" />
<path d="M655.1,840.7c-0.9,-0.1,-1.6,-0.7,-2,-1.1c0,0,-1.9,-1.9,-3,-3c-4.8,-4.8,5.6,-16.4,10.7,-11.4c1.8,1.7,2.1,2.1,2.1,2c0.5,0.4,1.1,1.2,1.1,2.2" class="g10_3" />
<path d="M786.4,1021.6c3,3.6,10.5,-3.5,7.5,-6.8" class="g8_3" />
<path d="M795.5,1012.5c4.5,5.2,-5.8,16.9,-10.5,11.4" class="g10_3" />
<path d="M787,1018.3c11.2,12.1,15.4,57,15.4,57" class="g10_3" />
<path d="M788.2,1016.2c11.2,12.1,35.1,47.7,35.1,47.7" class="g10_3" />
<path d="M790.7,1014.6c11.2,12.1,47.2,32.3,47.2,32.3" class="g10_3" />
<path d="M656.9,822c-5,-5.1,-15.6,6.7,-10.6,11.4" class="g8_3" />
<path d="M655.4,824.3c-3.3,-3.2,-10.1,4.4,-6.9,7.4" class="g8_3" />
<path d="M648.7,834.8c-0.9,-0.1,-1.6,-0.8,-2,-1.1c0,0,-1.9,-1.9,-3,-3c-4.9,-4.8,5.5,-16.4,10.7,-11.4c1.7,1.7,2.1,2.1,2,2c0.5,0.4,1.1,1.2,1.1,2.2" class="g10_3" />
<path d="M650.7,816.3c-5.1,-5,-15.6,6.7,-10.7,11.5" class="g8_3" />
<path d="M649.1,818.7c-3.3,-3.3,-10.1,4.3,-6.9,7.4" class="g8_3" />
<path d="M642.4,829.1c-0.9,0,-1.6,-0.7,-2,-1.1c0,0,-1.9,-1.9,-3,-2.9c-4.8,-4.9,5.6,-16.5,10.7,-11.5c1.7,1.7,2.1,2.1,2,2c0.5,0.4,1.2,1.3,1.2,2.3" class="g10_3" />
<path d="M643.8,809.9c-5.5,-4.6,-14.9,8.1,-9.5,12.3" class="g8_3" />
<path d="M642.5,812.4c-3.6,-3,-9.7,5.2,-6.2,8" class="g8_3" />
<path d="M636.8,823.3c-1,0.1,-1.7,-0.5,-2.2,-0.8c0,0,-2,-1.7,-3.2,-2.7c-5.3,-4.4,4,-16.9,9.6,-12.4c1.9,1.6,2.3,1.9,2.2,1.8c0.5,0.4,1.3,1.1,1.3,2.1" class="g10_3" />
<path d="M636.7,804.7c-5.6,-4.5,-14.8,8.4,-9.3,12.6" class="g8_3" />
<path d="M635.4,807.2c-3.7,-2.9,-9.6,5.4,-6,8.1" class="g8_3" />
<path d="M629.9,818.3c-0.9,0.1,-1.7,-0.5,-2.1,-0.8c0,0,-2.1,-1.7,-3.3,-2.6c-5.4,-4.3,3.6,-17,9.3,-12.6c1.9,1.5,2.3,1.8,2.3,1.7c0.5,0.4,1.2,1.1,1.3,2.1" class="g10_3" />
<path d="M628.3,799.6c-6.1,-3.8,-13.6,10.1,-7.7,13.5" class="g8_3" />
<path d="M627.3,802.2c-3.9,-2.4,-8.8,6.5,-5,8.8" class="g8_3" />
<path d="M623.3,813.9c-1,0.2,-1.8,-0.3,-2.3,-0.6c0,0,-2.2,-1.4,-3.5,-2.2c-5.9,-3.6,1.5,-17.3,7.7,-13.6c2.1,1.3,2.5,1.6,2.4,1.5c0.6,0.3,1.4,0.9,1.7,1.9" class="g10_3" />
<path d="M620.2,795.4c-6.4,-3.2,-12.7,11.3,-6.4,14.2" class="g8_3" />
<path d="M619.5,798.1c-4.2,-2,-8.2,7.3,-4.2,9.3" class="g8_3" />
<path d="M616.5,810.2c-0.9,0.2,-1.8,-0.2,-2.3,-0.4c0,0,-2.4,-1.2,-3.8,-1.9c-6.1,-3.1,0.1,-17.4,6.5,-14.2c2.2,1,2.7,1.3,2.6,1.2c0.6,0.2,1.5,0.8,1.8,1.8" class="g10_3" />
<path d="M612.4,791.6c-6.4,-3.2,-12.7,11.3,-6.5,14.3" class="g8_3" />
<path d="M611.6,794.4c-4.1,-2.1,-8.2,7.3,-4.1,9.2" class="g8_3" />
<path d="M608.6,806.4c-0.8,0.2,-1.7,-0.2,-2.2,-0.4c0,0,-2.4,-1.2,-3.8,-1.9c-6.2,-3,0,-17.3,6.5,-14.2c2.2,1.1,2.6,1.3,2.5,1.2c0.6,0.2,1.5,0.8,1.8,1.8" class="g10_3" />
<path d="M630.8,408.2c-2.6,-2.4,-6.4,-0.6,-8.9,2.4" class="g8_3" />
<path d="M629.3,410.5c-1.5,-1.4,-3.7,-0.6,-5.3,1.1" class="g8_3" />
<path d="M618.6,409c2.4,-3.5,6.8,-6,9.6,-3.3c1.8,1.6,2.1,2,2.1,1.9c0.4,0.3,1.1,1.1,1.1,2.1" class="g10_3" />
</svg>