<?xml version="1.0" encoding="UTF-8" standalone="no"?>
<!DOCTYPE svg PUBLIC "-//W3C//DTD SVG 1.1//EN"
"http://www.w3.org/Graphics/SVG/1.1/DTD/svg11.dtd">
<svg version="1.1" xmlns="http://www.w3.org/2000/svg" xmlns:xlink="http://www.w3.org/1999/xlink">
<defs>
<style type="text/css"><![CDATA[
.g12_2{
fill: #DEDFDE;
}
.g13_2{
fill: #696C6D;
}
.g11_2{
fill: none;
stroke: #646669;
stroke-width: 1;
stroke-linecap: butt;
stroke-linejoin: miter;
}
.g9_2{
fill: none;
stroke: #231F20;
stroke-width: 1;
stroke-linecap: butt;
stroke-linejoin: miter;
stroke-dasharray: 3,3;
}
.g10_2{
fill: none;
stroke: #231F20;
stroke-width: 1;
stroke-linecap: butt;
stroke-linejoin: miter;
stroke-dasharray: 4,4;
}
.g15_2{
fill: #060706;
}
.g4_2{
fill: none;
stroke: #050604;
stroke-width: 1;
stroke-linecap: round;
stroke-linejoin: round;
stroke-miterlimit: 2;
}
.g5_2{
fill: none;
stroke: #050604;
stroke-width: 1;
stroke-linecap: butt;
stroke-linejoin: miter;
stroke-miterlimit: 2;
}
.g14_2{
fill: #B92D34;
}
.g1_2{
fill: #1A1412;
}
.g17_2{
fill: #D46537;
}
.g6_2{
fill: none;
stroke: #050604;
stroke-width: 1;
stroke-linecap: round;
stroke-linejoin: miter;
stroke-miterlimit: 2;
}
.g7_2{
fill: none;
stroke: #FFFFFF;
stroke-width: 1;
stroke-linecap: round;
stroke-linejoin: round;
stroke-miterlimit: 2;
}
.g16_2{
fill: #578DAA;
}
.g18_2{
fill: #7A9C3D;
}
.g2_2{
fill: #CDCACC;
}
.g8_2{
fill: #FFFFFF;
}
.g3_2{
fill: none;
stroke: #231F20;
stroke-width: 1;
stroke-linecap: butt;
stroke-linejoin: miter;
}
]]></style>
</defs>
<path d="M0,126l935,0L935,0L0,0L0,126Z" class="g1_2" />
<path d="M366,458l569,0l0,-332l-569,0l0,332Z" class="g2_2" />
<image x="-1" y="125" width="369" height="336" xlink:href="img/1.png" />
<path d="M700.5,853.5l0,71" class="g3_2" />
<path d="M698.5,924.5l4,0m-4,-70l4,0" class="g3_2" />
<path d="M548.5,857.5l0,63" class="g3_2" />
<path d="M546.5,920.5l4,0m-4,-63l4,0" class="g3_2" />
<path d="M703.5,983.5l0,25" class="g3_2" />
<path d="M701.5,1008.5l3,0m-3,-25l3,0" class="g3_2" />
<path d="M676.5,983.5l0,58" class="g3_2" />
<path d="M674.5,1041.5l4,0m-4,-58l4,0" class="g3_2" />
<path d="M634.5,974.5l-71,0m0,-2l0,4m71,-4l0,4m181,-32l-109,0m0,-1l0,3m109,-3l0,3" class="g3_2" />
<path d="M711.8,854.1l98.4,0c2.8,0,5.1,2.3,5.1,5l0,60.2c0,2.7,-2.3,5,-5.1,5l-98.4,0c-2.8,0,-5.1,-2.3,-5.1,-5l0,-60.2c0,-2.7,2.3,-5,5.1,-5Zm19.3,-42.4l0,42.4m5.6,-42.4l0,42.4m-7.8,-51.2l1.1,8.7l7.9,0l1.1,-8.7" class="g4_2" />
<path d="M731.8,798.7c-1.1,0.9,-1.6,1.9,-2.1,4.7m6.6,-4.7c1,0.9,1.6,1.9,2,4.7" class="g4_2" />
<path d="M729.7,803.4c-3.6,-2.1,-3.9,-5.8,-3.9,-7.2l0,-13.4l16.4,0l0,13m-3.9,7.6c3,-2.1,3.9,-4.5,3.9,-7.6" class="g4_2" />
<path d="M731.8,798.7c0.1,0.3,0.2,0.5,0.3,0.8c0.1,0.3,0.8,1.7,1.1,2.2c0.4,0.5,1.1,0.5,1.6,0c0.5,-0.6,0.8,-1.4,1.1,-2.2c0,0,0.2,-0.6,0.6,-1.2c0.4,-0.6,0.7,-1.4,0.7,-1.9l0,-13.6m-6.4,0l0,13.2c0,0,0,1.6,1,2.7" class="g4_2" />
<path d="M729.5,772.5l1,0l0,10l-1,0l0,-10Z" class="g4_2" />
<path d="M729.5,773.5l1,0" class="g4_2" />
<path d="M737.5,772.5l1,0l0,10l-1,0l0,-10Z" class="g4_2" />
<path d="M737.5,773.5l1,0" class="g4_2" />
<path d="M732.4,782.8l0,-12.4c0,0,0,-1.4,1.5,-1.4c1.5,0,1.6,1,1.6,1.4l0,12.4m6.3,141.5l2.4,1.4c0,0,0.7,0.5,0.7,1.8l0,5.1c0,0,0.1,6.5,6.6,6.5m9.7,-14.8l-2.4,1.4c0,0,-0.7,0.5,-0.7,1.8l0,5.1c0,0,-0.1,6.5,-6.6,6.5m0,-14.8l0.1,0c1,0,1.8,0.8,1.8,1.8l0,6.4c0,1,-0.8,1.8,-1.8,1.8l-0.1,0c-1,0,-1.8,-0.8,-1.8,-1.8l0,-6.4c0,-1,0.8,-1.8,1.8,-1.8Zm0,5.7c0.9,0,1.6,0.7,1.6,1.6c0,0.8,-0.7,1.5,-1.6,1.5c-0.8,0,-1.5,-0.7,-1.5,-1.5c0,-0.9,0.7,-1.6,1.5,-1.6Zm0,0.5c0.6,0,1.1,0.5,1.1,1.1c0,0.5,-0.5,1,-1.1,1c-0.6,0,-1,-0.5,-1,-1c0,-0.6,0.4,-1.1,1,-1.1Zm-1.7,-1.4c0.4,-0.3,1.1,-0.5,1.7,-0.5c0.7,0,1.4,0.2,1.9,0.6m55.9,-4.9l0.8,0l0,1.6l-0.8,0l0,-1.6Zm-97.2,0l0.8,0l0,1.6l-0.8,0l0,-1.6Zm97.2,-71.5l0.8,0l0,1.3l-0.8,0l0,-1.3Zm-97.2,0l0.8,0l0,1.3l-0.8,0l0,-1.3Zm3,9.8l0,48.8c0,0,-0.5,4.7,5.7,4.7l80.6,0c0,0,5.6,0.2,5.6,-5.6l0,-48.2" class="g4_2" />
<path d="M716.5,862.5l90,0" class="g4_2" />
<path d="M715.1,895.1l0,1.6c0,0,-0.5,4.7,5.7,4.7l80.6,0c0,0,5.6,0.2,5.6,-5.6l0,-1" class="g4_2" />
<path d="M715.1,893.9l0,1.6c0,0,-0.5,4.7,5.7,4.7l80.6,0c0,0,5.6,0.2,5.6,-5.5l0,-1.1" class="g4_2" />
<path d="M776.9,905.5l8.4,0c0.2,0,0.3,0.1,0.3,0.3l0,1.5c0,0.2,-0.1,0.3,-0.3,0.3l-8.4,0c-0.2,0,-0.3,-0.1,-0.3,-0.3l0,-1.5c0,-0.2,0.1,-0.3,0.3,-0.3Zm0.3,0.8l7.8,0c0.1,0,0.3,0,0.3,0.1l0,0.5c0,0.1,-0.2,0.2,-0.3,0.2l-7.8,0c-0.1,0,-0.3,-0.1,-0.3,-0.2l0,-0.5c0,-0.1,0.2,-0.1,0.3,-0.1Zm-0.3,0.1l0,-0.9m8.4,0.9l0,-0.9m-29,5.9l5.9,0l0,-1.4l-5.9,0l0,1.4Zm0.6,-0.7l4.7,0l0,-0.7l-4.7,0l0,0.7Zm0,0l-0.6,0.7m5.3,-0.7l0.6,0.7M755.6,907l7.1,0l0,-1.5l-7.1,0l0,1.5Zm0.6,-0.7l5.9,0l0,-0.8l-5.9,0l0,0.8Zm0,0l-0.6,0.7m6.5,-0.7l0.6,0.7m-13.6,0.2l0,2.5c0,0,0,0.1,0.2,0.1c0.1,0.1,2.7,0,2.7,0c0,0,1.9,-0.1,1.9,-1.3c0,-1.1,-1.3,-1.3,-2.1,-1.3c-0.7,0,-2.7,0,-2.7,0Zm0.5,0l0,1.7c0,0,0.1,0.1,0.2,0.1c0.1,0.1,1.9,0,2.1,0c0.2,0,1.5,-0.2,1.5,-1c0,-0.8,-1.1,-0.8,-1.6,-0.8c-0.6,0,-2.2,0,-2.2,0Zm-0.5,2.5l0.5,-0.8m-13.1,2.5l5.9,0l0,-1.4l-5.9,0l0,1.4Zm0.6,-0.7l4.7,0l0,-0.7l-4.7,0l0,0.7Zm0,0l-0.6,0.7m5.3,-0.7l0.6,0.7M735.7,907l7.2,0l0,-1.5l-7.2,0l0,1.5Zm0.6,-0.7l6,0l0,-0.8l-6,0l0,0.8Zm0,0l-0.6,0.7m6.6,-0.7l0.6,0.7m-13.7,0.2l0,2.5c0,0,0.1,0.1,0.2,0.1c0.2,0.1,2.8,0,2.8,0c0,0,1.9,-0.1,1.9,-1.3c0,-1.1,-1.4,-1.3,-2.1,-1.3c-0.7,0,-2.8,0,-2.8,0Zm0.6,0l0,1.7c0,0,0,0.1,0.1,0.1c0.1,0.1,1.9,0,2.1,0c0.3,0,1.5,-0.2,1.5,-1c0,-0.8,-1,-0.8,-1.6,-0.8c-0.5,0,-2.1,0,-2.1,0Zm-0.6,2.5l0.6,-0.8m46.7,-3.8l9.2,0c0.2,0,0.3,0.1,0.3,0.4l0,2.1c0,0.2,-0.1,0.4,-0.3,0.4l-9.2,0c-0.2,0,-0.3,-0.2,-0.3,-0.4l0,-2.1c0,-0.3,0.1,-0.4,0.3,-0.4Zm0.4,4l8.4,0c0.2,0,0.3,0.1,0.3,0.3l0,1.6c0,0.1,-0.1,0.3,-0.3,0.3l-8.4,0c-0.2,0,-0.3,-0.2,-0.3,-0.3l0,-1.6c0,-0.2,0.1,-0.3,0.3,-0.3Zm0.3,0.8l7.8,0c0.1,0,0.3,0.1,0.3,0.1l0,0.6c0,0.1,-0.2,0.1,-0.3,0.1l-7.8,0c-0.1,0,-0.3,0,-0.3,-0.1l0,-0.6c0,0,0.2,-0.1,0.3,-0.1Zm-0.3,0.1l0,-0.9m8.4,0.9l0,-0.9m-8.8,-0.4l9.2,0c0.2,0,0.3,0.2,0.3,0.4l0,2.2c0,0.2,-0.1,0.4,-0.3,0.4l-9.2,0c-0.2,0,-0.3,-0.2,-0.3,-0.4l0,-2.2c0,-0.2,0.1,-0.4,0.3,-0.4Z" class="g4_2" />
<path d="M717.5,912.5l0,-11m88,11l0,-11m0,10l0,-11m-89,11l0,-10" class="g4_2" />
<path d="M492.6,1085.8l-9.4,0c0,0,-0.9,0.7,-0.9,2.1c0,1.4,0.9,2.1,0.9,2.1l9.5,0m0,4.1l-12.4,0c0,0,-1.5,0,-1.5,1.4c0,1.5,1.6,1.6,1.6,1.6l12.4,0" class="g5_2" />
<path d="M521.5,1092.4l0,-7.9l-9.5,-1.1l-19.4,0c0,0,-0.2,17.2,0,17.3c0.2,0.1,17,0,17,0l4.2,-7.2l7.7,-1.1Z" class="g4_2" />
<path d="M513.8,1093.5c0,0,-0.2,-1.1,0,-1.2m0,0c-0.9,-1.5,-1.7,-4,-0.5,-6.4" class="g4_2" />
<path d="M513.3,1085.9c0,0,-3.2,-1.3,-3.9,-1.8m-16.8,1.8l20.7,0m-20.7,6.3l21.2,0" class="g6_2" />
<path d="M492.5,1094.1l12.6,0c0,0,2.9,-0.1,5,-0.7c2,-0.7,3.7,-1.2,3.7,-1.2m0,0c-0.6,0.2,-1.1,1.2,-1.3,1.4c-0.1,0.3,-3.4,5.3,-3.4,5.3c0,0,-1.1,1.8,-4,1.8" class="g4_2" />
<path d="M575.1,1031.1c1.5,-1.1,3.1,-2.2,4.8,-3.2m-8.7,6.2c0.4,-0.4,0.9,-0.7,1.4,-1.1m-51.1,52.6c22.5,0,22.2,-26.9,46.8,-49m-46.8,54.6c16.5,-0.1,22.4,-9.5,31.7,-25.9c8.1,-14.3,14.9,-22.8,29.7,-32.8m-18.8,-26.3l69.7,0c0.1,0,0.2,0.1,0.2,0.2l0,1.6c0,0.2,-0.1,0.3,-0.2,0.3l-69.7,0c-0.1,0,-0.2,-0.1,-0.2,-0.3l0,-1.6c0,-0.1,0.1,-0.2,0.2,-0.2Zm8.9,0l36.7,-22.9l1,1.6l-34,21.3m33.6,-21c0.1,0,0.4,-0.1,0.5,0c0.1,0.1,13.2,21,13.2,21m1.2,2.1c0.1,0.1,0.1,0.4,-0.1,0.6c-0.1,0.1,-38.3,24,-38.3,24c0,0,-0.5,0.2,-0.8,-0.2c-0.3,-0.3,-13.3,-21.4,-13.3,-21.4c0,0,-0.9,-1.4,0.3,-2.6m0,0l0.4,-0.4m7.5,16.2l-1.5,0.9l-0.3,1.2l4.8,7.6l2.2,-1.4m-6.7,-7.4l5.3,8.4m-20.1,-5.4l10.3,0l0,0.7l-10.3,0l0,-0.7Zm3.1,0.7l4,0l0,2.1l-4,0l0,-2.1Zm-0.7,0c-2.2,1,-3.6,3.4,-4.3,4.6m5,-2.5c-0.4,1.5,-2,3.5,-2.8,4.3m-2.2,-1.8c-0.1,0.2,-0.2,0.7,0,1c0.2,0.3,0.8,0.8,1.1,0.9c0.3,0.1,0.7,0.2,1.1,-0.1m7.6,-6.4c2.2,1,3.6,3.4,4.3,4.6m-5.1,-2.5c0.5,1.5,2.1,3.5,2.9,4.3m2.2,-1.8c0.1,0.2,0.1,0.7,-0.1,1c-0.1,0.3,-0.7,0.8,-1,0.9c-0.4,0.1,-0.7,0.2,-1.1,-0.1m-6.3,-4.3l0,5.9l2.9,0l0,-5.9m-2.9,-22.4l0,19.6l2.9,0l0,-19.6" class="g4_2" />
<path d="M568.3,1009l2.9,-0.2m-2.9,1l2.9,-0.2m-2.9,1l2.9,-0.3m-2.9,1l2.9,-0.2m-2.9,1l2.9,-0.2m-2.9,0.9l2.9,-0.2m-2.9,1l2.9,-0.2m-2.9,1l2.9,-0.3m-2.9,1l2.9,-0.2m-2.9,1l2.9,-0.2m-2.9,1l2.9,-0.3m-2.9,1.1l2.9,-0.3m-2.9,1l2.9,-0.2m-2.9,1l2.9,-0.3m-2.9,1.1l2.9,-0.3m-2.9,1l2.9,-0.3m-2.9,1.1l2.9,-0.3m-2.9,1l2.9,-0.2m-2.9,1l2.9,-0.3m-2.9,1.1l2.9,-0.3m-2.9,1l2.9,-0.2m-2.9,1l2.9,-0.2m-2.9,0.9l2.9,-0.2m-2.9,1l2.9,-0.2m-2.9,1l2.9,-0.2m-2.9,0.9l2.9,-0.2m-2.4,0.6l2.4,-0.2m-2.9,3.2l2.9,-0.2m-2.9,0.7l2.9,-0.3m-2.9,1l2.9,-0.2m-2.9,1l2.9,-0.2m-2.9,0.9l2.9,-0.2m-2.9,1l2.9,-0.2m-2.9,1l2.9,-0.3m-2.9,1l2.9,-0.2" class="g4_2" />
<path d="M568.1,1008.3l0,0.5l3.3,0l0,-0.5m51.7,20.1l10.3,0l0,0.7l-10.3,0l0,-0.7Zm3.2,0.7l3.9,0l0,2.1l-3.9,0l0,-2.1Zm-0.8,0c-2.2,1,-3.6,3.4,-4.3,4.6m5.1,-2.5c-0.5,1.5,-2.1,3.5,-2.9,4.3m-2.2,-1.8c-0.1,0.2,-0.1,0.7,0,1c0.2,0.3,0.8,0.8,1.1,0.9c0.3,0.1,0.7,0.2,1.1,-0.1m7.6,-6.4c2.2,1,3.6,3.4,4.3,4.6m-5.1,-2.5c0.5,1.5,2.1,3.5,2.9,4.3m2.2,-1.8c0.1,0.2,0.1,0.7,-0.1,1c-0.1,0.3,-0.7,0.8,-1,0.9c-0.4,0.1,-0.7,0.2,-1.1,-0.1m-6.3,-4.3l0,5.9l2.9,0l0,-5.9m-2.9,-22.4l0,19.6l2.9,0l0,-19.6" class="g4_2" />
<path d="M626.8,1009l2.9,-0.2m-2.9,1l2.9,-0.2m-2.9,1l2.9,-0.3m-2.9,1l2.9,-0.2m-2.9,1l2.9,-0.2m-2.9,0.9l2.9,-0.2m-2.9,1l2.9,-0.2m-2.9,1l2.9,-0.3m-2.9,1l2.9,-0.2m-2.9,1l2.9,-0.2m-2.9,1l2.9,-0.3m-2.9,1.1l2.9,-0.3m-2.9,1l2.9,-0.2m-2.9,1l2.9,-0.3m-2.9,1.1l2.9,-0.3m-2.9,1l2.9,-0.3m-2.9,1.1l2.9,-0.3m-2.9,1l2.9,-0.2m-2.9,1l2.9,-0.3m-2.9,1.1l2.9,-0.3m-2.9,1l2.9,-0.2m-2.9,1l2.9,-0.2m-2.9,0.9l2.9,-0.2m-2.9,1l2.9,-0.2m-2.9,1l2.9,-0.2m-2.9,0.9l2.9,-0.2m-2.4,0.6l2.4,-0.2m-2.9,3.2l2.9,-0.2m-2.9,0.7l2.9,-0.3m-2.9,1l2.9,-0.2m-2.9,1l2.9,-0.2m-2.9,0.9l2.9,-0.2m-2.9,1l2.9,-0.2m-2.9,1l2.9,-0.3m-2.9,1l2.9,-0.2" class="g4_2" />
<path d="M626.6,1008.3l0,0.5l3.3,0l0,-0.5m-19,9.5l0.6,1l10.5,-6.5c0.1,-0.1,0.7,-0.3,1.2,0.1c0.5,0.4,0.4,1,0.4,1.2l0,14.8m0,-1.1l-3.9,0l0,2l3.9,0m0,0l0,1m0,5l0,6.1l1.2,0l0,-7.6m0.1,-4.3l0,-0.4m0,-0.7l0,-15.3c0,-0.6,-0.4,-1.3,-1.1,-1.7c-0.7,-0.5,-1.8,-0.6,-2.2,-0.3m-8,6.5c0,0.1,0,0.3,0.1,0.4c0.1,0.2,0.2,0.3,0.2,0.3c0,0,0.1,0.2,0.4,0.2c0.4,0,1.5,0,2.1,-0.5m1.4,-3c0,-0.1,0.2,0,0.3,0.1c0,0.1,0.3,0.3,0.3,0.3c0,0,0.2,0.9,-1.3,2.2m-0.7,0.4l-0.2,-0.2l0.7,-0.4l0.2,0.2" class="g4_2" />
<path d="M614.2,1018.2l3.9,-2.5" class="g4_2" />
<path d="M638.3,1029.3c-0.1,0.1,-0.2,0.2,-0.2,0.4c0,0.2,0,0.5,0,0.5c0,0,0,0.1,0.3,0.4c0.3,0.2,1.4,0.8,2.3,0.7m3.1,-2c0.1,0,0.2,0.1,0.2,0.2c0.1,0.2,0.1,0.6,0.1,0.6c0,0,-0.3,1,-2.5,1.2m-0.9,0l-0.1,-0.3l0.9,0l0.1,0.3" class="g4_2" />
<path d="M638.5,1030.2l5.2,0" class="g4_2" />
<path d="M624.9,1027.3l1.9,0m2.9,0l18.9,0l0,2l-17.4,0m8.6,-2l0,-2.9l1.2,-2.9l1.4,2.7l0,3.1" class="g4_2" />
<path d="M639.9,1027.4l2.5,-0.4m-2.5,-0.2l2.5,-0.4m-2.5,-0.3l2.5,-0.3m-2.5,-0.3l2.5,-0.3m-2.5,-0.4l2.5,-0.3m-2.5,-0.3l2.2,-0.3" class="g4_2" />
<path d="M485.1,1086.8c0.6,0,1.1,0.5,1.1,1.2c0,0.6,-0.5,1.1,-1.1,1.1c-0.7,0,-1.2,-0.5,-1.2,-1.1c0,-0.7,0.5,-1.2,1.2,-1.2Zm221.5,-80.5l108.7,0l0,2l-108.7,0l0,-2Zm97.9,22.2l10.4,0l0,0.6l-10.4,0l0,-0.6Zm3.2,0.6l4,0l0,2.1l-4,0l0,-2.1Zm0.6,2.1l0,5.9l2.8,0l0,-5.9m-2.8,-22.4l0,19.7l2.8,0l0,-19.7" class="g4_2" />
<path d="M808.3,1009l2.8,-0.2m-2.8,1l2.8,-0.2m-2.8,1l2.8,-0.3m-2.8,1l2.8,-0.2m-2.8,1l2.8,-0.2m-2.8,0.9l2.8,-0.2m-2.8,1l2.8,-0.2m-2.8,1l2.8,-0.3m-2.8,1l2.8,-0.2m-2.8,1l2.8,-0.2m-2.8,1l2.8,-0.2m-2.8,1l2.8,-0.3m-2.8,1l2.8,-0.2m-2.8,1l2.8,-0.3m-2.8,1.1l2.8,-0.3m-2.8,1l2.8,-0.2m-2.8,1l2.8,-0.3m-2.8,1l2.8,-0.2m-2.8,1l2.8,-0.3m-2.8,1.1l2.8,-0.3m-2.8,1l2.8,-0.2m-2.8,1l2.8,-0.2m-2.8,1l2.8,-0.3m-2.8,1l2.8,-0.2m-2.8,1l2.8,-0.2m-2.8,0.9l2.8,-0.2m-2.4,0.6l2.4,-0.2m-2.8,3.2l2.8,-0.2m-2.8,0.7l2.8,-0.3m-2.8,1l2.8,-0.2m-2.8,1l2.8,-0.2m-2.8,0.9l2.8,-0.2m-2.8,1l2.8,-0.2m-2.8,1l2.8,-0.3m-2.8,1l2.8,-0.2" class="g4_2" />
<path d="M808.5,1008.5l3,0" class="g4_2" />
<path d="M809.5,1035.5l0,-6" class="g7_2" />
<path d="M809.5,1029.5l1,0l0,6l-1,0l0,-6Zm-102,-1l10,0l0,1l-10,0l0,-1Zm3,1l4,0l0,2l-4,0l0,-2Zm1,2l0,6l2,0l0,-6m-2,-23l0,20l2,0l0,-20" class="g4_2" />
<path d="M711.2,1009l2.8,-0.2m-2.8,1l2.8,-0.2m-2.8,1l2.8,-0.3m-2.8,1l2.8,-0.2m-2.8,1l2.8,-0.2m-2.8,0.9l2.8,-0.2m-2.8,1l2.8,-0.2m-2.8,1l2.8,-0.3m-2.8,1l2.8,-0.2m-2.8,1l2.8,-0.2m-2.8,1l2.8,-0.2m-2.8,1l2.8,-0.3m-2.8,1L714,1018m-2.8,1l2.8,-0.3m-2.8,1.1l2.8,-0.3m-2.8,1l2.8,-0.2m-2.8,1L714,1021m-2.8,1l2.8,-0.2m-2.8,1l2.8,-0.3m-2.8,1.1l2.8,-0.3m-2.8,1l2.8,-0.2m-2.8,1l2.8,-0.2m-2.8,1l2.8,-0.3m-2.8,1l2.8,-0.2m-2.8,1l2.8,-0.2m-2.8,0.9l2.8,-0.2m-2.4,0.6l2.4,-0.2m-2.8,3.2l2.8,-0.2m-2.8,0.7l2.8,-0.3m-2.8,1l2.8,-0.2m-2.8,1l2.8,-0.2m-2.8,0.9L714,1034m-2.8,1l2.8,-0.2m-2.8,1l2.8,-0.3m-2.8,1l2.8,-0.2" class="g4_2" />
<path d="M710.5,1008.5l4,0" class="g4_2" />
<path d="M712.5,1035.5l0,-6" class="g7_2" />
<path d="M712.5,1029.5l0,6l0,-6Zm33,-7l12,0l0,3l-12,0l0,-3Zm0,-4l12,0l0,3l-12,0l0,-3Zm0,13l12,0l0,2l-12,0l0,-2Zm0,4l12,0l0,2l-12,0l0,-2Zm19,-6l13,0l0,2l-13,0l0,-2Zm0,-4l13,0l0,2l-13,0l0,-2Zm0,-5l13,0l0,3l-13,0l0,-3Zm0,-4l13,0l0,3l-13,0l0,-3Zm-19,11l12,0l0,2l-12,0l0,-2Z" class="g4_2" />
<path fill-rule="evenodd" d="M737,1027l28,0l0,2l-28,0l0,-2Z" class="g8_2" />
<path d="M737.5,1027.2l28.1,0l0,2l-28.1,0l0,-2Zm-8.1,5.8l0,0.8l0.8,0.5l5.4,0M745,1033l12.4,0m-21.8,-14.2l-15.5,0c0,0,-2.2,0,-2.2,-1.3l0,-6.6l86.4,0l0,6.4c0,0,0,1.5,-2.4,1.5l-15.2,0m17.6,-5.1c0,1.1,-0.8,2.4,-2.6,2.4l-12.6,0c-1.6,0,-2.4,1.5,-2.4,2.7c0,1.2,0,19.2,0,20.1c0,0.9,-0.6,2.5,-2.5,2.5l-46.4,0c0,0,-2.3,-0.1,-2.3,-2.6l0,-20c0,0,0.1,-2.6,-2.6,-2.6l-12.3,0c0,0,-2.7,0,-2.7,-2.8m82.3,10.3c1.5,0,2.8,0.7,2.8,1.5c0,0.8,-1.3,1.4,-2.8,1.4c-1.6,0,-2.9,-0.6,-2.9,-1.4c0,-0.8,1.3,-1.5,2.9,-1.5Zm0,4.9c1.3,0,2.4,0.6,2.4,1.2c0,0.7,-1.1,1.3,-2.4,1.3c-1.4,0,-2.5,-0.6,-2.5,-1.3c0,-0.6,1.1,-1.2,2.5,-1.2Zm-78.1,-4.9c1.5,0,2.8,0.7,2.8,1.5c0,0.8,-1.3,1.4,-2.8,1.4c-1.6,0,-2.9,-0.6,-2.9,-1.4c0,-0.8,1.3,-1.5,2.9,-1.5Zm0,4.9c1.3,0,2.4,0.6,2.4,1.2c0,0.7,-1.1,1.3,-2.4,1.3c-1.4,0,-2.4,-0.6,-2.4,-1.3c0,-0.6,1,-1.2,2.4,-1.2Zm13.4,4.4l-19.5,0c0,0,-0.6,-0.1,-0.6,-0.7c0,-0.6,0,-3.2,0,-3.2m0,-0.6l0,-20.2m-0.2,-2l0,-20.1c0,-1.1,0.8,-3,5,-3l81.6,0c2.9,0,5.1,1.2,5.1,2.8l0,20.3" class="g4_2" />
<path d="M715.3,987.8c0,-1,0.8,-3,5,-3l81.5,0c3,0,5.2,1.2,5.2,2.8m-91.4,0.5c0,-1.1,0.8,-3,5,-3l80.8,0c2.9,0,5.2,1.2,5.2,2.8m-91,0.2l0,18.2m91,-18.4l0,18.4" class="g4_2" />
<path d="M777.3,992.6l7.7,0c0.3,0,0.6,0.3,0.6,0.7l0,2.4c0,0.3,-0.3,0.6,-0.6,0.6l-7.7,0c-0.4,0,-0.6,-0.3,-0.6,-0.6l0,-2.4c0,-0.4,0.2,-0.7,0.6,-0.7Zm0.2,0.4l7.2,0c0.3,0,0.6,0.2,0.6,0.5l0,2.1c0,0.3,-0.3,0.6,-0.6,0.6l-7.2,0c-0.3,0,-0.5,-0.3,-0.5,-0.6l0,-2.1c0,-0.3,0.2,-0.5,0.5,-0.5Zm-0.5,2.6l0,-1.4c0,-0.3,0.2,-0.6,0.5,-0.6l7.2,0c0.3,0,0.6,0.3,0.6,0.6l0,1.3m-7.7,0.7l0,-1.2c0,0,0.1,-0.5,0.5,-0.5l5.9,0c0,0,0.5,0,0.5,0.5l0,1.2" class="g4_2" />
<path d="M777.7,995.7l6.8,0M778,995.2l0,-0.2c0,0,0,-0.4,0.4,-0.4l5.4,0c0,0,0.4,0.1,0.4,0.4l0,0.2m-6.2,0l6.2,0m-6.2,0l-0.3,0.5m6.5,-0.5l0.3,0.5" class="g4_2" />
<path d="M777.3,997.4l7.7,0c0.3,0,0.6,0.3,0.6,0.7l0,2.4c0,0.3,-0.3,0.6,-0.6,0.6l-7.7,0c-0.4,0,-0.6,-0.3,-0.6,-0.6l0,-2.4c0,-0.4,0.2,-0.7,0.6,-0.7Zm0.2,0.3l7.2,0c0.3,0,0.6,0.3,0.6,0.6l0,2.1c0,0.3,-0.3,0.5,-0.6,0.5l-7.2,0c-0.3,0,-0.5,-0.2,-0.5,-0.5l0,-2.1c0,-0.3,0.2,-0.6,0.5,-0.6Zm-0.5,2.7l0,-1.5c0,-0.3,0.2,-0.5,0.5,-0.5l7.2,0c0.3,0,0.6,0.2,0.6,0.5l0,1.4m-7.7,0.6l0,-1.1c0,0,0.1,-0.5,0.5,-0.5l5.9,0c0,0,0.5,0,0.5,0.5l0,1.1" class="g4_2" />
<path d="M777.7,1000.4l6.8,0M778,1000l0,-0.2c0,0,0,-0.4,0.4,-0.4l5.4,0c0,0,0.4,0.1,0.4,0.4l0,0.2m-6.2,0l6.2,0m-6.2,0l-0.3,0.4m6.5,-0.4l0.3,0.4" class="g4_2" />
<path d="M756.2,992.1l6.3,0c0.1,0,0.2,0.1,0.2,0.3l0,1.8c0,0.1,-0.1,0.2,-0.2,0.2l-6.3,0c-0.1,0,-0.2,-0.1,-0.2,-0.2l0,-1.8c0,-0.2,0.1,-0.3,0.2,-0.3Zm0.5,0.6l5.3,0c0.1,0,0.2,0.1,0.2,0.2l0,1.2c0,0.1,-0.1,0.1,-0.2,0.1l-5.3,0c-0.1,0,-0.2,0,-0.2,-0.1l0,-1.2c0,-0.1,0.1,-0.2,0.2,-0.2Zm-0.1,0.1L756,992.2m6.1,0.6l0.6,-0.6m-0.6,2l0.6,0.1m-6.1,-0.1l-0.6,0.1m0.5,4.9l5.4,0c0.2,0,0.3,0.1,0.3,0.2l0,1.8c0,0.1,-0.1,0.2,-0.3,0.2l-5.4,0c-0.1,0,-0.2,-0.1,-0.2,-0.2l0,-1.8c0,-0.1,0.1,-0.2,0.2,-0.2Zm0.4,0.6l4.6,0c0.1,0,0.2,0,0.2,0.1l0,1.2c0,0.1,-0.1,0.1,-0.2,0.1l-4.6,0c0,0,-0.1,0,-0.1,-0.1l0,-1.2c0,-0.1,0.1,-0.1,0.1,-0.1Zm-0.1,0l-0.5,-0.6m5.3,0.6l0.5,-0.6m-0.5,2l0.5,0.2m-5.3,-0.2l-0.5,0.2m-7.2,-6.7l0,4l2.7,0c0,0,2.1,-0.2,2.1,-2c0,-1.7,-2.1,-2,-2.5,-2c-0.3,0,-2.3,0,-2.3,0Zm0.5,0.7l0,3.2l2.1,0c0,0,1.6,-0.2,1.6,-1.6c0,-1.4,-1.6,-1.6,-1.9,-1.6c-0.2,0,-1.8,0,-1.8,0Zm0,0l-0.5,-0.7m0.5,3.9l-0.5,0.1m-12.7,-6.6l6.3,0c0.2,0,0.3,0.1,0.3,0.3l0,1.8c0,0.1,-0.1,0.2,-0.3,0.2l-6.3,0c-0.1,0,-0.2,-0.1,-0.2,-0.2l0,-1.8c0,-0.2,0.1,-0.3,0.2,-0.3Zm0.5,0.6l5.3,0c0.1,0,0.2,0.1,0.2,0.2l0,1.2c0,0.1,-0.1,0.1,-0.2,0.1l-5.3,0c-0.1,0,-0.1,0,-0.1,-0.1l0,-1.2c0,-0.1,0,-0.2,0.1,-0.2Zm-0.1,0.1l-0.6,-0.6m6.1,0.6l0.6,-0.6m-0.6,2l0.6,0.1m-6.1,-0.1l-0.6,0.1m0.5,4.9l5.5,0c0.1,0,0.2,0.1,0.2,0.2l0,1.8c0,0.1,-0.1,0.2,-0.2,0.2l-5.5,0c-0.1,0,-0.2,-0.1,-0.2,-0.2l0,-1.8c0,-0.1,0.1,-0.2,0.2,-0.2Zm0.4,0.6l4.6,0c0.1,0,0.2,0,0.2,0.1l0,1.2c0,0.1,-0.1,0.1,-0.2,0.1l-4.6,0c0,0,-0.1,0,-0.1,-0.1l0,-1.2c0,-0.1,0.1,-0.1,0.1,-0.1Zm-0.1,0l-0.4,-0.6m5.2,0.6l0.5,-0.6m-0.5,2l0.5,0.2m-5.3,-0.2l-0.4,0.2m-7.3,-6.7l0,4l2.7,0c0,0,2.1,-0.2,2.1,-2c0,-1.7,-2.1,-2,-2.4,-2c-0.4,0,-2.4,0,-2.4,0Zm0.5,0.7l0,3.2l2.2,0c0,0,1.5,-0.2,1.5,-1.6c0,-1.4,-1.6,-1.6,-1.8,-1.6c-0.3,0,-1.9,0,-1.9,0Zm0,0l-0.5,-0.7m0.5,3.9l-0.5,0.1" class="g4_2" />
<path fill-rule="evenodd" d="M754.3,1029.2c0.2,0,0.2,0.2,0.3,0.3c0,0.2,0,0.7,0,0.7c0,0,-0.3,0.9,-2.7,1.2l0,-0.3l-0.9,0l0,0.3c-1,0.1,-2.1,-0.6,-2.4,-0.8c-0.3,-0.2,-0.3,-0.4,-0.3,-0.4c0,0,0,-0.5,0,-0.7c0,-0.2,0.1,-0.3,0.2,-0.3Z" class="g8_2" />
<path d="M754.3,1029.2c0.2,0,0.2,0.2,0.3,0.3c0,0.2,0,0.7,0,0.7c0,0,-0.3,0.9,-2.7,1.2l0,-0.3l-0.9,0l0,0.3c-1,0.1,-2.1,-0.6,-2.4,-0.8c-0.3,-0.2,-0.3,-0.4,-0.3,-0.4c0,0,0,-0.5,0,-0.7c0,-0.2,0.1,-0.3,0.2,-0.3l5.8,0Z" class="g4_2" />
<path d="M748.7,1030.2l5.4,0" class="g4_2" />
<path fill-rule="evenodd" d="M752.8,1027.2l0,-3l-1.4,-2.8l-1.4,3l0,2.8Z" class="g8_2" />
<path d="M752.8,1027.2l0,-3l-1.4,-2.8l-1.4,3l0,2.8l2.8,0Z" class="g4_2" />
<path d="M750.1,1026.9l2.7,-0.4m-2.7,-0.3l2.7,-0.3m-2.7,-0.3l2.7,-0.4m-2.7,-0.3l2.7,-0.4m-2.7,-0.3l2.4,-0.4" class="g4_2" />
<path d="M720.8,1017.4l-0.1,0.3l0.7,0.2l0.3,0.1l0.1,0.1l0.1,0.2l0.6,0l0,-0.2l0.2,-0.1l0.3,-0.1l0.6,-0.2l0,-0.3l-0.4,0.1l-0.3,0l-0.2,0l-0.1,0l-0.1,-0.2l0,-0.5l-0.6,0l0,0.5l-0.1,0.1l-0.1,0.1l-0.1,0l-0.2,0.1l-0.6,-0.2Zm0.9,0.6l0,-0.5m0.2,0.7l0,-1.4m-0.5,1.1l0,-0.3m1.5,0.3l0,-0.3m-0.2,0.4l0,-0.5m-0.2,0.6l0,-1.3m1.7,-0.6c0.4,0.2,0.6,0.6,0.6,0.9c0,0.8,-1.2,1.4,-2.6,1.4c-1.5,0,-2.6,-0.6,-2.6,-1.4c0,-0.3,0.2,-0.7,0.6,-0.9m-0.6,0.1c0,-0.1,0,-0.2,0,-0.3m5.2,0.2c0,0,0,0.1,0,0.1m-5.2,0.8l0,-0.8m5.2,0.8l0,-0.8m76.7,1.1l0.1,0.3l-0.7,0.2l-0.3,0.1l-0.1,0.1l-0.1,0.2l-0.6,0l0,-0.2l-0.2,-0.1l-0.3,-0.1l-0.7,-0.2l0.1,-0.3l0.4,0.1l0.3,0l0.2,0l0.1,0l0.1,-0.2l0,-0.5l0.6,0l0,0.5l0.1,0.1l0.1,0.1l0.1,0l0.2,0.1l0.6,-0.2Zm-0.9,0.6l0,-0.5m-0.2,0.7l0,-1.4m0.5,1.1l0,-0.3m-1.5,0.3l0,-0.3m0.2,0.4l0,-0.5m0.2,0.6l0,-1.3m-1.7,-0.6c-0.4,0.2,-0.6,0.6,-0.6,0.9c0,0.8,1.2,1.4,2.6,1.4c1.5,0,2.6,-0.6,2.6,-1.4c0,-0.3,-0.2,-0.7,-0.6,-0.9m0.6,0.1c0,-0.1,0,-0.2,0,-0.3m-5.2,0.2c0,0,0,0.1,0,0.1m5.2,0.8l0,-0.8m-5.2,0.8l0,-0.8m-66.4,67.3l-0.3,0l-5.1,2.5l0,6.5l3.9,1.6l1.2,6.6l6.4,0l1.1,-6.7l3.9,-1.5l0,-6.6l-5.1,-2.4l-0.2,0" class="g4_2" />
<path d="M736.9,1085.7c0.7,0.7,1.1,1.7,1.1,2.8c0,2.2,-1.8,4,-4,4c-2.2,0,-4,-1.8,-4,-4c0,-1.1,0.4,-2.1,1.1,-2.8m7.1,0.2c0.5,0.8,0.9,1.6,0.9,2.6c0,2.8,-2.3,5.1,-5.1,5.1c-2.8,0,-5.1,-2.3,-5.1,-5.1c0,-0.9,0.4,-1.8,0.8,-2.5m-4,6.6l4.9,-0.3m-4.9,-6.2l4,-0.2m12.5,0.1l-4,-0.1" class="g4_2" />
<path d="M742.2,1092.6l-4.9,-0.3" class="g4_2" />
<path d="M729.6,1094.2l-0.3,-1.8m9,1.7l0.3,-1.7" class="g4_2" />
<path d="M736.9,1088.5c0,1.6,-1.3,2.9,-2.9,2.9c-1.6,0,-2.9,-1.3,-2.9,-2.9m0,0l0,-54.2m5.8,54.2l0,-47.4" class="g4_2" />
<path d="M729.7,1086c0.3,-0.9,1,-1.7,1.4,-1.9" class="g4_2" />
<path d="M738.2,1086c-0.2,-0.9,-1,-1.7,-1.3,-1.9M786.7,1033l19.5,0c0,0,0.7,-0.1,0.7,-0.7c0,-0.6,0,-3.2,0,-3.2m0,-0.6l0,-20.2" class="g4_2" />
<path d="M563.5,977.5l0,1" class="g3_2" />
<path d="M563.5,981.5l0,21" class="g9_2" />
<path d="M563.5,1003.5l0,1" class="g3_2" />
<path d="M706.5,924.5l0,1" class="g3_2" />
<path d="M706.5,927.5l0,13" class="g9_2" />
<path d="M706.5,941.5l0,1m109,-18l0,1" class="g3_2" />
<path d="M815.5,927.5l0,13" class="g9_2" />
<path d="M815.5,941.5l0,1" class="g3_2" />
<path d="M653.5,927.5l-98,0m0,-2l0,4m98,-4l0,4m-19,48l0,1" class="g3_2" />
<path d="M634.5,981.5l0,21" class="g9_2" />
<path d="M634.5,1003.5l0,1" class="g3_2" />
<path d="M680.5,983.5l35,0" class="g9_2" />
<path d="M680.5,1041.5l48,0" class="g10_2" />
<path d="M559.6,857.2l89.8,0c2.5,0,4.5,2.1,4.5,4.6l0,54.8c0,2.5,-2,4.6,-4.5,4.6l-89.8,0c-2.5,0,-4.5,-2.1,-4.5,-4.6l0,-54.8c0,-2.5,2,-4.6,4.5,-4.6Z" class="g4_2" />
<path d="M82.5,889.5l162,0" class="g11_2" />
<path d="M244.5,889.5l179,0" class="g11_2" />
<path d="M247,922l55,0l0,-22l-55,0l0,22Z" class="g12_2" />
<path d="M247,948l55,0l0,-22l-55,0l0,22Z" class="g13_2" />
<path d="M247,1026l55,0l0,-22l-55,0l0,22Z" class="g14_2" />
<path d="M247,974l55,0l0,-22l-55,0l0,22Z" class="g15_2" />
<path d="M247,1052l55,0l0,-22l-55,0l0,22Z" class="g16_2" />
<path d="M247,1000l55,0l0,-22l-55,0l0,22Z" class="g17_2" />
<path d="M247,1078l55,0l0,-22l-55,0l0,22Z" class="g18_2" />
<path d="M82,922l55,0l0,-22l-55,0l0,22Z" class="g12_2" />
<path d="M82,948l55,0l0,-22l-55,0l0,22Z" class="g13_2" />
<path d="M82,974l55,0l0,-22l-55,0l0,22Z" class="g15_2" />
<image x="82" y="466" width="189" height="141" xlink:href="img/2.png" />
<image x="276" y="466" width="189" height="141" xlink:href="img/3.png" />
<image x="470" y="466" width="189" height="141" xlink:href="img/4.png" />
<image x="664" y="466" width="189" height="141" xlink:href="img/5.png" />
</svg>