<?xml version="1.0" encoding="UTF-8" standalone="no"?>
<!DOCTYPE svg PUBLIC "-//W3C//DTD SVG 1.1//EN"
"http://www.w3.org/Graphics/SVG/1.1/DTD/svg11.dtd">
<svg version="1.1" xmlns="http://www.w3.org/2000/svg" xmlns:xlink="http://www.w3.org/1999/xlink">
<defs>
<clipPath id="c0_10"><path d="M186.5,378.5l0,-65l78,0l0,65Z" /></clipPath>
<style type="text/css"><![CDATA[
.g11_10{
fill: none;
stroke: #231F20;
stroke-width: 1;
stroke-linecap: butt;
stroke-linejoin: miter;
stroke-miterlimit: 4;
}
.g7_10{
fill: #DF4826;
}
.g8_10{
fill: #C12025;
}
.g10_10{
fill: #61903E;
}
.g4_10{
fill: #FFFFFF;
}
.g9_10{
fill: #267896;
}
.g12_10{
fill: none;
stroke: #231F20;
stroke-width: 4;
stroke-linecap: butt;
stroke-linejoin: miter;
stroke-miterlimit: 4;
}
.g15_10{
fill: none;
stroke: #040503;
stroke-width: 1;
stroke-linecap: round;
stroke-linejoin: round;
stroke-miterlimit: 2;
}
.g1_10{
fill: none;
stroke: #231F20;
stroke-width: 4;
stroke-linecap: butt;
stroke-linejoin: miter;
}
.g3_10{
fill: #F5F5F6;
}
.g14_10{
fill: none;
stroke: #BDBEC1;
stroke-width: 4;
stroke-linecap: butt;
stroke-linejoin: miter;
stroke-miterlimit: 4;
}
.g16_10{
fill: none;
stroke: #040503;
stroke-width: 1;
stroke-linecap: butt;
stroke-linejoin: miter;
stroke-miterlimit: 2;
}
.g13_10{
fill: none;
stroke: #808285;
stroke-width: 4;
stroke-linecap: butt;
stroke-linejoin: miter;
stroke-miterlimit: 4;
}
.g5_10{
fill: #505750;
}
.g6_10{
fill: #231F20;
}
.g2_10{
fill: none;
stroke: #231F20;
stroke-width: 1;
stroke-linecap: butt;
stroke-linejoin: miter;
}
]]></style>
</defs>
<path d="M55,191l245,0" class="g1_10" />
<path d="M299,191l175,0" class="g1_10" />
<path d="M474,191l70,0" class="g1_10" />
<path d="M545,191l69,0" class="g1_10" />
<path d="M614,191l70,0" class="g1_10" />
<path d="M684,191l70,0" class="g1_10" />
<path d="M754,191l70,0" class="g1_10" />
<path d="M55.5,518.5l245,0" class="g2_10" />
<path d="M299.5,518.5l175,0" class="g2_10" />
<path d="M474.5,518.5l70,0" class="g2_10" />
<path d="M545.5,518.5l69,0" class="g2_10" />
<path d="M614.5,518.5l70,0" class="g2_10" />
<path d="M684.5,518.5l70,0" class="g2_10" />
<path d="M754.5,518.5l70,0" class="g2_10" />
<path d="M55.5,300.5l245,0" class="g2_10" />
<path d="M299.5,300.5l175,0" class="g2_10" />
<path d="M474.5,300.5l70,0" class="g2_10" />
<path d="M545.5,300.5l69,0" class="g2_10" />
<path d="M614.5,300.5l70,0" class="g2_10" />
<path d="M684.5,300.5l70,0" class="g2_10" />
<path d="M754.5,300.5l70,0" class="g2_10" />
<path d="M55.5,409.5l245,0" class="g2_10" />
<path d="M299.5,409.5l175,0" class="g2_10" />
<path d="M474.5,409.5l70,0" class="g2_10" />
<path d="M545.5,409.5l69,0" class="g2_10" />
<path d="M614.5,409.5l70,0" class="g2_10" />
<path d="M684.5,409.5l70,0" class="g2_10" />
<path d="M754.5,409.5l70,0" class="g2_10" />
<path d="M55,768l210,0l0,339l-210,0L55,768Z" class="g3_10" />
<path d="M55,768l210,0" class="g1_10" />
<path d="M299,768l105,0" class="g1_10" />
<path d="M405,768l280,0" class="g1_10" />
<path d="M684,768l140,0" class="g1_10" />
<path d="M75,900l35,0l0,-13l-35,0l0,13Z" class="g4_10" />
<path d="M75,915l35,0l0,-13l-35,0l0,13Z" class="g5_10" />
<path d="M75,929l35,0l0,-12l-35,0l0,12Z" class="g6_10" />
<path d="M75,944l35,0l0,-12l-35,0l0,12Z" class="g7_10" />
<path d="M75,959l35,0l0,-13l-35,0l0,13Z" class="g8_10" />
<path d="M75,974l35,0l0,-13l-35,0l0,13Z" class="g9_10" />
<path d="M75,989l35,0l0,-13l-35,0l0,13Z" class="g10_10" />
<path d="M75,819l35,0l0,-13l-35,0l0,13Z" class="g4_10" />
<path d="M75,834l35,0l0,-13l-35,0l0,13Z" class="g5_10" />
<path d="M75,849l35,0l0,-13l-35,0l0,13Z" class="g6_10" />
<path d="M300.5,806.5l84,0l0,-19l-84,0l0,19Z" class="g11_10" />
<path d="M405.5,806.5l260,0l0,-19l-260,0l0,19Z" class="g11_10" />
<path d="M685.5,806.5l139,0l0,-19l-139,0l0,19Z" class="g11_10" />
<path d="M399.2,797.1l-7.6,-3.8l0,7.7Z" class="g6_10" />
<path d="M679.7,797.1l-7.6,-3.8l0,7.7Z" class="g6_10" />
<path d="M684,1046l61,0" class="g12_10" />
<path d="M746,1046l16,0" class="g13_10" />
<path d="M763,1046l19,0" class="g14_10" />
<path d="M189.2,209.4l8.9,-3.7" class="g15_10" />
<path d="M198.4,205.7l27.2,8.7" class="g15_10" />
<path d="M189.6,210l25.2,8.2" class="g15_10" />
<path d="M216.7,218.2l8.9,-3.7" class="g15_10" />
<path d="M214.8,218.2c0,0,0.9,0.3,1.9,0" class="g15_10" />
<path d="M189.2,210.1l25.8,8.2" class="g15_10" />
<path d="M216.9,218.3l8.9,-3.8" class="g15_10" />
<path d="M215,218.3c0,0,0.9,0.3,1.9,0" class="g15_10" />
<path d="M217,227.2l9,-3.8l0,-8.5" class="g15_10" />
<path d="M225.6,214.4c0,0,0.4,0,0.4,0.5" class="g15_10" />
<path d="M189.5,219l25.6,8.3" class="g15_10" />
<path d="M188.9,209.9l0,8.8" class="g15_10" />
<path d="M188.9,218.7c0,0,0.1,0.1,0.6,0.3" class="g15_10" />
<path d="M215.1,227.3c0,0,1.2,0.2,1.9,-0.1" class="g15_10" />
<path d="M191.8,214.7l0,1.5l0.6,0.2" class="g15_10" />
<path d="M191.8,214.7l0.7,0.2" class="g15_10" />
<path d="M191.8,214.7l0.2,0.1l0,1.2l-0.2,0.2" class="g15_10" />
<path d="M192,214.8l0.2,0.1l0,1L192,216" class="g15_10" />
<path d="M192,216l0.6,0.2" class="g15_10" />
<path d="M192.2,215.9c0,0,0.5,0.2,0.5,0.2" class="g15_10" />
<path d="M192.2,215.9l0.7,-0.3" class="g15_10" />
<path d="M192.4,216.4c0,0,0.5,0.1,0.6,-0.4" class="g15_10" />
<path d="M192.6,216.2c0,0,0.2,0,0.3,-0.2" class="g15_10" />
<path d="M195,218.2l-1.4,-0.4l0,-0.9l0.2,0.2l0,0.5L195,218l0,-0.1l-1.1,-0.4l0.6,-0.2L194,217.1l-0.1,0.4l-0.1,0.1l-0.2,0.2" class="g15_10" />
<path d="M193.6,216.9l1.4,0.5l0,0.8" class="g15_10" />
<path d="M195.1,215.6l-1.6,-0.5l0,-0.9l0.2,0.2l0,0.5l0.1,-0.1l0.6,-0.2l-0.6,-0.2l0,0.4l1.3,0.4l0,0.2l-1.4,-0.5l-0.2,0.2" class="g15_10" />
<path d="M193.5,214.2l1.6,0.6l0,0.8" class="g15_10" />
<path d="M216.5,219.5l0,7" class="g15_10" />
<path d="M210.5,220.5l0,2" class="g15_10" />
<path d="M209.9,219.8l0.6,0.2" class="g15_10" />
<path d="M209.9,222.9l0.6,0.2" class="g15_10" />
<path d="M210.1,222.8l0.4,0.2" class="g15_10" />
<path d="M210.8,222.7c0,0,-0.3,0.2,-0.3,0.4" class="g15_10" />
<path d="M210.5,220c0,0,0,0.3,0.3,0.5" class="g15_10" />
<path d="M210.1,219.9c0,0,0,2.9,0,2.9l0.7,-0.3" class="g15_10" />
<path d="M209.9,219.8l0,3.1" class="g15_10" />
<path d="M210.8,222.7l0.3,-0.1" class="g15_10" />
<path d="M210.5,223.1l0.3,-0.1" class="g15_10" />
<path d="M210.8,223c0,0,0,-0.2,0.3,-0.4" class="g15_10" />
<path d="M211.1,222.6l0,-2.3" class="g15_10" />
<path d="M210.1,219.5l0.8,0.2" class="g15_10" />
<path d="M210.9,219.7c0,0,0,0.3,0.2,0.6" class="g15_10" />
<path d="M209.9,219.8l0.6,-0.2" class="g15_10" />
<path d="M210.1,219.8l0,-0.3" class="g15_10" />
<path d="M210.5,220l0.4,-0.2" class="g15_10" />
<path d="M210.8,220.5l0.3,-0.2" class="g15_10" />
<path d="M211.1,220.7l-0.1,0.1l0,0.1l0.1,0.2l-0.1,0.1l0.1,0" class="g15_10" />
<path d="M211.1,221.8l-0.1,0.1l0.1,0l0,0.3l-0.1,0l0,0.1l0.1,0" class="g15_10" />
<path d="M210.6,220.3l0,2.1l0.1,0" class="g15_10" />
<path d="M210.6,220.4l-0.4,0.1" class="g15_10" />
<path d="M210.6,220.8l-0.5,0.2" class="g15_10" />
<path d="M210.6,221.5l-0.5,0.1" class="g15_10" />
<path d="M210.6,221.8l-0.5,0.2" class="g15_10" />
<path d="M211.5,225.5c-0.1,0,-0.1,0,-0.1,0l-1.9,-0.6c-0.2,-0.1,-0.4,-0.4,-0.4,-0.5l0.1,-6.7c0,-0.3,0.1,-0.3,0.3,-0.3" class="g15_10" />
<path d="M211.5,225.5c0.1,0,0.2,-0.2,0.2,-0.3l0.1,-6.6c0,-0.2,-0.1,-0.5,-0.3,-0.6l-2,-0.6c-0.1,-0.1,-0.2,0,-0.2,0" class="g15_10" />
<path d="M211.6,225.4c0,0.1,-0.1,0.1,-0.1,0l-2,-0.6c-0.1,0,-0.3,-0.3,-0.3,-0.5l0,-6.6c0,-0.2,0.1,-0.3,0.2,-0.3" class="g15_10" />
<path d="M189,209.8c0,0,0,0.2,0.2,0.3" class="g15_10" />
<path d="M188.9,209.9c0,0,0,-0.3,0.3,-0.5" class="g15_10" />
<path d="M189.6,209.4l8.8,-3.7" class="g15_10" />
<path d="M189.6,209.4c0,0,-0.7,0.3,0,0.6" class="g15_10" />
<path d="M198.1,205.7c0,0,0.2,-0.1,0.3,0" class="g15_10" />
<path d="M214.5,219.5l0,7" class="g15_10" />
<path d="M234.4,223.1c3.1,-1.2,7.3,-1.7,11.9,-1.7c10.2,0,18,3,17.7,7.5" class="g15_10" />
<path d="M263.9,229.7c-1,3.7,-8.5,6.7,-17.6,6.7c-6.5,0,-12.1,-1.5,-15.1,-3.8c-1,-0.7,-1.4,-1.5,-1.5,-2.3" class="g15_10" />
<path d="M264,228.9c0,0.2,0,0.5,-0.1,0.7" class="g15_10" />
<path d="M263.9,231.4c-0.9,3.7,-8.5,6.7,-17.6,6.7c-6.5,0,-12.1,-1.5,-15.1,-3.7c-0.9,-0.7,-1.4,-1.5,-1.5,-2.4" class="g15_10" />
<path d="M263.9,233.1c-0.9,3.7,-8.6,6.6,-17.7,6.6c-6.5,0,-12.1,-1.5,-15.1,-3.7c-0.9,-0.7,-1.3,-1.4,-1.4,-2.2" class="g15_10" />
<path d="M263.9,234.8c-0.9,3.7,-8.4,6.7,-17.6,6.7c-6.5,0,-12,-1.6,-15.1,-3.7c-1.6,-1.2,-1.8,-2.7,-1.4,-3.9" class="g15_10" />
<path d="M231.6,229.6c0,-2.4,6.8,-4.7,14.8,-4.6c8,0.2,14.8,2.7,15.3,4.7" class="g15_10" />
<path d="M262,228.9c0,2.4,-7.4,5.2,-15.6,5.2c-8.2,0,-14.8,-2.1,-14.8,-4.5" class="g15_10" />
<path d="M231.9,230.4c1.5,-2,7.5,-3.7,14.4,-3.6c6.7,0.1,12.6,1.9,14.6,3.7" class="g15_10" />
<path d="M232.9,231.4c2.2,-1.7,7.6,-3,13.6,-2.9c5.6,0.1,10.6,1.3,13.3,2.8" class="g15_10" />
<path d="M234.4,232.2c2.7,-1.2,7.2,-2.1,12.1,-2c4.4,0.1,8.5,0.9,11.4,2" class="g15_10" />
<path d="M235,225c2.8,-1,6.9,-1.7,11.4,-1.7c8,0.2,14.9,2.7,15.4,4.7" class="g15_10" />
<path d="M261.8,228c0,0,0.1,0.3,0.2,0.9" class="g15_10" />
<path d="M235,225l-3.5,1.4" class="g15_10" />
<path d="M231.5,226.4c0,0,-2.4,1.3,-1.8,3.9" class="g15_10" />
<path d="M229.7,230.4c0,0,-0.3,0.6,0,1.6" class="g15_10" />
<path d="M229.7,232.2c0,0,-0.3,0.6,0,1.6" class="g15_10" />
<path d="M263.9,229.7c0,0,0.2,0.4,0,1.7" class="g15_10" />
<path d="M263.9,231.4c0,0,0.2,0.4,0,1.7" class="g15_10" />
<path d="M263.9,233.1c0,0,0.2,0.4,0,1.7" class="g15_10" />
<path d="M263.9,234.8c0,0,1,2.9,-3,5.2" class="g15_10" />
<path d="M260.9,240l-1.3,0.7l-18.2,7.9" class="g15_10" />
<path d="M255,240.5l-14.3,6.3" class="g15_10" />
<path d="M192.9,216c0.1,-0.9,-0.4,-1.1,-0.4,-1.1l-0.7,-0.2" class="g15_10" />
<path d="M192.7,216.4c0.1,-0.1,0.2,-0.2,0.2,-0.4" class="g15_10" />
<path d="M196.7,216.3l0,1.5l0.6,0.2" class="g15_10" />
<path d="M196.7,216.3l0.7,0.2" class="g15_10" />
<path d="M196.7,216.3l0.2,0.1l0,1.2l-0.2,0.2" class="g15_10" />
<path d="M196.9,216.4l0.2,0.1l0,1l-0.2,0.1" class="g15_10" />
<path d="M196.9,217.6l0.5,0.2" class="g15_10" />
<path d="M197.1,217.5c0,0,0.4,0.2,0.5,0.2" class="g15_10" />
<path d="M197.1,217.5l0.7,-0.3" class="g15_10" />
<path d="M197.3,218c0,0,0.4,0.1,0.5,-0.5" class="g15_10" />
<path d="M197.4,217.8c0,0,0.2,0,0.4,-0.3" class="g15_10" />
<path d="M199.8,219.8l-1.4,-0.4l0,-0.9l0.3,0.2l0,0.5l1.2,0.4l0,-0.1l-1.1,-0.4l0.5,-0.2l-0.5,-0.2l0,0.4l-0.1,0.1l-0.2,0.2" class="g15_10" />
<path d="M198.5,218.5l1.4,0.5l0,0.8" class="g15_10" />
<path d="M199.9,217.2l-1.6,-0.5l0,-0.9l0.2,0.2l0,0.5l0.2,-0.1l0.5,-0.2L198.7,216l0,0.4l1.3,0.4l0,0.1l-1.5,-0.4l-0.2,0.2" class="g15_10" />
<path d="M198.3,215.8l1.7,0.6l0,0.8" class="g15_10" />
<path d="M197.8,217.6c0.1,-0.9,-0.4,-1.1,-0.4,-1.1l-0.7,-0.2" class="g15_10" />
<path d="M197.5,218c0.2,-0.1,0.3,-0.2,0.3,-0.4" class="g15_10" />
<path d="M205.5,218.5l0,2" class="g15_10" />
<path d="M204.5,218.1l0.6,0.1" class="g15_10" />
<path d="M204.5,221.2l0.6,0.1" class="g15_10" />
<path d="M204.7,221.1l0.4,0.1" class="g15_10" />
<path d="M205.4,221c0,0,-0.3,0.1,-0.3,0.3" class="g15_10" />
<path d="M205.1,218.2c0,0,0,0.3,0.3,0.6" class="g15_10" />
<path d="M204.7,218.2c0,0,0,2.9,0,2.9l0.7,-0.4" class="g15_10" />
<path d="M204.5,218.1l0,3.1" class="g15_10" />
<path d="M205.4,221l0.3,-0.1" class="g15_10" />
<path d="M205.1,221.3l0.3,0" class="g15_10" />
<path d="M205.4,221.3c0,0,0,-0.2,0.3,-0.4" class="g15_10" />
<path d="M205.7,220.9l0,-2.4" class="g15_10" />
<path d="M204.7,217.7l0.8,0.3" class="g15_10" />
<path d="M205.5,218c0,0,0,0.3,0.2,0.5" class="g15_10" />
<path d="M204.5,218.1l0.6,-0.3" class="g15_10" />
<path d="M204.7,218l0,-0.3" class="g15_10" />
<path d="M205.1,218.2l0.4,-0.1" class="g15_10" />
<path d="M205.4,218.7l0.3,-0.1" class="g15_10" />
<path d="M205.7,219l-0.1,0.1l0.1,0.3l-0.1,0l0,0.1l0.1,0" class="g15_10" />
<path d="M205.7,220l-0.1,0.1l0,0.1l0.1,0l0,0.2l-0.1,0.1l0,0.1l0.1,0" class="g15_10" />
<path d="M205.2,218.6l0,2l0.1,0.1" class="g15_10" />
<path d="M205.2,218.6l-0.4,0.2" class="g15_10" />
<path d="M205.2,219.1l-0.5,0.1" class="g15_10" />
<path d="M205.2,219.7l-0.5,0.2" class="g15_10" />
<path d="M205.2,220.1l-0.5,0.2" class="g15_10" />
<path d="M206.1,223.8c-0.1,0,-0.1,0,-0.1,0l-1.9,-0.6c-0.2,-0.1,-0.4,-0.4,-0.4,-0.6l0.1,-6.6c0,-0.3,0.1,-0.4,0.3,-0.3" class="g15_10" />
<path d="M206.1,223.8c0.1,0,0.2,-0.2,0.2,-0.3l0.1,-6.7c0,-0.2,-0.1,-0.4,-0.3,-0.5l-2,-0.6c-0.1,-0.1,-0.2,0,-0.2,0" class="g15_10" />
<path d="M206.2,223.7c0,0,-0.1,0,-0.1,0l-2,-0.6c-0.1,-0.1,-0.3,-0.4,-0.3,-0.5l0,-6.7c0,-0.1,0.1,-0.2,0.2,-0.2" class="g15_10" />
<path d="M225.6,223.6c1.5,0.6,3.9,1.5,8.8,-0.5" class="g15_10" />
<path d="M223,225.1c2.7,0.9,6.6,2,9.8,0.7" class="g15_10" />
<path d="M203.1,241.1l0,-7.9" class="g15_10" />
<path d="M204.5,242.5l0,5" class="g15_10" />
<path d="M204.4,233.1l0,8" class="g15_10" />
<path d="M203.1,233.2c0,-0.2,0.3,-0.3,0.7,-0.3c0.3,0,0.6,0.1,0.6,0.2" class="g15_10" />
<path d="M204.4,247.1c0,0.1,-0.3,0.2,-0.6,0.2c-0.4,0,-0.7,-0.1,-0.7,-0.2" class="g15_10" />
<path d="M204.4,233.2c0,0.1,-0.3,0.2,-0.6,0.2c-0.4,0,-0.7,-0.1,-0.7,-0.2" class="g15_10" />
<path d="M204.4,233.5c0,0.2,-0.3,0.3,-0.6,0.3c-0.4,0,-0.7,-0.1,-0.7,-0.3" class="g15_10" />
<path d="M204.4,233.9c0,0.1,-0.3,0.2,-0.6,0.2c-0.4,0,-0.7,-0.1,-0.7,-0.2" class="g15_10" />
<path d="M204.4,234.2c0,0.2,-0.3,0.3,-0.6,0.3c-0.4,0,-0.7,-0.1,-0.7,-0.3" class="g15_10" />
<path d="M204.4,234.6c0,0.1,-0.3,0.3,-0.6,0.3c-0.4,0,-0.7,-0.2,-0.7,-0.3" class="g15_10" />
<path d="M204.4,235c0,0.1,-0.3,0.2,-0.6,0.2c-0.4,0,-0.7,-0.1,-0.7,-0.2" class="g15_10" />
<path d="M204.4,235.3c0,0.1,-0.3,0.3,-0.6,0.3c-0.4,0,-0.7,-0.2,-0.7,-0.3" class="g15_10" />
<path d="M204.4,235.7c0,0.1,-0.3,0.2,-0.6,0.2c-0.4,0,-0.7,-0.1,-0.7,-0.2" class="g15_10" />
<path d="M204.4,236c0,0.2,-0.3,0.3,-0.6,0.3c-0.4,0,-0.7,-0.1,-0.7,-0.3" class="g15_10" />
<path d="M204.4,236.4c0,0.1,-0.3,0.2,-0.6,0.2c-0.4,0,-0.7,-0.1,-0.7,-0.2" class="g15_10" />
<path d="M204.4,236c0,0.2,-0.3,0.3,-0.6,0.3c-0.4,0,-0.7,-0.1,-0.7,-0.3" class="g15_10" />
<path d="M204.4,236.4c0,0.1,-0.3,0.2,-0.6,0.2c-0.4,0,-0.7,-0.1,-0.7,-0.2" class="g15_10" />
<path d="M204.4,236.7c0,0.2,-0.3,0.3,-0.6,0.3c-0.4,0,-0.7,-0.1,-0.7,-0.3" class="g15_10" />
<path d="M204.4,246.7c0,0.2,-0.3,0.3,-0.6,0.3c-0.4,0,-0.7,-0.1,-0.7,-0.3" class="g15_10" />
<path d="M205.6,247l0,0.1c0,0.3,-0.8,0.6,-1.8,0.6c-1,0,-1.9,-0.3,-1.9,-0.6" class="g15_10" />
<path d="M202,247c0,-0.2,0.4,-0.5,1.1,-0.6" class="g15_10" />
<path d="M205.5,247.2c0.5,0.1,0.8,0.3,0.8,0.6c0,0.5,-1.1,1,-2.5,1c-1.4,0,-2.5,-0.5,-2.5,-1c0,-0.3,0.2,-0.5,0.7,-0.7" class="g15_10" />
<path d="M206.4,249.1c0,0.6,-1.2,1,-2.6,1c-1.5,0,-2.7,-0.4,-2.7,-1" class="g15_10" />
<path d="M205.6,247.8c0,0,0,0.1,0,0.1c0,0.3,-0.8,0.7,-1.8,0.7c-1,0,-1.8,-0.4,-1.8,-0.7" class="g15_10" />
<path d="M202,247l0,0.9" class="g15_10" />
<path d="M205.6,247l0,0.8" class="g15_10" />
<path d="M201.1,249.1l0,-1.3" class="g15_10" />
<path d="M201.1,247.8c0,-0.3,0.3,-0.5,0.9,-0.7" class="g15_10" />
<path d="M206.4,247.8l0,1.3" class="g15_10" />
<path d="M205.6,247.1c0,0,0.7,0.2,0.8,0.7" class="g15_10" />
<path d="M201.5,248.5l0,1" class="g15_10" />
<path d="M206.4,247.8c0,0.6,-1.3,1,-2.7,1c-1.4,0,-2.6,-0.4,-2.6,-1" class="g15_10" />
<path d="M203.8,248.8l0,1.3" class="g15_10" />
<path d="M206.3,248.2l0,1.2" class="g15_10" />
<path d="M206.3,248.1l0,1.3" class="g15_10" />
<path d="M204.3,226.9l0,0.7" class="g15_10" />
<path d="M204.6,227.8l6.8,2.2" class="g15_10" />
<path d="M212.5,230.1l3.5,-1.5" class="g15_10" />
<path d="M204.4,226.7l3.2,-1.3c0.2,-0.1,0.3,-0.2,0.4,-0.4" class="g15_10" />
<path d="M204.4,226.7c0,0,-0.1,0.1,-0.1,0.2" class="g15_10" />
<path d="M204.3,227.6c0,0,0,0.1,0.3,0.2" class="g15_10" />
<path d="M211.4,230.1c0,0,0.6,0.1,1.1,0" class="g15_10" />
<path d="M215.9,228.6c0.3,-0.1,0.7,-0.4,1,-1.3" class="g15_10" />
<path d="M212.7,229.4l3,-1.3c0.4,-0.2,0.7,-0.5,0.7,-0.8" class="g15_10" />
<path d="M211.4,229.5l-6.8,-2.3" class="g15_10" />
<path d="M204.3,227c0,0,0.1,0.1,0.3,0.2" class="g15_10" />
<path d="M212.7,229.4c0,0,-0.4,0.2,-1.3,0.1" class="g15_10" />
<path d="M205,228l0,11.2c0,0.1,0.1,0.2,0.1,0.2" class="g15_10" />
<path d="M204.5,227.3l0,0.3" class="g15_10" />
<path d="M211.6,229.7l0,0.2" class="g15_10" />
<path d="M212.2,229.6l0,0.3" class="g15_10" />
<path d="M202.2,248.6l0,1.3" class="g15_10" />
<path d="M201.4,248.3l0.1,1.3" class="g15_10" />
<path d="M201.8,248.4l0,1.3" class="g15_10" />
<path d="M202.6,248.7l0,1.3" class="g15_10" />
<path d="M203,248.8l0,1.3" class="g15_10" />
<path d="M203.4,248.8l0,1.3" class="g15_10" />
<path d="M206.5,248.5l0,1" class="g15_10" />
<path d="M205.3,248.6l0,1.3" class="g15_10" />
<path d="M206.1,248.3l0,1.3" class="g15_10" />
<path d="M205.7,248.4l0,1.3" class="g15_10" />
<path d="M204.9,248.7l0,1.3" class="g15_10" />
<path d="M204.5,248.8l0,1.3" class="g15_10" />
<path d="M204.2,248.8l-0.1,1.3" class="g15_10" />
<path d="M207.1,228.7c0.6,0.6,1.7,0.6,2.2,0.7" class="g15_10" />
<path d="M205.5,226.5l0,-2" class="g15_10" />
<path d="M208.7,229.3l0,1.4" class="g15_10" />
<path d="M209.8,232.3l6.7,2.2" class="g15_10" />
<path d="M209.3,232.5l6.5,2.1c0.4,0.1,0.5,0,0.7,-0.1" class="g15_10" />
<path d="M209.3,232.5c-0.6,-0.3,-1,-1.2,-1,-1.6c0,-0.4,0,-1.7,0,-1.7" class="g15_10" />
<path d="M208.7,230.7c0,0.4,0.4,1.3,1.1,1.6" class="g15_10" />
<path d="M201.9,240.7l1.2,-0.5m1.4,-0.6l0.5,-0.2" class="g15_10" />
<path d="M217.1,245.7l3.6,-1.5" class="g15_10" />
<path d="M217.1,246.3l3.5,-1.4" class="g15_10" />
<path d="M201.7,241l0,0.7" class="g15_10" />
<path d="M202,242l13.3,4.3" class="g15_10" />
<path d="M202,241.4l13.3,4.3" class="g15_10" />
<path d="M201.9,240.7c0,0,-0.2,0.1,-0.2,0.3" class="g15_10" />
<path d="M201.7,241.7c0,0.1,0.1,0.2,0.3,0.3" class="g15_10" />
<path d="M201.7,241c0,0.1,0,0.2,0.3,0.4" class="g15_10" />
<path d="M215.3,245.7c0.5,0.2,1.5,0.2,1.8,0" class="g15_10" />
<path d="M207.2,240.2l-0.5,0.2" class="g15_10" />
<path d="M205.1,239.4l2.1,0.8" class="g15_10" />
<path d="M207.5,240.7l-0.1,-0.3c0,0,0,-0.2,-0.2,-0.2" class="g15_10" />
<path d="M220.6,244.2c-0.1,0,0.1,-0.1,-0.3,0.1" class="g15_10" />
<path d="M221.1,242.5l-0.4,0.2l0.1,0.1l0,1.3c0,0,0,0.1,-0.1,0.1" class="g15_10" />
<path d="M220.9,242.8l0.2,-0.1" class="g15_10" />
<path d="M221.2,243.8l0,-1.1" class="g15_10" />
<path d="M220.7,242.4l0.4,0.1" class="g15_10" />
<path d="M221.1,242.5c0,0,0.1,0.1,0.1,0.2" class="g15_10" />
<path d="M221.2,243.8c0,0,0,0.8,-0.6,1.1" class="g15_10" />
<path d="M206.7,240.5l3.2,1l0.2,-0.1l0.2,0l3.9,1.3c0.2,0.1,0.4,0.2,0.4,0.4" class="g15_10" />
<path d="M217.9,243.6l-0.5,0.3c-0.1,0,-0.2,0.1,-0.7,-0.2" class="g15_10" />
<path d="M217.9,243.6l2.1,0.7c0.1,0,0.2,0.1,0.3,0" class="g15_10" />
<path d="M216,246.1l0,0.3" class="g15_10" />
<path d="M216.8,246l0,0.3" class="g15_10" />
<path d="M201.8,241.3l0,0.4" class="g15_10" />
<path d="M219.9,245.2l0.3,0.1" class="g15_10" />
<path d="M220.3,245l0.3,0.1" class="g15_10" />
<path d="M220.3,245.5l0,1.1" class="g15_10" />
<path d="M220.7,245.3l0,1.1" class="g15_10" />
<path d="M217.1,246.3l2.5,0.8" class="g15_10" />
<path d="M210.6,245.3l3.9,1.3" class="g15_10" />
<path d="M220.7,246.4c0,0,-0.1,0.4,-0.3,0.5c-0.2,0.1,-0.4,0.2,-0.4,0.2" class="g15_10" />
<path d="M219.6,247.1c0,0,0.3,0.1,0.5,0" class="g15_10" />
<path d="M220.3,246.6c0,0,0,0.2,-0.2,0.5" class="g15_10" />
<path d="M220.2,245.3c0,0,0.1,0,0.1,0.2" class="g15_10" />
<path d="M220.6,245.1c0,0,0.1,0,0.1,0.2" class="g15_10" />
<path d="M220.4,245.4l0.2,-0.1" class="g15_10" />
<path d="M220.3,245.2l0.2,-0.1" class="g15_10" />
<path d="M220.4,246.6l0.2,-0.1" class="g15_10" />
<path d="M208.6,231.7l0.3,-0.1" class="g15_10" />
<path d="M208.7,231.9l0.3,-0.2" class="g15_10" />
<path d="M210.2,244.7c0,0,-0.1,0.5,0.4,0.6" class="g15_10" />
<path d="M214.5,246.6c0.2,0.1,0.3,0,0.5,-0.1c0.2,-0.1,0.3,-0.1,0.3,-0.1" class="g15_10" />
<path d="M214.5,246.6c-0.2,-0.1,-0.3,-0.3,-0.3,-0.6" class="g15_10" />
<path d="M215.3,246.3c0.5,0.2,1.5,0.2,1.8,0" class="g15_10" />
<path d="M215.3,243.3L214,242.8" class="g15_10" />
<path d="M214,242.8c0.1,0,0.3,-0.1,0.4,0" class="g15_10" />
<path d="M205.6,247c0,-0.2,-0.5,-0.5,-1.2,-0.6" class="g15_10" />
<path d="M203.5,242.5l0,5" class="g15_10" />
<path d="M204.4,246.4c0,0.1,-0.3,0.2,-0.6,0.2c-0.4,0,-0.7,-0.1,-0.7,-0.2" class="g15_10" />
<path d="M204.4,246c0,0.2,-0.3,0.3,-0.6,0.3c-0.4,0,-0.7,-0.1,-0.7,-0.3" class="g15_10" />
<path d="M204.4,245.6c0,0.2,-0.3,0.3,-0.6,0.3c-0.4,0,-0.7,-0.1,-0.7,-0.2" class="g15_10" />
<path d="M204.4,245.3c0,0.1,-0.3,0.3,-0.6,0.3c-0.4,0,-0.7,-0.2,-0.7,-0.3" class="g15_10" />
<path d="M204.4,245c0,0.1,-0.3,0.2,-0.6,0.2c-0.4,0,-0.7,-0.1,-0.7,-0.2" class="g15_10" />
<path d="M204.4,244.6c0,0.2,-0.3,0.3,-0.6,0.3c-0.4,0,-0.7,-0.1,-0.7,-0.3" class="g15_10" />
<path d="M204.4,244.3c0,0.1,-0.3,0.2,-0.6,0.2c-0.4,0,-0.7,-0.1,-0.7,-0.2" class="g15_10" />
<path d="M204.4,243.9c0,0.2,-0.3,0.3,-0.6,0.3c-0.4,0,-0.7,-0.1,-0.7,-0.3" class="g15_10" />
<path d="M204.4,243.6c0,0.1,-0.3,0.2,-0.6,0.2c-0.4,0,-0.7,-0.1,-0.7,-0.2" class="g15_10" />
<path d="M204.4,243.2c0,0.2,-0.3,0.3,-0.6,0.3c-0.4,0,-0.7,-0.1,-0.7,-0.3" class="g15_10" />
<path d="M204.4,242.9c0,0.1,-0.3,0.2,-0.6,0.2c-0.4,0,-0.7,-0.1,-0.7,-0.2" class="g15_10" />
<path d="M204.2,242.7c-0.1,0.1,-0.3,0.1,-0.4,0.1c-0.4,0,-0.7,-0.1,-0.7,-0.3" class="g15_10" />
<path d="M204.4,241.1c0,0.1,-0.3,0.2,-0.6,0.2c-0.4,0,-0.7,-0.1,-0.7,-0.2" class="g15_10" />
<path d="M204.4,237.1c0,0.2,-0.3,0.3,-0.6,0.3c-0.4,0,-0.7,-0.1,-0.7,-0.3" class="g15_10" />
<path d="M204.4,237.5c0,0.1,-0.3,0.2,-0.6,0.2c-0.4,0,-0.7,-0.1,-0.7,-0.2" class="g15_10" />
<path d="M204.4,237.8c0,0.2,-0.3,0.3,-0.6,0.3c-0.4,0,-0.7,-0.1,-0.7,-0.3" class="g15_10" />
<path d="M204.4,238.2c0,0.1,-0.3,0.2,-0.6,0.2c-0.4,0,-0.7,-0.1,-0.7,-0.2" class="g15_10" />
<path d="M204.4,238.5c0,0.2,-0.3,0.3,-0.6,0.3c-0.4,0,-0.7,-0.1,-0.7,-0.3" class="g15_10" />
<path d="M204.4,238.9c0,0.1,-0.3,0.3,-0.6,0.3c-0.4,0,-0.7,-0.2,-0.7,-0.3" class="g15_10" />
<path d="M204.4,239.3c0,0.1,-0.3,0.2,-0.6,0.2c-0.4,0,-0.7,-0.1,-0.7,-0.2" class="g15_10" />
<path d="M204.4,239.6c0,0.2,-0.3,0.3,-0.6,0.3c-0.4,0,-0.7,-0.1,-0.7,-0.3" class="g15_10" />
<path d="M204.4,240c0,0.1,-0.3,0.2,-0.6,0.2c-0.4,0,-0.7,-0.1,-0.7,-0.2" class="g15_10" />
<path d="M204.4,240.3c0,0.2,-0.3,0.3,-0.6,0.3c-0.4,0,-0.7,-0.1,-0.7,-0.3" class="g15_10" />
<path d="M204.4,240c0,0.1,-0.3,0.2,-0.6,0.2c-0.4,0,-0.7,-0.1,-0.7,-0.2" class="g15_10" />
<path d="M204.4,240.3c0,0.2,-0.3,0.3,-0.6,0.3c-0.4,0,-0.7,-0.1,-0.7,-0.3" class="g15_10" />
<path d="M204.4,240.7c0,0.1,-0.3,0.2,-0.6,0.2c-0.4,0,-0.7,-0.1,-0.7,-0.2" class="g15_10" />
<path d="M204.4,241c0,0.2,-0.3,0.3,-0.6,0.3c-0.4,0,-0.7,-0.1,-0.7,-0.3" class="g15_10" />
<path d="M216.5,234.5c0.4,-0.3,0.4,-0.6,0.4,-1l0,-6.1" class="g15_10" />
<path d="M215.3,245.1l0,-8" class="g15_10" />
<path d="M216.5,246.5l0,5" class="g15_10" />
<path d="M216.7,237.1l0,8" class="g15_10" />
<path d="M215.3,237.1c0,-0.1,0.3,-0.3,0.7,-0.3c0.4,0,0.7,0.2,0.7,0.3" class="g15_10" />
<path d="M216.6,251c0,0.2,-0.3,0.3,-0.6,0.3c-0.4,0,-0.7,-0.1,-0.7,-0.2" class="g15_10" />
<path d="M216.7,237.2c0,0.1,-0.3,0.2,-0.7,0.2c-0.4,0,-0.7,-0.1,-0.7,-0.2" class="g15_10" />
<path d="M216.7,237.5c0,0.1,-0.3,0.3,-0.7,0.3c-0.4,0,-0.7,-0.2,-0.7,-0.3" class="g15_10" />
<path d="M216.6,237.9c0,0.1,-0.2,0.2,-0.6,0.2c-0.4,0,-0.7,-0.1,-0.7,-0.2" class="g15_10" />
<path d="M216.7,238.2c0,0.2,-0.3,0.3,-0.7,0.3c-0.4,0,-0.7,-0.1,-0.7,-0.3" class="g15_10" />
<path d="M216.7,238.6c0,0.1,-0.3,0.2,-0.7,0.2c-0.4,0,-0.7,-0.1,-0.7,-0.2" class="g15_10" />
<path d="M216.7,238.9c0,0.2,-0.3,0.3,-0.7,0.3c-0.4,0,-0.7,-0.1,-0.7,-0.3" class="g15_10" />
<path d="M216.7,239.3c0,0.1,-0.3,0.2,-0.7,0.2c-0.4,0,-0.7,-0.1,-0.7,-0.2" class="g15_10" />
<path d="M216.7,239.7c0,0.1,-0.3,0.2,-0.7,0.2c-0.4,0,-0.7,-0.1,-0.7,-0.2" class="g15_10" />
<path d="M216.6,240c0,0.2,-0.2,0.3,-0.6,0.3c-0.4,0,-0.7,-0.1,-0.7,-0.3" class="g15_10" />
<path d="M216.7,240.4c0,0.1,-0.3,0.2,-0.7,0.2c-0.4,0,-0.7,-0.1,-0.7,-0.2" class="g15_10" />
<path d="M216.7,240c0,0.1,-0.3,0.3,-0.7,0.3c-0.4,0,-0.7,-0.2,-0.7,-0.3" class="g15_10" />
<path d="M216.7,240.4c0,0.1,-0.3,0.2,-0.7,0.2c-0.4,0,-0.7,-0.1,-0.7,-0.2" class="g15_10" />
<path d="M216.7,240.7c0,0.2,-0.3,0.3,-0.7,0.3c-0.4,0,-0.7,-0.1,-0.7,-0.3" class="g15_10" />
<path d="M216.6,250.7c0,0.1,-0.3,0.2,-0.6,0.2c-0.4,0,-0.7,-0.1,-0.7,-0.2" class="g15_10" />
<path d="M217.8,251c0,0.4,-0.8,0.7,-1.8,0.7c-1,0,-1.8,-0.3,-1.8,-0.7" class="g15_10" />
<path d="M214.2,251c0,-0.3,0.5,-0.5,1.1,-0.6" class="g15_10" />
<path d="M217.8,251.1c0.4,0.2,0.7,0.4,0.7,0.7c0,0.5,-1.1,1,-2.5,1c-1.4,0,-2.5,-0.5,-2.5,-1c0,-0.3,0.3,-0.5,0.7,-0.7" class="g15_10" />
<path d="M218.7,253.1c0,0.5,-1.2,1,-2.7,1c-1.5,0,-2.7,-0.5,-2.7,-1" class="g15_10" />
<path d="M217.8,251.8c0,0.4,-0.8,0.7,-1.8,0.7c-1,0,-1.8,-0.3,-1.8,-0.7" class="g15_10" />
<path d="M214.2,251l0,0.8" class="g15_10" />
<path d="M217.8,251l0,0.8" class="g15_10" />
<path d="M213.3,253.1l0,-1.3" class="g15_10" />
<path d="M213.3,251.8c0.1,-0.3,0.3,-0.6,0.9,-0.7" class="g15_10" />
<path d="M218.7,251.7l0,1.4" class="g15_10" />
<path d="M217.8,251.1c0,0,0.7,0.1,0.9,0.6" class="g15_10" />
<path d="M213.5,252.5l0,1" class="g15_10" />
<path d="M218.7,251.8c0,0.5,-1.4,1,-2.8,1c-1.4,0,-2.6,-0.5,-2.6,-1" class="g15_10" />
<path d="M216,252.8l0,1.3" class="g15_10" />
<path d="M218.5,252.1l0,1.3" class="g15_10" />
<path d="M218.6,252.1l0,1.2" class="g15_10" />
<path d="M214.4,252.6l0.1,1.2" class="g15_10" />
<path d="M213.7,252.3l0,1.3" class="g15_10" />
<path d="M214,252.4l0,1.3" class="g15_10" />
<path d="M214.8,252.7l0.1,1.2" class="g15_10" />
<path d="M215.2,252.8l0,1.2" class="g15_10" />
<path d="M215.6,252.8l0,1.3" class="g15_10" />
<path d="M218.5,252.5l0,1" class="g15_10" />
<path d="M217.5,252.6l0,1.2" class="g15_10" />
<path d="M218.3,252.3l0,1.3" class="g15_10" />
<path d="M217.9,252.4l0,1.3" class="g15_10" />
<path d="M217.1,252.7l0,1.2" class="g15_10" />
<path d="M216.7,252.8l0,1.2" class="g15_10" />
<path d="M216.4,252.8l0,1.3" class="g15_10" />
<path d="M217.8,251c0,-0.3,-0.5,-0.5,-1.2,-0.6" class="g15_10" />
<path d="M215.5,246.5l0,5" class="g15_10" />
<path d="M216.6,250.3c0,0.2,-0.3,0.3,-0.6,0.3c-0.4,0,-0.7,-0.1,-0.7,-0.2" class="g15_10" />
<path d="M216.6,250c0,0.1,-0.3,0.2,-0.6,0.2c-0.4,0,-0.7,-0.1,-0.7,-0.2" class="g15_10" />
<path d="M216.6,249.6c0,0.2,-0.3,0.3,-0.6,0.3c-0.4,0,-0.7,-0.1,-0.7,-0.3" class="g15_10" />
<path d="M216.6,249.3c0,0.1,-0.3,0.2,-0.6,0.2c-0.4,0,-0.7,-0.1,-0.7,-0.2" class="g15_10" />
<path d="M216.6,248.9c0,0.2,-0.3,0.3,-0.6,0.3c-0.4,0,-0.7,-0.1,-0.7,-0.2" class="g15_10" />
<path d="M216.6,248.6c0,0.1,-0.3,0.2,-0.6,0.2c-0.4,0,-0.7,-0.1,-0.7,-0.2" class="g15_10" />
<path d="M216.6,248.2c0,0.2,-0.3,0.3,-0.6,0.3c-0.4,0,-0.7,-0.1,-0.7,-0.2" class="g15_10" />
<path d="M216.6,247.9c0,0.1,-0.3,0.2,-0.6,0.2c-0.4,0,-0.7,-0.1,-0.7,-0.2" class="g15_10" />
<path d="M216.6,247.5c0,0.2,-0.3,0.3,-0.6,0.3c-0.4,0,-0.7,-0.1,-0.7,-0.2" class="g15_10" />
<path d="M216.6,247.2c0,0.1,-0.3,0.2,-0.6,0.2c-0.4,0,-0.7,-0.1,-0.7,-0.2" class="g15_10" />
<path d="M216.6,246.8c0,0.2,-0.3,0.3,-0.6,0.3c-0.4,0,-0.7,-0.1,-0.7,-0.2" class="g15_10" />
<path d="M216.6,245.1c0,0.1,-0.3,0.2,-0.6,0.2c-0.4,0,-0.7,-0.1,-0.7,-0.2" class="g15_10" />
<path d="M216.7,241.1c0,0.1,-0.3,0.3,-0.7,0.3c-0.4,0,-0.7,-0.2,-0.7,-0.3" class="g15_10" />
<path d="M216.7,241.5c0,0.1,-0.3,0.2,-0.7,0.2c-0.4,0,-0.7,-0.1,-0.7,-0.2" class="g15_10" />
<path d="M216.6,241.8c0,0.1,-0.2,0.3,-0.6,0.3c-0.4,0,-0.7,-0.2,-0.7,-0.3" class="g15_10" />
<path d="M216.7,242.2c0,0.1,-0.3,0.2,-0.7,0.2c-0.4,0,-0.7,-0.1,-0.7,-0.2" class="g15_10" />
<path d="M216.7,242.5c0,0.2,-0.3,0.3,-0.7,0.3c-0.4,0,-0.7,-0.1,-0.7,-0.3" class="g15_10" />
<path d="M216.7,242.9c0,0.1,-0.3,0.2,-0.7,0.2c-0.4,0,-0.7,-0.1,-0.7,-0.2" class="g15_10" />
<path d="M216.7,243.2c0,0.2,-0.3,0.3,-0.7,0.3c-0.4,0,-0.7,-0.1,-0.7,-0.3" class="g15_10" />
<path d="M216.7,243.6c0,0.1,-0.3,0.3,-0.7,0.3c-0.4,0,-0.7,-0.2,-0.7,-0.3" class="g15_10" />
<path d="M216.6,244c0,0.1,-0.2,0.2,-0.6,0.2c-0.4,0,-0.7,-0.1,-0.7,-0.2" class="g15_10" />
<path d="M216.7,244.3c0,0.1,-0.3,0.3,-0.7,0.3c-0.4,0,-0.7,-0.2,-0.7,-0.3" class="g15_10" />
<path d="M216.7,244c0,0.1,-0.3,0.2,-0.7,0.2c-0.4,0,-0.7,-0.1,-0.7,-0.2" class="g15_10" />
<path d="M216.7,244.3c0,0.1,-0.3,0.3,-0.7,0.3c-0.4,0,-0.7,-0.2,-0.7,-0.3" class="g15_10" />
<path d="M216.7,244.7c0,0.1,-0.3,0.2,-0.7,0.2c-0.4,0,-0.7,-0.1,-0.7,-0.2" class="g15_10" />
<path d="M216.7,245c0,0.1,-0.3,0.2,-0.7,0.2c-0.4,0,-0.7,-0.1,-0.7,-0.2" class="g15_10" />
<path d="M216.6,246.5c0,0.1,-0.3,0.2,-0.6,0.2c-0.4,0,-0.7,0,-0.7,-0.2" class="g15_10" />
<path d="M220.6,244.2c0,-0.1,0.1,-0.2,0.1,-0.3l0,-17.9" class="g15_10" />
<path d="M216.7,227.3c0.4,0.1,1,0,1.4,-0.2c0.4,-0.1,4.8,-2,4.8,-2c0,0,0.4,-0.2,0.4,-0.5" class="g15_10" />
<path d="M220.1,244.3c0.1,0,0.2,-0.1,0.2,-0.2l0,-17.9" class="g15_10" />
<path d="M240,246.7c0.6,-0.2,1.1,0.3,1.3,1.1c0.2,0.5,0.1,1.1,-0.2,1.4" class="g15_10" />
<path d="M240,246.7l-2.9,0.6" class="g15_10" />
<path d="M233.3,248.8l3,-1.3" class="g15_10" />
<path d="M232,249.2l3.4,-1.5c0,0,0.4,-0.1,0.9,-0.2c0.4,-0.1,0.8,-0.2,0.8,-0.2" class="g15_10" />
<path d="M234.9,249.3l3,-1.3c0,0,0.2,-0.1,0.2,-0.3" class="g15_10" />
<path d="M238.1,247.7l0.3,-0.3c0,0,0,-0.1,0,-0.2" class="g15_10" />
<path d="M238.2,247.2c0,0,-0.1,-0.1,-0.4,0" class="g15_10" />
<path d="M238.1,247.7c0,0,0.5,0.3,1.6,0.5" class="g15_10" />
<path d="M236.2,250.5l3.2,-1.4c0,0,0.4,-0.2,0.4,-0.4" class="g15_10" />
<path d="M239.8,248.4c0,0.1,0,0.2,0,0.3" class="g15_10" />
<path d="M239.7,248.2c0,0,0.1,0,0.1,0.2" class="g15_10" />
<path d="M239.8,248.7l0,2" class="g15_10" />
<path d="M241.1,249.2l-1.3,0.8" class="g15_10" />
<path d="M236.2,252.6l3.2,-1.4" class="g15_10" />
<path d="M239.8,250.7c0,0,0,0.2,-0.4,0.5" class="g15_10" />
<path d="M233.2,253.9l0.1,0.4l1.6,0.6l3,-1.3" class="g15_10" />
<path d="M237.9,253.6c0,0,0.3,0,1.4,-2.4" class="g15_10" />
<path d="M235.2,252.8l1,-0.2" class="g15_10" />
<path d="M234.9,254.9l0.3,-2.1" class="g15_10" />
<path d="M236.2,252.6l0,-2.1l-1.3,-1.2l-1.6,-0.5l-1.3,0.4" class="g15_10" />
<path d="M232,249.2l0,0.4" class="g15_10" />
<path d="M232.7,249.3l-2,0.9" class="g15_10" />
<path d="M233.2,250.8l-2.1,0.9" class="g15_10" />
<path d="M230.9,251.6l-0.2,-0.1c0,0,-0.5,-0.4,0,-1.3" class="g15_10" />
<path d="M231.1,251.7c-0.1,-0.1,-0.4,-0.6,0,-1.4" class="g15_10" />
<path d="M230.9,250.2l0.2,0.1l2.1,-0.9l-0.3,0l0.3,0l0,1.4" class="g15_10" />
<path d="M234.8,250l-2,0.9" class="g15_10" />
<path d="M235.2,251.5l-2,0.9" class="g15_10" />
<path d="M233,252.4l-0.2,-0.1c0,0,-0.5,-0.5,0,-1.4" class="g15_10" />
<path d="M233.2,252.4c-0.1,-0.1,-0.4,-0.6,0,-1.4" class="g15_10" />
<path d="M232.9,250.9l0.3,0.1l2,-0.9L235,250l0.2,0.1l0,1.4" class="g15_10" />
<path d="M232.1,251.3l0.4,0.4" class="g15_10" />
<path d="M233,252.3l0.1,0.4" class="g15_10" />
<path d="M231.1,253.6l2.8,-1.2" class="g15_10" />
<path d="M234.3,253.4l-2.7,1.2" class="g15_10" />
<path d="M231.6,254.6c-0.1,0,-0.1,0,-0.2,0c-0.3,0,-0.5,-0.2,-0.5,-0.5c0,-0.2,0.1,-0.4,0.2,-0.5" class="g15_10" />
<path d="M233.9,252.4c0,0,0.4,-0.1,0.5,0.4c0.2,0.4,-0.1,0.6,-0.1,0.6" class="g15_10" />
<path d="M231.2,253.8c0,0,0.5,0,0.3,0.6" class="g15_10" />
<path d="M233.5,251.8c-0.1,0,-0.2,-0.2,-0.1,-0.4c0,-0.2,0.1,-0.3,0.3,-0.3" class="g15_10" />
<path d="M233.7,251.1c0.1,0,0.2,0.2,0.1,0.4c0,0.2,-0.2,0.4,-0.3,0.4" class="g15_10" />
<path d="M233.5,251.2c0.1,0,0.1,0.1,0.1,0.2c-0.1,0.2,-0.1,0.3,-0.2,0.3" class="g15_10" />
<path d="M231.4,251.2c-0.1,-0.1,-0.2,-0.2,-0.1,-0.4c0,-0.2,0.2,-0.4,0.3,-0.3" class="g15_10" />
<path d="M231.6,250.4c0.1,0.1,0.2,0.3,0.1,0.5c0,0.2,-0.2,0.3,-0.3,0.3" class="g15_10" />
<path d="M231.5,250.5c0,0.1,0,0.2,0,0.3c-0.1,0.1,-0.1,0.2,-0.2,0.2" class="g15_10" />
<path d="M189.6,320l8.8,-3.7" class="g15_10" />
<path d="M198.8,316.3l27.1,8.6" class="g15_10" />
<path d="M190,320.6l25.1,8.1" class="g15_10" />
<path d="M217,328.7l8.9,-3.7" class="g15_10" />
<path d="M215.1,328.7c0,0,0.9,0.3,1.9,0" class="g15_10" />
<path d="M189.5,320.6l25.8,8.2" class="g15_10" />
<path d="M217.2,328.8l8.8,-3.7" class="g15_10" />
<path d="M215.3,328.8c0,0,0.9,0.3,1.9,0" class="g15_10" />
<path d="M217.3,337.7l9,-3.8l0,-8.5" class="g15_10" />
<path d="M225.9,324.9c0,0,0.3,0.1,0.4,0.5" class="g15_10" />
<path d="M189.9,329.6l25.5,8.2" class="g15_10" />
<path d="M189.3,320.5l0,8.7" class="g15_10" />
<path d="M189.3,329.2c0,0,0.1,0.1,0.6,0.4" class="g15_10" />
<path d="M215.4,337.8c0,0,1.2,0.2,1.9,-0.1" class="g15_10" />
<path d="M192.2,325.2l0,1.5l0.6,0.2" class="g15_10" />
<path d="M192.2,325.2l0.7,0.2" class="g15_10" />
<path d="M192.2,325.2l0.2,0.2l0,1.1l-0.2,0.2" class="g15_10" />
<path d="M192.4,325.4l0.2,0l0,1.1l-0.2,0" class="g15_10" />
<path d="M192.4,326.5l0.5,0.2" class="g15_10" />
<path d="M192.6,326.5c0,0,0.4,0.2,0.5,0.1" class="g15_10" />
<path d="M192.6,326.5l0.7,-0.3" class="g15_10" />
<path d="M192.8,326.9c0,0,0.4,0.1,0.5,-0.4" class="g15_10" />
<path d="M192.9,326.7c0,0,0.2,0.1,0.4,-0.2" class="g15_10" />
<path d="M195.3,328.7l-1.4,-0.4l0.1,-0.8l0.2,0.1l0,0.5l1.2,0.4l0,-0.1l-1.1,-0.3l0.5,-0.3l-0.5,-0.2l0,0.5l-0.1,0l-0.2,0.2" class="g15_10" />
<path d="M194,327.5l1.4,0.4l0,0.8" class="g15_10" />
<path d="M195.4,326.1l-1.6,-0.5l0,-0.8l0.3,0.1l-0.1,0.5l0.2,-0.1l0.5,-0.2l-0.5,-0.2l0,0.4l1.3,0.5l0,0.1L194,325.4l-0.2,0.2" class="g15_10" />
<path d="M193.9,324.8l1.6,0.5l0,0.8" class="g15_10" />
<path d="M216.5,329.5l0,7" class="g15_10" />
<path d="M211.5,330.5l0,3" class="g15_10" />
<path d="M210.2,330.3l0.6,0.2" class="g15_10" />
<path d="M210.2,333.4l0.6,0.2" class="g15_10" />
<path d="M210.4,333.3l0.4,0.2" class="g15_10" />
<path d="M211.1,333.2c0,0,-0.3,0.2,-0.3,0.4" class="g15_10" />
<path d="M210.8,330.5c0,0,0,0.3,0.3,0.5" class="g15_10" />
<path d="M210.4,330.4c0,0,0,2.9,0,2.9l0.7,-0.3" class="g15_10" />
<path d="M210.2,330.3l0,3.1" class="g15_10" />
<path d="M211.1,333.2l0.3,-0.1" class="g15_10" />
<path d="M210.8,333.6l0.3,-0.1" class="g15_10" />
<path d="M211.1,333.5c0,0,0,-0.2,0.3,-0.4" class="g15_10" />
<path d="M211.4,333.1l0,-2.3" class="g15_10" />
<path d="M210.4,330l0.8,0.2" class="g15_10" />
<path d="M211.2,330.2c0,0,0,0.3,0.2,0.6" class="g15_10" />
<path d="M210.2,330.3l0.6,-0.2" class="g15_10" />
<path d="M210.4,330.3l0,-0.3" class="g15_10" />
<path d="M210.8,330.5l0.4,-0.2" class="g15_10" />
<path d="M211.1,331l0.3,-0.2" class="g15_10" />
<path d="M211.4,331.2l-0.1,0.1l0,0.1l0.1,0.2l-0.1,0.1l0.1,0" class="g15_10" />
<path d="M211.4,332.3l-0.1,0.1l0.1,0l0,0.3l-0.1,0l0,0.1l0.1,0" class="g15_10" />
<path d="M210.9,330.8l0,2.1l0.1,0" class="g15_10" />
<path d="M210.9,330.9l-0.4,0.2" class="g15_10" />
<path d="M210.9,331.3l-0.5,0.2" class="g15_10" />
<path d="M210.9,332l-0.4,0.1" class="g15_10" />
<path d="M210.9,332.4l-0.5,0.1" class="g15_10" />
<path d="M211.8,336c-0.1,0,-0.1,0,-0.1,0l-1.9,-0.6c-0.2,-0.1,-0.4,-0.4,-0.4,-0.5l0.1,-6.7c0,-0.3,0.1,-0.3,0.3,-0.3" class="g15_10" />
<path d="M211.8,336c0.1,0,0.2,-0.2,0.2,-0.3l0.1,-6.6c0,-0.2,-0.1,-0.5,-0.3,-0.5l-2,-0.7c-0.1,0,-0.2,0,-0.2,0" class="g15_10" />
<path d="M211.9,335.9c0,0.1,-0.1,0.1,-0.1,0.1l-2,-0.7c-0.1,0,-0.3,-0.3,-0.3,-0.5l0,-6.6c0,-0.2,0.1,-0.2,0.2,-0.3" class="g15_10" />
<path d="M189.3,320.3c0,0,0,0.3,0.2,0.3" class="g15_10" />
<path d="M189.3,320.5c0,0,0,-0.4,0.3,-0.5" class="g15_10" />
<path d="M190,319.9l8.7,-3.6" class="g15_10" />
<path d="M190,319.9c0,0,-0.7,0.3,0,0.7" class="g15_10" />
<path d="M198.4,316.3c0,0,0.2,-0.1,0.4,0" class="g15_10" />
<path d="M215.5,329.5l0,7" class="g15_10" />
<path d="M234.6,333.6c3.1,-1.2,7.3,-1.7,11.9,-1.7c10.2,0.1,17.9,3,17.6,7.5" class="g15_10" />
<path d="M264,340.1c-0.9,3.8,-8.4,6.7,-17.5,6.7c-6.5,0,-12.1,-1.5,-15.1,-3.7c-0.9,-0.7,-1.3,-1.5,-1.4,-2.3" class="g15_10" />
<path d="M264.1,339.4c0,0.2,0,0.5,-0.1,0.7" class="g15_10" />
<path d="M264,341.8c-0.9,3.8,-8.4,6.7,-17.5,6.7c-6.5,0,-12.1,-1.5,-15.1,-3.7c-0.9,-0.7,-1.3,-1.4,-1.5,-2.3" class="g15_10" />
<path d="M264,343.5c-0.9,3.8,-8.5,6.7,-17.6,6.7c-6.5,0,-12.1,-1.5,-15.1,-3.7c-0.9,-0.7,-1.2,-1.4,-1.3,-2.2" class="g15_10" />
<path d="M264.1,345.3c-1,3.7,-8.5,6.6,-17.6,6.6c-6.5,0,-12,-1.5,-15,-3.7c-1.6,-1.1,-1.8,-2.6,-1.5,-3.8" class="g15_10" />
<path d="M231.9,340.1c0,-2.4,6.7,-4.7,14.7,-4.6c7.9,0.2,14.7,2.7,15.2,4.7" class="g15_10" />
<path d="M262.1,339.4c0,2.4,-7.4,5.2,-15.5,5.2c-8.2,0,-14.7,-2.1,-14.7,-4.5" class="g15_10" />
<path d="M232.1,340.9c1.5,-2.1,7.5,-3.7,14.4,-3.6c6.7,0.1,12.6,1.9,14.6,3.7" class="g15_10" />
<path d="M233.1,341.9c2.3,-1.7,7.6,-3,13.6,-2.9c5.5,0.1,10.5,1.3,13.2,2.8" class="g15_10" />
<path d="M234.6,342.7c2.7,-1.3,7.2,-2.1,12.1,-2c4.4,0.1,8.5,0.9,11.3,1.9" class="g15_10" />
<path d="M235.3,335.5c2.7,-1,6.8,-1.7,11.3,-1.6c7.9,0.1,14.8,2.6,15.3,4.6" class="g15_10" />
<path d="M261.9,338.5c0,0,0.2,0.3,0.2,0.9" class="g15_10" />
<path d="M235.3,335.5l-3.6,1.4" class="g15_10" />
<path d="M231.7,336.9c0,0,-2.3,1.3,-1.7,3.9" class="g15_10" />
<path d="M230,340.9c0,0,-0.3,0.6,-0.1,1.6" class="g15_10" />
<path d="M230,342.7c0,0,-0.3,0.5,-0.1,1.6" class="g15_10" />
<path d="M264,340.1c0,0,0.3,0.4,0,1.8" class="g15_10" />
<path d="M264,341.8c0,0,0.3,0.4,0,1.7" class="g15_10" />
<path d="M264,343.6c0,0,0.3,0.4,0.1,1.7" class="g15_10" />
<g clip-path="url(#c0_10)">
<path d="M264.1,345.3c0,0,1,2.8,-3,5.2" class="g15_10" />
</g>
<path d="M261.1,350.5l-1.3,0.6l-18.2,8" class="g15_10" />
<path d="M255.2,351l-14.3,6.2" class="g15_10" />
<path d="M239.9,357.1c0.6,-0.2,1.3,0.4,1.5,1.3c0.2,0.6,0,1.3,-0.3,1.6" class="g15_10" />
<path d="M239.9,357.1l-3.4,0.7" class="g15_10" />
<path d="M232,359.6l3.4,-1.6" class="g15_10" />
<path d="M230.5,360l3.9,-1.7c0,0,0.5,-0.1,1,-0.3c0.6,-0.1,1.1,-0.2,1.1,-0.2" class="g15_10" />
<path d="M233.8,360.2l3.5,-1.5c0,0,0.3,-0.2,0.3,-0.4" class="g15_10" />
<path d="M237.6,358.3l0.4,-0.4c0,0,0,-0.1,0,-0.2" class="g15_10" />
<path d="M237.8,357.7c0,0,-0.2,-0.1,-0.5,0" class="g15_10" />
<path d="M237.6,358.3c0,0,0.5,0.3,1.8,0.6" class="g15_10" />
<path d="M235.3,361.6l3.9,-1.7c0,0,0.4,-0.2,0.4,-0.4" class="g15_10" />
<path d="M239.6,359.1c0,0.1,0,0.2,0,0.4" class="g15_10" />
<path d="M239.4,358.9c0,0,0.2,0,0.2,0.2" class="g15_10" />
<path d="M239.6,359.5l0,2.3" class="g15_10" />
<path d="M241.1,360l-1.5,1" class="g15_10" />
<path d="M235.3,364l3.8,-1.6" class="g15_10" />
<path d="M239.6,361.8c0,0,0.1,0.2,-0.5,0.6" class="g15_10" />
<path d="M231.9,365.5l0.1,0.6l1.9,0.6l3.4,-1.5" class="g15_10" />
<path d="M237.3,365.2c0,0,0.4,0,1.7,-2.8" class="g15_10" />
<path d="M234.2,364.2l1.1,-0.2" class="g15_10" />
<path d="M233.9,366.7l0.3,-2.5" class="g15_10" />
<path d="M235.3,364l0,-2.4l-1.5,-1.4L232,359.6l-1.5,0.4" class="g15_10" />
<path d="M230.5,360l0,0.5" class="g15_10" />
<path d="M231.2,360.1l-2.4,1.1" class="g15_10" />
<path d="M231.8,361.9l-2.4,1" class="g15_10" />
<path d="M229.1,362.9l-0.3,-0.1c0,0,-0.5,-0.6,0,-1.6" class="g15_10" />
<path d="M229.4,362.9c-0.1,-0.1,-0.5,-0.6,0,-1.6" class="g15_10" />
<path d="M229.1,361.2l0.3,0.1l2.4,-1l-0.3,-0.1l0.3,0.1l0,1.6" class="g15_10" />
<path d="M233.7,361l-2.4,1.1" class="g15_10" />
<path d="M234.2,362.7l-2.4,1.1" class="g15_10" />
<path d="M231.6,363.8l-0.3,-0.1c0,0,-0.6,-0.6,0,-1.6" class="g15_10" />
<path d="M231.8,363.8c-0.1,-0.2,-0.5,-0.7,0,-1.6" class="g15_10" />
<path d="M231.5,362.1l0.3,0.1l2.4,-1.1L233.9,361l0.3,0.1l0,1.6" class="g15_10" />
<path d="M230.5,362.5l0.6,0.5" class="g15_10" />
<path d="M231.6,363.7l0.1,0.5" class="g15_10" />
<path d="M229.4,365.3l3.3,-1.5" class="g15_10" />
<path d="M233.2,364.9l-3.3,1.5" class="g15_10" />
<path d="M229.9,366.4c-0.1,0,-0.1,0,-0.2,0c-0.3,0,-0.6,-0.3,-0.6,-0.6c0,-0.2,0.1,-0.4,0.3,-0.5" class="g15_10" />
<path d="M232.7,363.8c0,0,0.4,-0.1,0.6,0.4c0.2,0.6,-0.1,0.7,-0.1,0.7" class="g15_10" />
<path d="M229.5,365.4c0,0,0.5,0.1,0.4,0.7" class="g15_10" />
<path d="M232.2,363.1c-0.1,0,-0.2,-0.2,-0.2,-0.4c0.1,-0.3,0.2,-0.4,0.4,-0.4" class="g15_10" />
<path d="M232.4,362.3c0.1,0,0.2,0.3,0.2,0.5c-0.1,0.2,-0.3,0.4,-0.4,0.4" class="g15_10" />
<path d="M232.2,362.3c0.1,0.1,0.1,0.2,0.1,0.4c-0.1,0.1,-0.2,0.2,-0.2,0.3" class="g15_10" />
<path d="M229.8,362.4c-0.2,-0.1,-0.3,-0.3,-0.2,-0.5c0,-0.2,0.2,-0.4,0.3,-0.4" class="g15_10" />
<path d="M230,361.5c0.1,0,0.2,0.3,0.1,0.5c0,0.2,-0.2,0.4,-0.4,0.4" class="g15_10" />
<path d="M229.8,361.6c0,0,0,0.2,0,0.3c0,0.1,-0.1,0.2,-0.2,0.3" class="g15_10" />
<path d="M193.3,326.5c0.1,-0.8,-0.4,-1,-0.4,-1l-0.7,-0.3" class="g15_10" />
<path d="M193,326.9c0.2,0,0.3,-0.2,0.3,-0.4" class="g15_10" />
<path d="M197,326.8l0,1.5l0.6,0.2" class="g15_10" />
<path d="M197,326.8l0.7,0.2" class="g15_10" />
<path d="M197,326.8l0.2,0.2l0,1.1l-0.2,0.2" class="g15_10" />
<path d="M197.2,327l0.2,0l0,1.1l-0.2,0" class="g15_10" />
<path d="M197.2,328.1l0.6,0.2" class="g15_10" />
<path d="M197.4,328.1c0,0,0.5,0.2,0.5,0.1" class="g15_10" />
<path d="M197.4,328.1l0.7,-0.3" class="g15_10" />
<path d="M197.6,328.5c0,0,0.5,0.1,0.6,-0.4" class="g15_10" />
<path d="M197.8,328.3c0,0,0.2,0,0.3,-0.2" class="g15_10" />
<path d="M200.2,330.3l-1.4,-0.4l0,-0.9l0.2,0.2l0,0.5l1.2,0.4l0,-0.1l-1.1,-0.4l0.6,-0.2l-0.6,-0.2l0,0.4l-0.1,0.1l-0.2,0.2" class="g15_10" />
<path d="M198.8,329.1l1.4,0.4l0,0.8" class="g15_10" />
<path d="M200.3,327.7l-1.6,-0.5l0,-0.9l0.2,0.2l0,0.5l0.1,-0.1l0.6,-0.2L199,326.5l0,0.4l1.3,0.5l0,0.1L198.9,327l-0.2,0.2" class="g15_10" />
<path d="M198.7,326.4l1.6,0.5l0,0.8" class="g15_10" />
<path d="M198.1,328.1c0.1,-0.9,-0.4,-1.1,-0.4,-1.1L197,326.8" class="g15_10" />
<path d="M197.9,328.5c0.1,-0.1,0.2,-0.2,0.2,-0.4" class="g15_10" />
<path d="M205.5,329.5l0,2" class="g15_10" />
<path d="M204.9,328.6l0.5,0.2" class="g15_10" />
<path d="M204.9,331.7l0.5,0.1" class="g15_10" />
<path d="M205,331.6l0.5,0.1" class="g15_10" />
<path d="M205.7,331.5c0,0,-0.3,0.2,-0.3,0.3" class="g15_10" />
<path d="M205.4,328.8c0,0,0.1,0.3,0.3,0.5" class="g15_10" />
<path d="M205,328.7c0,0,0,2.9,0,2.9l0.7,-0.3" class="g15_10" />
<path d="M204.9,328.6l0,3.1" class="g15_10" />
<path d="M205.7,331.5l0.4,-0.1" class="g15_10" />
<path d="M205.4,331.8l0.4,0" class="g15_10" />
<path d="M205.8,331.8c0,0,-0.1,-0.2,0.3,-0.4" class="g15_10" />
<path d="M206.1,331.4l0,-2.3" class="g15_10" />
<path d="M205.1,328.3l0.7,0.2" class="g15_10" />
<path d="M205.8,328.5c0,0,0,0.3,0.3,0.6" class="g15_10" />
<path d="M204.9,328.6l0.5,-0.2" class="g15_10" />
<path d="M205.4,328.8l0.4,-0.2" class="g15_10" />
<path d="M205.7,329.3l0.4,-0.2" class="g15_10" />
<path d="M206,329.5l-0.1,0.1l0.1,0.1l0,0.2l-0.1,0l0,0.1l0.1,0" class="g15_10" />
<path d="M206,330.6l-0.1,0l0,0.1l0.1,0l0,0.3l-0.1,0l0,0.1l0.1,0" class="g15_10" />
<path d="M205.5,329.1l0,2.1l0.2,0" class="g15_10" />
<path d="M205.5,329.2l-0.4,0.1" class="g15_10" />
<path d="M205.5,329.6l-0.5,0.2" class="g15_10" />
<path d="M205.5,330.2l-0.4,0.2" class="g15_10" />
<path d="M205.5,330.6l-0.4,0.2" class="g15_10" />
<path d="M206.4,334.3c-0.1,0,-0.1,0,-0.1,0l-1.9,-0.6c-0.2,-0.1,-0.3,-0.4,-0.3,-0.5l0,-6.7c0,-0.3,0.1,-0.3,0.3,-0.3" class="g15_10" />
<path d="M206.4,334.3c0.1,0,0.3,-0.2,0.3,-0.3l0,-6.6c0,-0.2,-0.1,-0.5,-0.3,-0.6l-2,-0.6c-0.1,-0.1,-0.2,0,-0.2,0" class="g15_10" />
<path d="M206.5,334.2c0,0,-0.1,0,-0.1,0l-1.9,-0.6c-0.2,-0.1,-0.4,-0.3,-0.4,-0.5l0.1,-6.6c0,-0.2,0,-0.3,0.1,-0.3" class="g15_10" />
<path d="M226.1,334.2c1.5,0.6,3.9,1.3,8.5,-0.6" class="g15_10" />
<path d="M223.3,335.6c2.7,0.9,6.5,2,9.8,0.8" class="g15_10" />
<path d="M199.4,316.4c0,-0.4,0.2,-0.8,0.7,-1c0.5,-0.2,2.4,-1,2.4,-1c0,0,0.6,-0.1,1.1,0.1c0.4,0.1,1.2,0.3,1.2,0.3c0,0,0.3,0.1,0.3,0.3l0,0.6c0,0,0,0.2,-0.2,0.3c-0.3,0.1,-2,0.8,-2.2,0.9c-0.1,0.1,-0.3,0.2,-0.3,0.5" class="g15_10" />
<path d="M205.1,315.1c0,0,0,0.1,-0.2,0.2c-0.3,0.1,-2.2,0.9,-2.2,0.9c0,0,-0.7,0.3,-0.7,1.1" class="g15_10" />
<path d="M202.1,315.2c0,-0.2,0.3,-0.3,0.6,-0.3c0.3,0,0.5,0.1,0.5,0.3" class="g15_10" />
<path d="M203.2,315.2c0,0.2,-0.2,0.3,-0.5,0.3c-0.3,0,-0.6,-0.1,-0.6,-0.3" class="g15_10" />
<path d="M202.3,315.4c0.1,0,0.3,-0.1,0.4,-0.1c0.1,0,0.2,0.1,0.3,0.1" class="g15_10" />
<path d="M204.8,318.2c0.1,-0.4,0.3,-0.8,0.8,-1c0.5,-0.3,2.3,-1,2.3,-1c0,0,0.6,-0.1,1.1,0c0.5,0.2,19.8,6.3,19.8,6.3c0,0,0.3,0.1,0.3,0.3l0,0.6c0,0,0,0.1,-0.2,0.3c-0.3,0.1,-2,0.8,-2.2,0.9c-0.1,0,-0.5,0.4,-0.4,0.8" class="g15_10" />
<path d="M229.1,322.7c0,0,0,0.2,-0.2,0.3c-0.3,0.1,-2.2,0.9,-2.2,0.9c0,0,-0.7,0.3,-0.7,1.1" class="g15_10" />
<path d="M212.2,318.4c0,-0.2,0.3,-0.3,0.6,-0.3c0.3,0,0.5,0.1,0.5,0.3" class="g15_10" />
<path d="M213.3,318.4c0,0.1,-0.2,0.3,-0.5,0.3c-0.3,0,-0.6,-0.2,-0.6,-0.3" class="g15_10" />
<path d="M212.4,318.6c0.1,0,0.2,-0.1,0.4,-0.1c0.1,0,0.2,0.1,0.3,0.1" class="g15_10" />
<path d="M226.5,322.9c0,-0.2,0.2,-0.3,0.5,-0.3c0.3,0,0.6,0.1,0.6,0.3" class="g15_10" />
<path d="M227.6,322.9c0,0.1,-0.3,0.2,-0.6,0.2c-0.3,0,-0.5,-0.1,-0.5,-0.2" class="g15_10" />
<path d="M226.7,323.1c0.1,-0.1,0.2,-0.1,0.3,-0.1c0.2,0,0.3,0,0.4,0.1" class="g15_10" />
<path d="M224.7,323.2c0,0.1,0,0.1,-0.1,0.2c0,0,-0.5,0.2,-0.5,1" class="g15_10" />
<path d="M212,320.5c0,-0.4,0.2,-0.8,0.6,-0.9c0.3,-0.2,0.5,-0.2,0.9,-0.1c0.5,0.2,10.9,3.5,10.9,3.5c0,0,0.3,0.1,0.3,0.2" class="g15_10" />
<path d="M212.5,320.6c0,-0.3,0.1,-0.4,0.2,-0.5c0.1,0,0.4,-0.1,0.8,0.1c0.4,0.1,9.5,3,10.8,3.4" class="g15_10" />
<path d="M200,315.9l2,0.6" class="g15_10" />
<path d="M205.3,317.6l6.7,2.2" class="g15_10" />
<path d="M224.5,323.9l1.5,0.5" class="g15_10" />
<path d="M199.7,315.9l2.1,0.7" class="g15_10" />
<path d="M205.1,317.7l6.7,2.2" class="g15_10" />
<path d="M224.3,323.9l1.5,0.5" class="g15_10" />
<path d="M226.2,334c-0.1,0.3,-0.4,0.4,-0.6,0.5c-0.2,0.1,-7.1,3,-7.1,3c0,0,-0.7,0.3,-1.3,0.2" class="g15_10" />
<path d="M183.4,431.2l27.8,8.9" class="g15_10" />
<path d="M211.2,440.1c0,0,0.3,0.2,0.8,0.2" class="g15_10" />
<path d="M182.9,431.3l28.4,9" class="g15_10" />
<path d="M211.3,440.3c0,0,0.3,0.1,0.7,0.1" class="g15_10" />
<path d="M183.3,441.1l28.1,9.1" class="g15_10" />
<path d="M182.7,431.1l0,9.6" class="g15_10" />
<path d="M182.7,440.7c0,0,0,0.2,0.6,0.4" class="g15_10" />
<path d="M211.4,450.2c0,0,0.3,0,0.6,0.1" class="g15_10" />
<path d="M186,436.1l0,1.6l0.6,0.3" class="g15_10" />
<path d="M186,436.1l0.7,0.2" class="g15_10" />
<path d="M186,436.1l0.2,0.2l0,1.2l-0.2,0.2" class="g15_10" />
<path d="M186.2,436.3l0.2,0l0,1.2l-0.2,0" class="g15_10" />
<path d="M186.2,437.5l0.6,0.3" class="g15_10" />
<path d="M186.4,437.5c0,0,0.5,0.2,0.6,0.2" class="g15_10" />
<path d="M186.4,437.5l0.8,-0.4" class="g15_10" />
<path d="M186.6,438c0,0,0.5,0.1,0.6,-0.5" class="g15_10" />
<path d="M186.8,437.8c0,0,0.2,0,0.4,-0.3" class="g15_10" />
<path d="M189.4,440l-1.5,-0.5l0,-0.9l0.3,0.1l0,0.6l1.3,0.4l0,-0.1l-1.2,-0.4l0.6,-0.2l-0.6,-0.2l0,0.4l-0.1,0.1l-0.3,0.2" class="g15_10" />
<path d="M188,438.6l1.5,0.5l0,0.9" class="g15_10" />
<path d="M189.6,437.1l-1.8,-0.6l0,-0.9l0.2,0.2l0,0.5l0.2,-0.1l0.6,-0.2l-0.6,-0.2l0,0.4l1.4,0.5l0,0.1L188,436.3l-0.2,0.2" class="g15_10" />
<path d="M187.8,435.6l1.8,0.6l0,0.9" class="g15_10" />
<path d="M206.5,442.5l0,2" class="g15_10" />
<path d="M206,441.8l0.6,0.2" class="g15_10" />
<path d="M206,445.2l0.6,0.1" class="g15_10" />
<path d="M206.1,445.1l0.5,0.1" class="g15_10" />
<path d="M206.9,444.9c0,0,-0.3,0.2,-0.3,0.4" class="g15_10" />
<path d="M206.6,442c0,0,0.1,0.3,0.3,0.5" class="g15_10" />
<path d="M206.1,441.9c0,0,0,3.2,0,3.2l0.8,-0.4" class="g15_10" />
<path d="M206,441.8l0,3.4" class="g15_10" />
<path d="M206.9,444.9l0.4,0" class="g15_10" />
<path d="M206.6,445.3l0.4,0" class="g15_10" />
<path d="M207,445.3c0,0,0,-0.3,0.3,-0.4" class="g15_10" />
<path d="M207.3,444.9l0,-2.6" class="g15_10" />
<path d="M206.2,441.4l0.8,0.2" class="g15_10" />
<path d="M207,441.6c0,0,0,0.4,0.3,0.7" class="g15_10" />
<path d="M206,441.8l0.6,-0.3" class="g15_10" />
<path d="M206.2,441.7l0,-0.3" class="g15_10" />
<path d="M206.6,442l0.5,-0.3" class="g15_10" />
<path d="M206.9,442.5l0.4,-0.2" class="g15_10" />
<path d="M207.3,442.7l-0.2,0.1l0,0.1l0.1,0l0,0.3l-0.1,0l0,0.1l0.2,0" class="g15_10" />
<path d="M207.3,443.9l-0.2,0.1l0,0.1l0.1,0l0,0.3l-0.1,0l0,0.1l0.2,0" class="g15_10" />
<path d="M206.7,442.3l0,2.3l0.2,0" class="g15_10" />
<path d="M206.7,442.4l-0.5,0.2" class="g15_10" />
<path d="M206.7,442.9l-0.5,0.2" class="g15_10" />
<path d="M206.7,443.6l-0.5,0.2" class="g15_10" />
<path d="M206.7,444l-0.5,0.2" class="g15_10" />
<path d="M207.7,448c-0.1,0,-0.1,0,-0.1,0l-2.1,-0.6c-0.2,-0.1,-0.4,-0.5,-0.4,-0.6l0,-7.4c0,-0.3,0.2,-0.3,0.4,-0.3" class="g15_10" />
<path d="M207.7,448c0.1,0,0.3,-0.2,0.3,-0.3l0,-7.3c0,-0.2,-0.1,-0.5,-0.3,-0.6l-2.2,-0.7c-0.1,0,-0.2,0,-0.2,0" class="g15_10" />
<path d="M207.9,448c-0.1,0,-0.2,0,-0.2,0l-2.2,-0.7c-0.1,-0.1,-0.3,-0.4,-0.3,-0.6l0,-7.3c0,-0.2,0.1,-0.3,0.2,-0.3" class="g15_10" />
<path d="M182.7,430.9c0,0,0,0.3,0.2,0.4" class="g15_10" />
<path d="M182.7,431.1c0,0,0,-0.1,0,-0.1" class="g15_10" />
<path d="M183.1,430.9c0,0.1,0.1,0.2,0.3,0.3" class="g15_10" />
<path d="M192.7,426.4c0,0,0.2,-0.1,0.4,0" class="g15_10" />
<path d="M211.5,441.5l0,8" class="g15_10" />
<path d="M233.9,445.7c3.4,-1.2,7.9,-1.8,12.8,-1.8c11,0.1,19.4,3.3,19,8" class="g15_10" />
<path d="M265.6,452.8c-1,4,-9.1,7.2,-18.9,7.2c-7,0,-13,-1.6,-16.2,-4c-1,-0.8,-1.4,-1.6,-1.6,-2.5" class="g15_10" />
<path d="M265.7,451.9c0,0.3,0,0.6,-0.1,0.9" class="g15_10" />
<path d="M265.6,454.6c-1,4.1,-9,7.2,-18.9,7.2c-6.9,0,-12.9,-1.6,-16.2,-4c-1,-0.7,-1.4,-1.6,-1.6,-2.4" class="g15_10" />
<path d="M265.6,456.5c-1,4,-9.2,7.1,-19,7.1c-7,0,-12.9,-1.6,-16.2,-4c-0.9,-0.7,-1.3,-1.5,-1.5,-2.3" class="g15_10" />
<path d="M265.7,458.3c-1,4,-9.1,7.2,-18.9,7.2c-7,0,-13,-1.7,-16.2,-4c-1.8,-1.2,-2,-2.8,-1.6,-4.2" class="g15_10" />
<path d="M231,452.7c0,-2.6,7.3,-5,15.8,-4.9c8.6,0.2,15.9,2.9,16.5,5.1" class="g15_10" />
<path d="M263.6,451.9c0,2.6,-8,5.7,-16.8,5.7c-8.7,0,-15.8,-2.3,-15.8,-4.9" class="g15_10" />
<path d="M231.3,453.6c1.6,-2.2,8.1,-4,15.5,-3.9c7.2,0.1,13.5,2.1,15.6,4" class="g15_10" />
<path d="M232.3,454.6c2.5,-1.8,8.2,-3.2,14.7,-3c5.9,0.1,11.3,1.4,14.2,2.9" class="g15_10" />
<path d="M234,455.5c2.9,-1.3,7.7,-2.2,13,-2.1c4.7,0.1,9.1,1,12.2,2.1" class="g15_10" />
<path d="M234.6,447.8c3,-1.1,7.4,-1.9,12.3,-1.8c8.5,0.2,15.9,2.8,16.5,5" class="g15_10" />
<path d="M263.4,451c0,0,0.1,0.4,0.2,0.9" class="g15_10" />
<path d="M234.6,447.8l-3.8,1.5" class="g15_10" />
<path d="M230.8,449.3c0,0,-2.5,1.4,-1.9,4.2" class="g15_10" />
<path d="M229,453.6c0,0,-0.4,0.6,-0.1,1.8" class="g15_10" />
<path d="M229,455.6c0,0,-0.4,0.5,-0.1,1.7" class="g15_10" />
<path d="M265.6,452.8c0,0,0.3,0.4,0,1.8" class="g15_10" />
<path d="M265.6,454.6c0,0,0.3,0.5,0,1.9" class="g15_10" />
<path d="M265.6,456.5c0,0,0.3,0.5,0,1.9" class="g15_10" />
<path d="M265.6,458.4c0,0,1.1,3,-3.2,5.5" class="g15_10" />
<path d="M262.4,463.9l-1.3,0.7l-19.6,8.6" class="g15_10" />
<path d="M256.1,464.5l-15.4,6.7" class="g15_10" />
<path d="M239.6,471c0.7,-0.2,1.4,0.5,1.7,1.4c0.1,0.7,0,1.4,-0.3,1.8" class="g15_10" />
<path d="M239.6,471l-3.7,0.8" class="g15_10" />
<path d="M231.1,473.7l3.7,-1.7" class="g15_10" />
<path d="M229.5,474.2l4.2,-1.8c0,0,0.5,-0.2,1.1,-0.4c0.7,-0.1,1.1,-0.2,1.1,-0.2" class="g15_10" />
<path d="M233.1,474.3l3.8,-1.6c0,0,0.3,-0.2,0.3,-0.3" class="g15_10" />
<path d="M237.2,472.4l0.4,-0.5c0,0,0,-0.1,0,-0.2" class="g15_10" />
<path d="M237.3,471.7c0,0,-0.1,-0.1,-0.5,-0.1" class="g15_10" />
<path d="M237.2,472.4c0,0,0.5,0.3,1.9,0.6" class="g15_10" />
<path d="M234.7,475.9l4.1,-1.8c0,0,0.5,-0.3,0.5,-0.5" class="g15_10" />
<path d="M239.3,473.2c0,0.1,0,0.2,0,0.4" class="g15_10" />
<path d="M239.1,473c0,0,0.2,0,0.2,0.2" class="g15_10" />
<path d="M239.3,473.6l0,2.5" class="g15_10" />
<path d="M241,474.2l-1.7,1" class="g15_10" />
<path d="M234.7,478.5l4.1,-1.8" class="g15_10" />
<path d="M239.3,476.1c0,0,0.1,0.3,-0.5,0.6" class="g15_10" />
<path d="M231,480.1l0.1,0.6l2,0.7l3.8,-1.7" class="g15_10" />
<path d="M236.9,479.7c0,0,0.4,0,1.8,-2.9" class="g15_10" />
<path d="M233.5,478.7l1.2,-0.2" class="g15_10" />
<path d="M233.1,481.4l0.4,-2.7" class="g15_10" />
<path d="M234.7,478.5l0,-2.6l-1.6,-1.6l-2,-0.6l-1.6,0.5" class="g15_10" />
<path d="M229.5,474.2l0,0.5" class="g15_10" />
<path d="M230.3,474.3l-2.6,1.1" class="g15_10" />
<path d="M230.9,476.2l-2.6,1.1" class="g15_10" />
<path d="M228,477.2l-0.3,0c0,0,-0.6,-0.6,0,-1.8" class="g15_10" />
<path d="M228.3,477.3c-0.1,-0.1,-0.5,-0.7,0,-1.7" class="g15_10" />
<path d="M228,475.5l0.3,0.1l2.6,-1.1l-0.3,-0.1l0.3,0.1l0,1.7" class="g15_10" />
<path d="M233,475.3l-2.6,1.1" class="g15_10" />
<path d="M233.5,477.1l-2.6,1.1" class="g15_10" />
<path d="M230.7,478.2l-0.3,-0.1c0,0,-0.6,-0.6,0,-1.7" class="g15_10" />
<path d="M230.9,478.2c-0.1,-0.1,-0.5,-0.7,0.1,-1.7" class="g15_10" />
<path d="M230.6,476.4l0.4,0.1l2.5,-1.1l-0.3,-0.1l0.3,0.1l0,1.7" class="g15_10" />
<path d="M229.5,476.9l0.6,0.4" class="g15_10" />
<path d="M230.7,478.2l0.1,0.5" class="g15_10" />
<path d="M228.3,479.8l3.6,-1.5" class="g15_10" />
<path d="M232.4,479.5l-3.5,1.5" class="g15_10" />
<path d="M228.9,481c-0.1,0.1,-0.2,0.1,-0.2,0.1c-0.4,0,-0.7,-0.3,-0.7,-0.7c0,-0.2,0.1,-0.4,0.3,-0.6" class="g15_10" />
<path d="M231.9,478.3c0,0,0.4,-0.2,0.6,0.4c0.2,0.6,-0.1,0.8,-0.1,0.8" class="g15_10" />
<path d="M228.5,480c0,0,0.5,0.1,0.4,0.8" class="g15_10" />
<path d="M231.4,477.5c-0.2,0,-0.3,-0.2,-0.2,-0.5c0,-0.2,0.2,-0.4,0.4,-0.3" class="g15_10" />
<path d="M231.6,476.6c0.1,0.1,0.2,0.3,0.1,0.6c0,0.2,-0.2,0.4,-0.4,0.4" class="g15_10" />
<path d="M231.4,476.7c0,0.1,0,0.2,0,0.3c0,0.2,-0.1,0.3,-0.2,0.4" class="g15_10" />
<path d="M228.7,476.7c-0.1,0,-0.2,-0.3,-0.2,-0.5c0.1,-0.2,0.3,-0.4,0.4,-0.4" class="g15_10" />
<path d="M228.9,475.8c0.2,0,0.3,0.3,0.2,0.5c-0.1,0.3,-0.2,0.5,-0.4,0.4" class="g15_10" />
<path d="M228.8,475.8c0,0.1,0,0.3,0,0.4c-0.1,0.2,-0.1,0.3,-0.2,0.3" class="g15_10" />
<path d="M187.2,437.5c0.1,-0.9,-0.5,-1.1,-0.5,-1.1L186,436.1" class="g15_10" />
<path d="M186.9,438c0.2,-0.1,0.3,-0.3,0.3,-0.5" class="g15_10" />
<path d="M191.3,437.8l0,1.7l0.7,0.2" class="g15_10" />
<path d="M191.3,437.8l0.8,0.3" class="g15_10" />
<path d="M191.3,437.8l0.3,0.2l0,1.3l-0.3,0.2" class="g15_10" />
<path d="M191.6,438l0.1,0.1l0,1.1l-0.1,0.1" class="g15_10" />
<path d="M191.6,439.3l0.5,0.2" class="g15_10" />
<path d="M191.7,439.2c0,0,0.5,0.2,0.6,0.2" class="g15_10" />
<path d="M191.7,439.2l0.8,-0.3" class="g15_10" />
<path d="M192,439.7c0,0,0.5,0.1,0.6,-0.5" class="g15_10" />
<path d="M192.1,439.5c0,0,0.3,0,0.4,-0.3" class="g15_10" />
<path d="M194.8,441.7l-1.6,-0.5l0.1,-0.9l0.2,0.2l0,0.5l1.3,0.5l0,-0.1L193.6,441l0.6,-0.3l-0.6,-0.2l0,0.5l-0.1,0l-0.2,0.2" class="g15_10" />
<path d="M193.3,440.3l1.5,0.5l0,0.9" class="g15_10" />
<path d="M194.9,438.8l-1.8,-0.5l0,-1l0.3,0.2l0,0.6l0.1,-0.1l0.6,-0.3l-0.6,-0.2l0,0.5l1.4,0.4l0,0.2l-1.5,-0.5l-0.3,0.2" class="g15_10" />
<path d="M193.1,437.3l1.8,0.6l0,0.9" class="g15_10" />
<path d="M192.5,439.3c0.1,-1,-0.4,-1.2,-0.4,-1.2l-0.8,-0.3" class="g15_10" />
<path d="M192.2,439.7c0.2,-0.1,0.3,-0.2,0.3,-0.4" class="g15_10" />
<path d="M200.5,440.5l0,3" class="g15_10" />
<path d="M200.1,439.9l0.6,0.1" class="g15_10" />
<path d="M200.1,443.3l0.6,0.1" class="g15_10" />
<path d="M200.2,443.2l0.5,0.1" class="g15_10" />
<path d="M201,443c0,0,-0.3,0.2,-0.3,0.4" class="g15_10" />
<path d="M200.7,440c0,0,0,0.4,0.3,0.6" class="g15_10" />
<path d="M200.2,440c0,-0.1,0,3.2,0,3.2l0.8,-0.4" class="g15_10" />
<path d="M200.1,439.9l0,3.4" class="g15_10" />
<path d="M201,443l0.4,-0.1" class="g15_10" />
<path d="M200.7,443.4l0.3,0" class="g15_10" />
<path d="M201,443.4c0,0,0,-0.3,0.4,-0.5" class="g15_10" />
<path d="M201.4,442.9l0,-2.5" class="g15_10" />
<path d="M200.3,439.5l0.8,0.2" class="g15_10" />
<path d="M201.1,439.7c0,0,0,0.4,0.3,0.7" class="g15_10" />
<path d="M200.1,439.9l0.5,-0.3" class="g15_10" />
<path d="M200.2,439.8l0,-0.3" class="g15_10" />
<path d="M200.7,440l0.4,-0.2" class="g15_10" />
<path d="M201,440.6l0.4,-0.2" class="g15_10" />
<path d="M201.3,440.8l-0.1,0.1l0,0.1l0.1,0l0,0.3l-0.1,0l0,0.1l0.2,0" class="g15_10" />
<path d="M201.3,442l-0.1,0.1l0,0.1l0.1,0l0,0.3l-0.1,0l0,0.1l0.2,0" class="g15_10" />
<path d="M200.8,440.4l0,2.3l0.1,0" class="g15_10" />
<path d="M200.8,440.5l-0.5,0.2" class="g15_10" />
<path d="M200.7,441l-0.4,0.1" class="g15_10" />
<path d="M200.8,441.7l-0.5,0.2" class="g15_10" />
<path d="M200.8,442.1l-0.5,0.2" class="g15_10" />
<path d="M201.7,446.1l-0.1,0l-2,-0.7c-0.2,0,-0.4,-0.4,-0.4,-0.5l0,-7.4c0,-0.3,0.2,-0.3,0.4,-0.3" class="g15_10" />
<path d="M201.7,446.1c0.2,0,0.3,-0.2,0.3,-0.3l0,-7.3c0,-0.2,0,-0.5,-0.3,-0.6l-2.1,-0.7c-0.2,-0.1,-0.3,0,-0.3,0" class="g15_10" />
<path d="M201.9,446c0,0.1,-0.1,0.1,-0.2,0.1l-2.1,-0.7c-0.2,-0.1,-0.3,-0.4,-0.3,-0.6l0,-7.3c0,-0.2,0,-0.3,0.1,-0.3" class="g15_10" />
<path d="M224.8,446.4c1.6,0.6,4.2,1.4,9.1,-0.7" class="g15_10" />
<path d="M221.5,447.8c2.9,0.9,7.3,2.3,10.8,0.9" class="g15_10" />
<path d="M214.9,453.5c-0.1,0.1,-0.5,0.2,-0.8,0.1L180.7,442.7c-0.3,-0.1,-0.5,-0.5,-0.5,-0.8l0,-13.9c0,-0.1,0,-0.4,0.5,-0.6" class="g15_10" />
<path d="M180.4,427.7c0.1,-0.1,0.2,-0.1,0.3,-0.1l33.1,10.9c0.5,0.1,0.8,0.6,0.8,1.1l0,13.6c0,0.1,0,0.2,-0.1,0.3" class="g15_10" />
<path d="M180.7,427.4c0.1,-0.1,0.2,-0.1,0.3,-0.1l33.3,11c0.4,0.1,0.8,0.6,0.8,1.1l0,13.8c0,0.1,-0.1,0.2,-0.2,0.3" class="g15_10" />
<path d="M212,450.3c-0.1,0.1,-0.2,0.1,-0.4,0.1l-28.5,-9.2c-0.3,-0.1,-0.5,-0.5,-0.5,-0.8l0,-9.1c0,-0.2,0,-0.3,0.1,-0.4" class="g15_10" />
<path d="M182.7,430.9c0.1,0,0.3,-0.1,0.4,0l28.5,9.2c0.3,0.1,0.6,0.4,0.6,0.8l0,9c0,0.2,-0.1,0.3,-0.2,0.4" class="g15_10" />
<path d="M215.1,450.6l10.8,-4.7c0,0,0.4,-0.3,0.4,-0.9l0,-9.4c0,0,0.1,-0.9,-0.5,-1.2c-0.6,-0.2,-0.8,-0.1,-1,0c-0.2,0.1,-0.6,0.3,-0.6,0.3c0,0,-0.1,0.1,-0.7,0c-0.5,-0.2,-4.6,-1.5,-4.6,-1.5" class="g15_10" />
<path d="M221,432.3c0,0,-0.1,0,-0.2,0.1c-0.2,0.1,-4,1.6,-4,1.6c0,0,-0.1,0.1,-0.3,0c-0.3,0,-23.2,-7.4,-23.2,-7.4c0,0,-0.2,-0.1,-0.2,-0.1" class="g15_10" />
<path d="M221.1,433.9l0,-1.5L221,432.3" class="g15_10" />
<path d="M184.8,428.6l8.2,-3.4" class="g15_10" />
<path d="M221.2,432c0.1,0.1,0.1,0.3,0.1,0.4l0,1.6" class="g15_10" />
<path d="M216.7,433.7l0.1,0c0.2,-0.1,4.1,-1.7,4.1,-1.7c0,0,0.2,-0.1,0.3,0" class="g15_10" />
<path d="M216.7,433.7c-0.1,0,-0.1,-0.2,-0.1,-0.2l0,-2.8c0,-0.9,-0.6,-1.1,-0.6,-1.1c0,0,-21.9,-7,-22.1,-7.1c-0.2,0,-0.3,0,-0.3,0c0,0,-0.1,0,-0.4,0.2c-0.2,0.1,-0.2,0.4,-0.2,0.4l0,3.2c0,0,0,0.1,0.1,0.2" class="g15_10" />
<path d="M221.1,432L217,430.6" class="g15_10" />
<path d="M215.4,439.5l10.4,-4.4" class="g15_10" />
<path d="M215.2,441.7c-0.1,-0.1,-0.1,-0.3,0,-0.5c0.1,-0.1,0.2,-0.2,0.4,-0.2" class="g15_10" />
<path d="M215.6,441c0.1,0.1,0.1,0.3,0,0.5c-0.1,0.2,-0.3,0.3,-0.4,0.2" class="g15_10" />
<path d="M215.2,449.1c-0.1,-0.1,-0.1,-0.3,0,-0.5c0.1,-0.2,0.2,-0.3,0.4,-0.2" class="g15_10" />
<path d="M215.6,448.4c0.1,0,0.1,0.2,0,0.4c-0.1,0.2,-0.3,0.3,-0.4,0.3" class="g15_10" />
<path d="M215.1,452.8l0.6,0.2c0,0,0.4,0.2,0.6,0c0.2,-0.1,0.3,-0.2,0.3,-0.6l0,-2.5" class="g15_10" />
<path d="M216.1,453.1c0.2,-0.1,0.3,-0.3,0.3,-0.6l0,-2.5" class="g15_10" />
<path d="M216.7,434.1c-0.1,0,-0.3,-0.1,-0.3,-0.4l0,-3.1c0,0,0,-0.6,-0.7,-0.9c-0.6,-0.2,-22,-7,-22,-7c0,0,-0.3,-0.1,-0.5,0" class="g15_10" />
<path d="M213.9,431.7c-0.2,0.1,-0.4,0,-0.5,-0.3c-0.1,-0.2,-0.1,-0.4,0.1,-0.5" class="g15_10" />
<path d="M213.5,430.9c0.1,-0.1,0.3,0.1,0.5,0.3c0.1,0.2,0,0.4,-0.1,0.5" class="g15_10" />
<path d="M213.5,430.8c-0.2,0.1,-0.2,0.4,-0.1,0.7c0.1,0.3,0.4,0.4,0.6,0.3" class="g15_10" />
<path d="M213.5,430.8c0.2,-0.1,0.5,0.1,0.6,0.3c0.1,0.3,0.1,0.6,-0.1,0.7" class="g15_10" />
<path d="M213.7,430.7c0.2,-0.1,0.4,0.1,0.6,0.4c0.1,0.3,0,0.6,-0.2,0.7" class="g15_10" />
<path d="M214.3,432.2c-0.3,0.2,-0.8,-0.1,-1,-0.7c-0.3,-0.5,-0.2,-1,0.1,-1.2" class="g15_10" />
<path d="M213.4,430.3c0.4,-0.2,0.9,0.1,1.1,0.6c0.3,0.6,0.2,1.1,-0.2,1.3" class="g15_10" />
<path d="M213.8,430.1c0.4,-0.1,0.9,0.2,1.1,0.7c0.3,0.5,0.2,1.1,-0.2,1.2" class="g15_10" />
<path d="M213.4,430.3l0.4,-0.2" class="g15_10" />
<path d="M214.3,432.2l0.4,-0.2" class="g15_10" />
<path d="M213.5,430.8l0.2,-0.1" class="g15_10" />
<path d="M214,431.8l0.1,0" class="g15_10" />
<path d="M217.4,429.2c0.2,-0.1,0.5,0,0.6,0.3c0.1,0.3,0.1,0.6,-0.1,0.7" class="g15_10" />
<path d="M217.1,429.3c0.2,-0.1,0.5,0,0.6,0.3c0.1,0.3,0.1,0.6,-0.1,0.7" class="g15_10" />
<path d="M216.8,429.4c0.2,-0.1,0.5,0.1,0.6,0.4c0.1,0.2,0.1,0.5,-0.1,0.6" class="g15_10" />
<path d="M216.5,429.5c0.2,0,0.4,0.1,0.6,0.4c0.1,0.3,0.1,0.6,-0.1,0.7" class="g15_10" />
<path d="M216.2,429.7c0.2,-0.1,0.4,0,0.6,0.3c0.1,0.3,0,0.6,-0.2,0.7" class="g15_10" />
<path d="M217.4,429.2l-1.2,0.5" class="g15_10" />
<path d="M217.9,430.2l-1.2,0.5" class="g15_10" />
<path d="M218.2,430.7c-0.3,0.1,-0.6,0,-0.9,-0.2m-0.5,-1.1c0,-0.4,0.1,-0.7,0.4,-0.8" class="g15_10" />
<path d="M217.2,428.6c0.4,-0.2,0.9,0.2,1.2,0.7c0.3,0.6,0.2,1.2,-0.2,1.4" class="g15_10" />
<path d="M217.5,428.5c0.4,-0.2,0.9,0.1,1.2,0.7c0.3,0.6,0.2,1.2,-0.2,1.4" class="g15_10" />
<path d="M217.2,428.6l0.3,-0.1" class="g15_10" />
<path d="M218.2,430.7l0.3,-0.1" class="g15_10" />
<path d="M194.7,425.6c-0.1,0.1,-0.4,-0.1,-0.5,-0.3c-0.1,-0.2,0,-0.5,0.1,-0.5" class="g15_10" />
<path d="M194.3,424.8c0.2,-0.1,0.4,0,0.5,0.3c0.1,0.2,0.1,0.4,-0.1,0.5" class="g15_10" />
<path d="M194.3,424.7c-0.1,0.1,-0.2,0.4,-0.1,0.6c0.2,0.3,0.4,0.5,0.6,0.4" class="g15_10" />
<path d="M194.3,424.7c0.2,-0.1,0.5,0,0.6,0.3c0.2,0.3,0.1,0.6,-0.1,0.7" class="g15_10" />
<path d="M194.5,424.6c0.2,-0.1,0.5,0.1,0.6,0.4c0.1,0.2,0.1,0.5,-0.1,0.6" class="g15_10" />
<path d="M195.2,426.1c-0.4,0.1,-0.9,-0.2,-1.1,-0.7c-0.3,-0.5,-0.2,-1.1,0.2,-1.2" class="g15_10" />
<path d="M194.3,424.2c0.3,-0.2,0.8,0.1,1.1,0.6c0.2,0.5,0.1,1.1,-0.2,1.3" class="g15_10" />
<path d="M194.7,424c0.3,-0.2,0.8,0.1,1.1,0.7c0.2,0.5,0.1,1.1,-0.2,1.2" class="g15_10" />
<path d="M194.3,424.2l0.4,-0.2" class="g15_10" />
<path d="M195.2,426.1l0.4,-0.2" class="g15_10" />
<path d="M194.3,424.7l0.2,-0.1" class="g15_10" />
<path d="M194.8,425.7l0.2,-0.1" class="g15_10" />
<path d="M198.3,423c0.1,-0.1,0.4,0.1,0.5,0.4c0.2,0.3,0.1,0.6,-0.1,0.7" class="g15_10" />
<path d="M197.9,423.2c0.2,-0.1,0.5,0,0.6,0.3c0.1,0.2,0.1,0.4,0.1,0.6" class="g15_10" />
<path d="M197.7,423.3c0.2,-0.1,0.4,0,0.5,0.3c0.1,0.1,0.1,0.3,0.1,0.4" class="g15_10" />
<path d="M197.3,423.4c0.2,-0.1,0.5,0.1,0.6,0.4l0,0.1" class="g15_10" />
<path d="M197,423.6c0.1,-0.1,0.3,-0.1,0.4,0.1" class="g15_10" />
<path d="M198.3,423l-1.3,0.5" class="g15_10" />
<path d="M197.7,423.3c-0.1,-0.4,0.1,-0.7,0.3,-0.8" class="g15_10" />
<path d="M198,422.5c0.4,-0.2,1,0.1,1.2,0.7c0.2,0.4,0.2,0.8,0.1,1.1" class="g15_10" />
<path d="M198.4,422.4c0.3,-0.2,0.9,0.1,1.1,0.7c0.3,0.5,0.2,1,0,1.2" class="g15_10" />
<path d="M198,422.5l0.4,-0.1" class="g15_10" />
<path d="M218,449.3c0.1,0.2,0.1,0.5,-0.1,0.6" class="g15_10" />
<path d="M217.7,449.4c0.1,0.3,0.1,0.5,-0.1,0.6" class="g15_10" />
<path d="M217.4,449.5c0.1,0.3,0.1,0.6,-0.1,0.6" class="g15_10" />
<path d="M217.1,449.7c0.1,0.2,0,0.5,-0.1,0.6" class="g15_10" />
<path d="M216.8,449.8c0.1,0.3,0,0.5,-0.2,0.6" class="g15_10" />
<path d="M217.9,449.9l-1.2,0.5" class="g15_10" />
<path d="M218.4,449.1c0.3,0.6,0.1,1.1,-0.2,1.3" class="g15_10" />
<path d="M218.7,449c0.3,0.5,0.2,1.1,-0.2,1.3" class="g15_10" />
<path d="M218.2,450.4l0.3,-0.1" class="g15_10" />
<path d="M218.2,450.4c-0.3,0.1,-0.6,0,-0.9,-0.2" class="g15_10" />
<path d="M166.2,579.4l-0.4,0l-0.6,-0.9l3.5,-9.7l13,-0.2" class="g15_10" />
<path d="M165.8,579.4l3.5,-9.7l13.1,-0.1l-0.6,-1m-12.5,1.1l-0.6,-0.9" class="g16_10" />
<path d="M186.2,571c0,0,0.8,1.1,0.9,1.2c0.1,0.2,0.2,0.5,0.1,0.8l-2,5.3c-0.2,0.6,-1,1.1,-1.6,1.1l-15.2,0c-0.3,0,-0.5,-0.2,-0.7,-0.4c-0.1,-0.1,-0.8,-1.1,-0.8,-1.1" class="g15_10" />
<path d="M167.7,579c-0.1,-0.1,-0.2,-0.4,-0.1,-0.7l2,-5.3c0.2,-0.6,0.9,-1.1,1.6,-1.1l15.1,0c0.4,0,0.7,0.1,0.8,0.3m-20.2,5.7c-0.1,-0.2,-0.2,-0.5,-0.1,-0.7l2,-5.4c0.2,-0.5,1,-1,1.6,-1l15.1,0c0.4,0,0.6,0.1,0.7,0.2m-16,8.4c0.1,0.5,-0.3,1.2,-1,1.7c-0.9,0.6,-2,0.6,-2.4,0" class="g16_10" />
<path d="M166.8,581.1c-0.4,-0.6,0,-1.6,0.8,-2.2m3.4,0.5c-0.1,0.7,-0.6,1.6,-1.5,2.2c-1.2,0.9,-2.8,0.8,-3.4,-0.1" class="g15_10" />
<path d="M166.1,581.5c-0.6,-0.8,-0.1,-2.2,1.1,-3.1" class="g16_10" />
<path d="M166.8,574c-0.6,0.1,-1.3,0.3,-1.9,0.7c-1.2,0.9,-1.8,2.3,-1.2,3.2c0.6,0.9,2.4,3.6,2.4,3.6" class="g15_10" />
<path d="M186.5,568c0.5,0.6,0.1,1.6,-0.8,2.2c-0.9,0.6,-1.9,0.6,-2.3,0" class="g16_10" />
<path d="M183.4,570.2c-0.4,-0.6,-0.1,-1.6,0.8,-2.2c0.9,-0.6,1.9,-0.6,2.3,0m0.8,-0.4c0.4,0.5,0.4,1.2,0,1.9" class="g15_10" />
<path d="M182.4,569.6c0.2,-0.7,0.7,-1.5,1.5,-2.1c1.3,-0.8,2.8,-0.8,3.4,0.1" class="g16_10" />
<path d="M180.3,567.1c0.6,0.9,1,1.5,1,1.5m3.6,-4.7c-0.6,-0.9,-2.1,-0.9,-3.4,0c-1.3,0.9,-1.8,2.3,-1.2,3.2m7,2.4l0.3,0l-0.9,2.2m-1.8,-7.8c0.7,0.9,2.4,3.7,2.4,3.7m-4.2,-21.5l7.8,0m-15.6,10.8l-0.4,0L174.3,556l0.4,-0.9l-0.5,-0.7l3,-8.1l0.3,0" class="g15_10" />
<path d="M182.9,547.1l8.7,-0.1L191,546.1m-16.1,10.8l3.6,-9.8" class="g16_10" />
<path d="M195.4,548.5c0,0,0.7,1,0.9,1.2c0.1,0.2,0.1,0.4,0,0.7l-2,5.3c-0.2,0.6,-0.9,1.1,-1.6,1.1l-15.1,0c-0.3,0,-0.6,-0.1,-0.7,-0.3c-0.2,-0.2,-0.9,-1.2,-0.9,-1.2" class="g15_10" />
<path d="M176.9,556.5c-0.2,-0.2,-0.2,-0.5,-0.1,-0.8l2,-5.3c0.2,-0.6,0.9,-1.1,1.6,-1.1l15.1,0c0.3,0,0.6,0.2,0.8,0.4M176,555.3c-0.1,-0.2,-0.1,-0.4,0,-0.7l2,-5.3c0.2,-0.6,0.9,-1.1,1.6,-1.1l15.1,0c0.3,0,0.6,0.1,0.7,0.3m-16,8.3c0,0.6,-0.4,1.3,-1,1.7c-0.9,0.6,-2,0.6,-2.4,0" class="g16_10" />
<path d="M176,558.5c-0.4,-0.6,-0.1,-1.6,0.7,-2.2m3.5,0.5c-0.1,0.8,-0.6,1.6,-1.5,2.2c-1.3,0.9,-2.8,0.9,-3.4,0" class="g15_10" />
<path d="M175.3,559c-0.6,-0.9,-0.1,-2.3,1.1,-3.2" class="g16_10" />
<path d="M175.3,551.6c-0.4,0.1,-0.8,0.3,-1.2,0.5c-1.3,0.9,-1.8,2.3,-1.2,3.2c0.6,0.9,2.4,3.7,2.4,3.7" class="g15_10" />
<path d="M195.7,545.5c0.4,0.6,0,1.6,-0.8,2.2c-0.9,0.5,-1.9,0.5,-2.4,-0.1" class="g16_10" />
<path d="M192.5,547.6c-0.4,-0.6,0,-1.6,0.9,-2.2c0.8,-0.5,1.9,-0.5,2.3,0.1m0.8,-0.5c0.3,0.5,0.3,1.2,0,1.9" class="g15_10" />
<path d="M191.6,547c0.1,-0.7,0.6,-1.5,1.4,-2c1.3,-0.9,2.9,-0.9,3.5,0" class="g16_10" />
<path d="M189.4,544.5c0.6,0.9,1.1,1.6,1.1,1.6m3.6,-4.7c-0.6,-0.9,-2.2,-1,-3.4,-0.1c-1.3,0.9,-1.9,2.3,-1.3,3.2m7.1,2.4l0.2,0l-0.8,2.3m-1.8,-7.8c0.6,0.9,2.4,3.6,2.4,3.6m-13.6,2.1c0.3,-0.6,0.3,-1.2,0,-1.6c-0.3,-0.4,-5.3,-8,-5.3,-8" class="g15_10" />
<path d="M178.5,547.1c0.1,-0.6,0.5,-1.2,1.2,-1.6c1.2,-0.8,2.6,-0.8,3.2,0" class="g15_10" />
<path d="M173.3,540.4c-0.5,-0.8,0,-2.1,1.2,-2.9c1.1,-0.8,2.5,-0.8,3.1,0m-0.4,8.8c-0.3,-0.5,-3.9,-5.9,-3.9,-5.9" class="g15_10" />
<path d="M177.2,546.3l0.5,0.8l0.3,-1" class="g16_10" />
<path d="M177.7,547l0.3,-0.8" class="g15_10" />
<path d="M177.6,546.3l0.3,0.4" class="g16_10" />
<path d="M193,556.8c-0.2,0.6,-0.6,1.2,-1.2,1.6c-1.2,0.8,-2.5,0.8,-3.1,0m-1,-1.6c0.6,0.9,1,1.6,1,1.6m-4.4,-6.9c0.2,0.3,0.7,1,1.2,1.9" class="g15_10" />
<path d="M188.7,558.4c-0.3,-0.5,-0.2,-1.1,0.2,-1.6" class="g15_10" />
<path d="M183.2,554.5l5.7,0l0.8,-0.7l0.5,-0.1l0.8,-2.2" class="g16_10" />
<path d="M182.8,553.8l0.4,0.7" class="g15_10" />
<path d="M182.3,553.7l0.5,0.1" class="g16_10" />
<path d="M191,551.5l-7.9,0l-0.8,2.2m0.4,-0.2l5.5,0l0.8,-0.7l0.5,-0.1l0.3,-1.2" class="g15_10" />
<path d="M190.2,553.7l-0.7,-1m0.2,1.1l-0.7,-1m-0.1,1.7l-0.7,-1" class="g16_10" />
<path d="M182.8,553.8l-0.3,-0.5m65,-8l7.8,-0.1m-14.7,5l1.8,-4.9M239.7,556l-0.4,0l-0.6,-0.9l1.5,-4" class="g15_10" />
<path d="M247.3,546.2l8.7,0l-0.7,-1m-16,10.8l3.6,-9.7" class="g16_10" />
<path d="M259.8,547.6c0,0,0.7,1,0.8,1.2c0.2,0.2,0.2,0.5,0.1,0.8l-2,5.3c-0.2,0.6,-0.9,1.1,-1.6,1.1L242,556c-0.4,0,-0.6,-0.2,-0.8,-0.4c-0.1,-0.2,-0.8,-1.2,-0.8,-1.2" class="g15_10" />
<path d="M241.2,555.6c-0.1,-0.2,-0.1,-0.4,0,-0.7l1.9,-5.3c0.3,-0.6,1,-1.1,1.6,-1.1l15.2,0c0.3,0,0.6,0.1,0.7,0.3m-20.2,5.6c-0.1,-0.1,-0.1,-0.4,0,-0.6l2,-5.4c0.2,-0.6,0.9,-1,1.6,-1l15.1,0c0.3,0,0.5,0.1,0.7,0.2m-16,8.4c0,0.5,-0.4,1.2,-1.1,1.7c-0.9,0.6,-1.9,0.6,-2.3,-0.1" class="g16_10" />
<path d="M240.4,557.6c-0.5,-0.6,-0.1,-1.5,0.7,-2.1m3.4,0.5c0,0.7,-0.6,1.6,-1.4,2.2c-1.3,0.9,-2.9,0.8,-3.5,-0.1" class="g15_10" />
<path d="M239.6,558.1c-0.6,-0.8,-0.1,-2.2,1.2,-3.1" class="g16_10" />
<path d="M237.3,552.5c-0.4,0.7,-0.4,1.4,-0.1,2c0.7,0.9,2.4,3.6,2.4,3.6" class="g15_10" />
<path d="M260.1,544.6c0.4,0.6,0,1.6,-0.9,2.2c-0.8,0.6,-1.9,0.6,-2.3,0" class="g16_10" />
<path d="M256.9,546.8c-0.4,-0.6,0,-1.6,0.8,-2.2c0.9,-0.6,2,-0.6,2.4,0m0.8,-0.4c0.3,0.5,0.3,1.2,-0.1,1.9" class="g15_10" />
<path d="M256,546.2c0.1,-0.8,0.6,-1.5,1.4,-2.1c1.3,-0.9,2.9,-0.8,3.5,0.1" class="g16_10" />
<path d="M253.8,543.7c0.6,0.9,1,1.5,1,1.5m3.7,-4.7c-0.6,-0.9,-2.2,-0.9,-3.5,0c-1.3,0.8,-1.8,2.3,-1.2,3.2m7,2.4l0.3,0l-0.8,2.2m-1.8,-7.8c0.6,0.9,2.4,3.7,2.4,3.7m-13.6,2c0.3,-0.5,0.3,-1.1,0,-1.6C247,544.2,242,536.7,242,536.7" class="g15_10" />
<path d="M242.9,546.3c0.1,-0.6,0.5,-1.2,1.2,-1.7c1.2,-0.8,2.6,-0.8,3.2,0" class="g15_10" />
<path d="M237.7,539.6c-0.6,-0.8,-0.1,-2.1,1.1,-3c1.2,-0.8,2.6,-0.7,3.2,0.1m0.1,9.4c-0.3,-0.4,-4.4,-6.5,-4.4,-6.5" class="g15_10" />
<path d="M242.1,546.2l0.3,-0.9" class="g16_10" />
<path d="M257.4,556c-0.2,0.5,-0.6,1.1,-1.3,1.5c-1.1,0.8,-2.5,0.8,-3,0m-1,-1.5c0.6,0.9,1,1.5,1,1.5m-5,-7.7c0.2,0.2,1.8,2.8,2.4,3.7" class="g15_10" />
<path d="M253.1,557.5c-0.3,-0.4,-0.2,-1,0.2,-1.6" class="g15_10" />
<path d="M255.9,549.8l-8.2,0l-2.1,5.7" class="g15_10" />
<path d="M245.6,555.5l8.3,-0.1l2,-5.6" class="g16_10" />
<path d="M246.3,553.5l6.3,0l1.4,-3.7" class="g16_10" />
<path d="M253.9,555.4l-1.3,-1.9" class="g16_10" />
<path d="M239,568.6l7.8,-0.1" class="g15_10" />
<path d="M238.8,569.5l8.7,-0.1l-0.7,-0.9m-16,10.8l3.5,-9.7" class="g16_10" />
<path d="M251.3,570.9c0,0,0.7,1,0.8,1.2c0.1,0.2,0.2,0.5,0.1,0.7l-2,5.4c-0.2,0.6,-0.9,1,-1.6,1l-15.1,0c-0.4,0,-0.6,-0.1,-0.8,-0.3c-0.1,-0.2,-0.8,-1.2,-0.8,-1.2" class="g15_10" />
<path d="M232.7,578.9c-0.1,-0.2,-0.2,-0.4,0,-0.7l1.9,-5.4c0.3,-0.6,1,-1,1.6,-1l15.2,0c0.3,0,0.6,0.1,0.7,0.3m-20.2,5.6c-0.1,-0.2,-0.1,-0.4,0,-0.7l1.9,-5.3c0.3,-0.6,1,-1.1,1.6,-1.1l15.2,0c0.3,0,0.5,0.1,0.7,0.3m-16.1,8.3c0.1,0.6,-0.3,1.3,-1,1.8c-0.9,0.6,-1.9,0.5,-2.4,-0.1" class="g16_10" />
<path d="M231.8,580.9c-0.4,-0.6,0,-1.5,0.8,-2.2m3.4,0.6c0,0.7,-0.6,1.6,-1.4,2.2c-1.3,0.8,-2.9,0.8,-3.5,-0.1" class="g15_10" />
<path d="M231.1,581.4c-0.6,-0.9,-0.1,-2.2,1.1,-3.1" class="g16_10" />
<path d="M228.8,575.8c-0.4,0.7,-0.4,1.4,-0.1,2c0.7,0.9,2.4,3.6,2.4,3.6" class="g15_10" />
<path d="M251.6,567.9c0.4,0.6,0,1.6,-0.9,2.2c-0.8,0.6,-1.9,0.6,-2.3,0" class="g16_10" />
<path d="M248.4,570.1c-0.4,-0.7,0,-1.6,0.8,-2.2c0.9,-0.6,2,-0.6,2.4,0m0.8,-0.5c0.3,0.6,0.3,1.3,-0.1,1.9" class="g15_10" />
<path d="M247.5,569.4c0.1,-0.7,0.6,-1.4,1.4,-2c1.3,-0.9,2.8,-0.9,3.5,0" class="g16_10" />
<path d="M245.3,567c0.6,0.9,1,1.5,1,1.5m3.7,-4.7c-0.6,-0.9,-2.2,-0.9,-3.5,0c-1.3,0.8,-1.8,2.3,-1.2,3.2m7,2.3l0.3,0l-0.8,2.3M250,563.8c0.6,0.9,2.4,3.6,2.4,3.6m-13.6,2.1c0.2,-0.6,0.2,-1.1,-0.1,-1.6c-0.3,-0.4,-1.8,-2.7,-1.8,-2.7" class="g15_10" />
<path d="M234.3,569.6c0.2,-0.6,0.6,-1.3,1.3,-1.7c1.2,-0.8,2.6,-0.8,3.1,0" class="g15_10" />
<path d="M232.6,568.1c-0.5,-0.9,0,-2.2,1.1,-3c1.2,-0.8,2.6,-0.8,3.2,0.1m-3.8,3.5c-0.3,-0.4,-0.5,-0.6,-0.5,-0.6" class="g15_10" />
<path d="M233.6,569.4l0.3,-0.8m-0.5,0.1l0.3,0.4" class="g16_10" />
<path d="M248.9,579.2c-0.2,0.6,-0.6,1.2,-1.3,1.6c-1.1,0.8,-2.5,0.8,-3,0c-0.6,-0.8,-1,-1.6,-1,-1.6" class="g15_10" />
<path d="M244.6,580.8c-0.3,-0.4,-0.2,-1,0.2,-1.6m5.4,-5.6c0.7,1,0.1,2.6,-1.4,3.6c-0.6,0.4,-1.4,0.7,-2,0.7" class="g15_10" />
<path d="M248.4,572.8c0.7,0,1.4,0.2,1.8,0.8" class="g15_10" />
<path d="M236.5,578c-0.7,0,-1.3,-0.2,-1.7,-0.7" class="g16_10" />
<path d="M234.8,577.3c-0.7,-1,-0.1,-2.6,1.4,-3.6c0.7,-0.5,1.4,-0.7,2.1,-0.7" class="g15_10" />
<path d="M248.6,572.8L238.1,573" class="g16_10" />
<path d="M246.7,577.9L236.5,578" class="g15_10" />
<path d="M249.1,572.9c-0.1,0.8,-0.7,1.7,-1.6,2.3c-0.7,0.5,-1.4,0.7,-2.1,0.7m-10.3,0.2c-0.2,0,-0.4,0,-0.6,-0.1m10.8,-0.1l-10.1,0.2m-3.9,-2.5l1.8,-4.9l0.3,0m-2.2,10.6l-0.4,0l-0.6,-0.9l0.4,-0.8l-0.5,-0.8l0.8,-2.1" class="g15_10" />
<path d="M233.1,568.8l0.5,0.7l0.3,-0.9m3.8,0.3c0.2,0.3,0,0.8,-0.4,1.1c-0.5,0.3,-1,0.2,-1.2,0" class="g16_10" />
<path d="M236.1,570c-0.2,-0.3,0,-0.8,0.4,-1.1c0.5,-0.3,1,-0.3,1.2,0m9.1,6.4l0.2,0.2m-4.1,0.5c0.2,-0.3,0.5,-0.6,0.8,-0.8c1.2,-0.8,2.6,-0.8,3.1,0.1" class="g15_10" />
<path d="M247.5,579.2c0,0.3,-0.1,0.6,-0.5,0.9c-0.4,0.2,-0.9,0.2,-1.1,-0.1" class="g16_10" />
<path d="M245.9,580c-0.1,-0.2,-0.1,-0.5,0.1,-0.8" class="g15_10" />
<path d="M247.8,575l0.8,-2.2M218.7,552.6l18.6,-0.1c0.3,0,0.7,-0.2,0.7,-0.8c0,-0.7,-0.4,-0.9,-0.8,-0.9c-0.5,0,-17.9,0,-17.9,0" class="g16_10" />
<path d="M237.8,552.2l3,-1.3m-3.2,-0.1l3.1,-0.6" class="g15_10" />
<path d="M240.8,550.9c0.3,-0.1,0.3,-0.9,-0.1,-0.7" class="g16_10" />
<path d="M210.1,575.8l18.6,0c0.3,0,0.7,-0.2,0.7,-0.9c0,-0.7,-0.4,-0.9,-0.8,-0.9c-0.5,0,-17.9,0,-17.9,0" class="g16_10" />
<path d="M229.3,575.4l2.9,-1.3m-3.2,0l3.1,-0.7" class="g15_10" />
<path d="M232.2,574.1c0.3,-0.1,0.3,-0.8,-0.1,-0.7" class="g16_10" />
<path d="M190.1,574.1c0.1,-0.1,0.2,-0.1,0.4,-0.1c0.4,0,18.4,0,18.4,0" class="g15_10" />
<path d="M190.1,574.2c0.1,0.1,0.1,0.3,0.1,0.5c0,0.4,-0.2,0.6,-0.4,0.7" class="g15_10" />
<path d="M209,575.8l-18.6,0c-0.2,0,-0.4,-0.1,-0.6,-0.3m-0.1,-0.1l-3.1,-0.9m3.5,-0.4l-3.2,-0.4m11.8,-22.8c0.1,0,0.2,-0.1,0.4,-0.1c0.4,0,18.3,0.1,18.3,0.1" class="g15_10" />
<path d="M198.7,551c0.1,0.2,0.1,0.3,0.1,0.5c0,0.4,-0.1,0.6,-0.4,0.7" class="g15_10" />
<path d="M217.4,552.6l-18.4,0c-0.2,0,-0.4,-0.1,-0.6,-0.3m-0.1,-0.1l-2.4,-0.7m2.8,-0.6l-2.5,-0.3" class="g15_10" />
<path d="M208.3,575.8L202.7,591c0,0,-0.3,1,-0.3,1.3c-0.1,0.4,0.2,0.6,0.5,0.7c0.3,0.1,0.7,0,0.8,-0.2c0.1,-0.1,0.6,-1.1,0.6,-1.1l5.8,-15.9" class="g16_10" />
<path d="M210.7,574l8,-21.4m-8.6,22.6c0.3,-0.3,0.5,-0.8,0.6,-1.2m6.1,-21.4L208.9,574" class="g15_10" />
<path d="M209,575.8c0.2,0,0.5,-0.2,0.6,-0.3M208.9,574c0.3,0,0.6,0.7,0.7,1" class="g16_10" />
<path d="M218.7,552c0.3,-0.3,0.4,-0.8,0.6,-1.2c0.1,-0.4,0,-0.9,-0.5,-1.2c-0.4,-0.2,-1,0,-1.2,0.5c-0.2,0.6,-0.3,0.8,-0.3,0.8" class="g15_10" />
<path d="M217.3,552.6c0.2,0.1,0.6,-0.2,0.7,-0.3m-0.7,-1.5c0.3,0,0.7,0.7,0.7,1" class="g15_10" />
<path d="M204.3,591.6c-0.1,0.3,-0.5,0.4,-0.9,0.2c-0.5,-0.2,-0.7,-0.6,-0.6,-0.8" class="g16_10" />
</svg>