<?xml version="1.0" encoding="UTF-8" standalone="no"?>
<!DOCTYPE svg PUBLIC "-//W3C//DTD SVG 1.1//EN"
"http://www.w3.org/Graphics/SVG/1.1/DTD/svg11.dtd">
<svg version="1.1" xmlns="http://www.w3.org/2000/svg" xmlns:xlink="http://www.w3.org/1999/xlink">
<defs>
<style type="text/css"><![CDATA[
.g2_1{
fill: none;
stroke: #231F20;
stroke-width: 1;
stroke-linecap: butt;
stroke-linejoin: miter;
}
.g1_1{
fill: #231F20;
}
]]></style>
</defs>
<path d="M542.4,401.8c-12.2,21.1,-34.9,36.3,-64.5,44c27.1,-9.4,41.6,-24.1,49.5,-37.3c13.5,-22.5,11.7,-47.6,3.9,-62.4C515.6,316,466.7,313,411.9,317.1c62.3,-13.8,111.2,-5.3,130.5,23.9c11.7,17.8,11.7,40.5,0,60.8M503.7,422c13,-16.7,17.1,-38.3,11.2,-59.1C508,338.7,481.5,324.5,436.1,320.3c52.6,-1.3,80.7,7.5,91.3,27.8c7,13.3,8.8,37.2,-3.8,58.2c-6.3,10.6,-17.2,22.2,-36.3,31c6.4,-4.4,11.9,-9.5,16.4,-15.3M546,338.6c-23,-34.7,-84.6,-42,-160.9,-19c0,0,-0.1,0.1,-0.1,0.1c-0.1,0,-0.2,0,-0.2,0.1c-0.1,0,-0.2,0.1,-0.3,0.1c-0.1,0.1,-0.2,0.2,-0.2,0.2c-0.1,0.1,-0.1,0.1,-0.2,0.2c0,0,-0.1,0.1,-0.1,0.2c-0.1,0.1,-0.2,0.2,-0.2,0.3c0,0.1,-0.1,0.1,-0.1,0.2c0,0.1,0,0.2,-0.1,0.3c0,0.1,0,0.2,0,0.3c0,0.1,0,0.1,0,0.2l0,0.1c0,0.1,0,0.2,0,0.2c0.1,0.1,0,0.2,0.1,0.2c0,0.1,0,0.1,0.1,0.2c0,0.1,0,0.1,0,0.2c0.1,0.1,0.1,0.1,0.2,0.2c0,0.1,0.1,0.2,0.2,0.3c0.1,0.1,0.1,0.1,0.1,0.1c0.1,0.1,0.2,0.1,0.2,0.2c0.2,0.1,0.3,0.1,0.4,0.2c0.1,0,0.1,0,0.2,0.1c0,0,0.1,0,0.2,0c0.1,0,0.3,0.1,0.4,0.1c0,0,0.1,0,0.1,0c51.2,-2.2,114.3,3,124.9,40.2c5.5,19.5,1.7,39.6,-10.4,55.2c-11.6,14.9,-29.7,24.9,-52.6,29.4c-10.1,1.5,-21.5,2.4,-34.2,2.6c0,0,-0.1,0,-0.1,0c-0.9,0,-1.6,0.5,-1.9,1.3c0,0.1,0,0.2,0,0.3c-0.1,0.2,-0.1,0.3,-0.2,0.5c0,0,0.1,0,0.1,0c0,0,-0.1,0.1,-0.1,0.1c0.1,0.1,0.1,0.2,0.1,0.4c0.1,0.1,0.1,0.3,0.1,0.4c0.1,0.1,0.2,0.2,0.3,0.3c0,0.2,0.1,0.3,0.2,0.4c0.1,0.1,0.2,0.2,0.3,0.2c0.1,0.1,0.2,0.2,0.4,0.2c0.1,0.1,0.3,0.1,0.4,0.2c0.2,0,0.3,0.1,0.5,0.1c5.1,0.3,10,0.4,15,0.4c55.1,0,98.5,-19,117.6,-52.1c12.6,-21.8,12.5,-46.2,-0.2,-65.4Z" class="g1_1" />
<path d="M386.6,456.7c-1.2,0,-2.2,-1,-2.2,-2.1l0,-122c0,-1.2,1,-2.1,2.2,-2.1c1.1,0,2.1,0.9,2.1,2.1l0,122c0,1.1,-1,2.1,-2.1,2.1Z" class="g1_1" />
<path d="M395.1,456.7c-1.2,0,-2.2,-1,-2.2,-2.1l0,-122c0,-1.2,1,-2.1,2.2,-2.1c1.2,0,2.1,0.9,2.1,2.1l0,122c0,1.1,-0.9,2.1,-2.1,2.1Z" class="g1_1" />
<path d="M403.6,456.7c-1.2,0,-2.1,-1,-2.1,-2.1l0,-122c0,-1.2,0.9,-2.1,2.1,-2.1c1.2,0,2.1,0.9,2.1,2.1l0,122c0,1.1,-0.9,2.1,-2.1,2.1Z" class="g1_1" />
<path d="M332.4,551.5c15.3,0,26.1,-11.2,26.1,-26.6c0,-15.3,-10.8,-26.4,-26.1,-26.4l-14,0l0,53ZM307.7,490.6c0,-1.1,0.9,-2,1.9,-2l23.9,0c20.1,0,36.5,16.3,36.5,36.3c0,20.1,-16.4,36.5,-36.5,36.5l-23.9,0c-1,0,-1.9,-1,-1.9,-2Z" class="g1_1" />
<path d="M378.4,490.6c0,-1.1,0.8,-2,1.9,-2l41.6,0c1.2,0,2,0.9,2,2l0,5.8c0,1,-0.8,1.9,-2,1.9l-32.8,0l0,21.3l27.7,0c1.1,0,2,0.9,2,1.9l0,5.9c0,1.1,-0.9,1.9,-2,1.9l-27.7,0l0,22.4l32.8,0c1.2,0,2,0.9,2,2l0,5.7c0,1,-0.8,2,-2,2l-41.6,0c-1.1,0,-1.9,-1,-1.9,-2Z" class="g1_1" />
<path d="M436.2,491.1c0,-1.4,1,-2.5,2.5,-2.5l6,0c1.4,0,2.5,1.1,2.5,2.5l0,28.8l29.3,-30.3c0.4,-0.5,1.2,-1,2,-1l7.8,0c1.9,0,2.9,2.2,1.5,3.7l-30.1,30.6l31.8,35c0.9,1.1,0.3,3.5,-1.8,3.5l-8.4,0c-1,0,-1.6,-0.4,-1.8,-0.8L447.2,526.5l0,32.4c0,1.3,-1.1,2.5,-2.5,2.5l-6,0c-1.5,0,-2.5,-1.2,-2.5,-2.5Z" class="g1_1" />
<path d="M498.7,491.1c0,-1.4,1,-2.5,2.5,-2.5l6,0c1.4,0,2.5,1.1,2.5,2.5l0,28.8L539,489.6c0.4,-0.5,1.2,-1,2,-1l7.8,0c1.9,0,2.9,2.2,1.5,3.7l-30.1,30.6l31.8,35c0.9,1.1,0.3,3.5,-1.8,3.5l-8.4,0c-1,0,-1.6,-0.4,-1.8,-0.8L509.7,526.5l0,32.4c0,1.3,-1.1,2.5,-2.5,2.5l-6,0c-1.5,0,-2.5,-1.2,-2.5,-2.5Z" class="g1_1" />
<path d="M588.1,552.3c14.9,0,27,-12.4,27,-27.2c0,-14.8,-12.1,-27.5,-27,-27.5c-14.8,0,-26.9,12.7,-26.9,27.5c0,14.8,12.1,27.2,26.9,27.2m0,-64.8c20.8,0,37.4,16.8,37.4,37.6c0,20.8,-16.6,37.3,-37.4,37.3c-20.8,0,-37.3,-16.5,-37.3,-37.3c0,-20.8,16.5,-37.6,37.3,-37.6Z" class="g1_1" />
<path d="M403.5,968.5l128,0" class="g2_1" />
<path d="M403.5,1011.5l128,0" class="g2_1" />
</svg>