<?xml version="1.0" encoding="UTF-8" standalone="no"?>
<!DOCTYPE svg PUBLIC "-//W3C//DTD SVG 1.1//EN"
"http://www.w3.org/Graphics/SVG/1.1/DTD/svg11.dtd">
<svg version="1.1" xmlns="http://www.w3.org/2000/svg" xmlns:xlink="http://www.w3.org/1999/xlink">
<defs>
<style type="text/css"><![CDATA[
.g16_2{
fill: #FFFFFF;
stroke: #FFFFFF;
stroke-width: 6;
stroke-linecap: round;
stroke-linejoin: round;
stroke-miterlimit: 2;
}
.g2_2{
fill: none;
stroke: #FFFFFF;
stroke-width: 3;
stroke-linecap: round;
stroke-linejoin: miter;
stroke-miterlimit: 2;
}
.g19_2{
fill: #999999;
}
.g15_2{
stroke: #FFFFFF;
stroke-width: 1;
stroke-linecap: round;
stroke-linejoin: round;
stroke-miterlimit: 2;
}
.g3_2{
fill: #FFFFFF;
stroke: #000000;
stroke-width: 2;
stroke-linecap: butt;
stroke-linejoin: miter;
stroke-miterlimit: 2;
}
.g18_2{
fill: #D4D4D4;
}
.g1_2{
fill: #B3B3B3;
}
.g7_2{
fill: #636363;
stroke: #000000;
stroke-width: 1;
stroke-linecap: butt;
stroke-linejoin: miter;
stroke-miterlimit: 2;
}
.g9_2{
fill: none;
stroke: #000000;
stroke-width: 2;
stroke-linecap: round;
stroke-linejoin: round;
stroke-miterlimit: 2;
}
.g13_2{
fill: #FFFFFF;
stroke: #FFFFFF;
stroke-width: 2;
stroke-linecap: round;
stroke-linejoin: round;
stroke-miterlimit: 2;
}
.g12_2{
fill: #FFFFFF;
stroke: #000000;
stroke-width: 2;
stroke-linecap: round;
stroke-linejoin: round;
stroke-miterlimit: 2;
}
.g5_2{
fill: none;
stroke: #000000;
stroke-width: 2;
stroke-linecap: butt;
stroke-linejoin: miter;
stroke-miterlimit: 2;
}
.g10_2{
fill: #808080;
stroke: #000000;
stroke-width: 1;
stroke-linecap: round;
stroke-linejoin: round;
stroke-miterlimit: 2;
}
.g20_2{
fill: none;
stroke: #000000;
stroke-width: 8;
stroke-linecap: round;
stroke-linejoin: round;
stroke-miterlimit: 2;
}
.g4_2{
fill: none;
stroke: #000000;
stroke-width: 1;
stroke-linecap: butt;
stroke-linejoin: miter;
stroke-miterlimit: 2;
}
.g11_2{
fill: #FFFFFF;
}
.g17_2{
fill: #636363;
stroke: #000000;
stroke-width: 2;
stroke-linecap: round;
stroke-linejoin: round;
stroke-miterlimit: 2;
}
.g14_2{
fill: none;
stroke: #FFFFFF;
stroke-width: 3;
stroke-linecap: round;
stroke-linejoin: round;
stroke-miterlimit: 2;
}
.g21_2{
fill: none;
stroke: #FFFFFF;
stroke-width: 5;
stroke-linecap: round;
stroke-linejoin: round;
stroke-miterlimit: 2;
}
.g6_2{
}
.g8_2{
fill: none;
stroke: #000000;
stroke-width: 1;
stroke-linecap: round;
stroke-linejoin: round;
stroke-miterlimit: 2;
}
]]></style>
</defs>
<path fill-rule="evenodd" d="M55,54l824,0l0,1101l-824,0Z" class="g1_2" />
<path d="M55.5,256.5l27,0" class="g2_2" />
<path d="M55.5,430.5l27,0" class="g2_2" />
<path d="M55.5,605.5l27,0" class="g2_2" />
<path d="M55.5,779.5l27,0" class="g2_2" />
<path d="M55.5,953.5l27,0" class="g2_2" />
<path d="M852.5,256.5l28,0" class="g2_2" />
<path d="M852.5,605.5l28,0" class="g2_2" />
<path d="M852.5,779.5l28,0" class="g2_2" />
<path d="M852.5,953.5l28,0" class="g2_2" />
<path d="M236.5,82.5l0,-27" class="g2_2" />
<path d="M390.5,82.5l0,-27" class="g2_2" />
<path d="M544.5,82.5l0,-27" class="g2_2" />
<path d="M698.5,82.5l0,-27" class="g2_2" />
<path d="M236.5,1155.5l0,-28" class="g2_2" />
<path d="M390.5,1155.5l0,-28" class="g2_2" />
<path d="M544.5,1155.5l0,-28" class="g2_2" />
<path d="M698.5,1155.5l0,-28" class="g2_2" />
<path fill-rule="evenodd" d="M82,82l770,0l0,1045l-770,0Z" class="g3_2" />
<path d="M184.5,209.5l646,0" class="g4_2" />
<path d="M103.5,278.5l727,0" class="g4_2" />
<path d="M82,1097l770,0" class="g5_2" />
<path d="M466.5,1099.5l0,28" class="g4_2" />
<path d="M468.5,1099.5l0,28" class="g4_2" />
<path d="M272.5,1099.5l0,28" class="g4_2" />
<path d="M274.5,1099.5l0,28" class="g4_2" />
<path d="M664.5,1099.5l0,28" class="g4_2" />
<path d="M666.5,1099.5l0,28" class="g4_2" />
<path fill-rule="evenodd" d="M106,289l37,0l0,38l-37,0Z" class="g6_2" />
<path fill-rule="evenodd" d="M103.5,287.5l38,0l0,37l-38,0Z" class="g7_2" />
<path d="M103.5,673.5l727,0" class="g4_2" />
<path d="M274.5,1099.5l192,0" class="g8_2" />
<path d="M468.5,1099.5l196,0" class="g8_2" />
<path d="M666.5,1099.5l186,0" class="g8_2" />
<path d="M272.5,1099.5l-190,0" class="g8_2" />
<path d="M852.5,430.5l28,0" class="g2_2" />
<path fill-rule="evenodd" d="M106,683l37,0l0,38l-37,0Z" class="g6_2" />
<path fill-rule="evenodd" d="M103.5,681.5l38,0l0,38l-38,0Z" class="g7_2" />
<path d="M189.8,220.3c0.1,-0.1,0.3,-0.2,0.4,-0.3" class="g8_2" />
<path d="M190.2,220c0.3,-0.1,0.7,-0.1,1.1,-0.1c0.6,0.2,1.2,0.5,2,1.1c6.3,-1.6,12.2,-2.7,18.1,-3.4c5.8,-0.5,11.2,-0.6,16.5,-0.2" class="g8_2" />
<path d="M228.6,217.7c-0.3,-0.5,-0.9,-0.9,-1.7,-1.2c-0.8,-0.2,-1.8,-0.4,-3,-0.4c-7.2,-0.2,-13.6,0.1,-19.2,0.7c-5.6,0.7,-10.5,1.8,-14.5,3.2" class="g9_2" />
<path d="M187.3,228.5c1,0.7,2.1,1.4,3.2,2c1.1,0.6,2.2,1.1,3.4,1.5c3.8,-0.5,7.6,-1,11.4,-1.4" class="g8_2" />
<path d="M205.3,230.6c0.3,-0.1,0.6,-0.1,0.9,-0.2c0,-0.4,0,-0.9,0,-1.4c-0.4,-0.3,-0.7,-0.6,-0.9,-0.9c-0.1,-0.3,-0.2,-0.5,-0.2,-0.8c0.2,-1.2,0.7,-2.1,1.3,-2.7c0.7,-0.6,1.6,-1,2.7,-1c1.3,-0.1,2.2,-0.1,3,0c0.7,0.2,1.1,0.5,1.2,0.9c0.9,-0.1,2,-0.2,3.3,-0.4c1.4,-0.3,3,-0.6,4.7,-1.1c1.1,-0.3,1.9,-0.3,2.5,0.1" class="g9_2" />
<path d="M223.8,223.1c0.6,0.4,0.9,1.2,1,2.4c0.1,1,0.2,2.1,0.3,3.2" class="g8_2" />
<path d="M189.8,220.3c-0.4,2,-0.8,3.9,-1.3,5.9c0,0.3,-0.2,0.5,-0.4,0.6c-0.2,0.2,-0.4,0.2,-0.7,0.2c0,0.5,-0.1,1,-0.1,1.5" class="g9_2" />
<path d="M193.3,221.1c-0.1,2.4,-0.1,4.9,-0.2,7.4c0,0.3,0.1,0.7,0.2,1c0.2,0.4,0.4,0.7,0.7,1.1" class="g8_2" />
<path d="M194.1,230.6l12.1,-1.5" class="g8_2" />
<path d="M194.1,230.6L193.5,243" class="g8_2" />
<path d="M225.1,228.7c0,1,0.2,1.7,0.5,2.2c0.3,0.4,0.9,0.6,1.5,0.6" class="g8_2" />
<path d="M222.2,222.9c0.2,1.3,0.4,2.6,0.6,3.9c0.1,0.9,0,1.6,-0.4,2.1c-0.4,0.6,-1.2,0.9,-2.2,1.1c-4.1,0.7,-8.3,1.5,-12.5,2.2" class="g9_2" />
<path d="M224.4,230.2l-1.6,-1" class="g8_2" />
<path fill-rule="evenodd" d="M195.2,222.9c-0.1,0.5,0.1,1,0.5,1c0.3,0.1,0.6,-0.2,0.7,-0.7c0.1,-0.5,-0.1,-1,-0.4,-1c-0.3,-0.1,-0.7,0.3,-0.8,0.7Z" class="g10_2" />
<path fill-rule="evenodd" d="M194.8,228.1c0,0.5,0.1,0.9,0.5,1c0.3,0,0.6,-0.3,0.7,-0.8c0.1,-0.5,-0.1,-0.9,-0.4,-1c-0.3,-0.1,-0.7,0.3,-0.8,0.8Z" class="g10_2" />
<path fill-rule="evenodd" d="M205,222.4c-0.1,0.5,0.1,1,0.4,1.1c0.3,0,0.7,-0.3,0.8,-0.8c0.1,-0.5,-0.1,-0.9,-0.4,-1c-0.4,-0.1,-0.7,0.3,-0.8,0.7Z" class="g10_2" />
<path d="M227.2,222.3c0,-1,-0.3,-1.6,-0.9,-2.1c-0.7,-0.4,-1.7,-0.6,-3.1,-0.5c-1.7,-0.1,-3.8,-0.1,-6.5,0c-2.6,0.1,-5.7,0.3,-9.4,0.6c-1.2,0.1,-2.1,0.5,-2.6,1.1c-0.5,0.7,-0.7,1.5,-0.5,2.8c0.2,0.8,0.4,1.5,0.5,2.2" class="g8_2" />
<path d="M205.6,225.9c0.7,-0.1,1.5,0,2.1,0.2c0.7,0.3,1.3,0.7,1.8,1.3c0.5,-0.9,0.9,-1.8,1.3,-2.6" class="g9_2" />
<path d="M208.2,223.7c1.2,0.2,2.1,0.6,2.6,1.1c0.6,0.4,1,1,1.1,1.6" class="g8_2" />
<path d="M211.9,226.4c0.2,-0.5,0.4,-1,0.6,-1.3c0.3,-0.3,0.6,-0.5,0.9,-0.6" class="g9_2" />
<path d="M211.9,226.4l-1.4,-0.8" class="g9_2" />
<path d="M209.5,227.4l-1.7,-0.9" class="g8_2" />
<path d="M207,225.9c0.3,0.2,0.6,0.5,0.9,0.7" class="g8_2" />
<path d="M208,248.3c0.3,-0.2,0.7,-0.5,1,-0.7c7.2,-1.6,14.5,-3.3,21.7,-4.9c0,0,1.9,-1.2,2.3,-2.7c0,-1.8,0.1,-3.6,0.1,-5.4c-0.3,-2.4,-2.3,-4,-2.3,-4c-0.3,-0.4,-0.3,-0.6,-0.4,-0.9c-0.2,-0.3,-0.3,-0.8,-0.4,-1.2c0,0,-1.4,-10.7,-1.4,-10.7" class="g9_2" />
<path d="M205.3,230.6c0.2,3.8,0.1,8.2,-0.1,13.1c-0.3,4.9,-0.8,10.3,-1.5,16.2" class="g9_2" />
<path d="M203.7,259.9l-3.1,0.7" class="g8_2" />
<path d="M233,234.7l-23.9,4.9" class="g8_2" />
<path d="M209.1,239.6c0,-1.1,0,-2.3,0,-3.5c0,-0.1,0,-0.1,-0.1,-0.2c0,0,-0.1,-0.1,-0.2,-0.1c-0.3,-0.1,-0.5,-0.2,-0.6,-0.4c-0.2,-0.2,-0.3,-0.5,-0.3,-0.8c0,-1.1,-0.2,-2.1,-0.5,-2.9c-0.3,-0.9,-0.7,-1.6,-1.2,-2.1" class="g9_2" />
<path d="M233,240l-28,5.9" class="g8_2" />
<path d="M205,245.9c0.2,-0.1,0.3,-0.2,0.3,-0.3c0.1,-0.1,0.2,-0.2,0.2,-0.4c0,-1.6,0.1,-3.2,0.2,-4.8c0,-1.2,0,-2.4,0,-3.6c0,0,-0.1,-0.1,-0.1,-0.1c0,-0.1,-0.1,-0.1,-0.2,-0.2" class="g8_2" />
<path d="M208.9,236l-3.1,0.7" class="g8_2" />
<path d="M207.8,235.4l-2.2,0.5" class="g8_2" />
<path d="M216.8,230.7c1.6,0.1,2.9,0.7,3.8,1.6c0.9,0.9,1.5,2.3,1.8,4c0,0.1,0.1,0.3,0.1,0.3c0.1,0.1,0.1,0.2,0.2,0.2" class="g8_2" />
<path d="M222.3,242.3c-0.2,0.7,-0.7,1.3,-1.3,1.8c-0.7,0.6,-1.7,1.1,-2.9,1.4" class="g8_2" />
<path d="M222.8,236.8l-0.1,5.3" class="g8_2" />
<path d="M227.7,231.3l2.2,-0.5" class="g8_2" />
<path d="M225,230.9c0,0.3,-0.2,0.6,-0.4,0.7c-0.1,0.2,-0.4,0.3,-0.7,0.3c-0.7,0.2,-1.4,0.3,-2.2,0.5" class="g8_2" />
<path d="M220.1,232.8l-11.3,2" class="g8_2" />
<path d="M202.2,231.1c0.2,3.8,0.1,8.2,-0.1,13.1c-0.3,4.9,-0.8,10.4,-1.5,16.4" class="g8_2" />
<path d="M203.9,258.8l2.9,-0.7" class="g8_2" />
<path d="M206.8,258.1c0.4,-1.1,0.8,-2.4,1,-3.8c0.2,-1.4,0.3,-3.1,0.3,-4.8c-0.1,-0.7,-0.1,-1.4,0,-2c0.1,-0.6,0.4,-1.1,0.7,-1.5" class="g9_2" />
<path d="M209.5,247.6c0.8,0.3,1.4,1.6,1.5,3.2c0.2,1.9,-0.4,3.6,-1.4,3.6c-0.6,0.3,-1.2,0.5,-1.9,0.8" class="g9_2" />
<path d="M210.9,252.9l7.2,4.3" class="g9_2" />
<path d="M218.1,257.2l-25.3,6.2" class="g8_2" />
<path d="M192.8,263.4l-4.3,-2.9" class="g8_2" />
<path d="M190.6,271.7l-0.2,-0.1" class="g8_2" />
<path d="M193.8,251.7l0,1.6l-2.8,0.5l-1.1,-0.5" class="g9_2" />
<path d="M187.6,252.1c0,-1.7,0,-3.4,0,-5.1c-0.1,-0.8,-0.2,-1.7,-0.2,-2.6c0,-0.9,-0.1,-2,-0.1,-3c0,-0.2,-0.1,-0.5,-0.1,-0.6c-0.1,-0.2,-0.1,-0.4,-0.2,-0.5c-0.1,-0.1,-0.2,-0.2,-0.3,-0.4c0,-0.2,-0.1,-0.4,-0.1,-0.7c0.1,-1.1,0.1,-2.5,0.2,-4.3c0.1,-1.8,0.3,-3.9,0.4,-6.4" class="g9_2" />
<path d="M190.9,253.8c0,-1.7,0,-3.3,0,-5c0.3,-0.7,0.5,-1.5,0.7,-2.3c0.2,-0.9,0.4,-1.8,0.5,-2.7c0.1,-0.2,0.2,-0.4,0.2,-0.5" class="g8_2" />
<path d="M192.3,243.3c0.2,-0.1,0.3,-0.1,0.5,-0.1c0.2,0.1,0.4,0.2,0.6,0.2c0.3,0.1,0.5,0.1,0.9,0" class="g9_2" />
<path d="M187.6,247l3.4,1.7l7.3,-1l1.4,-4.5" class="g8_2" />
<path d="M187.6,252.1l0.8,0.4l1.3,-0.1" class="g9_2" />
<path d="M187.1,259.4L183,256.7" class="g8_2" />
<path d="M188.5,252.5l0,-1" class="g8_2" />
<path d="M189,253l0,-1" class="g9_2" />
<path d="M188.4,251.6c0.1,-0.4,0.3,-0.7,0.6,-0.8" class="g8_2" />
<path d="M189,250.8c0.3,-0.1,0.7,0.4,0.9,1c0,0.2,0,0.4,0,0.5" class="g9_2" />
<path d="M200.4,259.7L199,260" class="g8_2" />
<path d="M199,260c0.3,-2.7,0.6,-5.5,0.8,-8.2c0.2,-2.7,0.3,-5.4,0.3,-8.1c0,-0.2,-0.1,-0.5,-0.2,-0.8" class="g8_2" />
<path d="M199.9,242.9c-0.3,0,-0.6,0,-1,0c-1.5,0.1,-3.1,0.3,-4.6,0.5" class="g9_2" />
<path d="M199,260l-1.2,-0.8" class="g8_2" />
<path d="M198.3,247.7c0,0.7,0,2.1,-0.1,4c-0.1,1.9,-0.2,4.4,-0.4,7.5" class="g8_2" />
<path d="M200.6,260.6c-0.1,0,-0.2,-0.1,-0.3,-0.1c0,0,-0.1,-0.1,-0.1,-0.1" class="g8_2" />
<path d="M201.9,231c0.1,3.8,0.1,8,-0.2,12.9c-0.2,5,-0.7,10.4,-1.4,16.4" class="g8_2" />
<path d="M213.7,256.3l-3.5,-2.1" class="g8_2" />
<path d="M209.7,257.2l-2.2,-1.3" class="g8_2" />
<path d="M212.3,256.8l-3.4,-2.1" class="g9_2" />
<path d="M208.2,257.6l-1,-0.6" class="g9_2" />
<path d="M213.7,256.4l-1.4,0.4" class="g9_2" />
<path d="M209.8,257.3l-1.6,0.4" class="g9_2" />
<path fill-rule="evenodd" d="M230.4,232.6c0.3,0.6,0.2,1.1,0,1.3c-0.3,0.1,-0.8,-0.2,-1.1,-0.7c-0.3,-0.6,-0.3,-1.2,0,-1.3c0.3,-0.2,0.8,0.2,1.1,0.7Z" class="g10_2" />
<path d="M187.1,259.4l3.2,-0.7" class="g8_2" />
<path d="M192.1,258.3l0.9,-0.2" class="g8_2" />
<path d="M193.8,251.7c0,-0.2,0.1,-0.4,0.1,-0.6c0.3,-0.8,1,-1.3,1.7,-1.1" class="g9_2" />
<path d="M195.6,250c0.4,0.1,0.7,0.6,0.7,1.1c0.1,2,0.2,4,0.4,6.1c0,0.4,0.2,0.8,0.3,1.1c0.2,0.2,0.5,0.4,0.8,0.5" class="g8_2" />
<path d="M197.2,258.5L193.5,256" class="g8_2" />
<path d="M192.2,254.4c0.6,0.2,1.2,0.6,1.2,1" class="g9_2" />
<path d="M193.4,255.4c0,0.5,-1,1,-2.3,1c-1.3,0,-2.3,-0.5,-2.3,-1" class="g8_2" />
<path d="M188.8,255.4c0,-0.4,0.6,-0.8,1.3,-1" class="g9_2" />
<path d="M188.5,255.5l0,1" class="g8_2" />
<path d="M189,257.3c0.4,0.4,1.2,0.6,2.1,0.6c0.6,0,1.2,-0.1,1.6,-0.3" class="g9_2" />
<path d="M193.5,256.5l0,-1" class="g8_2" />
<path d="M190.1,253.3c0,0.7,0,1.3,0,2c0,0.3,0.4,0.5,1,0.5c0.6,0,1.1,-0.2,1.1,-0.5c0,-0.6,0,-1.1,0,-1.7" class="g8_2" />
<path d="M190,257l0,3" class="g9_2" />
<path d="M192.5,257.5l0,2" class="g8_2" />
<path d="M190.5,263.5l0,8" class="g8_2" />
<path d="M192.2,263.7l0,5.7l-1.6,2.4" class="g9_2" />
<path d="M192.9,258.1c0.2,0,0.4,-0.1,0.7,-0.1c0.8,0,1.4,0.3,1.4,0.6" class="g8_2" />
<path d="M190.5,257.5l0,2" class="g8_2" />
<path d="M190,263l0,8" class="g9_2" />
<path d="M211.3,225.2c0.1,0.2,0.2,0.5,0.2,0.7" class="g8_2" />
<path d="M211.4,225.9l-0.9,-0.5" class="g8_2" />
<path d="M189,256c0.2,0,0.4,0.2,0.5,0.6c0.1,0.3,-0.1,0.6,-0.3,0.7" class="g8_2" />
<path d="M188.4,256.2c0.2,-0.1,0.5,0.2,0.5,0.5c0.1,0.4,0,0.7,-0.3,0.7" class="g8_2" />
<path d="M193.1,256.4c-0.3,-0.2,-0.7,-0.1,-0.9,0.2c-0.2,0.3,-0.1,0.6,0.1,0.8" class="g8_2" />
<path d="M192.8,257.7c0.2,0.1,0.6,0,0.8,-0.2c0.2,-0.3,0.1,-0.7,-0.1,-0.9" class="g9_2" />
<path d="M193.5,256.6c-0.2,-0.1,-0.6,0,-0.8,0.3c-0.2,0.3,-0.2,0.6,0.1,0.8" class="g8_2" />
<path d="M193.5,256.7l-0.4,-0.3" class="g8_2" />
<path d="M192.7,257.6l-0.4,-0.2" class="g8_2" />
<path d="M192.8,263.3l-3,-1l-4.3,-2.9" class="g8_2" />
<path d="M187.1,259.4l-3,-1l-4.2,-2.8" class="g8_2" />
<path d="M213.3,256.5l-3.6,-2.1" class="g8_2" />
<path d="M209.3,257.4l-1.9,-1.2" class="g8_2" />
<path d="M189.8,262.3l-0.2,0.4" class="g8_2" />
<path d="M184.1,258.4l-0.2,0.4" class="g8_2" />
<path d="M218.1,257.2c0,0.2,0,0.3,0,0.5c-8.4,2,-16.9,4,-25.3,6.1c-1,-0.3,-2.1,-0.7,-3.2,-1c-1.4,-1,-2.9,-2,-4.3,-3c0,-0.1,0.1,-0.2,0.2,-0.4c1,0.3,2,0.6,3,1c2,-0.4,3.9,-0.8,5.9,-1.3c0.3,-0.1,0.6,-0.3,0.6,-0.5" class="g9_2" />
<path d="M188.7,255.4l-5.7,1.3l0,-0.1l-3,-1l-0.1,0.1l-0.2,0.4l4.1,2.8l1.6,0.5" class="g9_2" />
<path d="M187.1,259.9l3.2,-0.8" class="g8_2" />
<path d="M192.2,258.7c0.2,-0.1,0.5,-0.1,0.8,-0.2c0.1,0,0.4,-0.1,0.6,-0.1c0.6,0,1,0.2,1.2,0.3" class="g8_2" />
<path d="M189.2,257.3c-0.2,0,-0.3,0.1,-0.5,0.1l-0.1,0c-0.2,0.1,-0.4,-0.2,-0.5,-0.5c-0.1,-0.4,0.1,-0.7,0.3,-0.7c0,0,-0.1,-0.1,-0.1,-0.1c0.2,0,0.5,0,0.7,-0.1" class="g9_2" />
<path d="M229.3,237.3l0.7,-0.2l0,-0.7" class="g8_2" />
<path d="M230,237.1l0.2,0.1" class="g8_2" />
<path d="M230.5,236.9l0.7,-0.1l0,-0.7" class="g8_2" />
<path d="M231.2,236.8l0.2,0.1" class="g8_2" />
<path d="M231.8,236.7l0.6,-0.2l0,-0.7" class="g8_2" />
<path d="M232.4,236.5l0.2,0.2" class="g8_2" />
<path d="M231.8,238l0.6,-0.2l0,-0.6" class="g8_2" />
<path d="M232.4,237.9l0.2,0.1" class="g8_2" />
<path d="M231.8,239.4l0.6,-0.2l0,-0.7" class="g8_2" />
<path d="M232.4,239.2l0.2,0.2" class="g8_2" />
<path d="M230.5,239.6l0.7,-0.1l0,-0.7" class="g8_2" />
<path d="M231.2,239.5l0.2,0.1" class="g8_2" />
<path d="M230.5,238.3l0.6,-0.2l0,-0.7" class="g8_2" />
<path d="M231.2,238.2l0.2,0.1" class="g8_2" />
<path d="M229.3,238.6l0.7,-0.2l0,-0.7" class="g8_2" />
<path d="M230,238.4l0.2,0.2" class="g8_2" />
<path d="M229.3,239.9l0.6,-0.1l0,-0.7" class="g8_2" />
<path d="M229.9,239.8l0.2,0.1" class="g8_2" />
<path d="M194.3,229.7l10.6,-1.2" class="g8_2" />
<path fill-rule="evenodd" d="M268.3,247.2c11.4,-6.5,22.8,-13.1,34.2,-19.8c0.4,-0.5,0.9,-1.1,1.3,-1.7c0.2,-0.2,0.2,-0.4,0.2,-0.5C303.9,225,303.7,225,303.5,225c-0.8,0,-1.5,0.1,-2.3,0.2c-11.3,6.5,-22.6,13.1,-33.9,19.6c0.3,0.8,0.6,1.6,1,2.4Z" class="g11_2" />
<path d="M259.9,252.1c14.2,-8.3,28.4,-16.5,42.6,-24.7c0.4,-0.5,0.9,-1.1,1.3,-1.7c0.2,-0.2,0.2,-0.4,0.2,-0.5C303.9,225,303.7,225,303.5,225c-0.8,0,-1.5,0.1,-2.3,0.2C287.1,233.3,273,241.4,259,249.6" class="g9_2" />
<path d="M301.8,227.3c0.2,-0.5,0.5,-0.8,0.8,-1.1c0.3,-0.3,0.7,-0.5,1.2,-0.6" class="g8_2" />
<path d="M300.8,225.9c0.5,0,1.1,-0.1,1.5,-0.3c0.5,-0.1,0.9,-0.3,1.3,-0.6" class="g8_2" />
<path fill-rule="evenodd" d="M271.6,238.4c-0.7,0.3,-1.3,0.7,-1.9,1.1c-0.4,0.2,-0.7,0.5,-0.9,0.8c-0.2,0.3,-0.4,0.7,-0.5,1.2c0,0.3,0,0.5,-0.1,0.6c-0.1,0.1,-0.3,0.2,-0.5,0.1c-0.6,-0.5,-1.4,-0.8,-2,-0.8c-0.6,-0.1,-1.4,0,-2,0.3c-6.8,3.9,-13.7,7.9,-20.5,11.8c-1.5,1.5,-2.4,2.9,-2.6,4.3c-0.2,1.5,0.2,2.9,1.1,4.2c1.2,1.4,2.6,2.3,3.9,2.5c1.4,0.2,3,-0.1,4.6,-1.1c6.4,-3.7,12.8,-7.4,19.2,-11.1c0.7,-0.6,1.2,-1.2,1.5,-1.9c0.3,-0.6,0.4,-1.4,0.4,-2.1c0,-0.3,0.2,-0.5,0.3,-0.6c0.1,0,0.3,0.1,0.5,0.3c0.4,0.2,0.8,0.4,1.1,0.4c0.4,0,0.8,-0.1,1.1,-0.2c0.7,-0.4,1.5,-0.9,2.2,-1.3c0.7,-0.7,1,-1.5,0.9,-2.5c0,-1,-0.5,-2.2,-1.3,-3.4c-0.8,-1.1,-1.6,-1.9,-2.3,-2.3c-0.8,-0.5,-1.5,-0.6,-2.2,-0.3Z" class="g11_2" />
<path d="M268.4,242.1c-0.1,-1.1,0.3,-2,1,-2.4c0.6,-0.4,1.4,-0.8,2.1,-1.2c1.3,-0.8,3.5,0.5,4.9,2.8c1.3,2.3,1.3,4.9,0,5.6c-0.7,0.4,-1.4,0.9,-2.1,1.3c-0.8,0.4,-1.8,0.2,-2.8,-0.4" class="g9_2" />
<path d="M270.9,248.7c-0.1,-1.1,-0.5,-2.3,-1.2,-3.6c-0.5,-0.9,-1.2,-1.7,-1.9,-2.3" class="g8_2" />
<path d="M271.4,247.2c-0.1,-0.7,-0.3,-1.7,-0.8,-2.5c-0.5,-0.9,-1.2,-1.6,-1.8,-2" class="g8_2" />
<path d="M272.8,247.7c-0.5,-0.2,-0.9,-0.2,-1.1,-0.1c-0.2,0,-0.4,0.3,-0.4,0.5c0,0.9,-0.1,1.8,-0.4,2.4c-0.3,0.7,-0.8,1.3,-1.4,1.6c-6.8,4,-13.6,7.9,-20.5,11.9c-0.9,0.4,-1.5,0.6,-2.4,0.6c-3.3,0,-6,-2.7,-6,-6c0,-1.9,1.1,-3.8,2.6,-4.9c6.7,-4,13.6,-7.9,20.4,-11.9c0.5,-0.3,1.2,-0.4,1.8,-0.4c0.7,0.1,1.5,0.4,2.3,0.8c0.3,0.1,0.7,0.1,0.9,0.1c0.2,-0.1,0.4,-0.5,0.5,-0.9" class="g9_2" />
<path d="M244.1,253.7c1.6,0.2,3.4,1.5,4.6,3.7c1.2,2,1.5,4.1,1.1,5.6" class="g8_2" />
<path d="M273.8,248.1c1.1,-0.9,1,-3.1,-0.2,-5.2c-1.2,-2.1,-3.1,-3.3,-4.4,-2.8" class="g8_2" />
<path d="M247,253.8L265.5,243" class="g8_2" />
<path d="M248.8,254.8l17.9,-10.6" class="g8_2" />
<path d="M250.8,258.5l18.1,-11" class="g8_2" />
<path d="M251.1,260.6l18.1,-11" class="g8_2" />
<path d="M248.8,254.8c-0.7,0.5,-2.9,0,-1.8,-1" class="g8_2" />
<path d="M250.8,258.5c-1.1,0.7,-1,2.7,0.3,2.1" class="g8_2" />
<path d="M269.2,249.6c1.1,-0.6,1.3,-3.1,-0.3,-2.1" class="g8_2" />
<path d="M266.7,244.2c1.1,-0.7,0,-1.9,-1.2,-1.2" class="g8_2" />
<path d="M159.4,497.3l-8.8,-5.2" class="g8_2" />
<path d="M468.9,331.9l17.3,-8.6l70.5,44l5.5,3.5" class="g9_2" />
<path d="M150.6,492.1L468.9,331.9" class="g9_2" />
<path d="M557.6,460.1l0.3,23.7" class="g9_2" />
<path d="M538.2,449.5l1.5,-0.8l10.7,6.8" class="g9_2" />
<path d="M552.8,462.5l0.1,11.2l-1.5,0.7" class="g9_2" />
<path d="M538.2,449.5l0.3,17.1l12.9,7.8" class="g8_2" />
<path d="M539.8,448.7l0.2,17.2l12.9,7.8" class="g8_2" />
<path d="M538.5,466.6l1.5,-0.7" class="g8_2" />
<path d="M524.8,459.8c-0.8,0.4,-1.9,-0.4,-2.6,-1.6c-0.6,-1.3,-0.5,-2.7,0.3,-3.1" class="g8_2" />
<path d="M522.5,455.1c0.7,-0.3,1.8,0.4,2.5,1.7c0.6,1.3,0.5,2.6,-0.2,3" class="g8_2" />
<path d="M487.5,440.5l0,-101" class="g8_2" />
<path d="M490.2,424.7l1.7,-0.9l13,7.8l0.1,17.2l-1.6,1" class="g9_2" />
<path d="M490.2,424.7l0,17.1l13.2,8" class="g8_2" />
<path d="M492,423.8l0,17.1l13.2,8" class="g8_2" />
<path d="M492,440.9l-1.8,0.9" class="g8_2" />
<path d="M495.8,437.9c1,-0.7,2.5,-1.3,3.2,-1.1" class="g9_2" />
<path d="M499,430.6c-0.7,-0.1,-2.2,0.5,-3.2,1.2" class="g9_2" />
<path d="M495,431l0,6" class="g9_2" />
<path d="M499,430l0,6" class="g9_2" />
<path d="M499.1,439.4c0.2,0.4,0.6,0.8,1.2,1.2" class="g8_2" />
<path d="M499.1,436.8c-0.3,1,-0.3,1.9,0,2.6" class="g9_2" />
<path d="M501.7,442.3l-6.4,-3.9l0,-7.8l0.9,0.5" class="g9_2" />
<path d="M499.6,433.3l2.1,1.2l0.1,7.8" class="g8_2" />
<path d="M500,440l0,-6" class="g9_2" />
<path d="M499.3,433.6c0.2,0.3,0.6,0.6,1,0.8" class="g9_2" />
<path d="M287.7,531.3c-1,-0.5,-1.5,-1.7,-1.4,-3.2" class="g8_2" />
<path d="M290,531.1c-0.9,0.4,-1.7,0.5,-2.3,0.2" class="g9_2" />
<path d="M559.8,485l0,9.5c0,0,0.2,1.7,-1.9,2.8C555.8,498.3,230.7,656,230.7,656c0,0,-1.2,0.8,-2.4,0C227,655.2,158.7,616.3,158.7,616.3c0,0,-1.6,-0.7,-1.6,-2.1c0,-1.5,0.3,-9.9,0.3,-9.9L487.2,441.6l0.7,0.4" class="g9_2" />
<path d="M487.9,442l0.8,-0.4L559.8,485" class="g9_2" />
<path d="M488,454c-0.6,-0.5,-0.7,-1,-0.8,-1.8c-0.2,-0.9,0,-10.6,0,-10.6" class="g8_2" />
<path d="M488.8,441.6c0,0,0.1,9.7,0,10.6c-0.2,0.8,-0.3,1.3,-0.8,1.8" class="g8_2" />
<path d="M487.9,442l0.1,12" class="g8_2" />
<path d="M489.2,453.6l69.1,41.8" class="g8_2" />
<path d="M159.8,613.6L485.9,453.8" class="g8_2" />
<path d="M158.9,603.5l2.8,-93.4" class="g9_2" />
<path d="M162.1,492.8l0.3,-6.6" class="g9_2" />
<path d="M167.5,599.2l3.1,-117" class="g8_2" />
<path d="M168.2,598.8l3.1,-117" class="g8_2" />
<path d="M481.3,339c1.2,0.7,2.8,0.1,3.8,-1.7c0.9,-1.8,0.7,-3.5,-0.5,-4.2" class="g8_2" />
<path d="M484.6,332.8c-1.3,-0.7,-3,0.2,-4,1.9c-0.9,1.8,-0.7,3.8,0.5,4.5" class="g9_2" />
<path d="M482,339.6c1.3,0.7,3,-0.1,4,-1.9c0.9,-1.7,0.7,-3.7,-0.5,-4.4" class="g8_2" />
<path d="M484.6,332.8l0.9,0.5" class="g9_2" />
<path d="M481.1,339.2c0.1,0,0.9,0.4,0.9,0.4" class="g9_2" />
<path d="M480.9,337c0.3,-0.3,1.2,-1.1,1.3,0.6" class="g8_2" />
<path d="M482.4,333.9c0,1.7,0.8,1.1,1.2,0.8c0.3,-0.2,0.4,0.7,0.4,0.7" class="g8_2" />
<path d="M482.2,337.7l0.9,-0.4" class="g8_2" />
<path d="M483.1,337.3c-0.5,-1,-0.3,-1.5,0.9,-1.9" class="g8_2" />
<path d="M480.9,337l-0.1,-0.7" class="g8_2" />
<path d="M482.4,333.9c-0.6,0.3,-0.6,0.5,-0.6,0.5" class="g8_2" />
<path d="M480.8,336.3c0.7,-0.4,1.3,-0.9,1,-1.9" class="g8_2" />
<path d="M161,498.9c1.2,0.7,2.8,0.1,3.7,-1.6c1,-1.8,0.8,-3.6,-0.5,-4.3" class="g8_2" />
<path d="M164.2,492.8c-1.2,-0.7,-3,0.1,-3.9,1.9c-1,1.7,-0.7,3.7,0.5,4.5" class="g9_2" />
<path d="M161.7,499.6c1.2,0.7,3,-0.2,4,-1.9c0.9,-1.8,0.7,-3.8,-0.5,-4.5" class="g8_2" />
<path d="M164.2,492.8l1,0.4" class="g9_2" />
<path d="M160.8,499.2c0.1,0,0.9,0.4,0.9,0.4" class="g9_2" />
<path d="M160.6,497c0.2,-0.4,1.2,-1.1,1.2,0.5" class="g8_2" />
<path d="M162.1,493.9c-0.1,1.7,0.8,1,1.1,0.8c0.4,-0.2,0.5,0.7,0.5,0.7" class="g8_2" />
<path d="M161.9,497.7l0.8,-0.5" class="g8_2" />
<path d="M162.7,497.2c-0.4,-0.9,-0.3,-1.5,1,-1.8" class="g8_2" />
<path d="M160.6,497l-0.1,-0.7" class="g8_2" />
<path d="M162.1,493.9c-0.6,0.2,-0.6,0.4,-0.6,0.4" class="g8_2" />
<path d="M160.5,496.3c0.7,-0.5,1.2,-1,1,-2" class="g8_2" />
<path d="M317.8,532c1.3,0.7,2.8,0.1,3.8,-1.6c0.9,-1.8,0.7,-3.6,-0.5,-4.3" class="g8_2" />
<path d="M321.1,525.9c-1.3,-0.7,-3,0.1,-4,1.9c-0.9,1.7,-0.7,3.7,0.5,4.4" class="g9_2" />
<path d="M318.5,532.7c1.3,0.7,3,-0.2,4,-1.9c0.9,-1.8,0.7,-3.8,-0.5,-4.5" class="g8_2" />
<path d="M321.1,525.9l0.9,0.4" class="g9_2" />
<path d="M317.6,532.2c0.1,0.1,0.9,0.5,0.9,0.5" class="g9_2" />
<path d="M317.4,530.1c0.3,-0.4,1.2,-1.1,1.3,0.5" class="g9_2" />
<path d="M318.9,527c0,1.7,0.8,1,1.2,0.8c0.3,-0.2,0.4,0.7,0.4,0.7" class="g9_2" />
<path d="M318.7,530.8l0.9,-0.5" class="g9_2" />
<path d="M319.6,530.3c-0.5,-0.9,-0.3,-1.5,0.9,-1.8" class="g9_2" />
<path d="M317.4,530.1l-0.1,-0.7" class="g9_2" />
<path d="M318.9,527c-0.5,0.2,-0.6,0.4,-0.6,0.4" class="g9_2" />
<path d="M317.3,529.4c0.7,-0.5,1.3,-1,1,-2" class="g9_2" />
<path d="M356.5,493.7c0,1,-0.3,2.1,-0.9,3.3c-0.8,1.6,-2,2.9,-3.1,3.3" class="g9_2" />
<path d="M355.2,455c-0.7,-0.3,-1.5,-0.2,-2.3,0.2c-0.8,0.4,-45.5,22.7,-45.5,22.7" class="g8_2" />
<path d="M355.2,455c0.8,0.4,1.3,1.5,1.3,2.8" class="g9_2" />
<path d="M356.5,493.7l0,-35.9" class="g9_2" />
<path d="M289.7,531.2l63,-31" class="g9_2" />
<path d="M286.5,528.5l0,-15" class="g8_2" />
<path d="M355.5,455.2c-0.4,0,-0.9,0.2,-1.3,0.4c-0.8,0.4,-45.6,22.8,-45.6,22.8" class="g9_2" />
<path d="M288.3,531.4c-0.7,-0.5,-1.1,-1.7,-1,-3" class="g9_2" />
<path d="M287,528l0,-17" class="g9_2" />
<path d="M293.9,490.6l35.5,21.1" class="g8_2" />
<path d="M242.3,495.2c8.9,6.8,14.7,11.6,18.9,15.7c4.3,4.2,7.6,5.4,9.9,6.5c2.3,1.1,8.5,2.6,11.9,-0.1c3.3,-2.8,4.9,-6.6,7,-15.9c2.1,-9.3,4.5,-13.9,11.2,-16.3c6.7,-2.4,16.6,4.5,22.8,8.1c6.2,3.5,17,9.8,22.5,10.1" class="g9_2" />
<path d="M209.3,480.4l0,2.5c0,0,-0.1,0.9,0.9,1.5c0.9,0.6,13.9,8.3,13.9,8.3c0,0,5.7,2.5,8,1.5c2.3,-1.1,7.9,-4,7.9,-4c0,0,0.9,-0.5,0.9,-1.6c0,-1.1,0,-6.2,0,-6.2c0,0,0.3,-2.7,-1.5,-3.9c-1.8,-1.3,-15,-9.1,-15,-9.1c0,0,-0.8,-0.5,-1.5,-0.1c-0.8,0.4,-4,2,-4,2" class="g9_2" />
<path d="M240.1,489.7c0.5,-0.6,0.2,-3.2,-1.1,-4.1c-1.4,-0.9,-15.2,-8.9,-15.2,-8.9" class="g8_2" />
<path d="M210.2,483.4L223,476.9c0,0,0.4,-0.3,0.5,-1.1c0,-0.7,0,-5.8,0,-5.8" class="g8_2" />
<path d="M239.5,485.5l0,-6" class="g8_2" />
<path d="M210.8,481.1l-8,-4.7l0,-2.4" class="g9_2" />
<path d="M202.8,474c0.7,-0.5,1.5,-1.8,1.6,-2.6" class="g9_2" />
<path d="M204.4,471.4l7.3,-3.6" class="g9_2" />
<path d="M211.7,467.8c0.2,0.6,1.5,1,2,0.9" class="g9_2" />
<path d="M202.8,476.4c0.3,-0.1,11.1,-5.5,11.1,-5.5l0,-2.2" class="g8_2" />
<path d="M213.9,468.7l7.8,4.4" class="g9_2" />
<path d="M210.6,481.2c0.4,-0.1,11.2,-5.5,11.2,-5.5l0,-2.2" class="g8_2" />
<path d="M213.9,470.9l7.9,4.8" class="g8_2" />
<path d="M212.7,469.3l-8.9,4.6l0.1,0.8" class="g8_2" />
<path d="M203.9,474.7l8.8,-4.6l0,-0.8" class="g9_2" />
<path d="M205,473.2l0,-0.7l0.3,-0.1l0,0.7" class="g8_2" />
<path d="M205.8,472.8l0,-0.7l0.3,-0.2l0,0.8" class="g8_2" />
<path d="M206.6,472.4l0,-0.8l0.3,-0.1l0,0.7" class="g8_2" />
<path d="M207.4,472l0,-0.8l0.3,-0.1l0,0.7" class="g8_2" />
<path d="M208.3,471.5l0,-0.7l0.2,-0.2l0,0.8" class="g8_2" />
<path d="M209,471.2l0,-0.8l0.3,-0.1l0,0.7" class="g8_2" />
<path d="M209.8,470.7l0,-0.8l0.3,-0.1l0,0.7" class="g8_2" />
<path d="M210.7,470.3l0,-0.7l0.2,-0.2l0,0.8" class="g8_2" />
<path d="M211.4,470l0,-0.8l0.2,-0.1l0,0.7" class="g8_2" />
<path d="M212.1,470.4l0,0.7l-0.2,0.2l0,-0.8" class="g8_2" />
<path d="M211.3,470.8l0,0.8l-0.2,0.1l0,-0.7" class="g8_2" />
<path d="M210.5,471.2l0,0.8l-0.2,0.2l0,-0.8" class="g8_2" />
<path d="M209.7,471.6l0,0.8l-0.2,0.2l0,-0.8" class="g8_2" />
<path d="M208.9,472.1l0,0.8l-0.3,0.1l0,-0.7" class="g8_2" />
<path d="M208.2,472.5l0,0.8l-0.3,0.1l0,-0.7" class="g8_2" />
<path d="M207.3,472.9l0,0.8l-0.2,0.2l0,-0.8" class="g8_2" />
<path d="M206.5,473.3l0,0.8l-0.3,0.2l0,-0.8" class="g8_2" />
<path d="M205.8,473.7l0,0.8l-0.3,0.1l0,-0.7" class="g8_2" />
<path d="M205.1,474.1l0,0.7l-0.3,0.2l0,-0.8" class="g8_2" />
<path d="M223.4,488.6l1.1,0.6l4.4,-0.6l2,-3.1l-0.8,-0.6" class="g9_2" />
<path d="M223.3,488.5l4.6,-0.8l2,-2.9" class="g8_2" />
<path d="M223.6,488.6l4.6,-0.8l2,-2.9" class="g8_2" />
<path d="M225.5,489.9l1.1,0.6l4.5,-0.7l1.9,-3l-0.8,-0.7" class="g9_2" />
<path d="M225.5,489.7L230,489l2.1,-2.9" class="g8_2" />
<path d="M225.8,489.8l4.5,-0.7l2,-2.9" class="g8_2" />
<path d="M227.6,491.2l1.1,0.6l4.5,-0.7l1.9,-3l-0.8,-0.7" class="g9_2" />
<path d="M227.6,491l4.5,-0.8l2.1,-2.8" class="g8_2" />
<path d="M227.9,491.1l4.5,-0.7l2,-2.9" class="g8_2" />
<path d="M235.4,492.8l4.6,2.7c0,0,2.2,0.9,4.2,-2.2c1.9,-3.1,1.4,-4.9,0.2,-5.6c-1.1,-0.7,-3.5,-2.2,-3.5,-2.2" class="g9_2" />
<path d="M324.6,502c0,-0.5,0.8,-1,1.7,-1c0.9,0,1.7,0.5,1.7,1" class="g8_2" />
<path d="M322.8,502c0,-1.1,1.6,-2.1,3.5,-2.1c2,0,3.5,1,3.5,2.1" class="g8_2" />
<path d="M324.6,503.9c-1.1,-0.4,-1.8,-1.1,-1.8,-1.9c0,-0.8,0,-2.1,0,-2.1" class="g9_2" />
<path d="M329.8,502c0,0.8,-0.6,1.5,-1.7,1.8" class="g9_2" />
<path d="M322.8,499.9c0,-1.2,1.6,-2.1,3.5,-2.1c2,0,3.5,0.9,3.5,2.1" class="g8_2" />
<path d="M324.6,504.6c0,-0.5,0.8,-1,1.7,-1c0.9,0,1.7,0.5,1.7,1" class="g8_2" />
<path d="M324.6,502c0,0,0,2.1,0,2.6c0,0.6,0.8,1,1.7,1c0.9,0,1.7,-0.4,1.7,-1c0,-0.5,0,-2.6,0,-2.6" class="g9_2" />
<path d="M324.6,503.8c0,-0.6,0.8,-1,1.7,-1c0.9,0,1.7,0.4,1.7,1" class="g8_2" />
<path d="M324.6,503.1c0,-0.6,0.8,-1,1.7,-1c0.9,0,1.7,0.4,1.7,1" class="g8_2" />
<path d="M324.6,502.4c0,-0.6,0.8,-1,1.7,-1c0.9,0,1.7,0.4,1.7,1" class="g8_2" />
<path d="M329,502l0,-3" class="g9_2" />
<path d="M342.8,505.1l-31.5,-19" class="g8_2" />
<path d="M344,504.6l-7.8,-4.8" class="g8_2" />
<path d="M318.6,483.2l37.9,-18.9" class="g8_2" />
<path d="M356.5,460.8L329,474.5L323.3,471" class="g8_2" />
<path d="M324.5,486.4l9.3,-4.7" class="g9_2" />
<path d="M336.2,480.5l20.3,-10.2" class="g9_2" />
<path d="M333.4,477.8c0,-0.5,0.6,-0.8,1.4,-0.8c0.8,0,1.5,0.3,1.5,0.8" class="g8_2" />
<path d="M333.4,480.8c0,-0.5,0.6,-0.9,1.4,-0.9c0.8,0,1.5,0.4,1.5,0.9" class="g8_2" />
<path d="M333.4,477.8c0,0,0,2.5,0,3c0,0.5,0.6,0.9,1.4,0.9c0.8,0,1.5,-0.4,1.5,-0.9c0,-0.5,0,-3,0,-3" class="g9_2" />
<path d="M333.4,480c0,-0.5,0.6,-0.9,1.4,-0.9c0.8,0,1.5,0.4,1.5,0.9" class="g8_2" />
<path d="M333.4,479.2c0,-0.5,0.6,-0.8,1.4,-0.8c0.8,0,1.5,0.3,1.5,0.8" class="g8_2" />
<path d="M333.4,478.5c0,-0.5,0.6,-0.9,1.4,-0.9c0.8,0,1.5,0.4,1.5,0.9" class="g8_2" />
<path d="M332.5,482.4l22.3,13.5" class="g8_2" />
<path d="M345.8,476l10.7,6.4" class="g8_2" />
<path d="M346.7,475.7l9.8,5.9" class="g9_2" />
<path d="M320.3,484.2c0,-0.5,0.7,-0.9,1.5,-0.9c0.8,0,1.4,0.4,1.4,0.9" class="g8_2" />
<path d="M323.2,485.7c0,-0.5,0,-1.5,0,-1.5" class="g9_2" />
<path d="M321.8,484.7c0.8,0,1.4,0.4,1.4,0.9" class="g8_2" />
<path d="M320.8,484.2c0.3,-0.1,0.6,-0.2,1,-0.2c0.8,0,1.4,0.4,1.4,0.9" class="g8_2" />
<path d="M346.3,471.2c0,-0.5,0.7,-0.9,1.6,-0.9c0.9,0,1.6,0.4,1.6,0.9" class="g9_2" />
<path d="M346.3,471.2c0,0.5,0.7,0.9,1.6,0.9c0.9,0,1.6,-0.4,1.6,-0.9" class="g8_2" />
<path d="M346.5,470.8c0.3,0.3,0.8,0.5,1.4,0.5c0.7,0,1.2,-0.2,1.5,-0.5" class="g9_2" />
<path d="M669.3,447.1c-45.1,9.2,-80,-10.7,-125,11.3" class="g9_2" />
<path d="M670.2,454.2c-45.7,8.6,-78,-11.1,-121.8,10.4" class="g9_2" />
<path d="M548.4,464.6c-1.4,0.9,-2.7,-0.8,-3.4,-1.7c-0.7,-0.9,-1.8,-3.7,-0.7,-4.5" class="g8_2" />
<path fill-rule="evenodd" d="M705.8,453.3c-48.9,0,-88.6,16.3,-88.6,36.4c0,20.1,39.7,36.4,88.6,36.4c49,0,88.7,-16.3,88.7,-36.4c0,-20.1,-39.7,-36.4,-88.7,-36.4Zm0,7.1c-43.6,0,-79,13.1,-79,29.3c0,16.2,35.4,29.3,79,29.3c43.7,0,79.1,-13.1,79.1,-29.3c0,-16.2,-35.4,-29.3,-79.1,-29.3Z" class="g12_2" />
<path fill-rule="evenodd" d="M705.8,462.8c-48.9,0,-88.6,16.3,-88.6,36.4c0,20.1,39.7,36.4,88.6,36.4c49,0,88.7,-16.3,88.7,-36.4c0,-20.1,-39.7,-36.4,-88.7,-36.4Zm0,7.1c-43.6,0,-79,13.1,-79,29.3c0,16.2,35.4,29.3,79,29.3c43.7,0,79.1,-13.1,79.1,-29.3c0,-16.2,-35.4,-29.3,-79.1,-29.3Z" class="g12_2" />
<path fill-rule="evenodd" d="M705.8,472.5c-48.9,0,-88.6,16.3,-88.6,36.4c0,20.1,39.7,36.4,88.6,36.4c49,0,88.7,-16.3,88.7,-36.4c0,-20.1,-39.7,-36.4,-88.7,-36.4Zm0,7.1c-43.6,0,-79,13.1,-79,29.3c0,16.1,35.4,29.3,79,29.3c43.7,0,79.1,-13.2,79.1,-29.3c0,-16.2,-35.4,-29.3,-79.1,-29.3Z" class="g12_2" />
<path fill-rule="evenodd" d="M705.8,482.5c-48.9,0,-88.6,16.3,-88.6,36.5c0,20.1,39.7,36.4,88.6,36.4c49,0,88.7,-16.3,88.7,-36.4c0,-20.2,-39.7,-36.5,-88.7,-36.5Zm0,7.2c-43.6,0,-79,13.1,-79,29.3c0,16.1,35.4,29.2,79,29.2c43.7,0,79.1,-13.1,79.1,-29.2c0,-16.2,-35.4,-29.3,-79.1,-29.3Z" class="g12_2" />
<path d="M778.6,468.9C766.6,458.4,738.5,451,705.8,451c-12.8,0,-24.9,1.2,-35.6,3.2" class="g9_2" />
<path d="M793.8,484.8c0.5,-1.5,0.7,-3,0.7,-4.5c0,-20.1,-39.7,-36.4,-88.7,-36.4c-13,0,-25.3,1.2,-36.5,3.2" class="g9_2" />
<path fill-rule="evenodd" d="M631,537.4l-13.8,-9.6l6.1,8l12.6,7.3Z" class="g13_2" />
<path d="M697,625.1c-23.7,9.7,-54.4,20.9,-67.5,8.7C616.4,621.6,610.8,604,620.3,584.1c9.6,-20,14.7,-23.9,-0.7,-56.6" class="g9_2" />
<path d="M693,617.3c-24.9,10,-50.3,19.8,-60.8,6.8c-10.5,-13.1,-9.7,-25.1,1,-44.8c9.8,-18.2,4.3,-36.5,-5.3,-55.4" class="g9_2" />
<path d="M556.7,367.3l0.5,84.9" class="g9_2" />
<path d="M679.6,820.9c-45.9,9.3,-80.6,25.5,-127.2,48.3" class="g9_2" />
<path d="M680.5,828c-46.5,8.8,-79.1,25.5,-123.9,47.5" class="g9_2" />
<path d="M556.6,875.5c-1.5,0.9,-2.8,-0.8,-3.5,-1.7c-0.7,-0.9,-1.8,-3.8,-0.7,-4.6" class="g8_2" />
<path fill-rule="evenodd" d="M716.7,827.1c-49.8,0,-90.2,16.6,-90.2,37c0,20.5,40.4,37.1,90.2,37.1c49.8,0,90.2,-16.6,90.2,-37.1c0,-20.4,-40.4,-37,-90.2,-37Zm0,7.2c-44.4,0,-80.4,13.4,-80.4,29.8c0,16.5,36,29.8,80.4,29.8c44.4,0,80.4,-13.3,80.4,-29.8c0,-16.4,-36,-29.8,-80.4,-29.8Z" class="g12_2" />
<path fill-rule="evenodd" d="M716.7,836.8c-49.8,0,-90.2,16.5,-90.2,37c0,20.5,40.4,37,90.2,37c49.8,0,90.2,-16.5,90.2,-37c0,-20.5,-40.4,-37,-90.2,-37Zm0,7.2c-44.4,0,-80.4,13.3,-80.4,29.8c0,16.4,36,29.8,80.4,29.8c44.4,0,80.4,-13.4,80.4,-29.8c0,-16.5,-36,-29.8,-80.4,-29.8Z" class="g12_2" />
<path fill-rule="evenodd" d="M716.7,846.6c-49.8,0,-90.2,16.6,-90.2,37.1c0,20.4,40.4,37,90.2,37c49.8,0,90.2,-16.6,90.2,-37c0,-20.5,-40.4,-37.1,-90.2,-37.1Zm0,7.3c-44.4,0,-80.4,13.3,-80.4,29.8c0,16.4,36,29.7,80.4,29.7c44.4,0,80.4,-13.3,80.4,-29.7c0,-16.5,-36,-29.8,-80.4,-29.8Z" class="g12_2" />
<path fill-rule="evenodd" d="M716.7,856.9c-49.8,0,-90.2,16.6,-90.2,37c0,20.5,40.4,37.1,90.2,37.1c49.8,0,90.2,-16.6,90.2,-37.1c0,-20.4,-40.4,-37,-90.2,-37Zm0,7.2c-44.4,0,-80.4,13.4,-80.4,29.8c0,16.5,36,29.8,80.4,29.8c44.4,0,80.4,-13.3,80.4,-29.8c0,-16.4,-36,-29.8,-80.4,-29.8Z" class="g12_2" />
<path d="M790.8,843C778.6,832.3,750,824.8,716.7,824.8c-13,0,-25.3,1.2,-36.2,3.2" class="g9_2" />
<path d="M806.3,859.1c0.4,-1.4,0.6,-3,0.6,-4.5c0,-20.4,-40.4,-37,-90.2,-37c-13.2,0,-25.8,1.1,-37.1,3.3" class="g9_2" />
<path fill-rule="evenodd" d="M643.6,912.7L626.4,903l6.4,8.1l10.4,7.4Z" class="g13_2" />
<path d="M709,1000.3c-24.9,12.4,-56.6,22.9,-69.9,10.5c-13.3,-12.5,-19,-30.4,-9.3,-50.6c9.7,-20.3,14.8,-24.3,-0.8,-57.6" class="g9_2" />
<path d="M705.1,992.2c-27,13,-52.6,21.9,-63.3,8.6c-10.7,-13.3,-9.8,-25.4,1,-45.4c10,-18.6,4.4,-37.2,-5.3,-56.4" class="g9_2" />
<path d="M154.9,909.7l-1.5,-0.9m-4.7,-2.7l-3,-1.8" class="g8_2" />
<path d="M145.7,904.3l8,-4L468.3,741.9l23.3,-11.7" class="g9_2" />
<path d="M563.5,807.7l1.5,55.4" class="g9_2" />
<path d="M565.2,871.3l0.5,24.5" class="g9_2" />
<path d="M545.4,860.3l1.5,-0.8l11.3,6.9" class="g9_2" />
<path d="M560.4,873.7l0.1,11.6l-1.6,0.8" class="g9_2" />
<path d="M545.4,860.3l0.2,17.7l13.3,8.1" class="g8_2" />
<path d="M547,859.5l0.3,17.7l13.3,8.1" class="g8_2" />
<path d="M545.6,878l1.7,-0.8" class="g8_2" />
<path d="M531.5,871c-0.8,0.4,-1.9,-0.4,-2.6,-1.7c-0.6,-1.3,-0.5,-2.7,0.2,-3.1" class="g8_2" />
<path d="M529.1,866.2c0.8,-0.4,2,0.4,2.6,1.7c0.7,1.3,0.6,2.7,-0.2,3.1" class="g8_2" />
<path d="M493.5,851.5l0,-85m0,-20l0,-15" class="g8_2" />
<path d="M495.9,834.7l1.7,-0.9L511,842l0.1,17.6l-1.7,1.1" class="g9_2" />
<path d="M495.9,834.7l0,17.7l13.5,8.3" class="g8_2" />
<path d="M497.7,833.8l0,17.7l13.6,8.3" class="g8_2" />
<path d="M497.7,851.5l-1.8,0.9" class="g8_2" />
<path d="M501.6,848.4c1.1,-0.7,2.7,-1.3,3.4,-1.2" class="g9_2" />
<path d="M505,840.9c-0.7,-0.2,-2.3,0.4,-3.4,1.2" class="g9_2" />
<path d="M501,842l0,6" class="g9_2" />
<path d="M505,840l0,7" class="g9_2" />
<path d="M505.1,849.9c0.2,0.5,0.6,0.9,1.2,1.2" class="g8_2" />
<path d="M505.1,847.3c-0.3,1,-0.4,1.9,0,2.6" class="g9_2" />
<path d="M507.8,852.9l-6.7,-4l0,-8.1l1,0.6" class="g9_2" />
<path d="M505.5,843.7l2.2,1.2l0.1,8" class="g8_2" />
<path d="M506,851l0,-7" class="g9_2" />
<path d="M505.3,843.9c0.2,0.4,0.6,0.7,1,0.9" class="g9_2" />
<path d="M286.6,944.7c-1,-0.5,-1.4,-1.8,-1.3,-3.3" class="g8_2" />
<path d="M289.4,944.5c-0.8,0.4,-1.6,0.6,-2.3,0.2" class="g9_2" />
<path d="M567.6,896.9l0,9.9c0,0,0.2,1.7,-1.9,2.8c-1.5,0.8,-169.4,82.2,-267.7,129.9m-6.5,3.1c-40.8,19.8,-63.1,30.6,-63.1,30.6c0,0,-1.3,0.9,-2.6,0.1c-1.3,-0.8,-71.7,-40.9,-71.7,-40.9c0,0,-1.7,-0.8,-1.7,-2.3c0,-1.5,0.3,-10.2,0.3,-10.2L263.4,965.3m8.2,-4L492.8,852.2l0.8,0.5" class="g9_2" />
<path d="M493.6,852.7l0.7,-0.5l73.3,44.7" class="g9_2" />
<path d="M493.6,865c-0.6,-0.6,-0.7,-1,-0.8,-1.9c-0.2,-0.9,0,-10.9,0,-10.9" class="g8_2" />
<path d="M494.4,852.2c0,0,0.1,10,0,10.9c-0.1,0.9,-0.3,1.3,-0.8,1.9" class="g8_2" />
<path d="M493.6,852.7l0,12.3" class="g8_2" />
<path d="M494.9,864.6l71.2,43.1" class="g8_2" />
<path d="M155.3,1029.5L261.2,977.7m6.6,-3.3L491.5,864.8" class="g8_2" />
<path d="M154.3,1019.1L157,933.5" class="g9_2" />
<path d="M157.7,905l0.2,-6.8" class="g9_2" />
<path d="M163.2,1014.7l3.1,-120.6" class="g8_2" />
<path d="M163.9,1014.3l3.2,-120.6" class="g8_2" />
<path d="M318.2,945.4c1.2,0.8,2.8,0.1,3.8,-1.7c1,-1.8,0.8,-3.6,-0.5,-4.3" class="g8_2" />
<path d="M321.5,939.1c-1.3,-0.7,-3.1,0.1,-4.1,2c-1,1.8,-0.7,3.8,0.6,4.6" class="g9_2" />
<path d="M318.9,946.1c1.3,0.7,3.1,-0.1,4.1,-2c1,-1.8,0.7,-3.8,-0.5,-4.6" class="g8_2" />
<path d="M321.5,939.1l1,0.4" class="g9_2" />
<path d="M318,945.7c0,0,0.9,0.4,0.9,0.4" class="g9_2" />
<path d="M317.7,943.4c0.3,-0.3,1.3,-1.1,1.3,0.6" class="g8_2" />
<path d="M319.3,940.2c-0.1,1.8,0.8,1.1,1.2,0.9c0.3,-0.3,0.4,0.7,0.4,0.7" class="g8_2" />
<path d="M319.1,944.2l0.9,-0.5" class="g8_2" />
<path d="M320,943.7c-0.5,-1,-0.4,-1.6,0.9,-1.9" class="g8_2" />
<path d="M317.7,943.4l-0.1,-0.7" class="g8_2" />
<path d="M319.3,940.2c-0.6,0.3,-0.7,0.5,-0.7,0.5" class="g8_2" />
<path d="M317.6,942.7c0.8,-0.4,1.3,-1,1,-2" class="g8_2" />
<path d="M356.6,866c-0.6,-0.3,-1.5,-0.2,-2.3,0.2c-0.8,0.4,-46.9,23.5,-46.9,23.5" class="g8_2" />
<path d="M356.6,866c1,0.5,1.4,1.6,1.4,3" class="g9_2" />
<path d="M358,906l0,-37.1" class="g9_2" />
<path d="M285.5,941.5l0,-37" class="g8_2" />
<path d="M357,866.3c-0.4,0,-0.9,0.1,-1.4,0.4c-0.8,0.4,-46.9,23.4,-46.9,23.4" class="g9_2" />
<path d="M287.8,944.8c-0.8,-0.5,-1.2,-1.7,-1.1,-3.1" class="g9_2" />
<path d="M286,942l0,-38" class="g9_2" />
<path d="M290.7,901l39.4,23.5" class="g8_2" />
<path d="M450.4,1048l-0.3,2.6c0,0,0,0.9,-1,1.5c-1.1,0.5,-15.2,7.4,-15.2,7.4c0,0,-6.1,2.2,-8.4,1c-2.3,-1.2,-7.7,-4.7,-7.7,-4.7c0,0,-0.9,-0.5,-0.8,-1.6c0.1,-1.1,0.6,-6.3,0.6,-6.3c0,0,-0.1,-2.8,1.9,-4c2,-1.2,16.4,-8.2,16.4,-8.2c0,0,0.9,-0.5,1.6,-0.1c0.8,0.5,3.9,2.5,3.9,2.5" class="g9_2" />
<path d="M417.7,1055.4c-0.5,-0.7,0.1,-3.3,1.6,-4.2c1.5,-0.8,16.5,-8,16.5,-8" class="g8_2" />
<path d="M449.1,1051l-12.5,-7.6c0,0,-0.4,-0.3,-0.3,-1.1c0,-0.7,0.5,-5.9,0.5,-5.9" class="g8_2" />
<path d="M419.1,1050.7l0.6,-6.1" class="g8_2" />
<path d="M448.7,1048.6l8.8,-4.2l0.3,-2.5" class="g9_2" />
<path d="M457.8,1041.9c-0.7,-0.6,-1.5,-2,-1.5,-2.7" class="g9_2" />
<path d="M456.3,1039.2l-7.1,-4.3" class="g9_2" />
<path d="M449.2,1034.9c-0.3,0.6,-1.6,1,-2.2,0.8" class="g9_2" />
<path d="M457.5,1044.4c-0.3,-0.1,-10.9,-6.5,-10.9,-6.5l0.2,-2.2" class="g8_2" />
<path d="M446.8,1035.7l-8.4,4" class="g9_2" />
<path d="M448.9,1048.7c-0.3,-0.1,-10.9,-6.4,-10.9,-6.4l0.2,-2.2" class="g8_2" />
<path d="M446.6,1037.9l-8.6,4.4" class="g8_2" />
<path d="M448,1036.4l8.7,5.3l-0.1,0.9" class="g8_2" />
<path d="M456.6,1042.6l-8.7,-5.4l0.1,-0.8" class="g9_2" />
<path d="M455.5,1041l0.1,-0.7l-0.3,-0.2l-0.1,0.8" class="g8_2" />
<path d="M454.7,1040.5l0.1,-0.7l-0.2,-0.2l-0.1,0.8" class="g8_2" />
<path d="M453.9,1040l0.1,-0.8l-0.2,-0.2l-0.1,0.8" class="g8_2" />
<path d="M453.2,1039.5l0,-0.7l-0.2,-0.2l-0.1,0.7" class="g8_2" />
<path d="M452.3,1039l0.1,-0.8l-0.2,-0.1l-0.1,0.7" class="g8_2" />
<path d="M451.6,1038.6l0.1,-0.8l-0.2,-0.2l-0.1,0.8" class="g8_2" />
<path d="M450.8,1038.1l0.1,-0.8l-0.3,-0.2l0,0.8" class="g8_2" />
<path d="M450,1037.6l0.1,-0.8l-0.3,-0.2l-0.1,0.8" class="g8_2" />
<path d="M449.3,1037.2l0.1,-0.8l-0.3,-0.2L449,1037" class="g8_2" />
<path d="M448.5,1037.6l-0.1,0.7l0.3,0.2l0,-0.8" class="g8_2" />
<path d="M449.3,1038l-0.1,0.8l0.2,0.2l0.1,-0.8" class="g8_2" />
<path d="M450.1,1038.5l-0.1,0.9l0.2,0.1l0.1,-0.7" class="g8_2" />
<path d="M450.8,1039l-0.1,0.8l0.3,0.2l0.1,-0.8" class="g8_2" />
<path d="M451.6,1039.5l0,0.8l0.2,0.2l0.1,-0.8" class="g8_2" />
<path d="M452.4,1040l-0.1,0.8l0.2,0.1l0.1,-0.7" class="g8_2" />
<path d="M453.2,1040.5l-0.1,0.8l0.3,0.2l0,-0.8" class="g8_2" />
<path d="M454,1041l-0.1,0.8l0.3,0.1l0,-0.7" class="g8_2" />
<path d="M454.7,1041.4l-0.1,0.8l0.3,0.1l0,-0.7" class="g8_2" />
<path d="M455.4,1041.8l-0.1,0.8l0.2,0.2l0.1,-0.8" class="g8_2" />
<path d="M435,1055.5l-1.1,0.5l-4.6,-1l-1.7,-3.3l0.9,-0.6" class="g9_2" />
<path d="M435.1,1055.3l-4.6,-1.1l-1.8,-3.1" class="g8_2" />
<path d="M434.8,1055.4l-4.6,-1.1l-1.8,-3.1" class="g8_2" />
<path d="M432.7,1056.6l-1.2,0.5l-4.5,-1l-1.7,-3.2l0.8,-0.6" class="g9_2" />
<path d="M432.8,1056.4l-4.6,-1.1l-1.9,-3.1" class="g8_2" />
<path d="M432.5,1056.5l-4.7,-1.1l-1.8,-3.1" class="g8_2" />
<path d="M430.4,1057.8l-1.2,0.5l-4.5,-1l-1.7,-3.2l0.9,-0.7" class="g9_2" />
<path d="M430.5,1057.6l-4.6,-1.1l-1.8,-3.1" class="g8_2" />
<path d="M430.2,1057.7l-4.6,-1.1l-1.9,-3.1" class="g8_2" />
<path d="M325.2,914.5c0,-0.6,0.7,-1,1.7,-1c1,0,1.8,0.4,1.8,1" class="g8_2" />
<path d="M323.3,914.5c0,-1.2,1.6,-2.2,3.6,-2.2c2,0,3.6,1,3.6,2.2" class="g8_2" />
<path d="M325.1,916.4c-1.1,-0.4,-1.8,-1.1,-1.8,-1.9c0,-0.8,0,-2.2,0,-2.2" class="g9_2" />
<path d="M330.5,914.5c0,0.8,-0.7,1.5,-1.7,1.9" class="g9_2" />
<path d="M323.3,912.3c0,-1.2,1.6,-2.2,3.6,-2.2c2,0,3.6,1,3.6,2.2" class="g8_2" />
<path d="M325.2,917.2c0,-0.6,0.7,-1,1.7,-1c1,0,1.8,0.4,1.8,1" class="g8_2" />
<path d="M325.2,914.5c0,0,0,2.1,0,2.7c0,0.6,0.7,1,1.7,1c1,0,1.8,-0.4,1.8,-1c0,-0.6,0,-2.7,0,-2.7" class="g9_2" />
<path d="M325.2,916.3c0,-0.5,0.7,-1,1.7,-1c1,0,1.8,0.5,1.8,1" class="g8_2" />
<path d="M325.2,915.6c0,-0.6,0.7,-1,1.7,-1c1,0,1.8,0.4,1.8,1" class="g8_2" />
<path d="M325.2,914.9c0,-0.6,0.7,-1,1.7,-1c1,0,1.8,0.4,1.8,1" class="g8_2" />
<path d="M330,914l0,-2" class="g9_2" />
<path d="M344,917.7L311.5,898.1" class="g8_2" />
<path d="M345.2,917.2l-8.1,-5" class="g8_2" />
<path d="M319,895.1l39,-19.5" class="g8_2" />
<path d="M358,872l-28.4,14.1l-5.8,-3.5" class="g8_2" />
<path d="M325.1,898.4l9.5,-4.8" class="g9_2" />
<path d="M337.2,892.4L358,881.8" class="g9_2" />
<path d="M334.2,889.6c0,-0.5,0.7,-0.9,1.5,-0.9c0.8,0,1.5,0.4,1.5,0.9" class="g8_2" />
<path d="M334.2,892.6c0,-0.5,0.7,-0.9,1.5,-0.9c0.8,0,1.5,0.4,1.5,0.9" class="g8_2" />
<path d="M334.2,889.6c0,0,0,2.5,0,3c0,0.5,0.7,0.9,1.5,0.9c0.8,0,1.5,-0.4,1.5,-0.9c0,-0.5,0,-3,0,-3" class="g9_2" />
<path d="M334.2,891.8c0,-0.5,0.7,-0.9,1.5,-0.9c0.8,0,1.5,0.4,1.5,0.9" class="g8_2" />
<path d="M334.2,891c0,-0.5,0.7,-0.9,1.5,-0.9c0.8,0,1.5,0.4,1.5,0.9" class="g8_2" />
<path d="M334.2,890.3c0,-0.5,0.7,-0.9,1.5,-0.9c0.8,0,1.5,0.4,1.5,0.9" class="g8_2" />
<path d="M333.3,894.2l23,14" class="g8_2" />
<path d="M347,887.7l11,6.6" class="g8_2" />
<path d="M347.9,887.3l10.1,6.1" class="g9_2" />
<path d="M320.8,896.1c0,-0.5,0.6,-0.9,1.5,-0.9c0.8,0,1.4,0.4,1.4,0.9" class="g8_2" />
<path d="M323.7,897.7c0,-0.5,0,-1.6,0,-1.6" class="g9_2" />
<path d="M322.3,896.7c0.8,0,1.4,0.4,1.4,0.9" class="g8_2" />
<path d="M321.2,896.2c0.3,-0.2,0.7,-0.3,1.1,-0.3c0.8,0,1.4,0.4,1.4,0.9" class="g8_2" />
<path d="M347.5,882.7c0,-0.5,0.8,-0.9,1.7,-0.9c0.9,0,1.7,0.4,1.7,0.9" class="g9_2" />
<path d="M347.5,882.7c0,0.5,0.8,0.9,1.7,0.9c0.9,0,1.7,-0.4,1.7,-0.9" class="g8_2" />
<path d="M347.7,882.4c0.3,0.2,0.9,0.4,1.5,0.4c0.7,0,1.2,-0.2,1.5,-0.4" class="g9_2" />
<path d="M161.7,503l0.1,-3.3" class="g9_2" />
<path d="M480.9,350.3c0.3,-0.3,1.2,-1.1,1.3,0.6" class="g8_2" />
<path d="M482.2,351l0.9,-0.4" class="g8_2" />
<path d="M480.9,350.3l-0.1,-0.7" class="g8_2" />
<path d="M454.4,567.3l-8.1,0L357.8,496.4" class="g14_2" />
<path fill-rule="evenodd" d="M357.8,492.9c2,0,3.5,1.6,3.5,3.5c0,2,-1.5,3.6,-3.5,3.6c-1.9,0,-3.5,-1.6,-3.5,-3.6c0,-1.9,1.6,-3.5,3.5,-3.5Z" class="g15_2" />
<path d="M454.4,567.3l-8.1,0L357.8,496.4" class="g8_2" />
<path fill-rule="evenodd" d="M337.9,465.2l0.8,-6.5l-5,-3.2l13.7,-7.6l0.8,-6.6l-65.6,-7.1l-1.7,6.5l9.1,38.9l18.5,-10.4l10,6.4Z" class="g16_2" />
<path d="M327.1,463.4c0.2,-1.5,-3.7,-2.9,-6.2,-2.9c-2.5,-0.1,-7.2,1.4,-7.6,3.5" class="g8_2" />
<path d="M306.7,463.6l5.1,3.4" class="g8_2" />
<path fill-rule="evenodd" d="M304,455.5l28.9,12.4l5,-2.1l0.1,-7.7l-2.6,-1.5l15.8,-8l0,-7.1l-70.3,-7.8l0,7Z" class="g17_2" />
<path fill-rule="evenodd" d="M308.6,469.3l9.9,6.3l19.4,-10.4l-8.7,-5.6l22,-11l-70.3,-7.9l9.1,38.9Z" class="g18_2" />
<path d="M337.9,465.7l-19.4,9.9L309,469.8l-19,9.6l-9.1,-38.7" class="g9_2" />
<path d="M351.2,448.6l-70.3,-7.9" class="g8_2" />
<path d="M337.9,465.2l-8.7,-5.6" class="g8_2" />
<path d="M351.2,448.6l-22.3,11.3" class="g9_2" />
<path d="M474.5,738.7l17.3,-8.6l19.9,12.4m4.8,3.1l41.4,25.9m4.4,2.7l11,6.8" class="g9_2" />
<path d="M493.5,746.5l0,-16" class="g8_2" />
<path d="M486.9,745.8c1.3,0.7,2.8,0.1,3.8,-1.6c0.9,-1.8,0.7,-3.6,-0.5,-4.3" class="g8_2" />
<path d="M490.2,739.7c-1.3,-0.7,-3,0.1,-4,1.9c-0.9,1.7,-0.7,3.7,0.5,4.5" class="g9_2" />
<path d="M487.6,746.5c1.3,0.7,3,-0.2,4,-1.9c0.9,-1.8,0.7,-3.8,-0.5,-4.5" class="g8_2" />
<path d="M490.2,739.7l0.9,0.4" class="g9_2" />
<path d="M486.7,746.1c0.1,0,0.9,0.4,0.9,0.4" class="g9_2" />
<path d="M486.5,743.9c0.3,-0.4,1.2,-1.1,1.3,0.5" class="g8_2" />
<path d="M488,740.8c0,1.7,0.8,1,1.2,0.8c0.3,-0.2,0.4,0.7,0.4,0.7" class="g8_2" />
<path d="M487.8,744.6l0.9,-0.5" class="g8_2" />
<path d="M488.7,744.1c-0.5,-0.9,-0.3,-1.5,0.9,-1.8" class="g8_2" />
<path d="M486.5,743.9l-0.1,-0.7" class="g8_2" />
<path d="M488,740.8c-0.5,0.2,-0.6,0.4,-0.6,0.4" class="g8_2" />
<path d="M486.4,743.2c0.7,-0.5,1.3,-1,1,-2" class="g8_2" />
<path d="M485.7,758.8l-0.9,-0.5l0,-6.5l8,-4c0,0,1.6,-0.7,2.8,0c1.2,0.8,2.9,1.7,2.9,1.7l-0.1,1.9c0,0,0.2,0.7,0.7,0.7" class="g9_2" />
<path d="M498.4,751.4c0.8,-1.1,1.4,-1.5,2.6,-2.1c1.3,-0.7,11.7,-5.7,11.7,-5.7l61.2,37.7l0,1.4l-9.6,4.8" class="g9_2" />
<path d="M491.6,758.7l0,1c0,0,-0.4,1.8,-1.6,2.2" class="g9_2" />
<path d="M488.1,760.3l-3.2,1.3l0,6.8l1.1,0.5" class="g9_2" />
<path d="M484.9,768.4l7.8,-3.8c0,0,2.1,-0.8,3.6,0.1c1.4,0.8,8.3,5.2,8.3,5.2l0,11.2l51,31.4" class="g8_2" />
<path d="M556,801.7l-0.4,10.8l-0.9,0.8" class="g9_2" />
<path d="M565.6,795.6l0.1,12.9c0.1,0.4,-0.5,1.3,-1.5,1.5" class="g9_2" />
<path d="M564.1,809c0.3,-0.3,0.4,-1,-0.1,-1.3c-0.5,-0.3,-7.5,-4.7,-7.5,-4.7" class="g8_2" />
<path d="M556.5,802l8,5c0,0,1.2,0.6,1,1.7" class="g8_2" />
<path d="M486,768.9l7.3,-3.7c0,0,1.3,-0.5,2.1,0c0.8,0.4,8.3,5.2,8.3,5.2l0,11.2l51,31.4" class="g8_2" />
<path d="M488.6,759.9c0,0.7,0.1,2.3,1.2,2.1" class="g8_2" />
<path d="M489.5,760.3c0,0.4,0.1,1.2,0.3,1.6" class="g8_2" />
<path d="M494.5,763.3l-0.2,-14.7" class="g8_2" />
<path d="M499.4,752.2c0.4,-0.8,0.8,-1.3,1.8,-1.8c1.1,-0.5,11.5,-5.7,11.5,-5.7l61.2,38l-61.2,-38l0,-1.1" class="g8_2" />
<path d="M500.4,752l10.7,6.4" class="g8_2" />
<path d="M517.2,762.2l39,23.3" class="g8_2" />
<path d="M503.7,770.4l0.9,-0.5l0,11.2l-0.9,0.5" class="g8_2" />
<path d="M517.9,760.8c0.1,-1.4,-1.3,-2.5,-3.6,-2.5c-2.3,-0.1,-3.9,0.9,-4,2.3" class="g8_2" />
<path d="M510,760.7c0,1.4,1.7,2.5,4,2.6c2.2,0,4.1,-1.1,4.2,-2.5" class="g9_2" />
<path d="M518.2,759.5c0.1,-1.4,-1.7,-2.5,-4,-2.6c-2.2,0,-4.1,1.1,-4.2,2.5c-0.1,1.3,0,1.3,0,1.3" class="g9_2" />
<path d="M510,760.7l0,-1" class="g8_2" />
<path d="M518.2,760.8c0,0,0,-0.9,0,-0.9" class="g9_2" />
<path d="M516,762.4c-0.5,-0.1,-1.7,-0.5,-0.1,-1.2" class="g8_2" />
<path d="M512.3,762.5c1.6,-0.6,0.6,-1,0.2,-1.2c-0.3,-0.2,0.5,-0.6,0.5,-0.6" class="g8_2" />
<path d="M516,761.1l-0.9,-0.4" class="g8_2" />
<path d="M515.1,760.7c-0.6,0.7,-1.2,0.8,-2.1,0" class="g8_2" />
<path d="M516,762.4l-0.7,0.4" class="g8_2" />
<path d="M512.3,762.5c0.5,0.3,0.7,0.3,0.7,0.3" class="g8_2" />
<path d="M515.3,762.8c-0.7,-0.4,-1.4,-0.6,-2.3,0" class="g8_2" />
<path d="M516.2,757.2l0,-2.8m0.1,-9l0,-15.7m-4.4,27.5l0,-2.8m0,-11.8L512,729.7" class="g9_2" />
<path d="M516.3,740.2c0,-0.8,-0.8,-1.3,-2,-1.4c-1.2,0,-2.2,0.6,-2.2,1.3" class="g8_2" />
<path d="M516.4,741.1c0,-0.8,-0.8,-1.4,-2,-1.4c-1.3,0,-2.2,0.5,-2.2,1.3" class="g8_2" />
<path d="M516.2,742c0.1,-0.8,-0.7,-1.4,-2,-1.4c-1.2,0,-2.1,0.5,-2.2,1.3" class="g8_2" />
<path d="M516.2,742.9c0,-0.7,-0.8,-1.3,-2,-1.4c-1.3,0,-2.2,0.6,-2.2,1.3" class="g8_2" />
<path d="M516.3,743.8c0,-0.8,-0.8,-1.4,-2,-1.4c-1.3,0,-2.2,0.5,-2.2,1.3" class="g8_2" />
<path d="M516.3,744.7c0,-0.8,-0.8,-1.3,-2,-1.4" class="g8_2" />
<path d="M516.2,755c0,-0.7,-0.8,-1.3,-2,-1.3c-1.3,0,-2.2,0.5,-2.2,1.3" class="g8_2" />
<path d="M516.2,755.9c0.1,-0.7,-0.7,-1.3,-2,-1.3c-1.2,-0.1,-2.1,0.5,-2.2,1.2" class="g8_2" />
<path d="M516.2,756.8c0.1,-0.8,-0.7,-1.3,-2,-1.4c-1.2,0,-2.1,0.5,-2.2,1.3" class="g8_2" />
<path d="M516.2,757.6c0,-0.7,-0.8,-1.3,-2,-1.3c-1.2,0,-2.2,0.5,-2.2,1.3" class="g8_2" />
<path d="M564.2,781.2c0.1,-1.3,-1.3,-2.4,-3.6,-2.4c-2.2,-0.1,-3.9,0.9,-4,2.3" class="g8_2" />
<path d="M556.4,781.2c-0.1,0.9,0.7,1.7,1.9,2.2m4.5,-0.1c1,-0.5,1.7,-1.2,1.7,-2" class="g9_2" />
<path d="M556.5,803l0,-1" class="g8_2" />
<path d="M518.2,754.5c0,-1.3,-1.4,-2.4,-3.7,-2.4c-2.2,-0.1,-3.9,0.9,-4,2.3" class="g8_2" />
<path d="M510.3,754.5c-0.1,0.8,0.6,1.6,1.6,2.1m4.7,0c1.1,-0.4,1.8,-1.1,1.9,-2" class="g9_2" />
<path d="M565.6,795.6c0,-1.2,-2,-2.3,-2,-2.3l-3.2,-2l-0.1,-1.4" class="g9_2" />
<path d="M486.9,759.1c1.3,0.7,2.8,0.1,3.8,-1.6c0.9,-1.8,0.7,-3.6,-0.5,-4.3" class="g8_2" />
<path d="M490.2,753c-1.3,-0.7,-3,0.1,-4,1.9c-0.9,1.7,-0.7,3.7,0.5,4.5" class="g9_2" />
<path d="M487.6,759.8c1.3,0.7,3,-0.2,4,-1.9c0.9,-1.8,0.7,-3.8,-0.5,-4.5" class="g8_2" />
<path d="M490.2,753l0.9,0.4" class="g9_2" />
<path d="M486.7,759.4c0.1,0,0.9,0.4,0.9,0.4" class="g9_2" />
<path d="M486.5,757.2c0.3,-0.4,1.2,-1.1,1.3,0.5" class="g8_2" />
<path d="M488,754.1c0,1.7,0.8,1,1.2,0.8c0.3,-0.2,0.4,0.7,0.4,0.7" class="g8_2" />
<path d="M487.8,757.9l0.9,-0.5" class="g8_2" />
<path d="M488.7,757.4c-0.5,-0.9,-0.3,-1.5,0.9,-1.8" class="g8_2" />
<path d="M486.5,757.2l-0.1,-0.7" class="g8_2" />
<path d="M488,754.1c-0.5,0.2,-0.6,0.4,-0.6,0.4" class="g8_2" />
<path d="M486.4,756.5c0.7,-0.5,1.3,-1,1,-2" class="g8_2" />
<path d="M516.3,729.7c0,-0.7,-0.8,-1.3,-2,-1.3c-1.2,-0.1,-2.2,0.5,-2.2,1.2" class="g9_2" />
<path d="M516.4,733.8c0,-0.8,-0.8,-1.4,-2,-1.4c-1.3,0,-2.2,0.5,-2.2,1.3" class="g8_2" />
<path d="M516.2,734.6c0.1,-0.7,-0.7,-1.3,-2,-1.3c-1.2,0,-2.1,0.5,-2.2,1.2" class="g8_2" />
<path d="M516.2,735.6c0,-0.8,-0.8,-1.4,-2,-1.4c-1.3,0,-2.2,0.5,-2.2,1.3" class="g8_2" />
<path d="M516.3,736.4c0,-0.7,-0.8,-1.3,-2,-1.3c-1.3,0,-2.2,0.5,-2.2,1.3" class="g8_2" />
<path d="M516.3,737.4c0,-0.8,-0.8,-1.4,-2,-1.4c-1.2,0,-2.2,0.5,-2.2,1.3" class="g8_2" />
<path d="M516.3,738.2c0,-0.7,-0.8,-1.3,-2,-1.3c-1.2,0,-2.2,0.5,-2.2,1.2" class="g8_2" />
<path d="M516.3,739.2c0,-0.8,-0.7,-1.4,-2,-1.4c-1.2,0,-2.2,0.5,-2.2,1.3" class="g8_2" />
<path d="M516.4,730.1c0,-0.7,-0.8,-1.3,-2,-1.3c-1.3,0,-2.2,0.5,-2.2,1.3" class="g8_2" />
<path d="M516.2,731c0.1,-0.7,-0.7,-1.3,-2,-1.3c-1.2,-0.1,-2.1,0.5,-2.2,1.2" class="g8_2" />
<path d="M516.2,732c0,-0.8,-0.8,-1.4,-2,-1.4c-1.3,0,-2.2,0.5,-2.2,1.3" class="g8_2" />
<path d="M516.3,732.8c0,-0.7,-0.8,-1.3,-2,-1.3c-1.3,0,-2.2,0.5,-2.2,1.2" class="g8_2" />
<path d="M564,787.4c0.1,-1.3,-1.4,-2.4,-3.6,-2.4c-2.3,-0.1,-4,0.9,-4,2.3" class="g8_2" />
<path d="M556.1,787.4c-0.1,1.4,1.7,2.5,3.9,2.5c2.3,0.1,4.2,-1,4.3,-2.4" class="g9_2" />
<path d="M564.2,786.2c0.1,-1.4,-1.6,-2.5,-3.9,-2.6c-2.3,0,-4.2,1.1,-4.2,2.5c-0.1,1.3,0,1.3,0,1.3" class="g9_2" />
<path d="M556.1,787.4l0,-1" class="g8_2" />
<path d="M564.3,787.5c0,0,0,-1,0,-1" class="g9_2" />
<path d="M562,789.1c-0.4,-0.1,-1.6,-0.5,0,-1.2" class="g8_2" />
<path d="M558.4,789.2c1.6,-0.7,0.5,-1.1,0.2,-1.2c-0.4,-0.2,0.4,-0.6,0.4,-0.6" class="g8_2" />
<path d="M562.1,787.8l-0.9,-0.4" class="g8_2" />
<path d="M561.2,787.4c-0.7,0.7,-1.3,0.8,-2.2,0" class="g8_2" />
<path d="M562,789.1l-0.6,0.4" class="g8_2" />
<path d="M558.4,789.2c0.5,0.3,0.7,0.3,0.7,0.3" class="g8_2" />
<path d="M561.4,789.5c-0.7,-0.4,-1.5,-0.6,-2.3,0" class="g8_2" />
<path d="M562.3,783.9l0,-2.9m0,-7.2l0.1,-17.4M558,783.9l0,-2.8m0,-9.7l0,-15" class="g9_2" />
<path d="M562.3,766.9c0.1,-0.8,-0.7,-1.3,-1.9,-1.4c-1.3,0,-2.2,0.6,-2.2,1.3" class="g8_2" />
<path d="M562.4,767.8c0.1,-0.8,-0.7,-1.4,-2,-1.4c-1.2,0,-2.1,0.5,-2.2,1.3" class="g8_2" />
<path d="M562.3,768.7c0,-0.8,-0.8,-1.4,-2,-1.4c-1.3,0,-2.2,0.5,-2.2,1.3" class="g8_2" />
<path d="M562.2,769.6c0.1,-0.8,-0.7,-1.3,-2,-1.4c-1.2,0,-2.1,0.6,-2.2,1.3" class="g8_2" />
<path d="M562.3,770.5c0.1,-0.8,-0.7,-1.4,-2,-1.4c-1.2,0,-2.1,0.5,-2.2,1.3" class="g8_2" />
<path d="M562.2,781.7c0.1,-0.7,-0.7,-1.3,-2,-1.3c-1.2,0,-2.1,0.5,-2.2,1.2" class="g8_2" />
<path d="M562.3,782.6c0,-0.7,-0.7,-1.3,-2,-1.3c-1.2,-0.1,-2.2,0.5,-2.2,1.2" class="g8_2" />
<path d="M562.3,783.5c0,-0.8,-0.8,-1.4,-2,-1.4c-1.2,0,-2.2,0.5,-2.2,1.3" class="g8_2" />
<path d="M562.3,784.3c0,-0.7,-0.8,-1.3,-2,-1.3c-1.3,0,-2.2,0.5,-2.2,1.2" class="g8_2" />
<path d="M564.2,781.2c0.1,-1.3,-1.3,-2.4,-3.6,-2.4c-2.2,-0.1,-3.9,0.9,-4,2.3" class="g8_2" />
<path d="M556.4,781.2c-0.1,0.8,0.6,1.6,1.6,2.1m4.7,0c1.1,-0.4,1.8,-1.1,1.8,-2" class="g9_2" />
<path d="M562.3,756.4c0.1,-0.7,-0.7,-1.3,-1.9,-1.3c-1.3,-0.1,-2.2,0.5,-2.2,1.2" class="g9_2" />
<path d="M562.4,760.4c0.1,-0.7,-0.7,-1.3,-2,-1.3c-1.2,0,-2.1,0.5,-2.2,1.3" class="g8_2" />
<path d="M562.3,761.3c0,-0.7,-0.8,-1.3,-2,-1.3c-1.3,-0.1,-2.2,0.5,-2.2,1.2" class="g8_2" />
<path d="M562.2,762.3c0.1,-0.8,-0.7,-1.4,-2,-1.4c-1.2,0,-2.1,0.5,-2.2,1.3" class="g8_2" />
<path d="M562.3,763.1c0.1,-0.7,-0.7,-1.3,-2,-1.3c-1.2,0,-2.1,0.5,-2.2,1.2" class="g8_2" />
<path d="M562.4,764.1c0,-0.8,-0.8,-1.4,-2,-1.4c-1.3,0,-2.2,0.5,-2.2,1.3" class="g8_2" />
<path d="M562.4,764.9c0,-0.7,-0.8,-1.3,-2,-1.3c-1.3,-0.1,-2.2,0.5,-2.2,1.2" class="g8_2" />
<path d="M562.4,765.8c0,-0.7,-0.8,-1.3,-2,-1.3c-1.3,0,-2.2,0.5,-2.2,1.3" class="g8_2" />
<path d="M562.4,756.8c0.1,-0.7,-0.7,-1.3,-2,-1.3c-1.2,0,-2.1,0.5,-2.2,1.2" class="g8_2" />
<path d="M562.3,757.7c0,-0.7,-0.8,-1.3,-2,-1.3c-1.3,-0.1,-2.2,0.5,-2.2,1.2" class="g8_2" />
<path d="M562.2,758.7c0.1,-0.8,-0.7,-1.4,-2,-1.4c-1.2,0,-2.1,0.5,-2.2,1.3" class="g8_2" />
<path d="M562.3,759.5c0.1,-0.7,-0.7,-1.3,-2,-1.3c-1.2,-0.1,-2.1,0.5,-2.2,1.2" class="g8_2" />
<path d="M562.4,771.5c0.1,-0.8,-0.7,-1.4,-2,-1.4c-1.2,0,-2.1,0.5,-2.2,1.3" class="g8_2" />
<path d="M562.3,772.4c0,-0.8,-0.8,-1.4,-2,-1.4c-1.3,0,-2.2,0.5,-2.2,1.3" class="g8_2" />
<path d="M562.2,773.3c0.1,-0.7,-0.6,-1.4,-2,-1.4c-0.4,0.1,-0.9,0.1,-1.2,0.2" class="g8_2" />
<path d="M562.3,774.2c0.1,-0.8,-0.7,-1.4,-2,-1.4" class="g8_2" />
<path d="M154.9,909.6l-8.8,-5.1" class="g8_2" />
<path d="M157.6,905.2l0.3,-6.6" class="g9_2" />
<path d="M156.5,911.3c1.2,0.7,2.8,0.1,3.8,-1.7c0.9,-1.7,0.7,-3.5,-0.5,-4.2" class="g8_2" />
<path d="M159.8,905.2c-1.3,-0.8,-3,0.1,-4,1.8c-0.9,1.8,-0.7,3.8,0.5,4.5" class="g9_2" />
<path d="M157.2,911.9c1.3,0.7,3,-0.1,4,-1.9c0.9,-1.7,0.7,-3.7,-0.5,-4.4" class="g8_2" />
<path d="M159.8,905.2l0.9,0.4" class="g9_2" />
<path d="M156.3,911.5c0.1,0.1,0.9,0.4,0.9,0.4" class="g9_2" />
<path d="M156.1,909.3c0.3,-0.3,1.2,-1,1.3,0.6" class="g8_2" />
<path d="M157.6,906.2c0,1.7,0.8,1.1,1.1,0.9c0.4,-0.3,0.5,0.6,0.5,0.6" class="g8_2" />
<path d="M157.4,910.1l0.9,-0.5" class="g8_2" />
<path d="M158.3,909.6c-0.5,-0.9,-0.3,-1.5,0.9,-1.9" class="g8_2" />
<path d="M156.1,909.3L156,908.6" class="g8_2" />
<path d="M157.6,906.2c-0.6,0.3,-0.6,0.5,-0.6,0.5" class="g8_2" />
<path d="M156,908.6c0.7,-0.4,1.3,-0.9,1,-1.9" class="g8_2" />
<path d="M164.3,913.2l-1.1,-0.5l-6.5,3.1c0,0,-1.2,0.6,-1.2,1.7c0,0.1,0,0.3,0,0.6m0,5.8c0,4.4,0,9.4,0,9.4c0,0,0.1,1.3,1.1,1.6" class="g9_2" />
<path d="M153.9,922.7l-6.7,3.3l0,1.4l8.3,4.7" class="g9_2" />
<path d="M147.2,927.4l8.3,-4" class="g8_2" />
<path d="M157.2,924.4l0,2.1c0,0,-0.2,1.2,0.7,1" class="g8_2" />
<path d="M157.9,927.5c1,-0.3,1.9,-1.5,1.9,-3.4" class="g9_2" />
<path d="M157.9,924.5l0,2c0,0,-0.1,1.2,0.8,1" class="g8_2" />
<path d="M160.9,920.2l2,-1c0,0,0.6,-0.2,0.6,-1.4c0,-1.2,0,-5,0,-5" class="g8_2" />
<path d="M160.7,921.2l3,-1.6c0,0,0.6,-0.4,0.6,-1.5c0,-1.2,-0.1,-5,-0.1,-5" class="g8_2" />
<path d="M155.5,933.3c0,-0.7,0.7,-0.9,1.4,-1.3c0.8,-0.4,6.1,-3.1,6.1,-3.1l0.2,-6.2" class="g8_2" />
<path d="M156.9,934c-0.3,-0.2,-0.5,-0.8,0.1,-1.2c0.7,-0.3,6.7,-3.4,6.7,-3.4l0.3,-6.1" class="g8_2" />
<path d="M164,923.3l-0.8,-0.6l-3.4,1.4" class="g9_2" />
<path d="M155.7,923.5c1.2,0.7,2.8,0.1,3.7,-1.7c1,-1.7,0.7,-3.5,-0.5,-4.2" class="g8_2" />
<path d="M158.9,917.3c-1.2,-0.7,-3,0.2,-4,1.9c-0.9,1.8,-0.7,3.8,0.6,4.5" class="g9_2" />
<path d="M156.4,924.1c1.2,0.7,3,-0.1,3.9,-1.9c1,-1.7,0.7,-3.7,-0.5,-4.4" class="g8_2" />
<path d="M158.9,917.3l0.9,0.5" class="g9_2" />
<path d="M155.5,923.7c0,0.1,0.9,0.4,0.9,0.4" class="g9_2" />
<path d="M155.2,921.5c0.3,-0.3,1.3,-1,1.3,0.6" class="g8_2" />
<path d="M156.8,918.4c-0.1,1.7,0.8,1.1,1.1,0.9c0.3,-0.3,0.4,0.6,0.4,0.6" class="g8_2" />
<path d="M156.6,922.3l0.8,-0.5" class="g8_2" />
<path d="M157.4,921.8c-0.4,-1,-0.3,-1.5,0.9,-1.9" class="g8_2" />
<path d="M155.2,921.5l-0.1,-0.7" class="g8_2" />
<path d="M156.8,918.4c-0.6,0.3,-0.7,0.5,-0.7,0.5" class="g8_2" />
<path d="M155.1,920.8c0.7,-0.4,1.3,-0.9,1,-1.9" class="g8_2" />
<path d="M157.3,915.5l0,-3.5" class="g9_2" />
<path d="M245.4,489.3c7.9,5.3,17,13.8,18.7,15.2c1.7,1.4,7.5,6.1,11.1,7.1c3.6,1,5.4,-0.6,6.1,-2.4c0.8,-1.8,2,-4.6,3,-11.2c1.1,-6.7,4.8,-13.4,9.9,-17c5.1,-3.6,12.1,-4,18.4,-0.9c6.3,3,18.6,10.1,23,12.5c4.4,2.4,11.3,5.2,14.5,5.2c3.2,0.1,5.6,-2,6.3,-3.5" class="g9_2" />
<path d="M530.1,324.6L529.3,324l0,-6.4l8,-3.9c0,0,1.6,-0.8,2.8,0c1.1,0.7,2.8,1.6,2.8,1.6l0,1.9c0,0,0.2,0.7,0.6,0.7" class="g9_2" />
<path d="M542.9,317.2c0.7,-1.1,1.3,-1.4,2.5,-2.1c1.3,-0.7,11.7,-5.7,11.7,-5.7L618,347l0,1.3l-11.4,5.8" class="g9_2" />
<path d="M534.4,327.6c1.3,-0.3,1.7,-2.1,1.7,-2.1l0.1,-5.7c-0.1,-0.8,-0.6,-0.9,-1.1,-1" class="g9_2" />
<path d="M530.5,334.6l-1,-0.4l0,-6.8l3.9,-1.9l1,0.6c0,0,-0.2,1.5,0.5,1.4" class="g9_2" />
<path d="M529.4,334.2l7.8,-3.9c0,0,2.1,-0.7,3.5,0.1c1.5,0.9,8.3,5.2,8.3,5.2l0,11.2l7.8,4.8m4.5,2.7l38.5,23.8" class="g8_2" />
<path d="M600.2,367.3l-0.4,10.8l-0.9,0.8" class="g9_2" />
<path d="M608.9,357.6l0.2,15.8c0,0.4,-0.5,1.2,-1.5,1.5" class="g9_2" />
<path d="M607.4,374c0.3,-0.2,0.4,-1,-0.1,-1.3m-4.5,-2.8c-1.4,-0.8,-2.6,-1.5,-2.6,-1.5" class="g8_2" />
<path d="M600.2,367.3l2.4,1.5m4.6,2.8l0.7,0.4c0,0,1.2,0.6,1,1.8" class="g8_2" />
<path d="M533.1,325.7c0,0.7,0.1,2.3,1.2,2.1" class="g8_2" />
<path d="M534,326.1c0,0.4,0,1.1,0.3,1.6" class="g8_2" />
<path d="M539,329.1l-0.2,-14.6" class="g8_2" />
<path d="M543.9,318c0.3,-0.8,0.7,-1.3,1.8,-1.8c1,-0.5,11.4,-5.6,11.4,-5.6L618,348.3L557.1,310.6l0,-1.2" class="g8_2" />
<path d="M544.8,317.9l10.7,6.3" class="g8_2" />
<path d="M561.6,328l38.8,23.2" class="g8_2" />
<path d="M548.1,336.1l0.9,-0.5l0,11.2l-0.9,0.5" class="g8_2" />
<path d="M561.3,354.6l-0.7,-34.4m-3.7,34.5l-0.6,-34.5" class="g9_2" />
<path d="M560.5,320.8c0.1,-0.7,-0.7,-1.3,-2,-1.3c-1.2,0,-2.1,0.5,-2.2,1.3" class="g8_2" />
<path d="M560.6,321.7c0,-0.7,-0.8,-1.3,-2,-1.3c-1.2,0,-2.1,0.5,-2.2,1.2" class="g8_2" />
<path d="M560.5,323.4c0.1,-0.7,-0.7,-1.3,-1.9,-1.3c-1.3,0,-2.2,0.5,-2.2,1.2" class="g8_2" />
<path d="M608.4,346.9c0.1,-1.3,-1.4,-2.4,-3.6,-2.4c-2.3,-0.1,-3.9,0.9,-4,2.3" class="g8_2" />
<path d="M600.6,346.9c-0.1,0.9,0.7,1.7,1.9,2.2m4.5,-0.2c1,-0.4,1.7,-1.1,1.7,-1.9" class="g9_2" />
<path d="M562.5,320.3c0.1,-1.3,-1.3,-2.4,-3.6,-2.4c-2.2,0,-3.9,0.9,-4,2.3" class="g8_2" />
<path d="M554.7,320.3c-0.1,0.8,0.6,1.6,1.6,2.1m4.7,0c1,-0.4,1.8,-1.1,1.8,-2" class="g9_2" />
<path d="M608.9,357.6c0,-1.2,-1.9,-2.3,-1.9,-2.3" class="g9_2" />
<path d="M606.4,347.4c0,-0.7,-0.7,-1.3,-2,-1.3c-1.2,0,-2.1,0.5,-2.2,1.2" class="g8_2" />
<path d="M608.4,346.9c0.1,-1.3,-1.4,-2.4,-3.6,-2.4c-2.3,-0.1,-3.9,0.9,-4,2.3" class="g8_2" />
<path d="M600.6,346.9c-0.1,0.8,0.6,1.6,1.6,2.1m4.6,0c1.1,-0.4,1.9,-1.2,1.9,-2" class="g9_2" />
<path d="M563.6,358.2c0.1,-1.4,-1.5,-2.5,-4.1,-2.5c-2.6,0,-4.5,0.9,-4.6,2.3" class="g8_2" />
<path d="M554.7,358.1c-0.1,1.4,1.9,2.5,4.4,2.5c2.6,0.1,4.8,-1,4.9,-2.4" class="g9_2" />
<path d="M563.9,356.9c0.1,-1.4,-1.9,-2.5,-4.5,-2.5c-2.5,-0.1,-4.7,1,-4.8,2.4c0,0.3,0.1,1.3,0.1,1.3" class="g9_2" />
<path d="M564,358.2c0,0,-0.1,-1.3,-0.1,-1.3" class="g9_2" />
<path d="M561.4,359.8c-0.5,-0.1,-1.9,-0.5,-0.1,-1.2" class="g8_2" />
<path d="M557.2,359.9c1.9,-0.7,0.7,-1.1,0.3,-1.2c-0.4,-0.2,0.5,-0.6,0.5,-0.6" class="g8_2" />
<path d="M561.4,358.5l-0.9,-0.4" class="g8_2" />
<path d="M560.5,358.1c-0.8,0.7,-1.5,0.8,-2.5,0" class="g8_2" />
<path d="M561.4,359.8l-0.7,0.4" class="g8_2" />
<path d="M557.2,359.9c0.6,0.3,0.8,0.3,0.8,0.3" class="g8_2" />
<path d="M560.7,360.2c-0.9,-0.4,-1.7,-0.6,-2.7,0" class="g8_2" />
<path d="M561.6,355.1c0.1,-0.8,-0.8,-1.4,-2.2,-1.4c-1.4,0,-2.5,0.5,-2.5,1.3" class="g8_2" />
<path d="M560.6,325.1c0,-0.7,-0.8,-1.3,-2,-1.3c-1.2,0,-2.1,0.5,-2.2,1.2" class="g8_2" />
<path d="M560.5,326.8c0.1,-0.7,-0.7,-1.3,-1.9,-1.3c-1.3,0,-2.2,0.5,-2.2,1.2" class="g8_2" />
<path d="M560.8,328.5c0,-0.8,-0.8,-1.4,-2,-1.4c-1.2,0,-2.2,0.5,-2.2,1.3" class="g8_2" />
<path d="M560.7,330.2c0.1,-0.8,-0.7,-1.4,-1.9,-1.4c-1.3,0,-2.2,0.5,-2.2,1.3" class="g8_2" />
<path d="M560.8,331.9c0,-0.8,-0.8,-1.4,-2,-1.4c-1.2,0,-2.2,0.5,-2.2,1.3" class="g8_2" />
<path d="M560.7,333.6c0.1,-0.8,-0.7,-1.4,-1.9,-1.4c-1.3,0,-2.2,0.5,-2.2,1.3" class="g8_2" />
<path d="M560.9,335.2c0.1,-0.7,-0.7,-1.3,-2,-1.3c-1.2,0,-2.1,0.5,-2.2,1.2" class="g8_2" />
<path d="M560.9,336.9c0,-0.7,-0.8,-1.3,-2,-1.3c-1.2,0,-2.1,0.5,-2.2,1.3" class="g8_2" />
<path d="M560.9,338.6c0.1,-0.7,-0.7,-1.3,-2,-1.3c-1.2,0,-2.1,0.5,-2.2,1.2" class="g8_2" />
<path d="M560.9,340.3c0,-0.7,-0.8,-1.3,-2,-1.3c-1.2,0,-2.1,0.5,-2.2,1.2" class="g8_2" />
<path d="M561,342c0.1,-0.8,-0.7,-1.4,-1.9,-1.4c-1.3,0,-2.2,0.5,-2.2,1.3" class="g8_2" />
<path d="M561,343.7c0,-0.8,-0.7,-1.4,-2,-1.4c-1.2,0,-2.1,0.5,-2.2,1.3" class="g8_2" />
<path d="M561,345.3c0.1,-0.7,-0.7,-1.3,-1.9,-1.3c-1.3,0,-2.2,0.5,-2.2,1.3" class="g8_2" />
<path d="M561,347.1c0,-0.8,-0.7,-1.4,-2,-1.4c-1.2,0,-2.1,0.5,-2.2,1.3" class="g8_2" />
<path d="M561.2,348.7c0,-0.7,-0.8,-1.3,-2,-1.3c-1.3,-0.1,-2.2,0.5,-2.2,1.2" class="g8_2" />
<path d="M561.1,350.4c0.1,-0.7,-0.7,-1.3,-2,-1.3c-1.2,-0.1,-2.1,0.5,-2.2,1.2" class="g8_2" />
<path d="M561.2,352.1c0,-0.7,-0.8,-1.3,-2,-1.3c-1.3,-0.1,-2.2,0.5,-2.2,1.2" class="g8_2" />
<path d="M561.1,353.8c0.1,-0.7,-0.7,-1.3,-2,-1.3c-1.2,-0.1,-2.1,0.5,-2.2,1.2" class="g8_2" />
<path d="M607.2,381.1l-0.7,-34.4m-3.6,34.5l-0.7,-34.4" class="g9_2" />
<path d="M606.5,347.4c0,-0.8,-0.8,-1.3,-2,-1.4c-1.3,0,-2.2,0.5,-2.2,1.3" class="g8_2" />
<path d="M606.5,348.3c0.1,-0.8,-0.7,-1.4,-2,-1.4c-1.2,0,-2.1,0.5,-2.2,1.3" class="g8_2" />
<path d="M606.5,350c0,-0.8,-0.8,-1.4,-2,-1.4c-1.2,0,-2.1,0.5,-2.2,1.3" class="g8_2" />
<path d="M608.4,346.9c0.1,-1.4,-1.3,-2.4,-3.5,-2.5c-2.3,0,-4,1,-4.1,2.3" class="g8_2" />
<path d="M600.6,346.8c0,0.9,0.6,1.6,1.7,2.1m4.6,0.1c1.1,-0.5,1.8,-1.2,1.9,-2" class="g9_2" />
<path d="M609.5,384.7c0.1,-1.4,-1.5,-2.4,-4.1,-2.5c-2.5,0,-4.4,1,-4.5,2.3" class="g8_2" />
<path d="M600.6,384.6c-0.1,1.4,1.9,2.5,4.5,2.6c2.5,0,4.7,-1.1,4.8,-2.4" class="g9_2" />
<path d="M609.8,383.4c0.1,-1.3,-1.9,-2.5,-4.4,-2.5c-2.6,0,-4.8,1,-4.9,2.4c0,0.3,0.1,1.3,0.1,1.3" class="g9_2" />
<path d="M609.9,384.8c0,-0.1,-0.1,-1.4,-0.1,-1.4" class="g9_2" />
<path d="M607.3,386.4c-0.5,-0.1,-1.8,-0.6,-0.1,-1.2" class="g8_2" />
<path d="M603.2,386.4c1.8,-0.6,0.6,-1,0.2,-1.2c-0.4,-0.1,0.5,-0.6,0.5,-0.6" class="g8_2" />
<path d="M607.4,385.1l-1,-0.5" class="g8_2" />
<path d="M606.4,384.6c-0.8,0.7,-1.5,0.8,-2.5,0" class="g8_2" />
<path d="M607.3,386.4l-0.7,0.3" class="g8_2" />
<path d="M603.2,386.4c0.5,0.3,0.8,0.3,0.8,0.3" class="g8_2" />
<path d="M606.6,386.7c-0.8,-0.4,-1.7,-0.6,-2.6,0" class="g8_2" />
<path d="M607.6,381.6c0,-0.8,-0.9,-1.3,-2.3,-1.4c-1.4,0,-2.4,0.6,-2.5,1.3" class="g8_2" />
<path d="M606.5,351.7c0.1,-0.8,-0.7,-1.4,-2,-1.4c-1.2,0,-2.1,0.5,-2.2,1.3" class="g8_2" />
<path d="M606.5,353.4c0,-0.8,-0.8,-1.4,-2,-1.4c-1.2,0,-2.1,0.5,-2.2,1.3" class="g8_2" />
<path d="M606.7,355c0.1,-0.7,-0.7,-1.3,-2,-1.4c-1.2,0,-2.1,0.6,-2.2,1.3" class="g8_2" />
<path d="M606.7,356.7c0,-0.7,-0.8,-1.3,-2,-1.3c-1.2,-0.1,-2.2,0.5,-2.2,1.2" class="g8_2" />
<path d="M606.7,358.4c0.1,-0.8,-0.7,-1.3,-2,-1.4c-1.2,0,-2.1,0.6,-2.2,1.3" class="g8_2" />
<path d="M606.7,360.1c0,-0.7,-0.8,-1.3,-2,-1.3c-1.2,-0.1,-2.2,0.5,-2.2,1.2" class="g8_2" />
<path d="M606.9,361.8c0,-0.8,-0.8,-1.4,-2,-1.4c-1.3,0,-2.2,0.5,-2.2,1.3" class="g8_2" />
<path d="M606.8,363.5c0.1,-0.8,-0.7,-1.4,-2,-1.4c-1.2,0,-2.1,0.5,-2.2,1.3" class="g8_2" />
<path d="M606.9,365.2c0,-0.8,-0.8,-1.4,-2,-1.4c-1.3,0,-2.2,0.5,-2.2,1.3" class="g8_2" />
<path d="M606.8,366.9c0.1,-0.8,-0.7,-1.4,-2,-1.4c-1.2,0,-2.1,0.5,-2.2,1.3" class="g8_2" />
<path d="M607,368.5c0,-0.8,-0.8,-1.3,-2,-1.4c-1.2,0,-2.1,0.5,-2.2,1.3" class="g8_2" />
<path d="M606.9,370.2c0.1,-0.8,-0.7,-1.3,-1.9,-1.4c-1.3,0,-2.2,0.6,-2.2,1.3" class="g8_2" />
<path d="M607,371.9c0,-0.8,-0.8,-1.3,-2,-1.4c-1.2,0,-2.1,0.5,-2.2,1.3" class="g8_2" />
<path d="M606.9,373.6c0.1,-0.8,-0.7,-1.3,-1.9,-1.4c-1.3,0,-2.2,0.6,-2.2,1.3" class="g8_2" />
<path d="M607.1,375.2c0.1,-0.7,-0.7,-1.3,-2,-1.3c-1.2,0,-2.1,0.5,-2.2,1.3" class="g8_2" />
<path d="M607.1,377c0,-0.8,-0.8,-1.4,-2,-1.4c-1.3,0,-2.2,0.5,-2.2,1.3" class="g8_2" />
<path d="M607.1,378.6c0.1,-0.7,-0.7,-1.3,-2,-1.3c-1.2,0,-2.1,0.5,-2.2,1.3" class="g8_2" />
<path d="M607.1,380.3c0,-0.7,-0.8,-1.3,-2,-1.3c-1.3,0,-2.2,0.5,-2.2,1.3" class="g8_2" />
<path d="M602.4,370.1l-2.1,1" class="g9_2" />
<path d="M530.1,324.6c0.3,0.1,4.1,-1.8,4.1,-1.8c0,0,0,-0.8,0,-1.1c0,-0.3,0.1,-2,1.8,-2.5" class="g9_2" />
<path d="M529.3,324l3.9,-1.8l0.1,-1.1c0,0,0,-1.9,1.4,-2.4" class="g8_2" />
<path d="M533.2,322.2l1,0.6" class="g8_2" />
<path d="M602.9,377.7l-2,0.9l-1.1,-0.5" class="g9_2" />
<path d="M602.7,376.6l-2.6,1.3" class="g8_2" />
<path d="M477.7,349.3c1,0.7,2.3,0.2,3.3,-1.2c1.1,-1.5,1.1,-3.1,0.2,-3.8" class="g8_2" />
<path d="M481.2,344.1c-0.9,-0.7,-2.5,0,-3.5,1.4c-1,1.5,-1.1,3.3,-0.2,4" class="g9_2" />
<path d="M478.5,350.1c0.9,0.7,2.5,0,3.5,-1.5c1,-1.4,1.1,-3.2,0.2,-3.9c-0.2,-0.2,-1,-0.6,-1,-0.6" class="g9_2" />
<path d="M477.5,349.5c0.1,0,1,0.6,1,0.6" class="g9_2" />
<path d="M477.4,347.2c0.3,-0.2,1.1,-0.8,0.9,0.5" class="g8_2" />
<path d="M479,344.8c-0.3,1.4,0.5,0.8,0.7,0.7c0.3,-0.2,0.2,0.5,0.2,0.5" class="g8_2" />
<path d="M478.3,347.9l0.7,-0.4" class="g8_2" />
<path d="M479,347.5c-0.2,-0.8,0,-1.2,0.9,-1.5" class="g8_2" />
<path d="M477.4,347.2l0.1,-0.5" class="g8_2" />
<path d="M479,344.8c-0.5,0.2,-0.5,0.3,-0.5,0.3" class="g8_2" />
<path d="M477.5,346.7c0.5,-0.4,1,-0.7,1,-1.6" class="g8_2" />
<path d="M480.7,349.6c0.5,0.4,1.2,0.1,1.8,-0.7c0.6,-0.8,0.6,-1.6,0.1,-2" class="g8_2" />
<path d="M483,351.1c0.5,0.4,1.3,0.1,1.8,-0.7c0.6,-0.8,0.6,-1.7,0.1,-2.1" class="g8_2" />
<path d="M482,350.4c0.5,0.4,1.3,0.1,1.9,-0.7c0.5,-0.8,0.5,-1.6,0,-2" class="g8_2" />
<path d="M481,349.8c0.5,0.3,1.3,0.1,1.8,-0.7c0.6,-0.8,0.6,-1.7,0.1,-2.1" class="g8_2" />
<path d="M484.9,348.3c0,0,-2,-1.3,-2.1,-1.4" class="g9_2" />
<path d="M483,351.1c0,0,-1.9,-1.3,-2,-1.3" class="g9_2" />
<path d="M158.4,508.5c0.9,0.7,2.3,0.2,3.3,-1.2c1,-1.5,1,-3.1,0.1,-3.8" class="g8_2" />
<path d="M161.9,503.3c-1,-0.7,-2.5,-0.1,-3.6,1.4c-1,1.5,-1.1,3.3,-0.1,4" class="g9_2" />
<path d="M159.1,509.3c0.9,0.7,2.5,0,3.5,-1.5c1.1,-1.4,1.1,-3.2,0.2,-3.9c-0.2,-0.2,-0.9,-0.6,-0.9,-0.6" class="g9_2" />
<path d="M158,506.4c0.3,-0.2,1.1,-0.8,0.9,0.5" class="g8_2" />
<path d="M159.6,504c-0.3,1.3,0.5,0.8,0.7,0.7c0.3,-0.2,0.3,0.5,0.3,0.5" class="g8_2" />
<path d="M159.6,506.7c-0.2,-0.8,0,-1.2,1,-1.5" class="g8_2" />
<path d="M158,506.4l0.1,-0.6" class="g8_2" />
<path d="M159.6,504c-0.4,0.2,-0.5,0.3,-0.5,0.3" class="g8_2" />
<path d="M158.1,505.8c0.6,-0.3,1,-0.7,1,-1.5" class="g8_2" />
<path d="M161.3,508.8c0.5,0.4,1.3,0.1,1.8,-0.7c0.6,-0.8,0.6,-1.7,0.1,-2" class="g8_2" />
<path d="M163.6,510.3c0.5,0.3,1.3,0.1,1.9,-0.7c0.5,-0.8,0.5,-1.7,0,-2.1" class="g8_2" />
<path d="M163.1,510c0.5,0.3,1.3,0.1,1.9,-0.7c0.5,-0.8,0.6,-1.7,0,-2.1" class="g8_2" />
<path d="M162.7,509.6c0.5,0.4,1.2,0.1,1.8,-0.7c0.5,-0.8,0.6,-1.7,0.1,-2" class="g8_2" />
<path d="M162.1,509.3c0.5,0.3,1.3,0.1,1.9,-0.7c0.5,-0.8,0.5,-1.7,0,-2.1" class="g8_2" />
<path d="M161.6,509c0.5,0.3,1.3,0.1,1.8,-0.7c0.6,-0.8,0.6,-1.7,0.1,-2.1" class="g8_2" />
<path d="M165.5,507.5c0,0,-2,-1.4,-2.1,-1.4" class="g9_2" />
<path d="M113.9,574.3l0.6,-29.1m3.7,29.2l0.5,-26.7" class="g9_2" />
<path d="M111.6,577.8c-0.1,-1.3,1.5,-2.4,4.1,-2.4c2.5,-0.1,4.4,0.9,4.5,2.3" class="g8_2" />
<path d="M120.5,577.8c0.1,1.3,-1.9,2.5,-4.5,2.5c-2.5,0,-4.7,-1,-4.8,-2.4" class="g9_2" />
<path d="M111.3,576.6c-0.1,-1.4,1.9,-2.5,4.4,-2.6c2.6,0,4.8,1.1,4.9,2.4c0,0.3,-0.1,1.4,-0.1,1.4" class="g9_2" />
<path d="M111.2,577.9c0,-0.1,0.1,-1.3,0.1,-1.3" class="g9_2" />
<path d="M113.8,579.5c0.5,-0.1,1.8,-0.5,0.1,-1.2" class="g8_2" />
<path d="M117.9,579.5c-1.8,-0.6,-0.6,-1,-0.2,-1.1c0.4,-0.2,-0.5,-0.6,-0.5,-0.6" class="g8_2" />
<path d="M113.7,578.2l1,-0.4" class="g8_2" />
<path d="M114.7,577.8c0.8,0.6,1.5,0.8,2.5,0" class="g8_2" />
<path d="M113.8,579.5l0.7,0.3" class="g8_2" />
<path d="M117.9,579.5c-0.5,0.4,-0.8,0.3,-0.8,0.3" class="g8_2" />
<path d="M114.5,579.8c0.8,-0.4,1.7,-0.6,2.6,0" class="g8_2" />
<path d="M113.5,574.7c0,-0.7,0.9,-1.3,2.3,-1.3c1.4,-0.1,2.4,0.5,2.5,1.2" class="g8_2" />
<path d="M114.5,547.2c-0.1,-0.5,0.4,-1,1.2,-1.2" class="g8_2" />
<path d="M114.4,548.1c-0.1,-0.7,0.7,-1.3,2,-1.3c1.2,0,2.1,0.5,2.2,1.2" class="g8_2" />
<path d="M114.4,549.8c0,-0.7,0.8,-1.3,2,-1.3c1.2,0,2.2,0.5,2.2,1.3" class="g8_2" />
<path d="M114.4,551.5c-0.1,-0.7,0.7,-1.3,2,-1.3c1.2,0,2.1,0.5,2.2,1.2" class="g8_2" />
<path d="M114.4,553.2c0,-0.7,0.8,-1.3,2,-1.3c1.2,0,2.2,0.5,2.2,1.2" class="g8_2" />
<path d="M114.2,554.9c0,-0.8,0.8,-1.3,2,-1.4c1.2,0,2.2,0.6,2.2,1.3" class="g8_2" />
<path d="M114.3,556.6c-0.1,-0.8,0.7,-1.3,2,-1.4c1.2,0,2.1,0.6,2.2,1.3" class="g8_2" />
<path d="M114.2,558.3c0,-0.8,0.8,-1.3,2,-1.4c1.2,0,2.2,0.6,2.2,1.3" class="g8_2" />
<path d="M114.3,560c-0.1,-0.8,0.7,-1.3,2,-1.4c1.2,0,2.1,0.6,2.2,1.3" class="g8_2" />
<path d="M114.1,561.6c0,-0.7,0.8,-1.3,2,-1.3c1.2,-0.1,2.1,0.5,2.2,1.2" class="g8_2" />
<path d="M114.2,563.3c-0.1,-0.7,0.7,-1.3,1.9,-1.3c1.3,-0.1,2.2,0.5,2.2,1.2" class="g8_2" />
<path d="M114.1,565c0,-0.7,0.8,-1.3,2,-1.3c1.2,-0.1,2.1,0.5,2.2,1.2" class="g8_2" />
<path d="M114.2,566.7c-0.1,-0.7,0.7,-1.3,1.9,-1.3c1.3,-0.1,2.2,0.5,2.2,1.2" class="g8_2" />
<path d="M114,568.4c-0.1,-0.8,0.7,-1.4,2,-1.4c1.2,0,2.1,0.5,2.2,1.3" class="g8_2" />
<path d="M114,570.1c0,-0.8,0.8,-1.4,2,-1.4c1.3,0,2.2,0.5,2.2,1.3" class="g8_2" />
<path d="M114,571.8c-0.1,-0.8,0.7,-1.4,2,-1.4c1.2,0,2.1,0.5,2.2,1.3" class="g8_2" />
<path d="M114,573.5c0,-0.8,0.8,-1.4,2,-1.4c1.3,0,2.2,0.5,2.2,1.3" class="g8_2" />
<path d="M118,530.7l43,24.8" class="g9_2" />
<path d="M160.2,582.2L121.4,560.1c0,0,-0.5,-0.1,-0.5,-1.3c0,-1.3,-0.1,-10.1,-0.1,-10.1l-8.4,-4.8c0,0,-0.7,-0.4,-0.7,-1.5c0,-1.1,0.4,-15.5,0.4,-15.5c0,0,0.1,-0.8,1,-1.3c0.8,-0.4,6.3,-3.1,6.3,-3.1c0,0,0.6,-0.3,0.9,-0.1c0.4,0.2,0.7,0.5,0.7,0.5l0,5.4c0,0,-0.1,0.9,-0.6,1.2c-0.4,0.2,-2.8,1.3,-2.8,1.3c0,0,-0.6,0.2,-0.8,0.1c-0.2,-0.1,-0.6,-0.6,-0.6,-0.6l0,-1.2c0,0,-0.2,-0.6,-0.6,-0.6" class="g9_2" />
<path d="M116.2,529.1c-0.8,0.2,-1.6,1.6,-1.6,2.4c0,0.9,0,5.4,0,5.4" class="g9_2" />
<path d="M114,537c0.6,0.3,2.3,-0.5,2.3,-3.3" class="g9_2" />
<path d="M116.3,533.7l3.5,-1.8l0.9,0.6l0,5.4c0,0,0.1,1.1,-1.2,1.7c-1.4,0.7,-5.7,2.9,-5.7,2.9c0,0,-0.6,0.3,-0.6,0.6" class="g9_2" />
<path d="M111.7,541.3l-7.5,-4.4l0,-1.3l7.8,-4" class="g9_2" />
<path d="M104.2,536.8l7.8,-3.9" class="g8_2" />
<path d="M119.8,532.4l0,5.2c0,0,0,0.8,-0.8,1.3c-0.8,0.5,-6.3,3,-6.3,3c0,0,-1.3,0.9,-0.8,1.4" class="g8_2" />
<path d="M114,537c-0.2,-0.3,-0.2,-0.4,-0.3,-0.8c0,-0.5,0,-5.2,0,-5.2c0,0,0.2,-2,1.9,-2.5" class="g8_2" />
<path d="M116.3,530.4c0.5,-0.2,3.2,-1.5,3.2,-1.5c0,0,0.6,-0.2,0.6,-1c0,-0.8,0,-5.6,0,-5.6" class="g8_2" />
<path d="M113.2,543.1c1.4,1.2,8.5,4.9,8.5,4.9c0,0,0.3,0,0.3,0.8c0,0.8,-0.1,9.9,-0.1,9.9c0,0,0.1,0.4,1,1c0.8,0.5,37.4,21.5,37.4,21.5" class="g8_2" />
<path fill-rule="evenodd" d="M489.2,346.1l4,3.6l1.9,1l4.2,-7.7l-1.7,-1.2l-2,1l0.2,-1.5l29.3,-14.5l0,-2.5l-1.9,-1L491.8,339l0,5.6Z" class="g19_2" />
<path d="M487.5,339.5l0,-15" class="g8_2" />
<path d="M523.3,323.3l-31.4,15.6l0,5.6l-3,1.6l4.4,3.5l1.8,1.1l4.3,-7.8l-1.8,-1.2l-3.2,1.7" class="g9_2" />
<path d="M496,342.5l0,-1.1l29.1,-14.6l0,-2.5" class="g9_2" />
<path d="M493.3,349.6l4.3,-7.9" class="g8_2" />
<path d="M494.4,343.4l0,-3.3l28.8,-14.4l0,-2.4l0,2.4l1.9,1.1" class="g8_2" />
<path d="M494.4,340.1l1.6,1.3" class="g8_2" />
<path d="M523.2,323.3l1.9,1" class="g9_2" />
<path d="M556.7,373.6l5.5,-2.8" class="g8_2" />
<path d="M530.5,334.6l7.2,-3.6c0,0,1.4,-0.5,2.1,-0.1c0.8,0.5,8.3,5.2,8.3,5.2L548,347.3l8.8,5.4m7.3,4.6l34.8,21.6" class="g9_2" />
<path d="M158.2,508.7c0,0,0.9,0.6,0.9,0.6" class="g9_2" />
<path d="M163.6,510.3c0,0,-1.9,-1.3,-2,-1.3" class="g9_2" />
<path fill-rule="evenodd" d="M451.1,1028l-0.1,-7.5l2.6,-1.2l-15.9,-7.5l0,-7L508,994.5l0,7l-9.1,39.1l-18.4,-9.7l-10,6.8Z" class="g16_2" />
<path d="M461.9,1025.8c-0.3,-1.5,3.6,-3,6.1,-3.2c2.5,-0.1,7.3,1.2,7.6,3.2" class="g8_2" />
<path d="M482.3,1025.2l-5.1,3.6" class="g8_2" />
<path fill-rule="evenodd" d="M485,1017.1l-28.9,13.4l-5,-1.9l-0.1,-8.1l2.6,-1.2l-15.9,-7.5l0,-7l76.2,-4.7l0,7Z" class="g17_2" />
<path fill-rule="evenodd" d="M482.1,1031.9l-11.6,5.8L451,1028l10.7,-4.8l-24,-11.4l76.2,-4.7l-15,33.5Z" class="g18_2" />
<path d="M451.1,1028.5l19.4,9.2l10.9,-5.4l17.6,8.2l14.9,-33.4" class="g9_2" />
<path d="M437.7,1011.8l76.2,-4.7" class="g8_2" />
<path d="M451.1,1028l10.6,-4.8" class="g8_2" />
<path d="M437.7,1011.8l24,11.4" class="g9_2" />
<path fill-rule="evenodd" d="M595.8,327.7c1.3,0,2.4,1,2.4,2.3c0,1.3,-1.1,2.3,-2.4,2.3c-1.2,0,-2.3,-1,-2.3,-2.3c0,-1.3,1.1,-2.3,2.3,-2.3Z" class="g15_2" />
<path d="M640.6,304.3l-8,0L595.8,330" class="g8_2" />
<path d="M561.1,389.3c-0.6,-0.5,-1.7,-0.3,-2.6,0.5m-1.6,4c0.1,0.4,0.3,0.7,0.5,0.9" class="g9_2" />
<path d="M557.4,394.7c0.1,0,1,0.6,1,0.6" class="g9_2" />
<path d="M558.9,390c-0.5,0.2,-0.5,0.3,-0.5,0.3" class="g8_2" />
<path d="M558,393.5c0.5,0.4,1.3,0.2,1.8,-0.6c0.6,-0.9,0.6,-1.7,0.1,-2.1" class="g8_2" />
<path d="M557,392.9c0.6,0.4,1.3,0.1,1.9,-0.7c0.5,-0.8,0.6,-1.7,0.1,-2.1" class="g8_2" />
<path d="M556.8,392.2c0.3,-0.1,0.6,-0.3,0.9,-0.7c0.5,-0.9,0.6,-1.7,0.1,-2.1" class="g8_2" />
<path d="M559.9,390.8l-2.7,-1.9" class="g9_2" />
<path d="M82,82l770,0l0,1045l-770,0Z" class="g9_2" />
<path fill-rule="evenodd" d="M124.8,524.2l0.1,2.5l1.3,1.3l24,-11.9l0,1.1l-2.9,1.6l4.3,3.4l1.9,1.2l4.2,-7.9L156,514.3l-1.7,0.9l0,-3.6l-1.6,-1.3Z" class="g19_2" />
<path d="M150.2,514.1l0,3.1l-2.9,1.6l4.3,3.4l1.9,1.2l4.2,-7.9L156,514.3l-3.3,1.7" class="g9_2" />
<path d="M152.7,510.3l-27.8,13.9l0,2.5l1.7,1.1l23.6,-11.7" class="g9_2" />
<path d="M154.3,515.2l0,-3.6" class="g9_2" />
<path d="M151.6,522.2l4.4,-7.9" class="g8_2" />
<path d="M124.9,526.7l25.2,-12.6" class="g8_2" />
<path d="M152.5,516.5l0,-6" class="g8_2" />
<path d="M152.7,510.3l1.6,1.3" class="g9_2" />
<path d="M558.4,395.3c0.9,0.7,2.5,0.1,3.5,-1.4c1,-1.5,1.1,-3.3,0.2,-4c-0.2,-0.1,-1,-0.6,-1,-0.6" class="g9_2" />
<path d="M557.6,394.5c1,0.7,2.3,0.3,3.4,-1.2c1,-1.5,1,-3.1,0.1,-3.7" class="g8_2" />
<path d="M557.8,393.4L557,392.8" class="g9_2" />
<path d="M351.7,913.9C331.8,901.1,310.5,888.3,291.4,896.6c-19.2,8.3,-21.9,41.8,-25.5,78.1c-3.7,36.4,8.2,53.5,36.4,70.9c28.3,17.4,92.6,22.4,110.8,13.1" class="g20_2" />
<path d="M351.7,913.9C331.8,901.1,310.5,888.3,291.4,896.6c-19.2,8.3,-21.9,41.8,-25.5,78.1c-3.7,36.4,8.2,53.5,36.4,70.9c28.3,17.4,92.6,22.4,110.8,13.1" class="g21_2" />
<path fill-rule="evenodd" d="M348.1,920.1l10.2,-3.9l-2.5,-4.9l-9.4,5.2Z" class="g11_2" />
<path d="M289.1,944.6l65,-31.9" class="g9_2" />
<path d="M358,905.9c0,1.1,-0.3,2.2,-0.8,3.4c-0.9,1.7,-2.1,3,-3.3,3.5" class="g9_2" />
<path fill-rule="evenodd" d="M422.6,1058.8l-5.4,2.5c0,0,-2.4,0.8,-4.1,-2.6c-1.6,-3.3,-0.9,-5.1,0.3,-5.7c1.3,-0.6,3.9,-2,3.9,-2l-0.3,3.2l0.1,0.8l0.7,0.8Z" class="g12_2" />
<path fill-rule="evenodd" d="M408,187l118,0l-118,0Z" class="g6_2" />
<path d="M691,998.7c3.3,-1.4,11.3,-4.9,14.2,-6.7" class="g8_2" />
<path d="M699.7,1004.6c4.2,-2,7.6,-3.6,9.4,-4.7" class="g8_2" />
<path d="M741.9,958.4l-7.6,3.6l-0.1,1.3l-2.5,1.2" class="g9_2" />
<path d="M732.9,963.9l-1.2,-0.7l-2.7,1.3l-2.3,3.6l-18.6,9.2l0,1.2l-2.5,9.7c0,0,-1.1,3.8,1.1,8.7c2.3,4.8,5.4,3.3,5.9,3c0.5,-0.3,6.4,-3.2,6.4,-3.2" class="g9_2" />
<path d="M708,982.1l0,5.6l1.3,1.1l6.8,-3" class="g9_2" />
<path d="M708,987.5l8.1,-3.6" class="g8_2" />
<path d="M719.1,977.6L718.5,977l-2.4,1.1l0.2,16.7l25.1,17.6l2.4,-1.2l0,-1" class="g9_2" />
<path d="M742.7,1010.6l7.2,-3.3" class="g9_2" />
<path d="M726.5,990.8l25.7,18.1l2.9,-1.3l0,-1.4l1.4,-0.7" class="g9_2" />
<path d="M734.3,988.6l0,1.3l23.3,16.3l8.7,-4.1l0.7,0.7l2.4,-1.2l0,-27.9L744.3,956.1l-2.4,1.2l0,27.9l1.1,0.5" class="g9_2" />
<path d="M741.9,985.2l2.4,-1.1l0,-28" class="g8_2" />
<path d="M744.3,984.1l25.1,17.5" class="g8_2" />
<path d="M734.3,988.6l-2.6,1.3l-0.1,1.3l-2.7,1.3" class="g8_2" />
<path d="M731.6,991.2l23.5,16.4" class="g8_2" />
<path d="M731.7,989.9l23.4,16.3" class="g8_2" />
<path d="M734.3,989.9l8.7,-4.2" class="g8_2" />
<path d="M726.5,990.8l-7.2,3.6l-0.6,-0.7l-2.4,1.1" class="g8_2" />
<path d="M718.7,993.7L718.5,977" class="g8_2" />
<path d="M719.3,994.3l-0.2,-16.7" class="g8_2" />
<path d="M711.6,987.8l0.1,2.6l1.3,1.1l3.2,-1.4" class="g9_2" />
<path d="M711.7,990.2l4.5,-2.1" class="g8_2" />
<path d="M715.4,990.4l0,2.6l0.9,0.8" class="g9_2" />
<path d="M715.4,992.8l0.8,-0.4" class="g8_2" />
<path d="M715.2,992.3l-0.6,-1.5" class="g8_2" />
<path d="M712.4,991.2c0.1,0.4,0.5,1.2,1,1.3c0.5,0.1,1.2,0,1.1,-1.5" class="g9_2" />
<path d="M717.9,997.3c0.5,0,1.4,0.2,1.8,-0.1" class="g8_2" />
<path d="M746,968.9c0,0,0.1,-0.2,0.5,0.1c0.4,0.3,20.6,14.5,20.6,14.5c0,0,0.6,0.6,0.6,1.2c0,0.6,0,3.7,0,3.7c0,0,0.1,0.4,-0.1,0.4" class="g8_2" />
<path d="M746,968.9l-0.1,4.1c0,0,-0.1,0.8,0.7,1.3c0.7,0.4,21,14.5,21,14.5" class="g8_2" />
<path d="M746,975.1c0.1,-0.1,0.2,-0.1,0.5,0.1c0.2,0.2,1.2,0.9,1.2,0.9c0,0,0.5,0.4,0.5,1c0,0.6,-0.1,1.3,-0.1,1.3c0,0,0.1,0.5,0.4,0.7c0.2,0.3,0.4,0.4,0.4,1c0,0.6,0,4.1,0,4.1c0,0,0.1,0.6,0.4,0.6" class="g8_2" />
<path d="M749.8,977.7c0.1,-0.1,0.2,0,0.3,0.1c0.2,0.1,2.2,1.5,2.2,1.5c0,0,0.4,0.4,0.4,0.9c0,0.5,0,8,0,8c0,0,0.1,0.4,-0.1,0.5" class="g8_2" />
<path d="M752.6,988.7c-0.1,0.1,-0.2,0.1,-0.4,-0.1c-0.3,-0.2,-5.8,-4,-5.8,-4c0,0,-0.5,-0.4,-0.5,-1.2c0,-0.9,0,-8.1,0,-8.1" class="g8_2" />
<path d="M748,985.5l1.4,-0.5c0,0,0.3,-0.1,0.3,-0.6c0,-0.4,0,-6.4,0,-6.4" class="g8_2" />
<path d="M753.5,985.3l3,-1.4l0.7,0.6l0,6.8c0,0,0,0.8,0.6,1.2c0.6,0.4,1.9,1.4,1.9,1.4c0,0,0.2,0.1,0.3,0" class="g8_2" />
<path d="M756.3,991.3c-0.1,0.1,-0.1,0.1,-0.4,0c-0.2,-0.2,-1.9,-1.5,-1.9,-1.5c0,0,-0.6,-0.3,-0.6,-1.2c0,-0.9,0,-8,0,-8" class="g8_2" />
<path d="M753.6,980.5c0.1,-0.1,0.2,-0.1,0.4,0c0.1,0.1,5.8,4,5.8,4c0,0,0.4,0.4,0.4,0.9c0,0.5,0,8,0,8c0,0,0,0.4,-0.1,0.5" class="g8_2" />
<path d="M756.5,990.5l0,-6" class="g8_2" />
<path d="M763.8,996.5c-0.2,0.1,-0.2,0.1,-0.5,0c-0.2,-0.2,-1.9,-1.5,-1.9,-1.5c0,0,-0.5,-0.3,-0.5,-1.2c0,-0.9,0,-8,0,-8" class="g8_2" />
<path d="M765.6,988.6c0.9,0.6,1.6,1.1,1.6,1.1c0,0,0.4,0.4,0.4,0.9c0,0.5,0,8,0,8c0,0,0.1,0.4,-0.1,0.5" class="g8_2" />
<path d="M761,985.7c0.2,-0.1,0.3,-0.1,0.4,0c0.1,0,1.9,1.3,2.2,1.5c0.3,0.2,0.4,0.7,0.4,1.1c0,0.4,0,2.4,0,2.4c0,0,0,0.7,0.4,0.8" class="g8_2" />
<path d="M763.9,996.2l0,-2.5c0,-0.2,0.2,-0.3,0.3,-0.4" class="g8_2" />
<path d="M761.3,994.6l2.8,-1.3c0,0,0.5,0,0.6,0.3c0.1,0.3,0.1,0.4,0.1,0.8c0,0.4,0,2.2,0,2.2c0,0,0,0.7,0.4,1.1c0.4,0.3,2.1,1.4,2.1,1.4" class="g8_2" />
<path d="M761,993.2l3.5,-1.6l0.4,-0.6c0,0,0.5,0,0.5,-0.5c0.1,-0.5,0,-1.9,0,-1.9" class="g8_2" />
<path d="M746,958.6c0.1,-0.1,0.2,-0.1,0.5,0.1c0.2,0.2,1.2,0.9,1.2,0.9c0,0,0.5,0.4,0.5,1c0,0.6,-0.1,1.3,-0.1,1.3c0,0,0.1,0.4,0.4,0.7c0.2,0.3,0.4,0.4,0.4,1c0,0.6,0,4,0,4c0,0,0.1,0.7,0.4,0.7" class="g8_2" />
<path d="M749.8,961.2c0.1,-0.1,0.2,-0.1,0.3,0c0.2,0.2,2.2,1.6,2.2,1.6c0,0,0.4,0.4,0.4,0.9c0,0.5,0,8,0,8c0,0,0.1,0.3,-0.1,0.4" class="g8_2" />
<path d="M752.6,972.1c-0.1,0.2,-0.2,0.2,-0.4,0c-0.3,-0.2,-5.8,-4.1,-5.8,-4.1c0,0,-0.5,-0.3,-0.5,-1.2c0,-0.8,0,-8,0,-8" class="g8_2" />
<path d="M748,969l1.4,-0.5c0,0,0.3,-0.2,0.3,-0.6c0,-0.4,0,-6.4,0,-6.4" class="g8_2" />
<path d="M753.5,968.8l3,-1.4l0.7,0.6l0,6.8c0,0,0,0.7,0.6,1.2c0.6,0.4,1.9,1.3,1.9,1.3c0,0,0.2,0.2,0.3,0.1" class="g8_2" />
<path d="M756.3,974.8c-0.1,0.1,-0.1,0.1,-0.4,-0.1c-0.2,-0.1,-1.9,-1.4,-1.9,-1.4c0,0,-0.6,-0.3,-0.6,-1.2c0,-0.9,0,-8,0,-8" class="g8_2" />
<path d="M753.6,963.9c0.1,-0.1,0.2,0,0.4,0.1c0.1,0.1,5.8,4,5.8,4c0,0,0.4,0.4,0.4,0.9c0,0.5,0,8,0,8c0,0,0,0.4,-0.1,0.5" class="g8_2" />
<path d="M756.5,974.5l0,-7" class="g8_2" />
<path d="M763.8,980c-0.2,0.1,-0.2,0.1,-0.5,-0.1c-0.2,-0.1,-1.9,-1.4,-1.9,-1.4c0,0,-0.5,-0.3,-0.5,-1.2c0,-0.9,0,-8,0,-8" class="g8_2" />
<path d="M765.6,972.1c0.9,0.6,1.6,1.1,1.6,1.1c0,0,0.4,0.4,0.4,0.9c0,0.5,0,8,0,8c0,0,0.1,0.3,-0.1,0.5" class="g8_2" />
<path d="M761,969.1c0.2,-0.1,0.3,0,0.4,0.1c0.1,0,1.9,1.3,2.2,1.5c0.3,0.2,0.4,0.7,0.4,1.1c0,0.4,0,2.4,0,2.4c0,0,0,0.7,0.4,0.8" class="g8_2" />
<path d="M763.9,979.7l0,-2.5c0,-0.2,0.2,-0.4,0.3,-0.4" class="g8_2" />
<path d="M761.3,978.1l2.8,-1.3c0,0,0.5,0,0.6,0.3c0.1,0.3,0.1,0.4,0.1,0.8c0,0.4,0,2.2,0,2.2c0,0,0,0.7,0.4,1c0.4,0.4,2.1,1.5,2.1,1.5" class="g8_2" />
<path d="M761,976.7l3.5,-1.6l0.4,-0.6c0,0,0.5,0,0.5,-0.5c0.1,-0.5,0,-1.9,0,-1.9" class="g8_2" />
<path d="M751.4,999.2l0,0.3l1.5,1" class="g8_2" />
<path d="M751.4,999.5l1.8,-0.9l1.4,1l1,-0.4" class="g8_2" />
<path d="M751.4,999l1.8,-0.9l1.4,1.1l1,-0.5" class="g8_2" />
<path d="M752.9,1000.5l-1,0.6l3.4,0.1l0.4,-2.1l-0.1,-0.4" class="g8_2" />
<path d="M757,1003.1l-1.3,-1.1l2.5,0.3l-1.5,-1.1" class="g8_2" />
<path d="M729.8,583.6l-7.6,3.6l-0.1,1.3l-2.5,1.3" class="g9_2" />
<path d="M720.8,589.2l-1.2,-0.7l-2.7,1.3l-2.3,3.6L696,602.5l0,1.2l-2.5,9.7c0,0,-1.1,3.9,1.1,8.7c2.3,4.8,5.3,3.3,5.9,3c0.5,-0.2,6.3,-3.1,6.3,-3.1" class="g9_2" />
<path d="M695.9,607.4l0,5.5l1.3,1.1l6.8,-2.9" class="g9_2" />
<path d="M695.9,612.7l8.1,-3.6" class="g8_2" />
<path d="M707,602.9l-0.6,-0.7l-2.4,1.2l0.2,16.6l25,17.6l2.5,-1.2l0,-0.9" class="g9_2" />
<path d="M730.5,635.9l7.3,-3.3" class="g9_2" />
<path d="M714.4,616l25.7,18.1l2.8,-1.3l0,-1.4l1.5,-0.6" class="g9_2" />
<path d="M722.2,613.9l0,1.3l23.3,16.2l8.7,-4.1l0.7,0.7l2.4,-1.2l0,-27.9L732.2,581.3l-2.5,1.2l0,27.9l1.2,0.5" class="g9_2" />
<path d="M729.7,610.4l2.5,-1.1l0,-28" class="g8_2" />
<path d="M732.2,609.3l25.1,17.5" class="g8_2" />
<path d="M722.2,613.9l-2.6,1.3l-0.1,1.3l-2.7,1.3" class="g8_2" />
<path d="M719.5,616.5l23.4,16.3" class="g8_2" />
<path d="M719.6,615.1l23.3,16.3" class="g8_2" />
<path d="M722.2,615.2l8.7,-4.3" class="g8_2" />
<path d="M714.4,616l-7.2,3.6l-0.6,-0.7l-2.4,1.1" class="g8_2" />
<path d="M706.6,618.9l-0.2,-16.7" class="g8_2" />
<path d="M707.2,619.5L707,602.8" class="g8_2" />
<path d="M699.5,613l0.1,2.6l1.3,1.1l3.2,-1.4" class="g9_2" />
<path d="M699.6,615.4l4.5,-2" class="g8_2" />
<path d="M703.3,615.7l0,2.6l0.8,0.7" class="g9_2" />
<path d="M703.3,618.1l0.8,-0.4" class="g8_2" />
<path d="M703.1,617.6L702.5,616" class="g8_2" />
<path d="M700.3,616.4c0.1,0.5,0.5,1.3,1,1.4c0.5,0,1.2,0,1.1,-1.5" class="g9_2" />
<path d="M705.8,622.5c0.5,0.1,1.4,0.2,1.8,0" class="g8_2" />
<path d="M733.9,594.2c0,0,0,-0.2,0.4,0.1c0.5,0.2,20.7,14.4,20.7,14.4c0,0,0.6,0.6,0.6,1.2c0,0.7,0,3.8,0,3.8c0,0,0.1,0.3,-0.1,0.3" class="g8_2" />
<path d="M733.9,594.2l-0.1,4.1c0,0,-0.1,0.7,0.6,1.2c0.8,0.5,21.1,14.5,21.1,14.5" class="g8_2" />
<path d="M733.9,600.4c0.1,-0.1,0.2,-0.2,0.4,0c0.3,0.2,1.3,0.9,1.3,0.9c0,0,0.5,0.4,0.5,1c0,0.6,-0.1,1.4,-0.1,1.4c0,0,0.1,0.4,0.3,0.7c0.3,0.2,0.5,0.4,0.5,1c0,0.6,0,4,0,4c0,0,0.1,0.6,0.4,0.7" class="g8_2" />
<path d="M737.6,603c0.2,-0.1,0.3,-0.1,0.4,0c0.2,0.1,2.2,1.6,2.2,1.6c0,0,0.4,0.4,0.4,0.8c0,0.5,0,8,0,8c0,0,0,0.4,-0.1,0.5" class="g8_2" />
<path d="M740.5,613.9c-0.2,0.1,-0.2,0.1,-0.4,0c-0.3,-0.2,-5.8,-4.1,-5.8,-4.1c0,0,-0.5,-0.3,-0.5,-1.2c0,-0.9,0,-8,0,-8" class="g8_2" />
<path d="M735.9,610.7l1.4,-0.4c0,0,0.3,-0.2,0.3,-0.6c0,-0.5,0,-6.5,0,-6.5" class="g8_2" />
<path d="M741.4,610.6l3,-1.4l0.7,0.5l0,6.8c0,0,0,0.8,0.6,1.2c0.5,0.5,1.9,1.4,1.9,1.4c0,0,0.2,0.1,0.3,0.1" class="g8_2" />
<path d="M744.2,616.5c-0.1,0.2,-0.2,0.2,-0.4,0c-0.3,-0.2,-1.9,-1.4,-1.9,-1.4c0,0,-0.6,-0.4,-0.6,-1.2c0,-0.9,0,-8.1,0,-8.1" class="g8_2" />
<path d="M741.5,605.7c0.1,-0.1,0.2,-0.1,0.4,0c0.1,0.1,5.8,4.1,5.8,4.1c0,0,0.4,0.4,0.4,0.9c0,0.4,0,7.9,0,7.9c0,0,0,0.4,-0.1,0.5" class="g8_2" />
<path d="M744.5,616.5l0,-7" class="g8_2" />
<path d="M751.6,621.7c-0.1,0.2,-0.1,0.2,-0.4,0c-0.2,-0.2,-1.9,-1.4,-1.9,-1.4c0,0,-0.5,-0.4,-0.5,-1.2c0,-0.9,0,-8.1,0,-8.1" class="g8_2" />
<path d="M753.5,613.9c0.9,0.6,1.6,1.1,1.6,1.1c0,0,0.4,0.4,0.4,0.9c0,0.4,0,7.9,0,7.9c0,0,0.1,0.4,-0.1,0.5" class="g8_2" />
<path d="M748.9,610.9c0.2,-0.1,0.2,-0.1,0.4,0c0.1,0.1,1.9,1.3,2.2,1.6c0.3,0.2,0.4,0.6,0.4,1c0,0.4,0,2.4,0,2.4c0,0,0,0.8,0.4,0.9" class="g8_2" />
<path d="M751.8,621.4l0,-2.4c0,-0.3,0.2,-0.4,0.3,-0.4" class="g8_2" />
<path d="M749.2,619.8l2.8,-1.2c0,0,0.5,0,0.6,0.2c0.1,0.3,0.1,0.5,0.1,0.9c0,0.4,0,2.2,0,2.2c0,0,-0.1,0.6,0.4,1c0.4,0.3,2.1,1.5,2.1,1.5" class="g8_2" />
<path d="M748.9,618.5l3.5,-1.6l0.4,-0.6c0,0,0.5,-0.1,0.5,-0.6c0.1,-0.5,0,-1.8,0,-1.8" class="g8_2" />
<path d="M733.9,583.8c0.1,-0.1,0.2,-0.1,0.4,0.1c0.3,0.2,1.3,0.9,1.3,0.9c0,0,0.5,0.4,0.5,1c0,0.6,-0.1,1.3,-0.1,1.3c0,0,0.1,0.5,0.3,0.7c0.3,0.3,0.5,0.5,0.5,1.1c0,0.6,0,4,0,4c0,0,0.1,0.6,0.4,0.6" class="g8_2" />
<path d="M737.6,586.4c0.2,-0.1,0.3,0,0.4,0.1c0.2,0.1,2.2,1.5,2.2,1.5c0,0,0.4,0.4,0.4,0.9c0,0.5,0,8,0,8c0,0,0,0.4,-0.1,0.5" class="g8_2" />
<path d="M740.5,597.4c-0.2,0.1,-0.2,0.1,-0.4,-0.1c-0.3,-0.1,-5.8,-4,-5.8,-4c0,0,-0.5,-0.3,-0.5,-1.2c0,-0.9,0,-8.1,0,-8.1" class="g8_2" />
<path d="M735.9,594.2l1.4,-0.4c0,0,0.3,-0.2,0.3,-0.7c0,-0.4,0,-6.4,0,-6.4" class="g8_2" />
<path d="M741.4,594.1l3,-1.5l0.7,0.6l0,6.8c0,0,0,0.8,0.6,1.2c0.5,0.4,1.9,1.4,1.9,1.4c0,0,0.2,0.1,0.3,0.1" class="g8_2" />
<path d="M744.2,600c-0.1,0.2,-0.2,0.2,-0.4,0c-0.3,-0.2,-1.9,-1.5,-1.9,-1.5c0,0,-0.6,-0.3,-0.6,-1.2c0,-0.8,0,-8,0,-8" class="g8_2" />
<path d="M741.5,589.2c0.1,-0.1,0.2,-0.1,0.4,0c0.1,0.1,5.8,4.1,5.8,4.1c0,0,0.4,0.4,0.4,0.8c0,0.5,0,8,0,8c0,0,0,0.4,-0.1,0.5" class="g8_2" />
<path d="M744.5,599.5l0,-7" class="g8_2" />
<path d="M751.6,605.2c-0.1,0.2,-0.1,0.2,-0.4,0c-0.2,-0.2,-1.9,-1.5,-1.9,-1.5c0,0,-0.5,-0.3,-0.5,-1.2c0,-0.8,0,-8,0,-8" class="g8_2" />
<path d="M753.5,597.3c0.9,0.7,1.6,1.2,1.6,1.2c0,0,0.4,0.4,0.4,0.8c0,0.5,0,8,0,8c0,0,0.1,0.4,-0.1,0.5" class="g8_2" />
<path d="M748.9,594.4c0.2,-0.1,0.2,-0.1,0.4,0c0.1,0.1,1.9,1.3,2.2,1.5c0.3,0.3,0.4,0.7,0.4,1.1c0,0.4,0,2.4,0,2.4c0,0,0,0.8,0.4,0.9" class="g8_2" />
<path d="M751.8,604.9l0,-2.4c0,-0.3,0.2,-0.4,0.3,-0.5" class="g8_2" />
<path d="M749.2,603.3l2.8,-1.2c0,0,0.5,-0.1,0.6,0.2c0.1,0.3,0.1,0.5,0.1,0.9c0,0.3,0,2.2,0,2.2c0,0,-0.1,0.6,0.4,1c0.4,0.3,2.1,1.5,2.1,1.5" class="g8_2" />
<path d="M748.9,602l3.5,-1.6l0.4,-0.7c0,0,0.5,0,0.5,-0.5c0.1,-0.5,0,-1.9,0,-1.9" class="g8_2" />
<path d="M739.3,624.5l0,0.2l1.4,1" class="g8_2" />
<path d="M739.3,624.7l1.8,-0.8l1.4,1l0.9,-0.5" class="g8_2" />
<path d="M739.3,624.2l1.8,-0.8l1.4,1l0.9,-0.5" class="g8_2" />
<path d="M740.7,625.7l-0.9,0.6l3.4,0.2l0.3,-2.1l-0.1,-0.5" class="g8_2" />
<path d="M744.9,628.3l-1.3,-1l2.4,0.3l-1.4,-1.2" class="g8_2" />
<image x="102" y="102" width="114" height="39" xlink:href="img/1.png" />
</svg>