<?xml version="1.0" encoding="UTF-8" standalone="no"?>
<!DOCTYPE svg PUBLIC "-//W3C//DTD SVG 1.1//EN"
"http://www.w3.org/Graphics/SVG/1.1/DTD/svg11.dtd">
<svg version="1.1" xmlns="http://www.w3.org/2000/svg" xmlns:xlink="http://www.w3.org/1999/xlink">
<defs>
<style type="text/css"><![CDATA[
.g12_3{
fill: #E0E0E0;
}
.g9_3{
fill: none;
stroke: #FFFFFF;
stroke-width: 4;
stroke-linecap: round;
stroke-linejoin: round;
stroke-miterlimit: 2;
}
.g2_3{
fill: none;
stroke: #FFFFFF;
stroke-width: 3;
stroke-linecap: round;
stroke-linejoin: miter;
stroke-miterlimit: 2;
}
.g14_3{
fill: #999999;
stroke: #000000;
stroke-width: 2;
stroke-linecap: round;
stroke-linejoin: round;
stroke-miterlimit: 2;
}
.g10_3{
stroke: #FFFFFF;
stroke-width: 1;
stroke-linecap: round;
stroke-linejoin: round;
stroke-miterlimit: 2;
}
.g16_3{
stroke: #000000;
stroke-width: 1;
stroke-linecap: round;
stroke-linejoin: round;
stroke-miterlimit: 2;
}
.g3_3{
fill: #FFFFFF;
stroke: #000000;
stroke-width: 2;
stroke-linecap: butt;
stroke-linejoin: miter;
stroke-miterlimit: 2;
}
.g1_3{
fill: #B3B3B3;
}
.g6_3{
fill: #636363;
stroke: #000000;
stroke-width: 1;
stroke-linecap: butt;
stroke-linejoin: miter;
stroke-miterlimit: 2;
}
.g7_3{
fill: none;
stroke: #000000;
stroke-width: 2;
stroke-linecap: round;
stroke-linejoin: round;
stroke-miterlimit: 2;
}
.g13_3{
fill: none;
stroke: #000000;
stroke-width: 2;
stroke-linecap: butt;
stroke-linejoin: miter;
stroke-miterlimit: 2;
}
.g17_3{
stroke: #000000;
stroke-width: 2;
stroke-linecap: round;
stroke-linejoin: round;
stroke-miterlimit: 2;
}
.g4_3{
fill: none;
stroke: #000000;
stroke-width: 1;
stroke-linecap: butt;
stroke-linejoin: miter;
stroke-miterlimit: 2;
}
.g11_3{
fill: #FFFFFF;
}
.g15_3{
fill: #E6E6E6;
stroke: #000000;
stroke-width: 1;
stroke-linecap: round;
stroke-linejoin: round;
stroke-miterlimit: 2;
}
.g5_3{
}
.g8_3{
fill: none;
stroke: #000000;
stroke-width: 1;
stroke-linecap: round;
stroke-linejoin: round;
stroke-miterlimit: 2;
}
]]></style>
</defs>
<path fill-rule="evenodd" d="M55,54l824,0l0,1101l-824,0Z" class="g1_3" />
<path d="M55.5,256.5l27,0" class="g2_3" />
<path d="M55.5,430.5l27,0" class="g2_3" />
<path d="M55.5,605.5l27,0" class="g2_3" />
<path d="M55.5,779.5l27,0" class="g2_3" />
<path d="M55.5,953.5l27,0" class="g2_3" />
<path d="M852.5,256.5l28,0" class="g2_3" />
<path d="M852.5,605.5l28,0" class="g2_3" />
<path d="M852.5,779.5l28,0" class="g2_3" />
<path d="M852.5,953.5l28,0" class="g2_3" />
<path fill-rule="evenodd" d="M82,82l770,0l0,1045l-770,0Z" class="g3_3" />
<path d="M184.5,209.5l646,0" class="g4_3" />
<path d="M103.5,278.5l727,0" class="g4_3" />
<path fill-rule="evenodd" d="M106,289l37,0l0,38l-37,0Z" class="g5_3" />
<path fill-rule="evenodd" d="M103.5,287.5l38,0l0,37l-38,0Z" class="g6_3" />
<path d="M852.5,430.5l28,0" class="g2_3" />
<path d="M103.2,472.7L842.6,598.8" class="g7_3" />
<path d="M839,694.5L702.4,757.6c-2.9,1.4,-8.5,4.6,-26.1,1.4C658.7,755.8,209.9,678.1,209.9,678.1c0,0,-19.2,-2.8,-20.6,-23.6c-1.4,-20.9,-6.4,-138,-6.4,-138c0,0,-0.3,-2.6,3.4,-3.9" class="g7_3" />
<path d="M183.6,486.4L182.7,508c0,0,-0.8,3.9,8.4,5.7c9.1,1.8,26.2,4.7,26.2,4.7l0.4,20.6l136.2,23.2c0,0,10.1,1.7,10.1,11.8c0,10.1,0.6,20.9,0.6,20.9l13.8,2.5c0,0,3.4,0.4,5.6,-0.2c2.1,-0.5,4.4,-1.1,4.4,-1.1" class="g7_3" />
<path d="M362,640.2c-1.4,1.2,-3.5,1.8,-6.6,1.3c-9.7,-1.6,-128.5,-22,-128.5,-22c0,0,-8.1,-0.8,-8.7,-14.3C217.7,591.7,215.8,525,215.8,525l1.6,-1.1l-1.6,1.1l-24.4,-4.3c0,0,-8.8,-1.5,-9.2,-5" class="g8_3" />
<path d="M367,595.3l-2.4,1.5l0.1,36.5c0,0,0.2,4.5,-2.7,6.9" class="g7_3" />
<path d="M191.9,513.8c-0.5,0.8,-0.9,2.3,0.9,3.3c1.7,1,3.9,1.7,6.2,2.1c2.3,0.4,18.3,3.2,18.3,3.2" class="g8_3" />
<path d="M192.5,514l-0.1,2.8" class="g8_3" />
<path d="M364.6,596.8l13.3,2.4c0,0,3.4,0.5,5.4,-0.1c2,-0.6,4.4,-1.2,4.4,-1.2" class="g8_3" />
<path d="M384.6,597.4l3.1,0.5l0.3,5.2c2,-0.3,5.5,-1.3,5.5,-1.3c0,0,1,-0.1,2.1,-0.7c1,-0.6,2.8,-1.5,2.8,-1.5" class="g8_3" />
<path d="M388.7,603l0.1,-5.9c0,0,0,-0.8,-0.4,-1" class="g8_3" />
<path d="M426.2,607.3c0.9,11.2,-3.6,21.1,-12.1,24.4" class="g7_3" />
<path d="M393.5,577.4c11.1,-4.2,24.6,4.5,30.3,19.5c1.1,2.9,1.9,5.9,2.2,8.7" class="g7_3" />
<path d="M381.5,595.5c0.8,-8.5,5.1,-15.5,12,-18.1" class="g8_3" />
<path d="M414.1,631.7c-11.1,4.2,-24.6,-4.6,-30.3,-19.6c-1.5,-3.8,-2.3,-7.7,-2.5,-11.4" class="g8_3" />
<path d="M458.3,588.8c11.1,-4.2,24.7,4.6,30.4,19.6c5.7,14.9,1.3,30.5,-9.8,34.7" class="g7_3" />
<path d="M446.3,606.7c1,-8.4,5.2,-15.3,12,-17.9" class="g8_3" />
<path d="M478.9,643.1c-11,4.2,-24.6,-4.6,-30.3,-19.5c-1.4,-3.9,-2.2,-7.7,-2.4,-11.5" class="g8_3" />
<path d="M425.3,618.4c-1.5,2,-3.5,3.5,-5.8,4.4" class="g7_3" />
<path d="M419.5,622.8c-8.7,3.3,-19.3,-3.6,-23.8,-15.3c-4.4,-11.8,-1,-24,7.7,-27.2" class="g8_3" />
<path d="M422.8,620.4c-8.2,3.1,-18.2,-3.4,-22.4,-14.5c-4.3,-11.1,-1,-22.6,7.2,-25.7" class="g7_3" />
<path d="M426,605.5l18.7,3.2c0,0,1.2,0.3,3,-0.2c1.7,-0.5,5.4,-1.3,5.4,-1.3" class="g7_3" />
<path d="M426.2,607.3l18.3,3.1c0,0,1.6,0.3,3.3,-0.2c1.6,-0.5,4.4,-1.2,4.4,-1.2" class="g8_3" />
<path d="M449.6,608.4l2.6,0.6l0.5,5.1l5.2,-1.2c0,0,1.8,-0.6,2.5,-1c0.8,-0.4,2.4,-1,2.4,-1" class="g8_3" />
<path d="M453.4,607.3l0,6.6" class="g8_3" />
<path d="M427.8,606c0,-0.2,-1.6,1.3,-1.6,1.3" class="g7_3" />
<path d="M490.2,629.6c-1.5,2,-3.4,3.5,-5.8,4.4" class="g7_3" />
<path d="M484.4,634c-8.6,3.3,-19.3,-3.6,-23.7,-15.3c-4.5,-11.8,-1.1,-23.9,7.6,-27.2" class="g8_3" />
<path d="M487.7,631.6c-8.2,3.1,-18.2,-3.3,-22.4,-14.5c-4.2,-11.1,-1,-22.6,7.2,-25.7" class="g7_3" />
<path d="M490.8,616.4l16,2.9l5,-1.9" class="g7_3" />
<path d="M491,618.4l15.9,2.7l4.3,-1.9l-2.1,-0.3l2.1,0.3l0.4,5.1l3.3,-1.6" class="g8_3" />
<path d="M506.8,619.3l0,-20.8c0,0,0,-4.6,2.5,-6.9" class="g8_3" />
<path d="M506.9,621.1l1.3,36.5c0,0,-0.3,9.9,10,11.8c10.2,1.8,128.4,22.1,128.4,22.1c0,0,5,1.1,7.1,-2.1" class="g8_3" />
<path d="M653.7,689.4c1.3,-1.8,2,-4,2,-7c0,-3,-0.3,-82.7,-0.3,-82.7l4.7,-2" class="g7_3" />
<path d="M655.5,612.5l-1.4,1L516,589.8c0,0,-4,-0.8,-6.7,1.8" class="g7_3" />
<path d="M654,613.8l0.1,-21.2" class="g8_3" />
<path d="M654.1,592.6l24,4c0,0,21.5,3.8,34.2,-2.1c12.7,-5.8,28.5,-13.1,28.5,-13.1" class="g7_3" />
<path d="M655.4,599.7l20.8,3.7c0,0,23.4,4,37.5,-2.5C727.9,594.5,752,583.3,752,583.3" class="g8_3" />
<path d="M659.8,597.6l21.4,3.7c0,0,15.8,2.4,26.1,-2.4c10.3,-4.9,37.2,-16.8,37.2,-16.8" class="g8_3" />
<path d="M659.2,597.8l0,-4.1" class="g8_3" />
<path d="M755.6,583.9l0,74.8l84.5,14.7" class="g7_3" />
<path d="M681.4,757.1c3,-1.4,10.7,-1.4,11.4,-14.2c0.7,-12.9,2.3,-131.5,2.3,-131.5" class="g8_3" />
<path d="M695.1,594.7l0.2,-19.5" class="g8_3" />
<path d="M692.8,741.2c0.2,5.3,3.2,16.4,11.5,13" class="g8_3" />
<path d="M518,590.1c-0.6,1.1,-1.2,2.7,-1.1,4.2" class="g7_3" />
<path d="M516.9,594.3c-1.2,0.4,-1.8,1.1,-1.8,2.4c0,1.2,-0.5,26.1,-0.5,26.1" class="g7_3" />
<path d="M515.2,595.8c1.1,0.3,4.4,0.6,4.9,-0.2" class="g7_3" />
<path d="M520,590l0,5" class="g7_3" />
<path d="M520.3,595.6l3.6,0.8l0,-5.3" class="g8_3" />
<path d="M523.9,596.4c-1.8,1.1,-5.1,1.5,-7.6,0.9" class="g8_3" />
<path d="M516.3,597.3l-0.5,51.8" class="g8_3" />
<path d="M515.8,649.1c1.9,0.3,6.3,0,8,-0.8" class="g7_3" />
<path d="M515.3,622.7l0.5,32.5c0,0,0.3,9.2,10.3,11c9.9,1.7,128.4,21.9,128.4,21.9" class="g7_3" />
<path d="M528.7,666.6c-0.1,-1.9,1.4,-6.5,3.6,-7.8" class="g7_3" />
<path d="M520.4,649.1l0,4.7c0,0,-0.9,7.3,9.1,8.9" class="g7_3" />
<path d="M523.8,648.3l0,4.9c0,0,-0.2,4.4,5.6,5.2" class="g8_3" />
<path d="M529.4,658.4l2.9,0.4" class="g8_3" />
<path d="M578.9,675.2c0.1,-2.5,0.9,-6.9,5.3,-8.8" class="g8_3" />
<path d="M584.2,666.4l22.1,3.9Z" class="g8_3" />
<path d="M584.3,670.9l-0.1,-4.5" class="g8_3" />
<path d="M581.1,675.6c0.1,-1.1,0.3,-4.1,3.2,-4.7" class="g7_3" />
<path d="M584.3,670.9l17.9,3.3" class="g7_3" />
<path d="M601.2,679c-0.1,-2.5,1.4,-6.8,5.1,-8.7" class="g7_3" />
<path d="M651.4,687.6c0,-2.2,1.1,-6.7,3.6,-7.9" class="g8_3" />
<path d="M653.4,688c0.1,-1.2,0.6,-3.3,1.5,-3.8" class="g7_3" />
<path d="M581.5,601l-46.2,20.5c0,0,-1.4,1.1,-1.4,2.6c0,1.5,0,15.5,0,15.5c0,0,-0.2,8.7,7.5,10.1c7.6,1.3,108.3,18.4,108.3,18.4c0,0,4.4,0.8,6,-2.2" class="g7_3" />
<path d="M536.8,631.2L647.1,650l0,11.7L536.8,642.8Z" class="g8_3" />
<path d="M535.9,622.6l4.6,0.8L553,617.7l-2.1,5L537.1,629l3.4,-5.6L553,617.7l102.6,17.7l0,5L550.9,622.7" class="g8_3" />
<path d="M572.3,616.2l4.4,-7.9c0,0,0.8,-1.4,1.8,-1.5c1,-0.1,3.9,0.3,3.9,0.3l18.2,2.8" class="g7_3" />
<path d="M572.3,616.2l11.3,1.9l4.1,-7.5c0,0,1,-2.5,3.3,-2.2" class="g8_3" />
<path d="M583.6,618.1l3,-1.2" class="g8_3" />
<path d="M595.1,612.9l5.8,-2.5" class="g8_3" />
<path d="M586.9,616.4l2,-3.6c0,0,0.5,-0.9,1.9,-0.7c1.3,0.2,3.8,0.7,3.8,0.7" class="g7_3" />
<path d="M578.4,608.3l9.1,1.2" class="g8_3" />
<path d="M599.9,621.1l4.4,-7.9c0,0,0.8,-1.4,1.7,-1.5c1,-0.1,3.9,0.3,3.9,0.3l18.2,2.7" class="g7_3" />
<path d="M599.9,621.1l11.3,1.9l4.1,-7.5c0,0,0.9,-2.5,3.2,-2.2" class="g8_3" />
<path d="M611.2,623l3,-1.2" class="g8_3" />
<path d="M622.7,617.8l5.7,-2.5" class="g8_3" />
<path d="M614.5,621.3l2,-3.6c0,0,0.5,-0.9,1.8,-0.7c1.4,0.2,3.9,0.7,3.9,0.7" class="g7_3" />
<path d="M605.9,613.2l9.1,1.2" class="g8_3" />
<path d="M622.3,624.8l4.4,-7.8c0,0,0.8,-1.4,1.7,-1.5c1,-0.1,3.9,0.3,3.9,0.3l18.2,2.7" class="g7_3" />
<path d="M622.3,624.8l11.3,2l4.1,-7.5c0,0,0.9,-2.6,3.2,-2.2" class="g8_3" />
<path d="M633.6,626.8l3,-1.3" class="g8_3" />
<path d="M645.1,621.6l5.7,-2.6" class="g8_3" />
<path d="M636.9,625.1l2,-3.7c0,0,0.5,-0.8,1.8,-0.6c1.4,0.2,3.9,0.7,3.9,0.7" class="g7_3" />
<path d="M628.3,616.9l9.1,1.2" class="g8_3" />
<path d="M650.2,629.6l4.4,-7.8c0,0,0.3,-0.5,0.7,-0.9" class="g7_3" />
<path d="M650.2,629.6l5.4,0.9" class="g8_3" />
<path d="M537.1,629l112.4,19.2" class="g8_3" />
<path d="M649.5,648.2l3.5,-5.4l2.6,-1.8" class="g7_3" />
<path d="M653,642.8l2.6,0" class="g8_3" />
<path d="M554.4,623.3l-9.9,4.5l2.9,0.6l0.1,0.6l7.8,1.4l1.6,-0.4l3.1,0.6L570.2,626" class="g8_3" />
<path d="M544.5,627.8l0,0.5l2.9,0.6l0.1,0.7l7.8,1.4l1.6,-0.4l3.1,0.5l11,-5" class="g8_3" />
<path d="M576.6,627.1l-9.9,4.5l2.9,0.6l0.1,0.6l7.8,1.4l1.6,-0.4l3.1,0.6l10.2,-4.6" class="g8_3" />
<path d="M566.7,631.6l0,0.5l2.9,0.7l0.1,0.6l7.8,1.4l1.6,-0.4l3.1,0.6l11,-5.1" class="g8_3" />
<path d="M599,630.9l-9.9,4.4l2.8,0.6l0.1,0.6l7.8,1.4l1.6,-0.3l3.1,0.5l10.2,-4.6" class="g8_3" />
<path d="M589.1,635.3l0,0.6l2.8,0.6l0.1,0.6l7.8,1.4l1.6,-0.4l3.1,0.6l11,-5" class="g8_3" />
<path d="M621.2,634.6l-9.9,4.5l2.9,0.6l0.1,0.6l7.8,1.4l1.6,-0.4l3.1,0.6L637,637.3" class="g8_3" />
<path d="M611.3,639.1l0,0.6l2.9,0.6l0.1,0.6l7.8,1.4l1.6,-0.4l3.1,0.6l11,-5.1" class="g8_3" />
<path d="M643.5,638.5l-9.9,4.4l2.9,0.6l0.1,0.6l7.8,1.4l1.6,-0.3l3.1,0.5l2.1,-0.9" class="g8_3" />
<path d="M633.6,642.9l0,0.6l2.9,0.6l0.1,0.6l7.8,1.4l1.6,-0.4l3.1,0.6l2.9,-1.4" class="g8_3" />
<path d="M558,611l0,-14" class="g7_3" />
<path d="M561.5,609.5l0,-12" class="g8_3" />
<path d="M547.9,595.3l-13,6c0,0,-2,1.1,-2,3.8" class="g7_3" />
<path d="M555.8,601.8c0,-0.9,-0.1,-1.1,-0.1,-1.1l-3.8,0l-0.1,0.9c0,0,-4,0.1,-6.7,0.5c-2.8,0.4,-9,2.7,-12.1,3.7" class="g7_3" />
<path d="M532.9,605.1c0.1,0.9,0.5,2.3,2,1.8c1.5,-0.5,9.2,-3,9.2,-3c0,0,1.7,-0.2,2.9,-0.3c1.2,-0.1,5.9,-0.5,5.9,-0.5c0,0,2.8,-0.3,2.9,-1.3" class="g8_3" />
<path d="M539.2,603.6l2.2,-5.3" class="g7_3" />
<path d="M555,601l0,11" class="g7_3" />
<path d="M544.5,617.5l0,-13" class="g8_3" />
<path d="M522.5,646.5l0,-47" class="g8_3" />
<path d="M511.8,617.4l0.2,6.7" class="g8_3" />
<path d="M562,653.2l-8.2,4.8c0,0,-0.7,0.8,-0.7,1.3" class="g8_3" />
<path d="M553.1,659.3c-0.1,0.9,0.4,0.9,2.5,1.5c2.2,0.5,14.8,2.5,14.8,2.5c0,0,6.7,0.7,10.3,-0.7c3.7,-1.4,10.8,-4.4,10.8,-4.4" class="g7_3" />
<path d="M561.4,658.1L557,661" class="g7_3" />
<path d="M563.7,653.5l-2.3,4.6c0,0,-0.7,1.9,0.9,3.9" class="g7_3" />
<path d="M573.9,663.5c1.3,0,2.5,-1.5,3.1,-2.3c0.6,-0.8,3.6,-4.8,3.6,-4.8" class="g7_3" />
<path d="M561.4,658.1c-0.1,1.1,0.4,1.9,1.9,2.3c1.4,0.3,6,1,6,1c0,0,3.8,0.2,5.2,-1.5c1.4,-1.7,3.1,-4.1,3.1,-4.1" class="g8_3" />
<path d="M602.1,660l-8.5,3.6c0,0,-0.8,0.4,-0.8,0.9" class="g8_3" />
<path d="M592.8,664.5c0,1,3.1,1.3,5.1,0.4c2,-0.9,8.8,-4.1,8.8,-4.1" class="g7_3" />
<path d="M614.7,662.1l-8.5,3.6c0,0,-0.8,0.4,-0.8,0.8" class="g8_3" />
<path d="M605.4,666.5c0,1,3.1,1.4,5.1,0.4c2,-0.9,8.8,-4,8.8,-4" class="g7_3" />
<path d="M628.5,664.5l-8.1,4.8c0,0,-0.8,0.8,-0.8,1.3" class="g8_3" />
<path d="M619.6,670.6c0,0.9,0.5,1,2.6,1.5c2.1,0.5,14.7,2.5,14.7,2.5c0,0,6.7,0.7,10.4,-0.7c3.7,-1.4,8.4,-3.4,8.4,-3.4" class="g7_3" />
<path d="M628,669.4l-4.5,2.9" class="g7_3" />
<path d="M630.2,664.8l-2.2,4.6c0,0,-0.7,1.9,0.9,3.9" class="g7_3" />
<path d="M640.5,674.8c1.3,0,2.5,-1.5,3.1,-2.3c0.6,-0.8,3.6,-4.8,3.6,-4.8" class="g7_3" />
<path d="M628,669.4c-0.1,1.1,0.4,1.9,1.8,2.3c1.5,0.3,6.1,1,6.1,1c0,0,3.7,0.2,5.2,-1.5c1.4,-1.7,3,-4,3,-4" class="g8_3" />
<path d="M578.9,668.4l-45.3,-7.8" class="g8_3" />
<path d="M652.4,680.9l-46.7,-8" class="g8_3" />
<path d="M226.6,540.5c-0.6,1.1,-0.9,2.2,-0.8,3.7" class="g7_3" />
<path d="M225.8,544.2c-1.2,0.4,-1.8,1.1,-1.8,2.4c0,1.2,-0.5,26.1,-0.5,26.1" class="g7_3" />
<path d="M224.1,545.7c1.1,0.3,4.4,0.6,4.9,-0.2" class="g7_3" />
<path d="M229,540l0,5" class="g7_3" />
<path d="M229.2,545.5l3.6,0.8l0,-5.3" class="g8_3" />
<path d="M232.8,546.3c-1.8,1.1,-5.1,1.5,-7.6,0.9" class="g8_3" />
<path d="M225.2,547.2L224.7,599" class="g8_3" />
<path d="M224.7,599c1.9,0.3,6.3,0,8,-0.8" class="g7_3" />
<path d="M224.2,572.6l0.5,32.5c0,0,0.3,9.2,10.3,11c9.9,1.7,128.4,21.9,128.4,21.9" class="g7_3" />
<path d="M237.6,616.5c-0.1,-1.9,1.4,-6.5,3.6,-7.8" class="g7_3" />
<path d="M229.3,599l0,4.7c0,0,-0.9,7.3,9.1,8.9" class="g7_3" />
<path d="M232.7,598.2l0,4.9c0,0,-0.2,4.4,5.6,5.2" class="g8_3" />
<path d="M238.3,608.3l2.9,0.4" class="g8_3" />
<path d="M287.8,625.1c0.1,-2.5,0.9,-6.9,5.3,-8.8" class="g8_3" />
<path d="M293.1,616.3l22.1,3.9Z" class="g8_3" />
<path d="M293.2,620.8l-0.1,-4.5" class="g8_3" />
<path d="M290,625.5c0.1,-1.1,0.3,-4.1,3.2,-4.7" class="g7_3" />
<path d="M293.2,620.8l17.9,3.3" class="g7_3" />
<path d="M310.1,628.9c-0.1,-2.5,1.4,-6.8,5.1,-8.7" class="g7_3" />
<path d="M360.3,637.5c0,-2.2,1.1,-6.7,3.6,-7.9" class="g8_3" />
<path d="M362.3,637.9c0.1,-1.2,0.6,-3.3,1.5,-3.8" class="g7_3" />
<path d="M289.7,551.3l-45.4,20.1c0,0,-1.5,1.1,-1.5,2.6c0,1.5,0,15.5,0,15.5c0,0,-0.2,8.7,7.5,10.1c7.6,1.3,108.3,18.4,108.3,18.4c0,0,4.4,0.8,6,-2.2" class="g7_3" />
<path d="M245.7,581.1L356,599.9l0,11.7L245.7,592.7Z" class="g8_3" />
<path d="M244.8,572.5l4.6,0.8L262,567.6l-2.2,5L246,578.9l3.4,-5.6L262,567.6l102.5,17.7l0,5L259.8,572.6" class="g8_3" />
<path d="M281.2,566.1l4.4,-7.9c0,0,0.8,-1.4,1.8,-1.5c1,-0.1,3.9,0.3,3.9,0.3l18.2,2.8" class="g7_3" />
<path d="M281.2,566.1l11.3,1.9l4.1,-7.5c0,0,1,-2.5,3.3,-2.2" class="g8_3" />
<path d="M292.5,568l3.1,-1.2" class="g8_3" />
<path d="M304,562.8l5.8,-2.5" class="g8_3" />
<path d="M295.8,566.3l2,-3.6c0,0,0.5,-0.9,1.9,-0.7c1.4,0.2,3.8,0.7,3.8,0.7" class="g7_3" />
<path d="M287.3,558.2l9.1,1.2" class="g8_3" />
<path d="M308.8,571l4.4,-7.9c0,0,0.8,-1.4,1.7,-1.5c1,-0.1,3.9,0.3,3.9,0.3l18.2,2.7" class="g7_3" />
<path d="M308.8,571l11.3,1.9l4.1,-7.5c0,0,0.9,-2.5,3.2,-2.2" class="g8_3" />
<path d="M320.1,572.9l3,-1.2" class="g8_3" />
<path d="M331.6,567.7l5.7,-2.5" class="g8_3" />
<path d="M323.4,571.2l2,-3.6c0,0,0.5,-0.9,1.8,-0.7c1.4,0.2,3.9,0.7,3.9,0.7" class="g7_3" />
<path d="M314.8,563.1l9.1,1.2" class="g8_3" />
<path d="M331.2,574.7l4.4,-7.8c0,0,0.8,-1.4,1.7,-1.5c1,-0.1,3.9,0.3,3.9,0.3l18.2,2.7" class="g7_3" />
<path d="M331.2,574.7l11.3,2l4.1,-7.5c0,0,0.9,-2.6,3.2,-2.2" class="g8_3" />
<path d="M342.5,576.7l3,-1.3" class="g8_3" />
<path d="M354,571.5l5.7,-2.6" class="g8_3" />
<path d="M345.8,575l2,-3.7c0,0,0.5,-0.8,1.8,-0.6c1.4,0.2,3.9,0.7,3.9,0.7" class="g7_3" />
<path d="M337.2,566.8l9.1,1.2" class="g8_3" />
<path d="M359.1,579.5l4,-7.3c0,0,0.2,-0.4,0.6,-0.8" class="g7_3" />
<path d="M359.1,579.5l5.4,0.9" class="g8_3" />
<path d="M246,578.9l112.4,19.2" class="g8_3" />
<path d="M358.4,598.1l3.5,-5.4l2.6,-1.8" class="g7_3" />
<path d="M361.9,592.7l2.6,0" class="g8_3" />
<path d="M263.3,573.2l-9.9,4.5l2.9,0.6l0.1,0.6l7.8,1.4l1.6,-0.4l3.1,0.6l10.2,-4.6" class="g8_3" />
<path d="M253.4,577.7l0,0.5l2.9,0.6l0.1,0.7l7.8,1.4l1.6,-0.4l3.1,0.5l11,-5" class="g8_3" />
<path d="M285.5,577l-9.9,4.5l2.9,0.6l0.1,0.6l7.8,1.4l1.6,-0.4l3.1,0.6l10.2,-4.6" class="g8_3" />
<path d="M275.6,581.5l0,0.5l2.9,0.7l0.1,0.6l7.8,1.4l1.6,-0.4l3.1,0.6l11,-5.1" class="g8_3" />
<path d="M307.9,580.8l-9.9,4.4l2.9,0.6l0,0.6l7.8,1.4l1.6,-0.3l3.1,0.5l10.2,-4.6" class="g8_3" />
<path d="M298,585.2l0,0.6l2.9,0.6l0,0.6l7.8,1.4l1.6,-0.4l3.1,0.6l11,-5" class="g8_3" />
<path d="M330.1,584.5l-9.9,4.5l2.9,0.6l0.1,0.6l7.8,1.4l1.6,-0.3l3.1,0.5l10.2,-4.6" class="g8_3" />
<path d="M320.2,589l0,0.6l2.9,0.6l0.1,0.6l7.8,1.4l1.6,-0.4l3.1,0.6l11,-5" class="g8_3" />
<path d="M352.4,588.4l-9.9,4.4l2.9,0.6l0.1,0.6l7.8,1.4l1.6,-0.3l3.1,0.5l2.1,-0.9" class="g8_3" />
<path d="M342.5,592.8l0,0.6l2.9,0.6l0.1,0.6l7.8,1.4l1.6,-0.4l3.1,0.6l2.9,-1.4" class="g8_3" />
<path d="M266,561l0,-14" class="g7_3" />
<path d="M270.5,559.5l0,-12" class="g8_3" />
<path d="M255.6,545.7l-11.8,5.5c0,0,-2,1.1,-2,3.8" class="g7_3" />
<path d="M264.7,551.7c0,-0.9,-0.1,-1.1,-0.1,-1.1l-3.8,0l-0.1,0.9c0,0,-4,0.1,-6.7,0.5c-2.8,0.4,-9,2.7,-12.1,3.7" class="g7_3" />
<path d="M241.8,555c0.1,0.9,0.5,2.3,2,1.8c1.5,-0.5,9.2,-3,9.2,-3c0,0,1.7,-0.2,2.9,-0.3c1.2,-0.1,5.9,-0.5,5.9,-0.5c0,0,2.8,-0.3,2.9,-1.3" class="g8_3" />
<path d="M248.1,553.5l2.2,-5.3" class="g7_3" />
<path d="M264,551l0,11" class="g7_3" />
<path d="M253.5,566.5l0,-12" class="g8_3" />
<path d="M231.5,595.5l0,-46" class="g8_3" />
<path d="M270.9,603.1l-8.2,4.8c0,0,-0.7,0.8,-0.7,1.3" class="g8_3" />
<path d="M262,609.2c-0.1,0.9,0.4,0.9,2.6,1.5c2.1,0.5,14.7,2.5,14.7,2.5c0,0,6.7,0.7,10.3,-0.7c3.7,-1.4,10.8,-4.4,10.8,-4.4" class="g7_3" />
<path d="M270.3,608l-4.4,2.9" class="g7_3" />
<path d="M272.6,603.4l-2.3,4.6c0,0,-0.7,1.9,1,3.9" class="g7_3" />
<path d="M282.8,613.4c1.3,0,2.5,-1.5,3.1,-2.3c0.7,-0.8,3.6,-4.8,3.6,-4.8" class="g7_3" />
<path d="M270.3,608c-0.1,1.1,0.4,1.9,1.9,2.3c1.4,0.3,6,1,6,1c0,0,3.8,0.2,5.2,-1.5c1.4,-1.7,3.1,-4.1,3.1,-4.1" class="g8_3" />
<path d="M311,609.9l-8.5,3.6c0,0,-0.8,0.4,-0.8,0.9" class="g8_3" />
<path d="M301.7,614.4c0,1,3.1,1.3,5.1,0.4c2,-0.9,8.8,-4.1,8.8,-4.1" class="g7_3" />
<path d="M323.6,612l-8.5,3.6c0,0,-0.8,0.4,-0.8,0.8" class="g8_3" />
<path d="M314.3,616.4c0,1,3.1,1.4,5.1,0.4c2,-0.9,8.8,-4,8.8,-4" class="g7_3" />
<path d="M337.4,614.4l-8.1,4.8c0,0,-0.8,0.8,-0.8,1.3" class="g8_3" />
<path d="M328.5,620.5c0,0.9,0.5,1,2.6,1.5c2.1,0.5,14.7,2.5,14.7,2.5c0,0,6.7,0.7,10.4,-0.7c3.7,-1.4,8.4,-3.4,8.4,-3.4" class="g7_3" />
<path d="M336.9,619.3l-4.5,2.9" class="g7_3" />
<path d="M339.1,614.7l-2.2,4.6c0,0,-0.7,1.9,0.9,3.9" class="g7_3" />
<path d="M349.4,624.7c1.3,0,2.5,-1.5,3.1,-2.3c0.6,-0.8,3.6,-4.8,3.6,-4.8" class="g7_3" />
<path d="M336.9,619.3c-0.1,1.1,0.4,1.9,1.8,2.3c1.5,0.3,6.1,1,6.1,1c0,0,3.7,0.2,5.2,-1.5c1.4,-1.7,3,-4,3,-4" class="g8_3" />
<path d="M287.8,618.3l-45.3,-7.8" class="g8_3" />
<path d="M361.3,630.8l-46.7,-8" class="g8_3" />
<path d="M521.4,480.7l-5.4,0L474.5,601.3" class="g9_3" />
<path d="M468.3,591.5c1.8,-0.7,3.7,-1,5.7,-0.8" class="g7_3" />
<path fill-rule="evenodd" d="M474.5,603.2c-1,0,-1.9,-0.8,-1.9,-1.9c0,-1,0.9,-1.9,1.9,-1.9c1,0,1.9,0.9,1.9,1.9c0,1.1,-0.9,1.9,-1.9,1.9Z" class="g10_3" />
<path d="M403.4,580.3c1.8,-0.7,3.7,-1,5.7,-0.8" class="g7_3" />
<path d="M521.4,480.7l-5.4,0L474.5,601.3" class="g8_3" />
<path d="M453.6,468.4l-5.4,0L406.8,589" class="g9_3" />
<path d="M453.6,468.4l-5.4,0L406.8,589" class="g8_3" />
<path fill-rule="evenodd" d="M406.9,590.8c-1,0,-1.9,-0.9,-1.9,-1.9c0,-1,0.9,-1.9,1.9,-1.9c1,0,1.9,0.9,1.9,1.9c0,1,-0.9,1.9,-1.9,1.9Z" class="g10_3" />
<path fill-rule="evenodd" d="M363.1,247.9c15.4,-8.9,30.8,-17.8,46.3,-26.8c0.5,-0.7,1.1,-1.5,1.7,-2.3c0.2,-0.3,0.3,-0.6,0.2,-0.7c-0.1,-0.2,-0.3,-0.3,-0.7,-0.3c-0.9,0.1,-2,0.2,-3,0.3c-15.2,8.8,-30.5,17.6,-45.7,26.5c0.4,1.1,0.8,2.2,1.2,3.3Z" class="g11_3" />
<path d="M351.8,254.4c19.2,-11.1,38.4,-22.2,57.6,-33.3c0.5,-0.7,1.1,-1.5,1.7,-2.3c0.2,-0.3,0.3,-0.6,0.2,-0.7c-0.1,-0.2,-0.3,-0.3,-0.7,-0.3c-0.9,0.1,-2,0.2,-3,0.3c-19,11,-38,21.9,-57,33" class="g7_3" />
<path d="M408.4,220.9c0.2,-0.6,0.6,-1.1,1,-1.4c0.4,-0.4,1.1,-0.7,1.7,-0.9" class="g8_3" />
<path d="M407,219c0.7,0,1.5,-0.1,2.1,-0.3c0.7,-0.2,1.3,-0.5,1.7,-0.8" class="g8_3" />
<path fill-rule="evenodd" d="M367.6,235.9c-0.9,0.5,-1.7,1,-2.6,1.5c-0.5,0.3,-0.9,0.7,-1.2,1.1c-0.2,0.4,-0.5,1,-0.7,1.6c0,0.4,0,0.7,-0.1,0.9c-0.1,0.1,-0.3,0.1,-0.6,0c-0.9,-0.6,-1.9,-1,-2.7,-1.1c-0.9,-0.1,-1.9,0.1,-2.8,0.4c-9.2,5.4,-18.4,10.7,-27.6,16c-2,2,-3.3,4,-3.6,5.9c-0.2,1.9,0.3,3.8,1.6,5.6c1.6,1.9,3.4,3.1,5.3,3.4c1.8,0.3,3.9,-0.2,6.1,-1.5c8.6,-5,17.3,-10,26,-15c0.9,-0.8,1.6,-1.7,2,-2.5c0.4,-0.9,0.6,-1.9,0.6,-2.9c0,-0.4,0.1,-0.7,0.3,-0.8c0.2,-0.1,0.5,0.1,0.8,0.4c0.4,0.2,1,0.5,1.4,0.5c0.5,0,1,-0.1,1.4,-0.3c1,-0.5,2,-1.1,3.1,-1.7c0.9,-0.9,1.3,-2.1,1.2,-3.4c-0.1,-1.4,-0.7,-2.9,-1.7,-4.6c-1.1,-1.5,-2.2,-2.6,-3.2,-3.1c-1,-0.6,-2.1,-0.7,-3,-0.4Z" class="g11_3" />
<path d="M363.3,241c-0.1,-1.5,0.4,-2.8,1.3,-3.3c0.9,-0.5,1.9,-1.1,2.9,-1.7c1.8,-1,4.8,0.7,6.6,3.9c1.8,3.1,1.8,6.5,0,7.6c-0.9,0.5,-1.9,1.1,-2.9,1.6c-1,0.6,-2.3,0.3,-3.6,-0.5" class="g7_3" />
<path d="M366.7,249.9c-0.1,-1.5,-0.7,-3.2,-1.6,-4.9c-0.7,-1.3,-1.6,-2.3,-2.6,-3.1" class="g8_3" />
<path d="M367.3,247.9c0,-1.1,-0.4,-2.4,-1.1,-3.5c-0.6,-1.2,-1.5,-2.1,-2.4,-2.7" class="g8_3" />
<path d="M369.2,248.4c-0.6,-0.1,-1.1,-0.1,-1.4,-0.1c-0.3,0.1,-0.5,0.4,-0.5,0.8c0,1.2,-0.3,2.4,-0.7,3.2c-0.4,0.9,-1,1.7,-1.8,2.2c-9.2,5.3,-18.4,10.6,-27.6,16c-1.2,0.6,-2.1,0.8,-3.4,0.8c-4.4,0,-8,-3.7,-8,-8.1c0,-2.6,1.4,-5.1,3.4,-6.6c9.2,-5.4,18.4,-10.7,27.6,-16.1c0.7,-0.3,1.7,-0.5,2.5,-0.5c0.9,0.1,2,0.5,3,1c0.5,0.3,1,0.3,1.3,0.1c0.2,-0.1,0.5,-0.5,0.6,-1.1" class="g7_3" />
<path d="M330.6,256.6c2,0.2,4.5,2.1,6.2,5c1.5,2.7,1.9,5.6,1.4,7.5" class="g8_3" />
<path d="M370.6,249c1.5,-1.1,1.4,-4.1,-0.3,-7c-1.6,-2.8,-4.2,-4.5,-5.9,-3.8" class="g8_3" />
<path d="M334.5,256.7l24.9,-14.5" class="g8_3" />
<path d="M336.9,258.1l24.2,-14.4" class="g8_3" />
<path d="M339.5,263.1l24.4,-14.8" class="g8_3" />
<path d="M340,265.9L364.4,251" class="g8_3" />
<path d="M336.9,258.1c-1,0.6,-3.9,-0.1,-2.4,-1.4" class="g8_3" />
<path d="M339.5,263.1c-1.4,0.9,-1.3,3.5,0.5,2.8" class="g8_3" />
<path d="M364.4,251c1.5,-0.7,1.7,-4.1,-0.5,-2.7" class="g8_3" />
<path d="M361.1,243.7c1.4,-0.8,0,-2.5,-1.7,-1.5" class="g8_3" />
<path fill-rule="evenodd" d="M271.7,232.2c0,0,0.7,-0.5,0.9,-0.7c0.4,-0.1,0.8,-0.3,1.2,-0.5c0.3,-0.5,0.6,-0.9,0.9,-1.3c0,0,0.1,-0.1,0,-0.2c0,-0.1,-0.2,-0.1,-0.2,-0.1c-0.2,0.1,-0.5,0.3,-0.7,0.4c-0.2,0.2,-0.3,0.3,-0.5,0.5c-0.1,0.2,-0.3,0.4,-0.4,0.6c-0.4,0.2,-0.9,0.5,-1.2,0.7c0,0.2,0,0.4,0,0.6Z" class="g12_3" />
<path d="M271.7,232.3c0.2,-0.3,0.5,-0.5,0.8,-0.7c0.4,-0.2,0.8,-0.4,1.2,-0.6c0.4,-0.5,0.8,-0.9,1.1,-1.4c0.2,-0.2,0.2,-0.4,0.1,-0.5c0,-0.1,-0.1,-0.1,-0.4,-0.1c-0.6,0,-1.2,0.1,-1.9,0.1c-0.3,0.3,-0.6,0.6,-1,0.8c-0.3,0.2,-0.7,0.4,-1,0.5" class="g7_3" />
<path d="M272.9,230.9c0.2,-0.4,0.4,-0.6,0.7,-0.9c0.2,-0.2,0.6,-0.4,0.9,-0.6" class="g8_3" />
<path d="M272.5,229.7c0.3,0,0.6,-0.1,0.9,-0.2c0.3,-0.1,0.6,-0.3,0.9,-0.5" class="g7_3" />
<path fill-rule="evenodd" d="M271.6,232.3c0,0.1,0,0.2,0,0.3c-1.9,1,-3.7,2.1,-5.6,3.1c-0.1,0.1,-0.3,0.1,-0.5,0.1c-0.1,0,-0.1,0,-0.2,0c-0.1,0,-0.1,0,-0.2,-0.1c-0.3,-0.1,-0.5,-0.3,-0.6,-0.5c-0.2,-0.3,-0.2,-0.5,-0.2,-0.8c0,-0.1,0,-0.3,0,-0.4c0.1,-0.1,0.1,-0.2,0.1,-0.3c1.9,-1,3.7,-2.1,5.5,-3.1c0.1,-0.1,0.2,-0.1,0.3,-0.1c0.1,-0.1,0.2,-0.1,0.4,-0.1c0.1,0.1,0.3,0.1,0.4,0.2c0.2,0.2,0.3,0.4,0.5,0.6c0,0.1,0.1,0.3,0.2,0.5c0,0.2,0,0.4,-0.1,0.6Z" class="g11_3" />
<path d="M264.3,234.6l0,-0.3l0,-0.1l0,-0.1l0.1,-0.1l0,-0.1l0,-0.2" class="g7_3" />
<path d="M264.9,235.6l0.3,0.2" class="g7_3" />
<path d="M264.9,235.6l-0.1,0l-0.1,-0.1l-0.1,-0.2l-0.1,-0.1l-0.1,-0.1l0,-0.2l-0.1,-0.2l0,-0.1" class="g7_3" />
<path d="M264.3,234.6l0,-0.1l0.1,-0.1l0,-0.1l0.1,-0.1l0.1,0l0.1,0l0.1,0l0.1,0.1l0.2,0.1l0.1,0.1l0.1,0.2l0,0.1l0.1,0.2l0,0.1l0,0.2" class="g8_3" />
<path d="M265.2,233.7l0.1,0.1l0.1,0.2l0,0.1l0.1,0.1l0.1,0.2l0.1,0.1l0.2,0.1l0.1,0.1" class="g8_3" />
<path d="M265.9,235.3l0,0.1l0,0.1l0.1,0l0,0.1l0,0.1" class="g8_3" />
<path d="M265.4,235.3l0,0.1l0,0.1l-0.1,0.1l-0.1,0.1l-0.1,0l-0.2,-0.1" class="g8_3" />
<path d="M264.4,233.7l0.1,0.1l0.1,0l0.1,0l0.1,0l0.1,-0.1l0.2,0l0.1,0" class="g8_3" />
<path d="M266,234.7l0,0.1l0,0.1l-0.1,0.1l0,0.2l0,0.1" class="g8_3" />
<path d="M266,235.7l-0.1,0.1l-0.2,0l-0.1,0l-0.1,0l-0.1,0l-0.1,0l-0.1,0" class="g7_3" />
<path d="M264.4,233.7l5.5,-3.2" class="g7_3" />
<path d="M265.2,233.7l5.5,-3.2" class="g8_3" />
<path d="M266,234.7l5.5,-3.2" class="g8_3" />
<path d="M266,235.7l5.5,-3.2" class="g7_3" />
<path d="M269.9,230.5l0.2,0l0.1,0l0.2,0l0,-0.1l0.1,0l0.1,0l0.1,0l0,0.1" class="g7_3" />
<path d="M271.7,232l0,-0.1l0,-0.2l-0.1,-0.2l0,-0.2l-0.2,-0.2l-0.1,-0.2l-0.1,-0.2L271,230.6l-0.1,-0.1" class="g8_3" />
<path d="M271.7,231.9l0,0.1l0,0.1l-0.1,0.2l0,0.1l-0.1,0.1" class="g7_3" />
<path d="M270.7,230.5l0.2,0" class="g7_3" />
<path d="M270.7,230.5l0.2,0.1l0.1,0.1l0.2,0l0,0.1l0.1,0.2l0.1,0.1l0.1,0.1l0,0.1l0,0.2l0.1,0.1l0.1,0.1l0,0.1l0,0.1" class="g7_3" />
<path fill-rule="evenodd" d="M262.7,231c0.6,0.1,1.3,0.3,2,0.5c0.6,0.1,1.3,0.2,2,0.3c0.3,0,0.7,0.3,1,0.5c0.3,0.2,0.7,0.6,0.9,1.1c0.3,0.6,0.5,1.1,0.6,1.6c0,0.5,0,0.9,-0.2,1.3c-0.2,0.3,-0.4,0.8,-0.5,1.1c-0.1,0.4,-0.3,0.8,-0.3,1.2c-0.1,0.6,-0.3,1.2,-0.5,1.6c-0.3,0.4,-0.6,0.8,-0.9,1c-2.1,1.1,-4.2,2.3,-6.2,3.5c-0.2,0.5,-0.3,0.8,-0.5,1.1c-0.2,0.3,-0.4,0.5,-0.7,0.6c-0.5,1.2,-1.3,2.2,-2.2,3.1c-0.9,0.8,-2.1,1.6,-3.4,2.1c-0.1,0.3,-0.5,0.8,-1.1,1.2c-0.7,0.4,-1.6,1,-2.8,1.5c0,0.3,-0.2,0.5,-0.4,0.7c-0.1,0.1,-0.4,0.3,-0.6,0.4c-1.9,1,-3.8,2.1,-5.7,3.2c-0.3,0.5,-0.6,0.9,-1,1.2c-0.3,0.3,-0.8,0.6,-1.2,0.8c-2.6,1.5,-5.2,3,-7.8,4.5c0,0.5,0,0.9,0.1,1.4c-1.2,0.7,-2.4,1.3,-3.5,2c-0.2,-0.1,-0.3,-0.1,-0.5,-0.3c0,-0.6,0,-1.2,0,-1.9c-0.9,0.5,-1.7,1,-2.5,1.5c-0.2,0,-0.3,0.2,-0.4,0.3c0,0.1,-0.1,0.3,-0.1,0.5c0,0.2,0,0.3,0,0.6c-0.6,0.3,-1.2,0.6,-1.8,1c-1.7,0.9,-3.4,1.3,-5.2,1.2c-1.7,-0.1,-3.6,-0.7,-5.4,-1.9c-1.3,-0.7,-2.5,-1.5,-3.8,-2.3c-0.6,-1,-0.9,-2.2,-0.9,-3.5c0,-1.3,0.4,-2.8,0.9,-4.4c0.2,-0.3,0.4,-0.7,0.6,-1c0.2,-0.3,0.4,-0.6,0.6,-0.9c-0.5,-0.2,-1.2,-0.4,-2.1,-0.6c-0.9,-0.2,-2,-0.5,-3.3,-0.7c-2.5,-0.6,-4.6,-1.3,-6.3,-2c-1.7,-0.6,-3.1,-1.3,-4,-2c-0.5,-0.3,-1.1,-0.6,-1.5,-0.6c-0.5,-0.1,-0.9,0,-1.2,0.2c-1.4,0.6,-2.6,0.9,-3.5,1.1c-1,0.1,-1.7,0,-2.3,-0.4c-2.7,-1.5,-5.5,-3.1,-8.2,-4.6c-0.2,-0.2,-0.4,-0.5,-0.6,-0.7c-0.4,-0.2,-0.8,-0.4,-1.1,-0.6c-0.8,-1.1,-1.2,-2.4,-1.3,-3.9c0,-1.5,0.3,-3.3,0.9,-5.3c0.2,-0.3,0.3,-0.7,0.5,-1c0.4,-0.3,0.7,-0.8,0.9,-1.2c0.3,-0.5,0.5,-1.1,0.6,-1.7c0.4,-0.5,0.7,-1,1.1,-1.5c3,-1.7,5.9,-3.4,8.9,-5.1c0.4,0,0.9,-0.1,1.2,-0.4c0.4,-0.2,0.9,-0.6,1.2,-1c1,-0.5,1.9,-1,2.8,-1.6c0.3,-0.2,0.7,-0.3,1,-0.3c0.3,0,0.6,0.1,1,0.3c3,1.6,6,3.2,9,4.9c0.6,0.3,1.1,1,1.5,2c0.4,0.9,0.8,2.2,1,3.8c0.1,0.7,0.2,1.5,0.3,2.2c-0.2,1.3,-0.4,2.4,-0.8,3.4c-0.3,1,-0.7,1.8,-1.1,2.5c2,0.5,3.8,1,5.3,1.5c1.4,0.5,2.7,1,3.5,1.5c0.8,0.3,1.6,0.6,2.3,0.7c0.6,0,1.3,-0.1,1.7,-0.4c0.3,-0.1,0.6,-0.3,0.8,-0.3c0.3,0,0.5,0.1,0.7,0.3c0.4,-0.4,0.8,-0.7,1.1,-0.8c0.4,-0.1,0.7,-0.1,0.9,0.1c0.9,0.5,1.8,1,2.8,1.5c0.6,-0.4,1.2,-0.8,1.9,-1.1c0.5,-0.2,0.9,-0.2,1.2,-0.1c0.3,0.1,0.6,0.3,0.8,0.5c3.6,-2,7.2,-4.1,10.8,-6.2c0.3,-0.1,0.6,-0.2,0.7,-0.2c0.2,-0.1,0.3,-0.3,0.3,-0.4c1.2,-0.7,2.4,-1.4,3.7,-2.1c0.1,-0.1,0.3,-0.2,0.5,-0.2c0.1,0,0.4,0,0.6,0c0.1,-0.2,0.3,-0.4,0.8,-0.7c0.6,-0.2,1.3,-0.5,2.3,-0.8c0.6,-0.2,1.4,-0.4,2.1,-0.5c0.7,0,1.4,0,2.1,0.1c0.3,-0.2,0.7,-0.3,1,-0.3c0.3,0,0.8,0,1.1,0.1c2.1,-1.2,4.2,-2.4,6.3,-3.6c0.2,-0.1,0.5,-0.3,0.7,-0.3c0.3,0,0.6,0,0.8,0.1Z" class="g11_3" />
<path d="M181.9,249.3c0,-0.1,-0.2,-0.2,-0.4,-0.3c-0.2,-0.2,-0.5,-0.4,-0.9,-0.6c-1.1,-0.6,-2.2,-1.3,-3.4,-2c-0.8,-1,-1.3,-2.4,-1.3,-4.2c0,-1.8,0.5,-3.9,1.3,-5.8c0.4,-0.4,0.7,-0.8,1,-1.4c0.3,-0.6,0.5,-1,0.6,-1.6c0.4,-0.5,0.7,-0.9,1.1,-1.4c2.9,-1.7,5.9,-3.4,8.8,-5.1c1.3,0,2.4,-1.4,2.4,-1.4c1,-0.6,1.9,-1.1,2.9,-1.6c0.6,-0.4,1.3,-0.5,1.7,-0.2c3.1,1.6,6.2,3.3,9.3,5" class="g7_3" />
<path d="M187,252.3c-2.7,-1.6,-5.5,-3.2,-8.2,-4.8c0,-0.1,0,-0.1,-0.1,-0.2" class="g7_3" />
<path d="M188.8,237.2l14.4,-8.4" class="g8_3" />
<path d="M203.2,228.8c0.7,-0.4,1.3,-0.4,1.7,-0.2" class="g8_3" />
<path d="M188.8,237.2c-1.3,1.6,-2.2,3.2,-2.9,4.9c-0.7,1.7,-1.1,3.5,-1.1,5.3c0,1.7,0.4,3,1.1,4c0.2,0.3,0.5,0.5,0.8,0.7" class="g8_3" />
<path d="M264.8,231.6c0.6,0,1.2,0.1,1.9,0.2c0.6,0.1,1.4,0.7,2,1.6c0.5,1,0.6,2,0.4,2.6c-0.3,0.6,-0.5,1.1,-0.7,1.7" class="g7_3" />
<path d="M265.3,231.7c0.9,0.3,1.8,1.1,2.4,2.3c0.7,1.2,1,2.5,0.7,3.3" class="g8_3" />
<path d="M263,231.1c0.7,0.2,1.4,0.4,2.1,0.5c0.9,0.4,1.9,1.2,2.6,2.4c0.7,1.3,0.9,2.6,0.7,3.5c-0.2,0.7,-0.3,1.4,-0.5,2" class="g7_3" />
<path d="M254.9,234.8c2.1,-1.2,4.1,-2.4,6.2,-3.6c0.6,-0.3,1.2,-0.3,1.9,-0.1" class="g7_3" />
<path d="M264.3,231.7c0.9,0.6,1.8,1.6,2.5,2.8c0.8,1.3,1.2,2.6,1.2,3.7" class="g8_3" />
<path d="M267.9,239.5c-0.2,0.7,-0.5,1.3,-1.1,1.6c-2,1.2,-4.2,2.4,-6.3,3.6" class="g7_3" />
<path d="M253,235.1c1.8,0.3,3.8,2,5.2,4.4c1.4,2.5,1.8,5,1.2,6.7" class="g8_3" />
<path d="M246,237c2.2,-1.2,5.8,0.9,8.1,4.7c2.2,3.9,2.2,8,0,9.4" class="g8_3" />
<path d="M254.2,251.5c-0.1,0.1,-0.3,0.2,-0.4,0.2" class="g7_3" />
<path d="M245.7,236.7c2.3,-1.4,6.2,0.8,8.6,4.9c2.3,4.1,2.3,8.5,-0.1,9.9" class="g8_3" />
<path d="M240.1,239.6c0.1,0,0.3,-0.2,0.4,-0.3c0.1,-0.1,0.3,-0.2,0.5,-0.3c0.9,-0.5,1.9,-1.1,2.8,-1.6c2.5,-1.4,6.5,0.8,8.9,5.1c2.5,4.2,2.5,8.9,0,10.3c-1,0.5,-1.9,1.1,-2.8,1.6" class="g7_3" />
<path d="M240.5,239.6c0.2,-0.1,0.3,-0.2,0.4,-0.2c2.4,-1.4,6.2,0.8,8.6,4.9c2.1,3.6,2.4,7.6,0.8,9.4" class="g8_3" />
<path d="M257.4,233.3c1.6,-0.9,4.2,0.6,5.8,3.3c1.5,2.8,1.5,5.7,0,6.6" class="g8_3" />
<path d="M241,239c2.4,-1.4,6.4,0.9,8.9,5.1c2.4,4.3,2.4,8.9,0,10.3" class="g8_3" />
<path d="M241.6,254.1c0.6,-0.4,1.3,-0.5,1.8,-0.2c0.6,0.3,0.8,0.9,0.8,1.7" class="g8_3" />
<path d="M244.2,255.6c0,0.8,-0.2,1.8,-0.8,2.7c-0.5,0.9,-1.2,1.6,-1.8,2" class="g7_3" />
<path d="M241.6,260.3l-8.4,4.9" class="g7_3" />
<path d="M233.2,265.2l-3.5,1.9" class="g8_3" />
<path d="M241.6,254.1l-3.6,2.1" class="g8_3" />
<path d="M237.4,256.5l-3.6,2.1" class="g8_3" />
<path d="M233.1,259l-3.1,1.8" class="g8_3" />
<path d="M236.1,262c0.2,0.1,0.5,0,0.8,-0.2c0.7,-0.4,1.5,-0.8,2.3,-1.3c0.4,-0.3,0.8,-0.7,1.1,-1.2c0.6,-0.9,0.6,-1.9,0.3,-2.4" class="g8_3" />
<path d="M240.6,256.9c-0.1,-0.1,-0.2,-0.3,-0.3,-0.3c-0.3,-0.2,-0.7,-0.2,-1.1,0.1c-0.8,0.4,-1.5,0.8,-2.3,1.3c-0.4,0.3,-0.9,0.7,-1.2,1.2c-0.6,1.1,-0.6,2.3,0,2.7c0.1,0.1,0.3,0.1,0.4,0.1" class="g8_3" />
<path d="M236.4,260.8c0.1,0,0.3,0.1,0.5,0.2c0.3,0.2,0.7,0.2,1.1,0c0.4,-0.2,0.7,-0.4,1,-0.6c0.4,-0.2,0.8,-0.7,1.1,-1.2c0.6,-1.1,0.6,-2.2,0,-2.6" class="g8_3" />
<path d="M237.4,257.7c-0.1,0.2,-0.3,0.5,-0.5,0.7c-0.6,1.1,-0.6,2.3,0,2.6" class="g8_3" />
<path d="M235.5,261.7c0.3,0,0.5,-0.1,0.8,-0.2c0.2,-0.2,0.4,-0.3,0.7,-0.4" class="g8_3" />
<path d="M240.1,257.7c0,-0.3,-0.1,-0.5,-0.3,-0.6c-0.3,-0.2,-0.6,-0.1,-0.9,0.1c-0.3,0.1,-0.5,0.3,-0.8,0.4c-0.3,0.2,-0.7,0.5,-0.9,1c-0.5,0.8,-0.5,1.7,0,2c0.1,0,0.2,0.1,0.4,0" class="g8_3" />
<path d="M237.6,260.6c0.1,0,0.3,0,0.5,-0.1" class="g8_3" />
<path d="M238.9,260c0.3,-0.2,0.6,-0.5,0.9,-0.9c0.2,-0.3,0.3,-0.6,0.3,-0.9" class="g8_3" />
<path d="M236.1,258.7c-0.3,0.9,-0.2,1.7,0.3,2.1" class="g8_3" />
<path d="M236.9,259.8c0,0.2,0.1,0.3,0.2,0.3c0.2,0.1,0.5,0.1,0.8,0c0.2,-0.2,0.5,-0.3,0.7,-0.4c0.3,-0.2,0.5,-0.5,0.7,-0.8c0.4,-0.7,0.4,-1.5,0,-1.7c0,0,-0.1,0,-0.2,0" class="g8_3" />
<path d="M240.6,257.5l0.2,0.2l3.5,-2l6.4,-4.7" class="g8_3" />
<path d="M240.7,252.8l-3,1.7" class="g8_3" />
<path d="M240.7,252.8c1.1,-0.3,2,-0.2,2.6,0.3c0.6,0.5,0.9,1.3,0.9,2.6" class="g8_3" />
<path d="M210.3,259.2c0.5,-1.1,1.1,-2,1.7,-2.7c0.5,-0.7,1.1,-1.3,1.6,-1.7c8.7,-5,17.4,-10.1,26.2,-15.1c1.6,-0.2,3.2,0.2,4.8,1.2c1.6,0.9,3.3,2.4,4.9,4.4c1.7,3.9,1.7,7.7,0,9.7c-2.1,1.2,-4.1,2.3,-6.2,3.6" class="g7_3" />
<path d="M249.5,245.3L236.2,253l1.8,3.2" class="g8_3" />
<path d="M237.5,250.1c-1.1,-1.3,-2.2,-2.2,-3.3,-2.9c-1.1,-0.6,-2.2,-1,-3.3,-1.2c-0.2,0,-0.3,-0.1,0,-0.4c3.1,-1.7,6.2,-3.5,9.3,-5.3c0.4,-0.2,0.5,-0.2,0.6,-0.2c1.1,0.2,2.2,0.6,3.3,1.3c1.2,0.6,2.3,1.6,3.5,2.9c0.1,0.1,0.3,0.3,0,0.5c-3.1,1.8,-6.2,3.6,-9.3,5.4c-0.5,0.3,-0.8,-0.1,-0.8,-0.1Z" class="g8_3" />
<path d="M195.9,252.3c-1.2,-0.7,-1.2,-2.8,0,-4.8c0.6,-1,1.3,-1.8,2.1,-2.2c0.3,-0.2,0.7,-0.3,1,-0.3c0.4,0,0.8,0.2,1.2,0.4c2.3,1.1,4.6,2,6.7,2.7c2.1,0.7,4.2,1.3,6.1,1.6c0.5,0.2,1.2,0.2,1.8,0.2c0.7,0,1.5,-0.1,2.2,-0.2c0.9,-0.1,1.7,-0.1,2.3,0c0.6,0.1,1.2,0.4,1.6,0.9" class="g8_3" />
<path d="M211.3,257.5c-0.3,-0.2,-0.8,-0.4,-1.5,-0.6c-0.6,-0.1,-1.4,-0.4,-2.3,-0.6c-2.7,-0.5,-5,-1.2,-7.2,-2c-2.1,-0.8,-3.9,-1.6,-5.4,-2.6" class="g7_3" />
<path d="M220.2,245.9c-0.1,-0.1,-0.2,-0.1,-0.3,-0.2c-0.3,-0.1,-0.6,-0.1,-1,0.1c-0.5,0.3,-1,0.5,-1.6,0.5c-0.7,0,-1.5,-0.2,-2.3,-0.5c-1.5,-0.8,-3.1,-1.5,-4.9,-2c-1.8,-0.6,-3.6,-1.1,-5.6,-1.5c-0.7,-0.2,-1.3,-0.4,-1.6,-0.7c-0.4,-0.2,-0.4,-0.5,-0.4,-0.9" class="g7_3" />
<path d="M178.8,233.4l4.9,2.9" class="g8_3" />
<path d="M177.2,236.4l4.8,2.8" class="g8_3" />
<path d="M183.7,236.3c0.7,0.4,0.9,1.3,0.4,2.1c-0.4,0.8,-1.4,1.2,-2.1,0.8" class="g8_3" />
<path d="M188.8,237.2L180,232.1" class="g8_3" />
<path d="M191.1,225.5c1.8,1,3.6,2,5.4,3.1c0.6,0.3,0.6,1,0,1.4c-0.7,0.4,-1.8,0.4,-2.4,0c-1.8,-1.1,-3.5,-2.1,-5.4,-3.1" class="g8_3" />
<path d="M205,228.7c0.7,0.4,1.3,1.2,1.8,2.5c0.4,1.4,0.8,3.2,1.1,5.5c-0.4,2.3,-0.9,4,-1.6,5.3c-0.1,0.2,-0.2,0.3,-0.3,0.5" class="g7_3" />
<path d="M194.8,251.6c-0.6,-0.2,-1.2,-0.4,-1.7,-0.4c-0.5,0,-1,0.2,-1.5,0.5" class="g7_3" />
<path d="M193.9,251.3c-1.7,0.8,-3.2,1.3,-4.3,1.5c-1.2,0.2,-2.1,0,-2.6,-0.5" class="g7_3" />
<path d="M225.5,263.3c-1.2,0.7,-1.8,2.5,-1.8,4.2c0,1.7,0.6,2.8,1.8,2.1" class="g8_3" />
<path d="M210.3,259.2c-0.8,1.3,-1.1,3,-1.1,4.7c0,1.8,0.3,3,1.1,3.5c1.4,0.8,2.7,1.5,4.2,2.4" class="g7_3" />
<path d="M204.8,231.3c-0.6,1.3,-1.1,2.7,-1.5,4.3c-0.3,1.5,-0.6,3.2,-0.8,4.9" class="g8_3" />
<path d="M188.6,238.2c0.4,0.2,0.7,0.5,1,0.8c0.2,0.2,0.4,0.6,0.4,1c0.4,1.6,0.9,3,1.6,4c0.8,1.1,1.7,1.9,2.7,2.5" class="g8_3" />
<path d="M194.8,251.6c-1.2,-0.6,-1.2,-2.8,0,-4.8c0.6,-1,1.3,-1.7,2.1,-2.1c1.4,-0.9,2.9,-1.7,4.3,-2.6c0.8,-0.4,1.5,-0.5,2.1,-0.2" class="g8_3" />
<path d="M194.5,251.5c-1.1,-0.7,-1.1,-2.8,0,-4.8c0.6,-1,1.3,-1.8,2.1,-2.2c1.4,-0.8,2.9,-1.7,4.4,-2.5c0.7,-0.5,1.5,-0.6,2,-0.2" class="g8_3" />
<path d="M203.3,241.9c0.1,-0.1,0.2,-0.2,0.3,-0.3c0.1,-0.2,0.2,-0.3,0.4,-0.4c0.5,-0.5,1.1,-1.1,1.7,-1.7c0.6,-0.6,1.2,-1.2,1.9,-1.9c0,-0.1,0.1,-0.3,0.2,-0.3c0,-0.1,0,-0.2,0,-0.2" class="g8_3" />
<path d="M235.3,260.8c-3.9,2.2,-7.7,4.5,-11.6,6.7c-1.6,0.7,-3.4,1,-5.1,0.8c-1.8,-0.2,-3.5,-0.9,-5.2,-2c-1.4,-0.8,-2.8,-1.5,-4.2,-2.4" class="g8_3" />
<path d="M225,246.8c-0.9,-0.5,-1.8,-1,-2.7,-1.6c-0.6,-0.3,-0.9,-0.2,-1.4,0.1c-0.2,0.2,-0.5,0.4,-0.7,0.6" class="g7_3" />
<path d="M228.8,246c0,-0.2,-0.1,-0.3,-0.3,-0.4c-0.5,-0.3,-1.2,-0.3,-1.6,0c-0.5,0.3,-1.1,0.6,-1.6,0.9c-0.3,0.2,-0.4,0.3,-0.4,0.5c0,0.4,0,0.8,0,1.3" class="g7_3" />
<path d="M224.9,247c0,0.2,0.1,0.3,0.4,0.4c0.2,0.2,0.4,0.2,0.7,0.2" class="g8_3" />
<path d="M224.8,247.9c-0.1,0.2,-0.1,0.3,0,0.5" class="g8_3" />
<path d="M224.9,247.2c-0.3,0.2,-0.7,0.4,-1,0.6c-0.2,0.1,-0.5,0.3,-0.8,0.3c-0.3,0,-0.6,-0.1,-0.9,-0.2" class="g8_3" />
<path d="M223.5,248c-0.7,-0.2,-1.3,-0.4,-1.9,-0.8c-0.5,-0.4,-1,-0.8,-1.4,-1.3" class="g8_3" />
<path d="M229.8,267.1c0,-0.2,0,-0.4,0,-0.6c0,-0.1,0,-0.1,0,-0.1" class="g8_3" />
<path d="M233.3,258.8l-0.1,-0.2l0,-1.4l-0.5,-0.3l-3.4,2l0,1.9" class="g7_3" />
<path d="M229.3,260.8c0,0,-1.6,-0.9,-1.6,-0.9" class="g8_3" />
<path d="M232.9,258.7l-2.8,1.6" class="g8_3" />
<path d="M236.2,253l1.5,1.5l0.3,1.7" class="g8_3" />
<path d="M233.6,256.3l-8.3,4.8" class="g8_3" />
<path d="M229.5,261.8l-1.9,-1.9" class="g8_3" />
<path d="M229.4,259l0.3,0.2" class="g8_3" />
<path d="M233.6,256.3c0.7,-0.3,1,0,1,0c0,0,0.3,0.2,0.3,0.2" class="g8_3" />
<path d="M234.5,254.5l0,1" class="g8_3" />
<path d="M233.2,257.5c0.6,-0.3,1.2,-0.7,1.8,-1.1c0,0,0.5,-0.1,0.3,-0.7" class="g7_3" />
<path d="M235.3,255.7c0,0,0,-0.1,0,-0.2c-0.3,-0.4,-0.5,-0.8,-0.8,-1.2c0,0,-0.2,-0.6,-0.9,-0.3c-2.9,1.7,-5.8,3.3,-8.7,5.1c-0.1,0,-0.2,0.1,-0.3,0.2" class="g8_3" />
<path d="M224.6,259.3c-0.2,0.3,0,0.8,0,0.8c0.5,0.9,1.1,1.9,1.7,2.9c0,0,0,0.5,0,0.5c0,0.3,0.1,0.4,0.3,0.4" class="g7_3" />
<path d="M226.6,263.9c0.1,0,0.2,-0.1,0.2,-0.1c0.9,-0.5,1.7,-1,2.6,-1.5c0,0,0.4,-0.2,0.4,-0.8c0,-0.2,0,-0.4,0,-0.6c0,-0.1,0,-0.3,0,-0.4c0,-0.4,0,-0.9,0,-1.3c0,0,3.4,-2,3.4,-2" class="g8_3" />
<path d="M229.2,266.3c0,0,0.1,-0.1,0.1,0.1c0,0.6,0,1.3,0,1.9c0.2,0.1,0.3,0.1,0.5,0.2c1.1,-0.6,2.2,-1.3,3.4,-1.9c0,0,0,-1.4,0,-1.4" class="g7_3" />
<path d="M229.5,268.5l0,-1" class="g8_3" />
<path d="M234.4,251.3c0.7,-0.4,1.4,-0.8,2,-1.2c0.1,0.1,0.2,0.2,0.3,0.4c0.2,0.1,0.3,0.2,0.4,0.3" class="g8_3" />
<path d="M237.1,250.8c-0.6,0.4,-1.3,0.8,-2,1.2c-0.1,-0.1,-0.2,-0.3,-0.4,-0.4c-0.1,-0.1,-0.2,-0.2,-0.3,-0.3" class="g8_3" />
<path d="M233.5,250.5c0.7,-0.4,1.4,-0.8,2,-1.2c0.1,0.1,0.3,0.2,0.4,0.3c0.1,0.1,0.3,0.3,0.4,0.4" class="g8_3" />
<path d="M236.3,250c-0.7,0.3,-1.4,0.7,-2,1.1c-0.1,-0.1,-0.3,-0.2,-0.4,-0.3c-0.1,-0.2,-0.3,-0.3,-0.4,-0.4" class="g8_3" />
<path d="M232.6,249.6c0.6,-0.4,1.3,-0.8,1.9,-1.1c0.1,0,0.3,0.2,0.4,0.2c0.1,0.1,0.3,0.3,0.5,0.4" class="g8_3" />
<path d="M235.4,249.1c-0.7,0.4,-1.4,0.8,-2,1.2c-0.1,-0.1,-0.3,-0.2,-0.5,-0.4c-0.1,-0.1,-0.2,-0.2,-0.3,-0.3" class="g8_3" />
<path d="M231.4,248.8c0.7,-0.3,1.3,-0.7,2,-1.1c0.1,0.1,0.3,0.2,0.4,0.2c0.2,0.1,0.4,0.3,0.6,0.4" class="g8_3" />
<path d="M234.4,248.3c-0.7,0.4,-1.4,0.7,-2,1.1c-0.2,0,-0.4,-0.2,-0.5,-0.3c-0.2,-0.1,-0.3,-0.2,-0.5,-0.3" class="g8_3" />
<path d="M230.2,248.2c0.7,-0.4,1.3,-0.8,2,-1.2c0.1,0,0.3,0.2,0.5,0.2c0.1,0.1,0.3,0.2,0.5,0.3" class="g8_3" />
<path d="M233.2,247.5c-0.6,0.4,-1.3,0.8,-2,1.2c-0.1,-0.1,-0.3,-0.2,-0.5,-0.3c-0.1,-0.1,-0.3,-0.2,-0.5,-0.2" class="g8_3" />
<path d="M229,247.7c0.7,-0.3,1.3,-0.7,2,-1.1c0.1,0,0.3,0.1,0.5,0.1c0.1,0,0.3,0.1,0.5,0.2" class="g8_3" />
<path d="M232,246.9c-0.7,0.4,-1.4,0.8,-2,1.2c-0.2,-0.1,-0.3,-0.2,-0.5,-0.2c-0.1,0,-0.3,-0.1,-0.5,-0.2" class="g8_3" />
<path d="M227.7,247.5c0.7,-0.4,1.4,-0.8,2,-1.2c0.1,0,0.3,0.1,0.5,0.1c0.2,0,0.4,0.1,0.5,0.1" class="g8_3" />
<path d="M230.7,246.5c-0.6,0.3,-1.3,0.7,-1.9,1.1c-0.2,0,-0.4,0,-0.5,0c-0.2,0,-0.4,-0.1,-0.6,-0.1" class="g8_3" />
<path d="M222.9,257.9c1.4,-0.8,2.8,-1.6,4.3,-2.5c0.1,0.1,0.2,0.3,0.3,0.4c0.2,0.1,0.3,0.3,0.4,0.4" class="g8_3" />
<path d="M227.9,256.2c-1.5,0.8,-2.9,1.7,-4.4,2.5c-0.1,-0.1,-0.2,-0.3,-0.3,-0.4c-0.1,-0.1,-0.2,-0.2,-0.4,-0.3" class="g8_3" />
<path d="M222,257.1c1.4,-0.8,2.9,-1.6,4.3,-2.5c0.1,0.1,0.3,0.2,0.4,0.3c0.1,0.1,0.2,0.3,0.3,0.4" class="g8_3" />
<path d="M227,255.3c-1.4,0.8,-2.8,1.7,-4.3,2.5c-0.1,-0.1,-0.3,-0.2,-0.4,-0.3c-0.1,-0.2,-0.2,-0.3,-0.3,-0.4" class="g8_3" />
<path d="M221,256.3c1.4,-0.8,2.9,-1.7,4.3,-2.5c0.1,0,0.3,0.2,0.4,0.3c0.1,0,0.3,0.2,0.5,0.3" class="g8_3" />
<path d="M226.2,254.4c-1.5,0.9,-2.9,1.7,-4.4,2.6c-0.1,-0.2,-0.3,-0.3,-0.4,-0.4c-0.1,-0.1,-0.3,-0.2,-0.4,-0.3" class="g8_3" />
<path d="M219.9,255.5c1.4,-0.9,2.8,-1.7,4.3,-2.5c0.1,0.1,0.3,0.2,0.4,0.3c0.2,0.1,0.4,0.2,0.5,0.3" class="g8_3" />
<path d="M225.1,253.6c-1.4,0.8,-2.9,1.7,-4.3,2.5c-0.2,0,-0.3,-0.2,-0.5,-0.3c-0.1,-0.1,-0.3,-0.2,-0.5,-0.3" class="g8_3" />
<path d="M218.7,254.8c1.4,-0.8,2.8,-1.6,4.3,-2.5c0.1,0.1,0.3,0.2,0.5,0.3c0.1,0,0.3,0.2,0.5,0.3" class="g8_3" />
<path d="M224,252.9c-1.4,0.8,-2.9,1.6,-4.3,2.5c-0.2,-0.1,-0.4,-0.2,-0.5,-0.3c-0.2,-0.1,-0.4,-0.2,-0.6,-0.3" class="g8_3" />
<path d="M217.5,254.4c1.4,-0.8,2.8,-1.6,4.3,-2.5c0.1,0,0.3,0.1,0.4,0.2c0.2,0,0.4,0.1,0.6,0.1" class="g8_3" />
<path d="M222.8,252.2c-1.5,0.8,-2.9,1.7,-4.4,2.6c-0.1,-0.1,-0.3,-0.2,-0.5,-0.2c-0.1,0,-0.3,-0.2,-0.5,-0.2" class="g8_3" />
<path d="M216.2,254.2c1.4,-0.8,2.9,-1.7,4.3,-2.5c0.1,0,0.3,0,0.5,0c0.2,0,0.3,0.1,0.5,0.1" class="g8_3" />
<path d="M221.5,251.8c-1.4,0.8,-2.9,1.7,-4.3,2.5c-0.2,0,-0.4,0,-0.5,0c-0.2,0,-0.4,-0.1,-0.6,-0.1" class="g8_3" />
<path d="M264.3,240.8l-3.6,2.1" class="g8_3" />
<path d="M263.9,242.5l-3.2,1.8" class="g8_3" />
<path d="M264,242.1l-3.3,1.9" class="g8_3" />
<path d="M264.3,240.3l-3.6,2.1" class="g8_3" />
<path d="M264.1,238.9l-3.7,2.2" class="g8_3" />
<path d="M263.9,238.4l-3.7,2.1" class="g8_3" />
<path d="M263.3,236.9l-3.8,2.2" class="g8_3" />
<path d="M262.9,236.3l-3.7,2.2" class="g8_3" />
<path d="M261.9,235l-3.7,2.1" class="g8_3" />
<path d="M261.4,234.5l-3.6,2.1" class="g8_3" />
<path d="M260.4,233.7l-3.6,2.1" class="g8_3" />
<path d="M259.9,233.4l-3.5,2.1" class="g8_3" />
<path d="M258.5,233.1l-3.1,1.8" class="g8_3" />
<path d="M258.2,233.1l-3.1,1.8" class="g8_3" />
<path d="M257.6,233.3c1.6,-0.9,4.1,0.5,5.7,3.2c1.6,2.8,1.6,5.7,0,6.7" class="g8_3" />
<path d="M245.2,236.9c0.2,0,0.3,-0.2,0.5,-0.2c1.3,-0.8,2.6,-1.4,3.8,-1.6c1.2,-0.2,2.4,-0.3,3.4,0c1.8,-1.1,4.7,0.6,6.5,3.7c1.8,3.1,1.8,6.5,0,7.5c-0.4,1.1,-1.1,2,-2,2.9c-0.8,0.9,-1.9,1.6,-3.2,2.3" class="g7_3" />
<path d="M229.8,266.4c-0.1,-0.4,-0.5,-0.2,-0.5,-0.2c-0.8,0.5,-1.6,1,-2.5,1.5c0,0,-0.5,0.3,-0.5,0.9c0,0,0,0.6,0,0.6c0,0,0,-0.1,0,-0.1c-0.3,0.2,-0.7,0.4,-1,0.6c-0.8,0.5,-1.6,0.9,-2.3,1.1c-0.8,0.3,-1.5,0.5,-2.2,0.7c-0.7,0.1,-1.6,0,-2.7,-0.2c-1.1,-0.3,-2.3,-0.8,-3.6,-1.5" class="g7_3" />
<path d="M236.5,250.5l0,1" class="g8_3" />
<path d="M235.5,249.5l0,1" class="g8_3" />
<path d="M234.5,248.5l0,1" class="g8_3" />
<path d="M233.5,247.5l0,1" class="g8_3" />
<path d="M232.5,247.5l0,1" class="g8_3" />
<path d="M231.5,246.5l0,1" class="g8_3" />
<path d="M227.5,255.5l0,1" class="g8_3" />
<path d="M226.5,254.5l0,1" class="g8_3" />
<path d="M225.5,253.5l0,1" class="g8_3" />
<path d="M224.5,253.5l0,1" class="g8_3" />
<path d="M222.5,252.5l0,1" class="g8_3" />
<path d="M221.5,251.5l0,1" class="g8_3" />
<path d="M220.5,251.5l0,1" class="g8_3" />
<path d="M305.2,233c0.3,0.2,0.7,0.4,1.1,0.6c0,0.4,0,0.9,0,1.3c-0.4,0.2,-0.8,0.4,-1.1,0.5c-0.3,0.2,-0.6,0.3,-0.9,0.3" class="g8_3" />
<path d="M306.3,233.6c-2.9,1.7,-1.3,2.1,-2.7,2.9c-0.6,0.3,-1.3,0.7,-1.9,1.1c-0.1,0,-0.2,0.1,-0.3,0.1c-0.1,0,-0.3,0.1,-0.4,0.1" class="g8_3" />
<path d="M305.2,233c-2.9,1.6,-0.7,2.9,-3.5,4.6" class="g8_3" />
<path d="M303.4,234c-2.8,1.6,-0.6,2.9,-3.5,4.6c-0.4,0.2,-0.7,0.4,-1.2,0.6c-0.1,0.1,-0.2,0.2,-0.3,0.2c-0.1,0,-0.2,0,-0.3,0" class="g8_3" />
<path d="M304.1,233.8c-0.1,0,-0.3,0.1,-0.4,0.1c-0.1,0,-0.2,0.1,-0.3,0.1c-0.4,0.2,-0.8,0.5,-1.1,0.7c-2.9,1.6,-0.7,2.9,-3.6,4.5" class="g8_3" />
<path d="M300.6,235.6c-2.9,1.7,-0.7,2.9,-3.5,4.6c-0.4,0.2,-0.8,0.5,-1.2,0.7c-0.1,0,-0.3,0.1,-0.3,0.1c-0.1,0,-0.3,0.1,-0.4,0.1" class="g8_3" />
<path d="M301.2,235.5c-0.1,0,-0.3,0.1,-0.4,0.1c0,0,-0.2,0,-0.2,0c-0.4,0.3,-0.8,0.5,-1.2,0.7c-2.9,1.7,-0.7,2.9,-3.5,4.6" class="g8_3" />
<path d="M297.7,237.3c-2.9,1.7,-0.7,2.9,-3.5,4.6c-0.4,0.2,-0.8,0.4,-1.2,0.7c-0.1,0,-0.3,0.1,-0.3,0.1c-0.1,0,-0.3,0,-0.4,0" class="g8_3" />
<path d="M298.3,237.2c-0.1,0,-0.3,0,-0.4,0c0,0,-0.2,0.1,-0.2,0.1c-0.4,0.3,-0.8,0.5,-1.2,0.7c-2.9,1.7,-0.7,2.9,-3.5,4.6" class="g8_3" />
<path d="M294.9,239c-2.9,1.6,-0.7,2.8,-3.5,4.5c-0.4,0.2,-0.8,0.4,-1.2,0.7c-0.1,0,-0.3,0.1,-0.4,0.1c0,0,-0.2,0.1,-0.2,0.1" class="g8_3" />
<path d="M295.5,238.8c-0.1,0,-0.3,0.1,-0.4,0.1c-0.1,0,-0.2,0,-0.2,0.1c-0.4,0.2,-0.8,0.4,-1.2,0.6c-2.8,1.7,-0.7,2.9,-3.5,4.6" class="g8_3" />
<path d="M292,240.6c-2.9,1.7,-0.7,2.9,-3.5,4.6c-0.4,0.2,-0.8,0.4,-1.2,0.7c-0.1,0,-0.3,0.1,-0.4,0.1c0,0,-0.2,0.1,-0.2,0.1" class="g8_3" />
<path d="M292.6,240.5c-0.1,0,-0.3,0,-0.4,0c-0.1,0,-0.2,0.1,-0.2,0.1c-0.4,0.3,-0.8,0.5,-1.2,0.7c-2.8,1.7,-0.7,2.9,-3.5,4.6" class="g8_3" />
<path d="M289,242.3c-2.8,1.7,-0.7,2.9,-3.5,4.6c-4.6,2.7,-9.2,5.3,-13.8,8c-0.4,0.2,-0.9,-0.1,-1.1,-0.6c-0.4,-0.6,-0.4,-1.1,0,-1.3c6.1,-3.5,12.3,-7.1,18.4,-10.7c0,0,0.2,-0.1,0.3,-0.1c0.1,0,0.3,-0.1,0.4,-0.1" class="g8_3" />
<path d="M270.6,253c0.1,0,0.3,0.1,0.4,0.2c0.1,0,0.3,0.2,0.4,0.4c0.2,0.3,0.3,0.6,0.4,0.8c0,0.2,0,0.4,-0.1,0.5" class="g8_3" />
<path d="M236.5,82.5l0,-27" class="g2_3" />
<path d="M390.5,82.5l0,-27" class="g2_3" />
<path d="M544.5,82.5l0,-27" class="g2_3" />
<path d="M698.5,82.5l0,-27" class="g2_3" />
<path d="M236.5,1155.5l0,-28" class="g2_3" />
<path d="M390.5,1155.5l0,-28" class="g2_3" />
<path d="M544.5,1155.5l0,-28" class="g2_3" />
<path d="M698.5,1155.5l0,-28" class="g2_3" />
<path d="M82,1097l770,0" class="g13_3" />
<path d="M466.5,1099.5l0,28" class="g4_3" />
<path d="M468.5,1099.5l0,28" class="g4_3" />
<path d="M272.5,1099.5l0,28" class="g4_3" />
<path d="M274.5,1099.5l0,28" class="g4_3" />
<path d="M664.5,1099.5l0,28" class="g4_3" />
<path d="M666.5,1099.5l0,28" class="g4_3" />
<path d="M274.5,1099.5l192,0" class="g8_3" />
<path d="M468.5,1099.5l196,0" class="g8_3" />
<path d="M666.5,1099.5l186,0" class="g8_3" />
<path d="M272.5,1099.5l-190,0" class="g8_3" />
<path d="M236.5,82.5l0,-27" class="g2_3" />
<path d="M390.5,82.5l0,-27" class="g2_3" />
<path d="M544.5,82.5l0,-27" class="g2_3" />
<path d="M698.5,82.5l0,-27" class="g2_3" />
<path d="M236.5,1155.5l0,-28" class="g2_3" />
<path d="M390.5,1155.5l0,-28" class="g2_3" />
<path d="M544.5,1155.5l0,-28" class="g2_3" />
<path d="M698.5,1155.5l0,-28" class="g2_3" />
<path d="M82,1127l770,0L852,82L82,82Z" class="g7_3" />
<path d="M109,833l715,0" class="g7_3" />
<path d="M109,861l715,0" class="g7_3" />
<path d="M109,896l715,0" class="g7_3" />
<path d="M109,938l715,0" class="g7_3" />
<path d="M109,995l715,0" class="g7_3" />
<path d="M283,1073l0,-240" class="g7_3" />
<path d="M193,1073l0,-212" class="g7_3" />
<path d="M623,1073l0,-212" class="g7_3" />
<path fill-rule="evenodd" d="M109,833l715,0l0,28l-715,0Z" class="g14_3" />
<path fill-rule="evenodd" d="M142.3,910.9c3.8,0,6.9,3.1,6.9,6.9c0,3.9,-3.1,7,-6.9,7c-3.9,0,-7,-3.1,-7,-7c0,-3.8,3.1,-6.9,7,-6.9Z" class="g15_3" />
<path d="M142.3,909.1c4.8,0,8.7,3.9,8.7,8.7c0,4.9,-3.9,8.8,-8.7,8.8c-4.9,0,-8.8,-3.9,-8.8,-8.8c0,-4.8,3.9,-8.7,8.8,-8.7Z" class="g7_3" />
<path d="M142.5,907.5l0,-8" class="g8_3" />
<path d="M142.5,935.5l0,-7" class="g8_3" />
<path d="M131.5,917.5l-7,0" class="g8_3" />
<path d="M160.5,917.5l-8,0" class="g8_3" />
<path d="M134.9,910.4l-5.4,-5.3" class="g8_3" />
<path d="M155,930.6l-5.3,-5.4" class="g8_3" />
<path d="M134.9,925.2l-5.4,5.4" class="g8_3" />
<path d="M155,905.1l-5.3,5.3" class="g8_3" />
<path d="M134.9,925.2l-1.9,1.9" class="g8_3" />
<path d="M151.5,908.6l-1.8,1.8" class="g8_3" />
<path d="M132.6,921.9l-2.4,1" class="g8_3" />
<path d="M154.4,912.7l-2.5,1.1" class="g8_3" />
<path d="M132.6,913.8l-2.4,-1" class="g8_3" />
<path d="M154.4,922.8l-2.5,-1" class="g8_3" />
<path d="M137.9,908.3l-1.1,-2.4" class="g8_3" />
<path d="M147.7,929.7l-1.1,-2.4" class="g8_3" />
<path d="M146.5,908.2l1,-2.4" class="g8_3" />
<path d="M137.1,929.8l1,-2.4" class="g8_3" />
<path fill-rule="evenodd" d="M226.8,910.9c3.9,0,7,3.1,7,6.9c0,3.9,-3.1,7,-7,7c-3.8,0,-6.9,-3.1,-6.9,-7c0,-3.8,3.1,-6.9,6.9,-6.9Z" class="g16_3" />
<path d="M226.8,909.1c4.9,0,8.8,3.9,8.8,8.7c0,4.9,-3.9,8.8,-8.8,8.8c-4.8,0,-8.7,-3.9,-8.7,-8.8c0,-4.8,3.9,-8.7,8.7,-8.7Z" class="g7_3" />
<path fill-rule="evenodd" d="M142.3,959.4c3.8,0,6.9,3.1,6.9,6.9c0,3.9,-3.1,7,-6.9,7c-3.9,0,-7,-3.1,-7,-7c0,-3.8,3.1,-6.9,7,-6.9Z" class="g15_3" />
<path d="M142.3,957.6c4.8,0,8.7,3.9,8.7,8.7c0,4.9,-3.9,8.8,-8.7,8.8c-4.9,0,-8.8,-3.9,-8.8,-8.8c0,-4.8,3.9,-8.7,8.8,-8.7Z" class="g7_3" />
<path d="M142.5,955.5l0,-7" class="g8_3" />
<path d="M142.5,984.5l0,-8" class="g8_3" />
<path d="M131.5,966.5l-7,0" class="g8_3" />
<path d="M160.5,966.5l-8,0" class="g8_3" />
<path d="M134.9,959l-5.4,-5.4" class="g8_3" />
<path d="M155,979.1l-5.3,-5.4" class="g8_3" />
<path d="M134.9,973.7l-5.4,5.4" class="g8_3" />
<path d="M155,953.6l-5.3,5.4" class="g8_3" />
<path d="M134.9,973.7l-1.9,1.9" class="g8_3" />
<path d="M151.5,957.1l-1.8,1.9" class="g8_3" />
<path d="M132.6,970.4l-2.4,1" class="g8_3" />
<path d="M154.4,961.2l-2.5,1.1" class="g8_3" />
<path d="M132.6,962.4l-2.4,-1" class="g8_3" />
<path d="M154.4,971.3l-2.5,-1" class="g8_3" />
<path d="M137.9,956.8l-1.1,-2.4" class="g8_3" />
<path d="M147.7,978.2l-1.1,-2.4" class="g8_3" />
<path d="M146.5,956.7l1,-2.4" class="g8_3" />
<path d="M137.1,978.3l1,-2.4" class="g8_3" />
<path fill-rule="evenodd" d="M226.8,959.4c3.8,0,7,3.1,7,6.9c0,3.9,-3.2,7,-7,7c-3.9,0,-7,-3.1,-7,-7c0,-3.8,3.1,-6.9,7,-6.9Z" class="g15_3" />
<path d="M226.8,957.6c4.8,0,8.7,3.9,8.7,8.7c0,4.9,-3.9,8.8,-8.7,8.8c-4.8,0,-8.8,-3.9,-8.8,-8.8c0,-4.8,4,-8.7,8.8,-8.7Z" class="g7_3" />
<path d="M226.5,955.5l0,-7" class="g8_3" />
<path d="M226.5,984.5l0,-8" class="g8_3" />
<path d="M216.5,966.5l-8,0" class="g8_3" />
<path d="M244.5,966.5l-7,0" class="g8_3" />
<path d="M219.4,959L214,953.6" class="g8_3" />
<path d="M239.5,979.1l-5.3,-5.4" class="g8_3" />
<path d="M219.4,973.7l-5.4,5.4" class="g8_3" />
<path d="M239.5,953.6l-5.3,5.4" class="g8_3" />
<path d="M219.4,973.7l-1.8,1.9" class="g8_3" />
<path d="M236.1,957.1l-1.9,1.9" class="g8_3" />
<path d="M217.2,970.4l-2.4,1" class="g8_3" />
<path d="M238.9,961.2l-2.5,1.1" class="g8_3" />
<path d="M217.1,962.4l-2.4,-1" class="g8_3" />
<path d="M238.9,971.3l-2.4,-1" class="g8_3" />
<path d="M222.5,956.8l-1.1,-2.4" class="g8_3" />
<path d="M232.3,978.2l-1.1,-2.4" class="g8_3" />
<path d="M231,956.7l1,-2.4" class="g8_3" />
<path d="M221.6,978.3l1.1,-2.4" class="g8_3" />
<path fill-rule="evenodd" d="M226.8,1025.9c3.9,0,7,3.2,7,7c0,3.8,-3.1,7,-7,7c-3.8,0,-6.9,-3.2,-6.9,-7c0,-3.8,3.1,-7,6.9,-7Z" class="g16_3" />
<path d="M226.8,1024.1c4.9,0,8.8,4,8.8,8.8c0,4.8,-3.9,8.8,-8.8,8.8c-4.8,0,-8.7,-4,-8.7,-8.8c0,-4.8,3.9,-8.8,8.7,-8.8Z" class="g7_3" />
<path fill-rule="evenodd" d="M142.3,1025.9c3.8,0,6.9,3.2,6.9,7c0,3.8,-3.1,7,-6.9,7c-3.9,0,-7,-3.2,-7,-7c0,-3.8,3.1,-7,7,-7Z" class="g16_3" />
<path d="M142.3,1024.1c4.8,0,8.7,4,8.7,8.8c0,4.8,-3.9,8.8,-8.7,8.8c-4.9,0,-8.8,-4,-8.8,-8.8c0,-4.8,3.9,-8.8,8.8,-8.8Z" class="g7_3" />
<path fill-rule="evenodd" d="M292.9,947.5c0.9,0,1.6,0.7,1.6,1.6c0,0.9,-0.7,1.6,-1.6,1.6c-0.9,0,-1.6,-0.7,-1.6,-1.6c0,-0.9,0.7,-1.6,1.6,-1.6Z" class="g17_3" />
<path fill-rule="evenodd" d="M292.9,964.9c0.9,0,1.6,0.7,1.6,1.6c0,0.9,-0.7,1.6,-1.6,1.6c-0.9,0,-1.6,-0.7,-1.6,-1.6c0,-0.9,0.7,-1.6,1.6,-1.6Z" class="g17_3" />
<path fill-rule="evenodd" d="M292.9,981.9c0.9,0,1.6,0.7,1.6,1.6c0,0.9,-0.7,1.6,-1.6,1.6c-0.9,0,-1.6,-0.7,-1.6,-1.6c0,-0.9,0.7,-1.6,1.6,-1.6Z" class="g17_3" />
<path fill-rule="evenodd" d="M292.9,1006.7c0.9,0,1.6,0.7,1.6,1.6c0,0.9,-0.7,1.6,-1.6,1.6c-0.9,0,-1.6,-0.7,-1.6,-1.6c0,-0.9,0.7,-1.6,1.6,-1.6Z" class="g17_3" />
<path fill-rule="evenodd" d="M292.9,1023.4c0.9,0,1.6,0.7,1.6,1.6c0,0.9,-0.7,1.6,-1.6,1.6c-0.9,0,-1.6,-0.7,-1.6,-1.6c0,-0.9,0.7,-1.6,1.6,-1.6Z" class="g17_3" />
<path fill-rule="evenodd" d="M292.9,1040.8c0.9,0,1.6,0.8,1.6,1.6c0,0.9,-0.7,1.6,-1.6,1.6c-0.9,0,-1.6,-0.7,-1.6,-1.6c0,-0.8,0.7,-1.6,1.6,-1.6Z" class="g17_3" />
<path fill-rule="evenodd" d="M292.9,1058.2c0.9,0,1.6,0.7,1.6,1.6c0,0.9,-0.7,1.6,-1.6,1.6c-0.9,0,-1.6,-0.7,-1.6,-1.6c0,-0.9,0.7,-1.6,1.6,-1.6Z" class="g17_3" />
<path d="M109,833l715,0l0,241l-715,0Z" class="g7_3" />
<path fill-rule="evenodd" d="M408,187l118,0l-118,0Z" class="g5_3" />
</svg>