<?xml version="1.0" encoding="UTF-8" standalone="no"?>
<!DOCTYPE svg PUBLIC "-//W3C//DTD SVG 1.1//EN"
"http://www.w3.org/Graphics/SVG/1.1/DTD/svg11.dtd">
<svg version="1.1" xmlns="http://www.w3.org/2000/svg" xmlns:xlink="http://www.w3.org/1999/xlink">
<defs>
<style type="text/css"><![CDATA[
.g16_2{
fill: none;
stroke: #231F20;
stroke-width: 1;
stroke-linecap: butt;
stroke-linejoin: miter;
stroke-miterlimit: 4;
stroke-dasharray: 3,3;
}
.g5_2{
fill: #696C6D;
}
.g6_2{
fill: #B92D34;
}
.g11_2{
fill: #040503;
stroke: #040503;
stroke-width: 1;
stroke-linecap: round;
stroke-linejoin: round;
stroke-miterlimit: 2;
}
.g17_2{
fill: none;
stroke: #231F20;
stroke-width: 1;
stroke-linecap: butt;
stroke-linejoin: miter;
stroke-miterlimit: 4;
stroke-dasharray: 4,4;
}
.g8_2{
fill: #578DAA;
}
.g14_2{
fill: #FFFFFF;
}
.g13_2{
fill: none;
stroke: #040503;
stroke-width: 1;
stroke-linecap: round;
stroke-linejoin: round;
stroke-miterlimit: 2;
}
.g7_2{
fill: #060706;
}
.g1_2{
fill: #1A1412;
}
.g10_2{
fill: #7A9C3D;
}
.g9_2{
fill: #D46537;
}
.g12_2{
fill: #040503;
}
.g2_2{
fill: #CDCACC;
}
.g15_2{
fill: none;
stroke: #000000;
stroke-width: 1;
stroke-linecap: butt;
stroke-linejoin: miter;
stroke-miterlimit: 4;
}
.g4_2{
fill: #DEDFDE;
}
.g3_2{
fill: none;
stroke: #646669;
stroke-width: 1;
stroke-linecap: butt;
stroke-linejoin: miter;
}
]]></style>
</defs>
<path d="M0,126l935,0L935,0L0,0L0,126Z" class="g1_2" />
<path d="M366,427l569,0l0,-301l-569,0l0,301Z" class="g2_2" />
<image x="-1" y="126" width="369" height="304" xlink:href="img/1.png" />
<path d="M82.5,911.5l162,0" class="g3_2" />
<path d="M244.5,911.5l179,0" class="g3_2" />
<path d="M247,943l55,0l0,-21l-55,0l0,21Z" class="g4_2" />
<path d="M247,969l55,0l0,-21l-55,0l0,21Z" class="g5_2" />
<path d="M247,1047l55,0l0,-21l-55,0l0,21Z" class="g6_2" />
<path d="M247,995l55,0l0,-21l-55,0l0,21Z" class="g7_2" />
<path d="M247,1073l55,0l0,-21l-55,0l0,21Z" class="g8_2" />
<path d="M247,1021l55,0l0,-21l-55,0l0,21Z" class="g9_2" />
<path d="M247,1099l55,0l0,-21l-55,0l0,21Z" class="g10_2" />
<path d="M82,943l55,0l0,-21l-55,0l0,21Z" class="g4_2" />
<path d="M82,969l55,0l0,-21l-55,0l0,21Z" class="g5_2" />
<path d="M82,995l55,0l0,-21l-55,0l0,21Z" class="g7_2" />
<image x="80" y="451" width="162" height="121" xlink:href="img/2.png" />
<image x="285" y="453" width="161" height="121" xlink:href="img/3.png" />
<image x="489" y="454" width="161" height="122" xlink:href="img/4.png" />
<image x="693" y="456" width="162" height="121" xlink:href="img/5.png" />
<path fill-rule="evenodd" d="M618.5,1023.5l-10,0l0,-4l10,0l0,4Z" class="g11_2" />
<path fill-rule="evenodd" d="M618,1012l-10,0l0,4l10,0l0,-4Z" class="g12_2" />
<path d="M618.6,1012.8l-10,0l0,3.8l10,0l0,-3.8Zm56.7,2.2l0,5.6l-3,0c0,0,-2.6,-0.3,-2.6,-2.8c0,-2.5,2,-2.8,2.6,-2.8c0.7,0,3,0,3,0Z" class="g13_2" />
<path fill-rule="evenodd" d="M674.6,1015.6l0,4.3l-2.3,0c0,0,-1.9,-0.2,-1.9,-2.1c0,-1.9,1.5,-2.2,2,-2.2c0.5,0,2.2,0,2.2,0Z" class="g12_2" />
<path d="M674.6,1015.6l0,4.3l-2.3,0c0,0,-1.9,-0.2,-1.9,-2.1c0,-1.9,1.5,-2.2,2,-2.2c0.5,0,2.2,0,2.2,0Zm0,0l0.7,-0.6m0,5.6l-0.7,-0.7M652.2,1015l0,5.6l-3.1,0c0,0,-2.5,-0.3,-2.5,-2.8c0,-2.5,1.9,-2.8,2.6,-2.8c0.6,0,3,0,3,0Z" class="g13_2" />
<path fill-rule="evenodd" d="M651.5,1015.6l0,4.3l-2.3,0c0,0,-2,-0.2,-2,-2.1c0,-1.9,1.5,-2.2,2,-2.2c0.5,0,2.3,0,2.3,0Z" class="g12_2" />
<path d="M651.5,1015.6l0,4.3l-2.3,0c0,0,-2,-0.2,-2,-2.1c0,-1.9,1.5,-2.2,2,-2.2c0.5,0,2.3,0,2.3,0Zm0,0l0.7,-0.6m0,5.6l-0.7,-0.7m15,1.2l-6.5,0c-0.1,0,-0.2,0.1,-0.2,0.2l0,2.7c0,0.1,0.1,0.2,0.2,0.2l6.5,0c0.1,0,0.2,-0.1,0.2,-0.2l0,-2.7c0,-0.1,-0.1,-0.2,-0.2,-0.2Z" class="g13_2" />
<path fill-rule="evenodd" d="M666,1021.6l-5.5,0c-0.1,0,-0.2,0.1,-0.2,0.2l0,1.7c0,0.1,0.1,0.2,0.2,0.2l5.5,0c0,0,0.1,-0.1,0.1,-0.2l0,-1.7c0,-0.1,-0.1,-0.2,-0.1,-0.2Z" class="g12_2" />
<path d="M666,1021.6l-5.5,0c-0.1,0,-0.2,0.1,-0.2,0.2l0,1.7c0,0.1,0.1,0.2,0.2,0.2l5.5,0c0,0,0.1,-0.1,0.1,-0.2l0,-1.7c0,-0.1,-0.1,-0.2,-0.1,-0.2Zm0.7,-0.5l-0.6,0.6m0.6,2.4l-0.6,-0.5m-6.3,-2.5l0.6,0.6m-0.6,2.4l0.6,-0.5m6.6,-12.2l-7.5,0c-0.2,0,-0.3,0.1,-0.3,0.2l0,2.7c0,0.1,0.1,0.2,0.3,0.2l7.5,0c0.1,0,0.2,-0.1,0.2,-0.2l0,-2.7c0,-0.1,-0.1,-0.2,-0.2,-0.2Z" class="g13_2" />
<path fill-rule="evenodd" d="M666.5,1011.9l-6.5,0c-0.1,0,-0.2,0.1,-0.2,0.2l0,1.7c0,0.1,0.1,0.1,0.2,0.1l6.5,0c0,0,0.1,0,0.1,-0.1l0,-1.7c0,-0.1,-0.1,-0.2,-0.1,-0.2Z" class="g12_2" />
<path d="M666.5,1011.9l-6.5,0c-0.1,0,-0.2,0.1,-0.2,0.2l0,1.7c0,0.1,0.1,0.1,0.2,0.1l6.5,0c0,0,0.1,0,0.1,-0.1l0,-1.7c0,-0.1,-0.1,-0.2,-0.1,-0.2Zm0.7,-0.5l-0.6,0.6m0.6,2.4l-0.6,-0.5m-7.3,-2.5l0.6,0.6m-0.6,2.4l0.6,-0.5m-16.7,7.2l-6.5,0c-0.1,0,-0.2,0.1,-0.2,0.2l0,2.7c0,0.1,0.1,0.2,0.2,0.2l6.5,0c0.2,0,0.3,-0.1,0.3,-0.2l0,-2.7c0,-0.1,-0.1,-0.2,-0.3,-0.2Z" class="g13_2" />
<path fill-rule="evenodd" d="M642.7,1021.6l-5.5,0c0,0,-0.1,0.1,-0.1,0.2l0,1.7c0,0.1,0.1,0.2,0.1,0.2l5.5,0c0.1,0,0.1,-0.1,0.1,-0.2l0,-1.7c0,-0.1,0,-0.2,-0.1,-0.2Z" class="g12_2" />
<path d="M642.7,1021.6l-5.5,0c0,0,-0.1,0.1,-0.1,0.2l0,1.7c0,0.1,0.1,0.2,0.1,0.2l5.5,0c0.1,0,0.1,-0.1,0.1,-0.2l0,-1.7c0,-0.1,0,-0.2,-0.1,-0.2Zm0.7,-0.5l-0.6,0.6m0.6,2.4l-0.6,-0.5m-6.2,-2.5l0.6,0.6m-0.6,2.4l0.6,-0.5m6.5,-12.2l-7.5,0c-0.1,0,-0.2,0.1,-0.2,0.2l0,2.7c0,0.1,0.1,0.2,0.2,0.2l7.5,0c0.2,0,0.3,-0.1,0.3,-0.2l0,-2.7c0,-0.1,-0.1,-0.2,-0.3,-0.2Z" class="g13_2" />
<path fill-rule="evenodd" d="M643.2,1011.9l-6.5,0c-0.1,0,-0.1,0.1,-0.1,0.2l0,1.7c0,0.1,0,0.1,0.1,0.1l6.5,0c0.1,0,0.2,0,0.2,-0.1l0,-1.7c0,-0.1,-0.1,-0.2,-0.2,-0.2Z" class="g12_2" />
<path d="M643.2,1011.9l-6.5,0c-0.1,0,-0.1,0.1,-0.1,0.2l0,1.7c0,0.1,0,0.1,0.1,0.1l6.5,0c0.1,0,0.2,0,0.2,-0.1l0,-1.7c0,-0.1,-0.1,-0.2,-0.2,-0.2Zm0.7,-0.5l-0.6,0.6m0.6,2.4l-0.6,-0.5m-7.2,-2.5l0.5,0.6m-0.5,2.4l0.5,-0.5" class="g13_2" />
<path d="M617.9,1012.3l-8.6,0c-0.4,0,-0.7,0.4,-0.7,0.8l0,3.2c0,0.4,0.3,0.7,0.7,0.7l8.6,0c0.4,0,0.7,-0.3,0.7,-0.7l0,-3.2c0,-0.4,-0.3,-0.8,-0.7,-0.8Z" class="g13_2" />
<path fill-rule="evenodd" d="M609.6,1015.1l0,-1.1c0,-0.3,0.2,-0.5,0.5,-0.5l7.1,0c0.3,0,0.5,0.2,0.5,0.5l0,1.1Z" class="g14_2" />
<path d="M609.6,1015.1l0,-1.1c0,-0.3,0.2,-0.5,0.5,-0.5l7.1,0c0.3,0,0.5,0.2,0.5,0.5l0,1.1l-8.1,0Zm0.4,-0.5l0,-0.5c0,-0.1,0.2,-0.2,0.3,-0.2l6.7,0c0.1,0,0.2,0.1,0.2,0.2l0,0.5l-7.2,0Zm7.2,0l0.5,0.5m-7.7,-0.5l-0.4,0.5m8.9,-2.3l-9.9,0m9.9,3.8l-9.9,0" class="g13_2" />
<path d="M617.9,1018.9l-8.6,0c-0.4,0,-0.7,0.3,-0.7,0.7l0,3.2c0,0.4,0.3,0.8,0.7,0.8l8.6,0c0.4,0,0.7,-0.4,0.7,-0.8l0,-3.2c0,-0.4,-0.3,-0.7,-0.7,-0.7Z" class="g13_2" />
<path fill-rule="evenodd" d="M609.6,1021.6l0,-1.1c0,-0.3,0.2,-0.5,0.5,-0.5l7.1,0c0.3,0,0.5,0.2,0.5,0.5l0,1.1Z" class="g14_2" />
<path d="M609.6,1021.6l0,-1.1c0,-0.3,0.2,-0.5,0.5,-0.5l7.1,0c0.3,0,0.5,0.2,0.5,0.5l0,1.1l-8.1,0Zm0.4,-0.4l0,-0.5c0,-0.2,0.2,-0.3,0.3,-0.3l6.7,0c0.1,0,0.2,0.1,0.2,0.3l0,0.5l-7.2,0Zm7.2,0l0.5,0.4m-7.7,-0.4l-0.4,0.4m8.9,-2.3l-9.9,0m9.9,3.8l-9.9,0" class="g13_2" />
<path d="M578.5,990.6l116.9,0c2.8,0,5.1,2.3,5.1,5.1l0,44.4c0,2.9,-2.3,5.2,-5.1,5.2l-116.9,0c-2.8,0,-5.1,-2.3,-5.1,-5.2l0,-44.4c0,-2.8,2.3,-5.1,5.1,-5.1Zm8.4,10.3l100.5,0c0.9,0,1.6,0.8,1.6,1.7l0,30.3c0,0.9,-0.7,1.7,-1.6,1.7l-100.5,0c-1,0,-1.7,-0.8,-1.7,-1.7l0,-30.3c0,-0.9,0.7,-1.7,1.7,-1.7Z" class="g13_2" />
<path d="M585.5,1001.5l103,0m-103,33l103,0m-99,-2l0,-29m-1,26l0,-23m96,26l0,-29m1,26l0,-23" class="g13_2" />
<path d="M586.9,980.8l10.6,0l0,2.2c0,0,-2.5,0,-2.5,2.4c0,2.5,2.6,2.6,2.6,2.6l0,2.1l-10.7,0l0,-9.3Zm1.5,9.8l0,-0.5m0.2,-9.3c0.1,-0.7,1,-1.4,2.4,-1.4m6.5,3.9c1.1,0,2,0.9,2,2.1c0,1.1,-0.9,2,-2,2c-1.2,0,-2.1,-0.9,-2.1,-2c0,-1.2,0.9,-2.1,2.1,-2.1Z" class="g13_2" />
<path d="M597.5,984.1c0.7,0,1.3,0.5,1.3,1.3c0,0.7,-0.6,1.3,-1.3,1.3c-0.8,0,-1.3,-0.6,-1.3,-1.3c0,-0.8,0.5,-1.3,1.3,-1.3Z" class="g13_2" />
<path d="M687.3,980.8l-10.7,0l0,2.2c0,0,2.5,0,2.5,2.4c0,2.5,-2.5,2.6,-2.5,2.6l0,2.1l10.7,0l0,-9.3Zm-1.5,9.8l0,-0.5m-0.2,-9.3c-0.2,-0.7,-1.1,-1.4,-2.4,-1.4m-6.5,3.9c-1.1,0,-2.1,0.9,-2.1,2.1c0,1.1,1,2,2.1,2c1.1,0,2,-0.9,2,-2c0,-1.2,-0.9,-2.1,-2,-2.1Z" class="g13_2" />
<path d="M676.7,984.1c-0.7,0,-1.3,0.5,-1.3,1.3c0,0.7,0.6,1.3,1.3,1.3c0.7,0,1.3,-0.6,1.3,-1.3c0,-0.8,-0.6,-1.3,-1.3,-1.3Z" class="g13_2" />
<path d="M586.9,1054.9l10.6,0l0,-2.1c0,0,-2.5,0,-2.5,-2.5c0,-2.4,2.6,-2.5,2.6,-2.5l0,-2.1l-10.7,0l0,9.2Zm1.5,-9.7l0,0.5m0.2,9.2c0.1,0.7,1,1.5,2.4,1.5m6.5,-3.9c1.1,0,2,-1,2,-2.1c0,-1.1,-0.9,-2,-2,-2c-1.2,0,-2.1,0.9,-2.1,2c0,1.1,0.9,2.1,2.1,2.1Z" class="g13_2" />
<path d="M597.5,1051.7c0.7,0,1.3,-0.6,1.3,-1.3c0,-0.7,-0.6,-1.3,-1.3,-1.3c-0.8,0,-1.3,0.6,-1.3,1.3c0,0.7,0.5,1.3,1.3,1.3Z" class="g13_2" />
<path d="M687.3,1054.9l-10.7,0l0,-2.1c0,0,2.5,0,2.5,-2.5c0,-2.4,-2.5,-2.5,-2.5,-2.5l0,-2.1l10.7,0l0,9.2Zm-1.5,-9.7l0,0.5m-0.2,9.2c-0.2,0.7,-1.1,1.5,-2.4,1.5m-6.5,-3.9c-1.1,0,-2.1,-1,-2.1,-2.1c0,-1.1,1,-2,2.1,-2c1.1,0,2,0.9,2,2c0,1.1,-0.9,2.1,-2,2.1Z" class="g13_2" />
<path d="M676.7,1051.7c-0.7,0,-1.3,-0.6,-1.3,-1.3c0,-0.7,0.6,-1.3,1.3,-1.3c0.7,0,1.3,0.6,1.3,1.3c0,0.7,-0.6,1.3,-1.3,1.3Z" class="g13_2" />
<path d="M590.5,1056.5l93,0m-93,-77l93,0" class="g13_2" />
<path d="M574.5,1062.5l125,0m-125,-1l0,3m125,-3l0,3m-133,-84l0,75m2,-75l-3,0m3,75l-3,0m140,-64l0,53m1,-53l-3,0m3,53l-3,0" class="g15_2" />
<path d="M757.8,1045.3c-1.6,0,-2.4,-1.1,-2.4,-2.5l0,-49.6c0,-1.4,0.8,-2.4,2.4,-2.4l0,54.5Zm0,-7c0,-0.9,0.8,-0.9,0.8,-0.9l60.6,-0.3l0,-38.2l-60.6,-0.2c-0.4,-0.1,-0.8,-0.3,-0.8,-0.8m17.6,18.5c0.9,0,1.7,0.7,1.7,1.6c0,0.9,-0.8,1.7,-1.7,1.7c-0.8,0,-1.6,-0.8,-1.6,-1.7c0,-0.9,0.8,-1.6,1.6,-1.6Z" class="g13_2" />
<path d="M775.4,1017c0.6,0,1.1,0.5,1.1,1c0,0.6,-0.5,1.1,-1.1,1.1c-0.5,0,-1,-0.5,-1,-1.1c0,-0.5,0.5,-1,1,-1Z" class="g13_2" />
<path d="M819.5,1004.5l26,0m-26,7l26,0" class="g13_2" />
<path d="M844.8,999.6c1.4,1.9,1.2,3.7,0.7,5.2c-0.4,1.5,-1.5,3.6,0,7.2c1.5,3.5,0,6,0,6" class="g13_2" />
<path d="M799.5,983.8l-9.7,0m9.7,3.5l-9.7,0m9.1,-3.5l0.3,3.5m-1.1,-3.5l0.3,3.5m-1.1,-3.5l0.3,3.5m-1.1,-3.5l0.3,3.5m-1.2,-3.5l0.4,3.5m-1.2,-3.5l0.4,3.5M794,983.8l0.4,3.5m-1.2,-3.5l0.4,3.5m-1.1,-3.5l0.3,3.5m-1.1,-3.5l0.3,3.5m-1.2,-3.5l0.4,3.5m10.5,-2.1l0,0.7l0.3,0c0,0,0,1.5,-1,3m0.7,-3.7l0.3,0c0,0,0,-1.8,-1,-2.9m0,0c-0.2,-0.2,-0.4,-0.3,-0.6,-0.3l-0.5,0c0,0,-0.4,0,-0.4,0.4c0,0.5,-0.1,6.2,-0.1,6.2c0,0,0,0.6,0.4,0.6l0.6,0c0,0,0.4,0,0.6,-0.3m-17.9,-5.2l-2.5,0l-0.5,0.6l0,2.6l0.6,0.5l2.4,0m-0.3,-3.6l0.3,2.8M782,983.8l0.4,3.5m-1.2,-3.5l0.4,3.5m-1.1,-3.4l0.3,3.4m2.3,-6.3l3,0l0,9.2l-3,0l0,-9.2Zm3,2l3.7,0l0,5.2l-3.7,0l0,-5.2Zm-1.5,7.2l0,1.5c0,0,-0.2,2.1,2.1,2.1l25.2,0c0,0,0.9,-0.1,0.9,0.9l0,4.2m1.2,0l0,-4.4c0,0,-0.1,-2.1,-2,-2.1l-25.4,0c0,0,-0.8,0.1,-0.8,-0.8l0,-1.4m0,0.7l0.3,0l0,-0.7l1.1,0l0,-2m0,-5.2l0,-2l-1.1,0l0,-0.7l-0.3,0m0,0.7l0,-1.5l-1.2,0l0,1.5m5.6,2.8l0.3,3.5m9,65l-9.7,0m9.7,-3.6l-9.7,0m9.1,3.6l0.3,-3.6m-1.1,3.6l0.3,-3.6m-1.1,3.6l0.3,-3.6m-1.1,3.6l0.3,-3.6m-1.2,3.6l0.4,-3.6m-1.2,3.6l0.4,-3.6m-1.2,3.6l0.4,-3.6m-1.2,3.6l0.4,-3.6m-1.1,3.6l0.3,-3.6m-1.1,3.6l0.3,-3.6m-1.2,3.6l0.4,-3.6m10.5,2.2l0,-0.8l0.3,0c0,0,0,-1.4,-1,-2.9m0.7,3.7l0.3,0c0,0,0,1.8,-1,2.9m0,0c-0.2,0.2,-0.4,0.3,-0.6,0.3l-0.5,0c0,0,-0.4,0,-0.4,-0.4c0,-0.5,-0.1,-6.2,-0.1,-6.2c0,0,0,-0.6,0.4,-0.6l0.6,0c0,0,0.4,0,0.6,0.3m-17.9,5.1l-2.5,0l-0.5,-0.5l0,-2.6l0.6,-0.6l2.4,0m-0.3,3.7l0.3,-2.8m-1.1,2.8l0.4,-3.6m-1.2,3.6l0.4,-3.6m-1.1,3.5l0.3,-3.5m2.3,6.4l3,0l0,-9.3l-3,0l0,9.3Zm3,-2l3.7,0l0,-5.2l-3.7,0l0,5.2Zm-1.5,-7.3l0,-1.4c0,0,-0.2,-2.1,2.1,-2.1l25.2,0c0,0,0.9,0.1,0.9,-0.9l0,-4.2m1.2,0l0,4.4c0,0,-0.1,2,-2,2l-25.4,0c0,0,-0.8,0,-0.8,0.9l0,1.3m0,-0.6l0.3,0l0,0.6l1.1,0l0,2.1m0,5.2l0,2l-1.1,0l0,0.7l-0.3,0m0,-0.7l0,1.5l-1.2,0l0,-1.5m5.6,-2.8l0.3,-3.6" class="g13_2" />
<path d="M758.5,959.5l22,0m-22,-2l0,4m22,-4l0,4m71,38l0,37m1,-37l-3,0m3,37l-3,0" class="g15_2" />
<path d="M847.5,999.5l-25,0" class="g16_2" />
<path d="M780.5,977.5l0,-12" class="g16_2" />
<path d="M847.5,1036.5l-25,0" class="g16_2" />
<path d="M758.5,988.5l0,-23" class="g17_2" />
<path d="M704,951.4c0,1.6,-1.1,2.4,-2.5,2.4l-126.4,0c-1.4,0,-2.4,-0.8,-2.4,-2.4l131.3,0Zm-6.5,0c-1,0,-1,-0.8,-1,-0.8l-0.3,-62.9l-42.7,0c-1.2,0,-1.2,1.4,-1.2,1.4l0,1.9c0,1.5,1.5,1.5,1.5,1.5l1.1,0.3l7.4,0c0.3,0,0.7,-0.1,0.9,0.3M622.1,893l0,-4c0,-1,-0.8,-1.3,-1.3,-1.3l-31.5,0c-1.4,0,-1.4,1.4,-1.4,1.4l0,1.9c0,1.2,1.4,1.4,1.4,1.4l1.2,0.3c0,0,7,0.1,7.5,0.1c0.3,0,0.6,0,0.7,0.2m-11.1,1.4l-7.5,0l-0.2,56.2c0,0.3,-0.2,0.8,-0.7,0.8M668,887.7l0,-25.3m7.4,25.3l0,-25.3m-12.5,0.7c1.9,-1.3,3.7,-1.1,5.2,-0.7c1.6,0.4,3.8,1.5,7.4,0c3.6,-1.5,6.1,0.1,6.1,0.1m7,59.5l0,-28.7l-100.7,0l0,1l0,27.7m12.1,0.3l2.5,-1.2l-0.2,-0.3l-2.4,1.1l-12,0.1c0,0,-1.7,0.1,-1.7,1.6c0,1.5,1.3,1.6,1.7,1.6c0.3,0,9.2,-1.6,9.2,-1.6m2.9,-1.2l-12.1,0c0,0,-1.3,0,-1.3,1.2c0,1.2,1,1.2,1.2,1.2c0.2,0,7.4,-1.3,7.4,-1.3m-0.7,-1.6l0,-3.7l5.4,0l0,3.7m-4.6,-13.8l0,10.1m3.8,-10.1l0,10.1m-3.8,-9.5l3.8,-0.4m-3.8,1.2l3.8,-0.3m-3.8,1.2l3.8,-0.4m-3.8,1.2l3.8,-0.4m-3.8,1.3l3.8,-0.4m-3.8,1.2l3.8,-0.4m-3.8,1.2l3.8,-0.3m-3.8,1.2l3.8,-0.4m-3.8,1.2l3.8,-0.4m-3.8,1.2l3.8,-0.3m-3.8,1.2l3.8,-0.4m-3.8,1.2l3.8,-0.3m-2.3,-11.9l0.8,0l0,-0.3c0,0,1.5,0,3.1,1.1m-3.9,-0.8l0,-0.3c0,0,-1.9,0,-3,1.1m0,0c-0.2,0.2,-0.3,0.4,-0.3,0.6l0,0.5c0,0,0,0.4,0.4,0.4c0.5,0,6.5,0.1,6.5,0.1c0,0,0.6,0,0.6,-0.4l0,-0.7c0,0,0,-0.3,-0.3,-0.5m-5.4,17.4l0,3.9l0.6,0.5l2.7,0l0.6,-0.6l0,-4.1m-3.9,1l3.8,-0.3m-3.8,1.2l3.8,-0.4m-3.8,1.2l3.8,-0.3m-3.8,1.1l3.8,-0.3m-3.8,1.2l3.8,-0.4m-11.2,-5.2l0,1.2l100.7,0l0,-1.2m-12.2,-0.1L674,921.2l0.2,-0.4l2.4,1.1l12,0.1c0,0,1.7,0.1,1.7,1.6c0,1.5,-1.3,1.6,-1.7,1.6c-0.4,0,-9.2,-1.6,-9.2,-1.6m-3,-1.2l12.2,0c0,0,1.3,0,1.3,1.2c0,1.2,-1,1.2,-1.2,1.2c-0.2,0,-7.4,-1.3,-7.4,-1.3m-4.8,-1.6l0,-3.7l5.4,0l0,3.7m-4.5,-13.8l0,10.1m3.7,-10.1l0,10.1m-3.7,-9.5l3.7,-0.4m-3.7,1.2l3.7,-0.3m-3.7,1.2l3.7,-0.4m-3.7,1.2l3.7,-0.3m-3.7,1.2l3.7,-0.4m-3.7,1.2l3.7,-0.4m-3.7,1.3l3.7,-0.4m-3.7,1.2l3.7,-0.4m-3.7,1.2l3.7,-0.4m-3.7,1.2l3.7,-0.3m-3.7,1.2l3.7,-0.4m-3.7,1.2l3.7,-0.3m-2.3,-11.9l0.8,0l0,-0.3c0,0,1.5,0,3.1,1.1m-3.9,-0.8l0,-0.3c0,0,-1.9,0,-3,1.1m0,0c-0.2,0.2,-0.3,0.4,-0.3,0.6l0,0.5c0,0,0,0.5,0.4,0.5c0.5,0,6.5,0,6.5,0c0,0,0.6,0,0.6,-0.4l0,-0.7c0,0,0,-0.3,-0.3,-0.5m-5.4,17.4l0,3.9l0.6,0.5l2.7,0l0.6,-0.6l0,-4.1m-3.8,1.1l3.7,-0.4m-3.7,1.2l3.7,-0.4m-3.7,1.2l3.7,-0.3m-3.7,1.2l3.7,-0.4m-3.7,1.2l3.7,-0.4m-4.7,-5.2l-76.4,0" class="g13_2" />
<path d="M580.5,854.5l115,0m-115,-2l0,3" class="g15_2" />
<path d="M695.5,852.5l0,3" class="g15_2" />
<path d="M568.5,894.5l0,57m1,-57l-3,0m-33,-7l0,64m1,-64l-3,0" class="g15_2" />
<path d="M569.5,951.5l-3,0" class="g15_2" />
<path d="M534.5,951.5l-3,0" class="g15_2" />
<path d="M580.5,858.5l0,36m115,-36l0,27m-108,2l-50,0" class="g17_2" />
<path d="M574.5,951.5l-40,0" class="g17_2" />
<path d="M579.5,894.5l-8,0" class="g17_2" />
</svg>