<?xml version="1.0" encoding="UTF-8" standalone="no"?>
<!DOCTYPE svg PUBLIC "-//W3C//DTD SVG 1.1//EN"
"http://www.w3.org/Graphics/SVG/1.1/DTD/svg11.dtd">
<svg version="1.1" xmlns="http://www.w3.org/2000/svg" xmlns:xlink="http://www.w3.org/1999/xlink">
<defs>
<style type="text/css"><![CDATA[
.g23_2{
fill: none;
stroke: #000000;
stroke-width: 2;
stroke-linecap: round;
stroke-linejoin: round;
stroke-miterlimit: 2;
stroke-dasharray: 4,5;
}
.g12_2{
fill: #636363;
}
.g14_2{
fill: none;
stroke: #FFFFFF;
stroke-width: 6;
stroke-linecap: round;
stroke-linejoin: round;
stroke-miterlimit: 2;
}
.g2_2{
fill: none;
stroke: #FFFFFF;
stroke-width: 3;
stroke-linecap: round;
stroke-linejoin: miter;
stroke-miterlimit: 2;
}
.g21_2{
fill: none;
stroke: #000000;
stroke-width: 3;
stroke-linecap: round;
stroke-linejoin: round;
stroke-miterlimit: 2;
}
.g16_2{
stroke: #000000;
stroke-width: 1;
stroke-linecap: round;
stroke-linejoin: round;
stroke-miterlimit: 2;
}
.g3_2{
fill: #FFFFFF;
stroke: #000000;
stroke-width: 2;
stroke-linecap: butt;
stroke-linejoin: miter;
stroke-miterlimit: 2;
}
.g13_2{
fill: #D4D4D4;
}
.g1_2{
fill: #B3B3B3;
}
.g7_2{
fill: #636363;
stroke: #000000;
stroke-width: 1;
stroke-linecap: butt;
stroke-linejoin: miter;
stroke-miterlimit: 2;
}
.g11_2{
fill: none;
stroke: #000000;
stroke-width: 2;
stroke-linecap: round;
stroke-linejoin: round;
stroke-miterlimit: 2;
}
.g18_2{
fill: #FFFFFF;
stroke: #000000;
stroke-width: 2;
stroke-linecap: round;
stroke-linejoin: round;
stroke-miterlimit: 2;
}
.g5_2{
fill: none;
stroke: #000000;
stroke-width: 2;
stroke-linecap: butt;
stroke-linejoin: miter;
stroke-miterlimit: 2;
}
.g10_2{
fill: #E6E6E6;
stroke: #000000;
stroke-width: 1;
stroke-linecap: round;
stroke-linejoin: round;
stroke-miterlimit: 2;
}
.g15_2{
fill: none;
stroke: #000000;
stroke-width: 1;
stroke-linecap: round;
stroke-linejoin: round;
stroke-miterlimit: 2;
stroke-dasharray: 2,3;
}
.g4_2{
fill: none;
stroke: #000000;
stroke-width: 1;
stroke-linecap: butt;
stroke-linejoin: miter;
stroke-miterlimit: 2;
}
.g9_2{
fill: #636363;
stroke: #000000;
stroke-width: 2;
stroke-linecap: round;
stroke-linejoin: round;
stroke-miterlimit: 2;
}
.g19_2{
fill: #FFFFFF;
}
.g17_2{
fill: #FFFFFF;
stroke: #000000;
stroke-width: 1;
stroke-linecap: round;
stroke-linejoin: round;
stroke-miterlimit: 2;
}
.g22_2{
fill: none;
stroke: #000000;
stroke-width: 2;
stroke-linecap: round;
stroke-linejoin: round;
stroke-miterlimit: 2;
stroke-dasharray: 3,5;
}
.g6_2{
}
.g20_2{
fill: #FFFFFF;
stroke: #000000;
stroke-width: 3;
stroke-linecap: round;
stroke-linejoin: round;
stroke-miterlimit: 2;
}
.g8_2{
fill: none;
stroke: #000000;
stroke-width: 1;
stroke-linecap: round;
stroke-linejoin: round;
stroke-miterlimit: 2;
}
]]></style>
</defs>
<path fill-rule="evenodd" d="M55,54l824,0l0,1101l-824,0Z" class="g1_2" />
<path d="M55.5,256.5l27,0" class="g2_2" />
<path d="M55.5,430.5l27,0" class="g2_2" />
<path d="M55.5,605.5l27,0" class="g2_2" />
<path d="M55.5,779.5l27,0" class="g2_2" />
<path d="M55.5,953.5l27,0" class="g2_2" />
<path d="M852.5,256.5l28,0" class="g2_2" />
<path d="M852.5,449.5l28,0" class="g2_2" />
<path d="M852.5,605.5l28,0" class="g2_2" />
<path d="M852.5,779.5l28,0" class="g2_2" />
<path d="M852.5,953.5l28,0" class="g2_2" />
<path d="M236.5,82.5l0,-27" class="g2_2" />
<path d="M390.5,82.5l0,-27" class="g2_2" />
<path d="M544.5,82.5l0,-27" class="g2_2" />
<path d="M698.5,82.5l0,-27" class="g2_2" />
<path d="M236.5,1155.5l0,-28" class="g2_2" />
<path d="M390.5,1155.5l0,-28" class="g2_2" />
<path d="M544.5,1155.5l0,-28" class="g2_2" />
<path d="M698.5,1155.5l0,-28" class="g2_2" />
<path fill-rule="evenodd" d="M82,82l770,0l0,1045l-770,0Z" class="g3_2" />
<path d="M184.5,209.5l646,0" class="g4_2" />
<path d="M103.5,278.5l727,0" class="g4_2" />
<path d="M82,1097l770,0" class="g5_2" />
<path d="M466.5,1099.5l0,28" class="g4_2" />
<path d="M468.5,1099.5l0,28" class="g4_2" />
<path d="M272.5,1099.5l0,28" class="g4_2" />
<path d="M274.5,1099.5l0,28" class="g4_2" />
<path d="M664.5,1099.5l0,28" class="g4_2" />
<path d="M666.5,1099.5l0,28" class="g4_2" />
<path fill-rule="evenodd" d="M106,289l37,0l0,38l-37,0Z" class="g6_2" />
<path fill-rule="evenodd" d="M103.5,287.5l38,0l0,37l-38,0Z" class="g7_2" />
<path fill-rule="evenodd" d="M106,559l37,0l0,38l-37,0Z" class="g6_2" />
<path fill-rule="evenodd" d="M103.5,557.5l38,0l0,38l-38,0Z" class="g7_2" />
<path d="M310.3,457.3l-7.6,-2c0,0,-0.8,-0.1,-1.4,0.1c-0.6,0.2,-1,0.3,-1.4,0.5c-0.3,0.1,-0.5,0.6,-0.5,1c0,0.4,-0.1,5.1,-0.1,5.1c0,0,0.7,3.6,3.7,4.5c2.9,0.9,40.7,10.7,40.7,10.7c0,0,1,0.1,2.1,-0.2c1.1,-0.2,3.7,-1,3.7,-3.9c-0.1,-2.9,-0.1,-4.6,-0.1,-4.6c0,0,0.1,-1.1,-1.2,-1.4c-1.3,-0.4,-8.8,-2.2,-8.8,-2.2c0,0,-1,-0.3,-1,-1.4c0,-1,0,-2.1,0,-2.1" class="g8_2" />
<path d="M336.6,461.1c0.2,-0.1,0.6,0,0.8,0c0.1,0,8.7,2.3,8.7,2.3c0,0,1.1,0.1,1.6,-0.1c0.6,-0.2,1.7,-0.5,1.7,-1.8c0.1,-1.4,0.1,-51.3,0.1,-51.3" class="g8_2" />
<path d="M336.8,415l0,34.7c0,0,-0.3,3.6,-2.9,3.2" class="g8_2" />
<path d="M335.5,452.3L316,447.2c0,0,-4.1,-0.9,-4.1,-5.7c0,-4.8,0,-11.1,0,-11.1" class="g8_2" />
<path d="M306.1,415.3c0,0,0,0.3,-0.9,0.5c-1,0.3,-16.7,4.3,-16.7,4.3c0,0,-0.9,0.5,-0.9,1.4c0,1,0,2.2,0,2.2c0,0,0.1,0.7,1.1,1c1.1,0.2,20.4,5.3,20.4,5.3c0,0,4,0.9,7.7,-0.3c3.7,-1.1,15.4,-4,15.4,-4c0,0,3.6,-1.4,4.6,-3.7" class="g8_2" />
<path d="M287.9,420.7c0,0,-0.2,0.7,0.8,1c1.1,0.3,20.4,5.4,20.4,5.4c0,0,4,0.8,7.7,-0.3c3.7,-1.1,15.4,-4,15.4,-4c0,0,3.6,-1.3,4.6,-4.9" class="g8_2" />
<path d="M333.9,453l-20.1,-5.1c0,0,-4.1,-1,-4.1,-5.7c0,-4.8,0,-12.1,0,-12.1" class="g8_2" />
<path d="M345.5,477.1c0.9,-0.6,1.8,-1.5,1.8,-3.2c-0.1,-3,-0.1,-4.6,-0.1,-4.6c0,0,0.1,-1.1,-1.2,-1.5c-1.3,-0.3,-8.8,-2.2,-8.8,-2.2c0,0,-1,-0.2,-1,-1.3c0,-1.1,0,-1.8,0,-2.2c0,-0.4,0.2,-0.9,0.2,-0.9" class="g8_2" />
<path d="M300.1,456.3c0.6,-0.2,1.1,0,1.1,0l6.9,1.8c0.7,0.2,1.6,0.3,1.9,0.2" class="g8_2" />
<path d="M346.6,463.2c0.3,-0.3,0.6,-0.7,0.6,-1.3c0.1,-1.4,0.1,-51.3,0.1,-51.3" class="g8_2" />
<path d="M310,458.3c0.3,-0.2,0.3,-0.5,0.4,-0.8c0,-0.3,0,-2.4,0,-2.4c0,0,0,-1,-1.3,-1.4c-1.2,-0.4,-8.2,-2.1,-8.2,-2.1c0,0,-1.5,-0.1,-1.5,-1.7c-0.1,-1.6,-0.1,-22,-0.1,-22" class="g8_2" />
<path d="M299.3,417.4l0,-3.8" class="g8_2" />
<path d="M220.8,391.5c0,0.8,0.2,1.8,2.3,2.5c2.1,0.7,86.7,22.3,89.2,23c2.6,0.6,7.5,0.6,11.1,-0.2c3.6,-0.8,43.8,-11.3,43.8,-11.3c0,0,1.2,-0.5,1.3,-1.5c0.1,-0.9,0,-36.9,0,-36.9c0,0,0.2,-2.6,-1.9,-3.4" class="g8_2" />
<path d="M368.9,373.1c1.8,0.4,2.8,0.5,3.7,0.2c0.9,-0.3,2.7,-0.6,3.2,-3.2c0.4,-2.6,-0.1,-4.7,-0.1,-4.7c0,0,-0.2,-4.2,-5.1,-5.6c-4.8,-1.3,-99.1,-25.2,-99.1,-25.2c0,0,-2.1,-0.2,-3.4,0.1c-1.3,0.3,-45.8,11.8,-45.8,11.8c0,0,-1.7,0.4,-1.7,1.3c0,0.9,0.2,43.7,0.2,43.7" class="g8_2" />
<path d="M223.1,394L223,353l89.2,22.7l0.1,41.3" class="g8_2" />
<path d="M220.6,347.8c0,0.4,0.7,0.9,1.6,1.2c0.8,0.3,89.7,22.8,90.8,23.1c1.2,0.3,7.1,0.8,10.8,-0.2c3.8,-1,44.6,-11.6,44.6,-11.6c0,0,2.6,-0.6,4.5,0.5" class="g8_2" />
<path d="M220.6,350.8c0,0.4,0.7,0.9,1.6,1.2c0.8,0.4,89.9,22.9,90.8,23.1c0.9,0.3,7.1,0.8,10.8,-0.2c3.8,-1,43.3,-11.2,43.3,-11.2" class="g8_2" />
<path d="M370.9,373.5c0.7,0,2,-0.6,2.4,-2c0.4,-1.4,0.5,-3.7,0.4,-4.4c-0.1,-0.8,-0.3,-2.5,-1.8,-3.4" class="g8_2" />
<path d="M371.9,363.7c-1.2,-0.5,-1.8,-0.8,-5.2,0" class="g8_2" />
<path d="M316.5,413.5l0,-37" class="g8_2" />
<path d="M317.5,415.5l0,-37" class="g8_2" />
<path d="M316.5,374.5l0,-2" class="g8_2" />
<path d="M317.5,375.5l0,-2" class="g8_2" />
<path d="M285.1,382c0.3,-0.1,0.6,-0.1,1,0c0.4,0.1,7.3,1.9,7.3,1.9c0,0,1.1,0.6,1.1,1.8c0,1.2,0,4.3,0,4.3c0,0,-0.2,0.6,-0.5,0.6" class="g8_2" />
<path d="M288.5,382.7c0,-0.1,-0.8,0.9,-0.8,0.9l0,1.4l6.7,1.9" class="g8_2" />
<path d="M285.1,382c-0.6,0.6,-0.5,1,-0.5,1.4c-0.1,0.5,0,4,0,4c0,0,0.2,1.1,1.3,1.4c1.2,0.3,7.4,2,7.4,2c0,0,0.4,0.1,0.7,-0.2" class="g8_2" />
<path d="M286.5,381.9c-0.6,0.5,-0.5,0.9,-0.5,1.3c0,0.4,0.1,3.7,0.1,3.7c0,0,0.1,0.9,1.2,1.3c1,0.3,6.8,1.8,6.8,1.8c0,0,0.4,0.1,0.7,-0.1" class="g8_2" />
<path d="M286.9,387.3l3.3,-0.9" class="g8_2" />
<path d="M288.9,383.6l4.5,1.1" class="g8_2" />
<path d="M285.1,390.6c0.3,-0.2,0.6,-0.2,1,0c0.4,0.1,7.3,1.9,7.3,1.9c0,0,1.1,0.6,1.1,1.8c0,1.1,0,4.3,0,4.3c0,0,-0.2,0.6,-0.5,0.6" class="g8_2" />
<path d="M288.5,391.3c0,-0.1,-0.8,0.9,-0.8,0.9l0,1.4l6.7,1.9" class="g8_2" />
<path d="M285.1,390.6c-0.6,0.6,-0.5,1,-0.5,1.4c-0.1,0.5,0,4,0,4c0,0,0.2,1,1.3,1.4c1.2,0.3,7.4,2,7.4,2c0,0,0.4,0.1,0.7,-0.2" class="g8_2" />
<path d="M286.5,390.5c-0.6,0.5,-0.5,0.9,-0.5,1.3c0,0.4,0.1,3.7,0.1,3.7c0,0,0.1,0.9,1.2,1.2c1,0.4,6.8,1.9,6.8,1.9c0,0,0.4,0.1,0.7,-0.1" class="g8_2" />
<path d="M286.9,395.9l3.3,-0.9" class="g8_2" />
<path d="M288.9,392.2l4.5,1.1" class="g8_2" />
<path d="M261.1,374.7l7.6,2l0,3.9" class="g8_2" />
<path d="M261.1,374.7l0,4l7.6,1.9l0,-1.3l-6.1,-1.6l0,-2.6" class="g8_2" />
<path d="M262.6,377.7l4.5,-1.5" class="g8_2" />
<path d="M261.1,387.1l7.6,2.1l0,3.9" class="g8_2" />
<path d="M261.1,387.1l0,4.1l7.6,1.9l0,-1.3l-6.1,-1.6l0,-2.6" class="g8_2" />
<path d="M262.6,390.2l4.5,-1.5" class="g8_2" />
<path d="M253.6,377.5l0,7.2l2.6,0.8c0,0,1,0.4,1.7,-0.1" class="g8_2" />
<path d="M253.6,377.5c2,0.3,4.1,1,4.9,3c0.8,1.9,0.2,3.3,-0.7,4.6" class="g8_2" />
<path d="M255.1,378l0,5.6l2.6,0.9" class="g8_2" />
<path d="M255.2,383.5l3.7,-1.3" class="g8_2" />
<path d="M239.2,369.1l7.6,2l0,3.9" class="g8_2" />
<path d="M239.2,369.1l0,4l7.6,1.9l0,-1.3l-6.1,-1.5l0,-2.7" class="g8_2" />
<path d="M240.7,372.2l4.5,-1.5" class="g8_2" />
<path d="M239.2,381.6l7.6,2l0,3.9" class="g8_2" />
<path d="M239.2,381.6l0,4l7.6,1.9l0,-1.3l-6.1,-1.5l0,-2.7" class="g8_2" />
<path d="M240.7,384.7l4.5,-1.6" class="g8_2" />
<path d="M231.7,371.9l0,7.2l2.6,0.9c0,0,1,0.3,1.7,-0.2" class="g8_2" />
<path d="M231.7,371.9c2,0.4,4.1,1,4.9,3c0.8,2,0.2,3.3,-0.7,4.6" class="g8_2" />
<path d="M233.2,372.5l0,5.5l2.6,0.9" class="g8_2" />
<path d="M233.3,377.9l3.7,-1.2" class="g8_2" />
<path d="M103.5,548.5l727,0" class="g4_2" />
<path fill-rule="evenodd" d="M291.8,484l2.5,-1.5l12.4,3.3l0,-8.2l2.5,-1.5l32.3,8.6l0,10.7l14.3,3.8l-2.5,1.5l-30,14.3Z" class="g9_2" />
<path fill-rule="evenodd" d="M306.7,477.6l32.3,8.7l0,10.6l14.4,3.8L323.3,515L291.8,484l15,4Z" class="g10_2" />
<path d="M291.8,484l2.5,-1.5l12.4,3.3l0,-8.2l2.5,-1.5l32.3,8.6l0,10.7l14.3,3.8l-2.5,1.5l-30,14.3Z" class="g11_2" />
<path d="M306.8,488l-0.1,-2.2" class="g11_2" />
<path d="M339,486.3l2.5,-1.6" class="g8_2" />
<path d="M339,497l2.5,-1.6" class="g8_2" />
<path d="M274.5,1099.5l192,0" class="g8_2" />
<path d="M468.5,1099.5l196,0" class="g8_2" />
<path d="M666.5,1099.5l186,0" class="g8_2" />
<path d="M272.5,1099.5l-190,0" class="g8_2" />
<path d="M483.1,461.3L596.6,438.5" class="g11_2" />
<path d="M706.8,416.4L829.9,391.8" class="g11_2" />
<path d="M710.8,416.4l0.1,3.5c0,0,0.2,1.9,0.3,2.4" class="g11_2" />
<path d="M727.4,441.2c-1.1,0,-0.7,-0.1,-1.4,-0.8C725.2,439.6,691.5,398,691.5,398c0,0,-4.8,-5.1,-10.1,-4c-5.4,1.1,-81.1,16.4,-81.1,16.4c0,0,-1.4,0.3,-2.1,1.2c-0.6,1,-2.8,4,-3.3,4.7c-0.4,0.6,-0.4,2,0.6,3.3c1,1.4,7.9,9.7,7.9,9.7" class="g11_2" />
<path d="M597.1,415l82.2,-16.7c0,0,4.3,-1.2,8,3.1c3.6,4.3,36,44.1,36,44.1c0,0,2.5,2.6,4.6,2.3" class="g8_2" />
<path d="M721.7,434.2L733.3,432c0,0,0.7,-0.4,1.3,0.4c0.6,0.7,3.3,3.9,3.3,3.9c0,0,0.4,0.7,-0.1,1.4c-0.5,0.7,-5.7,8,-5.7,8c0,0,-0.3,1.2,-5.4,2.3c-5.1,1.1,-17,3.4,-17,3.4c0,0,-3.6,1.1,-6.4,-2.3c-2.8,-3.5,-9,-11.1,-9,-11.1c0,0,-1.1,-1.6,-3.5,-1.1c-2.3,0.5,-6.6,1.3,-6.6,1.3" class="g11_2" />
<path d="M690.1,437.8c0.8,2.6,1.4,6.1,-1.3,10c-2.8,3.8,-11.1,15.4,-11.1,15.4" class="g11_2" />
<path d="M677.2,466.6l6.9,8.5c0,0,0.7,1,0.1,1.9c-0.5,0.9,-2.8,3.9,-2.8,3.9c0,0,-0.1,0.4,-1.1,0.7c-1.1,0.2,-31.2,6.1,-31.2,6.1c0,0,-1.7,0.5,-3.1,-1c-1,-1.1,-4.2,-5.1,-5.9,-7.2" class="g11_2" />
<path d="M707,452c0,1.2,-0.6,2,-2.1,2.3c-1.4,0.3,-17.2,3.4,-17.2,3.4c0,0,-1.7,0.4,-1.7,2.2c0.1,1.7,0,6.5,0.1,10.4c0.1,3.9,3.4,7.4,6,7.8c2.6,0.4,4,0.7,4,0.7c0,0,0.7,0.1,2,-0.2c1.2,-0.2,77.9,-15.2,77.9,-15.2c0,0,7,-2.2,7.1,-10.7c0,-8.4,0,-10.5,0,-10.5c0,0,-0.2,-1.1,-1.4,-1.5c-1.2,-0.3,-4.5,-0.6,-4.5,-0.6l-18.4,3.6" class="g11_2" />
<path d="M727.4,441.2c0.7,0,0.7,-0.2,1.1,-0.6c0.4,-0.4,5.2,-7.1,5.4,-7.4c0.2,-0.2,0.7,-1.1,0.3,-1.2" class="g8_2" />
<path d="M693.7,477.8c2.1,-0.3,3.5,-0.7,3.5,-0.7l73.4,-14.4c3.2,-0.6,7.5,-3.8,7.5,-11.7c0,-8,0,-9.1,0,-9.1c0,0,-0.2,-1.9,-1.5,-1.7" class="g8_2" />
<path d="M761.8,442.5l0,-1.2" class="g11_2" />
<path d="M762,436.2c0,-0.6,0.7,-1.2,1.5,-1.4c0.9,-0.2,18.2,-3.7,18.2,-3.7c0,0,1.4,-0.3,1.4,-2.2c0.1,-2,0.1,-26.7,0,-27.2" class="g11_2" />
<path d="M759.4,434.1c3.6,-0.8,17.3,-3.5,17.3,-3.5c0,0,1.4,-0.3,1.4,-2.3c0.1,-1.9,0.1,-25.6,0,-26.1" class="g8_2" />
<path d="M758,406.7c0.1,3.1,-0.5,6.5,-1.5,8.6c-1,2.1,-2.7,4.7,-6.2,5.2c-3.5,0.6,-34.5,6.7,-34.5,6.7" class="g11_2" />
<path d="M674.6,471.9l6.2,7.5c0,0,1.3,1.6,0,2.1" class="g8_2" />
<path d="M688.8,448.4l2.9,0.4c0,0,0.6,0.2,1.5,-0.2c0.9,-0.3,8.3,-1.7,8.3,-1.7" class="g11_2" />
<path d="M688.6,448c0.3,-0.1,0.7,-0.1,1.2,-0.2c0.9,-0.2,10.6,-2.3,10.6,-2.3" class="g8_2" />
<path d="M684.5,438.6l1,1.2c0,0,0.9,1.3,0.1,2.5c-0.8,1.1,-10.3,14.3,-10.3,14.3" class="g8_2" />
<path d="M612.3,440.3l9.5,11.5" class="g11_2" />
<path d="M677.8,408l-20.5,28.6" class="g11_2" />
<path d="M688.6,416.3l-20.3,28.4" class="g11_2" />
<path d="M677.8,408c1.2,-1.5,5.2,-1.3,8.1,1.2c2.8,2.5,4.3,4.9,2.7,7.1" class="g8_2" />
<path d="M676.6,409.8c1.1,-1.5,5.1,-1.4,8,1.1c2.8,2.5,4.4,5,2.8,7.2" class="g8_2" />
<path d="M675.3,411.6c1.1,-1.5,5.2,-1.4,8,1.1c2.9,2.5,4.4,4.9,2.8,7.1" class="g8_2" />
<path d="M674,413.3c1.2,-1.5,5.2,-1.3,8.1,1.2c2.8,2.5,4.3,4.9,2.7,7.1" class="g8_2" />
<path d="M672.8,415.1c1.1,-1.5,5.1,-1.4,8,1.1c2.8,2.5,4.4,5,2.8,7.2" class="g8_2" />
<path d="M671.5,416.9c1.1,-1.5,5.2,-1.4,8,1.1c2.9,2.5,4.4,4.9,2.8,7.1" class="g8_2" />
<path d="M670.2,418.6c1.2,-1.5,5.2,-1.3,8.1,1.2c2.8,2.5,4.3,4.9,2.7,7.1" class="g8_2" />
<path d="M669,420.4c1.1,-1.5,5.1,-1.4,8,1.1c2.8,2.5,4.4,5,2.8,7.2" class="g8_2" />
<path d="M667.7,422.2c1.1,-1.5,5.2,-1.4,8,1.1c2.9,2.5,4.4,4.9,2.8,7.1" class="g8_2" />
<path d="M666.4,423.9c1.2,-1.5,5.2,-1.3,8.1,1.2c2.8,2.5,4.3,4.9,2.8,7.1" class="g8_2" />
<path d="M665.2,425.7c1.1,-1.5,5.1,-1.4,8,1.1c2.8,2.5,4.4,5,2.8,7.2" class="g8_2" />
<path d="M663.9,427.5c1.1,-1.5,5.2,-1.4,8,1.1c2.9,2.5,4.4,4.9,2.8,7.1" class="g8_2" />
<path d="M662.6,429.2c1.2,-1.5,5.2,-1.3,8.1,1.2c2.8,2.5,4.3,4.9,2.8,7.1" class="g8_2" />
<path d="M661.4,431c1.1,-1.5,5.1,-1.4,8,1.1c2.8,2.5,4.4,5,2.8,7.2" class="g8_2" />
<path d="M660.1,432.8c1.1,-1.5,5.2,-1.4,8,1.1c2.9,2.5,4.4,4.9,2.8,7.1" class="g8_2" />
<path d="M658.8,434.5c1.2,-1.5,5.2,-1.3,8.1,1.2c2.8,2.5,4.3,4.9,2.8,7.1" class="g8_2" />
<path d="M657.6,436.3c1.1,-1.5,5.1,-1.4,8,1.1c2.8,2.5,4.4,5,2.8,7.2" class="g8_2" />
<path d="M658.2,437.1c1.8,-0.2,4.2,0.4,6.1,2.1c1.9,1.6,3.1,3.1,3.4,4.7" class="g8_2" />
<path d="M608.6,421.8l-19.9,27.7" class="g11_2" />
<path d="M619.4,430l-19.9,27.6" class="g11_2" />
<path d="M608.6,421.8c1.1,-1.5,5.2,-1.4,8,1.1c2.9,2.5,4.4,4.9,2.8,7.1" class="g8_2" />
<path d="M607.3,423.5c1.2,-1.5,5.2,-1.3,8,1.2c2.9,2.5,4.4,4.9,2.8,7.1" class="g8_2" />
<path d="M606,425.3c1.2,-1.5,5.2,-1.4,8.1,1.1c2.8,2.5,4.4,5,2.8,7.2" class="g8_2" />
<path d="M604.8,427.1c1.1,-1.5,5.2,-1.4,8,1.1c2.9,2.5,4.4,4.9,2.8,7.1" class="g8_2" />
<path d="M603.5,428.8c1.2,-1.5,5.2,-1.3,8.1,1.2c2.8,2.5,4.3,4.9,2.7,7.1" class="g8_2" />
<path d="M602.2,430.6c1.2,-1.5,5.2,-1.4,8.1,1.1c2.8,2.5,4.4,5,2.8,7.2" class="g8_2" />
<path d="M601,432.4c1.1,-1.5,5.2,-1.4,8,1.1c2.9,2.5,4.4,4.9,2.8,7.1" class="g8_2" />
<path d="M599.7,434.1c1.2,-1.5,5.2,-1.3,8.1,1.2c2.8,2.5,4.3,4.9,2.7,7.1" class="g8_2" />
<path d="M598.4,435.9c1.2,-1.5,5.2,-1.4,8.1,1.1c2.8,2.5,4.4,5,2.8,7.2" class="g8_2" />
<path d="M597.2,437.7c1.1,-1.5,5.2,-1.4,8,1.1c2.9,2.5,4.4,4.9,2.8,7.1" class="g8_2" />
<path d="M595.9,439.4c1.2,-1.5,5.2,-1.3,8.1,1.2c2.8,2.5,4.3,4.9,2.7,7.1" class="g8_2" />
<path d="M594.6,441.2c1.2,-1.5,5.2,-1.4,8.1,1.1c2.8,2.5,4.4,5,2.8,7.2" class="g8_2" />
<path d="M593.4,443c1.1,-1.5,5.2,-1.4,8,1.1c2.9,2.5,4.4,4.9,2.8,7.1" class="g8_2" />
<path d="M592.1,444.7c1.2,-1.5,5.2,-1.3,8.1,1.2c2.8,2.5,4.3,4.9,2.7,7.1" class="g8_2" />
<path d="M590.8,446.5c1.2,-1.5,5.2,-1.4,8.1,1.1c2.8,2.5,4.4,5,2.8,7.2" class="g8_2" />
<path d="M589.6,448.3c1.1,-1.5,5.2,-1.4,8,1.1c2.9,2.5,4.4,4.9,2.8,7.1" class="g8_2" />
<path d="M589.1,449.4c1.7,-0.8,4.9,-0.3,7.3,1.8c2.4,2.1,3.9,4.2,3.2,6.2" class="g8_2" />
<path d="M589,450.9c1.7,-0.3,4.2,0.4,6.1,2c1.8,1.6,3.1,3.2,3.3,4.7" class="g8_2" />
<path d="M631,437.9c4.7,-6,21.1,-5.4,32.7,4.6c11.6,9.9,17.9,19.6,11.4,28.4" class="g11_2" />
<path d="M624,447.4c4.6,-6,21.1,-5.4,32.7,4.6c11.6,9.9,17.8,19.6,11.3,28.5" class="g8_2" />
<path d="M668,480.5c-4.6,5.9,-21.1,5.3,-32.7,-4.6C623.7,466,617.5,456.3,624,447.4" class="g11_2" />
<path d="M626.5,449.3c4.1,-5.3,18.7,-4.7,29,4.1c10.2,8.7,15.7,17.3,10,25.2" class="g8_2" />
<path d="M665.5,478.6c-4.1,5.3,-18.7,4.7,-29,-4.1c-10.2,-8.8,-15.7,-17.4,-10,-25.2" class="g8_2" />
<path d="M631,437.9l-7,9.5" class="g11_2" />
<path d="M675.1,470.9l-7.1,9.6" class="g11_2" />
<path d="M627,444.8l6.5,-8.9" class="g8_2" />
<path d="M628.1,444.4l6.5,-9" class="g8_2" />
<path d="M629.5,443.9l6.5,-9" class="g8_2" />
<path d="M631.1,443.6l6.5,-9" class="g8_2" />
<path d="M632.9,443.2l6.5,-8.9" class="g8_2" />
<path d="M634.7,443.2l6.6,-9" class="g8_2" />
<path d="M636.6,443.3l6.5,-9" class="g8_2" />
<path d="M638.7,443.4l6.5,-9" class="g8_2" />
<path d="M640.6,443.7l6.5,-8.9" class="g8_2" />
<path d="M642.7,444.2l6.6,-9" class="g8_2" />
<path d="M644.9,444.8l6.5,-8.9" class="g8_2" />
<path d="M647,445.6l6.5,-9" class="g8_2" />
<path d="M649.1,446.6l6.6,-8.9" class="g8_2" />
<path d="M651.3,447.7l6.6,-9" class="g8_2" />
<path d="M653.3,449l6.5,-9" class="g8_2" />
<path d="M655.3,450.4l6.6,-9" class="g8_2" />
<path d="M657.2,451.9l6.5,-9" class="g8_2" />
<path d="M659,453.5l6.5,-9" class="g8_2" />
<path d="M660.8,455.1l6.5,-9" class="g8_2" />
<path d="M662.5,456.8l6.5,-9" class="g8_2" />
<path d="M664,458.5l6.5,-8.9" class="g8_2" />
<path d="M665.5,460.2l6.5,-8.9" class="g8_2" />
<path d="M666.7,461.9l6.5,-9" class="g8_2" />
<path d="M667.9,463.6l6.5,-9" class="g8_2" />
<path d="M668.9,465.3l6.5,-8.9" class="g8_2" />
<path d="M669.7,467l6.5,-9" class="g8_2" />
<path d="M670.4,468.6l6.5,-9" class="g8_2" />
<path d="M670.8,470.3l6.5,-9" class="g8_2" />
<path d="M671,471.9l6.5,-9" class="g8_2" />
<path d="M671.1,473.5l6.5,-9" class="g8_2" />
<path d="M670.9,475l6.5,-9" class="g8_2" />
<path d="M644,434c6,-0.5,13.9,1.6,20.2,7c6.1,5.2,10.4,10.3,11.5,15.3" class="g11_2" />
<path d="M562.2,450.7c4.6,-6,21.1,-5.4,32.7,4.5c11.6,9.9,17.8,19.7,11.3,28.5" class="g11_2" />
<path d="M555.1,460.2c4.6,-6,21.1,-5.4,32.7,4.5c11.6,10,17.8,19.7,11.3,28.5" class="g8_2" />
<path d="M599.1,493.2c-4.6,6,-21.1,5.4,-32.7,-4.5C554.8,478.7,548.6,469,555.1,460.2" class="g11_2" />
<path d="M557.6,462.1c4.1,-5.3,18.7,-4.8,29,4c10.2,8.8,15.7,17.4,10,25.2" class="g8_2" />
<path d="M596.6,491.3c-4.1,5.3,-18.7,4.8,-28.9,-4c-10.3,-8.8,-15.8,-17.4,-10.1,-25.2" class="g8_2" />
<path d="M562.2,450.7l-7.1,9.5" class="g11_2" />
<path d="M606.2,483.7l-7.1,9.5" class="g11_2" />
<path d="M558.1,457.6l6.5,-9" class="g8_2" />
<path d="M559.2,457.1l6.5,-8.9" class="g8_2" />
<path d="M560.6,456.6l6.5,-8.9" class="g8_2" />
<path d="M562.2,456.4l6.6,-9" class="g8_2" />
<path d="M564,456l6.5,-9" class="g8_2" />
<path d="M565.9,455.9l6.5,-9" class="g8_2" />
<path d="M567.7,456l6.5,-9" class="g8_2" />
<path d="M569.8,456.1l6.5,-8.9" class="g8_2" />
<path d="M571.7,456.5l6.5,-9" class="g8_2" />
<path d="M573.8,457l6.6,-9" class="g8_2" />
<path d="M576,457.6l6.5,-9" class="g8_2" />
<path d="M578.1,458.3l6.5,-8.9" class="g8_2" />
<path d="M580.3,459.4l6.5,-9" class="g8_2" />
<path d="M582.4,460.4l6.6,-8.9" class="g8_2" />
<path d="M584.4,461.7l6.6,-8.9" class="g8_2" />
<path d="M586.5,463.1l6.5,-8.9" class="g8_2" />
<path d="M588.3,464.6l6.5,-8.9" class="g8_2" />
<path d="M590.1,466.2l6.5,-8.9" class="g8_2" />
<path d="M591.9,467.9l6.5,-9" class="g8_2" />
<path d="M593.6,469.5l6.5,-8.9" class="g8_2" />
<path d="M595.1,471.3l6.5,-9" class="g8_2" />
<path d="M596.6,473l6.5,-9" class="g8_2" />
<path d="M597.8,474.6l6.5,-9" class="g8_2" />
<path d="M599,476.3l6.5,-8.9" class="g8_2" />
<path d="M600,478.1l6.5,-9" class="g8_2" />
<path d="M600.8,479.7l6.5,-8.9" class="g8_2" />
<path d="M601.5,481.3l6.5,-8.9" class="g8_2" />
<path d="M601.9,483l6.5,-8.9" class="g8_2" />
<path d="M602.1,484.6l6.6,-8.9" class="g8_2" />
<path d="M602.2,486.2l6.5,-8.9" class="g8_2" />
<path d="M602,487.7l6.5,-9" class="g8_2" />
<path d="M575.2,446.7c5.9,-0.5,13.9,1.7,20.1,7c6.1,5.2,10.4,10.4,11.5,15.3" class="g11_2" />
<path fill-rule="evenodd" d="M746.3,427.2l4.9,-1l0,8.6l-4.9,-0.6Z" class="g12_2" />
<path fill-rule="evenodd" d="M741.2,435.3l5,-1l0,5.3l5.1,0.7l0,8.6l-5,1l0,-8.5l-5.1,-0.8Z" class="g12_2" />
<path d="M751.3,440.3l-5,1.1" class="g8_2" />
<path fill-rule="evenodd" d="M746.3,434.2l5,0.4l0,-8.5L764.4,439l-13,9.8l0,-8.7l-5.1,-0.7Z" class="g13_2" />
<path d="M741.2,435.1l0,5.5l5.1,0.8l0,8.5l5.1,-1l13,-9.6l-13,-13.1l-5.1,1l0,6.9Z" class="g11_2" />
<path d="M751.4,434.8l-5.1,-0.7" class="g11_2" />
<path d="M746.5,439.5l0,-5" class="g8_2" />
<path d="M751.3,448l0,-7.7l-5.2,-0.8l-4.9,1.1" class="g8_2" />
<path d="M751.5,426.5l0,8" class="g8_2" />
<path fill-rule="evenodd" d="M684.2,490l4.6,-0.8l2.9,2.5l3.1,2.5l4.2,2.3l3.5,1l3.1,0.4l3.7,-1l3.1,-1.7l2.6,-2.1l1.8,-2.2l-4.9,-5.8l13.8,-5.7l4.8,-0.9l-0.8,19.3l-4.9,1.2l-2.1,-2.1l-2.6,2.5l-3.3,2.5l-5.8,3l-6.7,1.7l-6.5,0.9l-3.9,-0.3l-5.7,-1.5L680.7,502l-2.6,-1.6Z" class="g12_2" />
<path d="M716.8,490.9c0,0,-1.9,4.1,-10,7" class="g11_2" />
<path d="M689.1,489.2l-4.9,0.8l-6.1,10.4" class="g11_2" />
<path fill-rule="evenodd" d="M682.9,499.4c7.9,5.7,14,7.7,21.4,7.2c7.5,-0.5,17.1,-6.5,21.1,-13l4.3,4.3l0.8,-19.4l-13.6,5.8l5,5.7c-2,3.1,-7.3,7.6,-14.7,8.3c-7.4,0.8,-13.4,-4.5,-18.1,-9.1Z" class="g13_2" />
<path d="M721.9,490l-5,-5.7l-5,0.8" class="g8_2" />
<path d="M716.8,490.9l5.1,-0.9" class="g8_2" />
<path d="M706.8,498.3c4,0,11.6,-3,15.1,-8.3" class="g8_2" />
<path d="M706.8,497.9c-6.1,-0.1,-11.1,-1.8,-17.7,-8.7" class="g11_2" />
<path d="M725.4,493.6c-3,4.4,-9.8,11.3,-21.1,13" class="g11_2" />
<path d="M716.8,490.9l-4.9,-5.8l13.8,-5.7l4.8,-0.9l-0.8,19.4l-4.9,1.1l-2.1,-2" class="g11_2" />
<path d="M716.9,484.3l13.6,-5.8" class="g8_2" />
<path d="M725.4,493.6l4.3,4.3" class="g8_2" />
<path d="M678.8,500.2l4.1,-0.8c9.1,7.2,17.3,7.4,21.4,7.2" class="g8_2" />
<path d="M678.1,500.4c11.4,7.6,19.7,8,26.2,6.2" class="g11_2" />
<path d="M682.9,499.4l6.2,-10.2" class="g8_2" />
<path d="M314.2,766.5l-112,-32" class="g11_2" />
<path d="M187.6,730.5L140.8,717.2" class="g11_2" />
<path d="M327.6,770.1l21.5,6.2L565,689.7" class="g11_2" />
<path d="M592.1,678.8l19.4,-7.4" class="g11_2" />
<path d="M682.4,642.6l146,-58.2" class="g11_2" />
<path d="M475.4,695.4C487.7,690.9,504,685.3,514,683.3c10,-2.1,22.8,-5,39.3,-5.6c16.4,-0.6,44.4,2,55.4,3c11,1,14.2,0.6,15.4,0.5" class="g11_2" />
<path d="M479.9,707.1c13.8,-5.8,33.2,-11.5,40,-12.9c6.8,-1.3,27.8,-4.6,45.1,-4.5c17.2,0.2,31.6,2,31.6,2c0,0,23.5,2.4,27.4,1.9" class="g11_2" />
<path d="M634.3,692.2c2.5,-0.4,5,-1.5,7.4,-3.2c2.4,-1.6,4.4,-3,4.5,-3.7" class="g11_2" />
<path d="M319.3,704.2c16.1,3.8,34.8,7.1,44.9,8.1c10.1,1,21.7,1.4,30.4,1.2c8.7,-0.2,19.5,-1.5,26.2,-2.6c6.7,-1.1,21.6,-3.5,43.3,-11.3" class="g11_2" />
<path d="M315.3,715.6c16.2,3.8,38.8,7.6,48.9,8.6c10.1,1,21.7,1.4,30.4,1.2c8.7,-0.2,19.5,-1.5,26.2,-2.6c6.7,-1.1,25.6,-3.9,47.3,-11.7" class="g11_2" />
<path d="M324.4,692.1c1.1,-0.5,5.2,-1.9,5.2,-2.2c0,-0.3,0.2,-1.5,0.2,-1.5" class="g11_2" />
<path d="M294.8,697.4c0.4,-1.1,2.8,-3.8,4.8,-4.8c2,-1,17.6,-7.1,17.6,-7.1c0,0,1.5,-0.6,3,0c1.5,0.6,9.6,2.9,9.6,2.9" class="g11_2" />
<path d="M319.4,701.7c0.2,3.1,-0.5,8.6,-2.3,11.2c-1.8,2.7,-4.5,5.6,-7.7,5.4C306.1,718.1,297.1,715,297.1,715c0,0,-3.5,-0.8,-4.3,-4.6" class="g11_2" />
<path d="M319.5,701.1c0.3,-1,1.2,-2,2.3,-2.5c1.1,-0.5,8.3,-4.1,8.3,-4.1m0,0L318.8,691l-8.2,2.9c-1.8,0.7,-3.8,2.6,-3.7,5.5c0.2,2.8,-0.8,13,-7.1,14.8" class="g11_2" />
<path d="M310.1,696.6l8.4,2.4" class="g8_2" />
<path d="M315,695.1c0,-0.8,2.1,-1.5,4.7,-1.5c2.5,0,4.6,0.7,4.6,1.5" class="g11_2" />
<path d="M324.3,695.1c0,0.9,-2.1,1.6,-4.6,1.6c-2.6,0,-4.7,-0.7,-4.7,-1.6" class="g8_2" />
<path d="M315,689.6c0,-0.8,2.1,-1.5,4.7,-1.5c2.5,0,4.6,0.7,4.6,1.5" class="g11_2" />
<path d="M324.3,689.6c0,0.9,-2.1,1.6,-4.6,1.6c-2.6,0,-4.7,-0.7,-4.7,-1.6" class="g8_2" />
<path d="M461.1,687.6l-9.4,3.8l9.4,3.9c0,0,3.3,1,3.1,3.5c-0.2,2.5,0.9,11,5.2,13.4c4.3,2.4,6.8,2.7,9.3,1.4c2.6,-1.2,8,-3,8,-3c0,0,4.9,-1.7,4.9,-7" class="g11_2" />
<path d="M456,688.5l-3.8,-1.1c0,0,-1.5,-0.9,-0.7,-1.4c0.7,-0.5,9.6,-4.3,9.6,-4.3l21,5.7c0,0,4,1,5.3,3.1" class="g11_2" />
<path d="M461.1,687.6l10.3,2.7c0,0,3.2,1.3,3.1,4.2c-0.1,2.8,0.3,10.3,4.3,13.1c4.1,2.7,7.3,2.5,7.3,2.5" class="g11_2" />
<path d="M457.2,691.6c0,-0.9,2.1,-1.6,4.7,-1.6c2.5,0,4.6,0.7,4.6,1.6" class="g11_2" />
<path d="M466.5,691.6c0,0.9,-2.1,1.5,-4.6,1.5c-2.6,0,-4.7,-0.6,-4.7,-1.5" class="g8_2" />
<path d="M457.2,686.1c0,-0.9,2.1,-1.5,4.7,-1.5c2.5,0,4.6,0.6,4.6,1.5" class="g11_2" />
<path d="M466.5,686.1c0,0.9,-2.1,1.5,-4.6,1.5c-2.6,0,-4.7,-0.6,-4.7,-1.5" class="g8_2" />
<path d="M464.2,695l6.9,-2.4" class="g8_2" />
<path d="M624,674c0,-1.3,2.9,-2,5,-2c2.1,0,5,0.4,5,1.9" class="g8_2" />
<path d="M623,674l0,32" class="g11_2" />
<path d="M634,707l0,-33" class="g11_2" />
<path d="M624,676.2c0,-1.3,2.9,-2,5,-2c2.1,0,5,0.4,5,1.9" class="g8_2" />
<path d="M624,678.4c0,-1.3,2.9,-2,5,-2c2.1,0,5,0.4,5,1.9" class="g8_2" />
<path d="M624,680.7c0,-1.4,2.9,-2.1,5,-2.1c2.1,0,5,0.4,5,2" class="g8_2" />
<path d="M624,682.9c0,-1.4,2.9,-2.1,5,-2.1c2.1,0,5,0.4,5,2" class="g8_2" />
<path d="M624,685.1c0,-1.4,2.9,-2.1,5,-2.1c2.1,0,5,0.4,5,2" class="g8_2" />
<path d="M624,687.3c0,-1.4,2.9,-2.1,5,-2.1c2.1,0,5,0.4,5,2" class="g8_2" />
<path d="M624,689.5c0,-1.4,2.9,-2.1,5,-2.1c2.1,0,5,0.4,5,2" class="g8_2" />
<path d="M624,691.7c0,-1.4,2.9,-2.1,5,-2.1c2.1,0,5,0.4,5,2" class="g8_2" />
<path d="M624,693.9c0,-1.3,2.9,-2,5,-2c2.1,0,5,0.4,5,1.9" class="g8_2" />
<path d="M624,696.1c0,-1.4,2.9,-2.1,5,-2.1c2.1,0,5,0.4,5,2" class="g8_2" />
<path d="M624,698.3c0,-1.3,2.9,-2,5,-2c2.1,0,5,0.4,5,1.9" class="g8_2" />
<path d="M624,700.4c0,-1.3,2.9,-2,5,-2c2.1,0,5,0.4,5,1.9" class="g8_2" />
<path d="M624,702.6c0,-1.3,2.9,-2,5,-2c2.1,0,5,0.4,5,1.9" class="g8_2" />
<path d="M624,704.8c0,-1.3,2.9,-2,5,-2c2.1,0,5,0.4,5,1.9" class="g8_2" />
<path d="M624,707.1c0,-1.4,2.9,-2.1,5,-2.1c2.1,0,5,0.4,5,2" class="g8_2" />
<path d="M649.8,717.4l0,9.9c0,4,-9.3,7.3,-20.8,7.3c-11.5,0,-20.8,-3.3,-20.8,-7.3l0,-9.9" class="g11_2" />
<path d="M608.2,727.3c0,-4,9.3,-7.3,20.8,-7.3c11.5,0,20.8,3.3,20.8,7.3" class="g8_2" />
<path d="M608.2,717.4c0,-4.1,9.3,-7.3,20.8,-7.3c11.5,0,20.8,3.2,20.8,7.3" class="g11_2" />
<path d="M614,712c0,-2.9,6.7,-5.3,15,-5.3c8.3,0,15.1,2.4,15.1,5.3" class="g11_2" />
<path d="M647.2,727.3c0,3.5,-8.1,6.4,-18.2,6.4c-10,0,-18.2,-2.9,-18.2,-6.4" class="g8_2" />
<path d="M610.8,727.3c0,-3.5,8.2,-6.4,18.2,-6.4c10.1,0,18.2,2.9,18.2,6.4" class="g8_2" />
<path d="M628.5,720.5l0,-10" class="g8_2" />
<path d="M626.5,720.5l0,-10" class="g8_2" />
<path d="M624.5,720.5l0,-10" class="g8_2" />
<path d="M623.5,720.5l0,-10" class="g8_2" />
<path d="M621.5,720.5l0,-10" class="g8_2" />
<path d="M620.5,720.5l0,-10" class="g8_2" />
<path d="M618.5,720.5l0,-10" class="g8_2" />
<path d="M617.5,721.5l0,-10" class="g8_2" />
<path d="M616.5,721.5l0,-10" class="g8_2" />
<path d="M615.5,721.5l0,-10" class="g8_2" />
<path d="M613.5,722.5l0,-10" class="g8_2" />
<path d="M612.5,722.5l0,-10" class="g8_2" />
<path d="M611.5,723.5l0,-10" class="g8_2" />
<path d="M610.5,723.5l0,-10" class="g8_2" />
<path d="M608.5,725.5l0,-10" class="g8_2" />
<path d="M630.5,720.5l0,-10" class="g8_2" />
<path d="M631.5,719.5l0,-9" class="g8_2" />
<path d="M633.5,720.5l0,-10" class="g8_2" />
<path d="M635.5,720.5l0,-10" class="g8_2" />
<path d="M636.5,720.5l0,-10" class="g8_2" />
<path d="M638.5,720.5l0,-10" class="g8_2" />
<path d="M639.5,721.5l0,-10" class="g8_2" />
<path d="M640.5,721.5l0,-10" class="g8_2" />
<path d="M641.5,721.5l0,-10" class="g8_2" />
<path d="M642.5,721.5l0,-10" class="g8_2" />
<path d="M644.5,722.5l0,-10" class="g8_2" />
<path d="M645.5,722.5l0,-10" class="g8_2" />
<path d="M646.5,723.5l0,-10" class="g8_2" />
<path d="M647.5,723.5l0,-10" class="g8_2" />
<path d="M648.5,724.5l0,-10" class="g8_2" />
<path d="M648.5,725.5l0,-10" class="g8_2" />
<path d="M676.7,653.3c0,-1.4,3,-2.1,5.1,-2.1c2.1,0,5,0.4,5,2" class="g8_2" />
<path d="M676,653l0,33" class="g11_2" />
<path d="M686,686l0,-33" class="g11_2" />
<path d="M676.7,655.5c0,-1.4,3,-2.1,5.1,-2.1c2.1,0,5,0.4,5,2" class="g8_2" />
<path d="M676.7,657.7c0,-1.4,3,-2.1,5.1,-2.1c2.1,0,5,0.4,5,2" class="g8_2" />
<path d="M676.7,659.9c0,-1.3,3,-2,5.1,-2c2.1,0,5,0.4,5,1.9" class="g8_2" />
<path d="M676.7,662.1c0,-1.3,3,-2,5.1,-2c2.1,0,5,0.4,5,1.9" class="g8_2" />
<path d="M676.7,664.3c0,-1.3,3,-2,5.1,-2c2.1,0,5,0.4,5,1.9" class="g8_2" />
<path d="M676.7,666.5c0,-1.3,3,-2,5.1,-2c2.1,0,5,0.4,5,1.9" class="g8_2" />
<path d="M676.7,668.7c0,-1.3,3,-2,5.1,-2c2.1,0,5,0.4,5,1.9" class="g8_2" />
<path d="M676.7,670.9c0,-1.3,3,-2,5.1,-2c2.1,0,5,0.4,5,1.9" class="g8_2" />
<path d="M676.7,673.1c0,-1.3,3,-2,5.1,-2c2.1,0,5,0.4,5,1.9" class="g8_2" />
<path d="M676.7,675.3c0,-1.3,3,-2,5.1,-2c2.1,0,5,0.4,5,1.9" class="g8_2" />
<path d="M676.7,677.6c0,-1.4,3,-2.1,5.1,-2.1c2.1,0,5,0.4,5,2" class="g8_2" />
<path d="M676.7,679.7c0,-1.4,3,-2.1,5.1,-2.1c2.1,0,5,0.4,5,2" class="g8_2" />
<path d="M676.7,681.9c0,-1.4,3,-2.1,5.1,-2.1c2.1,0,5,0.4,5,2" class="g8_2" />
<path d="M676.7,684.1c0,-1.4,3,-2.1,5.1,-2.1c2.1,0,5,0.4,5,2" class="g8_2" />
<path d="M676.7,686.3c0,-1.3,3,-2,5.1,-2c2.1,0,5,0.4,5,1.9" class="g8_2" />
<path d="M702.5,696.6l0,9.9c0,4.1,-9.3,7.3,-20.7,7.3c-11.5,0,-20.8,-3.2,-20.8,-7.3l0,-9.9" class="g11_2" />
<path d="M661,706.5c0,-4,9.3,-7.2,20.8,-7.2c11.4,0,20.7,3.2,20.7,7.2" class="g8_2" />
<path d="M661,696.6c0,-4,9.3,-7.3,20.8,-7.3c11.4,0,20.7,3.3,20.7,7.3" class="g11_2" />
<path d="M666.7,691.3c0,-3,6.7,-5.3,15.1,-5.3c8.3,0,15,2.3,15,5.3" class="g11_2" />
<path d="M700,706.5c0,3.6,-8.2,6.4,-18.2,6.4c-10.1,0,-18.3,-2.8,-18.3,-6.4" class="g8_2" />
<path d="M663.5,706.5c0,-3.5,8.2,-6.4,18.3,-6.4c10,0,18.2,2.9,18.2,6.4" class="g8_2" />
<path d="M681.5,699.5l0,-10" class="g8_2" />
<path d="M679.5,699.5l0,-10" class="g8_2" />
<path d="M677.5,699.5l0,-10" class="g8_2" />
<path d="M675.5,699.5l0,-10" class="g8_2" />
<path d="M674.5,699.5l0,-10" class="g8_2" />
<path d="M672.5,700.5l0,-10" class="g8_2" />
<path d="M671.5,700.5l0,-10" class="g8_2" />
<path d="M669.5,700.5l0,-10" class="g8_2" />
<path d="M668.5,700.5l0,-10" class="g8_2" />
<path d="M667.5,701.5l0,-10" class="g8_2" />
<path d="M666.5,701.5l0,-10" class="g8_2" />
<path d="M665.5,702.5l0,-10" class="g8_2" />
<path d="M664.5,702.5l0,-10" class="g8_2" />
<path d="M663.5,703.5l0,-10" class="g8_2" />
<path d="M661.5,704.5l0,-10" class="g8_2" />
<path d="M682.5,699.5l0,-10" class="g8_2" />
<path d="M684.5,699.5l0,-10" class="g8_2" />
<path d="M686.5,699.5l0,-10" class="g8_2" />
<path d="M687.5,699.5l0,-10" class="g8_2" />
<path d="M689.5,699.5l0,-10" class="g8_2" />
<path d="M690.5,700.5l0,-10" class="g8_2" />
<path d="M692.5,700.5l0,-10" class="g8_2" />
<path d="M693.5,700.5l0,-10" class="g8_2" />
<path d="M694.5,700.5l0,-10" class="g8_2" />
<path d="M695.5,701.5l0,-10" class="g8_2" />
<path d="M697.5,701.5l0,-10" class="g8_2" />
<path d="M698.5,702.5l0,-10" class="g8_2" />
<path d="M699.5,702.5l0,-10" class="g8_2" />
<path d="M700.5,703.5l0,-10" class="g8_2" />
<path d="M701.5,703.5l0,-10" class="g8_2" />
<path d="M701.5,704.5l0,-10" class="g8_2" />
<path d="M623.1,678.8l-9.4,-2.9c0,0,-1.6,-0.9,-1.6,-2.3c0,-1.4,-0.1,-3.5,-0.1,-3.5c0,0,0.3,-1,1.8,-1.6c1.5,-0.5,62,-24.8,62,-24.8c0,0,4.3,-1.4,9.8,-0.1c5.4,1.2,31.9,9.2,31.9,9.2c0,0,2.1,1,2.2,-1.5c0.2,-2.4,-0.2,-8,-0.2,-8l3.8,1.2l0.2,9.2c0,0,0.1,2.8,-3.9,4.5c-4,1.6,-3.7,1.4,-3.7,1.4" class="g11_2" />
<path d="M719,651l0,-23" class="g11_2" />
<path d="M697.7,645.8c1.2,-1.1,2.3,-5.1,2.2,-9" class="g11_2" />
<path d="M715.5,651.5l0,-21" class="g8_2" />
<path d="M613.7,673.4l62.5,-25.1c0,0,3.3,-1.7,9.1,-0.1c5.8,1.6,31.8,9.1,31.8,9.1c0,0,3.1,0.9,4.1,0" class="g8_2" />
<path d="M661,698.6c-4.3,1.9,-6.1,2.9,-6.8,3.2c-0.8,0.2,-1.1,0.5,-4.7,-0.5c-3.6,-1,-4.2,-1.9,-4.5,-4.8c-0.3,-2.9,-0.9,-9.2,-0.9,-9.2l15.5,-5.7c0,0,1.6,-0.5,1.6,-2.8c0,-2.3,0.1,-4.2,0.1,-4.2" class="g11_2" />
<path d="M634.9,681.9l11.3,3.4" class="g11_2" />
<path d="M661.3,674.6c0,0,-0.6,-1,-1.7,-0.5c-1.1,0.5,-4.8,2.1,-4.8,2.1" class="g11_2" />
<path d="M687.9,663.1l3.6,-1.7c0,0,3.1,-0.3,4.4,0.1c1.3,0.4,7,2,7,2" class="g11_2" />
<path d="M700.1,665l12.7,-5.1c0,0,2.1,-0.4,4,0.4c1.9,0.8,2.1,1.6,2.1,2.6c0,1,0,7,0,7c0,0,-0.8,5.8,-4.9,7.8c-4.1,2,-19.8,7.9,-19.8,7.9" class="g11_2" />
<path d="M691.1,662.5c1.2,1.2,1.4,2.3,1.4,4.2c0,1.9,0.2,16.2,0.2,16.2c0,0,0.1,1.6,1.3,2.8c0.9,0.8,2.6,1.2,3.8,1.5c2.9,0.6,3.1,1.4,3.1,1.4c0,0,0.9,3.5,-0.6,4" class="g11_2" />
<path d="M661.2,678.8c-0.2,5.5,-0.2,14.9,-0.2,14.9l0,2.4" class="g11_2" />
<path d="M660.8,695.6c0,0,-8.4,4,-9.8,4.3c-1.4,0.3,-4.4,0.6,-4.8,-0.1" class="g8_2" />
<path d="M694.2,682.8l16.3,-6.5c0,0,4.2,-1.8,4.6,-8.1c0.4,-6.3,0.2,-7.3,0.2,-7.3" class="g8_2" />
<path d="M687.9,663.1c0.8,1,1,1.6,1.1,3.1c0.1,1.5,0.1,16.5,0.1,16.5c0,0,-0.3,3.2,1.1,4.2" class="g8_2" />
<path d="M654,677.2l5.9,2" class="g8_2" />
<path d="M195.7,999.4c1.3,-1.5,3,-2.1,4.8,-1.9c1.8,0.2,19.1,2.3,19.1,2.3c0,0,3.6,0.1,5.2,-0.1c1.7,-0.3,5.5,-0.5,8.9,0.5c3.3,1,32.4,9.1,32.4,9.1c0,0,1.7,0.4,1.7,2.3c0,1.9,-0.1,12.7,-0.1,12.7c0,0,-0.1,1.1,-1.3,2.3c-1.2,1.2,-4.6,4.2,-4.6,4.2c0,0,-0.9,0.5,-0.9,2.3c0,1.7,-1.1,11.8,-1.3,13.3c-0.2,1.4,-0.9,2,-2.2,2.6c-1.4,0.6,-6.7,2.7,-6.7,2.7c0,0,-1.4,0.4,-3.3,-0.3c-1.9,-0.6,-25.7,-7.1,-25.7,-7.1c0,0,-1.8,0.1,-2.5,-3.5c-0.7,-3.5,-2,-12.8,-2,-12.8c0,0,-0.5,-1.6,-2.1,-2.3c-1.6,-0.6,-18.1,-7.6,-18.9,-8.1c-0.9,-0.5,-3.5,-0.5,-4.2,-5.3" class="g11_2" />
<path d="M221.2,1042.5l9.5,-3.3" class="g8_2" />
<path d="M233.4,1039.2l24.9,7.5" class="g8_2" />
<path d="M232.3,1037.3l1,-10.3" class="g8_2" />
<path d="M235.7,1024.9l24,6.7" class="g8_2" />
<path d="M239.7,1016.8l27.3,7.8" class="g8_2" />
<path d="M239.7,1004.2l-0.2,10.1" class="g8_2" />
<path d="M217.9,1020.3c4.3,-2.9,5.3,-7.8,5.6,-10.6c0.2,-2.8,-0.4,-7.2,-3.6,-8.1c-3.1,-0.9,11.4,-0.7,11.4,-0.7c0,0,2.6,-0.6,13.3,2.4" class="g8_2" />
<path d="M239.7,1016.8c-1.2,-0.3,-3.1,-0.4,-4.8,-0.2l-12.1,1.2c-2.5,0.5,-3.6,1.3,-5,2.6" class="g8_2" />
<path d="M236,1024.9c0,0,-3.4,-0.7,-5.3,-1.4l-0.4,-0.2l-7.4,-3.6c0,0,-3.6,-0.7,-5.1,0.7" class="g8_2" />
<path d="M207.2,1022.9c0,2.2,1.4,3.3,4,4.5c2.7,1.2,3.8,1.5,6.1,1.4" class="g11_2" />
<path d="M192.4,1014c0.9,0.9,5.7,3.3,8.5,0.7c2.8,-2.6,3.9,-4.3,4.2,-8.6c0.3,-4.4,-1.3,-7.3,-5.1,-7.8" class="g8_2" />
<path d="M199.9,1000.2c2.9,0.8,4.2,4,3,8.4c-1.5,5.5,-5.6,5.6,-6.7,5.3" class="g8_2" />
<path d="M230.7,1039.2c0.9,-0.3,1.9,-0.3,3,0.1" class="g8_2" />
<path d="M261,1045.2l16.2,4.5c0,0,3.5,0.6,4.4,-3.2c0.9,-3.8,-1,-4.8,-2.5,-5.3c-1.5,-0.4,-17.8,-4.9,-17.8,-4.9" class="g11_2" />
<path d="M269,1025l9.2,2.4l2,-1.1l1.7,-3.1l0,-3.4l-1.2,-2.8l-12,-3.6" class="g11_2" />
<path d="M262,1031.8l2.9,0.7l2,-1.1l1.7,-3.1l0,-3.4" class="g11_2" />
<path d="M319,747l0,-50" class="g14_2" />
<path d="M461,743l0,-50" class="g14_2" />
<path d="M316.3,767.2L316.4,757l3.2,-7.1l3.6,6.6l0,10.7" class="g11_2" />
<path d="M319.6,767.4c4.1,0,7.5,1.6,7.5,3.4c0,1.9,-3.4,4.9,-7.5,4.9c-4.2,0,-7.5,-3,-7.5,-4.9c0,-1.8,3.3,-3.4,7.5,-3.4Z" class="g11_2" />
<path d="M322,774.4c0,-0.6,0.4,-1.1,1.1,-1.6l-1,-0.6c-0.7,1.2,-3.8,1.6,-5.6,0.2l-0.6,0.6c0.8,0.6,0.7,0.6,0.9,1.3" class="g8_2" />
<path d="M316.2,765.4c0,-0.9,1.6,-1.6,3.5,-1.6c1.9,0,3.5,0.7,3.5,1.6" class="g8_2" />
<path d="M316.2,762.6c0,-0.8,1.6,-1.5,3.5,-1.5c1.9,0,3.5,0.7,3.5,1.5" class="g8_2" />
<path d="M316.2,760.2c0,-0.8,1.6,-1.5,3.5,-1.5c1.9,0,3.5,0.7,3.5,1.5" class="g8_2" />
<path d="M316.2,757.5c0,-0.8,1.6,-1.5,3.5,-1.5c1.9,0,3.5,0.7,3.5,1.5" class="g8_2" />
<path d="M458.4,763.2L458.5,753l3.2,-7.1l3.6,6.6l0,10.8" class="g11_2" />
<path d="M461.7,763.5c4.1,0,7.5,1.5,7.5,3.4c0,1.8,-3.4,4.8,-7.5,4.8c-4.2,0,-7.5,-3,-7.5,-4.8c0,-1.9,3.3,-3.4,7.5,-3.4Z" class="g11_2" />
<path d="M464.1,770.4c0,-0.6,0.4,-1.1,1.1,-1.6l-1,-0.6c-0.7,1.2,-3.8,1.6,-5.6,0.2L458,769c0.9,0.6,0.7,0.6,0.9,1.3" class="g8_2" />
<path d="M458.3,761.4c0,-0.9,1.6,-1.6,3.5,-1.6c1.9,0,3.5,0.7,3.5,1.6" class="g8_2" />
<path d="M458.3,758.6c0,-0.8,1.6,-1.5,3.5,-1.5c1.9,0,3.5,0.7,3.5,1.5" class="g8_2" />
<path d="M458.3,756.2c0,-0.8,1.6,-1.5,3.5,-1.5c1.9,0,3.5,0.7,3.5,1.5" class="g8_2" />
<path d="M458.3,753.5c0,-0.8,1.6,-1.5,3.5,-1.5c1.9,0,3.5,0.7,3.5,1.5" class="g8_2" />
<path d="M319.5,747.5l0,-51" class="g15_2" />
<path d="M461.5,743.5l0,-50" class="g15_2" />
<path fill-rule="evenodd" d="M106.5,606.5l178,0l0,75l-178,0Z" class="g16_2" />
<path fill-rule="evenodd" d="M103.5,604.5l178,0l0,75l-178,0Z" class="g17_2" />
<path d="M206.6,623.7l4.7,18.1" class="g8_2" />
<path d="M225.6,623.7l4.8,18.1" class="g8_2" />
<path d="M216.1,623.7l4.8,18.1" class="g8_2" />
<path d="M245.1,625.3l3.9,15" class="g8_2" />
<path d="M235.2,623.7l4.6,17.9" class="g8_2" />
<path d="M255.1,627.4l2.6,9.9" class="g8_2" />
<path d="M218.1,626.8l3.6,11.9l1.2,0" class="g8_2" />
<path d="M218.8,638.7l-3.5,-11.9l-1.2,0" class="g8_2" />
<path d="M208.6,626.8l3.6,11.9l1.2,0" class="g8_2" />
<path d="M209.3,638.7l-3.5,-11.9l-1.2,0" class="g8_2" />
<path d="M227.7,626.8l3.5,11.9l1.2,0" class="g8_2" />
<path d="M228.4,638.7l-3.6,-11.9l-1.2,0" class="g8_2" />
<path d="M237.3,627.2l3.2,10.9l1.4,-0.3" class="g8_2" />
<path d="M237.7,638.3l-3.4,-11.5l-1.2,0" class="g8_2" />
<path d="M247.1,628.4l2.5,8.3l1.3,-0.1" class="g8_2" />
<path d="M246.9,637.2l-2.7,-9.3l-1.3,-0.2" class="g8_2" />
<path d="M257.2,630.3l1.3,4.4l1.2,-0.3" class="g8_2" />
<path d="M255.9,635.5l-1.7,-5.9l-1.3,-0.4" class="g8_2" />
<path d="M203.8,638.7l5.5,0l2,3.1l2.1,-3.1l5.4,0l2.1,3.1l2,-3.1l5.5,0" class="g11_2" />
<path d="M228.4,638.7c0.6,1,1.3,2,2,3.1c0.6,-1,1.3,-2,2,-3.1c1.8,-0.1,3.5,-0.3,5.3,-0.4c0.7,1.1,1.4,2.2,2.1,3.3c0.7,-1.2,1.4,-2.5,2.1,-3.8c1.7,-0.1,3.3,-0.3,5.1,-0.5c0.6,1,1.3,2,2,3c0.6,-1.2,1.2,-2.4,1.9,-3.7c1.7,-0.3,3.3,-0.6,5,-1c0.6,0.6,1.2,1.2,1.8,1.9c0.7,-1,1.4,-2,2,-3.1c0.8,-0.2,1.7,-0.5,2.3,-0.8c0.6,-0.2,1.2,-0.6,1.6,-0.8c-1.1,-0.6,-2.3,-1.2,-3.4,-1.5c-1.1,-0.4,-2.1,-0.8,-3,-1" class="g11_2" />
<path d="M199.1,626.8l5.5,0l2,-3.1l2,3.1l5.5,0l2,-3.1l2,3.1l5.5,0" class="g11_2" />
<path d="M223.6,626.8l2,-3.1l2.1,3.1l5.4,0l2.1,-3.1l2.1,3.5l5.6,0.5l2.2,-2.4l2,3l5.8,0.9l2.2,-1.9l2.1,3" class="g11_2" />
<path d="M197.1,623.7l4.7,18.1" class="g8_2" />
<path d="M199.1,626.8l3.5,11.9l1.2,0" class="g8_2" />
<path d="M199.8,638.7l-3.5,-11.9l-1.3,0" class="g8_2" />
<path fill-rule="evenodd" d="M163.8,632.3c0,10.8,-8.8,19.5,-19.5,19.5c-10.8,0,-19.5,-8.7,-19.5,-19.5c-2.6,-10.8,8.7,-19.5,19.5,-19.5c10.7,0,19.5,8.7,19.5,19.5Z" class="g18_2" />
<path fill-rule="evenodd" d="M193.6,631.9c0.2,-4.2,1.1,-8,2.7,-11.3c1.6,-3.2,4,-6.3,7.1,-8.8c0.6,0,1.3,0,2,0c0,13.3,0,26.7,0,40.1c-0.6,0,-1.3,0,-2,0c-3.1,-2.5,-5.5,-5.5,-7.1,-8.8c-1.6,-3.3,-2.5,-7.1,-2.7,-11.2Z" class="g18_2" />
<path d="M202.5,614.5l0,34" class="g8_2" />
<path fill-rule="evenodd" d="M154.9,634l0,0.1l0,0.1l0,0.1l0,0.1l-0.1,0l0,0.1l-0.1,0.2l-0.1,0.1l0,0.1l-0.1,0.1l-0.1,0.1l-0.1,0l0,0.1l-0.1,0l-0.1,0.1l-0.1,0l-0.1,0.1l-0.1,0l-0.1,0l-0.1,0l-0.2,0l-6.3,0l0,6.4l0,0.1l0,0.1l0,0.1l0,0.1l-0.1,0l0,0.1l-0.1,0.2l0,0.1l-0.1,0l0,0.1l-0.1,0.1l-0.1,0.1l-0.1,0l-0.1,0.1l-0.1,0.1l-0.1,0.1l-0.1,0l-0.1,0l-0.1,0l-0.1,0l-0.2,0l-3.1,0l-0.2,0l-0.1,0l-0.1,0l-0.1,0l-0.2,-0.1l0,-0.1l-0.1,0l0,-0.1l-0.2,0l0,-0.1l-0.2,-0.1l0,-0.1l-0.1,-0.1l0,-0.2l-0.1,-0.1l0,-0.1L141,642l0,-0.1l0,-0.1l0,-6.4l-6.3,0l-0.2,0l-0.1,0l-0.1,0l-0.1,-0.1l-0.2,0l0,-0.1l-0.1,0l0,-0.1l-0.1,0l-0.1,0L133.6,635l0,-0.1l0,-0.1l-0.1,0l0,-0.1l-0.1,0l0,-0.2l-0.1,-0.1l0,-0.1l0,-0.1l0,-0.1l0,-0.1l0,-3.1l0,-0.2l0,-0.1l0,-0.1l0.1,-0.2l0,-0.1l0.1,-0.1l0.1,-0.1l0,-0.1l0.1,-0.1l0.1,-0.1l0.1,0l0,-0.1l0.1,0l0.2,-0.1l0.1,0l0.1,0l0.1,-0.1l0.2,0l6.3,0l0,-6.3l0,-0.2l0,-0.1l0.1,0l0,-0.1l0,-0.1l0.1,-0.1l0,-0.1l0.1,-0.1l0,-0.1l0.2,-0.1l0,-0.1l0.2,-0.1l0,-0.1l0.1,0l0.2,-0.1l0.1,0l0.1,0l0.1,-0.1l0.2,0l3.1,0l0.2,0l0.1,0l0.1,0.1l0.1,0l0.1,0l0.1,0.1l0.1,0l0.1,0.1l0.1,0.1l0.1,0.1l0.1,0.1l0,0.1l0.1,0l0,0.1l0.1,0.1l0,0.1l0.1,0.1l0,0.1l0,0.1l0,0.2l0,6.3l6.3,0l0.2,0l0.1,0l0.1,0.1l0.1,0l0.1,0l0.1,0.1l0.1,0l0.1,0l0,0.1l0.1,0.1l0.1,0.1l0.1,0l0,0.1l0,0.1l0.1,0l0,0.1l0.1,0.1l0,0.2l0.1,0l0,0.1l0,0.1l0,0.2Z" class="g17_2" />
<path d="M574,754.5c-6.2,-2.2,-14.9,-7,-15.6,-12.8c-0.7,-5.8,6.7,-12.4,11.6,-14.5" class="g11_2" />
<path fill-rule="evenodd" d="M574,754.5l12.9,-5L587,744c0,0,-16.6,-4.8,-16.6,-8.5c0.1,-3.7,4.7,-5.5,6.2,-6.2c1.6,-0.7,9.6,2.3,9.6,2.3l3.9,-9.1l0,-5.5l-26.9,2.8l0,5.3c0,0,0.2,0.3,-0.4,1.3c-0.6,0.9,-3.5,3.6,-3.8,5.6c-0.2,2.1,-1.4,6.6,-0.6,9.7c0.8,3.1,2.2,6.7,15.6,12.8Z" class="g12_2" />
<path fill-rule="evenodd" d="M574.2,754.6l12.7,-5.1c-0.6,0.2,-10.6,-3.2,-12,-4.6c-0.7,-0.7,-4,-2.2,-5,-5.3c-0.3,-1.2,0.1,-2.5,0.8,-4c1.5,-3.4,4.1,-4.8,5.7,-5.5c1.5,-0.7,10,2.2,10,2.2l3.9,-9.7l-26.8,2.6c0,0,6.5,2,5.3,2.6c-1.2,0.5,-7.5,4.8,-9.1,8.6c-1.6,3.8,-1.9,2.3,-1,5.4c0.8,3.1,2.1,6.7,15.5,12.8Z" class="g13_2" />
<path d="M563.2,719.8l0,5.6l7.1,1.9" class="g11_2" />
<path d="M576.6,729.3l9.6,2.3l3.9,-9.1l0,-5.5l-26.9,2.8" class="g11_2" />
<path d="M563.2,725.4l26.9,-2.9" class="g8_2" />
<path d="M574.2,754.6l12.7,-5.1L587,744c0,0,-14.3,-3.4,-16.8,-9" class="g11_2" />
<path d="M576.6,729.3c-4.4,1.8,-7.2,5,-7,8.7" class="g11_2" />
<path d="M564.1,725.6c-3.6,3,-5.5,6.1,-5.8,9.4c-0.3,3.3,0,6.1,0,6.1c0,0,0.2,7.7,15.9,13.5" class="g11_2" />
<path d="M569.6,738c-0.1,4.5,7,9.2,17.3,11.5" class="g8_2" />
<path d="M570.3,727.3c-5.2,1.7,-12.1,8.5,-12,13.8" class="g8_2" />
<path fill-rule="evenodd" d="M745.9,714l-0.1,6.8l-26.7,2.8L719,718l4.1,-9.2l9.3,2.5l3.4,-1.8l2.4,-2.7l-0.1,-2.7l-3,-2.5l-4.7,-2.5l-3.8,-1.4l-4,-1.1l0,-5.7L735.2,686l7.6,3.6l4.5,3.4l3.1,4.3L751,701l-0.1,3.6l-0.6,3.5l-1.8,3.1Z" class="g12_2" />
<path d="M722.6,696.6l0,-5.7L735.2,686" class="g11_2" />
<path d="M719.1,723.6L719,718l4.1,-9.2l9.3,2.5c0,0,5,-1.3,6.4,-6" class="g11_2" />
<path d="M723.7,714.4l-0.6,-5.6" class="g8_2" />
<path d="M732.4,716.6l0,-5.3" class="g8_2" />
<path fill-rule="evenodd" d="M746.7,713.3l-7.7,5.2l6.8,2.3l-26.7,2.8l4.6,-9.2l8.7,2.2l2.8,-1.2l2.6,-2l1.4,-2.1l0.6,-2.4l0,-1.8l-1.7,-3l-3,-2.5l-4.7,-2.5l-3.8,-1.4l-4,-1.1l12.6,-4.9l5.2,2.1l4.4,2.5l3.9,3.5l1.6,2.5l0.6,2.9l-0.5,2.3l-1.9,3.7Z" class="g13_2" />
<path d="M739.9,708.2c0,-4.8,-8,-9.6,-17.3,-11.6" class="g11_2" />
<path d="M735.2,691.7c9.3,3.2,15.3,8,15.7,12.9" class="g8_2" />
<path d="M722.6,696.6l12.6,-4.9l0,-5.7" class="g8_2" />
<path d="M739,718.5c5.4,-2.6,11.8,-7.8,11.9,-13.3c0.1,-5.5,0,-5.9,0,-5.9c0,0,0.3,-7.2,-15.7,-13.3" class="g11_2" />
<path d="M719.1,723.6l4.6,-9.2l8.7,2.2c0,0,7.3,-1.9,7.5,-8.4" class="g8_2" />
<path d="M719.1,723.6l26.7,-2.8l0.1,-5.4" class="g11_2" />
<path d="M739,718.5l6.8,2.3" class="g8_2" />
<path fill-rule="evenodd" d="M341.9,523.3L289,512.7l0.5,-12.3l53.9,13.9Z" class="g19_2" />
<path d="M438.4,538.9c-2.8,-0.8,-34.6,-8.9,-96.2,-24.8C326.6,510,310.6,505.8,294.8,501.8C229.1,484.7,169,469.1,169,469.1c0,0,-2.9,-0.3,-4.6,0.2c-1.7,0.4,-59,14.3,-59,14.3" class="g11_2" />
<path d="M467.5,548.5l0,-270" class="g4_2" />
<path fill-rule="evenodd" d="M479,289l37,0l0,38l-37,0Z" class="g6_2" />
<path fill-rule="evenodd" d="M477.5,287.5l37,0l0,37l-37,0Z" class="g7_2" />
<path d="M662.5,703.5l0,-10" class="g8_2" />
<path d="M609.5,724.5l0,-10" class="g8_2" />
<path fill-rule="evenodd" d="M643.3,784.3c99.7,0,180.6,58.1,180.6,129.8c0,71.6,-80.9,129.7,-180.6,129.7c-99.7,0,-180.5,-58.1,-180.5,-129.7c0,-71.7,80.8,-129.8,180.5,-129.8Z" class="g1_2" />
<path fill-rule="evenodd" d="M640.6,790.1c98,0,175.2,55.5,175.2,124c0,68.4,-77.2,123.9,-172.5,123.9C544.6,1038,470.8,982.5,470.8,914.1c-3,-68.5,77.2,-124,172.5,-124Z" class="g20_2" />
<path d="M700.6,977c0.7,0,1.1,0.8,1.1,1.5c0,0.8,-0.1,15.3,-0.1,15.3c0,0,0.1,5.4,5.9,5.3c5.8,0,7.9,0,7.9,0l0,-4.1c0,0,-7.7,0,-8.3,0.1c-0.6,0,-1.5,-0.6,-1.5,-1.5c0,-0.9,0.1,-14.8,0.1,-15.5c0,-0.7,-0.4,-1.2,-0.4,-1.2L668.8,977l-0.1,-4l40.8,0c0,0,1.9,-0.2,1.9,-1.3c0,-1,0,-7.9,0,-7.9l3.9,-0.2l0,8.4c0,0,-0.1,5,-5,5c-5,-0.1,-5,-0.1,-5,-0.1" class="g11_2" />
<path d="M675.3,973l0,-15.4l8.4,0l0,15.4" class="g11_2" />
<path d="M675.2,977l0,18.7l-7.2,0l0,3.8c0,0,-0.2,1.1,-0.9,1.2" class="g11_2" />
<path d="M683.8,977l0,18.7l7.3,0l0,3.8c0,0,0.1,1.1,0.9,1.2" class="g11_2" />
<path d="M675,995l8,0" class="g11_2" />
<path d="M662,1000l34,0l0,9l-34,0Z" class="g11_2" />
<path d="M666.2,1009.5c6.1,4.2,17.1,6.2,27.3,-0.3" class="g11_2" />
<path d="M664.1,1000.8c0,-0.2,0,8.3,0,8.3" class="g8_2" />
<path d="M665.6,1000.8c0,-0.2,0,8.3,0,8.3" class="g8_2" />
<path d="M667.5,1000.8c0,-0.2,0,8.3,0,8.3" class="g8_2" />
<path d="M669.6,1000.8c0,-0.2,0,8.3,0,8.3" class="g8_2" />
<path d="M671.7,1000.8c0,-0.2,0,8.3,0,8.3" class="g8_2" />
<path d="M673.8,1000.8c0,-0.2,0,8.3,0,8.3" class="g8_2" />
<path d="M675.7,1000.8c0,-0.2,0,8.3,0,8.3" class="g8_2" />
<path d="M677.6,1000.8c0,-0.2,0,8.3,0,8.3" class="g8_2" />
<path d="M679.7,1000.8c0,-0.2,0,8.3,0,8.3" class="g8_2" />
<path d="M681.8,1000.8c0,-0.2,0,8.3,0,8.3" class="g8_2" />
<path d="M684,1000.8c0,-0.2,0,8.3,0,8.3" class="g8_2" />
<path d="M686.1,1000.8c0,-0.2,0,8.3,0,8.3" class="g8_2" />
<path d="M687.9,1000.8c0,-0.2,0,8.3,0,8.3" class="g8_2" />
<path d="M689.5,1000.8c0,-0.2,0,8.3,0,8.3" class="g8_2" />
<path d="M691.1,1000.8c0,-0.2,0,8.3,0,8.3" class="g8_2" />
<path d="M692.7,1000.8c0,-0.2,0,8.3,0,8.3" class="g8_2" />
<path d="M694.1,1000.8c0,-0.2,0,8.3,0,8.3" class="g8_2" />
<path d="M695.2,1000.8c0,-0.2,0,8.3,0,8.3" class="g8_2" />
<path d="M661.1,923.3l0,-4.2l36.8,0c0,0,7.7,0.2,8.6,-8.2" class="g11_2" />
<path d="M698.2,923.3c3.5,-0.2,7.1,-2.3,8.3,-3.9" class="g11_2" />
<path d="M706.5,973l0,-139.3c0,0,-0.2,-8.7,-10.1,-8.7c-9.8,0,-94.2,0,-94.2,0l0,-3.9l94.4,0c0,0,13.9,0,13.9,12.8c0,12.7,0,138.8,0,138.8" class="g11_2" />
<path d="M710.3,977l0,15.6l-3.8,0l0,-15.7" class="g11_2" />
<path d="M602.2,825l0,56.1c0,0,0.4,1.4,2.1,1.4c1.6,0.1,91.8,0,91.8,0c0,0,1.4,0,1.5,-1.9c0.1,-1.9,0,-51.1,0,-51.1c0,0,-1,-4.5,-3.7,-4.5" class="g11_2" />
<path d="M697.7,861.3l3.1,0l1.7,1.9l0,18.5l-5.3,0" class="g11_2" />
<path d="M675.2,993.9l8.6,-1.4" class="g8_2" />
<path d="M675.2,992.2l8.6,-1.4" class="g8_2" />
<path d="M675.2,990.5l8.6,-1.4" class="g8_2" />
<path d="M675.2,988.9l8.6,-1.4" class="g8_2" />
<path d="M675.2,987.2l8.6,-1.4" class="g8_2" />
<path d="M675.2,985.6l8.6,-1.5" class="g8_2" />
<path d="M675.2,983.8l8.6,-1.4" class="g8_2" />
<path d="M675.2,982.2l8.6,-1.5" class="g8_2" />
<path d="M675.2,980.5l8.6,-1.5" class="g8_2" />
<path d="M675.2,979l8.6,-1.5" class="g8_2" />
<path d="M675.2,972.3l8.6,-1.4" class="g8_2" />
<path d="M675.2,970.6l8.6,-1.4" class="g8_2" />
<path d="M675.2,969l8.6,-1.5" class="g8_2" />
<path d="M675.2,967.2l8.6,-1.4" class="g8_2" />
<path d="M675.2,965.5l8.6,-1.4" class="g8_2" />
<path d="M675.2,963.9l8.6,-1.5" class="g8_2" />
<path d="M675.2,962.2l8.7,-1.4" class="g8_2" />
<path d="M675.2,960.6l8.7,-1.4" class="g8_2" />
<path d="M675.2,959l8.7,-1.4" class="g8_2" />
<path fill-rule="evenodd" d="M472.3,923.3l232.8,0l0,33.5l-222.6,0l-3.9,-8.5l-2.5,-7.1l-1.7,-6l-1.2,-5.8Z" class="g12_2" />
<path d="M471.7,923.3l231.9,0c0,0,2.1,0.5,2.1,1.9c0,1.4,-0.1,30.1,-0.1,30.1c0,0,0.3,2,-2,2c-2.3,0,-221.3,0,-221.3,0" class="g11_2" />
<path d="M702.8,868.9c2.1,0,3.4,0,3.4,0" class="g21_2" />
<path d="M710.8,869c7,-0.1,20.1,5.2,20.1,19.1c0,13.8,0,132.9,0,132.9" class="g21_2" />
<path d="M702.8,877c2.1,0,3.4,0,3.4,0" class="g21_2" />
<path d="M710.9,877.1c7,-0.2,11.7,4.4,11.7,14.3c0,9.9,0,133,0,133" class="g21_2" />
<path d="M461,923l-88,0" class="g22_2" />
<path d="M469,958l-96,0" class="g23_2" />
<path d="M388.7,921.8l-6.2,-12.4l12.4,0Zm-1,-11.8l2,0l0,0.1l0,0.1l0,0.1l-0.1,0l0,0.1l-0.1,0l0,0.1l-0.1,0l0,0.1l-0.1,0l-0.1,0l0,0.1l-0.1,0l-0.1,0l-0.1,0l-0.1,0l-0.1,0l-0.1,0l-0.1,0l-0.1,0l-0.1,0l-0.1,-0.1l-0.1,0L388,910.5l-0.1,0l0,-0.1l-0.1,0l0,-0.1l0,-0.1l-0.1,0l0,-0.1Zm2,-20.8l0,20.8l-2,0l0,-20.8Zm0,0l-2,0l0,-0.1l0,-0.1l0.1,0l0,-0.1l0.1,-0.1l0.1,-0.1l0.1,0l0,-0.1l0.1,0l0.1,0l0.1,-0.1l0.1,0l0.1,0l0.1,0l0.1,0l0.1,0l0.1,0l0.1,0l0,0.1l0.1,0l0.1,0l0.1,0.1l0.1,0l0,0.1l0.1,0l0,0.1l0.1,0l0,0.1l0,0.1l0,0.1Z" class="g6_2" />
<path d="M388.7,959.9l6.2,12.5l-12.4,0Zm-1,11.8l0,0l0,-0.1l0,-0.1l0.1,0l0,-0.1l0.1,0l0,-0.1l0.1,0l0,-0.1l0.1,0l0.1,0l0,-0.1l0.1,0l0.1,0l0.1,0l0.1,0l0.1,-0.1l0.1,0l0,0.1l0.1,0l0.1,0l0.1,0l0.1,0l0.1,0l0,0.1l0.1,0l0.1,0.1l0.1,0l0,0.1l0.1,0.1l0,0.1l0,0.1Zm2,18.7l-2,0l0,-18.7l2,0Zm0,0l0,0l0,0.1l0,0.1l-0.1,0.1l0,0.1l-0.1,0l-0.1,0.1l-0.1,0l0,0.1l-0.1,0l-0.1,0l-0.1,0l-0.1,0l-0.1,0l-0.1,0l-0.1,0l-0.1,0l-0.1,0l-0.1,0l-0.1,0l0,-0.1l-0.1,0l-0.1,0l0,-0.1l-0.1,0l0,-0.1l-0.1,0l0,-0.1l-0.1,0l0,-0.1l0,-0.1Z" class="g6_2" />
<path fill-rule="evenodd" d="M207.2,247.9C222.6,239,238,230.1,253.5,221.1c0.5,-0.7,1.1,-1.5,1.7,-2.3c0.2,-0.3,0.3,-0.6,0.2,-0.7c-0.1,-0.2,-0.3,-0.3,-0.7,-0.3c-1,0.1,-2,0.2,-3,0.3c-15.2,8.8,-30.5,17.6,-45.7,26.5c0.4,1.1,0.8,2.2,1.2,3.3Z" class="g19_2" />
<path d="M195.9,254.4c19.2,-11.1,38.4,-22.2,57.6,-33.3c0.5,-0.7,1.1,-1.5,1.7,-2.3c0.2,-0.3,0.3,-0.6,0.2,-0.7c-0.1,-0.2,-0.3,-0.3,-0.7,-0.3c-1,0.1,-2,0.2,-3,0.3c-19,11,-38,21.9,-57,33" class="g11_2" />
<path d="M252.5,220.9c0.2,-0.6,0.6,-1.1,1,-1.4c0.4,-0.4,1.1,-0.7,1.7,-0.9" class="g8_2" />
<path d="M251.1,219c0.7,0,1.5,-0.1,2.1,-0.3c0.7,-0.2,1.2,-0.5,1.7,-0.8" class="g8_2" />
<path fill-rule="evenodd" d="M211.7,235.9c-0.9,0.5,-1.7,1,-2.6,1.5c-0.5,0.3,-0.9,0.7,-1.2,1.1c-0.3,0.4,-0.5,1,-0.7,1.6c0,0.4,0,0.7,-0.1,0.9c-0.1,0.1,-0.3,0.1,-0.6,0c-0.9,-0.6,-1.9,-1,-2.7,-1.1c-0.9,-0.1,-1.9,0.1,-2.8,0.4c-9.2,5.4,-18.4,10.7,-27.6,16c-2.1,2,-3.3,4,-3.6,5.9c-0.3,1.9,0.3,3.8,1.6,5.6c1.6,1.9,3.4,3.1,5.3,3.4c1.8,0.3,3.9,-0.2,6.1,-1.5c8.6,-5,17.3,-10,26,-15c0.9,-0.8,1.6,-1.7,2,-2.5c0.4,-0.9,0.6,-1.9,0.6,-2.9c0,-0.4,0.1,-0.7,0.3,-0.8c0.2,-0.1,0.5,0.1,0.8,0.4c0.4,0.2,0.9,0.5,1.4,0.5c0.5,0,1,-0.1,1.4,-0.3c1,-0.5,2,-1.1,3.1,-1.7c0.8,-0.9,1.2,-2.1,1.2,-3.4c-0.1,-1.4,-0.7,-2.9,-1.8,-4.6c-1.1,-1.5,-2.2,-2.6,-3.1,-3.1c-1,-0.6,-2.1,-0.7,-3,-0.4Z" class="g19_2" />
<path d="M207.4,241c-0.1,-1.5,0.4,-2.8,1.3,-3.3c0.9,-0.5,1.9,-1.1,2.9,-1.7c1.8,-1,4.7,0.7,6.6,3.9c1.8,3.1,1.8,6.5,0,7.6c-0.9,0.5,-1.9,1.1,-2.9,1.6c-1,0.6,-2.3,0.3,-3.7,-0.5" class="g11_2" />
<path d="M210.8,249.9c-0.1,-1.5,-0.7,-3.2,-1.7,-4.9c-0.6,-1.3,-1.5,-2.3,-2.5,-3.1" class="g8_2" />
<path d="M211.4,247.9c0,-1.1,-0.4,-2.4,-1.1,-3.5c-0.6,-1.2,-1.5,-2.1,-2.4,-2.7" class="g8_2" />
<path d="M213.3,248.4c-0.6,-0.1,-1.1,-0.1,-1.4,-0.1c-0.3,0.1,-0.5,0.4,-0.5,0.8c0,1.2,-0.3,2.4,-0.7,3.2c-0.4,0.9,-1,1.7,-1.8,2.2c-9.2,5.3,-18.4,10.6,-27.6,16c-1.3,0.6,-2.1,0.8,-3.4,0.8c-4.4,0,-8,-3.7,-8,-8.1c0,-2.6,1.4,-5.1,3.4,-6.6c9.2,-5.4,18.4,-10.7,27.6,-16.1c0.7,-0.3,1.6,-0.5,2.5,-0.5c0.9,0.1,2,0.5,3,1c0.5,0.3,1,0.3,1.2,0.1c0.3,-0.1,0.6,-0.5,0.7,-1.1" class="g11_2" />
<path d="M174.6,256.6c2.1,0.2,4.6,2.1,6.2,5c1.6,2.7,2,5.6,1.4,7.5" class="g8_2" />
<path d="M214.7,249c1.5,-1.1,1.3,-4.1,-0.3,-7c-1.6,-2.8,-4.2,-4.5,-5.9,-3.8" class="g8_2" />
<path d="M178.6,256.7l24.9,-14.5" class="g8_2" />
<path d="M181,258.1l24.1,-14.4" class="g8_2" />
<path d="M183.6,263.1L208,248.3" class="g8_2" />
<path d="M184.1,265.9L208.5,251" class="g8_2" />
<path d="M181,258.1c-1,0.6,-4,-0.1,-2.4,-1.4" class="g8_2" />
<path d="M183.6,263.1c-1.4,0.9,-1.3,3.5,0.5,2.8" class="g8_2" />
<path d="M208.5,251c1.4,-0.7,1.7,-4.1,-0.5,-2.7" class="g8_2" />
<path d="M205.1,243.7c1.5,-0.8,0.1,-2.5,-1.6,-1.5" class="g8_2" />
<path d="M201.1,1000.8C129.9,983.9,117.8,901.5,132.3,840C146.7,778.6,213.6,690.9,302.7,711.5" class="g11_2" />
<path d="M197.9,1013.9C119.8,995.5,103.6,904.3,119.4,836.9C135.3,769.5,209.2,678,306.9,700.6" class="g11_2" />
<path fill-rule="evenodd" d="M404,173l126,0l-126,0Z" class="g6_2" />
<image x="102" y="102" width="114" height="39" xlink:href="img/1.png" />
</svg>