<?xml version="1.0" encoding="UTF-8" standalone="no"?>
<!DOCTYPE svg PUBLIC "-//W3C//DTD SVG 1.1//EN"
"http://www.w3.org/Graphics/SVG/1.1/DTD/svg11.dtd">
<svg viewBox="0 0 935 1210" version="1.1" xmlns="http://www.w3.org/2000/svg" xmlns:xlink="http://www.w3.org/1999/xlink">
<defs>
<style type="text/css"><![CDATA[
.g15_4{
}
.g7_4{
fill: #636363;
stroke: #000000;
stroke-width: 3;
stroke-linecap: round;
stroke-linejoin: round;
stroke-miterlimit: 2;
}
.g13_4{
fill: none;
stroke: #FFFFFF;
stroke-width: 2;
stroke-linecap: round;
stroke-linejoin: round;
stroke-miterlimit: 2;
stroke-dasharray: 8,5,2,5;
}
.g2_4{
fill: none;
stroke: #FFFFFF;
stroke-width: 3;
stroke-linecap: round;
stroke-linejoin: miter;
stroke-miterlimit: 2;
}
.g12_4{
fill: none;
stroke: #000000;
stroke-width: 3;
stroke-linecap: round;
stroke-linejoin: round;
stroke-miterlimit: 2;
}
.g3_4{
fill: #FFFFFF;
stroke: #000000;
stroke-width: 2;
stroke-linecap: butt;
stroke-linejoin: miter;
stroke-miterlimit: 2;
}
.g1_4{
fill: #B3B3B3;
}
.g9_4{
fill: none;
stroke: #FFFFFF;
stroke-width: 1;
stroke-linecap: round;
stroke-linejoin: round;
stroke-miterlimit: 2;
stroke-dasharray: 4,3,1,3;
}
.g11_4{
fill: none;
stroke: #FFFFFF;
stroke-width: 2;
stroke-linecap: round;
stroke-linejoin: round;
stroke-miterlimit: 2;
}
.g4_4{
fill: none;
stroke: #000000;
stroke-width: 2;
stroke-linecap: butt;
stroke-linejoin: miter;
stroke-miterlimit: 2;
}
.g8_4{
fill: none;
stroke: #FFFFFF;
stroke-width: 2;
stroke-linecap: round;
stroke-linejoin: round;
stroke-miterlimit: 2;
stroke-dasharray: 8,8;
}
.g5_4{
fill: none;
stroke: #000000;
stroke-width: 1;
stroke-linecap: butt;
stroke-linejoin: miter;
stroke-miterlimit: 2;
}
.g10_4{
fill: #FFFFFF;
}
.g14_4{
stroke: #000000;
stroke-width: 2;
stroke-linecap: round;
stroke-linejoin: round;
stroke-miterlimit: 2;
}
.g6_4{
fill: none;
stroke: #000000;
stroke-width: 1;
stroke-linecap: round;
stroke-linejoin: round;
stroke-miterlimit: 2;
}
]]></style>
</defs>
<path fill-rule="evenodd" d="M55,54l824,0l0,1101l-824,0Z" class="g1_4" />
<path d="M55.5,256.5l27,0" class="g2_4" />
<path d="M55.5,430.5l27,0" class="g2_4" />
<path d="M55.5,605.5l27,0" class="g2_4" />
<path d="M55.5,779.5l27,0" class="g2_4" />
<path d="M55.5,953.5l27,0" class="g2_4" />
<path d="M852.5,256.5l28,0" class="g2_4" />
<path d="M852.5,605.5l28,0" class="g2_4" />
<path d="M236.5,82.5l0,-27" class="g2_4" />
<path d="M390.5,82.5l0,-27" class="g2_4" />
<path d="M544.5,82.5l0,-27" class="g2_4" />
<path d="M698.5,82.5l0,-27" class="g2_4" />
<path d="M236.5,1155.5l0,-28" class="g2_4" />
<path d="M390.5,1155.5l0,-28" class="g2_4" />
<path d="M544.5,1155.5l0,-28" class="g2_4" />
<path d="M698.5,1155.5l0,-28" class="g2_4" />
<path d="M852.5,430.5l28,0" class="g2_4" />
<path d="M852.5,779.5l28,0" class="g2_4" />
<path d="M852.5,953.5l28,0" class="g2_4" />
<path fill-rule="evenodd" d="M82,82l770,0l0,1045l-770,0Z" class="g3_4" />
<path d="M82,1097l770,0" class="g4_4" />
<path d="M466.5,1099.5l0,28" class="g5_4" />
<path d="M468.5,1099.5l0,28" class="g5_4" />
<path d="M272.5,1099.5l0,28" class="g5_4" />
<path d="M274.5,1099.5l0,28" class="g5_4" />
<path d="M664.5,1099.5l0,28" class="g5_4" />
<path d="M666.5,1099.5l0,28" class="g5_4" />
<path d="M274.5,1099.5l192,0" class="g6_4" />
<path d="M468.5,1099.5l196,0" class="g6_4" />
<path d="M666.5,1099.5l186,0" class="g6_4" />
<path d="M272.5,1099.5l-190,0" class="g6_4" />
<path fill-rule="evenodd" d="M215.5,234.5l501,0l0,820l-501,0Z" class="g7_4" />
<path d="M243,237l0,814" class="g8_4" />
<path d="M622.5,974.5l0,-22l20,0" class="g9_4" />
<path d="M243.6,273.7l9.4,-4.8l0,9.5Zm8.9,-0.8l0,1.5l-0.1,0l-0.1,0l-0.1,0l0,-0.1l-0.1,0l-0.1,0l0,-0.1l-0.1,0l0,-0.1l-0.1,0l0,-0.1l0,-0.1l-0.1,-0.1l0,-0.1l0,-0.1l0,-0.1l0.1,-0.1l0,-0.1l0.1,-0.1l0,-0.1l0.1,0l0,-0.1l0.1,0l0.1,0l0,-0.1l0.1,0l0.1,0Zm168.7,1.5l-168.7,0l0,-1.5l168.7,0Zm0,0l0,-1.5l0.1,0l0.1,0l0.1,0l0,0.1l0.1,0l0.1,0l0,0.1l0.1,0l0,0.1l0.1,0l0,0.1l0,0.1l0.1,0l0,0.1l0,0.1l0,0.1l0,0.1l0,0.1l-0.1,0.1l0,0.1l-0.1,0l0,0.1l-0.1,0l0,0.1l-0.1,0l-0.1,0.1l-0.1,0l-0.1,0Z" class="g10_4" />
<path d="M622.6,273.4l-9.5,4.7l0,-9.4Zm-9,0.8l0,-1.5l0.1,0l0.1,0l0.1,0l0.1,0.1l0.1,0l0,0.1l0.1,0l0,0.1l0.1,0l0,0.1l0,0.1l0.1,0l0,0.1l0,0.1l0,0.1l0,0.1l-0.1,0.1l0,0.1l-0.1,0.1l0,0.1l-0.1,0l-0.1,0.1l-0.1,0l-0.1,0.1l-0.1,0ZM456.1,272.7l157.5,0l0,1.5l-157.5,0Zm0,0l0,1.5l-0.1,0l-0.1,0l0,-0.1l-0.1,0l-0.1,0l0,-0.1l-0.1,0l0,-0.1l-0.1,0l0,-0.1l-0.1,-0.1l0,-0.1l0,-0.1l0,-0.1l0,-0.1l0,-0.1l0,-0.1l0.1,0l0,-0.1l0.1,-0.1l0.1,-0.1l0.1,0l0,-0.1l0.1,0l0.1,0l0.1,0Z" class="g10_4" />
<path d="M576,677l23,0" class="g11_4" />
<path d="M575,953l23,0" class="g11_4" />
<path d="M591.8,677.9l4.7,9.4l-9.5,0Zm0.7,8.9l-1.5,0l0,-0.1l0,-0.1l0,-0.1l0.1,0l0,-0.1l0,-0.1l0.1,0l0,-0.1l0.1,0l0.1,-0.1l0.1,0l0.1,-0.1l0.1,0l0.1,0l0.1,0l0.1,0.1l0.1,0l0.1,0.1l0.1,0l0,0.1l0.1,0l0,0.1l0,0.1l0.1,0l0,0.1l0,0.1ZM591,791.9l0,-105.1l1.5,0l0,105.1Zm0,0l1.5,0l0,0.1l0,0.1l0,0.1l-0.1,0l0,0.1l-0.1,0.1l0,0.1l-0.1,0l-0.1,0l0,0.1l-0.1,0l-0.1,0l-0.1,0l-0.1,0l-0.1,0l-0.1,0l-0.1,0l0,-0.1l-0.1,0l-0.1,0l0,-0.1l-0.1,-0.1l0,-0.1l-0.1,0l0,-0.1l0,-0.1l0,-0.1Z" class="g10_4" />
<path d="M592.2,953l-4.7,-9.4l9.5,0.1Zm-0.7,-8.9l1.5,0l0,0.1l0,0.1l0,0.1l-0.1,0l0,0.1l0,0.1l-0.1,0l0,0.1l-0.1,0l-0.1,0.1l-0.1,0l-0.1,0.1l-0.1,0l-0.1,0l-0.1,0l-0.1,0l0,-0.1l-0.1,0l-0.1,0l0,-0.1l-0.1,0l0,-0.1l-0.1,0l0,-0.1l0,-0.1l-0.1,0l0,-0.1l0,-0.1l0,-0.1Zm2.3,-103.5L593,944.1l-1.5,0l0.8,-103.5Zm0,0l-1.5,0l0,-0.1l0,-0.1l0,-0.1l0.1,0l0,-0.1l0,-0.1l0.1,0l0,-0.1l0.1,0l0.1,-0.1l0.1,0l0.1,-0.1l0.1,0l0.1,0l0.1,0l0.1,0l0,0.1l0.1,0l0.1,0l0,0.1l0.1,0l0,0.1l0.1,0l0,0.1l0.1,0.1l0,0.1l0,0.1Z" class="g10_4" />
<path d="M215.5,234.5l0,-18" class="g12_4" />
<path d="M215.5,234.5l-18,0" class="g12_4" />
<path d="M215.5,1054.5l-18,0" class="g12_4" />
<path d="M215.5,1054.5l0,18" class="g12_4" />
<path d="M622,292l0,357" class="g13_4" />
<path d="M622,649l0,303" class="g13_4" />
<path d="M622.5,952.5l-20,0" class="g9_4" />
<path fill-rule="evenodd" d="M622.9,946c3.8,0,6.9,3.1,6.9,6.9c0,3.8,-3.1,6.9,-6.9,6.9c-3.8,0,-6.9,-3.1,-6.9,-6.9c0,-3.8,3.1,-6.9,6.9,-6.9Z" class="g14_4" />
<path d="M622.5,271.5l0,21l20,0" class="g9_4" />
<path d="M622.5,292.5l-20,0" class="g9_4" />
<path d="M622.5,677.5l20,0" class="g9_4" />
<path d="M622.5,677.5l-20,0" class="g9_4" />
<path fill-rule="evenodd" d="M622.9,671c3.8,0,6.9,3.1,6.9,6.9c0,3.8,-3.1,6.9,-6.9,6.9c-3.8,0,-6.9,-3.1,-6.9,-6.9c0,-3.8,3.1,-6.9,6.9,-6.9Z" class="g14_4" />
<path fill-rule="evenodd" d="M622.9,286c3.8,0,6.9,3.1,6.9,6.9c0,3.8,-3.1,6.9,-6.9,6.9c-3.8,0,-6.9,-3.1,-6.9,-6.9c0,-3.8,3.1,-6.9,6.9,-6.9Z" class="g14_4" />
<path d="M576,292l23,0" class="g11_4" />
<path d="M591.8,292.9l4.7,9.4l-9.5,0Zm0.7,8.9l-1.5,0l0,-0.1l0,-0.1l0,-0.1l0.1,0l0,-0.1l0,-0.1l0.1,0l0,-0.1l0.1,0l0.1,-0.1l0.1,0l0.1,-0.1l0.1,0l0.1,0l0.1,0l0.1,0.1l0.1,0l0.1,0.1l0.1,0l0,0.1l0.1,0l0,0.1l0,0.1l0.1,0l0,0.1l0,0.1ZM591,435.3l0,-133.5l1.5,0l0,133.5Zm0,0l1.5,0l0,0.1l0,0.1l0,0.1l-0.1,0l0,0.1l0,0.1l-0.1,0l0,0.1l-0.1,0l-0.1,0.1l-0.1,0l-0.1,0l0,0.1l-0.1,0l-0.1,0l-0.1,0l0,-0.1l-0.1,0l-0.1,0l-0.1,-0.1l-0.1,0l0,-0.1l-0.1,0l0,-0.1l0,-0.1l-0.1,0l0,-0.1l0,-0.1l0,-0.1Z" class="g10_4" />
<path d="M591.8,677.9l-4.7,-9.5l9.4,0.1Zm-0.8,-9l1.6,0l0,0.1l0,0.1l-0.1,0.1l0,0.1l-0.1,0l0,0.1l-0.1,0.1l-0.1,0.1l-0.1,0l-0.1,0l0,0.1l-0.1,0l-0.1,0l-0.1,0l-0.1,0l0,-0.1l-0.1,0l-0.1,0l0,-0.1l-0.1,0l-0.1,-0.1l0,-0.1l-0.1,0l0,-0.1l0,-0.1l0,-0.1l-0.1,0ZM593.8,484l-1.2,184.9l-1.6,0L592.3,484Zm0,0l-1.5,0l0,-0.1l0,-0.1l0.1,-0.1l0,-0.1l0.1,-0.1l0,-0.1l0.1,0l0.1,0l0,-0.1l0.1,0l0.1,0l0,-0.1l0.1,0l0.1,0l0.1,0l0.1,0.1l0.1,0l0.1,0l0,0.1l0.1,0l0,0.1l0.1,0l0,0.1l0.1,0.1l0,0.1l0,0.1l0,0.1Z" class="g10_4" />
<path d="M716.5,234.5l0,-18" class="g12_4" />
<path d="M716.5,234.5l18,0" class="g12_4" />
<path d="M716.5,1054.5l18,0" class="g12_4" />
<path d="M716.5,1054.5l0,18" class="g12_4" />
<path fill-rule="evenodd" d="M383,168l169,0l0,1l-169,0Z" class="g15_4" />
</svg>