<?xml version="1.0" encoding="UTF-8" standalone="no"?>
<!DOCTYPE svg PUBLIC "-//W3C//DTD SVG 1.1//EN"
"http://www.w3.org/Graphics/SVG/1.1/DTD/svg11.dtd">
<svg version="1.1" xmlns="http://www.w3.org/2000/svg" xmlns:xlink="http://www.w3.org/1999/xlink">
<defs>
<style type="text/css"><![CDATA[
.g10_3{
fill: #636363;
}
.g11_3{
fill: #D4D4D4;
}
.g17_3{
fill: none;
stroke: #000000;
stroke-width: 4;
stroke-linecap: round;
stroke-linejoin: round;
stroke-miterlimit: 2;
}
.g2_3{
fill: none;
stroke: #FFFFFF;
stroke-width: 3;
stroke-linecap: round;
stroke-linejoin: miter;
stroke-miterlimit: 2;
}
.g13_3{
fill: none;
stroke: #000000;
stroke-width: 3;
stroke-linecap: round;
stroke-linejoin: round;
stroke-miterlimit: 2;
}
.g14_3{
fill: none;
stroke: #000000;
stroke-width: 2;
stroke-linecap: round;
stroke-linejoin: round;
stroke-miterlimit: 2;
stroke-dasharray: 3,5;
}
.g3_3{
fill: #FFFFFF;
stroke: #000000;
stroke-width: 2;
stroke-linecap: butt;
stroke-linejoin: miter;
stroke-miterlimit: 2;
}
.g1_3{
fill: #B3B3B3;
}
.g7_3{
fill: #636363;
stroke: #000000;
stroke-width: 1;
stroke-linecap: butt;
stroke-linejoin: miter;
stroke-miterlimit: 2;
}
.g9_3{
fill: none;
stroke: #000000;
stroke-width: 2;
stroke-linecap: round;
stroke-linejoin: round;
stroke-miterlimit: 2;
}
.g18_3{
fill: none;
stroke: #FFFFFF;
stroke-width: 2;
stroke-linecap: round;
stroke-linejoin: round;
stroke-miterlimit: 2;
}
.g5_3{
fill: none;
stroke: #000000;
stroke-width: 2;
stroke-linecap: butt;
stroke-linejoin: miter;
stroke-miterlimit: 2;
}
.g19_3{
fill: none;
stroke: #808080;
stroke-width: 2;
stroke-linecap: round;
stroke-linejoin: round;
stroke-miterlimit: 2;
}
.g16_3{
stroke: #000000;
stroke-width: 2;
stroke-linecap: round;
stroke-linejoin: round;
stroke-miterlimit: 2;
}
.g4_3{
fill: none;
stroke: #000000;
stroke-width: 1;
stroke-linecap: butt;
stroke-linejoin: miter;
stroke-miterlimit: 2;
}
.g20_3{
fill: #FFFFFF;
}
.g15_3{
fill: none;
stroke: #000000;
stroke-width: 2;
stroke-linecap: round;
stroke-linejoin: round;
stroke-miterlimit: 2;
stroke-dasharray: 4,5;
}
.g6_3{
}
.g12_3{
fill: #FFFFFF;
stroke: #000000;
stroke-width: 3;
stroke-linecap: round;
stroke-linejoin: round;
stroke-miterlimit: 2;
}
.g8_3{
fill: none;
stroke: #000000;
stroke-width: 1;
stroke-linecap: round;
stroke-linejoin: round;
stroke-miterlimit: 2;
}
]]></style>
</defs>
<path fill-rule="evenodd" d="M55,54l824,0l0,1101l-824,0Z" class="g1_3" />
<path d="M852.5,430.5l28,0" class="g2_3" />
<path d="M55.5,256.5l27,0" class="g2_3" />
<path d="M55.5,430.5l27,0" class="g2_3" />
<path d="M55.5,605.5l27,0" class="g2_3" />
<path d="M55.5,779.5l27,0" class="g2_3" />
<path d="M55.5,953.5l27,0" class="g2_3" />
<path d="M852.5,256.5l28,0" class="g2_3" />
<path d="M852.5,605.5l28,0" class="g2_3" />
<path d="M852.5,779.5l28,0" class="g2_3" />
<path d="M852.5,953.5l28,0" class="g2_3" />
<path d="M236.5,82.5l0,-27" class="g2_3" />
<path d="M390.5,82.5l0,-27" class="g2_3" />
<path d="M544.5,82.5l0,-27" class="g2_3" />
<path d="M698.5,82.5l0,-27" class="g2_3" />
<path d="M236.5,1155.5l0,-28" class="g2_3" />
<path d="M390.5,1155.5l0,-28" class="g2_3" />
<path d="M544.5,1155.5l0,-28" class="g2_3" />
<path d="M698.5,1155.5l0,-28" class="g2_3" />
<path fill-rule="evenodd" d="M82,82l770,0l0,1045l-770,0Z" class="g3_3" />
<path d="M184.5,209.5l646,0" class="g4_3" />
<path d="M103.5,278.5l727,0" class="g4_3" />
<path d="M82,1097l770,0" class="g5_3" />
<path d="M466.5,1099.5l0,28" class="g4_3" />
<path d="M468.5,1099.5l0,28" class="g4_3" />
<path d="M272.5,1099.5l0,28" class="g4_3" />
<path d="M274.5,1099.5l0,28" class="g4_3" />
<path d="M664.5,1099.5l0,28" class="g4_3" />
<path d="M666.5,1099.5l0,28" class="g4_3" />
<path fill-rule="evenodd" d="M106,289l37,0l0,38l-37,0Z" class="g6_3" />
<path fill-rule="evenodd" d="M103.5,287.5l38,0l0,37l-38,0Z" class="g7_3" />
<path d="M274.5,1099.5l192,0" class="g8_3" />
<path d="M468.5,1099.5l196,0" class="g8_3" />
<path d="M666.5,1099.5l186,0" class="g8_3" />
<path d="M272.5,1099.5l-190,0" class="g8_3" />
<path d="M216.8,386l250.7,73.6L611.6,402.1" class="g9_3" />
<path d="M682.5,373.4L828.4,315.2" class="g9_3" />
<path d="M624,404.8c0,-1.3,3,-2,5.1,-2c2.1,0,5,0.4,5,1.9" class="g8_3" />
<path d="M624,404l0,33" class="g9_3" />
<path d="M634,437l0,-33" class="g9_3" />
<path d="M624,407c0,-1.3,3,-2,5.1,-2c2.1,0,5,0.4,5,1.9" class="g8_3" />
<path d="M624,409.2c0,-1.3,3,-2,5.1,-2c2.1,0,5,0.4,5,1.9" class="g8_3" />
<path d="M624,411.4c0,-1.3,3,-2,5.1,-2c2.1,0,5,0.4,5,1.9" class="g8_3" />
<path d="M624,413.6c0,-1.3,3,-2,5.1,-2c2.1,0,5,0.4,5,1.9" class="g8_3" />
<path d="M624,415.8c0,-1.3,3,-2,5.1,-2c2.1,0,5,0.4,5,1.9" class="g8_3" />
<path d="M624,418c0,-1.3,3,-2,5.1,-2c2.1,0,5,0.4,5,1.9" class="g8_3" />
<path d="M624,420.2c0,-1.3,3,-2,5.1,-2c2.1,0,5,0.4,5,1.9" class="g8_3" />
<path d="M624,422.4c0,-1.3,3,-2,5.1,-2c2.1,0,5,0.4,5,1.9" class="g8_3" />
<path d="M624,424.7c0,-1.4,3,-2.1,5.1,-2.1c2.1,0,5,0.4,5,2" class="g8_3" />
<path d="M624,426.9c0,-1.4,3,-2.1,5.1,-2.1c2.1,0,5,0.4,5,2" class="g8_3" />
<path d="M624,429.1c0,-1.4,3,-2.1,5.1,-2.1c2.1,0,5,0.4,5,2" class="g8_3" />
<path d="M624,431.2c0,-1.4,3,-2.1,5.1,-2.1c2.1,0,5,0.4,5,2" class="g8_3" />
<path d="M624,433.4c0,-1.4,3,-2.1,5.1,-2.1c2.1,0,5,0.4,5,2" class="g8_3" />
<path d="M624,435.6c0,-1.4,3,-2.1,5.1,-2.1c2.1,0,5,0.4,5,2" class="g8_3" />
<path d="M624,437.8c0,-1.3,3,-2,5.1,-2c2.1,0,5,0.4,5,1.9" class="g8_3" />
<path d="M649.8,448.1l0,10c0,4,-9.3,7.3,-20.7,7.3c-11.5,0,-20.8,-3.3,-20.8,-7.3l0,-10" class="g9_3" />
<path d="M608.3,458.1c0,-4.1,9.3,-7.3,20.8,-7.3c11.4,0,20.7,3.2,20.7,7.3" class="g8_3" />
<path d="M608.3,448.1c0,-4,9.3,-7.3,20.8,-7.3c11.4,0,20.7,3.3,20.7,7.3" class="g9_3" />
<path d="M614,442.8c0,-2.9,6.7,-5.3,15.1,-5.3c8.3,0,15,2.4,15,5.3" class="g9_3" />
<path d="M647.3,458.1c0,3.5,-8.2,6.4,-18.2,6.4c-10.1,0,-18.3,-2.9,-18.3,-6.4" class="g8_3" />
<path d="M610.8,458.1c0,-3.6,8.2,-6.4,18.3,-6.4c10,0,18.2,2.8,18.2,6.4" class="g8_3" />
<path d="M628.5,450.5l0,-10" class="g8_3" />
<path d="M626.5,450.5l0,-10" class="g8_3" />
<path d="M624.5,450.5l0,-10" class="g8_3" />
<path d="M623.5,451.5l0,-10" class="g8_3" />
<path d="M621.5,451.5l0,-10" class="g8_3" />
<path d="M620.5,451.5l0,-10" class="g8_3" />
<path d="M618.5,451.5l0,-10" class="g8_3" />
<path d="M617.5,452.5l0,-10" class="g8_3" />
<path d="M616.5,452.5l0,-10" class="g8_3" />
<path d="M615.5,452.5l0,-10" class="g8_3" />
<path d="M613.5,453.5l0,-10" class="g8_3" />
<path d="M612.5,453.5l0,-10" class="g8_3" />
<path d="M611.5,453.5l0,-9" class="g8_3" />
<path d="M610.5,454.5l0,-10" class="g8_3" />
<path d="M608.5,456.5l0,-10" class="g8_3" />
<path d="M630.5,450.5l0,-10" class="g8_3" />
<path d="M631.5,450.5l0,-10" class="g8_3" />
<path d="M633.5,450.5l0,-10" class="g8_3" />
<path d="M635.5,451.5l0,-10" class="g8_3" />
<path d="M636.5,451.5l0,-10" class="g8_3" />
<path d="M638.5,451.5l0,-10" class="g8_3" />
<path d="M639.5,451.5l0,-10" class="g8_3" />
<path d="M640.5,451.5l0,-9" class="g8_3" />
<path d="M641.5,452.5l0,-10" class="g8_3" />
<path d="M643.5,452.5l0,-10" class="g8_3" />
<path d="M644.5,453.5l0,-10" class="g8_3" />
<path d="M645.5,453.5l0,-10" class="g8_3" />
<path d="M646.5,454.5l0,-10" class="g8_3" />
<path d="M647.5,454.5l0,-10" class="g8_3" />
<path d="M648.5,455.5l0,-10" class="g8_3" />
<path d="M648.5,455.5l0,-10" class="g8_3" />
<path d="M676.8,384.1c0,-1.4,2.9,-2.1,5,-2.1c2.1,0,5,0.4,5,2" class="g8_3" />
<path d="M676,384l0,32" class="g9_3" />
<path d="M686,417l0,-33" class="g9_3" />
<path d="M676.8,386.3c0,-1.4,2.9,-2.1,5,-2.1c2.1,0,5,0.4,5,2" class="g8_3" />
<path d="M676.8,388.5c0,-1.4,2.9,-2.1,5,-2.1c2.1,0,5,0.4,5,2" class="g8_3" />
<path d="M676.8,390.7c0,-1.4,2.9,-2.1,5,-2.1c2.1,0,5,0.4,5,2" class="g8_3" />
<path d="M676.8,392.9c0,-1.4,2.9,-2.1,5,-2.1c2.1,0,5,0.4,5,2" class="g8_3" />
<path d="M676.8,395.1c0,-1.4,2.9,-2,5,-2c2.1,0,5,0.4,5,1.9" class="g8_3" />
<path d="M676.8,397.3c0,-1.4,2.9,-2.1,5,-2.1c2.1,0,5,0.4,5,2" class="g8_3" />
<path d="M676.8,399.5c0,-1.4,2.9,-2.1,5,-2.1c2.1,0,5,0.4,5,2" class="g8_3" />
<path d="M676.8,401.7c0,-1.4,2.9,-2.1,5,-2.1c2.1,0,5,0.4,5,2" class="g8_3" />
<path d="M676.8,403.9c0,-1.3,2.9,-2,5,-2c2.1,0,5,0.4,5,1.9" class="g8_3" />
<path d="M676.8,406.1c0,-1.3,2.9,-2,5,-2c2.1,0,5,0.4,5,1.9" class="g8_3" />
<path d="M676.8,408.3c0,-1.3,2.9,-2,5,-2c2.1,0,5,0.4,5,1.9" class="g8_3" />
<path d="M676.8,410.4c0,-1.3,2.9,-2,5,-2c2.1,0,5,0.4,5,1.9" class="g8_3" />
<path d="M676.8,412.6c0,-1.3,2.9,-2,5,-2c2.1,0,5,0.4,5,1.9" class="g8_3" />
<path d="M676.8,414.8c0,-1.3,2.9,-2,5,-2c2.1,0,5,0.4,5,1.9" class="g8_3" />
<path d="M676.8,417.1c0,-1.4,2.9,-2.1,5,-2.1c2.1,0,5,0.4,5,2" class="g8_3" />
<path d="M702.6,427.4l0,9.9c0,4,-9.3,7.3,-20.8,7.3c-11.5,0,-20.8,-3.3,-20.8,-7.3l0,-9.9" class="g9_3" />
<path d="M661,437.3c0,-4,9.3,-7.3,20.8,-7.3c11.5,0,20.8,3.3,20.8,7.3" class="g8_3" />
<path d="M661,427.4c0,-4,9.3,-7.3,20.8,-7.3c11.5,0,20.8,3.3,20.8,7.3" class="g9_3" />
<path d="M666.7,422c0,-2.9,6.8,-5.3,15.1,-5.3c8.3,0,15.1,2.4,15.1,5.3" class="g9_3" />
<path d="M700,437.3c0,3.5,-8.1,6.4,-18.2,6.4c-10.1,0,-18.2,-2.9,-18.2,-6.4" class="g8_3" />
<path d="M663.6,437.3c0,-3.5,8.1,-6.4,18.2,-6.4c10.1,0,18.2,2.9,18.2,6.4" class="g8_3" />
<path d="M681.5,430.5l0,-10" class="g8_3" />
<path d="M679.5,430.5l0,-10" class="g8_3" />
<path d="M677.5,430.5l0,-10" class="g8_3" />
<path d="M675.5,430.5l0,-10" class="g8_3" />
<path d="M674.5,430.5l0,-10" class="g8_3" />
<path d="M672.5,430.5l0,-10" class="g8_3" />
<path d="M671.5,430.5l0,-10" class="g8_3" />
<path d="M670.5,431.5l0,-10" class="g8_3" />
<path d="M668.5,431.5l0,-10" class="g8_3" />
<path d="M667.5,431.5l0,-9" class="g8_3" />
<path d="M666.5,432.5l0,-10" class="g8_3" />
<path d="M665.5,432.5l0,-10" class="g8_3" />
<path d="M664.5,433.5l0,-10" class="g8_3" />
<path d="M663.5,433.5l0,-10" class="g8_3" />
<path d="M661.5,435.5l0,-10" class="g8_3" />
<path d="M682.5,430.5l0,-10" class="g8_3" />
<path d="M684.5,429.5l0,-9" class="g8_3" />
<path d="M686.5,430.5l0,-10" class="g8_3" />
<path d="M687.5,430.5l0,-10" class="g8_3" />
<path d="M689.5,430.5l0,-10" class="g8_3" />
<path d="M691.5,430.5l0,-10" class="g8_3" />
<path d="M692.5,431.5l0,-10" class="g8_3" />
<path d="M693.5,431.5l0,-10" class="g8_3" />
<path d="M694.5,431.5l0,-10" class="g8_3" />
<path d="M695.5,431.5l0,-10" class="g8_3" />
<path d="M697.5,432.5l0,-10" class="g8_3" />
<path d="M698.5,432.5l0,-10" class="g8_3" />
<path d="M699.5,433.5l0,-10" class="g8_3" />
<path d="M700.5,433.5l0,-10" class="g8_3" />
<path d="M701.5,434.5l0,-10" class="g8_3" />
<path d="M701.5,435.5l0,-10" class="g8_3" />
<path d="M623.2,409.6l-9.5,-2.9c0,0,-1.6,-1,-1.6,-2.4c0,-1.3,-0.1,-3.4,-0.1,-3.4c0,0,0.3,-1,1.8,-1.6c1.5,-0.5,62.1,-24.8,62.1,-24.8c0,0,4.3,-1.4,9.7,-0.2c5.5,1.3,31.9,9.3,31.9,9.3c0,0,2.1,1,2.2,-1.5c0.2,-2.4,-0.2,-8.1,-0.2,-8.1l3.8,1.2l0.2,9.3c0,0,0.1,2.8,-3.9,4.5c-4,1.6,-3.6,1.4,-3.6,1.4" class="g9_3" />
<path d="M719,382l0,-23" class="g9_3" />
<path d="M697.7,376.6c1.2,-1.1,2.4,-5.1,2.3,-9" class="g9_3" />
<path d="M715.5,382.5l0,-22" class="g8_3" />
<path d="M613.7,404.1l62.6,-25c0,0,3.3,-1.7,9.1,-0.1c5.8,1.6,31.8,9.1,31.8,9.1c0,0,3,0.9,4.1,0" class="g8_3" />
<path d="M661,429.4c-4.3,1.9,-6.1,2.9,-6.8,3.1c-0.7,0.2,-1.1,0.5,-4.7,-0.5c-3.6,-1,-4.2,-1.9,-4.5,-4.8c-0.3,-2.9,-0.8,-9.1,-0.8,-9.1l15.4,-5.8c0,0,1.6,-0.5,1.6,-2.8c0,-2.3,0.1,-4.2,0.1,-4.2" class="g9_3" />
<path d="M634.9,412.6l11.4,3.5" class="g9_3" />
<path d="M661.3,405.3c0,0,-0.6,-1,-1.7,-0.5c-1.1,0.5,-4.8,2.1,-4.8,2.1" class="g9_3" />
<path d="M688,393.9l3.6,-1.7c0,0,3.1,-0.3,4.4,0.1c1.3,0.4,7,2,7,2" class="g9_3" />
<path d="M700.2,395.8l12.7,-5.1c0,0,2.1,-0.4,4,0.4c1.9,0.8,2.1,1.6,2.1,2.6c0,1,0,7,0,7c0,0,-0.8,5.7,-4.9,7.7c-4.1,2,-19.9,8,-19.9,8" class="g9_3" />
<path d="M691.2,393.3c1.2,1.2,1.4,2.3,1.4,4.2c0,1.9,0.2,16.1,0.2,16.1c0,0,0,1.6,1.3,2.8c0.8,0.8,2.6,1.3,3.8,1.5c2.9,0.6,3.1,1.4,3.1,1.4c0,0,0.9,3.5,-0.7,4" class="g9_3" />
<path d="M661.2,409.5c-0.1,5.6,-0.1,15,-0.1,15l0,2.3" class="g9_3" />
<path d="M660.8,426.3c0,0,-8.3,4,-9.7,4.3c-1.4,0.4,-4.4,0.7,-4.9,-0.1" class="g8_3" />
<path d="M694.2,413.6l16.3,-6.5c0,0,4.2,-1.8,4.6,-8.1c0.4,-6.3,0.2,-7.3,0.2,-7.3" class="g8_3" />
<path d="M688,393.9c0.8,1,1,1.6,1.1,3.1c0.1,1.5,0.1,16.5,0.1,16.5c0,0,-0.4,3.2,1,4.1" class="g8_3" />
<path d="M654.1,408l5.9,2" class="g8_3" />
<path d="M574,485.2c-6.1,-2.1,-14.8,-6.9,-15.5,-12.7C557.8,466.6,565.1,460,570,458" class="g9_3" />
<path fill-rule="evenodd" d="M574,485.2l13,-5l0.1,-5.5c0,0,-16.7,-4.7,-16.6,-8.4c0,-3.8,4.6,-5.6,6.2,-6.2c1.5,-0.7,9.6,2.3,9.6,2.3l3.9,-9.1l0,-5.5l-26.9,2.8l0,5.3c0,0,0.1,0.3,-0.5,1.2c-0.5,1,-3.5,3.6,-3.7,5.7c-0.2,2.1,-1.4,6.5,-0.6,9.6c0.8,3.2,2.1,6.8,15.5,12.8Z" class="g10_3" />
<path fill-rule="evenodd" d="M574.3,485.3L587,480.2c-0.7,0.3,-10.6,-3.1,-12,-4.5c-0.8,-0.8,-4.1,-2.3,-5,-5.4c-0.4,-1.1,0.1,-2.4,0.7,-3.9c1.5,-3.5,4.2,-4.9,5.7,-5.5c1.6,-0.7,10.1,2.2,10.1,2.2l3.9,-9.8L563.5,456c0,0,6.5,2,5.3,2.5c-1.2,0.6,-7.5,4.9,-9.1,8.7c-1.6,3.7,-1.8,2.2,-1,5.3c0.8,3.2,2.2,6.8,15.6,12.8Z" class="g11_3" />
<path d="M563.3,450.6l0,5.6l7,1.8" class="g9_3" />
<path d="M576.7,460.1l9.6,2.3l3.8,-9.1l0,-5.5l-26.8,2.8" class="g9_3" />
<path d="M563.3,456.2l26.8,-2.9" class="g8_3" />
<path d="M574.3,485.3L587,480.2l0.1,-5.5c0,0,-14.4,-3.3,-16.9,-9" class="g9_3" />
<path d="M576.7,460.1c-4.4,1.8,-7.2,4.9,-7,8.6" class="g9_3" />
<path d="M564.1,456.4c-3.5,3,-5.4,6.1,-5.7,9.3c-0.3,3.3,0,6.1,0,6.1c0,0,0.2,7.7,15.9,13.5" class="g9_3" />
<path d="M569.7,468.7c-0.1,4.5,6.9,9.2,17.3,11.5" class="g8_3" />
<path d="M570.3,458c-5.1,1.8,-12.1,8.5,-11.9,13.8" class="g8_3" />
<path fill-rule="evenodd" d="M745.9,444.8l-0.1,6.8l-26.7,2.8l0,-5.6l4,-9.2l9.3,2.5l3.4,-1.8l2.4,-2.7l-0.1,-2.8l-3,-2.5l-4.7,-2.5l-3.7,-1.3l-4.1,-1.1l0,-5.7l12.7,-5l7.5,3.7l4.6,3.4l3.1,4.3l0.5,3.7l0,3.6l-0.7,3.5l-1.7,3.1Z" class="g10_3" />
<path d="M722.6,427.4l0,-5.7l12.7,-5" class="g9_3" />
<path d="M719.1,454.4l0,-5.6l4,-9.2l9.3,2.5c0,0,5,-1.3,6.5,-6.1" class="g9_3" />
<path d="M723.7,445.2l-0.6,-5.6" class="g8_3" />
<path d="M732.5,447.4l-0.1,-5.3" class="g8_3" />
<path fill-rule="evenodd" d="M746.7,444.1l-7.7,5.2l6.8,2.3l-26.7,2.8l4.6,-9.2l8.8,2.2l2.8,-1.2l2.5,-2.1l1.4,-2l0.7,-2.4l-0.1,-1.8l-1.7,-3.1l-3,-2.5l-4.7,-2.5l-3.7,-1.3l-4.1,-1.1l12.7,-5l5.1,2.1l4.4,2.6l4,3.4l1.6,2.6L751,436l-0.5,2.3l-1.9,3.7Z" class="g11_3" />
<path d="M739.9,438.9c0.1,-4.7,-8,-9.5,-17.3,-11.5" class="g9_3" />
<path d="M735.3,422.4c9.3,3.3,15.2,8.1,15.7,13" class="g8_3" />
<path d="M722.6,427.4l12.7,-5l0,-5.7" class="g8_3" />
<path d="M739,449.3c5.5,-2.6,11.9,-7.8,12,-13.3c0.1,-5.5,-0.1,-6,-0.1,-6c0,0,0.3,-7.1,-15.6,-13.3" class="g9_3" />
<path d="M719.1,454.4l4.6,-9.2l8.8,2.2c0,0,7.2,-1.9,7.4,-8.5" class="g8_3" />
<path d="M719.1,454.4l26.7,-2.8l0.2,-5.4" class="g9_3" />
<path d="M739,449.3l6.8,2.3" class="g8_3" />
<path d="M662.5,434.5l0,-10" class="g8_3" />
<path d="M609.5,455.5l0,-10" class="g8_3" />
<path fill-rule="evenodd" d="M440.1,541.4c99.8,0,180.6,58.1,180.6,129.7c0,71.7,-80.8,129.8,-180.6,129.8c-99.7,0,-180.5,-58.1,-180.5,-129.8c0,-71.6,80.8,-129.7,180.5,-129.7Z" class="g1_3" />
<path fill-rule="evenodd" d="M440.1,547.2c92.2,0,172.6,55.5,172.6,123.9c0,68.5,-77.3,124,-172.6,124c-98,0,-172.5,-55.5,-172.5,-124c0,-68.4,77.3,-123.9,172.5,-123.9Z" class="g12_3" />
<path d="M497.5,734.1c0.7,0,1,0.8,1,1.5c0,0.7,-0.1,15.3,-0.1,15.3c0,0,0.1,5.4,5.9,5.3c5.8,0,7.9,0,7.9,0l0,-4.1c0,0,-7.7,0,-8.3,0.1c-0.6,0,-1.4,-0.6,-1.4,-1.5c0,-0.9,0,-14.8,0,-15.5c0,-0.7,-0.4,-1.2,-0.4,-1.2l-36.4,0.1l-0.2,-4l40.8,0c0,0,1.9,-0.2,1.9,-1.3c0,-1.1,0,-7.9,0,-7.9l3.9,-0.2l0.1,8.4c0,0,-0.2,5,-5.1,5c-5,-0.1,-5,-0.1,-5,-0.1" class="g9_3" />
<path d="M472.1,730.1l0.1,-15.4l8.3,0l0,15.4" class="g9_3" />
<path d="M472,734.1l0,18.6l-7.2,0l0,3.9c0,0,-0.2,1.1,-0.9,1.2" class="g9_3" />
<path d="M480.7,734.1l0,18.6l7.2,0l0,3.9c0,0,0.1,1.1,0.9,1.2" class="g9_3" />
<path d="M472,752l8,0" class="g9_3" />
<path d="M459,757l34,0l0,9l-34,0Z" class="g9_3" />
<path d="M463.1,766.6c6,4.2,17,6.2,27.3,-0.3" class="g9_3" />
<path d="M460.9,757.9c0,-0.2,0,8.2,0,8.2" class="g8_3" />
<path d="M462.4,757.9c0,-0.2,0,8.2,0,8.2" class="g8_3" />
<path d="M464.3,757.9c0,-0.2,0,8.2,0,8.2" class="g8_3" />
<path d="M466.4,757.9c0,-0.2,0,8.2,0,8.2" class="g8_3" />
<path d="M468.5,757.9c0,-0.2,0,8.2,0,8.2" class="g8_3" />
<path d="M470.7,757.9c0,-0.2,0,8.2,0,8.2" class="g8_3" />
<path d="M472.5,757.9c0,-0.2,0,8.2,0,8.2" class="g8_3" />
<path d="M474.4,757.9c0,-0.2,0,8.2,0,8.2" class="g8_3" />
<path d="M476.6,757.9c0,-0.2,0,8.2,0,8.2" class="g8_3" />
<path d="M478.6,757.9c0,-0.2,0,8.2,0,8.2" class="g8_3" />
<path d="M480.8,757.9c0,-0.2,0,8.2,0,8.2" class="g8_3" />
<path d="M482.9,757.9c0,-0.2,0,8.2,0,8.2" class="g8_3" />
<path d="M484.8,757.9c0,-0.2,0,8.2,0,8.2" class="g8_3" />
<path d="M486.3,757.9c0,-0.2,0,8.2,0,8.2" class="g8_3" />
<path d="M487.9,757.9c0,-0.2,0,8.2,0,8.2" class="g8_3" />
<path d="M489.5,757.9c0,-0.2,0,8.2,0,8.2" class="g8_3" />
<path d="M490.9,757.9c0,-0.2,0,8.2,0,8.2" class="g8_3" />
<path d="M492.1,757.9c0,-0.2,0,8.2,0,8.2" class="g8_3" />
<path d="M457.9,680.4l0,-4.2l36.8,0c0,0,7.8,0.2,8.7,-8.2" class="g9_3" />
<path d="M495,680.4c3.6,-0.2,7.1,-2.3,8.4,-3.9" class="g9_3" />
<path d="M503.4,730.1l0,-139.3c0,0,-0.3,-8.8,-10.1,-8.7c-9.9,0,-94.3,0,-94.3,0l0,-3.9l94.4,0c0,0,13.9,0,13.9,12.7c0,12.8,0,138.9,0,138.9" class="g9_3" />
<path d="M507.1,734.1l0,15.6l-3.7,0l0,-15.7" class="g9_3" />
<path d="M399,582.1l0,56c0,0,0.5,1.4,2.1,1.5c1.6,0.1,91.8,0,91.8,0c0,0,1.5,-0.1,1.6,-1.9c0,-1.9,0,-51.1,0,-51.1c0,0,-1.1,-4.5,-3.8,-4.5" class="g9_3" />
<path d="M494.5,618.4l3.2,0l1.6,1.9l0,18.5l-5.2,0" class="g9_3" />
<path d="M472,751l8.7,-1.5" class="g8_3" />
<path d="M472,749.3l8.7,-1.4" class="g8_3" />
<path d="M472,747.6l8.7,-1.4" class="g8_3" />
<path d="M472,746l8.7,-1.4" class="g8_3" />
<path d="M472,744.3l8.7,-1.4" class="g8_3" />
<path d="M472,742.7l8.7,-1.5" class="g8_3" />
<path d="M472,740.9l8.7,-1.4" class="g8_3" />
<path d="M472,739.2l8.7,-1.4" class="g8_3" />
<path d="M472,737.6l8.7,-1.5" class="g8_3" />
<path d="M472,736l8.7,-1.4" class="g8_3" />
<path d="M472,729.4l8.7,-1.4" class="g8_3" />
<path d="M472,727.7l8.7,-1.4" class="g8_3" />
<path d="M472,726l8.7,-1.4" class="g8_3" />
<path d="M472,724.3l8.7,-1.4" class="g8_3" />
<path d="M472,722.6l8.7,-1.4" class="g8_3" />
<path d="M472,721l8.7,-1.5" class="g8_3" />
<path d="M472.1,719.3l8.6,-1.4" class="g8_3" />
<path d="M472.1,717.7l8.6,-1.4" class="g8_3" />
<path d="M472.1,716.1l8.6,-1.4" class="g8_3" />
<path fill-rule="evenodd" d="M269.1,680.4l232.9,0l0,33.5l-222.7,0l-3.9,-8.5l-2.5,-7.1l-1.7,-6L270,686.4Z" class="g10_3" />
<path d="M268.5,680.4l232,0c0,0,2,0.5,2,1.8c0,1.4,-0.1,30.2,-0.1,30.2c0,0,0.4,2,-1.9,2c-2.3,0,-221.4,0,-221.4,0" class="g9_3" />
<path d="M499.5,625.2c2.1,0,3.4,0,3.4,0" class="g13_3" />
<path d="M507.4,625.3c7,-0.1,20.2,5.2,20.2,19c0,13.9,0.2,131.3,0.2,133.6" class="g13_3" />
<path d="M499.5,633.2c2.1,0,3.4,0,3.4,0" class="g13_3" />
<path d="M507.6,633.4c7,-0.2,11.7,4.4,11.7,14.2c0,9.9,0.1,131.4,0.1,133.7" class="g13_3" />
<path d="M258,680l-88,0" class="g14_3" />
<path d="M266,715l-96,0" class="g15_3" />
<path d="M185.6,678.9l-6.3,-12.4l12.5,0Zm-1.1,-11.8l2.1,0l0,0.1l-0.1,0l0,0.1l0,0.1l-0.1,0l0,0.1l-0.1,0.1l-0.1,0l0,0.1l-0.1,0l-0.1,0l-0.1,0.1l-0.1,0l-0.1,0l-0.1,0l-0.1,0l-0.1,0l-0.1,0l-0.1,0l-0.1,-0.1l-0.1,0l-0.1,0l0,-0.1l-0.1,0l-0.1,-0.1l0,-0.1l-0.1,0l0,-0.1l0,-0.1l-0.1,0l0,-0.1Zm2.1,-20.8l0,20.8l-2.1,0l0,-20.8Zm0,0l-2.1,0l0,-0.1l0.1,0l0,-0.1l0,-0.1l0.1,0l0,-0.1l0.1,-0.1l0.1,0l0,-0.1l0.1,0l0.1,0l0.1,-0.1l0.1,0l0.1,0l0.1,0l0.1,0l0.1,0l0.1,0l0.1,0l0.1,0.1l0.1,0l0.1,0l0,0.1l0.1,0l0.1,0.1l0,0.1l0.1,0l0,0.1l0,0.1l0.1,0l0,0.1Z" class="g6_3" />
<path d="M185.6,717l6.2,12.4l-12.5,0Zm-1.1,11.8l0,0l0,-0.1l0.1,0l0,-0.1l0,-0.1l0.1,0l0,-0.1l0.1,0l0,-0.1l0.1,0l0.1,-0.1l0.1,0l0.1,0l0.1,0l0,-0.1l0.1,0l0.1,0l0.1,0l0.1,0l0.1,0l0,0.1l0.1,0l0.1,0l0.1,0l0.1,0.1l0.1,0l0,0.1l0.1,0l0,0.1l0.1,0l0,0.1l0,0.1l0.1,0l0,0.1Zm2.1,18.7l-2.1,0l0,-18.7l2.1,0Zm0,0l0,0l0,0.1l-0.1,0l0,0.1l0,0.1l-0.1,0l0,0.1l-0.1,0l-0.1,0.1l-0.1,0l-0.1,0.1l-0.1,0l-0.1,0l-0.1,0l-0.1,0l-0.1,0l-0.1,0l-0.1,0l-0.1,0l-0.1,0L185,748l-0.1,0l-0.1,-0.1l-0.1,0l0,-0.1l-0.1,0l0,-0.1l0,-0.1l-0.1,-0.1Z" class="g6_3" />
<path d="M702,595c1,0.1,2.1,-0.1,3.1,-0.4" class="g8_3" />
<path d="M711.3,591.1c1,4.7,-8.8,9.4,-11.1,4.6c-0.1,-0.2,-0.2,-0.5,-0.3,-0.7" class="g8_3" />
<path d="M701.4,598.9c2.3,5,13.2,-0.6,10.9,-5.4" class="g8_3" />
<path d="M703.2,597.6c1.5,3.3,8.5,-0.3,7,-3.5" class="g8_3" />
<path d="M711.4,592.2c0.5,0.4,0.5,0.7,0.7,1c0,0,0.8,1.9,1.3,3c2.2,4.9,-8.5,10.4,-10.8,5.4c-0.8,-1.8,-1,-2.2,-1,-2.1c-0.2,-0.4,-0.5,-1.2,-0.2,-1.9" class="g8_3" />
<path d="M704.1,604.7c2.2,5.1,13.2,-0.4,11,-5.2" class="g8_3" />
<path d="M705.9,603.4c1.5,3.3,8.5,-0.2,7.1,-3.3" class="g8_3" />
<path d="M713.7,597.8c0.7,0.3,1,1,1.2,1.4c0,0,0.8,1.9,1.3,3c2.1,4.9,-8.7,10.2,-11,5.1c-0.8,-1.7,-0.9,-2.1,-0.9,-2c-0.2,-0.4,-0.5,-1.2,-0.2,-1.9" class="g8_3" />
<path d="M706.8,610.6c2,5.2,13.2,0.2,11.2,-4.8" class="g8_3" />
<path d="M708.7,609.4c1.3,3.4,8.5,0.1,7.2,-3.1" class="g8_3" />
<path d="M716.7,604.1c0.7,0.3,0.9,1.1,1.1,1.4c0,0,0.7,2,1.2,3.1c1.9,5,-9.1,9.9,-11.2,4.7c-0.7,-1.8,-0.8,-2.2,-0.8,-2.1c-0.2,-0.4,-0.4,-1.2,-0.1,-1.9" class="g8_3" />
<path d="M709,616.4c1.7,5.3,13.1,0.9,11.3,-4.2" class="g8_3" />
<path d="M710.9,615.3c1.1,3.4,8.5,0.6,7.3,-2.7" class="g8_3" />
<path d="M719.1,610.5c0.7,0.3,0.9,1,1.1,1.4c0,0,0.6,2,1,3.1c1.6,5.1,-9.6,9.4,-11.4,4.2c-0.6,-1.8,-0.7,-2.2,-0.7,-2.1c-0.2,-0.5,-0.4,-1.3,0,-2" class="g8_3" />
<path d="M710.9,622.2c1.7,5.3,13.1,1.1,11.4,-4" class="g8_3" />
<path d="M712.8,621.2c1.1,3.4,8.5,0.7,7.4,-2.6" class="g8_3" />
<path d="M721.2,616.4c0.6,0.4,0.8,1.1,1,1.5c0,0,0.6,2,0.9,3.1c1.7,5.1,-9.7,9.3,-11.4,4c-0.6,-1.8,-0.7,-2.2,-0.7,-2.1c-0.2,-0.4,-0.3,-1.2,0.1,-1.9" class="g8_3" />
<path d="M713,628.1c1.6,5.3,13.1,1.3,11.5,-3.8" class="g8_3" />
<path d="M715,627.1c1,3.4,8.4,0.8,7.4,-2.5" class="g8_3" />
<path d="M723.4,622.5c0.6,0.4,0.8,1.1,1,1.5c0,0,0.5,2,0.9,3.1c1.5,5.1,-9.9,9.1,-11.5,3.8c-0.6,-1.8,-0.7,-2.2,-0.7,-2.2c-0.2,-0.4,-0.3,-1.2,0.1,-1.9" class="g8_3" />
<path d="M714.8,634.1c1.4,5.4,13,1.5,11.5,-3.6" class="g8_3" />
<path d="M716.7,633.1c1,3.5,8.5,1,7.5,-2.3" class="g8_3" />
<path d="M725.2,628.7c0.6,0.4,0.8,1.1,1,1.5c0,0,0.5,2,0.8,3.1c1.4,5.2,-10,9,-11.5,3.6c-0.6,-1.8,-0.7,-2.2,-0.6,-2.1c-0.2,-0.4,-0.3,-1.3,0,-1.9" class="g8_3" />
<path d="M716.3,640.2c1.3,5.4,13,2,11.7,-3.2" class="g8_3" />
<path d="M718.3,639.3c0.8,3.5,8.4,1.3,7.5,-2.1" class="g8_3" />
<path d="M726.9,635.1c0.6,0.4,0.8,1.2,0.9,1.6c0,0,0.5,2,0.8,3.2c1.2,5.1,-10.4,8.5,-11.7,3.1c-0.5,-1.8,-0.6,-2.2,-0.6,-2.1c-0.1,-0.5,-0.2,-1.3,0.2,-2" class="g8_3" />
<path d="M717.8,646.4c1.3,5.4,13,2,11.7,-3.2" class="g8_3" />
<path d="M719.8,645.5c0.8,3.5,8.4,1.3,7.5,-2.1" class="g8_3" />
<path d="M728.4,641.4c0.6,0.3,0.8,1.1,0.9,1.5c0,0,0.5,2,0.8,3.2c1.2,5.1,-10.4,8.5,-11.7,3.2c-0.5,-1.9,-0.6,-2.3,-0.6,-2.2c-0.1,-0.5,-0.2,-1.3,0.2,-1.9" class="g8_3" />
<path d="M719,652.4c1.2,5.4,13,2.2,11.7,-3" class="g8_3" />
<path d="M721,651.5c0.8,3.5,8.4,1.4,7.6,-1.9" class="g8_3" />
<path d="M729.7,647.5c0.6,0.4,0.8,1.2,0.9,1.6c0,0,0.4,2,0.7,3.2c1.1,5.2,-10.5,8.4,-11.8,2.9C719.1,653.4,719,653,719,653.1c-0.1,-0.5,-0.2,-1.3,0.2,-2" class="g8_3" />
<path d="M719.9,658.3c0.8,5.5,12.8,2.9,11.8,-2.3" class="g8_3" />
<path d="M721.9,657.5c0.6,3.6,8.3,1.9,7.7,-1.5" class="g8_3" />
<path d="M730.9,654c0.5,0.5,0.6,1.2,0.7,1.6c0,0,0.4,2.1,0.5,3.3c0.9,5.2,-10.9,7.7,-11.8,2.3c-0.4,-1.9,-0.4,-2.3,-0.4,-2.2c-0.2,-0.5,-0.2,-1.3,0.3,-1.9" class="g8_3" />
<path d="M720.7,664.5c0.6,5.6,12.7,3.8,12.1,-1.5" class="g8_3" />
<path d="M722.8,663.9c0.4,3.6,8.2,2.4,7.8,-1" class="g8_3" />
<path d="M732,661c0.5,0.4,0.6,1.2,0.7,1.6c0,0,0.1,2.1,0.3,3.3c0.5,5.3,-11.4,7.1,-12,1.5c-0.2,-1.8,-0.3,-2.3,-0.3,-2.2c-0.1,-0.4,-0.1,-1.3,0.4,-1.9" class="g8_3" />
<path d="M721.5,670.8c0.4,5.6,12.6,3.9,12,-1.4" class="g8_3" />
<path d="M723.6,670.2c0.3,3.6,8.1,2.6,7.8,-0.9" class="g8_3" />
<path d="M732.8,667.5c0.5,0.4,0.6,1.2,0.7,1.6c0,0,0.1,2.1,0.2,3.3c0.4,5.3,-11.5,6.9,-12,1.3c-0.2,-1.9,-0.2,-2.3,-0.2,-2.2c-0.1,-0.5,-0.1,-1.3,0.4,-1.9" class="g8_3" />
<path d="M722,677.2c0.4,5.5,12.5,4,12,-1.3" class="g8_3" />
<path d="M724.1,676.6c0.3,3.6,8.1,2.6,7.8,-0.8" class="g8_3" />
<path d="M733.3,673.9c0.6,0.4,0.6,1.2,0.7,1.6c0,0,0.1,2.1,0.2,3.3c0.4,5.3,-11.6,6.8,-12,1.3C722,678.2,722,677.8,722,677.9c-0.1,-0.5,-0.1,-1.3,0.4,-1.9" class="g8_3" />
<path d="M722.3,683.6c0.3,5.5,12.5,4.1,12,-1.2" class="g8_3" />
<path d="M724.4,683c0.2,3.6,8.1,2.7,7.8,-0.8" class="g8_3" />
<path d="M733.6,680.3c0.5,0.5,0.6,1.3,0.6,1.7c0,0,0.2,2.1,0.2,3.3c0.4,5.3,-11.6,6.7,-12,1.2c-0.2,-1.9,-0.2,-2.3,-0.2,-2.2c-0.1,-0.5,0,-1.3,0.5,-1.9" class="g8_3" />
<path d="M722.5,689.4c0.1,5.6,12.3,4.6,12.1,-0.7" class="g8_3" />
<path d="M724.6,688.9c0.1,3.6,8,3,7.8,-0.4" class="g8_3" />
<path d="M733.9,686.6c0.5,0.5,0.6,1.3,0.6,1.7c0,0,0,2.1,0.1,3.3c0.1,5.3,-11.9,6.3,-12.1,0.7c-0.1,-1.9,-0.1,-2.3,-0.1,-2.2c-0.1,-0.5,0,-1.3,0.6,-1.9" class="g8_3" />
<path d="M722.4,695.6c-0.1,5.5,12.1,5.1,12.1,-0.3" class="g8_3" />
<path d="M724.6,695.2c-0.1,3.6,7.8,3.3,7.8,-0.2" class="g8_3" />
<path d="M734,693.3c0.4,0.5,0.4,1.3,0.5,1.7c0,0,-0.1,2,-0.1,3.2c-0.1,5.4,-12.1,5.8,-12.1,0.3c0,-1.9,0,-2.3,0,-2.2c-0.1,-0.5,0.1,-1.3,0.6,-1.9" class="g8_3" />
<path d="M722.2,701.6c-0.1,5.6,12.1,5.3,12.1,0" class="g8_3" />
<path d="M724.4,701.3c-0.1,3.6,7.8,3.4,7.8,-0.1" class="g8_3" />
<path d="M733.8,699.5c0.5,0.5,0.5,1.3,0.5,1.7c0,0,-0.1,2.1,-0.1,3.3c-0.2,5.3,-12.2,5.6,-12.1,0c0,-1.9,0,-2.3,0,-2.2c0,-0.5,0.1,-1.3,0.7,-1.8" class="g8_3" />
<path d="M721.9,707.8c-0.3,5.5,11.9,5.6,12.1,0.3" class="g8_3" />
<path d="M724.1,707.5c-0.2,3.6,7.7,3.6,7.8,0.2" class="g8_3" />
<path d="M733.6,706c0.4,0.6,0.4,1.3,0.4,1.8c0,0,-0.2,2,-0.2,3.2c-0.3,5.3,-12.4,5.2,-12.1,-0.3c0.1,-1.9,0.1,-2.3,0.1,-2.2c-0.1,-0.5,0.1,-1.3,0.7,-1.8" class="g8_3" />
<path d="M721.6,714.1c-0.4,5.6,11.9,5.6,12.1,0.3" class="g8_3" />
<path d="M723.7,713.8c-0.2,3.6,7.7,3.7,7.9,0.2" class="g8_3" />
<path d="M733.2,712.3c0.5,0.6,0.4,1.3,0.4,1.7c0,0,-0.1,2.1,-0.2,3.3c-0.3,5.3,-12.3,5.3,-12.1,-0.3c0.1,-1.9,0.1,-2.3,0.1,-2.2c0,-0.5,0.1,-1.3,0.7,-1.8" class="g8_3" />
<path d="M721.1,720.1c-0.5,5.6,11.7,6,12.1,0.7" class="g8_3" />
<path d="M723.3,719.9c-0.3,3.6,7.6,3.9,7.8,0.4" class="g8_3" />
<path d="M732.8,718.7c0.5,0.6,0.4,1.3,0.4,1.7c0,0,-0.2,2.1,-0.3,3.3c-0.5,5.3,-12.6,4.8,-12.1,-0.7c0.1,-1.9,0.2,-2.3,0.2,-2.2c-0.1,-0.5,0.1,-1.3,0.7,-1.8" class="g8_3" />
<path d="M720.6,726.3c-0.5,5.5,11.7,6,12.1,0.7" class="g8_3" />
<path d="M722.8,726.1c-0.4,3.6,7.5,3.9,7.8,0.4" class="g8_3" />
<path d="M732.3,724.9c0.4,0.6,0.4,1.3,0.3,1.8c0,0,-0.2,2,-0.3,3.2c-0.4,5.3,-12.5,4.8,-12.1,-0.7c0.2,-1.9,0.2,-2.3,0.2,-2.2c0,-0.5,0.2,-1.3,0.8,-1.8" class="g8_3" />
<path d="M666.5,442.9c-0.1,0.2,-0.1,0.4,-0.1,0.6c-0.4,5,10.4,6.6,11.9,2" class="g8_3" />
<path d="M678.4,448.1c-0.4,5.6,-12.5,4.1,-12,-1.3" class="g8_3" />
<path d="M676.3,447.6c-0.2,3.5,-8.1,2.6,-7.8,-0.9" class="g8_3" />
<path d="M666.8,445.3c-0.3,0.5,-0.3,0.8,-0.3,1.2c0,0,-0.2,2.1,-0.3,3.3c-0.4,5.3,11.6,6.8,12.1,1.2c0.1,-1.9,0.2,-2.3,0.2,-2.2c0.1,-0.5,0,-1.3,-0.5,-1.9" class="g8_3" />
<path d="M677.9,454.5c-0.3,5.5,-12.5,4.2,-12.1,-1.1" class="g8_3" />
<path d="M675.7,453.9c-0.2,3.6,-8,2.8,-7.8,-0.7" class="g8_3" />
<path d="M666.5,451.4c-0.5,0.5,-0.6,1.2,-0.6,1.6c0,0,-0.1,2.1,-0.2,3.3c-0.3,5.3,11.7,6.6,12.1,1.1c0.1,-1.9,0.1,-2.3,0.1,-2.2c0.1,-0.5,0.1,-1.3,-0.5,-1.9" class="g8_3" />
<path d="M677.4,461c-0.1,5.5,-12.3,4.7,-12.1,-0.6" class="g8_3" />
<path d="M675.2,460.5c0,3.6,-7.9,3.1,-7.8,-0.4" class="g8_3" />
<path d="M665.9,458.3c-0.5,0.5,-0.5,1.3,-0.6,1.7c0,0,0,2.1,0,3.3c-0.1,5.3,11.9,6.1,12.1,0.6c0,-1.9,0,-2.3,0,-2.3c0.1,-0.4,0,-1.2,-0.5,-1.8" class="g8_3" />
<path d="M677.4,467.2c0.2,5.5,-12.1,5.3,-12.1,0" class="g8_3" />
<path d="M675.2,466.8c0.1,3.6,-7.8,3.5,-7.8,0" class="g8_3" />
<path d="M665.8,465.1c-0.5,0.5,-0.5,1.3,-0.5,1.7c0,0,0.1,2.1,0.1,3.3c0.2,5.3,12.3,5.5,12.1,0c0,-1.9,0,-2.3,0,-2.3c0,-0.4,-0.1,-1.2,-0.7,-1.8" class="g8_3" />
<path d="M677.5,473.3c0.3,5.6,-11.9,5.5,-12.1,0.2" class="g8_3" />
<path d="M675.4,473c0.1,3.6,-7.8,3.6,-7.9,0.1" class="g8_3" />
<path d="M665.9,471.4c-0.5,0.5,-0.4,1.3,-0.4,1.7c0,0,0.1,2.1,0.1,3.3c0.3,5.3,12.3,5.4,12.1,-0.2c0,-1.8,-0.1,-2.3,0,-2.2c0,-0.5,-0.1,-1.3,-0.7,-1.8" class="g8_3" />
<path d="M677.6,479.5c0.3,5.6,-11.9,5.8,-12.2,0.5" class="g8_3" />
<path d="M675.4,479.3c0.2,3.5,-7.7,3.7,-7.9,0.2" class="g8_3" />
<path d="M665.9,477.9c-0.5,0.5,-0.4,1.3,-0.4,1.7c0,0,0.1,2.1,0.2,3.3c0.4,5.3,12.4,5.1,12.1,-0.5c-0.1,-1.9,-0.1,-2.3,-0.1,-2.2c0,-0.5,-0.1,-1.3,-0.7,-1.8" class="g8_3" />
<path d="M678,485.8c0.5,5.6,-11.8,5.9,-12.1,0.6" class="g8_3" />
<path d="M675.8,485.6c0.3,3.6,-7.6,3.8,-7.8,0.4" class="g8_3" />
<path d="M666.3,484.3c-0.4,0.6,-0.4,1.3,-0.4,1.8c0,0,0.2,2,0.3,3.2c0.4,5.3,12.5,5,12.1,-0.6c-0.1,-1.9,-0.2,-2.3,-0.2,-2.2c0.1,-0.5,-0.1,-1.3,-0.7,-1.8" class="g8_3" />
<path d="M678.7,492c0.6,5.6,-11.6,6.4,-12.1,1.1" class="g8_3" />
<path d="M676.5,491.9c0.4,3.5,-7.5,4.1,-7.8,0.6" class="g8_3" />
<path d="M666.9,491c-0.4,0.5,-0.3,1.3,-0.3,1.7c0,0,0.2,2.1,0.4,3.2c0.6,5.3,12.7,4.5,12.1,-1c-0.2,-1.9,-0.3,-2.3,-0.3,-2.2c0,-0.5,-0.2,-1.3,-0.8,-1.8" class="g8_3" />
<path d="M679.4,498.4c0.6,5.5,-11.6,6.3,-12.1,1" class="g8_3" />
<path d="M677.2,498.2c0.4,3.6,-7.5,4.1,-7.8,0.7" class="g8_3" />
<path d="M667.6,497.3c-0.4,0.6,-0.3,1.3,-0.3,1.8c0,0,0.3,2,0.4,3.2c0.6,5.3,12.7,4.5,12.1,-1c-0.2,-1.9,-0.3,-2.3,-0.3,-2.2c0.1,-0.5,-0.1,-1.3,-0.8,-1.8" class="g8_3" />
<path d="M680.3,504.4c0.8,5.5,-11.4,6.5,-12,1.3" class="g8_3" />
<path d="M678.1,504.3c0.5,3.6,-7.4,4.2,-7.8,0.8" class="g8_3" />
<path d="M668.6,503.5c-0.5,0.6,-0.4,1.4,-0.3,1.8c0,0,0.3,2,0.4,3.2c0.7,5.3,12.8,4.3,12.1,-1.2c-0.3,-1.9,-0.3,-2.3,-0.3,-2.2c0,-0.5,-0.2,-1.3,-0.9,-1.8" class="g8_3" />
<path d="M681.5,510.3c1.1,5.4,-11,7.1,-12,1.9" class="g8_3" />
<path d="M679.3,510.3c0.7,3.5,-7.1,4.6,-7.7,1.2" class="g8_3" />
<path d="M669.7,510.1c-0.4,0.6,-0.2,1.3,-0.2,1.7c0,0,0.4,2,0.7,3.2c1,5.2,12.9,3.6,11.9,-1.9c-0.3,-1.9,-0.4,-2.3,-0.4,-2.2c0,-0.5,-0.3,-1.2,-0.9,-1.7" class="g8_3" />
<path d="M682.8,516.4c1.4,5.4,-10.6,7.9,-11.8,2.7" class="g8_3" />
<path d="M680.6,516.6c0.9,3.4,-6.8,5,-7.6,1.7" class="g8_3" />
<path d="M671.1,516.9c-0.4,0.7,-0.2,1.4,-0.1,1.8c0,0,0.5,2,0.8,3.2c1.3,5.1,13.2,2.7,11.8,-2.7c-0.4,-1.8,-0.5,-2.2,-0.5,-2.1c-0.1,-0.5,-0.4,-1.3,-1.1,-1.7" class="g8_3" />
<path d="M684.3,522.6c1.5,5.4,-10.5,8,-11.8,2.8" class="g8_3" />
<path d="M682.1,522.8c0.9,3.4,-6.8,5.1,-7.6,1.8" class="g8_3" />
<path d="M672.5,523.3c-0.3,0.6,-0.1,1.4,-0.1,1.8c0,0,0.6,2,0.9,3.1c1.4,5.2,13.2,2.6,11.8,-2.8c-0.5,-1.8,-0.6,-2.2,-0.6,-2.2c0,-0.4,-0.4,-1.2,-1,-1.6" class="g8_3" />
<path d="M686,528.8c1.5,5.3,-10.4,8,-11.8,2.9" class="g8_3" />
<path d="M683.8,528.9c1,3.5,-6.7,5.2,-7.6,1.9" class="g8_3" />
<path d="M674.2,529.5c-0.3,0.7,-0.1,1.4,0,1.8c0,0,0.6,2,0.9,3.1c1.4,5.2,13.2,2.5,11.7,-2.9c-0.5,-1.8,-0.6,-2.2,-0.6,-2.1c0,-0.5,-0.3,-1.2,-1,-1.6" class="g8_3" />
<path d="M687.9,534.8c1.6,5.4,-10.3,8.2,-11.7,3" class="g8_3" />
<path d="M685.8,535c1,3.5,-6.7,5.3,-7.6,2" class="g8_3" />
<path d="M676.2,535.7c-0.4,0.6,-0.1,1.4,-0.1,1.8c0,0,0.6,2,1,3.1c1.5,5.1,13.2,2.4,11.7,-3c-0.5,-1.8,-0.6,-2.2,-0.6,-2.1c-0.1,-0.5,-0.4,-1.3,-1.1,-1.6" class="g8_3" />
<path d="M689.7,540.4c1.8,5.3,-10,8.5,-11.6,3.5" class="g8_3" />
<path d="M687.6,540.7c1.1,3.4,-6.5,5.5,-7.5,2.2" class="g8_3" />
<path d="M678,541.7c-0.3,0.7,0,1.4,0.1,1.8c0,0,0.6,2,1,3.1c1.7,5,13.3,1.8,11.6,-3.5C690.1,541.3,690,540.9,690,541c0,-0.5,-0.4,-1.2,-1.1,-1.5" class="g8_3" />
<path d="M691.9,546.2c2,5.2,-9.6,8.9,-11.4,3.9" class="g8_3" />
<path d="M689.8,546.5c1.2,3.4,-6.3,5.8,-7.5,2.6" class="g8_3" />
<path d="M680.3,548c-0.3,0.6,0,1.3,0.1,1.7c0,0,0.7,2,1.2,3.1c1.8,5,13.3,1.3,11.4,-3.9c-0.6,-1.8,-0.8,-2.2,-0.7,-2.1c-0.2,-0.5,-0.5,-1.2,-1.3,-1.5" class="g8_3" />
<path d="M694.2,551.8c2,5.2,-9.6,9.1,-11.4,4.1" class="g8_3" />
<path d="M692,552.2c1.3,3.3,-6.1,5.9,-7.4,2.6" class="g8_3" />
<path d="M682.5,553.8c-0.2,0.6,0.1,1.4,0.2,1.8c0,0,0.8,1.9,1.2,3c2,4.9,13.4,1.1,11.4,-4.1c-0.7,-1.8,-0.9,-2.2,-0.8,-2.1c-0.1,-0.5,-0.5,-1.2,-1.3,-1.5" class="g8_3" />
<path d="M696.6,557.5c2.2,5,-9.2,9.3,-11.3,4.4" class="g8_3" />
<path d="M694.4,557.9c1.5,3.3,-5.9,6.1,-7.2,2.9" class="g8_3" />
<path d="M685,559.8c-0.2,0.7,0.1,1.4,0.2,1.8c0,0,0.9,1.9,1.3,2.9c2.2,4.9,13.5,0.7,11.3,-4.4c-0.7,-1.8,-0.9,-2.1,-0.9,-2.1c-0.1,-0.4,-0.5,-1.1,-1.3,-1.4" class="g8_3" />
<path d="M699.1,563.3c2.2,5.1,-9.3,9.3,-11.3,4.4" class="g8_3" />
<path d="M697,563.8c1.4,3.3,-6.1,6,-7.4,2.8" class="g8_3" />
<path d="M687.5,565.6c-0.2,0.7,0.1,1.4,0.2,1.8c0,0,0.8,1.9,1.3,3c2.1,4.9,13.4,0.7,11.3,-4.4c-0.7,-1.8,-0.9,-2.2,-0.9,-2.1c-0.1,-0.5,-0.5,-1.2,-1.2,-1.5" class="g8_3" />
<path d="M701.6,568.8c2.3,5,-9,9.6,-11.2,4.7" class="g8_3" />
<path d="M699.4,569.3c1.6,3.3,-5.8,6.2,-7.2,3.1" class="g8_3" />
<path d="M690.1,571.4c-0.2,0.7,0.1,1.4,0.2,1.8c0,0,0.9,1.9,1.4,3c2.3,4.8,13.5,0.2,11.2,-4.8c-0.8,-1.8,-1,-2.1,-1,-2.1c-0.1,-0.4,-0.6,-1.1,-1.3,-1.4" class="g8_3" />
<path d="M704.2,574.4c2.4,5,-8.9,9.7,-11.1,4.8" class="g8_3" />
<path d="M702.1,574.9c1.5,3.3,-5.8,6.3,-7.2,3.2" class="g8_3" />
<path d="M692.7,577.1c-0.2,0.7,0.1,1.4,0.3,1.8c0,0,0.9,1.8,1.4,2.9c2.3,4.8,13.4,0.2,11.1,-4.8c-0.8,-1.7,-1,-2.1,-0.9,-2c-0.2,-0.5,-0.6,-1.2,-1.4,-1.4" class="g8_3" />
<path d="M671.4,587.9c3.9,-4.6,7.6,-9.2,16.3,-5.4c8.8,3.8,19.8,1.4,21.4,-8.4c1.7,-9.8,8.2,-10.4,15,-9.9" class="g9_3" />
<path d="M676.5,598.7c4,-4.6,7.6,-9.1,16.4,-5.4c8.8,3.8,19.7,1.4,21.4,-8.4c1.6,-9.8,8.2,-10.3,15,-9.9" class="g9_3" />
<path fill-rule="evenodd" d="M641,802l143,0l0,-22l-143,0Z" class="g16_3" />
<path d="M682,812l-26,0" class="g17_3" />
<path d="M682,827l-26,0" class="g17_3" />
<path d="M682,845l-26,0" class="g17_3" />
<path d="M682,845l-26,0" class="g18_3" />
<path d="M682,827l-26,0" class="g19_3" />
<path fill-rule="evenodd" d="M288.1,247.9c15.4,-8.9,30.8,-17.8,46.2,-26.8c0.6,-0.7,1.2,-1.5,1.8,-2.3c0.2,-0.3,0.3,-0.6,0.2,-0.7c-0.1,-0.2,-0.4,-0.3,-0.7,-0.3c-1,0.1,-2,0.2,-3.1,0.3c-15.2,8.8,-30.4,17.6,-45.7,26.5c0.4,1.1,0.8,2.2,1.3,3.3Z" class="g20_3" />
<path d="M276.8,254.4c19.1,-11.1,38.3,-22.2,57.5,-33.3c0.6,-0.7,1.2,-1.5,1.8,-2.3c0.2,-0.3,0.3,-0.6,0.2,-0.7c-0.1,-0.2,-0.4,-0.3,-0.7,-0.3c-1,0.1,-2,0.2,-3.1,0.3c-18.9,11,-38,21.9,-57,33" class="g9_3" />
<path d="M333.4,220.9c0.2,-0.6,0.6,-1.1,1,-1.4c0.4,-0.4,1,-0.7,1.7,-0.9" class="g8_3" />
<path d="M331.9,219c0.8,0,1.6,-0.1,2.2,-0.3c0.6,-0.2,1.2,-0.5,1.7,-0.8" class="g8_3" />
<path fill-rule="evenodd" d="M292.6,235.9c-0.9,0.5,-1.8,1,-2.6,1.5c-0.5,0.3,-0.9,0.7,-1.2,1.1c-0.3,0.4,-0.6,1,-0.7,1.6c0,0.4,0,0.7,-0.1,0.9c-0.1,0.1,-0.4,0.1,-0.6,0c-0.9,-0.6,-1.9,-1,-2.8,-1.1c-0.8,-0.1,-1.8,0.1,-2.7,0.4c-9.2,5.4,-18.4,10.7,-27.7,16c-2,2,-3.2,4,-3.5,5.9c-0.3,1.9,0.2,3.8,1.6,5.6c1.6,1.9,3.4,3.1,5.2,3.4c1.9,0.3,4,-0.2,6.1,-1.5c8.7,-5,17.4,-10,26.1,-15c0.8,-0.8,1.5,-1.7,1.9,-2.5c0.4,-0.9,0.6,-1.9,0.6,-2.9c0,-0.4,0.2,-0.7,0.4,-0.8c0.1,-0.1,0.4,0.1,0.7,0.4c0.5,0.2,1,0.5,1.5,0.5c0.4,0,1,-0.1,1.4,-0.3c1,-0.5,2,-1.1,3,-1.7c0.9,-0.9,1.3,-2.1,1.3,-3.4c-0.1,-1.4,-0.7,-2.9,-1.8,-4.6c-1.1,-1.5,-2.2,-2.6,-3.2,-3.1c-1,-0.6,-2,-0.7,-2.9,-0.4Z" class="g20_3" />
<path d="M288.2,241c0,-1.5,0.4,-2.8,1.4,-3.3c0.9,-0.5,1.9,-1.1,2.9,-1.7c1.8,-1,4.7,0.7,6.6,3.9c1.8,3.1,1.8,6.5,0,7.6c-1,0.5,-1.9,1.1,-2.9,1.6c-1,0.6,-2.4,0.3,-3.7,-0.5" class="g9_3" />
<path d="M291.6,249.9C291.5,248.4,291,246.7,290,245c-0.7,-1.3,-1.5,-2.3,-2.5,-3.1" class="g8_3" />
<path d="M292.3,247.9c-0.1,-1.1,-0.4,-2.4,-1.1,-3.5c-0.7,-1.2,-1.5,-2.1,-2.4,-2.7" class="g8_3" />
<path d="M294.2,248.4c-0.6,-0.1,-1.2,-0.1,-1.5,-0.1c-0.2,0.1,-0.5,0.4,-0.5,0.8c0,1.2,-0.2,2.4,-0.6,3.2c-0.4,0.9,-1.1,1.7,-1.8,2.2c-9.2,5.3,-18.5,10.6,-27.7,16c-1.2,0.6,-2,0.8,-3.3,0.8c-4.4,0,-8,-3.7,-8,-8.1c0,-2.6,1.4,-5.1,3.4,-6.6c9.1,-5.4,18.4,-10.7,27.6,-16.1c0.7,-0.3,1.6,-0.5,2.5,-0.5c0.8,0.1,1.9,0.5,3,1c0.5,0.3,0.9,0.3,1.2,0.1c0.3,-0.1,0.5,-0.5,0.6,-1.1" class="g9_3" />
<path d="M255.5,256.6c2.1,0.2,4.5,2.1,6.2,5c1.5,2.7,2,5.6,1.4,7.5" class="g8_3" />
<path d="M295.6,249c1.4,-1.1,1.3,-4.1,-0.3,-7c-1.6,-2.8,-4.2,-4.5,-6,-3.8" class="g8_3" />
<path d="M259.4,256.7l24.9,-14.5" class="g8_3" />
<path d="M261.8,258.1L286,243.7" class="g8_3" />
<path d="M264.4,263.1l24.5,-14.8" class="g8_3" />
<path d="M264.9,265.9L289.4,251" class="g8_3" />
<path d="M261.8,258.1c-1,0.6,-3.9,-0.1,-2.4,-1.4" class="g8_3" />
<path d="M264.4,263.1c-1.4,0.9,-1.2,3.5,0.5,2.8" class="g8_3" />
<path d="M289.4,251c1.4,-0.7,1.7,-4.1,-0.5,-2.7" class="g8_3" />
<path d="M286,243.7c1.5,-0.8,0,-2.5,-1.7,-1.5" class="g8_3" />
<path d="M223,223.6l17.9,10.8" class="g9_3" />
<path d="M220.1,225.4L238,236.1" class="g8_3" />
<path d="M218.7,229.2l17.9,10.7" class="g8_3" />
<path d="M219.2,230.8L238,242" class="g9_3" />
<path d="M151.4,267l60.9,-36.3c3.3,-2,4.7,-1.2,6.9,0.1" class="g9_3" />
<path d="M152.7,264.7L212.5,229c2.7,-1.6,4.6,-0.7,6.2,0.2" class="g8_3" />
<path d="M151.2,261.1l60.9,-36.3c2.8,-1.6,5.3,-1,8,0.6" class="g8_3" />
<path d="M148.5,259.3l59.7,-35.7c6.5,-3.8,9.9,-2.8,14.8,0" class="g9_3" />
<path d="M236.7,239.8c0.6,-0.4,1.9,-2.1,1.3,-3.7" class="g8_3" />
<path d="M238,236.1c0.9,0.5,2.7,-0.6,2.9,-1.7" class="g8_3" />
<path d="M236.6,239.9c0.9,0.1,1.8,0.9,1.4,2.1" class="g8_3" />
<path d="M238,242c0.3,-0.6,1.8,-2.1,2.9,-1.7" class="g9_3" />
<path d="M240.9,240.3c-0.4,-1,0.5,-3.7,1.5,-3.9" class="g9_3" />
<path d="M240.9,234.4c0,0.7,0.2,1.8,1.5,2" class="g9_3" />
<path d="M152.7,264.7c-0.6,-0.4,-1.9,-2.1,-1.3,-3.7" class="g8_3" />
<path d="M151.4,261c-0.9,0.5,-2.7,-0.6,-2.9,-1.7" class="g8_3" />
<path d="M152.7,264.7c-0.8,0.2,-1.7,1.1,-1.3,2.3" class="g8_3" />
<path d="M151.4,267c-0.3,-0.7,-1.8,-2.1,-2.9,-1.7" class="g9_3" />
<path d="M148.5,265.3c0.4,-1.1,-0.5,-3.8,-1.4,-3.9" class="g9_3" />
<path d="M148.5,259.3c0,0.7,-0.2,1.8,-1.4,2.1" class="g9_3" />
<path d="M510.1,633.5l1.8,-7.7" class="g9_3" />
<path d="M514,634.9l4.2,-6.6" class="g9_3" />
<path d="M517.1,638.1l7,-4.7" class="g9_3" />
<path d="M518.7,642.1l8.5,-1.6" class="g9_3" />
<path d="M519.3,646.5l8.3,0.9" class="g9_3" />
<path d="M519.3,651.7l8.3,1" class="g9_3" />
<path d="M519.3,656.8l8.3,1" class="g9_3" />
<path d="M519.3,662.1l8.3,0.9" class="g9_3" />
<path d="M519.3,667.5l8.3,0.9" class="g9_3" />
<path d="M519.3,672.7l8.3,1" class="g9_3" />
<path d="M519.3,677.8l8.3,1" class="g9_3" />
<path d="M519.3,683.1l8.3,0.9" class="g9_3" />
<path d="M519.3,688.4l8.3,1" class="g9_3" />
<path d="M519.3,693.7l8.3,0.9" class="g9_3" />
<path d="M519.3,698.8l8.3,1" class="g9_3" />
<path d="M519.3,704l8.3,1" class="g9_3" />
<path d="M519.3,709.4l8.3,1" class="g9_3" />
<path d="M519.3,714.7l8.3,0.9" class="g9_3" />
<path d="M519.3,719.8l8.3,1" class="g9_3" />
<path d="M519.3,725l8.3,1" class="g9_3" />
<path d="M519.3,730.7l8.3,1" class="g9_3" />
<path d="M519.3,735.9l8.3,1" class="g9_3" />
<path d="M519.3,741.1l8.3,1" class="g9_3" />
<path d="M519.3,746.3l8.3,1" class="g9_3" />
<path d="M519.3,751.7l8.3,1" class="g9_3" />
<path d="M519.3,756.9l8.3,1" class="g9_3" />
<path d="M519.3,762.1l8.3,1" class="g9_3" />
<path d="M519.3,767.3l8.3,1" class="g9_3" />
<path d="M519.3,772.9l8.3,1" class="g9_3" />
<path d="M519.3,778.1l6,0.7" class="g9_3" />
<path fill-rule="evenodd" d="M408,172l118,0l-118,0Z" class="g6_3" />
<image x="102" y="102" width="114" height="39" xlink:href="img/1.png" />
</svg>