<?xml version="1.0" encoding="UTF-8" standalone="no"?>
<!DOCTYPE svg PUBLIC "-//W3C//DTD SVG 1.1//EN"
"http://www.w3.org/Graphics/SVG/1.1/DTD/svg11.dtd">
<svg version="1.1" xmlns="http://www.w3.org/2000/svg" xmlns:xlink="http://www.w3.org/1999/xlink">
<defs>
<clipPath id="c0_1"><path d="M121.5,211.5l0,-69l87,0l0,69Z" /></clipPath>
<style type="text/css"><![CDATA[
.g2_1{
}
.g3_1{
fill: #FFFFFF;
}
.g1_1{
fill: #65666A;
}
]]></style>
</defs>
<image x="-1" y="240" width="938" height="972" xlink:href="img/1.png" />
<path d="M0,164l935,0L935,0L0,0L0,164Z" class="g1_1" />
<path d="M87,240l155,0L242,0L87,0l0,240Z" class="g2_1" />
<g clip-path="url(#c0_1)">
<path d="M185.7,168c-3.3,5.8,-9.5,9.9,-17.6,12c7.4,-2.6,11.4,-6.6,13.5,-10.1c3.6,-6.1,3.1,-12.9,1,-17c-4.2,-8.1,-17.5,-8.9,-32.4,-7.8c16.9,-3.8,30.2,-1.5,35.4,6.5c3.2,4.8,3.2,10.9,0.1,16.4m-10.5,5.5c3.5,-4.5,4.6,-10.4,3,-16c-1.9,-6.6,-9.1,-10.4,-21.4,-11.6c14.3,-0.3,21.9,2.1,24.8,7.6c1.9,3.6,2.4,10.1,-1,15.8c-1.8,2.8,-4.7,6,-9.9,8.4c1.7,-1.2,3.2,-2.6,4.5,-4.2m11.4,-22.6c-6.2,-9.4,-22.9,-11.4,-43.6,-5.2c0,0.1,0,0.1,-0.1,0.1c0,0,-0.1,0,-0.1,0c0,0,0,0.1,-0.1,0.1c0,0,0,0.1,0,0.1c-0.1,0,-0.1,0,-0.1,0.1c0,0,0,0.1,0,0.1c0,0,0,0.1,0,0.1c0,0,0,0.1,0,0.1c0,0,0,0.1,0,0.1c0,0,0,0.1,0,0.1c0,0,0.1,0,0.1,0c0,0.1,0,0.1,0,0.1c0,0,0.1,0,0.1,0.1c0.1,0,0.1,0,0.1,0.1l0.1,0c0.1,0,0.1,0,0.1,0c0,0,0.1,0,0.1,0c13.8,-0.6,31,0.8,33.8,10.9c1.5,5.3,0.5,10.8,-2.8,15c-3.1,4,-8,6.7,-14.2,8c-2.8,0.4,-5.9,0.6,-9.3,0.7l-0.1,0c-0.2,0,-0.4,0.1,-0.5,0.3c0,0.1,0,0.1,0,0.1c0,0.1,0,0.1,0,0.1c0,0.1,0,0.1,0,0.1l0,0.1c0,0,0,0.1,0,0.1c0.1,0,0.1,0.1,0.1,0.1c0,0,0,0.1,0.1,0.1l0.1,0c0,0.1,0,0.1,0,0.1c0.1,0,0.1,0,0.2,0c0,0,0.1,0.1,0.1,0.1c1.4,0,2.7,0.1,4.1,0.1c14.9,0,26.7,-5.2,31.9,-14.2c3.4,-5.9,3.4,-12.5,-0.1,-17.7Z" class="g3_1" />
</g>
<path d="M143.4,182.9c-0.4,0,-0.6,-0.2,-0.6,-0.5l0,-33.1c0,-0.3,0.2,-0.6,0.6,-0.6c0.3,0,0.5,0.3,0.5,0.6l0,33.1c0,0.3,-0.2,0.5,-0.5,0.5Z" class="g3_1" />
<path d="M145.7,182.9c-0.3,0,-0.6,-0.2,-0.6,-0.5l0,-33.1c0,-0.3,0.3,-0.6,0.6,-0.6c0.3,0,0.6,0.3,0.6,0.6l0,33.1c0,0.3,-0.3,0.5,-0.6,0.5Z" class="g3_1" />
<path d="M148,182.9c-0.3,0,-0.6,-0.2,-0.6,-0.5l0,-33.1c0,-0.3,0.3,-0.6,0.6,-0.6c0.3,0,0.6,0.3,0.6,0.6l0,33.1c0,0.3,-0.3,0.5,-0.6,0.5Z" class="g3_1" />
<g clip-path="url(#c0_1)">
<path d="M128.7,208.7c4.1,0,7.1,-3.1,7.1,-7.3c0,-4.1,-3,-7.1,-7.1,-7.1l-3.8,0l0,14.4ZM122,192.1c0,-0.3,0.2,-0.5,0.5,-0.5l6.5,0c5.4,0,9.9,4.4,9.9,9.8c0,5.5,-4.5,9.9,-9.9,9.9l-6.5,0c-0.3,0,-0.5,-0.2,-0.5,-0.5Z" class="g3_1" />
</g>
<path d="M141.1,192.1c0,-0.3,0.3,-0.5,0.6,-0.5l11.3,0c0.3,0,0.5,0.2,0.5,0.5l0,1.6c0,0.3,-0.2,0.5,-0.5,0.5l-9,0l0,5.8l7.6,0c0.3,0,0.5,0.3,0.5,0.5l0,1.6c0,0.3,-0.2,0.6,-0.5,0.6l-7.6,0l0,6l9,0c0.3,0,0.5,0.3,0.5,0.6l0,1.5c0,0.3,-0.2,0.5,-0.5,0.5l-11.3,0c-0.3,0,-0.6,-0.2,-0.6,-0.5Z" class="g3_1" />
<path d="M156.8,192.3c0,-0.4,0.3,-0.7,0.7,-0.7l1.6,0c0.4,0,0.7,0.3,0.7,0.7l0,7.8l8,-8.2c0.1,-0.2,0.3,-0.3,0.5,-0.3l2.1,0c0.5,0,0.8,0.6,0.4,1l-8.1,8.3l8.6,9.5c0.2,0.3,0.1,0.9,-0.5,0.9l-2.3,0c-0.2,0,-0.4,-0.1,-0.5,-0.2l-8.2,-9.2l0,8.8c0,0.3,-0.3,0.6,-0.7,0.6l-1.6,0c-0.4,0,-0.7,-0.3,-0.7,-0.6Z" class="g3_1" />
<path d="M173.8,192.3c0,-0.4,0.3,-0.7,0.7,-0.7l1.6,0c0.4,0,0.7,0.3,0.7,0.7l0,7.8l7.9,-8.2c0.1,-0.2,0.3,-0.3,0.6,-0.3l2.1,0c0.5,0,0.8,0.6,0.4,1l-8.2,8.3l8.7,9.5c0.2,0.3,0,0.9,-0.5,0.9l-2.3,0c-0.3,0,-0.5,-0.1,-0.5,-0.2l-8.2,-9.2l0,8.8c0,0.3,-0.3,0.6,-0.7,0.6l-1.6,0c-0.4,0,-0.7,-0.3,-0.7,-0.6Z" class="g3_1" />
<path d="M198.1,208.9c4,0,7.3,-3.4,7.3,-7.4c0,-4,-3.3,-7.5,-7.3,-7.5c-4.1,0,-7.4,3.5,-7.4,7.5c0,4,3.3,7.4,7.4,7.4m0,-17.6c5.6,0,10.1,4.6,10.1,10.2c0,5.6,-4.5,10.1,-10.1,10.1c-5.7,0,-10.2,-4.5,-10.2,-10.1c0,-5.6,4.5,-10.2,10.2,-10.2Z" class="g3_1" />
</svg>