<?xml version="1.0" encoding="UTF-8" standalone="no"?>
<!DOCTYPE svg PUBLIC "-//W3C//DTD SVG 1.1//EN"
"http://www.w3.org/Graphics/SVG/1.1/DTD/svg11.dtd">
<svg version="1.1" xmlns="http://www.w3.org/2000/svg" xmlns:xlink="http://www.w3.org/1999/xlink">
<defs>
<style type="text/css"><![CDATA[
.g16_3{
fill: #636363;
}
.g2_3{
fill: none;
stroke: #FFFFFF;
stroke-width: 3;
stroke-linecap: round;
stroke-linejoin: miter;
stroke-miterlimit: 2;
}
.g3_3{
fill: #FFFFFF;
stroke: #000000;
stroke-width: 2;
stroke-linecap: butt;
stroke-linejoin: miter;
stroke-miterlimit: 2;
}
.g14_3{
fill: #636363;
stroke: #000000;
stroke-width: 1;
stroke-linecap: round;
stroke-linejoin: round;
stroke-miterlimit: 2;
}
.g15_3{
fill: #D4D4D4;
}
.g1_3{
fill: #B3B3B3;
}
.g7_3{
fill: #636363;
stroke: #000000;
stroke-width: 1;
stroke-linecap: butt;
stroke-linejoin: miter;
stroke-miterlimit: 2;
}
.g10_3{
fill: none;
stroke: #000000;
stroke-width: 2;
stroke-linecap: round;
stroke-linejoin: round;
stroke-miterlimit: 2;
}
.g17_3{
fill: #FFFFFF;
stroke: #FFFFFF;
stroke-width: 2;
stroke-linecap: round;
stroke-linejoin: round;
stroke-miterlimit: 2;
}
.g12_3{
fill: #FFFFFF;
stroke: #000000;
stroke-width: 2;
stroke-linecap: round;
stroke-linejoin: round;
stroke-miterlimit: 2;
}
.g5_3{
fill: none;
stroke: #000000;
stroke-width: 2;
stroke-linecap: butt;
stroke-linejoin: miter;
stroke-miterlimit: 2;
}
.g11_3{
fill: #808080;
stroke: #000000;
stroke-width: 1;
stroke-linecap: round;
stroke-linejoin: round;
stroke-miterlimit: 2;
}
.g4_3{
fill: none;
stroke: #000000;
stroke-width: 1;
stroke-linecap: butt;
stroke-linejoin: miter;
stroke-miterlimit: 2;
}
.g9_3{
fill: #FFFFFF;
}
.g6_3{
}
.g8_3{
fill: none;
stroke: #000000;
stroke-width: 1;
stroke-linecap: round;
stroke-linejoin: round;
stroke-miterlimit: 2;
}
.g13_3{
fill: #FFFFFF;
stroke: #FFFFFF;
stroke-width: 3;
stroke-linecap: round;
stroke-linejoin: round;
stroke-miterlimit: 2;
}
]]></style>
</defs>
<path fill-rule="evenodd" d="M55,54l824,0l0,1101l-824,0Z" class="g1_3" />
<path d="M55.5,256.5l27,0" class="g2_3" />
<path d="M55.5,430.5l27,0" class="g2_3" />
<path d="M55.5,605.5l27,0" class="g2_3" />
<path d="M55.5,779.5l27,0" class="g2_3" />
<path d="M55.5,953.5l27,0" class="g2_3" />
<path d="M852.5,256.5l28,0" class="g2_3" />
<path d="M852.5,605.5l28,0" class="g2_3" />
<path d="M852.5,779.5l28,0" class="g2_3" />
<path d="M852.5,953.5l28,0" class="g2_3" />
<path d="M236.5,82.5l0,-27" class="g2_3" />
<path d="M390.5,82.5l0,-27" class="g2_3" />
<path d="M544.5,82.5l0,-27" class="g2_3" />
<path d="M698.5,82.5l0,-27" class="g2_3" />
<path d="M236.5,1155.5l0,-28" class="g2_3" />
<path d="M390.5,1155.5l0,-28" class="g2_3" />
<path d="M544.5,1155.5l0,-28" class="g2_3" />
<path d="M698.5,1155.5l0,-28" class="g2_3" />
<path fill-rule="evenodd" d="M82,82l770,0l0,1045l-770,0Z" class="g3_3" />
<path d="M184.5,209.5l646,0" class="g4_3" />
<path d="M103.5,278.5l727,0" class="g4_3" />
<path d="M82,1097l770,0" class="g5_3" />
<path d="M466.5,1099.5l0,28" class="g4_3" />
<path d="M468.5,1099.5l0,28" class="g4_3" />
<path d="M272.5,1099.5l0,28" class="g4_3" />
<path d="M274.5,1099.5l0,28" class="g4_3" />
<path d="M664.5,1099.5l0,28" class="g4_3" />
<path d="M666.5,1099.5l0,28" class="g4_3" />
<path fill-rule="evenodd" d="M106,289l37,0l0,38l-37,0Z" class="g6_3" />
<path fill-rule="evenodd" d="M103.5,287.5l38,0l0,37l-38,0Z" class="g7_3" />
<path d="M103.5,673.5l727,0" class="g4_3" />
<path d="M274.5,1099.5l192,0" class="g8_3" />
<path d="M468.5,1099.5l196,0" class="g8_3" />
<path d="M666.5,1099.5l186,0" class="g8_3" />
<path d="M272.5,1099.5l-190,0" class="g8_3" />
<path d="M467.5,1097.5l0,-819" class="g4_3" />
<path fill-rule="evenodd" d="M479,289l37,0l0,38l-37,0Z" class="g6_3" />
<path fill-rule="evenodd" d="M477.5,287.5l37,0l0,37l-37,0Z" class="g7_3" />
<path fill-rule="evenodd" d="M355.2,1026.2l-55.6,-18.9l0.5,-12.9l56.6,22.6Z" class="g9_3" />
<path d="M852.5,430.5l28,0" class="g2_3" />
<path fill-rule="evenodd" d="M106,683l37,0l0,38l-37,0Z" class="g6_3" />
<path fill-rule="evenodd" d="M103.5,681.5l38,0l0,38l-38,0Z" class="g7_3" />
<path fill-rule="evenodd" d="M479,683l37,0l0,38l-37,0Z" class="g6_3" />
<path fill-rule="evenodd" d="M477.5,681.5l37,0l0,38l-37,0Z" class="g7_3" />
<path d="M189.8,220.3c0.1,-0.1,0.3,-0.2,0.4,-0.3" class="g8_3" />
<path d="M190.2,220c0.3,-0.1,0.7,-0.1,1.1,-0.1c0.6,0.2,1.2,0.5,2,1.1c6.3,-1.6,12.2,-2.7,18.1,-3.4c5.8,-0.5,11.2,-0.6,16.5,-0.2" class="g8_3" />
<path d="M228.6,217.7c-0.3,-0.5,-0.9,-0.9,-1.7,-1.2c-0.8,-0.2,-1.8,-0.4,-3,-0.4c-7.2,-0.2,-13.6,0.1,-19.2,0.7c-5.6,0.7,-10.5,1.8,-14.5,3.2" class="g10_3" />
<path d="M187.3,228.5c1,0.7,2.1,1.4,3.2,2c1.1,0.6,2.2,1.1,3.4,1.5c3.8,-0.5,7.6,-1,11.4,-1.4" class="g8_3" />
<path d="M205.3,230.6c0.3,-0.1,0.6,-0.1,0.9,-0.2c0,-0.4,0,-0.9,0,-1.4c-0.4,-0.3,-0.7,-0.6,-0.9,-0.9c-0.1,-0.3,-0.2,-0.5,-0.2,-0.8c0.2,-1.2,0.7,-2.1,1.3,-2.7c0.7,-0.6,1.6,-1,2.7,-1c1.3,-0.1,2.2,-0.1,3,0c0.7,0.2,1.1,0.5,1.2,0.9c0.9,-0.1,2,-0.2,3.3,-0.4c1.4,-0.3,3,-0.6,4.7,-1.1c1.1,-0.3,1.9,-0.3,2.5,0.1" class="g10_3" />
<path d="M223.8,223.1c0.6,0.4,0.9,1.2,1,2.4c0.1,1,0.2,2.1,0.3,3.2" class="g8_3" />
<path d="M189.8,220.3c-0.4,2,-0.8,3.9,-1.3,5.9c0,0.3,-0.2,0.5,-0.4,0.6c-0.2,0.2,-0.4,0.2,-0.7,0.2c0,0.5,-0.1,1,-0.1,1.5" class="g10_3" />
<path d="M193.3,221.1c-0.1,2.4,-0.1,4.9,-0.2,7.4c0,0.3,0.1,0.7,0.2,1c0.2,0.4,0.4,0.7,0.7,1.1" class="g8_3" />
<path d="M194.1,230.6l12.1,-1.5" class="g8_3" />
<path d="M194.1,230.6L193.5,243" class="g8_3" />
<path d="M225.1,228.7c0,1,0.2,1.7,0.5,2.2c0.3,0.4,0.9,0.6,1.5,0.6" class="g8_3" />
<path d="M222.2,222.9c0.2,1.3,0.4,2.6,0.6,3.9c0.1,0.9,0,1.6,-0.4,2.1c-0.4,0.6,-1.2,0.9,-2.2,1.1c-4.1,0.7,-8.3,1.5,-12.5,2.2" class="g10_3" />
<path d="M224.4,230.2l-1.6,-1" class="g8_3" />
<path fill-rule="evenodd" d="M195.2,222.9c-0.1,0.5,0.1,1,0.5,1c0.3,0.1,0.6,-0.2,0.7,-0.7c0.1,-0.5,-0.1,-1,-0.4,-1c-0.3,-0.1,-0.7,0.3,-0.8,0.7Z" class="g11_3" />
<path fill-rule="evenodd" d="M194.8,228.1c0,0.5,0.1,0.9,0.5,1c0.3,0,0.6,-0.3,0.7,-0.8c0.1,-0.5,-0.1,-0.9,-0.4,-1c-0.3,-0.1,-0.7,0.3,-0.8,0.8Z" class="g11_3" />
<path fill-rule="evenodd" d="M205,222.4c-0.1,0.5,0.1,1,0.4,1.1c0.3,0,0.7,-0.3,0.8,-0.8c0.1,-0.5,-0.1,-0.9,-0.4,-1c-0.4,-0.1,-0.7,0.3,-0.8,0.7Z" class="g11_3" />
<path d="M227.2,222.3c0,-1,-0.3,-1.6,-0.9,-2.1c-0.7,-0.4,-1.7,-0.6,-3.1,-0.5c-1.7,-0.1,-3.8,-0.1,-6.5,0c-2.6,0.1,-5.7,0.3,-9.4,0.6c-1.2,0.1,-2.1,0.5,-2.6,1.1c-0.5,0.7,-0.7,1.5,-0.5,2.8c0.2,0.8,0.4,1.5,0.5,2.2" class="g8_3" />
<path d="M205.6,225.9c0.7,-0.1,1.5,0,2.1,0.2c0.7,0.3,1.3,0.7,1.8,1.3c0.5,-0.9,0.9,-1.8,1.3,-2.6" class="g10_3" />
<path d="M208.2,223.7c1.2,0.2,2.1,0.6,2.6,1.1c0.6,0.4,1,1,1.1,1.6" class="g8_3" />
<path d="M211.9,226.4c0.2,-0.5,0.4,-1,0.6,-1.3c0.3,-0.3,0.6,-0.5,0.9,-0.6" class="g10_3" />
<path d="M211.9,226.4l-1.4,-0.8" class="g10_3" />
<path d="M209.5,227.4l-1.7,-0.9" class="g8_3" />
<path d="M207,225.9c0.3,0.2,0.6,0.5,0.9,0.7" class="g8_3" />
<path d="M208,248.3c0.3,-0.2,0.7,-0.5,1,-0.7c7.2,-1.6,14.5,-3.3,21.7,-4.9c0,0,1.9,-1.2,2.3,-2.7c0,-1.8,0.1,-3.6,0.1,-5.4c-0.3,-2.4,-2.3,-4,-2.3,-4c-0.3,-0.4,-0.3,-0.6,-0.4,-0.9c-0.2,-0.3,-0.3,-0.8,-0.4,-1.2c0,0,-1.4,-10.7,-1.4,-10.7" class="g10_3" />
<path d="M205.3,230.6c0.2,3.8,0.1,8.2,-0.1,13.1c-0.3,4.9,-0.8,10.3,-1.5,16.2" class="g10_3" />
<path d="M203.7,259.9l-3.1,0.7" class="g8_3" />
<path d="M233,234.7l-23.9,4.9" class="g8_3" />
<path d="M209.1,239.6c0,-1.1,0,-2.3,0,-3.5c0,-0.1,0,-0.1,-0.1,-0.2c0,0,-0.1,-0.1,-0.2,-0.1c-0.3,-0.1,-0.5,-0.2,-0.6,-0.4c-0.2,-0.2,-0.3,-0.5,-0.3,-0.8c0,-1.1,-0.2,-2.1,-0.5,-2.9c-0.3,-0.9,-0.7,-1.6,-1.2,-2.1" class="g10_3" />
<path d="M233,240l-28,5.9" class="g8_3" />
<path d="M205,245.9c0.2,-0.1,0.3,-0.2,0.3,-0.3c0.1,-0.1,0.2,-0.2,0.2,-0.4c0,-1.6,0.1,-3.2,0.2,-4.8c0,-1.2,0,-2.4,0,-3.6c0,0,-0.1,-0.1,-0.1,-0.1c0,-0.1,-0.1,-0.1,-0.2,-0.2" class="g8_3" />
<path d="M208.9,236l-3.1,0.7" class="g8_3" />
<path d="M207.8,235.4l-2.2,0.5" class="g8_3" />
<path d="M216.8,230.7c1.6,0.1,2.9,0.7,3.8,1.6c0.9,0.9,1.5,2.3,1.8,4c0,0.1,0.1,0.3,0.1,0.3c0.1,0.1,0.1,0.2,0.2,0.2" class="g8_3" />
<path d="M222.3,242.3c-0.2,0.7,-0.7,1.3,-1.3,1.8c-0.7,0.6,-1.7,1.1,-2.9,1.4" class="g8_3" />
<path d="M222.8,236.8l-0.1,5.3" class="g8_3" />
<path d="M227.7,231.3l2.2,-0.5" class="g8_3" />
<path d="M225,230.9c0,0.3,-0.2,0.6,-0.4,0.7c-0.1,0.2,-0.4,0.3,-0.7,0.3c-0.7,0.2,-1.4,0.3,-2.2,0.5" class="g8_3" />
<path d="M220.1,232.8l-11.3,2" class="g8_3" />
<path d="M202.2,231.1c0.2,3.8,0.1,8.2,-0.1,13.1c-0.3,4.9,-0.8,10.4,-1.5,16.4" class="g8_3" />
<path d="M203.9,258.8l2.9,-0.7" class="g8_3" />
<path d="M206.8,258.1c0.4,-1.1,0.8,-2.4,1,-3.8c0.2,-1.4,0.3,-3.1,0.3,-4.8c-0.1,-0.7,-0.1,-1.4,0,-2c0.1,-0.6,0.4,-1.1,0.7,-1.5" class="g10_3" />
<path d="M209.5,247.6c0.8,0.3,1.4,1.6,1.5,3.2c0.2,1.9,-0.4,3.6,-1.4,3.6c-0.6,0.3,-1.2,0.5,-1.9,0.8" class="g10_3" />
<path d="M210.9,252.9l7.2,4.3" class="g10_3" />
<path d="M218.1,257.2l-25.3,6.2" class="g8_3" />
<path d="M192.8,263.4l-4.3,-2.9" class="g8_3" />
<path d="M190.6,271.7l-0.2,-0.1" class="g8_3" />
<path d="M193.8,251.7l0,1.6l-2.8,0.5l-1.1,-0.5" class="g10_3" />
<path d="M187.6,252.1c0,-1.7,0,-3.4,0,-5.1c-0.1,-0.8,-0.2,-1.7,-0.2,-2.6c0,-0.9,-0.1,-2,-0.1,-3c0,-0.2,-0.1,-0.5,-0.1,-0.6c-0.1,-0.2,-0.1,-0.4,-0.2,-0.5c-0.1,-0.1,-0.2,-0.2,-0.3,-0.4c0,-0.2,-0.1,-0.4,-0.1,-0.7c0.1,-1.1,0.1,-2.5,0.2,-4.3c0.1,-1.8,0.3,-3.9,0.4,-6.4" class="g10_3" />
<path d="M190.9,253.8c0,-1.7,0,-3.3,0,-5c0.3,-0.7,0.5,-1.5,0.7,-2.3c0.2,-0.9,0.4,-1.8,0.5,-2.7c0.1,-0.2,0.2,-0.4,0.2,-0.5" class="g8_3" />
<path d="M192.3,243.3c0.2,-0.1,0.3,-0.1,0.5,-0.1c0.2,0.1,0.4,0.2,0.6,0.2c0.3,0.1,0.5,0.1,0.9,0" class="g10_3" />
<path d="M187.6,247l3.4,1.7l7.3,-1l1.4,-4.5" class="g8_3" />
<path d="M187.6,252.1l0.8,0.4l1.3,-0.1" class="g10_3" />
<path d="M187.1,259.4L183,256.7" class="g8_3" />
<path d="M188.5,252.5l0,-1" class="g8_3" />
<path d="M189,253l0,-1" class="g10_3" />
<path d="M188.4,251.6c0.1,-0.4,0.3,-0.7,0.6,-0.8" class="g8_3" />
<path d="M189,250.8c0.3,-0.1,0.7,0.4,0.9,1c0,0.2,0,0.4,0,0.5" class="g10_3" />
<path d="M200.4,259.7L199,260" class="g8_3" />
<path d="M199,260c0.3,-2.7,0.6,-5.5,0.8,-8.2c0.2,-2.7,0.3,-5.4,0.3,-8.1c0,-0.2,-0.1,-0.5,-0.2,-0.8" class="g8_3" />
<path d="M199.9,242.9c-0.3,0,-0.6,0,-1,0c-1.5,0.1,-3.1,0.3,-4.6,0.5" class="g10_3" />
<path d="M199,260l-1.2,-0.8" class="g8_3" />
<path d="M198.3,247.7c0,0.7,0,2.1,-0.1,4c-0.1,1.9,-0.2,4.4,-0.4,7.5" class="g8_3" />
<path d="M200.6,260.6c-0.1,0,-0.2,-0.1,-0.3,-0.1c0,0,-0.1,-0.1,-0.1,-0.1" class="g8_3" />
<path d="M201.9,231c0.1,3.8,0.1,8,-0.2,12.9c-0.2,5,-0.7,10.4,-1.4,16.4" class="g8_3" />
<path d="M213.7,256.3l-3.5,-2.1" class="g8_3" />
<path d="M209.7,257.2l-2.2,-1.3" class="g8_3" />
<path d="M212.3,256.8l-3.4,-2.1" class="g10_3" />
<path d="M208.2,257.6l-1,-0.6" class="g10_3" />
<path d="M213.7,256.4l-1.4,0.4" class="g10_3" />
<path d="M209.8,257.3l-1.6,0.4" class="g10_3" />
<path fill-rule="evenodd" d="M230.4,232.6c0.3,0.6,0.2,1.1,0,1.3c-0.3,0.1,-0.8,-0.2,-1.1,-0.7c-0.3,-0.6,-0.3,-1.2,0,-1.3c0.3,-0.2,0.8,0.2,1.1,0.7Z" class="g11_3" />
<path d="M187.1,259.4l3.2,-0.7" class="g8_3" />
<path d="M192.1,258.3l0.9,-0.2" class="g8_3" />
<path d="M193.8,251.7c0,-0.2,0.1,-0.4,0.1,-0.6c0.3,-0.8,1,-1.3,1.7,-1.1" class="g10_3" />
<path d="M195.6,250c0.4,0.1,0.7,0.6,0.7,1.1c0.1,2,0.2,4,0.4,6.1c0,0.4,0.2,0.8,0.3,1.1c0.2,0.2,0.5,0.4,0.8,0.5" class="g8_3" />
<path d="M197.2,258.5L193.5,256" class="g8_3" />
<path d="M192.2,254.4c0.6,0.2,1.2,0.6,1.2,1" class="g10_3" />
<path d="M193.4,255.4c0,0.5,-1,1,-2.3,1c-1.3,0,-2.3,-0.5,-2.3,-1" class="g8_3" />
<path d="M188.8,255.4c0,-0.4,0.6,-0.8,1.3,-1" class="g10_3" />
<path d="M188.5,255.5l0,1" class="g8_3" />
<path d="M189,257.3c0.4,0.4,1.2,0.6,2.1,0.6c0.6,0,1.2,-0.1,1.6,-0.3" class="g10_3" />
<path d="M193.5,256.5l0,-1" class="g8_3" />
<path d="M190.1,253.3c0,0.7,0,1.3,0,2c0,0.3,0.4,0.5,1,0.5c0.6,0,1.1,-0.2,1.1,-0.5c0,-0.6,0,-1.1,0,-1.7" class="g8_3" />
<path d="M190,257l0,3" class="g10_3" />
<path d="M192.5,257.5l0,2" class="g8_3" />
<path d="M190.5,263.5l0,8" class="g8_3" />
<path d="M192.2,263.7l0,5.7l-1.6,2.4" class="g10_3" />
<path d="M192.9,258.1c0.2,0,0.4,-0.1,0.7,-0.1c0.8,0,1.4,0.3,1.4,0.6" class="g8_3" />
<path d="M190.5,257.5l0,2" class="g8_3" />
<path d="M190,263l0,8" class="g10_3" />
<path d="M211.3,225.2c0.1,0.2,0.2,0.5,0.2,0.7" class="g8_3" />
<path d="M211.4,225.9l-0.9,-0.5" class="g8_3" />
<path d="M189,256c0.2,0,0.4,0.2,0.5,0.6c0.1,0.3,-0.1,0.6,-0.3,0.7" class="g8_3" />
<path d="M188.4,256.2c0.2,-0.1,0.5,0.2,0.5,0.5c0.1,0.4,0,0.7,-0.3,0.7" class="g8_3" />
<path d="M193.1,256.4c-0.3,-0.2,-0.7,-0.1,-0.9,0.2c-0.2,0.3,-0.1,0.6,0.1,0.8" class="g8_3" />
<path d="M192.8,257.7c0.2,0.1,0.6,0,0.8,-0.2c0.2,-0.3,0.1,-0.7,-0.1,-0.9" class="g10_3" />
<path d="M193.5,256.6c-0.2,-0.1,-0.6,0,-0.8,0.3c-0.2,0.3,-0.2,0.6,0.1,0.8" class="g8_3" />
<path d="M193.5,256.7l-0.4,-0.3" class="g8_3" />
<path d="M192.7,257.6l-0.4,-0.2" class="g8_3" />
<path d="M192.8,263.3l-3,-1l-4.3,-2.9" class="g8_3" />
<path d="M187.1,259.4l-3,-1l-4.2,-2.8" class="g8_3" />
<path d="M213.3,256.5l-3.6,-2.1" class="g8_3" />
<path d="M209.3,257.4l-1.9,-1.2" class="g8_3" />
<path d="M189.8,262.3l-0.2,0.4" class="g8_3" />
<path d="M184.1,258.4l-0.2,0.4" class="g8_3" />
<path d="M218.1,257.2c0,0.2,0,0.3,0,0.5c-8.4,2,-16.9,4,-25.3,6.1c-1,-0.3,-2.1,-0.7,-3.2,-1c-1.4,-1,-2.9,-2,-4.3,-3c0,-0.1,0.1,-0.2,0.2,-0.4c1,0.3,2,0.6,3,1c2,-0.4,3.9,-0.8,5.9,-1.3c0.3,-0.1,0.6,-0.3,0.6,-0.5" class="g10_3" />
<path d="M188.7,255.4l-5.7,1.3l0,-0.1l-3,-1l-0.1,0.1l-0.2,0.4l4.1,2.8l1.6,0.5" class="g10_3" />
<path d="M187.1,259.9l3.2,-0.8" class="g8_3" />
<path d="M192.2,258.7c0.2,-0.1,0.5,-0.1,0.8,-0.2c0.1,0,0.4,-0.1,0.6,-0.1c0.6,0,1,0.2,1.2,0.3" class="g8_3" />
<path d="M189.2,257.3c-0.2,0,-0.3,0.1,-0.5,0.1l-0.1,0c-0.2,0.1,-0.4,-0.2,-0.5,-0.5c-0.1,-0.4,0.1,-0.7,0.3,-0.7c0,0,-0.1,-0.1,-0.1,-0.1c0.2,0,0.5,0,0.7,-0.1" class="g10_3" />
<path d="M229.3,237.3l0.7,-0.2l0,-0.7" class="g8_3" />
<path d="M230,237.1l0.2,0.1" class="g8_3" />
<path d="M230.5,236.9l0.7,-0.1l0,-0.7" class="g8_3" />
<path d="M231.2,236.8l0.2,0.1" class="g8_3" />
<path d="M231.8,236.7l0.6,-0.2l0,-0.7" class="g8_3" />
<path d="M232.4,236.5l0.2,0.2" class="g8_3" />
<path d="M231.8,238l0.6,-0.2l0,-0.6" class="g8_3" />
<path d="M232.4,237.9l0.2,0.1" class="g8_3" />
<path d="M231.8,239.4l0.6,-0.2l0,-0.7" class="g8_3" />
<path d="M232.4,239.2l0.2,0.2" class="g8_3" />
<path d="M230.5,239.6l0.7,-0.1l0,-0.7" class="g8_3" />
<path d="M231.2,239.5l0.2,0.1" class="g8_3" />
<path d="M230.5,238.3l0.6,-0.2l0,-0.7" class="g8_3" />
<path d="M231.2,238.2l0.2,0.1" class="g8_3" />
<path d="M229.3,238.6l0.7,-0.2l0,-0.7" class="g8_3" />
<path d="M230,238.4l0.2,0.2" class="g8_3" />
<path d="M229.3,239.9l0.6,-0.1l0,-0.7" class="g8_3" />
<path d="M229.9,239.8l0.2,0.1" class="g8_3" />
<path d="M194.3,229.7l10.6,-1.2" class="g8_3" />
<path fill-rule="evenodd" d="M268.3,247.2c11.4,-6.5,22.8,-13.1,34.2,-19.8c0.4,-0.5,0.9,-1.1,1.3,-1.7c0.2,-0.2,0.2,-0.4,0.2,-0.5C303.9,225,303.7,225,303.5,225c-0.8,0,-1.5,0.1,-2.3,0.2c-11.3,6.5,-22.6,13.1,-33.9,19.6c0.3,0.8,0.6,1.6,1,2.4Z" class="g9_3" />
<path d="M259.9,252.1c14.2,-8.3,28.4,-16.5,42.6,-24.7c0.4,-0.5,0.9,-1.1,1.3,-1.7c0.2,-0.2,0.2,-0.4,0.2,-0.5C303.9,225,303.7,225,303.5,225c-0.8,0,-1.5,0.1,-2.3,0.2C287.1,233.3,273,241.4,259,249.6" class="g10_3" />
<path d="M301.8,227.3c0.2,-0.5,0.5,-0.8,0.8,-1.1c0.3,-0.3,0.7,-0.5,1.2,-0.6" class="g8_3" />
<path d="M300.8,225.9c0.5,0,1.1,-0.1,1.5,-0.3c0.5,-0.1,0.9,-0.3,1.3,-0.6" class="g8_3" />
<path fill-rule="evenodd" d="M271.6,238.4c-0.7,0.3,-1.3,0.7,-1.9,1.1c-0.4,0.2,-0.7,0.5,-0.9,0.8c-0.2,0.3,-0.4,0.7,-0.5,1.2c0,0.3,0,0.5,-0.1,0.6c-0.1,0.1,-0.3,0.2,-0.5,0.1c-0.6,-0.5,-1.4,-0.8,-2,-0.8c-0.6,-0.1,-1.4,0,-2,0.3c-6.8,3.9,-13.7,7.9,-20.5,11.8c-1.5,1.5,-2.4,2.9,-2.6,4.3c-0.2,1.5,0.2,2.9,1.1,4.2c1.2,1.4,2.6,2.3,3.9,2.5c1.4,0.2,3,-0.1,4.6,-1.1c6.4,-3.7,12.8,-7.4,19.2,-11.1c0.7,-0.6,1.2,-1.2,1.5,-1.9c0.3,-0.6,0.4,-1.4,0.4,-2.1c0,-0.3,0.2,-0.5,0.3,-0.6c0.1,0,0.3,0.1,0.5,0.3c0.4,0.2,0.8,0.4,1.1,0.4c0.4,0,0.8,-0.1,1.1,-0.2c0.7,-0.4,1.5,-0.9,2.2,-1.3c0.7,-0.7,1,-1.5,0.9,-2.5c0,-1,-0.5,-2.2,-1.3,-3.4c-0.8,-1.1,-1.6,-1.9,-2.3,-2.3c-0.8,-0.5,-1.5,-0.6,-2.2,-0.3Z" class="g9_3" />
<path d="M268.4,242.1c-0.1,-1.1,0.3,-2,1,-2.4c0.6,-0.4,1.4,-0.8,2.1,-1.2c1.3,-0.8,3.5,0.5,4.9,2.8c1.3,2.3,1.3,4.9,0,5.6c-0.7,0.4,-1.4,0.9,-2.1,1.3c-0.8,0.4,-1.8,0.2,-2.8,-0.4" class="g10_3" />
<path d="M270.9,248.7c-0.1,-1.1,-0.5,-2.3,-1.2,-3.6c-0.5,-0.9,-1.2,-1.7,-1.9,-2.3" class="g8_3" />
<path d="M271.4,247.2c-0.1,-0.7,-0.3,-1.7,-0.8,-2.5c-0.5,-0.9,-1.2,-1.6,-1.8,-2" class="g8_3" />
<path d="M272.8,247.7c-0.5,-0.2,-0.9,-0.2,-1.1,-0.1c-0.2,0,-0.4,0.3,-0.4,0.5c0,0.9,-0.1,1.8,-0.4,2.4c-0.3,0.7,-0.8,1.3,-1.4,1.6c-6.8,4,-13.6,7.9,-20.5,11.9c-0.9,0.4,-1.5,0.6,-2.4,0.6c-3.3,0,-6,-2.7,-6,-6c0,-1.9,1.1,-3.8,2.6,-4.9c6.7,-4,13.6,-7.9,20.4,-11.9c0.5,-0.3,1.2,-0.4,1.8,-0.4c0.7,0.1,1.5,0.4,2.3,0.8c0.3,0.1,0.7,0.1,0.9,0.1c0.2,-0.1,0.4,-0.5,0.5,-0.9" class="g10_3" />
<path d="M244.1,253.7c1.6,0.2,3.4,1.5,4.6,3.7c1.2,2,1.5,4.1,1.1,5.6" class="g8_3" />
<path d="M273.8,248.1c1.1,-0.9,1,-3.1,-0.2,-5.2c-1.2,-2.1,-3.1,-3.3,-4.4,-2.8" class="g8_3" />
<path d="M247,253.8L265.5,243" class="g8_3" />
<path d="M248.8,254.8l17.9,-10.6" class="g8_3" />
<path d="M250.8,258.5l18.1,-11" class="g8_3" />
<path d="M251.1,260.6l18.1,-11" class="g8_3" />
<path d="M248.8,254.8c-0.7,0.5,-2.9,0,-1.8,-1" class="g8_3" />
<path d="M250.8,258.5c-1.1,0.7,-1,2.7,0.3,2.1" class="g8_3" />
<path d="M269.2,249.6c1.1,-0.6,1.3,-3.1,-0.3,-2.1" class="g8_3" />
<path d="M266.7,244.2c1.1,-0.7,0,-1.9,-1.2,-1.2" class="g8_3" />
<path fill-rule="evenodd" d="M584.4,906.8c44.7,0,81,14.9,81,33.2c0,18.4,-36.3,33.3,-81,33.3c-44.7,0,-81,-14.9,-81,-33.3c0,-18.3,36.3,-33.2,81,-33.2Zm0,6.5c39.8,0,72.2,12,72.2,26.7c0,14.8,-32.4,26.8,-72.2,26.8c-39.9,0,-72.2,-12,-72.2,-26.8c0,-14.7,32.3,-26.7,72.2,-26.7Z" class="g12_3" />
<path fill-rule="evenodd" d="M584.4,915.4c44.7,0,81,14.9,81,33.3c0,18.4,-36.3,33.2,-81,33.2c-44.7,0,-81,-14.8,-81,-33.2c0,-18.4,36.3,-33.3,81,-33.3Zm0,6.5c39.8,0,72.2,12,72.2,26.8c0,14.8,-32.4,26.7,-72.2,26.7c-39.9,0,-72.2,-11.9,-72.2,-26.7c0,-14.8,32.3,-26.8,72.2,-26.8Z" class="g12_3" />
<path fill-rule="evenodd" d="M584.4,924.3c44.7,0,81,14.9,81,33.2c0,18.4,-36.3,33.3,-81,33.3c-44.7,0,-81,-14.9,-81,-33.3c0,-18.3,36.3,-33.2,81,-33.2Zm0,6.5c39.8,0,72.2,12,72.2,26.7c0,14.8,-32.4,26.8,-72.2,26.8c-39.9,0,-72.2,-12,-72.2,-26.8c0,-14.7,32.3,-26.7,72.2,-26.7Z" class="g12_3" />
<path d="M292.5,535.2l42.1,-24.4" class="g8_3" />
<path d="M305.5,542.4l29.4,-17" class="g8_3" />
<path d="M330.1,513.4l-0.3,-14" class="g8_3" />
<path d="M330.1,542.3l-0.3,-14.1" class="g8_3" />
<path d="M254.7,649.3l20.1,11.5" class="g8_3" />
<path d="M250,649.9l-18,10.4" class="g8_3" />
<path d="M176.5,607.5l-16.9,9.8l-2.6,1.5" class="g8_3" />
<path d="M184.2,631.8L159.5,617.5" class="g8_3" />
<path d="M234.6,658.8L210.1,644.6" class="g8_3" />
<path d="M307,637.4l-35.6,22.3" class="g8_3" />
<path d="M385.7,588.3l-31.2,19.4" class="g8_3" />
<path fill-rule="evenodd" d="M159.6,615.9c1.1,0,2,0.6,2,1.4c0,0.8,-0.9,1.4,-2,1.4c-1.2,0,-2.1,-0.6,-2.1,-1.4c0,-0.8,0.9,-1.4,2.1,-1.4Z" class="g6_3" />
<path fill-rule="evenodd" d="M234.4,657.3c1.1,0,2.1,0.6,2.1,1.4c0,0.8,-1,1.4,-2.1,1.4c-1.1,0,-2.1,-0.6,-2.1,-1.4c0,-0.8,1,-1.4,2.1,-1.4Z" class="g6_3" />
<path fill-rule="evenodd" d="M272.1,657.8c1.2,0,2.1,0.7,2.1,1.5c0,0.8,-0.9,1.4,-2.1,1.4c-1.1,0,-2.1,-0.6,-2.1,-1.4c0,-0.8,1,-1.5,2.1,-1.5Z" class="g6_3" />
<path fill-rule="evenodd" d="M385.6,586.8c1.2,0,2.1,0.6,2.1,1.4c0,0.8,-0.9,1.4,-2.1,1.4c-1.1,0,-2,-0.6,-2,-1.4c0,-0.8,0.9,-1.4,2,-1.4Z" class="g6_3" />
<path fill-rule="evenodd" d="M328.6,527.5c0.7,-1,1.7,-1.4,2.4,-1c0.6,0.4,0.7,1.6,0,2.5c-0.6,1,-1.6,1.4,-2.3,1c-0.7,-0.5,-0.7,-1.6,-0.1,-2.5Z" class="g6_3" />
<path fill-rule="evenodd" d="M328.9,512.6c0.6,-0.9,1.7,-1.4,2.3,-0.9c0.7,0.4,0.7,1.5,0.1,2.5c-0.6,0.9,-1.7,1.4,-2.3,0.9c-0.7,-0.4,-0.7,-1.5,-0.1,-2.5Z" class="g6_3" />
<path d="M365.9,577.3L289.6,536.7L178.9,605.8" class="g8_3" />
<path d="M365.9,577.3L252.3,648.1L178.9,605.8" class="g10_3" />
<path d="M353.4,584.7L289.2,551.8l-97.8,61" class="g10_3" />
<path d="M365.9,440.2L289.6,399.6L178.9,468.7" class="g10_3" />
<path d="M178.9,468.7L252.3,511L365.9,440.2" class="g8_3" />
<path d="M252.3,511.1l-0.2,14.2" class="g8_3" />
<path d="M178.7,468.7l0,14.2l73.4,42.4L365.7,454.4l0,-14.2" class="g10_3" />
<path fill-rule="evenodd" d="M256.3,610.4l-5.7,-3.1l-0.3,-6.4l-12.5,8l-5.7,-3.1l24.3,-63.4l6,2.2l27.4,30.9l-16.9,10.7l0.6,12.7Z" class="g13_3" />
<path d="M259.7,599.6c-1.3,-0.7,-0.6,-5,0.4,-7.3c1.1,-2.3,4.5,-5.7,6.3,-4.8" class="g8_3" />
<path d="M269.2,581.2l0.4,6.6" class="g8_3" />
<path fill-rule="evenodd" d="M263.9,574.1l-3.2,33.3l-4.4,3l-5.7,-3.1l-0.3,-6.4l-12.5,8l-5.7,-3.1l24.3,-63.4l6,2.2Z" class="g14_3" />
<path fill-rule="evenodd" d="M272.9,586.3l0.6,12.6l-17.3,11.5l-0.6,-12.9L237.7,609l24.7,-64.4l27.4,30.9Z" class="g15_3" />
<path d="M256.2,610.4l17.3,-11.5l-0.6,-12.7l16.9,-10.7L262.4,544.6" class="g8_3" />
<path d="M237.7,609l24.7,-64.4" class="g8_3" />
<path d="M256.3,610.4l-0.7,-12.9" class="g8_3" />
<path d="M237.7,609l17.9,-11.5" class="g8_3" />
<path d="M289.6,536.7l-0.4,15.1" class="g8_3" />
<path d="M368.4,578.8l19.7,10.5" class="g8_3" />
<path d="M815,575L732.9,531.4l-69.4,43.3m-8,4.8l-41.7,26.2" class="g8_3" />
<path d="M613.8,605.7l79,45.5L815,575" class="g10_3" />
<path d="M801.6,583L732.4,547.6l-69.1,43.2M655,596l-27.7,17.2" class="g10_3" />
<path d="M732.7,532.6l-0.3,15.2" class="g8_3" />
<path d="M611.2,440L729.6,366.3c0,0,2.1,-1,3.8,0c1.7,0.9,24.1,14.1,24.1,14.1" class="g10_3" />
<path d="M777.3,382.2c0,0,0.1,0.7,-0.6,1.3c-0.8,0.6,-87.1,54.4,-87.1,54.4c0,0,-4.7,3.2,-10.3,3.5c-5.7,0.4,-40.7,2.1,-40.7,2.1" class="g8_3" />
<path d="M730.9,381.6l43.3,-2.1c0,0,1.4,-0.1,1.9,0.2c0.4,0.3,1.2,2.5,1.2,2.5" class="g10_3" />
<path d="M634.6,441c0,0.5,0.5,0.6,0.5,0.6l58.4,33.8c0,0,6.9,3.2,11.9,0.3c5,-2.8,85.3,-53.1,85.3,-53.1c0,0,3.2,-1.8,3.1,-4.3" class="g10_3" />
<path d="M782.2,394.5l37.7,21.9c0,0,1.5,0.8,1.5,1.9c0,1.1,0,1.7,0,1.7c0,0,0,0.5,-0.7,1c-0.6,0.5,-118.5,74,-118.5,74c0,0,-1.8,1.1,-3.9,0c-2.2,-1.1,-87,-50.5,-87,-50.5c0,0,-0.8,-0.4,-0.9,-1.3c0,-0.8,0,-2,0,-2c0,0,0,-0.7,0.8,-1.2" class="g10_3" />
<path d="M821.4,418.1c0,0,0,0.5,-0.7,1c-0.6,0.5,-118.5,74,-118.5,74c0,0,-1.8,1.1,-3.9,-0.1c-2.2,-1.1,-87,-50.5,-87,-50.5c0,0,-0.8,-0.4,-0.9,-1.2" class="g8_3" />
<path d="M776.2,380.2c0,0,0.1,0.6,-0.6,1.2c-0.8,0.7,-87.1,54.5,-87.1,54.5c0,0,-4.7,3.1,-10.3,3.5c-5.7,0.3,-43,2,-43,2" class="g8_3" />
<path d="M634.6,441c0,-0.4,0.4,-0.5,0.6,-0.6c0.2,-0.2,95.8,-59.7,95.8,-59.7c0,0,1,-0.5,1.6,-0.1c0.6,0.4,1.1,0.7,1.1,0.7" class="g8_3" />
<path d="M730.5,381.8c0,0,-95.2,59.3,-95.2,59.3" class="g8_3" />
<path d="M684.7,442.2l12,31.1" class="g8_3" />
<path d="M688.6,445.5l11,29.1" class="g8_3" />
<path d="M777.3,382.2l14.5,37.4c0,0,0.8,1.8,-1.7,3.4" class="g10_3" />
<path d="M789.5,413.7c1.4,0.8,4.3,1.9,4.3,4.6" class="g8_3" />
<path d="M790.5,416.3c1.2,0.7,2.6,1.5,3.1,3" class="g10_3" />
<path d="M705.2,448.3l2.4,6" class="g10_3" />
<path d="M705.2,448.3l2.7,-1.8" class="g10_3" />
<path d="M707.6,454.3l2.7,-1.7" class="g8_3" />
<path d="M710.3,452.6c1.2,-0.8,1.3,-3,1,-4.4c-0.4,-1.4,-2,-2.5,-3.4,-1.7" class="g8_3" />
<path d="M707.4,453.6l1.4,-0.9" class="g8_3" />
<path d="M708.8,452.7c1.2,-0.7,1.5,-2.8,1.2,-4.2c-0.3,-1.4,-1.8,-2.1,-3.2,-1.2" class="g8_3" />
<path d="M707.2,452.9l1,-0.6" class="g8_3" />
<path d="M708.2,452.3c0.9,-0.6,1.2,-2.1,1,-3.3c-0.1,-1.3,-1.7,-2.2,-2.6,-1.6" class="g8_3" />
<path d="M726.1,435.4l2.4,5.9" class="g10_3" />
<path d="M726.1,435.4l2.7,-1.8" class="g10_3" />
<path d="M728.5,441.3l2.7,-1.7" class="g8_3" />
<path d="M731.2,439.6c1.2,-0.7,1.3,-2.9,1,-4.3c-0.4,-1.5,-2,-2.6,-3.4,-1.7" class="g8_3" />
<path d="M728.3,440.7l1.4,-0.9" class="g8_3" />
<path d="M729.7,439.8c1.2,-0.8,1.5,-2.9,1.2,-4.3c-0.3,-1.4,-1.8,-2.1,-3.2,-1.2" class="g8_3" />
<path d="M728.1,439.9l1,-0.6" class="g8_3" />
<path d="M729.1,439.3c0.9,-0.5,1.2,-2.1,1,-3.3c-0.1,-1.2,-1.7,-2.1,-2.6,-1.5" class="g8_3" />
<path d="M710.7,439.5l1.3,3.2Z" class="g10_3" />
<path d="M717.6,435.2l-6.9,4.3" class="g10_3" />
<path d="M712,442.7l7,-4.3l-1.4,-3.2" class="g8_3" />
<path d="M711.8,441.8l5.7,-3.5l-1,-2.4" class="g8_3" />
<path d="M711.4,441.3l5.1,-3.1l-0.7,-1.7" class="g8_3" />
<path d="M715.7,450.5l1.3,3.1Z" class="g10_3" />
<path d="M721.5,446.8l-5.8,3.7" class="g10_3" />
<path d="M717,453.6l6,-3.5l-1.4,-3.3" class="g8_3" />
<path d="M716.7,453l4.8,-3l-1,-2.4" class="g8_3" />
<path d="M716.5,452.3l3.9,-2.4l-0.7,-1.7" class="g8_3" />
<path d="M731.6,426.4l1.3,3.2Z" class="g10_3" />
<path d="M738.5,422.1l-6.9,4.3" class="g10_3" />
<path d="M732.9,429.6l7,-4.3l-1.4,-3.2" class="g8_3" />
<path d="M732.7,428.7l5.7,-3.5l-1,-2.4" class="g8_3" />
<path d="M732.3,428.2l5.1,-3.1l-0.7,-1.7" class="g8_3" />
<path d="M736.6,437.4l1.3,3.2Z" class="g10_3" />
<path d="M742.4,433.7l-5.8,3.7" class="g10_3" />
<path d="M737.9,440.6l6,-3.6l-1.4,-3.3" class="g8_3" />
<path d="M737.6,439.9l4.8,-3l-1,-2.4" class="g8_3" />
<path d="M737.4,439.2l3.9,-2.4l-0.7,-1.7" class="g8_3" />
<path d="M756.3,418.7c0.1,0,0.3,0,0.5,-0.1c0.7,-0.3,7.6,-4.8,7.6,-4.8c0,0,0.6,-0.5,0.4,-1.2c-0.2,-0.7,-1.4,-3.5,-1.4,-3.5c0,0,-0.2,-0.2,-0.5,-0.3" class="g8_3" />
<path d="M762.9,408.8c-0.2,-0.1,-0.5,-0.1,-0.9,0c-0.8,0.4,-7.2,4.4,-7.2,4.4c0,0,-1.1,0.8,-0.6,1.5l1.5,3.7c0,0,0.2,0.3,0.6,0.3" class="g10_3" />
<path d="M755.8,418.3c1.4,-0.9,7.3,-4.6,7.3,-4.6c0,0,0.6,-0.5,0.4,-1.3c-0.3,-0.7,-1.5,-3.5,-1.5,-3.5" class="g8_3" />
<path d="M755.1,415.9l6.5,-4.1l-0.4,-1.5c0,0,-1.3,0.2,-1.4,0" class="g8_3" />
<path d="M761,410.4l-6,3.7l0.4,1.2" class="g8_3" />
<path d="M755,414.1l-0.8,-0.3" class="g8_3" />
<path d="M759,426.3c0.2,0,0.4,0,0.7,-0.1c0.6,-0.3,7.6,-4.8,7.6,-4.8c0,0,0.6,-0.5,0.4,-1.2c-0.3,-0.7,-1.5,-3.5,-1.5,-3.5c0,0,-0.1,-0.2,-0.4,-0.3" class="g8_3" />
<path d="M765.8,416.4c-0.2,-0.1,-0.5,-0.1,-0.9,0.1c-0.9,0.4,-7.2,4.3,-7.2,4.3c0,0,-1.1,0.8,-0.6,1.5l1.5,3.7c0,0,0.2,0.2,0.4,0.3" class="g10_3" />
<path d="M758.6,425.9c1.4,-0.9,7.4,-4.6,7.4,-4.6c0,0,0.6,-0.5,0.3,-1.2c-0.2,-0.8,-1.4,-3.6,-1.4,-3.6" class="g8_3" />
<path d="M757.9,423.5l6.6,-4.1L764,417.9c0,0,-1.2,0.2,-1.3,0" class="g8_3" />
<path d="M763.9,418l-6.1,3.7l0.5,1.2" class="g8_3" />
<path d="M757.8,421.7l-0.7,-0.2" class="g8_3" />
<path d="M619.3,449.1l0,54.5c0,0,-0.3,2.3,3.3,4.2c3.6,1.9,70.4,40.9,70.4,40.9c0,0,5,2.7,9.6,-0.1c4.7,-2.7,16.9,-10.5,16.9,-10.5c0,0,1.4,-1,1.4,-2c0,-1.1,0,-2.6,0,-2.6c0,0,-0.1,-0.5,-0.6,-0.7c-0.4,-0.3,-1.4,-0.9,-1.4,-0.9" class="g10_3" />
<path d="M711.3,537.5c-0.1,-0.7,0.2,-1.1,0.8,-1.5c0.6,-0.4,55.5,-34.6,55.5,-34.6c0,0,1.1,-0.6,1.1,0.4" class="g10_3" />
<path d="M720.9,533.5c-0.2,-0.4,-0.4,-0.6,-1.2,-0.3c-0.8,0.3,-1.3,0.5,-1.8,1c-0.6,0.4,-5.8,3.6,-5.8,3.6c0,0,-0.8,0.4,-0.8,-0.3" class="g8_3" />
<path d="M766.7,501.9l0,3.2c0,0,0.1,0.5,0.4,0.8c0.3,0.2,1.5,0.9,1.5,0.9c0,0,0.6,0.4,1.4,-0.1c0.8,-0.6,26.8,-16.7,26.8,-16.7c0,0,1.5,-1.1,1.5,-2.1c0,-1,0,-2.7,0,-2.7c0,0,0.1,-0.2,-0.7,-0.7c-0.7,-0.4,-1.5,-0.8,-1.5,-0.8" class="g10_3" />
<path d="M788.7,489.2c0,-0.9,0.4,-1.2,0.7,-1.4c0.4,-0.3,18.2,-11.2,18.2,-11.2c0,0,2.1,-0.8,2.1,-3.5c0,-2.6,0,-45.4,0,-45.4" class="g10_3" />
<path d="M798.3,485.2c0.1,-0.4,-0.5,-0.5,-1,-0.3c-0.5,0.2,-1.2,0.4,-1.2,0.4l-6.5,4.2c0,0,-0.9,0.5,-0.9,-0.3" class="g8_3" />
<path d="M663.1,633.7c0.1,-29,0.2,-49,0.1,-102.3" class="g10_3" />
<path d="M655.2,629.6c0.1,-31.4,0.5,-50.1,0.5,-102.6" class="g10_3" />
<path d="M697.5,546.5l0,-49" class="g8_3" />
<path d="M768.7,501.8l0,4.2c0,0,0.2,1.1,0.9,0.9" class="g8_3" />
<path d="M699.5,497.5l0,42" class="g8_3" />
<path fill-rule="evenodd" d="M747.7,548.8L719,610.3l-4.8,-2.8L687.4,581.1l18.3,-11.5l-0.1,-11.9l20,-12.5l4.6,2.5l0,6.7l13.3,-8.2Z" class="g16_3" />
<path fill-rule="evenodd" d="M748.2,548.5l-18,11.2l0,-12l-20.1,12.4l0,12.1l-18.2,11.5L719,610.3Z" class="g15_3" />
<path d="M747.8,548.7L719,610.3l-4.8,-2.8L687.4,581.1l2.4,-1.5l15.9,-9.8l-0.1,-12.3l20,-12.3l4.6,2.5l0,12" class="g10_3" />
<path d="M747.8,548.7l-4.3,-2.5l-13.2,8.2" class="g10_3" />
<path d="M747.8,548.7l-17.6,11" class="g8_3" />
<path d="M691.9,583.7l18.2,-11.5l0,-12.1l20.1,-12.4" class="g8_3" />
<path d="M710.1,560.1l-4.5,-2.6" class="g8_3" />
<path d="M710,572.2l-4.3,-2.4" class="g8_3" />
<path d="M719,610.3L691.9,583.7" class="g8_3" />
<path d="M691.9,583.7l-4.5,-2.6" class="g8_3" />
<path fill-rule="evenodd" d="M428.7,909.6l3.7,-2.3l-4.1,-37.1L412.1,857.1L398.8,846.5l-3.8,2.4l17.3,30.2l3.8,-2.3l-3.9,-8.6l7.4,5.6l0.2,28.7Z" class="g16_3" />
<path fill-rule="evenodd" d="M432.4,907.3l-0.3,-39.4L415.9,854.8l-0.1,-9.9l-17,1.6l17.3,30.3L416,865.9l7.3,5.6l0.2,28.7Z" class="g15_3" />
<path d="M416,871.1l3.6,2.7l0.2,28.7l8.9,7.1l3.7,-2.3l-0.3,-39.4L415.9,854.8l-0.1,-9.9l-17,1.6l-3.8,2.4l17.3,30.2l3.8,-2.3L416,865.9" class="g10_3" />
<path d="M398.8,846.5l17.3,30.3" class="g8_3" />
<path d="M416,865.9l7.3,5.6l0.2,28.7l8.6,6.8" class="g8_3" />
<path d="M423.3,871.5l-3.7,2.3" class="g8_3" />
<path d="M423.6,900.1l-3.7,2.4" class="g8_3" />
<path d="M276.5,808.8c3.2,-6.5,10.1,-15.7,17.4,-22.5" class="g10_3" />
<path d="M275.3,926.2c2.2,-15,-4.9,-36.9,-6.8,-63c-1.5,-21.2,2.3,-42.1,6.1,-49.6" class="g10_3" />
<path d="M281.5,924.1c2.2,-11.9,-4.4,-35.9,-6.2,-52.8c-2.2,-21.8,-1,-39.8,6.1,-57.4c5,-12.3,16.9,-23.4,24.5,-29.3" class="g10_3" />
<path d="M354.4,872.3c0,-0.7,0.9,-1.2,2,-1.3c1.1,0,2,0.6,2,1.3l0,2" class="g10_3" />
<path d="M354.5,872.7c0.3,-0.5,1,-0.8,1.9,-0.8c1.1,-0.1,2,0.5,2,1.2" class="g8_3" />
<path d="M355.3,872.9c0.3,-0.1,0.7,-0.2,1.1,-0.2c1.1,0,2,0.5,2,1.2" class="g8_3" />
<path d="M356.4,873.5c1.1,0,2,0.5,2,1.2" class="g8_3" />
<path d="M352.6,890.8c0,-1.4,1.8,-2.6,4,-2.6c2.3,0,4.1,1.1,4.1,2.5" class="g8_3" />
<path d="M360.7,890.7c0,1.4,-1.8,2.6,-4,2.6c-2.2,0.1,-4,-1.1,-4.1,-2.5" class="g10_3" />
<path d="M352.6,890c0,-1.4,1.8,-2.6,4,-2.6c2.3,-0.1,4.1,1.1,4.1,2.5" class="g10_3" />
<path d="M355.6,890.6l-0.5,0.4" class="g8_3" />
<path d="M355.1,891l0.8,0.7l-0.8,0.5l0.7,0.4l0.9,-0.4l1,0.4l0.7,-0.4l-1,-0.5l0.9,-0.8l-0.6,-0.3l-0.7,0.6c-0.2,0.1,-0.5,0.2,-0.7,0c-0.2,-0.2,-0.7,-0.6,-0.7,-0.6" class="g8_3" />
<path d="M353.8,880.2c0,-1,1.2,-1.8,2.7,-1.8c1.5,0,2.7,0.8,2.7,1.7" class="g8_3" />
<path d="M354.4,881.2c-0.4,-0.3,-0.6,-0.6,-0.6,-1" class="g8_3" />
<path d="M359.2,880.1c0,0.4,-0.2,0.8,-0.6,1.1" class="g8_3" />
<path d="M354.5,880.2c0,-0.7,0.9,-1.2,2,-1.3c1.1,0,2,0.6,2,1.3" class="g8_3" />
<path d="M354.5,881c0,-0.7,0.9,-1.3,2,-1.3c1.1,0,2,0.5,2,1.2" class="g8_3" />
<path d="M354.6,881.7c-0.1,-0.7,0.8,-1.3,1.9,-1.3c1.1,0,2,0.6,2,1.2" class="g8_3" />
<path d="M354.6,882.4c0,-0.7,0.8,-1.3,1.9,-1.3c1.1,0,2,0.5,2,1.2" class="g8_3" />
<path d="M354.6,883.1c0,-0.6,0.9,-1.2,1.9,-1.2c1.1,-0.1,2,0.5,2.1,1.2" class="g8_3" />
<path d="M354.6,883.9c0,-0.7,0.9,-1.3,2,-1.3c1.1,0,2,0.5,2,1.2" class="g8_3" />
<path d="M354.6,884.6c0,-0.7,0.9,-1.3,2,-1.3c1.1,0,2,0.6,2,1.3" class="g8_3" />
<path d="M354.6,885.4c0,-0.7,0.9,-1.3,2,-1.3c1.1,0,2,0.5,2,1.2" class="g8_3" />
<path d="M354.6,886.1c0,-0.7,0.9,-1.3,2,-1.3c1.1,0,2,0.5,2,1.2" class="g8_3" />
<path d="M354.6,886.8c0,-0.6,0.9,-1.2,2,-1.2c1.1,-0.1,2,0.5,2,1.2" class="g8_3" />
<path d="M354.6,887.6c0,-0.7,0.9,-1.3,2,-1.3c1.1,0,2,0.6,2,1.2" class="g8_3" />
<path d="M355.1,887.5c0.4,-0.3,0.9,-0.5,1.5,-0.5c0.6,0,1.2,0.2,1.5,0.5" class="g8_3" />
<path d="M210.5,996.3c-0.5,0.2,-1.2,-0.2,-1.4,-0.9c-0.3,-0.8,-0.2,-1.5,0.3,-1.7" class="g10_3" />
<path d="M209.4,993.7c0.5,-0.2,1.1,0.2,1.4,0.9c0.3,0.8,0.1,1.5,-0.3,1.7" class="g8_3" />
<path d="M209,994.2c0.3,0.1,0.6,0.4,0.8,0.9c0.2,0.4,0.2,0.8,0.1,1.2" class="g8_3" />
<path d="M208.6,991.5c-0.9,0.7,-1,1.2,-1.1,1.8c-0.1,0.6,0,2.2,0.4,2.6c0.5,0.5,8.9,6.8,8.9,6.8l0.6,-4.6" class="g8_3" />
<path d="M215.6,1003.2l-8.7,-6.7c0,0,-0.7,-1.3,-0.5,-2.9c0.2,-1.6,1.1,-2,1.6,-2.1c0.5,-0.1,0.6,-0.1,0.6,-0.1l8.8,6.7" class="g10_3" />
<path d="M216.8,1002.7l-1.2,0.5" class="g8_3" />
<path d="M207.9,996l-1.1,0.4" class="g8_3" />
<path d="M201.7,1000c-0.5,0.2,-1.1,-0.2,-1.4,-0.9c-0.3,-0.7,-0.1,-1.4,0.4,-1.6" class="g10_3" />
<path d="M200.7,997.5c0.5,-0.2,1.1,0.2,1.4,0.9c0.3,0.7,0.1,1.5,-0.4,1.6" class="g8_3" />
<path d="M200.3,997.9c0.3,0.2,0.6,0.5,0.8,1c0.2,0.4,0.2,0.8,0,1.1" class="g8_3" />
<path d="M199.9,995.3c-1,0.6,-1,1.1,-1.1,1.8c-0.2,0.6,0,2.1,0.4,2.6c0.4,0.5,8.9,6.8,8.9,6.8l0.6,-4.6" class="g8_3" />
<path d="M198.4,1000.4l-0.2,-0.1c0,0,-0.7,-1.3,-0.5,-2.9c0.2,-1.7,1.1,-2,1.6,-2.1c0.5,-0.1,0.6,-0.1,0.6,-0.1l8.8,6.7" class="g10_3" />
<path d="M199.2,999.8l-1.1,0.4" class="g8_3" />
<path d="M203.3,1008.1l-0.5,3.6l3.9,3.1" class="g10_3" />
<path d="M206.6,1011.6l0.1,7l12.8,9.9c0,0,1.2,1.1,3,1.1c1.8,0.1,2.9,0.1,4,-0.9c1.1,-0.9,8.1,-7.2,8.1,-7.2" class="g10_3" />
<path d="M206.7,1018.6l6.8,-2.9l2.3,-8.2l4.3,-3.3l1,-7.2l-1,7.2l12.5,9.6c0,0,3.3,2.5,3.1,4.7" class="g8_3" />
<path d="M215.8,1007.5l13.1,10.2c0,0,2.6,1.8,6.4,2.7" class="g8_3" />
<path d="M215.6,996.7l0.7,-0.2l4.8,0.5l13,10c0,0,3,2.4,2.6,5c-0.3,2.6,-1,7.4,-1,7.4c0,0,-0.2,1.1,-1.1,2.1" class="g10_3" />
<path d="M207.7,1001.1l1.8,-1.6l0.7,-0.4" class="g10_3" />
<path d="M202.8,1011.7l3.8,-0.1" class="g8_3" />
<path d="M213.5,1015.7l12.4,9.5c0,0,2.2,1.9,0.9,3.3" class="g8_3" />
<path d="M226.8,1025.8c0.5,0,1.5,-0.3,2.3,-0.8c0.7,-0.4,5.8,-3.6,6.1,-4.3" class="g8_3" />
<path d="M230,1026l5.4,3c0,0,1,0.5,2,0.2c1,-0.3,2.5,-0.8,4,-2.8c1.4,-2,1.7,-4.1,1.7,-4.7c-0.1,-0.6,-0.3,-1.2,-0.8,-1.7c-0.5,-0.4,-5.8,-6.1,-5.8,-6.1" class="g10_3" />
<path d="M209.7,1013c0.6,0.5,1.6,-0.1,2.3,-0.9c0.6,-0.9,0.8,-2.1,0.2,-2.6" class="g8_3" />
<path d="M209.7,1013l-11.6,-9c0,0,-1.4,-1.3,-0.4,-2.9c1.1,-1.6,2.8,-0.7,3.4,-0.2c0.7,0.5,11.1,8.6,11.1,8.6" class="g10_3" />
<path d="M347.6,779.4l4.7,3.6l6,-2.5l-6,2.5l-0.1,1.4l7.2,-3.1l-7.2,3.1l-5.8,-4.5" class="g8_3" />
<path d="M360.3,782l-6.6,2.9c0,0,-0.4,0.2,-0.4,0.6" class="g10_3" />
<path d="M353.3,785.5c0.1,0.2,0.4,0.4,0.6,0.6c0.1,0.1,3.2,2.4,3.2,2.4c0,0,0.5,0.4,0.4,0.9" class="g8_3" />
<path d="M356.1,789.2L345,780.6" class="g8_3" />
<path d="M343.9,779.7l-9.8,-7.6" class="g8_3" />
<path d="M333.1,771.2L332,770.5l-0.1,-0.7" class="g8_3" />
<path d="M333.5,769.3l0.2,0.8l0.7,0.6" class="g8_3" />
<path d="M335.5,771.5l9.8,7.7l2.4,-1.1" class="g8_3" />
<path d="M336.7,771l8.7,6.8l1.5,-0.6" class="g8_3" />
<path d="M337.9,770.4l-2.4,1.1" class="g8_3" />
<path d="M336.7,769.7l-2.3,1l0,-1.5" class="g8_3" />
<path d="M345.4,777.8l-0.1,1.4" class="g8_3" />
<path d="M348.8,778.9l-2.4,1" class="g8_3" />
<path d="M321.1,777.7l9.8,7.7L344,779.8" class="g8_3" />
<path d="M322.3,777.3l8.7,6.8l11.9,-5.2" class="g8_3" />
<path d="M345,780.5l-13,5.7" class="g8_3" />
<path d="M334.1,772.1l-13,5.6" class="g8_3" />
<path d="M333,771.3l-13,5.6l0.1,-1.4" class="g8_3" />
<path d="M320,776.9l-1.6,-1.3" class="g8_3" />
<path d="M320.1,775.5l-0.5,-0.4" class="g8_3" />
<path d="M320.1,775.5L332,770.3" class="g8_3" />
<path d="M317,776.1l1.7,1.4" class="g8_3" />
<path d="M319.8,778.3l9.8,7.7" class="g8_3" />
<path d="M330.7,786.8l11.1,8.7" class="g8_3" />
<path d="M332.1,786.2l11.2,8.7" class="g8_3" />
<path d="M333.3,785.7l9.9,7.8l0.1,1.4" class="g8_3" />
<path d="M355.1,788.4l-11.9,5.1" class="g8_3" />
<path d="M356.1,789.2l-12.9,5.6" class="g8_3" />
<path d="M354.3,784.6l2.9,2.3c0,0,0.5,0.4,0.6,1.1" class="g10_3" />
<path d="M357.8,788l-0.3,1.4c0,0,-0.1,0.3,-0.5,0.5c-0.5,0.2,-46.4,20.2,-46.4,20.2" class="g10_3" />
<path d="M309.8,809.5l0.8,0.6" class="g8_3" />
<path d="M309.8,809.5l0.5,-1.7l-0.5,-0.5c0,0,-0.7,-0.4,-1.6,0c-1,0.4,-9.4,4,-9.4,4" class="g8_3" />
<path d="M298.8,811.3l-0.1,1.6l-1.3,0.6l0.5,6.1" class="g8_3" />
<path d="M298.8,811.3l-6.7,-5.2" class="g8_3" />
<path d="M298.7,812.9l-7.8,-6.2" class="g8_3" />
<path d="M297.4,813.5l-11.1,-8.4" class="g8_3" />
<path d="M273.6,795.2l3.4,2.6l-0.2,9.5l-1.2,0.5" class="g10_3" />
<path d="M269.6,802.2c-0.2,0.1,0.1,0.9,0.5,1.4c0.4,0.5,5.5,4.2,5.5,4.2c0,0,1.2,0.8,1.3,2.3c0,1.5,-0.1,2.2,-0.1,2.2c0,0,-0.1,0.5,-0.6,0.7c-0.5,0.2,-1.2,0.5,-1.2,0.5c0,0,-0.3,0.3,-0.9,-0.1c-0.6,-0.3,-12.9,-10.2,-12.9,-10.2c0,0,-0.9,-0.6,-1.1,-1.7c-0.3,-1,-0.1,-2,-0.1,-2.1c-0.1,-0.1,-0.6,-53,-0.6,-53" class="g10_3" />
<path d="M276.8,807.3l-6.5,-5.1c0,0,-0.4,-0.2,-0.7,0" class="g8_3" />
<path d="M277,799.2l2.8,-1.2l0.2,-1.4" class="g10_3" />
<path d="M279.8,798l-3.6,-2.8" class="g8_3" />
<path d="M279.9,796.5l-3.2,-2.4" class="g10_3" />
<path d="M317.3,793.6c0,0,0.4,0.3,-0.3,0.5c-0.6,0.3,-26.3,11.5,-26.3,11.5c0,0,-0.6,0.3,-0.9,0.1c-0.3,-0.1,-2.7,-1.9,-2.7,-1.9" class="g8_3" />
<path d="M277,794c4.2,-1.8,24.4,-10.6,25.1,-10.9c0.7,-0.3,1.4,-0.2,1.8,0.1c0.4,0.2,13.4,10.4,13.4,10.4" class="g10_3" />
<path d="M276.2,795.2c-0.4,-0.3,-0.3,-0.7,0.1,-0.9c0,0,0.3,-0.1,0.7,-0.3" class="g8_3" />
<path d="M287.9,802.7l1.8,1.5c0,0,0.6,0.3,1,0.2c0.4,-0.2,25.9,-11.3,25.9,-11.3" class="g10_3" />
<path d="M345.6,768.7c0.2,-0.4,0.4,-0.4,0.9,-0.1c0.5,0.4,41.8,32.6,41.8,32.6c0,0,0.8,0.6,0.8,1.8c-0.1,1.3,-0.1,3.6,-0.1,3.6c0,0,0.2,1.2,1,2c0.8,0.8,20.4,15.8,20.4,15.8c0,0,0.7,0.5,1.1,0.2" class="g8_3" />
<path d="M262.4,800.4c0.2,-0.3,0.5,-0.6,1.1,-0.8c2.4,-1.1,68.6,-29.9,68.6,-29.9c0,0,3,-1.6,6.1,0.7c3.1,2.4,11.8,9.2,11.8,9.2c0,0,0.5,0.5,1.2,0.2c0.8,-0.3,1.2,-0.5,1.2,-0.5c0,0,0.5,-0.2,0.5,-0.7c0.1,-0.6,0,-2.1,0,-2.1c0,0,-0.2,-1.3,-1.1,-2c-0.8,-0.8,-5.4,-4.4,-5.4,-4.4c0,0,-0.9,-1,-0.8,-1.4" class="g10_3" />
<path d="M276.6,812.2c-0.2,0.2,-0.6,0.4,-1,0.1C275.2,812,262.7,802.1,262.7,802.1c0,0,-1.2,-1,-0.7,-2" class="g8_3" />
<path d="M317.6,776.6l-12,5.3l-0.7,-0.5" class="g8_3" />
<path d="M318.7,777.6l-13.1,5.6l-1.8,-1.3" class="g8_3" />
<path d="M305.6,783.2l0,-1.3" class="g8_3" />
<path d="M319.8,778.3l-13.2,5.8l9.8,7.6L329.6,786" class="g8_3" />
<path d="M328.4,785.1l-11.9,5.2l-8.7,-6.8" class="g8_3" />
<path d="M316.5,790.3l-0.1,1.4" class="g8_3" />
<path d="M330.7,786.8l-13.1,5.7" class="g8_3" />
<path d="M319.6,792.8l-0.1,1.3l-1.6,0.8" class="g8_3" />
<path d="M318.8,792l0.8,0.8" class="g8_3" />
<path d="M317.6,792.5l1.9,1.6" class="g8_3" />
<path d="M319,794.4l7.9,6.2l13.7,-6" class="g8_3" />
<path d="M317.9,794.9l9,7.1l14.9,-6.5" class="g8_3" />
<path d="M326.9,800.6l0,1.4" class="g8_3" />
<path d="M354.4,873.2c0,-0.7,0.9,-1.3,2,-1.3c1.1,0,2,0.5,2,1.2" class="g8_3" />
<path d="M354.6,873.4c0.3,-0.4,1,-0.7,1.8,-0.7c1.1,0,2,0.5,2,1.2" class="g8_3" />
<path d="M421.9,923.3c0.3,-0.2,0.7,-0.3,1.2,-0.3c1.1,0,2,0.5,2,1.2l0.1,1.7" class="g10_3" />
<path d="M422.6,923.9c0.1,-0.1,0.3,-0.1,0.6,-0.1c1.1,0,1.9,0.5,2,1.2" class="g8_3" />
<path d="M419.4,942.8c0,-1.5,1.8,-2.6,4,-2.7c2.2,0,4.1,1.1,4.1,2.5" class="g8_3" />
<path d="M427.5,942.6c0,1.5,-1.8,2.6,-4,2.7c-2.3,0,-4.1,-1.1,-4.1,-2.5" class="g10_3" />
<path d="M419.4,941.9c0,-1.4,1.8,-2.6,4,-2.6c2.2,0,4,1.1,4.1,2.5" class="g10_3" />
<path d="M422.4,942.5l-0.6,0.4" class="g8_3" />
<path d="M421.8,942.9l0.8,0.7l-0.7,0.6l0.6,0.4l0.9,-0.4l1.1,0.3l0.7,-0.4l-1,-0.4l0.9,-0.9l-0.6,-0.3l-0.7,0.6c-0.2,0.2,-0.5,0.2,-0.7,0.1c-0.2,-0.2,-0.7,-0.7,-0.7,-0.7" class="g8_3" />
<path d="M420.6,932.1c0,-0.9,1.2,-1.7,2.7,-1.7c1.4,-0.1,2.7,0.7,2.7,1.6" class="g8_3" />
<path d="M421.2,933.1c-0.4,-0.3,-0.6,-0.6,-0.6,-1" class="g8_3" />
<path d="M426,932c0,0.4,-0.3,0.8,-0.6,1.1" class="g8_3" />
<path d="M421.3,932.2c0,-0.7,0.9,-1.3,2,-1.3c1.1,0,2,0.5,2,1.2" class="g8_3" />
<path d="M421.3,932.9c0,-0.7,0.9,-1.2,2,-1.3c1.1,0,2,0.6,2,1.3" class="g8_3" />
<path d="M421.3,933.6c0,-0.7,0.9,-1.2,2,-1.2c1.1,-0.1,2,0.5,2,1.2" class="g8_3" />
<path d="M421.3,934.3c0,-0.7,0.9,-1.2,2,-1.3c1.1,0,2,0.6,2,1.3" class="g8_3" />
<path d="M421.3,935.1c0,-0.7,0.9,-1.3,2,-1.3c1.1,0,2,0.5,2,1.2" class="g8_3" />
<path d="M421.3,935.8c0,-0.7,0.9,-1.3,2,-1.3c1.1,0,2,0.5,2,1.2" class="g8_3" />
<path d="M421.4,936.5c-0.1,-0.7,0.8,-1.2,1.9,-1.2c1.1,-0.1,2,0.5,2,1.2" class="g8_3" />
<path d="M421.4,937.3c0,-0.7,0.8,-1.3,1.9,-1.3c1.1,0,2,0.5,2,1.2" class="g8_3" />
<path d="M421.4,938c0,-0.7,0.8,-1.3,1.9,-1.3c1.1,0,2,0.6,2.1,1.3" class="g8_3" />
<path d="M421.4,938.8c0,-0.7,0.9,-1.3,2,-1.3c1.1,0,2,0.5,2,1.2" class="g8_3" />
<path d="M421.4,939.5c0,-0.7,0.9,-1.2,2,-1.2c1.1,-0.1,2,0.5,2,1.2" class="g8_3" />
<path d="M421.9,939.4c0.4,-0.2,0.9,-0.4,1.5,-0.4c0.6,0,1.1,0.1,1.5,0.4" class="g8_3" />
<path d="M252.8,917.4l0,-1.1c0,-0.7,0.9,-1.3,2,-1.3c1.1,0,2,0.5,2,1.2l0,1.3" class="g10_3" />
<path d="M252.9,916.7c0.3,-0.5,1,-0.9,1.9,-0.9c1.1,0,2,0.6,2,1.2" class="g8_3" />
<path d="M253.7,916.9c0.3,-0.2,0.7,-0.2,1.1,-0.3c1.1,0,2,0.6,2,1.3" class="g8_3" />
<path d="M251,934.8c0,-1.4,1.8,-2.6,4,-2.6" class="g8_3" />
<path d="M256.3,937.2c-0.4,0,-0.8,0.1,-1.2,0.1c-2.2,0,-4,-1.1,-4.1,-2.5" class="g10_3" />
<path d="M251,933.9c0,-1.4,1.8,-2.5,4,-2.6" class="g10_3" />
<path d="M254,934.6l-0.5,0.3" class="g8_3" />
<path d="M253.5,934.9l0.8,0.8l-0.8,0.5l0.7,0.4l0.9,-0.4m0,-0.9c-0.1,0,-0.2,0,-0.4,-0.1C254.5,935,254,934.6,254,934.6" class="g8_3" />
<path d="M252.2,924.1c0,-0.9,1.2,-1.7,2.7,-1.7c0.1,0,0.2,0,0.3,0" class="g8_3" />
<path d="M252.8,925.1c-0.3,-0.2,-0.6,-0.6,-0.6,-1" class="g8_3" />
<path d="M252.9,924.2c0,-0.7,0.9,-1.3,2,-1.3" class="g8_3" />
<path d="M253,924.9c-0.1,-0.7,0.8,-1.2,1.9,-1.2" class="g8_3" />
<path d="M253,925.7c0,-0.7,0.8,-1.3,1.9,-1.3" class="g8_3" />
<path d="M253,926.3c0,-0.6,0.8,-1.2,1.9,-1.2" class="g8_3" />
<path d="M253,927.1c0,-0.7,0.9,-1.3,2,-1.3" class="g8_3" />
<path d="M253,927.8c0,-0.7,0.9,-1.2,2,-1.3" class="g8_3" />
<path d="M253,928.6c0,-0.7,0.9,-1.3,2,-1.3" class="g8_3" />
<path d="M253,929.3c0,-0.7,0.9,-1.2,2,-1.3" class="g8_3" />
<path d="M253,930c0,-0.7,0.9,-1.2,2,-1.2" class="g8_3" />
<path d="M253,930.8c0,-0.7,0.9,-1.3,2,-1.3" class="g8_3" />
<path d="M253,931.6c0,-0.7,0.9,-1.3,2,-1.3" class="g8_3" />
<path d="M253.5,931.4c0.4,-0.2,0.9,-0.4,1.5,-0.4" class="g8_3" />
<path d="M252.8,917.1c0,-0.7,0.9,-1.2,2,-1.3c1.1,0,2,0.6,2,1.3" class="g8_3" />
<path d="M253,917.4c0.3,-0.4,1,-0.7,1.8,-0.8c0.9,0,1.6,0.4,1.9,0.9" class="g8_3" />
<path d="M317.6,986.9c0,-0.6,0.3,-1.1,0.7,-1.5" class="g8_3" />
<path d="M322.3,989.3c-0.2,0,-0.4,0,-0.6,0.1c-2.2,0,-4.1,-1.1,-4.1,-2.5" class="g10_3" />
<path d="M317.9,985.1c-0.2,0.3,-0.3,0.6,-0.3,0.9l0,0.9" class="g8_3" />
<path d="M320.1,987l0.8,0.7l-0.8,0.6l0.7,0.3l0.9,-0.4l0.4,0.1" class="g8_3" />
<path d="M325.5,802.6l-9,-7.1l-10.8,4.7" class="g8_3" />
<path d="M306.8,799.7l7.9,6.3l9.7,-4.3" class="g8_3" />
<path d="M305.6,800.3l9.2,7l10.8,-4.7" class="g8_3" />
<path d="M314.7,806l0.1,1.3" class="g8_3" />
<path d="M313.2,807.9l-9,-7l-13.4,5.8" class="g8_3" />
<path d="M312,807.1c0.1,0,-1.6,0.7,-1.6,0.7" class="g8_3" />
<path d="M313.2,807.9l-3.3,1.5" class="g8_3" />
<path d="M404.5,814.6c0.1,-0.6,0.4,-0.3,0.9,0.1c0.5,0.3,13.6,10.7,13.6,10.7c0,0,1.1,1.2,1,1.9" class="g8_3" />
<path d="M352.8,776.1l33.9,26.4c0,0,0.7,0.7,0.7,1.5c-0.1,0.7,0,3.7,0,3.7c0,0,0,1.2,0.8,1.9c0.9,0.6,20.5,15.9,20.5,15.9c0,0,0.7,0.5,1.2,0.3c0.4,-0.1,1.5,-0.6,1.5,-0.6c0,0,0.3,-0.2,0.4,-0.6c0,-0.4,0,-2.2,0,-2.2c0,0,-0.1,-1.3,-1.2,-2c-1.1,-0.8,-5.4,-4.3,-5.4,-4.3c0,0,-0.9,-0.9,-0.7,-1.5" class="g10_3" />
<path d="M328.2,847.7c-0.2,0.5,0.2,1.2,0.7,1.6c0.5,0.4,5.1,4,5.1,4l1,1.1c0,0,0.4,0.9,0.3,1.5c0,0.7,0,1.9,0,1.9c0,0,-0.1,0.6,-0.5,0.7c-0.3,0.2,-1.2,0.6,-1.2,0.6c0,0,-0.5,0.2,-1,-0.2c-0.4,-0.3,-19.5,-15.1,-20.3,-15.8c-0.9,-0.8,-1.1,-1.5,-1.2,-2.4c0,-1,0,-3.5,0,-3.5c0,0,-0.1,-1,-1.1,-1.7c-1.1,-0.8,-26.6,-20.8,-26.6,-20.8l-0.1,-4.4" class="g10_3" />
<path d="M417.6,827.4c0,0.6,-0.3,1.1,-1.4,1.6c-2.7,1.2,-68.3,29.7,-68.3,29.7c0,0,-2.9,1.6,-6.2,-0.8c-3.3,-2.5,-12.8,-10.1,-12.8,-10.1c0,0,-0.6,-0.5,-0.7,-0.1" class="g8_3" />
<path d="M411.7,821.9l5.2,4.1c0,0,0.7,0.7,0.7,1.4" class="g10_3" />
<path d="M285.3,806.7l-0.1,7.2l-1.9,0.8" class="g8_3" />
<path d="M285.2,813.9l11.1,8.6" class="g8_3" />
<path d="M335,858.4c-0.2,0,-0.5,0,-0.7,-0.2c-0.5,-0.3,-19.5,-15.1,-20.4,-15.9c-0.8,-0.7,-1,-1.5,-1.1,-2.4c-0.1,-1.1,0,-2.1,0,-3.2" class="g8_3" />
<path d="M260,801.3c0,-0.6,0.2,-1.9,2.1,-2.8c1.9,-0.8,68.7,-29.8,68.7,-29.8c0,0,4,-2.7,9,1c5.1,3.7,11.9,9.3,11.9,9.3c0,0,0.6,0.5,0.9,0.2" class="g8_3" />
<path d="M377.2,795l-5,2.2c0,0,-0.9,0.4,-1.6,-0.1c-0.7,-0.4,-2.9,-2.2,-2.9,-2.2c0,0,-1.7,-1.5,-4,-0.5c-2.3,1,-41.1,17.9,-41.1,17.9" class="g10_3" />
<path d="M379.5,796.8l-6.8,3c0,0,-2,0.6,-3,-0.2c-1,-0.7,-4.1,-3.2,-4.1,-3.2l-1,0.4l-1.1,-0.7" class="g8_3" />
<path d="M371.7,800l4.8,3.7l7.6,-3.3" class="g8_3" />
<path d="M376.5,803.7l-0.8,1.7l0.9,0.9" class="g8_3" />
<path d="M375.7,805.4l9.6,-4.1" class="g8_3" />
<path d="M386.2,802l-7.2,3.2" class="g8_3" />
<path d="M380.2,804.7l8.7,6.8l1.2,-0.5" class="g8_3" />
<path d="M379,805.2l9.9,7.8l2.3,-1.1" class="g8_3" />
<path d="M388.9,813l0,-1.5" class="g8_3" />
<path d="M392.3,812.7l-2.3,1" class="g8_3" />
<path d="M387.5,813.5l-13,5.7" class="g8_3" />
<path d="M404.1,821.9l-1.2,0.5" class="g8_3" />
<path d="M405.3,822.8l-2.4,1.1L396,818.6" class="g8_3" />
<path d="M396.2,817.2l6.7,5.2l0,1.5" class="g8_3" />
<path d="M406.5,823.7l-39,17" class="g10_3" />
<path d="M372.2,837.2L359.3,827.1" class="g8_3" />
<path d="M372.3,835.7l-11.7,-9.2" class="g8_3" />
<path d="M387.2,830.7l-13,-10.1" class="g8_3" />
<path d="M388.6,830.1L375.6,820" class="g8_3" />
<path d="M388.6,828.6l-11.8,-9.1" class="g8_3" />
<path d="M401.5,824.5l-7.2,-5.7l-0.1,-1.3" class="g8_3" />
<path d="M388.5,814.4L375.6,820" class="g8_3" />
<path d="M376.6,806.3l-1.7,3.9" class="g10_3" />
<path d="M387.5,813.5l-9.9,-7.6l-1,0.4" class="g8_3" />
<path d="M386.3,812.6l-11.8,5.1l-8.3,-6.4" class="g8_3" />
<path d="M368.1,807l-3.1,6.7" class="g10_3" />
<path d="M365.7,812.2l8.8,7" class="g8_3" />
<path d="M365.1,813.5l8,6.3" class="g8_3" />
<path d="M374.2,820.6l-14.9,6.5" class="g8_3" />
<path d="M373.1,819.8l-14.9,6.5" class="g8_3" />
<path d="M371.9,818.9l-13.7,5.9l-8.7,-6.6" class="g8_3" />
<path d="M360.4,813.5l-12,5.2l9.8,7.6" class="g8_3" />
<path d="M359.3,812.6l-12,5.2" class="g8_3" />
<path d="M358.3,811.8l-10.9,4.7l-10,-7.8" class="g8_3" />
<path d="M347.3,817.8l-11.1,-8.6l14.9,-6.5l6.8,5.2" class="g8_3" />
<path d="M355.8,800.6l-3.4,1.5" class="g8_3" />
<path d="M353.7,801.6l5.3,4" class="g8_3" />
<path d="M352.4,802.1l6.1,4.7" class="g8_3" />
<path d="M401.5,824.5l-12.9,5.6l0,-1.5l11.7,-5" class="g8_3" />
<path d="M386,829.7l-13.7,6l-0.1,1.5l15,-6.5" class="g8_3" />
<path d="M370.8,837.8L357.9,827.7l-11,4.8" class="g8_3" />
<path d="M348.2,831.9l10.5,8.2l6.8,-2.9l1.4,0.9l2.8,-1.2" class="g8_3" />
<path d="M346.9,832.5l11.7,9l6.8,-2.9l1.4,0.9l4,-1.7" class="g8_3" />
<path d="M365.5,837.2l-0.1,1.4" class="g8_3" />
<path d="M366.9,838.1l-0.1,1.4" class="g8_3" />
<path d="M358.7,840.1l-0.1,1.4" class="g8_3" />
<path d="M357.2,842.1l-11.6,-9l-13.4,5.8" class="g8_3" />
<path d="M333.5,838.3l6,4.7l0,1.5" class="g8_3" />
<path d="M332.2,838.9l7.3,5.6" class="g8_3" />
<path d="M357.3,842.2l-5.7,2.4l0,-1.3l4.6,-2" class="g8_3" />
<path d="M349.8,845.2l-6.2,2.6l-3,-2.3" class="g10_3" />
<path d="M351.1,846.2L365,840.1c0.7,0.6,1.5,0.8,2.5,0.6" class="g10_3" />
<path d="M388.5,814.4l0.6,0.4c0,0,0.6,0.3,1.5,0.4c1,0,2.4,0.4,3.3,1.1c0.8,0.8,1.4,1.6,0.4,2.5" class="g8_3" />
<path d="M389.9,813.8l0.6,0.4c0,0,0.6,0.3,1.6,0.3c0.9,0.1,2.1,0.6,3,1.3c0.8,0.7,1.6,1.7,0.9,2.8" class="g8_3" />
<path d="M396.1,815.7c0.1,0.2,0.2,0.5,0.2,0.8" class="g8_3" />
<path d="M391.3,813.2c0.2,0,0.5,0,0.8,0.1c0.3,0,0.7,0.1,1.1,0.2" class="g8_3" />
<path d="M396.3,816.5l0,1.2" class="g8_3" />
<path d="M394.5,817.1c0,0.1,-0.2,0.3,-0.3,0.4" class="g8_3" />
<path d="M373.8,810.2c0,0,-11.5,-8.9,-11.9,-9.2c-0.4,-0.2,-0.5,-0.6,-0.3,-1c0.3,-0.5,1.9,-3.9,1.9,-3.9l1.2,-0.5c0,0,1.2,-0.6,2.8,0.7c1.5,1.3,2.9,2.3,2.9,2.3c0,0,0.3,0.8,2.1,0c1.8,-0.8,5.9,-2.6,5.9,-2.6" class="g8_3" />
<path d="M374.9,810.2c-0.3,0.6,-0.7,0.7,-1.3,0.7c-0.5,-0.1,-4.9,-0.9,-4.9,-0.9c0,0,-0.4,0,-0.9,-0.3c-0.4,-0.3,-0.6,-0.6,-0.6,-0.6" class="g10_3" />
<path d="M359.6,804.2l-4.1,-3.4" class="g10_3" />
<path d="M355.8,800.6c-0.3,-0.2,-0.4,-1,-0.3,-1.1" class="g8_3" />
<path d="M320.7,814.4l34.7,-15.1" class="g8_3" />
<path d="M323.9,814.5l10.9,-4.7l11.2,8.7" class="g8_3" />
<path d="M325.2,814l10,7.8l9.7,-4.2" class="g8_3" />
<path d="M323.9,814.5l11.2,8.7L346,818.5" class="g8_3" />
<path d="M333.7,823.9l-11.1,-8.8l-4.2,1.8" class="g8_3" />
<path d="M333.7,823.9l-13.3,5.7l-4.2,-3.1" class="g8_3" />
<path d="M332.6,822.9l-12.2,5.3l-3.7,-2.8" class="g8_3" />
<path d="M320.4,828.2l0,1.4" class="g8_3" />
<path d="M347.4,816.5l-0.1,1.3" class="g8_3" />
<path d="M356.8,826.9L347,819.4l-10.8,4.7" class="g8_3" />
<path d="M355.7,826.1l-9.7,4.2l-8.7,-6.8" class="g8_3" />
<path d="M356.8,826.9L346,831.7l-9.8,-7.6" class="g8_3" />
<path d="M346,831.7l0,-1.4" class="g8_3" />
<path d="M344.5,832.2l-9.8,-7.5l-13.3,5.8" class="g8_3" />
<path d="M343.4,831.4l-12.1,5.3L322.6,830" class="g8_3" />
<path d="M344.5,832.2L331.3,838l-9.9,-7.5" class="g8_3" />
<path d="M331.3,838l0,-1.3" class="g8_3" />
<path d="M315.7,827.9l23.5,18.3l3.1,-1.4c2.5,-1.1,5.5,-1.5,8.8,1.4" class="g10_3" />
<path d="M351.6,844.6c-2.9,-2.2,-6.1,-2.7,-12.1,-0.1" class="g8_3" />
<path d="M351.7,843.2c-2.9,-2.3,-6.2,-2.7,-12.2,-0.1" class="g8_3" />
<path d="M335.2,855l4.7,3.7c2.2,1.6,5.7,2.8,9.3,1.3c3.5,-1.5,68.2,-29.7,68.2,-29.7c0,0,2.3,-0.8,2.6,-3c0.2,-2.2,1,-50.3,1,-50.3" class="g10_3" />
<path d="M333.3,718.1l0,47.1" class="g8_3" />
<path d="M336.5,718.8l0.1,47.2" class="g8_3" />
<path d="M361.1,800.4L355.9,800" class="g8_3" />
<path d="M365,813.7c-0.2,0.4,-0.5,0.6,-0.9,0.5c-0.4,-0.1,-3.1,-0.6,-3.3,-0.6c-0.1,0,-0.5,-0.3,-0.8,-0.5c-0.3,-0.2,-2.9,-2.3,-2.9,-2.3c0,0,-0.4,-0.4,-0.1,-0.8c0.3,-0.4,3.2,-6.9,3.2,-6.9" class="g10_3" />
<path d="M363,804.8l0.2,-1.4l-2.9,-0.5l-0.2,1.4" class="g8_3" />
<path d="M363.8,803.9l-3.1,7.1" class="g8_3" />
<path d="M357.4,810.5l3.1,0.8l3.7,2.6" class="g8_3" />
<path d="M364.2,803.9l3.6,2.9" class="g8_3" />
<path d="M312.6,809.5L306,825.8" class="g10_3" />
<path d="M309.9,824.3l-3.2,3.3" class="g8_3" />
<path d="M310.6,817.7l-2.2,2.2" class="g10_3" />
<path d="M315.6,822.4l-6.7,7" class="g10_3" />
<path d="M320.5,816l-6.7,16.1" class="g10_3" />
<path d="M314.5,821.1l20,-21.4" class="g10_3" />
<path d="M312.1,818.8l14.5,-15.7" class="g10_3" />
<path d="M317.3,813.1l-5.7,2.5l-1.1,-0.9" class="g10_3" />
<path d="M311.6,815.6l-0.2,2.3" class="g8_3" />
<path d="M311,829.9l1.4,-4.2" class="g8_3" />
<path d="M307.1,823l-0.1,2.9c0,1.4,-0.3,2.4,-1.4,2.9c-1,0.6,-1.7,0.9,-2.7,0.4c-1,-0.4,-4,-2.9,-4,-2.9c0,0,-0.5,-0.8,-0.6,-1.1" class="g8_3" />
<path d="M308.7,807.6l-5.6,15c0,0,-2.4,4.9,-4.8,2.6" class="g8_3" />
<path d="M315.7,822.3c-0.2,0.2,-1.4,-0.7,-2.8,-1.9c-1.4,-1.3,-2.4,-2.5,-2.2,-2.7" class="g8_3" />
<path d="M310.7,817.7c0.1,-0.1,0.7,0.3,1.5,0.9m2.5,2.3c0.7,0.7,1.1,1.3,1,1.4" class="g10_3" />
<path d="M314.4,821.1c-0.1,0.1,-0.7,-0.3,-1.4,-0.9c-0.6,-0.6,-1.1,-1.2,-1,-1.3" class="g8_3" />
<path d="M309.9,824.2c-0.1,-0.1,-0.2,-0.2,-0.4,-0.3c-0.8,-0.8,-1.5,-1.6,-1.9,-2.1" class="g8_3" />
<path d="M296.9,824.2c-0.9,-0.7,-0.8,-2.3,0.2,-3.7c1,-1.4,2.6,-2,3.5,-1.3" class="g10_3" />
<path d="M300.6,819.2c0.8,0.6,0.8,2.3,-0.2,3.7c-1.1,1.3,-2.6,1.9,-3.5,1.3" class="g8_3" />
<path d="M302.2,820.4c0.9,0.6,0.8,2.3,-0.2,3.6c-1,1.4,-2.5,2,-3.4,1.4" class="g8_3" />
<path d="M306,825.8c-0.2,0.4,-0.4,0.8,-0.7,1.2c-0.2,0.4,-0.5,0.7,-0.9,0.9" class="g8_3" />
<path d="M304.3,830.1c0.5,0.4,1.2,1.1,2.2,0.8c1,-0.3,1.7,-0.8,2.4,-1.5" class="g8_3" />
<path d="M313.8,832.1c-0.9,2.2,-3.3,2.9,-4.2,2.3" class="g8_3" />
<path d="M309.6,834.4l-4.1,-3.2" class="g8_3" />
<path d="M309.2,829c-0.1,0.3,-0.2,0.6,-0.4,0.8c-1,1.4,-2.6,2,-3.5,1.3" class="g8_3" />
<path d="M300.6,819.2l1.6,1.2" class="g10_3" />
<path d="M296.9,824.2l1.4,1" class="g10_3" />
<path d="M304.3,830.1c-0.2,-0.1,-0.4,-0.4,-0.4,-0.6" class="g8_3" />
<path d="M305.3,831.1C305.2,831,305,830.8,305,830.7" class="g8_3" />
<path d="M310,834.6c0.1,0.3,0.4,0.8,0.6,1" class="g8_3" />
<path d="M310.6,835.6l1.6,1.2" class="g8_3" />
<path d="M310.6,835.6c0.5,-0.5,2.1,-1.3,3,-1.5" class="g8_3" />
<path d="M312.2,836.8c1,-0.1,2.6,-0.8,3.2,-1.4" class="g10_3" />
<path d="M315.4,835.4c0.6,-0.8,1.5,-2.2,1.4,-3.5" class="g10_3" />
<path d="M315.5,830c0.3,0.3,1,1.2,1.3,1.9l-1.7,-1.1" class="g10_3" />
<path d="M315.5,830l-0.6,-0.3" class="g8_3" />
<path d="M315.4,835.4l-1.8,-1.3" class="g8_3" />
<path d="M315.1,830.8c-0.4,0.7,-1.2,1.8,-1.5,3.3" class="g8_3" />
<path d="M315.1,830.8c-0.2,-0.3,-0.4,-0.8,-0.4,-0.8" class="g8_3" />
<path d="M343.3,906.3l0,1l2.8,-1.2" class="g8_3" />
<path d="M344.6,905.2l-1.1,0.5" class="g10_3" />
<path d="M345.7,905.9l-4.4,-3.5" class="g10_3" />
<path d="M341.7,902.7l-1.2,-1.6c-0.3,-0.5,-0.3,-1.4,-0.3,-1.8c0.1,-0.3,0,-0.7,0.6,-0.9c0.6,-0.2,1,-0.4,1,-0.4c0,0,0.8,-0.3,0.8,-1.5c0,-1.2,0,-16.7,0,-16.7c0,0,-0.4,-1.7,1.8,-2.7c2.3,-1,9.1,-3.9,9.1,-3.9c0,0,1.9,-1,4.2,0.5c2.2,1.5,75.6,58.5,75.6,58.5c0,0,0.7,0.6,0.7,1.3c0,0.6,-0.1,2.1,-0.1,2.1c0,0,0,0.5,-0.8,0.8c-0.8,0.4,-7.5,3.3,-7.5,3.3" class="g10_3" />
<path d="M423.1,945.9L423,958.7c0,0,-0.1,2,-1.6,2.7c-1.6,0.7,-85.4,37.1,-85.4,37.1c0,0,-0.9,0.5,-1.7,-0.1c-0.8,-0.5,-56.1,-43.6,-56.5,-43.9c-0.3,-0.3,-0.5,-1.1,-0.5,-1.5c0.1,-0.4,0.1,-0.9,0.1,-0.9" class="g10_3" />
<path d="M255,918.6c-0.1,-0.1,-0.3,-0.2,-0.7,0c-1,0.6,-8.8,3.9,-8.8,3.9c0,0,-0.8,0.4,-0.7,1.3" class="g8_3" />
<path d="M279.6,953.9c0,-0.1,-0.1,-0.3,-0.3,-0.5c-0.6,-0.6,-7.6,-6,-7.6,-6c0,0,-0.9,-0.5,-1.5,-0.2c-0.7,0.2,-1,0.5,-1.7,-0.1c-0.8,-0.5,-12.8,-9.9,-12.8,-9.9c0,0,-0.7,-0.6,-0.8,-1.3c-0.1,-0.7,0.1,-16.3,0.1,-16.4c0,0,0,-0.4,-0.2,-0.6" class="g10_3" />
<path d="M278.3,954.6c0.3,0,1,-0.3,1,-0.3c0,0,0.3,-0.2,0.3,-0.4" class="g8_3" />
<path d="M244.8,923.3l-0.2,-1.1c0,0,-0.2,-0.9,1,-1.4c1.1,-0.5,9.1,-3.9,9.1,-3.9c0,0,0.6,-0.4,1.1,-0.1c0.5,0.3,13.2,10.3,13.2,10.3c0,0,0.5,0.6,0.6,1.3c0,0.3,0,0.7,0,0.9" class="g10_3" />
<path d="M256.7,935.2c0.1,0.2,0.5,0,0.6,0c0.2,-0.1,1.4,-0.7,1.4,-0.7c0,0,0.5,-0.2,0.9,0c0.5,0.1,3.5,1.4,3.5,1.4l4.2,3.2l1.2,-0.5" class="g10_3" />
<path d="M255.8,916.8c0.7,0.5,0.5,1.1,0.5,1.3c0.1,0.3,-0.1,16.7,-0.1,16.7c0,0,0,0.6,0.2,0.7" class="g8_3" />
<path d="M269.7,939.3l-2.6,1.2l-4.3,-3.2l-3.1,-1.4c0,0,-0.9,-0.2,-1.4,0.1c-0.5,0.2,-1.6,0.7,-1.6,0.7c0,0,-0.5,0.3,-1.2,-0.4" class="g8_3" />
<path d="M244.8,923.3c0,0.4,0.3,0.8,0.7,1.1c0.5,0.3,7.5,5.7,7.5,5.7" class="g10_3" />
<path d="M269.7,939.3l-5.9,-4.5c-0.5,-0.4,-0.4,-0.7,-0.5,-1.3c0,-0.5,0.2,-1.6,0.8,-1.9c0.6,-0.2,70.7,-30.7,70.7,-30.7c0,0,1.5,-0.8,2.6,0c1.2,0.8,6.1,4.7,6.1,4.7" class="g10_3" />
<path d="M343.3,907.3l-6.1,-4.7c0,0,-0.8,-0.7,-2.3,-0.1c-1.4,0.7,-70.8,30.9,-70.8,30.9c0,0,-0.9,0.5,-0.7,0.8" class="g8_3" />
<path d="M340.3,900.7c-0.1,-0.4,0.2,-0.7,0.6,-0.9c0.5,-0.2,1.6,-0.7,1.6,-0.7c0,0,1.6,-0.4,1.6,-2.3c0,-1.8,0,-16.9,0,-16.9c0,0,-0.1,-1,1,-1.5c1.1,-0.5,8.6,-3.8,8.6,-3.8c0,0,1.8,-0.8,3.7,0.5c1.8,1.4,75.3,58.6,75.9,59.1c0.7,0.4,0.8,1,0.6,1.4" class="g8_3" />
<path d="M344.9,879.5l8.8,7" class="g8_3" />
<path d="M360.6,891.8l60.3,46.9" class="g8_3" />
<path d="M344.4,898.8l77.8,60.6" class="g8_3" />
<path d="M404.6,951.7l-2.8,1.2L378.1,934.4" class="g8_3" />
<path d="M403.7,951l-1.8,0.8L379.1,934" class="g8_3" />
<path d="M401.9,951.8l-0.1,1.1" class="g8_3" />
<path d="M404.6,951.7L380.9,933.2l-2.8,1.2" class="g10_3" />
<path d="M328.4,985l-2.8,1.2" class="g8_3" />
<path d="M325.6,986.2L285.4,955.1" class="g8_3" />
<path d="M325.7,985.1l-0.1,1.1" class="g8_3" />
<path d="M326.8,984.2l-1,0.4" class="g10_3" />
<path d="M325.7,984.4L285.5,953.3" class="g10_3" />
<path d="M327.9,984.6L314,973.7c-0.9,-0.6,-0.7,-2.3,-0.5,-2.9c0.3,-0.7,1,-1.5,2.2,-1.9c1.1,-0.4,2.6,-1.5,2.4,-2.3" class="g10_3" />
<path d="M341.9,950.6c0.1,-0.8,0,-1.5,-1,-2.4c-1.1,-0.9,-8.1,-6.2,-8.1,-6.2c0,0,-3.2,-2.8,-8.6,-0.5c-5.4,2.4,-20.6,9,-20.6,9c0,0,-3,1.8,-6.7,-0.6c-3.7,-2.3,-7.4,-0.5,-7.9,-0.3c-0.5,0.2,-3.1,1.3,-3.1,1.3c0,0,-1.5,0.9,-1.4,2.3" class="g10_3" />
<path d="M284.5,953.2c0,0.5,0,1,0.9,1.9" class="g8_3" />
<path d="M285.5,953.3c-0.3,-0.3,-0.6,-0.6,-0.7,-1" class="g10_3" />
<path d="M299.9,951.1l16.2,12.6" class="g10_3" />
<path d="M341.9,950.6c-0.2,0.7,-1.1,1.5,-2.1,2c-1.1,0.5,-21.8,9.5,-21.8,9.5c0,0,-1.8,0.7,-1.9,1.7" class="g8_3" />
<path d="M318.1,967.9c0.3,-0.6,0.4,-1.6,-0.4,-2.3c-0.7,-0.8,-1.7,-1.2,-1.6,-2.5c0,-1.2,0.2,-1.9,1.2,-2.4" class="g10_3" />
<path d="M317.3,960.7L340,950.8c1.1,-0.4,1.6,-1.1,1.2,-2.1" class="g10_3" />
<path d="M318.1,968.5c-0.4,0.8,-1.1,1.2,-1.6,1.5c-0.6,0.2,-2.1,0.9,-2.1,0.9c0,0,-0.9,0.2,-1,1.2" class="g8_3" />
<path d="M252.8,916.3l0,1.4" class="g8_3" />
<path d="M256.8,916.2l0,1.4" class="g8_3" />
<path d="M252.9,924.2l0.1,7.4" class="g8_3" />
<path d="M254.9,748.6l82.7,-36.3" class="g10_3" />
<path d="M425.3,780.3l-87.7,-68" class="g10_3" />
<path d="M259.5,752.1l-4.6,-3.5" class="g8_3" />
<path d="M420.9,782.2l4.4,-1.9" class="g8_3" />
<path d="M242.9,1023.2c16.6,12.2,38.9,22.8,47.6,11.9c8.7,-10.9,8,-20.8,-0.8,-37.2C280.8,981.5,261.8,964.5,271,947.1" class="g10_3" />
<path d="M239,1028.9c16.6,12.2,42.9,24.5,53.7,14.3c10.9,-10.2,14.6,-23.9,7.1,-40.6C288.3,977,269.7,967.2,276.6,951.3" class="g10_3" />
<path d="M751.3,790.7c0,-1.6,2,-2.8,4.4,-2.9c2.5,0,4.5,1.2,4.5,2.8" class="g8_3" />
<path d="M751.3,789.8l0,0.9c0.1,1.5,2.1,2.8,4.5,2.7c2.5,0,4.4,-1.3,4.4,-2.8l0,-1" class="g10_3" />
<path d="M751.3,789.8c0,-1.6,2,-2.9,4.4,-2.9c2.5,0,4.5,1.2,4.5,2.7" class="g8_3" />
<path d="M754.6,790.4l-0.6,0.4" class="g8_3" />
<path d="M754,790.8l0.9,0.9l-0.8,0.5l0.7,0.5l1,-0.5l1.1,0.4l0.8,-0.4l-1.1,-0.5l0.9,-1l-0.6,-0.3l-0.7,0.7c-0.2,0.1,-0.6,0.2,-0.8,0c-0.2,-0.2,-0.8,-0.7,-0.8,-0.7" class="g8_3" />
<path d="M713.1,824.3l-0.5,-0.4" class="g8_3" />
<path d="M713.1,824.3l13,-5.7" class="g8_3" />
<path d="M688.3,866l0.4,6.7" class="g8_3" />
<path d="M657.8,853.6c-0.3,0.1,0,1,0.4,1.6c0.5,0.5,6.1,4.6,6.1,4.6c0,0,1.4,0.9,1.4,2.5c0,1.6,-0.1,2.4,-0.1,2.4c0,0,-0.1,0.6,-0.6,0.8c-0.5,0.2,-1.3,0.5,-1.3,0.5c0,0,-0.4,0.3,-1,-0.1C662,865.6,648.6,854.7,648.6,854.7c0,0,-1,-0.7,-1.3,-1.8c-0.3,-1.2,-0.1,-2.2,-0.1,-2.3c-0.1,-0.1,-0.6,-58.1,-0.6,-58.1" class="g10_3" />
<path d="M787.9,852.5c0,0,0.9,0.7,0.9,2c-0.1,1.4,-0.1,3.9,-0.1,3.9c0,0,0.2,1.4,1.1,2.3c0.9,0.8,22.3,17.3,22.3,17.3c0,0,0.8,0.6,1.3,0.2" class="g8_3" />
<path d="M649.8,851.7c0.2,-0.3,0.6,-0.7,1.2,-0.9c2.7,-1.2,75.3,-32.8,75.3,-32.8c0,0,3.3,-1.7,6.7,0.8c3.4,2.5,12.9,10,12.9,10c0,0,0.5,0.6,1.4,0.3c0.8,-0.3,1.3,-0.6,1.3,-0.6c0,0,0.5,-0.2,0.5,-0.8c0.1,-0.6,0,-2.3,0,-2.3c0,0,-0.2,-1.4,-1.2,-2.2C747,822.4,742,818.4,742,818.4c0,0,-1.1,-1.1,-0.9,-1.6" class="g10_3" />
<path d="M665.4,864.6c-0.2,0.2,-0.6,0.4,-1.1,0.1c-0.4,-0.4,-14.1,-11.2,-14.1,-11.2c0,0,-1.4,-1.1,-0.8,-2.2" class="g8_3" />
<path d="M710.4,825.6l-13.2,5.7l-0.8,-0.4" class="g8_3" />
<path d="M642.8,830.2c0.3,-0.2,0.8,-0.3,1.2,-0.3c1.2,0,2.2,0.6,2.2,1.4" class="g8_3" />
<path d="M780,849.1l6.2,4.8c0,0,0.7,0.8,0.7,1.7c0,0.8,0,4,0,4c0,0,0,1.4,1,2.1c0.9,0.7,22.4,17.5,22.4,17.5c0,0,0.8,0.6,1.3,0.4c0.4,-0.2,1.7,-0.8,1.7,-0.8c0,0,0.3,-0.1,0.4,-0.6c0,-0.4,0,-2.5,0,-2.5c0,0,-0.2,-1.3,-1.3,-2.1c-1.2,-0.9,-5.9,-4.8,-5.9,-4.8c0,0,-1,-0.9,-0.8,-1.6" class="g10_3" />
<path d="M722,903.6c-0.3,0.5,0.2,1.3,0.8,1.7c0.5,0.5,5.6,4.3,5.6,4.3l1.1,1.3c0,0,0.4,1,0.3,1.7c0,0.6,0,2,0,2c0,0,-0.1,0.6,-0.5,0.8c-0.4,0.2,-1.4,0.6,-1.4,0.6c0,0,-0.5,0.2,-1,-0.1c-0.6,-0.4,-21.4,-16.6,-22.4,-17.5c-0.9,-0.8,-1.1,-1.6,-1.2,-2.6c-0.1,-1,0,-3.8,0,-3.8c0,0,-0.2,-1.1,-1.3,-1.9c-1.1,-0.8,-24.9,-19,-24.9,-19" class="g10_3" />
<path d="M677.2,868.3l9.8,7.6" class="g8_3" />
<path d="M729.5,915.3c-0.3,0,-0.5,0,-0.8,-0.2c-0.5,-0.4,-21.4,-16.6,-22.4,-17.5c-0.9,-0.8,-1.1,-1.6,-1.2,-2.6c-0.1,-1.2,0,-2.3,0.1,-3.5" class="g8_3" />
<path d="M647.2,852.6c0,-0.6,0.2,-2.1,2.3,-3c2.1,-0.9,75.3,-32.8,75.3,-32.8c0,0,4.5,-2.9,10,1.2c5.5,4,13,10.1,13,10.1c0,0,0.6,0.6,1,0.3" class="g8_3" />
<path d="M730.6,858.5c-8.1,3.5,-14.6,6.3,-14.7,6.2" class="g10_3" />
<path d="M738.9,866l-6.8,-5.3" class="g8_3" />
<path d="M738.2,867l-7.4,-5.7l2.1,-0.9" class="g8_3" />
<path d="M796.4,868.4c0.2,0.3,0.3,0.6,0.3,0.9" class="g8_3" />
<path d="M713.8,867l17.7,-7.7" class="g8_3" />
<path d="M717.3,867.2l12,-5.3l7.4,5.9" class="g8_3" />
<path d="M718.6,866.5l7.5,5.9" class="g8_3" />
<path d="M717.3,867.2l7.4,5.7" class="g8_3" />
<path d="M723.1,873.6l-7.2,-5.7l-4.6,1.8" class="g8_3" />
<path d="M713.4,883.7l-4.5,-3.4" class="g8_3" />
<path d="M711.2,880.5l-1.8,-1.4" class="g8_3" />
<path d="M708.2,881.8l5.1,3.9" class="g10_3" />
<path d="M823.6,834.5c0.1,-5.1,0.2,-8.5,0.2,-8.5" class="g10_3" />
<path d="M738.4,917.4c2,0.6,4.3,0.6,6.6,-0.4c3.9,-1.7,74.9,-32.5,74.9,-32.5c0,0,2.5,-0.9,2.7,-3.3" class="g10_3" />
<path d="M727.6,761.4l0,51.7" class="g8_3" />
<path d="M731.1,762.1l0.1,51.8" class="g8_3" />
<path d="M703.7,864.7l-6.1,14.8" class="g10_3" />
<path d="M702,877.8l-3.6,3.7" class="g8_3" />
<path d="M702.7,870.6l-2.4,2.4" class="g10_3" />
<path d="M708.2,875.8l-7.4,7.6" class="g10_3" />
<path d="M713.6,868.7l-7.4,17.8" class="g10_3" />
<path d="M707,874.3l16.9,-18.1" class="g10_3" />
<path d="M704.3,871.9l11.5,-12.8" class="g10_3" />
<path d="M710.1,865.6l-6.3,2.7l-1.2,-0.9" class="g10_3" />
<path d="M703.8,868.3l-0.2,2.6" class="g8_3" />
<path d="M703.1,884l1.6,-4.6" class="g8_3" />
<path d="M698.9,876.5l-0.1,3.1c-0.1,1.5,-0.4,2.6,-1.5,3.3c-1.2,0.6,-1.9,0.9,-3,0.4c-1.2,-0.5,-4.4,-3.2,-4.4,-3.2c0,0,-0.6,-0.9,-0.7,-1.2" class="g8_3" />
<path d="M697.9,866.9l-3.4,9c0,0,-2.6,5.5,-5.3,3" class="g8_3" />
<path d="M708.3,875.7c-0.2,0.2,-1.6,-0.8,-3.1,-2.2c-1.5,-1.4,-2.6,-2.7,-2.4,-2.9" class="g8_3" />
<path d="M702.8,870.6c0.1,-0.1,0.8,0.3,1.7,1m2.7,2.5c0.8,0.8,1.2,1.5,1.1,1.6" class="g10_3" />
<path d="M706.8,874.4c0,0.1,-0.7,-0.4,-1.4,-1.1c-0.7,-0.6,-1.3,-1.2,-1.2,-1.3" class="g8_3" />
<path d="M702,877.8c-0.2,-0.1,-0.3,-0.3,-0.5,-0.4c-0.9,-0.9,-1.7,-1.7,-2.1,-2.2" class="g8_3" />
<path d="M687.7,877.7c-1,-0.7,-0.9,-2.5,0.2,-4c1.1,-1.5,2.8,-2.1,3.8,-1.4" class="g10_3" />
<path d="M691.7,872.3c1,0.7,0.9,2.5,-0.2,4c-1.1,1.5,-2.8,2.1,-3.8,1.4" class="g8_3" />
<path d="M693.5,873.6c1,0.7,0.9,2.5,-0.2,4c-1.1,1.5,-2.8,2.1,-3.8,1.4" class="g8_3" />
<path d="M697.6,879.5c-0.1,0.4,-0.4,0.9,-0.7,1.3c-0.3,0.4,-0.6,0.8,-1,1" class="g8_3" />
<path d="M695.8,884.3c0.6,0.4,1.4,1.1,2.4,0.8c1.1,-0.4,1.8,-0.9,2.6,-1.7" class="g8_3" />
<path d="M706.2,886.5c-0.9,2.4,-3.6,3.1,-4.6,2.4" class="g8_3" />
<path d="M701.6,888.9l-4.5,-3.5" class="g8_3" />
<path d="M701.2,883c-0.1,0.3,-0.3,0.6,-0.5,0.9c-1.1,1.5,-2.8,2.2,-3.8,1.5" class="g8_3" />
<path d="M691.7,872.3l1.8,1.3" class="g10_3" />
<path d="M687.7,877.7l1.5,1.2" class="g10_3" />
<path d="M695.8,884.3c-0.2,-0.2,-0.4,-0.6,-0.5,-0.8" class="g8_3" />
<path d="M696.9,885.4c-0.1,-0.1,-0.3,-0.4,-0.3,-0.6" class="g8_3" />
<path d="M702,889.1c0.2,0.4,0.5,0.9,0.7,1.1" class="g8_3" />
<path d="M702.7,890.2l1.8,1.4" class="g8_3" />
<path d="M702.7,890.2c0.6,-0.5,2.3,-1.4,3.3,-1.5" class="g8_3" />
<path d="M704.5,891.6c1.1,-0.2,2.8,-0.8,3.4,-1.5" class="g10_3" />
<path d="M707.9,890.1c0.7,-0.9,1.8,-2.4,1.6,-3.9" class="g10_3" />
<path d="M708,884.1c0.4,0.4,1.2,1.4,1.5,2.1L707.7,885" class="g10_3" />
<path d="M708,884.1l-0.5,-0.4" class="g8_3" />
<path d="M707.9,890.1L706,888.7" class="g8_3" />
<path d="M707.7,885c-0.5,0.7,-1.4,2,-1.7,3.7" class="g8_3" />
<path d="M707.7,885c-0.3,-0.4,-0.5,-0.9,-0.5,-0.9" class="g8_3" />
<path d="M742.8,819l1.4,-0.6" class="g8_3" />
<path d="M742.5,817.4l-1,0.4" class="g10_3" />
<path d="M743.8,818.1l-4.9,-3.8" class="g10_3" />
<path d="M739.3,814.6L738,812.9c-0.3,-0.5,-0.4,-1.6,-0.3,-1.9c0.1,-0.4,0,-0.8,0.7,-1.1c0.7,-0.2,1,-0.5,1,-0.5c0,0,0.9,-0.3,0.9,-1.6c0,-1.2,0,-18.3,0,-18.3c0,0,-0.4,-1.8,2.1,-2.9c2.4,-1.1,9.8,-4.3,9.8,-4.3c0,0,2.2,-1.1,4.6,0.6c2.5,1.6,83,64.1,83,64.1c0,0,0.8,0.6,0.8,1.4c0,0.7,-0.1,2.3,-0.1,2.3c0,0,0,0.5,-0.9,0.9c-0.9,0.4,-6.9,3,-11,4.8" class="g10_3" />
<path d="M828.6,856.4l-0.1,19.7c0,0,-0.1,2.1,-1.8,2.9c-1.7,0.7,-93.6,40.7,-93.6,40.7c0,0,-1,0.6,-1.9,-0.1C730.4,919,669.8,872.2,669.4,871.8" class="g10_3" />
<path d="M644.3,832.1c-0.2,-0.2,-0.4,-0.2,-0.8,0c-1.1,0.6,-9.7,4.2,-9.7,4.2c0,0,-0.9,0.4,-0.8,1.5" class="g8_3" />
<path d="M647.5,854.4C646,853.3,645,852.5,645,852.5c0,0,-0.7,-0.7,-0.9,-1.5c-0.1,-0.7,0.2,-17.9,0.1,-17.9c0,0,0,-0.5,-0.2,-0.7" class="g10_3" />
<path d="M671.2,870.8c0,-0.2,0,-0.4,-0.3,-0.6c-0.4,-0.3,-3.6,-2.8,-5.8,-4.6" class="g10_3" />
<path d="M669.8,871.5c0.4,0,1.1,-0.3,1.1,-0.3c0,0,0.3,-0.1,0.3,-0.4" class="g8_3" />
<path d="M633,837.3L632.8,836c0,0,-0.1,-0.9,1.1,-1.5c1.2,-0.5,10,-4.3,10,-4.3c0,0,0.6,-0.4,1.2,-0.1c0.1,0.1,0.8,0.6,1.9,1.4" class="g10_3" />
<path d="M645.1,830.1c0.8,0.6,0.6,1.2,0.6,1.5c0,0.2,-0.2,18.2,-0.2,18.2c0,0,0.1,0.7,0.3,0.8" class="g8_3" />
<path d="M660.4,854.8l-6.5,-5" class="g10_3" />
<path d="M737.8,812.4c-0.1,-0.4,0.2,-0.7,0.7,-0.9c0.5,-0.2,1.8,-0.8,1.8,-0.8c0,0,1.7,-0.5,1.6,-2.5c0,-2,0.1,-18.6,0.1,-18.6c0,0,-0.2,-1.1,1.1,-1.6c1.2,-0.6,9.4,-4.1,9.4,-4.1c0,0,2,-1,4,0.5c2,1.5,82.6,64.2,83.3,64.7c0.8,0.6,0.9,1.2,0.7,1.6" class="g8_3" />
<path d="M742.9,789.1l17.2,13.5" class="g8_3" />
<path d="M760.1,802.6l68.5,53.8" class="g8_3" />
<path d="M742.3,810.4l85.3,66.4" class="g8_3" />
<path d="M808.4,868.4l-1.7,0.7" class="g8_3" />
<path d="M807.4,867.6l-1.4,0.6" class="g8_3" />
<path d="M808.4,868.4L782.3,848.1l-2.7,1.1" class="g10_3" />
<path d="M724.7,904.9l-1.5,0.6" class="g8_3" />
<path d="M723,904l-1,0.4" class="g10_3" />
<path d="M724.2,904.5l-15.3,-12c-0.9,-0.7,-0.7,-2.5,-0.5,-3.2c0.3,-0.7,1.1,-1.6,2.4,-2.1c1.3,-0.4,2.9,-1.6,2.7,-2.5" class="g10_3" />
<path d="M739.6,867.1c0.1,-0.9,0,-1.6,-1.2,-2.6c-1.1,-1,-8.8,-6.8,-8.8,-6.8c0,0,-3.6,-3,-9.5,-0.5c-5.8,2.6,-22.6,9.9,-22.6,9.9c0,0,-3.2,1.9,-7.3,-0.7c-4,-2.6,-8.1,-0.6,-8.6,-0.4c-0.6,0.3,-3.4,1.5,-3.4,1.5c0,0,-1.7,0.9,-1.6,2.5" class="g10_3" />
<path d="M739.6,867.1c-0.3,0.9,-1.2,1.8,-2.4,2.3c-1.2,0.5,-23.8,10.3,-23.8,10.3c0,0,-2.1,0.9,-2.2,2" class="g8_3" />
<path d="M713.5,886.2c0.3,-0.7,0.3,-1.8,-0.5,-2.6c-0.8,-0.9,-1.8,-1.3,-1.8,-2.7c0.1,-1.3,0.3,-2.1,1.4,-2.6" class="g10_3" />
<path d="M712.6,878.3l24.9,-10.9c1.1,-0.5,1.7,-1.2,1.3,-2.3" class="g10_3" />
<path d="M713.5,886.8c-0.5,0.9,-1.2,1.4,-1.8,1.6c-0.6,0.3,-2.3,1,-2.3,1c0,0,-1,0.3,-1.1,1.3" class="g8_3" />
<path d="M641.6,794.8L732.3,755" class="g10_3" />
<path d="M753.2,771.2L732.3,755" class="g10_3" />
<path d="M825.5,827.4L757.9,774.8" class="g10_3" />
<path d="M646.6,798.7l-5,-3.9" class="g8_3" />
<path d="M823.7,831.7l2.1,-0.9" class="g8_3" />
<path d="M660.4,854.8c-1.6,0.9,-1.6,0.8,-1.6,0.8" class="g10_3" />
<path d="M757.7,783l-0.1,-17.4c0,-0.8,-1,-1.4,-2.2,-1.4c-1.2,0,-2.1,0.7,-2.1,1.4c0,0.8,0,16.5,0,16.5" class="g10_3" />
<path d="M753.4,766.1c0.3,-0.6,1.1,-0.9,2.1,-1c1.2,0,2.1,0.6,2.2,1.4" class="g8_3" />
<path d="M753.3,767.6c0,-0.8,1,-1.4,2.2,-1.4c1.2,0,2.1,0.6,2.2,1.3" class="g8_3" />
<path d="M753.3,769c0,-0.8,1,-1.4,2.2,-1.4c1.2,0,2.1,0.6,2.2,1.3" class="g8_3" />
<path d="M753.3,770.2c0,-0.8,1,-1.4,2.2,-1.4c1.2,0,2.1,0.6,2.2,1.3" class="g8_3" />
<path d="M753.3,771.4c0,-0.7,1,-1.3,2.2,-1.4c1.2,0,2.1,0.6,2.2,1.4" class="g8_3" />
<path d="M753.3,772.8c0,-0.8,1,-1.4,2.2,-1.4c1.2,0,2.1,0.6,2.2,1.3" class="g8_3" />
<path d="M753.3,774.2c0,-0.8,1,-1.4,2.2,-1.5c1.2,0,2.1,0.6,2.2,1.4" class="g8_3" />
<path d="M753.3,775.6c0,-0.7,1,-1.4,2.2,-1.4c1.2,0,2.1,0.6,2.2,1.4" class="g8_3" />
<path d="M753.3,778.4c0,-0.7,1,-1.4,2.2,-1.4c1.2,0,2.1,0.6,2.2,1.4" class="g8_3" />
<path d="M753.2,777.2c0,-0.8,1,-1.4,2.2,-1.4c1.2,0,2.2,0.6,2.2,1.3" class="g8_3" />
<path d="M753.3,779.9c0,-0.8,1,-1.4,2.2,-1.4c1.2,-0.1,2.1,0.5,2.2,1.3" class="g8_3" />
<path d="M753.3,781.3c0,-0.7,1,-1.4,2.2,-1.4c1.2,0,2.1,0.6,2.2,1.4" class="g8_3" />
<path d="M753.3,782.5c0,-0.8,1,-1.4,2.2,-1.4c1.2,0,2.1,0.6,2.2,1.3" class="g8_3" />
<path d="M823.8,847.4c0,-1.6,2,-2.9,4.4,-2.9c2.5,0,4.5,1.2,4.5,2.7" class="g8_3" />
<path d="M823.8,846.4l0,1c0.1,1.5,2.1,2.7,4.5,2.7c2.5,0,4.4,-1.3,4.4,-2.9l0,-0.9" class="g10_3" />
<path d="M823.8,846.4c0,-1.5,2,-2.8,4.4,-2.8c2.5,-0.1,4.5,1.2,4.5,2.7" class="g8_3" />
<path d="M827.1,847.1l-0.6,0.4" class="g8_3" />
<path d="M826.5,847.5l0.9,0.8l-0.8,0.6l0.7,0.4l1,-0.4l1.1,0.4l0.8,-0.5l-1.1,-0.5l0.9,-0.9l-0.6,-0.3l-0.7,0.6c-0.3,0.2,-0.6,0.3,-0.8,0.1c-0.2,-0.2,-0.8,-0.7,-0.8,-0.7" class="g8_3" />
<path d="M830.2,839.4l-0.1,-17.2c0,-0.7,-1,-1.3,-2.2,-1.3c-1.2,0,-2.1,0.6,-2.1,1.4c0,0.8,0,13.9,0,13.9" class="g10_3" />
<path d="M825.9,822.8c0.3,-0.6,1.1,-1,2.1,-1c1.2,0,2.1,0.6,2.2,1.4" class="g8_3" />
<path d="M825.8,824.3c0,-0.8,0.9,-1.4,2.2,-1.5c1.2,0,2.1,0.6,2.2,1.4" class="g8_3" />
<path d="M825.8,825.6c0,-0.7,0.9,-1.3,2.2,-1.4c1.2,0,2.1,0.6,2.2,1.4" class="g8_3" />
<path d="M825.8,826.8c0,-0.7,0.9,-1.3,2.2,-1.4c1.2,0,2.1,0.6,2.2,1.4" class="g8_3" />
<path d="M825.8,828.1c0,-0.7,0.9,-1.4,2.2,-1.4c1.2,0,2.1,0.6,2.2,1.4" class="g8_3" />
<path d="M825.8,829.5c0,-0.8,0.9,-1.4,2.2,-1.4c1.2,-0.1,2.1,0.6,2.2,1.3" class="g8_3" />
<path d="M825.8,830.8c0,-0.7,0.9,-1.4,2.2,-1.4c1.2,0,2.1,0.6,2.2,1.4" class="g8_3" />
<path d="M825.8,832.3c0,-0.8,0.9,-1.4,2.2,-1.4c1.2,0,2.1,0.6,2.2,1.3" class="g8_3" />
<path d="M825.8,835.1c0,-0.8,0.9,-1.4,2.2,-1.4c1.2,0,2.1,0.6,2.2,1.3" class="g8_3" />
<path d="M825.7,833.8c0,-0.7,1,-1.3,2.2,-1.4c1.2,0,2.2,0.6,2.2,1.4" class="g8_3" />
<path d="M825.8,836.5c0,-0.7,0.9,-1.4,2.2,-1.4c1.2,0,2.1,0.6,2.2,1.4" class="g8_3" />
<path d="M828,836.6c1.2,0,2.1,0.6,2.2,1.3" class="g8_3" />
<path d="M828,837.8c1.2,-0.1,2.1,0.5,2.2,1.3" class="g8_3" />
<path d="M641.6,831l0,-14.3c0,-0.8,0.9,-1.4,2.1,-1.4c1.2,0,2.2,0.6,2.2,1.3l0,14.2" class="g10_3" />
<path d="M639.6,840c0,-1.6,2,-2.8,4.4,-2.9" class="g8_3" />
<path d="M644.1,842.7c-2.5,0.1,-4.5,-1.2,-4.5,-2.7l0,-0.9" class="g10_3" />
<path d="M639.6,839.1c0,-1.6,1.9,-2.9,4.4,-2.9" class="g8_3" />
<path d="M642.9,839.8l-0.6,0.4" class="g8_3" />
<path d="M642.3,840.2l0.9,0.8l-0.8,0.6l0.7,0.4l1,-0.5m0,-1c-0.1,0.1,-0.3,0,-0.4,-0.1c-0.3,-0.2,-0.8,-0.6,-0.8,-0.6" class="g8_3" />
<path d="M641.7,831.6c0,-0.8,1,-1.4,2.2,-1.4" class="g8_3" />
<path d="M641.6,818.3c0,-0.7,0.9,-1.4,2.1,-1.4c1.2,0,2.2,0.6,2.2,1.4" class="g8_3" />
<path d="M641.6,819.7c0,-0.8,0.9,-1.4,2.1,-1.5c1.2,0,2.2,0.6,2.2,1.4" class="g8_3" />
<path d="M641.6,821c0,-0.7,0.9,-1.4,2.1,-1.4c1.2,0,2.2,0.6,2.2,1.4" class="g8_3" />
<path d="M641.6,822.4c0,-0.8,0.9,-1.4,2.1,-1.4c1.2,-0.1,2.2,0.5,2.2,1.3" class="g8_3" />
<path d="M641.6,823.6c0,-0.7,0.9,-1.4,2.1,-1.4c1.2,0,2.2,0.6,2.2,1.4" class="g8_3" />
<path d="M641.6,825c0,-0.8,0.9,-1.4,2.1,-1.4c1.2,-0.1,2.2,0.5,2.2,1.3" class="g8_3" />
<path d="M641.6,826.3c0,-0.8,0.9,-1.4,2.1,-1.4c1.2,0,2.2,0.6,2.2,1.3" class="g8_3" />
<path d="M641.6,827.5c0,-0.7,0.9,-1.4,2.1,-1.4c1.2,0,2.2,0.6,2.2,1.4" class="g8_3" />
<path d="M641.6,829c0,-0.8,0.9,-1.4,2.1,-1.5c1.2,0,2.2,0.6,2.2,1.4" class="g8_3" />
<path d="M641.6,830.2c0,-0.7,0.9,-1.4,2.1,-1.4c1.2,0,2.2,0.6,2.2,1.4" class="g8_3" />
<path d="M633,837.5l11.2,8.7" class="g10_3" />
<path fill-rule="evenodd" d="M584.4,933.5c44.7,0,81,14.9,81,33.3c0,18.3,-36.3,33.2,-81,33.2c-44.7,0,-81,-14.9,-81,-33.2c0,-18.4,36.3,-33.3,81,-33.3Zm0,6.5c39.8,0,72.2,12,72.2,26.8c0,14.7,-32.4,26.7,-72.2,26.7c-39.9,0,-72.2,-12,-72.2,-26.7C512.2,952,544.5,940,584.4,940Z" class="g12_3" />
<path d="M616.8,901c13.7,2.9,40.7,-10.2,46.9,-35" class="g10_3" />
<path d="M617.3,907.7c11.2,2,40.4,-4.5,52.7,-37.8" class="g10_3" />
<path d="M517.9,921.1c11,-9.6,36.6,-16.4,66.5,-16.4c11.7,0,22.7,1.1,32.5,2.9" class="g10_3" />
<path d="M504,935.5c-0.4,-1.3,-0.6,-2.6,-0.6,-4c0,-18.4,36.3,-33.3,81,-33.3c11.9,0,23.2,1.1,33.3,3" class="g10_3" />
<path d="M563.8,1020.2c-0.5,0.2,-1.2,-0.3,-1.5,-1.1c-0.3,-0.7,-0.1,-1.5,0.4,-1.7" class="g10_3" />
<path d="M562.7,1017.4c0.5,-0.3,1.2,0.2,1.5,1c0.4,0.7,0.2,1.5,-0.4,1.8" class="g8_3" />
<path d="M562.3,1017.9c0.3,0.1,0.6,0.5,0.8,1c0.2,0.4,0.2,0.9,0.1,1.2" class="g8_3" />
<path d="M561.8,1014.9c-1,0.7,-1.1,1.3,-1.2,2c-0.1,0.7,0,2.4,0.5,2.9c0.5,0.5,9.7,7.5,9.7,7.5l0.7,-5.1" class="g8_3" />
<path d="M569.5,1027.8l-9.6,-7.4c0,0,-0.7,-1.4,-0.5,-3.2c0.2,-1.8,1.2,-2.1,1.8,-2.2c0.5,-0.2,0.6,-0.2,0.6,-0.2l9.7,7.4" class="g10_3" />
<path d="M570.8,1027.3l-1.3,0.5" class="g8_3" />
<path d="M561.1,1019.8l-1.3,0.5" class="g8_3" />
<path d="M554.3,1024.3c-0.6,0.2,-1.2,-0.3,-1.6,-1c-0.3,-0.8,-0.1,-1.6,0.4,-1.8" class="g10_3" />
<path d="M553.1,1021.5c0.6,-0.2,1.3,0.2,1.6,1c0.3,0.8,0.1,1.6,-0.4,1.8" class="g8_3" />
<path d="M552.7,1022c0.3,0.1,0.7,0.5,0.9,1c0.2,0.4,0.2,0.9,0,1.3" class="g8_3" />
<path d="M552.2,1019.1c-1,0.7,-1.1,1.2,-1.2,1.9c-0.1,0.7,0.1,2.4,0.5,2.9c0.5,0.5,9.7,7.5,9.7,7.5l0.7,-5.1" class="g8_3" />
<path d="M550.6,1024.7l-0.2,-0.2c0,0,-0.8,-1.4,-0.6,-3.1c0.2,-1.8,1.3,-2.2,1.8,-2.3c0.5,-0.1,0.6,-0.1,0.6,-0.1l9.7,7.3" class="g10_3" />
<path d="M551.5,1024l-1.3,0.5" class="g8_3" />
<path d="M555.9,1033.1l-0.4,4l4.2,3.3" class="g10_3" />
<path d="M559.6,1036.9l0.2,7.8l14,10.8c0,0,1.3,1.2,3.3,1.2c2,0.1,3.2,0.1,4.3,-0.9c1.2,-1.1,9,-8,9,-8" class="g10_3" />
<path d="M559.8,1044.7l7.4,-3.3l2.5,-8.9l4.7,-3.7l1.1,-7.9l-1.1,7.9l13.8,10.6c0,0,3.6,2.7,3.3,5.2" class="g8_3" />
<path d="M569.7,1032.5l14.3,11.1c0,0,2.9,2,7,3" class="g8_3" />
<path d="M569.5,1020.7l0.7,-0.3l5.3,0.5l14.3,11c0,0,3.2,2.6,2.9,5.5c-0.4,2.8,-1.2,8.1,-1.2,8.1c0,0,-0.2,1.3,-1.1,2.3" class="g10_3" />
<path d="M560.8,1025.4l2,-1.7l0.8,-0.5" class="g10_3" />
<path d="M555.5,1037.1l4.1,-0.2" class="g8_3" />
<path d="M567.2,1041.4l13.6,10.5c0,0,2.4,2.1,1,3.5" class="g8_3" />
<path d="M581.7,1052.5c0.7,0.1,1.7,-0.3,2.6,-0.8c0.8,-0.4,6.3,-3.9,6.7,-4.8" class="g8_3" />
<path d="M585.3,1052.7l5.9,3.3c0,0,1.1,0.6,2.2,0.3c1.1,-0.3,2.8,-0.9,4.3,-3.1c1.6,-2.2,2,-4.5,1.9,-5.1c-0.1,-0.7,-0.3,-1.4,-0.8,-1.9c-0.6,-0.5,-6.4,-6.7,-6.4,-6.7" class="g10_3" />
<path d="M563,1038.5c0.7,0.5,1.8,-0.1,2.5,-1c0.7,-1,0.9,-2.3,0.3,-2.8" class="g8_3" />
<path d="M563,1038.5l-12.7,-9.9c0,0,-1.6,-1.4,-0.4,-3.2c1.2,-1.7,3,-0.7,3.7,-0.2c0.8,0.6,12.2,9.5,12.2,9.5" class="g10_3" />
<path fill-rule="evenodd" d="M650,983.6l10,-8.7l-3.1,7.3l-8.6,6.6Z" class="g17_3" />
<path d="M595.1,1055.9c18.2,13.4,47.1,26.9,59,15.7c11.9,-11.1,17,-27.2,8.3,-45.4c-8.6,-18.2,-13.3,-21.7,0.7,-51.7" class="g10_3" />
<path d="M599.4,1049.7c18.3,13.4,42.7,25,52.2,13c9.6,-11.9,8.8,-22.8,-0.9,-40.8c-8.9,-16.6,-3.9,-33.4,4.8,-50.6" class="g10_3" />
<path d="M354,880l0,7" class="g10_3" />
<path d="M358,880l0,7" class="g10_3" />
<path d="M421,932l0,7" class="g10_3" />
<path d="M425,932l0,7" class="g10_3" />
<path d="M252,924l0,7" class="g10_3" />
<path d="M404.5,172.5l126,0" class="g8_3" />
<image x="102" y="102" width="114" height="39" xlink:href="img/1.png" />
</svg>