<?xml version="1.0" encoding="UTF-8" standalone="no"?>
<!DOCTYPE svg PUBLIC "-//W3C//DTD SVG 1.1//EN"
"http://www.w3.org/Graphics/SVG/1.1/DTD/svg11.dtd">
<svg version="1.1" xmlns="http://www.w3.org/2000/svg" xmlns:xlink="http://www.w3.org/1999/xlink">
<defs>
<style type="text/css"><![CDATA[
.g1_4{
fill: #231F20;
}
]]></style>
</defs>
<image x="54" y="835" width="61" height="92" xlink:href="img/1.png" />
<image x="194" y="835" width="62" height="92" xlink:href="img/2.png" />
<image x="263" y="836" width="61" height="91" xlink:href="img/3.png" />
<path d="M111.7,79c-2.9,5.1,-8.3,8.7,-15.5,10.6c6.5,-2.3,10,-5.8,11.9,-8.9c3.3,-5.5,2.8,-11.5,1,-15c-3.8,-7.3,-15.5,-8,-28.7,-7c15,-3.3,26.7,-1.3,31.3,5.7c2.8,4.3,2.8,9.8,0,14.6m-9.3,4.9c3.2,-4,4.1,-9.2,2.7,-14.2c-1.6,-5.8,-8,-9.2,-18.9,-10.2c12.6,-0.4,19.4,1.8,21.9,6.6c1.7,3.2,2.1,9,-0.9,14c-1.5,2.5,-4.1,5.3,-8.7,7.5c1.5,-1.1,2.9,-2.3,3.9,-3.7m10.2,-20C107.1,55.5,92.3,53.8,74,59.3c0,0,-0.1,0,-0.1,0c0,0.1,-0.1,0.1,-0.1,0.1c0,0,-0.1,0.1,-0.1,0.1c0,0,0,0.1,0,0.1c-0.1,0,-0.1,0,-0.1,0c0,0.1,0,0.1,0,0.1c0,0,0,0.1,0,0.1c0,0,0,0.1,0,0.1l0,0.1c0,0,0.1,0,0.1,0c0,0.1,0,0.1,0,0.1l0.1,0.1c0.1,0.1,0.1,0.1,0.1,0.1l0.1,0c0,0,0.1,0,0.1,0c12.3,-0.5,27.5,0.8,30,9.7c1.3,4.7,0.4,9.5,-2.5,13.2c-2.8,3.6,-7.1,6,-12.6,7.1c-2.4,0.4,-5.2,0.6,-8.2,0.6c-0.2,0,-0.4,0.1,-0.5,0.3c0,0.1,0,0.1,0,0.1c0,0,0,0.1,0,0.1c0,0.1,0,0.1,0,0.1c0,0.1,0,0.1,0,0.1c0,0.1,0,0.1,0.1,0.1c0,0,0,0.1,0,0.1c0,0,0.1,0,0.1,0.1c0,0,0.1,0,0.1,0c0,0,0.1,0,0.1,0c0,0,0.1,0.1,0.1,0.1c1.2,0,2.4,0.1,3.6,0.1c13.2,0,23.7,-4.6,28.2,-12.5c3.1,-5.3,3,-11.1,0,-15.7Z" class="g1_4" />
<path d="M74.3,92.2C74,92.2,73.8,92,73.8,91.7l0,-29.3c0,-0.3,0.2,-0.5,0.5,-0.5c0.3,0,0.5,0.2,0.5,0.5l0,29.3c0,0.3,-0.2,0.5,-0.5,0.5Z" class="g1_4" />
<path d="M76.4,92.2c-0.3,0,-0.6,-0.2,-0.6,-0.5l0,-29.3c0,-0.3,0.3,-0.5,0.6,-0.5c0.2,0,0.5,0.2,0.5,0.5l0,29.3c0,0.3,-0.3,0.5,-0.5,0.5Z" class="g1_4" />
<path d="M78.4,92.2c-0.3,0,-0.5,-0.2,-0.5,-0.5l0,-29.3c0,-0.3,0.2,-0.5,0.5,-0.5c0.3,0,0.5,0.2,0.5,0.5l0,29.3c0,0.3,-0.2,0.5,-0.5,0.5Z" class="g1_4" />
<path d="M61.3,115c3.7,0,6.3,-2.7,6.3,-6.4c0,-3.7,-2.6,-6.4,-6.3,-6.4l-3.4,0l0,12.8ZM55.4,100.3c0,-0.2,0.2,-0.4,0.4,-0.4l5.8,0c4.8,0,8.8,3.9,8.8,8.7c0,4.8,-4,8.7,-8.8,8.7l-5.8,0c-0.2,0,-0.4,-0.2,-0.4,-0.4Z" class="g1_4" />
<path d="M72.3,100.3c0,-0.2,0.2,-0.4,0.5,-0.4l10,0c0.3,0,0.5,0.2,0.5,0.4l0,1.4c0,0.3,-0.2,0.5,-0.5,0.5l-7.9,0l0,5.1l6.7,0c0.2,0,0.5,0.2,0.5,0.5l0,1.4c0,0.3,-0.3,0.5,-0.5,0.5l-6.7,0l0,5.3l7.9,0c0.3,0,0.5,0.2,0.5,0.5l0,1.4c0,0.2,-0.2,0.4,-0.5,0.4l-10,0c-0.3,0,-0.5,-0.2,-0.5,-0.4Z" class="g1_4" />
<path d="M86.2,100.5c0,-0.4,0.3,-0.6,0.6,-0.6l1.5,0c0.3,0,0.6,0.2,0.6,0.6l0,6.9l7,-7.3C96,100,96.2,99.9,96.4,99.9l1.9,0c0.4,0,0.7,0.5,0.3,0.9l-7.2,7.3l7.6,8.4c0.2,0.3,0.1,0.8,-0.4,0.8l-2,0c-0.3,0,-0.4,-0.1,-0.5,-0.1L88.9,109l0,7.7c0,0.4,-0.3,0.6,-0.6,0.6l-1.5,0c-0.3,0,-0.6,-0.2,-0.6,-0.6Z" class="g1_4" />
<path d="M101.2,100.5c0,-0.4,0.3,-0.6,0.6,-0.6l1.5,0c0.3,0,0.6,0.2,0.6,0.6l0,6.9l7,-7.3c0.1,-0.1,0.3,-0.2,0.5,-0.2l1.9,0c0.4,0,0.7,0.5,0.3,0.9l-7.2,7.3l7.6,8.4c0.2,0.3,0.1,0.8,-0.4,0.8l-2,0c-0.3,0,-0.4,-0.1,-0.5,-0.1L103.9,109l0,7.7c0,0.4,-0.3,0.6,-0.6,0.6l-1.5,0c-0.3,0,-0.6,-0.2,-0.6,-0.6Z" class="g1_4" />
<path d="M122.7,115.2c3.6,0,6.5,-3,6.5,-6.6c0,-3.5,-2.9,-6.6,-6.5,-6.6c-3.5,0,-6.5,3.1,-6.5,6.6c0,3.6,3,6.6,6.5,6.6m0,-15.6c5,0,9,4,9,9c0,5,-4,9,-9,9c-5,0,-9,-4,-9,-9c0,-5,4,-9,9,-9Z" class="g1_4" />
</svg>