<?xml version="1.0" encoding="UTF-8" standalone="no"?>
<!DOCTYPE svg PUBLIC "-//W3C//DTD SVG 1.1//EN"
"http://www.w3.org/Graphics/SVG/1.1/DTD/svg11.dtd">
<svg version="1.1" xmlns="http://www.w3.org/2000/svg" xmlns:xlink="http://www.w3.org/1999/xlink">
<defs>
<style type="text/css"><![CDATA[
.g10_1{
fill: #E0E0E0;
}
.g20_1{
fill: none;
stroke: #000000;
stroke-width: 7;
stroke-linecap: butt;
stroke-linejoin: round;
stroke-miterlimit: 2;
}
.g2_1{
fill: none;
stroke: #FFFFFF;
stroke-width: 3;
stroke-linecap: round;
stroke-linejoin: miter;
stroke-miterlimit: 2;
}
.g14_1{
fill: #999999;
stroke: #000000;
stroke-width: 2;
stroke-linecap: round;
stroke-linejoin: round;
stroke-miterlimit: 2;
}
.g16_1{
stroke: #FFFFFF;
stroke-width: 1;
stroke-linecap: round;
stroke-linejoin: round;
stroke-miterlimit: 2;
}
.g3_1{
fill: #FFFFFF;
stroke: #000000;
stroke-width: 2;
stroke-linecap: butt;
stroke-linejoin: miter;
stroke-miterlimit: 2;
}
.g19_1{
fill: #999999;
}
.g1_1{
fill: #B3B3B3;
}
.g6_1{
fill: #636363;
stroke: #000000;
stroke-width: 1;
stroke-linecap: butt;
stroke-linejoin: miter;
stroke-miterlimit: 2;
}
.g8_1{
fill: none;
stroke: #000000;
stroke-width: 2;
stroke-linecap: round;
stroke-linejoin: round;
stroke-miterlimit: 2;
}
.g18_1{
fill: #FFFFFF;
stroke: #000000;
stroke-width: 2;
stroke-linecap: round;
stroke-linejoin: round;
stroke-miterlimit: 2;
}
.g11_1{
fill: none;
stroke: #000000;
stroke-width: 2;
stroke-linecap: butt;
stroke-linejoin: miter;
stroke-miterlimit: 2;
}
.g21_1{
fill: none;
stroke: #FFFFFF;
stroke-width: 4;
stroke-linecap: butt;
stroke-linejoin: round;
stroke-miterlimit: 2;
}
.g13_1{
fill: none;
stroke: #000000;
stroke-width: 1;
stroke-linecap: round;
stroke-linejoin: round;
stroke-miterlimit: 2;
stroke-dasharray: 2,3;
}
.g4_1{
fill: none;
stroke: #000000;
stroke-width: 1;
stroke-linecap: butt;
stroke-linejoin: miter;
stroke-miterlimit: 2;
}
.g7_1{
fill: #FFFFFF;
}
.g17_1{
fill: #E6E6E6;
stroke: #000000;
stroke-width: 1;
stroke-linecap: round;
stroke-linejoin: round;
stroke-miterlimit: 2;
}
.g12_1{
fill: none;
stroke: #FFFFFF;
stroke-width: 3;
stroke-linecap: round;
stroke-linejoin: round;
stroke-miterlimit: 2;
}
.g15_1{
fill: #FFFFFF;
stroke: #000000;
stroke-width: 1;
stroke-linecap: round;
stroke-linejoin: round;
stroke-miterlimit: 2;
}
.g5_1{
}
.g9_1{
fill: none;
stroke: #000000;
stroke-width: 1;
stroke-linecap: round;
stroke-linejoin: round;
stroke-miterlimit: 2;
}
]]></style>
</defs>
<path fill-rule="evenodd" d="M55,54l824,0l0,1101l-824,0Z" class="g1_1" />
<path d="M55.5,256.5l27,0" class="g2_1" />
<path d="M55.5,430.5l27,0" class="g2_1" />
<path d="M55.5,605.5l27,0" class="g2_1" />
<path d="M55.5,953.5l27,0" class="g2_1" />
<path d="M852.5,256.5l28,0" class="g2_1" />
<path d="M852.5,605.5l28,0" class="g2_1" />
<path d="M852.5,779.5l28,0" class="g2_1" />
<path d="M852.5,953.5l28,0" class="g2_1" />
<path fill-rule="evenodd" d="M82,82l770,0l0,1045l-770,0Z" class="g3_1" />
<path d="M184.5,209.5l646,0" class="g4_1" />
<path d="M103.5,278.5l727,0" class="g4_1" />
<path fill-rule="evenodd" d="M106,289l37,0l0,38l-37,0Z" class="g5_1" />
<path fill-rule="evenodd" d="M103.5,287.5l38,0l0,37l-38,0Z" class="g6_1" />
<path d="M103.5,676.5l727,0" class="g4_1" />
<path d="M852.5,430.5l28,0" class="g2_1" />
<path fill-rule="evenodd" d="M106,687l37,0l0,37l-37,0Z" class="g5_1" />
<path fill-rule="evenodd" d="M103.5,685.5l38,0l0,37l-38,0Z" class="g6_1" />
<path d="M55.5,783.5l27,0" class="g2_1" />
<path fill-rule="evenodd" d="M363.1,247.9c15.4,-8.9,30.8,-17.8,46.3,-26.8c0.5,-0.7,1.1,-1.5,1.7,-2.3c0.2,-0.3,0.3,-0.6,0.2,-0.7c-0.1,-0.2,-0.3,-0.3,-0.7,-0.3c-0.9,0.1,-2,0.2,-3,0.3c-15.2,8.8,-30.5,17.6,-45.7,26.5c0.4,1.1,0.8,2.2,1.2,3.3Z" class="g7_1" />
<path d="M351.8,254.4c19.2,-11.1,38.4,-22.2,57.6,-33.3c0.5,-0.7,1.1,-1.5,1.7,-2.3c0.2,-0.3,0.3,-0.6,0.2,-0.7c-0.1,-0.2,-0.3,-0.3,-0.7,-0.3c-0.9,0.1,-2,0.2,-3,0.3c-19,11,-38,21.9,-57,33" class="g8_1" />
<path d="M408.4,220.9c0.2,-0.6,0.6,-1.1,1,-1.4c0.4,-0.4,1.1,-0.7,1.7,-0.9" class="g9_1" />
<path d="M407,219c0.7,0,1.5,-0.1,2.1,-0.3c0.7,-0.2,1.3,-0.5,1.7,-0.8" class="g9_1" />
<path fill-rule="evenodd" d="M367.6,235.9c-0.9,0.5,-1.7,1,-2.6,1.5c-0.5,0.3,-0.9,0.7,-1.2,1.1c-0.2,0.4,-0.5,1,-0.7,1.6c0,0.4,0,0.7,-0.1,0.9c-0.1,0.1,-0.3,0.1,-0.6,0c-0.9,-0.6,-1.9,-1,-2.7,-1.1c-0.9,-0.1,-1.9,0.1,-2.8,0.4c-9.2,5.4,-18.4,10.7,-27.6,16c-2,2,-3.3,4,-3.6,5.9c-0.2,1.9,0.3,3.8,1.6,5.6c1.6,1.9,3.4,3.1,5.3,3.4c1.8,0.3,3.9,-0.2,6.1,-1.5c8.6,-5,17.3,-10,26,-15c0.9,-0.8,1.6,-1.7,2,-2.5c0.4,-0.9,0.6,-1.9,0.6,-2.9c0,-0.4,0.1,-0.7,0.3,-0.8c0.2,-0.1,0.5,0.1,0.8,0.4c0.4,0.2,1,0.5,1.4,0.5c0.5,0,1,-0.1,1.4,-0.3c1,-0.5,2,-1.1,3.1,-1.7c0.9,-0.9,1.3,-2.1,1.2,-3.4c-0.1,-1.4,-0.7,-2.9,-1.7,-4.6c-1.1,-1.5,-2.2,-2.6,-3.2,-3.1c-1,-0.6,-2.1,-0.7,-3,-0.4Z" class="g7_1" />
<path d="M363.3,241c-0.1,-1.5,0.4,-2.8,1.3,-3.3c0.9,-0.5,1.9,-1.1,2.9,-1.7c1.8,-1,4.8,0.7,6.6,3.9c1.8,3.1,1.8,6.5,0,7.6c-0.9,0.5,-1.9,1.1,-2.9,1.6c-1,0.6,-2.3,0.3,-3.6,-0.5" class="g8_1" />
<path d="M366.7,249.9c-0.1,-1.5,-0.7,-3.2,-1.6,-4.9c-0.7,-1.3,-1.6,-2.3,-2.6,-3.1" class="g9_1" />
<path d="M367.3,247.9c0,-1.1,-0.4,-2.4,-1.1,-3.5c-0.6,-1.2,-1.5,-2.1,-2.4,-2.7" class="g9_1" />
<path d="M369.2,248.4c-0.6,-0.1,-1.1,-0.1,-1.4,-0.1c-0.3,0.1,-0.5,0.4,-0.5,0.8c0,1.2,-0.3,2.4,-0.7,3.2c-0.4,0.9,-1,1.7,-1.8,2.2c-9.2,5.3,-18.4,10.6,-27.6,16c-1.2,0.6,-2.1,0.8,-3.4,0.8c-4.4,0,-8,-3.7,-8,-8.1c0,-2.6,1.4,-5.1,3.4,-6.6c9.2,-5.4,18.4,-10.7,27.6,-16.1c0.7,-0.3,1.7,-0.5,2.5,-0.5c0.9,0.1,2,0.5,3,1c0.5,0.3,1,0.3,1.3,0.1c0.2,-0.1,0.5,-0.5,0.6,-1.1" class="g8_1" />
<path d="M330.6,256.6c2,0.2,4.5,2.1,6.2,5c1.5,2.7,1.9,5.6,1.4,7.5" class="g9_1" />
<path d="M370.6,249c1.5,-1.1,1.4,-4.1,-0.3,-7c-1.6,-2.8,-4.2,-4.5,-5.9,-3.8" class="g9_1" />
<path d="M334.5,256.7l24.9,-14.5" class="g9_1" />
<path d="M336.9,258.1l24.2,-14.4" class="g9_1" />
<path d="M339.5,263.1l24.4,-14.8" class="g9_1" />
<path d="M340,265.9L364.4,251" class="g9_1" />
<path d="M336.9,258.1c-1,0.6,-3.9,-0.1,-2.4,-1.4" class="g9_1" />
<path d="M339.5,263.1c-1.4,0.9,-1.3,3.5,0.5,2.8" class="g9_1" />
<path d="M364.4,251c1.5,-0.7,1.7,-4.1,-0.5,-2.7" class="g9_1" />
<path d="M361.1,243.7c1.4,-0.8,0,-2.5,-1.7,-1.5" class="g9_1" />
<path fill-rule="evenodd" d="M271.7,232.2c0,0,0.7,-0.5,0.9,-0.7c0.4,-0.1,0.8,-0.3,1.2,-0.5c0.3,-0.5,0.6,-0.9,0.9,-1.3c0,0,0.1,-0.1,0,-0.2c0,-0.1,-0.2,-0.1,-0.2,-0.1c-0.2,0.1,-0.5,0.3,-0.7,0.4c-0.2,0.2,-0.3,0.3,-0.5,0.5c-0.1,0.2,-0.3,0.4,-0.4,0.6c-0.4,0.2,-0.9,0.5,-1.2,0.7c0,0.2,0,0.4,0,0.6Z" class="g10_1" />
<path d="M271.7,232.3c0.2,-0.3,0.5,-0.5,0.8,-0.7c0.4,-0.2,0.8,-0.4,1.2,-0.6c0.4,-0.5,0.8,-0.9,1.1,-1.4c0.2,-0.2,0.2,-0.4,0.1,-0.5c0,-0.1,-0.1,-0.1,-0.4,-0.1c-0.6,0,-1.2,0.1,-1.9,0.1c-0.3,0.3,-0.6,0.6,-1,0.8c-0.3,0.2,-0.7,0.4,-1,0.5" class="g8_1" />
<path d="M272.9,230.9c0.2,-0.4,0.4,-0.6,0.7,-0.9c0.2,-0.2,0.6,-0.4,0.9,-0.6" class="g9_1" />
<path d="M272.5,229.7c0.3,0,0.6,-0.1,0.9,-0.2c0.3,-0.1,0.6,-0.3,0.9,-0.5" class="g8_1" />
<path fill-rule="evenodd" d="M271.6,232.3c0,0.1,0,0.2,0,0.3c-1.9,1,-3.7,2.1,-5.6,3.1c-0.1,0.1,-0.3,0.1,-0.5,0.1c-0.1,0,-0.1,0,-0.2,0c-0.1,0,-0.1,0,-0.2,-0.1c-0.3,-0.1,-0.5,-0.3,-0.6,-0.5c-0.2,-0.3,-0.2,-0.5,-0.2,-0.8c0,-0.1,0,-0.3,0,-0.4c0.1,-0.1,0.1,-0.2,0.1,-0.3c1.9,-1,3.7,-2.1,5.5,-3.1c0.1,-0.1,0.2,-0.1,0.3,-0.1c0.1,-0.1,0.2,-0.1,0.4,-0.1c0.1,0.1,0.3,0.1,0.4,0.2c0.2,0.2,0.3,0.4,0.5,0.6c0,0.1,0.1,0.3,0.2,0.5c0,0.2,0,0.4,-0.1,0.6Z" class="g7_1" />
<path d="M264.3,234.6l0,-0.3l0,-0.1l0,-0.1l0.1,-0.1l0,-0.1l0,-0.2" class="g8_1" />
<path d="M264.9,235.6l0.3,0.2" class="g8_1" />
<path d="M264.9,235.6l-0.1,0l-0.1,-0.1l-0.1,-0.2l-0.1,-0.1l-0.1,-0.1l0,-0.2l-0.1,-0.2l0,-0.1" class="g8_1" />
<path d="M264.3,234.6l0,-0.1l0.1,-0.1l0,-0.1l0.1,-0.1l0.1,0l0.1,0l0.1,0l0.1,0.1l0.2,0.1l0.1,0.1l0.1,0.2l0,0.1l0.1,0.2l0,0.1l0,0.2" class="g9_1" />
<path d="M265.2,233.7l0.1,0.1l0.1,0.2l0,0.1l0.1,0.1l0.1,0.2l0.1,0.1l0.2,0.1l0.1,0.1" class="g9_1" />
<path d="M265.9,235.3l0,0.1l0,0.1l0.1,0l0,0.1l0,0.1" class="g9_1" />
<path d="M265.4,235.3l0,0.1l0,0.1l-0.1,0.1l-0.1,0.1l-0.1,0l-0.2,-0.1" class="g9_1" />
<path d="M264.4,233.7l0.1,0.1l0.1,0l0.1,0l0.1,0l0.1,-0.1l0.2,0l0.1,0" class="g9_1" />
<path d="M266,234.7l0,0.1l0,0.1l-0.1,0.1l0,0.2l0,0.1" class="g9_1" />
<path d="M266,235.7l-0.1,0.1l-0.2,0l-0.1,0l-0.1,0l-0.1,0l-0.1,0l-0.1,0" class="g8_1" />
<path d="M264.4,233.7l5.5,-3.2" class="g8_1" />
<path d="M265.2,233.7l5.5,-3.2" class="g9_1" />
<path d="M266,234.7l5.5,-3.2" class="g9_1" />
<path d="M266,235.7l5.5,-3.2" class="g8_1" />
<path d="M269.9,230.5l0.2,0l0.1,0l0.2,0l0,-0.1l0.1,0l0.1,0l0.1,0l0,0.1" class="g8_1" />
<path d="M271.7,232l0,-0.1l0,-0.2l-0.1,-0.2l0,-0.2l-0.2,-0.2l-0.1,-0.2l-0.1,-0.2L271,230.6l-0.1,-0.1" class="g9_1" />
<path d="M271.7,231.9l0,0.1l0,0.1l-0.1,0.2l0,0.1l-0.1,0.1" class="g8_1" />
<path d="M270.7,230.5l0.2,0" class="g8_1" />
<path d="M270.7,230.5l0.2,0.1l0.1,0.1l0.2,0l0,0.1l0.1,0.2l0.1,0.1l0.1,0.1l0,0.1l0,0.2l0.1,0.1l0.1,0.1l0,0.1l0,0.1" class="g8_1" />
<path fill-rule="evenodd" d="M262.7,231c0.6,0.1,1.3,0.3,2,0.5c0.6,0.1,1.3,0.2,2,0.3c0.3,0,0.7,0.3,1,0.5c0.3,0.2,0.7,0.6,0.9,1.1c0.3,0.6,0.5,1.1,0.6,1.6c0,0.5,0,0.9,-0.2,1.3c-0.2,0.3,-0.4,0.8,-0.5,1.1c-0.1,0.4,-0.3,0.8,-0.3,1.2c-0.1,0.6,-0.3,1.2,-0.5,1.6c-0.3,0.4,-0.6,0.8,-0.9,1c-2.1,1.1,-4.2,2.3,-6.2,3.5c-0.2,0.5,-0.3,0.8,-0.5,1.1c-0.2,0.3,-0.4,0.5,-0.7,0.6c-0.5,1.2,-1.3,2.2,-2.2,3.1c-0.9,0.8,-2.1,1.6,-3.4,2.1c-0.1,0.3,-0.5,0.8,-1.1,1.2c-0.7,0.4,-1.6,1,-2.8,1.5c0,0.3,-0.2,0.5,-0.4,0.7c-0.1,0.1,-0.4,0.3,-0.6,0.4c-1.9,1,-3.8,2.1,-5.7,3.2c-0.3,0.5,-0.6,0.9,-1,1.2c-0.3,0.3,-0.8,0.6,-1.2,0.8c-2.6,1.5,-5.2,3,-7.8,4.5c0,0.5,0,0.9,0.1,1.4c-1.2,0.7,-2.4,1.3,-3.5,2c-0.2,-0.1,-0.3,-0.1,-0.5,-0.3c0,-0.6,0,-1.2,0,-1.9c-0.9,0.5,-1.7,1,-2.5,1.5c-0.2,0,-0.3,0.2,-0.4,0.3c0,0.1,-0.1,0.3,-0.1,0.5c0,0.2,0,0.3,0,0.6c-0.6,0.3,-1.2,0.6,-1.8,1c-1.7,0.9,-3.4,1.3,-5.2,1.2c-1.7,-0.1,-3.6,-0.7,-5.4,-1.9c-1.3,-0.7,-2.5,-1.5,-3.8,-2.3c-0.6,-1,-0.9,-2.2,-0.9,-3.5c0,-1.3,0.4,-2.8,0.9,-4.4c0.2,-0.3,0.4,-0.7,0.6,-1c0.2,-0.3,0.4,-0.6,0.6,-0.9c-0.5,-0.2,-1.2,-0.4,-2.1,-0.6c-0.9,-0.2,-2,-0.5,-3.3,-0.7c-2.5,-0.6,-4.6,-1.3,-6.3,-2c-1.7,-0.6,-3.1,-1.3,-4,-2c-0.5,-0.3,-1.1,-0.6,-1.5,-0.6c-0.5,-0.1,-0.9,0,-1.2,0.2c-1.4,0.6,-2.6,0.9,-3.5,1.1c-1,0.1,-1.7,0,-2.3,-0.4c-2.7,-1.5,-5.5,-3.1,-8.2,-4.6c-0.2,-0.2,-0.4,-0.5,-0.6,-0.7c-0.4,-0.2,-0.8,-0.4,-1.1,-0.6c-0.8,-1.1,-1.2,-2.4,-1.3,-3.9c0,-1.5,0.3,-3.3,0.9,-5.3c0.2,-0.3,0.3,-0.7,0.5,-1c0.4,-0.3,0.7,-0.8,0.9,-1.2c0.3,-0.5,0.5,-1.1,0.6,-1.7c0.4,-0.5,0.7,-1,1.1,-1.5c3,-1.7,5.9,-3.4,8.9,-5.1c0.4,0,0.9,-0.1,1.2,-0.4c0.4,-0.2,0.9,-0.6,1.2,-1c1,-0.5,1.9,-1,2.8,-1.6c0.3,-0.2,0.7,-0.3,1,-0.3c0.3,0,0.6,0.1,1,0.3c3,1.6,6,3.2,9,4.9c0.6,0.3,1.1,1,1.5,2c0.4,0.9,0.8,2.2,1,3.8c0.1,0.7,0.2,1.5,0.3,2.2c-0.2,1.3,-0.4,2.4,-0.8,3.4c-0.3,1,-0.7,1.8,-1.1,2.5c2,0.5,3.8,1,5.3,1.5c1.4,0.5,2.7,1,3.5,1.5c0.8,0.3,1.6,0.6,2.3,0.7c0.6,0,1.3,-0.1,1.7,-0.4c0.3,-0.1,0.6,-0.3,0.8,-0.3c0.3,0,0.5,0.1,0.7,0.3c0.4,-0.4,0.8,-0.7,1.1,-0.8c0.4,-0.1,0.7,-0.1,0.9,0.1c0.9,0.5,1.8,1,2.8,1.5c0.6,-0.4,1.2,-0.8,1.9,-1.1c0.5,-0.2,0.9,-0.2,1.2,-0.1c0.3,0.1,0.6,0.3,0.8,0.5c3.6,-2,7.2,-4.1,10.8,-6.2c0.3,-0.1,0.6,-0.2,0.7,-0.2c0.2,-0.1,0.3,-0.3,0.3,-0.4c1.2,-0.7,2.4,-1.4,3.7,-2.1c0.1,-0.1,0.3,-0.2,0.5,-0.2c0.1,0,0.4,0,0.6,0c0.1,-0.2,0.3,-0.4,0.8,-0.7c0.6,-0.2,1.3,-0.5,2.3,-0.8c0.6,-0.2,1.4,-0.4,2.1,-0.5c0.7,0,1.4,0,2.1,0.1c0.3,-0.2,0.7,-0.3,1,-0.3c0.3,0,0.8,0,1.1,0.1c2.1,-1.2,4.2,-2.4,6.3,-3.6c0.2,-0.1,0.5,-0.3,0.7,-0.3c0.3,0,0.6,0,0.8,0.1Z" class="g7_1" />
<path d="M181.9,249.3c0,-0.1,-0.2,-0.2,-0.4,-0.3c-0.2,-0.2,-0.5,-0.4,-0.9,-0.6c-1.1,-0.6,-2.2,-1.3,-3.4,-2c-0.8,-1,-1.3,-2.4,-1.3,-4.2c0,-1.8,0.5,-3.9,1.3,-5.8c0.4,-0.4,0.7,-0.8,1,-1.4c0.3,-0.6,0.5,-1,0.6,-1.6c0.4,-0.5,0.7,-0.9,1.1,-1.4c2.9,-1.7,5.9,-3.4,8.8,-5.1c1.3,0,2.4,-1.4,2.4,-1.4c1,-0.6,1.9,-1.1,2.9,-1.6c0.6,-0.4,1.3,-0.5,1.7,-0.2c3.1,1.6,6.2,3.3,9.3,5" class="g8_1" />
<path d="M187,252.3c-2.7,-1.6,-5.5,-3.2,-8.2,-4.8c0,-0.1,0,-0.1,-0.1,-0.2" class="g8_1" />
<path d="M188.8,237.2l14.4,-8.4" class="g9_1" />
<path d="M203.2,228.8c0.7,-0.4,1.3,-0.4,1.7,-0.2" class="g9_1" />
<path d="M188.8,237.2c-1.3,1.6,-2.2,3.2,-2.9,4.9c-0.7,1.7,-1.1,3.5,-1.1,5.3c0,1.7,0.4,3,1.1,4c0.2,0.3,0.5,0.5,0.8,0.7" class="g9_1" />
<path d="M264.8,231.6c0.6,0,1.2,0.1,1.9,0.2c0.6,0.1,1.4,0.7,2,1.6c0.5,1,0.6,2,0.4,2.6c-0.3,0.6,-0.5,1.1,-0.7,1.7" class="g8_1" />
<path d="M265.3,231.7c0.9,0.3,1.8,1.1,2.4,2.3c0.7,1.2,1,2.5,0.7,3.3" class="g9_1" />
<path d="M263,231.1c0.7,0.2,1.4,0.4,2.1,0.5c0.9,0.4,1.9,1.2,2.6,2.4c0.7,1.3,0.9,2.6,0.7,3.5c-0.2,0.7,-0.3,1.4,-0.5,2" class="g8_1" />
<path d="M254.9,234.8c2.1,-1.2,4.1,-2.4,6.2,-3.6c0.6,-0.3,1.2,-0.3,1.9,-0.1" class="g8_1" />
<path d="M264.3,231.7c0.9,0.6,1.8,1.6,2.5,2.8c0.8,1.3,1.2,2.6,1.2,3.7" class="g9_1" />
<path d="M267.9,239.5c-0.2,0.7,-0.5,1.3,-1.1,1.6c-2,1.2,-4.2,2.4,-6.3,3.6" class="g8_1" />
<path d="M253,235.1c1.8,0.3,3.8,2,5.2,4.4c1.4,2.5,1.8,5,1.2,6.7" class="g9_1" />
<path d="M246,237c2.2,-1.2,5.8,0.9,8.1,4.7c2.2,3.9,2.2,8,0,9.4" class="g9_1" />
<path d="M254.2,251.5c-0.1,0.1,-0.3,0.2,-0.4,0.2" class="g8_1" />
<path d="M245.7,236.7c2.3,-1.4,6.2,0.8,8.6,4.9c2.3,4.1,2.3,8.5,-0.1,9.9" class="g9_1" />
<path d="M240.1,239.6c0.1,0,0.3,-0.2,0.4,-0.3c0.1,-0.1,0.3,-0.2,0.5,-0.3c0.9,-0.5,1.9,-1.1,2.8,-1.6c2.5,-1.4,6.5,0.8,8.9,5.1c2.5,4.2,2.5,8.9,0,10.3c-1,0.5,-1.9,1.1,-2.8,1.6" class="g8_1" />
<path d="M240.5,239.6c0.2,-0.1,0.3,-0.2,0.4,-0.2c2.4,-1.4,6.2,0.8,8.6,4.9c2.1,3.6,2.4,7.6,0.8,9.4" class="g9_1" />
<path d="M257.4,233.3c1.6,-0.9,4.2,0.6,5.8,3.3c1.5,2.8,1.5,5.7,0,6.6" class="g9_1" />
<path d="M241,239c2.4,-1.4,6.4,0.9,8.9,5.1c2.4,4.3,2.4,8.9,0,10.3" class="g9_1" />
<path d="M241.6,254.1c0.6,-0.4,1.3,-0.5,1.8,-0.2c0.6,0.3,0.8,0.9,0.8,1.7" class="g9_1" />
<path d="M244.2,255.6c0,0.8,-0.2,1.8,-0.8,2.7c-0.5,0.9,-1.2,1.6,-1.8,2" class="g8_1" />
<path d="M241.6,260.3l-8.4,4.9" class="g8_1" />
<path d="M233.2,265.2l-3.5,1.9" class="g9_1" />
<path d="M241.6,254.1l-3.6,2.1" class="g9_1" />
<path d="M237.4,256.5l-3.6,2.1" class="g9_1" />
<path d="M233.1,259l-3.1,1.8" class="g9_1" />
<path d="M236.1,262c0.2,0.1,0.5,0,0.8,-0.2c0.7,-0.4,1.5,-0.8,2.3,-1.3c0.4,-0.3,0.8,-0.7,1.1,-1.2c0.6,-0.9,0.6,-1.9,0.3,-2.4" class="g9_1" />
<path d="M240.6,256.9c-0.1,-0.1,-0.2,-0.3,-0.3,-0.3c-0.3,-0.2,-0.7,-0.2,-1.1,0.1c-0.8,0.4,-1.5,0.8,-2.3,1.3c-0.4,0.3,-0.9,0.7,-1.2,1.2c-0.6,1.1,-0.6,2.3,0,2.7c0.1,0.1,0.3,0.1,0.4,0.1" class="g9_1" />
<path d="M236.4,260.8c0.1,0,0.3,0.1,0.5,0.2c0.3,0.2,0.7,0.2,1.1,0c0.4,-0.2,0.7,-0.4,1,-0.6c0.4,-0.2,0.8,-0.7,1.1,-1.2c0.6,-1.1,0.6,-2.2,0,-2.6" class="g9_1" />
<path d="M237.4,257.7c-0.1,0.2,-0.3,0.5,-0.5,0.7c-0.6,1.1,-0.6,2.3,0,2.6" class="g9_1" />
<path d="M235.5,261.7c0.3,0,0.5,-0.1,0.8,-0.2c0.2,-0.2,0.4,-0.3,0.7,-0.4" class="g9_1" />
<path d="M240.1,257.7c0,-0.3,-0.1,-0.5,-0.3,-0.6c-0.3,-0.2,-0.6,-0.1,-0.9,0.1c-0.3,0.1,-0.5,0.3,-0.8,0.4c-0.3,0.2,-0.7,0.5,-0.9,1c-0.5,0.8,-0.5,1.7,0,2c0.1,0,0.2,0.1,0.4,0" class="g9_1" />
<path d="M237.6,260.6c0.1,0,0.3,0,0.5,-0.1" class="g9_1" />
<path d="M238.9,260c0.3,-0.2,0.6,-0.5,0.9,-0.9c0.2,-0.3,0.3,-0.6,0.3,-0.9" class="g9_1" />
<path d="M236.1,258.7c-0.3,0.9,-0.2,1.7,0.3,2.1" class="g9_1" />
<path d="M236.9,259.8c0,0.2,0.1,0.3,0.2,0.3c0.2,0.1,0.5,0.1,0.8,0c0.2,-0.2,0.5,-0.3,0.7,-0.4c0.3,-0.2,0.5,-0.5,0.7,-0.8c0.4,-0.7,0.4,-1.5,0,-1.7c0,0,-0.1,0,-0.2,0" class="g9_1" />
<path d="M240.6,257.5l0.2,0.2l3.5,-2l6.4,-4.7" class="g9_1" />
<path d="M240.7,252.8l-3,1.7" class="g9_1" />
<path d="M240.7,252.8c1.1,-0.3,2,-0.2,2.6,0.3c0.6,0.5,0.9,1.3,0.9,2.6" class="g9_1" />
<path d="M210.3,259.2c0.5,-1.1,1.1,-2,1.7,-2.7c0.5,-0.7,1.1,-1.3,1.6,-1.7c8.7,-5,17.4,-10.1,26.2,-15.1c1.6,-0.2,3.2,0.2,4.8,1.2c1.6,0.9,3.3,2.4,4.9,4.4c1.7,3.9,1.7,7.7,0,9.7c-2.1,1.2,-4.1,2.3,-6.2,3.6" class="g8_1" />
<path d="M249.5,245.3L236.2,253l1.8,3.2" class="g9_1" />
<path d="M237.5,250.1c-1.1,-1.3,-2.2,-2.2,-3.3,-2.9c-1.1,-0.6,-2.2,-1,-3.3,-1.2c-0.2,0,-0.3,-0.1,0,-0.4c3.1,-1.7,6.2,-3.5,9.3,-5.3c0.4,-0.2,0.5,-0.2,0.6,-0.2c1.1,0.2,2.2,0.6,3.3,1.3c1.2,0.6,2.3,1.6,3.5,2.9c0.1,0.1,0.3,0.3,0,0.5c-3.1,1.8,-6.2,3.6,-9.3,5.4c-0.5,0.3,-0.8,-0.1,-0.8,-0.1Z" class="g9_1" />
<path d="M195.9,252.3c-1.2,-0.7,-1.2,-2.8,0,-4.8c0.6,-1,1.3,-1.8,2.1,-2.2c0.3,-0.2,0.7,-0.3,1,-0.3c0.4,0,0.8,0.2,1.2,0.4c2.3,1.1,4.6,2,6.7,2.7c2.1,0.7,4.2,1.3,6.1,1.6c0.5,0.2,1.2,0.2,1.8,0.2c0.7,0,1.5,-0.1,2.2,-0.2c0.9,-0.1,1.7,-0.1,2.3,0c0.6,0.1,1.2,0.4,1.6,0.9" class="g9_1" />
<path d="M211.3,257.5c-0.3,-0.2,-0.8,-0.4,-1.5,-0.6c-0.6,-0.1,-1.4,-0.4,-2.3,-0.6c-2.7,-0.5,-5,-1.2,-7.2,-2c-2.1,-0.8,-3.9,-1.6,-5.4,-2.6" class="g8_1" />
<path d="M220.2,245.9c-0.1,-0.1,-0.2,-0.1,-0.3,-0.2c-0.3,-0.1,-0.6,-0.1,-1,0.1c-0.5,0.3,-1,0.5,-1.6,0.5c-0.7,0,-1.5,-0.2,-2.3,-0.5c-1.5,-0.8,-3.1,-1.5,-4.9,-2c-1.8,-0.6,-3.6,-1.1,-5.6,-1.5c-0.7,-0.2,-1.3,-0.4,-1.6,-0.7c-0.4,-0.2,-0.4,-0.5,-0.4,-0.9" class="g8_1" />
<path d="M178.8,233.4l4.9,2.9" class="g9_1" />
<path d="M177.2,236.4l4.8,2.8" class="g9_1" />
<path d="M183.7,236.3c0.7,0.4,0.9,1.3,0.4,2.1c-0.4,0.8,-1.4,1.2,-2.1,0.8" class="g9_1" />
<path d="M188.8,237.2L180,232.1" class="g9_1" />
<path d="M191.1,225.5c1.8,1,3.6,2,5.4,3.1c0.6,0.3,0.6,1,0,1.4c-0.7,0.4,-1.8,0.4,-2.4,0c-1.8,-1.1,-3.5,-2.1,-5.4,-3.1" class="g9_1" />
<path d="M205,228.7c0.7,0.4,1.3,1.2,1.8,2.5c0.4,1.4,0.8,3.2,1.1,5.5c-0.4,2.3,-0.9,4,-1.6,5.3c-0.1,0.2,-0.2,0.3,-0.3,0.5" class="g8_1" />
<path d="M194.8,251.6c-0.6,-0.2,-1.2,-0.4,-1.7,-0.4c-0.5,0,-1,0.2,-1.5,0.5" class="g8_1" />
<path d="M193.9,251.3c-1.7,0.8,-3.2,1.3,-4.3,1.5c-1.2,0.2,-2.1,0,-2.6,-0.5" class="g8_1" />
<path d="M225.5,263.3c-1.2,0.7,-1.8,2.5,-1.8,4.2c0,1.7,0.6,2.8,1.8,2.1" class="g9_1" />
<path d="M210.3,259.2c-0.8,1.3,-1.1,3,-1.1,4.7c0,1.8,0.3,3,1.1,3.5c1.4,0.8,2.7,1.5,4.2,2.4" class="g8_1" />
<path d="M204.8,231.3c-0.6,1.3,-1.1,2.7,-1.5,4.3c-0.3,1.5,-0.6,3.2,-0.8,4.9" class="g9_1" />
<path d="M188.6,238.2c0.4,0.2,0.7,0.5,1,0.8c0.2,0.2,0.4,0.6,0.4,1c0.4,1.6,0.9,3,1.6,4c0.8,1.1,1.7,1.9,2.7,2.5" class="g9_1" />
<path d="M194.8,251.6c-1.2,-0.6,-1.2,-2.8,0,-4.8c0.6,-1,1.3,-1.7,2.1,-2.1c1.4,-0.9,2.9,-1.7,4.3,-2.6c0.8,-0.4,1.5,-0.5,2.1,-0.2" class="g9_1" />
<path d="M194.5,251.5c-1.1,-0.7,-1.1,-2.8,0,-4.8c0.6,-1,1.3,-1.8,2.1,-2.2c1.4,-0.8,2.9,-1.7,4.4,-2.5c0.7,-0.5,1.5,-0.6,2,-0.2" class="g9_1" />
<path d="M203.3,241.9c0.1,-0.1,0.2,-0.2,0.3,-0.3c0.1,-0.2,0.2,-0.3,0.4,-0.4c0.5,-0.5,1.1,-1.1,1.7,-1.7c0.6,-0.6,1.2,-1.2,1.9,-1.9c0,-0.1,0.1,-0.3,0.2,-0.3c0,-0.1,0,-0.2,0,-0.2" class="g9_1" />
<path d="M235.3,260.8c-3.9,2.2,-7.7,4.5,-11.6,6.7c-1.6,0.7,-3.4,1,-5.1,0.8c-1.8,-0.2,-3.5,-0.9,-5.2,-2c-1.4,-0.8,-2.8,-1.5,-4.2,-2.4" class="g9_1" />
<path d="M225,246.8c-0.9,-0.5,-1.8,-1,-2.7,-1.6c-0.6,-0.3,-0.9,-0.2,-1.4,0.1c-0.2,0.2,-0.5,0.4,-0.7,0.6" class="g8_1" />
<path d="M228.8,246c0,-0.2,-0.1,-0.3,-0.3,-0.4c-0.5,-0.3,-1.2,-0.3,-1.6,0c-0.5,0.3,-1.1,0.6,-1.6,0.9c-0.3,0.2,-0.4,0.3,-0.4,0.5c0,0.4,0,0.8,0,1.3" class="g8_1" />
<path d="M224.9,247c0,0.2,0.1,0.3,0.4,0.4c0.2,0.2,0.4,0.2,0.7,0.2" class="g9_1" />
<path d="M224.8,247.9c-0.1,0.2,-0.1,0.3,0,0.5" class="g9_1" />
<path d="M224.9,247.2c-0.3,0.2,-0.7,0.4,-1,0.6c-0.2,0.1,-0.5,0.3,-0.8,0.3c-0.3,0,-0.6,-0.1,-0.9,-0.2" class="g9_1" />
<path d="M223.5,248c-0.7,-0.2,-1.3,-0.4,-1.9,-0.8c-0.5,-0.4,-1,-0.8,-1.4,-1.3" class="g9_1" />
<path d="M229.8,267.1c0,-0.2,0,-0.4,0,-0.6c0,-0.1,0,-0.1,0,-0.1" class="g9_1" />
<path d="M233.3,258.8l-0.1,-0.2l0,-1.4l-0.5,-0.3l-3.4,2l0,1.9" class="g8_1" />
<path d="M229.3,260.8c0,0,-1.6,-0.9,-1.6,-0.9" class="g9_1" />
<path d="M232.9,258.7l-2.8,1.6" class="g9_1" />
<path d="M236.2,253l1.5,1.5l0.3,1.7" class="g9_1" />
<path d="M233.6,256.3l-8.3,4.8" class="g9_1" />
<path d="M229.5,261.8l-1.9,-1.9" class="g9_1" />
<path d="M229.4,259l0.3,0.2" class="g9_1" />
<path d="M233.6,256.3c0.7,-0.3,1,0,1,0c0,0,0.3,0.2,0.3,0.2" class="g9_1" />
<path d="M234.5,254.5l0,1" class="g9_1" />
<path d="M233.2,257.5c0.6,-0.3,1.2,-0.7,1.8,-1.1c0,0,0.5,-0.1,0.3,-0.7" class="g8_1" />
<path d="M235.3,255.7c0,0,0,-0.1,0,-0.2c-0.3,-0.4,-0.5,-0.8,-0.8,-1.2c0,0,-0.2,-0.6,-0.9,-0.3c-2.9,1.7,-5.8,3.3,-8.7,5.1c-0.1,0,-0.2,0.1,-0.3,0.2" class="g9_1" />
<path d="M224.6,259.3c-0.2,0.3,0,0.8,0,0.8c0.5,0.9,1.1,1.9,1.7,2.9c0,0,0,0.5,0,0.5c0,0.3,0.1,0.4,0.3,0.4" class="g8_1" />
<path d="M226.6,263.9c0.1,0,0.2,-0.1,0.2,-0.1c0.9,-0.5,1.7,-1,2.6,-1.5c0,0,0.4,-0.2,0.4,-0.8c0,-0.2,0,-0.4,0,-0.6c0,-0.1,0,-0.3,0,-0.4c0,-0.4,0,-0.9,0,-1.3c0,0,3.4,-2,3.4,-2" class="g9_1" />
<path d="M229.2,266.3c0,0,0.1,-0.1,0.1,0.1c0,0.6,0,1.3,0,1.9c0.2,0.1,0.3,0.1,0.5,0.2c1.1,-0.6,2.2,-1.3,3.4,-1.9c0,0,0,-1.4,0,-1.4" class="g8_1" />
<path d="M229.5,268.5l0,-1" class="g9_1" />
<path d="M234.4,251.3c0.7,-0.4,1.4,-0.8,2,-1.2c0.1,0.1,0.2,0.2,0.3,0.4c0.2,0.1,0.3,0.2,0.4,0.3" class="g9_1" />
<path d="M237.1,250.8c-0.6,0.4,-1.3,0.8,-2,1.2c-0.1,-0.1,-0.2,-0.3,-0.4,-0.4c-0.1,-0.1,-0.2,-0.2,-0.3,-0.3" class="g9_1" />
<path d="M233.5,250.5c0.7,-0.4,1.4,-0.8,2,-1.2c0.1,0.1,0.3,0.2,0.4,0.3c0.1,0.1,0.3,0.3,0.4,0.4" class="g9_1" />
<path d="M236.3,250c-0.7,0.3,-1.4,0.7,-2,1.1c-0.1,-0.1,-0.3,-0.2,-0.4,-0.3c-0.1,-0.2,-0.3,-0.3,-0.4,-0.4" class="g9_1" />
<path d="M232.6,249.6c0.6,-0.4,1.3,-0.8,1.9,-1.1c0.1,0,0.3,0.2,0.4,0.2c0.1,0.1,0.3,0.3,0.5,0.4" class="g9_1" />
<path d="M235.4,249.1c-0.7,0.4,-1.4,0.8,-2,1.2c-0.1,-0.1,-0.3,-0.2,-0.5,-0.4c-0.1,-0.1,-0.2,-0.2,-0.3,-0.3" class="g9_1" />
<path d="M231.4,248.8c0.7,-0.3,1.3,-0.7,2,-1.1c0.1,0.1,0.3,0.2,0.4,0.2c0.2,0.1,0.4,0.3,0.6,0.4" class="g9_1" />
<path d="M234.4,248.3c-0.7,0.4,-1.4,0.7,-2,1.1c-0.2,0,-0.4,-0.2,-0.5,-0.3c-0.2,-0.1,-0.3,-0.2,-0.5,-0.3" class="g9_1" />
<path d="M230.2,248.2c0.7,-0.4,1.3,-0.8,2,-1.2c0.1,0,0.3,0.2,0.5,0.2c0.1,0.1,0.3,0.2,0.5,0.3" class="g9_1" />
<path d="M233.2,247.5c-0.6,0.4,-1.3,0.8,-2,1.2c-0.1,-0.1,-0.3,-0.2,-0.5,-0.3c-0.1,-0.1,-0.3,-0.2,-0.5,-0.2" class="g9_1" />
<path d="M229,247.7c0.7,-0.3,1.3,-0.7,2,-1.1c0.1,0,0.3,0.1,0.5,0.1c0.1,0,0.3,0.1,0.5,0.2" class="g9_1" />
<path d="M232,246.9c-0.7,0.4,-1.4,0.8,-2,1.2c-0.2,-0.1,-0.3,-0.2,-0.5,-0.2c-0.1,0,-0.3,-0.1,-0.5,-0.2" class="g9_1" />
<path d="M227.7,247.5c0.7,-0.4,1.4,-0.8,2,-1.2c0.1,0,0.3,0.1,0.5,0.1c0.2,0,0.4,0.1,0.5,0.1" class="g9_1" />
<path d="M230.7,246.5c-0.6,0.3,-1.3,0.7,-1.9,1.1c-0.2,0,-0.4,0,-0.5,0c-0.2,0,-0.4,-0.1,-0.6,-0.1" class="g9_1" />
<path d="M222.9,257.9c1.4,-0.8,2.8,-1.6,4.3,-2.5c0.1,0.1,0.2,0.3,0.3,0.4c0.2,0.1,0.3,0.3,0.4,0.4" class="g9_1" />
<path d="M227.9,256.2c-1.5,0.8,-2.9,1.7,-4.4,2.5c-0.1,-0.1,-0.2,-0.3,-0.3,-0.4c-0.1,-0.1,-0.2,-0.2,-0.4,-0.3" class="g9_1" />
<path d="M222,257.1c1.4,-0.8,2.9,-1.6,4.3,-2.5c0.1,0.1,0.3,0.2,0.4,0.3c0.1,0.1,0.2,0.3,0.3,0.4" class="g9_1" />
<path d="M227,255.3c-1.4,0.8,-2.8,1.7,-4.3,2.5c-0.1,-0.1,-0.3,-0.2,-0.4,-0.3c-0.1,-0.2,-0.2,-0.3,-0.3,-0.4" class="g9_1" />
<path d="M221,256.3c1.4,-0.8,2.9,-1.7,4.3,-2.5c0.1,0,0.3,0.2,0.4,0.3c0.1,0,0.3,0.2,0.5,0.3" class="g9_1" />
<path d="M226.2,254.4c-1.5,0.9,-2.9,1.7,-4.4,2.6c-0.1,-0.2,-0.3,-0.3,-0.4,-0.4c-0.1,-0.1,-0.3,-0.2,-0.4,-0.3" class="g9_1" />
<path d="M219.9,255.5c1.4,-0.9,2.8,-1.7,4.3,-2.5c0.1,0.1,0.3,0.2,0.4,0.3c0.2,0.1,0.4,0.2,0.5,0.3" class="g9_1" />
<path d="M225.1,253.6c-1.4,0.8,-2.9,1.7,-4.3,2.5c-0.2,0,-0.3,-0.2,-0.5,-0.3c-0.1,-0.1,-0.3,-0.2,-0.5,-0.3" class="g9_1" />
<path d="M218.7,254.8c1.4,-0.8,2.8,-1.6,4.3,-2.5c0.1,0.1,0.3,0.2,0.5,0.3c0.1,0,0.3,0.2,0.5,0.3" class="g9_1" />
<path d="M224,252.9c-1.4,0.8,-2.9,1.6,-4.3,2.5c-0.2,-0.1,-0.4,-0.2,-0.5,-0.3c-0.2,-0.1,-0.4,-0.2,-0.6,-0.3" class="g9_1" />
<path d="M217.5,254.4c1.4,-0.8,2.8,-1.6,4.3,-2.5c0.1,0,0.3,0.1,0.4,0.2c0.2,0,0.4,0.1,0.6,0.1" class="g9_1" />
<path d="M222.8,252.2c-1.5,0.8,-2.9,1.7,-4.4,2.6c-0.1,-0.1,-0.3,-0.2,-0.5,-0.2c-0.1,0,-0.3,-0.2,-0.5,-0.2" class="g9_1" />
<path d="M216.2,254.2c1.4,-0.8,2.9,-1.7,4.3,-2.5c0.1,0,0.3,0,0.5,0c0.2,0,0.3,0.1,0.5,0.1" class="g9_1" />
<path d="M221.5,251.8c-1.4,0.8,-2.9,1.7,-4.3,2.5c-0.2,0,-0.4,0,-0.5,0c-0.2,0,-0.4,-0.1,-0.6,-0.1" class="g9_1" />
<path d="M264.3,240.8l-3.6,2.1" class="g9_1" />
<path d="M263.9,242.5l-3.2,1.8" class="g9_1" />
<path d="M264,242.1l-3.3,1.9" class="g9_1" />
<path d="M264.3,240.3l-3.6,2.1" class="g9_1" />
<path d="M264.1,238.9l-3.7,2.2" class="g9_1" />
<path d="M263.9,238.4l-3.7,2.1" class="g9_1" />
<path d="M263.3,236.9l-3.8,2.2" class="g9_1" />
<path d="M262.9,236.3l-3.7,2.2" class="g9_1" />
<path d="M261.9,235l-3.7,2.1" class="g9_1" />
<path d="M261.4,234.5l-3.6,2.1" class="g9_1" />
<path d="M260.4,233.7l-3.6,2.1" class="g9_1" />
<path d="M259.9,233.4l-3.5,2.1" class="g9_1" />
<path d="M258.5,233.1l-3.1,1.8" class="g9_1" />
<path d="M258.2,233.1l-3.1,1.8" class="g9_1" />
<path d="M257.6,233.3c1.6,-0.9,4.1,0.5,5.7,3.2c1.6,2.8,1.6,5.7,0,6.7" class="g9_1" />
<path d="M245.2,236.9c0.2,0,0.3,-0.2,0.5,-0.2c1.3,-0.8,2.6,-1.4,3.8,-1.6c1.2,-0.2,2.4,-0.3,3.4,0c1.8,-1.1,4.7,0.6,6.5,3.7c1.8,3.1,1.8,6.5,0,7.5c-0.4,1.1,-1.1,2,-2,2.9c-0.8,0.9,-1.9,1.6,-3.2,2.3" class="g8_1" />
<path d="M229.8,266.4c-0.1,-0.4,-0.5,-0.2,-0.5,-0.2c-0.8,0.5,-1.6,1,-2.5,1.5c0,0,-0.5,0.3,-0.5,0.9c0,0,0,0.6,0,0.6c0,0,0,-0.1,0,-0.1c-0.3,0.2,-0.7,0.4,-1,0.6c-0.8,0.5,-1.6,0.9,-2.3,1.1c-0.8,0.3,-1.5,0.5,-2.2,0.7c-0.7,0.1,-1.6,0,-2.7,-0.2c-1.1,-0.3,-2.3,-0.8,-3.6,-1.5" class="g8_1" />
<path d="M236.5,250.5l0,1" class="g9_1" />
<path d="M235.5,249.5l0,1" class="g9_1" />
<path d="M234.5,248.5l0,1" class="g9_1" />
<path d="M233.5,247.5l0,1" class="g9_1" />
<path d="M232.5,247.5l0,1" class="g9_1" />
<path d="M231.5,246.5l0,1" class="g9_1" />
<path d="M227.5,255.5l0,1" class="g9_1" />
<path d="M226.5,254.5l0,1" class="g9_1" />
<path d="M225.5,253.5l0,1" class="g9_1" />
<path d="M224.5,253.5l0,1" class="g9_1" />
<path d="M222.5,252.5l0,1" class="g9_1" />
<path d="M221.5,251.5l0,1" class="g9_1" />
<path d="M220.5,251.5l0,1" class="g9_1" />
<path d="M305.2,233c0.3,0.2,0.7,0.4,1.1,0.6c0,0.4,0,0.9,0,1.3c-0.4,0.2,-0.8,0.4,-1.1,0.5c-0.3,0.2,-0.6,0.3,-0.9,0.3" class="g9_1" />
<path d="M306.3,233.6c-2.9,1.7,-1.3,2.1,-2.7,2.9c-0.6,0.3,-1.3,0.7,-1.9,1.1c-0.1,0,-0.2,0.1,-0.3,0.1c-0.1,0,-0.3,0.1,-0.4,0.1" class="g9_1" />
<path d="M305.2,233c-2.9,1.6,-0.7,2.9,-3.5,4.6" class="g9_1" />
<path d="M303.4,234c-2.8,1.6,-0.6,2.9,-3.5,4.6c-0.4,0.2,-0.7,0.4,-1.2,0.6c-0.1,0.1,-0.2,0.2,-0.3,0.2c-0.1,0,-0.2,0,-0.3,0" class="g9_1" />
<path d="M304.1,233.8c-0.1,0,-0.3,0.1,-0.4,0.1c-0.1,0,-0.2,0.1,-0.3,0.1c-0.4,0.2,-0.8,0.5,-1.1,0.7c-2.9,1.6,-0.7,2.9,-3.6,4.5" class="g9_1" />
<path d="M300.6,235.6c-2.9,1.7,-0.7,2.9,-3.5,4.6c-0.4,0.2,-0.8,0.5,-1.2,0.7c-0.1,0,-0.3,0.1,-0.3,0.1c-0.1,0,-0.3,0.1,-0.4,0.1" class="g9_1" />
<path d="M301.2,235.5c-0.1,0,-0.3,0.1,-0.4,0.1c0,0,-0.2,0,-0.2,0c-0.4,0.3,-0.8,0.5,-1.2,0.7c-2.9,1.7,-0.7,2.9,-3.5,4.6" class="g9_1" />
<path d="M297.7,237.3c-2.9,1.7,-0.7,2.9,-3.5,4.6c-0.4,0.2,-0.8,0.4,-1.2,0.7c-0.1,0,-0.3,0.1,-0.3,0.1c-0.1,0,-0.3,0,-0.4,0" class="g9_1" />
<path d="M298.3,237.2c-0.1,0,-0.3,0,-0.4,0c0,0,-0.2,0.1,-0.2,0.1c-0.4,0.3,-0.8,0.5,-1.2,0.7c-2.9,1.7,-0.7,2.9,-3.5,4.6" class="g9_1" />
<path d="M294.9,239c-2.9,1.6,-0.7,2.8,-3.5,4.5c-0.4,0.2,-0.8,0.4,-1.2,0.7c-0.1,0,-0.3,0.1,-0.4,0.1c0,0,-0.2,0.1,-0.2,0.1" class="g9_1" />
<path d="M295.5,238.8c-0.1,0,-0.3,0.1,-0.4,0.1c-0.1,0,-0.2,0,-0.2,0.1c-0.4,0.2,-0.8,0.4,-1.2,0.6c-2.8,1.7,-0.7,2.9,-3.5,4.6" class="g9_1" />
<path d="M292,240.6c-2.9,1.7,-0.7,2.9,-3.5,4.6c-0.4,0.2,-0.8,0.4,-1.2,0.7c-0.1,0,-0.3,0.1,-0.4,0.1c0,0,-0.2,0.1,-0.2,0.1" class="g9_1" />
<path d="M292.6,240.5c-0.1,0,-0.3,0,-0.4,0c-0.1,0,-0.2,0.1,-0.2,0.1c-0.4,0.3,-0.8,0.5,-1.2,0.7c-2.8,1.7,-0.7,2.9,-3.5,4.6" class="g9_1" />
<path d="M289,242.3c-2.8,1.7,-0.7,2.9,-3.5,4.6c-4.6,2.7,-9.2,5.3,-13.8,8c-0.4,0.2,-0.9,-0.1,-1.1,-0.6c-0.4,-0.6,-0.4,-1.1,0,-1.3c6.1,-3.5,12.3,-7.1,18.4,-10.7c0,0,0.2,-0.1,0.3,-0.1c0.1,0,0.3,-0.1,0.4,-0.1" class="g9_1" />
<path d="M270.6,253c0.1,0,0.3,0.1,0.4,0.2c0.1,0,0.3,0.2,0.4,0.4c0.2,0.3,0.3,0.6,0.4,0.8c0,0.2,0,0.4,-0.1,0.5" class="g9_1" />
<path d="M236.5,1155.5l0,-28" class="g2_1" />
<path d="M390.5,1155.5l0,-28" class="g2_1" />
<path d="M544.5,1155.5l0,-28" class="g2_1" />
<path d="M698.5,1155.5l0,-28" class="g2_1" />
<path d="M236.5,1155.5l0,-28" class="g2_1" />
<path d="M390.5,1155.5l0,-28" class="g2_1" />
<path d="M544.5,1155.5l0,-28" class="g2_1" />
<path d="M698.5,1155.5l0,-28" class="g2_1" />
<path d="M236.5,82.5l0,-27" class="g2_1" />
<path d="M390.5,82.5l0,-27" class="g2_1" />
<path d="M544.5,82.5l0,-27" class="g2_1" />
<path d="M698.5,82.5l0,-27" class="g2_1" />
<path d="M236.5,82.5l0,-27" class="g2_1" />
<path d="M390.5,82.5l0,-27" class="g2_1" />
<path d="M544.5,82.5l0,-27" class="g2_1" />
<path d="M698.5,82.5l0,-27" class="g2_1" />
<path d="M82,1097l770,0" class="g11_1" />
<path d="M466.5,1099.5l0,28" class="g4_1" />
<path d="M468.5,1099.5l0,28" class="g4_1" />
<path d="M272.5,1099.5l0,28" class="g4_1" />
<path d="M274.5,1099.5l0,28" class="g4_1" />
<path d="M664.5,1099.5l0,28" class="g4_1" />
<path d="M666.5,1099.5l0,28" class="g4_1" />
<path d="M274.5,1099.5l192,0" class="g9_1" />
<path d="M468.5,1099.5l196,0" class="g9_1" />
<path d="M666.5,1099.5l186,0" class="g9_1" />
<path d="M272.5,1099.5l-190,0" class="g9_1" />
<path d="M82,82l770,0l0,1045l-770,0Z" class="g8_1" />
<path d="M140.8,448.3l29.9,-17.5m26.8,0.1l136,77.8" class="g9_1" />
<path d="M140.8,457.9l29.9,-17.5m26.8,0L326,514.2" class="g9_1" />
<path d="M140.8,559.9l43.7,-25.6l91.8,51.8" class="g9_1" />
<path d="M276.3,592.4l69.6,-40.9" class="g8_1" />
<path d="M421.9,500.1l75.6,-44.5" class="g8_1" />
<path d="M326,514.2c0.5,-1.2,2.3,-2.4,2.3,-2.4l50.5,-30.1c0,0,2.2,-0.8,4.3,0.4c2,1.1,17.2,10,17.2,10" class="g8_1" />
<path d="M420.5,503.7l9.5,5.7c0,0,2.3,1.5,2.3,2.3" class="g8_1" />
<path d="M432.3,511.7L432,534.1c0,0,0.2,2.4,-2.5,4.1c-2.8,1.8,-49.8,29.4,-49.8,29.4c0,0,-3.1,2,-5.5,0.2c-2.4,-1.7,-46.1,-26.4,-46.1,-26.4c0,0,-2,-1.2,-2.1,-4.1c-0.1,-2.8,-1,-21.8,0,-23.1" class="g8_1" />
<path d="M328.1,538.9l51,-30c0,0,2.3,-1.3,3.9,0c1.6,1.3,46.7,27,46.7,27" class="g9_1" />
<path d="M380.9,487.2l0,-4" class="g9_1" />
<path d="M381,507.2l-0.1,-17" class="g9_1" />
<path d="M326,520.9c0.5,-1.2,2.3,-2.4,2.3,-2.4l50.5,-30c0,0,2.2,-0.8,4.3,0.3c2,1.1,17,9.9,17,9.9" class="g9_1" />
<path d="M326,522.2c0.5,-1.2,2.3,-2.4,2.3,-2.4l31.4,-18.7m14.7,-8.7l4.4,-2.6c0,0,2.2,-0.8,4.3,0.3c2,1.2,17,9.9,17,9.9" class="g9_1" />
<path d="M417.7,508.7l12.2,7.1c0,0,2.3,1.5,2.3,2.3" class="g9_1" />
<path d="M417.3,509.8l12.3,7.2c0,0,2.3,1.5,2.3,2.3" class="g9_1" />
<path d="M330.6,518.4l0.5,14.2l12.8,-7.7l0,-14.4" class="g9_1" />
<path d="M361.7,514.4l12.7,-7.6l0,-14.4" class="g9_1" />
<path d="M335.4,527.1c-1.7,-0.6,-2.2,-3.4,-1.1,-6.2c1.1,-2.7,3.3,-4.4,5,-3.8" class="g9_1" />
<path d="M339.3,517.1c1.7,0.7,2.2,3.5,1.1,6.2c-1.1,2.8,-3.3,4.5,-5,3.8" class="g8_1" />
<path d="M338.2,525.2c-0.7,-0.3,-0.9,-1.4,-0.4,-2.5c0.4,-1.2,1.3,-1.9,2,-1.6" class="g8_1" />
<path d="M339.8,521.1c0.7,0.3,0.9,1.4,0.5,2.5c-0.5,1.2,-1.4,1.9,-2.1,1.6" class="g8_1" />
<path d="M410.2,488.2L409,487.5l-8.9,16.2" class="g9_1" />
<path d="M401.3,504.5l8.9,-16.3" class="g8_1" />
<path d="M400.1,492.9l0,10.8l1.2,0.8" class="g9_1" />
<path d="M415,513l-1.2,-0.8l8.8,-16.6l0.9,0.2" class="g9_1" />
<path d="M424.9,494.4c-0.2,0.4,-0.7,1.4,-0.7,1.4l-8.9,16.7" class="g8_1" />
<path d="M400.1,492.9c0.2,-0.8,0.7,-1.8,1.9,-2.7c1.1,-0.8,7.6,-5,7.6,-5c0,0,1.7,-1,3.3,0.1c1.7,1.1,8.1,4.9,9.7,5.9c1.6,0.9,2.8,1.5,2.3,3.2" class="g8_1" />
<path d="M413.8,512.2l0,-2.3L402,503.2" class="g9_1" />
<path d="M409,487.5c1,-0.8,1.7,-0.8,2.4,-0.7c0.6,0,0.8,0.3,1.5,0.7c0.7,0.5,10.2,6.2,10.2,6.2c0,0,1.7,0.7,1.1,2.1" class="g9_1" />
<path d="M407,495l7.7,4.6l0,8.5" class="g9_1" />
<path d="M414.7,499.6l7,-4.2c0,0,0.4,0.1,0.9,0.2" class="g9_1" />
<path d="M416.4,493.5c0,1,-1.5,1.8,-3.4,1.8c-1.9,0,-3.5,-0.8,-3.5,-1.8" class="g9_1" />
<path d="M413.8,509.9c0.5,-0.5,0.9,-1.1,0.9,-1.8" class="g9_1" />
<path d="M350.4,608.1c0,-2.1,-2.6,-3.9,-5.8,-3.9c-3.3,0,-5.9,1.8,-5.9,3.9" class="g9_1" />
<path d="M350.4,608.1c0,2.2,-2.6,4,-5.8,4c-3.3,0,-5.9,-1.8,-5.9,-4" class="g8_1" />
<path d="M338.7,606.3c0,-2.2,2.6,-3.9,5.9,-3.9c3.2,0,5.8,1.7,5.8,3.9" class="g8_1" />
<path d="M346.5,610.5c-1.1,-0.4,-2.5,-0.6,-3.8,-2.5" class="g8_1" />
<path d="M342.7,610.5c1.1,-0.4,2.5,-0.6,3.8,-2.5" class="g8_1" />
<path d="M338,606l0,2" class="g8_1" />
<path d="M350,606l0,2" class="g8_1" />
<path d="M346.3,592.3c0,-0.7,-0.8,-1.2,-1.7,-1.2c-1,0,-1.8,0.5,-1.8,1.2" class="g9_1" />
<path d="M346.3,594.1c0,-0.6,-0.8,-1.2,-1.7,-1.2c-1,0,-1.8,0.6,-1.8,1.2" class="g9_1" />
<path d="M346.3,595.8c0,-0.6,-0.8,-1.1,-1.7,-1.1c-1,0,-1.8,0.5,-1.8,1.1" class="g9_1" />
<path d="M346.3,597.7c0,-0.6,-0.8,-1.2,-1.7,-1.2c-1,0,-1.8,0.6,-1.8,1.2" class="g9_1" />
<path d="M346.3,599.5c0,-0.7,-0.8,-1.2,-1.7,-1.2c-1,0,-1.8,0.5,-1.8,1.2" class="g9_1" />
<path d="M346.3,601.2c0,-0.6,-0.8,-1.1,-1.7,-1.1c-1,0,-1.8,0.5,-1.8,1.1" class="g9_1" />
<path d="M326,537l0,2" class="g8_1" />
<path d="M344,567l0,2" class="g8_1" />
<path d="M413.5,547.5l0,-55" class="g12_1" />
<path d="M413.5,483.5l0,-18" class="g13_1" />
<path d="M411.6,562.6l0,-11.2l1.7,-3.6l2.2,3.5l0,11.5" class="g8_1" />
<path d="M419.3,568.4c0,-2.2,-2.6,-3.9,-5.9,-3.9c-3.2,0,-5.8,1.7,-5.8,3.9" class="g9_1" />
<path d="M419.3,568.4c0,2.2,-2.6,4,-5.9,4c-3.2,0,-5.8,-1.8,-5.8,-4" class="g8_1" />
<path d="M407.6,566.6c0,-2.2,2.6,-4,5.8,-4c3.3,0,5.9,1.8,5.9,4" class="g8_1" />
<path d="M415.4,570.7c-1.1,-0.4,-2.6,-0.5,-3.8,-2.4" class="g8_1" />
<path d="M411.6,570.7c1.1,-0.4,2.5,-0.5,3.8,-2.4" class="g8_1" />
<path d="M407,566l0,2" class="g8_1" />
<path d="M419,566l0,2" class="g8_1" />
<path d="M415.2,552.6c0,-0.7,-0.8,-1.2,-1.8,-1.2c-0.9,0,-1.7,0.5,-1.7,1.2" class="g9_1" />
<path d="M415.2,554.4c0,-0.7,-0.8,-1.2,-1.8,-1.2c-0.9,0,-1.7,0.5,-1.7,1.2" class="g9_1" />
<path d="M415.2,556.1c0,-0.6,-0.8,-1.2,-1.8,-1.2c-0.9,0,-1.7,0.6,-1.7,1.2" class="g9_1" />
<path d="M415.2,558c0,-0.7,-0.8,-1.2,-1.8,-1.2c-0.9,0,-1.7,0.5,-1.7,1.2" class="g9_1" />
<path d="M415.2,559.7c0,-0.6,-0.8,-1.1,-1.8,-1.1c-0.9,0,-1.7,0.5,-1.7,1.1" class="g9_1" />
<path d="M415.2,561.5c0,-0.6,-0.8,-1.2,-1.8,-1.2c-0.9,0,-1.7,0.6,-1.7,1.2" class="g9_1" />
<path d="M413.5,547.5l0,-55" class="g13_1" />
<path d="M409.5,493.5c0,-1,1.6,-1.8,3.5,-1.8c1.9,0,3.4,0.8,3.4,1.8" class="g8_1" />
<path d="M344.5,587.5l0,-34" class="g12_1" />
<path d="M344.5,587.5l0,-37" class="g13_1" />
<path d="M342.7,602.3l0,-11.2l1.7,-3.6l2.2,3.6l0,11.4" class="g8_1" />
<path d="M414.3,466.6c0,0.3,-0.5,0.6,-1.1,0.6c-0.6,0,-1.1,-0.3,-1.1,-0.6" class="g9_1" />
<path d="M412.1,466.6c0,-0.3,0.5,-0.6,1.1,-0.6c0.6,0,1.1,0.3,1.1,0.6" class="g8_1" />
<path fill-rule="evenodd" d="M122.2,398.7l119,0c5.1,0,9.2,4.2,9.2,9.3l0,252.6c0,5.1,-4.1,9.3,-9.2,9.3l-119,0c-5,0,-9.2,-4.2,-9.2,-9.3L113,408c0,-5.1,4.2,-9.3,9.2,-9.3Z" class="g14_1" />
<path fill-rule="evenodd" d="M125.8,402.6l111.8,0c4.8,0,8.7,4,8.7,8.7l0,245.1c0,4.8,-3.9,8.7,-8.7,8.7l-111.8,0c-4.7,0,-8.6,-3.9,-8.6,-8.7l0,-245.1c0,-4.7,3.9,-8.7,8.6,-8.7Z" class="g15_1" />
<path d="M127.2,455.1c0,-0.2,0,-0.4,0,-0.7c0,-0.3,0.2,-3.8,0.2,-3.8c0,0,0.1,-1.1,1.2,-1.7c1.1,-0.7,6.3,-3.8,6.3,-3.8" class="g8_1" />
<path d="M127.2,454.7c0,-0.3,0.2,-0.6,0.6,-0.9c0.5,-0.2,8.6,-5,8.6,-5" class="g9_1" />
<path d="M136.7,449.2l-8.9,5.2c0,0,-0.6,0.3,-0.6,1.1c0,0.7,0.5,10.1,0.5,10.1c0,0,0,1.3,1.1,1.9c1,0.7,33.9,19.4,33.9,19.4c0,0,1,0.7,2.3,-0.1c1.3,-0.7,30.3,-17.8,30.3,-17.8c0,0,1,-0.3,1.2,-1.9c0.2,-1.5,0.6,-10.3,0.6,-10.3c0,0,0,-0.6,-0.6,-1c-0.6,-0.4,-1.5,-0.9,-1.5,-0.9l-0.1,0.1" class="g8_1" />
<path d="M197,456.4c0.1,-0.2,0.1,-0.3,0.1,-0.6c0,-0.3,-0.3,-3.8,-0.3,-3.8c0,0,-0.1,-1.2,-1.1,-1.8c-1.1,-0.6,-34.1,-19.6,-34.1,-19.6c0,0,-1.1,-0.6,-2.2,0c-1.1,0.7,-11.7,7,-11.7,7" class="g8_1" />
<path d="M141.6,435.3l4,8.3c0,0,0.3,0.7,1.1,1.2" class="g8_1" />
<path d="M146.7,444.8l0.6,0.4" class="g8_1" />
<path d="M138.5,451c0,-0.2,-0.1,-0.3,-0.3,-0.4c-0.2,-0.2,-0.7,-0.4,-0.7,-0.4c0,0,-0.5,-0.3,-1,-1.2c-0.4,-0.9,-1.2,-2.6,-1.2,-2.6l-2.2,-6.3c0,0,-0.1,-0.3,-0.3,-0.3c-0.2,-0.1,-0.5,-0.3,-0.5,-0.6c0,-0.4,0.2,-1.6,0.2,-1.6c0,0,0.1,-0.3,0.4,-0.5c0.2,-0.1,7.2,-4.3,7.2,-4.3c0,0,0.8,-0.3,1.4,0c0.6,0.4,5,2.9,5,2.9c0,0,1,0.7,1.1,1.7c0.1,1,0.5,4.8,0.5,4.8l0.2,0.1" class="g8_1" />
<path d="M132.3,439.2c0,-0.3,0.1,-0.3,0.4,-0.5c0.3,-0.2,7.4,-4.4,7.4,-4.4c0,0,0.5,-0.2,0.8,-0.2c0.3,0,0.5,0.1,0.7,0.2c0.2,0.1,0.3,0.1,0.3,0.1c0,0,0.1,0.1,0.2,0.3c0.1,0.2,3.1,5.7,3.1,5.7l1.1,2.7c0.1,0.1,0.5,1,1,1.3c0.5,0.3,0.8,0.4,0.8,0.4c0,0,0.2,0.2,0.2,0.4" class="g9_1" />
<path d="M148.5,444.5l0,-2" class="g9_1" />
<path d="M143.5,439.3l-4.7,2.9c0,0,-0.4,0.1,-0.6,0C138,442,134,439.7,133.8,439.6c-0.1,0,-0.3,0,-0.6,0.2c-0.2,0.1,-0.3,0,-0.4,0" class="g9_1" />
<path d="M133.7,439.8l2.5,6.2l1.4,2.9c0,0,0.4,0.8,1.1,1" class="g9_1" />
<path d="M138.5,442.4l-0.2,5.5c0,0,-0.1,1,0.8,1.4" class="g9_1" />
<path d="M138.9,448.7l7.1,-4" class="g9_1" />
<path d="M141.6,435.3c-0.1,-0.2,0.2,-0.3,0.3,-0.4c0,-0.1,0.3,-0.3,0,-0.5" class="g9_1" />
<path d="M137.4,438.3c0,-0.6,0.9,-1.2,2.1,-1.2c1.1,0,2.1,0.6,2.1,1.2" class="g8_1" />
<path d="M141.6,438.3c0,0.7,-1,1.3,-2.1,1.3c-1.2,0,-2.1,-0.6,-2.1,-1.3" class="g9_1" />
<path d="M141.2,437.6c-0.4,0.3,-1,0.5,-1.7,0.5c-0.7,0,-1.3,-0.2,-1.6,-0.5" class="g8_1" />
<path d="M163.6,436.9l-1.7,-1.1c0,0,-1.7,-0.7,-3.1,0.1c-1.4,0.8,-10.6,6.3,-10.6,6.3" class="g8_1" />
<path d="M148.1,441.7l11,-6.5c0,0,1.5,-0.5,2.8,0.2c1.3,0.7,1.8,1,1.8,1l-0.4,0.3l0.4,-0.3l0,1.6l-0.1,0.1l0.1,-0.1l9.9,5.7c0,0,0.6,0.3,0.6,1.1c0,0.7,0,1.6,0,1.6l-0.6,0.3l0.1,0.1l-0.1,-0.1l0,0.6l0,-0.6l0.6,-0.3l1.1,0.7" class="g9_1" />
<path d="M195.2,454.5l1.3,0.7c0,0,0.6,0.4,0.6,0.9" class="g9_1" />
<path d="M177.9,450.7c-0.7,0.3,-1.8,-0.5,-2.3,-1.7c-0.5,-1.3,-0.4,-2.6,0.3,-2.9" class="g8_1" />
<path d="M175.9,446.1c0.7,-0.3,1.8,0.4,2.3,1.7c0.5,1.2,0.4,2.5,-0.3,2.9" class="g9_1" />
<path d="M160.5,430.5l0,4" class="g9_1" />
<path d="M160.5,436.5l0,11" class="g9_1" />
<path d="M195.6,467.9c-1,-0.6,-34.1,-19.6,-34.1,-19.6c0,0,-1,-0.7,-2.1,0c-1.1,0.7,-31,17.9,-31,17.9" class="g9_1" />
<path d="M182.4,453.2c-0.7,0.3,-1.7,-0.4,-2.2,-1.7c-0.6,-1.3,-0.4,-2.6,0.3,-2.9" class="g8_1" />
<path d="M180.5,448.6c0.7,-0.3,1.7,0.5,2.3,1.7c0.5,1.3,0.3,2.6,-0.4,2.9" class="g9_1" />
<path d="M175.3,447.3c0.5,0.1,1,0.7,1.3,1.4c0.3,0.6,0.3,1.3,0.1,1.8" class="g8_1" />
<path d="M179.8,449.9c0.5,0.1,1.1,0.6,1.4,1.4c0.3,0.7,0.4,1.3,0.2,1.7" class="g8_1" />
<path d="M173.2,449.6l0,-2.1l0.5,-0.3l0,-0.4l0.5,-0.3l1.1,0.7" class="g8_1" />
<path d="M173.9,449.7c-0.2,0.1,-0.3,0.2,-0.4,0.1c-0.3,-0.2,-9.5,-5.4,-9.5,-5.4c0,0,-0.5,-0.4,-0.5,-1.1c0,-0.6,0.1,-6.4,0.1,-6.4" class="g8_1" />
<path d="M174.2,446.5c0,0,-0.1,2.5,-0.1,2.8c0,0.2,-0.1,0.3,-0.2,0.4" class="g9_1" />
<path d="M172.2,449l0,-1.3l-8.6,-5" class="g8_1" />
<path d="M163.7,442.8l0,0.9l8.5,4.9" class="g9_1" />
<path d="M164.1,444.4l0.2,-0.3l0,-0.9" class="g9_1" />
<path d="M163.6,439.1l9,5.2c0,0,0,0.1,0,0.1c0,0,0.2,0.2,0.2,0.2c0,0.1,-0.2,0.4,-0.3,0.4" class="g9_1" />
<path d="M164.1,439.4c0,0.1,-0.1,0.4,-0.4,0.6" class="g9_1" />
<path d="M163.7,440l-0.1,-0.1" class="g9_1" />
<path d="M165.3,443.7l0.5,-0.3c0,0,0.2,0,0.2,0.1c0.1,0.1,0.3,0.3,0.3,0.3c0,0,0.2,0.2,0.3,0.1c0.2,-0.1,0.7,-0.4,0.7,-0.4c0,0,0.1,-0.1,0.1,-0.2c0,-0.1,0,-0.3,0,-0.3l0.1,-0.1c0.1,-0.1,0.6,-0.4,0.6,-0.4c0,0,0.4,-0.2,0.4,-0.6" class="g9_1" />
<path d="M165.3,443.7l0.5,-0.3c0,0,0.2,-0.1,0.2,0c0.1,0.1,0.3,0.4,0.3,0.4c0,0,0.2,0.1,0.4,0c0.2,-0.1,0.6,-0.3,0.6,-0.3c0,0,0,-0.1,0,-0.2c0,-0.1,0,-0.3,0,-0.3c0,0,0,-0.1,0.1,-0.1c0.1,-0.1,0.7,-0.4,0.7,-0.4c0,0,0.4,-0.2,0.4,-0.6" class="g9_1" />
<path d="M169.9,446.3l2.3,-1.3c0,0,0.1,-0.1,0.1,0c0.1,0.1,0.1,0.1,0.1,0.3c0,0.3,0,0.4,0,0.4" class="g9_1" />
<path d="M172.2,445c0,0,0.2,-0.1,0.2,0c0.1,0.1,0.1,0.1,0.1,0.3c0,0.2,0,0.4,0,0.4" class="g9_1" />
<path d="M172.4,445.7c0.1,-0.1,0.3,-0.1,0.5,-0.1c0.1,0,0.4,0,0.4,0.1" class="g8_1" />
<path d="M173.3,445.7l0,1.7" class="g8_1" />
<path d="M172.7,445.7l0,3.6" class="g9_1" />
<path d="M173.2,445.6l0.1,-0.2" class="g8_1" />
<path d="M173.3,445.4l-0.3,0.1" class="g9_1" />
<path d="M173.2,445.6L173,445.5c0,0,0,-0.5,-0.3,-0.8" class="g8_1" />
<path d="M172.7,445.6c0,0,0,-0.4,0,-0.5" class="g8_1" />
<path d="M172.4,445c0.2,0.1,0.4,0.1,0.6,0.5" class="g9_1" />
<path d="M172.7,444.8c0.1,0.1,0.2,0.2,0.3,0.4" class="g9_1" />
<path d="M169.2,446c0.2,-0.2,0.2,-0.3,0.3,-0.4c0.1,-0.1,0.5,-0.9,0.5,-0.9c0,0,0.1,-0.1,0,-0.2c0,-0.1,-0.1,-0.2,-0.1,-0.2c0,0,-0.4,-0.3,-0.6,-0.4" class="g8_1" />
<path d="M168.1,445.3c0.1,-0.1,0.3,-0.2,0.3,-0.3c0.1,-0.1,0.7,-0.8,0.7,-0.8c0,0,0.2,-0.1,0.4,-0.1c0.2,0.1,0.5,0.4,0.5,0.4" class="g9_1" />
<path d="M167.5,445c0.1,-0.1,0.3,-0.2,0.3,-0.3c0.1,-0.2,0.7,-0.8,0.7,-0.8c0,0,0.2,-0.2,0.4,-0.1c0.2,0,0.5,0.3,0.5,0.3" class="g9_1" />
<path d="M166.9,444.6l0.2,-0.1c0,0,0.1,-0.1,0.2,0c0,0,0.2,0.2,0.3,0.1" class="g8_1" />
<path d="M167.4,444.7c0,0,0.2,-0.1,0.3,-0.2c0.1,-0.1,0.3,-0.5,0.3,-0.5c0,0,0.5,-0.2,0.8,-0.2" class="g8_1" />
<path d="M167.4,444.7c-0.1,0,-0.2,-0.2,-0.2,-0.2" class="g9_1" />
<path d="M169.4,444.1c0,-0.1,-0.2,-0.3,-0.4,-0.4" class="g8_1" />
<path d="M170.8,444.7l-0.1,0.1c-0.2,0.1,-1.1,0.8,-1.3,1" class="g9_1" />
<path d="M168.8,443.8c0.2,-0.1,0.5,-0.2,0.7,0c0.2,0.1,1.2,0.6,1.2,0.6c0,0,0.1,0.1,0.1,0.3" class="g8_1" />
<path d="M167.3,444.5l0.6,-0.3" class="g8_1" />
<path d="M169.9,444.3l0.2,-0.2" class="g8_1" />
<path d="M170,444.5c0.1,-0.1,0.2,-0.1,0.1,-0.4" class="g9_1" />
<path d="M170.1,444.5c0.1,0,0.1,-0.1,0.1,-0.3" class="g9_1" />
<path d="M164.4,443.2c0.2,-0.1,0.3,-0.2,0.3,-0.3c0.1,-0.2,0.6,-0.9,0.6,-0.9c0,0,0,-0.2,0,-0.3c-0.1,-0.1,-0.2,-0.2,-0.2,-0.2c0,0,-0.4,-0.3,-0.6,-0.3" class="g8_1" />
<path d="M163.5,442.4c0.2,-0.1,0.1,0,0.2,-0.1c0.1,-0.2,0.7,-0.8,0.7,-0.8c0,0,0.1,-0.2,0.3,-0.1c0.2,0,0.6,0.4,0.6,0.4" class="g9_1" />
<path d="M163.5,441.4c0.2,-0.1,0.3,-0.3,0.3,-0.3c0,0,0.1,-0.1,0.3,0c0.2,0,0.5,0.3,0.5,0.3" class="g9_1" />
<path d="M163.5,441.2c0.2,-0.1,0.3,-0.2,0.5,-0.2" class="g8_1" />
<path d="M164.6,441.4c0,-0.1,-0.2,-0.3,-0.4,-0.4" class="g8_1" />
<path d="M166,441.9c0,0.1,0,0.1,0,0.1c-0.2,0.2,-1.2,0.9,-1.4,1" class="g9_1" />
<path d="M164,441c0.2,0,0.5,-0.1,0.7,0c0.2,0.2,1.2,0.7,1.2,0.7c0,0,0.1,0.1,0.1,0.2" class="g8_1" />
<path d="M165.1,441.5l0.2,-0.1" class="g8_1" />
<path d="M165.3,441.7c0,0,0.1,-0.1,0,-0.3" class="g9_1" />
<path d="M165.3,441.8c0.1,-0.1,0.2,-0.1,0.1,-0.4" class="g9_1" />
<path d="M194.5,461.6c-0.1,0.1,-0.2,0.1,-0.3,0c-0.3,-0.1,-9.5,-5.4,-9.5,-5.4c0,0,-0.5,-0.4,-0.5,-1c0,-0.7,0,-2.9,0,-2.9l-0.9,-0.5c0,0,-0.1,-0.1,-0.3,0c-0.1,0,-0.5,0.1,-0.5,0.1l0,0.4c0,0,-0.6,0.1,-1,0.4" class="g8_1" />
<path d="M195,454.9c0,0,-0.2,5.9,-0.2,6.3c0,0.2,-0.1,0.3,-0.2,0.4" class="g9_1" />
<path d="M192.9,460.9l0,-1.4l-8.6,-4.9" class="g8_1" />
<path d="M184.4,454.7l0,0.9l8.5,4.9" class="g9_1" />
<path d="M184.8,456.2l0.2,-0.3l0,-0.9" class="g9_1" />
<path d="M184.4,451l8.9,5.1c0,0,0,0.1,0,0.2c0,0,0.2,0.1,0.2,0.2c0,0,-0.2,0.4,-0.3,0.4" class="g9_1" />
<path d="M184.8,451.2c0,0.2,-0.1,0.5,-0.4,0.7" class="g9_1" />
<path d="M184.4,451.9l0,-0.1" class="g9_1" />
<path d="M186,455.6l0.5,-0.3c0,0,0.2,-0.1,0.2,0c0.1,0.2,0.3,0.4,0.3,0.4c0,0,0.2,0.1,0.3,0c0.2,-0.1,0.7,-0.4,0.7,-0.4c0,0,0.1,0,0.1,-0.1c0,-0.1,0,-0.3,0,-0.3c0,0,0,-0.1,0.1,-0.1c0.1,-0.1,0.6,-0.4,0.6,-0.4c0,0,0.4,-0.3,0.4,-0.6" class="g9_1" />
<path d="M186,455.5l0.5,-0.2c0,0,0.2,-0.1,0.2,0c0.1,0.1,0.3,0.4,0.3,0.4c0,0,0.2,0.1,0.4,0c0.2,-0.1,0.6,-0.4,0.6,-0.4l0,-0.1c0,-0.1,0,-0.3,0,-0.3c0,0,0,-0.1,0.1,-0.2c0.1,0,0.7,-0.3,0.7,-0.3c0,0,0.4,-0.3,0.4,-0.7" class="g9_1" />
<path d="M190.6,458.2l2.3,-1.4c0,0,0.1,0,0.1,0.1c0.1,0.1,0.1,0.1,0.1,0.3c0,0.2,0,0.4,0,0.4" class="g9_1" />
<path d="M192.9,456.8c0,0,0.2,0,0.2,0.1c0.1,0.1,0.1,0.1,0.1,0.3c0,0.2,0,0.4,0,0.4" class="g9_1" />
<path d="M193.1,457.6c0.1,-0.1,0.3,-0.2,0.5,-0.2c0.1,0,0.4,0.1,0.4,0.2" class="g8_1" />
<path d="M194,457.6l-0.1,3.9" class="g8_1" />
<path d="M193.4,457.6l0,3.6" class="g9_1" />
<path d="M193.9,457.5l0.1,-1l0.4,-0.2l-0.1,-0.1l0.5,-0.3l0.1,-1.5" class="g8_1" />
<path d="M194,457.2l-0.3,0.2" class="g9_1" />
<path d="M193.9,457.5l-0.2,-0.1c0,0,0,-0.6,-0.3,-0.9" class="g8_1" />
<path d="M193.4,457.5c0,0,0,-0.4,0,-0.5" class="g8_1" />
<path d="M193.1,456.8c0.2,0.1,0.4,0.2,0.6,0.6" class="g9_1" />
<path d="M193.4,456.7c0.1,0,0.2,0.2,0.3,0.4" class="g9_1" />
<path d="M189.9,457.8c0.2,-0.1,0.2,-0.2,0.3,-0.3c0.1,-0.2,0.5,-0.9,0.5,-0.9c0,0,0.1,-0.2,0,-0.3c0,-0.1,-0.1,-0.2,-0.1,-0.2c0,0,-0.4,-0.3,-0.6,-0.3" class="g8_1" />
<path d="M188.8,457.2c0.1,-0.1,0.3,-0.2,0.3,-0.3c0.1,-0.2,0.7,-0.8,0.7,-0.8c0,0,0.2,-0.2,0.4,-0.1c0.2,0,0.5,0.4,0.5,0.4" class="g9_1" />
<path d="M188.2,456.9c0.1,-0.2,0.3,-0.3,0.3,-0.4c0.1,-0.1,0.7,-0.8,0.7,-0.8c0,0,0.2,-0.1,0.4,0c0.2,0,0.5,0.3,0.5,0.3" class="g9_1" />
<path d="M187.6,456.5l0.2,-0.2c0,0,0.1,0,0.2,0c0,0,0.2,0.2,0.3,0.2" class="g8_1" />
<path d="M188.1,456.5c0,0,0.2,-0.1,0.3,-0.2c0.1,-0.1,0.3,-0.4,0.3,-0.4c0,0,0.5,-0.3,0.8,-0.3" class="g8_1" />
<path d="M188.1,456.5c-0.1,0,-0.2,-0.1,-0.2,-0.2" class="g9_1" />
<path d="M190.1,456c0,-0.1,-0.2,-0.3,-0.4,-0.4" class="g8_1" />
<path d="M191.5,456.5c0,0.1,0,0.1,-0.1,0.1c-0.2,0.2,-1.1,0.9,-1.3,1" class="g9_1" />
<path d="M189.5,455.6c0.2,0,0.5,-0.1,0.7,0c0.2,0.2,1.2,0.7,1.2,0.7c0,0,0.1,0.1,0.1,0.2" class="g8_1" />
<path d="M188,456.4l0.6,-0.3" class="g8_1" />
<path d="M190.6,456.1l0.2,-0.1" class="g8_1" />
<path d="M190.7,456.3c0.1,0,0.2,-0.1,0.1,-0.3" class="g9_1" />
<path d="M190.8,456.4c0.1,-0.1,0.1,-0.1,0.1,-0.4" class="g9_1" />
<path d="M185.1,455.1c0.2,-0.1,0.3,-0.3,0.3,-0.4c0.1,-0.1,0.6,-0.8,0.6,-0.8c0,0,0,-0.2,0,-0.3c-0.1,-0.1,-0.2,-0.2,-0.2,-0.2c0,0,-0.4,-0.3,-0.6,-0.3" class="g8_1" />
<path d="M184.2,454.3c0.2,-0.1,0.1,-0.1,0.2,-0.2c0.1,-0.1,0.7,-0.8,0.7,-0.8c0,0,0.1,-0.1,0.3,0c0.2,0,0.6,0.3,0.6,0.3" class="g9_1" />
<path d="M184.2,453.3c0.2,-0.2,0.3,-0.3,0.3,-0.3c0,0,0.1,-0.1,0.3,-0.1c0.2,0.1,0.5,0.3,0.5,0.3" class="g9_1" />
<path d="M184.2,453c0.2,0,0.3,-0.1,0.5,-0.1" class="g8_1" />
<path d="M185.3,453.2c0,-0.1,-0.2,-0.3,-0.4,-0.3" class="g8_1" />
<path d="M186.7,453.8c0,0,0,0.1,0,0.1c-0.2,0.2,-1.2,0.9,-1.4,1" class="g9_1" />
<path d="M184.7,452.9c0.2,-0.1,0.5,-0.1,0.7,0c0.2,0.1,1.2,0.7,1.2,0.7c0,0,0.1,0.1,0.1,0.2" class="g8_1" />
<path d="M185.8,453.4l0.2,-0.2" class="g8_1" />
<path d="M186,453.6c0,-0.1,0.1,-0.1,0,-0.4" class="g9_1" />
<path d="M186,453.6c0.1,0,0.2,0,0.1,-0.3" class="g9_1" />
<path d="M182.4,452.3l0,-0.5l0.5,-0.2c0,0,0.2,0,0.4,0c0.1,0.1,1,0.6,1,0.6" class="g9_1" />
<path d="M182.4,451.8l0.2,0.1" class="g9_1" />
<path d="M184.6,450.2c0.1,-0.1,0.2,-0.1,0.4,0c0.1,0.1,9.8,5.7,9.8,5.7" class="g9_1" />
<path d="M184.2,452.3l0.1,-0.1l0.1,-1.6c0,0,0,-0.3,0.2,-0.4" class="g8_1" />
<path d="M127.5,516c0,-0.1,0,-0.4,0,-0.6c0,-0.3,0.2,-3.7,0.2,-3.7c0,0,0.1,-1.1,1.2,-1.8c1.1,-0.7,6.3,-3.8,6.3,-3.8" class="g8_1" />
<path d="M127.5,515.7c0,-0.3,0.2,-0.6,0.6,-0.9c0.5,-0.3,8.6,-5,8.6,-5" class="g9_1" />
<path d="M136.9,510.2l-8.8,5.2c0,0,-0.6,0.3,-0.6,1c0,0.8,0.5,10.2,0.5,10.2c0,0,0,1.3,1.1,1.9c1,0.6,33.8,19.3,33.8,19.3c0,0,1,0.6,2.3,-0.1c1.3,-0.8,30.2,-17.7,30.2,-17.7c0,0,1,-0.4,1.2,-1.9c0.1,-1.6,0.5,-10.3,0.5,-10.3c0,0,0.1,-0.6,-0.5,-1C196,516.4,195.2,516,195.2,516" class="g8_1" />
<path d="M197,517.4c0.1,-0.2,0.1,-0.4,0.1,-0.6c0,-0.3,-0.2,-3.8,-0.2,-3.8c0,0,-0.1,-1.2,-1.2,-1.8c-1.1,-0.6,-34,-19.5,-34,-19.5c0,0,-1,-0.7,-2.1,0c-1.1,0.6,-11.7,6.9,-11.7,6.9" class="g8_1" />
<path d="M141.9,496.3l3.9,8.3c0,0,0.3,0.8,1.1,1.3" class="g8_1" />
<path d="M146.9,505.9l0.7,0.3" class="g8_1" />
<path d="M138.8,512c-0.1,-0.2,-0.1,-0.3,-0.3,-0.4c-0.2,-0.2,-0.7,-0.4,-0.7,-0.4c0,0,-0.6,-0.3,-1,-1.2c-0.4,-0.9,-1.2,-2.5,-1.2,-2.5l-2.2,-6.4c0,0,-0.2,-0.2,-0.3,-0.3c-0.2,-0.1,-0.6,-0.2,-0.5,-0.6c0,-0.3,0.2,-1.6,0.2,-1.6c0,0,0.1,-0.2,0.4,-0.4c0.2,-0.2,7.2,-4.3,7.2,-4.3c0,0,0.8,-0.3,1.3,0c0.6,0.3,5,2.9,5,2.9c0,0,1,0.6,1.2,1.6c0.1,1.1,0.5,4.9,0.5,4.9l0.1,0" class="g8_1" />
<path d="M132.6,500.2c0,-0.2,0.1,-0.3,0.4,-0.5c0.3,-0.2,7.3,-4.4,7.3,-4.4c0,0,0.5,-0.1,0.8,-0.1c0.3,0,0.6,0,0.8,0.1c0.1,0.1,0.2,0.2,0.2,0.2c0,0,0.2,0.1,0.3,0.3c0.1,0.1,3,5.7,3,5.7l1.1,2.6c0.1,0.2,0.6,1.1,1.1,1.3c0.5,0.3,0.7,0.5,0.7,0.5c0,0,0.2,0.1,0.2,0.3" class="g9_1" />
<path d="M148.5,505.5l0,-2" class="g9_1" />
<path d="M143.8,500.3l-4.8,2.9c0,0,-0.3,0.1,-0.5,0c-0.2,-0.1,-4.2,-2.5,-4.4,-2.5c-0.2,-0.1,-0.3,-0.1,-0.6,0.1c-0.2,0.2,-0.3,0.1,-0.4,0" class="g9_1" />
<path d="M134,500.8l2.5,6.2l1.4,2.9c0,0,0.4,0.8,1,1" class="g9_1" />
<path d="M138.8,503.4l-0.2,5.6c0,0,-0.1,0.9,0.7,1.4" class="g9_1" />
<path d="M139.2,509.7l7,-4" class="g9_1" />
<path d="M141.9,496.3c-0.1,-0.2,0.1,-0.2,0.2,-0.3c0.1,-0.2,0.3,-0.3,0,-0.5" class="g9_1" />
<path d="M137.7,499.4c0,-0.7,0.9,-1.2,2.1,-1.2c1.1,0,2,0.5,2,1.2" class="g8_1" />
<path d="M141.8,499.4c0,0.7,-0.9,1.2,-2,1.2c-1.2,0,-2.1,-0.5,-2.1,-1.2" class="g9_1" />
<path d="M141.4,498.6c-0.4,0.3,-1,0.5,-1.6,0.5c-0.7,0,-1.3,-0.2,-1.7,-0.5" class="g8_1" />
<path d="M172.9,503.8l0.6,-0.3l11,6.3l0.4,-0.2c0,0,0.3,-0.2,0.7,0c0.4,0.1,9.4,5.4,9.4,5.4c0,0,0.2,0.1,0.2,0.3c0,0.1,-0.3,8.9,-0.3,8.9c0,0,0,0.5,-0.1,0.7c-0.2,0.2,-0.3,0.2,-0.4,0.3c-0.1,0.1,-0.5,0.3,-0.5,0.3c0,0,-0.1,0.1,-0.3,0" class="g8_1" />
<path d="M184.5,509.8l-0.2,9.2c0,0,0.2,1.3,1.2,1.9c1.1,0.6,7.9,4.6,7.9,4.6c0,0,0.1,0,0.2,0" class="g9_1" />
<path d="M185.4,509.9l-0.1,8.4c0,0,0.1,1.3,1.1,1.9c1.1,0.6,8.1,4.6,8.1,4.6c0,0,-0.1,0,0,0" class="g9_1" />
<path d="M173,512.6l-8.4,-4.8l0.2,-9.3L162,496.9c0,0,-1.6,-0.7,-3,0.1c-1.4,0.8,-10.6,6.2,-10.6,6.2" class="g8_1" />
<path d="M148.3,502.7l11,-6.4c0,0,1.5,-0.6,2.8,0.1c1.3,0.8,22.8,13.1,22.8,13.1" class="g9_1" />
<path d="M195.2,515.5l1.3,0.7c0,0,0.6,0.4,0.6,0.9" class="g9_1" />
<path d="M173,512.6c0.1,0,0.2,0,0.2,-0.2c0,-0.2,0.3,-8.9,0.3,-8.9" class="g9_1" />
<path d="M172.7,512.4l0,-9.2l-7.9,-4.5" class="g8_1" />
<path d="M170.1,509.4c-1.1,0.5,-2.6,-0.7,-3.4,-2.5c-0.8,-1.9,-0.6,-3.8,0.5,-4.3" class="g8_1" />
<path d="M167.2,502.6c1.1,-0.5,2.6,0.6,3.4,2.5c0.8,1.9,0.5,3.8,-0.5,4.3" class="g9_1" />
<path d="M167.7,508.4c0.5,-0.3,0.9,-0.9,0.9,-1.5c0,-0.8,-0.7,-1.5,-1.5,-1.5c-0.1,0,-0.3,0,-0.4,0.1c-0.1,0,-0.4,0.1,-0.4,0.1" class="g8_1" />
<path d="M172.9,503.8l0,1.1l-0.2,0.1" class="g8_1" />
<path d="M172.5,504.5l0,-1" class="g9_1" />
<path d="M172.7,503.3l0.1,0l0.6,0.3" class="g9_1" />
<path d="M160.5,491.5l0,4" class="g9_1" />
<path d="M160.5,497.5l0,11" class="g9_1" />
<path d="M195.7,528.8c-1.1,-0.6,-34,-19.5,-34,-19.5c0,0,-1,-0.6,-2.1,0c-1.1,0.7,-30.9,17.9,-30.9,17.9" class="g9_1" />
<path fill-rule="evenodd" d="M350.2,608.8c1,0,1.9,0.9,1.9,1.9c0,1,-0.9,1.9,-1.9,1.9c-1,0,-1.9,-0.9,-1.9,-1.9c0,-1,0.9,-1.9,1.9,-1.9Z" class="g16_1" />
<path d="M368.5,625.2l-5.1,0L350.2,610.7" class="g9_1" />
<path fill-rule="evenodd" d="M378,482c-1.1,0,-1.9,-0.8,-1.9,-1.9c0,-1,0.8,-1.8,1.9,-1.8c1,0,1.8,0.8,1.8,1.8c0,1.1,-0.8,1.9,-1.8,1.9Z" class="g16_1" />
<path d="M355.1,448.7l5.1,0L378,480.1" class="g9_1" />
<path d="M359.7,499.7l0.6,14.1L373,506.2l0,-14.4" class="g9_1" />
<path d="M374.4,492.4L373,491.8l-13.3,7.9l0.6,14.1l1.4,0.6" class="g8_1" />
<path d="M373,506.2l1.4,0.6" class="g9_1" />
<path d="M149.4,598.5l6.9,-3.6c0,0,2.6,-1.7,5.9,0.3c3.2,1.9,33,19.6,33,19.6c0,0,2.3,1,2.4,3.4c0.2,2.4,0.6,10.2,0.6,10.2l-0.3,7.3c0,0,-0.2,2.6,-2.9,4c-2.7,1.5,-26.4,14.1,-26.4,14.1c0,0,-2.8,1.2,-4.9,0C161.5,652.7,129.8,634,129.8,634c0,0,-2.5,-1,-2.6,-4.2c-0.2,-3.2,-0.4,-6.9,-0.4,-6.9l0.7,-10.3c0,0,0.5,-2.4,2.2,-3.4c1.8,-1,2.8,-1.5,2.8,-1.5" class="g8_1" />
<path d="M137.4,614.1l3,-1.5l0,-3.8" class="g8_1" />
<path d="M137.4,614.1l0,-3.8l3,-1.5l-3,1.5l3,1.8" class="g9_1" />
<path d="M140.8,616.6l2.9,-1.5l0,-3.8" class="g8_1" />
<path d="M140.8,616.6l0,-3.8l2.9,-1.5l-2.9,1.5l2.9,1.8" class="g9_1" />
<path d="M144.1,614.9l2.9,-1.6l0,-3.8" class="g8_1" />
<path d="M144.1,614.9l0,-3.8l2.9,-1.6l-2.9,1.6l2.9,1.7" class="g9_1" />
<path d="M144.1,610.6L147,609l0,-2.9l-0.7,-0.5" class="g8_1" />
<path d="M144.1,610.6l0,-2.8l0.7,-1.4l1.5,-0.8l-1.5,0.8l2.2,1.3l-2.2,-1.3l-0.7,1.4l2.5,1.5" class="g9_1" />
<path d="M140.8,612.3l2.9,-1.5l0,-2.9L143,607.3" class="g8_1" />
<path d="M140.8,612.3l0,-2.8l0.7,-1.4l1.5,-0.8l-1.5,0.8l2.2,1.4l-2.2,-1.4l-0.7,1.4l2.5,1.5" class="g9_1" />
<path d="M137.5,618.4l2.9,-1.6l0,-2.9l-0.7,-0.5" class="g8_1" />
<path d="M137.5,618.4l0,-2.8l0.7,-1.4l1.5,-0.8l-1.5,0.8l2.2,1.3l-2.2,-1.3l-0.7,1.4L140,617" class="g9_1" />
<path d="M140.4,621.8l3.4,-1.8l0.4,-4.6l3.1,-1.6c0,0,0.5,-0.2,0.5,-1c0,-0.7,0,-2.5,0,-2.5l0.1,-6.6c0,0,0.1,-0.4,-0.2,-0.4" class="g8_1" />
<path d="M147.7,603.3c-0.1,0,-0.1,0.1,-0.2,0.1c-0.1,0,-10.7,5.8,-10.7,5.8c0,0,-0.4,0.2,-0.4,0.7c-0.1,0.5,-0.4,6.8,-0.4,6.8l0.1,2.6c0,0,0,0.3,0.2,0.3" class="g9_1" />
<path d="M136.3,619.6c0.1,0,0.3,-0.1,0.4,-0.1c0.1,-0.1,3,-1.7,3,-1.7l1.4,0.8l0.5,2.6" class="g8_1" />
<path d="M140.9,617.2l1.5,2.3l0.8,0.4l0.7,-0.4" class="g8_1" />
<path d="M141.3,619.7l1.5,0.9" class="g9_1" />
<path d="M139.7,617.8l0.7,4" class="g9_1" />
<path d="M139.7,617.8l4.5,-2.4" class="g9_1" />
<path d="M142.4,619.5l1.5,-0.9l0.2,-2.1l-0.5,-0.8l0.6,0.4" class="g9_1" />
<path d="M137.1,619.2c-0.2,0,-0.3,-0.1,-0.3,-0.4c0,-0.2,0,-6.4,0,-6.4" class="g8_1" />
<path d="M136.8,612.6c-0.1,-0.1,-0.3,-0.2,-0.3,-0.5c0,-0.2,0.1,-0.4,0.3,-0.5" class="g8_1" />
<path d="M136.8,611.6l0,-1.5c0,0,0.1,-0.5,0.6,-0.8c0.5,-0.2,9.9,-5.3,9.9,-5.3c0,0,0.1,0,0.3,0.1c0.2,0.1,0.3,0.2,0.3,0.2" class="g8_1" />
<path d="M147.6,604.1c0.1,0,0.1,0.2,0.1,0.3c0,0.2,0,8.4,0,8.4c0,0,0,1,-0.9,1.3" class="g9_1" />
<path d="M131,621l0.1,2.6Z" class="g9_1" />
<path d="M132.5,620.3L131,621l0.9,0.6" class="g9_1" />
<path d="M131.1,623.6l1.4,-0.8l0,-2.5" class="g8_1" />
<path d="M131.5,621.5l0,2" class="g9_1" />
<path d="M131.7,621.7l0.8,-0.5" class="g8_1" />
<path d="M131.6,623.1l0.9,-0.4" class="g9_1" />
<path d="M151.5,610.1l0,2.5Z" class="g9_1" />
<path d="M152.9,609.3l-1.4,0.8l0.8,0.6" class="g9_1" />
<path d="M151.5,612.6l1.4,-0.7l0,-2.5" class="g8_1" />
<path d="M152.5,610.5l0,2" class="g9_1" />
<path d="M152.1,610.8l0.8,-0.5" class="g8_1" />
<path d="M152.1,612.2l0.8,-0.5" class="g9_1" />
<path d="M126.8,623.2c0.1,-0.9,0.7,-2,1.8,-2.6c1.1,-0.6,7.4,-3.9,7.4,-3.9l0.6,0.4l0.1,1.2l0.1,0" class="g9_1" />
<path d="M147.8,610.3c0,0,4.5,-2.4,7.4,-4c2.9,-1.6,6.2,-0.8,7.7,0.1c1.5,0.9,11,6.5,11,6.5" class="g9_1" />
<path d="M181.4,619.4l0,-1.2l0.7,-0.4l3.2,1.9" class="g9_1" />
<path d="M192.8,626.2l0,-1.3l0.7,-0.4l3.2,1.9c0,0,1.5,0.7,1.5,2.4" class="g9_1" />
<path d="M128.7,631.1L156,616.2c0,0,2.6,-1.6,5.8,0.1c3.3,1.6,34.7,20.6,34.7,20.6" class="g9_1" />
<path d="M159.1,614.4l0.1,-7.9" class="g9_1" />
<path d="M159.1,603.6l0.1,-7.8" class="g9_1" />
<path d="M135.5,609.5c-0.2,-0.2,-0.3,-0.4,-0.4,-0.9c0,-0.6,0,-2.8,0,-2.8c0,0,0.1,-0.5,-0.3,-0.7c-0.3,-0.2,-3.8,-2.4,-4,-2.6c-0.3,-0.2,-1,-0.5,-0.8,0.6" class="g9_1" />
<path d="M135.3,605.1l10.4,-5.2" class="g9_1" />
<path d="M143.2,596c0.2,-0.1,0.4,-0.1,0.5,0.1c0.2,0.3,3.8,6.3,3.8,6.3c0,0,0.4,0.7,0.9,1" class="g8_1" />
<path d="M148.4,603.4c0.1,0.1,0.3,0.2,0.3,0.2" class="g8_1" />
<path d="M148.7,603.6l0.8,-0.4l0.1,-2.6" class="g9_1" />
<path d="M149.6,600.6c-0.1,-0.5,-0.1,-1.1,-0.1,-1.4c0,-0.3,0,-1.9,-1.3,-2.7c-1.4,-0.8,-4.6,-2.7,-4.6,-2.7c0,0,-0.8,-0.3,-1.4,0c-0.7,0.4,-12.4,6.7,-12.4,6.7c0,0,-0.6,0.3,-0.6,0.8" class="g8_1" />
<path d="M129.6,602.5c0,-0.5,0.7,-0.9,0.7,-0.9c0,0,11.2,-6,11.9,-6.4c0.6,-0.3,1.2,-0.1,1.4,0c0.2,0.1,0.4,0.2,0.6,0.5c0.3,0.3,3,3.5,3,3.5l1,2.7c0,0,0.5,1.1,1.3,1.3" class="g9_1" />
<path d="M147.4,599.3l2,1.3" class="g9_1" />
<path d="M137,600.3c0,-0.6,0.9,-1.1,2.1,-1.1c1.1,0,2.1,0.5,2.1,1.1" class="g8_1" />
<path d="M141.2,600.3c0,0.6,-1,1.2,-2.1,1.2c-1.2,0,-2.1,-0.6,-2.1,-1.2" class="g9_1" />
<path d="M140.7,599.6c-0.4,0.2,-1,0.4,-1.6,0.4c-0.6,0,-1.2,-0.2,-1.6,-0.4" class="g8_1" />
<path d="M134.7,611.2c-0.8,-0.4,-1.1,-1.1,-1.5,-1.7c-0.3,-0.6,-3,-6.2,-3.2,-6.4c-0.1,-0.2,-0.3,-0.4,-0.5,-0.7c-0.2,-0.3,-0.3,-0.3,-0.3,-1.1" class="g8_1" />
<path d="M134.7,611.2c0.1,0,0.6,-0.4,0.6,-0.4c0,0,0.3,-0.1,0.3,-0.5c0,-0.3,0,-0.5,0,-0.5c0,0,0,-0.3,0.3,-0.4c0.2,-0.2,12,-6.5,12,-6.5" class="g9_1" />
<path d="M135.3,610.5c-0.8,-0.4,-1.1,-1.1,-1.4,-1.7c-0.3,-0.5,-2.3,-4.6,-3,-5.9" class="g9_1" />
<path d="M173.8,605.5c-0.1,0.1,-0.1,0.1,-0.1,0.3c0,0.2,0.2,7.1,0.2,7.1l-0.1,1.6c0,0,0,0.5,0.5,0.8c0.4,0.3,7.4,4.4,7.4,4.4c0,0,0.1,0,0.2,-0.1" class="g8_1" />
<path d="M180.7,619.1l-0.4,-7.8c0,0,0,-0.5,-0.5,-0.8c-0.5,-0.2,-6.1,-3.5,-6.1,-3.5" class="g8_1" />
<path d="M173.7,607.3l6.5,3.8l0,7.7" class="g8_1" />
<path d="M173.8,605.5c0.1,0,0.2,0,0.3,0.1c0.1,0.1,7.2,4.2,7.2,4.2c0,0,0.4,0.3,0.4,0.8c0.1,0.6,0.4,7.2,0.4,7.2l0,1.5c0,0,0,0.3,-0.2,0.3" class="g9_1" />
<path d="M175.1,615.8c-0.2,-0.4,-0.3,-0.7,-0.5,-1.1c-0.9,-2,-0.6,-3.8,0.5,-4.2" class="g8_1" />
<path d="M175.1,610.5c1.1,-0.5,2.6,0.7,3.3,2.6c0.8,2,0.6,3.9,-0.5,4.3" class="g9_1" />
<path d="M174.3,613.5c0.1,-0.1,0.4,-0.2,0.6,-0.2c0.8,0,1.4,0.7,1.4,1.4c0,0.6,-0.3,1.1,-0.8,1.3" class="g8_1" />
<path d="M185.2,612.3c-0.1,0.1,-0.1,0.1,-0.1,0.3c0,0.2,0.2,7.1,0.2,7.1l-0.1,1.6c0,0,0,0.5,0.5,0.7c0.4,0.3,7.4,4.4,7.4,4.4c0,0,0.1,0.1,0.2,0" class="g8_1" />
<path d="M192.1,625.8l-0.4,-7.7c0,0,0,-0.5,-0.5,-0.8c-0.5,-0.3,-6.1,-3.6,-6.1,-3.6" class="g8_1" />
<path d="M185.1,614l6.6,3.9l0,7.6" class="g8_1" />
<path d="M185.2,612.3c0.1,-0.1,0.2,0,0.3,0c0.1,0.1,7.2,4.3,7.2,4.3c0,0,0.4,0.2,0.4,0.8c0.1,0.6,0.4,7.1,0.4,7.1l0,1.6c0,0,0,0.2,-0.2,0.3" class="g9_1" />
<path d="M186.6,622.5c-0.2,-0.3,-0.4,-0.7,-0.6,-1c-0.9,-2.1,-0.5,-3.8,0.5,-4.3" class="g8_1" />
<path d="M186.5,617.2c1.1,-0.4,2.6,0.8,3.3,2.7c0.8,1.9,0.6,3.8,-0.5,4.3" class="g9_1" />
<path d="M185.7,620.2c0.2,-0.1,0.4,-0.1,0.6,-0.1c0.8,0,1.4,0.6,1.4,1.4c0,0.5,-0.3,1,-0.8,1.3" class="g8_1" />
<path fill-rule="evenodd" d="M528,356.8l301.8,0c0.7,0,1.3,0.6,1.3,1.3l0,265.2c0,0.6,-0.6,1.2,-1.3,1.2l-301.8,0c-0.7,0,-1.2,-0.6,-1.2,-1.2l0,-265.2c0,-0.7,0.5,-1.3,1.2,-1.3Z" class="g17_1" />
<path d="M527.5,357.5l26,0l0,26l-26,0Z" class="g9_1" />
<path d="M527.5,357.5l15,0l0,15l-15,0Z" class="g9_1" />
<path d="M527.5,623.5l26,0l0,-26l-26,0Z" class="g9_1" />
<path d="M527.5,623.5l15,0l0,-15l-15,0Z" class="g9_1" />
<path d="M830.5,357.5l-26,0l0,26l26,0Z" class="g9_1" />
<path d="M830.5,357.5l-15,0l0,15l15,0Z" class="g9_1" />
<path d="M830.5,623.5l-26,0l0,-26l26,0Z" class="g9_1" />
<path d="M830.5,623.5l-15,0l0,-15l15,0Z" class="g9_1" />
<path fill-rule="evenodd" d="M530,405l0,-17l17,0l0,17Z" class="g18_1" />
<path fill-rule="evenodd" d="M535,388l0,-4l6,0l0,4Z" class="g18_1" />
<path fill-rule="evenodd" d="M535,409l0,-4l6,0l0,4Z" class="g18_1" />
<path fill-rule="evenodd" d="M530,593l0,-17l17,0l0,17Z" class="g18_1" />
<path fill-rule="evenodd" d="M535,576l0,-4l6,0l0,4Z" class="g18_1" />
<path fill-rule="evenodd" d="M535,596l0,-3l6,0l0,3Z" class="g18_1" />
<path fill-rule="evenodd" d="M811,593l0,-17l17,0l0,17Z" class="g18_1" />
<path fill-rule="evenodd" d="M817,576l0,-4l5,0l0,4Z" class="g18_1" />
<path fill-rule="evenodd" d="M817,596l0,-3l5,0l0,3Z" class="g18_1" />
<path fill-rule="evenodd" d="M575,621l-17,0l0,-17l17,0Z" class="g18_1" />
<path fill-rule="evenodd" d="M558,616l-4,0l0,-6l4,0Z" class="g18_1" />
<path fill-rule="evenodd" d="M579,616l-4,0l0,-6l4,0Z" class="g18_1" />
<path fill-rule="evenodd" d="M799,621l-17,0l0,-17l17,0Z" class="g18_1" />
<path fill-rule="evenodd" d="M782,616l-3,0l0,-6l3,0Z" class="g18_1" />
<path fill-rule="evenodd" d="M803,616l-4,0l0,-6l4,0Z" class="g18_1" />
<path fill-rule="evenodd" d="M575,376l-17,0l0,-17l17,0Z" class="g18_1" />
<path fill-rule="evenodd" d="M558,371l-4,0l0,-6l4,0Z" class="g18_1" />
<path fill-rule="evenodd" d="M579,371l-4,0l0,-6l4,0Z" class="g18_1" />
<path fill-rule="evenodd" d="M614,487l0,6l4,0l0,6l17,0l0,-6l3,0l0,-6l-3,0l0,-5l-17,0l0,5Z" class="g19_1" />
<path d="M618,482l17,0l0,17l-17,0Z" class="g8_1" />
<path d="M635,487l3,0l0,6l-3,0Z" class="g8_1" />
<path d="M637,490.4c0.3,0,0.5,0.2,0.5,0.5c0,0.3,-0.2,0.5,-0.5,0.5c-0.3,0,-0.6,-0.2,-0.6,-0.5c0,-0.3,0.3,-0.5,0.6,-0.5Z" class="g8_1" />
<path d="M614,487l4,0l0,6l-4,0Z" class="g8_1" />
<path d="M616.4,490.4c0.3,0,0.5,0.2,0.5,0.5c0,0.3,-0.2,0.5,-0.5,0.5c-0.3,0,-0.5,-0.2,-0.5,-0.5c0,-0.3,0.2,-0.5,0.5,-0.5Z" class="g8_1" />
<path fill-rule="evenodd" d="M711,487l0,6l3,0l0,6l17,0l0,-6l4,0l0,-6l-4,0l0,-5l-16,0l0,5Z" class="g19_1" />
<path d="M714,482l17,0l0,17l-17,0Z" class="g8_1" />
<path d="M731,487l4,0l0,6l-4,0Z" class="g8_1" />
<path d="M733.7,490.4c0.3,0,0.5,0.2,0.5,0.5c0,0.3,-0.2,0.5,-0.5,0.5c-0.3,0,-0.6,-0.2,-0.6,-0.5c0,-0.3,0.3,-0.5,0.6,-0.5Z" class="g8_1" />
<path d="M711,487l3,0l0,6l-3,0Z" class="g8_1" />
<path d="M713.1,490.4c0.3,0,0.5,0.2,0.5,0.5c0,0.3,-0.2,0.5,-0.5,0.5c-0.3,0,-0.5,-0.2,-0.5,-0.5c0,-0.3,0.2,-0.5,0.5,-0.5Z" class="g8_1" />
<path fill-rule="evenodd" d="M575.5,375.2c1,0,1.8,0.8,1.8,1.8c0,1.1,-0.8,1.9,-1.8,1.9c-1.1,0,-1.9,-0.8,-1.9,-1.9c0,-1,0.8,-1.8,1.9,-1.8Z" class="g16_1" />
<path fill-rule="evenodd" d="M714.1,483.2c-1,0,-1.8,-0.8,-1.8,-1.9c0,-1,0.8,-1.8,1.8,-1.8c1.1,0,1.9,0.8,1.9,1.8c0,1.1,-0.8,1.9,-1.9,1.9Z" class="g16_1" />
<path d="M695,450.6l5,0l14.1,30.7" class="g9_1" />
<path d="M596.2,397.1l-5,0L575.5,377" class="g9_1" />
<path fill-rule="evenodd" d="M636.1,483.2c1,0,1.8,-0.8,1.8,-1.9c0,-1,-0.8,-1.8,-1.8,-1.8c-1.1,0,-1.9,0.8,-1.9,1.8c0,1.1,0.8,1.9,1.9,1.9Z" class="g16_1" />
<path d="M656.1,450.6l-5,0l-15,30.7" class="g9_1" />
<path d="M276,586l0,82" class="g8_1" />
<path fill-rule="evenodd" d="M828,388l0,17l-17,0l0,-17Z" class="g18_1" />
<path fill-rule="evenodd" d="M823,405l0,4l-6,0l0,-4Z" class="g18_1" />
<path fill-rule="evenodd" d="M823,384l0,4l-6,0l0,-4Z" class="g18_1" />
<path fill-rule="evenodd" d="M781,359l17,0l0,17l-17,0Z" class="g18_1" />
<path fill-rule="evenodd" d="M798,364l4,0l0,6l-4,0Z" class="g18_1" />
<path fill-rule="evenodd" d="M778,364l3,0l0,6l-3,0Z" class="g18_1" />
<path fill-rule="evenodd" d="M451.7,483.5c1,0,1.9,0.9,1.9,1.9c0,1.1,-0.9,1.9,-1.9,1.9c-1,0,-1.9,-0.8,-1.9,-1.9c0,-1,0.9,-1.9,1.9,-1.9Z" class="g16_1" />
<path d="M469.9,499.9l-5,0L451.7,485.4" class="g9_1" />
<path d="M624.6,1023.7c0.2,-0.2,0.4,-0.4,0.7,-0.6c0.9,-0.5,5.2,-2.9,5.2,-2.9" class="g9_1" />
<path d="M624.2,1028.2c-0.1,-0.2,-0.1,-0.4,0,-0.6c0,-0.2,0.1,-3,0.1,-3c0,0,0.1,-0.4,0.3,-0.9" class="g8_1" />
<path d="M624.1,1027.9c0.1,-0.3,0.2,-0.5,0.6,-0.7c0.3,-0.2,7,-4,7,-4" class="g9_1" />
<path d="M681.4,1030.9c0,0,0,-0.5,-0.5,-0.8c-0.5,-0.3,-1.1,-0.6,-1.1,-0.6" class="g9_1" />
<path d="M624.2,1028.5c0,0.6,0.4,8.3,0.4,8.3c0,0,0,1.1,0.8,1.6c0.9,0.6,27.8,16.5,27.8,16.5c0,0,0.9,0.6,2,0c1,-0.6,24.8,-14,24.8,-14c0,0,0.8,-0.3,0.9,-1.5c0.2,-1.3,0.5,-8.5,0.5,-8.5" class="g8_1" />
<path d="M631.9,1023.6l-7.2,4.1c0,0,-0.5,0.2,-0.5,0.8" class="g9_1" />
<path d="M680.9,1026.2c-0.1,-0.3,-0.4,-0.5,-0.7,-0.7c-0.9,-0.5,-27.9,-16.7,-27.9,-16.7c0,0,-0.9,-0.6,-1.8,0c-0.9,0.5,-9.6,5.4,-9.6,5.4" class="g9_1" />
<path d="M681.3,1030.6c0.1,-0.2,0.1,-0.3,0.1,-0.5c0,-0.2,-0.2,-3.1,-0.2,-3.1c0,0,-0.1,-0.4,-0.3,-0.8" class="g8_1" />
<path d="M636,1012.2l3.2,6.9c0,0,0.3,0.6,0.9,1.1" class="g8_1" />
<path d="M640.1,1020.2l0.6,0.3" class="g8_1" />
<path d="M640.9,1014.1c0.1,0.8,0.4,3.9,0.4,3.9l0.1,0.1" class="g9_1" />
<path d="M628.5,1014c0,0,0.1,-0.3,0.3,-0.4c0.2,-0.1,6,-3.4,6,-3.4c0,0,0.6,-0.2,1.1,0c0.4,0.3,4.1,2.5,4.1,2.5c0,0,0.8,0.6,0.9,1.4" class="g9_1" />
<path d="M633.4,1025c0,-0.1,0,-0.2,-0.2,-0.3c-0.2,-0.1,-0.6,-0.3,-0.6,-0.3c0,0,-0.4,-0.3,-0.8,-1c-0.3,-0.8,-1,-2.1,-1,-2.1L629,1016c0,0,-0.1,-0.2,-0.3,-0.3c-0.1,0,-0.4,-0.2,-0.4,-0.4c0.1,-0.3,0.2,-1.3,0.2,-1.3" class="g8_1" />
<path d="M628.3,1015.3c0,-0.2,0.2,-0.3,0.4,-0.5c0.2,-0.1,6,-3.4,6,-3.4c0,0,0.4,-0.1,0.7,-0.1c0.2,0,0.4,0,0.6,0.1c0.1,0.1,0.2,0.2,0.2,0.2c0,0,0.1,0,0.2,0.2c0.1,0.1,2.5,4.7,2.5,4.7l0.9,2.2c0.1,0.1,0.4,0.9,0.9,1.1c0.4,0.3,0.5,0.4,0.5,0.4c0,0,0.2,0.1,0.2,0.3" class="g9_1" />
<path d="M641.5,1020.5l0,-2" class="g9_1" />
<path d="M637.5,1015.5l-3.9,2.3c0,0,-0.2,0.1,-0.4,0c-0.2,-0.1,-3.5,-2.1,-3.6,-2.1c-0.1,-0.1,-0.3,-0.1,-0.5,0.1c-0.2,0.1,-0.3,0,-0.4,-0.1" class="g9_1" />
<path d="M629.5,1015.8l2.1,5.1l1.1,2.4c0,0,0.3,0.7,0.9,0.8" class="g9_1" />
<path d="M633.4,1018l-0.2,4.5c0,0,0,0.8,0.7,1.2" class="g9_1" />
<path d="M633.8,1023.2l5.8,-3.2" class="g9_1" />
<path d="M636,1012.2c-0.1,-0.1,0.1,-0.2,0.2,-0.3c0,-0.1,0.2,-0.2,0,-0.3" class="g9_1" />
<path d="M632,1014.7c0,-0.8,1,-1.4,2.2,-1.3c1.3,0,2.3,0.6,2.3,1.4" class="g9_1" />
<path d="M661.5,1019l0.5,-0.3l9,5.4l0.3,-0.2c0,0,0.3,-0.1,0.6,0c0.3,0.2,7.8,4.7,7.8,4.7c0,0,0.1,0.1,0.1,0.2c0,0.1,-0.2,7.4,-0.2,7.4c0,0,0,0.3,-0.2,0.5c-0.1,0.2,-0.1,0.2,-0.2,0.3c-0.1,0,-0.5,0.2,-0.5,0.2c0,0,-0.1,0,-0.3,0" class="g9_1" />
<path d="M671,1024.1l-0.1,7.6c0,0,0.1,1.1,0.9,1.6c0.9,0.5,6.5,3.9,6.5,3.9c0,0,0.1,0,0.1,0" class="g9_1" />
<path d="M671.7,1024.2l-0.1,6.9c0,0,0.1,1.1,1,1.6c0.9,0.6,6.6,4,6.6,4c0,0,-0.1,-0.1,0,0" class="g9_1" />
<path d="M661.6,1026.2l-6.9,-4.1l0.1,-7.7l-2.2,-1.3c0,0,-1.4,-0.7,-2.5,0c-1.2,0.6,-8.7,4.9,-8.7,4.9" class="g9_1" />
<path d="M641.3,1017.6l9,-5.1c0,0,1.2,-0.4,2.3,0.2c1.1,0.6,18.7,11.2,18.7,11.2" class="g9_1" />
<path d="M679.8,1029l1.1,0.6c0,0,0.5,0.4,0.5,0.7" class="g9_1" />
<path d="M661.6,1026.2c0,0,0.1,0,0.1,-0.2c0,-0.1,0.3,-7.3,0.3,-7.3" class="g9_1" />
<path d="M661.3,1026l0,-7.5l-6.5,-3.9" class="g9_1" />
<path d="M659.2,1023.5c-0.9,0.4,-2.2,-0.6,-2.8,-2.1c-0.7,-1.6,-0.5,-3.2,0.4,-3.5" class="g9_1" />
<path d="M656.8,1017.9c0.9,-0.4,2.1,0.5,2.8,2.1c0.6,1.5,0.4,3.1,-0.4,3.5" class="g9_1" />
<path d="M657.2,1022.6c0.4,-0.2,0.7,-0.6,0.7,-1.1c0,-0.7,-0.5,-1.3,-1.2,-1.3c-0.1,0,-0.2,0,-0.3,0c-0.1,0.1,-0.3,0.1,-0.3,0.1" class="g9_1" />
<path d="M661.5,1019l0,0.8l-0.2,0.1" class="g9_1" />
<path d="M661.5,1019.5l0,-1" class="g9_1" />
<path d="M661.3,1018.6l0.1,-0.1l0.4,0.3" class="g9_1" />
<path d="M651.5,1008.5l0,3" class="g9_1" />
<path d="M651.5,1013.5l0,9" class="g9_1" />
<path d="M680.2,1040c-0.9,-0.5,-27.9,-16.7,-27.9,-16.7c0,0,-0.9,-0.6,-1.8,-0.1c-0.9,0.6,-25.4,14.1,-25.4,14.1" class="g9_1" />
<path d="M632,1015.3c0,-0.7,1,-1.3,2.2,-1.2c1.3,0,2.3,0.6,2.3,1.3" class="g9_1" />
<path d="M636.5,1015.4c0,0.8,-1,1.4,-2.3,1.3c-1.2,0,-2.2,-0.6,-2.2,-1.4" class="g9_1" />
<path d="M633.4,1015.5c0.4,0.6,1.5,1.2,2,1.1" class="g9_1" />
<path d="M635.4,1015.5c-0.4,0.6,-1.5,1.2,-2,1.1" class="g9_1" />
<path d="M558.5,811c0.3,-0.5,0.7,-1,1.2,-1.3c1.4,-0.8,2.3,-1.2,2.3,-1.2" class="g9_1" />
<path d="M616.2,815.9c0.2,0.4,0.3,0.7,0.4,1.4c0.3,2.5,0.5,8.6,0.5,8.6l-0.3,6.1c0,0,-0.1,2.1,-2.4,3.3c-2.3,1.3,-22.2,11.8,-22.2,11.8c0,0,-2.2,1,-4.1,0c-1.8,-0.9,-28.3,-16.5,-28.3,-16.5c0,0,-2.1,-0.9,-2.2,-3.6c-0.2,-2.7,-0.3,-5.7,-0.3,-5.7l0.5,-8.7c0,0,0.2,-0.8,0.7,-1.6" class="g8_1" />
<path d="M576.2,800.8l5.7,-3c0,0,2.3,-1.4,5,0.2c2.7,1.6,27.5,16.3,27.7,16.4c0.6,0.4,1,0.7,1.5,1.3" class="g9_1" />
<path d="M566.2,813.9l2.4,-1.3l0,-3.2" class="g9_1" />
<path d="M566.2,813.9l0,-3.2l2.4,-1.3l-2.4,1.3l2.4,1.5" class="g9_1" />
<path d="M569,816l2.4,-1.3l0,-3.2" class="g9_1" />
<path d="M569,816l0,-3.2l2.4,-1.3l-2.4,1.3l2.4,1.5" class="g9_1" />
<path d="M571.7,814.5l2.5,-1.3l0,-3.2" class="g9_1" />
<path d="M571.7,814.5l0,-3.2l2.5,-1.3l-2.5,1.3l2.5,1.5" class="g9_1" />
<path d="M571.7,810.9l2.5,-1.3l0,-2.4l-0.6,-0.5" class="g9_1" />
<path d="M571.7,810.9l0,-2.3l0.6,-1.2l1.3,-0.7l-1.3,0.7l1.9,1.1l-1.9,-1.1l-0.6,1.2l2.1,1.2" class="g9_1" />
<path d="M569,812.4l2.4,-1.3l0,-2.4l-0.6,-0.5" class="g9_1" />
<path d="M569,812.4l0,-2.4l0.6,-1.1l1.2,-0.7l-1.2,0.7l1.8,1.1l-1.8,-1.1L569,810l2.1,1.3" class="g9_1" />
<path d="M566.2,817.4l2.5,-1.3l0,-2.4l-0.6,-0.5" class="g9_1" />
<path d="M566.2,817.4l0,-2.3l0.6,-1.2l1.3,-0.7l-1.3,0.7l1.9,1.2l-1.9,-1.2l-0.6,1.2l2.1,1.2" class="g9_1" />
<path d="M568.7,820.3l2.8,-1.5l0.3,-3.9l2.6,-1.3c0,0,0.5,-0.2,0.5,-0.8c-0.1,-0.6,-0.1,-2.1,-0.1,-2.1l0.2,-5.6c0,0,0,-0.3,-0.2,-0.3" class="g9_1" />
<path d="M574.8,804.8c-0.1,0,-0.1,0.1,-0.2,0.1c-0.1,0,-9,4.8,-9,4.8c0,0,-0.3,0.2,-0.3,0.6c-0.1,0.5,-0.4,5.7,-0.4,5.7l0.1,2.2c0,0,0.1,0.3,0.2,0.3" class="g9_1" />
<path d="M565.2,818.5c0.1,0,0.2,-0.1,0.3,-0.1c0.1,-0.1,2.5,-1.4,2.5,-1.4l1.2,0.7l0.4,2.1" class="g9_1" />
<path d="M569.1,816.5l1.2,1.9l0.7,0.3l0.5,-0.3" class="g9_1" />
<path d="M569.4,818.6l1.2,0.7" class="g9_1" />
<path d="M568,817l0.7,3.3" class="g9_1" />
<path d="M568,817l3.8,-2.1" class="g9_1" />
<path d="M570.3,818.4l1.3,-0.7l0.2,-1.8l-0.5,-0.7l0.5,0.3" class="g9_1" />
<path d="M565.9,818.2c-0.2,-0.1,-0.3,-0.1,-0.3,-0.4c0,-0.2,0,-5.4,0,-5.4" class="g9_1" />
<path d="M565.6,812.6c0,-0.1,-0.2,-0.2,-0.2,-0.4c0,-0.2,0.1,-0.4,0.3,-0.5" class="g9_1" />
<path d="M565.7,811.7l0,-1.2c0,0,0,-0.4,0.4,-0.6c0.4,-0.2,8.3,-4.5,8.3,-4.5c0,0,0.1,0,0.3,0.1c0.1,0,0.2,0.1,0.2,0.1" class="g9_1" />
<path d="M574.7,805.5c0,0,0,0.1,0,0.3c0,0.1,0,7,0,7c0,0,0.1,0.8,-0.7,1" class="g9_1" />
<path d="M560.8,819.7l0,2.1Z" class="g9_1" />
<path d="M562,819l-1.2,0.7l0.7,0.4" class="g9_1" />
<path d="M560.8,821.8l1.2,-0.6l0,-2.1" class="g9_1" />
<path d="M561.5,819.5l0,2" class="g9_1" />
<path d="M561.3,820.2l0.7,-0.4" class="g9_1" />
<path d="M561.3,821.4L562,821" class="g9_1" />
<path d="M577.9,810.5l0.1,2.1Z" class="g9_1" />
<path d="M579.1,809.9l-1.2,0.6l0.7,0.5" class="g9_1" />
<path d="M578,812.6l1.1,-0.6l0,-2.1" class="g9_1" />
<path d="M578.5,810.5l0,2" class="g9_1" />
<path d="M578.5,811.1l0.6,-0.4" class="g9_1" />
<path d="M578.4,812.3l0.7,-0.4" class="g9_1" />
<path d="M557.3,821.5c0,-0.7,0.5,-1.7,1.4,-2.2c1,-0.5,6.2,-3.3,6.2,-3.3l0.6,0.3l0,1.1l0.1,0" class="g9_1" />
<path d="M574.8,810.7c0,0,3.8,-2,6.2,-3.3c2.4,-1.4,5.3,-0.7,6.5,0c1.2,0.8,9.2,5.5,9.2,5.5" class="g9_1" />
<path d="M603,818.3l0,-1l0.6,-0.3l2.6,1.5" class="g9_1" />
<path d="M612.5,824l0,-1.1l0.6,-0.3l2.7,1.6c0,0,1.3,0.6,1.3,2" class="g9_1" />
<path d="M558.9,828.1l22.8,-12.5c0,0,2.2,-1.3,4.9,0.1c2.7,1.4,29,17.3,29,17.3" class="g9_1" />
<path d="M584.3,814.1l0.1,-6.6" class="g9_1" />
<path d="M584.3,805.1l0.1,-6.6" class="g9_1" />
<path d="M564.5,810c-0.1,-0.2,-0.2,-0.4,-0.3,-0.8c0,-0.4,0,-2.3,0,-2.3c0,0,0.1,-0.4,-0.2,-0.6c-0.3,-0.1,-3.2,-2,-3.4,-2.1c-0.2,-0.2,-0.8,-0.5,-0.6,0.5" class="g9_1" />
<path d="M564.4,806.4l8.7,-4.4" class="g9_1" />
<path d="M571,798.7c0.1,-0.1,0.3,-0.1,0.4,0.1c0.2,0.2,3.1,5.3,3.1,5.3c0,0,0.4,0.6,0.8,0.8" class="g8_1" />
<path d="M575.3,804.9c0.1,0.1,0.3,0.2,0.3,0.2" class="g8_1" />
<path d="M575.6,805.1l0.6,-0.4l0.2,-2.1" class="g9_1" />
<path d="M576.4,802.6c-0.1,-0.4,-0.2,-0.9,-0.2,-1.2c0,-0.3,0.1,-1.6,-1,-2.3c-1.2,-0.6,-3.9,-2.2,-3.9,-2.2c0,0,-0.6,-0.3,-1.2,0c-0.6,0.3,-10.3,5.5,-10.3,5.5c0,0,-0.5,0.3,-0.5,0.7" class="g9_1" />
<path d="M559.6,804.1c0,-0.4,0.6,-0.7,0.6,-0.7c0,0,9.3,-5,9.9,-5.3c0.6,-0.4,1,-0.1,1.2,0c0.2,0.1,0.4,0.1,0.6,0.4c0.1,0.2,2.4,2.9,2.4,2.9l0.9,2.2c0,0,0.4,1,1,1.1" class="g9_1" />
<path d="M574.5,801.5l1.7,1.1" class="g9_1" />
<path d="M563.8,811.4c-0.6,-0.3,-0.9,-0.9,-1.2,-1.4c-0.2,-0.5,-2.5,-5.1,-2.6,-5.3c-0.2,-0.2,-0.3,-0.4,-0.5,-0.6c-0.2,-0.3,-0.2,-0.3,-0.2,-1" class="g8_1" />
<path d="M563.8,811.4c0.1,0.1,0.6,-0.3,0.6,-0.3c0,0,0.2,-0.1,0.2,-0.4c0,-0.3,0,-0.5,0,-0.5c0,0,0,-0.2,0.3,-0.3c0.2,-0.1,10,-5.4,10,-5.4" class="g9_1" />
<path d="M564.3,810.9c-0.6,-0.4,-0.9,-0.9,-1.1,-1.5c-0.3,-0.4,-1.9,-3.8,-2.5,-4.9" class="g9_1" />
<path d="M596.6,806.7c-0.1,0.1,-0.1,0.1,-0.1,0.2c0,0.2,0.2,6,0.2,6l-0.1,1.3c0,0,0,0.4,0.4,0.7c0.4,0.2,6.2,3.6,6.2,3.6c0,0,0.1,0.1,0.2,0" class="g9_1" />
<path d="M602.4,818L602,811.5c0,0,0,-0.4,-0.4,-0.6c-0.4,-0.2,-5.1,-3,-5.1,-3" class="g9_1" />
<path d="M596.6,808.1l5.4,3.3l0,6.4" class="g9_1" />
<path d="M596.6,806.7c0.1,0,0.2,0,0.3,0c0.1,0.1,6,3.6,6,3.6c0,0,0.3,0.2,0.4,0.7c0,0.4,0.3,6,0.3,6l-0.1,1.2c0,0,0,0.2,-0.1,0.3" class="g9_1" />
<path d="M597.7,815.3c-0.1,-0.3,-0.3,-0.6,-0.4,-0.9c-0.7,-1.7,-0.5,-3.2,0.4,-3.6" class="g9_1" />
<path d="M597.7,810.8c0.9,-0.3,2.1,0.7,2.8,2.3c0.7,1.6,0.5,3.2,-0.4,3.5" class="g9_1" />
<path d="M597,813.3c0.2,0,0.3,-0.1,0.5,-0.1c0.7,0,1.2,0.5,1.2,1.2c0,0.5,-0.3,0.9,-0.7,1.1" class="g9_1" />
<path d="M606.2,812.3c-0.1,0.1,-0.1,0.1,-0.1,0.3c0,0.2,0.1,5.9,0.1,5.9l0,1.4c0,0,0,0.4,0.4,0.6c0.4,0.2,6.2,3.7,6.2,3.7c0,0,0.1,0,0.2,-0.1" class="g9_1" />
<path d="M612,823.7l-0.4,-6.5c0,0,0,-0.4,-0.4,-0.7c-0.5,-0.2,-5.1,-2.9,-5.1,-2.9" class="g9_1" />
<path d="M606.1,813.8l5.5,3.2l0,6.4" class="g9_1" />
<path d="M606.2,812.3c0,0,0.1,0,0.2,0.1c0.1,0.1,6,3.5,6,3.5c0,0,0.4,0.2,0.4,0.7c0,0.5,0.3,6,0.3,6l0,1.3c0,0,0,0.2,-0.1,0.2" class="g9_1" />
<path d="M607.3,820.9c-0.2,-0.3,-0.3,-0.5,-0.5,-0.9c-0.7,-1.7,-0.4,-3.2,0.5,-3.5" class="g9_1" />
<path d="M607.3,816.5c0.9,-0.4,2.1,0.6,2.8,2.2c0.6,1.6,0.4,3.2,-0.5,3.6" class="g9_1" />
<path d="M606.6,819c0.1,-0.1,0.3,-0.1,0.5,-0.1c0.6,0,1.2,0.5,1.2,1.2c0,0.4,-0.3,0.8,-0.7,1" class="g9_1" />
<path d="M245.1,806.2l28.4,16.6" class="g8_1" />
<path d="M311.8,845.4L491.9,951.1" class="g8_1" />
<path d="M489.8,949.9l133.5,78.2" class="g8_1" />
<path d="M681.9,1034.9l68.2,-36.1" class="g9_1" />
<path d="M681.9,1040.3l69,-36.5" class="g9_1" />
<path d="M714.3,1033.6c0,-1.2,1.6,-2.2,3.7,-2.2c2,0,3.7,1,3.7,2.2" class="g9_1" />
<path d="M721.7,1033.6c0,1.2,-1.7,2.2,-3.7,2.2c-2.1,0,-3.7,-1,-3.7,-2.2c0,-1.2,0,-0.9,0,-0.9" class="g9_1" />
<path d="M714.3,1032.7c0,-1.2,1.6,-2.2,3.7,-2.2c2,0,3.7,1,3.7,2.2" class="g9_1" />
<path d="M716.7,1034c0.4,0.4,1.9,1.3,2.6,1.3" class="g9_1" />
<path d="M719.3,1034c-0.4,0.4,-2,1.3,-2.6,1.3" class="g9_1" />
<path d="M721.5,1033.5l0,-1" class="g9_1" />
<path d="M432,1012.2L307.3,939.4c0,0,-1.7,-2,-4.6,-0.3c-2.8,1.8,-57,30.4,-57,30.4" class="g9_1" />
<path d="M304.9,937.1c0,1.3,0,-13.3,0,-13.3" class="g9_1" />
<path d="M305,916.4c0,1.3,0,-13.3,0,-13.3" class="g9_1" />
<path d="M285.7,926.9l18,-9.4c0,0,1.7,-1.3,3.3,0.2c1.6,1.4,126.7,73.8,126.7,73.8c0,0,1.5,1.1,1,3" class="g9_1" />
<path d="M285.7,929l18,-9.3c0,0,1.7,-1.3,3.3,0.1c1.6,1.5,126.7,73.9,126.7,73.9c0,0,1.5,1.1,1,2.9" class="g9_1" />
<path d="M285.7,930.2l18,-9.4c0,0,1.7,-1.2,3.3,0.2c1.6,1.4,126.7,73.8,126.7,73.8c0,0,1.5,1.1,1,3" class="g9_1" />
<path d="M285.7,932.5l18,-9.4c0,0,1.7,-1.3,3.3,0.2c1.6,1.4,126.7,73.8,126.7,73.8c0,0,1.5,1.1,1,3" class="g9_1" />
<path d="M315.3,954.1c0,-1.1,-1.6,-1.9,-3.5,-1.9c-2,0,-3.6,0.8,-3.6,1.9" class="g9_1" />
<path d="M308.2,954.1c0,1.1,1.6,1.9,3.6,1.9c1.9,0,3.5,-0.8,3.5,-1.9" class="g9_1" />
<path d="M315.3,953.3c0,-1,-1.6,-1.9,-3.5,-1.9c-2,0,-3.6,0.9,-3.6,1.9" class="g9_1" />
<path d="M316.8,953.3c0,-1.5,-2.3,-2.7,-5,-2.7c-2.8,0,-5.1,1.2,-5.1,2.7" class="g9_1" />
<path d="M306.7,953.3c0,1.5,2.3,2.8,5.1,2.8c2.7,0,5,-1.3,5,-2.8" class="g9_1" />
<path d="M316.8,952.3c0,-1.5,-2.3,-2.8,-5,-2.8c-2.8,0,-5.1,1.3,-5.1,2.8" class="g9_1" />
<path d="M316.5,953.5l0,-1" class="g9_1" />
<path d="M306.5,953.5l0,-1" class="g9_1" />
<path d="M315.1,959.5l-33.5,18.2l80.9,47.1L395.8,1007Z" class="g9_1" />
<path d="M303.8,903.4l-36.2,19.4" class="g8_1" />
<path d="M303.8,903.4c0.8,-0.5,2,-0.4,2.6,0c0.6,0.4,125.8,73.7,125.8,73.7c0,0,1.5,0.4,1.5,2.3c0.1,1.9,1,15.1,1,15.1" class="g8_1" />
<path d="M434.8,995.6l-1.3,16.3c0,0,0,1.4,-1.5,1.9c-1.6,0.6,-58.4,31.3,-58.4,31.3c0,0,-0.8,0.4,-2,-0.3c-1.3,-0.7,-126.5,-73.7,-126.5,-73.7c0,0,-1,-0.7,-1.1,-2C243.9,967.8,243,952,243,952" class="g8_1" />
<path d="M243,952l1.1,-14.7c0,0,-0.1,-1.9,1.9,-2.9c0.5,-0.3,19.6,-10.5,21.6,-11.6" class="g8_1" />
<path d="M261,939.7l-17.2,9.6" class="g9_1" />
<path d="M261,941.7L243,952" class="g9_1" />
<path d="M261,943.4L243.8,953" class="g9_1" />
<path d="M261,946.4l-17.2,9.3" class="g9_1" />
<path d="M272,977.2c0,-1.1,-1.6,-1.9,-3.6,-1.9c-1.9,0,-3.5,0.8,-3.5,1.9" class="g9_1" />
<path d="M264.9,977.2c0,1,1.6,1.9,3.5,1.9c2,0,3.6,-0.9,3.6,-1.9" class="g9_1" />
<path d="M272,976.4c0,-1.1,-1.6,-1.9,-3.6,-1.9c-1.9,0,-3.5,0.8,-3.5,1.9" class="g9_1" />
<path d="M273.5,976.4c0,-1.5,-2.3,-2.7,-5.1,-2.7c-2.7,0,-5,1.2,-5,2.7" class="g9_1" />
<path d="M263.4,976.4c0,1.5,2.3,2.7,5,2.7c2.8,0,5.1,-1.2,5.1,-2.7" class="g9_1" />
<path d="M273.5,975.3c0,-1.5,-2.3,-2.7,-5.1,-2.7c-2.7,0,-5,1.2,-5,2.7" class="g9_1" />
<path d="M273.5,976.5l0,-1" class="g9_1" />
<path d="M263.5,976.5l0,-1" class="g9_1" />
<path d="M412.4,1011c0,-1.1,-1.6,-2,-3.6,-2c-1.9,0,-3.5,0.9,-3.5,2" class="g9_1" />
<path d="M405.3,1011c0,1,1.6,1.9,3.5,1.9c2,0,3.6,-0.9,3.6,-1.9" class="g9_1" />
<path d="M412.4,1010.2c0,-1.1,-1.6,-1.9,-3.6,-1.9c-1.9,0,-3.5,0.8,-3.5,1.9" class="g9_1" />
<path d="M413.8,1010.2c0,-1.5,-2.2,-2.7,-5,-2.7c-2.8,0,-5,1.2,-5,2.7" class="g9_1" />
<path d="M403.8,1010.2c0,1.5,2.2,2.7,5,2.7c2.8,0,5,-1.2,5,-2.7" class="g9_1" />
<path d="M413.8,1009.1c0,-1.5,-2.2,-2.7,-5,-2.7c-2.8,0,-5,1.2,-5,2.7" class="g9_1" />
<path d="M413.5,1010.5l0,-1" class="g9_1" />
<path d="M403.5,1010.5l0,-1" class="g9_1" />
<path d="M369.5,1034c0,-1.1,-1.6,-1.9,-3.6,-1.9c-1.9,0,-3.5,0.8,-3.5,1.9" class="g9_1" />
<path d="M362.4,1034c0,1,1.6,1.9,3.5,1.9c2,0,3.6,-0.9,3.6,-1.9" class="g9_1" />
<path d="M369.5,1033.2c0,-1.1,-1.6,-1.9,-3.6,-1.9c-1.9,0,-3.5,0.8,-3.5,1.9" class="g9_1" />
<path d="M371,1033.2c0,-1.5,-2.3,-2.7,-5.1,-2.7c-2.8,0,-5,1.2,-5,2.7" class="g9_1" />
<path d="M360.9,1033.2c0,1.5,2.2,2.7,5,2.7c2.8,0,5.1,-1.2,5.1,-2.7" class="g9_1" />
<path d="M371,1032.1c0,-1.5,-2.3,-2.7,-5.1,-2.7c-2.8,0,-5,1.2,-5,2.7" class="g9_1" />
<path d="M370.5,1033.5l0,-1" class="g9_1" />
<path d="M360.5,1033.5l0,-1" class="g9_1" />
<path d="M429.9,1038.4c-2.2,-1.1,-3.1,-3.8,-2.8,-6.9m5,-9.1c2.2,-1.7,4.7,-2.3,6.7,-1.2" class="g8_1" />
<path d="M438.8,1021.2c3.2,1.6,3.8,6.8,1.4,11.6c-2.5,4.8,-7.1,7.3,-10.3,5.6" class="g9_1" />
<path d="M435.6,1023.4c2,1.1,2.4,4.3,0.9,7.2c-1.5,3,-4.4,4.5,-6.4,3.5" class="g9_1" />
<path d="M426.9,1030.4c0.2,1.4,0.8,2.5,1.8,3" class="g8_1" />
<path d="M434.2,1022.8c-1,-0.6,-2.3,-0.4,-3.4,0.3" class="g8_1" />
<path d="M434.2,1022.8c2,1,2.4,4.2,0.8,7.2c-1.5,2.9,-4.3,4.5,-6.3,3.4" class="g9_1" />
<path d="M429.3,1031.7c1.4,0.8,3.4,-0.3,4.4,-2.4c1.1,-2,0.8,-4.2,-0.6,-4.9c-1.3,-0.7,-9.9,-6,-9.9,-6" class="g8_1" />
<path d="M434.2,1022.8l1.4,0.6" class="g8_1" />
<path d="M428.7,1033.4l1.4,0.7" class="g8_1" />
<path d="M429.3,1031.7l-13,-7.5" class="g8_1" />
<path d="M412,1024.4c1.9,1,5.5,-0.1,7.3,-3.9" class="g8_1" />
<path d="M512.3,792.8l-12.9,6.9l0,5.4l58.3,0.9l0,-38.3l-15.2,8.5l-13.7,-7.9l-25.6,13.5l-0.1,5.6l13.9,8.3" class="g8_1" />
<path d="M503.1,787.4l25.6,-13.7l0,-5.4l0,5.4l13.9,8l-0.1,-5.5l0.1,5.5l15.1,-8.2" class="g9_1" />
<path d="M499.4,805.1c0.4,0.1,17.6,-9.4,17.6,-9.4" class="g9_1" />
<path d="M470.7,750.1C431.6,728.5,378.5,743,399.6,827.9c14.8,68.8,134.1,116.6,125.5,192.7c-2.6,23.1,-40.3,37,-64.1,24.8" class="g20_1" />
<path d="M474.9,760.4c0.2,2.3,0.3,4.3,3.9,6.6c3.5,2.3,15.2,9.2,15.2,9.2l1.6,-1.2" class="g8_1" />
<path d="M481.3,749.6c1.6,-1.2,4.7,-1.6,7,-0.6" class="g8_1" />
<path d="M488.3,749l14.8,8.7c0,0,3,2.1,2.7,6.5c-0.2,4.3,-1.6,6.4,-2.5,7" class="g8_1" />
<path d="M503.8,771.2l-15.1,-9c0,0,-3.8,-1.3,-5.8,-0.5c-2,0.9,-4.3,2.5,-4.3,2.5c0,0,-1.7,1.6,0.2,2.8" class="g9_1" />
<path d="M487.9,750.4c0.5,1,0.8,2.3,0.7,3.9c-0.1,3,-0.8,4.8,-1.5,6" class="g9_1" />
<path d="M494.3,775.9l-4.4,-5c0,0,-1.3,-1.1,-0.5,-1.8c0.8,-0.7,1.4,-1.2,3,-0.8c1.6,0.3,10.3,3.1,10.4,2.9" class="g9_1" />
<path d="M482.7,768.2l6.8,-3.8" class="g9_1" />
<path d="M484.1,768.8L491,765" class="g9_1" />
<path d="M485.6,769.5l6.8,-3.8" class="g9_1" />
<path d="M486.7,770.2l6.8,-3.8" class="g9_1" />
<path d="M487.8,771l1.2,-0.7m3.9,-2.2l1.7,-0.9" class="g9_1" />
<path d="M489.1,771.6l0.7,-0.4m4.7,-2.6l1.4,-0.8" class="g9_1" />
<path d="M494.6,772.2l0,1.8l1.4,1.2l3.4,-2.4" class="g8_1" />
<path d="M497.6,774.5l7.2,4.4l1.9,-1.2l0.2,-1.8l-2,-1.8l-0.2,1l-4.1,-2.6" class="g8_1" />
<path d="M506.7,777.7l-7.8,-4.6" class="g9_1" />
<path d="M495,773.8l3,-2c0,0,0.4,-1.8,0.1,-1.7" class="g9_1" />
<path d="M494.1,773.8l-1.5,-1.3l4.8,-2.8" class="g9_1" />
<path d="M494.6,772.2c0.4,-0.5,3.5,-2.1,3.5,-2.1" class="g9_1" />
<path d="M498.1,770.1l3.7,1.9" class="g9_1" />
<path d="M503,774l0,-3" class="g8_1" />
<path d="M506.8,775.3l4,-2.4l0.1,-5.8l-5.1,-3.4" class="g8_1" />
<path d="M510.8,772.9l-5,-2.9l0,-2.5" class="g9_1" />
<path d="M510.7,770l-4.9,-2.9" class="g9_1" />
<path d="M507.5,774.4l-4.8,-3" class="g9_1" />
<path d="M510.6,769.4l-4.8,-3" class="g9_1" />
<path d="M508.4,774.1l-4.9,-2.9" class="g9_1" />
<path d="M505.8,770l-2,1.2" class="g9_1" />
<path d="M498,771.8l1.1,0.6" class="g9_1" />
<path d="M483.1,750.8c0,0,-8,-5,-10.1,-6.1c-1.3,-0.6,-2.9,-0.3,-4.3,0.8m-3.2,5.9c-0.1,1.9,0.6,3.4,1.8,4.3c2.2,1.4,10.2,6.1,10.2,6.1" class="g8_1" />
<path d="M472.6,744.6c2.1,1.1,2.6,4.3,1,7.4c-1.5,3,-4.5,4.6,-6.6,3.6" class="g9_1" />
<path d="M483.1,750.8c2.1,1.1,2.6,4.4,1,7.4c-1.5,3,-4.5,4.6,-6.6,3.6" class="g9_1" />
<path d="M475.4,749.4c-0.1,1,-0.4,2.1,-1,3.2c-1.5,3,-4.5,4.6,-6.6,3.6" class="g9_1" />
<path d="M476.2,750c0,1,-0.3,2,-0.9,3.1c-1.5,3,-4.5,4.6,-6.6,3.6" class="g9_1" />
<path d="M475.3,746.2c2.1,1,2.5,4.3,1,7.4c-0.8,1.3,-1.8,2.4,-2.8,3.1" class="g9_1" />
<path d="M476.2,746.7c2.2,1.1,2.6,4.4,1,7.4c-0.7,1.4,-1.8,2.6,-2.9,3.2" class="g9_1" />
<path d="M475.4,749.4l0.8,0.6" class="g9_1" />
<path d="M473.5,756.7l0.9,0.7" class="g9_1" />
<path d="M479.2,751.5c-0.1,1.1,-0.4,2.2,-0.9,3.2c-1.6,3.1,-4.6,4.7,-6.7,3.6" class="g9_1" />
<path d="M480.1,752.1c-0.1,1,-0.4,2.1,-0.9,3.1c-1.6,3,-4.6,4.6,-6.7,3.6" class="g9_1" />
<path d="M479.1,748.3c2.1,1.1,2.5,4.4,1,7.4c-0.7,1.4,-1.7,2.5,-2.8,3.1" class="g9_1" />
<path d="M480.1,748.9c2.1,1,2.5,4.3,1,7.3c-0.8,1.5,-1.8,2.6,-3,3.3" class="g9_1" />
<path d="M479.2,751.5l0.9,0.7" class="g9_1" />
<path d="M477.3,758.9l0.9,0.6" class="g9_1" />
<path d="M482.9,753.8c0,1.1,-0.3,2.2,-0.9,3.3c-1.5,3,-4.5,4.6,-6.6,3.6" class="g9_1" />
<path d="M483.8,754.5c-0.1,0.9,-0.4,2,-0.9,3c-1.5,3,-4.5,4.7,-6.6,3.6" class="g9_1" />
<path d="M482.9,753.8l0.9,0.7" class="g9_1" />
<path d="M274,818.1c0.1,-0.2,0.4,-0.5,0.7,-0.6c0.9,-0.6,5.1,-3,5.1,-3" class="g9_1" />
<path d="M273.6,822.5c-0.1,-0.1,-0.1,-0.3,-0.1,-0.6c0,-0.2,0.2,-3,0.2,-3c0,0,0,-0.4,0.3,-0.8" class="g8_1" />
<path d="M273.5,822.2c0,-0.3,0.2,-0.5,0.5,-0.7c0.4,-0.2,7.1,-4,7.1,-4" class="g9_1" />
<path d="M330.8,825.3c0,0,0,-0.6,-0.5,-0.9c-0.5,-0.3,-1.1,-0.6,-1.1,-0.6" class="g9_1" />
<path d="M273.5,822.8c0.1,0.6,0.4,8.4,0.4,8.4c0,0,0,1,0.9,1.6c0.9,0.5,27.8,16.5,27.8,16.5c0,0,0.9,0.5,1.9,-0.1c1.1,-0.6,24.8,-14,24.8,-14c0,0,0.9,-0.2,1,-1.5c0.1,-1.3,0.5,-8.4,0.5,-8.4" class="g8_1" />
<path d="M281.3,817.9L274,822c0,0,-0.5,0.2,-0.5,0.8" class="g9_1" />
<path d="M330.3,820.5c-0.2,-0.2,-0.4,-0.5,-0.7,-0.7c-0.9,-0.5,-27.9,-16.7,-27.9,-16.7c0,0,-0.9,-0.5,-1.8,0c-0.9,0.5,-9.6,5.5,-9.6,5.5" class="g9_1" />
<path d="M330.7,824.9c0.1,-0.1,0.1,-0.3,0.1,-0.5c-0.1,-0.2,-0.3,-3.1,-0.3,-3.1c0,0,0,-0.4,-0.2,-0.8" class="g8_1" />
<path d="M285.4,806.5l3.2,7c0,0,0.2,0.6,0.9,1" class="g8_1" />
<path d="M289.5,814.5l0.5,0.3" class="g8_1" />
<path d="M290.3,808.4c0.1,0.9,0.4,4,0.4,4l0.1,0" class="g9_1" />
<path d="M277.9,808.3c0,0,0,-0.2,0.3,-0.4c0.2,-0.1,5.9,-3.4,5.9,-3.4c0,0,0.7,-0.2,1.1,0.1c0.5,0.2,4.1,2.4,4.1,2.4c0,0,0.9,0.6,1,1.4" class="g9_1" />
<path d="M282.8,819.4c0,-0.2,-0.1,-0.3,-0.2,-0.4c-0.2,-0.1,-0.6,-0.3,-0.6,-0.3c0,0,-0.5,-0.3,-0.8,-1c-0.4,-0.8,-1,-2.1,-1,-2.1l-1.9,-5.3c0,0,-0.1,-0.2,-0.2,-0.2c-0.1,-0.1,-0.4,-0.2,-0.4,-0.5c0,-0.3,0.2,-1.3,0.2,-1.3" class="g8_1" />
<path d="M277.7,809.6c0,-0.2,0.1,-0.3,0.4,-0.4c0.2,-0.2,6,-3.5,6,-3.5c0,0,0.4,-0.1,0.6,-0.1c0.3,0,0.5,0.1,0.6,0.1c0.2,0.1,0.3,0.2,0.3,0.2c0,0,0.1,0.1,0.2,0.2c0,0.2,2.5,4.7,2.5,4.7l0.9,2.3c0,0.1,0.4,0.8,0.8,1.1c0.4,0.2,0.6,0.3,0.6,0.3c0,0,0.2,0.1,0.2,0.3" class="g9_1" />
<path d="M290.5,814.5l0,-2" class="g9_1" />
<path d="M286.9,809.9l-3.9,2.2c0,0,-0.3,0.2,-0.4,0C282.4,812,279.1,810,278.9,810c-0.1,-0.1,-0.2,-0.1,-0.4,0.1c-0.2,0.1,-0.3,0,-0.4,0" class="g9_1" />
<path d="M278.8,810.1l2.1,5.1l1.1,2.4c0,0,0.4,0.7,0.9,0.8" class="g9_1" />
<path d="M282.8,812.3l-0.2,4.6c0,0,0,0.8,0.6,1.1" class="g9_1" />
<path d="M283.1,817.5l5.8,-3.2" class="g9_1" />
<path d="M285.4,806.5c-0.1,-0.1,0.1,-0.1,0.1,-0.2c0.1,-0.2,0.3,-0.3,0.1,-0.4" class="g9_1" />
<path d="M281.3,809c0,-0.8,1,-1.3,2.3,-1.3c1.3,0,2.3,0.7,2.3,1.4" class="g9_1" />
<path d="M310.9,813.3l0.4,-0.2l9,5.4l0.4,-0.3c0,0,0.3,-0.1,0.6,0.1c0.3,0.1,7.7,4.6,7.7,4.6c0,0,0.2,0.1,0.2,0.2c0,0.2,-0.3,7.4,-0.3,7.4c0,0,0.1,0.4,-0.1,0.6c-0.1,0.1,-0.2,0.1,-0.3,0.2c-0.1,0.1,-0.4,0.2,-0.4,0.2c0,0,-0.1,0.1,-0.3,0" class="g9_1" />
<path d="M320.3,818.5l-0.1,7.5c0,0,0.1,1.1,1,1.6c0.9,0.5,6.5,3.9,6.5,3.9c0,0,0.1,0,0.1,0" class="g9_1" />
<path d="M321.1,818.6l-0.1,6.9c0,0,0.1,1,1,1.6c0.8,0.5,6.6,3.9,6.6,3.9c0,0,-0.1,0,0,0" class="g9_1" />
<path d="M310.9,820.5l-6.8,-4.1l0.1,-7.7l-2.3,-1.3c0,0,-1.3,-0.6,-2.5,0c-1.1,0.7,-8.7,5,-8.7,5" class="g9_1" />
<path d="M290.6,811.9l9,-5.1c0,0,1.3,-0.4,2.4,0.2c1.1,0.7,18.7,11.2,18.7,11.2" class="g9_1" />
<path d="M329.2,823.3l1.1,0.7c0,0,0.5,0.3,0.5,0.7" class="g9_1" />
<path d="M310.9,820.5c0.1,0.1,0.2,0,0.2,-0.1c0,-0.2,0.2,-7.3,0.2,-7.3" class="g9_1" />
<path d="M310.7,820.4l0,-7.6l-6.5,-3.9" class="g9_1" />
<path d="M308.5,817.8c-0.9,0.4,-2.1,-0.6,-2.7,-2.1c-0.7,-1.6,-0.5,-3.1,0.4,-3.5" class="g9_1" />
<path d="M306.2,812.2c0.8,-0.4,2.1,0.6,2.7,2.1c0.7,1.6,0.5,3.1,-0.4,3.5" class="g9_1" />
<path d="M306.6,817c0.4,-0.2,0.7,-0.7,0.7,-1.2c0,-0.7,-0.5,-1.3,-1.2,-1.3c-0.1,0,-0.2,0,-0.4,0c-0.1,0.1,-0.3,0.2,-0.3,0.2" class="g9_1" />
<path d="M310.9,813.3l0,0.9l-0.2,0" class="g9_1" />
<path d="M310.5,814.5l0,-2" class="g9_1" />
<path d="M310.7,812.9l0.1,0l0.4,0.2" class="g9_1" />
<path d="M300.5,803.5l0,3" class="g9_1" />
<path d="M300.5,807.5l0,9" class="g9_1" />
<path d="M329.6,834.3c-0.9,-0.5,-27.9,-16.7,-27.9,-16.7c0,0,-0.9,-0.5,-1.8,0c-0.9,0.5,-25.4,14,-25.4,14" class="g9_1" />
<path d="M281.3,809.7c0,-0.8,1,-1.3,2.3,-1.3c1.3,0,2.3,0.6,2.3,1.4" class="g9_1" />
<path d="M285.9,809.8c0,0.7,-1,1.3,-2.3,1.3c-1.3,-0.1,-2.3,-0.7,-2.3,-1.4" class="g9_1" />
<path d="M282.7,809.8c0.5,0.6,1.6,1.2,2.1,1.1" class="g9_1" />
<path d="M284.8,809.8c-0.5,0.6,-1.5,1.2,-2.1,1.1" class="g9_1" />
<path d="M564.9,802.4c0,-0.7,1,-1.3,2.2,-1.2c1.3,0,2.3,0.6,2.3,1.3" class="g9_1" />
<path d="M564.9,803.1c0,-0.7,1,-1.3,2.2,-1.3c1.3,0.1,2.3,0.7,2.3,1.4" class="g9_1" />
<path d="M569.4,803.2c0,0.8,-1,1.3,-2.3,1.3c-1.2,0,-2.2,-0.6,-2.2,-1.4" class="g9_1" />
<path d="M566.3,803.3c0.5,0.6,1.5,1.1,2,1" class="g9_1" />
<path d="M568.3,803.3c-0.4,0.6,-1.5,1.1,-2,1" class="g9_1" />
<path d="M470.7,750.1C431.6,728.5,378.5,743,399.6,827.9c14.8,68.8,134.1,116.6,125.5,192.7c-2.6,23.1,-40.3,37,-64.1,24.8" class="g21_1" />
<path d="M429.6,1038.3c0,0,18,11.1,21.2,12.7c3.2,1.7,7.8,-0.8,10.2,-5.6c2.5,-4.8,1.9,-10,-1.3,-11.6c-3.2,-1.7,-20.6,-12.5,-20.6,-12.5" class="g8_1" />
<path d="M471.4,747.8c0.7,0.4,1,1.9,0.4,2.9c-0.5,1.1,-1.9,1.7,-2.7,1.3" class="g8_1" />
<path fill-rule="evenodd" d="M595.4,803.3c1,0,1.9,-0.8,1.9,-1.9c0,-1,-0.9,-1.8,-1.9,-1.8c-1,0,-1.9,0.8,-1.9,1.8c0,1.1,0.9,1.9,1.9,1.9Z" class="g16_1" />
<path d="M626.4,777.2l-5,0l-26,24.2" class="g9_1" />
<path fill-rule="evenodd" d="M475.2,768.5c1,0,1.8,-0.9,1.8,-1.9c0,-1,-0.8,-1.9,-1.8,-1.9c-1.1,0,-1.9,0.9,-1.9,1.9c0,1,0.8,1.9,1.9,1.9Z" class="g16_1" />
<path d="M458.5,841.8l-5,0l21.7,-75.2" class="g9_1" />
<path fill-rule="evenodd" d="M243.7,970.3c-1,0,-1.9,0.8,-1.9,1.9c0,1,0.9,1.8,1.9,1.8c1,0,1.9,-0.8,1.9,-1.8c0,-1.1,-0.9,-1.9,-1.9,-1.9Z" class="g16_1" />
<path d="M212.7,996.3l5,0l26,-24.1" class="g9_1" />
<path fill-rule="evenodd" d="M287.8,840.1c-1,0,-1.9,0.8,-1.9,1.8c0,1.1,0.9,1.9,1.9,1.9c1,0,1.9,-0.8,1.9,-1.9c0,-1,-0.9,-1.8,-1.9,-1.8Z" class="g16_1" />
<path d="M265,864.7l5.1,0l17.7,-22.8" class="g9_1" />
<path fill-rule="evenodd" d="M622.9,1039.6c-1.1,0,-1.9,-0.8,-1.9,-1.9c0,-1,0.8,-1.8,1.9,-1.8c1,0,1.8,0.8,1.8,1.8c0,1.1,-0.8,1.9,-1.8,1.9Z" class="g16_1" />
<path d="M599.9,1055.3l5.1,0l17.9,-17.6" class="g9_1" />
<path d="M283.6,922.7c0.1,0.1,0.2,0.3,0.2,0.5l0,17.2c0,0.4,-0.3,0.9,-0.6,1.1l-21.6,11.9c-0.2,0.1,-0.4,0,-0.5,-0.1" class="g9_1" />
<path d="M261.1,953.3c0,-0.1,-0.1,-0.2,-0.1,-0.4l0,-17.2c0,-0.4,0.3,-0.9,0.6,-1.1l21.6,-11.9c0.1,0,0.3,0,0.4,0" class="g8_1" />
<path d="M285.5,923.8c0.2,0.1,0.2,0.2,0.2,0.4l0,17.2c0,0.4,-0.3,0.9,-0.6,1.1l-21.5,11.9c-0.2,0.1,-0.4,0.1,-0.5,0" class="g9_1" />
<path d="M283.6,922.7l1.9,1.1" class="g8_1" />
<path d="M261.1,953.3l2,1.1" class="g8_1" />
<path d="M281.7,925.3c0.1,0,0.2,0.2,0.2,0.3l0,14.4c0,0.3,-0.2,0.8,-0.5,0.9l-18,9.9c-0.2,0.1,-0.3,0.1,-0.4,0" class="g8_1" />
<path d="M263,950.8c-0.1,-0.1,-0.1,-0.2,-0.1,-0.3l0,-14.4c0,-0.3,0.2,-0.8,0.5,-0.9l18,-9.9c0.1,-0.1,0.2,-0.1,0.3,0" class="g9_1" />
<path d="M281.9,931.9l-2.4,-1.4l-8.7,5l-4.6,7.8l0,6" class="g9_1" />
<path d="M266.2,943.3l5.2,3.1" class="g9_1" />
<path d="M270.9,935.6l10,6.1" class="g9_1" />
<path d="M277.3,943.1l-5.8,-3.6l-1.3,0.8l0,4.9l1.6,0.8" class="g8_1" />
<path d="M270,945.5l1.5,-0.9l0,-5.1" class="g9_1" />
<path d="M271.5,944.6l1.6,0.9" class="g9_1" />
<path d="M281.9,936.3l-2.4,-1.5l-1.4,0.8l0,4.9l1.7,0.8" class="g8_1" />
<path d="M277.9,940.8l1.6,-0.9l0,-5.1" class="g9_1" />
<path d="M279.5,939.9l1.6,0.8" class="g9_1" />
<path d="M711.2,894.1c0.3,-0.5,0.7,-1,1.3,-1.3c1.4,-0.8,2.3,-1.2,2.3,-1.2" class="g9_1" />
<path d="M768.9,899c0.3,0.4,0.3,0.7,0.4,1.4c0.4,2.5,0.5,8.6,0.5,8.6l-0.3,6c0,0,-0.1,2.2,-2.3,3.4c-2.3,1.3,-22.2,11.8,-22.2,11.8c0,0,-2.3,1,-4.1,0c-1.8,-0.9,-28.3,-16.6,-28.3,-16.6c0,0,-2.1,-0.8,-2.3,-3.5c-0.1,-2.7,-0.3,-5.7,-0.3,-5.7l0.6,-8.7c0,0,0.1,-0.8,0.6,-1.6" class="g8_1" />
<path d="M729,883.9l5.7,-3c0,0,2.2,-1.4,4.9,0.2c2.7,1.6,27.6,16.3,27.7,16.4c0.6,0.3,1.1,0.7,1.5,1.3" class="g9_1" />
<path d="M718.9,897l2.5,-1.3l0,-3.2" class="g9_1" />
<path d="M718.9,897l0,-3.2l2.5,-1.3l-2.5,1.3l2.5,1.5" class="g9_1" />
<path d="M721.7,899l2.5,-1.2l0,-3.2" class="g9_1" />
<path d="M721.7,899l0,-3.1l2.5,-1.3l-2.5,1.3l2.5,1.4" class="g9_1" />
<path d="M724.5,897.6l2.4,-1.3l0,-3.2" class="g9_1" />
<path d="M724.5,897.6l0,-3.2l2.4,-1.3l-2.4,1.3l2.4,1.5" class="g9_1" />
<path d="M724.5,894l2.4,-1.3l0,-2.4l-0.6,-0.5" class="g9_1" />
<path d="M724.5,894l0,-2.3l0.6,-1.2l1.2,-0.7l-1.2,0.7l1.8,1.1l-1.8,-1.1l-0.6,1.2l2.1,1.2" class="g9_1" />
<path d="M721.7,895.5l2.5,-1.3l0,-2.5l-0.6,-0.4" class="g9_1" />
<path d="M721.7,895.5l0,-2.4l0.6,-1.1l1.3,-0.7l-1.3,0.7l1.9,1.1L722.3,892l-0.6,1.1l2.1,1.3" class="g9_1" />
<path d="M719,900.5l2.4,-1.3l0,-2.4l-0.6,-0.5" class="g9_1" />
<path d="M719,900.5l0,-2.3l0.6,-1.2l1.2,-0.7l-1.2,0.7l1.8,1.1L719.6,897l-0.6,1.2l2.1,1.2" class="g9_1" />
<path d="M721.4,903.4l2.9,-1.5l0.3,-3.9l2.6,-1.3c0,0,0.4,-0.2,0.4,-0.8c0,-0.6,0,-2.1,0,-2.1l0.1,-5.6c0,0,0,-0.3,-0.1,-0.3" class="g9_1" />
<path d="M727.6,887.9c-0.1,0,-0.2,0.1,-0.2,0.1c-0.1,0,-9,4.8,-9,4.8c0,0,-0.3,0.2,-0.4,0.6c0,0.5,-0.3,5.7,-0.3,5.7l0.1,2.2c0,0,0,0.2,0.2,0.2" class="g9_1" />
<path d="M718,901.5c0.1,0.1,0.2,0,0.3,-0.1c0.1,0,2.5,-1.3,2.5,-1.3l1.2,0.6l0.4,2.2" class="g9_1" />
<path d="M721.8,899.6l1.3,1.8l0.6,0.4l0.6,-0.3" class="g9_1" />
<path d="M722.1,901.7l1.3,0.7" class="g9_1" />
<path d="M720.8,900.1l0.6,3.3" class="g9_1" />
<path d="M720.8,900.1l3.8,-2.1" class="g9_1" />
<path d="M723.1,901.4l1.3,-0.6l0.1,-1.8l-0.4,-0.7l0.5,0.3" class="g9_1" />
<path d="M718.6,901.3c-0.1,-0.1,-0.2,-0.1,-0.2,-0.4c0,-0.2,0,-5.4,0,-5.4" class="g9_1" />
<path d="M718.4,895.7c-0.1,-0.1,-0.2,-0.2,-0.2,-0.4c0,-0.2,0,-0.4,0.2,-0.5" class="g9_1" />
<path d="M718.4,894.8l0,-1.2c0,0,0.1,-0.4,0.5,-0.6c0.4,-0.2,8.3,-4.5,8.3,-4.5c0,0,0.1,0,0.2,0.1c0.2,0,0.3,0.1,0.3,0.1" class="g9_1" />
<path d="M727.4,888.6c0.1,0,0.1,0.1,0.1,0.3c0,0.1,0,7,0,7c0,0,0,0.8,-0.8,1" class="g9_1" />
<path d="M713.6,902.8l0,2.1Z" class="g9_1" />
<path d="M714.7,902.1l-1.1,0.7l0.7,0.4" class="g9_1" />
<path d="M713.6,904.9l1.2,-0.6l0,-2.1" class="g9_1" />
<path d="M714.5,903.5l0,1" class="g9_1" />
<path d="M714.1,903.3l0.7,-0.4" class="g9_1" />
<path d="M714,904.5l0.8,-0.4" class="g9_1" />
<path d="M730.7,893.6l0,2.1Z" class="g9_1" />
<path d="M731.9,893l-1.2,0.6l0.7,0.5" class="g9_1" />
<path d="M730.7,895.7l1.2,-0.6l0,-2.1" class="g9_1" />
<path d="M731.5,893.5l0,2" class="g9_1" />
<path d="M731.2,894.2l0.7,-0.4" class="g9_1" />
<path d="M731.2,895.4l0.7,-0.4" class="g9_1" />
<path d="M710,904.5c0.1,-0.6,0.6,-1.6,1.5,-2.1c0.9,-0.5,6.2,-3.3,6.2,-3.3l0.6,0.3l0,1.1l0.1,0" class="g9_1" />
<path d="M727.6,893.8c0,0,3.8,-2,6.2,-3.3c2.4,-1.4,5.2,-0.7,6.4,0c1.3,0.7,9.2,5.5,9.2,5.5" class="g9_1" />
<path d="M755.8,901.4l0,-1l0.5,-0.4l2.7,1.6" class="g9_1" />
<path d="M765.3,907.1l0,-1.1l0.6,-0.3l2.7,1.5c0,0,1.2,0.7,1.2,2.1" class="g9_1" />
<path d="M711.6,911.2l22.8,-12.5c0,0,2.3,-1.3,5,0.1c2.7,1.4,29,17.2,29,17.2" class="g9_1" />
<path d="M737.1,897.2l0.1,-6.6" class="g9_1" />
<path d="M737.1,888.2l0.1,-6.6" class="g9_1" />
<path d="M717.3,893.1c-0.2,-0.2,-0.3,-0.4,-0.3,-0.8c0,-0.4,0,-2.3,0,-2.3c0,0,0.1,-0.4,-0.3,-0.6c-0.3,-0.2,-3.1,-2,-3.4,-2.1c-0.2,-0.2,-0.7,-0.5,-0.6,0.5" class="g9_1" />
<path d="M717.2,889.5l8.7,-4.4" class="g9_1" />
<path d="M723.7,881.8c0.2,-0.1,0.4,-0.1,0.5,0.1c0.1,0.2,3.1,5.2,3.1,5.2c0,0,0.4,0.6,0.8,0.9" class="g8_1" />
<path d="M728.1,888c0.1,0.1,0.3,0.2,0.3,0.2" class="g8_1" />
<path d="M728.4,888.2l0.6,-0.4l0.1,-2.1" class="g9_1" />
<path d="M729.1,885.7C729,885.3,729,884.8,729,884.5c0,-0.3,0,-1.6,-1.1,-2.3c-1.1,-0.6,-3.8,-2.2,-3.8,-2.2c0,0,-0.7,-0.3,-1.2,0c-0.6,0.3,-10.3,5.5,-10.3,5.5c0,0,-0.6,0.3,-0.6,0.7" class="g9_1" />
<path d="M712.4,887.2c0,-0.4,0.5,-0.7,0.5,-0.7c0,0,9.4,-5,10,-5.4c0.5,-0.3,1,-0.1,1.2,0c0.2,0.1,0.3,0.2,0.5,0.4c0.2,0.3,2.5,3,2.5,3l0.8,2.2c0,0,0.4,1,1.1,1.1" class="g9_1" />
<path d="M727.3,884.6l1.7,1" class="g9_1" />
<path d="M716.6,894.5c-0.6,-0.3,-0.9,-0.9,-1.2,-1.4c-0.3,-0.5,-2.5,-5.2,-2.7,-5.3c-0.1,-0.2,-0.2,-0.4,-0.4,-0.6c-0.2,-0.3,-0.3,-0.3,-0.3,-1" class="g8_1" />
<path d="M716.6,894.5c0.1,0.1,0.6,-0.3,0.6,-0.3c0,0,0.2,-0.1,0.2,-0.4c0,-0.3,0,-0.5,0,-0.5c0,0,0,-0.2,0.2,-0.3c0.2,-0.1,10.1,-5.4,10.1,-5.4" class="g9_1" />
<path d="M717.1,893.9c-0.6,-0.3,-0.9,-0.8,-1.2,-1.4c-0.2,-0.4,-1.9,-3.8,-2.5,-5" class="g9_1" />
<path d="M749.4,889.8c-0.1,0,-0.1,0.1,-0.1,0.2c0,0.2,0.1,6,0.1,6l0,1.3c0,0,0,0.4,0.4,0.6c0.4,0.3,6.2,3.7,6.2,3.7c0,0,0.1,0,0.2,0" class="g9_1" />
<path d="M755.2,901.1l-0.4,-6.5c0,0,0,-0.4,-0.4,-0.6c-0.4,-0.2,-5.1,-3,-5.1,-3" class="g9_1" />
<path d="M749.3,891.2l5.5,3.3l0,6.4" class="g9_1" />
<path d="M749.4,889.8c0,-0.1,0.1,0,0.2,0c0.1,0.1,6,3.6,6,3.6c0,0,0.4,0.2,0.4,0.7c0,0.4,0.3,5.9,0.3,5.9l0,1.3c0,0,0,0.2,-0.1,0.3" class="g9_1" />
<path d="M750.5,898.3c-0.2,-0.2,-0.3,-0.5,-0.4,-0.8c-0.8,-1.7,-0.5,-3.2,0.4,-3.6" class="g9_1" />
<path d="M750.5,893.9c0.9,-0.4,2.1,0.7,2.8,2.3c0.6,1.6,0.4,3.2,-0.5,3.5" class="g9_1" />
<path d="M749.8,896.4c0.1,0,0.3,-0.1,0.5,-0.1c0.6,0,1.2,0.5,1.2,1.2c0,0.5,-0.3,0.9,-0.7,1" class="g9_1" />
<path d="M758.9,895.4c0,0.1,-0.1,0.1,-0.1,0.3c0,0.2,0.2,5.9,0.2,5.9l0,1.4c0,0,0,0.4,0.3,0.6c0.4,0.2,6.3,3.7,6.3,3.7l0.2,-0.1" class="g9_1" />
<path d="M764.7,906.8l-0.3,-6.5c0,0,-0.1,-0.4,-0.5,-0.7c-0.4,-0.2,-5,-2.9,-5,-2.9" class="g9_1" />
<path d="M758.9,896.9l5.4,3.2l0,6.4" class="g9_1" />
<path d="M758.9,895.4c0.1,0,0.2,0,0.3,0.1c0.1,0,6,3.5,6,3.5c0,0,0.4,0.2,0.4,0.7c0,0.5,0.3,6,0.3,6l0,1.3c0,0,-0.1,0.2,-0.1,0.2" class="g9_1" />
<path d="M760.1,904c-0.2,-0.3,-0.4,-0.6,-0.5,-0.9c-0.7,-1.7,-0.5,-3.2,0.4,-3.5" class="g9_1" />
<path d="M760,899.6c0.9,-0.4,2.2,0.6,2.8,2.2c0.7,1.6,0.5,3.2,-0.4,3.6" class="g9_1" />
<path d="M759.3,902.1c0.2,-0.1,0.4,-0.1,0.5,-0.1c0.7,0,1.2,0.5,1.2,1.1c0,0.5,-0.3,0.9,-0.6,1.1" class="g9_1" />
<path d="M717.6,885.5c0,-0.7,1.1,-1.3,2.3,-1.2c1.3,0,2.3,0.6,2.3,1.3" class="g9_1" />
<path d="M717.6,886.2c0,-0.7,1.1,-1.3,2.3,-1.3c1.3,0.1,2.3,0.7,2.3,1.4" class="g9_1" />
<path d="M722.2,886.3c0,0.8,-1,1.3,-2.3,1.3c-1.2,0,-2.3,-0.6,-2.3,-1.4" class="g9_1" />
<path d="M719,886.3c0.5,0.7,1.6,1.2,2.1,1.1" class="g9_1" />
<path d="M721.1,886.3c-0.5,0.7,-1.5,1.2,-2.1,1.1" class="g9_1" />
<path d="M408.5,187.5l118,0" class="g9_1" />
</svg>