<?xml version="1.0" encoding="UTF-8" standalone="no"?>
<!DOCTYPE svg PUBLIC "-//W3C//DTD SVG 1.1//EN"
"http://www.w3.org/Graphics/SVG/1.1/DTD/svg11.dtd">
<svg version="1.1" xmlns="http://www.w3.org/2000/svg" xmlns:xlink="http://www.w3.org/1999/xlink">
<defs>
<clipPath id="c0_2"><path d="M722.5,1070.5l0,-134l118,0l0,134Z" /></clipPath>
<style type="text/css"><![CDATA[
.g5_2{
fill: #696C6D;
}
.g15_2{
fill: none;
stroke: #000000;
stroke-width: 1;
stroke-linecap: butt;
stroke-linejoin: miter;
stroke-miterlimit: 4;
stroke-dasharray: 4,4;
}
.g6_2{
fill: #B92D34;
}
.g16_2{
fill: none;
stroke: #000000;
stroke-width: 1;
stroke-linecap: butt;
stroke-linejoin: miter;
stroke-miterlimit: 4;
stroke-dasharray: 3,3;
}
.g8_2{
fill: #578DAA;
}
.g13_2{
fill: #FFFFFF;
}
.g12_2{
fill: none;
stroke: #040503;
stroke-width: 1;
stroke-linecap: round;
stroke-linejoin: round;
stroke-miterlimit: 2;
}
.g7_2{
fill: #060706;
}
.g1_2{
fill: #1A1412;
}
.g10_2{
fill: #7A9C3D;
}
.g9_2{
fill: #D46537;
}
.g11_2{
fill: #040503;
}
.g2_2{
fill: #CDCACC;
}
.g14_2{
fill: none;
stroke: #000000;
stroke-width: 1;
stroke-linecap: butt;
stroke-linejoin: miter;
stroke-miterlimit: 4;
}
.g4_2{
fill: #DEDFDE;
}
.g3_2{
fill: none;
stroke: #646669;
stroke-width: 1;
stroke-linecap: butt;
stroke-linejoin: miter;
}
]]></style>
</defs>
<path d="M0,126l935,0L935,0L0,0L0,126Z" class="g1_2" />
<path d="M366,423l569,0l0,-297l-569,0l0,297Z" class="g2_2" />
<image x="-1" y="124" width="368" height="302" xlink:href="img/1.png" />
<path d="M510.5,685.5l163,0" class="g3_2" />
<path d="M673.5,685.5l178,0" class="g3_2" />
<path d="M675,717l55,0l0,-21l-55,0l0,21Z" class="g4_2" />
<path d="M675,743l55,0l0,-21l-55,0l0,21Z" class="g5_2" />
<path d="M675,822l55,0l0,-22l-55,0l0,22Z" class="g6_2" />
<path d="M675,770l55,0l0,-22l-55,0l0,22Z" class="g7_2" />
<path d="M675,848l55,0l0,-22l-55,0l0,22Z" class="g8_2" />
<path d="M675,796l55,0l0,-22l-55,0l0,22Z" class="g9_2" />
<path d="M675,874l55,0l0,-22l-55,0l0,22Z" class="g10_2" />
<path d="M510,717l56,0l0,-21l-56,0l0,21Z" class="g4_2" />
<path d="M510,743l56,0l0,-21l-56,0l0,21Z" class="g5_2" />
<path d="M510,770l56,0l0,-22l-56,0l0,22Z" class="g7_2" />
<image x="73" y="443" width="175" height="132" xlink:href="img/2.png" />
<image x="276" y="443" width="176" height="132" xlink:href="img/3.png" />
<image x="480" y="443" width="176" height="132" xlink:href="img/4.png" />
<image x="684" y="443" width="175" height="132" xlink:href="img/5.png" />
<path fill-rule="evenodd" d="M621,961l9,0l0,-4l-9,0l0,4Z" class="g11_2" />
<path d="M621.5,961.5l9,0l0,-4l-9,0l0,4Z" class="g12_2" />
<path fill-rule="evenodd" d="M621,951l9,0l0,4l-9,0l0,-4Z" class="g11_2" />
<path d="M621.5,951.5l9,0l0,4l-9,0l0,-4Z" class="g12_2" />
<path d="M564.9,953.7l0,5.6l3,0c0,0,2.5,-0.4,2.5,-2.8c0,-2.4,-1.9,-2.8,-2.6,-2.8c-0.6,0,-2.9,0,-2.9,0Z" class="g12_2" />
<path fill-rule="evenodd" d="M565.5,954.4l0,4.2l2.3,0c0,0,2,-0.2,2,-2.1c0,-1.9,-1.5,-2.1,-2,-2.1c-0.5,0,-2.3,0,-2.3,0Z" class="g11_2" />
<path d="M565.5,954.4l0,4.2l2.3,0c0,0,2,-0.2,2,-2.1c0,-1.9,-1.5,-2.1,-2,-2.1c-0.5,0,-2.3,0,-2.3,0Zm0,0l-0.6,-0.7m0,5.6l0.6,-0.7" class="g12_2" />
<path d="M587.8,953.7l0,5.6l3,0c0,0,2.5,-0.4,2.5,-2.8c0,-2.4,-1.9,-2.8,-2.6,-2.8c-0.6,0,-2.9,0,-2.9,0Z" class="g12_2" />
<path fill-rule="evenodd" d="M588.5,954.4l0,4.2l2.2,0c0,0,2,-0.2,2,-2.1c0,-1.9,-1.5,-2.1,-2,-2.1c-0.5,0,-2.2,0,-2.2,0Z" class="g11_2" />
<path d="M588.5,954.4l0,4.2l2.2,0c0,0,2,-0.2,2,-2.1c0,-1.9,-1.5,-2.1,-2,-2.1c-0.5,0,-2.2,0,-2.2,0Zm0,0l-0.7,-0.7m0,5.6l0.7,-0.7" class="g12_2" />
<path d="M573.6,959.7l6.4,0c0.2,0,0.3,0.1,0.3,0.3l0,2.6c0,0.1,-0.1,0.2,-0.3,0.2l-6.4,0c-0.1,0,-0.2,-0.1,-0.2,-0.2l0,-2.6c0,-0.2,0.1,-0.3,0.2,-0.3Z" class="g12_2" />
<path fill-rule="evenodd" d="M574.1,960.3l5.4,0c0.1,0,0.2,0.1,0.2,0.1l0,1.8c0,0,-0.1,0.1,-0.2,0.1l-5.4,0c0,0,-0.1,-0.1,-0.1,-0.1l0,-1.8c0,0,0.1,-0.1,0.1,-0.1Z" class="g11_2" />
<path d="M574.1,960.3l5.4,0c0.1,0,0.2,0.1,0.2,0.1l0,1.8c0,0,-0.1,0.1,-0.2,0.1l-5.4,0c0,0,-0.1,-0.1,-0.1,-0.1l0,-1.8c0,0,0.1,-0.1,0.1,-0.1Zm-0.7,-0.5l0.6,0.5m-0.6,2.4l0.6,-0.5m6.2,-2.4l-0.6,0.5m0.6,2.4l-0.6,-0.5" class="g12_2" />
<path d="M573.1,950.1l7.5,0c0.1,0,0.2,0.1,0.2,0.2l0,2.7c0,0.1,-0.1,0.2,-0.2,0.2l-7.5,0c-0.1,0,-0.2,-0.1,-0.2,-0.2l0,-2.7c0,-0.1,0.1,-0.2,0.2,-0.2Z" class="g12_2" />
<path fill-rule="evenodd" d="M573.6,950.7l6.5,0c0,0,0.1,0,0.1,0.1l0,1.7c0,0.1,-0.1,0.2,-0.1,0.2l-6.5,0c0,0,-0.1,-0.1,-0.1,-0.2l0,-1.7c0,-0.1,0.1,-0.1,0.1,-0.1Z" class="g11_2" />
<path d="M573.6,950.7l6.5,0c0,0,0.1,0,0.1,0.1l0,1.7c0,0.1,-0.1,0.2,-0.1,0.2l-6.5,0c0,0,-0.1,-0.1,-0.1,-0.2l0,-1.7c0,-0.1,0.1,-0.1,0.1,-0.1Zm-0.7,-0.5l0.6,0.5m-0.6,2.4l0.6,-0.5m7.2,-2.4l-0.6,0.5m0.6,2.4l-0.6,-0.5" class="g12_2" />
<path d="M596.6,959.7l6.5,0c0.1,0,0.2,0.1,0.2,0.3l0,2.6c0,0.1,-0.1,0.2,-0.2,0.2l-6.5,0c-0.1,0,-0.2,-0.1,-0.2,-0.2l0,-2.6c0,-0.2,0.1,-0.3,0.2,-0.3Z" class="g12_2" />
<path fill-rule="evenodd" d="M597.2,960.3l5.4,0c0.1,0,0.1,0.1,0.1,0.1l0,1.8c0,0,0,0.1,-0.1,0.1l-5.4,0c-0.1,0,-0.2,-0.1,-0.2,-0.1l0,-1.8c0,0,0.1,-0.1,0.2,-0.1Z" class="g11_2" />
<path d="M597.2,960.3l5.4,0c0.1,0,0.1,0.1,0.1,0.1l0,1.8c0,0,0,0.1,-0.1,0.1l-5.4,0c-0.1,0,-0.2,-0.1,-0.2,-0.1l0,-1.8c0,0,0.1,-0.1,0.2,-0.1Zm-0.7,-0.5l0.6,0.5m-0.6,2.4l0.6,-0.5m6.1,-2.4l-0.5,0.5m0.5,2.4l-0.5,-0.5" class="g12_2" />
<path d="M596.1,950.1l7.5,0c0.1,0,0.2,0.1,0.2,0.2l0,2.7c0,0.1,-0.1,0.2,-0.2,0.2l-7.5,0c-0.1,0,-0.2,-0.1,-0.2,-0.2l0,-2.7c0,-0.1,0.1,-0.2,0.2,-0.2Z" class="g12_2" />
<path fill-rule="evenodd" d="M596.7,950.7l6.4,0c0.1,0,0.1,0,0.1,0.1l0,1.7c0,0.1,0,0.2,-0.1,0.2l-6.4,0c-0.1,0,-0.2,-0.1,-0.2,-0.2l0,-1.7c0,-0.1,0.1,-0.1,0.2,-0.1Z" class="g11_2" />
<path d="M596.7,950.7l6.4,0c0.1,0,0.1,0,0.1,0.1l0,1.7c0,0.1,0,0.2,-0.1,0.2l-6.4,0c-0.1,0,-0.2,-0.1,-0.2,-0.2l0,-1.7c0,-0.1,0.1,-0.1,0.2,-0.1ZM596,950.2l0.6,0.5m-0.6,2.4l0.6,-0.5m7.1,-2.4l-0.5,0.5m0.5,2.4l-0.5,-0.5" class="g12_2" />
<path d="M621.8,951.1l8.5,0c0.4,0,0.7,0.3,0.7,0.7l0,3.2c0,0.4,-0.3,0.7,-0.7,0.7l-8.5,0c-0.4,0,-0.8,-0.3,-0.8,-0.7l0,-3.2c0,-0.4,0.4,-0.7,0.8,-0.7Z" class="g12_2" />
<path fill-rule="evenodd" d="M630,953.8l0,-1.1c0,-0.3,-0.2,-0.5,-0.5,-0.5l-7,0c-0.3,0,-0.6,0.2,-0.6,0.5l0,1.1Z" class="g13_2" />
<path d="M630,953.8l0,-1.1c0,-0.3,-0.2,-0.5,-0.5,-0.5l-7,0c-0.3,0,-0.6,0.2,-0.6,0.5l0,1.1l8.1,0Zm-0.5,-0.4l0,-0.5c0,-0.2,-0.1,-0.3,-0.2,-0.3l-6.6,0c-0.2,0,-0.3,0.1,-0.3,0.3l0,0.5l7.1,0Zm-7.1,0l-0.5,0.4m7.6,-0.4l0.5,0.4m-8.9,-2.3l9.9,0m-9.9,3.8l9.9,0" class="g12_2" />
<path d="M621.8,957.6l8.5,0c0.4,0,0.7,0.3,0.7,0.7l0,3.2c0,0.4,-0.3,0.7,-0.7,0.7l-8.5,0c-0.4,0,-0.8,-0.3,-0.8,-0.7l0,-3.2c0,-0.4,0.4,-0.7,0.8,-0.7Z" class="g12_2" />
<path fill-rule="evenodd" d="M630,960.3l0,-1.1c0,-0.3,-0.2,-0.5,-0.5,-0.5l-7,0c-0.3,0,-0.6,0.2,-0.6,0.5l0,1.1Z" class="g13_2" />
<path d="M630,960.3l0,-1.1c0,-0.3,-0.2,-0.5,-0.5,-0.5l-7,0c-0.3,0,-0.6,0.2,-0.6,0.5l0,1.1l8.1,0Zm-0.5,-0.5l0,-0.5c0,-0.1,-0.1,-0.2,-0.2,-0.2l-6.6,0c-0.2,0,-0.3,0.1,-0.3,0.2l0,0.5l7.1,0Zm-7.1,0l-0.5,0.5m7.6,-0.5l0.5,0.5M621.1,958l9.9,0m-9.9,3.8l9.9,0" class="g12_2" />
<path d="M546.7,1030.9l0,-0.6l4.9,0l0,0.6m-4.9,2.3l0,18.8l4.9,0l0,-18.8m0,1.2l1.8,0c0,0,0.8,0,0.8,-1.2m-7.5,1.2l-3.3,0c0,0,-0.9,0,-0.9,0.8l0,3.4c0,0,0.1,1.5,1.1,2.5c1.1,0.9,2.2,1,3.1,1m4.9,-0.1l17.4,0" class="g12_2" />
<path d="M546.7,1052l4.9,-0.8m-4.9,-2.1l4.9,-0.8m-4.9,2.3l4.9,-0.8m-4.9,-2.1l4.9,-0.8m-4.9,-0.7l4.9,-0.8m-4.9,-2.1l4.9,-0.8m-4.9,2.3l4.9,-0.8m-4.9,-2.1l4.9,-0.8m-4.9,-0.7l4.9,-0.8m-4.9,-2l4.9,-0.9m-4.9,2.3l4.9,-0.8m-4.9,-2.1l4.9,-0.8m-4.9,-0.6l4.9,-0.9" class="g12_2" />
<path d="M539.6,1054.9l19,0c0.2,0,0.3,0.2,0.3,0.3l0,4.3c0,0.1,-0.1,0.3,-0.3,0.3l-19,0c-0.1,0,-0.2,-0.2,-0.2,-0.3l0,-4.3c0,-0.1,0.1,-0.3,0.2,-0.3Zm1,4.9c4.9,3.5,13,3,17,0m-15.5,-4.9c0.2,-0.1,0.5,-0.2,0.5,-0.7l0,-2.2l13.1,0l0,2.2c0,0,0.1,0.7,0.5,0.7" class="g12_2" />
<path d="M549.5,1054.5l0,5m-1,-5l0,5m-1,-5l0,5m0,-5l0,5m-1,-5l0,5m-1,-5l0,5m-1,-5l0,5m-1,-5l0,5m0,-5l0,5m-1,-5l0,5m-1,-5l0,5m0,-5l0,5m-1,-5l0,5m0,-5l0,5m-1,-5l0,5m1,-5l0,5m10,-5l0,5m1,-5l0,5m1,-5l0,5m0,-5l0,5m1,-5l0,5m1,-5l0,5m1,-5l0,5m0,-5l0,5m1,-5l0,5m1,-5l0,5m0,-5l0,5m1,-5l0,5m0,-5l0,5" class="g12_2" />
<path d="M502.4,940.3l152.3,0c0.5,0,0.9,0.4,0.9,0.9l0,30.7c0,0.5,-0.4,0.9,-0.9,0.9l-152.3,0c-0.5,0,-0.9,-0.4,-0.9,-0.9l0,-30.7c0,-0.5,0.4,-0.9,0.9,-0.9Zm1.4,32.5l149.2,0l0,2.4l-149.2,0l0,-2.4Zm38.3,-19.1l0,5.6l3,0c0,0,2.5,-0.4,2.5,-2.8c0,-2.4,-1.9,-2.8,-2.6,-2.8c-0.6,0,-2.9,0,-2.9,0Z" class="g12_2" />
<path fill-rule="evenodd" d="M542.7,954.4l0,4.2l2.3,0c0,0,1.9,-0.2,1.9,-2.1c0,-1.9,-1.4,-2.1,-1.9,-2.1c-0.5,0,-2.3,0,-2.3,0Z" class="g11_2" />
<path d="M542.7,954.4l0,4.2l2.3,0c0,0,1.9,-0.2,1.9,-2.1c0,-1.9,-1.4,-2.1,-1.9,-2.1c-0.5,0,-2.3,0,-2.3,0Zm0,0l-0.6,-0.7m0,5.6l0.6,-0.7" class="g12_2" />
<path d="M550.8,959.7l6.4,0c0.1,0,0.2,0.1,0.2,0.3l0,2.6c0,0.1,-0.1,0.2,-0.2,0.2l-6.4,0c-0.1,0,-0.2,-0.1,-0.2,-0.2l0,-2.6c0,-0.2,0.1,-0.3,0.2,-0.3Z" class="g12_2" />
<path fill-rule="evenodd" d="M551.3,960.3l5.4,0c0.1,0,0.2,0.1,0.2,0.1l0,1.8c0,0,-0.1,0.1,-0.2,0.1l-5.4,0c-0.1,0,-0.1,-0.1,-0.1,-0.1l0,-1.8c0,0,0,-0.1,0.1,-0.1Z" class="g11_2" />
<path d="M551.3,960.3l5.4,0c0.1,0,0.2,0.1,0.2,0.1l0,1.8c0,0,-0.1,0.1,-0.2,0.1l-5.4,0c-0.1,0,-0.1,-0.1,-0.1,-0.1l0,-1.8c0,0,0,-0.1,0.1,-0.1Zm-0.7,-0.5l0.6,0.5m-0.6,2.4l0.6,-0.5m6.2,-2.4l-0.6,0.5m0.6,2.4l-0.6,-0.5" class="g12_2" />
<path d="M550.3,950.1l7.4,0c0.2,0,0.3,0.1,0.3,0.2l0,2.7c0,0.1,-0.1,0.2,-0.3,0.2l-7.4,0c-0.1,0,-0.2,-0.1,-0.2,-0.2l0,-2.7c0,-0.1,0.1,-0.2,0.2,-0.2Z" class="g12_2" />
<path fill-rule="evenodd" d="M550.8,950.7l6.4,0c0.1,0,0.2,0,0.2,0.1l0,1.7c0,0.1,-0.1,0.2,-0.2,0.2l-6.4,0c-0.1,0,-0.1,-0.1,-0.1,-0.2l0,-1.7c0,-0.1,0,-0.1,0.1,-0.1Z" class="g11_2" />
<path d="M550.8,950.7l6.4,0c0.1,0,0.2,0,0.2,0.1l0,1.7c0,0.1,-0.1,0.2,-0.2,0.2l-6.4,0c-0.1,0,-0.1,-0.1,-0.1,-0.2l0,-1.7c0,-0.1,0,-0.1,0.1,-0.1Zm-0.7,-0.5l0.6,0.5m-0.6,2.4l0.6,-0.5m7.2,-2.4l-0.6,0.5m0.6,2.4l-0.6,-0.5" class="g12_2" />
<path d="M521.5,943.1l8.4,0c1,0,1.9,0.8,1.9,1.9l0,23.2c0,1,-0.9,1.9,-1.9,1.9l-8.4,0c-1.1,0,-1.9,-0.9,-1.9,-1.9l0,-23.2c0,-1.1,0.8,-1.9,1.9,-1.9Zm4.1,1.7c2.3,0,4.1,1.9,4.1,4.1l0,15.6c0,2.3,-1.8,4.1,-4.1,4.1c-2.3,0,-4.1,-1.8,-4.1,-4.1l0,-15.6c0,-2.2,1.8,-4.1,4.1,-4.1Zm-1.8,5.5l3.8,0.8c0.6,0.2,1.1,0.5,1.1,1.2l0,8.8c0,0.6,-0.5,1,-1.1,1.1l-3.8,0.7c-0.7,0.1,-1.2,-0.5,-1.2,-1.1l0,-10.4c0,-0.6,0.6,-1.3,1.2,-1.1Z" class="g12_2" />
<path d="M524.1,950.8l3.2,0.8c0.5,0.1,1,0.4,1,0.9l0,8.4c0,0.5,-0.5,0.8,-1,0.9l-3.2,0.6c-0.6,0.1,-1,-0.4,-1,-0.9l0,-9.7c0,-0.5,0.4,-1.1,1,-1Zm0.1,9c0.2,0,0.3,0.1,0.3,0.3c0,0.1,-0.1,0.3,-0.3,0.3c-0.2,0,-0.3,-0.2,-0.3,-0.3c0,-0.2,0.1,-0.3,0.3,-0.3Zm0,-1.7c0.2,0,0.3,0.1,0.3,0.3c0,0.1,-0.1,0.3,-0.3,0.3c-0.2,0,-0.3,-0.2,-0.3,-0.3c0,-0.2,0.1,-0.3,0.3,-0.3Zm0,-1.7c0.2,0,0.3,0.1,0.3,0.3c0,0.1,-0.1,0.3,-0.3,0.3c-0.2,0,-0.3,-0.2,-0.3,-0.3c0,-0.2,0.1,-0.3,0.3,-0.3Zm0,-1.8c0.2,0,0.3,0.1,0.3,0.3c0,0.2,-0.1,0.3,-0.3,0.3c-0.2,0,-0.3,-0.1,-0.3,-0.3c0,-0.2,0.1,-0.3,0.3,-0.3Zm0,-1.8c0.2,0,0.3,0.2,0.3,0.4c0,0.1,-0.1,0.3,-0.3,0.3c-0.2,0,-0.3,-0.2,-0.3,-0.3c0,-0.2,0.1,-0.4,0.3,-0.4Zm1.5,-0.8c0.2,0,0.3,0.1,0.3,0.3c0,0.2,-0.1,0.3,-0.3,0.3c-0.2,0,-0.3,-0.1,-0.3,-0.3c0,-0.2,0.1,-0.3,0.3,-0.3Zm0,1.7c0.2,0,0.3,0.1,0.3,0.3c0,0.2,-0.1,0.3,-0.3,0.3c-0.2,0,-0.3,-0.1,-0.3,-0.3c0,-0.2,0.1,-0.3,0.3,-0.3Zm0,1.7c0.2,0,0.3,0.2,0.3,0.4c0,0.1,-0.1,0.3,-0.3,0.3c-0.2,0,-0.3,-0.2,-0.3,-0.3c0,-0.2,0.1,-0.4,0.3,-0.4Zm0,1.7c0.2,0,0.3,0.2,0.3,0.4c0,0.1,-0.1,0.3,-0.3,0.3c-0.2,0,-0.3,-0.2,-0.3,-0.3c0,-0.2,0.1,-0.4,0.3,-0.4Zm0,1.8c0.2,0,0.3,0.1,0.3,0.3c0,0.2,-0.1,0.3,-0.3,0.3c-0.2,0,-0.3,-0.1,-0.3,-0.3c0,-0.2,0.1,-0.3,0.3,-0.3Zm1.5,0.9c0.2,0,0.3,0.1,0.3,0.3c0,0.1,-0.1,0.3,-0.3,0.3c-0.2,0,-0.3,-0.2,-0.3,-0.3c0,-0.2,0.1,-0.3,0.3,-0.3Zm0,-1.7c0.2,0,0.3,0.1,0.3,0.3c0,0.1,-0.1,0.3,-0.3,0.3c-0.2,0,-0.3,-0.2,-0.3,-0.3c0,-0.2,0.1,-0.3,0.3,-0.3Zm0,-1.8c0.2,0,0.3,0.1,0.3,0.3c0,0.2,-0.1,0.3,-0.3,0.3c-0.2,0,-0.3,-0.1,-0.3,-0.3c0,-0.2,0.1,-0.3,0.3,-0.3Zm0,-1.7c0.2,0,0.3,0.1,0.3,0.3c0,0.2,-0.1,0.3,-0.3,0.3c-0.2,0,-0.3,-0.1,-0.3,-0.3c0,-0.2,0.1,-0.3,0.3,-0.3Zm0,-1.8c0.2,0,0.3,0.2,0.3,0.4c0,0.1,-0.1,0.3,-0.3,0.3c-0.2,0,-0.3,-0.2,-0.3,-0.3c0,-0.2,0.1,-0.4,0.3,-0.4Zm-3.3,-6.7l1.8,-1l1.8,1l0,2.1l-1.8,1.1l-1.8,-1.2l0,-2Zm1.8,-0.6c0.9,0,1.7,0.7,1.7,1.7c0,0.9,-0.8,1.6,-1.7,1.6c-0.9,0,-1.7,-0.7,-1.7,-1.6c0,-1,0.8,-1.7,1.7,-1.7Zm0,0.6c0.6,0,1.1,0.5,1.1,1.1c0,0.6,-0.5,1,-1.1,1c-0.6,0,-1.1,-0.4,-1.1,-1c0,-0.6,0.5,-1.1,1.1,-1.1Zm0,0.4c0.3,0,0.6,0.3,0.6,0.7c0,0.3,-0.3,0.6,-0.6,0.6c-0.3,0,-0.6,-0.3,-0.6,-0.6c0,-0.4,0.3,-0.7,0.6,-0.7Z" class="g12_2" />
<path d="M523.9,965l1.8,-1.1l1.8,1l0,2.1l-1.8,1.1L523.9,967l0,-2Z" class="g12_2" />
<path d="M525.7,964.3c0.9,0,1.7,0.8,1.7,1.7c0,0.9,-0.8,1.7,-1.7,1.7c-0.9,0,-1.7,-0.8,-1.7,-1.7c0,-0.9,0.8,-1.7,1.7,-1.7Zm0,0.6c0.6,0,1.1,0.5,1.1,1.1c0,0.6,-0.5,1.1,-1.1,1.1c-0.6,0,-1.1,-0.5,-1.1,-1.1c0,-0.6,0.5,-1.1,1.1,-1.1Zm0,0.5c0.3,0,0.6,0.3,0.6,0.6c0,0.3,-0.3,0.6,-0.6,0.6c-0.3,0,-0.6,-0.3,-0.6,-0.6c0,-0.3,0.3,-0.6,0.6,-0.6Z" class="g12_2" />
<path d="M559.3,993.7c0.3,0,0.6,0.3,0.6,0.6c0,0.3,-0.3,0.6,-0.6,0.6c-0.3,0,-0.6,-0.3,-0.6,-0.6c0,-0.3,0.3,-0.6,0.6,-0.6Zm38.6,0c0.4,0,0.6,0.3,0.6,0.6c0,0.3,-0.2,0.6,-0.6,0.6c-0.3,0,-0.6,-0.3,-0.6,-0.6c0,-0.3,0.3,-0.6,0.6,-0.6Zm-38.6,1.2l0,26.3c0,2.6,1.7,3.9,3.6,3.9l30.8,0c2.3,0,4.1,-1.1,4.1,-4l0,-26.2m-38.5,7.6l38.5,0m-38.5,-2.4l38.5,0m12.6,30.8l0,-0.6l-4.9,0l0,0.6m4.9,2.3l0,18.8l-4.9,0l0,-18.8m0,1.2l-1.8,0c0,0,-0.8,0,-0.8,-1.2m7.5,1.2l3.3,0c0,0,0.9,0,0.9,0.8l0,3.4c0,0,-0.1,1.5,-1.1,2.5c-1,0.9,-2.2,1,-3.1,1m-4.9,-0.1l-17.2,0" class="g12_2" />
<path d="M605.5,1052l4.9,-0.8m-4.9,-2.1l4.9,-0.8m-4.9,2.3l4.9,-0.8m-4.9,-2.1l4.9,-0.8m-4.9,-0.7l4.9,-0.8m-4.9,-2.1l4.9,-0.8m-4.9,2.3l4.9,-0.8m-4.9,-2.1l4.9,-0.8m-4.9,-0.7l4.9,-0.8m-4.9,-2l4.9,-0.9m-4.9,2.3l4.9,-0.8m-4.9,-2.1l4.9,-0.8m-4.9,-0.6l4.9,-0.9" class="g12_2" />
<path d="M617.5,1054.9l-19,0c-0.2,0,-0.3,0.2,-0.3,0.3l0,4.3c0,0.1,0.1,0.3,0.3,0.3l19,0c0.1,0,0.3,-0.2,0.3,-0.3l0,-4.3c0,-0.1,-0.2,-0.3,-0.3,-0.3Zm-1,4.9c-4.9,3.5,-13,3,-17,0m15.5,-4.9c-0.2,-0.1,-0.5,-0.2,-0.5,-0.7l0,-2.2l-13.1,0l0,2.2c0,0,0,0.7,-0.5,0.7" class="g12_2" />
<path d="M607.5,1054.5l0,5m1,-5l0,5m1,-5l0,5m1,-5l0,5m0,-5l0,5m1,-5l0,5m1,-5l0,5m1,-5l0,5m0,-5l0,5m1,-5l0,5m1,-5l0,5m0,-5l0,5m1,-5l0,5m0,-5l0,5m1,-5l0,5m0,-5l0,5m-11,-5l0,5m-1,-5l0,5m0,-5l0,5m-1,-5l0,5m-1,-5l0,5m-1,-5l0,5m0,-5l0,5m-1,-5l0,5m-1,-5l0,5m-1,-5l0,5m0,-5l0,5m-1,-5l0,5m0,-5l0,5" class="g12_2" />
<path d="M542.5,1033.2l72.4,0l0,-2.2l-72.4,0l0,2.2Zm26.5,0l19.3,0l0,12.6l-19.3,0l0,-12.6ZM542.5,1031l0,-55.8m72.4,55.8l0,-55.8" class="g12_2" />
<path d="M501.5,933.5l154,0m-154,-2l0,4m154,-4l0,4m-161,5l0,34m2,-34l-4,0m4,34l-4,0m47,94l78,0m-78,-2l0,4m78,-4l0,4" class="g14_2" />
<path d="M744,979.4l47.7,0c0,0,8,0,8,8l0,50.8l-2.4,0l0,-50.4c0,0,-0.1,-6.1,-5.5,-6.1l-47.8,0l0,-2.3Zm53.3,27.5c0,0,-2,2.1,-5.5,2.1l-20.8,0l0,-2.4l20.9,0c0,0,5.4,0,5.4,-4.9m-21.9,36.5l0,2.4l23.4,0c1.4,0,2.2,-0.6,2.7,-1c0.4,-0.4,0.9,-0.9,0.9,-2.3l0,-4.5l-2.3,0l0,4.6c0,0,0,0.6,-0.6,0.8c-0.7,0.1,-24.1,0,-24.1,0Zm3.8,-0.1l0,-0.7l4.9,0l0,0.7m-4.9,2.5l0,18.9l4.9,0l0,-18.9" class="g12_2" />
<path d="M779.2,1058.8l4.9,-0.8m-4.9,-2.1l4.9,-0.8m-4.9,2.2l4.9,-0.8m-4.9,-2.1l4.9,-0.8m-4.9,-0.6l4.9,-0.9m-4.9,-2l4.9,-0.9m-4.9,2.3l4.9,-0.8m-4.9,-2.1l4.9,-0.8m-4.9,-0.7l4.9,-0.8m-4.9,-2.1l4.9,-0.8m-4.9,2.3l4.9,-0.8m-4.9,-2.1l4.9,-0.8m-4.9,-0.7l4.4,-0.7m-3.4,-2.5l3.9,-0.7" class="g12_2" />
<g clip-path="url(#c0_2)">
<path d="M772.1,1062.4l19.1,0c0.2,0,0.3,0.2,0.3,0.3l0,4.3c0,0.2,-0.1,0.3,-0.3,0.3l-19.1,0c-0.2,0,-0.3,-0.1,-0.3,-0.3l0,-4.3c0,-0.1,0.1,-0.3,0.3,-0.3Zm1,4.9c4.9,3.6,13.1,3.1,17.1,0m-15.6,-4.9c0.2,-0.1,0.5,-0.2,0.5,-0.6l0,-2.3l13.2,0l0,2.3c0,0,0,0.6,0.5,0.6" class="g12_2" />
</g>
<path d="M782.5,1062.5l0,5m-1,-5l0,5m-1,-5l0,5m-1,-5l0,5m-1,-5l0,5m0,-5l0,5m-1,-5l0,5m-1,-5l0,5m-1,-5l0,5m0,-5l0,5m-1,-5l0,5m-1,-5l0,5m0,-5l0,5m-1,-5l0,5m0,-5l0,5m0,-5l0,5m10,-5l0,5m1,-5l0,5m1,-5l0,5m1,-5l0,5m1,-5l0,5m0,-5l0,5m1,-5l0,5m1,-5l0,5m1,-5l0,5m0,-5l0,5m1,-5l0,5m0,-5l0,5m1,-5l0,5" class="g12_2" />
<path d="M793.6,1040.6c0.4,0,0.8,0.3,0.8,0.7l0,8.7c0,0,0.1,3.2,3.2,3.2l4.7,0l0,-2.3l-4.7,0c0,0,-0.8,-0.1,-0.8,-0.9l0,-8.7c0,0,-0.1,-0.4,-0.3,-0.7m0.8,0l0,8.9l2.4,0l0,-9m-0.1,1.2l-2.3,0M794.5,969l39.6,0m-39.6,7.4l39.6,0m-42.4,2.7l2.8,0l0,-10.7l-0.9,-1.1l-1.9,0l0,11.8Zm1.9,-11.8l0,11.8m-57.1,-0.2c0,0.2,0.3,0.5,0.7,0.5l53.8,0c0,0,0.6,-0.1,0.6,-0.6l0,-31.1c0,-0.6,-0.5,-1.3,-1.6,-1.3l-52.9,0c0,0,-0.6,0.1,-0.6,0.5c0,0.5,0,32,0,32Zm97,-15.1c1.3,1.8,1.1,3.6,0.7,5.1c-0.4,1.5,-1.5,3.7,0,7.2c1.5,3.5,-0.1,6,-0.1,6" class="g12_2" />
<path d="M736.5,940.5l55,0m-55,-2l0,4m55,-4l0,4m-55,-21l63,0m-63,-2l0,3m63,-3l0,3m-69,57l0,27m1,-27l-3,0m3,27l-3,0" class="g14_2" />
<path d="M770.5,1012.5l0,59" class="g15_2" />
<path d="M799.5,926.5l0,38" class="g16_2" />
<path d="M770.5,1074.5l25,0m-25,-2l0,4m25,-4l0,4m-33,-39l0,-28m-2,28l3,0m-3,-28l3,0" class="g14_2" />
</svg>