<?xml version="1.0" encoding="UTF-8" standalone="no"?>
<!DOCTYPE svg PUBLIC "-//W3C//DTD SVG 1.1//EN"
"http://www.w3.org/Graphics/SVG/1.1/DTD/svg11.dtd">
<svg version="1.1" xmlns="http://www.w3.org/2000/svg" xmlns:xlink="http://www.w3.org/1999/xlink">
<defs>
<clipPath id="c0_4"><path d="M775.5,1155.5l0,-68l84,0l0,68Z" /></clipPath>
<style type="text/css"><![CDATA[
.g6_4{
fill: #FFFFFF;
}
.g9_4{
fill: #AFAFB1;
}
.g5_4{
fill: none;
stroke: #65666A;
stroke-width: 1;
stroke-linecap: butt;
stroke-linejoin: miter;
stroke-miterlimit: 4;
}
.g8_4{
fill: none;
stroke: #FFFFFF;
stroke-width: 1;
stroke-linecap: butt;
stroke-linejoin: miter;
stroke-dasharray: 2,2;
}
.g3_4{
fill: #FBFCFD;
}
.g7_4{
fill: none;
stroke: #65666A;
stroke-width: 1;
stroke-linecap: butt;
stroke-linejoin: miter;
stroke-dasharray: 2,2;
}
.g4_4{
fill: none;
stroke: #64666A;
stroke-width: 1;
stroke-linecap: butt;
stroke-linejoin: miter;
}
.g2_4{
fill: none;
stroke: #FFFFFF;
stroke-width: 1;
stroke-linecap: round;
stroke-linejoin: round;
stroke-miterlimit: 2;
}
.g1_4{
fill: none;
stroke: #64666A;
stroke-width: 1;
stroke-linecap: round;
stroke-linejoin: round;
stroke-miterlimit: 2;
}
]]></style>
</defs>
<path d="M385.2,863.6l7.2,0c0,0,1.6,-1.5,0,-3.1m0,0l-7.2,0m0,9.1l9.4,0c0.9,0,1.1,-0.7,1.1,-1.2c0,-0.5,-0.4,-1.1,-1.1,-1.1l-9.4,0m0,4.6l0,-12.9l-12.4,0c0,0,-0.6,0,-1.1,0.5c-0.5,0.4,-1.8,1.2,-2.8,1.6m16.3,10.8l-12.2,0c0,0,-0.6,-0.1,-0.7,-0.6c-0.1,-0.6,-0.6,-3.4,-0.6,-3.4c0,0,-0.2,-0.6,-0.7,-0.7c-0.6,0,-7.8,-0.9,-7.8,-0.9l0,-6.1l9.1,-1.1m-9.1,1.8l-68.9,0m68.9,4.7l-68.9,0m-1.1,-7.1l1,0l0,9.5l-1,0m0,3.7l0,-40.5m0.7,40.6l0,5.4c0,0,-0.1,0.8,-1,0.8l-113.4,0c0,0,-0.9,-0.2,-0.9,-1l0,-5.2l26.3,0l0,0.7c0,0.3,0.5,0.5,0.5,0l0,-0.7l21.9,0l0,0.7c0,0.4,0.4,0.5,0.4,0.1l0,-0.9l17.1,0l0,0.8c0,0.4,0.4,0.5,0.4,0l0,-0.7l21.9,0l0,0.9c0,0.3,0.5,0.4,0.5,0l0,-1l26.3,0.1Zm-6.8,0l0,-72.6M179.3,871.8l0,-40.5m0,-1.3l0,-3.7m0,-9.4l0,-17.9m-0.9,-6.2l0,6.2l115.7,0l0,-6.2m4.9,0l0,-0.4c0,0,0.1,-0.7,-0.8,-0.7l-123.9,0c0,0,-0.9,0,-0.9,0.7m0,0l0,0.4l125.6,0M281.6,794c-1.1,0,-1.9,0.8,-1.9,1.9c0,1.1,0.8,1.9,1.9,1.9c1,0,1.9,-0.8,1.9,-1.9c0,-1.1,-0.9,-1.9,-1.9,-1.9Zm-45.4,0c-1,0,-1.9,0.8,-1.9,1.9c0,1.1,0.9,1.9,1.9,1.9c1.1,0,1.9,-0.8,1.9,-1.9c0,-1.1,-0.8,-1.9,-1.9,-1.9Zm0.6,1.9l-0.3,0.4l-0.5,0l-0.3,-0.4l0.3,-0.5l0.5,0l0.3,0.5ZM190.9,794c-1,0,-1.9,0.8,-1.9,1.9c0,1.1,0.9,1.9,1.9,1.9c1.1,0,2,-0.8,2,-1.9c0,-1.1,-0.9,-1.9,-2,-1.9Zm0.6,1.9l-0.3,0.4l-0.5,0l-0.3,-0.4l0.3,-0.5l0.6,0l0.2,0.5Zm90.6,0l-0.3,0.4l-0.5,0L281,795.9l0.3,-0.5l0.6,0l0.2,0.5Zm103.1,71l-12.4,-0.2c0,0,-0.5,-0.1,-1.1,-0.3c-0.7,-0.2,-2.4,-0.9,-2.6,-1c-0.2,-0.1,-0.3,-0.3,0.1,-0.6c0.4,-0.3,0.8,-0.7,0.8,-1.6c0,-0.9,-0.8,-1.6,-1,-1.8c-0.3,-0.1,-0.4,-0.2,-0.1,-0.3M385.2,861l-12.3,0c0,0,-2.4,0,-4.1,0.3m16.4,4.2l-12.4,0c0,0,-1.8,0.1,-3.6,-0.4m3.5,-3.5l0,3.3M391,861.3c-0.4,0,-0.8,0.3,-0.8,0.7c0,0.4,0.4,0.8,0.8,0.8c0.4,0,0.8,-0.4,0.8,-0.8c0,-0.4,-0.4,-0.7,-0.8,-0.7ZM184.4,816.9l-6.2,0l0,0.6l6.2,0l0,-0.6Zm0,0.6l0,7.9c0,0,0,0.9,-0.6,0.9l-1.4,0m-4.2,-8.7l0,7.9c0,0,0,0.8,0.7,0.8l1.4,0m3.2,4.1c0,0,0,-0.3,-0.3,-0.3l-3.9,0c0,0,-0.5,0,-0.5,0.3c0,0.3,0,0.4,0.2,0.6c0.1,0.1,0.8,0.6,1.9,0.7c1.1,0.1,2.2,-0.5,2.4,-0.6c0.2,-0.2,0.2,-0.3,0.2,-0.7Zm-1.4,-0.3l0,-12.5m-1.7,12.5l0,-12.4m1.7,-0.9l0,-11.8m-1.7,11.8l0,-11.9l1.7,0.1m0,0.6l-1.7,-0.5m1.7,1.3l-1.7,-0.5m1.7,1.2l-1.7,-0.5m1.7,1.3l-1.7,-0.5m1.7,1.3l-1.7,-0.5m1.7,1.2l-1.7,-0.5m1.7,1.3l-1.7,-0.5m1.7,1.3l-1.7,-0.6m1.7,1.3l-1.7,-0.5m1.7,1.3L180.4,812m1.7,1.2l-1.7,-0.5m1.7,1.3l-1.7,-0.5m1.7,1.3l-1.7,-0.5m1.7,1.3L180.4,815m1.7,1.3l-1.7,-0.5m1.2,1.1l-1.2,-0.3m1.7,2.1l-1.7,-0.5m1.7,1.3L180.4,819m1.7,1.2l-1.7,-0.5m1.7,1.3l-1.7,-0.5m1.7,1.3l-1.7,-0.5m1.7,1.2L180.4,822m1.7,1.3l-1.7,-0.5m1.7,1.2l-1.7,-0.5m1.7,1.3l-1.7,-0.5m1.7,1.3l-1.7,-0.5m1.7,1.2l-1.7,-0.5m1.7,1.3l-1.7,-0.5m1.7,1.3l-1.7,-0.5m1.7,1.2l-1.7,-0.5m1.7,1.3l-1.7,-0.5m1.3,1.1l-1.3,-0.4M182.1,818l-1.3,-0.4m1.3,3.3c0.6,-0.3,0.9,-0.8,0.9,-1.4c0,-0.7,-0.3,-1.2,-0.9,-1.5m-1.7,0.1c-0.4,0.3,-0.7,0.8,-0.7,1.4c0,0.5,0.3,0.9,0.7,1.2m1.7,-7.6c0.6,-0.3,0.9,-0.9,0.9,-1.5c0,-0.6,-0.3,-1.2,-0.9,-1.5m-1.7,0.2c-0.4,0.3,-0.7,0.8,-0.7,1.3c0,0.5,0.3,1,0.7,1.3M293.2,830l0,-3.7m0,-9.4l0,-17.9m-5.1,17.9l6.2,0l0,0.6l-6.2,0l0,-0.6Zm0,0.6l-0.1,7.9c0,0,0.1,0.9,0.7,0.9l1.4,0m4.2,-8.7l0,7.9c0,0,0,0.8,-0.7,0.8l-1.4,0m-3.2,4.1c0,0,0,-0.3,0.3,-0.3l3.9,0c0,0,0.5,0,0.5,0.3c0,0.3,0,0.4,-0.2,0.6c-0.1,0.1,-0.8,0.6,-1.9,0.7c-1.1,0.1,-2.2,-0.5,-2.4,-0.6c-0.2,-0.2,-0.3,-0.3,-0.2,-0.7Zm1.3,-0.3l0.1,-12.5m1.8,12.5l0,-12.4m-1.8,-0.9l0,-11.8m1.8,11.8l0,-11.9l-1.7,0.1m-0.1,0.6l1.7,-0.5m-1.7,1.3l1.7,-0.5m-1.7,1.2l1.7,-0.5m-1.7,1.3l1.7,-0.5m-1.7,1.3l1.7,-0.5m-1.7,1.2l1.7,-0.5m-1.7,1.3l1.7,-0.5m-1.7,1.3l1.7,-0.6m-1.7,1.3l1.7,-0.5m-1.7,1.3l1.7,-0.5m-1.7,1.2l1.7,-0.5m-1.7,1.3l1.7,-0.5m-1.7,1.3l1.7,-0.5m-1.7,1.3l1.7,-0.6m-1.7,1.3l1.7,-0.5m-1.2,1.1l1.2,-0.3m-1.7,2.1l1.7,-0.5m-1.7,1.3l1.7,-0.5m-1.7,1.2l1.7,-0.5m-1.7,1.3l1.7,-0.5m-1.7,1.3l1.7,-0.5m-1.7,1.2l1.7,-0.5m-1.7,1.3l1.7,-0.5m-1.7,1.2l1.7,-0.5m-1.7,1.3l1.7,-0.5m-1.7,1.3l1.7,-0.5m-1.7,1.2l1.7,-0.5m-1.7,1.3l1.7,-0.5m-1.7,1.3l1.7,-0.5m-1.7,1.2l1.7,-0.5m-1.7,1.3l1.7,-0.5m-1.3,1.1l1.3,-0.4M290.4,818l1.2,-0.4m-1.3,3.3c-0.5,-0.3,-0.8,-0.8,-0.8,-1.4c0,-0.7,0.3,-1.2,0.9,-1.5m1.8,0.2c0.3,0.3,0.5,0.8,0.5,1.3c0,0.5,-0.2,0.9,-0.6,1.2m-1.8,-7.6c-0.5,-0.3,-0.8,-0.9,-0.8,-1.5c0,-0.6,0.3,-1.2,0.9,-1.5m1.7,0.2c0.4,0.3,0.6,0.8,0.6,1.3c0,0.5,-0.2,1,-0.6,1.3m-2.6,-21.2l0,-33.9c0,0,0.1,-1.1,-0.9,-1.1l-104.4,0c0,0,-1.1,0.1,-1.1,1.1l0,33.9m1.7,0l0,-3.9l-1,0c0,0,-0.7,0,-0.7,-0.6m104.7,4.5l0,-3.9l1.1,0c0,0,0.6,0,0.6,-0.6m8.6,-142.7l-123.6,0c-0.6,0,-1.1,0.5,-1.1,1.1l0,60.5c0,0.6,0.5,1.1,1.1,1.1l123.6,0c0.6,0,1,-0.5,1,-1.1l0,-60.5c0,-0.6,-0.4,-1.1,-1,-1.1Zm-9,8.2l-105.8,0c-0.1,0,-0.2,0.1,-0.2,0.2l0,1.1c0,0.2,0.1,0.3,0.2,0.3l105.8,0c0.2,0,0.3,-0.1,0.3,-0.3l0,-1.1c0,-0.1,-0.1,-0.2,-0.3,-0.2Zm-6.2,12.4l-67.2,0c-0.2,0,-0.4,0.2,-0.4,0.4l0,20.8c0,0.2,0.2,0.3,0.4,0.3l67.2,0c0.2,0,0.4,-0.1,0.4,-0.3l0,-20.8c0,-0.2,-0.2,-0.4,-0.4,-0.4Zm-15.7,6.8l-5.7,0c-0.2,0,-0.3,0.2,-0.3,0.3l0,2.2c0,0.2,0.1,0.3,0.3,0.3l5.7,0c0.2,0,0.3,-0.1,0.3,-0.3l0,-2.2c0,-0.1,-0.1,-0.3,-0.3,-0.3Zm-0.4,1.1l-4.9,0c-0.1,0,-0.2,0.1,-0.2,0.2l0,0.8c0,0,0.1,0.1,0.2,0.1l4.9,0c0.1,0,0.2,-0.1,0.2,-0.1l0,-0.8c0,-0.1,-0.1,-0.2,-0.2,-0.2Zm-0.1,0.4l-4.7,0l0,0.4l4.7,0l0,-0.4Zm0.5,2.8l-5.7,0c-0.2,0,-0.3,0.1,-0.3,0.3l0,2.2c0,0.2,0.1,0.3,0.3,0.3l5.7,0c0.2,0,0.3,-0.1,0.3,-0.3l0,-2.2c0,-0.2,-0.1,-0.3,-0.3,-0.3Zm-0.4,1.1l-4.9,0c-0.1,0,-0.2,0.1,-0.2,0.2l0,0.8c0,0,0.1,0.1,0.2,0.1l4.9,0c0.1,0,0.2,-0.1,0.2,-0.1l0,-0.8c0,-0.1,-0.1,-0.2,-0.2,-0.2Zm-0.1,0.4l-4.7,0l0,0.4l4.7,0l0,-0.4Zm-16.5,0l-4.8,0c-0.1,0,-0.2,0.1,-0.2,0.2l0,1.7c0,0.1,0.1,0.2,0.2,0.2l4.8,0c0.1,0,0.2,-0.1,0.2,-0.2l0,-1.7c0,-0.1,-0.1,-0.2,-0.2,-0.2Zm-0.4,0.4l-4,0c-0.1,0,-0.2,0.1,-0.2,0.1l0,1.1c0,0.1,0.1,0.1,0.2,0.1l4,0c0.1,0,0.2,0,0.2,-0.1l0,-1.1c0,0,-0.1,-0.1,-0.2,-0.1Zm0,-6.6l-4,0c-0.1,0,-0.2,0,-0.2,0.2l0,1.6c0,0.1,0.1,0.2,0.2,0.2l4,0c0.1,0,0.2,-0.1,0.2,-0.2l0,-1.6c0,-0.2,-0.1,-0.2,-0.2,-0.2Zm-0.4,0.3l-3.3,0c-0.1,0,-0.1,0.1,-0.1,0.2l0,1c0,0.1,0,0.2,0.1,0.2l3.3,0c0.1,0,0.2,-0.1,0.2,-0.2l0,-1c0,-0.1,-0.1,-0.2,-0.2,-0.2Zm-9.3,2l0,3.6l2,0c0,0,1.6,-0.2,1.6,-1.7c0,-1.5,-0.9,-1.9,-1.6,-1.9c-0.7,0,-2,0,-2,0Zm0.4,0.4l0,2.8l1.5,0c0,0,1.3,-0.2,1.3,-1.3c0,-1.2,-0.7,-1.5,-1.3,-1.5c-0.5,0,-1.5,0,-1.5,0Zm-5.3,3.5l-4.7,0c-0.2,0,-0.3,0.1,-0.3,0.2l0,1.7c0,0.1,0.1,0.2,0.3,0.2l4.7,0c0.1,0,0.2,-0.1,0.2,-0.2l0,-1.7c0,-0.1,-0.1,-0.2,-0.2,-0.2Zm-0.3,0.4l-4.1,0c-0.1,0,-0.1,0.1,-0.1,0.1l0,1.1c0,0.1,0,0.1,0.1,0.1l4.1,0c0,0,0.1,0,0.1,-0.1l0,-1.1c0,0,-0.1,-0.1,-0.1,-0.1Zm-0.1,-6.6l-4,0c-0.1,0,-0.2,0,-0.2,0.2l0,1.6c0,0.1,0.1,0.2,0.2,0.2l4,0c0.1,0,0.2,-0.1,0.2,-0.2l0,-1.6c0,-0.2,-0.1,-0.2,-0.2,-0.2Zm-0.3,0.3l-3.4,0c0,0,-0.1,0.1,-0.1,0.2l0,1c0,0.1,0.1,0.2,0.1,0.2l3.4,0c0,0,0.1,-0.1,0.1,-0.2l0,-1c0,-0.1,-0.1,-0.2,-0.1,-0.2Zm-9.4,2l0,3.6l2,0c0,0,1.6,-0.2,1.6,-1.7c0.1,-1.5,-0.9,-1.9,-1.6,-1.9c-0.7,0,-2,0,-2,0Zm0.4,0.4l0,2.8l1.6,0c0,0,1.2,-0.2,1.2,-1.3c0,-1.2,-0.7,-1.5,-1.2,-1.5c-0.6,0,-1.6,0,-1.6,0Zm-19.3,-12l-7.4,0c-0.5,0,-0.8,0.3,-0.8,0.8l0,25.6c0,0.4,0.3,0.8,0.8,0.8l7.4,0c0.4,0,0.7,-0.4,0.7,-0.8l0,-25.6c0,-0.5,-0.3,-0.8,-0.7,-0.8Zm-3.8,1c-0.7,0,-1.2,0.6,-1.2,1.2c0,0.7,0.5,1.2,1.2,1.2c0.7,0,1.2,-0.5,1.2,-1.2c0,-0.6,-0.5,-1.2,-1.2,-1.2Zm0.3,0.7l0.3,0.6l-0.3,0.5l-0.6,0l-0.4,-0.5l0.4,-0.6l0.6,0Zm-0.3,22c-0.7,0,-1.2,0.5,-1.2,1.2c0,0.7,0.5,1.2,1.2,1.2c0.7,0,1.2,-0.5,1.2,-1.2c0,-0.7,-0.5,-1.2,-1.2,-1.2Zm0.3,0.7l0.3,0.5l-0.3,0.6l-0.6,0l-0.4,-0.6l0.4,-0.5l0.6,0Zm-5.5,-24.4l-7.4,0c-0.4,0,-0.8,0.3,-0.8,0.8l0,25.6c0,0.4,0.4,0.8,0.8,0.8l7.4,0c0.4,0,0.8,-0.4,0.8,-0.8L198,663c0,-0.5,-0.4,-0.8,-0.8,-0.8Zm-3.8,1c-0.6,0,-1.2,0.6,-1.2,1.2c0,0.7,0.6,1.2,1.2,1.2c0.7,0,1.2,-0.5,1.2,-1.2c0,-0.6,-0.5,-1.2,-1.2,-1.2Zm0.3,0.7l0.4,0.6l-0.4,0.5l-0.6,0l-0.3,-0.5l0.3,-0.6l0.6,0Zm-0.3,22c-0.6,0,-1.2,0.5,-1.2,1.2c0,0.7,0.6,1.2,1.2,1.2c0.7,0,1.2,-0.5,1.2,-1.2c0,-0.7,-0.5,-1.2,-1.2,-1.2Zm0.3,0.7l0.4,0.5l-0.4,0.6l-0.6,0l-0.3,-0.6l0.3,-0.5l0.6,0ZM183.1,654l-0.2,0.5l0,42.7c0,0,-0.1,0.5,0.5,0.5l105.6,0c0,0,0.6,0,0.6,-0.6l0,-43.1l-0.2,0l0,2.9l-1.7,0l0,-2.6m-102.9,0l0,2.5l-1.7,0l0,-2.6m-0.2,34.1l1.7,0l0,3l-1.7,0m106.7,-3l-1.8,0l0,3l1.8,0m4.7,-46.8l0,-3c0,0,-0.1,-0.7,-0.7,-0.7l-4.8,0c0,0,-0.8,0.1,-0.8,0.7l0,3m4.9,0c0,-0.2,0.1,-0.4,0.1,-0.6c0,-1,-0.8,-1.8,-1.9,-1.8c-1,0,-1.8,0.8,-1.8,1.8c0,0.2,0,0.4,0.1,0.6m2.7,-0.1c0.1,-0.1,0.1,-0.3,0.1,-0.5c0,-0.6,-0.4,-1.1,-1.1,-1.1c-0.6,0,-1.1,0.5,-1.1,1.1c0,0.2,0.1,0.4,0.2,0.6m-105.7,0l0,-3c0,0,-0.1,-0.7,-0.7,-0.7l-4.8,0c0,0,-0.8,0.1,-0.8,0.7l0,3m4.9,0c0.1,-0.2,0.1,-0.4,0.1,-0.6c0,-1,-0.8,-1.8,-1.8,-1.8c-1.1,0,-1.9,0.8,-1.9,1.8c0,0.2,0.1,0.4,0.1,0.6m2.7,-0.1c0.1,-0.1,0.2,-0.3,0.2,-0.5c0,-0.6,-0.5,-1.1,-1.1,-1.1c-0.7,0,-1.1,0.5,-1.1,1.1c0,0.2,0,0.4,0.1,0.6m-2.2,62.7l0,3.1c0,0,0.1,0.6,0.7,0.6l4.8,0c0,0,0.8,-0.1,0.8,-0.7l0,-3m-4.9,0c-0.1,0.2,-0.1,0.4,-0.1,0.6c0,1,0.8,1.8,1.8,1.8c1.1,0,1.9,-0.8,1.9,-1.8c0,-0.2,-0.1,-0.4,-0.1,-0.6m-2.7,0.1c-0.1,0.1,-0.2,0.3,-0.2,0.5c0,0.6,0.5,1.1,1.1,1.1c0.6,0,1.1,-0.5,1.1,-1.1c0,-0.2,0,-0.4,-0.1,-0.6m105.7,0l0,3.1c0,0,0.1,0.6,0.7,0.6l4.8,0c0,0,0.8,-0.1,0.8,-0.7l0,-3m-4.9,0c-0.1,0.2,-0.1,0.4,-0.1,0.6c0,1,0.8,1.8,1.8,1.8c1,0,1.9,-0.8,1.9,-1.8c0,-0.2,-0.1,-0.4,-0.1,-0.6m-2.7,0.1c-0.1,0.1,-0.2,0.3,-0.2,0.5c0,0.6,0.5,1.1,1.1,1.1c0.6,0,1.1,-0.5,1.1,-1.1c0,-0.2,0,-0.4,-0.1,-0.6m7,-17.8l64.1,0m-64.1,4.7l64.1,0m6.5,-6.2l-6.5,0.9l0,5.9l6.6,0.9m-0.6,-7c0.5,-0.7,2.3,-3.1,5.7,-3.1l10.2,0l0,12.5l-10.5,0c0,0,-3.3,0.1,-5.4,-3.1m15.9,-5.6l-10.3,0c0,0,-2.5,0.2,-2.5,2.4c0,2.3,2.4,2.5,2.4,2.5l10.4,0m0,-3.6l9.3,0c0,0,1.2,0.1,1.2,1.1c0,1.1,-1.1,1.2,-1.1,1.2l-9.4,0m7.8,-4.7l-7.8,0l0,0.8l7.8,0l0,-0.8Zm-0.6,0l0,0.8m0.6,5.5l-7.8,0l0,0.8l7.8,0l0,-0.8Zm-0.6,0l0,0.8M78.8,791.5l-1.6,-3.9l0,-30.6c0,0,0,-0.4,-0.3,-0.4l-1,0c0,0,-0.3,0,-0.3,0.4l0,34c0,0,-0.1,0.5,0.3,0.5m-8.6,1.1l0,-0.3c0,0,0,-0.7,0.7,-0.7l61.5,0c0,0,0.6,0.1,0.6,0.6m0,0l0,0.4l-62.8,0m58,0l0,6.3l-53.1,0l0,-6.3m62.7,24.2l0,0.6l-8.8,0c0,0,-0.6,0.1,-0.6,0.6l0,8.2l-0.6,0l0,-8.3c0,0,0.1,-1.1,1.2,-1.1c1.2,0,8.8,0,8.8,0Zm-10,-17.9l0,72.8m8.4,-41.3c0,0,0,-0.4,-0.3,-0.4l-3.9,0c0,0,-0.5,0,-0.5,0.3c0,0.3,0,0.5,0.2,0.6c0.1,0.2,0.8,0.7,1.9,0.8c1.1,0.1,2.2,-0.5,2.4,-0.7c0.2,-0.1,0.3,-0.2,0.2,-0.6ZM132,830l-0.1,-12.6m-1.7,12.7l-0.1,-12.7m1.8,-0.7l0,-11.8m-1.7,11.9l-0.1,-11.9l1.7,0m0.1,0.7l-1.7,-0.5m1.7,1.2l-1.7,-0.5m1.7,1.3l-1.7,-0.5m1.7,1.3l-1.7,-0.6m1.7,1.4l-1.7,-0.5m1.7,1.2l-1.7,-0.5m1.7,1.3l-1.7,-0.5m1.7,1.2l-1.7,-0.5m1.7,1.3l-1.7,-0.5" class="g1_4" />
<path d="M131.9,812.5l-1.7,-0.6m1.7,1.3l-1.7,-0.5m1.7,1.3l-1.7,-0.5m1.7,1.3l-1.7,-0.5m1.7,1.2L130.2,815m1.7,1.3l-1.7,-0.5m0.9,1l-0.9,-0.3m1.7,2.2l-1.7,-0.5m1.7,1.2l-1.7,-0.5m1.7,1.3l-1.7,-0.5m1.7,1.3l-1.7,-0.6m1.7,1.3l-1.7,-0.4m1.7,1.2L130.2,822m1.7,1.2l-1.7,-0.5m1.7,1.3l-1.7,-0.5m1.7,1.3l-1.7,-0.5m1.7,1.2L130.2,825m1.7,1.3l-1.7,-0.5m1.7,1.3l-1.7,-0.6m1.7,1.4l-1.7,-0.5m1.7,1.2l-1.7,-0.5m1.7,1.3l-1.7,-0.5m1.3,1.1l-1.3,-0.4m1.7,-11.7l-1.7,-0.5m-4.4,0.3c0,0,-0.3,0,-0.3,0.3l0,3c0,0,0,0.3,0.2,0.3c0.3,0,0.4,0,0.5,-0.1c0.1,-0.1,0.5,-0.6,0.6,-1.5c0.1,-0.8,-0.4,-1.7,-0.5,-1.8c-0.1,-0.2,-0.2,-0.3,-0.5,-0.2Zm-0.7,-8c0,0,-0.2,0,-0.2,0.2l0,3c0,0,0,0.4,0.2,0.4c0.2,0,0.3,0,0.5,-0.1c0.1,-0.1,0.5,-0.7,0.6,-1.5c0,-0.8,-0.4,-1.7,-0.5,-1.9c-0.2,-0.1,-0.3,-0.2,-0.6,-0.1Zm-62.6,7.1l0,0.6l8.8,0c0,0,0.6,0.1,0.6,0.6l0,8.2l0.6,0l0,-8.3c0,0,-0.1,-1.1,-1.2,-1.1c-1.1,0,-8.8,0,-8.8,0Zm10,-17.9l0,72.8M64.1,830.4c0,0,0,-0.4,0.3,-0.4l3.9,0c0,0,0.5,0,0.5,0.3c0,0.3,0,0.5,-0.2,0.6c-0.1,0.2,-0.8,0.7,-1.9,0.8c-1.1,0.1,-2.2,-0.5,-2.4,-0.7c-0.2,-0.1,-0.2,-0.2,-0.2,-0.6ZM65.5,830l0,-12.6m1.8,12.7l0,-12.7m-1.8,-0.7l0,-11.8m1.8,11.9l0,-11.9l-1.7,0m-0.1,0.7l1.7,-0.5m-1.7,1.2l1.7,-0.5m-1.7,1.3l1.7,-0.5m-1.7,1.3l1.7,-0.6m-1.7,1.4l1.7,-0.5m-1.7,1.2l1.7,-0.5m-1.7,1.3l1.7,-0.5m-1.7,1.2l1.7,-0.5m-1.7,1.3l1.7,-0.5m-1.7,1.3l1.7,-0.6m-1.7,1.3l1.7,-0.5M65.5,814l1.7,-0.5m-1.7,1.3l1.7,-0.5m-1.7,1.2L67.2,815m-1.7,1.3l1.7,-0.5m-0.9,1l0.9,-0.3m-1.7,2.2l1.7,-0.5m-1.7,1.2l1.7,-0.5m-1.7,1.3l1.7,-0.5M65.5,821l1.7,-0.6m-1.7,1.3l1.7,-0.4m-1.7,1.2L67.2,822m-1.7,1.2l1.7,-0.5M65.5,824l1.7,-0.5m-1.7,1.3l1.7,-0.5m-1.7,1.2L67.2,825m-1.7,1.3l1.7,-0.5m-1.7,1.3l1.7,-0.6m-1.7,1.4l1.7,-0.5m-1.7,1.2l1.7,-0.5m-1.7,1.3l1.7,-0.5M65.9,830l1.3,-0.4M65.5,817.9l1.7,-0.5m4.4,0.3c0,0,0.3,0,0.3,0.3l0,3c0,0,0,0.3,-0.2,0.3c-0.3,0,-0.4,0,-0.5,-0.1c-0.1,-0.1,-0.5,-0.6,-0.6,-1.5c0,-0.8,0.4,-1.7,0.5,-1.8c0.2,-0.2,0.2,-0.3,0.5,-0.2Zm0.7,-8c0,0,0.3,0,0.3,0.2l0,3c0,0,0,0.4,-0.3,0.4c-0.2,0,-0.3,0,-0.4,-0.1c-0.2,-0.1,-0.6,-0.7,-0.6,-1.5c-0.1,-0.8,0.3,-1.7,0.5,-1.9c0.1,-0.1,0.2,-0.2,0.5,-0.1Zm37.3,34.4l-22.1,0c-0.9,0,-1.6,0.7,-1.6,1.5l0,22.2c0,0.8,0.7,1.5,1.6,1.5l22.1,0c0.8,0,1.5,-0.7,1.5,-1.5l0,-22.2c0,-0.8,-0.7,-1.5,-1.5,-1.5Zm15.8,27.7l0,5.3c0,0,0,0.9,-0.9,0.9l-51.6,0c0,0,-0.9,-0.2,-0.9,-1l0,-5.3l53.4,0.1Zm-53.7,1.4c0,0,0.3,0,0.3,0.3l0,2.6c0,0,0,0.4,-0.2,0.4c-0.2,0,-0.3,0,-0.4,-0.1c-0.1,-0.1,-0.5,-0.6,-0.6,-1.4c0,-0.7,0.4,-1.5,0.5,-1.6c0.1,-0.2,0.2,-0.2,0.4,-0.2ZM548,643.9l-114.1,0c-1,0,-1.9,0.9,-1.9,2l0,51.2c0,1.1,0.9,2,1.9,2l114.1,0c1.1,0,2,-0.9,2,-2l0,-51.2c0,-1.1,-0.9,-2,-2,-2Z" class="g1_4" />
<path d="M572.5,250.2l229.3,0c1,0,1.8,0.8,1.8,1.8l0,48.6c0,1,-0.8,1.8,-1.8,1.8l-229.3,0c-0.9,0,-1.7,-0.8,-1.7,-1.8l0,-48.6c0,-1,0.8,-1.8,1.7,-1.8Z" class="g2_4" />
<path d="M212.7,477.3l222.8,0l0,5.5c0,0,-0.1,0.8,-1,0.8c-0.9,0,-220.8,0,-220.8,0c0,0,-1,-0.2,-1,-1l0,-5.3Z" class="g1_4" />
<path d="M213.5,477.5l0,-47" class="g1_4" />
<path d="M213.5,421.5l0,-18" class="g1_4" />
<path d="M212.5,397.5l0,6l223,0l0,-6" class="g1_4" />
<path d="M440.7,397.4l0,-0.2c0,0,0.1,-0.5,-0.8,-0.5l-231.5,0c0,0,-0.9,0.1,-0.9,0.5" class="g1_4" />
<path d="M207.5,397.5l233,0" class="g1_4" />
<path d="M219.5,421.5l-6,0l0,1l6,0Z" class="g1_4" />
<path d="M219.5,422.5l0,7.9c0,0,0,0.9,-0.7,0.9l-1.4,0" class="g1_4" />
<path d="M213.2,422.5l0,8c0,0,0.1,0.9,0.7,0.9l1.4,0" class="g1_4" />
<path d="M218.6,435.5c0,0,0,-0.4,-0.4,-0.4l-3.9,0c0,0,-0.5,0,-0.5,0.3c0,0.3,0,0.5,0.2,0.6c0.1,0.2,0.9,0.7,1.9,0.8c1.1,0.1,2.3,-0.5,2.5,-0.7c0.2,-0.1,0.2,-0.2,0.2,-0.6Z" class="g1_4" />
<path d="M217.2,435.1l0,-12.6" class="g1_4" />
<path d="M215.4,435.1l0,-12.6" class="g1_4" />
<path d="M217.2,421.7l0,-12" class="g1_4" />
<path d="M215.4,421.7l0,-12l1.7,0" class="g1_4" />
<path d="M215.4,410.4l1.8,-0.5" class="g1_4" />
<path d="M215.4,411.2l1.8,-0.5" class="g1_4" />
<path d="M215.4,411.9l1.8,-0.5" class="g1_4" />
<path d="M215.4,412.7l1.8,-0.5" class="g1_4" />
<path d="M215.4,413.5l1.8,-0.5" class="g1_4" />
<path d="M215.4,414.3l1.8,-0.5" class="g1_4" />
<path d="M215.4,415l1.8,-0.5" class="g1_4" />
<path d="M215.4,415.8l1.8,-0.5" class="g1_4" />
<path d="M215.4,416.6l1.8,-0.5" class="g1_4" />
<path d="M215.4,417.4l1.8,-0.6" class="g1_4" />
<path d="M215.4,418.1l1.8,-0.5" class="g1_4" />
<path d="M215.4,418.9l1.8,-0.5" class="g1_4" />
<path d="M215.4,419.7l1.8,-0.5" class="g1_4" />
<path d="M215.4,420.4l1.8,-0.5" class="g1_4" />
<path d="M215.4,421.2l1.8,-0.5" class="g1_4" />
<path d="M215.9,421.8l1.3,-0.3" class="g1_4" />
<path d="M215.4,423.7l1.8,-0.5" class="g1_4" />
<path d="M215.4,424.4l1.8,-0.5" class="g1_4" />
<path d="M215.4,425.2l1.8,-0.5" class="g1_4" />
<path d="M215.4,425.9l1.8,-0.5" class="g1_4" />
<path d="M215.4,426.7l1.8,-0.5" class="g1_4" />
<path d="M215.4,427.5l1.8,-0.5" class="g1_4" />
<path d="M215.4,428.3l1.8,-0.5" class="g1_4" />
<path d="M215.4,429l1.8,-0.5" class="g1_4" />
<path d="M215.4,429.8l1.8,-0.5" class="g1_4" />
<path d="M215.4,430.6l1.8,-0.5" class="g1_4" />
<path d="M215.4,431.3l1.8,-0.5" class="g1_4" />
<path d="M215.4,432.1l1.8,-0.5" class="g1_4" />
<path d="M215.4,432.9l1.8,-0.5" class="g1_4" />
<path d="M215.4,433.7l1.8,-0.6" class="g1_4" />
<path d="M215.4,434.4l1.8,-0.5" class="g1_4" />
<path d="M215.8,435.1l1.4,-0.4" class="g1_4" />
<path d="M215.4,422.9l1.4,-0.4" class="g1_4" />
<path d="M217.2,425.9c0.5,-0.3,0.9,-0.9,0.9,-1.5c0,-0.7,-0.4,-1.2,-0.9,-1.5" class="g1_4" />
<path d="M215.4,423.1c-0.4,0.3,-0.6,0.8,-0.6,1.3c0,0.5,0.2,1,0.6,1.3" class="g1_4" />
<path d="M323.9,369.4l0,-7.3c0,0,0.1,-1.1,-0.9,-1.1l-104.7,0c0,0,-1.1,0,-1.1,1.1l0,34.6" class="g1_4" />
<path d="M323.5,396.5l0,-8" class="g1_4" />
<path d="M218.9,396.7l0,-4.3l-1,0c0,0,-0.7,0,-0.7,-0.6" class="g1_4" />
<path d="M319.5,396.5l0,-4l2,0l0,4" class="g1_4" />
<path d="M323.9,369.4c0,0.9,0,1.6,-0.9,2.5c-0.9,0.8,-1.4,1.4,-1.6,1.6c-0.1,0.2,-0.6,0.8,-0.6,2.1l0,6.1c0,0,-0.1,1.7,0.7,2.5c0.8,0.8,1.5,1.5,1.6,1.6c0.1,0.1,0.8,0.8,0.8,2.6" class="g1_4" />
<path d="M225.1,398.9c1,0,1.7,0.7,1.7,1.7c0,0.9,-0.7,1.7,-1.7,1.7c-0.9,0,-1.7,-0.8,-1.7,-1.7c0,-1,0.8,-1.7,1.7,-1.7Z" class="g1_4" />
<path d="M225.3,399.5l0,0.7l0.2,0.2l0.7,0l0,0.4l-0.6,0l-0.3,0.3l0,0.6l-0.4,0l0,-0.6l-0.3,-0.3l-0.6,0l0,-0.5l0.6,0l0.3,-0.2l0,-0.6l0.4,0Z" class="g1_4" />
<path d="M324,398.9c1,0,1.7,0.7,1.7,1.7c0,0.9,-0.7,1.7,-1.7,1.7c-0.9,0,-1.7,-0.8,-1.7,-1.7c0,-1,0.8,-1.7,1.7,-1.7Z" class="g1_4" />
<path d="M324.2,399.5l0,0.7l0.2,0.2l0.7,0l0,0.4l-0.7,0l-0.2,0.3l0,0.6l-0.4,0l0,-0.6l-0.3,-0.3l-0.6,0l0,-0.5l0.6,0l0.3,-0.2l0,-0.6l0.4,0Z" class="g1_4" />
<path d="M423.1,398.9c1,0,1.7,0.7,1.7,1.7c0,0.9,-0.7,1.7,-1.7,1.7c-0.9,0,-1.7,-0.8,-1.7,-1.7c0,-1,0.8,-1.7,1.7,-1.7Z" class="g1_4" />
<path d="M423.3,399.5l0,0.7l0.2,0.2l0.7,0l0,0.4l-0.6,0l-0.3,0.3l0,0.6l-0.4,0l0,-0.6l-0.3,-0.3l-0.6,0l0,-0.5l0.6,0l0.3,-0.2l0,-0.6l0.4,0Z" class="g1_4" />
<path d="M430.8,409.7c0.1,-0.8,0.8,-1.5,1.7,-1.5c0.9,0,1.7,0.8,1.7,1.7c0,1,-0.8,1.8,-1.7,1.8" class="g1_4" />
<path d="M431.3,409.7l0.7,0l0.3,-0.3l0,-0.5l0.4,0l0,0.7l0.2,0.2l0.6,0l0,0.4l-0.6,0l-0.3,0.3l0,0.6" class="g1_4" />
<path d="M294.2,455.5c1,0,1.7,0.8,1.7,1.8c0,0.9,-0.7,1.7,-1.7,1.7c-0.9,0,-1.7,-0.8,-1.7,-1.7c0,-1,0.8,-1.8,1.7,-1.8Z" class="g1_4" />
<path d="M294.4,456.2l0,0.7l0.2,0.2l0.7,0l0,0.4l-0.7,0l-0.2,0.3l0,0.6l-0.4,0l0,-0.6l-0.3,-0.3l-0.6,0l0,-0.5l0.6,0l0.3,-0.3l0,-0.5l0.4,0Z" class="g1_4" />
<path d="M324.1,478.3c0.9,0,1.7,0.7,1.7,1.7c0,0.9,-0.8,1.7,-1.7,1.7c-1,0,-1.8,-0.8,-1.8,-1.7c0,-1,0.8,-1.7,1.8,-1.7Z" class="g1_4" />
<path d="M324.2,478.9l0,0.7l0.3,0.2l0.6,0l0,0.4l-0.6,0l-0.3,0.3l0,0.6l-0.4,0l0,-0.6l-0.3,-0.3l-0.6,0l0,-0.5l0.7,0l0.2,-0.3l0,-0.5l0.4,0Z" class="g1_4" />
<path d="M217.3,409.7c0,0.1,0.1,0.3,0.1,0.4c0,0.3,-0.1,0.5,-0.2,0.7" class="g1_4" />
<path d="M215.4,411.8c-0.8,-0.1,-1.5,-0.8,-1.5,-1.7c0,-0.9,0.8,-1.7,1.7,-1.7c0.8,0,1.5,0.6,1.7,1.3" class="g1_4" />
<path d="M215.4,410.7l-0.3,-0.3l-0.6,0l0,-0.5l0.7,0l0.2,-0.3l0,-0.5l0.4,0l0,0.7" class="g1_4" />
<path d="M527.9,468.7l7.2,0c0,0,1.6,-1.5,0,-3.1" class="g1_4" />
<path d="M535.5,465.5l-8,0" class="g1_4" />
<path d="M527.9,474.8l9.5,0c0.9,0,1.2,-0.7,1.2,-1.2c0,-0.5,-0.5,-1.2,-1.2,-1.2l-9.5,0" class="g1_4" />
<path d="M527.9,477.1l0,-13.1l-12.5,0c0,0,-0.6,0.1,-1.2,0.5c-0.5,0.5,-1.8,1.3,-2.8,1.7" class="g1_4" />
<path d="M527.9,477.1l-12.4,0c0,0,-0.6,-0.1,-0.7,-0.7c-0.1,-0.5,-0.6,-3.4,-0.6,-3.4c0,0,-0.2,-0.6,-0.7,-0.6c-0.5,-0.1,-7.8,-1,-7.8,-1l0,-6.1l9.2,-1.1" class="g1_4" />
<path d="M505.5,465.5l-69,0" class="g1_4" />
<path d="M505.5,470.5l-69,0" class="g1_4" />
<path d="M527.9,472l-12.5,-0.1c0,0,-0.6,-0.1,-1.2,-0.4c-0.6,-0.2,-2.4,-0.9,-2.5,-1c-0.2,-0.1,-0.4,-0.3,0,-0.5c0.4,-0.3,0.8,-0.8,0.8,-1.7c0,-0.9,-0.8,-1.6,-1,-1.8c-0.3,-0.1,-0.4,-0.2,-0.1,-0.3" class="g1_4" />
<path d="M527.9,466.1l-12.5,0c0,0,-2.3,0,-4.1,0.3" class="g1_4" />
<path d="M527.9,470.6l-12.5,0c0,0,-1.9,0.1,-3.7,-0.4" class="g1_4" />
<path d="M515.3,466.7l0,3.3" class="g1_4" />
<path d="M533.7,466.4c-0.4,0,-0.7,0.3,-0.7,0.7c0,0.5,0.3,0.8,0.7,0.8c0.5,0,0.8,-0.3,0.8,-0.8c0,-0.4,-0.3,-0.7,-0.8,-0.7Z" class="g1_4" />
<path d="M353.8,455.5c1,0,1.7,0.8,1.7,1.8c0,0.9,-0.7,1.7,-1.7,1.7c-0.9,0,-1.7,-0.8,-1.7,-1.7c0,-1,0.8,-1.8,1.7,-1.8Z" class="g1_4" />
<path d="M354,456.2l0,0.7l0.2,0.2l0.7,0l0,0.4l-0.7,0l-0.2,0.3l0,0.6l-0.4,0l0,-0.6l-0.3,-0.3l-0.6,0l0,-0.5l0.6,0l0.3,-0.3l0,-0.5l0.4,0Z" class="g1_4" />
<path d="M293.8,441.5l60.8,0c0.6,0,1.1,0.5,1.1,1.2l0,29.2c0,0.6,-0.5,1.2,-1.1,1.2l-60.8,0c-0.7,0,-1.2,-0.6,-1.2,-1.2l0,-29.2c0,-0.7,0.5,-1.2,1.2,-1.2Z" class="g1_4" />
<path d="M219.5,421.5l0,-18" class="g1_4" />
<path d="M219.5,477.5l0,-47" class="g1_4" />
<path d="M428.5,477.5l0,-47" class="g1_4" />
<path d="M428.5,421.5l0,-18" class="g1_4" />
<path d="M434.5,421.5l-6,0l0,1l6,0Z" class="g1_4" />
<path d="M434.8,422.5l0.1,7.9c0,0,-0.1,0.9,-0.7,0.9l-1.4,0" class="g1_4" />
<path d="M428.5,422.5l0,8c0,0,0.1,0.9,0.7,0.9l1.4,0" class="g1_4" />
<path d="M433.9,435.5c0,0,0,-0.4,-0.3,-0.4l-3.9,0c0,0,-0.5,0,-0.5,0.3c0,0.3,0,0.5,0.1,0.6c0.2,0.2,0.9,0.7,2,0.8c1.1,0.1,2.2,-0.5,2.4,-0.7c0.2,-0.1,0.3,-0.2,0.2,-0.6Z" class="g1_4" />
<path d="M432.5,435.1l0,-12.6" class="g1_4" />
<path d="M430.7,435.1l0,-12.6" class="g1_4" />
<path d="M432.5,421.7l0,-12" class="g1_4" />
<path d="M430.7,421.7l0,-12l1.7,0" class="g1_4" />
<path d="M430.7,410.4l1.8,-0.5" class="g1_4" />
<path d="M430.7,411.2l1.8,-0.5" class="g1_4" />
<path d="M430.7,411.9l1.8,-0.5" class="g1_4" />
<path d="M430.7,412.7l1.8,-0.5" class="g1_4" />
<path d="M430.7,413.5l1.8,-0.5" class="g1_4" />
<path d="M430.7,414.3l1.8,-0.5" class="g1_4" />
<path d="M430.7,415l1.8,-0.5" class="g1_4" />
<path d="M430.7,415.8l1.8,-0.5" class="g1_4" />
<path d="M430.7,416.6l1.8,-0.5" class="g1_4" />
<path d="M430.7,417.4l1.8,-0.6" class="g1_4" />
<path d="M430.7,418.1l1.8,-0.5" class="g1_4" />
<path d="M430.7,418.9l1.8,-0.5" class="g1_4" />
<path d="M430.7,419.7l1.8,-0.5" class="g1_4" />
<path d="M430.7,420.4l1.8,-0.5" class="g1_4" />
<path d="M430.7,421.2l1.8,-0.5" class="g1_4" />
<path d="M431.2,421.8l1.3,-0.3" class="g1_4" />
<path d="M430.7,423.7l1.8,-0.5" class="g1_4" />
<path d="M430.7,424.4l1.8,-0.5" class="g1_4" />
<path d="M430.7,425.2l1.8,-0.5" class="g1_4" />
<path d="M430.7,425.9l1.8,-0.5" class="g1_4" />
<path d="M430.7,426.7l1.8,-0.5" class="g1_4" />
<path d="M430.7,427.5l1.8,-0.5" class="g1_4" />
<path d="M430.7,428.3l1.8,-0.5" class="g1_4" />
<path d="M430.7,429l1.8,-0.5" class="g1_4" />
<path d="M430.7,429.8l1.8,-0.5" class="g1_4" />
<path d="M430.7,430.6l1.8,-0.5" class="g1_4" />
<path d="M430.7,431.3l1.8,-0.5" class="g1_4" />
<path d="M430.7,432.1l1.8,-0.5" class="g1_4" />
<path d="M430.7,432.9l1.8,-0.5" class="g1_4" />
<path d="M430.7,433.7l1.8,-0.6" class="g1_4" />
<path d="M430.7,434.4l1.8,-0.5" class="g1_4" />
<path d="M431.1,435.1l1.4,-0.4" class="g1_4" />
<path d="M430.7,422.9l1.4,-0.4" class="g1_4" />
<path d="M432.5,425.9c0.6,-0.3,0.9,-0.9,0.9,-1.5c0,-0.7,-0.3,-1.2,-0.9,-1.5" class="g1_4" />
<path d="M430.7,423.1c-0.4,0.3,-0.6,0.8,-0.6,1.3c0,0.5,0.3,1,0.6,1.3" class="g1_4" />
<path d="M432.6,409.7c0.1,0.1,0.1,0.3,0.1,0.4c0,0.3,-0.1,0.5,-0.2,0.7" class="g1_4" />
<path d="M434.5,421.5l0,-18" class="g1_4" />
<path d="M434.5,477.5l0,-47" class="g1_4" />
<path d="M434.5,473.5l2,0l0,-10l-2,0" class="g1_4" />
<path d="M324.4,369.4l0,-7.3c0,0,0,-1.1,0.9,-1.1l104.8,0c0,0,1,0,1,1.1l0,34.6" class="g1_4" />
<path d="M324.5,396.5l0,-8" class="g1_4" />
<path d="M324.4,369.4c0,0.9,0.1,1.6,1,2.5c0.8,0.8,1.4,1.4,1.5,1.6c0.2,0.2,0.6,0.8,0.6,2.1l0,6.1c0,0,0.1,1.7,-0.7,2.5c-0.7,0.8,-1.5,1.5,-1.6,1.6c-0.1,0.1,-0.8,0.8,-0.8,2.6" class="g1_4" />
<path d="M208.5,243.5l231.2,0c0.6,0,1.1,0.5,1.1,1.1l0,60.8c0,0.6,-0.5,1.1,-1.1,1.1l-231.2,0c-0.6,0,-1.1,-0.5,-1.1,-1.1l0,-60.8c0,-0.6,0.5,-1.1,1.1,-1.1Z" class="g1_4" />
<path d="M217.6,252.1l106.2,0c0.1,0,0.2,0.1,0.2,0.2l0,0.9c0,0.1,-0.1,0.2,-0.2,0.2l-106.2,0c-0.1,0,-0.2,-0.1,-0.2,-0.2l0,-0.9c0,-0.1,0.1,-0.2,0.2,-0.2Z" class="g1_4" />
<path d="M221.9,264.2l67.6,0c0.2,0,0.3,0.2,0.3,0.4l0,20.9c0,0.2,-0.1,0.4,-0.3,0.4l-67.6,0c-0.2,0,-0.4,-0.2,-0.4,-0.4l0,-20.9c0,-0.2,0.2,-0.4,0.4,-0.4Z" class="g1_4" />
<path d="M237.7,271.4l5.7,0c0.2,0,0.3,0.2,0.3,0.3l0,2.2c0,0.2,-0.1,0.3,-0.3,0.3l-5.7,0c-0.2,0,-0.3,-0.1,-0.3,-0.3l0,-2.2c0,-0.1,0.1,-0.3,0.3,-0.3Z" class="g1_4" />
<path d="M238.1,272.6l5,0c0.1,0,0.1,0,0.1,0.1l0,0.8c0,0.1,0,0.1,-0.1,0.1l-5,0c-0.1,0,-0.2,0,-0.2,-0.1l0,-0.8c0,-0.1,0.1,-0.1,0.2,-0.1Z" class="g1_4" />
<path d="M238.5,272.5l4,0l0,1l-4,0Z" class="g1_4" />
<path d="M237.7,275.7l5.7,0c0.2,0,0.3,0.2,0.3,0.3l0,2.2c0,0.2,-0.1,0.3,-0.3,0.3l-5.7,0c-0.2,0,-0.3,-0.1,-0.3,-0.3l0,-2.2c0,-0.1,0.1,-0.3,0.3,-0.3Z" class="g1_4" />
<path d="M238.1,276.9l5,0c0.1,0,0.1,0,0.1,0.1l0,0.8c0,0.1,0,0.1,-0.1,0.1l-5,0c-0.1,0,-0.2,0,-0.2,-0.1l0,-0.8c0,-0.1,0.1,-0.1,0.2,-0.1Z" class="g1_4" />
<path d="M238.5,277.5l4,0l-4,0Z" class="g1_4" />
<path d="M270.3,277.2l4.8,0c0.1,0,0.2,0.1,0.2,0.3l0,1.6c0,0.1,-0.1,0.2,-0.2,0.2l-4.8,0c-0.1,0,-0.2,-0.1,-0.2,-0.2l0,-1.6c0,-0.2,0.1,-0.3,0.2,-0.3Z" class="g1_4" />
<path d="M270.6,277.6l4.1,0c0.1,0,0.1,0.1,0.1,0.2l0,1c0,0.1,0,0.1,-0.1,0.1l-4.1,0c0,0,-0.1,0,-0.1,-0.1l0,-1c0,-0.1,0.1,-0.2,0.1,-0.2Z" class="g1_4" />
<path d="M270.7,270.9l4,0c0.1,0,0.2,0.1,0.2,0.3l0,1.6c0,0.1,-0.1,0.2,-0.2,0.2l-4,0c-0.1,0,-0.2,-0.1,-0.2,-0.2l0,-1.6c0,-0.2,0.1,-0.3,0.2,-0.3Z" class="g1_4" />
<path d="M271,271.3l3.4,0c0,0,0.1,0.1,0.1,0.2l0,1c0,0.1,-0.1,0.1,-0.1,0.1l-3.4,0c-0.1,0,-0.1,0,-0.1,-0.1l0,-1c0,-0.1,0,-0.2,0.1,-0.2Z" class="g1_4" />
<path d="M280.4,273.3l0,3.6l-2,0c0,0,-1.6,-0.2,-1.6,-1.7c0,-1.5,0.9,-1.9,1.6,-1.9c0.7,0,2,0,2,0Z" class="g1_4" />
<path d="M280,273.7l0,2.8l-1.5,0c0,0,-1.3,-0.2,-1.3,-1.3c0,-1.2,0.7,-1.5,1.3,-1.5c0.5,0,1.5,0,1.5,0Z" class="g1_4" />
<path d="M306.9,261.3l7.5,0c0.4,0,0.7,0.4,0.7,0.8l0,25.7c0,0.5,-0.3,0.8,-0.7,0.8l-7.5,0c-0.4,0,-0.8,-0.3,-0.8,-0.8l0,-25.7c0,-0.4,0.4,-0.8,0.8,-0.8Z" class="g1_4" />
<path d="M310.7,262.3c0.7,0,1.2,0.6,1.2,1.3c0,0.6,-0.5,1.2,-1.2,1.2c-0.7,0,-1.2,-0.6,-1.2,-1.2c0,-0.7,0.5,-1.3,1.2,-1.3Z" class="g1_4" />
<path d="M310.4,263.1l-0.3,0.5l0.3,0.6l0.6,0l0.4,-0.6L311,263.1l-0.6,0Z" class="g1_4" />
<path d="M310.7,285.1c0.7,0,1.2,0.5,1.2,1.2c0,0.7,-0.5,1.2,-1.2,1.2c-0.7,0,-1.2,-0.5,-1.2,-1.2c0,-0.7,0.5,-1.2,1.2,-1.2Z" class="g1_4" />
<path d="M310.4,285.8l-0.3,0.6l0.3,0.5l0.6,0l0.4,-0.5L311,285.8l-0.6,0Z" class="g1_4" />
<path d="M315.9,261.3l7.5,0c0.4,0,0.7,0.4,0.7,0.8l0,25.7c0,0.5,-0.3,0.8,-0.7,0.8l-7.5,0c-0.4,0,-0.8,-0.3,-0.8,-0.8l0,-25.7c0,-0.4,0.4,-0.8,0.8,-0.8Z" class="g1_4" />
<path d="M319.7,262.3c0.7,0,1.2,0.6,1.2,1.3c0,0.6,-0.5,1.2,-1.2,1.2c-0.7,0,-1.2,-0.6,-1.2,-1.2c0,-0.7,0.5,-1.3,1.2,-1.3Z" class="g1_4" />
<path d="M319.4,263.1l-0.3,0.5l0.3,0.6l0.6,0l0.4,-0.6L320,263.1l-0.6,0Z" class="g1_4" />
<path d="M319.7,285.1c0.7,0,1.2,0.5,1.2,1.2c0,0.7,-0.5,1.2,-1.2,1.2c-0.7,0,-1.2,-0.5,-1.2,-1.2c0,-0.7,0.5,-1.2,1.2,-1.2Z" class="g1_4" />
<path d="M319.4,285.8l-0.3,0.6l0.3,0.5l0.6,0l0.4,-0.5L320,285.8l-0.6,0Z" class="g1_4" />
<path d="M319.5,253.5l0,2l2,0l0,-2" class="g1_4" />
<path d="M326.5,291.5l-5,0l0,6" class="g1_4" />
<path d="M216.5,286.5l2,0l0,6l-2,0" class="g1_4" />
<path d="M212.5,243.5l0,-3c0,0,0.1,-0.7,0.7,-0.7l4.8,0c0,0,0.8,0.1,0.8,0.7l0,3" class="g1_4" />
<path d="M213.9,243.5c0,-0.2,-0.1,-0.3,-0.1,-0.5c0,-1.1,0.8,-1.9,1.9,-1.9c1,0,1.8,0.8,1.8,1.9c0,0.2,0,0.4,-0.1,0.5" class="g1_4" />
<path d="M214.7,243.5c-0.1,-0.2,-0.1,-0.4,-0.1,-0.5c0,-0.7,0.5,-1.1,1.1,-1.1c0.6,0,1.1,0.4,1.1,1.1c0,0.2,-0.1,0.3,-0.2,0.5" class="g1_4" />
<path d="M430.6,243.5l0,-3c0,0,0.1,-0.7,0.7,-0.7l4.9,0c0,0,0.7,0.1,0.7,0.7l0,3" class="g1_4" />
<path d="M432,243.5c0,-0.2,-0.1,-0.3,-0.1,-0.5c0,-1.1,0.9,-1.9,1.9,-1.9c1,0,1.8,0.8,1.8,1.9c0,0.2,0,0.4,-0.1,0.5" class="g1_4" />
<path d="M432.8,243.5c-0.1,-0.2,-0.1,-0.4,-0.1,-0.5c0,-0.7,0.5,-1.1,1.1,-1.1c0.6,0,1.1,0.4,1.1,1.1c0,0.2,-0.1,0.3,-0.2,0.5" class="g1_4" />
<path d="M436.9,306.6l0,3c0,0,0,0.7,-0.6,0.7l-4.9,0c0,0,-0.8,-0.1,-0.8,-0.7l0,-3" class="g1_4" />
<path d="M435.6,306.6c0,0.1,0,0.3,0,0.5c0,1.1,-0.8,1.9,-1.8,1.9c-1,0,-1.8,-0.8,-1.8,-1.9c0,-0.2,0,-0.4,0,-0.5" class="g1_4" />
<path d="M434.8,306.6c0.1,0.2,0.1,0.4,0.1,0.5c0,0.6,-0.5,1.1,-1.1,1.1c-0.6,0,-1.1,-0.5,-1.1,-1.1c0,-0.2,0,-0.3,0.1,-0.5" class="g1_4" />
<path d="M218.8,306.6l0,3c0,0,-0.1,0.7,-0.6,0.7l-4.9,0c0,0,-0.8,-0.1,-0.8,-0.7l0,-3" class="g1_4" />
<path d="M217.4,306.6c0.1,0.1,0.1,0.3,0.1,0.5c0,1.1,-0.8,1.9,-1.8,1.9c-1,0,-1.9,-0.8,-1.9,-1.9c0,-0.2,0.1,-0.4,0.1,-0.5" class="g1_4" />
<path d="M216.7,306.6c0,0.2,0.1,0.4,0.1,0.5c0,0.6,-0.5,1.1,-1.1,1.1c-0.6,0,-1.1,-0.5,-1.1,-1.1c0,-0.2,0,-0.3,0.1,-0.5" class="g1_4" />
<path d="M440.5,258.5l62,0" class="g1_4" />
<path d="M440.5,263.5l62,0" class="g1_4" />
<path d="M508.9,256.7l-6.6,0.9l0,6l6.6,0.9" class="g1_4" />
<path d="M508.3,257.4c0.6,-0.7,2.3,-3.1,5.8,-3.1l10.3,0l0,12.6l-10.6,0c0,0,-3.3,0.1,-5.4,-3.2" class="g1_4" />
<path d="M524.4,258.1l-10.4,0c0,0,-2.5,0.2,-2.5,2.5c0,2.3,2.4,2.5,2.4,2.5l10.5,0" class="g1_4" />
<path d="M524.4,259.4l9.3,0c0,0,1.2,0.1,1.2,1.2c0,1.1,-1.2,1.2,-1.2,1.2l-9.3,0" class="g1_4" />
<path d="M532.5,257.5l-8,0l8,0Z" class="g1_4" />
<path d="M532.5,263.5l-8,0l0,1l8,0Z" class="g1_4" />
<path d="M531.5,263.5l0,1" class="g1_4" />
<path d="M255.3,277.2l4.7,0c0.1,0,0.2,0.1,0.2,0.3l0,1.6c0,0.1,-0.1,0.2,-0.2,0.2l-4.7,0c-0.2,0,-0.3,-0.1,-0.3,-0.2l0,-1.6c0,-0.2,0.1,-0.3,0.3,-0.3Z" class="g1_4" />
<path d="M255.6,277.6l4.1,0c0,0,0.1,0.1,0.1,0.2l0,1c0,0.1,-0.1,0.1,-0.1,0.1l-4.1,0c-0.1,0,-0.1,0,-0.1,-0.1l0,-1c0,-0.1,0,-0.2,0.1,-0.2Z" class="g1_4" />
<path d="M255.6,270.9l4.1,0c0.1,0,0.2,0.1,0.2,0.3l0,1.6c0,0.1,-0.1,0.2,-0.2,0.2l-4.1,0c-0.1,0,-0.2,-0.1,-0.2,-0.2l0,-1.6c0,-0.2,0.1,-0.3,0.2,-0.3Z" class="g1_4" />
<path d="M256,271.3l3.3,0c0.1,0,0.2,0.1,0.2,0.2l0,1c0,0.1,-0.1,0.1,-0.2,0.1l-3.3,0c-0.1,0,-0.2,0,-0.2,-0.1l0,-1c0,-0.1,0.1,-0.2,0.2,-0.2Z" class="g1_4" />
<path d="M265.4,273.3l0,3.6l-2,0c0,0,-1.6,-0.2,-1.7,-1.7c0,-1.5,0.9,-1.9,1.7,-1.9c0.7,0,2,0,2,0Z" class="g1_4" />
<path d="M265,273.7l0,2.8l-1.6,0c0,0,-1.2,-0.2,-1.3,-1.3c0,-1.2,0.7,-1.5,1.3,-1.5c0.6,0,1.6,0,1.6,0Z" class="g1_4" />
<path d="M217,253.1c0,-0.3,0.1,-0.9,0.4,-0.9" class="g1_4" />
<path d="M321.7,253.4l0,5c0,0,0,0.2,0.4,0.2c0.3,0,4.3,0,4.3,0" class="g1_4" />
<path d="M323.9,297l-105.7,0c0,0,-1.2,0.2,-1.2,-1.2l0,-42.7" class="g1_4" />
<path d="M324,252.9l106,0c0,0,1.3,0,1.3,1.1l0,42.2c0,0,0.1,0.8,-0.8,0.8" class="g1_4" />
<path d="M217,255.2c0,0.3,0.3,0.8,0.6,0.8c0.4,0,1.2,0,1.2,0l0,-2.6" class="g1_4" />
<path d="M321.5,256.5l3,0l0,-4" class="g1_4" />
<path d="M326.5,252.5l0,6" class="g1_4" />
<path d="M321.5,257.5l-26,0l0,35l26,0" class="g1_4" />
<path d="M303.4,273.3c0.9,0,1.7,0.7,1.7,1.7c0,0.9,-0.8,1.7,-1.7,1.7c-0.9,0,-1.7,-0.8,-1.7,-1.7c0,-1,0.8,-1.7,1.7,-1.7Z" class="g1_4" />
<path d="M303.6,273.9l0,0.7l0.2,0.2l0.6,0l0,0.4l-0.6,0l-0.3,0.3l0,0.6l-0.3,0l0,-0.6l-0.3,-0.3l-0.6,0l0,-0.5l0.6,0l0.3,-0.2l0,-0.6l0.4,0Z" class="g1_4" />
<path d="M326.5,291.5l0,5l0,-3l-2,0l0,3" class="g1_4" />
<path d="M426.5,285.9l-67.6,0c-0.2,0,-0.4,-0.2,-0.4,-0.4l0,-20.9c0,-0.2,0.2,-0.4,0.4,-0.4l67.6,0c0.2,0,0.3,0.2,0.3,0.4l0,20.9c0,0.2,-0.1,0.4,-0.3,0.4Z" class="g1_4" />
<path d="M410.7,278.7l-5.7,0c-0.2,0,-0.3,-0.1,-0.3,-0.3l0,-2.2c0,-0.2,0.1,-0.3,0.3,-0.3l5.7,0c0.2,0,0.3,0.1,0.3,0.3l0,2.2c0,0.2,-0.1,0.3,-0.3,0.3Z" class="g1_4" />
<path d="M410.3,277.6l-5,0c-0.1,0,-0.1,-0.1,-0.1,-0.2l0,-0.7c0,-0.1,0,-0.2,0.1,-0.2l5,0c0.1,0,0.2,0.1,0.2,0.2l0,0.7c0,0.1,-0.1,0.2,-0.2,0.2Z" class="g1_4" />
<path d="M410.5,277.5l-5,0l0,-1l5,0Z" class="g1_4" />
<path d="M410.7,274.4l-5.7,0c-0.2,0,-0.3,-0.1,-0.3,-0.3l0,-2.2c0,-0.2,0.1,-0.3,0.3,-0.3l5.7,0c0.2,0,0.3,0.1,0.3,0.3l0,2.2c0,0.2,-0.1,0.3,-0.3,0.3Z" class="g1_4" />
<path d="M410.3,273.3l-5,0c-0.1,0,-0.1,-0.1,-0.1,-0.2l0,-0.7c0,-0.1,0,-0.2,0.1,-0.2l5,0c0.1,0,0.2,0.1,0.2,0.2l0,0.7c0,0.1,-0.1,0.2,-0.2,0.2Z" class="g1_4" />
<path d="M410.5,272.5l-5,0l5,0Z" class="g1_4" />
<path d="M378.1,272.9l-4.8,0c-0.1,0,-0.2,-0.1,-0.2,-0.2l0,-1.7c0,-0.1,0.1,-0.2,0.2,-0.2l4.8,0c0.1,0,0.2,0.1,0.2,0.2l0,1.7c0,0.1,-0.1,0.2,-0.2,0.2Z" class="g1_4" />
<path d="M377.8,272.5l-4.1,0c-0.1,0,-0.2,0,-0.2,-0.1l0,-1.1c0,-0.1,0.1,-0.1,0.2,-0.1l4.1,0c0,0,0.1,0,0.1,0.1l0,1.1c0,0.1,-0.1,0.1,-0.1,0.1Z" class="g1_4" />
<path d="M377.7,279.2l-4,0c-0.1,0,-0.2,-0.1,-0.2,-0.2l0,-1.7c0,-0.1,0.1,-0.2,0.2,-0.2l4,0c0.1,0,0.2,0.1,0.2,0.2l0,1.7c0,0.1,-0.1,0.2,-0.2,0.2Z" class="g1_4" />
<path d="M377.4,278.8l-3.4,0c-0.1,0,-0.1,0,-0.1,-0.1l0,-1.1c0,-0.1,0,-0.1,0.1,-0.1l3.4,0c0,0,0.1,0,0.1,0.1l0,1.1c0,0.1,-0.1,0.1,-0.1,0.1Z" class="g1_4" />
<path d="M368,276.8l0,-3.6l2,0c0,0,1.6,0.2,1.6,1.7c0,1.5,-0.9,1.9,-1.6,1.9c-0.8,0,-2,0,-2,0Z" class="g1_4" />
<path d="M368.4,276.4l0,-2.8l1.5,0c0,0,1.3,0.2,1.3,1.3c0,1.2,-0.7,1.5,-1.3,1.5c-0.5,0,-1.5,0,-1.5,0Z" class="g1_4" />
<path d="M393.1,272.9l-4.7,0c-0.1,0,-0.2,-0.1,-0.2,-0.2l0,-1.7c0,-0.1,0.1,-0.2,0.2,-0.2l4.7,0c0.1,0,0.2,0.1,0.2,0.2l0,1.7c0,0.1,-0.1,0.2,-0.2,0.2Z" class="g1_4" />
<path d="M392.8,272.5l-4.1,0c-0.1,0,-0.1,0,-0.1,-0.1l0,-1.1c0,-0.1,0,-0.1,0.1,-0.1l4.1,0c0.1,0,0.1,0,0.1,0.1l0,1.1c0,0.1,0,0.1,-0.1,0.1Z" class="g1_4" />
<path d="M392.7,279.2l-4,0c-0.1,0,-0.2,-0.1,-0.2,-0.2l0,-1.7c0,-0.1,0.1,-0.2,0.2,-0.2l4,0c0.2,0,0.3,0.1,0.3,0.2l0,1.7c0,0.1,-0.1,0.2,-0.3,0.2Z" class="g1_4" />
<path d="M392.4,278.8l-3.3,0c-0.1,0,-0.2,0,-0.2,-0.1l0,-1.1c0,-0.1,0.1,-0.1,0.2,-0.1l3.3,0c0.1,0,0.1,0,0.1,0.1l0,1.1c0,0.1,0,0.1,-0.1,0.1Z" class="g1_4" />
<path d="M383,276.8l0,-3.6l2,0c0,0,1.6,0.2,1.6,1.7c0.1,1.5,-0.9,1.9,-1.6,1.9c-0.7,0,-2,0,-2,0Z" class="g1_4" />
<path d="M383.4,276.4l0,-2.8l1.6,0c0,0,1.2,0.2,1.2,1.3c0,1.2,-0.7,1.5,-1.2,1.5c-0.6,0,-1.6,0,-1.6,0Z" class="g1_4" />
<path d="M431.5,257.5l-2,0l0,6l2,0" class="g1_4" />
<path d="M430.2,298l-106.1,0c-0.1,0,-0.2,-0.1,-0.2,-0.2l0,-0.9c0,-0.1,0.1,-0.2,0.2,-0.2l106.1,0c0.1,0,0.2,0.1,0.2,0.2l0,0.9c0,0.1,-0.1,0.2,-0.2,0.2Z" class="g1_4" />
<path d="M328.5,296.5l0,-2l-2,0l0,2" class="g1_4" />
<path d="M430.9,297c0,0.2,-0.2,0.9,-0.5,0.9" class="g1_4" />
<path d="M429.1,296.7l0,-2.6c0,0,0.8,0,1.1,0c0.4,0,0.7,0.5,0.7,0.8l0,2" class="g1_4" />
<path d="M345,273.3c0.9,0,1.7,0.7,1.7,1.7c0,0.9,-0.8,1.7,-1.7,1.7c-1,0,-1.7,-0.8,-1.7,-1.7c0,-1,0.7,-1.7,1.7,-1.7Z" class="g1_4" />
<path d="M345.2,273.9l0,0.7l0.2,0.2l0.6,0l0,0.4l-0.6,0l-0.3,0.3l0,0.6l-0.3,0l0,-0.6l-0.3,-0.3l-0.7,0l0,-0.5l0.7,0l0.3,-0.2l0,-0.6l0.4,0Z" class="g1_4" />
<path d="M326.5,257.5l26,0l0,35l-26,0" class="g1_4" />
<path d="M324.9,261.3l7.5,0c0.4,0,0.7,0.4,0.7,0.8l0,25.7c0,0.5,-0.3,0.8,-0.7,0.8l-7.5,0c-0.4,0,-0.8,-0.3,-0.8,-0.8l0,-25.7c0,-0.4,0.4,-0.8,0.8,-0.8Z" class="g1_4" />
<path d="M328.7,262.3c0.7,0,1.2,0.6,1.2,1.3c0,0.6,-0.5,1.2,-1.2,1.2c-0.7,0,-1.2,-0.6,-1.2,-1.2c0,-0.7,0.5,-1.3,1.2,-1.3Z" class="g1_4" />
<path d="M328.4,263.1l-0.3,0.5l0.3,0.6l0.6,0l0.4,-0.6L329,263.1l-0.6,0Z" class="g1_4" />
<path d="M328.7,285.1c0.7,0,1.2,0.5,1.2,1.2c0,0.7,-0.5,1.2,-1.2,1.2c-0.7,0,-1.2,-0.5,-1.2,-1.2c0,-0.7,0.5,-1.2,1.2,-1.2Z" class="g1_4" />
<path d="M328.4,285.8l-0.3,0.6l0.3,0.5l0.6,0l0.4,-0.5L329,285.8l-0.6,0Z" class="g1_4" />
<path d="M334,261.3l7.4,0c0.4,0,0.8,0.4,0.8,0.8l0,25.7c0,0.5,-0.4,0.8,-0.8,0.8l-7.4,0c-0.5,0,-0.8,-0.3,-0.8,-0.8l0,-25.7c0,-0.4,0.3,-0.8,0.8,-0.8Z" class="g1_4" />
<path d="M337.8,262.3c0.6,0,1.2,0.6,1.2,1.3c0,0.6,-0.6,1.2,-1.2,1.2c-0.7,0,-1.3,-0.6,-1.3,-1.2c0,-0.7,0.6,-1.3,1.3,-1.3Z" class="g1_4" />
<path d="M337.5,263.1l-0.4,0.5l0.4,0.6l0.6,0l0.3,-0.6l-0.3,-0.5l-0.6,0Z" class="g1_4" />
<path d="M337.8,285.1c0.6,0,1.2,0.5,1.2,1.2c0,0.7,-0.6,1.2,-1.2,1.2c-0.7,0,-1.3,-0.5,-1.3,-1.2c0,-0.7,0.6,-1.2,1.3,-1.2Z" class="g1_4" />
<path d="M337.5,285.8l-0.4,0.6l0.4,0.5l0.6,0l0.3,-0.5l-0.3,-0.6l-0.6,0Z" class="g1_4" />
<path d="M222.3,264.7l66.7,0c0.2,0,0.4,0.2,0.4,0.4l0,19.9c0,0.2,-0.2,0.4,-0.4,0.4l-66.7,0c-0.2,0,-0.4,-0.2,-0.4,-0.4l0,-19.9c0,-0.2,0.2,-0.4,0.4,-0.4Z" class="g1_4" />
<path d="M359.3,264.7l66.8,0c0.2,0,0.3,0.2,0.3,0.4l0,19.9c0,0.2,-0.1,0.4,-0.3,0.4l-66.8,0c-0.2,0,-0.3,-0.2,-0.3,-0.4l0,-19.9c0,-0.2,0.1,-0.4,0.3,-0.4Z" class="g1_4" />
<path d="M78.3,396.8l-1.7,-4l0,-31.4c0,0,-0.1,-0.4,-0.3,-0.4l-0.6,0c0,0,-0.4,0.1,-0.4,0.4l0,34.7c0,0.2,0.1,0.7,0.6,0.7" class="g1_4" />
<path d="M66.7,397.4l0,-0.1c0,0,0.3,-0.5,0.7,-0.5l61.5,0c0,0,0.8,0.1,0.8,0.6" class="g1_4" />
<path d="M129.5,397.5l-63,0" class="g1_4" />
<path d="M124.5,397.5l0,6l-53,0l0,-6" class="g1_4" />
<path d="M134.5,421.7l0,0.6l-8.9,0c0,0,-0.6,0.1,-0.6,0.7l0,8.3l-0.6,0l0,-8.4c0,0,0.1,-1.2,1.2,-1.2c1.2,0,8.9,0,8.9,0Z" class="g1_4" />
<path d="M124.5,403.5l0,74" class="g1_4" />
<path d="M133,435.5c0,0,-0.1,-0.4,-0.4,-0.4l-3.9,0c0,0,-0.5,0,-0.5,0.3c0,0.3,0,0.4,0.1,0.6c0.2,0.2,0.9,0.7,2,0.8c1.1,0.1,2.2,-0.5,2.4,-0.7c0.2,-0.1,0.3,-0.3,0.3,-0.6Z" class="g1_4" />
<path d="M129.7,435.1l0,-12.8" class="g1_4" />
<path d="M131.5,435.2l0,-12.9" class="g1_4" />
<path d="M129.7,421.7l0,-12" class="g1_4" />
<path d="M131.5,421.7l0,-12l-1.7,0" class="g1_4" />
<path d="M129.7,410.4l1.8,-0.5" class="g1_4" />
<path d="M129.7,411.2l1.8,-0.6" class="g1_4" />
<path d="M129.7,411.9l1.8,-0.5" class="g1_4" />
<path d="M129.7,412.7l1.8,-0.5" class="g1_4" />
<path d="M129.7,413.5l1.8,-0.5" class="g1_4" />
<path d="M129.7,414.3l1.8,-0.6" class="g1_4" />
<path d="M129.7,415l1.8,-0.5" class="g1_4" />
<path d="M129.7,415.8l1.8,-0.5" class="g1_4" />
<path d="M129.7,416.6l1.8,-0.5" class="g1_4" />
<path d="M129.7,417.3l1.8,-0.5" class="g1_4" />
<path d="M129.7,418.1l1.8,-0.5" class="g1_4" />
<path d="M129.7,418.9l1.8,-0.5" class="g1_4" />
<path d="M129.7,419.7l1.8,-0.5" class="g1_4" />
<path d="M129.7,420.4l1.8,-0.5" class="g1_4" />
<path d="M129.7,421.2l1.8,-0.5" class="g1_4" />
<path d="M130.6,421.7l0.9,-0.3" class="g1_4" />
<path d="M129.7,423.6l1.8,-0.5" class="g1_4" />
<path d="M129.7,424.4l1.8,-0.5" class="g1_4" />
<path d="M129.7,425.2l1.8,-0.5" class="g1_4" />
<path d="M129.7,425.9l1.8,-0.5" class="g1_4" />
<path d="M129.7,426.7l1.8,-0.5" class="g1_4" />
<path d="M129.7,427.5l1.8,-0.5" class="g1_4" />
<path d="M129.7,428.2l1.8,-0.5" class="g1_4" />
<path d="M129.7,429l1.8,-0.5" class="g1_4" />
<path d="M129.7,429.8l1.8,-0.5" class="g1_4" />
<path d="M129.7,430.6l1.8,-0.6" class="g1_4" />
<path d="M129.7,431.3l1.8,-0.5" class="g1_4" />
<path d="M129.7,432.1l1.8,-0.5" class="g1_4" />
<path d="M129.7,432.9l1.8,-0.5" class="g1_4" />
<path d="M129.7,433.7l1.8,-0.6" class="g1_4" />
<path d="M129.7,434.4l1.8,-0.5" class="g1_4" />
<path d="M130.1,435.1l1.4,-0.4" class="g1_4" />
<path d="M129.7,422.9l1.7,-0.5" class="g1_4" />
<path d="M125.3,422.6c0,0,-0.3,0,-0.3,0.3l0,3c0,0,0,0.4,0.3,0.4c0.2,0,0.3,0,0.4,-0.1c0.1,-0.1,0.5,-0.7,0.6,-1.5c0.1,-0.9,-0.4,-1.7,-0.5,-1.9c-0.1,-0.2,-0.2,-0.2,-0.5,-0.2Z" class="g1_4" />
<path d="M124.6,455.6c-0.1,0,-0.2,0,-0.2,0.1c0,0.1,0,3.1,0,3.1c0,0.1,0,0.2,0.2,0.2c0.1,0,0.3,0,0.4,-0.2c0.1,-0.1,0.5,-0.6,0.5,-1.3c0.1,-0.8,-0.3,-1.6,-0.4,-1.7c-0.1,-0.1,-0.2,-0.2,-0.5,-0.2Z" class="g1_4" />
<path d="M61.9,421.7l0,0.6l8.9,0c0,0,0.6,0.1,0.6,0.7l0,8.3l0.6,0l0,-8.4c0,0,-0.1,-1.2,-1.2,-1.2c-1.1,0,-8.9,0,-8.9,0Z" class="g1_4" />
<path d="M72.5,403.5l0,74" class="g1_4" />
<path d="M63.5,435.5c0,0,0,-0.4,0.4,-0.4l3.9,0c0,0,0.5,0,0.5,0.3c0,0.3,0,0.4,-0.2,0.6c-0.1,0.2,-0.8,0.7,-1.9,0.8c-1.1,0.1,-2.2,-0.5,-2.4,-0.7c-0.3,-0.1,-0.3,-0.3,-0.3,-0.6Z" class="g1_4" />
<path d="M64.9,435.1l0,-12.8" class="g1_4" />
<path d="M66.7,435.2l0.1,-12.9" class="g1_4" />
<path d="M64.9,421.7l0.1,-12" class="g1_4" />
<path d="M66.7,421.7l0.1,-12l-1.8,0" class="g1_4" />
<path d="M65,410.4l1.7,-0.5" class="g1_4" />
<path d="M65,411.2l1.7,-0.6" class="g1_4" />
<path d="M65,411.9l1.7,-0.5" class="g1_4" />
<path d="M65,412.7l1.7,-0.5" class="g1_4" />
<path d="M65,413.5L66.7,413" class="g1_4" />
<path d="M65,414.3l1.7,-0.6" class="g1_4" />
<path d="M65,415l1.7,-0.5" class="g1_4" />
<path d="M65,415.8l1.7,-0.5" class="g1_4" />
<path d="M65,416.6l1.7,-0.5" class="g1_4" />
<path d="M65,417.3l1.7,-0.5" class="g1_4" />
<path d="M65,418.1l1.7,-0.5" class="g1_4" />
<path d="M65,418.9l1.7,-0.5" class="g1_4" />
<path d="M65,419.7l1.7,-0.5" class="g1_4" />
<path d="M65,420.4l1.7,-0.5" class="g1_4" />
<path d="M65,421.2l1.7,-0.5" class="g1_4" />
<path d="M65.8,421.7l0.9,-0.3" class="g1_4" />
<path d="M65,423.6l1.7,-0.5" class="g1_4" />
<path d="M65,424.4l1.7,-0.5" class="g1_4" />
<path d="M65,425.2l1.7,-0.5" class="g1_4" />
<path d="M65,425.9l1.7,-0.5" class="g1_4" />
<path d="M65,426.7l1.7,-0.5" class="g1_4" />
<path d="M65,427.5L66.7,427" class="g1_4" />
<path d="M65,428.2l1.7,-0.5" class="g1_4" />
<path d="M65,429l1.7,-0.5" class="g1_4" />
<path d="M65,429.8l1.7,-0.5" class="g1_4" />
<path d="M65,430.6L66.7,430" class="g1_4" />
<path d="M65,431.3l1.7,-0.5" class="g1_4" />
<path d="M65,432.1l1.7,-0.5" class="g1_4" />
<path d="M65,432.9l1.7,-0.5" class="g1_4" />
<path d="M65,433.7l1.7,-0.6" class="g1_4" />
<path d="M65,434.4l1.7,-0.5" class="g1_4" />
<path d="M65.4,435.1l1.3,-0.4" class="g1_4" />
<path d="M65,422.9l1.7,-0.5" class="g1_4" />
<path d="M71.1,422.6c0,0,0.3,0,0.3,0.3l0,3c0,0,0,0.4,-0.2,0.4c-0.2,0,-0.3,0,-0.5,-0.1c-0.1,-0.1,-0.5,-0.7,-0.6,-1.5c0,-0.9,0.4,-1.7,0.5,-1.9c0.2,-0.2,0.3,-0.2,0.5,-0.2Z" class="g1_4" />
<path d="M108.5,441.5l-20,0l0,1l20,0Z" class="g1_4" />
<path d="M124.5,477.3l0,5.4c0,0,-0.1,0.9,-0.9,0.9l-51.6,0c0,0,-0.9,-0.2,-0.9,-1l0,-5.4l53.4,0.1Z" class="g1_4" />
<path d="M88.5,442.5l20,0" class="g1_4" />
<path d="M107.5,442.5l0,-1" class="g1_4" />
<path d="M88.5,441.5l20,0" class="g1_4" />
<path d="M124.7,478.3c-0.1,0,-0.2,0,-0.2,0.1c0,0,0,3,0,3.1c0,0,0,0.1,0.2,0.1c0.1,0,0.3,0,0.4,-0.1c0.1,-0.1,0.5,-0.6,0.5,-1.4c0.1,-0.7,-0.3,-1.5,-0.4,-1.6c-0.1,-0.2,-0.2,-0.2,-0.5,-0.2Z" class="g1_4" />
<path d="M124.6,408.4c-0.1,0,-0.2,0,-0.2,0c0,0.1,0,3.1,0,3.2c0,0,0,0.1,0.2,0.1c0.1,0,0.3,0,0.4,-0.1c0.1,-0.1,0.5,-0.6,0.5,-1.4c0.1,-0.7,-0.3,-1.5,-0.4,-1.7c-0.1,-0.1,-0.2,-0.1,-0.5,-0.1Z" class="g1_4" />
<path d="M71.1,477.2c0,-0.4,0.4,-0.9,0.9,-0.9" class="g1_4" />
<path d="M71.6,477.2c0,-0.2,0.1,-0.4,0.4,-0.4" class="g1_4" />
<path d="M72.5,477.5l0,-74" class="g1_4" />
<path fill-rule="evenodd" d="M71.7,408.4c0,0,0.3,0,0.3,0.2l0,2.8c0,0,0,0.4,-0.2,0.4c-0.2,0,-0.3,0,-0.4,-0.1c-0.2,-0.1,-0.5,-0.6,-0.6,-1.4c-0.1,-0.8,0.3,-1.6,0.5,-1.7c0.1,-0.2,0.2,-0.2,0.4,-0.2Z" class="g3_4" />
<path d="M71.7,408.4c0,0,0.3,0,0.3,0.2l0,2.8c0,0,0,0.4,-0.2,0.4c-0.2,0,-0.3,0,-0.4,-0.1c-0.2,-0.1,-0.5,-0.6,-0.6,-1.4c-0.1,-0.8,0.3,-1.6,0.5,-1.7c0.1,-0.2,0.2,-0.2,0.4,-0.2Z" class="g4_4" />
<path d="M71.7,408.4c0,0,0.3,0,0.3,0.2l0,2.8c0,0,0,0.4,-0.2,0.4c-0.2,0,-0.3,0,-0.4,-0.1c-0.2,-0.1,-0.5,-0.6,-0.6,-1.4c-0.1,-0.8,0.3,-1.6,0.5,-1.7c0.1,-0.2,0.2,-0.2,0.4,-0.2Z" class="g1_4" />
<path fill-rule="evenodd" d="M72.2,408.4c0,0,0.3,0,0.3,0.2l0,2.8c0,0,0,0.4,-0.2,0.4c-0.3,0,-0.3,0,-0.5,-0.1c-0.1,-0.1,-0.5,-0.6,-0.5,-1.4c-0.1,-0.8,0.3,-1.6,0.4,-1.7c0.2,-0.2,0.3,-0.2,0.5,-0.2Z" class="g3_4" />
<path d="M72.2,408.4c0,0,0.3,0,0.3,0.2l0,2.8c0,0,0,0.4,-0.2,0.4c-0.3,0,-0.3,0,-0.5,-0.1c-0.1,-0.1,-0.5,-0.6,-0.5,-1.4c-0.1,-0.8,0.3,-1.6,0.4,-1.7c0.2,-0.2,0.3,-0.2,0.5,-0.2Z" class="g4_4" />
<path d="M72.2,408.4c0,0,0.3,0,0.3,0.2l0,2.8c0,0,0,0.4,-0.2,0.4c-0.3,0,-0.3,0,-0.5,-0.1c-0.1,-0.1,-0.5,-0.6,-0.5,-1.4c-0.1,-0.8,0.3,-1.6,0.4,-1.7c0.2,-0.2,0.3,-0.2,0.5,-0.2Z" class="g1_4" />
<path d="M71.6,477.2l0,5.5c0,0,0.1,0.9,0.4,0.9" class="g1_4" />
<path d="M124,477.3l0,5.4c0,0,-0.1,0.9,-0.5,0.9" class="g1_4" />
<path d="M118.1,396.8l1.7,-4l0,-31.4c0,0,0.1,-0.4,0.3,-0.4l0.6,0c0,0,0.4,0.1,0.4,0.4l0,34.7c0,0.2,-0.1,0.7,-0.6,0.7" class="g1_4" />
<path d="M55.5,196.5l798,0" class="g5_4" />
<path d="M55.5,591.5l798,0" class="g5_4" />
<g clip-path="url(#c0_4)">
<path d="M837.4,1112.8c-3.2,5.5,-9.2,9.5,-17,11.6c7.1,-2.5,10.9,-6.4,13,-9.9c3.6,-5.9,3.1,-12.5,1,-16.4c-4.1,-7.9,-16.9,-8.7,-31.4,-7.6c16.4,-3.6,29.3,-1.4,34.3,6.3c3.1,4.7,3.1,10.6,0.1,16m-10.2,5.3c3.4,-4.4,4.5,-10.1,2.9,-15.6c-1.8,-6.3,-8.7,-10.1,-20.7,-11.1c13.8,-0.4,21.2,1.9,24,7.3c1.8,3.5,2.3,9.7,-1,15.3c-1.6,2.7,-4.5,5.8,-9.5,8.1c1.6,-1.1,3.1,-2.5,4.3,-4m11.1,-21.9c-6,-9.2,-22.2,-11.1,-42.3,-5c-0.1,0,-0.1,0,-0.1,0c-0.1,0.1,-0.1,0.1,-0.1,0.1c0,0,-0.1,0,-0.1,0c0,0.1,0,0.1,0,0.1c0,0,0,0.1,0,0.1c-0.1,0,-0.1,0,-0.1,0c0,0.1,0,0.1,0,0.1c0,0,0,0.1,0,0.1c0,0,0,0.1,0,0.1c0,0,0,0.1,0,0.1c0.1,0,0.1,0.1,0.1,0.1c0,0.1,0,0.1,0.1,0.1c0,0.1,0,0.1,0.1,0.1c0.1,0,0.1,0.1,0.1,0.1l0.1,0l0.1,0c13.4,-0.6,30,0.8,32.8,10.6c1.5,5.1,0.5,10.4,-2.7,14.5c-3.1,3.9,-7.8,6.5,-13.8,7.7c-2.7,0.4,-5.7,0.6,-9,0.7c0,0,-0.1,0,-0.1,0c-0.2,0,-0.4,0.1,-0.5,0.3c0,0.1,0,0.1,0,0.1c0,0.1,0,0.1,0,0.1c0,0.1,0,0.1,0,0.1l0,0.1l0,0.1c0.1,0,0.1,0,0.1,0.1l0.1,0.1l0.1,0c0,0,0,0.1,0,0.1c0.1,0,0.1,0,0.2,0l0.1,0c1.3,0.1,2.6,0.2,3.9,0.2c14.5,0,25.9,-5,31,-13.8c3.3,-5.7,3.2,-12.1,-0.1,-17.1Z" class="g6_4" />
</g>
<path d="M796.4,1127.2c-0.3,0,-0.6,-0.2,-0.6,-0.6l0,-32c0,-0.3,0.3,-0.6,0.6,-0.6c0.3,0,0.5,0.3,0.5,0.6l0,32c0,0.4,-0.2,0.6,-0.5,0.6Z" class="g6_4" />
<path d="M798.6,1127.2c-0.3,0,-0.5,-0.2,-0.5,-0.6l0,-32c0,-0.3,0.2,-0.6,0.5,-0.6c0.3,0,0.6,0.3,0.6,0.6l0,32c0,0.4,-0.3,0.6,-0.6,0.6Z" class="g6_4" />
<path d="M800.9,1127.2c-0.4,0,-0.6,-0.2,-0.6,-0.6l0,-32c0,-0.3,0.2,-0.6,0.6,-0.6c0.3,0,0.5,0.3,0.5,0.6l0,32c0,0.4,-0.2,0.6,-0.5,0.6Z" class="g6_4" />
<path d="M782.1,1152.1c4.1,0,6.9,-2.9,6.9,-7c0,-4,-2.8,-6.9,-6.9,-6.9l-3.7,0l0,13.9Zm-6.4,-16c0,-0.3,0.2,-0.5,0.5,-0.5l6.2,0c5.3,0,9.6,4.3,9.6,9.5c0,5.3,-4.3,9.6,-9.6,9.6l-6.2,0c-0.3,0,-0.5,-0.2,-0.5,-0.5Z" class="g6_4" />
<path d="M794.2,1136.1c0,-0.3,0.2,-0.5,0.5,-0.5l11,0c0.3,0,0.5,0.2,0.5,0.5l0,1.5c0,0.3,-0.2,0.6,-0.5,0.6l-8.7,0l0,5.5l7.3,0c0.3,0,0.6,0.3,0.6,0.6l0,1.5c0,0.3,-0.3,0.5,-0.6,0.5l-7.3,0l0,5.9l8.7,0c0.3,0,0.5,0.2,0.5,0.5l0,1.5c0,0.3,-0.2,0.5,-0.5,0.5l-11,0c-0.3,0,-0.5,-0.2,-0.5,-0.5Z" class="g6_4" />
<path d="M809.4,1136.2c0,-0.3,0.3,-0.6,0.7,-0.6l1.6,0c0.3,0,0.6,0.3,0.6,0.6l0,7.6l7.7,-7.9c0.1,-0.2,0.3,-0.3,0.6,-0.3l2,0c0.5,0,0.8,0.6,0.4,1l-7.9,8l8.4,9.2c0.2,0.3,0,0.9,-0.5,0.9l-2.2,0c-0.3,0,-0.5,-0.1,-0.5,-0.2l-8,-8.9l0,8.5c0,0.3,-0.3,0.6,-0.6,0.6l-1.6,0c-0.4,0,-0.7,-0.3,-0.7,-0.6Z" class="g6_4" />
<path d="M825.9,1136.2c0,-0.3,0.2,-0.6,0.6,-0.6l1.6,0c0.4,0,0.7,0.3,0.7,0.6l0,7.6l7.7,-7.9c0.1,-0.2,0.3,-0.3,0.5,-0.3l2,0c0.5,0,0.8,0.6,0.4,1l-7.9,8l8.4,9.2c0.2,0.3,0.1,0.9,-0.5,0.9l-2.2,0c-0.3,0,-0.4,-0.1,-0.5,-0.2l-7.9,-8.9l0,8.5c0,0.3,-0.3,0.6,-0.7,0.6l-1.6,0c-0.4,0,-0.6,-0.3,-0.6,-0.6Z" class="g6_4" />
<g clip-path="url(#c0_4)">
<path d="M849.4,1152.3c3.9,0,7.1,-3.2,7.1,-7.1c0,-3.9,-3.2,-7.2,-7.1,-7.2c-3.9,0,-7.1,3.3,-7.1,7.2c0,3.9,3.2,7.1,7.1,7.1m0,-17c5.4,0,9.8,4.4,9.8,9.9c0,5.5,-4.4,9.8,-9.8,9.8c-5.5,0,-9.8,-4.3,-9.8,-9.8c0,-5.5,4.3,-9.9,9.8,-9.9Z" class="g6_4" />
</g>
<path d="M198.5,253.5l16,0" class="g7_4" />
<path d="M198.5,297.5l16,0" class="g7_4" />
<path d="M164.5,244.5l42,0" class="g7_4" />
<path d="M164.5,305.5l42,0" class="g7_4" />
<path d="M198.5,361.5l16,0" class="g7_4" />
<path d="M198.5,396.5l12,0" class="g8_4" />
<path d="M220.5,441.5l222,0" class="g7_4" />
<path d="M133.5,352.5l0,65" class="g7_4" />
<path d="M62.5,352.5l0,65" class="g7_4" />
<path d="M124.5,483.5l0,12" class="g7_4" />
<path d="M71.5,483.5l0,12" class="g7_4" />
<path d="M436.5,483.5l0,12" class="g7_4" />
<path d="M213.5,483.5l0,12" class="g7_4" />
<path d="M208.5,243.5l0,-8" class="g7_4" />
<path d="M440.5,243.5l0,-8" class="g7_4" />
<path d="M208.5,231.5l232,0" class="g5_4" />
<path d="M208.5,229.5l0,3" class="g5_4" />
<path d="M440.5,229.5l0,3" class="g5_4" />
<path d="M217.5,324.5l0,-27" class="g7_4" />
<path d="M430.5,324.5l0,-27" class="g7_4" />
<path d="M217.5,327.5l213,0" class="g5_4" />
<path d="M217.5,326.5l0,3" class="g5_4" />
<path d="M430.5,326.5l0,3" class="g5_4" />
<path d="M431.5,715.5l0,-15" class="g7_4" />
<path d="M549.5,715.5l0,-15" class="g7_4" />
<path d="M431.5,717.5l118,0" class="g5_4" />
<path d="M431.5,716.5l0,2" class="g5_4" />
<path d="M549.5,716.5l0,2" class="g5_4" />
<path d="M213.5,498.5l223,0" class="g5_4" />
<path d="M213.5,497.5l0,2" class="g5_4" />
<path d="M436.5,497.5l0,2" class="g5_4" />
<path d="M196.5,253.5l0,44" class="g5_4" />
<path d="M198.5,253.5l-3,0" class="g5_4" />
<path d="M198.5,297.5l-3,0" class="g5_4" />
<path d="M195.5,361.5l0,35" class="g5_4" />
<path d="M197.5,361.5l-3,0" class="g5_4" />
<path d="M197.5,396.5l-3,0" class="g5_4" />
<path d="M445.5,403.5l0,38" class="g5_4" />
<path d="M446.5,403.5l-2,0" class="g5_4" />
<path d="M446.5,441.5l-2,0" class="g5_4" />
<path d="M436.5,403.5l104,0" class="g7_4" />
<path d="M436.5,483.5l105,0" class="g7_4" />
<path d="M542.5,403.5l0,80" class="g5_4" />
<path d="M544.5,403.5l-3,0" class="g5_4" />
<path d="M544.5,483.5l-3,0" class="g5_4" />
<path d="M570.5,317.5l0,-16" class="g7_4" />
<path d="M803.5,317.5l0,-16" class="g7_4" />
<path d="M570.5,318.5l233,0" class="g5_4" />
<path d="M570.5,317.5l0,3" class="g5_4" />
<path d="M803.5,317.5l0,3" class="g5_4" />
<path d="M803.5,250.5l18,0" class="g7_4" />
<path d="M803.5,301.5l18,0" class="g7_4" />
<path d="M820.5,250.5l0,51" class="g5_4" />
<path d="M821.5,250.5l-2,0" class="g5_4" />
<path d="M821.5,301.5l-2,0" class="g5_4" />
<path d="M551.5,644.5l18,0" class="g7_4" />
<path d="M551.5,699.5l18,0" class="g7_4" />
<path d="M568.5,644.5l0,55" class="g5_4" />
<path d="M569.5,644.5l-2,0" class="g5_4" />
<path d="M569.5,699.5l-2,0" class="g5_4" />
<path d="M160.5,244.5l0,62" class="g5_4" />
<path d="M162.5,244.5l-3,0" class="g5_4" />
<path d="M162.5,306.5l-3,0" class="g5_4" />
<path d="M133.5,349.5l-71,0" class="g5_4" />
<path d="M133.5,351.5l0,-3" class="g5_4" />
<path d="M62.5,351.5l0,-3" class="g5_4" />
<path d="M124.5,498.5l-53,0" class="g5_4" />
<path d="M124.5,499.5l0,-2" class="g5_4" />
<path d="M71.5,499.5l0,-2" class="g5_4" />
<path d="M173.5,643.5l0,-15" class="g7_4" />
<path d="M298.5,643.5l0,-15" class="g7_4" />
<path d="M182.5,718.5l0,-21" class="g7_4" />
<path d="M289.5,718.5l0,-21" class="g7_4" />
<path d="M178.5,892.5l0,-15" class="g7_4" />
<path d="M293.5,892.5l0,-15" class="g7_4" />
<path d="M165.5,652.5l15,0" class="g7_4" />
<path d="M165.5,697.5l15,0" class="g7_4" />
<path d="M130.5,643.5l42,0" class="g7_4" />
<path d="M130.5,706.5l42,0" class="g7_4" />
<path d="M296.5,798.5l107,0" class="g7_4" />
<path d="M296.5,877.5l108,0" class="g7_4" />
<path d="M180.5,835.5l125,0" class="g7_4" />
<path d="M173.5,624.5l125,0" class="g5_4" />
<path d="M173.5,623.5l0,2" class="g5_4" />
<path d="M298.5,623.5l0,2" class="g5_4" />
<path d="M182.5,720.5l107,0" class="g5_4" />
<path d="M182.5,719.5l0,2" class="g5_4" />
<path d="M289.5,719.5l0,2" class="g5_4" />
<path d="M178.5,895.5l115,0" class="g5_4" />
<path d="M178.5,893.5l0,3" class="g5_4" />
<path d="M293.5,893.5l0,3" class="g5_4" />
<path d="M162.5,652.5l0,45" class="g5_4" />
<path d="M164.5,652.5l-3,0" class="g5_4" />
<path d="M164.5,697.5l-3,0" class="g5_4" />
<path d="M312.5,756.5l-23,0" class="g7_4" />
<path d="M312.5,792.5l-12,0" class="g7_4" />
<path d="M314.5,756.5l0,36" class="g5_4" />
<path d="M313.5,756.5l2,0" class="g5_4" />
<path d="M313.5,792.5l2,0" class="g5_4" />
<path d="M308.5,798.5l0,37" class="g5_4" />
<path d="M310.5,798.5l-3,0" class="g5_4" />
<path d="M310.5,835.5l-3,0" class="g5_4" />
<path d="M406.5,798.5l0,79" class="g5_4" />
<path d="M407.5,798.5l-3,0" class="g5_4" />
<path d="M407.5,877.5l-3,0" class="g5_4" />
<path d="M126.5,643.5l0,63" class="g5_4" />
<path d="M128.5,643.5l-3,0" class="g5_4" />
<path d="M128.5,706.5l-3,0" class="g5_4" />
<path d="M135.5,751.5l0,65" class="g7_4" />
<path d="M62.5,751.5l0,65" class="g7_4" />
<path d="M124.5,882.5l0,12" class="g7_4" />
<path d="M71.5,882.5l0,12" class="g7_4" />
<path d="M135.5,748.5l-73,0" class="g5_4" />
<path d="M135.5,750.5l0,-3" class="g5_4" />
<path d="M62.5,750.5l0,-3" class="g5_4" />
<path d="M124.5,897.5l-53,0" class="g5_4" />
<path d="M124.5,898.5l0,-2" class="g5_4" />
<path d="M71.5,898.5l0,-2" class="g5_4" />
<path d="M55,62l10,0L65,0L55,0l0,62Z" class="g9_4" />
</svg>