<?xml version="1.0" encoding="UTF-8" standalone="no"?>
<!DOCTYPE svg PUBLIC "-//W3C//DTD SVG 1.1//EN"
"http://www.w3.org/Graphics/SVG/1.1/DTD/svg11.dtd">
<svg viewBox="0 0 935 1210" version="1.1" xmlns="http://www.w3.org/2000/svg" xmlns:xlink="http://www.w3.org/1999/xlink">
<defs>
<style type="text/css"><![CDATA[
.g19_1{
fill: none;
stroke: #000000;
stroke-width: 2;
stroke-linecap: round;
stroke-linejoin: round;
stroke-miterlimit: 2;
stroke-dasharray: 4,5;
}
.g15_1{
fill: #636363;
}
.g16_1{
fill: #D4D4D4;
}
.g10_1{
fill: none;
stroke: #FFFFFF;
stroke-width: 6;
stroke-linecap: round;
stroke-linejoin: round;
stroke-miterlimit: 2;
}
.g2_1{
fill: none;
stroke: #FFFFFF;
stroke-width: 3;
stroke-linecap: round;
stroke-linejoin: miter;
stroke-miterlimit: 2;
}
.g12_1{
stroke: #000000;
stroke-width: 1;
stroke-linecap: round;
stroke-linejoin: round;
stroke-miterlimit: 2;
}
.g3_1{
fill: #FFFFFF;
stroke: #000000;
stroke-width: 2;
stroke-linecap: butt;
stroke-linejoin: miter;
stroke-miterlimit: 2;
}
.g1_1{
fill: #B3B3B3;
}
.g7_1{
fill: #636363;
stroke: #000000;
stroke-width: 1;
stroke-linecap: butt;
stroke-linejoin: miter;
stroke-miterlimit: 2;
}
.g9_1{
fill: none;
stroke: #000000;
stroke-width: 2;
stroke-linecap: round;
stroke-linejoin: round;
stroke-miterlimit: 2;
}
.g14_1{
fill: #FFFFFF;
stroke: #000000;
stroke-width: 2;
stroke-linecap: round;
stroke-linejoin: round;
stroke-miterlimit: 2;
}
.g5_1{
fill: none;
stroke: #000000;
stroke-width: 2;
stroke-linecap: butt;
stroke-linejoin: miter;
stroke-miterlimit: 2;
}
.g11_1{
fill: none;
stroke: #000000;
stroke-width: 1;
stroke-linecap: round;
stroke-linejoin: round;
stroke-miterlimit: 2;
stroke-dasharray: 2,3;
}
.g4_1{
fill: none;
stroke: #000000;
stroke-width: 1;
stroke-linecap: butt;
stroke-linejoin: miter;
stroke-miterlimit: 2;
}
.g20_1{
fill: #FFFFFF;
}
.g13_1{
fill: #FFFFFF;
stroke: #000000;
stroke-width: 1;
stroke-linecap: round;
stroke-linejoin: round;
stroke-miterlimit: 2;
}
.g18_1{
fill: none;
stroke: #000000;
stroke-width: 2;
stroke-linecap: round;
stroke-linejoin: round;
stroke-miterlimit: 2;
stroke-dasharray: 3,5;
}
.g6_1{
}
.g17_1{
fill: #FFFFFF;
stroke: #000000;
stroke-width: 3;
stroke-linecap: round;
stroke-linejoin: round;
stroke-miterlimit: 2;
}
.g8_1{
fill: none;
stroke: #000000;
stroke-width: 1;
stroke-linecap: round;
stroke-linejoin: round;
stroke-miterlimit: 2;
}
]]></style>
</defs>
<path fill-rule="evenodd" d="M55,54l824,0l0,1101l-824,0Z" class="g1_1" />
<path d="M55.5,256.5l27,0" class="g2_1" />
<path d="M55.5,430.5l27,0" class="g2_1" />
<path d="M55.5,605.5l27,0" class="g2_1" />
<path d="M55.5,779.5l27,0" class="g2_1" />
<path d="M55.5,953.5l27,0" class="g2_1" />
<path d="M852.5,256.5l28,0" class="g2_1" />
<path d="M852.5,449.5l28,0" class="g2_1" />
<path d="M852.5,605.5l28,0" class="g2_1" />
<path d="M852.5,779.5l28,0" class="g2_1" />
<path d="M852.5,953.5l28,0" class="g2_1" />
<path d="M236.5,82.5l0,-27" class="g2_1" />
<path d="M390.5,82.5l0,-27" class="g2_1" />
<path d="M544.5,82.5l0,-27" class="g2_1" />
<path d="M698.5,82.5l0,-27" class="g2_1" />
<path d="M236.5,1155.5l0,-28" class="g2_1" />
<path d="M390.5,1155.5l0,-28" class="g2_1" />
<path d="M544.5,1155.5l0,-28" class="g2_1" />
<path d="M698.5,1155.5l0,-28" class="g2_1" />
<path fill-rule="evenodd" d="M82,82l770,0l0,1045l-770,0Z" class="g3_1" />
<path d="M408.5,171.5l118,0" class="g4_1" />
<path d="M184.5,209.5l646,0" class="g4_1" />
<path d="M103.5,278.5l727,0" class="g4_1" />
<path d="M82,1097l770,0" class="g5_1" />
<path d="M466.5,1099.5l0,28" class="g4_1" />
<path d="M468.5,1099.5l0,28" class="g4_1" />
<path d="M272.5,1099.5l0,28" class="g4_1" />
<path d="M274.5,1099.5l0,28" class="g4_1" />
<path d="M664.5,1099.5l0,28" class="g4_1" />
<path d="M666.5,1099.5l0,28" class="g4_1" />
<path fill-rule="evenodd" d="M106,289l37,0l0,38l-37,0Z" class="g6_1" />
<path fill-rule="evenodd" d="M103.5,287.5l38,0l0,37l-38,0Z" class="g7_1" />
<path fill-rule="evenodd" d="M106,559l37,0l0,38l-37,0Z" class="g6_1" />
<path fill-rule="evenodd" d="M103.5,557.5l38,0l0,38l-38,0Z" class="g7_1" />
<path d="M103.5,548.5l727,0" class="g4_1" />
<path d="M274.5,1099.5l192,0" class="g8_1" />
<path d="M468.5,1099.5l196,0" class="g8_1" />
<path d="M666.5,1099.5l186,0" class="g8_1" />
<path d="M272.5,1099.5l-190,0" class="g8_1" />
<path d="M314.2,766.5l-112,-32" class="g9_1" />
<path d="M187.6,730.5L140.8,717.2" class="g9_1" />
<path d="M327.6,770.1l21.5,6.2L565,689.7" class="g9_1" />
<path d="M592.1,678.8L617.6,669" class="g9_1" />
<path d="M663.4,650.1l165,-65.7" class="g9_1" />
<path d="M475.4,695.4C487.7,690.9,504,685.3,514,683.3c10,-2.1,22.8,-5,39.3,-5.6c16.4,-0.6,44.5,2.3,55.4,3c10.9,0.6,13.9,0.5,15.4,0.5" class="g9_1" />
<path d="M479.9,707.1c13.8,-5.8,33.2,-11.5,40,-12.9c6.8,-1.3,27.8,-4.6,45.1,-4.5c17.2,0.2,31.6,2,31.6,2c0,0,23,1.9,27.4,1.9" class="g9_1" />
<path d="M319.3,704.2c16.1,3.8,34.8,7.1,44.9,8.1c10.1,1,21.7,1.4,30.4,1.2c8.7,-0.2,19.5,-1.5,26.2,-2.6c6.7,-1.1,21.6,-3.5,43.3,-11.3" class="g9_1" />
<path d="M315.3,715.6c16.2,3.8,38.8,7.6,48.9,8.6c10.1,1,21.7,1.4,30.4,1.2c8.7,-0.2,19.5,-1.5,26.2,-2.6c6.7,-1.1,25.6,-3.9,47.3,-11.7" class="g9_1" />
<path d="M324.4,692.1c1.1,-0.5,5.2,-1.9,5.2,-2.2c0,-0.3,0.2,-1.5,0.2,-1.5" class="g9_1" />
<path d="M294.8,697.4c0.4,-1.1,2.8,-3.8,4.8,-4.8c2,-1,17.6,-7.1,17.6,-7.1c0,0,1.5,-0.6,3,0c1.5,0.6,9.6,2.9,9.6,2.9" class="g9_1" />
<path d="M319.4,701.7c0.2,3.1,-0.5,8.6,-2.3,11.2c-1.8,2.7,-4.5,5.6,-7.7,5.4C306.1,718.1,297.1,715,297.1,715c0,0,-3.5,-0.8,-4.3,-4.6" class="g9_1" />
<path d="M319.5,701.1c0.3,-1,1.2,-2,2.3,-2.5c1.1,-0.5,8.3,-4.1,8.3,-4.1m0,0L318.8,691l-8.2,2.9c-1.8,0.7,-3.8,2.6,-3.7,5.5c0.2,2.8,-0.8,13,-7.1,14.8" class="g9_1" />
<path d="M310.1,696.6l8.4,2.4" class="g8_1" />
<path d="M315,695.1c0,-0.8,2.1,-1.5,4.7,-1.5c2.5,0,4.6,0.7,4.6,1.5" class="g9_1" />
<path d="M324.3,695.1c0,0.9,-2.1,1.6,-4.6,1.6c-2.6,0,-4.7,-0.7,-4.7,-1.6" class="g8_1" />
<path d="M315,689.6c0,-0.8,2.1,-1.5,4.7,-1.5c2.5,0,4.6,0.7,4.6,1.5" class="g9_1" />
<path d="M324.3,689.6c0,0.9,-2.1,1.6,-4.6,1.6c-2.6,0,-4.7,-0.7,-4.7,-1.6" class="g8_1" />
<path d="M461.1,687.6l-9.4,3.8l9.4,3.9c0,0,3.3,1,3.1,3.5c-0.2,2.5,0.9,11,5.2,13.4c4.3,2.4,6.8,2.7,9.3,1.4c2.6,-1.2,8,-3,8,-3c0,0,4.9,-1.7,4.9,-7" class="g9_1" />
<path d="M456,688.5l-3.8,-1.1c0,0,-1.5,-0.9,-0.7,-1.4c0.7,-0.5,9.6,-4.3,9.6,-4.3l21,5.7c0,0,4,1,5.3,3.1" class="g9_1" />
<path d="M461.1,687.6l10.3,2.7c0,0,3.2,1.3,3.1,4.2c-0.1,2.8,0.3,10.3,4.3,13.1c4.1,2.7,7.3,2.5,7.3,2.5" class="g9_1" />
<path d="M457.2,691.6c0,-0.9,2.1,-1.6,4.7,-1.6c2.5,0,4.6,0.7,4.6,1.6" class="g9_1" />
<path d="M466.5,691.6c0,0.9,-2.1,1.5,-4.6,1.5c-2.6,0,-4.7,-0.6,-4.7,-1.5" class="g8_1" />
<path d="M457.2,686.1c0,-0.9,2.1,-1.5,4.7,-1.5c2.5,0,4.6,0.6,4.6,1.5" class="g9_1" />
<path d="M466.5,686.1c0,0.9,-2.1,1.5,-4.6,1.5c-2.6,0,-4.7,-0.6,-4.7,-1.5" class="g8_1" />
<path d="M464.2,695l6.9,-2.4" class="g8_1" />
<path d="M195.7,999.4c1.3,-1.5,3,-2.1,4.8,-1.9c1.8,0.2,19.1,2.3,19.1,2.3c0,0,3.6,0.1,5.2,-0.1c1.7,-0.3,5.5,-0.5,8.9,0.5c3.3,1,32.4,9.1,32.4,9.1c0,0,1.7,0.4,1.7,2.3c0,1.9,-0.1,12.7,-0.1,12.7c0,0,-0.1,1.1,-1.3,2.3c-1.2,1.2,-4.6,4.2,-4.6,4.2c0,0,-0.9,0.5,-0.9,2.3c0,1.7,-1.1,11.8,-1.3,13.3c-0.2,1.4,-0.9,2,-2.2,2.6c-1.4,0.6,-6.7,2.7,-6.7,2.7c0,0,-1.4,0.4,-3.3,-0.3c-1.9,-0.6,-25.7,-7.1,-25.7,-7.1c0,0,-1.8,0.1,-2.5,-3.5c-0.7,-3.5,-2,-12.8,-2,-12.8c0,0,-0.5,-1.6,-2.1,-2.3c-1.6,-0.6,-18.1,-7.6,-18.9,-8.1c-0.9,-0.5,-3.5,-0.5,-4.2,-5.3" class="g9_1" />
<path d="M221.2,1042.5l9.5,-3.3" class="g8_1" />
<path d="M233.4,1039.2l24.9,7.5" class="g8_1" />
<path d="M232.3,1037.3l1,-10.3" class="g8_1" />
<path d="M235.7,1024.9l24,6.7" class="g8_1" />
<path d="M239.7,1016.8l27.3,7.8" class="g8_1" />
<path d="M239.7,1004.2l-0.2,10.1" class="g8_1" />
<path d="M217.9,1020.3c4.3,-2.9,5.3,-7.8,5.6,-10.6c0.2,-2.8,-0.4,-7.2,-3.6,-8.1c-3.1,-0.9,11.4,-0.7,11.4,-0.7c0,0,2.6,-0.6,13.3,2.4" class="g8_1" />
<path d="M239.7,1016.8c-1.2,-0.3,-3.1,-0.4,-4.8,-0.2l-12.1,1.2c-2.5,0.5,-3.6,1.3,-5,2.6" class="g8_1" />
<path d="M236,1024.9c0,0,-3.4,-0.7,-5.3,-1.4l-0.4,-0.2l-7.4,-3.6c0,0,-3.6,-0.7,-5.1,0.7" class="g8_1" />
<path d="M207.2,1022.9c0,2.2,1.4,3.3,4,4.5c2.7,1.2,3.8,1.5,6.1,1.4" class="g9_1" />
<path d="M192.4,1014c0.9,0.9,5.7,3.3,8.5,0.7c2.8,-2.6,3.9,-4.3,4.2,-8.6c0.3,-4.4,-1.3,-7.3,-5.1,-7.8" class="g8_1" />
<path d="M199.9,1000.2c2.9,0.8,4.2,4,3,8.4c-1.5,5.5,-5.6,5.6,-6.7,5.3" class="g8_1" />
<path d="M230.7,1039.2c0.9,-0.3,1.9,-0.3,3,0.1" class="g8_1" />
<path d="M261,1045.2l16.2,4.5c0,0,3.5,0.6,4.4,-3.2c0.9,-3.8,-1,-4.8,-2.5,-5.3c-1.5,-0.4,-17.8,-4.9,-17.8,-4.9" class="g9_1" />
<path d="M269,1025l9.2,2.4l2,-1.1l1.7,-3.1l0,-3.4l-1.2,-2.8l-12,-3.6" class="g9_1" />
<path d="M262,1031.8l2.9,0.7l2,-1.1l1.7,-3.1l0,-3.4" class="g9_1" />
<path d="M319,747l0,-50" class="g10_1" />
<path d="M461,743l0,-50" class="g10_1" />
<path d="M316.3,767.2L316.4,757l3.2,-7.1l3.6,6.6l0,10.7" class="g9_1" />
<path d="M319.6,767.4c4.1,0,7.5,1.6,7.5,3.4c0,1.9,-3.4,4.9,-7.5,4.9c-4.2,0,-7.5,-3,-7.5,-4.9c0,-1.8,3.3,-3.4,7.5,-3.4Z" class="g9_1" />
<path d="M322,774.4c0,-0.6,0.4,-1.1,1.1,-1.6l-1,-0.6c-0.7,1.2,-3.8,1.6,-5.6,0.2l-0.6,0.6c0.8,0.6,0.7,0.6,0.9,1.3" class="g8_1" />
<path d="M316.2,765.4c0,-0.9,1.6,-1.6,3.5,-1.6c1.9,0,3.5,0.7,3.5,1.6" class="g8_1" />
<path d="M316.2,762.6c0,-0.8,1.6,-1.5,3.5,-1.5c1.9,0,3.5,0.7,3.5,1.5" class="g8_1" />
<path d="M316.2,760.2c0,-0.8,1.6,-1.5,3.5,-1.5c1.9,0,3.5,0.7,3.5,1.5" class="g8_1" />
<path d="M316.2,757.5c0,-0.8,1.6,-1.5,3.5,-1.5c1.9,0,3.5,0.7,3.5,1.5" class="g8_1" />
<path d="M458.4,763.2L458.5,753l3.2,-7.1l3.6,6.6l0,10.8" class="g9_1" />
<path d="M461.7,763.5c4.1,0,7.5,1.5,7.5,3.4c0,1.8,-3.4,4.8,-7.5,4.8c-4.2,0,-7.5,-3,-7.5,-4.8c0,-1.9,3.3,-3.4,7.5,-3.4Z" class="g9_1" />
<path d="M464.1,770.4c0,-0.6,0.4,-1.1,1.1,-1.6l-1,-0.6c-0.7,1.2,-3.8,1.6,-5.6,0.2L458,769c0.9,0.6,0.7,0.6,0.9,1.3" class="g8_1" />
<path d="M458.3,761.4c0,-0.9,1.6,-1.6,3.5,-1.6c1.9,0,3.5,0.7,3.5,1.6" class="g8_1" />
<path d="M458.3,758.6c0,-0.8,1.6,-1.5,3.5,-1.5c1.9,0,3.5,0.7,3.5,1.5" class="g8_1" />
<path d="M458.3,756.2c0,-0.8,1.6,-1.5,3.5,-1.5c1.9,0,3.5,0.7,3.5,1.5" class="g8_1" />
<path d="M458.3,753.5c0,-0.8,1.6,-1.5,3.5,-1.5c1.9,0,3.5,0.7,3.5,1.5" class="g8_1" />
<path d="M319.5,747.5l0,-51" class="g11_1" />
<path d="M461.5,743.5l0,-50" class="g11_1" />
<path fill-rule="evenodd" d="M106.5,606.5l178,0l0,75l-178,0Z" class="g12_1" />
<path fill-rule="evenodd" d="M103.5,604.5l178,0l0,75l-178,0Z" class="g13_1" />
<path d="M206.6,623.7l4.7,18.1" class="g8_1" />
<path d="M225.6,623.7l4.8,18.1" class="g8_1" />
<path d="M216.1,623.7l4.8,18.1" class="g8_1" />
<path d="M245.1,625.3l3.9,15" class="g8_1" />
<path d="M235.2,623.7l4.6,17.9" class="g8_1" />
<path d="M255.1,627.4l2.6,9.9" class="g8_1" />
<path d="M218.1,626.8l3.6,11.9l1.2,0" class="g8_1" />
<path d="M218.8,638.7l-3.5,-11.9l-1.2,0" class="g8_1" />
<path d="M208.6,626.8l3.6,11.9l1.2,0" class="g8_1" />
<path d="M209.3,638.7l-3.5,-11.9l-1.2,0" class="g8_1" />
<path d="M227.7,626.8l3.5,11.9l1.2,0" class="g8_1" />
<path d="M228.4,638.7l-3.6,-11.9l-1.2,0" class="g8_1" />
<path d="M237.3,627.2l3.2,10.9l1.4,-0.3" class="g8_1" />
<path d="M237.7,638.3l-3.4,-11.5l-1.2,0" class="g8_1" />
<path d="M247.1,628.4l2.5,8.3l1.3,-0.1" class="g8_1" />
<path d="M246.9,637.2l-2.7,-9.3l-1.3,-0.2" class="g8_1" />
<path d="M257.2,630.3l1.3,4.4l1.2,-0.3" class="g8_1" />
<path d="M255.9,635.5l-1.7,-5.9l-1.3,-0.4" class="g8_1" />
<path d="M203.8,638.7l5.5,0l2,3.1l2.1,-3.1l5.4,0l2.1,3.1l2,-3.1l5.5,0" class="g9_1" />
<path d="M228.4,638.7c0.6,1,1.3,2,2,3.1c0.6,-1,1.3,-2,2,-3.1c1.8,-0.1,3.5,-0.3,5.3,-0.4c0.7,1.1,1.4,2.2,2.1,3.3c0.7,-1.2,1.4,-2.5,2.1,-3.8c1.7,-0.1,3.3,-0.3,5.1,-0.5c0.6,1,1.3,2,2,3c0.6,-1.2,1.2,-2.4,1.9,-3.7c1.7,-0.3,3.3,-0.6,5,-1c0.6,0.6,1.2,1.2,1.8,1.9c0.7,-1,1.4,-2,2,-3.1c0.8,-0.2,1.7,-0.5,2.3,-0.8c0.6,-0.2,1.2,-0.6,1.6,-0.8c-1.1,-0.6,-2.3,-1.2,-3.4,-1.5c-1.1,-0.4,-2.1,-0.8,-3,-1" class="g9_1" />
<path d="M199.1,626.8l5.5,0l2,-3.1l2,3.1l5.5,0l2,-3.1l2,3.1l5.5,0" class="g9_1" />
<path d="M223.6,626.8l2,-3.1l2.1,3.1l5.4,0l2.1,-3.1l2.1,3.5l5.6,0.5l2.2,-2.4l2,3l5.8,0.9l2.2,-1.9l2.1,3" class="g9_1" />
<path d="M197.1,623.7l4.7,18.1" class="g8_1" />
<path d="M199.1,626.8l3.5,11.9l1.2,0" class="g8_1" />
<path d="M199.8,638.7l-3.5,-11.9l-1.3,0" class="g8_1" />
<path fill-rule="evenodd" d="M163.8,632.3c0,10.8,-8.8,19.5,-19.5,19.5c-10.8,0,-19.5,-8.7,-19.5,-19.5c0,-10.8,8.7,-19.5,19.5,-19.5c10.7,0,19.5,8.7,19.5,19.5Z" class="g14_1" />
<path fill-rule="evenodd" d="M193.6,631.9c0.2,-4.2,1.1,-8,2.7,-11.3c1.6,-3.2,4,-6.3,7.1,-8.8c0.6,0,1.3,0,2,0c0,13.3,0,26.7,0,40.1c-0.6,0,-1.3,0,-2,0c-3.1,-2.5,-5.5,-5.5,-7.1,-8.8c-1.6,-3.3,-2.5,-7.1,-2.7,-11.2Z" class="g14_1" />
<path d="M202.5,614.5l0,34" class="g8_1" />
<path fill-rule="evenodd" d="M154.9,634l0,0.1l0,0.1l0,0.1l0,0.1l-0.1,0l0,0.1l-0.1,0.2l-0.1,0.1l0,0.1l-0.1,0.1l-0.1,0.1l-0.1,0l0,0.1l-0.1,0l-0.1,0.1l-0.1,0l-0.1,0.1l-0.1,0l-0.1,0l-0.1,0l-0.2,0l-6.3,0l0,6.4l0,0.1l0,0.1l0,0.1l0,0.1l-0.1,0l0,0.1l-0.1,0.2l0,0.1l-0.1,0l0,0.1l-0.1,0.1l-0.1,0.1l-0.1,0l-0.1,0.1l-0.1,0.1l-0.1,0.1l-0.1,0l-0.1,0l-0.1,0l-0.1,0l-0.2,0l-3.1,0l-0.2,0l-0.1,0l-0.1,0l-0.1,0l-0.2,-0.1l0,-0.1l-0.1,0l0,-0.1l-0.2,0l0,-0.1l-0.2,-0.1l0,-0.1l-0.1,-0.1l0,-0.2l-0.1,-0.1l0,-0.1L141,642l0,-0.1l0,-0.1l0,-6.4l-6.3,0l-0.2,0l-0.1,0l-0.1,0l-0.1,-0.1l-0.2,0l0,-0.1l-0.1,0l0,-0.1l-0.1,0l-0.1,0L133.6,635l0,-0.1l0,-0.1l-0.1,0l0,-0.1l-0.1,0l0,-0.2l-0.1,-0.1l0,-0.1l0,-0.1l0,-0.1l0,-0.1l0,-3.1l0,-0.2l0,-0.1l0,-0.1l0.1,-0.2l0,-0.1l0.1,-0.1l0.1,-0.1l0,-0.1l0.1,-0.1l0.1,-0.1l0.1,0l0,-0.1l0.1,0l0.2,-0.1l0.1,0l0.1,0l0.1,-0.1l0.2,0l6.3,0l0,-6.3l0,-0.2l0,-0.1l0.1,0l0,-0.1l0,-0.1l0.1,-0.1l0,-0.1l0.1,-0.1l0,-0.1l0.2,-0.1l0,-0.1l0.2,-0.1l0,-0.1l0.1,0l0.2,-0.1l0.1,0l0.1,0l0.1,-0.1l0.2,0l3.1,0l0.2,0l0.1,0l0.1,0.1l0.1,0l0.1,0l0.1,0.1l0.1,0l0.1,0.1l0.1,0.1l0.1,0.1l0.1,0.1l0,0.1l0.1,0l0,0.1l0.1,0.1l0,0.1l0.1,0.1l0,0.1l0,0.1l0,0.2l0,6.3l6.3,0l0.2,0l0.1,0l0.1,0.1l0.1,0l0.1,0l0.1,0.1l0.1,0l0.1,0l0,0.1l0.1,0.1l0.1,0.1l0.1,0l0,0.1l0,0.1l0.1,0l0,0.1l0.1,0.1l0,0.2l0.1,0l0,0.1l0,0.1l0,0.2Z" class="g13_1" />
<path d="M586.6,738.6c-6.2,-2.2,-14.9,-7,-15.6,-12.8c-0.7,-5.8,6.7,-12.4,11.6,-14.5" class="g9_1" />
<path fill-rule="evenodd" d="M586.6,738.6l12.9,-5l0.1,-5.5c0,0,-16.6,-4.7,-16.6,-8.5c0.1,-3.7,4.7,-5.5,6.2,-6.2c1.6,-0.7,9.6,2.3,9.6,2.3l3.9,-9.1l0,-5.5l-26.9,2.8l0,5.3c0,0,0.2,0.3,-0.4,1.3c-0.6,0.9,-3.5,3.6,-3.7,5.7c-0.3,2,-1.5,6.5,-0.7,9.6c0.8,3.1,2.2,6.7,15.6,12.8Z" class="g15_1" />
<path fill-rule="evenodd" d="M586.8,738.7l12.7,-5.1c-0.6,0.2,-10.6,-3.2,-12,-4.6c-0.7,-0.7,-4,-2.2,-4.9,-5.3c-0.4,-1.2,0,-2.5,0.7,-4c1.5,-3.4,4.1,-4.8,5.7,-5.5c1.5,-0.7,10,2.2,10,2.2l3.9,-9.7l-26.8,2.6c0,0,6.5,2,5.3,2.6c-1.2,0.5,-7.5,4.8,-9.1,8.6c-1.6,3.8,-1.8,2.3,-1,5.4c0.8,3.1,2.1,6.7,15.5,12.8Z" class="g16_1" />
<path d="M575.8,703.9l0,5.6l7.1,1.9" class="g9_1" />
<path d="M589.2,713.4l9.6,2.3l3.9,-9.1l0,-5.5l-26.9,2.8" class="g9_1" />
<path d="M575.8,709.5l26.9,-2.9" class="g8_1" />
<path d="M586.8,738.7l12.7,-5.1l0.1,-5.5c0,0,-14.3,-3.4,-16.8,-9" class="g9_1" />
<path d="M589.2,713.4c-4.4,1.8,-7.2,5,-7,8.7" class="g9_1" />
<path d="M576.7,709.7c-3.6,3,-5.5,6.1,-5.8,9.4c-0.3,3.3,0,6.1,0,6.1c0,0,0.2,7.7,15.9,13.5" class="g9_1" />
<path d="M582.2,722.1c-0.1,4.5,7,9.2,17.3,11.5" class="g8_1" />
<path d="M582.9,711.4c-5.2,1.7,-12.1,8.5,-12,13.8" class="g8_1" />
<path fill-rule="evenodd" d="M704.9,724.4l-0.1,6.8l-26.7,2.9L678,728.5l4.1,-9.2l9.3,2.4l3.4,-1.7l2.4,-2.7l-0.1,-2.8l-3,-2.5l-4.7,-2.5l-3.7,-1.4L681.6,707l0,-5.7l12.7,-4.9l7.5,3.6l4.6,3.4l3,4.3l0.6,3.7l0,3.6l-0.7,3.6l-1.8,3Z" class="g15_1" />
<path d="M681.6,707l0,-5.7l12.7,-4.9" class="g9_1" />
<path d="M678.1,734.1L678,728.5l4.1,-9.2l9.3,2.4c0,0,5,-1.3,6.5,-6" class="g9_1" />
<path d="M682.7,724.9l-0.6,-5.6" class="g8_1" />
<path d="M691.5,727l-0.1,-5.3" class="g8_1" />
<path fill-rule="evenodd" d="M705.7,723.7L698,729l6.8,2.2l-26.7,2.9l4.6,-9.2l8.8,2.1l2.8,-1.2l2.5,-2l1.4,-2l0.7,-2.5l-0.1,-1.8l-1.7,-3l-3,-2.5l-4.7,-2.5l-3.7,-1.4L681.6,707l12.7,-4.9l5.1,2.1l4.4,2.5l4,3.5l1.6,2.5l0.6,2.9l-0.6,2.4l-1.9,3.6Z" class="g16_1" />
<path d="M698.9,718.6c0.1,-4.8,-8,-9.6,-17.3,-11.6" class="g9_1" />
<path d="M694.3,702.1c9.3,3.2,15.2,8,15.7,12.9" class="g8_1" />
<path d="M681.6,707l12.7,-4.9l0,-5.7" class="g8_1" />
<path d="M698,729c5.5,-2.6,11.9,-7.9,12,-13.4c0.1,-5.5,-0.1,-5.9,-0.1,-5.9c0,0,0.3,-7.2,-15.6,-13.3" class="g9_1" />
<path d="M678.1,734.1l4.6,-9.2l8.8,2.1c0,0,7.2,-1.8,7.4,-8.4" class="g8_1" />
<path d="M678.1,734.1l26.7,-2.9l0.2,-5.4" class="g9_1" />
<path d="M698,729l6.8,2.2" class="g8_1" />
<path fill-rule="evenodd" d="M643.3,784.3c99.7,0,180.6,58.1,180.6,129.8c0,71.6,-80.9,129.7,-180.6,129.7c-99.7,0,-180.5,-58.1,-180.5,-129.7c0,-71.7,80.8,-129.8,180.5,-129.8Z" class="g1_1" />
<path fill-rule="evenodd" d="M643.3,790.1c95.3,0,172.5,55.5,172.5,124c0,68.4,-77.2,123.9,-172.5,123.9C548,1038,470.8,982.5,470.8,914.1c0,-68.5,77.2,-124,172.5,-124Z" class="g17_1" />
<path fill-rule="evenodd" d="M472.3,923.3l232.8,0l0,33.5l-222.6,0l-3.9,-8.5l-2.5,-7.1l-1.7,-6l-1.2,-5.8Z" class="g15_1" />
<path d="M471.7,923.3l231.9,0c0,0,2.1,0.5,2.1,1.9c0,1.4,-0.1,30.1,-0.1,30.1c0,0,0.3,2,-2,2c-2.3,0,-221.3,0,-221.3,0" class="g9_1" />
<path d="M461,923l-88,0" class="g18_1" />
<path d="M469,958l-96,0" class="g19_1" />
<path d="M388.7,921.8l-6.2,-12.4l12.4,0Zm-1,-11.8l2,0l0,0.1l0,0.1l0,0.1l-0.1,0l0,0.1l-0.1,0l0,0.1l-0.1,0l0,0.1l-0.1,0l-0.1,0l0,0.1l-0.1,0l-0.1,0l-0.1,0l-0.1,0l-0.1,0l-0.1,0l-0.1,0l-0.1,0l-0.1,0l-0.1,-0.1l-0.1,0L388,910.5l-0.1,0l0,-0.1l-0.1,0l0,-0.1l0,-0.1l-0.1,0l0,-0.1Zm2,-20.8l0,20.8l-2,0l0,-20.8Zm0,0l-2,0l0,-0.1l0,-0.1l0.1,0l0,-0.1l0.1,-0.1l0.1,-0.1l0.1,0l0,-0.1l0.1,0l0.1,0l0.1,-0.1l0.1,0l0.1,0l0.1,0l0.1,0l0.1,0l0.1,0l0.1,0l0,0.1l0.1,0l0.1,0l0.1,0.1l0.1,0l0,0.1l0.1,0l0,0.1l0.1,0l0,0.1l0,0.1l0,0.1Z" class="g6_1" />
<path d="M388.7,959.9l6.2,12.5l-12.4,0Zm-1,11.8l0,0l0,-0.1l0,-0.1l0.1,0l0,-0.1l0.1,0l0,-0.1l0.1,0l0,-0.1l0.1,0l0.1,0l0,-0.1l0.1,0l0.1,0l0.1,0l0.1,0l0.1,-0.1l0.1,0l0,0.1l0.1,0l0.1,0l0.1,0l0.1,0l0.1,0l0,0.1l0.1,0l0.1,0.1l0.1,0l0,0.1l0.1,0.1l0,0.1l0,0.1Zm2,18.7l-2,0l0,-18.7l2,0Zm0,0l0,0l0,0.1l0,0.1l-0.1,0.1l0,0.1l-0.1,0l-0.1,0.1l-0.1,0l0,0.1l-0.1,0l-0.1,0l-0.1,0l-0.1,0l-0.1,0l-0.1,0l-0.1,0l-0.1,0l-0.1,0l-0.1,0l-0.1,0l0,-0.1l-0.1,0l-0.1,0l0,-0.1l-0.1,0l0,-0.1l-0.1,0l0,-0.1l-0.1,0l0,-0.1l0,-0.1Z" class="g6_1" />
<path fill-rule="evenodd" d="M207.2,247.9C222.6,239,238,230.1,253.5,221.1c0.5,-0.7,1.1,-1.5,1.7,-2.3c0.2,-0.3,0.3,-0.6,0.2,-0.7c-0.1,-0.2,-0.3,-0.3,-0.7,-0.3c-1,0.1,-2,0.2,-3,0.3c-15.2,8.8,-30.5,17.6,-45.7,26.5c0.4,1.1,0.8,2.2,1.2,3.3Z" class="g20_1" />
<path d="M195.9,254.4c19.2,-11.1,38.4,-22.2,57.6,-33.3c0.5,-0.7,1.1,-1.5,1.7,-2.3c0.2,-0.3,0.3,-0.6,0.2,-0.7c-0.1,-0.2,-0.3,-0.3,-0.7,-0.3c-1,0.1,-2,0.2,-3,0.3c-19,11,-38,21.9,-57,33" class="g9_1" />
<path d="M252.5,220.9c0.2,-0.6,0.6,-1.1,1,-1.4c0.4,-0.4,1.1,-0.7,1.7,-0.9" class="g8_1" />
<path d="M251.1,219c0.7,0,1.5,-0.1,2.1,-0.3c0.7,-0.2,1.2,-0.5,1.7,-0.8" class="g8_1" />
<path fill-rule="evenodd" d="M211.7,235.9c-0.9,0.5,-1.7,1,-2.6,1.5c-0.5,0.3,-0.9,0.7,-1.2,1.1c-0.3,0.4,-0.5,1,-0.7,1.6c0,0.4,0,0.7,-0.1,0.9c-0.1,0.1,-0.3,0.1,-0.6,0c-0.9,-0.6,-1.9,-1,-2.7,-1.1c-0.9,-0.1,-1.9,0.1,-2.8,0.4c-9.2,5.4,-18.4,10.7,-27.6,16c-2.1,2,-3.3,4,-3.6,5.9c-0.3,1.9,0.3,3.8,1.6,5.6c1.6,1.9,3.4,3.1,5.3,3.4c1.8,0.3,3.9,-0.2,6.1,-1.5c8.6,-5,17.3,-10,26,-15c0.9,-0.8,1.6,-1.7,2,-2.5c0.4,-0.9,0.6,-1.9,0.6,-2.9c0,-0.4,0.1,-0.7,0.3,-0.8c0.2,-0.1,0.5,0.1,0.8,0.4c0.4,0.2,0.9,0.5,1.4,0.5c0.5,0,1,-0.1,1.4,-0.3c1,-0.5,2,-1.1,3.1,-1.7c0.8,-0.9,1.2,-2.1,1.2,-3.4c-0.1,-1.4,-0.7,-2.9,-1.8,-4.6c-1.1,-1.5,-2.2,-2.6,-3.1,-3.1c-1,-0.6,-2.1,-0.7,-3,-0.4Z" class="g20_1" />
<path d="M207.4,241c-0.1,-1.5,0.4,-2.8,1.3,-3.3c0.9,-0.5,1.9,-1.1,2.9,-1.7c1.8,-1,4.7,0.7,6.6,3.9c1.8,3.1,1.8,6.5,0,7.6c-0.9,0.5,-1.9,1.1,-2.9,1.6c-1,0.6,-2.3,0.3,-3.7,-0.5" class="g9_1" />
<path d="M210.8,249.9c-0.1,-1.5,-0.7,-3.2,-1.7,-4.9c-0.6,-1.3,-1.5,-2.3,-2.5,-3.1" class="g8_1" />
<path d="M211.4,247.9c0,-1.1,-0.4,-2.4,-1.1,-3.5c-0.6,-1.2,-1.5,-2.1,-2.4,-2.7" class="g8_1" />
<path d="M213.3,248.4c-0.6,-0.1,-1.1,-0.1,-1.4,-0.1c-0.3,0.1,-0.5,0.4,-0.5,0.8c0,1.2,-0.3,2.4,-0.7,3.2c-0.4,0.9,-1,1.7,-1.8,2.2c-9.2,5.3,-18.4,10.6,-27.6,16c-1.3,0.6,-2.1,0.8,-3.4,0.8c-4.4,0,-8,-3.7,-8,-8.1c0,-2.6,1.4,-5.1,3.4,-6.6c9.2,-5.4,18.4,-10.7,27.6,-16.1c0.7,-0.3,1.6,-0.5,2.5,-0.5c0.9,0.1,2,0.5,3,1c0.5,0.3,1,0.3,1.2,0.1c0.3,-0.1,0.6,-0.5,0.7,-1.1" class="g9_1" />
<path d="M174.6,256.6c2.1,0.2,4.6,2.1,6.2,5c1.6,2.7,2,5.6,1.4,7.5" class="g8_1" />
<path d="M214.7,249c1.5,-1.1,1.3,-4.1,-0.3,-7c-1.6,-2.8,-4.2,-4.5,-5.9,-3.8" class="g8_1" />
<path d="M178.6,256.7l24.9,-14.5" class="g8_1" />
<path d="M181,258.1l24.1,-14.4" class="g8_1" />
<path d="M183.6,263.1L208,248.3" class="g8_1" />
<path d="M184.1,265.9L208.5,251" class="g8_1" />
<path d="M181,258.1c-1,0.6,-4,-0.1,-2.4,-1.4" class="g8_1" />
<path d="M183.6,263.1c-1.4,0.9,-1.3,3.5,0.5,2.8" class="g8_1" />
<path d="M208.5,251c1.4,-0.7,1.7,-4.1,-0.5,-2.7" class="g8_1" />
<path d="M205.1,243.7c1.5,-0.8,0.1,-2.5,-1.6,-1.5" class="g8_1" />
<path d="M201.1,1000.8C129.9,983.9,117.8,901.5,132.3,840C146.7,778.6,213.6,690.9,302.7,711.5" class="g9_1" />
<path d="M197.9,1013.9C119.8,995.5,103.6,904.3,119.4,836.9C135.3,769.5,209.2,678,306.9,700.6" class="g9_1" />
</svg>