<?xml version="1.0" encoding="UTF-8" standalone="no"?>
<!DOCTYPE svg PUBLIC "-//W3C//DTD SVG 1.1//EN"
"http://www.w3.org/Graphics/SVG/1.1/DTD/svg11.dtd">
<svg viewBox="0 0 935 1210" version="1.1" xmlns="http://www.w3.org/2000/svg" xmlns:xlink="http://www.w3.org/1999/xlink">
<defs>
<style type="text/css"><![CDATA[
.g12_3{
fill: #636363;
}
.g2_3{
fill: none;
stroke: #FFFFFF;
stroke-width: 3;
stroke-linecap: round;
stroke-linejoin: miter;
stroke-miterlimit: 2;
}
.g3_3{
fill: #FFFFFF;
stroke: #000000;
stroke-width: 2;
stroke-linecap: butt;
stroke-linejoin: miter;
stroke-miterlimit: 2;
}
.g13_3{
fill: #D4D4D4;
}
.g1_3{
fill: #B3B3B3;
}
.g7_3{
fill: #636363;
stroke: #000000;
stroke-width: 1;
stroke-linecap: butt;
stroke-linejoin: miter;
stroke-miterlimit: 2;
}
.g10_3{
fill: none;
stroke: #000000;
stroke-width: 2;
stroke-linecap: round;
stroke-linejoin: round;
stroke-miterlimit: 2;
}
.g5_3{
fill: none;
stroke: #000000;
stroke-width: 2;
stroke-linecap: butt;
stroke-linejoin: miter;
stroke-miterlimit: 2;
}
.g11_3{
fill: #808080;
stroke: #000000;
stroke-width: 1;
stroke-linecap: round;
stroke-linejoin: round;
stroke-miterlimit: 2;
}
.g4_3{
fill: none;
stroke: #000000;
stroke-width: 1;
stroke-linecap: butt;
stroke-linejoin: miter;
stroke-miterlimit: 2;
}
.g9_3{
fill: #FFFFFF;
}
.g6_3{
}
.g8_3{
fill: none;
stroke: #000000;
stroke-width: 1;
stroke-linecap: round;
stroke-linejoin: round;
stroke-miterlimit: 2;
}
]]></style>
</defs>
<path fill-rule="evenodd" d="M55,54l824,0l0,1101l-824,0Z" class="g1_3" />
<path d="M55.5,256.5l27,0" class="g2_3" />
<path d="M55.5,430.5l27,0" class="g2_3" />
<path d="M55.5,605.5l27,0" class="g2_3" />
<path d="M55.5,779.5l27,0" class="g2_3" />
<path d="M55.5,953.5l27,0" class="g2_3" />
<path d="M852.5,256.5l28,0" class="g2_3" />
<path d="M852.5,605.5l28,0" class="g2_3" />
<path d="M236.5,82.5l0,-27" class="g2_3" />
<path d="M390.5,82.5l0,-27" class="g2_3" />
<path d="M544.5,82.5l0,-27" class="g2_3" />
<path d="M698.5,82.5l0,-27" class="g2_3" />
<path d="M236.5,1155.5l0,-28" class="g2_3" />
<path d="M390.5,1155.5l0,-28" class="g2_3" />
<path d="M544.5,1155.5l0,-28" class="g2_3" />
<path d="M698.5,1155.5l0,-28" class="g2_3" />
<path d="M852.5,430.5l28,0" class="g2_3" />
<path d="M852.5,779.5l28,0" class="g2_3" />
<path d="M852.5,953.5l28,0" class="g2_3" />
<path fill-rule="evenodd" d="M82,82l770,0l0,1045l-770,0Z" class="g3_3" />
<path d="M184.5,209.5l646,0" class="g4_3" />
<path d="M103.5,278.5l727,0" class="g4_3" />
<path d="M82,1097l770,0" class="g5_3" />
<path d="M466.5,1099.5l0,28" class="g4_3" />
<path d="M468.5,1099.5l0,28" class="g4_3" />
<path d="M272.5,1099.5l0,28" class="g4_3" />
<path d="M274.5,1099.5l0,28" class="g4_3" />
<path d="M664.5,1099.5l0,28" class="g4_3" />
<path d="M666.5,1099.5l0,28" class="g4_3" />
<path fill-rule="evenodd" d="M106,289l37,0l0,38l-37,0Z" class="g6_3" />
<path fill-rule="evenodd" d="M103.5,287.5l38,0l0,37l-38,0Z" class="g7_3" />
<path d="M274.5,1099.5l192,0" class="g8_3" />
<path d="M468.5,1099.5l196,0" class="g8_3" />
<path d="M666.5,1099.5l186,0" class="g8_3" />
<path d="M272.5,1099.5l-190,0" class="g8_3" />
<path fill-rule="evenodd" d="M279,248.7c13.3,-7.7,26.7,-15.5,40.1,-23.2c0.5,-0.7,1,-1.3,1.5,-2c0.2,-0.3,0.3,-0.5,0.2,-0.7c-0.1,-0.1,-0.3,-0.2,-0.6,-0.2c-0.9,0.1,-1.8,0.2,-2.7,0.3c-13.2,7.6,-26.4,15.3,-39.6,22.9c0.3,1,0.7,1.9,1.1,2.9Z" class="g9_3" />
<path d="M269.2,254.3c16.6,-9.6,33.2,-19.2,49.9,-28.8c0.5,-0.7,1,-1.3,1.5,-2c0.2,-0.3,0.3,-0.5,0.2,-0.7c-0.1,-0.1,-0.3,-0.2,-0.6,-0.2c-0.9,0.1,-1.8,0.2,-2.7,0.3c-16.4,9.5,-32.9,19,-49.4,28.6" class="g10_3" />
<path d="M318.3,225.3c0.1,-0.5,0.5,-1,0.8,-1.3c0.4,-0.3,1,-0.6,1.5,-0.7" class="g8_3" />
<path d="M317,223.7c0.7,0,1.3,-0.2,1.9,-0.3c0.5,-0.2,1,-0.4,1.5,-0.7" class="g8_3" />
<path fill-rule="evenodd" d="M282.9,238.3c-0.8,0.4,-1.6,0.9,-2.3,1.3c-0.4,0.2,-0.8,0.6,-1,0.9c-0.3,0.4,-0.5,0.9,-0.6,1.5c0,0.3,0,0.6,-0.1,0.7c-0.1,0.1,-0.3,0.2,-0.6,0.1c-0.7,-0.5,-1.6,-0.9,-2.3,-1c-0.8,-0.1,-1.7,0.1,-2.4,0.4c-8,4.6,-16,9.2,-24,13.8c-1.8,1.8,-2.8,3.5,-3.1,5.1c-0.2,1.7,0.2,3.3,1.4,4.9c1.4,1.7,2.9,2.7,4.6,2.9c1.6,0.3,3.4,-0.1,5.2,-1.2c7.5,-4.4,15.1,-8.7,22.6,-13.1c0.8,-0.7,1.4,-1.4,1.7,-2.2c0.4,-0.7,0.6,-1.6,0.6,-2.4c0,-0.4,0.1,-0.7,0.3,-0.8c0.1,0,0.4,0.1,0.6,0.4c0.4,0.2,0.9,0.4,1.3,0.4c0.4,0,0.8,0,1.2,-0.2c0.8,-0.5,1.7,-1,2.6,-1.5c0.8,-0.8,1.2,-1.8,1.1,-3c-0.1,-1.1,-0.6,-2.5,-1.5,-4c-1,-1.3,-1.9,-2.2,-2.8,-2.7c-0.8,-0.5,-1.7,-0.6,-2.5,-0.3Z" class="g9_3" />
<path d="M279.1,242.7c-0.1,-1.3,0.3,-2.4,1.1,-2.8c0.8,-0.5,1.7,-1,2.6,-1.5c1.5,-0.9,4.1,0.6,5.7,3.4c1.6,2.7,1.6,5.6,0,6.5c-0.8,0.5,-1.7,1,-2.5,1.5c-0.9,0.5,-2,0.3,-3.2,-0.5" class="g10_3" />
<path d="M282,250.5c-0.1,-1.4,-0.5,-2.8,-1.4,-4.3c-0.6,-1.1,-1.3,-2,-2.2,-2.7" class="g8_3" />
<path d="M282.6,248.7c0,-0.9,-0.3,-2,-1,-3c-0.5,-1,-1.3,-1.8,-2,-2.3" class="g8_3" />
<path d="M284.3,249.2c-0.6,-0.2,-1,-0.2,-1.3,-0.1c-0.2,0,-0.4,0.4,-0.4,0.7c0,1,-0.2,2,-0.6,2.8c-0.4,0.7,-0.9,1.4,-1.6,1.8c-8,4.7,-16,9.3,-24,14c-1,0.4,-1.7,0.6,-2.9,0.6c-3.8,0,-6.9,-3.1,-6.9,-7c0,-2.2,1.2,-4.4,2.9,-5.8c8,-4.6,16,-9.2,24,-13.9c0.6,-0.3,1.4,-0.4,2.2,-0.4c0.7,0.1,1.7,0.4,2.6,0.9c0.4,0.2,0.8,0.2,1,0.1c0.3,-0.1,0.5,-0.5,0.6,-1" class="g10_3" />
<path d="M250.7,256.3c1.8,0.1,3.9,1.8,5.4,4.3c1.3,2.3,1.7,4.9,1.2,6.5" class="g8_3" />
<path d="M285.5,249.7c1.2,-1,1.1,-3.6,-0.3,-6.1c-1.4,-2.5,-3.7,-3.9,-5.2,-3.3" class="g8_3" />
<path d="M254.1,256.3l21.6,-12.5" class="g8_3" />
<path d="M256.2,257.5l21,-12.4" class="g8_3" />
<path d="M258.4,261.9L279.7,249" class="g8_3" />
<path d="M258.9,264.3l21.2,-12.9" class="g8_3" />
<path d="M256.2,257.6c-0.9,0.5,-3.4,-0.1,-2.1,-1.3" class="g8_3" />
<path d="M258.4,261.9c-1.2,0.8,-1,3.1,0.5,2.5" class="g8_3" />
<path d="M280.1,251.5c1.2,-0.7,1.5,-3.6,-0.4,-2.5" class="g8_3" />
<path d="M277.2,245.1c1.2,-0.7,0,-2.2,-1.5,-1.3" class="g8_3" />
<path d="M193.1,221.3c0.2,-0.1,0.3,-0.2,0.4,-0.3" class="g8_3" />
<path d="M193.5,221c0.4,-0.1,0.7,-0.2,1.1,-0.1c0.6,0.1,1.2,0.5,2,1.1c6.3,-1.7,12.3,-2.7,18.1,-3.4c5.8,-0.6,11.2,-0.7,16.5,-0.2" class="g8_3" />
<path d="M232,218.7c-0.4,-0.5,-1,-1,-1.8,-1.2c-0.8,-0.3,-1.8,-0.4,-2.9,-0.4c-7.3,-0.2,-13.7,0.1,-19.3,0.7c-5.6,0.6,-10.5,1.7,-14.5,3.2" class="g10_3" />
<path d="M190.6,229.4c1.1,0.8,2.1,1.4,3.3,2.1c1,0.5,2.1,1,3.3,1.5c3.8,-0.5,7.6,-1,11.4,-1.5" class="g8_3" />
<path d="M208.6,231.5c0.3,0,0.6,0,0.9,-0.1c0,-0.5,0,-0.9,0,-1.4c-0.4,-0.4,-0.7,-0.7,-0.8,-0.9c-0.2,-0.3,-0.3,-0.6,-0.3,-0.8c0.3,-1.2,0.7,-2.1,1.3,-2.7c0.7,-0.7,1.6,-1,2.7,-1c1.3,-0.2,2.3,-0.2,3,0c0.7,0.2,1.1,0.4,1.3,0.8c0.8,0,1.9,-0.1,3.3,-0.4c1.3,-0.2,2.9,-0.6,4.7,-1c1,-0.4,1.8,-0.3,2.4,0.1" class="g10_3" />
<path d="M227.1,224.1c0.6,0.4,0.9,1.2,1,2.3c0.1,1.1,0.2,2.2,0.3,3.2" class="g8_3" />
<path d="M193.1,221.3c-0.4,1.9,-0.8,3.9,-1.2,5.8c-0.1,0.3,-0.3,0.6,-0.5,0.7c-0.1,0.1,-0.4,0.2,-0.7,0.2c0,0.5,-0.1,1,-0.1,1.5" class="g10_3" />
<path d="M196.6,222c-0.1,2.5,-0.1,5,-0.2,7.5c0,0.3,0.1,0.7,0.3,1c0.1,0.3,0.4,0.7,0.6,1.1" class="g8_3" />
<path d="M197.4,231.6L209.5,230" class="g8_3" />
<path d="M197.4,231.6L196.8,244" class="g8_3" />
<path d="M228.4,229.6c0,1,0.2,1.8,0.5,2.2c0.4,0.5,0.9,0.7,1.5,0.6" class="g8_3" />
<path d="M225.5,223.8c0.2,1.3,0.4,2.6,0.6,3.9c0.2,0.9,0,1.7,-0.4,2.2c-0.4,0.5,-1.2,0.9,-2.1,1c-4.2,0.8,-8.4,1.5,-12.6,2.3" class="g10_3" />
<path d="M227.7,231.2l-1.6,-1.1" class="g8_3" />
<path fill-rule="evenodd" d="M198.6,223.9c-0.1,0.5,0.1,1,0.4,1c0.3,0.1,0.7,-0.3,0.8,-0.8c0,-0.4,-0.1,-0.9,-0.5,-1c-0.3,0,-0.6,0.3,-0.7,0.8Z" class="g11_3" />
<path fill-rule="evenodd" d="M198.2,229c-0.1,0.5,0.1,1,0.4,1c0.3,0.1,0.7,-0.3,0.8,-0.8c0.1,-0.4,-0.1,-0.9,-0.5,-1c-0.3,0,-0.6,0.3,-0.7,0.8Z" class="g11_3" />
<path fill-rule="evenodd" d="M208.3,223.4c-0.1,0.5,0.1,0.9,0.5,1c0.3,0.1,0.6,-0.3,0.7,-0.8c0.1,-0.5,-0.1,-0.9,-0.4,-1c-0.3,0,-0.7,0.3,-0.8,0.8Z" class="g11_3" />
<path d="M230.5,223.3c0.1,-1,-0.2,-1.7,-0.9,-2.1c-0.7,-0.5,-1.7,-0.6,-3.1,-0.6c-1.6,0,-3.8,0,-6.4,0.1c-2.7,0.1,-5.8,0.3,-9.4,0.6c-1.3,0.1,-2.2,0.4,-2.7,1.1c-0.5,0.6,-0.6,1.5,-0.4,2.7c0.1,0.9,0.3,1.6,0.4,2.2" class="g8_3" />
<path d="M208.9,226.8c0.7,-0.1,1.5,0,2.1,0.3c0.7,0.2,1.3,0.7,1.9,1.3c0.4,-0.9,0.8,-1.8,1.3,-2.7" class="g10_3" />
<path d="M211.6,224.7c1.1,0.2,2,0.6,2.6,1c0.5,0.5,0.9,1,1,1.7" class="g8_3" />
<path d="M215.3,227.4c0.1,-0.6,0.3,-1,0.6,-1.3c0.2,-0.3,0.5,-0.5,0.8,-0.6" class="g10_3" />
<path d="M215.3,227.4l-1.5,-0.8" class="g10_3" />
<path d="M212.8,228.3l-1.6,-0.8" class="g8_3" />
<path d="M210.3,226.9c0.3,0.2,0.6,0.4,0.9,0.7" class="g8_3" />
<path d="M211.4,249.2c0.3,-0.2,0.6,-0.4,0.9,-0.6c7.3,-1.7,14.5,-3.3,21.8,-5c0,0,1.8,-1.1,2.2,-2.7c0,-1.7,0.1,-3.5,0.1,-5.3c-0.3,-2.4,-2.3,-4,-2.3,-4c-0.3,-0.4,-0.3,-0.6,-0.4,-0.9c-0.2,-0.3,-0.3,-0.9,-0.4,-1.2c0,0,-1.4,-10.7,-1.4,-10.7" class="g10_3" />
<path d="M208.7,231.6c0.1,3.8,0,8.2,-0.2,13.1c-0.3,4.8,-0.8,10.2,-1.5,16.1" class="g10_3" />
<path d="M207,260.8l-3.1,0.8" class="g8_3" />
<path d="M236.3,235.6l-23.9,5" class="g8_3" />
<path d="M212.4,240.6c0,-1.2,0,-2.3,0,-3.5c0,-0.1,0,-0.2,-0.1,-0.2c0,-0.1,-0.1,-0.1,-0.2,-0.1c-0.3,-0.1,-0.5,-0.3,-0.6,-0.4c-0.1,-0.2,-0.2,-0.5,-0.2,-0.8c-0.1,-1.1,-0.3,-2.1,-0.6,-3c-0.2,-0.8,-0.7,-1.5,-1.2,-2" class="g10_3" />
<path d="M236.3,241l-28,5.8" class="g8_3" />
<path d="M208.3,246.9c0.2,-0.1,0.3,-0.2,0.4,-0.3c0,-0.1,0.1,-0.3,0.1,-0.4c0,-1.6,0.1,-3.2,0.2,-4.9c0,-1.1,0,-2.3,0,-3.5c0,-0.1,-0.1,-0.1,-0.1,-0.2c0,0,-0.1,-0.1,-0.2,-0.1" class="g8_3" />
<path d="M212.2,237l-3,0.7" class="g8_3" />
<path d="M211.2,236.4l-2.3,0.5" class="g8_3" />
<path d="M220.1,231.7c1.6,0.1,2.9,0.6,3.8,1.5c0.9,1,1.6,2.3,1.8,4.1c0,0.1,0.1,0.2,0.1,0.3c0.1,0.1,0.2,0.1,0.3,0.2" class="g8_3" />
<path d="M225.6,243.2c-0.2,0.7,-0.6,1.4,-1.3,1.9c-0.7,0.5,-1.7,1,-2.8,1.4" class="g8_3" />
<path d="M226.1,237.8l-0.1,5.3" class="g8_3" />
<path d="M231,232.3l2.3,-0.5" class="g8_3" />
<path d="M228.3,231.9c0,0.3,-0.2,0.5,-0.3,0.7c-0.2,0.1,-0.5,0.3,-0.8,0.3c-0.7,0.2,-1.4,0.3,-2.2,0.5" class="g8_3" />
<path d="M223.4,233.7l-11.3,2.1" class="g8_3" />
<path d="M205.5,232c0.2,3.8,0.1,8.2,-0.1,13.2c-0.3,4.9,-0.8,10.4,-1.5,16.4" class="g8_3" />
<path d="M207.2,259.8l2.9,-0.8" class="g8_3" />
<path d="M210.1,259c0.4,-1,0.8,-2.3,1,-3.7c0.2,-1.5,0.3,-3.1,0.3,-4.8c-0.1,-0.8,0,-1.4,0.1,-2c0.1,-0.6,0.3,-1.1,0.6,-1.6" class="g10_3" />
<path d="M212.9,248.5c0.7,0.4,1.3,1.7,1.5,3.3c0.1,1.9,-0.5,3.5,-1.4,3.6c-0.7,0.3,-1.3,0.5,-2,0.8" class="g10_3" />
<path d="M214.2,253.8l7.2,4.4" class="g10_3" />
<path d="M221.4,258.2l-25.3,6.1" class="g8_3" />
<path d="M196.1,264.3l-4.2,-2.9" class="g8_3" />
<path d="M193.9,272.7l-0.2,-0.2" class="g8_3" />
<path d="M197.1,252.6l0,1.7l-2.8,0.5l-1.1,-0.5" class="g10_3" />
<path d="M190.9,253.1c0,-1.7,0,-3.4,0,-5.1c-0.1,-0.8,-0.2,-1.7,-0.2,-2.6c0,-1,-0.1,-2,-0.1,-3.1c0,-0.2,0,-0.4,-0.1,-0.6c0,-0.1,-0.1,-0.3,-0.2,-0.4c-0.1,-0.1,-0.2,-0.3,-0.2,-0.4C190,240.7,190,240.4,190,240.2c0,-1.1,0.1,-2.6,0.2,-4.3c0.1,-1.8,0.2,-4,0.4,-6.4" class="g10_3" />
<path d="M194.3,254.8c0,-1.7,0,-3.4,0,-5.1c0.2,-0.7,0.4,-1.5,0.6,-2.3c0.2,-0.8,0.4,-1.7,0.6,-2.7c0,-0.1,0.1,-0.3,0.2,-0.5" class="g8_3" />
<path d="M195.7,244.2c0.1,0,0.3,0,0.4,-0.1c0.2,0.2,0.4,0.3,0.7,0.3c0.2,0,0.5,0,0.8,0" class="g10_3" />
<path d="M190.9,248l3.4,1.7l7.3,-1.1l1.4,-4.4" class="g8_3" />
<path d="M190.9,253.1l0.8,0.4l1.3,-0.1" class="g10_3" />
<path d="M190.5,260.4l-4.2,-2.8" class="g8_3" />
<path d="M191.5,253.5l0,-1" class="g8_3" />
<path d="M193,254l0,-1" class="g10_3" />
<path d="M191.7,252.6c0.1,-0.4,0.3,-0.8,0.6,-0.8" class="g8_3" />
<path d="M192.3,251.8c0.4,-0.1,0.8,0.3,0.9,1c0,0.2,0.1,0.3,0,0.5" class="g10_3" />
<path d="M203.7,260.6l-1.4,0.4" class="g8_3" />
<path d="M202.3,261c0.4,-2.8,0.6,-5.5,0.8,-8.2c0.2,-2.7,0.3,-5.4,0.4,-8.1c-0.1,-0.3,-0.2,-0.5,-0.3,-0.8" class="g8_3" />
<path d="M203.2,243.9c-0.3,0,-0.6,0,-0.9,-0.1c-1.6,0.2,-3.1,0.4,-4.7,0.6" class="g10_3" />
<path d="M202.3,261l-1.2,-0.8" class="g8_3" />
<path d="M201.6,248.7c0,0.7,0,2,-0.1,3.9c-0.1,2,-0.2,4.5,-0.4,7.6" class="g8_3" />
<path d="M203.9,261.6c-0.1,0,-0.2,-0.1,-0.2,-0.1c-0.1,-0.1,-0.1,-0.1,-0.1,-0.1" class="g8_3" />
<path d="M205.2,232c0.2,3.8,0.1,8,-0.2,12.9c-0.2,4.9,-0.7,10.3,-1.4,16.4" class="g8_3" />
<path d="M217,257.3l-3.5,-2.1" class="g8_3" />
<path d="M213,258.2l-2.2,-1.3" class="g8_3" />
<path d="M215.6,257.7l-3.4,-2" class="g10_3" />
<path d="M211.5,258.6l-1,-0.6" class="g10_3" />
<path d="M217,257.4l-1.4,0.3" class="g10_3" />
<path d="M213.1,258.3l-1.5,0.3" class="g10_3" />
<path fill-rule="evenodd" d="M233.7,233.6c0.3,0.5,0.3,1.1,0,1.2c-0.3,0.2,-0.8,-0.1,-1.1,-0.7c-0.2,-0.5,-0.2,-1.1,0.1,-1.2c0.2,-0.2,0.7,0.1,1,0.7Z" class="g11_3" />
<path d="M190.5,260.4l3.1,-0.7" class="g8_3" />
<path d="M195.5,259.2l0.8,-0.2" class="g8_3" />
<path d="M197.1,252.6c0.1,-0.2,0.1,-0.4,0.2,-0.6c0.2,-0.8,1,-1.3,1.6,-1.1" class="g10_3" />
<path d="M198.9,250.9c0.4,0.2,0.7,0.7,0.7,1.2c0.1,2,0.2,4,0.4,6c0,0.5,0.2,0.9,0.3,1.1c0.2,0.3,0.5,0.5,0.8,0.6" class="g8_3" />
<path d="M200.5,259.5l-3.7,-2.6" class="g8_3" />
<path d="M195.5,255.4c0.6,0.2,1.2,0.5,1.2,0.9" class="g10_3" />
<path d="M196.7,256.3c0,0.6,-1,1.1,-2.3,1.1c-1.3,0,-2.3,-0.5,-2.3,-1.1" class="g8_3" />
<path d="M192.1,256.3c0,-0.4,0.6,-0.7,1.3,-1" class="g10_3" />
<path d="M192.5,256.5l0,1" class="g8_3" />
<path d="M192.3,258.3c0.4,0.4,1.2,0.6,2.1,0.6c0.6,0,1.2,-0.1,1.6,-0.3" class="g10_3" />
<path d="M196.5,257.5l0,-1" class="g8_3" />
<path d="M193.4,254.3c0,0.6,0,1.3,0,2c0,0.2,0.5,0.4,1,0.4c0.6,0,1.1,-0.2,1.1,-0.4c0,-0.6,0,-1.2,0,-1.8" class="g8_3" />
<path d="M193,258l0,3" class="g10_3" />
<path d="M195.5,258.5l0,2" class="g8_3" />
<path d="M193.5,264.5l0,8" class="g8_3" />
<path d="M195.5,264.6l0,5.8l-1.5,2.3" class="g10_3" />
<path d="M196.2,259.1c0.2,-0.1,0.5,-0.1,0.7,-0.1c0.8,0,1.4,0.2,1.4,0.6" class="g8_3" />
<path d="M193.5,258.5l0,2" class="g8_3" />
<path d="M193,264l0,8" class="g10_3" />
<path d="M214.6,226.2c0.1,0.2,0.2,0.5,0.2,0.7" class="g8_3" />
<path d="M214.7,226.8l-0.9,-0.5" class="g8_3" />
<path d="M192.3,257c0.2,-0.1,0.5,0.2,0.5,0.5c0.1,0.4,0,0.7,-0.3,0.8" class="g8_3" />
<path d="M191.7,257.1c0.2,0,0.5,0.2,0.5,0.6c0.1,0.3,0,0.6,-0.3,0.7" class="g8_3" />
<path d="M196.4,257.3c-0.3,-0.1,-0.6,0,-0.8,0.3c-0.2,0.2,-0.2,0.6,0,0.8" class="g8_3" />
<path d="M196.1,258.7c0.2,0.1,0.6,0,0.8,-0.3c0.2,-0.2,0.2,-0.6,-0.1,-0.8" class="g10_3" />
<path d="M196.8,257.6c-0.2,-0.1,-0.6,0,-0.8,0.2c-0.2,0.3,-0.2,0.7,0.1,0.9" class="g8_3" />
<path d="M196.8,257.6l-0.4,-0.3" class="g8_3" />
<path d="M196,258.6l-0.4,-0.2" class="g8_3" />
<path d="M196.1,264.3l-3,-1l-4.3,-3" class="g8_3" />
<path d="M190.4,260.3l-2.9,-1l-4.2,-2.7" class="g8_3" />
<path d="M216.6,257.5l-3.5,-2.1" class="g8_3" />
<path d="M212.6,258.4l-1.9,-1.2" class="g8_3" />
<path d="M193.1,263.3l-0.2,0.4" class="g8_3" />
<path d="M187.4,259.3l-0.2,0.5" class="g8_3" />
<path d="M221.4,258.2c0,0.1,0,0.3,0,0.4c-8.4,2.1,-16.8,4.1,-25.3,6.2c-1,-0.4,-2.1,-0.7,-3.2,-1c-1.4,-1,-2.9,-2,-4.3,-3c0.1,-0.1,0.1,-0.3,0.2,-0.4l0,-0.1c1,0.4,2,0.7,3,1.1l0.1,0c1.9,-0.4,3.9,-0.9,5.8,-1.3c0.4,-0.1,0.6,-0.3,0.6,-0.5" class="g10_3" />
<path d="M192,256.3l-5.7,1.3l-3,-1l-0.3,0.5l4.2,2.7l1.6,0.5" class="g10_3" />
<path d="M190.5,260.8l3.1,-0.7" class="g8_3" />
<path d="M195.5,259.6c0.2,0,0.5,-0.1,0.8,-0.1c0.2,-0.1,0.4,-0.1,0.6,-0.1c0.6,0,1.1,0.1,1.3,0.3" class="g8_3" />
<path d="M192.5,258.3c-0.1,0,-0.3,0,-0.5,0.1l-0.1,0c-0.2,0,-0.4,-0.2,-0.5,-0.6c-0.1,-0.3,0.1,-0.6,0.3,-0.7c0.2,0,0.4,-0.1,0.6,-0.1" class="g10_3" />
<path d="M232.6,238.2l0.7,-0.1l0,-0.7" class="g8_3" />
<path d="M233.3,238.1l0.2,0.1" class="g8_3" />
<path d="M233.8,237.9l0.7,-0.2l0,-0.6" class="g8_3" />
<path d="M234.5,237.8l0.2,0.1" class="g8_3" />
<path d="M235.1,237.6l0.6,-0.1l0,-0.7" class="g8_3" />
<path d="M235.8,237.5l0.1,0.1" class="g8_3" />
<path d="M235.1,239l0.6,-0.2l0,-0.7" class="g8_3" />
<path d="M235.8,238.8l0.1,0.2" class="g8_3" />
<path d="M235.1,240.3l0.6,-0.1l0,-0.7" class="g8_3" />
<path d="M235.8,240.2l0.1,0.1" class="g8_3" />
<path d="M233.8,240.6l0.7,-0.2l0,-0.6" class="g8_3" />
<path d="M234.5,240.5l0.2,0.1" class="g8_3" />
<path d="M233.8,239.2l0.7,-0.1l0,-0.7" class="g8_3" />
<path d="M234.5,239.1l0.2,0.1" class="g8_3" />
<path d="M232.6,239.6l0.7,-0.2l0,-0.7" class="g8_3" />
<path d="M233.3,239.4l0.2,0.1" class="g8_3" />
<path d="M232.6,240.9l0.6,-0.2l0,-0.6" class="g8_3" />
<path d="M233.3,240.8l0.2,0.1" class="g8_3" />
<path d="M197.6,230.7l10.6,-1.3" class="g8_3" />
<path d="M103.5,669.5l727,0" class="g4_3" />
<path fill-rule="evenodd" d="M106,681l37,0l0,37l-37,0Z" class="g6_3" />
<path fill-rule="evenodd" d="M103.5,679.5l38,0l0,37l-38,0Z" class="g7_3" />
<path d="M380.5,222.1l18,10.8" class="g10_3" />
<path d="M377.7,223.8l17.9,10.7" class="g8_3" />
<path d="M376.3,227.7l17.9,10.7" class="g8_3" />
<path d="M376.7,229.2l18.9,11.3" class="g10_3" />
<path d="M309,265.4l60.9,-36.2c3.3,-2,4.7,-1.2,6.8,0" class="g10_3" />
<path d="M310.3,263.2l59.8,-35.7c2.7,-1.6,4.6,-0.7,6.2,0.2" class="g8_3" />
<path d="M308.8,259.6l60.9,-36.3c2.8,-1.6,5.3,-1,8,0.5" class="g8_3" />
<path d="M306.1,257.8l59.7,-35.7c6.5,-3.8,9.9,-2.8,14.7,0" class="g10_3" />
<path d="M394.2,238.3c0.7,-0.5,1.9,-2.1,1.4,-3.8" class="g8_3" />
<path d="M395.6,234.5c0.8,0.5,2.7,-0.5,2.9,-1.6" class="g8_3" />
<path d="M394.2,238.4c0.8,0.1,1.8,0.9,1.4,2.1" class="g8_3" />
<path d="M395.6,240.5c0.2,-0.6,1.8,-2.1,2.9,-1.7" class="g10_3" />
<path d="M398.5,238.8c-0.5,-1.1,0.5,-3.7,1.4,-3.9" class="g10_3" />
<path d="M398.5,232.9c0,0.7,0.2,1.8,1.4,2" class="g10_3" />
<path d="M310.3,263.2c-0.6,-0.4,-1.9,-2.1,-1.3,-3.7" class="g8_3" />
<path d="M309,259.5c-0.9,0.5,-2.7,-0.6,-2.9,-1.7" class="g8_3" />
<path d="M310.3,263.2c-0.8,0.1,-1.7,1,-1.3,2.2" class="g8_3" />
<path d="M309,265.4c-0.3,-0.6,-1.9,-2,-2.9,-1.6" class="g10_3" />
<path d="M306.1,263.8c0.4,-1.1,-0.5,-3.8,-1.5,-3.9" class="g10_3" />
<path d="M306.1,257.8c0,0.7,-0.2,1.8,-1.5,2.1" class="g10_3" />
<path d="M408.5,169.5l118,0" class="g8_3" />
<path d="M471.7,367.6l24,-8.4" class="g8_3" />
<path d="M436.5,379.8l9.1,-3.2" class="g8_3" />
<path d="M428.5,389.4l0,48.2" class="g10_3" />
<path d="M426.4,389.6l-0.1,49.2" class="g8_3" />
<path d="M426.1,384.4L376,364.1" class="g8_3" />
<path d="M526.3,308.1l53.9,22.6" class="g10_3" />
<path d="M454.4,370.7l-27.6,9.6" class="g8_3" />
<path d="M528.6,344.4l-60.4,21.1" class="g8_3" />
<path d="M421.9,384.7L377.6,366.5" class="g8_3" />
<path d="M597.5,380.7l0,44.9" class="g10_3" />
<path d="M427.3,441.4L376,420.8" class="g10_3" />
<path d="M456,371.4l-8.9,3.2" class="g10_3" />
<path d="M530.1,345.2l-9.1,3.2" class="g10_3" />
<path d="M446,375.7l0,2.8l3.1,1.3" class="g10_3" />
<path d="M446,375.7l3.2,1.4" class="g8_3" />
<path d="M468.1,366.1l4.9,2.1" class="g10_3" />
<path d="M468.1,365.5c0,0,-0.4,0.3,0,0.6" class="g10_3" />
<path d="M449.1,379.8c0,0,1.1,0.4,2.4,0" class="g10_3" />
<path d="M449.2,377.1c0,0,1,0.3,2.3,-0.2" class="g8_3" />
<path d="M446,375.7c0,0,-0.2,-0.7,1.1,-1.1" class="g10_3" />
<path d="M520,349.4l3,1.4" class="g8_3" />
<path d="M520,349.4c0,0,-0.2,-0.6,1.1,-1.1" class="g10_3" />
<path d="M520,350.4l-48.7,17.1" class="g10_3" />
<path d="M429.6,382.5l16.3,-5.9" class="g10_3" />
<path d="M426.2,381l5,2.2l0.2,0.5l0,2.9" class="g10_3" />
<path d="M426.8,380.3c0,0,-1.4,0.3,-0.6,0.7" class="g10_3" />
<path d="M426.4,389.6c0,0,0.2,-4.8,5,-5.6" class="g8_3" />
<path d="M428.5,389.4c0,0,-0.2,-2.1,2.9,-2.8" class="g10_3" />
<path d="M530,399.8l-7.9,2.7M456,425.9l-8.8,3.1" class="g10_3" />
<path d="M473.5,426.5l-22,7.6" class="g10_3" />
<path d="M558.6,396.5l-32.9,11.6" class="g10_3" />
<path d="M446.1,430.1l0,2.8l2.9,1.4" class="g10_3" />
<path d="M446.1,430.1l3,1.4" class="g8_3" />
<path d="M468.4,420.8l4.8,2.2" class="g10_3" />
<path d="M473.6,423.4l0,2.7" class="g10_3" />
<path d="M468.7,420.1c0,0,-0.7,0.4,-0.3,0.7" class="g10_3" />
<path d="M473.6,426.1c0,0,0,0.3,-0.3,0.5" class="g10_3" />
<path d="M449,434.3c0,0,1.2,0.3,2.5,-0.2" class="g10_3" />
<path d="M449.1,431.5c0,0,1,0.3,2.3,-0.1" class="g8_3" />
<path d="M446.1,430.1c0,0,-0.3,-0.6,1.1,-1.1" class="g10_3" />
<path d="M494.9,413.8L471.7,422" class="g10_3" />
<path d="M454.9,425l-26.3,9.3" class="g8_3" />
<path d="M446,431l-16.5,5.8" class="g10_3" />
<path d="M468.7,420.1L495,410.8m16.5,-5.7L528.7,399" class="g8_3" />
<path d="M431.4,438.1l0,3" class="g10_3" />
<path d="M428.6,436.5l2.4,1.1c0,0,0.4,0.1,0.4,0.5" class="g10_3" />
<path d="M428.5,437.6c0.1,0.1,0.3,2.6,2.9,0.5" class="g8_3" />
<path d="M426.3,438.8c0,0,-0.1,1.8,1.3,2.7" class="g8_3" />
<path d="M431.4,441.1c0,0,-1.7,1.1,-4.1,0.3" class="g10_3" />
<path d="M421.8,436.9l-42.4,-17" class="g8_3" />
<path d="M530.1,345.2c0,0,0.4,-0.2,0.3,-0.5" class="g10_3" />
<path d="M528.6,344.4c0,0,1.2,-0.3,1.8,0.2" class="g8_3" />
<path d="M456,371.4c0,0,0.5,-0.2,0.5,-0.5" class="g10_3" />
<path d="M454.4,370.7c0,0,1.6,-0.4,2.1,0.2" class="g8_3" />
<path d="M456,425.9c0,0,0.6,-0.2,0.5,-0.5" class="g10_3" />
<path d="M454.9,425c0,0,1,-0.3,1.7,0.2" class="g8_3" />
<path d="M559.8,436.7l0.1,-41.6" class="g8_3" />
<path d="M558.6,435.6l0,-40.4" class="g10_3" />
<path d="M444.5,398.8c0.1,-3.8,2.8,-7.8,5.5,-9c2.6,-1.1,5.5,0.8,5.9,4.1" class="g10_3" />
<path d="M444.5,423.6l0,-24.8" class="g10_3" />
<path d="M453.7,417.9l0,-23.7" class="g10_3" />
<path d="M456.1,419.5l-0.2,-25.6" class="g8_3" />
<path d="M451.3,389.5c0,0,2.1,0.8,2.4,4.7" class="g10_3" />
<path d="M473.2,423c0,0,0.3,0.1,0.4,0.4" class="g10_3" />
<path d="M473.2,423.8c0,0,0.3,-0.1,0.4,-0.3" class="g8_3" />
<path d="M473.2,423.8l-21.8,7.6" class="g8_3" />
<path d="M530,399.8c0,0,0.7,-0.2,0.6,-0.5" class="g10_3" />
<path d="M528.7,399c0,0,1.3,-0.4,1.9,0.1" class="g8_3" />
<path d="M522.1,402.5c0,0,-1.6,0.7,-1.7,1.2" class="g10_3" />
<path d="M523.2,408.1l-2.7,-1c0,0,-0.3,-0.1,-0.3,-0.8" class="g10_3" />
<path d="M523.2,408.1c0,0,1.6,0.5,2.5,0" class="g10_3" />
<path d="M494.9,407.7L428.7,431" class="g10_3" />
<path d="M495,406.4l-9.7,3.4m-10.5,3.8l-19,6.6M445.1,424l-16.3,5.8" class="g8_3" />
<path d="M428.7,429.1l15.8,-5.5" class="g10_3" />
<path d="M445.1,422.5l10.7,-3.8" class="g8_3" />
<path d="M474.8,412.1l10.5,-3.7" class="g8_3" />
<path d="M485.6,409.2l9.4,-3.4" class="g10_3" />
<path d="M456.1,419.5L474,413.1" class="g10_3" />
<path d="M445.1,424l0,-1.5l-0.5,-0.1" class="g8_3" />
<path d="M455.8,420.2l0,-1.5l-2.1,-0.8" class="g8_3" />
<path d="M474.8,413.6l0,-1.5l-0.6,-0.2" class="g8_3" />
<path d="M485.3,409.8l0,-1.4l-2,-1" class="g8_3" />
<path d="M474,413.1l0.1,-20.7" class="g10_3" />
<path d="M483.3,407.4l0,-11.2" class="g10_3" />
<path d="M485.6,409.2l0,-12.2" class="g8_3" />
<path d="M495,413.8l0,-12.1" class="g10_3" />
<path d="M496.4,414.5l0,-12" class="g8_3" />
<path d="M435.1,426.9l1.2,-45.3" class="g10_3" />
<path d="M470.5,388.5l0,-16.2" class="g10_3" />
<path d="M471.8,388.5l0,-15.4" class="g8_3" />
<path d="M495,413.8c0,0,0.2,1.1,1.8,0.8" class="g10_3" />
<path d="M471.4,370l-19.9,6.9" class="g8_3" />
<path d="M470.5,373.1l-19,6.7" class="g10_3" />
<path d="M496,360l-23,8.2m-27.1,9.5l-8.1,2.8" class="g10_3" />
<path d="M436.3,381.6c0,0,0.2,-0.7,1.5,-1.1" class="g10_3" />
<path d="M582.4,330.1l-109,38.2" class="g10_3" />
<path d="M583.8,330.6l-108.6,38" class="g8_3" />
<path d="M473.4,368.3c0,0,-2.8,1,-2.9,4" class="g10_3" />
<path d="M471.8,373.1c0,0,-0.1,-3.1,3.4,-4.5" class="g8_3" />
<path d="M496,358.9c0,0,1,0.1,1.3,1" class="g8_3" />
<path d="M520,349.4l0,2.5" class="g10_3" />
<path d="M473,390.1l21.3,8.6" class="g8_3" />
<path d="M472.3,391.5l21.3,8.7" class="g10_3" />
<path d="M471.8,388.5c0,0,0,1,1.2,1.6" class="g8_3" />
<path d="M470.5,388.5c0,0,0,2.1,1.8,3" class="g10_3" />
<path d="M494.3,398.7c0,0,2.1,1.1,2.1,3.8" class="g8_3" />
<path d="M493.6,400.2c0,0,1.2,0.5,1.4,1.5" class="g10_3" />
<path d="M538.1,393.8l-26.6,9.4" class="g10_3" />
<path d="M538.1,398.5l0,-4.7" class="g8_3" />
<path d="M511.5,407.9l26.6,-9.4" class="g8_3" />
<path d="M511.5,403.2l0,4.7" class="g10_3" />
<path d="M511.5,406.9l25.4,-9" class="g10_3" />
<path d="M536.8,394.3l0.1,3.6" class="g10_3" />
<path d="M536.9,397.9l1.2,0.6" class="g8_3" />
<path d="M580.5,351.9L508.9,377" class="g8_3" />
<path d="M557,393.3l-60.2,21.3" class="g10_3" />
<path d="M558.1,393.8l-32.5,11.5" class="g8_3" />
<path d="M523.1,405.3c0,0,1.2,0.5,2.5,0" class="g8_3" />
<path d="M557,393.3c0,0,1.2,-0.3,2,0.3" class="g10_3" />
<path d="M559,393.5c0,0,0.8,0.3,0.9,1.6" class="g8_3" />
<path d="M557.9,393.3c0,0,0.7,0.3,0.7,1.9" class="g10_3" />
<path d="M591.9,355.1c-2.3,-0.8,-3.3,-3.9,-2.2,-7c1,-3.1,3.8,-4.9,6,-4.1" class="g10_3" />
<path d="M595.7,344c2.3,0.8,3.3,3.9,2.3,7c-1.1,3,-3.8,4.9,-6.1,4.1" class="g10_3" />
<path d="M593,355.3c-2.3,-0.8,-3.4,-3.7,-2.3,-6.8c1.1,-3.1,3.7,-4.8,6,-4" class="g8_3" />
<path d="M595.1,347.6l0.8,-0.1l0.3,1.9l1.2,-0.4l0.1,1l-1.2,0.8l-0.2,1.7l-1,0.3L595,351.2l-1.5,0.2l0,-1l1.5,-0.6Z" class="g8_3" />
<path d="M575.6,346.4c-1.6,-0.4,-2.5,-2.5,-2,-4.6c0.6,-2.1,2.3,-3.5,3.9,-3.1" class="g10_3" />
<path d="M576.8,345.8c-0.2,0.3,-0.7,0.7,-1.2,0.6" class="g8_3" />
<path d="M577.5,338.7c0.7,0.2,1.1,0.7,1.3,1.5" class="g8_3" />
<path d="M575.5,345.3c-0.2,0.3,-0.6,0.4,-1.1,0.2" class="g8_3" />
<path d="M576.5,338.7c0.6,0.1,0.8,0.2,1,0.9" class="g8_3" />
<path d="M589.3,350.8l-15.6,-6.3" class="g10_3" />
<path d="M575.7,339l15.7,6.3" class="g10_3" />
<path d="M582.8,348.2c-1.1,-0.3,-1.3,-2.2,-0.9,-3.7c0.5,-1.4,1.7,-2.3,2.8,-1.9" class="g8_3" />
<path d="M584.4,348.8c-1,-0.3,-1.3,-2.2,-0.9,-3.6c0.5,-1.5,1.8,-2.3,2.8,-2" class="g8_3" />
<path d="M586.1,349.6c-1,-0.4,-1.3,-2.4,-0.8,-3.8c0.5,-1.4,1.7,-2.2,2.8,-1.8" class="g8_3" />
<path d="M587.8,350.2c-1.1,-0.3,-1.3,-2.2,-0.9,-3.6c0.5,-1.5,1.7,-2.3,2.8,-2" class="g8_3" />
<path d="M589.3,350.8c-1.1,-0.3,-1.2,-2.2,-0.8,-3.6c0.5,-1.4,1.8,-2.3,2.8,-2" class="g8_3" />
<path d="M577.6,346.1c-1,-0.3,-1.3,-2.2,-0.9,-3.7c0.5,-1.4,1.7,-2.3,2.8,-1.9" class="g8_3" />
<path d="M579.2,346.7c-1,-0.3,-1.3,-2.2,-0.9,-3.6c0.5,-1.5,1.8,-2.3,2.8,-2" class="g8_3" />
<path d="M580.9,347.5c-1,-0.4,-1.3,-2.4,-0.8,-3.8c0.5,-1.4,1.7,-2.2,2.8,-1.8" class="g8_3" />
<path d="M575.9,345.4c-1.1,-0.4,-1.4,-2.2,-0.9,-3.6c0.4,-1.5,1.7,-2.3,2.8,-2" class="g8_3" />
<path d="M497.6,388c-2.3,-0.8,-3.3,-3.9,-2.2,-7c1,-3.1,3.8,-4.9,6,-4.1" class="g10_3" />
<path d="M501.4,376.9c2.3,0.8,3.3,3.9,2.3,7c-1.1,3,-3.8,4.9,-6.1,4.1" class="g10_3" />
<path d="M498.7,388.2c-2.3,-0.8,-3.3,-3.7,-2.3,-6.8c1.1,-3.1,3.7,-4.8,6,-4" class="g8_3" />
<path d="M500.8,380.5l0.8,-0.1l0.3,1.8l1.2,-0.3l0.2,1l-1.3,0.8l-0.2,1.7l-1,0.3l-0.1,-1.6l-1.5,0.2l0,-1l1.5,-0.6Z" class="g8_3" />
<path d="M481.3,379.3c-1.6,-0.4,-2.5,-2.5,-2,-4.6c0.6,-2.1,2.3,-3.5,3.9,-3.1" class="g10_3" />
<path d="M482.5,378.7c-0.2,0.3,-0.7,0.7,-1.2,0.6" class="g8_3" />
<path d="M483.2,371.6c0.7,0.2,1.2,0.7,1.3,1.5" class="g8_3" />
<path d="M481.2,378.2c-0.2,0.3,-0.5,0.4,-1.1,0.2" class="g8_3" />
<path d="M482.2,371.6c0.6,0.1,0.9,0.2,1,0.9" class="g8_3" />
<path d="M495,383.7l-15.6,-6.3" class="g10_3" />
<path d="M481.4,371.8l15.7,6.4" class="g10_3" />
<path d="M488.5,381.1c-1,-0.4,-1.3,-2.2,-0.9,-3.7c0.5,-1.4,1.8,-2.3,2.8,-1.9" class="g8_3" />
<path d="M490.1,381.7c-1,-0.3,-1.3,-2.2,-0.9,-3.6c0.5,-1.5,1.8,-2.3,2.8,-2" class="g8_3" />
<path d="M491.8,382.4c-1,-0.3,-1.3,-2.3,-0.8,-3.7c0.5,-1.4,1.7,-2.2,2.8,-1.9" class="g8_3" />
<path d="M493.5,383.1c-1,-0.3,-1.3,-2.2,-0.9,-3.6c0.5,-1.5,1.8,-2.3,2.8,-2" class="g8_3" />
<path d="M495,383.7c-1.1,-0.3,-1.2,-2.2,-0.8,-3.6c0.5,-1.4,1.8,-2.3,2.8,-2" class="g8_3" />
<path d="M483.3,379c-1,-0.4,-1.3,-2.2,-0.9,-3.7c0.5,-1.4,1.8,-2.3,2.8,-1.9" class="g8_3" />
<path d="M484.9,379.6c-1,-0.3,-1.3,-2.2,-0.9,-3.6c0.5,-1.5,1.8,-2.3,2.8,-2" class="g8_3" />
<path d="M486.6,380.3c-1,-0.3,-1.3,-2.3,-0.8,-3.7c0.5,-1.4,1.7,-2.2,2.8,-1.9" class="g8_3" />
<path d="M481.6,378.3c-1.1,-0.4,-1.4,-2.2,-0.9,-3.7c0.4,-1.4,1.7,-2.3,2.8,-1.9" class="g8_3" />
<path d="M586.7,343.4l-0.1,-10.6" class="g10_3" />
<path d="M582.4,330.1c0,0,1.4,-0.3,2.1,0.3" class="g10_3" />
<path d="M586.6,332.8c0,0,0.1,-2.2,-2.1,-2.4" class="g10_3" />
<path d="M583.8,330.6l0.7,-0.2" class="g8_3" />
<path d="M596.7,353.3l12.7,5.1" class="g10_3" />
<path d="M606.3,369.8L585.8,377" class="g10_3" />
<path d="M593,378.1l-7.2,2.6" class="g10_3" />
<path d="M594,378.9l-8.2,2.8" class="g8_3" />
<path d="M594.5,428.7l-8.7,3.1" class="g10_3" />
<path d="M605.8,428.5l-19.9,7" class="g10_3" />
<path d="M606.4,429.2l-20.6,7.4" class="g8_3" />
<path d="M611.2,361.6l0,3.9" class="g10_3" />
<path d="M609.4,358.4c0,0,1.8,1.1,1.8,3.2" class="g10_3" />
<path d="M606.3,369.8l4,-2.7" class="g10_3" />
<path d="M610.3,367.1c0,0,0.8,-0.7,0.9,-1.6" class="g10_3" />
<path d="M593,378.1l2.3,0" class="g10_3" />
<path d="M594,378.9l2.3,-0.1" class="g8_3" />
<path d="M595.3,378.1c0,0,2,0.2,2.2,1.4" class="g10_3" />
<path d="M597.5,379.5l0,1.2" class="g10_3" />
<path d="M596.3,378.8c0,0,0.9,-0.1,1.2,0.7" class="g8_3" />
<path d="M593,378.1l1,0.8" class="g8_3" />
<path d="M585.8,377l0,4.7" class="g10_3" />
<path d="M605.8,428.5l3.2,0" class="g10_3" />
<path d="M606.4,429.2l3.6,0" class="g8_3" />
<path d="M609,428.5c0,0,2,0.2,2.1,1.4" class="g10_3" />
<path d="M611.1,429.9l0.1,1.2" class="g10_3" />
<path d="M610,429.2c0,0,0.9,-0.1,1.1,0.7" class="g8_3" />
<path d="M605.8,428.5l0.6,0.7" class="g8_3" />
<path d="M594.5,428.7l2.3,-1.5c0,0,0.7,-0.8,0.7,-1.6" class="g10_3" />
<path d="M585.8,431.8l0,4.8" class="g10_3" />
<path d="M595.3,428.2l5.2,2.2" class="g10_3" />
<path d="M538.1,448.8l-26.6,9.3" class="g10_3" />
<path d="M538.1,453.5l0,-4.7" class="g8_3" />
<path d="M511.5,462.9l26.6,-9.4" class="g8_3" />
<path d="M511.5,458.1l0,4.8" class="g10_3" />
<path d="M511.5,461.9l25.4,-9" class="g10_3" />
<path d="M536.8,449.2l0.1,3.7" class="g10_3" />
<path d="M536.9,452.9l1.2,0.6" class="g8_3" />
<path d="M558.6,434.8l-86.5,30.6" class="g10_3" />
<path d="M555.7,440.1L495,461.5" class="g10_3" />
<path d="M557.3,440.4L496.4,462" class="g8_3" />
<path d="M610.1,435.6L495.9,476.1" class="g10_3" />
<path d="M582.9,447.4l-85,30.1m-9.2,3.3l-13.4,4.8" class="g10_3" />
<path d="M558.6,435.6c0,0,-0.3,3.1,-2.9,4.5" class="g10_3" />
<path d="M559.8,436.7c0,0,-0.3,2.7,-2.5,3.7" class="g8_3" />
<path d="M472.1,465.4l21.8,8.9" class="g8_3" />
<path d="M473,467.5l21,8.7" class="g10_3" />
<path d="M495,461.5l0,12.3" class="g10_3" />
<path d="M496.4,462l0,12.2" class="g8_3" />
<path d="M493.9,474.3c0,0,1,0.4,1.1,-0.5" class="g10_3" />
<path d="M496.4,474.2c0,0,0.1,1,-0.7,1.9" class="g8_3" />
<path d="M494,476.2c0,0,0.6,0.3,1.9,-0.1" class="g10_3" />
<path d="M495,461.5l1.4,0.5" class="g8_3" />
<path d="M471.8,468.2l0,15" class="g8_3" />
<path d="M470.5,467.1l0,16.1" class="g10_3" />
<path d="M491.3,484.1c-2.3,-0.8,-3.3,-4,-2.2,-7c0.3,-0.9,0.7,-1.7,1.2,-2.4" class="g10_3" />
<path d="M497.5,475.6c0.4,1.2,0.4,2.8,-0.2,4.3c-1,3.1,-3.7,4.9,-6,4.2" class="g10_3" />
<path d="M492.4,484.2c-2.3,-0.8,-3.4,-3.7,-2.3,-6.7c0.3,-0.9,0.7,-1.7,1.2,-2.3" class="g8_3" />
<path d="M494.5,476.6l0.8,-0.2l0.3,1.9l1.2,-0.3l0.1,0.9l-1.3,0.9l-0.1,1.7l-1,0.3l-0.1,-1.7l-1.5,0.3l0,-1.1l1.5,-0.6Z" class="g8_3" />
<path d="M481.5,477.8c-1.6,-0.4,-2.4,-2.4,-1.9,-4.5c0.3,-1,0.8,-1.8,1.4,-2.4" class="g10_3" />
<path d="M482.8,477.3c-0.2,0.3,-0.7,0.7,-1.3,0.5" class="g8_3" />
<path d="M481.5,476.8c-0.3,0.3,-0.6,0.3,-1.1,0.2" class="g8_3" />
<path d="M488.6,479.8l-7.2,-3" class="g10_3" />
<path d="M485.5,478.5c-1.1,-0.3,-1.3,-2.3,-0.8,-3.7c0.2,-0.9,0.8,-1.5,1.4,-1.8" class="g8_3" />
<path d="M487.2,479.2c-1.1,-0.4,-1.4,-2.2,-0.9,-3.7c0.3,-0.8,0.8,-1.4,1.4,-1.8" class="g8_3" />
<path d="M488.6,479.8c-1,-0.4,-1.2,-2.2,-0.7,-3.6c0.3,-0.9,0.8,-1.5,1.4,-1.8" class="g8_3" />
<path d="M483.6,477.6c-1.1,-0.4,-1.4,-2.3,-0.9,-3.7c0.3,-0.8,0.7,-1.4,1.3,-1.7" class="g8_3" />
<path d="M481.7,476.9c-1.1,-0.3,-1.2,-2.3,-0.8,-3.7c0.3,-0.8,0.8,-1.4,1.4,-1.8" class="g8_3" />
<path d="M470.5,467.1c0,-0.2,0.3,-0.7,0.6,-1.1c0.3,-0.3,0.9,-0.6,1,-0.6" class="g10_3" />
<path d="M471.8,468.2c0,0,0.1,-1.1,1.2,-0.7" class="g10_3" />
<path d="M585.5,450.9c-2,-0.7,-3,-3,-2.6,-5.5" class="g10_3" />
<path d="M591.6,442.2c0.5,1.3,0.5,3,-0.1,4.6c-1,3,-3.8,4.9,-6,4.1" class="g10_3" />
<path d="M586.5,451.1c-2.1,-0.7,-3.2,-3.3,-2.4,-6.2" class="g8_3" />
<path d="M588.6,443.5l0.8,-0.2l0.4,1.9l1.2,-0.4l0.1,1l-1.3,0.8l-0.2,1.8l-1,0.2l0,-1.6l-1.5,0.2l-0.1,-1l1.6,-0.6Z" class="g8_3" />
<path d="M470.5,483.2c0,0,0.1,1.9,2.1,2.3c1.9,0.5,2.7,0.1,2.7,0.1" class="g10_3" />
<path d="M471.8,483.2c0,0,0.2,2.1,1.2,2.4" class="g8_3" />
<path d="M581.3,445.8l1.5,0.6" class="g10_3" />
<path d="M611.2,431.1l0,2.6c0,0,0,1.5,-1.1,1.9" class="g10_3" />
<path d="M756.4,579.7c-5.1,22,-47.6,39.2,-99.3,39.2c-36.6,0,-68.1,-8.7,-85.1,-21.7c-5.4,-4.1,-7.4,-8.8,-8.2,-13.7" class="g10_3" />
<path d="M757.2,575.1c0,1.5,-0.2,3.1,-0.5,4.5" class="g10_3" />
<path d="M756.6,589.7c-5.2,22,-47.7,39.2,-99.3,39.2c-36.7,0,-68.1,-8.8,-85.1,-21.7c-5.4,-4.1,-7.7,-8.7,-8.5,-13.5" class="g10_3" />
<path d="M756.7,599.7c-5.2,22,-48.4,38.9,-100,38.9c-36.7,0,-68.1,-8.8,-85.1,-21.8c-5.1,-3.9,-7.1,-8.2,-7.8,-12.8" class="g10_3" />
<path d="M756.8,609.7c-5.2,22,-47.7,39.1,-99.3,39.1c-36.7,0,-68,-9,-85.1,-21.7c-9.2,-6.7,-10.2,-15.3,-8.3,-22.7" class="g10_3" />
<path d="M745.8,575.1c1.4,15.7,-40.6,33,-87.8,32.4c-47.1,-0.6,-83.1,-14.1,-83.1,-28.2" class="g10_3" />
<path d="M581.7,589.7c12.7,-9.8,42.9,-16.7,77,-16.6c31.3,0,60.5,8.5,75.6,17.4" class="g10_3" />
<path d="M590.2,594.8c15.1,-7.1,43.5,-12.4,71.1,-11.9c25,0.5,47.9,6.3,63.9,12.4" class="g10_3" />
<path d="M563.9,584.2c0,0,-1.7,3.2,-0.2,9.5" class="g10_3" />
<path d="M563.9,594.8c0,0,-1.6,3.1,-0.2,9.4" class="g10_3" />
<path d="M756.4,579.7c0,0,1.4,2.4,0.2,10" class="g10_3" />
<path d="M756.5,589.7c0,0,1.4,2.3,0.2,10" class="g10_3" />
<path d="M756.6,600.1c0,0,1.4,2.3,0.1,10" class="g10_3" />
<path d="M756.7,610.1c0,0,5.8,16.5,-16.9,30.1" class="g10_3" />
<path d="M574.9,579.3c4.3,-14,43.1,-25.8,83.7,-25.7c41.1,0.2,80,15.5,85.4,26.6" class="g10_3" />
<path d="M576.9,585c7.4,-11.6,42.7,-21.9,81.7,-21.5c40.2,0.4,75.3,13,81.9,22.2" class="g10_3" />
<path d="M736.4,563.3c1.1,0.7,2.2,1.5,3.1,2.2c4.9,3.5,5.5,7,6.3,9.6" class="g10_3" />
<path d="M563.8,583.5c-1.2,-6.8,3.5,-18.8,17.2,-26.1c19.3,-10.2,51.1,-15.7,75.4,-15.2c17.8,0.4,36.2,1.2,51.5,6" class="g10_3" />
<path d="M757.1,575c0.3,1.3,0,-7.5,-5.6,-13.9c-7.1,-8.1,-20.2,-14.6,-23.4,-16" class="g10_3" />
<path d="M739.8,640.2c-18,11.4,-48.5,18.5,-82.7,18.5c-25.9,0,-49,-4.4,-66.5,-11.6" class="g10_3" />
<path d="M486.8,592.4l87.1,35.8" class="g10_3" />
<path d="M483.6,603l107,44.1" class="g10_3" />
<path d="M482.3,604.7c-2.5,-1.4,-3.1,-5.6,-1.5,-9.5c1.7,-3.8,5,-5.8,7.5,-4.4" class="g8_3" />
<path d="M486.6,604.3c-1.4,0.9,-3,1.2,-4.3,0.4" class="g10_3" />
<path d="M488.3,590.8c1,0.6,1.8,1.7,2.1,3.1" class="g10_3" />
<path d="M483.6,603.2c-0.3,-0.1,-0.5,-0.3,-0.8,-0.4c-1.7,-1.2,-2,-4.3,-0.6,-7.1c1.1,-2.1,3,-3.3,4.6,-3.2" class="g8_3" />
<path d="M488.3,590.8l-15,-9.5c0,0,-0.4,-0.2,-0.9,-0.3" class="g10_3" />
<path d="M482.7,604.9L472,602.6c0,0,-0.3,-0.1,-0.6,-0.5" class="g10_3" />
<path d="M472.2,581c0,0,-0.1,-1,-0.6,-1.3" class="g10_3" />
<path d="M445.1,575.3l8.6,-3.1l17.9,7.5" class="g10_3" />
<path d="M462.6,582.5l-17.5,-7.2" class="g8_3" />
<path d="M471.5,583.7L466.8,583c0,0,-3.3,-0.2,-4.2,-0.5" class="g8_3" />
<path d="M472.2,581c0,0,2,1.8,1.7,2.3" class="g10_3" />
<path d="M471.5,583.7c0,0,2.2,0.1,2.5,-0.3" class="g8_3" />
<path d="M466.4,582.9c0,0,-1.5,2.2,3,7.9" class="g8_3" />
<path d="M438.2,582.1l18.4,7.5c0,0,3.5,1.5,12.8,1.2" class="g8_3" />
<path d="M469.4,590.8c0.2,-0.2,-2,1.9,-1.9,5.5c0.2,3.2,3.6,5.8,3.9,5.8" class="g8_3" />
<path d="M468.6,602.4l-3.7,8.2c0,0,-1.5,2.4,-2.2,2.4" class="g8_3" />
<path d="M445.1,575.3l-6.9,6.8l0,11.4l18.8,7.7c0,0,5.9,1.8,14.4,0.9" class="g10_3" />
<path d="M443.7,595.7l1.4,10l17.6,7.3" class="g10_3" />
<path d="M477.2,603.7l-5.1,7.8" class="g10_3" />
<path d="M462.7,613c0,0,6.8,1.6,9.4,-1.5" class="g10_3" />
<path d="M453.7,572.2l6.6,1.9l18.8,7.9" class="g10_3" />
<path d="M479.1,582c0,0,2.8,1,2.3,4.5" class="g10_3" />
<path d="M434.1,581.2c-0.7,0.2,-1.4,-0.4,-1.7,-1.4c-0.3,-1.1,0,-2.1,0.7,-2.3" class="g8_3" />
<path d="M433.1,577.5c0.7,-0.2,1.4,0.4,1.7,1.5c0.3,1,0,2,-0.7,2.2" class="g10_3" />
<path d="M434.7,580.6c-0.4,-0.3,-0.8,-0.8,-0.9,-1.4c-0.2,-0.5,-0.2,-1.1,0,-1.5" class="g10_3" />
<path d="M443.8,576.6c-0.1,-0.3,-0.3,-0.6,-0.4,-0.9c-0.2,-1,0.1,-2,0.7,-2.3" class="g8_3" />
<path d="M444.1,573.4c0.7,-0.2,1.5,0.5,1.7,1.5" class="g10_3" />
<path d="M444.9,575.4c0,-0.1,-0.1,-0.2,-0.1,-0.3c-0.1,-0.5,-0.1,-1.1,0,-1.5" class="g10_3" />
<path d="M431.7,582.2c-0.8,-0.7,-1.3,-2,-1.4,-3.4c-0.2,-2.4,0.9,-4.5,2.4,-4.6" class="g10_3" />
<path d="M442.5,577.9c-0.8,-0.7,-0.9,-1.7,-1,-3.2c-0.2,-2.4,0.8,-4.4,2.3,-4.5" class="g10_3" />
<path d="M443.8,570.2l7.1,3" class="g10_3" />
<path d="M442.6,570.8l6.9,2.9" class="g10_3" />
<path d="M432.7,574.2l9.5,4" class="g10_3" />
<path d="M431.5,574.8l10,4.1" class="g10_3" />
<path d="M431.7,582.2l6.5,2.8" class="g10_3" />
<path d="M438.2,587.2l-3.5,-1.5" class="g10_3" />
<path d="M438.2,593.4l-5.5,-2.3" class="g10_3" />
<path d="M432.7,591.1c-0.9,-0.5,-1.4,-1.5,-1.4,-2.6c0,-1.6,1.2,-2.9,2.7,-2.9c0.3,0,0.5,0.1,0.7,0.1" class="g10_3" />
<path d="M597.5,411c37.8,25.9,53.1,90.4,80.5,115.3C697.4,544,723.5,556,723.5,556" class="g10_3" />
<path d="M597.5,397.3c44.8,28.9,61.5,96.2,88.9,121.1c14.5,13.2,33.2,22.7,41.7,26.7" class="g10_3" />
<path d="M723.5,556c0,0,8,3.4,12.9,7.3" class="g10_3" />
<path d="M598.1,429.3l-1.8,-1.8" class="g10_3" />
<path d="M604.6,360.2L497.7,397.8" class="g8_3" />
<path d="M605.4,363.1L499.1,400.3" class="g8_3" />
<path d="M375,359l0,65" class="g10_3" />
<path d="M376,359.6L531.8,306.2" class="g10_3" />
<path d="M531.5,306.5l0,4" class="g8_3" />
<path d="M376,424.3l4.4,-1.5" class="g8_3" />
<path fill-rule="evenodd" d="M506.1,455.8l8.7,-3.6l0,-4.5l-24.1,-9.8l9.3,-3.5l9,3.6l3.9,-12l0.1,-4.5l-31.3,1.1l-0.1,4.6l3.6,1.3l-18.3,6.9l0,4.4Z" class="g12_3" />
<path fill-rule="evenodd" d="M506.1,451.2l8.7,-3.4l-30,-12.3L500,429.9l9,3.6l4,-12l-31.3,1.1l9.7,3.8l-24.5,9Z" class="g13_3" />
<path d="M466.9,435.4l39.2,15.7" class="g8_3" />
<path d="M491.4,426.4l-18.3,6.3" class="g8_3" />
<path d="M500,429.9l-15.2,5.3" class="g8_3" />
<path d="M514.8,447.8l-8.7,3.3" class="g8_3" />
<path d="M509,433.5l4,-12l-31.3,1.1l9.7,3.8" class="g8_3" />
<path d="M509,433.5l-9,-3.6" class="g8_3" />
<path d="M466.9,439.8l39.2,15.8" class="g8_3" />
<path d="M500,434.4l-3.2,1.1" class="g8_3" />
<path d="M509,438l3.9,-12l0.1,-4.5l-31.3,1.1l-0.1,4.6l3.6,1.3" class="g8_3" />
<path d="M509,438l-9,-3.6" class="g8_3" />
<path d="M500,429.9l0,4.2" class="g8_3" />
<path d="M506.1,451.1l0,4.2" class="g8_3" />
<path d="M484.8,435.4l30,12.3l0,4.5l-8.7,3.4L466.9,439.8l0,-4.4l24.5,-9" class="g10_3" />
<path d="M485.2,428.5l-3.6,-1.3l0.1,-4.6L513,421.5l-0.1,4.5L509,438l-9,-3.6l-9.5,3.4" class="g10_3" />
<path d="M509,433.5l0,4.2" class="g8_3" />
<path d="M358,754l0,74" class="g10_3" />
<path d="M358.8,754.5l33,-11.3M521.7,699.1l8.9,-3.2" class="g10_3" />
<path d="M530.6,695.9l0,5.6" class="g8_3" />
<path d="M358.8,828.1l5.1,-1.6" class="g8_3" />
<path d="M458.7,784.7c0.2,-4.1,3.1,-8.5,6,-9.7c2.9,-1.3,6,0.8,6.5,4.4" class="g10_3" />
<path d="M458.6,812.2l0.1,-27.5" class="g10_3" />
<path d="M468.7,805.9l0,-26.1" class="g10_3" />
<path d="M471.3,806.8l-0.1,-27.4" class="g8_3" />
<path d="M466.2,774.6c0,0,2.2,0.8,2.5,5.2" class="g10_3" />
<path d="M416.9,775.1l2.4,-0.8" class="g8_3" />
<path d="M408,785.8l0.1,53.5" class="g10_3" />
<path d="M405.7,786l-0.1,54.6" class="g8_3" />
<path d="M405.8,779.7l-44.2,-18" class="g8_3" />
<path d="M523.3,698.4l55.2,23.2" class="g10_3" />
<path d="M419.3,771.1l-13.2,4.6" class="g8_3" />
<path d="M405.4,781.8L363.2,764.3" class="g8_3" />
<path d="M406.7,843.5L358.8,824.3" class="g10_3" />
<path d="M438.5,765.8l-9.8,3.5" class="g10_3" />
<path d="M427.5,770.6l0,3l3.4,1.6" class="g10_3" />
<path d="M427.5,770.6l3.5,1.5" class="g8_3" />
<path d="M430.9,775.2c0,0,1.2,0.4,2.6,-0.1" class="g10_3" />
<path d="M431,772.1c0,0,1.1,0.3,2.5,-0.2" class="g8_3" />
<path d="M427.5,770.6c0,0,-0.3,-0.8,1.2,-1.3" class="g10_3" />
<path d="M409.3,778.1l10,-3.6" class="g10_3" />
<path d="M405.5,776.5l5.5,2.4l0.2,0.5l0,3.3" class="g10_3" />
<path d="M406.2,775.7c0,0,-1.7,0.3,-0.7,0.8" class="g10_3" />
<path d="M405.7,786c0,0,0.2,-5.4,5.5,-6.2" class="g8_3" />
<path d="M408,785.8c0,0,-0.2,-2.4,3.2,-3.1" class="g10_3" />
<path d="M520.7,797.3l-8.7,3.1m-73.4,25.9l-9.8,3.5" class="g10_3" />
<path d="M458,827.8l-24.5,8.5" class="g10_3" />
<path d="M427.5,831.8l0.1,3.1l3.2,1.6" class="g10_3" />
<path d="M427.5,831.8l3.4,1.6" class="g8_3" />
<path d="M430.8,836.5c0,0,1.3,0.3,2.7,-0.2" class="g10_3" />
<path d="M430.9,833.4c0,0,1.1,0.3,2.6,-0.2" class="g8_3" />
<path d="M427.5,831.8c0,0,-0.2,-0.7,1.3,-1.2" class="g10_3" />
<path d="M419.3,831.7l-11.2,3.9" class="g8_3" />
<path d="M419.3,834.9l-10.2,3.6" class="g8_3" />
<path d="M411.2,839.9l0,3.3" class="g10_3" />
<path d="M408.2,838.1l2.6,1.2c0,0,0.4,0.1,0.4,0.6" class="g10_3" />
<path d="M408.1,839.3c0,0.2,0.3,2.9,3.1,0.6" class="g8_3" />
<path d="M405.6,840.6c0,0,-0.1,2,1.4,3" class="g8_3" />
<path d="M411.2,843.2c0,0,-1.8,1.2,-4.5,0.3" class="g10_3" />
<path d="M400.6,838.5L361.1,822.7" class="g8_3" />
<path d="M438.5,765.8c0,0,0.7,-0.3,0.6,-0.6" class="g10_3" />
<path d="M437.8,764.8c0,0,1.1,-0.2,1.3,0.4" class="g8_3" />
<path d="M438.6,827.1c0,0,0.7,-0.2,0.6,-0.5" class="g10_3" />
<path d="M438,826.2c0,0,1,-0.3,1.2,0.1" class="g8_3" />
<path d="M425.8,796.3c0.2,-4.3,3.1,-8.8,6.1,-10c2.9,-1.3,6.2,0.8,6.6,4.5" class="g10_3" />
<path d="M425.8,823.8l0,-27.5" class="g10_3" />
<path d="M436,817.5l0,-26.3" class="g10_3" />
<path d="M438.7,819.2l-0.2,-28.4" class="g8_3" />
<path d="M433.4,785.9c0,0,2.3,0.8,2.6,5.3" class="g10_3" />
<path d="M458,824.6l-24.5,8.6" class="g8_3" />
<path d="M489,803.4L408.2,832" class="g8_3" />
<path d="M489.7,801.9l-18.5,6.6m-12,4.1L438.3,820m-11.8,4.2l-18.1,6.4" class="g8_3" />
<path d="M408.2,829.9l17.6,-6.1" class="g10_3" />
<path d="M426.5,822.6l11.8,-4.3" class="g8_3" />
<path d="M438.7,819.2l19.9,-7" class="g10_3" />
<path d="M426.5,824.2l0,-1.6L426,822.4" class="g8_3" />
<path d="M438.3,819.8l0,-1.5L436,817.5" class="g10_3" />
<path d="M415.4,827.4l1.3,-50.3" class="g10_3" />
<path d="M458,763.2l-24.5,8.7" class="g8_3" />
<path d="M458,766.3l-24.5,8.8" class="g10_3" />
<path d="M416.7,777.1c0,0,0.2,-0.8,1.7,-1.2" class="g10_3" />
<path d="M533.2,740l0,49.6" class="g10_3" />
<path d="M491.3,802.4l0,-46.7" class="g8_3" />
<path d="M489.9,800.7l0,-44.8" class="g10_3" />
<path d="M419.3,776.5l0,-13.4" class="g10_3" />
<path d="M420.8,777.4l0,-13.5" class="g8_3" />
<path d="M392.1,748.4l0,-18" class="g10_3" />
<path d="M393.5,748.4l0,-17.1" class="g8_3" />
<path d="M419.3,776.5c0,0,0.2,1.2,1.9,0.9" class="g10_3" />
<path d="M516.4,683.6L395.3,726" class="g10_3" />
<path d="M518,684.1L397.3,726.4" class="g8_3" />
<path d="M395.3,726c0,0,-3.1,1.1,-3.2,4.4" class="g10_3" />
<path d="M393.5,731.3c0,0,-0.1,-3.4,3.8,-4.9" class="g8_3" />
<path d="M394.8,750.2l23.7,9.6" class="g8_3" />
<path d="M394.1,751.8l23.6,9.6" class="g10_3" />
<path d="M393.5,748.4c0,0,0,1.1,1.3,1.8" class="g8_3" />
<path d="M392.1,748.4c0,0,-0.1,2.4,2,3.4" class="g10_3" />
<path d="M418.5,759.8c0,0,2.3,1.1,2.3,4.1" class="g8_3" />
<path d="M417.7,761.4c0,0,1.3,0.5,1.6,1.7" class="g10_3" />
<path d="M520.5,705.2l-89.3,31.6m-17,6l-18.4,6.4" class="g8_3" />
<path d="M488.2,753.7l-29.9,10.6m-29.2,10.3l-7.9,2.8" class="g10_3" />
<path d="M488.2,753.7c0,0,1.3,-0.3,2.2,0.4" class="g10_3" />
<path d="M490.4,754c0,0,0.9,0.4,0.9,1.7" class="g8_3" />
<path d="M489.1,753.8c0,0,0.8,0.2,0.8,2.1" class="g10_3" />
<path d="M508.8,701.6c-1.8,-0.4,-2.7,-2.7,-2.2,-5c0.6,-2.4,2.5,-3.9,4.3,-3.5" class="g10_3" />
<path d="M510.2,701c-0.3,0.4,-0.8,0.8,-1.4,0.6" class="g8_3" />
<path d="M510.9,693.1c0.8,0.2,1.3,0.8,1.5,1.7" class="g8_3" />
<path d="M409.4,742.7c-2.5,-0.9,-3.6,-4.4,-2.5,-7.8c1.2,-3.4,4.2,-5.4,6.8,-4.6" class="g10_3" />
<path d="M413.7,730.3c2.5,0.9,3.6,4.4,2.5,7.8c-1.2,3.4,-4.2,5.5,-6.8,4.6" class="g10_3" />
<path d="M410.6,742.9c-2.5,-0.9,-3.7,-4.1,-2.5,-7.5c1.1,-3.4,4.1,-5.4,6.6,-4.5" class="g8_3" />
<path d="M413,734.4l0.9,-0.2l0.3,2.1l1.4,-0.4l0.1,1.1l-1.4,0.9l-0.2,2l-1.1,0.3l-0.1,-1.9l-1.7,0.3l0,-1.1l1.7,-0.7Z" class="g8_3" />
<path d="M404,738.2c-1.7,-0.5,-2.7,-2.7,-2.1,-5.1c0.6,-2.3,2.5,-3.9,4.2,-3.5" class="g10_3" />
<path d="M405.4,737.6c-0.2,0.3,-0.8,0.7,-1.4,0.6" class="g8_3" />
<path d="M406.1,729.6c0.9,0.2,1.4,0.8,1.5,1.7" class="g8_3" />
<path d="M406.5,738L402,736.1m-9.9,-3.8l-9.2,-3.9" class="g10_3" />
<path d="M385.1,722.2l9.8,3.9m9.3,3.8l4.7,1.9" class="g10_3" />
<path d="M403,736.5c-1.2,-0.4,-1.5,-2.6,-0.9,-4.1c0.5,-1.6,1.9,-2.5,3.1,-2.1" class="g8_3" />
<path d="M404.9,737.3c-1.2,-0.4,-1.6,-2.5,-1,-4.1c0.5,-1.6,1.9,-2.5,3.1,-2.1" class="g8_3" />
<path d="M406.5,738c-1.2,-0.4,-1.4,-2.5,-0.8,-4.1c0.5,-1.6,1.9,-2.5,3.1,-2.1" class="g8_3" />
<path d="M391.6,731.9c-1.2,-0.4,-1.5,-2.4,-1,-4c0.5,-1.6,1.9,-2.6,3.1,-2.2" class="g8_3" />
<path d="M521.1,696.1l0,-9.6" class="g10_3" />
<path d="M516.4,683.6c0,0,1.5,-0.4,2.4,0.2" class="g10_3" />
<path d="M521.1,686.5c0,0,0.1,-2.4,-2.3,-2.7" class="g10_3" />
<path d="M518,684.1l0.8,-0.3" class="g8_3" />
<path d="M546.4,715L522.9,704.8c-1.3,-0.7,-2,-2.6,-1.8,-3.8" class="g10_3" />
<path d="M543,727.7l-22.8,8" class="g10_3" />
<path d="M529.8,793.1l-9.7,3.4" class="g10_3" />
<path d="M548.3,718.6l0.1,4.3" class="g10_3" />
<path d="M546.4,715c0,0,1.9,1.2,1.9,3.6" class="g10_3" />
<path d="M543,727.7l4.4,-3" class="g10_3" />
<path d="M547.4,724.7c0,0,0.9,-0.8,1,-1.8" class="g10_3" />
<path d="M529.8,793.1l2.5,-1.7c0,0,0.9,-0.9,0.9,-1.8" class="g10_3" />
<path d="M467.3,815.9L438,826.2" class="g10_3" />
<path d="M467.3,821l0,-5.1" class="g8_3" />
<path d="M458.3,824.2l9,-3.2" class="g8_3" />
<path d="M457.5,823.5l8.4,-3.1" class="g10_3" />
<path d="M465.9,816.5l0,3.9" class="g10_3" />
<path d="M465.9,820.4l1.4,0.6" class="g8_3" />
<path d="M486.7,805.7l-67.4,23.8" class="g10_3" />
<path d="M488.5,806.6l-67.2,23.8" class="g8_3" />
<path d="M547.1,800.8L420.3,845.7" class="g10_3" />
<path d="M516.9,813.8L415.4,849.7m-6.7,2.5l-11.3,4" class="g10_3" />
<path d="M489.9,800.7c0,0,-0.3,3.5,-3.2,5" class="g10_3" />
<path d="M491.3,802.4c0,0,-0.3,3,-2.8,4.2" class="g8_3" />
<path d="M411.1,841l6.9,2.8" class="g8_3" />
<path d="M411.2,843l7,2.9" class="g10_3" />
<path d="M419,829l0,14" class="g10_3" />
<path d="M420.9,830.1l0,13.5" class="g8_3" />
<path d="M418,843.8c0,0,1.1,0.4,1.3,-0.6" class="g10_3" />
<path d="M420.9,843.6c0,0,0.1,1.2,-0.8,2.1" class="g8_3" />
<path d="M418.2,845.9c0,0,0.7,0.3,2.1,-0.2" class="g10_3" />
<path d="M419.3,829.5l1.6,0.6" class="g8_3" />
<path d="M393.5,838.4l0,15.3" class="g8_3" />
<path d="M392.1,837.8l0,15.8" class="g10_3" />
<path d="M404.3,847.7c-1.7,-0.5,-2.7,-2.7,-2.1,-5.1c0,-0.2,0.1,-0.5,0.2,-0.7" class="g10_3" />
<path d="M405.7,847.1c-0.3,0.3,-0.8,0.7,-1.4,0.6" class="g8_3" />
<path d="M404.2,846.5c-0.2,0.3,-0.6,0.4,-1.2,0.2" class="g8_3" />
<path d="M519.8,817.8c-2.2,-0.8,-3.3,-3.4,-2.9,-6.2" class="g10_3" />
<path d="M526.6,808.1c0.5,1.5,0.5,3.3,-0.1,5.1c-1.2,3.4,-4.2,5.4,-6.7,4.6" class="g10_3" />
<path d="M521,818c-2.4,-0.9,-3.6,-3.7,-2.8,-6.9" class="g8_3" />
<path d="M523.3,809.5l0.9,-0.2l0.4,2.1l1.3,-0.4l0.1,1.1l-1.4,0.9l-0.2,1.9l-1.1,0.3l-0.1,-1.8l-1.7,0.3l0,-1.2l1.7,-0.6Z" class="g8_3" />
<path d="M392.1,853.6c0,0,0.1,2.1,2.3,2.6c2.1,0.6,3,0,3,0" class="g10_3" />
<path d="M393.5,853.7c0,0,0.2,2.3,1.4,2.6" class="g8_3" />
<path d="M515.2,812.1l1.6,0.7" class="g10_3" />
<path d="M548.5,795l-0.1,3.7c0,0,0,1.6,-1.3,2.1" class="g10_3" />
<path d="M544.2,716.6l-122.3,43" class="g8_3" />
<path d="M546.4,717.6l-118,41.3" class="g8_3" />
<path d="M467.3,754.2L438,764.5" class="g10_3" />
<path d="M467.3,759.4l0,-5.2" class="g8_3" />
<path d="M458.3,762.6l9,-3.2" class="g8_3" />
<path d="M457.5,761.8l8.3,-3.1" class="g10_3" />
<path d="M465.8,754.8l0,3.9" class="g10_3" />
<path d="M465.8,758.7l1.5,0.7" class="g8_3" />
<path d="M438,826.2l0.1,1.1" class="g10_3" />
<path d="M451.9,821.3L458,824l0,3.8" class="g10_3" />
<path d="M455.6,822.1l10.3,-3.8" class="g8_3" />
<path d="M455.8,761.5l10,-3.7" class="g10_3" />
<path d="M451.7,759.8l6.3,2.9l0,3.6" class="g10_3" />
<path d="M438,764.5l0,1.5" class="g10_3" />
<path d="M479.7,783.4c-1.6,-0.6,-2.1,-3,-1.2,-5.5c0.9,-2.5,2.9,-4,4.5,-3.4" class="g10_3" />
<path d="M483,774.5c1.6,0.6,2.1,3.1,1.2,5.5c-0.9,2.5,-2.9,4,-4.5,3.4" class="g10_3" />
<path d="M481.5,780.6l1,-1.3l0,-1.8l-1.2,-0.3" class="g8_3" />
<path d="M481.3,777.2l-1,1.2l0,1.7l1.2,0.5" class="g8_3" />
<path d="M482.5,779.3l-2.2,-0.9" class="g8_3" />
<path d="M481.5,780.6L480.3,779" class="g8_3" />
<path d="M482.5,777.5l-1.7,0.3" class="g8_3" />
<path d="M540.6,782.5c0,0,3.9,1,11.2,5.9" class="g10_3" />
<path d="M544.8,770.3c0,0,17.9,7.2,35.1,24.5" class="g10_3" />
<path d="M578.4,779.2l0,-53.1" class="g8_3" />
<path d="M557.7,777.2l6.4,-2.2c0,0,0.5,-0.2,0.7,-0.8" class="g10_3" />
<path d="M580.7,725.2l0,53.3" class="g10_3" />
<path d="M533.2,772.5c0.3,-0.7,0.6,-1.5,1,-2.2c2.3,-3.9,6.5,-5.8,9.4,-4.1c0.2,0.1,0.3,0.2,0.4,0.3" class="g8_3" />
<path d="M537.5,776.7c0,-1.2,0.3,-2.4,0.9,-3.5c1.7,-3.6,5.1,-5.4,7.5,-4.1c1,0.5,1.7,1.4,2.1,2.6" class="g8_3" />
<path d="M544.1,766.6c0.7,0.1,1.3,0.3,1.8,0.6c0.2,0.1,2,1.1,2.5,4.7" class="g10_3" />
<path d="M535.1,776.3c0,-1.6,0.7,-3.6,1.7,-5.2c1.8,-3.1,4.8,-4.8,7.3,-4.5" class="g8_3" />
<path d="M535.1,776.3L535,788.4" class="g8_3" />
<path d="M537.5,776.7l-0.1,11.9" class="g8_3" />
<path d="M533.2,787.7l1.8,0.7" class="g10_3" />
<path d="M537.4,788.6l9.4,-3.3" class="g10_3" />
<path d="M535,788.4l2.4,0.2" class="g10_3" />
<path d="M540.6,782.5c-2.6,-1.4,-2.9,-4.1,-1.9,-7.3c1.1,-3.7,4,-6,6.4,-5.3c0.6,0.2,1.2,0.6,1.6,1.1" class="g10_3" />
<path d="M578.4,779.2c0,0,-0.1,2,-1.7,2.8" class="g8_3" />
<path d="M580.7,778.5c0,0.3,0.6,4.2,-4.1,6.6" class="g10_3" />
<path d="M564.8,775.2l0.1,-45.9" class="g8_3" />
<path d="M566.6,775.8l0.1,-47.2" class="g10_3" />
<path d="M564.8,775.2l-6.7,2.4" class="g8_3" />
<path d="M559.8,778.5l6.3,-2.2c0,0,0.4,-0.2,0.5,-0.5" class="g10_3" />
<path d="M576.8,724.7c0,0,1.6,-0.3,1.6,1.4" class="g10_3" />
<path d="M580.7,725.2c0,0,-0.1,-3.4,-2.8,-3.8" class="g10_3" />
<path d="M576.8,721.6c0,0,1.1,-0.2,1.6,-0.1" class="g8_3" />
<path d="M551.8,788.4c0,0,10,6.5,14.7,11.5" class="g10_3" />
<path d="M567.2,777.5l7.6,3.3" class="g8_3" />
<path d="M568.6,774.9l7.5,3.2" class="g8_3" />
<path d="M516,746.1l60.8,-21.4" class="g10_3" />
<path d="M516.1,742.9l60.7,-21.3" class="g8_3" />
<path d="M515.9,803.3l38,-13.3m14.8,-5.2l8,-2.8" class="g8_3" />
<path d="M571.5,786.9l5.1,-1.8" class="g10_3" />
<path d="M516,806.4L556.9,792" class="g10_3" />
<path d="M509.9,801.9l0,3.1c0,0,1.4,1,2.9,1.4" class="g10_3" />
<path d="M512,800.4c0,0,-2.1,0.7,-2.1,1.5" class="g10_3" />
<path d="M512.8,806.4c0,0,1.6,0.6,3.2,0" class="g10_3" />
<path d="M509.9,801.9c0,0,1.2,0.8,3.1,1.5" class="g8_3" />
<path d="M513,803.4c0,0,1.3,0.4,2.9,-0.1" class="g8_3" />
<path d="M521.1,796.2c0,0,1.1,0.6,-0.4,1.1" class="g10_3" />
<path d="M520.1,796.5l0,1" class="g10_3" />
<path d="M520.8,736.9l-9.9,3.5" class="g10_3" />
<path d="M509.7,741.7l0,3l3.4,1.6" class="g10_3" />
<path d="M509.7,741.7l3.5,1.5" class="g8_3" />
<path d="M513.1,746.3c0,0,1.4,0.3,2.9,-0.2" class="g10_3" />
<path d="M513.2,743.2c0,0,1.1,0.3,2.6,-0.2" class="g8_3" />
<path d="M509.7,741.7c0,0,-0.3,-0.8,1.2,-1.3" class="g10_3" />
<path d="M520.8,736.9c0,0,0.7,-0.3,0.6,-0.6" class="g10_3" />
<path d="M520.2,735.7c0,0,1,0,1.2,0.6" class="g8_3" />
<path d="M520.2,735.7l0,1.4" class="g10_3" />
<path d="M771.4,995.6c-5.8,24.6,-52.8,43.7,-109.9,43.7c-40.6,0,-75.4,-9.8,-94.2,-24.2c-6,-4.6,-8.3,-9.8,-9.1,-15.3" class="g10_3" />
<path d="M772.2,990.5c0,1.7,-0.2,3.4,-0.6,5" class="g10_3" />
<path d="M771.6,1006.7c-5.8,24.6,-52.8,43.7,-110,43.7c-40.5,0,-75.3,-9.8,-94.1,-24.2c-5.9,-4.6,-8.5,-9.6,-9.4,-15.1" class="g10_3" />
<path d="M771.6,1017.8c-5.7,24.6,-53.4,43.4,-110.6,43.4c-40.6,0,-75.4,-9.8,-94.2,-24.2c-5.6,-4.4,-7.8,-9.2,-8.6,-14.3" class="g10_3" />
<path d="M771.8,1029c-5.8,24.5,-52.8,43.7,-110,43.7c-40.5,0,-75.1,-10.1,-94.1,-24.2c-10.2,-7.6,-11.2,-17.1,-9.1,-25.3" class="g10_3" />
<path d="M759.6,990.4c1.6,17.5,-44.9,36.8,-97.1,36.2c-52.2,-0.7,-92,-15.7,-92,-31.5" class="g10_3" />
<path d="M578,1006.8c14.1,-11,47.5,-18.6,85.2,-18.6c34.7,0,67,9.5,83.7,19.4" class="g10_3" />
<path d="M587.4,1012.4c16.8,-7.9,48.2,-13.8,78.7,-13.2c27.6,0.5,53,6.9,70.7,13.8" class="g10_3" />
<path d="M558.3,1000.6c0,0,-1.8,3.5,-0.2,10.5" class="g10_3" />
<path d="M558.4,1012.4c0,0,-1.9,3.5,-0.3,10.5" class="g10_3" />
<path d="M771.4,995.6c0,0,1.5,2.6,0.2,11.1" class="g10_3" />
<path d="M771.5,1006.7c0,0,1.5,2.6,0.1,11.1" class="g10_3" />
<path d="M771.5,1018.3c0,0,1.6,2.6,0.2,11.1" class="g10_3" />
<path d="M771.7,1029.4c0,0,6.4,18.5,-18.7,33.6" class="g10_3" />
<path d="M570.5,995.1c4.8,-15.6,47.7,-28.7,92.6,-28.6c45.5,0.2,88.6,17.3,94.6,29.7" class="g10_3" />
<path d="M572.7,1001.5c8.2,-13,47.3,-24.4,90.4,-24c44.5,0.5,83.3,14.5,90.7,24.8" class="g10_3" />
<path d="M749.2,977.3c1.3,0.8,2.4,1.6,3.5,2.4c5.4,4,6,7.8,6.9,10.7" class="g10_3" />
<path d="M558.2,999.8c-1.3,-7.5,3.9,-21,19.1,-29.1c21.3,-11.4,56.5,-17.4,83.4,-16.9c19.6,0.4,40,1.3,57,6.7" class="g10_3" />
<path d="M772.1,990.3c0.4,1.5,0,-8.3,-6.2,-15.5C758,965.8,743.5,958.6,740,957" class="g10_3" />
<path d="M753,1063c-20,12.7,-53.7,20.7,-91.5,20.7c-28.7,0,-54.3,-5,-73.6,-12.9" class="g10_3" />
<path d="M473,1009.8l96.4,39.9" class="g10_3" />
<path d="M469.5,1021.6l118.4,49.2" class="g10_3" />
<path d="M468,1023.5c-2.7,-1.6,-3.5,-6.3,-1.6,-10.6c1.8,-4.3,5.5,-6.5,8.3,-4.9" class="g8_3" />
<path d="M472.8,1023c-1.6,1.1,-3.4,1.3,-4.8,0.5" class="g10_3" />
<path d="M474.7,1008c1.1,0.7,1.9,1.9,2.3,3.4" class="g10_3" />
<path d="M469.4,1021.7c-0.3,0,-0.5,-0.2,-0.8,-0.4c-1.9,-1.3,-2.2,-4.8,-0.7,-7.8c1.2,-2.4,3.3,-3.8,5.1,-3.6" class="g8_3" />
<path d="M474.7,1008L458,997.4c0,0,-0.4,-0.3,-0.9,-0.3" class="g10_3" />
<path d="M468.5,1023.7l-11.9,-2.6c0,0,-0.3,-0.2,-0.6,-0.6" class="g10_3" />
<path d="M456.9,997.1c0,0,-0.2,-1.2,-0.7,-1.5" class="g10_3" />
<path d="M426.9,990.6l9.4,-3.4l19.9,8.4" class="g10_3" />
<path d="M446.2,998.7l-19.3,-8.1" class="g8_3" />
<path d="M456.1,1000.1l-5.2,-0.9c0,0,-3.7,-0.1,-4.7,-0.5" class="g8_3" />
<path d="M456.9,997.1c0,0,2.2,2,1.9,2.5" class="g10_3" />
<path d="M456.1,1000.1c0,0,2.4,0.1,2.7,-0.3" class="g8_3" />
<path d="M450.4,999.2c0,0,-1.6,2.4,3.3,8.7" class="g8_3" />
<path d="M419.2,998.3l20.3,8.3c0,0,4,1.7,14.2,1.3" class="g8_3" />
<path d="M453.7,1007.9c0.2,-0.2,-2.2,2.1,-2,6.2c0.1,3.6,3.9,6.5,4.3,6.4" class="g8_3" />
<path d="M452.8,1020.9l-4.1,9.2c0,0,-1.6,2.6,-2.4,2.6" class="g8_3" />
<path d="M426.9,990.6l-7.7,7.7l0.1,12.7l20.8,8.6c0,0,6.5,2,15.9,0.9" class="g10_3" />
<path d="M425.3,1013.5l1.6,11l19.4,8.2" class="g10_3" />
<path d="M462.4,1022.3l-5.6,8.8" class="g10_3" />
<path d="M446.3,1032.7c0,0,7.5,1.8,10.5,-1.6" class="g10_3" />
<path d="M436.3,987.2l7.4,2.1l20.8,8.9" class="g10_3" />
<path d="M464.5,998.2c0,0,3.1,1,2.5,4.9" class="g10_3" />
<path d="M414.7,997.3c-0.8,0.2,-1.6,-0.5,-1.9,-1.7c-0.3,-1.1,0,-2.2,0.8,-2.5" class="g8_3" />
<path d="M413.6,993.1c0.7,-0.2,1.6,0.5,1.9,1.7c0.3,1.1,-0.1,2.2,-0.8,2.5" class="g10_3" />
<path d="M415.3,996.5c-0.4,-0.2,-0.8,-0.8,-1,-1.5c-0.2,-0.6,-0.1,-1.2,0,-1.7" class="g10_3" />
<path d="M425.5,992.1c-0.2,-0.3,-0.4,-0.6,-0.5,-1c-0.3,-1.1,0.1,-2.3,0.8,-2.5" class="g8_3" />
<path d="M425.8,988.6c0.7,-0.2,1.6,0.5,1.9,1.6" class="g10_3" />
<path d="M426.6,990.8c0,-0.1,-0.1,-0.2,-0.1,-0.3c-0.1,-0.6,-0.1,-1.2,0.1,-1.7" class="g10_3" />
<path d="M412,998.4c-0.9,-0.8,-1.5,-2.2,-1.6,-3.9c-0.2,-2.6,1.1,-4.9,2.7,-5" class="g10_3" />
<path d="M424,993.6c-0.9,-0.8,-1.1,-1.9,-1.2,-3.6c-0.2,-2.6,0.9,-4.9,2.6,-5" class="g10_3" />
<path d="M425.4,985l7.9,3.3" class="g10_3" />
<path d="M424.1,985.7l7.7,3.2" class="g10_3" />
<path d="M413.1,989.5l10.6,4.4" class="g10_3" />
<path d="M411.8,990.1l11,4.6" class="g10_3" />
<path d="M412,998.4l7.2,3.1" class="g10_3" />
<path d="M419.3,1003.9l-4,-1.6" class="g10_3" />
<path d="M419.3,1010.8l-6.2,-2.6" class="g10_3" />
<path d="M413.1,1008.2c-0.9,-0.5,-1.6,-1.6,-1.6,-2.8c0,-1.8,1.4,-3.2,3.1,-3.2c0.3,0,0.5,0,0.7,0.1" class="g10_3" />
<path d="M566.5,799.9c3.3,3.1,7.2,6.9,11,11c23.9,25.8,30,33.7,51.2,61.2" class="g10_3" />
<path d="M579.9,794.8c2.1,2,4.1,4.1,6.3,6.5c23.9,25.8,30,33.6,51.2,61.2" class="g10_3" />
<path d="M628.7,872.1c-0.5,-0.6,25.6,36.2,55.9,64c21.5,19.6,50.3,33.1,50.3,33.1" class="g10_3" />
<path d="M637.4,862.5c-0.5,-0.7,26.1,37,56.5,64.8c16,14.7,36.7,25.2,46.1,29.7" class="g10_3" />
<path d="M734.9,969.2c0,0,8.9,3.7,14.3,8.1" class="g10_3" />
<path d="M471,808.4l0,-1.7l-2.3,-0.8" class="g10_3" />
<path d="M459.2,812.6l0,-1.6l-0.4,-0.1l0.4,0.1" class="g8_3" />
<path d="M471.4,807.7l18.3,-6.6" class="g10_3" />
<path d="M459.2,811l11.6,-4.1" class="g8_3" />
<path d="M484.2,755.2l1.2,47.5" class="g10_3" />
<path d="M382.8,728.3c-1.2,-0.3,-1.5,-2.4,-1,-4c0.5,-1.6,1.9,-2.6,3.1,-2.2" class="g8_3" />
<path d="M389.7,731.1c-1.1,-0.4,-1.5,-2.5,-1,-4.1c0.5,-1.5,1.9,-2.5,3.1,-2.1" class="g8_3" />
<path d="M387.7,730.3c-1.2,-0.4,-1.6,-2.5,-1,-4.1c0.5,-1.6,1.9,-2.6,3.1,-2.2" class="g8_3" />
<path d="M385.6,729.3c-1.2,-0.3,-1.6,-2.4,-1.1,-4c0.6,-1.6,2,-2.6,3.1,-2.2" class="g8_3" />
<path d="M383.5,728.5c-1.2,-0.4,-1.5,-2.4,-1,-4c0.5,-1.6,1.9,-2.6,3.1,-2.2" class="g8_3" />
<path d="M514.2,706.1c-2.6,-0.8,-3.7,-4.3,-2.5,-7.7c1.2,-3.4,4.2,-5.5,6.7,-4.6" class="g10_3" />
<path d="M518.4,693.8c2.6,0.9,3.7,4.4,2.5,7.8c-1.2,3.4,-4.2,5.4,-6.7,4.5" class="g10_3" />
<path d="M515.4,706.4c-2.6,-0.9,-3.7,-4.2,-2.6,-7.6c1.2,-3.4,4.1,-5.3,6.7,-4.4" class="g8_3" />
<path d="M517.7,697.9l0.9,-0.2l0.4,2.1l1.3,-0.4l0.1,1.1l-1.4,0.9l-0.2,1.9l-1.1,0.3l-0.1,-1.8L516,702l-0.1,-1.1l1.7,-0.6Z" class="g8_3" />
<path d="M508.8,701.6c-1.8,-0.4,-2.7,-2.7,-2.2,-5c0.6,-2.4,2.5,-3.9,4.3,-3.5" class="g10_3" />
<path d="M510.2,701c-0.3,0.4,-0.8,0.8,-1.4,0.6" class="g8_3" />
<path d="M510.9,693.1c0.8,0.2,1.3,0.8,1.5,1.7" class="g8_3" />
<path d="M511.2,701.4l-4.5,-1.8M490,692.8l-2.4,-1" class="g10_3" />
<path d="M489.8,685.6l9.6,3.9m9.5,3.9l4.7,1.9" class="g10_3" />
<path d="M507.8,700c-1.2,-0.4,-1.5,-2.6,-1,-4.2c0.5,-1.6,1.9,-2.4,3.1,-2" class="g8_3" />
<path d="M509.6,700.8c-1.2,-0.4,-1.5,-2.5,-1,-4.1c0.6,-1.6,1.9,-2.6,3.1,-2.2" class="g8_3" />
<path d="M511.2,701.4c-1.1,-0.4,-1.3,-2.4,-0.8,-4c0.5,-1.6,1.9,-2.6,3.1,-2.2" class="g8_3" />
<path d="M495.7,690.6c0.6,-1.1,1.7,-1.8,2.7,-1.4" class="g8_3" />
<path d="M487.6,691.8c-1.2,-0.4,-1.6,-2.5,-1.1,-4c0.6,-1.6,2,-2.6,3.1,-2.2" class="g8_3" />
<path d="M493.2,691.6c0,-0.3,0.1,-0.7,0.3,-1.1c0.6,-1.6,1.9,-2.6,3.1,-2.2" class="g8_3" />
<path d="M491.3,692.3c-0.2,-0.8,-0.2,-1.8,0.1,-2.6c0.5,-1.6,1.9,-2.6,3.1,-2.2" class="g8_3" />
<path d="M490.3,692.8c-1.2,-0.4,-1.5,-2.5,-1,-4c0.5,-1.6,1.9,-2.6,3.1,-2.2" class="g8_3" />
<path d="M488.3,692c-1.2,-0.4,-1.6,-2.5,-1.1,-4.1c0.6,-1.6,2,-2.5,3.2,-2.1" class="g8_3" />
<path d="M409.7,852.2c-2.5,-0.9,-3.6,-4.4,-2.5,-7.8c0.1,-0.2,0.2,-0.4,0.3,-0.6" class="g10_3" />
<path d="M416.9,845.4c-0.1,0.7,-0.2,1.5,-0.5,2.2c-1.1,3.4,-4.1,5.5,-6.7,4.6" class="g10_3" />
<path d="M410.9,852.4c-2.5,-0.9,-3.7,-4.1,-2.5,-7.5c0.1,-0.4,0.2,-0.7,0.4,-1" class="g8_3" />
<path d="M413.3,843.9l0.9,-0.2l0.3,2.1l1.3,-0.4l0.2,1.1l-1.4,0.9l-0.3,1.9l-1,0.4l-0.1,-1.9l-1.7,0.3l0,-1.1l1.7,-0.7Z" class="g8_3" />
<path d="M404.3,847.7c-1.7,-0.5,-2.7,-2.7,-2.1,-5.1" class="g10_3" />
<path d="M405.7,847.1c-0.3,0.3,-0.8,0.7,-1.4,0.6" class="g8_3" />
<path d="M406.8,847.4l-4.5,-1.8m-10.2,-4l-8.9,-3.7" class="g10_3" />
<path d="M403.3,846c-1.2,-0.4,-1.5,-2.6,-0.9,-4.2" class="g8_3" />
<path d="M405.2,846.8c-1.2,-0.4,-1.6,-2.5,-1,-4.1" class="g8_3" />
<path d="M406.8,847.4c-1.2,-0.4,-1.4,-2.4,-0.8,-4" class="g8_3" />
<path d="M391.9,841.4c-1.2,-0.4,-1.5,-2.5,-1,-4" class="g8_3" />
<path d="M383.1,837.8c-1.2,-0.4,-1.5,-2.4,-1,-4" class="g8_3" />
<path d="M390,840.6c-1.2,-0.4,-1.5,-2.5,-1,-4.1" class="g8_3" />
<path d="M388,839.7c-1.2,-0.3,-1.6,-2.4,-1,-4" class="g8_3" />
<path d="M385.9,838.8c-1.2,-0.4,-1.6,-2.4,-1.1,-4" class="g8_3" />
<path d="M383.8,838c-1.2,-0.4,-1.5,-2.5,-1,-4" class="g8_3" />
</svg>