<?xml version="1.0" encoding="UTF-8" standalone="no"?>
<!DOCTYPE svg PUBLIC "-//W3C//DTD SVG 1.1//EN"
"http://www.w3.org/Graphics/SVG/1.1/DTD/svg11.dtd">
<svg version="1.1" xmlns="http://www.w3.org/2000/svg" xmlns:xlink="http://www.w3.org/1999/xlink">
<defs>
<style type="text/css"><![CDATA[
.g4_12{
fill: #F5F5F6;
}
.g14_12{
fill: none;
stroke: #808285;
stroke-width: 4;
stroke-linecap: butt;
stroke-linejoin: miter;
stroke-miterlimit: 4;
}
.g15_12{
fill: none;
stroke: #BDBEC1;
stroke-width: 4;
stroke-linecap: butt;
stroke-linejoin: miter;
stroke-miterlimit: 4;
}
.g6_12{
fill: #505750;
}
.g3_12{
fill: none;
stroke: #040503;
stroke-width: 1;
stroke-linecap: round;
stroke-linejoin: round;
stroke-miterlimit: 2;
}
.g7_12{
fill: #231F20;
}
.g8_12{
fill: #DF4826;
}
.g16_12{
fill: none;
stroke: #040503;
stroke-width: 1;
stroke-linecap: butt;
stroke-linejoin: miter;
stroke-miterlimit: 2;
}
.g12_12{
fill: none;
stroke: #231F20;
stroke-width: 1;
stroke-linecap: butt;
stroke-linejoin: miter;
stroke-miterlimit: 4;
}
.g1_12{
fill: none;
stroke: #231F20;
stroke-width: 4;
stroke-linecap: butt;
stroke-linejoin: miter;
}
.g9_12{
fill: #C12025;
}
.g10_12{
fill: #267896;
}
.g11_12{
fill: #61903E;
}
.g13_12{
fill: none;
stroke: #231F20;
stroke-width: 4;
stroke-linecap: butt;
stroke-linejoin: miter;
stroke-miterlimit: 4;
}
.g2_12{
fill: none;
stroke: #231F20;
stroke-width: 1;
stroke-linecap: butt;
stroke-linejoin: miter;
}
.g5_12{
fill: #FFFFFF;
}
]]></style>
</defs>
<path d="M55,191l245,0" class="g1_12" />
<path d="M299,191l175,0" class="g1_12" />
<path d="M474,191l70,0" class="g1_12" />
<path d="M545,191l69,0" class="g1_12" />
<path d="M614,191l70,0" class="g1_12" />
<path d="M684,191l70,0" class="g1_12" />
<path d="M754,191l70,0" class="g1_12" />
<path d="M55.5,300.5l245,0" class="g2_12" />
<path d="M299.5,300.5l175,0" class="g2_12" />
<path d="M474.5,300.5l70,0" class="g2_12" />
<path d="M545.5,300.5l69,0" class="g2_12" />
<path d="M614.5,300.5l70,0" class="g2_12" />
<path d="M684.5,300.5l70,0" class="g2_12" />
<path d="M754.5,300.5l70,0" class="g2_12" />
<path d="M55.5,409.5l245,0" class="g2_12" />
<path d="M299.5,409.5l175,0" class="g2_12" />
<path d="M474.5,409.5l70,0" class="g2_12" />
<path d="M545.5,409.5l69,0" class="g2_12" />
<path d="M614.5,409.5l70,0" class="g2_12" />
<path d="M684.5,409.5l70,0" class="g2_12" />
<path d="M754.5,409.5l70,0" class="g2_12" />
<path d="M55.5,518.5l245,0" class="g2_12" />
<path d="M299.5,518.5l175,0" class="g2_12" />
<path d="M474.5,518.5l70,0" class="g2_12" />
<path d="M545.5,518.5l69,0" class="g2_12" />
<path d="M614.5,518.5l70,0" class="g2_12" />
<path d="M684.5,518.5l70,0" class="g2_12" />
<path d="M754.5,518.5l70,0" class="g2_12" />
<path d="M190.1,210.1l8.9,-3.7" class="g3_12" />
<path d="M199.4,206.3l32.3,10.4" class="g3_12" />
<path d="M190.5,210.7l30.3,9.7" class="g3_12" />
<path d="M222.7,220.5l8.9,-3.8" class="g3_12" />
<path d="M220.8,220.4c0,0,0.8,0.4,1.9,0.1" class="g3_12" />
<path d="M190,210.8l30.9,9.8" class="g3_12" />
<path d="M222.8,220.6l9,-3.8" class="g3_12" />
<path d="M220.9,220.6c0,0,1,0.3,1.9,0" class="g3_12" />
<path d="M223,229.6l9.1,-3.9L232,217.2" class="g3_12" />
<path d="M231.7,216.7c0,0,0.3,0,0.3,0.5" class="g3_12" />
<path d="M190.4,219.8l30.6,9.9" class="g3_12" />
<path d="M189.8,210.6l0,8.8" class="g3_12" />
<path d="M189.8,219.4c0,0,0.1,0.2,0.6,0.4" class="g3_12" />
<path d="M221,229.7c0,0,1.2,0.2,2,-0.1" class="g3_12" />
<path d="M202.7,218.6l0,1.5l0.6,0.2" class="g3_12" />
<path d="M202.7,218.6l0.7,0.2" class="g3_12" />
<path d="M202.7,218.6l0.2,0.1l0,1.2l-0.2,0.2" class="g3_12" />
<path d="M202.9,218.7l0.1,0.1l0,1l-0.1,0.1" class="g3_12" />
<path d="M202.9,219.9l0.5,0.2" class="g3_12" />
<path d="M203,219.8c0,0,0.5,0.2,0.6,0.2" class="g3_12" />
<path d="M203,219.8l0.8,-0.3" class="g3_12" />
<path d="M203.3,220.3c0,0,0.4,0.1,0.5,-0.5" class="g3_12" />
<path d="M203.4,220.1c0,0,0.2,0,0.4,-0.3" class="g3_12" />
<path d="M207.6,220.1l0,1.5l0.6,0.3" class="g3_12" />
<path d="M207.6,220.1l0.7,0.2" class="g3_12" />
<path d="M207.6,220.1l0.2,0.2l0,1.1l-0.2,0.2" class="g3_12" />
<path d="M207.8,220.3l0.1,0l0,1.1l-0.1,0" class="g3_12" />
<path d="M207.8,221.4l0.5,0.3" class="g3_12" />
<path d="M207.9,221.4c0,0,0.5,0.2,0.6,0.2" class="g3_12" />
<path d="M207.9,221.4l0.8,-0.3" class="g3_12" />
<path d="M208.2,221.9c0,0,0.4,0.1,0.5,-0.5" class="g3_12" />
<path d="M208.3,221.7c0,0,0.2,0,0.4,-0.3" class="g3_12" />
<path d="M205.9,222.1l-1.4,-0.4l0,-0.9l0.2,0.2l0,0.5l1.2,0.4l0,-0.1l-1.1,-0.4l0.6,-0.2L204.8,221l0,0.4l-0.1,0.1l-0.2,0.2" class="g3_12" />
<path d="M204.5,220.8l1.4,0.5l0,0.8" class="g3_12" />
<path d="M210.7,223.7l-1.4,-0.5l0,-0.8l0.3,0.1l0,0.6l1.2,0.4l0,-0.2L209.7,223l0.5,-0.2l-0.5,-0.2l0,0.4l-0.1,0.1l-0.2,0.1" class="g3_12" />
<path d="M209.4,222.4l1.4,0.5l0,0.8" class="g3_12" />
<path d="M206,219.5l-1.6,-0.6l0,-0.8l0.2,0.2l0,0.5l0.1,-0.1l0.6,-0.2l-0.6,-0.2l0,0.4l1.3,0.4l0,0.1l-1.4,-0.4l-0.2,0.1" class="g3_12" />
<path d="M204.4,218.1l1.6,0.5l0,0.8" class="g3_12" />
<path d="M210.8,221l-1.6,-0.5l0,-0.8l0.3,0.1l-0.1,0.5l0.2,0l0.5,-0.3l-0.5,-0.2l0,0.5l1.3,0.4l0,0.1l-1.5,-0.5l-0.2,0.2" class="g3_12" />
<path d="M209.2,219.7l1.7,0.5l0,0.8" class="g3_12" />
<path d="M214.9,221.8l0,0.9l0.7,-0.3l-0.4,-0.1l0,-0.3l1.5,0.5l0,0.2l-1.1,-0.3l-0.7,0.3l1.8,0.6l0,0.2L215,222.8l-0.1,-0.1l-0.2,0" class="g3_12" />
<path d="M214.6,221.7l0,1.1" class="g3_12" />
<path d="M214.7,223.1l1.8,0.5" class="g3_12" />
<path d="M214.6,222.8c0,0,-0.1,0.2,0.1,0.3" class="g3_12" />
<path d="M214.8,221.7l1.8,0.6" class="g3_12" />
<path d="M216.8,222.5l0,1" class="g3_12" />
<path d="M214.6,221.7c0,0,0,-0.1,0.2,0" class="g3_12" />
<path d="M216.6,222.3c0,0,0.2,0,0.2,0.2" class="g3_12" />
<path d="M216.5,223.6c0,0,0.3,0.1,0.3,-0.1" class="g3_12" />
<path d="M215.2,222l0.1,-0.1" class="g3_12" />
<path d="M214.9,223.6l0,0.9l0.7,-0.3l-0.4,-0.1l0,-0.3l1.5,0.5l0,0.2l-1.1,-0.3l-0.7,0.3l1.8,0.6l0,0.1L215,224.6l-0.1,-0.1l-0.2,0" class="g3_12" />
<path d="M214.6,223.5l0,1.1" class="g3_12" />
<path d="M214.7,224.9l1.8,0.5" class="g3_12" />
<path d="M214.6,224.6c0,0,-0.1,0.2,0.1,0.3" class="g3_12" />
<path d="M214.8,223.5l1.8,0.6" class="g3_12" />
<path d="M216.7,224.3l0.1,1" class="g3_12" />
<path d="M214.6,223.5c0,0,0,-0.1,0.2,0" class="g3_12" />
<path d="M216.6,224.1c0,0,0.1,0,0.1,0.2" class="g3_12" />
<path d="M216.5,225.4c0,0,0.3,0.1,0.3,-0.1" class="g3_12" />
<path d="M215.2,223.8l0.1,-0.1" class="g3_12" />
<path d="M222.5,221.5l0,7" class="g3_12" />
<path d="M197.7,217l0.1,1.5l0.5,0.2" class="g3_12" />
<path d="M197.7,217l0.8,0.2" class="g3_12" />
<path d="M197.7,217l0.3,0.1l0,1.2l-0.2,0.2" class="g3_12" />
<path d="M198,217.1l0.1,0.1l0,1l-0.1,0.1" class="g3_12" />
<path d="M198,218.3l0.5,0.2" class="g3_12" />
<path d="M198.1,218.2c0,0,0.5,0.2,0.6,0.2" class="g3_12" />
<path d="M198.1,218.2l0.8,-0.3" class="g3_12" />
<path d="M198.3,218.7c0,0,0.5,0.1,0.6,-0.5" class="g3_12" />
<path d="M198.5,218.5c0,0,0.2,0,0.4,-0.3" class="g3_12" />
<path d="M198.9,218.3c0.1,-0.9,-0.5,-1.1,-0.5,-1.1L197.7,217" class="g3_12" />
<path d="M201,220.5l-1.4,-0.4l0,-0.9l0.2,0.2l0,0.5l1.2,0.4l0,-0.1l-1.1,-0.4l0.6,-0.2l-0.6,-0.2l0,0.4l-0.1,0.1l-0.2,0.1" class="g3_12" />
<path d="M199.6,219.2l1.4,0.5l0,0.8" class="g3_12" />
<path d="M201.1,217.9l-1.6,-0.6l-0.1,-0.8l0.3,0.1l0,0.6l0.1,-0.1l0.6,-0.3l-0.6,-0.1l0,0.4l1.3,0.4l0,0.1l-1.4,-0.4l-0.2,0.1" class="g3_12" />
<path d="M199.5,216.5l1.6,0.5l0,0.8" class="g3_12" />
<path d="M194.5,215.5l0,2" class="g3_12" />
<path d="M193.7,214.9l0.6,0.2" class="g3_12" />
<path d="M193.7,218l0.6,0.2" class="g3_12" />
<path d="M193.8,218l0.5,0.1" class="g3_12" />
<path d="M194.6,217.8c0,0,-0.3,0.2,-0.3,0.4" class="g3_12" />
<path d="M194.3,215.1c0,0,0,0.3,0.3,0.5" class="g3_12" />
<path d="M193.8,215c0,0,0,3,0,3l0.8,-0.4" class="g3_12" />
<path d="M193.7,214.9l0,3.1" class="g3_12" />
<path d="M194.6,217.8l0.3,0" class="g3_12" />
<path d="M194.3,218.2l0.3,0" class="g3_12" />
<path d="M194.6,218.2c0,0,0,-0.3,0.3,-0.4" class="g3_12" />
<path d="M194.9,217.8l0,-2.4" class="g3_12" />
<path d="M193.9,214.6l0.8,0.2" class="g3_12" />
<path d="M194.7,214.8c0,0,-0.1,0.3,0.2,0.6" class="g3_12" />
<path d="M193.7,214.9l0.6,-0.2" class="g3_12" />
<path d="M194.3,215.1l0.4,-0.2" class="g3_12" />
<path d="M194.3,215.3l0.5,-0.2" class="g3_12" />
<path d="M194.9,215.8l-0.2,0.1l0,0.1l0.1,0l0,0.2l0,0.1l-0.1,0.1l0.2,0" class="g3_12" />
<path d="M194.9,216.9l-0.1,0.1l0,0.1l0,0.2l0,0.1l0.1,0" class="g3_12" />
<path d="M194.4,215.4l0,2.1l0.1,0.1" class="g3_12" />
<path d="M194.4,215.5l-0.5,0.2" class="g3_12" />
<path d="M194.3,215.9l-0.4,0.2" class="g3_12" />
<path d="M194.4,216.6l-0.5,0.2" class="g3_12" />
<path d="M194.4,217l-0.5,0.1" class="g3_12" />
<path d="M194.4,218l0.3,-0.1" class="g3_12" />
<path d="M195.2,220.7L193.3,220c-0.2,0,-0.4,-0.3,-0.4,-0.5l0,-6.7c0,-0.1,0.2,-0.3,0.4,-0.3" class="g3_12" />
<path d="M193.3,212.5l1.9,0.7c0.2,0,0.3,0.3,0.3,0.5l0,6.7c0,0.1,-0.1,0.3,-0.3,0.3" class="g3_12" />
<path d="M195.5,220.4c0,0.1,-0.1,0.1,-0.1,0.1l-2,-0.7c-0.2,0,-0.3,-0.3,-0.3,-0.5l0,-6.7c0,-0.1,0.2,-0.1,0.3,-0.1" class="g3_12" />
<path d="M189.8,210.5c0,0,0,0.2,0.2,0.3" class="g3_12" />
<path d="M189.8,210.6c0,0,0,-0.4,0.3,-0.5" class="g3_12" />
<path d="M190.5,210.1l8.8,-3.8" class="g3_12" />
<path d="M190.5,210.1c0,0,-0.7,0.2,0,0.6" class="g3_12" />
<path d="M199,206.4c0,0,0.2,-0.1,0.4,-0.1" class="g3_12" />
<path d="M220.5,221.5l0,7" class="g3_12" />
<path d="M211,226.9l-3.3,1.4" class="g3_12" />
<path d="M219,229.7l-3.1,1.3" class="g3_12" />
<path d="M219.2,230.3l-3.3,1.3" class="g3_12" />
<path d="M207.8,229.6l6.5,2" class="g3_12" />
<path d="M207.4,228.6l0,0.6" class="g3_12" />
<path d="M207.4,229.2c0,0,0,0.2,0.4,0.4" class="g3_12" />
<path d="M207.4,228.6c0,0,0,-0.1,0.3,-0.3" class="g3_12" />
<path d="M207.4,228.6c0,0,0,0.2,0.4,0.3" class="g3_12" />
<path d="M211.4,226.6c0,0,0,0.1,-0.4,0.3" class="g3_12" />
<path d="M214.5,231.1c0,0,0.7,0.2,1.4,-0.1" class="g3_12" />
<path d="M219.6,229.2c0,0,-0.1,0.3,-0.6,0.5" class="g3_12" />
<path d="M220,229.4c0,0,-0.1,0.4,-0.8,0.9" class="g3_12" />
<path d="M207.8,228.9l6.7,2.2" class="g3_12" />
<path d="M210.5,230.4c-0.1,0,0.6,0.5,1.6,0.5" class="g3_12" />
<path d="M211.8,230.9l0,1.5" class="g3_12" />
<path d="M212.2,231l0,1.4" class="g3_12" />
<path d="M220.1,229.4l0,5.7" class="g3_12" />
<path d="M228.9,227.4l-5.2,2.2" class="g3_12" />
<path d="M229.1,227c0,0,0.1,0.3,-0.2,0.4" class="g3_12" />
<path d="M223.7,229.6c0,0,-0.4,0.2,-1.2,0.1" class="g3_12" />
<path d="M212.7,233.8l6.5,2.1" class="g3_12" />
<path d="M214.3,231.6c0,0,0.9,0.3,1.6,0" class="g3_12" />
<path d="M213.2,233.6l6.4,2.1" class="g3_12" />
<path d="M211.8,232.4c0,0,0,1.1,0.9,1.4" class="g3_12" />
<path d="M212.2,232.4c0,0,0,0.9,1,1.2" class="g3_12" />
<path d="M219.6,235.7c0,0,0.1,0.1,0.3,0.1" class="g3_12" />
<path d="M219.2,235.9c0,0,0.4,0.2,0.7,-0.1" class="g3_12" />
<path d="M219.9,235.8c0,0,0.1,-0.1,0.2,-0.7" class="g3_12" />
<path d="M203.6,235.2c0,-0.7,1.4,-1.3,3.2,-1.3c1.8,0,3.3,0.6,3.3,1.2" class="g3_12" />
<path d="M210.1,235.1c0,0.7,-1.5,1.2,-3.3,1.2c-1.8,0,-3.2,-0.5,-3.2,-1.1" class="g3_12" />
<path d="M210.1,235.5c0,0.6,-1.5,1.1,-3.3,1.1c-1.8,0,-3.2,-0.5,-3.2,-1.1" class="g3_12" />
<path d="M203.6,235.2l0,0.3" class="g3_12" />
<path d="M210.1,235.1l0,0.4" class="g3_12" />
<path d="M207.7,236.6l0,6.3m0,1.8l0,1.5" class="g3_12" />
<path d="M206,246.2l0,-2.1m0,-1.2l0,-6.3" class="g3_12" />
<path d="M207.7,246.2c0,0.2,-0.4,0.3,-0.8,0.3c-0.5,0,-0.9,-0.1,-0.9,-0.3" class="g3_12" />
<path d="M207.7,242.9c0,0.1,-0.4,0.3,-0.8,0.3c-0.5,0,-0.9,-0.2,-0.9,-0.3" class="g3_12" />
<path d="M207.6,236.7c-0.2,0,-0.5,0.1,-0.8,0.1c-0.3,0,-0.6,-0.1,-0.7,-0.1" class="g3_12" />
<path d="M207.7,237.9c0.1,0,0.1,0,0.1,0c0.3,0,0.6,0.1,0.6,0.3" class="g3_12" />
<path d="M208.4,238.2c0,0.1,-0.3,0.2,-0.6,0.2l-0.1,0" class="g3_12" />
<path d="M208.4,238.8c0,0.1,-0.3,0.2,-0.6,0.2l-0.1,0" class="g3_12" />
<path d="M208.4,238.2l0,0.6" class="g3_12" />
<path d="M204.8,248.2l0,-1.4" class="g3_12" />
<path d="M206,248.5l0,-1.4" class="g3_12" />
<path d="M207.4,248.5l0,-1.4" class="g3_12" />
<path d="M208.7,248.2l0,-1.4" class="g3_12" />
<path d="M208.5,248.3l0,-1.4" class="g3_12" />
<path d="M207.2,248.6l0,-1.4" class="g3_12" />
<path d="M205.9,248.5l0,-1.4" class="g3_12" />
<path d="M204.7,248.1l0,-1.4" class="g3_12" />
<path d="M209.2,247.8l0,-1.3" class="g3_12" />
<path d="M204.5,247.6l0,-1.2" class="g3_12" />
<path d="M204.9,248.2c0.1,0,0.1,0,0.2,0c0.4,0,0.8,0.2,0.9,0.4" class="g3_12" />
<path d="M207.3,248.6c0.2,-0.2,0.5,-0.3,0.9,-0.3c0.1,0,0.2,0,0.3,0" class="g3_12" />
<path d="M205.1,245.7c0.1,0.1,0.2,0.1,0.2,0.1c-0.1,0.2,-0.2,0.2,-0.4,0.3" class="g3_12" />
<path d="M205.1,245.7c0.2,-0.2,0.5,-0.2,0.9,-0.2" class="g3_12" />
<path d="M204.5,246.3c0,0,0,-0.2,0.4,-0.2" class="g3_12" />
<path d="M204.9,246.6c0,0,0.1,0,0.2,0c0.4,-0.1,0.8,0.1,0.9,0.3" class="g3_12" />
<path d="M205,246.8c0.4,-0.1,0.7,0,0.8,0.2" class="g3_12" />
<path d="M207.4,246.8c0,0,0.1,0,0.2,-0.1c0.4,-0.1,0.8,-0.1,0.9,0" class="g3_12" />
<path d="M207.5,247c0,0,0.1,-0.1,0.1,-0.1c0.3,-0.1,0.6,-0.1,0.8,0" class="g3_12" />
<path d="M204.5,247.6c0,0,0,0.4,0.4,0.6" class="g3_12" />
<path d="M206,248.6c0,0,0.5,0.1,1.3,0" class="g3_12" />
<path d="M209.2,247.8c0,0,-0.1,0.3,-0.7,0.5" class="g3_12" />
<path d="M208.8,245.9c0,0,-0.1,-0.3,-1.1,-0.5" class="g3_12" />
<path d="M209.2,246.5c0,0,0,-0.3,-0.3,-0.3" class="g3_12" />
<path d="M208.8,245.9c0,0,-0.4,0.2,0.1,0.3" class="g3_12" />
<path d="M208.8,245.9l0,0.3" class="g3_12" />
<path d="M205.1,245.7l0,0.3" class="g3_12" />
<path d="M204.6,246.4l0.1,0.2" class="g3_12" />
<path d="M204.7,246.3l0.1,0.2" class="g3_12" />
<path d="M208.7,246.6l0.2,-0.2" class="g3_12" />
<path d="M208.8,246.8l0.3,-0.2" class="g3_12" />
<path d="M215.9,239.1c0,-0.6,1.4,-1.2,3.2,-1.2c1.8,0,3.3,0.6,3.3,1.2" class="g3_12" />
<path d="M222.4,239.1c0,0.7,-1.5,1.2,-3.3,1.2c-1.8,0,-3.2,-0.5,-3.2,-1.2" class="g3_12" />
<path d="M222.4,239.4c0,0.7,-1.5,1.2,-3.3,1.2c-1.8,0,-3.2,-0.5,-3.2,-1.1" class="g3_12" />
<path d="M215.9,239.1l0,0.4" class="g3_12" />
<path d="M222.4,239.1l0,0.4" class="g3_12" />
<path d="M220,240.6l0,6.3m0,1.4l0,1.8" class="g3_12" />
<path d="M218.3,250.2l0,-2.1m0,-1.2l0,-6.3" class="g3_12" />
<path d="M220,250.2c0,0.1,-0.4,0.3,-0.9,0.3c-0.4,0,-0.8,-0.2,-0.8,-0.3" class="g3_12" />
<path d="M220,246.9c0,0.1,-0.4,0.3,-0.9,0.3c-0.4,0,-0.8,-0.2,-0.8,-0.3" class="g3_12" />
<path d="M219.9,240.6c-0.2,0.1,-0.5,0.2,-0.8,0.2c-0.3,0,-0.6,-0.1,-0.7,-0.2" class="g3_12" />
<path d="M220,241.9c0.1,0,0.1,0,0.1,0c0.3,0,0.6,0.1,0.6,0.3" class="g3_12" />
<path d="M220.7,242.2c0,0.1,-0.3,0.2,-0.6,0.2c0,0,-0.1,0,-0.1,0" class="g3_12" />
<path d="M220.7,242.7c0,0.2,-0.3,0.3,-0.6,0.3c0,0,-0.1,0,-0.1,0" class="g3_12" />
<path d="M220.7,242.2l0,0.5" class="g3_12" />
<path d="M217.1,252.2l0,-1.4" class="g3_12" />
<path d="M218.3,252.5l0,-1.4" class="g3_12" />
<path d="M219.7,252.5l0,-1.4" class="g3_12" />
<path d="M221,252.2l0,-1.4" class="g3_12" />
<path d="M220.8,252.3l0,-1.4" class="g3_12" />
<path d="M219.5,252.6l0,-1.4" class="g3_12" />
<path d="M218.2,252.5l0,-1.4" class="g3_12" />
<path d="M217,252.1l0,-1.4" class="g3_12" />
<path d="M221.5,251.8l0,-1.3" class="g3_12" />
<path d="M216.8,251.6l0,-1.3" class="g3_12" />
<path d="M217.2,252.2c0.1,0,0.1,0,0.2,0c0.4,0,0.8,0.2,0.9,0.4" class="g3_12" />
<path d="M219.6,252.6c0.2,-0.2,0.5,-0.3,0.9,-0.3c0.1,0,0.2,0,0.3,0" class="g3_12" />
<path d="M217.4,249.7c0.1,0.1,0.2,0.1,0.2,0.1c-0.1,0.1,-0.2,0.2,-0.4,0.3" class="g3_12" />
<path d="M217.4,249.7c0.2,-0.2,0.5,-0.3,0.8,-0.3" class="g3_12" />
<path d="M216.8,250.3c0,0,0,-0.2,0.4,-0.2" class="g3_12" />
<path d="M217.2,250.6c0,0,0.1,0,0.2,0c0.4,-0.1,0.7,0.1,0.9,0.3" class="g3_12" />
<path d="M217.3,250.7c0.4,0,0.7,0.1,0.8,0.3" class="g3_12" />
<path d="M219.7,250.8c0,0,0.1,0,0.2,-0.1c0.4,-0.1,0.7,-0.1,0.9,0" class="g3_12" />
<path d="M219.8,251c0,-0.1,0,-0.1,0.1,-0.1c0.3,-0.1,0.6,-0.1,0.8,0" class="g3_12" />
<path d="M216.8,251.6c0,0,0,0.4,0.4,0.6" class="g3_12" />
<path d="M218.3,252.6c0,0,0.5,0.1,1.3,0" class="g3_12" />
<path d="M221.5,251.8c0,0,-0.1,0.3,-0.7,0.5" class="g3_12" />
<path d="M221.1,249.8c0,0,-0.1,-0.2,-1.1,-0.4" class="g3_12" />
<path d="M221.5,250.5c0,0,0,-0.3,-0.3,-0.3" class="g3_12" />
<path d="M221.1,249.8c0,0,-0.4,0.3,0.1,0.4" class="g3_12" />
<path d="M221.1,249.8l0,0.4" class="g3_12" />
<path d="M217.4,249.7l0,0.3" class="g3_12" />
<path d="M216.9,250.4l0.1,0.2" class="g3_12" />
<path d="M217,250.3l0.1,0.2" class="g3_12" />
<path d="M220.9,250.6l0.3,-0.2" class="g3_12" />
<path d="M221.1,250.8l0.3,-0.2" class="g3_12" />
<path d="M206.3,247l0.7,0" class="g3_12" />
<path d="M206.3,247.1l0.7,0.1" class="g3_12" />
<path d="M218.5,251l0.8,0" class="g3_12" />
<path d="M218.6,251.1l0.7,0" class="g3_12" />
<path d="M208.3,241.1l-0.6,0.2m-1.7,0.8l-1,0.4" class="g3_12" />
<path d="M223.9,246l-3.5,1.5" class="g3_12" />
<path d="M223.7,246.8l-3.3,1.4" class="g3_12" />
<path d="M205.1,243.2l13.6,4.4" class="g3_12" />
<path d="M205.2,243.8l13.2,4.3" class="g3_12" />
<path d="M204.7,242.8l0,0.7" class="g3_12" />
<path d="M204.7,242.8c0,0,-0.1,-0.2,0.3,-0.3" class="g3_12" />
<path d="M204.7,242.8c0,0,0,0.2,0.4,0.4" class="g3_12" />
<path d="M204.7,243.5c0,0,0,0.2,0.5,0.3" class="g3_12" />
<path d="M220.4,247.5c0,0,-0.8,0.3,-1.7,0.1" class="g3_12" />
<path d="M220.4,248.2c0,0,-0.9,0.3,-2,-0.1" class="g3_12" />
<path d="M220.4,248.2l2.5,0.8" class="g3_12" />
<path d="M223.6,247.3l0,1" class="g3_12" />
<path d="M224.1,247.1l0,1" class="g3_12" />
<path d="M224.1,248.1c0,0,0,0.5,-0.5,0.7c-0.6,0.3,-0.7,0.2,-0.7,0.2" class="g3_12" />
<path d="M224.1,247.1c0,0,0,-0.3,-0.4,-0.3" class="g3_12" />
<path d="M223.6,247.3c0,0,0.1,-0.3,-0.4,-0.3" class="g3_12" />
<path d="M223.6,248.3c0,0,0,0.6,-0.3,0.6" class="g3_12" />
<path d="M224.5,244.5l0,1" class="g3_12" />
<path d="M223.7,246.8c0,0,0.8,-0.2,0.8,-1.1" class="g3_12" />
<path d="M224.5,244.5c0,0,0,-0.4,-0.4,-0.4" class="g3_12" />
<path d="M224.1,244.6l0,1.1c0,0,0,0.3,-0.2,0.3" class="g3_12" />
<path d="M221.3,245.4l2.2,0.7l0.2,-0.1l0.4,-0.2l-0.4,0.2l-0.1,-16.4" class="g3_12" />
<path d="M224.1,229.5l0,15" class="g3_12" />
<path d="M224.2,244.6l0.2,-0.2" class="g3_12" />
<path d="M224.1,244.4l0.3,-0.1" class="g3_12" />
<path d="M210.1,242.2l3.1,1m4.2,1.4l0.8,0.3m1.8,0.6l0.4,0.1" class="g3_12" />
<path d="M210,242.1c0,0,-0.1,0.1,0.1,0.1" class="g3_12" />
<path d="M210,242.1l0.5,-0.2" class="g3_12" />
<path d="M208.3,241.1l2.2,0.8" class="g3_12" />
<path d="M210.5,241.9c0,0,0.2,0,0.2,0.1" class="g3_12" />
<path d="M210.7,242l0,0.4" class="g3_12" />
<path d="M213.2,243.2c0,0,0.1,-0.1,0.3,0" class="g3_12" />
<path d="M217.3,244.6c0,0,0.1,-0.1,0.3,-0.1" class="g3_12" />
<path d="M213.5,243.2l4.1,1.3c0,0,0.1,0.1,0.3,0.2" class="g3_12" />
<path d="M221.3,245.4l-0.4,0.2c0,0,-0.2,0.1,-0.4,0" class="g3_12" />
<path d="M208.2,225.6l0,2.5m0,1.6l0,4.4m0,2.4l0,1.5m0,0.9l0,2" class="g3_12" />
<path d="M208.2,240.9c0,0,0,0.2,0.1,0.2" class="g3_12" />
<path d="M235.6,223.8c3.1,-1.1,7.4,-1.7,12,-1.7c10.3,0.1,18.1,3.1,17.8,7.6" class="g3_12" />
<path d="M265.3,230.5c-1,3.8,-8.5,6.7,-17.8,6.7c-6.5,0,-12.1,-1.5,-15.2,-3.7c-0.9,-0.7,-1.3,-1.5,-1.4,-2.4" class="g3_12" />
<path d="M265.4,229.7c0,0.2,0,0.5,-0.1,0.8" class="g3_12" />
<path d="M265.3,232.2c-0.9,3.8,-8.5,6.7,-17.7,6.7c-6.6,0,-12.2,-1.5,-15.2,-3.7c-1,-0.7,-1.4,-1.5,-1.5,-2.3" class="g3_12" />
<path d="M265.3,233.9c-0.9,3.8,-8.6,6.7,-17.8,6.7c-6.6,0,-12.2,-1.5,-15.2,-3.7c-0.9,-0.7,-1.3,-1.5,-1.4,-2.2" class="g3_12" />
<path d="M265.3,235.6c-0.9,3.8,-8.5,6.8,-17.7,6.8c-6.5,0,-12.1,-1.6,-15.2,-3.8c-1.6,-1.1,-1.8,-2.6,-1.5,-3.9" class="g3_12" />
<path d="M232.8,230.4c0,-2.4,6.8,-4.7,14.9,-4.6c8,0.2,14.9,2.7,15.4,4.7" class="g3_12" />
<path d="M263.4,229.7c0,2.4,-7.5,5.3,-15.7,5.3c-8.3,0,-14.9,-2.2,-14.9,-4.6" class="g3_12" />
<path d="M233.1,231.2c1.5,-2,7.6,-3.8,14.5,-3.6c6.8,0.1,12.7,1.9,14.7,3.7" class="g3_12" />
<path d="M234.1,232.2c2.2,-1.7,7.6,-3,13.7,-2.9c5.6,0.1,10.6,1.4,13.3,2.8" class="g3_12" />
<path d="M235.6,233c2.7,-1.2,7.2,-2.1,12.2,-2c4.5,0.1,8.6,0.9,11.4,2" class="g3_12" />
<path d="M236.2,225.8c2.8,-1.1,7,-1.8,11.5,-1.7c8,0.2,15,2.6,15.5,4.7" class="g3_12" />
<path d="M263.2,228.8c0,0,0.1,0.3,0.2,0.9" class="g3_12" />
<path d="M236.2,225.8l-3.6,1.3" class="g3_12" />
<path d="M232.6,227.1c0,0,-2.3,1.4,-1.7,4" class="g3_12" />
<path d="M230.9,231.2c0,0,-0.3,0.6,0,1.7" class="g3_12" />
<path d="M230.9,233.1c0,0,-0.3,0.5,0,1.6" class="g3_12" />
<path d="M265.3,230.5c0,0,0.2,0.4,0,1.7" class="g3_12" />
<path d="M265.3,232.2c0,0,0.2,0.4,0,1.7" class="g3_12" />
<path d="M265.3,234c0,0,0.2,0.4,0,1.7" class="g3_12" />
<path d="M265.3,235.7c0,0,1.1,2.8,-3,5.2" class="g3_12" />
<path d="M262.3,240.9l-1.3,0.7l-18.3,8" class="g3_12" />
<path d="M256.4,241.4L242,247.7" class="g3_12" />
<path d="M232.1,225.1c1.9,-0.6,3.5,-1.4,3.5,-1.3" class="g3_12" />
<path d="M227.9,227.9c0.3,0,0.7,-0.1,1.1,-0.1c1.2,-0.1,2.5,-0.3,3.6,-0.7" class="g3_12" />
<path d="M219.5,247.5l0,1" class="g3_12" />
<path d="M218.5,247.5l0,1" class="g3_12" />
<path d="M215.7,231.2l0,0.3" class="g3_12" />
<path d="M214.6,231.2l0,0.3" class="g3_12" />
<path d="M223.6,247.1l0.3,-0.1" class="g3_12" />
<path d="M223.7,247.2l0.2,-0.1" class="g3_12" />
<path d="M207.7,245.9c0,0.1,-0.4,0.3,-0.8,0.3c-0.5,0,-0.9,-0.2,-0.9,-0.3" class="g3_12" />
<path d="M207.7,242.5c0,0.2,-0.4,0.4,-0.8,0.4c-0.5,0,-0.9,-0.2,-0.9,-0.4" class="g3_12" />
<path d="M220,249.9c0,0.1,-0.4,0.3,-0.9,0.3c-0.4,0,-0.8,-0.2,-0.8,-0.3" class="g3_12" />
<path d="M220,246.5c0,0.2,-0.4,0.4,-0.9,0.4c-0.4,0,-0.8,-0.2,-0.8,-0.4" class="g3_12" />
<path d="M207.7,245.5c0,0.2,-0.4,0.4,-0.8,0.4c-0.5,0,-0.9,-0.2,-0.9,-0.4" class="g3_12" />
<path d="M207.7,242.2c0,0.2,-0.4,0.3,-0.8,0.3c-0.5,0,-0.9,-0.1,-0.9,-0.3" class="g3_12" />
<path d="M220,249.5c0,0.2,-0.4,0.4,-0.9,0.4c-0.4,0,-0.8,-0.2,-0.8,-0.4" class="g3_12" />
<path d="M220,246.2c0,0.2,-0.4,0.3,-0.9,0.3c-0.4,0,-0.8,-0.1,-0.8,-0.3" class="g3_12" />
<path d="M207.7,245.2c0,0.2,-0.4,0.4,-0.8,0.4c-0.5,0,-0.9,-0.2,-0.9,-0.4" class="g3_12" />
<path d="M207.7,241.9c0,0.2,-0.4,0.3,-0.8,0.3c-0.5,0,-0.9,-0.1,-0.9,-0.3" class="g3_12" />
<path d="M220,249.2c0,0.2,-0.4,0.3,-0.9,0.3c-0.4,0,-0.8,-0.1,-0.8,-0.3" class="g3_12" />
<path d="M220,245.9c0,0.2,-0.4,0.3,-0.9,0.3c-0.4,0,-0.8,-0.1,-0.8,-0.3" class="g3_12" />
<path d="M207.7,244.9c0,0.2,-0.4,0.3,-0.8,0.3c-0.5,0,-0.9,-0.1,-0.9,-0.3" class="g3_12" />
<path d="M207.7,241.6c0,0.2,-0.4,0.3,-0.8,0.3c-0.5,0,-0.9,-0.1,-0.9,-0.3" class="g3_12" />
<path d="M220,248.9c0,0.2,-0.4,0.3,-0.9,0.3c-0.4,0,-0.8,-0.1,-0.8,-0.3" class="g3_12" />
<path d="M220,245.6c0,0.1,-0.4,0.3,-0.9,0.3c-0.4,0,-0.8,-0.2,-0.8,-0.3" class="g3_12" />
<path d="M207.7,244.6c-0.1,0.2,-0.4,0.3,-0.8,0.3c-0.5,0,-0.9,-0.1,-0.9,-0.3" class="g3_12" />
<path d="M207.7,241.3c0,0.1,-0.4,0.3,-0.8,0.3c-0.5,0,-0.9,-0.2,-0.9,-0.3" class="g3_12" />
<path d="M220,248.6c0,0.1,-0.4,0.3,-0.9,0.3c-0.4,0,-0.8,-0.2,-0.8,-0.3" class="g3_12" />
<path d="M220,245.3c0,0.1,-0.4,0.3,-0.9,0.3c-0.4,0,-0.8,-0.2,-0.8,-0.3" class="g3_12" />
<path d="M207.3,244.5c-0.1,0.1,-0.3,0.1,-0.4,0.1c-0.5,0,-0.9,-0.2,-0.9,-0.3" class="g3_12" />
<path d="M207.7,240.9c0,0.2,-0.4,0.4,-0.8,0.4c-0.5,0,-0.9,-0.2,-0.9,-0.4" class="g3_12" />
<path d="M220,248.2c0,0.2,-0.4,0.4,-0.9,0.4c-0.4,0,-0.8,-0.2,-0.8,-0.4" class="g3_12" />
<path d="M220,244.9c0,0.2,-0.4,0.4,-0.9,0.4c-0.4,0,-0.8,-0.2,-0.8,-0.4" class="g3_12" />
<path d="M207.7,240.6c0,0.2,-0.4,0.4,-0.8,0.4c-0.5,0,-0.9,-0.2,-0.9,-0.4" class="g3_12" />
<path d="M220,244.6c0,0.2,-0.4,0.3,-0.9,0.3c-0.4,0,-0.8,-0.1,-0.8,-0.3" class="g3_12" />
<path d="M207.7,240.3c0,0.2,-0.4,0.3,-0.8,0.3c-0.5,0,-0.9,-0.1,-0.9,-0.3" class="g3_12" />
<path d="M220,244.3c0,0.2,-0.4,0.3,-0.9,0.3c-0.4,0,-0.8,-0.1,-0.8,-0.3" class="g3_12" />
<path d="M207.7,240c0,0.2,-0.4,0.3,-0.8,0.3c-0.5,0,-0.9,-0.1,-0.9,-0.3" class="g3_12" />
<path d="M220,244c0,0.2,-0.4,0.3,-0.9,0.3c-0.4,0,-0.8,-0.1,-0.8,-0.3" class="g3_12" />
<path d="M207.7,239.7c0,0.1,-0.4,0.3,-0.8,0.3c-0.5,0,-0.9,-0.2,-0.9,-0.3" class="g3_12" />
<path d="M220,243.7c0,0.1,-0.4,0.3,-0.9,0.3c-0.4,0,-0.8,-0.2,-0.8,-0.3" class="g3_12" />
<path d="M207.7,239.4c0,0.1,-0.4,0.3,-0.8,0.3c-0.5,0,-0.9,-0.2,-0.9,-0.3" class="g3_12" />
<path d="M220,243.3c0,0.2,-0.4,0.4,-0.9,0.4c-0.4,0,-0.8,-0.2,-0.8,-0.4" class="g3_12" />
<path d="M207.7,239c0,0.2,-0.4,0.3,-0.8,0.3c-0.5,0,-0.9,-0.1,-0.9,-0.3" class="g3_12" />
<path d="M220,243c0,0.2,-0.4,0.3,-0.9,0.3c-0.4,0,-0.8,-0.1,-0.8,-0.3" class="g3_12" />
<path d="M207.7,238.7c0,0.2,-0.4,0.3,-0.8,0.3c-0.5,0,-0.9,-0.1,-0.9,-0.3" class="g3_12" />
<path d="M220,242.7c0,0.2,-0.4,0.3,-0.9,0.3c-0.4,0,-0.8,-0.1,-0.8,-0.3" class="g3_12" />
<path d="M207.7,238.4c0,0.2,-0.4,0.3,-0.8,0.3c-0.5,0,-0.9,-0.1,-0.9,-0.3" class="g3_12" />
<path d="M220,242.4c0,0.2,-0.4,0.3,-0.9,0.3c-0.4,0,-0.8,-0.1,-0.8,-0.3" class="g3_12" />
<path d="M207.7,238.1c0,0.1,-0.4,0.3,-0.8,0.3c-0.5,0,-0.9,-0.2,-0.9,-0.3" class="g3_12" />
<path d="M220,242.1c0,0.1,-0.4,0.3,-0.9,0.3c-0.4,0,-0.8,-0.2,-0.8,-0.3" class="g3_12" />
<path d="M207.7,237.8c0,0.2,-0.4,0.3,-0.8,0.3c-0.5,0,-0.9,-0.1,-0.9,-0.3" class="g3_12" />
<path d="M220,241.8c0,0.1,-0.4,0.3,-0.9,0.3c-0.4,0,-0.8,-0.2,-0.8,-0.3" class="g3_12" />
<path d="M207.7,237.5c0,0.1,-0.4,0.3,-0.8,0.3c-0.5,0,-0.9,-0.2,-0.9,-0.3" class="g3_12" />
<path d="M220,241.5c0,0.1,-0.4,0.3,-0.9,0.3c-0.4,0,-0.8,-0.2,-0.8,-0.3" class="g3_12" />
<path d="M207.7,237.1c0,0.2,-0.4,0.4,-0.8,0.4c-0.5,0,-0.9,-0.2,-0.9,-0.4" class="g3_12" />
<path d="M220,241.1c0,0.2,-0.4,0.4,-0.9,0.4c-0.4,0,-0.8,-0.2,-0.8,-0.4" class="g3_12" />
<path d="M207.7,236.8c0,0.2,-0.4,0.3,-0.8,0.3c-0.5,0,-0.9,-0.1,-0.9,-0.3" class="g3_12" />
<path d="M220,240.8c0,0.2,-0.4,0.3,-0.9,0.3c-0.4,0,-0.8,-0.1,-0.8,-0.3" class="g3_12" />
<path d="M240.9,247.6c0.6,-0.2,1.3,0.4,1.5,1.3c0.2,0.6,0.1,1.3,-0.2,1.6" class="g3_12" />
<path d="M240.9,247.6l-3.5,0.7" class="g3_12" />
<path d="M232.9,250.1l3.5,-1.6" class="g3_12" />
<path d="M231.4,250.5l3.9,-1.7c0,0,0.6,-0.1,1.1,-0.3c0.6,-0.1,1,-0.2,1,-0.2" class="g3_12" />
<path d="M234.8,250.7l3.5,-1.5c0,0,0.3,-0.2,0.3,-0.4" class="g3_12" />
<path d="M238.6,248.8l0.4,-0.4c0,0,0,-0.1,0,-0.2" class="g3_12" />
<path d="M238.8,248.2c0,0,-0.2,-0.1,-0.5,0" class="g3_12" />
<path d="M238.6,248.8c0,0,0.5,0.3,1.8,0.6" class="g3_12" />
<path d="M236.3,252.1l3.9,-1.7c0,0,0.4,-0.2,0.4,-0.4" class="g3_12" />
<path d="M240.6,249.6c0,0.1,0,0.2,0,0.4" class="g3_12" />
<path d="M240.4,249.4c0,0,0.2,0,0.2,0.2" class="g3_12" />
<path d="M240.6,250l0,2.3" class="g3_12" />
<path d="M242.2,250.5l-1.6,1" class="g3_12" />
<path d="M236.3,254.6l3.9,-1.7" class="g3_12" />
<path d="M240.6,252.3c0,0,0.1,0.3,-0.4,0.6" class="g3_12" />
<path d="M232.8,256.1l0.1,0.6l1.9,0.6l3.5,-1.5" class="g3_12" />
<path d="M238.3,255.8c0,0,0.4,-0.1,1.7,-2.8" class="g3_12" />
<path d="M235.2,254.8l1.1,-0.2" class="g3_12" />
<path d="M234.8,257.3l0.4,-2.5" class="g3_12" />
<path d="M236.3,254.6l0,-2.5l-1.5,-1.4l-1.9,-0.6l-1.5,0.4" class="g3_12" />
<path d="M231.4,250.5l0,0.5" class="g3_12" />
<path d="M232.1,250.7l-2.3,1" class="g3_12" />
<path d="M232.7,252.4l-2.4,1.1" class="g3_12" />
<path d="M230,253.4l-0.2,-0.1c0,0,-0.6,-0.5,0,-1.6" class="g3_12" />
<path d="M230.3,253.5c-0.1,-0.1,-0.5,-0.7,0,-1.6" class="g3_12" />
<path d="M230,251.8l0.3,0.1l2.4,-1.1l-0.2,-0.1l0.2,0.1l0,1.6" class="g3_12" />
<path d="M234.7,251.6l-2.4,1" class="g3_12" />
<path d="M235.2,253.3l-2.5,1" class="g3_12" />
<path d="M232.5,254.3l-0.2,0c0,0,-0.6,-0.6,0,-1.7" class="g3_12" />
<path d="M232.7,254.3c-0.1,-0.1,-0.5,-0.7,0.1,-1.6" class="g3_12" />
<path d="M232.5,252.6l0.3,0.1l2.4,-1l-0.3,-0.2l0.3,0.2l0,1.6" class="g3_12" />
<path d="M231.4,253l0.6,0.5" class="g3_12" />
<path d="M232.6,254.3l0,0.5" class="g3_12" />
<path d="M230.3,255.8l3.3,-1.4" class="g3_12" />
<path d="M234.1,255.5l-3.3,1.5" class="g3_12" />
<path d="M230.8,257c0,0,-0.1,0,-0.2,0c-0.3,0,-0.6,-0.3,-0.6,-0.6c0,-0.3,0.1,-0.4,0.3,-0.6" class="g3_12" />
<path d="M233.6,254.4c0,0,0.5,-0.1,0.6,0.4c0.2,0.5,-0.1,0.7,-0.1,0.7" class="g3_12" />
<path d="M230.4,256c0,0,0.6,0.1,0.4,0.7" class="g3_12" />
<path d="M233.1,253.7c-0.1,0,-0.2,-0.2,-0.1,-0.5c0,-0.2,0.2,-0.4,0.3,-0.3" class="g3_12" />
<path d="M233.3,252.8c0.2,0.1,0.3,0.3,0.2,0.5c0,0.3,-0.2,0.5,-0.4,0.4" class="g3_12" />
<path d="M233.2,252.9c0,0.1,0,0.2,0,0.3c0,0.2,-0.1,0.3,-0.2,0.3" class="g3_12" />
<path d="M230.7,252.9c-0.2,0,-0.3,-0.2,-0.2,-0.5c0,-0.2,0.2,-0.4,0.4,-0.3" class="g3_12" />
<path d="M230.9,252c0.1,0.1,0.2,0.3,0.1,0.5c0,0.3,-0.2,0.5,-0.4,0.4" class="g3_12" />
<path d="M230.7,252.1c0,0.1,0,0.2,0,0.3c0,0.2,-0.1,0.3,-0.2,0.3" class="g3_12" />
<path d="M198.6,218.7c0.2,-0.1,0.3,-0.2,0.3,-0.4" class="g3_12" />
<path d="M203.8,219.8c0.1,-0.8,-0.4,-1,-0.4,-1l-0.7,-0.3" class="g3_12" />
<path d="M203.5,220.3c0.2,-0.1,0.3,-0.3,0.3,-0.4" class="g3_12" />
<path d="M208.7,221.4c0.1,-0.8,-0.4,-1,-0.4,-1l-0.7,-0.3" class="g3_12" />
<path d="M208.4,221.8c0.2,0,0.3,-0.2,0.3,-0.4" class="g3_12" />
<path d="M189,321.8l10.1,-4.2" class="g3_12" />
<path d="M199.5,317.5l36.9,11.8" class="g3_12" />
<path d="M189.4,322.5l34.5,11.1" class="g3_12" />
<path d="M226.1,333.7l10.2,-4.3" class="g3_12" />
<path d="M223.9,333.6c0,0,1.1,0.4,2.2,0.1" class="g3_12" />
<path d="M188.9,322.6l35.2,11.2" class="g3_12" />
<path d="M226.3,333.8l10.2,-4.4" class="g3_12" />
<path d="M224.1,333.8c0,0,1.1,0.3,2.2,0" class="g3_12" />
<path d="M226.5,344.1l10.4,-4.4l-0.1,-9.8" class="g3_12" />
<path d="M236.4,329.3c0,0,0.4,0.1,0.4,0.6" class="g3_12" />
<path d="M189.3,332.9l35,11.3" class="g3_12" />
<path d="M188.6,322.4l0,10" class="g3_12" />
<path d="M188.6,332.4c0,0,0.1,0.2,0.7,0.5" class="g3_12" />
<path d="M224.3,344.2c0,0,1.3,0.2,2.2,-0.1" class="g3_12" />
<path d="M225.5,334.5l0,8" class="g3_12" />
<path d="M194.8,333.9l-0.1,0l-2.1,-0.7c-0.2,-0.1,-0.4,-0.5,-0.4,-0.6l0,-7.7c0,-0.2,0.2,-0.4,0.4,-0.3" class="g3_12" />
<path d="M192.6,324.6l2.2,0.7c0.2,0.1,0.4,0.4,0.4,0.6l0,7.6c0,0.2,-0.2,0.4,-0.4,0.4" class="g3_12" />
<path d="M195.2,333.6c-0.1,0.1,-0.2,0.1,-0.2,0.1l-2.3,-0.8c-0.1,-0.1,-0.3,-0.4,-0.3,-0.5l0,-7.7c0,-0.1,0.2,-0.1,0.4,-0.1" class="g3_12" />
<path d="M188.7,322.2c0,0,0,0.3,0.2,0.4" class="g3_12" />
<path d="M188.6,322.4c0,0,0,-0.4,0.4,-0.6" class="g3_12" />
<path d="M189.4,321.8l10.1,-4.3" class="g3_12" />
<path d="M189.4,321.8c0,0,-0.8,0.3,0,0.7" class="g3_12" />
<path d="M199.1,317.6c0,0,0.2,-0.1,0.4,-0.1" class="g3_12" />
<path d="M224.5,334.5l0,8" class="g3_12" />
<path d="M233.3,341.5l-6,2.6" class="g3_12" />
<path d="M233.5,341.1c0,0,0.1,0.3,-0.2,0.4" class="g3_12" />
<path d="M227.3,344.1c0,0,-0.4,0.2,-1.3,0.1" class="g3_12" />
<path d="M204.9,315.3l34.7,11.1" class="g3_12" />
<path d="M201.7,316l1.8,-0.8" class="g3_12" />
<path d="M237.1,328l2.6,-1.1" class="g3_12" />
<path d="M237.2,328.7l2.5,-1" class="g3_12" />
<path d="M237.1,328c0,0,-0.7,0.3,-0.8,1.3" class="g3_12" />
<path d="M237.2,328.7c0,0,-0.2,0.1,-0.3,0.2c-0.2,0.2,-0.1,0.7,-0.1,0.7" class="g3_12" />
<path d="M239.5,326.5l0,1" class="g3_12" />
<path d="M239.9,327.4c0,0,0,0.2,-0.2,0.3" class="g3_12" />
<path d="M239.9,326.7c0,0,0.1,-0.2,-0.3,-0.3" class="g3_12" />
<path d="M239.9,326.7c0,0,0,0.1,-0.2,0.2" class="g3_12" />
<path d="M203.5,315.2c0,0,0.7,-0.1,1.4,0.1" class="g3_12" />
<path d="M209.3,319.7l-7.4,-2.4" class="g3_12" />
<path d="M201.5,316.2c0,0,0,-0.1,0.2,-0.2" class="g3_12" />
<path d="M201.5,317c0,0,0,0.2,0.4,0.3" class="g3_12" />
<path d="M210,319.2c0,0,-0.9,0.2,-1,1.4" class="g3_12" />
<path d="M210,319.2l-8,-2.6c0,0,-0.5,-0.1,-0.5,-0.3" class="g3_12" />
<path d="M204.8,316.6c0,-0.1,0.3,-0.3,0.6,-0.3c0.4,0,0.7,0.2,0.7,0.3" class="g3_12" />
<path d="M206.1,316.6c0,0.1,-0.3,0.2,-0.7,0.2c-0.3,0,-0.6,-0.1,-0.6,-0.2" class="g3_12" />
<path d="M205,316.7c0.1,-0.1,0.2,-0.1,0.4,-0.1c0.2,0,0.4,0,0.5,0.1" class="g3_12" />
<path d="M220,321.5c0,-0.2,0.3,-0.3,0.6,-0.3c0.3,0,0.6,0.1,0.6,0.3" class="g3_12" />
<path d="M221.2,321.5c0,0.1,-0.3,0.2,-0.6,0.2c-0.3,0,-0.6,-0.1,-0.6,-0.2" class="g3_12" />
<path d="M220.1,321.6c0.1,-0.1,0.3,-0.1,0.5,-0.1c0.2,0,0.4,0,0.5,0.1" class="g3_12" />
<path d="M235,326.3c0,-0.1,0.3,-0.3,0.6,-0.3c0.4,0,0.6,0.2,0.6,0.3" class="g3_12" />
<path d="M236.2,326.3c0,0.1,-0.2,0.2,-0.6,0.2c-0.3,0,-0.6,-0.1,-0.6,-0.2" class="g3_12" />
<path d="M235.1,326.4c0.2,-0.1,0.3,-0.1,0.5,-0.1c0.2,0,0.4,0,0.5,0.1" class="g3_12" />
<path d="M236.8,329.8c2.3,-0.3,4.7,-0.4,7.2,-0.4c11.5,0,20.3,3.4,20,8.4" class="g3_12" />
<path d="M263.8,338.7c-1,4.2,-9.5,7.5,-19.8,7.5c-6,0,-11.3,-1.1,-14.9,-2.9" class="g3_12" />
<path d="M264,337.8c0,0.3,-0.1,0.6,-0.2,0.9" class="g3_12" />
<path d="M263.8,340.6c-1,4.3,-9.5,7.6,-19.8,7.6c-7.2,0,-13.3,-1.7,-16.8,-4.1" class="g3_12" />
<path d="M263.9,342.5c-1.1,4.3,-9.7,7.5,-20,7.5c-7.3,0,-13.6,-1.7,-17,-4.2c-0.7,-0.5,-1.1,-1,-1.3,-1.5" class="g3_12" />
<path d="M263.9,344.5c-1.1,4.2,-9.5,7.5,-19.9,7.5c-7.3,0,-13.5,-1.7,-16.9,-4.2c-1.5,-1,-2,-2.3,-1.9,-3.5" class="g3_12" />
<path d="M236.9,334c2.2,-0.4,4.6,-0.6,7.2,-0.5c9,0.2,16.7,2.9,17.3,5.3" class="g3_12" />
<path d="M261.7,337.8c0,2.7,-8.4,5.9,-17.6,5.9c-4.8,0,-9.1,-0.6,-12.1,-1.6" class="g3_12" />
<path d="M236.9,335.9c2.2,-0.3,4.6,-0.5,7.2,-0.4c7.5,0.1,14.2,2.1,16.4,4.1" class="g3_12" />
<path d="M236.9,337.9c2.2,-0.4,4.7,-0.5,7.4,-0.5c6.2,0.1,11.8,1.5,14.9,3.1" class="g3_12" />
<path d="M236.4,339.9c2.4,-0.4,5,-0.6,7.9,-0.6c5,0.1,9.6,1,12.8,2.2" class="g3_12" />
<path d="M236.8,332.1c2.3,-0.4,4.8,-0.6,7.4,-0.5c8.9,0.2,16.7,2.9,17.3,5.2" class="g3_12" />
<path d="M261.5,336.8c0,0,0.1,0.4,0.2,1" class="g3_12" />
<path d="M263.8,338.7c0,0,0.3,0.4,0,1.9" class="g3_12" />
<path d="M263.8,340.6c0,0,0.3,0.5,0,1.9" class="g3_12" />
<path d="M263.8,342.6c0,0,0.3,0.5,0.1,1.9" class="g3_12" />
<path d="M263.9,344.5c0,0,1.1,3.2,-3.4,5.8" class="g3_12" />
<path d="M260.5,350.3l-1.5,0.8l-20.5,9" class="g3_12" />
<path d="M253.8,350.9L237.7,358" class="g3_12" />
<path d="M210.2,319.7l25.5,8.2" class="g3_12" />
<path d="M209.5,320.1l25.2,8.1" class="g3_12" />
<path d="M236.7,357.7c0.7,-0.2,1.4,0.5,1.7,1.5c0.2,0.7,0,1.5,-0.3,1.8" class="g3_12" />
<path d="M236.7,357.7l-4,0.9" class="g3_12" />
<path d="M227.6,360.5l4,-1.7" class="g3_12" />
<path d="M225.9,361l4.4,-1.9c0,0,0.6,-0.2,1.3,-0.3c0.6,-0.2,1.1,-0.2,1.1,-0.2" class="g3_12" />
<path d="M229.7,361.2l4,-1.7c0,0,0.4,-0.2,0.4,-0.4" class="g3_12" />
<path d="M234.1,359.1l0.4,-0.5l0,-0.1" class="g3_12" />
<path d="M234.2,358.4c0,0,-0.2,-0.1,-0.5,0" class="g3_12" />
<path d="M234.1,359.1c0,0,0.5,0.3,2,0.7" class="g3_12" />
<path d="M231.4,362.9l4.4,-1.9c0,0,0.5,-0.3,0.5,-0.6" class="g3_12" />
<path d="M236.3,360c0,0.1,0,0.3,0,0.4" class="g3_12" />
<path d="M236.1,359.8c0,0,0.2,0,0.2,0.2" class="g3_12" />
<path d="M236.3,360.4l0,2.7" class="g3_12" />
<path d="M238.1,361l-1.8,1.2" class="g3_12" />
<path d="M231.4,365.7l4.4,-1.9" class="g3_12" />
<path d="M236.3,363.1c0,0,0.1,0.3,-0.5,0.7" class="g3_12" />
<path d="M227.5,367.4l0.1,0.6l2.1,0.7l4,-1.7" class="g3_12" />
<path d="M233.7,367c0,0,0.4,0,2,-3.2" class="g3_12" />
<path d="M230.1,365.9l1.3,-0.2" class="g3_12" />
<path d="M229.7,368.7l0.4,-2.8" class="g3_12" />
<path d="M231.4,365.7l0,-2.8l-1.7,-1.7l-2.1,-0.7l-1.7,0.5" class="g3_12" />
<path d="M225.9,361l0,0.6" class="g3_12" />
<path d="M226.7,361.2l-2.7,1.2" class="g3_12" />
<path d="M227.4,363.2l-2.8,1.2" class="g3_12" />
<path d="M224.3,364.3L224,364.2c0,0,-0.7,-0.6,0,-1.8" class="g3_12" />
<path d="M224.6,364.4c-0.1,-0.1,-0.5,-0.8,0.1,-1.8" class="g3_12" />
<path d="M224.3,362.5l0.4,0.1l2.7,-1.2l-0.3,-0.1l0.3,0.1l0,1.8" class="g3_12" />
<path d="M229.6,362.2l-2.8,1.2" class="g3_12" />
<path d="M230.2,364.1l-2.8,1.2" class="g3_12" />
<path d="M227.2,365.4l-0.4,-0.1c0,0,-0.6,-0.7,0,-1.9" class="g3_12" />
<path d="M227.4,365.3c-0.1,-0.1,-0.6,-0.7,0,-1.8" class="g3_12" />
<path d="M227.1,363.4l0.3,0.1l2.8,-1.2l-0.4,-0.1l0.4,0.1l0,1.8" class="g3_12" />
<path d="M225.9,363.9l0.6,0.5" class="g3_12" />
<path d="M227.2,365.3l0.1,0.6" class="g3_12" />
<path d="M224.6,367.1l3.8,-1.7" class="g3_12" />
<path d="M229,366.7l-3.8,1.6" class="g3_12" />
<path d="M225.2,368.3c-0.1,0.1,-0.1,0.1,-0.2,0.1c-0.4,0,-0.7,-0.3,-0.7,-0.7c0,-0.3,0.1,-0.5,0.3,-0.6" class="g3_12" />
<path d="M228.4,365.4c0,0,0.5,-0.1,0.7,0.5c0.2,0.6,-0.1,0.8,-0.1,0.8" class="g3_12" />
<path d="M224.8,367.2c0,0,0.6,0.1,0.4,0.9" class="g3_12" />
<path d="M227.9,364.6c-0.2,0,-0.3,-0.2,-0.2,-0.5c0,-0.3,0.2,-0.4,0.4,-0.4" class="g3_12" />
<path d="M228.1,363.7c0.1,0,0.2,0.3,0.2,0.5c-0.1,0.3,-0.3,0.5,-0.5,0.5" class="g3_12" />
<path d="M227.9,363.7c0,0.1,0,0.3,0,0.4c0,0.2,-0.1,0.3,-0.2,0.4" class="g3_12" />
<path d="M225,363.7c-0.1,0,-0.2,-0.2,-0.1,-0.5c0,-0.3,0.2,-0.4,0.4,-0.4" class="g3_12" />
<path d="M225.3,362.8c0.1,0,0.2,0.3,0.1,0.5c0,0.3,-0.2,0.5,-0.4,0.5" class="g3_12" />
<path d="M225.1,362.8c0,0.1,0,0.3,0,0.4c0,0.2,-0.1,0.3,-0.2,0.4" class="g3_12" />
<path d="M203.1,331.7l0,1.7l0.7,0.3" class="g3_12" />
<path d="M203.1,331.7L204,332" class="g3_12" />
<path d="M203.1,331.7l0.3,0.2l0,1.3l-0.3,0.2" class="g3_12" />
<path d="M203.4,331.9l0.2,0l0,1.3l-0.2,0" class="g3_12" />
<path d="M203.4,333.2l0.6,0.3" class="g3_12" />
<path d="M203.6,333.2c0,0,0.5,0.2,0.6,0.2" class="g3_12" />
<path d="M203.6,333.2l0.8,-0.4" class="g3_12" />
<path d="M203.8,333.7c0,0,0.6,0.1,0.7,-0.5" class="g3_12" />
<path d="M204,333.5c0,0,0.3,0,0.4,-0.3" class="g3_12" />
<path d="M208.7,333.5l0,1.7l0.7,0.3" class="g3_12" />
<path d="M208.7,333.5l0.8,0.2" class="g3_12" />
<path d="M208.7,333.5l0.3,0.2l0,1.3l-0.3,0.2" class="g3_12" />
<path d="M209,333.7l0.1,0l0,1.2L209,335" class="g3_12" />
<path d="M209,335l0.6,0.2" class="g3_12" />
<path d="M209.1,334.9c0,0,0.6,0.3,0.6,0.2" class="g3_12" />
<path d="M209.1,334.9l0.9,-0.3" class="g3_12" />
<path d="M209.4,335.5c0,0,0.5,0.1,0.6,-0.5" class="g3_12" />
<path d="M209.5,335.2c0,0,0.3,0.1,0.5,-0.3" class="g3_12" />
<path d="M206.8,335.8l-1.6,-0.6l0,-0.9l0.3,0.2l0,0.5l1.3,0.5l0,-0.1L205.6,335l0.6,-0.3l-0.6,-0.2l0,0.5l-0.1,0l-0.3,0.2" class="g3_12" />
<path d="M205.3,334.3l1.5,0.5l0,0.9" class="g3_12" />
<path d="M212.3,337.5L210.7,337l0,-0.9l0.3,0.1l0,0.6l1.3,0.5l0,-0.2l-1.2,-0.4l0.6,-0.2l-0.6,-0.2l0,0.4l-0.1,0.1l-0.3,0.2" class="g3_12" />
<path d="M210.8,336.1l1.5,0.5l0,0.9" class="g3_12" />
<path d="M206.9,332.8l-1.8,-0.6l0,-1l0.2,0.2l0,0.6l0.2,-0.1l0.6,-0.3l-0.6,-0.2l0,0.5l1.4,0.5l0.1,0.1L205.3,332l-0.2,0.2" class="g3_12" />
<path d="M205.1,331.2l1.9,0.6l0,0.9" class="g3_12" />
<path d="M212.4,334.5l-1.8,-0.6l0,-0.9l0.2,0.2l0,0.5l0.2,-0.1l0.6,-0.2L211,333.2l0,0.4l1.4,0.5l0.1,0.2l-1.7,-0.6l-0.2,0.2" class="g3_12" />
<path d="M210.6,333l1.9,0.6l0,0.9" class="g3_12" />
<path d="M217.1,335.4l0,1l0.8,-0.3l-0.6,-0.2l0,-0.3l1.7,0.6l0,0.3l-1.1,-0.4l-0.8,0.3l1.9,0.7l0.1,0.2l-2,-0.7l0,-0.2l-0.3,0" class="g3_12" />
<path d="M216.6,335.3l0,1.2" class="g3_12" />
<path d="M216.8,336.8l2.1,0.7" class="g3_12" />
<path d="M216.6,336.5c0,0,0,0.3,0.2,0.3" class="g3_12" />
<path d="M216.9,335.3l2,0.6" class="g3_12" />
<path d="M219.1,336.2l0,1.1" class="g3_12" />
<path d="M216.6,335.3c0,0,0.1,-0.1,0.3,0" class="g3_12" />
<path d="M218.9,335.9c0,0,0.2,0.1,0.2,0.3" class="g3_12" />
<path d="M218.9,337.5c0,0,0.2,0,0.2,-0.2" class="g3_12" />
<path d="M217.3,335.6l0.1,-0.1" class="g3_12" />
<path d="M217,337.4l0.1,1.1l0.7,-0.4l-0.5,-0.2l0,-0.2l1.7,0.5l0,0.3l-1.2,-0.4l-0.7,0.4l1.9,0.6l0.1,0.2l-2,-0.7l0,-0.1l-0.3,0" class="g3_12" />
<path d="M216.6,337.3l0,1.3" class="g3_12" />
<path d="M216.8,338.9l2,0.6" class="g3_12" />
<path d="M216.6,338.6c0,0,0,0.2,0.2,0.3" class="g3_12" />
<path d="M216.9,337.3l2,0.7" class="g3_12" />
<path d="M219.1,338.2l0,1.1" class="g3_12" />
<path d="M216.6,337.3c0,0,0,-0.1,0.3,0" class="g3_12" />
<path d="M218.9,338c0,0,0.2,0,0.2,0.2" class="g3_12" />
<path d="M218.8,339.5c0,0,0.3,0.1,0.3,-0.2" class="g3_12" />
<path d="M217.3,337.7l0.1,-0.2" class="g3_12" />
<path d="M197.6,329.9l0,1.7l0.7,0.3" class="g3_12" />
<path d="M197.6,329.9l0.8,0.2" class="g3_12" />
<path d="M197.6,329.9l0.2,0.2l0,1.3l-0.2,0.2" class="g3_12" />
<path d="M197.8,330.1l0.2,0l0,1.2l-0.2,0.1" class="g3_12" />
<path d="M197.8,331.4l0.6,0.2" class="g3_12" />
<path d="M198,331.3c0,0,0.5,0.3,0.6,0.2" class="g3_12" />
<path d="M198,331.3l0.8,-0.3" class="g3_12" />
<path d="M198.3,331.9c0,0,0.5,0.1,0.6,-0.5" class="g3_12" />
<path d="M198.4,331.6c0,0,0.3,0.1,0.5,-0.2" class="g3_12" />
<path d="M198.9,331.4c0,-1,-0.5,-1.2,-0.5,-1.2l-0.8,-0.3" class="g3_12" />
<path d="M201.2,333.9l-1.6,-0.5l0.1,-0.9l0.2,0.1l0,0.6l1.4,0.5l0,-0.2l-1.2,-0.4l0.6,-0.2l-0.6,-0.2l0,0.4l-0.2,0.1l-0.2,0.2" class="g3_12" />
<path d="M199.7,332.5l1.6,0.5l0,0.9" class="g3_12" />
<path d="M201.3,330.9l-1.8,-0.6l0,-0.9l0.3,0.2l0,0.5l0.1,-0.1l0.6,-0.2l-0.6,-0.2l0,0.4l1.5,0.5l0,0.2l-1.6,-0.6l-0.3,0.2" class="g3_12" />
<path d="M199.5,329.4l1.9,0.6l0,0.9" class="g3_12" />
<path d="M193.5,328.5l0,2" class="g3_12" />
<path d="M193,327.6l0.6,0.2" class="g3_12" />
<path d="M193,331.1l0.7,0.2" class="g3_12" />
<path d="M193.1,331l0.5,0.2" class="g3_12" />
<path d="M194,330.9c0,0,-0.3,0.2,-0.3,0.4" class="g3_12" />
<path d="M193.6,327.8c0,0,0.1,0.3,0.4,0.6" class="g3_12" />
<path d="M193.1,327.7c0,-0.1,0,3.3,0,3.3l0.9,-0.4" class="g3_12" />
<path d="M193,327.6l0,3.5" class="g3_12" />
<path d="M194,330.9l0.4,-0.1" class="g3_12" />
<path d="M193.7,331.3l0.3,0" class="g3_12" />
<path d="M194,331.3c0,0,0,-0.3,0.4,-0.5" class="g3_12" />
<path d="M194.4,330.8l0,-2.7" class="g3_12" />
<path d="M193.2,327.2l0.9,0.3" class="g3_12" />
<path d="M194.1,327.5c0,0,0,0.3,0.3,0.6" class="g3_12" />
<path d="M193,327.6l0.6,-0.3" class="g3_12" />
<path d="M193.6,327.8l0.5,-0.3" class="g3_12" />
<path d="M193.7,328.1l0.5,-0.3" class="g3_12" />
<path d="M194.3,328.6l-0.1,0.1l0,0.1l0.1,0l0,0.3l-0.1,0l0,0.1l0.2,0" class="g3_12" />
<path d="M194.3,329.8l-0.1,0.1l0,0.1l0.1,0l0,0.3l-0.1,0.1l0.2,0" class="g3_12" />
<path d="M193.8,328.2l0,2.3l0.1,0.1" class="g3_12" />
<path d="M193.8,328.3l-0.5,0.1" class="g3_12" />
<path d="M193.7,328.7l-0.5,0.2" class="g3_12" />
<path d="M193.7,329.5l-0.5,0.2" class="g3_12" />
<path d="M193.7,329.9l-0.5,0.2" class="g3_12" />
<path d="M193.8,331.1l0.4,-0.1" class="g3_12" />
<path d="M198.6,331.8c0.2,0,0.2,-0.2,0.3,-0.4" class="g3_12" />
<path d="M204.4,333.2c0.1,-1,-0.5,-1.2,-0.5,-1.2l-0.8,-0.3" class="g3_12" />
<path d="M204.1,333.6c0.2,0,0.3,-0.2,0.4,-0.4" class="g3_12" />
<path d="M210,335c0.1,-1,-0.5,-1.2,-0.5,-1.2l-0.8,-0.3" class="g3_12" />
<path d="M209.7,335.4c0.2,0,0.2,-0.2,0.3,-0.4" class="g3_12" />
<path d="M193.9,428.1l6.5,-2.7" class="g3_12" />
<path d="M201.1,426.8l24.6,7.9" class="g3_12" />
<path d="M226.8,439l9,-3.8" class="g3_12" />
<path d="M192.4,430.4l30.5,9.8" class="g3_12" />
<path d="M227.1,439.9l9,-3.8" class="g3_12" />
<path d="M226.5,449.7l10.3,-4.5l0,-9.2" class="g3_12" />
<path d="M192.4,439.5l31,10" class="g3_12" />
<path d="M192.1,430.3l0,8.7" class="g3_12" />
<path d="M226.5,439.5l0,13" class="g3_12" />
<path d="M197.3,440.4l-1.9,-0.6c-0.2,0,-0.4,-0.4,-0.4,-0.5l0,-6.7c0,-0.2,0.2,-0.4,0.4,-0.3" class="g3_12" />
<path d="M195.4,432.3l1.9,0.6c0.2,0,0.3,0.4,0.3,0.5l0,6.7c0,0.1,-0.1,0.3,-0.3,0.3" class="g3_12" />
<path d="M197.6,440.2c0,0,-0.1,0,-0.1,0l-2,-0.6c-0.2,-0.1,-0.3,-0.4,-0.3,-0.5l0,-6.7c0,-0.2,0.2,-0.2,0.3,-0.1" class="g3_12" />
<path d="M223.8,440.6l0,8.7" class="g3_12" />
<path d="M201.5,423.3l23.6,7.5" class="g3_12" />
<path d="M201.7,423.2l23.6,7.5" class="g3_12" />
<path d="M206.5,424.6l18.9,6" class="g3_12" />
<path d="M192.1,439c0,0,-0.1,0.4,0.3,0.5" class="g3_12" />
<path d="M192.2,430.1l31.3,10.1" class="g3_12" />
<path d="M223.4,449.5c0,0,0.2,0.1,0.3,0c0.1,0,0.1,-0.2,0.1,-0.2" class="g3_12" />
<path d="M223.5,440.2c0,0,0.3,0.1,0.3,0.4" class="g3_12" />
<path d="M192.1,430.3c0,0,0,-0.2,0.1,-0.2" class="g3_12" />
<path d="M191.9,430.3l0,8.8" class="g3_12" />
<path d="M192.4,439.7l30.9,10" class="g3_12" />
<path d="M224,440.8l0,8.6" class="g3_12" />
<path d="M192.6,430l30.5,9.9" class="g3_12" />
<path d="M190.5,427L226,438.4" class="g3_12" />
<path d="M190.2,441.1l35.6,11.5" class="g3_12" />
<path d="M189.8,427.6l0,12.8" class="g3_12" />
<path d="M225.5,439.5l0,12" class="g3_12" />
<path d="M190.6,427.5l34.7,11.1" class="g3_12" />
<path d="M189.8,427.6c0,0,-0.1,-0.7,0.7,-0.6" class="g3_12" />
<path d="M189.8,440.4c0,0,-0.1,0.6,0.4,0.7" class="g3_12" />
<path d="M226.4,452.2c0,0,0.1,0.5,-0.6,0.4" class="g3_12" />
<path d="M226,438.4c0,0,0.4,0.1,0.4,0.6" class="g3_12" />
<path d="M200.8,426.2l0,0.2c0,0,0,0.3,0.3,0.4" class="g3_12" />
<path d="M201.2,423.2c0,0,0.1,0,0.3,0.1" class="g3_12" />
<path d="M201.2,423.2c0,0,0.1,-0.1,0.5,0" class="g3_12" />
<path d="M201.2,423.2c0,0,-0.3,0.1,-0.3,0.4" class="g3_12" />
<path d="M225.3,430.7c0,0,0.4,0.2,0.5,0.8" class="g3_12" />
<path d="M225.1,430.8c0,0,0.4,0.2,0.4,0.7" class="g3_12" />
<path d="M228.8,433.5l3.1,1" class="g3_12" />
<path d="M225.8,434.7l4.8,-2" class="g3_12" />
<path d="M230.8,434.1l0,-1.3" class="g3_12" />
<path d="M230.6,432.7c0,0,0.1,0,0.2,0.2" class="g3_12" />
<path d="M231,434.2l0,-1.5" class="g3_12" />
<path d="M231,433.3l0.8,0.3" class="g3_12" />
<path d="M231.8,433.7l0,0.5l-0.3,0.2" class="g3_12" />
<path d="M231.8,433.6l0,0.1" class="g3_12" />
<path d="M231.8,433.7l-0.5,0.2c0,0,-0.1,0,-0.3,0" class="g3_12" />
<path d="M225.5,434.1l0,0.3c0,0,0.1,0.3,0.2,0.3" class="g3_12" />
<path d="M225.8,434.1l0,0.2c0,0,0,0.1,0.1,0.1" class="g3_12" />
<path d="M225.9,434.4l4.7,-2" class="g3_12" />
<path d="M230.7,432.4c0,0,0.3,0,0.3,0.3" class="g3_12" />
<path d="M225.1,430.8c0,0,0.4,0.3,0.4,0.7" class="g3_12" />
<path d="M225.3,430.7c0,0,0.4,0.1,0.5,0.7" class="g3_12" />
<path d="M222.9,432.7c-0.2,0.1,-0.3,0,-0.4,-0.2c-0.1,-0.2,0,-0.4,0.2,-0.5" class="g3_12" />
<path d="M223,432.9c-0.2,0,-0.4,-0.2,-0.5,-0.4c-0.1,-0.3,0,-0.6,0.2,-0.7" class="g3_12" />
<path d="M222.5,432c0.2,-0.1,0.5,-0.1,0.6,0.2c0.2,0.4,0,0.6,-0.1,0.6" class="g3_12" />
<path d="M223.6,432.6c0,0.1,-0.1,0.1,-0.1,0.1" class="g3_12" />
<path d="M223.2,431.6c0.2,-0.1,0.4,0.1,0.5,0.4c0.1,0.3,0.1,0.5,-0.1,0.6" class="g3_12" />
<path d="M223.1,431.7c0,-0.1,0,-0.1,0,-0.1c0.1,0,0.1,0,0.1,0" class="g3_12" />
<path d="M223.2,432.8c-0.1,0,-0.1,0.1,-0.2,0" class="g3_12" />
<path d="M222.6,431.9c0,-0.1,0.1,-0.1,0.1,-0.1l0.1,0" class="g3_12" />
<path d="M223.3,432.8c0,0,-0.1,0,-0.1,0" class="g3_12" />
<path d="M222.8,431.8c0,0,0,-0.1,0.1,-0.1" class="g3_12" />
<path d="M223.5,432.7c-0.1,0,-0.1,0,-0.2,0" class="g3_12" />
<path d="M222.9,431.7c0,0,0.1,0,0.1,0c0,0,0,-0.1,0,-0.1" class="g3_12" />
<path d="M223.8,432.6c-0.1,0,-0.1,0,-0.2,0" class="g3_12" />
<path d="M223.3,431.5c0.2,0,0.4,0.2,0.5,0.4c0.2,0.3,0.1,0.6,-0.1,0.7" class="g3_12" />
<path d="M223.2,431.6l0.1,0c0,0,0,-0.1,0,-0.1" class="g3_12" />
<path d="M226.5,431.4c-0.1,0,-0.1,0,-0.2,0" class="g3_12" />
<path d="M226,430.4c0.2,-0.1,0.4,0.1,0.6,0.4c0.1,0.2,0,0.5,-0.1,0.6" class="g3_12" />
<path d="M225.9,430.5c0,-0.1,0.1,-0.1,0.1,-0.1" class="g3_12" />
<path d="M226.2,431.5c-0.1,0.1,-0.1,0.1,-0.2,0.1" class="g3_12" />
<path d="M225.8,430.5c0.1,-0.1,0.3,0.1,0.5,0.4c0.1,0.3,0,0.5,-0.1,0.6" class="g3_12" />
<path d="M226.3,431.5c0,0,-0.1,0,-0.1,0" class="g3_12" />
<path d="M225.9,430.4c0.2,0,0.4,0.2,0.5,0.4c0.1,0.3,0.1,0.6,-0.1,0.7" class="g3_12" />
<path d="M225.8,430.5l0,-0.1c0.1,0,0.1,0,0.1,0" class="g3_12" />
<path d="M226.6,431.4c-0.1,0,-0.1,0,-0.2,0" class="g3_12" />
<path d="M226.2,430.3c0.2,0,0.4,0.2,0.5,0.4c0.1,0.3,0.1,0.6,-0.1,0.7" class="g3_12" />
<path d="M226,430.4c0.1,0,0.1,0,0.1,-0.1c0,0,0.1,0,0.1,0" class="g3_12" />
<path d="M225.6,430.5c0.2,0,0.4,0.2,0.5,0.5c0.2,0.2,0.1,0.5,-0.1,0.6" class="g3_12" />
<path d="M225.5,430.6c0.2,0,0.4,0.2,0.5,0.4c0.1,0.3,0.1,0.5,0,0.6" class="g3_12" />
<path d="M225.4,430.7c0.1,0,0.4,0.2,0.5,0.4c0,0.1,0,0.1,0,0.2" class="g3_12" />
<path d="M225.6,430.6c0.1,-0.1,0.1,-0.1,0.1,-0.1c0.1,0,0.1,0,0.1,0" class="g3_12" />
<path d="M225.5,430.6c0.1,0,0.1,0,0.1,-0.1l0.1,0" class="g3_12" />
<path d="M225.4,430.7c0,0,0,-0.1,0.1,-0.1" class="g3_12" />
<path d="M225.7,431.2c0.1,0,0.5,0.2,0.1,0.3" class="g3_12" />
<path d="M225.8,431.5c0,0,-0.4,0,-0.8,-0.1" class="g3_12" />
<path d="M225,431.4l-1.4,-0.7" class="g3_12" />
<path d="M225.7,430.5c0,-0.3,0.3,-0.6,0.5,-0.7" class="g3_12" />
<path d="M226.9,431.8c-0.2,0.1,-0.6,0,-0.8,-0.2" class="g3_12" />
<path d="M226.1,429.8c0.4,-0.1,0.8,0.2,1.1,0.8c0.2,0.5,0,1.1,-0.4,1.2" class="g3_12" />
<path d="M226.2,429.8c0.4,-0.2,0.9,0.1,1.1,0.7c0.2,0.5,0,1.1,-0.4,1.3" class="g3_12" />
<path d="M223.6,431.3l0,-0.6" class="g3_12" />
<path d="M223.6,432.7l0,0.6" class="g3_12" />
<path d="M223.2,431.5c0.1,0,0.1,-0.1,0.2,-0.1c0.2,0,0.5,0.2,0.6,0.5c0.1,0.3,0,0.7,-0.3,0.7" class="g3_12" />
<path d="M226,433.9c-0.1,0.2,-0.5,0.2,-0.7,0.2" class="g3_12" />
<path d="M225.3,434.1l-1.7,-0.8" class="g3_12" />
<path d="M226,431.4l0,2.5" class="g3_12" />
<path d="M225.8,431.8l0,1.9" class="g3_12" />
<path d="M225.3,431.8l0.1,1.8" class="g3_12" />
<path d="M223.6,431.3c0,0,0.2,0.1,0.3,0.3" class="g3_12" />
<path d="M223.6,432.7c0,0,0.5,0.1,0.4,-0.5" class="g3_12" />
<path d="M227.3,431.3l3.4,1.1" class="g3_12" />
<path d="M200.9,423.6c0,0,0,-0.3,0.3,-0.4" class="g3_12" />
<path d="M201.2,423.2c0,0,0.1,-0.1,0.4,-0.1" class="g3_12" />
<path d="M201.4,423.3c0,0,-0.1,-0.1,-0.2,-0.1" class="g3_12" />
<path d="M202.8,424.1l0,0.6" class="g3_12" />
<path d="M202.8,426.1l0,0.6" class="g3_12" />
<path d="M202,426.1c-0.1,0,-0.3,-0.1,-0.3,-0.3c-0.1,-0.2,0,-0.4,0.1,-0.4" class="g3_12" />
<path d="M202.2,426.2c-0.2,0,-0.4,-0.1,-0.5,-0.4c-0.1,-0.3,-0.1,-0.6,0.1,-0.7" class="g3_12" />
<path d="M201.7,425.4c0.1,-0.2,0.5,-0.1,0.6,0.2c0.1,0.3,0,0.5,-0.1,0.6" class="g3_12" />
<path d="M202.8,426c0,0,-0.1,0,-0.2,0" class="g3_12" />
<path d="M202.2,425c0.1,0,0.1,0,0.1,0c0,-0.1,0.1,-0.1,0.1,-0.1" class="g3_12" />
<path d="M202.4,426.2c-0.1,0,-0.1,0,-0.2,0" class="g3_12" />
<path d="M201.9,425.1c0.2,0,0.4,0.2,0.6,0.4c0.1,0.3,0,0.6,-0.2,0.7" class="g3_12" />
<path d="M201.8,425.2l0.1,-0.1" class="g3_12" />
<path d="M202.5,426.1c0,0,-0.1,0,-0.1,0" class="g3_12" />
<path d="M202.2,425c0.2,-0.1,0.4,0.1,0.5,0.4c0.1,0.3,0.1,0.5,-0.1,0.6" class="g3_12" />
<path d="M202,425.1c0.1,0,0.1,0,0.1,0" class="g3_12" />
<path d="M202.7,426c-0.1,0.1,-0.2,0.1,-0.2,0" class="g3_12" />
<path d="M202.1,425.1c0,-0.1,0,-0.1,0.1,-0.1" class="g3_12" />
<path d="M202.9,425.9c0,0.1,-0.1,0.1,-0.1,0" class="g3_12" />
<path d="M202.5,424.9c0.2,-0.1,0.4,0.1,0.5,0.4c0.2,0.3,0.1,0.5,-0.1,0.6" class="g3_12" />
<path d="M202.4,425c0,-0.1,0,-0.1,0.1,-0.1" class="g3_12" />
<path d="M205.2,423.7c0.2,0,0.4,0.2,0.6,0.4c0,0.1,0,0.3,0,0.4" class="g3_12" />
<path d="M205.1,423.8c0,0,0.1,0,0.1,-0.1" class="g3_12" />
<path d="M205.1,423.8c0.2,-0.1,0.4,0.1,0.5,0.4c0,0.1,0.1,0.1,0.1,0.2" class="g3_12" />
<path d="M204.9,423.9c0.1,-0.1,0.1,-0.1,0.1,-0.1c0,0,0.1,0,0.1,0" class="g3_12" />
<path d="M204.9,423.9c0.2,-0.1,0.4,0.1,0.6,0.4l0,0.1" class="g3_12" />
<path d="M204.8,424c0,-0.1,0.1,-0.1,0.1,-0.1" class="g3_12" />
<path d="M204.8,423.9c0.2,0,0.4,0.2,0.5,0.4" class="g3_12" />
<path d="M204.7,424c0.1,-0.1,0.1,-0.1,0.1,-0.1" class="g3_12" />
<path d="M204.7,424c0.1,0,0.3,0.1,0.4,0.2" class="g3_12" />
<path d="M204.5,424.1c0,0,0.1,-0.1,0.1,-0.1l0.1,0" class="g3_12" />
<path d="M205.3,423.7c0.2,0,0.5,0,0.6,0.3c0,0.2,0,0.4,-0.1,0.5" class="g3_12" />
<path d="M204.9,423.8c0,-0.2,0.1,-0.4,0.2,-0.6c0.4,-0.2,1,-0.1,1.2,0.4c0.3,0.4,0.3,0.8,0.2,1.1" class="g3_12" />
<path d="M204.9,423.9c0,-0.3,0.1,-0.5,0.2,-0.6c0.3,-0.2,0.8,-0.1,1.1,0.4c0.2,0.3,0.2,0.7,0.1,0.9" class="g3_12" />
<path d="M202.4,424.9c0,-0.1,0.1,-0.1,0.2,-0.1c0.2,-0.1,0.5,0.1,0.6,0.5c0.1,0.3,0,0.7,-0.3,0.7c0,0,-0.1,0,-0.1,0" class="g3_12" />
<path d="M202.2,424.9c0,0,0.1,-0.2,0.6,-0.2" class="g3_12" />
<path d="M200.8,423.6c-0.2,0,-0.4,-0.1,-0.3,-0.2c0,-0.1,0.2,-0.1,0.4,-0.1" class="g3_12" />
<path d="M200.8,423.6l1.9,0.5" class="g3_12" />
<path d="M200.4,426.1c0,0,0.1,0,0.2,0.1" class="g3_12" />
<path d="M200.6,426.2l2.2,0.4" class="g3_12" />
<path d="M200.5,423.5l-0.1,2.6" class="g3_12" />
<path d="M231.9,434.5l1.2,0.4c0,0,0.1,0.1,0.3,0" class="g3_12" />
<path d="M233.4,434.9l0.9,-0.4c0,0,0.2,0,0.4,0" class="g3_12" />
<path d="M234.7,434.5l1.4,0.5" class="g3_12" />
<path d="M236.1,435c0,0,0.5,0.1,0.7,1" class="g3_12" />
<path d="M226.5,441.1c0.1,-0.2,0.2,-0.3,0.4,-0.2" class="g3_12" />
<path d="M226.6,441.8c-0.1,0,-0.1,0,-0.1,-0.1" class="g3_12" />
<path d="M226.9,440.9c0.2,0,0.2,0.3,0.2,0.5c-0.1,0.3,-0.3,0.5,-0.5,0.4" class="g3_12" />
<path d="M226.6,441c0,0,0.1,0,0.1,0c0.1,0,0.1,0.2,0.1,0.4c-0.1,0.1,-0.2,0.2,-0.3,0.2" class="g3_12" />
<path d="M226.5,441.1c0,0,0.1,0,0.1,0c0,0,0.1,0.1,0,0.2c0,0.1,-0.1,0.2,-0.1,0.2" class="g3_12" />
<path d="M226.5,447.8c0.1,-0.2,0.2,-0.3,0.4,-0.3" class="g3_12" />
<path d="M226.6,448.5c0,0,-0.1,0,-0.1,-0.1" class="g3_12" />
<path d="M226.9,447.5c0.2,0.1,0.2,0.4,0.2,0.6c-0.1,0.3,-0.3,0.5,-0.5,0.4" class="g3_12" />
<path d="M226.6,447.7c0,0,0.1,0,0.1,0c0.1,0,0.1,0.2,0.1,0.3c-0.1,0.2,-0.2,0.3,-0.3,0.3" class="g3_12" />
<path d="M226.5,447.8c0,0,0.1,0,0.1,0c0,0,0.1,0.1,0,0.2c0,0.1,-0.1,0.2,-0.1,0.2" class="g3_12" />
<path d="M227.2,449.4c0,0,-0.2,0.4,-0.7,0.3" class="g3_12" />
<path d="M236.8,444.1c2.9,-0.9,6.7,-1.4,10.8,-1.3c10.3,0,18.1,3,17.8,7.5" class="g3_12" />
<path d="M265.3,451.1c-1,3.8,-8.5,6.8,-17.8,6.8c-6.5,0,-12.2,-1.5,-15.2,-3.8c-1,-0.7,-1.3,-1.5,-1.5,-2.3" class="g3_12" />
<path d="M265.4,450.3c0,0.3,0,0.5,-0.1,0.8" class="g3_12" />
<path d="M265.3,452.8c-0.9,3.8,-8.5,6.8,-17.8,6.8c-6.5,0,-12.1,-1.5,-15.2,-3.8c-0.9,-0.7,-1.3,-1.5,-1.5,-2.3" class="g3_12" />
<path d="M265.3,454.5c-0.9,3.8,-8.6,6.8,-17.9,6.8c-6.5,0,-12.1,-1.6,-15.2,-3.8c-0.9,-0.7,-1.2,-1.4,-1.4,-2.2" class="g3_12" />
<path d="M265.3,456.3c-0.9,3.8,-8.5,6.7,-17.7,6.7c-6.6,0,-12.2,-1.5,-15.2,-3.7c-1.7,-1.2,-1.9,-2.7,-1.6,-3.9" class="g3_12" />
<path d="M232.8,451c0,-2.4,6.8,-4.7,14.8,-4.6c8.1,0.2,15,2.7,15.5,4.8" class="g3_12" />
<path d="M263.4,450.3c0,2.4,-7.5,5.3,-15.8,5.3c-8.2,0,-14.8,-2.1,-14.8,-4.6" class="g3_12" />
<path d="M233,451.8c1.5,-2,7.6,-3.7,14.6,-3.6c6.7,0.1,12.7,1.9,14.7,3.7" class="g3_12" />
<path d="M234,452.8c2.3,-1.7,7.7,-3,13.8,-2.8c5.6,0.1,10.6,1.3,13.3,2.7" class="g3_12" />
<path d="M235.6,453.7c2.7,-1.3,7.2,-2.1,12.2,-2c4.4,0.1,8.6,0.9,11.4,1.9" class="g3_12" />
<path d="M236.2,446.4c2.8,-1,6.9,-1.7,11.5,-1.7c8,0.2,15,2.7,15.5,4.8" class="g3_12" />
<path d="M263.2,449.5c0,0,0.1,0.3,0.2,0.8" class="g3_12" />
<path d="M236.2,446.4l-3.6,1.4" class="g3_12" />
<path d="M232.6,447.8c0,0,-2.4,1.4,-1.8,4" class="g3_12" />
<path d="M230.9,451.9c0,0,-0.3,0.5,-0.1,1.6" class="g3_12" />
<path d="M230.9,453.7c0,0,-0.3,0.5,-0.1,1.6" class="g3_12" />
<path d="M265.3,451.1c0,0,0.2,0.4,0,1.7" class="g3_12" />
<path d="M265.3,452.8c0,0,0.2,0.4,0,1.7" class="g3_12" />
<path d="M265.3,454.6c0,0,0.2,0.4,0,1.7" class="g3_12" />
<path d="M265.3,456.3c0,0,1.1,2.9,-3,5.2" class="g3_12" />
<path d="M262.3,461.5l-1.3,0.7l-18.3,8" class="g3_12" />
<path d="M256.4,462.1l-14.5,6.3" class="g3_12" />
<path d="M229.3,448.5c0,0,1.7,-0.1,3.3,-0.7" class="g3_12" />
<path d="M223.6,440.7l0,8.6" class="g3_12" />
<path d="M240.9,468.2c0.6,-0.1,1.3,0.5,1.5,1.4c0.2,0.6,0,1.3,-0.3,1.6" class="g3_12" />
<path d="M240.9,468.2l-3.5,0.8" class="g3_12" />
<path d="M232.9,470.8l3.5,-1.6" class="g3_12" />
<path d="M231.4,471.2l3.9,-1.7c0,0,0.5,-0.2,1.1,-0.3c0.5,-0.1,1,-0.2,1,-0.2" class="g3_12" />
<path d="M234.7,471.4l3.6,-1.5c0,0,0.3,-0.2,0.3,-0.4" class="g3_12" />
<path d="M238.6,469.5l0.3,-0.4c0,0,0.1,-0.1,0,-0.2" class="g3_12" />
<path d="M238.7,468.9c0,0,-0.1,-0.1,-0.5,-0.1" class="g3_12" />
<path d="M238.6,469.5c0,0,0.5,0.3,1.8,0.6" class="g3_12" />
<path d="M236.3,472.8l3.8,-1.7c0,0,0.4,-0.2,0.5,-0.4" class="g3_12" />
<path d="M240.6,470.3c0,0.1,0,0.2,0,0.4" class="g3_12" />
<path d="M240.4,470.1c0,0,0.1,0,0.2,0.2" class="g3_12" />
<path d="M240.6,470.7l0,2.3" class="g3_12" />
<path d="M242.1,471.2l-1.5,1" class="g3_12" />
<path d="M236.3,475.3l3.8,-1.7" class="g3_12" />
<path d="M240.6,473c0,0,0,0.3,-0.5,0.6" class="g3_12" />
<path d="M232.8,476.8l0.1,0.6l1.9,0.6l3.5,-1.5" class="g3_12" />
<path d="M238.3,476.5c0,0,0.4,-0.1,1.7,-2.8" class="g3_12" />
<path d="M235.1,475.5l1.2,-0.2" class="g3_12" />
<path d="M234.8,478l0.3,-2.5" class="g3_12" />
<path d="M236.3,475.3l0,-2.5l-1.6,-1.4l-1.8,-0.6l-1.5,0.4" class="g3_12" />
<path d="M231.4,471.2l0,0.5" class="g3_12" />
<path d="M232.1,471.4l-2.4,1" class="g3_12" />
<path d="M232.7,473.1l-2.5,1.1" class="g3_12" />
<path d="M230,474.1L229.7,474c0,0,-0.6,-0.5,0,-1.6" class="g3_12" />
<path d="M230.2,474.2c-0.1,-0.1,-0.5,-0.7,0.1,-1.6" class="g3_12" />
<path d="M230,472.5l0.3,0.1l2.4,-1.1l-0.3,-0.1l0.3,0.1l0,1.6" class="g3_12" />
<path d="M234.6,472.3l-2.4,1" class="g3_12" />
<path d="M235.1,473.9l-2.4,1.1" class="g3_12" />
<path d="M232.5,475l-0.3,-0.1c0,0,-0.6,-0.5,0,-1.6" class="g3_12" />
<path d="M232.7,475c-0.1,-0.1,-0.5,-0.7,0,-1.6" class="g3_12" />
<path d="M232.4,473.3l0.3,0.1l2.4,-1l-0.2,-0.2l0.2,0.2l0,1.5" class="g3_12" />
<path d="M231.4,473.7l0.5,0.5" class="g3_12" />
<path d="M232.5,475l0.1,0.5" class="g3_12" />
<path d="M230.2,476.5l3.4,-1.4" class="g3_12" />
<path d="M234.1,476.2l-3.3,1.5" class="g3_12" />
<path d="M230.8,477.7c-0.1,0,-0.2,0,-0.2,0c-0.4,0,-0.6,-0.3,-0.6,-0.6c0,-0.3,0.1,-0.4,0.2,-0.6" class="g3_12" />
<path d="M233.6,475.1c0,0,0.4,-0.1,0.6,0.4c0.2,0.5,-0.1,0.7,-0.1,0.7" class="g3_12" />
<path d="M230.4,476.7c0,0,0.5,0.1,0.3,0.7" class="g3_12" />
<path d="M233.1,474.4c-0.2,0,-0.2,-0.3,-0.2,-0.5c0.1,-0.2,0.2,-0.4,0.4,-0.3" class="g3_12" />
<path d="M233.3,473.5c0.1,0.1,0.2,0.3,0.1,0.5c0,0.3,-0.2,0.5,-0.3,0.4" class="g3_12" />
<path d="M233.1,473.6c0.1,0.1,0.1,0.2,0,0.3c0,0.2,-0.1,0.3,-0.2,0.3" class="g3_12" />
<path d="M230.6,473.6c-0.1,0,-0.2,-0.3,-0.2,-0.5c0.1,-0.2,0.3,-0.4,0.4,-0.3" class="g3_12" />
<path d="M230.8,472.7c0.2,0.1,0.2,0.3,0.2,0.5c-0.1,0.3,-0.3,0.5,-0.4,0.4" class="g3_12" />
<path d="M230.6,472.8c0.1,0.1,0.1,0.2,0.1,0.3c-0.1,0.2,-0.1,0.3,-0.2,0.3" class="g3_12" />
<path d="M204.7,438.5l0,1.5l0.6,0.3" class="g3_12" />
<path d="M204.7,438.5l0.7,0.2" class="g3_12" />
<path d="M204.7,438.5l0.2,0.2l0,1.1l-0.2,0.2" class="g3_12" />
<path d="M204.9,438.7l0.2,0l0,1.1l-0.2,0" class="g3_12" />
<path d="M204.9,439.8l0.6,0.3" class="g3_12" />
<path d="M205.1,439.8c0,0,0.4,0.2,0.5,0.2" class="g3_12" />
<path d="M205.1,439.8l0.7,-0.3" class="g3_12" />
<path d="M205.3,440.3c0,0,0.5,0.1,0.6,-0.5" class="g3_12" />
<path d="M205.5,440.1c0,0,0.2,0,0.3,-0.3" class="g3_12" />
<path d="M209.6,440.1l0,1.5l0.6,0.2" class="g3_12" />
<path d="M209.6,440.1l0.7,0.2" class="g3_12" />
<path d="M209.6,440.1l0.2,0.2l0,1.1l-0.2,0.2" class="g3_12" />
<path d="M209.8,440.3l0.2,0l0,1.1l-0.2,0" class="g3_12" />
<path d="M209.8,441.4l0.6,0.2" class="g3_12" />
<path d="M210,441.4c0,0,0.4,0.2,0.5,0.1" class="g3_12" />
<path d="M210,441.4l0.7,-0.3" class="g3_12" />
<path d="M210.2,441.8c0,0,0.5,0.1,0.6,-0.4" class="g3_12" />
<path d="M210.4,441.6c0,0,0.2,0.1,0.3,-0.2" class="g3_12" />
<path d="M207.9,442.1l-1.4,-0.5l0,-0.8l0.2,0.1l0,0.6l1.3,0.4l-0.1,-0.2l-1,-0.3l0.5,-0.2L206.9,441l0,0.4l-0.2,0.1l-0.2,0.1" class="g3_12" />
<path d="M206.6,440.8l1.4,0.5l0,0.8" class="g3_12" />
<path d="M212.8,443.7l-1.4,-0.5l0,-0.8l0.2,0.1l0,0.5l1.2,0.4l0,-0.1L211.7,443l0.6,-0.3l-0.6,-0.1l0,0.4l-0.1,0l-0.2,0.2" class="g3_12" />
<path d="M211.4,442.4l1.4,0.4l0,0.8" class="g3_12" />
<path d="M208,439.4l-1.6,-0.5l0,-0.8l0.2,0.1l0,0.5l0.2,0l0.5,-0.3l-0.5,-0.1l0,0.4l1.3,0.4l0,0.1l-1.5,-0.5l-0.2,0.2" class="g3_12" />
<path d="M206.4,438.1l1.7,0.5l0,0.8" class="g3_12" />
<path d="M212.9,441l-1.6,-0.5l0,-0.9l0.2,0.2l0,0.5l0.1,-0.1l0.6,-0.2l-0.6,-0.2l0,0.4l1.3,0.5l0,0.1l-1.4,-0.5l-0.2,0.2" class="g3_12" />
<path d="M211.3,439.7l1.6,0.5l0,0.8" class="g3_12" />
<path d="M217,441.8l0,0.9l0.7,-0.3l-0.5,-0.2l0,-0.2l1.5,0.5l0,0.2l-1,-0.3l-0.7,0.3l1.7,0.6l0.1,0.1L217,442.8l0,-0.1l-0.3,0" class="g3_12" />
<path d="M216.6,441.7l0,1.1" class="g3_12" />
<path d="M216.8,443l1.8,0.6" class="g3_12" />
<path d="M216.6,442.8c0,0,0,0.2,0.2,0.2" class="g3_12" />
<path d="M216.8,441.7l1.8,0.6" class="g3_12" />
<path d="M218.8,442.5l0,1" class="g3_12" />
<path d="M216.6,441.7c0,0,0,-0.1,0.2,0" class="g3_12" />
<path d="M218.6,442.3c0,0,0.2,0,0.2,0.2" class="g3_12" />
<path d="M218.6,443.6c0,0,0.2,0.1,0.2,-0.1" class="g3_12" />
<path d="M217.2,442l0.1,-0.2" class="g3_12" />
<path d="M217,443.6l0,0.9l0.7,-0.3L217.2,444l0,-0.2l1.5,0.5l0,0.2l-1,-0.3l-0.7,0.3l1.7,0.6l0.1,0.1L217,444.6l0,-0.1l-0.3,0" class="g3_12" />
<path d="M216.6,443.5l0,1.1" class="g3_12" />
<path d="M216.8,444.8l1.8,0.6" class="g3_12" />
<path d="M216.6,444.6c0,0,0,0.2,0.2,0.2" class="g3_12" />
<path d="M216.8,443.5l1.8,0.6" class="g3_12" />
<path d="M218.8,444.3l0,1" class="g3_12" />
<path d="M216.6,443.5c0,0,0,-0.1,0.2,0" class="g3_12" />
<path d="M218.6,444.1c0,0,0.2,0,0.2,0.2" class="g3_12" />
<path d="M218.6,445.4c0,0,0.2,0.1,0.2,-0.1" class="g3_12" />
<path d="M217.2,443.8l0.1,-0.2" class="g3_12" />
<path d="M199.8,436.9l0,1.5l0.6,0.3" class="g3_12" />
<path d="M199.8,436.9l0.7,0.2" class="g3_12" />
<path d="M199.8,436.9l0.2,0.2l0,1.1l-0.2,0.2" class="g3_12" />
<path d="M200,437.1l0.2,0l0,1.1l-0.2,0" class="g3_12" />
<path d="M200,438.2l0.5,0.3" class="g3_12" />
<path d="M200.2,438.2c0,0,0.4,0.2,0.5,0.2" class="g3_12" />
<path d="M200.2,438.2l0.7,-0.3" class="g3_12" />
<path d="M200.4,438.7c0,0,0.5,0.1,0.5,-0.5" class="g3_12" />
<path d="M200.5,438.5c0,0,0.3,0,0.4,-0.3" class="g3_12" />
<path d="M200.9,438.2c0.1,-0.8,-0.4,-1,-0.4,-1l-0.7,-0.3" class="g3_12" />
<path d="M203,440.5L201.6,440l0,-0.8l0.2,0.1l0,0.5l1.2,0.5l0,-0.2l-1,-0.3l0.5,-0.3L202,439.4l0,0.4l-0.2,0l-0.2,0.2" class="g3_12" />
<path d="M201.6,439.2l1.4,0.5l0,0.8" class="g3_12" />
<path d="M203.1,437.8l-1.6,-0.5l0,-0.8l0.2,0.1l0,0.5l0.1,0l0.6,-0.3l-0.6,-0.2l0,0.5l1.3,0.4l0,0.1l-1.4,-0.5l-0.2,0.2" class="g3_12" />
<path d="M201.5,436.5l1.7,0.5l-0.1,0.8" class="g3_12" />
<path d="M196.5,435.5l0,2" class="g3_12" />
<path d="M195.7,434.9l0.6,0.2" class="g3_12" />
<path d="M195.7,438l0.6,0.2" class="g3_12" />
<path d="M195.8,437.9l0.5,0.2" class="g3_12" />
<path d="M196.6,437.8c0,0,-0.3,0.2,-0.3,0.4" class="g3_12" />
<path d="M196.3,435.1c0,0,0,0.3,0.3,0.5" class="g3_12" />
<path d="M195.8,435c0,-0.1,0,2.9,0,2.9l0.8,-0.3" class="g3_12" />
<path d="M195.7,434.9l0,3.1" class="g3_12" />
<path d="M196.6,437.8l0.4,-0.1" class="g3_12" />
<path d="M196.3,438.2l0.3,-0.1" class="g3_12" />
<path d="M196.6,438.1c0,0,0,-0.2,0.4,-0.4" class="g3_12" />
<path d="M197,437.7l-0.1,-2.3" class="g3_12" />
<path d="M195.9,434.6l0.8,0.2" class="g3_12" />
<path d="M196.7,434.8c0,0,0,0.3,0.2,0.6" class="g3_12" />
<path d="M195.7,434.9l0.6,-0.2" class="g3_12" />
<path d="M196.3,435l0.4,-0.2" class="g3_12" />
<path d="M196.4,435.3l0.4,-0.2" class="g3_12" />
<path d="M196.9,435.8l-0.1,0.1l0,0.1l0.1,0l0,0.2l-0.1,0.1l0.1,0" class="g3_12" />
<path d="M196.9,436.9l-0.1,0.1l0.1,0l0,0.3l-0.1,0l0,0.1l0.1,0" class="g3_12" />
<path d="M196.4,435.4l0,2.1l0.2,0" class="g3_12" />
<path d="M196.4,435.5l-0.4,0.1" class="g3_12" />
<path d="M196.4,435.9l-0.5,0.2" class="g3_12" />
<path d="M196.4,436.6l-0.5,0.1" class="g3_12" />
<path d="M196.4,436.9l-0.5,0.2" class="g3_12" />
<path d="M196.4,438l0.4,-0.1" class="g3_12" />
<path d="M200.6,438.6c0.2,0,0.3,-0.2,0.3,-0.4" class="g3_12" />
<path d="M205.8,439.8c0.1,-0.8,-0.4,-1.1,-0.4,-1.1l-0.7,-0.2" class="g3_12" />
<path d="M205.6,440.2c0.2,0,0.2,-0.2,0.3,-0.4" class="g3_12" />
<path d="M210.7,441.4c0.1,-0.8,-0.4,-1.1,-0.4,-1.1l-0.7,-0.2" class="g3_12" />
<path d="M210.5,441.8c0.1,0,0.2,-0.2,0.2,-0.4" class="g3_12" />
<path d="M222.9,431.9c0.1,-0.2,0.4,-0.1,0.6,0.2c0.1,0.3,0,0.5,-0.2,0.6" class="g3_12" />
<path d="M55,768l210,0l0,339l-210,0L55,768Z" class="g4_12" />
<path d="M55,768l210,0" class="g1_12" />
<path d="M299,768l105,0" class="g1_12" />
<path d="M405,768l280,0" class="g1_12" />
<path d="M684,768l140,0" class="g1_12" />
<path d="M75,900l35,0l0,-13l-35,0l0,13Z" class="g5_12" />
<path d="M75,915l35,0l0,-13l-35,0l0,13Z" class="g6_12" />
<path d="M75,929l35,0l0,-12l-35,0l0,12Z" class="g7_12" />
<path d="M75,944l35,0l0,-12l-35,0l0,12Z" class="g8_12" />
<path d="M75,959l35,0l0,-13l-35,0l0,13Z" class="g9_12" />
<path d="M75,974l35,0l0,-13l-35,0l0,13Z" class="g10_12" />
<path d="M75,989l35,0l0,-13l-35,0l0,13Z" class="g11_12" />
<path d="M75,819l35,0l0,-13l-35,0l0,13Z" class="g5_12" />
<path d="M75,834l35,0l0,-13l-35,0l0,13Z" class="g6_12" />
<path d="M75,849l35,0l0,-13l-35,0l0,13Z" class="g7_12" />
<path d="M300.5,806.5l84,0l0,-19l-84,0l0,19Z" class="g12_12" />
<path d="M405.5,806.5l260,0l0,-19l-260,0l0,19Z" class="g12_12" />
<path d="M685.5,806.5l139,0l0,-19l-139,0l0,19Z" class="g12_12" />
<path d="M399.2,797.1l-7.6,-3.8l0,7.7Z" class="g7_12" />
<path d="M679.7,797.1l-7.6,-3.8l0,7.7Z" class="g7_12" />
<path d="M684,1046l61,0" class="g13_12" />
<path d="M746,1046l16,0" class="g14_12" />
<path d="M763,1046l19,0" class="g15_12" />
<path d="M166.2,579.4l-0.4,0l-0.6,-0.9l3.5,-9.7l13,-0.2" class="g3_12" />
<path d="M165.8,579.4l3.5,-9.7l13.1,-0.1l-0.6,-1m-12.5,1.1l-0.6,-0.9" class="g16_12" />
<path d="M186.2,571c0,0,0.8,1.1,0.9,1.2c0.1,0.2,0.2,0.5,0.1,0.8l-2,5.3c-0.2,0.6,-1,1.1,-1.6,1.1l-15.2,0c-0.3,0,-0.5,-0.2,-0.7,-0.4c-0.1,-0.1,-0.8,-1.1,-0.8,-1.1" class="g3_12" />
<path d="M167.7,579c-0.1,-0.1,-0.2,-0.4,-0.1,-0.7l2,-5.3c0.2,-0.6,0.9,-1.1,1.6,-1.1l15.1,0c0.4,0,0.7,0.1,0.8,0.3m-20.2,5.7c-0.1,-0.2,-0.2,-0.5,-0.1,-0.7l2,-5.4c0.2,-0.5,1,-1,1.6,-1l15.1,0c0.4,0,0.6,0.1,0.7,0.2m-16,8.4c0.1,0.5,-0.3,1.2,-1,1.7c-0.9,0.6,-2,0.6,-2.4,0" class="g16_12" />
<path d="M166.8,581.1c-0.4,-0.6,0,-1.6,0.8,-2.2m3.4,0.5c-0.1,0.7,-0.6,1.6,-1.5,2.2c-1.2,0.9,-2.8,0.8,-3.4,-0.1" class="g3_12" />
<path d="M166.1,581.5c-0.6,-0.8,-0.1,-2.2,1.1,-3.1" class="g16_12" />
<path d="M166.8,574c-0.6,0.1,-1.3,0.3,-1.9,0.7c-1.2,0.9,-1.8,2.3,-1.2,3.2c0.6,0.9,2.4,3.6,2.4,3.6" class="g3_12" />
<path d="M186.5,568c0.5,0.6,0.1,1.6,-0.8,2.2c-0.9,0.6,-1.9,0.6,-2.3,0" class="g16_12" />
<path d="M183.4,570.2c-0.4,-0.6,-0.1,-1.6,0.8,-2.2c0.9,-0.6,1.9,-0.6,2.3,0m0.8,-0.4c0.4,0.5,0.4,1.2,0,1.9" class="g3_12" />
<path d="M182.4,569.6c0.2,-0.7,0.7,-1.5,1.5,-2.1c1.3,-0.8,2.8,-0.8,3.4,0.1" class="g16_12" />
<path d="M180.3,567.1c0.6,0.9,1,1.5,1,1.5m3.6,-4.7c-0.6,-0.9,-2.1,-0.9,-3.4,0c-1.3,0.9,-1.8,2.3,-1.2,3.2m7,2.4l0.3,0l-0.9,2.2m-1.8,-7.8c0.7,0.9,2.4,3.7,2.4,3.7m-4.2,-21.5l7.8,0m-15.6,10.8l-0.4,0L174.3,556l0.4,-0.9l-0.5,-0.7l3,-8.1l0.3,0" class="g3_12" />
<path d="M182.9,547.1l8.7,-0.1L191,546.1m-16.1,10.8l3.6,-9.8" class="g16_12" />
<path d="M195.4,548.5c0,0,0.7,1,0.9,1.2c0.1,0.2,0.1,0.4,0,0.7l-2,5.3c-0.2,0.6,-0.9,1.1,-1.6,1.1l-15.1,0c-0.3,0,-0.6,-0.1,-0.7,-0.3c-0.2,-0.2,-0.9,-1.2,-0.9,-1.2" class="g3_12" />
<path d="M176.9,556.5c-0.2,-0.2,-0.2,-0.5,-0.1,-0.8l2,-5.3c0.2,-0.6,0.9,-1.1,1.6,-1.1l15.1,0c0.3,0,0.6,0.2,0.8,0.4M176,555.3c-0.1,-0.2,-0.1,-0.4,0,-0.7l2,-5.3c0.2,-0.6,0.9,-1.1,1.6,-1.1l15.1,0c0.3,0,0.6,0.1,0.7,0.3m-16,8.3c0,0.6,-0.4,1.3,-1,1.7c-0.9,0.6,-2,0.6,-2.4,0" class="g16_12" />
<path d="M176,558.5c-0.4,-0.6,-0.1,-1.6,0.7,-2.2m3.5,0.5c-0.1,0.8,-0.6,1.6,-1.5,2.2c-1.3,0.9,-2.8,0.9,-3.4,0" class="g3_12" />
<path d="M175.3,559c-0.6,-0.9,-0.1,-2.3,1.1,-3.2" class="g16_12" />
<path d="M175.3,551.6c-0.4,0.1,-0.8,0.3,-1.2,0.5c-1.3,0.9,-1.8,2.3,-1.2,3.2c0.6,0.9,2.4,3.7,2.4,3.7" class="g3_12" />
<path d="M195.7,545.5c0.4,0.6,0,1.6,-0.8,2.2c-0.9,0.5,-1.9,0.5,-2.4,-0.1" class="g16_12" />
<path d="M192.5,547.6c-0.4,-0.6,0,-1.6,0.9,-2.2c0.8,-0.5,1.9,-0.5,2.3,0.1m0.8,-0.5c0.3,0.5,0.3,1.2,0,1.9" class="g3_12" />
<path d="M191.6,547c0.1,-0.7,0.6,-1.5,1.4,-2c1.3,-0.9,2.9,-0.9,3.5,0" class="g16_12" />
<path d="M189.4,544.5c0.6,0.9,1.1,1.6,1.1,1.6m3.6,-4.7c-0.6,-0.9,-2.2,-1,-3.4,-0.1c-1.3,0.9,-1.9,2.3,-1.3,3.2m7.1,2.4l0.2,0l-0.8,2.3m-1.8,-7.8c0.6,0.9,2.4,3.6,2.4,3.6m-13.6,2.1c0.3,-0.6,0.3,-1.2,0,-1.6c-0.3,-0.4,-5.3,-8,-5.3,-8" class="g3_12" />
<path d="M178.5,547.1c0.1,-0.6,0.5,-1.2,1.2,-1.6c1.2,-0.8,2.6,-0.8,3.2,0" class="g3_12" />
<path d="M173.3,540.4c-0.5,-0.8,0,-2.1,1.2,-2.9c1.1,-0.8,2.5,-0.8,3.1,0m-0.4,8.8c-0.3,-0.5,-3.9,-5.9,-3.9,-5.9" class="g3_12" />
<path d="M177.2,546.3l0.5,0.8l0.3,-1" class="g16_12" />
<path d="M177.7,547l0.3,-0.8" class="g3_12" />
<path d="M177.6,546.3l0.3,0.4" class="g16_12" />
<path d="M193,556.8c-0.2,0.6,-0.6,1.2,-1.2,1.6c-1.2,0.8,-2.5,0.8,-3.1,0m-1,-1.6c0.6,0.9,1,1.6,1,1.6m-4.4,-6.9c0.2,0.3,0.7,1,1.2,1.9" class="g3_12" />
<path d="M188.7,558.4c-0.3,-0.5,-0.2,-1.1,0.2,-1.6" class="g3_12" />
<path d="M183.2,554.5l5.7,0l0.8,-0.7l0.5,-0.1l0.8,-2.2" class="g16_12" />
<path d="M182.8,553.8l0.4,0.7" class="g3_12" />
<path d="M182.3,553.7l0.5,0.1" class="g16_12" />
<path d="M191,551.5l-7.9,0l-0.8,2.2m0.4,-0.2l5.5,0l0.8,-0.7l0.5,-0.1l0.3,-1.2" class="g3_12" />
<path d="M190.2,553.7l-0.7,-1m0.2,1.1l-0.7,-1m-0.1,1.7l-0.7,-1" class="g16_12" />
<path d="M182.8,553.8l-0.3,-0.5m65,-8l7.8,-0.1m-14.7,5l1.8,-4.9M239.7,556l-0.4,0l-0.6,-0.9l1.5,-4" class="g3_12" />
<path d="M247.3,546.2l8.7,0l-0.7,-1m-16,10.8l3.6,-9.7" class="g16_12" />
<path d="M259.8,547.6c0,0,0.7,1,0.8,1.2c0.2,0.2,0.2,0.5,0.1,0.8l-2,5.3c-0.2,0.6,-0.9,1.1,-1.6,1.1L242,556c-0.4,0,-0.6,-0.2,-0.8,-0.4c-0.1,-0.2,-0.8,-1.2,-0.8,-1.2" class="g3_12" />
<path d="M241.2,555.6c-0.1,-0.2,-0.1,-0.4,0,-0.7l1.9,-5.3c0.3,-0.6,1,-1.1,1.6,-1.1l15.2,0c0.3,0,0.6,0.1,0.7,0.3m-20.2,5.6c-0.1,-0.1,-0.1,-0.4,0,-0.6l2,-5.4c0.2,-0.6,0.9,-1,1.6,-1l15.1,0c0.3,0,0.5,0.1,0.7,0.2m-16,8.4c0,0.5,-0.4,1.2,-1.1,1.7c-0.9,0.6,-1.9,0.6,-2.3,-0.1" class="g16_12" />
<path d="M240.4,557.6c-0.5,-0.6,-0.1,-1.5,0.7,-2.1m3.4,0.5c0,0.7,-0.6,1.6,-1.4,2.2c-1.3,0.9,-2.9,0.8,-3.5,-0.1" class="g3_12" />
<path d="M239.6,558.1c-0.6,-0.8,-0.1,-2.2,1.2,-3.1" class="g16_12" />
<path d="M237.3,552.5c-0.4,0.7,-0.4,1.4,-0.1,2c0.7,0.9,2.4,3.6,2.4,3.6" class="g3_12" />
<path d="M260.1,544.6c0.4,0.6,0,1.6,-0.9,2.2c-0.8,0.6,-1.9,0.6,-2.3,0" class="g16_12" />
<path d="M256.9,546.8c-0.4,-0.6,0,-1.6,0.8,-2.2c0.9,-0.6,2,-0.6,2.4,0m0.8,-0.4c0.3,0.5,0.3,1.2,-0.1,1.9" class="g3_12" />
<path d="M256,546.2c0.1,-0.8,0.6,-1.5,1.4,-2.1c1.3,-0.9,2.9,-0.8,3.5,0.1" class="g16_12" />
<path d="M253.8,543.7c0.6,0.9,1,1.5,1,1.5m3.7,-4.7c-0.6,-0.9,-2.2,-0.9,-3.5,0c-1.3,0.8,-1.8,2.3,-1.2,3.2m7,2.4l0.3,0l-0.8,2.2m-1.8,-7.8c0.6,0.9,2.4,3.7,2.4,3.7m-13.6,2c0.3,-0.5,0.3,-1.1,0,-1.6C247,544.2,242,536.7,242,536.7" class="g3_12" />
<path d="M242.9,546.3c0.1,-0.6,0.5,-1.2,1.2,-1.7c1.2,-0.8,2.6,-0.8,3.2,0" class="g3_12" />
<path d="M237.7,539.6c-0.6,-0.8,-0.1,-2.1,1.1,-3c1.2,-0.8,2.6,-0.7,3.2,0.1m0.1,9.4c-0.3,-0.4,-4.4,-6.5,-4.4,-6.5" class="g3_12" />
<path d="M242.1,546.2l0.3,-0.9" class="g16_12" />
<path d="M257.4,556c-0.2,0.5,-0.6,1.1,-1.3,1.5c-1.1,0.8,-2.5,0.8,-3,0m-1,-1.5c0.6,0.9,1,1.5,1,1.5m-5,-7.7c0.2,0.2,1.8,2.8,2.4,3.7" class="g3_12" />
<path d="M253.1,557.5c-0.3,-0.4,-0.2,-1,0.2,-1.6" class="g3_12" />
<path d="M255.9,549.8l-8.2,0l-2.1,5.7" class="g3_12" />
<path d="M245.6,555.5l8.3,-0.1l2,-5.6" class="g16_12" />
<path d="M246.3,553.5l6.3,0l1.4,-3.7" class="g16_12" />
<path d="M253.9,555.4l-1.3,-1.9" class="g16_12" />
<path d="M239,568.6l7.8,-0.1" class="g3_12" />
<path d="M238.8,569.5l8.7,-0.1l-0.7,-0.9m-16,10.8l3.5,-9.7" class="g16_12" />
<path d="M251.3,570.9c0,0,0.7,1,0.8,1.2c0.1,0.2,0.2,0.5,0.1,0.7l-2,5.4c-0.2,0.6,-0.9,1,-1.6,1l-15.1,0c-0.4,0,-0.6,-0.1,-0.8,-0.3c-0.1,-0.2,-0.8,-1.2,-0.8,-1.2" class="g3_12" />
<path d="M232.7,578.9c-0.1,-0.2,-0.2,-0.4,0,-0.7l1.9,-5.4c0.3,-0.6,1,-1,1.6,-1l15.2,0c0.3,0,0.6,0.1,0.7,0.3m-20.2,5.6c-0.1,-0.2,-0.1,-0.4,0,-0.7l1.9,-5.3c0.3,-0.6,1,-1.1,1.6,-1.1l15.2,0c0.3,0,0.5,0.1,0.7,0.3m-16.1,8.3c0.1,0.6,-0.3,1.3,-1,1.8c-0.9,0.6,-1.9,0.5,-2.4,-0.1" class="g16_12" />
<path d="M231.8,580.9c-0.4,-0.6,0,-1.5,0.8,-2.2m3.4,0.6c0,0.7,-0.6,1.6,-1.4,2.2c-1.3,0.8,-2.9,0.8,-3.5,-0.1" class="g3_12" />
<path d="M231.1,581.4c-0.6,-0.9,-0.1,-2.2,1.1,-3.1" class="g16_12" />
<path d="M228.8,575.8c-0.4,0.7,-0.4,1.4,-0.1,2c0.7,0.9,2.4,3.6,2.4,3.6" class="g3_12" />
<path d="M251.6,567.9c0.4,0.6,0,1.6,-0.9,2.2c-0.8,0.6,-1.9,0.6,-2.3,0" class="g16_12" />
<path d="M248.4,570.1c-0.4,-0.7,0,-1.6,0.8,-2.2c0.9,-0.6,2,-0.6,2.4,0m0.8,-0.5c0.3,0.6,0.3,1.3,-0.1,1.9" class="g3_12" />
<path d="M247.5,569.4c0.1,-0.7,0.6,-1.4,1.4,-2c1.3,-0.9,2.8,-0.9,3.5,0" class="g16_12" />
<path d="M245.3,567c0.6,0.9,1,1.5,1,1.5m3.7,-4.7c-0.6,-0.9,-2.2,-0.9,-3.5,0c-1.3,0.8,-1.8,2.3,-1.2,3.2m7,2.3l0.3,0l-0.8,2.3M250,563.8c0.6,0.9,2.4,3.6,2.4,3.6m-13.6,2.1c0.2,-0.6,0.2,-1.1,-0.1,-1.6c-0.3,-0.4,-1.8,-2.7,-1.8,-2.7" class="g3_12" />
<path d="M234.3,569.6c0.2,-0.6,0.6,-1.3,1.3,-1.7c1.2,-0.8,2.6,-0.8,3.1,0" class="g3_12" />
<path d="M232.6,568.1c-0.5,-0.9,0,-2.2,1.1,-3c1.2,-0.8,2.6,-0.8,3.2,0.1m-3.8,3.5c-0.3,-0.4,-0.5,-0.6,-0.5,-0.6" class="g3_12" />
<path d="M233.6,569.4l0.3,-0.8m-0.5,0.1l0.3,0.4" class="g16_12" />
<path d="M248.9,579.2c-0.2,0.6,-0.6,1.2,-1.3,1.6c-1.1,0.8,-2.5,0.8,-3,0c-0.6,-0.8,-1,-1.6,-1,-1.6" class="g3_12" />
<path d="M244.6,580.8c-0.3,-0.4,-0.2,-1,0.2,-1.6m5.4,-5.6c0.7,1,0.1,2.6,-1.4,3.6c-0.6,0.4,-1.4,0.7,-2,0.7" class="g3_12" />
<path d="M248.4,572.8c0.7,0,1.4,0.2,1.8,0.8" class="g3_12" />
<path d="M236.5,578c-0.7,0,-1.3,-0.2,-1.7,-0.7" class="g16_12" />
<path d="M234.8,577.3c-0.7,-1,-0.1,-2.6,1.4,-3.6c0.7,-0.5,1.4,-0.7,2.1,-0.7" class="g3_12" />
<path d="M248.6,572.8L238.1,573" class="g16_12" />
<path d="M246.7,577.9L236.5,578" class="g3_12" />
<path d="M249.1,572.9c-0.1,0.8,-0.7,1.7,-1.6,2.3c-0.7,0.5,-1.4,0.7,-2.1,0.7m-10.3,0.2c-0.2,0,-0.4,0,-0.6,-0.1m10.8,-0.1l-10.1,0.2m-3.9,-2.5l1.8,-4.9l0.3,0m-2.2,10.6l-0.4,0l-0.6,-0.9l0.4,-0.8l-0.5,-0.8l0.8,-2.1" class="g3_12" />
<path d="M233.1,568.8l0.5,0.7l0.3,-0.9m3.8,0.3c0.2,0.3,0,0.8,-0.4,1.1c-0.5,0.3,-1,0.2,-1.2,0" class="g16_12" />
<path d="M236.1,570c-0.2,-0.3,0,-0.8,0.4,-1.1c0.5,-0.3,1,-0.3,1.2,0m9.1,6.4l0.2,0.2m-4.1,0.5c0.2,-0.3,0.5,-0.6,0.8,-0.8c1.2,-0.8,2.6,-0.8,3.1,0.1" class="g3_12" />
<path d="M247.5,579.2c0,0.3,-0.1,0.6,-0.5,0.9c-0.4,0.2,-0.9,0.2,-1.1,-0.1" class="g16_12" />
<path d="M245.9,580c-0.1,-0.2,-0.1,-0.5,0.1,-0.8" class="g3_12" />
<path d="M247.8,575l0.8,-2.2M218.7,552.6l18.6,-0.1c0.3,0,0.7,-0.2,0.7,-0.8c0,-0.7,-0.4,-0.9,-0.8,-0.9c-0.5,0,-17.9,0,-17.9,0" class="g16_12" />
<path d="M237.8,552.2l3,-1.3m-3.2,-0.1l3.1,-0.6" class="g3_12" />
<path d="M240.8,550.9c0.3,-0.1,0.3,-0.9,-0.1,-0.7" class="g16_12" />
<path d="M210.1,575.8l18.6,0c0.3,0,0.7,-0.2,0.7,-0.9c0,-0.7,-0.4,-0.9,-0.8,-0.9c-0.5,0,-17.9,0,-17.9,0" class="g16_12" />
<path d="M229.3,575.4l2.9,-1.3m-3.2,0l3.1,-0.7" class="g3_12" />
<path d="M232.2,574.1c0.3,-0.1,0.3,-0.8,-0.1,-0.7" class="g16_12" />
<path d="M190.1,574.1c0.1,-0.1,0.2,-0.1,0.4,-0.1c0.4,0,18.4,0,18.4,0" class="g3_12" />
<path d="M190.1,574.2c0.1,0.1,0.1,0.3,0.1,0.5c0,0.4,-0.2,0.6,-0.4,0.7" class="g3_12" />
<path d="M209,575.8l-18.6,0c-0.2,0,-0.4,-0.1,-0.6,-0.3m-0.1,-0.1l-3.1,-0.9m3.5,-0.4l-3.2,-0.4m11.8,-22.8c0.1,0,0.2,-0.1,0.4,-0.1c0.4,0,18.3,0.1,18.3,0.1" class="g3_12" />
<path d="M198.7,551c0.1,0.2,0.1,0.3,0.1,0.5c0,0.4,-0.1,0.6,-0.4,0.7" class="g3_12" />
<path d="M217.4,552.6l-18.4,0c-0.2,0,-0.4,-0.1,-0.6,-0.3m-0.1,-0.1l-2.4,-0.7m2.8,-0.6l-2.5,-0.3" class="g3_12" />
<path d="M208.3,575.8L202.7,591c0,0,-0.3,1,-0.3,1.3c-0.1,0.4,0.2,0.6,0.5,0.7c0.3,0.1,0.7,0,0.8,-0.2c0.1,-0.1,0.6,-1.1,0.6,-1.1l5.8,-15.9" class="g16_12" />
<path d="M210.7,574l8,-21.4m-8.6,22.6c0.3,-0.3,0.5,-0.8,0.6,-1.2m6.1,-21.4L208.9,574" class="g3_12" />
<path d="M209,575.8c0.2,0,0.5,-0.2,0.6,-0.3M208.9,574c0.3,0,0.6,0.7,0.7,1" class="g16_12" />
<path d="M218.7,552c0.3,-0.3,0.4,-0.8,0.6,-1.2c0.1,-0.4,0,-0.9,-0.5,-1.2c-0.4,-0.2,-1,0,-1.2,0.5c-0.2,0.6,-0.3,0.8,-0.3,0.8" class="g3_12" />
<path d="M217.3,552.6c0.2,0.1,0.6,-0.2,0.7,-0.3m-0.7,-1.5c0.3,0,0.7,0.7,0.7,1" class="g3_12" />
<path d="M204.3,591.6c-0.1,0.3,-0.5,0.4,-0.9,0.2c-0.5,-0.2,-0.7,-0.6,-0.6,-0.8" class="g16_12" />
</svg>