<?xml version="1.0" encoding="UTF-8" standalone="no"?>
<!DOCTYPE svg PUBLIC "-//W3C//DTD SVG 1.1//EN"
"http://www.w3.org/Graphics/SVG/1.1/DTD/svg11.dtd">
<svg version="1.1" xmlns="http://www.w3.org/2000/svg" xmlns:xlink="http://www.w3.org/1999/xlink">
<defs>
<clipPath id="c0_2"><path d="M726.2,1077.8L725.6,1003l91.6,0l0.6,74.8Z" /></clipPath>
<style type="text/css"><![CDATA[
.g5_2{
fill: #696C6D;
}
.g15_2{
fill: none;
stroke: #000000;
stroke-width: 1;
stroke-linecap: butt;
stroke-linejoin: miter;
stroke-miterlimit: 4;
stroke-dasharray: 4,4;
}
.g6_2{
fill: #B92D34;
}
.g16_2{
fill: none;
stroke: #000000;
stroke-width: 1;
stroke-linecap: butt;
stroke-linejoin: miter;
stroke-miterlimit: 4;
stroke-dasharray: 3,3;
}
.g8_2{
fill: #578DAA;
}
.g13_2{
fill: #FFFFFF;
}
.g12_2{
fill: none;
stroke: #040503;
stroke-width: 1;
stroke-linecap: round;
stroke-linejoin: round;
stroke-miterlimit: 2;
}
.g7_2{
fill: #060706;
}
.g17_2{
fill: none;
stroke: #000000;
stroke-width: 1;
stroke-linecap: butt;
stroke-linejoin: miter;
stroke-miterlimit: 4;
stroke-dasharray: 5,5;
}
.g1_2{
fill: #1A1412;
}
.g10_2{
fill: #7A9C3D;
}
.g9_2{
fill: #D46537;
}
.g11_2{
fill: #040503;
}
.g2_2{
fill: #CDCACC;
}
.g14_2{
fill: none;
stroke: #000000;
stroke-width: 1;
stroke-linecap: butt;
stroke-linejoin: miter;
stroke-miterlimit: 4;
}
.g4_2{
fill: #DEDFDE;
}
.g3_2{
fill: none;
stroke: #646669;
stroke-width: 1;
stroke-linecap: butt;
stroke-linejoin: miter;
}
]]></style>
</defs>
<path d="M0,126l935,0L935,0L0,0L0,126Z" class="g1_2" />
<path d="M366,434l569,0l0,-308l-569,0l0,308Z" class="g2_2" />
<image x="-1" y="126" width="369" height="309" xlink:href="img/1.png" />
<path d="M82.5,896.5l162,0" class="g3_2" />
<path d="M244.5,896.5l179,0" class="g3_2" />
<path d="M247,928l55,0l0,-21l-55,0l0,21Z" class="g4_2" />
<path d="M247,954l55,0l0,-21l-55,0l0,21Z" class="g5_2" />
<path d="M247,1032l55,0l0,-21l-55,0l0,21Z" class="g6_2" />
<path d="M247,980l55,0l0,-21l-55,0l0,21Z" class="g7_2" />
<path d="M247,1058l55,0l0,-21l-55,0l0,21Z" class="g8_2" />
<path d="M247,1006l55,0l0,-21l-55,0l0,21Z" class="g9_2" />
<path d="M247,1084l55,0l0,-21l-55,0l0,21Z" class="g10_2" />
<path d="M82,928l55,0l0,-21l-55,0l0,21Z" class="g4_2" />
<path d="M82,954l55,0l0,-21l-55,0l0,21Z" class="g5_2" />
<path d="M82,980l55,0l0,-21l-55,0l0,21Z" class="g7_2" />
<image x="74" y="457" width="170" height="128" xlink:href="img/2.png" />
<image x="277" y="457" width="170" height="128" xlink:href="img/3.png" />
<image x="480" y="457" width="170" height="128" xlink:href="img/4.png" />
<image x="683" y="457" width="170" height="128" xlink:href="img/5.png" />
<path fill-rule="evenodd" d="M657,1047l-9,0l0,-4l9,0l0,4Z" class="g11_2" />
<path d="M657.5,1047.5l-9,0l0,-4l9,0l0,4Z" class="g12_2" />
<path fill-rule="evenodd" d="M657,1038l-9,0l0,3l9,0l0,-3Z" class="g11_2" />
<path d="M657.4,1038.3l-8.5,0l0,3.2l8.5,0l0,-3.2Zm-56.6,1.9l0,4.7l2.6,0c0,0,2.2,-0.2,2.2,-2.3c0,-2.1,-1.7,-2.4,-2.2,-2.4c-0.6,0,-2.6,0,-2.6,0Z" class="g12_2" />
<path fill-rule="evenodd" d="M601.4,1040.7l0,3.7l2,0c0,0,1.6,-0.2,1.6,-1.8c0,-1.6,-1.3,-1.9,-1.7,-1.9c-0.4,0,-1.9,0,-1.9,0Z" class="g11_2" />
<path d="M601.4,1040.7l0,3.7l2,0c0,0,1.6,-0.2,1.6,-1.8c0,-1.6,-1.3,-1.9,-1.7,-1.9c-0.4,0,-1.9,0,-1.9,0Zm0,0l-0.6,-0.5m0,4.7l0.6,-0.5M581,1040.2l0,4.7l2.6,0c0,0,2.2,-0.2,2.2,-2.3c0,-2.1,-1.7,-2.4,-2.2,-2.4c-0.6,0,-2.6,0,-2.6,0Z" class="g12_2" />
<path fill-rule="evenodd" d="M581.6,1040.7l0,3.7l2,0c0,0,1.6,-0.2,1.6,-1.8c0,-1.6,-1.3,-1.9,-1.7,-1.9c-0.4,0,-1.9,0,-1.9,0Z" class="g11_2" />
<path d="M581.6,1040.7l0,3.7l2,0c0,0,1.6,-0.2,1.6,-1.8c0,-1.6,-1.3,-1.9,-1.7,-1.9c-0.4,0,-1.9,0,-1.9,0Zm0,0l-0.6,-0.5m0,4.7l0.6,-0.5m26.7,1l5.5,0c0.1,0,0.2,0,0.2,0.1l0,2.3c0,0.1,-0.1,0.2,-0.2,0.2l-5.5,0c-0.1,0,-0.2,-0.1,-0.2,-0.2l0,-2.3c0,-0.1,0.1,-0.1,0.2,-0.1Z" class="g12_2" />
<path fill-rule="evenodd" d="M608.8,1045.8l4.6,0c0.1,0,0.1,0.1,0.1,0.1l0,1.5c0,0.1,0,0.2,-0.1,0.2l-4.6,0c-0.1,0,-0.2,-0.1,-0.2,-0.2l0,-1.5c0,0,0.1,-0.1,0.2,-0.1Z" class="g11_2" />
<path d="M608.8,1045.8l4.6,0c0.1,0,0.1,0.1,0.1,0.1l0,1.5c0,0.1,0,0.2,-0.1,0.2l-4.6,0c-0.1,0,-0.2,-0.1,-0.2,-0.2l0,-1.5c0,0,0.1,-0.1,0.2,-0.1Zm-0.6,-0.4l0.5,0.5m-0.5,2l0.5,-0.4m5.3,-2.1l-0.5,0.5m0.5,2l-0.5,-0.4m-5.6,-10.4l6.4,0c0.1,0,0.2,0.1,0.2,0.2l0,2.3c0,0.1,-0.1,0.2,-0.2,0.2l-6.4,0c-0.1,0,-0.2,-0.1,-0.2,-0.2l0,-2.3c0,-0.1,0.1,-0.2,0.2,-0.2Z" class="g12_2" />
<path fill-rule="evenodd" d="M608.3,1037.6l5.5,0c0.1,0,0.2,0,0.2,0.1l0,1.5c0,0,-0.1,0.1,-0.2,0.1l-5.5,0c0,0,-0.1,-0.1,-0.1,-0.1l0,-1.5c0,-0.1,0.1,-0.1,0.1,-0.1Z" class="g11_2" />
<path d="M608.3,1037.6l5.5,0c0.1,0,0.2,0,0.2,0.1l0,1.5c0,0,-0.1,0.1,-0.2,0.1l-5.5,0c0,0,-0.1,-0.1,-0.1,-0.1l0,-1.5c0,-0.1,0.1,-0.1,0.1,-0.1Zm-0.6,-0.4l0.5,0.4m-0.5,2.1l0.5,-0.5m6.2,-2l-0.5,0.4m0.5,2.1l-0.5,-0.5m-25.3,6.2l5.5,0c0.1,0,0.2,0,0.2,0.1l0,2.3c0,0.1,-0.1,0.2,-0.2,0.2l-5.5,0c-0.1,0,-0.2,-0.1,-0.2,-0.2l0,-2.3c0,-0.1,0.1,-0.1,0.2,-0.1Z" class="g12_2" />
<path fill-rule="evenodd" d="M589.1,1045.8l4.6,0c0.1,0,0.1,0.1,0.1,0.1l0,1.5c0,0.1,0,0.2,-0.1,0.2l-4.6,0c-0.1,0,-0.2,-0.1,-0.2,-0.2l0,-1.5c0,0,0.1,-0.1,0.2,-0.1Z" class="g11_2" />
<path d="M589.1,1045.8l4.6,0c0.1,0,0.1,0.1,0.1,0.1l0,1.5c0,0.1,0,0.2,-0.1,0.2l-4.6,0c-0.1,0,-0.2,-0.1,-0.2,-0.2l0,-1.5c0,0,0.1,-0.1,0.2,-0.1Zm-0.6,-0.4l0.5,0.5m-0.5,2l0.5,-0.4m5.3,-2.1l-0.5,0.5m0.5,2l-0.5,-0.4m-5.6,-10.4l6.4,0c0.1,0,0.2,0.1,0.2,0.2l0,2.3c0,0.1,-0.1,0.2,-0.2,0.2l-6.4,0c-0.1,0,-0.2,-0.1,-0.2,-0.2l0,-2.3c0,-0.1,0.1,-0.2,0.2,-0.2Z" class="g12_2" />
<path fill-rule="evenodd" d="M588.6,1037.6l5.6,0c0,0,0.1,0,0.1,0.1l0,1.5c0,0,-0.1,0.1,-0.1,0.1l-5.6,0c0,0,-0.1,-0.1,-0.1,-0.1l0,-1.5c0,-0.1,0.1,-0.1,0.1,-0.1Z" class="g11_2" />
<path d="M588.6,1037.6l5.6,0c0,0,0.1,0,0.1,0.1l0,1.5c0,0,-0.1,0.1,-0.1,0.1l-5.6,0c0,0,-0.1,-0.1,-0.1,-0.1l0,-1.5c0,-0.1,0.1,-0.1,0.1,-0.1Zm-0.5,-0.4l0.4,0.4m-0.4,2.1l0.4,-0.5m6.2,-2l-0.5,0.4m0.5,2.1l-0.5,-0.5" class="g12_2" />
<path d="M656.8,1037.9l-7.3,0c-0.4,0,-0.7,0.3,-0.7,0.6l0,2.8c0,0.3,0.3,0.6,0.7,0.6l7.3,0c0.3,0,0.6,-0.3,0.6,-0.6l0,-2.8c0,-0.3,-0.3,-0.6,-0.6,-0.6Z" class="g12_2" />
<path fill-rule="evenodd" d="M649.7,1040.2l0,-0.9c0,-0.2,0.2,-0.4,0.4,-0.4l6.1,0c0.2,0,0.4,0.2,0.4,0.4l0,0.9Z" class="g13_2" />
<path d="M649.7,1040.2l0,-0.9c0,-0.2,0.2,-0.4,0.4,-0.4l6.1,0c0.2,0,0.4,0.2,0.4,0.4l0,0.9l-6.9,0Zm0.4,-0.3l0,-0.5c0,-0.1,0.1,-0.2,0.2,-0.2l5.7,0c0.1,0,0.2,0.1,0.2,0.2l0,0.5l-6.1,0Zm6.1,0l0.4,0.3m-6.5,-0.3l-0.4,0.3m7.6,-1.9l-8.4,0m8.4,3.2l-8.4,0" class="g12_2" />
<path d="M656.8,1043.5l-7.3,0c-0.4,0,-0.7,0.3,-0.7,0.6l0,2.7c0,0.4,0.3,0.7,0.7,0.7l7.3,0c0.3,0,0.6,-0.3,0.6,-0.7l0,-2.7c0,-0.3,-0.3,-0.6,-0.6,-0.6Z" class="g12_2" />
<path fill-rule="evenodd" d="M649.7,1045.8l0,-0.9c0,-0.3,0.2,-0.5,0.4,-0.5l6.1,0c0.2,0,0.4,0.2,0.4,0.5l0,0.9Z" class="g13_2" />
<path d="M649.7,1045.8l0,-0.9c0,-0.3,0.2,-0.5,0.4,-0.5l6.1,0c0.2,0,0.4,0.2,0.4,0.5l0,0.9l-6.9,0Zm0.4,-0.4l0,-0.4c0,-0.1,0.1,-0.2,0.2,-0.2l5.7,0c0.1,0,0.2,0.1,0.2,0.2l0,0.4l-6.1,0Zm6.1,0l0.4,0.4m-6.5,-0.4l-0.4,0.4m7.6,-1.9l-8.4,0m8.4,3.2l-8.4,0" class="g12_2" />
<path d="M542,1019.4l141.1,0c2.4,0,4.4,2,4.4,4.4l0,37.8c0,2.3,-2,4.3,-4.4,4.3l-141.1,0c-2.4,0,-4.3,-2,-4.3,-4.3l0,-37.8c0,-2.4,1.9,-4.4,4.3,-4.4Zm6.9,8.8l127.1,0c0.8,0,1.4,0.7,1.4,1.5l0,25.7c0,0.8,-0.6,1.4,-1.4,1.4l-127.1,0c-0.7,0,-1.4,-0.6,-1.4,-1.4l0,-25.7c0,-0.8,0.7,-1.5,1.4,-1.5Z" class="g12_2" />
<path d="M548.5,1028.5l99,0m-99,28l128,0m-126,-2l0,-24m-1,22l0,-19m126,21l0,-24m0,22l0,-19" class="g12_2" />
<path d="M561.3,1011.2l9,0l0,1.8c0,0,-2.1,0,-2.1,2.1c0,2.1,2.2,2.1,2.2,2.1l0,1.8l-9.1,0l0,-7.8Zm1.3,8.2l0,-0.4m0.1,-7.8c0.2,-0.6,0.9,-1.3,2.1,-1.3m5.5,3.4c1,0,1.7,0.8,1.7,1.7c0,1,-0.7,1.8,-1.7,1.8c-1,0,-1.8,-0.8,-1.8,-1.8c0,-0.9,0.8,-1.7,1.8,-1.7Z" class="g12_2" />
<path d="M570.3,1013.9c0.6,0,1.1,0.5,1.1,1.1c0,0.6,-0.5,1.1,-1.1,1.1c-0.6,0,-1.1,-0.5,-1.1,-1.1c0,-0.6,0.5,-1.1,1.1,-1.1Z" class="g12_2" />
<path d="M663.6,1011.2l-9,0l0,1.8c0,0,2.1,0,2.1,2.1c0,2.1,-2.2,2.1,-2.2,2.1l0,1.8l9.1,0l0,-7.8Zm-1.3,8.2l0,-0.4m-0.1,-7.8c-0.2,-0.6,-0.9,-1.3,-2.1,-1.3m-5.5,3.4c-1,0,-1.7,0.8,-1.7,1.7c0,1,0.7,1.8,1.7,1.8c1,0,1.8,-0.8,1.8,-1.8c0,-0.9,-0.8,-1.7,-1.8,-1.7Z" class="g12_2" />
<path d="M654.6,1013.9c-0.6,0,-1.1,0.5,-1.1,1.1c0,0.6,0.5,1.1,1.1,1.1c0.6,0,1.1,-0.5,1.1,-1.1c0,-0.6,-0.5,-1.1,-1.1,-1.1Z" class="g12_2" />
<path d="M561.3,1074.1l9,0l0,-1.8c0,0,-2.1,0,-2.1,-2.1c0,-2.1,2.2,-2.1,2.2,-2.1l0,-1.8l-9.1,0l0,7.8Zm1.3,-8.3l0,0.5m0.1,7.8c0.2,0.6,0.9,1.3,2.1,1.3m5.5,-3.4c1,0,1.7,-0.8,1.7,-1.7c0,-1,-0.7,-1.8,-1.7,-1.8c-1,0,-1.8,0.8,-1.8,1.8c0,0.9,0.8,1.7,1.8,1.7Z" class="g12_2" />
<path d="M570.3,1071.4c0.6,0,1.1,-0.5,1.1,-1.1c0,-0.7,-0.5,-1.2,-1.1,-1.2c-0.6,0,-1.1,0.5,-1.1,1.2c0,0.6,0.5,1.1,1.1,1.1Z" class="g12_2" />
<path d="M663.5,1074.1l-9.1,0l0,-1.8c0,0,2.1,0,2.1,-2.1c0,-2.1,-2.1,-2.1,-2.1,-2.1l0,-1.8l9.1,0l0,7.8Zm-1.3,-8.3l0,0.5m-0.2,7.8c-0.1,0.6,-0.9,1.3,-2,1.3m-5.5,-3.4c-1,0,-1.8,-0.8,-1.8,-1.7c0,-1,0.8,-1.8,1.8,-1.8c0.9,0,1.7,0.8,1.7,1.8c0,0.9,-0.8,1.7,-1.7,1.7Z" class="g12_2" />
<path d="M654.5,1071.4c-0.6,0,-1.1,-0.5,-1.1,-1.1c0,-0.7,0.5,-1.2,1.1,-1.2c0.6,0,1.1,0.5,1.1,1.2c0,0.6,-0.5,1.1,-1.1,1.1Z" class="g12_2" />
<path d="M564.5,1075.5l95,0m-95,-66l96,0" class="g12_2" />
<path d="M563.2,1030.9l7.3,0c0.9,0,1.6,0.8,1.6,1.6l0,20.2c0,0.9,-0.7,1.6,-1.6,1.6l-7.3,0c-0.9,0,-1.7,-0.7,-1.7,-1.6l0,-20.2c0,-0.8,0.8,-1.6,1.7,-1.6Z" class="g12_2" />
<path d="M566.7,1032.4c2,0,3.6,1.6,3.6,3.6l0,13.5c0,2,-1.6,3.6,-3.6,3.6c-1.9,0,-3.5,-1.6,-3.5,-3.6l0,-13.5c0,-2,1.6,-3.6,3.5,-3.6Zm-1.6,4.7l3.4,0.8c0.5,0.1,1,0.4,1,1l0,7.6c0,0.6,-0.5,0.9,-1,1l-3.4,0.6c-0.5,0.1,-0.9,-0.4,-0.9,-1l0,-9c0,-0.5,0.4,-1.1,0.9,-1Z" class="g12_2" />
<path d="M565.4,1037.7l2.8,0.6c0.5,0.1,0.8,0.4,0.8,0.8l0,7.3c0,0.4,-0.3,0.7,-0.8,0.8l-2.8,0.5c-0.4,0.1,-0.8,-0.4,-0.8,-0.8l0,-8.4c0,-0.5,0.4,-0.9,0.8,-0.8Zm0.1,7.7c0.2,0,0.3,0.1,0.3,0.3c0,0.1,-0.1,0.2,-0.3,0.2c-0.1,0,-0.3,-0.1,-0.3,-0.2c0,-0.2,0.2,-0.3,0.3,-0.3Zm0,-1.5c0.2,0,0.3,0.1,0.3,0.3c0,0.1,-0.1,0.3,-0.3,0.3c-0.1,0,-0.3,-0.2,-0.3,-0.3c0,-0.2,0.2,-0.3,0.3,-0.3Zm0,-1.5c0.2,0,0.3,0.2,0.3,0.3c0,0.2,-0.1,0.3,-0.3,0.3c-0.1,0,-0.3,-0.1,-0.3,-0.3c0,-0.1,0.2,-0.3,0.3,-0.3Zm0,-1.5c0.2,0,0.3,0.1,0.3,0.3c0,0.1,-0.1,0.2,-0.3,0.2c-0.1,0,-0.3,-0.1,-0.3,-0.2c0,-0.2,0.2,-0.3,0.3,-0.3Zm0,-1.5c0.2,0,0.3,0.1,0.3,0.3c0,0.1,-0.1,0.2,-0.3,0.2c-0.1,0,-0.3,-0.1,-0.3,-0.2c0,-0.2,0.2,-0.3,0.3,-0.3Zm1.3,-0.8c0.2,0,0.3,0.2,0.3,0.3c0,0.2,-0.1,0.3,-0.3,0.3c-0.1,0,-0.2,-0.1,-0.2,-0.3c0,-0.1,0.1,-0.3,0.2,-0.3Zm0,1.5c0.2,0,0.3,0.1,0.3,0.3c0,0.1,-0.1,0.3,-0.3,0.3c-0.1,0,-0.2,-0.2,-0.2,-0.3c0,-0.2,0.1,-0.3,0.2,-0.3Zm0,1.5c0.2,0,0.3,0.2,0.3,0.3c0,0.2,-0.1,0.3,-0.3,0.3c-0.1,0,-0.2,-0.1,-0.2,-0.3c0,-0.1,0.1,-0.3,0.2,-0.3Zm0,1.5c0.2,0,0.3,0.1,0.3,0.3c0,0.1,-0.1,0.3,-0.3,0.3c-0.1,0,-0.2,-0.2,-0.2,-0.3c0,-0.2,0.1,-0.3,0.2,-0.3Zm0,1.5c0.2,0,0.3,0.1,0.3,0.3c0,0.1,-0.1,0.3,-0.3,0.3c-0.1,0,-0.2,-0.2,-0.2,-0.3c0,-0.2,0.1,-0.3,0.2,-0.3Zm1.3,0.8c0.2,0,0.3,0.1,0.3,0.3c0,0.1,-0.1,0.2,-0.3,0.2c-0.1,0,-0.2,-0.1,-0.2,-0.2c0,-0.2,0.1,-0.3,0.2,-0.3Zm0,-1.5c0.2,0,0.3,0.1,0.3,0.3c0,0.1,-0.1,0.3,-0.3,0.3c-0.1,0,-0.2,-0.2,-0.2,-0.3c0,-0.2,0.1,-0.3,0.2,-0.3Zm0,-1.5c0.2,0,0.3,0.1,0.3,0.3c0,0.1,-0.1,0.2,-0.3,0.2c-0.1,0,-0.2,-0.1,-0.2,-0.2c0,-0.2,0.1,-0.3,0.2,-0.3Zm0,-1.5c0.2,0,0.3,0.1,0.3,0.3c0,0.1,-0.1,0.3,-0.3,0.3c-0.1,0,-0.2,-0.2,-0.2,-0.3c0,-0.2,0.1,-0.3,0.2,-0.3Zm0,-1.5c0.2,0,0.3,0.1,0.3,0.3c0,0.1,-0.1,0.2,-0.3,0.2c-0.1,0,-0.2,-0.1,-0.2,-0.2c0,-0.2,0.1,-0.3,0.2,-0.3Zm-2.8,-5.8l1.5,-1l1.6,0.9l0,1.9l-1.6,0.9l-1.5,-1l0,-1.7Zm1.5,-0.6c0.8,0,1.5,0.7,1.5,1.5c0,0.7,-0.7,1.4,-1.5,1.4c-0.8,0,-1.4,-0.7,-1.4,-1.4c0,-0.8,0.6,-1.5,1.4,-1.5Zm0,0.5c0.5,0,1,0.4,1,1c0,0.5,-0.5,0.9,-1,0.9c-0.5,0,-0.9,-0.4,-0.9,-0.9c0,-0.6,0.4,-1,0.9,-1Zm0,0.4c0.3,0,0.6,0.2,0.6,0.5c0,0.4,-0.3,0.6,-0.6,0.6c-0.3,0,-0.5,-0.2,-0.5,-0.6c0,-0.3,0.2,-0.5,0.5,-0.5Z" class="g12_2" />
<path d="M565.3,1049.9l1.5,-0.9l1.6,0.9l0,1.8l-1.6,0.9l-1.5,-0.9l0,-1.8Z" class="g12_2" />
<path d="M566.8,1049.4c0.8,0,1.5,0.6,1.5,1.4c0,0.8,-0.7,1.4,-1.5,1.4c-0.8,0,-1.4,-0.6,-1.4,-1.4c0,-0.8,0.6,-1.4,1.4,-1.4Zm0,0.5c0.5,0,1,0.4,1,0.9c0,0.5,-0.5,0.9,-1,0.9c-0.5,0,-0.9,-0.4,-0.9,-0.9c0,-0.5,0.4,-0.9,0.9,-0.9Zm0,0.4c0.3,0,0.6,0.2,0.6,0.5c0,0.3,-0.3,0.6,-0.6,0.6c-0.3,0,-0.5,-0.3,-0.5,-0.6c0,-0.3,0.2,-0.5,0.5,-0.5Zm53.6,-10.1l0,4.7l2.6,0c0,0,2.1,-0.2,2.1,-2.3c0,-2.1,-1.6,-2.4,-2.2,-2.4c-0.5,0,-2.5,0,-2.5,0Z" class="g12_2" />
<path fill-rule="evenodd" d="M621,1040.7l0,3.7l1.9,0c0,0,1.7,-0.2,1.7,-1.8c0,-1.6,-1.3,-1.9,-1.7,-1.9c-0.4,0,-1.9,0,-1.9,0Z" class="g11_2" />
<path d="M621,1040.7l0,3.7l1.9,0c0,0,1.7,-0.2,1.7,-1.8c0,-1.6,-1.3,-1.9,-1.7,-1.9c-0.4,0,-1.9,0,-1.9,0Zm0,0l-0.6,-0.5m0,4.7l0.6,-0.5m6.9,1l5.5,0c0.1,0,0.2,0,0.2,0.1l0,2.3c0,0.1,-0.1,0.2,-0.2,0.2l-5.5,0c-0.1,0,-0.2,-0.1,-0.2,-0.2l0,-2.3c0,-0.1,0.1,-0.1,0.2,-0.1Z" class="g12_2" />
<path fill-rule="evenodd" d="M628.3,1045.8l4.7,0c0,0,0.1,0.1,0.1,0.1l0,1.5c0,0.1,-0.1,0.2,-0.1,0.2l-4.7,0c0,0,-0.1,-0.1,-0.1,-0.2l0,-1.5c0,0,0.1,-0.1,0.1,-0.1Z" class="g11_2" />
<path d="M628.3,1045.8l4.7,0c0,0,0.1,0.1,0.1,0.1l0,1.5c0,0.1,-0.1,0.2,-0.1,0.2l-4.7,0c0,0,-0.1,-0.1,-0.1,-0.2l0,-1.5c0,0,0.1,-0.1,0.1,-0.1Zm-0.6,-0.4l0.5,0.5m-0.5,2l0.5,-0.4m5.3,-2.1l-0.5,0.5m0.5,2l-0.5,-0.4m-5.6,-10.4l6.4,0c0.1,0,0.2,0.1,0.2,0.2l0,2.3c0,0.1,-0.1,0.2,-0.2,0.2l-6.4,0c-0.1,0,-0.1,-0.1,-0.1,-0.2l0,-2.3c0,-0.1,0,-0.2,0.1,-0.2Z" class="g12_2" />
<path fill-rule="evenodd" d="M627.9,1037.6l5.5,0c0.1,0,0.1,0,0.1,0.1l0,1.5c0,0,0,0.1,-0.1,0.1l-5.5,0c-0.1,0,-0.1,-0.1,-0.1,-0.1l0,-1.5c0,-0.1,0,-0.1,0.1,-0.1Z" class="g11_2" />
<path d="M627.9,1037.6l5.5,0c0.1,0,0.1,0,0.1,0.1l0,1.5c0,0,0,0.1,-0.1,0.1l-5.5,0c-0.1,0,-0.1,-0.1,-0.1,-0.1l0,-1.5c0,-0.1,0,-0.1,0.1,-0.1Zm-0.6,-0.4l0.5,0.4m-0.5,2.1l0.5,-0.5m6.2,-2l-0.5,0.4m0.5,2.1l-0.5,-0.5" class="g12_2" />
<path d="M537.5,1082.5l150,0m-150,-2l0,3m150,-3l0,3m-25,-80l0,3m-100,-3l0,3m-31,4l0,65m2,-65l-3,0m3,65l-3,0m162,-55l0,46m2,-46l-4,0m4,46l-4,0" class="g14_2" />
<path d="M559.5,1010.5l-22,0m22,65l-22,0" class="g15_2" />
<path d="M741.8,1067.4c-1.3,0,-2,-0.9,-2,-2.1l0,-42.3c0,-1.1,0.7,-2,2,-2l0,46.4Zm0,-6c0,-0.8,0.7,-0.8,0.7,-0.8l51.5,-0.2l0,-32.5l-51.5,-0.2c-0.3,0,-0.7,-0.2,-0.7,-0.6m52.2,5.7l22.4,0M794,1039l22.4,0" class="g12_2" />
<path d="M815.9,1028.5c1.1,1.6,0.9,3.1,0.6,4.4c-0.4,1.3,-1.3,3.1,0,6.1c1.2,3,-0.1,5.2,-0.1,5.2" class="g12_2" />
<path d="M777.3,1015l-8.2,0m8.2,3.1l-8.2,0m7.7,-3.1l0.3,3.1m-1,-3.1l0.3,3.1m-1,-3.1l0.3,3.1m-1,-3.1l0.3,3.1m-1,-3.1l0.3,3.1m-0.9,-3.1l0.3,3.1m-1,-3.1l0.3,3.1m-1,-3.1l0.3,3.1m-1,-3.1l0.3,3.1m-1,-3.1l0.3,3.1M770,1015l0.2,3.1m9,-1.9l0,0.7l0.2,0c0,0,0,1.2,-0.8,2.5m0.6,-3.2l0.3,0c0,0,-0.1,-1.5,-0.9,-2.5m0,0c-0.2,-0.1,-0.4,-0.2,-0.6,-0.2l-0.4,0c0,0,-0.3,0,-0.3,0.4c0,0.4,0,5.2,0,5.2c0,0,0,0.5,0.2,0.5l0.6,0c0,0,0.3,0,0.5,-0.2M763.4,1015l-2.2,0l-0.4,0.4l0,2.3l0.5,0.4l2.1,0m-0.3,-3.1l0.3,2.4m-1,-2.4l0.3,3.1m-0.9,-3.1l0.3,3.1m-1,-3l0.3,3m2,-5.4l2.6,0l0,7.8l-2.6,0l0,-7.8Zm2.6,1.7l3.1,0l0,4.4l-3.1,0l0,-4.4Zm-1.3,6.1l0,1.3c0,0,-0.3,1.7,1.7,1.7l21.4,0c0,0,0.8,-0.1,0.8,0.8l0,3.6m1.1,0l0,-3.8c0,0,-0.1,-1.7,-1.8,-1.7l-21.6,0c0,0,-0.7,0,-0.7,-0.7l0,-1.2m0,0.6l0.3,0l0,-0.6l1,0l0,-1.7m0,-4.4l0,-1.8l-0.9,0l0,-0.5l-0.3,0m0,0.6l0,-1.3l-1.1,0l0,1.3m4.8,2.3l0.3,3.1m7.6,55.2l-8.2,0m8.2,-3l-8.2,0m7.7,3l0.3,-3m-1,3l0.3,-3m-1,3l0.3,-3m-1,3l0.3,-3m-1,3l0.3,-3m-0.9,3l0.3,-3m-1,3l0.3,-3m-1,3l0.3,-3m-1,3l0.3,-3m-1,3l0.3,-3m-0.9,3l0.2,-3m9,1.8l0,-0.6l0.2,0c0,0,0,-1.2,-0.8,-2.5m0.6,3.1l0.3,0c0,0,-0.1,1.6,-0.9,2.5m0,0c-0.2,0.2,-0.4,0.3,-0.6,0.3l-0.4,0c0,0,-0.3,0,-0.3,-0.4c0,-0.4,0,-5.3,0,-5.3c0,0,0,-0.5,0.2,-0.5l0.6,0c0,0,0.3,0,0.5,0.3m-15.2,4.4l-2.2,0l-0.4,-0.5l0,-2.2l0.5,-0.5l2.1,0m-0.3,3.1l0.3,-2.4m-1,2.4l0.3,-3m-0.9,3l0.3,-3m-1,2.9l0.3,-2.9m2,5.4l2.6,0l0,-7.9l-2.6,0l0,7.9ZM766,1074l3.1,0l0,-4.4l-3.1,0l0,4.4Zm-1.3,-6.2l0,-1.2c0,0,-0.3,-1.8,1.7,-1.8l21.4,0c0,0,0.8,0.1,0.8,-0.8l0,-3.6m1.1,0l0,3.8c0,0,-0.1,1.7,-1.8,1.7l-21.6,0c0,0,-0.7,0,-0.7,0.8l0,1.1m0,-0.6l0.3,0l0,0.6l1,0l0,1.8m0,4.4l0,1.7l-0.9,0l0,0.6l-0.3,0m0,-0.6l0,1.2l-1.1,0l0,-1.2m4.8,-2.4l0.3,-3" class="g12_2" />
<g clip-path="url(#c0_2)">
<path d="M748,1052.9c0.8,0,1.4,0.6,1.4,1.4c0,0.7,-0.6,1.3,-1.4,1.3c-0.8,0,-1.4,-0.6,-1.4,-1.3c0,-0.8,0.6,-1.4,1.4,-1.4Z" class="g12_2" />
<path d="M748,1053.4c0.5,0,0.9,0.4,0.9,0.9c0,0.5,-0.4,0.9,-0.9,0.9c-0.5,0,-0.9,-0.4,-0.9,-0.9c0,-0.5,0.4,-0.9,0.9,-0.9Z" class="g12_2" />
<path d="M748,1032.4c0.8,0,1.4,0.6,1.4,1.3c0,0.8,-0.6,1.4,-1.4,1.4c-0.8,0,-1.4,-0.6,-1.4,-1.4c0,-0.7,0.6,-1.3,1.4,-1.3Z" class="g12_2" />
<path d="M748,1032.8c0.5,0,0.9,0.4,0.9,0.9c0,0.5,-0.4,0.9,-0.9,0.9c-0.5,0,-0.9,-0.4,-0.9,-0.9c0,-0.5,0.4,-0.9,0.9,-0.9Z" class="g12_2" />
</g>
<path d="M823.5,1060.5l0,-32m-2,32l3,0m-3,-32l3,0" class="g14_2" />
<path d="M797.5,1060.5l20,0m-20,-33l20,0" class="g16_2" />
<path d="M760.5,1003.5l-19,0m19,2l0,-4m-19,4l0,-4" class="g14_2" />
<path d="M760.5,1019.5l0,-12m-19,12l0,-12" class="g17_2" />
<path d="M687.1,981.1c0,1.3,-0.5,2,-2.1,2l-145.7,0c-1.6,0,-2.2,-0.7,-2.2,-2l150,0Zm-5.3,0c-0.8,0,-0.8,-0.7,-0.8,-0.7l-0.2,-51.8l-53.6,0c-1,0,-1.1,1.1,-1.1,1.1l0,1.6c0,1.2,1.3,1.2,1.3,1.2l0.9,0.3l6.1,0c0.3,0,0.6,-0.1,0.7,0.2m-54.7,-0.1l0,-3.3c0,-0.8,-0.6,-1,-1.1,-1l-16.1,0c-1.1,0,-1.2,1.1,-1.2,1.1l0,1.6c0,0.9,1.2,1.2,1.2,1.2l1,0.2c0,0,5.8,0,6.2,0c0.2,0,0.4,0.1,0.6,0.2m-20.1,-4.3l-7.6,0l-0.2,51.8c0,0.3,-0.2,0.7,-0.7,0.7m69,-47.6l0,-20.9m6.1,20.9l0,-20.9" class="g12_2" />
<path d="M607.2,913.2c1.5,-1.1,3,-1,4.3,-0.6c1.2,0.4,3,1.3,6,0c3,-1.3,5.1,0.1,5.1,0.1" class="g12_2" />
<path d="M662,956.9l0,-23.8l-44.5,0m-6.1,0l-49.3,0l0,0.9l0,22.8m10.1,0.3l2,-1l-0.1,-0.2l-2,0.9l-9.9,0c0,0,-1.4,0.1,-1.4,1.4c0,1.2,1.1,1.3,1.4,1.3c0.3,0,7.6,-1.4,7.6,-1.4m2.4,-0.9l-10,0c0,0,-1.1,0,-1.1,1c0,0.9,0.8,0.9,1,0.9c0.2,0,6.1,-1,6.1,-1m-0.5,-1.4l0,-3l4.4,0l0,3.1m-3.8,-11.5l0,8.4m3.1,-8.4l0,8.4m-3.1,-7.8l3.1,-0.3m-3.1,0.9l3.1,-0.3m-3.1,1.1l3.1,-0.3m-3.1,0.9l3.1,-0.3m-3.1,1l3.1,-0.3m-3.1,1l3.1,-0.3m-3.1,1l3.1,-0.3m-3.1,1l3.1,-0.3m-3.1,1l3.1,-0.3m-3.1,1l3.1,-0.3m-3.1,1l3.1,-0.3m-3.1,1l3.1,-0.3m-1.9,-9.8l0.7,0l0,-0.2c0,0,1.2,0,2.5,0.9m-3.2,-0.7l0,-0.3c0,0,-1.5,0.1,-2.5,0.9m0,0c-0.1,0.2,-0.2,0.4,-0.2,0.6l0,0.4c0,0,0,0.3,0.4,0.3c0.3,0,5.3,0.1,5.3,0.1c0,0,0.5,0,0.5,-0.3l0,-0.6c0,0,0,-0.3,-0.3,-0.4m-4.4,14.3l0,3.2l0.5,0.4l2.2,0l0.5,-0.4l0,-3.4m-3.2,0.8l3.1,-0.3m-3.1,1l3.1,-0.3m-3.1,1l3.1,-0.3m-3.1,1l3.1,-0.3m-3.1,1l3.1,-0.3m-9.3,-4.3l0,1l99.9,0l0,-1m-10.3,-0.1l-2,-0.9l0.1,-0.3l2,0.9l9.9,0.1c0,0,1.4,0,1.4,1.3c0,1.2,-1.1,1.3,-1.4,1.3c-0.3,0,-7.6,-1.3,-7.6,-1.3m-2.4,-1l10,0c0,0,1.1,0,1.1,1c0,1,-0.9,0.9,-1,0.9c-0.2,0,-6.1,-1,-6.1,-1m-3.9,-1.4l0,-3l4.4,0l0,3.1m-3.8,-11.4l0,8.3m3.1,-8.3l0,8.3m-3.1,-7.8l3.1,-0.3m-3.1,1l3.1,-0.3m-3.1,1l3.1,-0.3m-3.1,1l3.1,-0.3m-3.1,1l3.1,-0.3m-3.1,0.9l3.1,-0.3m-3.1,1l3.1,-0.3m-3.1,1l3.1,-0.3m-3.1,1l3.1,-0.3m-3.1,1l3.1,-0.3m-3.1,1l3.1,-0.3m-3.1,1l3.1,-0.3m-1.8,-9.8l0.6,0l0,-0.2c0,0,1.2,0,2.5,0.9m-3.1,-0.7l0,-0.3c0,0,-1.6,0.1,-2.6,1m0,0c-0.1,0.1,-0.2,0.3,-0.2,0.5l0,0.4c0,0,0,0.3,0.4,0.3c0.4,0,5.3,0.1,5.3,0.1c0,0,0.5,0,0.5,-0.3l0,-0.6c0,0,0,-0.3,-0.3,-0.4m-4.4,14.3l0,3.3l0.5,0.4l2.2,0l0.5,-0.5l0,-3.4m-3.2,0.8l3.1,-0.3m-3.1,1l3.1,-0.3m-3.1,1l3.1,-0.3m-3.1,1l3.1,-0.3m-3.1,1l3.1,-0.3m-3.8,-4.3l-79.5,0M550.9,928.6c0.6,0,1.2,0.4,1.2,1.2l0,3.4c0,0,0,0.8,0.9,0.8l9.1,0m31.2,-0.9l0,5.5c0,0,0,2.5,2.5,2.5l33.6,0c0,0,2.6,0.1,2.6,-2.5l0,-5.5M593.3,934l38.7,0l-21.6,0l0.3,-0.4l7.5,0l0.4,0.4" class="g12_2" />
<path d="M543.5,906.5l137,0m-137,-1l0,3m137,-3l0,3m-185,20l0,53m32,-48l0,48m1,-48l-3,0m-28,-5l-4,0m4,52l-4,0m41,0l-3,0m-3,0l-3,0" class="g14_2" />
<path d="M543.5,910.5l0,14m138,-14l0,14m-132,9l-21,0m15,-5l-46,0m26,52l-26,0" class="g16_2" />
<path d="M527.5,980.5l-2,0" class="g16_2" />
<path d="M562.5,1005.5l100,0" class="g14_2" />
<image x="500" y="723" width="95" height="119" xlink:href="img/6.png" />
</svg>