<?xml version="1.0" encoding="UTF-8" standalone="no"?>
<!DOCTYPE svg PUBLIC "-//W3C//DTD SVG 1.1//EN"
"http://www.w3.org/Graphics/SVG/1.1/DTD/svg11.dtd">
<svg viewBox="0 0 935 1210" version="1.1" xmlns="http://www.w3.org/2000/svg" xmlns:xlink="http://www.w3.org/1999/xlink">
<defs>
<style type="text/css"><![CDATA[
.g11_3{
fill: #E0E0E0;
}
.g13_3{
fill: none;
stroke: #000000;
stroke-width: 4;
stroke-linecap: round;
stroke-linejoin: round;
stroke-miterlimit: 2;
}
.g2_3{
fill: none;
stroke: #FFFFFF;
stroke-width: 3;
stroke-linecap: round;
stroke-linejoin: miter;
stroke-miterlimit: 2;
}
.g3_3{
fill: #FFFFFF;
stroke: #000000;
stroke-width: 2;
stroke-linecap: butt;
stroke-linejoin: miter;
stroke-miterlimit: 2;
}
.g1_3{
fill: #B3B3B3;
}
.g7_3{
fill: #636363;
stroke: #000000;
stroke-width: 1;
stroke-linecap: butt;
stroke-linejoin: miter;
stroke-miterlimit: 2;
}
.g9_3{
fill: none;
stroke: #000000;
stroke-width: 2;
stroke-linecap: round;
stroke-linejoin: round;
stroke-miterlimit: 2;
}
.g14_3{
fill: none;
stroke: #FFFFFF;
stroke-width: 2;
stroke-linecap: round;
stroke-linejoin: round;
stroke-miterlimit: 2;
}
.g5_3{
fill: none;
stroke: #000000;
stroke-width: 2;
stroke-linecap: butt;
stroke-linejoin: miter;
stroke-miterlimit: 2;
}
.g15_3{
fill: none;
stroke: #808080;
stroke-width: 2;
stroke-linecap: round;
stroke-linejoin: round;
stroke-miterlimit: 2;
}
.g12_3{
stroke: #000000;
stroke-width: 2;
stroke-linecap: round;
stroke-linejoin: round;
stroke-miterlimit: 2;
}
.g4_3{
fill: none;
stroke: #000000;
stroke-width: 1;
stroke-linecap: butt;
stroke-linejoin: miter;
stroke-miterlimit: 2;
}
.g10_3{
fill: #FFFFFF;
}
.g6_3{
}
.g8_3{
fill: none;
stroke: #000000;
stroke-width: 1;
stroke-linecap: round;
stroke-linejoin: round;
stroke-miterlimit: 2;
}
]]></style>
</defs>
<path fill-rule="evenodd" d="M55,54l824,0l0,1101l-824,0Z" class="g1_3" />
<path d="M55.5,256.5l27,0" class="g2_3" />
<path d="M55.5,430.5l27,0" class="g2_3" />
<path d="M55.5,605.5l27,0" class="g2_3" />
<path d="M55.5,779.5l27,0" class="g2_3" />
<path d="M55.5,953.5l27,0" class="g2_3" />
<path d="M852.5,256.5l28,0" class="g2_3" />
<path d="M852.5,605.5l28,0" class="g2_3" />
<path d="M236.5,82.5l0,-27" class="g2_3" />
<path d="M390.5,82.5l0,-27" class="g2_3" />
<path d="M544.5,82.5l0,-27" class="g2_3" />
<path d="M698.5,82.5l0,-27" class="g2_3" />
<path d="M236.5,1155.5l0,-28" class="g2_3" />
<path d="M390.5,1155.5l0,-28" class="g2_3" />
<path d="M544.5,1155.5l0,-28" class="g2_3" />
<path d="M698.5,1155.5l0,-28" class="g2_3" />
<path d="M852.5,430.5l28,0" class="g2_3" />
<path d="M852.5,779.5l28,0" class="g2_3" />
<path d="M852.5,953.5l28,0" class="g2_3" />
<path fill-rule="evenodd" d="M82,82l770,0l0,1045l-770,0Z" class="g3_3" />
<path d="M184.5,209.5l646,0" class="g4_3" />
<path d="M103.5,278.5l727,0" class="g4_3" />
<path d="M82,1097l770,0" class="g5_3" />
<path d="M466.5,1099.5l0,28" class="g4_3" />
<path d="M468.5,1099.5l0,28" class="g4_3" />
<path d="M272.5,1099.5l0,28" class="g4_3" />
<path d="M274.5,1099.5l0,28" class="g4_3" />
<path d="M664.5,1099.5l0,28" class="g4_3" />
<path d="M666.5,1099.5l0,28" class="g4_3" />
<path fill-rule="evenodd" d="M106,289l37,0l0,38l-37,0Z" class="g6_3" />
<path fill-rule="evenodd" d="M103.5,287.5l38,0l0,37l-38,0Z" class="g7_3" />
<path d="M274.5,1099.5l192,0" class="g8_3" />
<path d="M468.5,1099.5l196,0" class="g8_3" />
<path d="M666.5,1099.5l186,0" class="g8_3" />
<path d="M272.5,1099.5l-190,0" class="g8_3" />
<path d="M341.6,514.9l-9.7,4.2c0,0,-2.8,1.8,-2.8,4.8c0,3,0,41.4,0,41.4c0,0,-0.1,3.3,2.9,2.2c3,-1.1,10,-4.3,10,-4.3c0,0,3,-1.5,3.2,-5.3c0.2,-3.7,-0.1,-41,-0.1,-41c0,0,-0.1,-3.4,-3.5,-2Z" class="g8_3" />
<path d="M336.7,563.1c2.1,-0.9,6.2,-5.3,6.1,-10.5c0,-5.2,-0.3,-29.3,-0.3,-29.3c0,0,-0.3,-2.9,-2.5,-3.5" class="g9_3" />
<path d="M331.4,554.3l0.1,4c0,0,0.5,2.1,1.2,2.8" class="g8_3" />
<path d="M340.9,556.5l-5.2,-1c0,0,-3.1,-0.1,-3.3,3.9c-0.2,3.9,3,3.6,4.3,3.7" class="g9_3" />
<path d="M334.8,554.7l-3.4,-0.4c-0.8,-0.1,-1.3,-0.5,-1.4,-1.8c0,-1.3,-0.2,-17.9,-0.2,-17.9c0,0,0.1,-2.8,2.2,-2.9c2.1,-0.2,4.6,-0.8,4.6,-0.8l2.2,0.6l2.9,0.5" class="g9_3" />
<path d="M331.4,554.3c2.5,-1.7,5.5,-4.2,5.5,-4.2c0,0,1.3,-0.3,1.2,-3.2c-0.2,-2.9,0,-12.5,0,-12.5c0,0,-0.7,-3.6,-2.5,-3.3" class="g8_3" />
<path d="M335.4,557c0.7,0.2,1,1.2,0.7,2.2c-0.3,1.1,-1.2,1.8,-1.9,1.7c-0.7,-0.1,-1,-1.1,-0.7,-2.2c0.4,-1,1.2,-1.8,1.9,-1.7Z" class="g8_3" />
<path d="M341.1,522.7l-5.2,-1c0,0,-3.1,-0.1,-3.3,3.9c-0.2,3.9,5.4,4,6.7,4.1" class="g9_3" />
<path d="M335.6,523.2c0.7,0.2,1,1.2,0.7,2.2c-0.3,1.1,-1.2,1.8,-1.9,1.7c-0.7,-0.1,-1,-1.1,-0.6,-2.2c0.3,-1,1.1,-1.8,1.8,-1.7Z" class="g8_3" />
<path d="M335.3,562.5c0.6,-1.2,1.5,-2.5,1.9,-2.6" class="g8_3" />
<path d="M337.4,556.5c-0.4,0.3,-0.4,2.6,-0.1,3.4" class="g8_3" />
<path d="M337.3,559.9l1.5,0.3" class="g8_3" />
<path d="M335.4,528.6c0.6,-1.2,1.5,-2.4,2,-2.6" class="g8_3" />
<path d="M337.6,522.6c-0.5,0.4,-0.5,2.6,-0.2,3.4" class="g8_3" />
<path d="M337.4,526l4.7,1" class="g8_3" />
<path d="M339.8,529.8c0.6,-1.2,1.5,-2.5,1.9,-2.6" class="g8_3" />
<path d="M338.6,549.4l3.6,1.2" class="g8_3" />
<path d="M340,519.8c-0.8,-0.4,-3.8,0.1,-4.6,1" class="g8_3" />
<path d="M332.1,526.2c-0.3,1.2,-0.2,5.5,-0.2,5.5" class="g8_3" />
<path fill-rule="evenodd" d="M398.8,248.9C414.1,240,429.6,231.1,445,222.1c0.6,-0.7,1.2,-1.5,1.7,-2.3c0.3,-0.3,0.3,-0.6,0.3,-0.7c-0.1,-0.2,-0.4,-0.3,-0.7,-0.3c-1,0.1,-2.1,0.2,-3.1,0.3c-15.2,8.8,-30.4,17.7,-45.7,26.5c0.4,1.1,0.8,2.2,1.3,3.3Z" class="g10_3" />
<path d="M387.5,255.4c19.1,-11.1,38.3,-22.2,57.5,-33.3c0.6,-0.7,1.2,-1.5,1.7,-2.3c0.3,-0.3,0.3,-0.6,0.3,-0.7c-0.1,-0.2,-0.4,-0.3,-0.7,-0.3c-1,0.1,-2.1,0.2,-3.1,0.3c-19,11,-38,21.9,-57,33" class="g9_3" />
<path d="M444.1,221.9c0.1,-0.6,0.6,-1.1,1,-1.4c0.4,-0.4,1,-0.7,1.6,-0.9" class="g8_3" />
<path d="M442.6,220.1c0.8,0,1.5,-0.2,2.2,-0.4c0.6,-0.2,1.2,-0.5,1.6,-0.8" class="g8_3" />
<path fill-rule="evenodd" d="M403.2,236.9c-0.8,0.5,-1.7,1,-2.6,1.5c-0.4,0.3,-0.8,0.7,-1.1,1.1c-0.3,0.4,-0.6,1,-0.7,1.6c0,0.4,0,0.8,-0.1,0.9c-0.2,0.1,-0.4,0.1,-0.7,0c-0.8,-0.6,-1.8,-1,-2.7,-1.1c-0.9,-0.1,-1.9,0.1,-2.7,0.4c-9.2,5.4,-18.5,10.7,-27.7,16c-2,2,-3.2,4,-3.5,5.9c-0.3,1.9,0.2,3.8,1.5,5.6c1.7,1.9,3.5,3.1,5.3,3.4c1.9,0.3,4,-0.2,6.1,-1.5c8.7,-5,17.3,-10,26,-15c0.9,-0.8,1.6,-1.7,2,-2.5c0.4,-0.9,0.6,-1.9,0.6,-2.9c0,-0.4,0.2,-0.7,0.3,-0.8c0.2,0,0.5,0.1,0.8,0.4c0.5,0.2,1,0.5,1.5,0.5c0.4,0,0.9,-0.1,1.3,-0.3c1,-0.5,2.1,-1.1,3.1,-1.7c0.9,-0.9,1.3,-2.1,1.2,-3.4c0,-1.3,-0.7,-2.9,-1.7,-4.6c-1.1,-1.5,-2.2,-2.5,-3.2,-3.1c-1,-0.6,-2,-0.7,-3,-0.4Z" class="g10_3" />
<path d="M398.9,242c-0.1,-1.5,0.4,-2.8,1.3,-3.3c1,-0.5,1.9,-1.1,2.9,-1.7c1.8,-1,4.8,0.7,6.6,3.9c1.8,3.1,1.8,6.5,0,7.6c-0.9,0.5,-1.9,1.1,-2.9,1.6c-0.9,0.6,-2.3,0.3,-3.6,-0.5" class="g9_3" />
<path d="M402.3,250.9c-0.1,-1.5,-0.6,-3.2,-1.6,-4.9c-0.7,-1.2,-1.6,-2.3,-2.6,-3.1" class="g8_3" />
<path d="M403,248.9c-0.1,-1.1,-0.4,-2.3,-1.1,-3.5c-0.7,-1.2,-1.6,-2.1,-2.4,-2.7" class="g8_3" />
<path d="M404.9,249.5c-0.7,-0.2,-1.2,-0.2,-1.5,-0.2c-0.3,0.1,-0.5,0.4,-0.5,0.8c0,1.2,-0.2,2.4,-0.6,3.2c-0.4,0.9,-1.1,1.7,-1.8,2.2c-9.3,5.3,-18.5,10.7,-27.7,16c-1.2,0.6,-2,0.8,-3.4,0.8c-4.4,0,-8,-3.7,-8,-8.1c0,-2.6,1.4,-5.1,3.5,-6.6c9.1,-5.4,18.3,-10.7,27.6,-16.1c0.7,-0.3,1.6,-0.5,2.5,-0.5c0.8,0.1,1.9,0.5,3,1c0.4,0.3,0.9,0.3,1.2,0.1c0.3,-0.1,0.5,-0.5,0.6,-1.1" class="g9_3" />
<path d="M366.2,257.6c2.1,0.2,4.5,2.1,6.2,5c1.5,2.7,2,5.6,1.4,7.5" class="g8_3" />
<path d="M406.3,250c1.4,-1.1,1.3,-4.1,-0.3,-7c-1.7,-2.8,-4.3,-4.5,-6,-3.8" class="g8_3" />
<path d="M370.1,257.7L395,243.2" class="g8_3" />
<path d="M372.5,259.1l24.2,-14.4" class="g8_3" />
<path d="M375.1,264.1l24.5,-14.8" class="g8_3" />
<path d="M375.6,266.9L400.1,252" class="g8_3" />
<path d="M372.5,259.1c-1,0.6,-3.9,-0.1,-2.4,-1.4" class="g8_3" />
<path d="M375.1,264.1c-1.4,0.9,-1.2,3.6,0.5,2.8" class="g8_3" />
<path d="M400.1,252c1.4,-0.7,1.7,-4.1,-0.5,-2.7" class="g8_3" />
<path d="M396.7,244.7c1.5,-0.8,0,-2.5,-1.7,-1.5" class="g8_3" />
<path fill-rule="evenodd" d="M219.3,230.3c0,0,0.7,-0.6,0.9,-0.7c0.4,-0.2,0.8,-0.4,1.2,-0.6c0.3,-0.4,0.6,-0.8,0.9,-1.2c0,0,0.1,-0.2,0.1,-0.2c-0.1,-0.1,-0.3,-0.1,-0.3,-0.1c-0.2,0.1,-0.4,0.2,-0.7,0.4c-0.1,0.1,-0.3,0.3,-0.5,0.4c-0.1,0.2,-0.2,0.4,-0.4,0.6c-0.4,0.3,-0.8,0.6,-1.2,0.8c0,0.2,0,0.4,0,0.6Z" class="g11_3" />
<path d="M219.3,230.3c0.3,-0.2,0.6,-0.4,0.9,-0.7c0.4,-0.2,0.8,-0.3,1.2,-0.5c0.3,-0.5,0.7,-1,1.1,-1.4c0.1,-0.3,0.1,-0.4,0.1,-0.5c-0.1,-0.1,-0.2,-0.2,-0.5,-0.2c-0.6,0.1,-1.2,0.1,-1.9,0.2c-0.3,0.3,-0.6,0.5,-0.9,0.8c-0.4,0.2,-0.8,0.3,-1.1,0.5" class="g9_3" />
<path d="M220.6,228.9c0.1,-0.3,0.3,-0.6,0.6,-0.8c0.3,-0.2,0.6,-0.5,0.9,-0.6" class="g8_3" />
<path d="M220.2,227.8c0.3,0,0.6,-0.1,0.9,-0.2c0.3,-0.1,0.6,-0.3,0.9,-0.5" class="g9_3" />
<path fill-rule="evenodd" d="M219.3,230.3c-0.1,0.1,-0.1,0.2,-0.1,0.3c-1.9,1.1,-3.7,2.1,-5.5,3.2c-0.2,0,-0.4,0.1,-0.6,0.1c0,0,-0.1,0,-0.2,0c0,0,-0.1,-0.1,-0.2,-0.1c-0.3,-0.2,-0.5,-0.4,-0.6,-0.6c-0.1,-0.2,-0.2,-0.4,-0.2,-0.7c0,-0.2,0,-0.3,0.1,-0.4c0,-0.1,0,-0.2,0.1,-0.3c1.8,-1.1,3.6,-2.1,5.5,-3.2c0.1,0,0.2,0,0.3,-0.1c0.1,0,0.2,0,0.3,0c0.1,0,0.3,0.1,0.4,0.2c0.2,0.1,0.3,0.3,0.5,0.5c0.1,0.2,0.1,0.3,0.2,0.5c0,0.2,0,0.4,0,0.6Z" class="g10_3" />
<path d="M211.9,232.7l0,-0.3l0,-0.1l0.1,-0.1l0,-0.1l0,-0.2l0.1,-0.1" class="g9_3" />
<path d="M212.5,233.7l0.4,0.2" class="g9_3" />
<path d="M212.5,233.7l0,-0.1l-0.2,-0.1l-0.1,-0.1l-0.1,-0.1L212,233.1l0,-0.1l-0.1,-0.2l0,-0.1" class="g9_3" />
<path d="M211.9,232.7l0,-0.2l0.1,-0.1l0,-0.1l0.1,0l0.1,0l0.1,0l0.2,0l0.1,0.1l0.1,0.1l0.1,0.1l0.1,0.1l0.1,0.2l0,0.1l0.1,0.2l0,0.1" class="g8_3" />
<path d="M212.9,231.7l0,0.2L213,232l0,0.2l0.1,0.1l0.1,0.1l0.2,0.1l0.1,0.1l0.2,0.1" class="g8_3" />
<path d="M213.5,233.3l0,0.1l0.1,0.1l0,0.1l0,0.1l0.1,0.1" class="g8_3" />
<path d="M213.1,233.3l0,0.2l-0.1,0.1l-0.1,0.1l-0.1,0l-0.1,0l-0.1,0l-0.1,0" class="g8_3" />
<path d="M212.1,231.8l0.1,0l0.1,0l0.1,0l0.2,0l0.1,0l0.2,-0.1" class="g8_3" />
<path d="M213.7,232.7l-0.1,0.2l0,0.1l0,0.1l-0.1,0.1l0,0.1" class="g8_3" />
<path d="M213.7,233.8l-0.2,0l-0.1,0.1l-0.2,0l-0.1,0l-0.1,0l-0.1,0" class="g9_3" />
<path d="M212.1,231.8l5.5,-3.2" class="g9_3" />
<path d="M212.9,231.7l5.5,-3.2" class="g8_3" />
<path d="M213.7,232.7l5.5,-3.2" class="g8_3" />
<path d="M213.7,233.8l5.5,-3.2" class="g9_3" />
<path d="M217.6,228.6l0.1,0l0.2,-0.1l0.1,0l0.1,0l0.1,0l0.1,0" class="g9_3" />
<path d="M219.3,230l0,-0.1l0,-0.2l0,-0.2l-0.1,-0.2l-0.1,-0.2L218.9,229l-0.1,-0.2l-0.2,-0.1l-0.1,-0.1" class="g8_3" />
<path d="M219.3,230l0,0.1l0,0.1l0,0.1l-0.1,0.1l0,0.2" class="g9_3" />
<path d="M218.3,228.5l0.2,0.1" class="g9_3" />
<path d="M218.3,228.5l0.1,0l0.1,0.1l0.2,0.1l0.1,0.1l0.1,0.1L219,229l0,0.1l0.1,0.1l0,0.2l0.1,0.1l0,0.1l0.1,0.1l0,0.1l0,0.1l0,0.1" class="g9_3" />
<path fill-rule="evenodd" d="M210.3,229c0.7,0.2,1.3,0.4,2,0.6c0.7,0.1,1.3,0.1,2,0.2c0.4,0.1,0.7,0.3,1.1,0.6c0.3,0.2,0.6,0.6,0.8,1c0.3,0.6,0.6,1.2,0.6,1.7c0.1,0.4,0,0.9,-0.2,1.2c-0.2,0.4,-0.4,0.8,-0.5,1.2c-0.1,0.3,-0.3,0.8,-0.3,1.1c-0.1,0.7,-0.3,1.2,-0.5,1.7c-0.3,0.4,-0.6,0.7,-0.9,0.9c-2.1,1.2,-4.1,2.4,-6.2,3.6c-0.1,0.4,-0.3,0.8,-0.5,1.1c-0.2,0.2,-0.4,0.4,-0.7,0.5c-0.5,1.2,-1.3,2.3,-2.2,3.1c-0.9,0.9,-2.1,1.6,-3.4,2.2c-0.1,0.3,-0.5,0.7,-1.1,1.2c-0.6,0.4,-1.6,0.9,-2.7,1.5c-0.1,0.2,-0.3,0.5,-0.5,0.6c-0.1,0.2,-0.4,0.4,-0.6,0.5c-1.9,1,-3.8,2.1,-5.7,3.2c-0.2,0.4,-0.6,0.9,-0.9,1.2c-0.4,0.3,-0.8,0.6,-1.3,0.8c-2.5,1.5,-5.1,3,-7.8,4.5c0,0.4,0,0.9,0.1,1.4c-1.2,0.6,-2.3,1.3,-3.5,2c-0.2,-0.1,-0.3,-0.2,-0.5,-0.3c0,-0.6,0,-1.3,0,-1.9c-0.8,0.5,-1.7,0.9,-2.5,1.4c-0.1,0.1,-0.3,0.2,-0.3,0.3c-0.1,0.2,-0.2,0.4,-0.2,0.5c0,0.2,0,0.4,0,0.6c-0.6,0.4,-1.2,0.7,-1.8,1.1c-1.6,0.9,-3.4,1.3,-5.1,1.2c-1.8,-0.1,-3.6,-0.8,-5.5,-1.9c-1.2,-0.7,-2.5,-1.5,-3.8,-2.3c-0.6,-1,-0.9,-2.2,-0.9,-3.5c0,-1.3,0.4,-2.8,1,-4.4c0.2,-0.4,0.4,-0.7,0.6,-1c0.2,-0.4,0.3,-0.7,0.5,-0.9c-0.4,-0.2,-1.2,-0.5,-2.1,-0.7c-0.9,-0.2,-2,-0.4,-3.3,-0.6c-2.4,-0.7,-4.6,-1.4,-6.3,-2c-1.7,-0.6,-3.1,-1.3,-4,-2c-0.5,-0.4,-1.1,-0.6,-1.5,-0.7c-0.4,0,-0.9,0.1,-1.2,0.3c-1.3,0.6,-2.6,0.9,-3.5,1c-0.9,0.1,-1.7,0,-2.3,-0.3c-2.7,-1.6,-5.5,-3.1,-8.2,-4.7c-0.2,-0.2,-0.3,-0.4,-0.5,-0.7c-0.4,-0.1,-0.8,-0.3,-1.2,-0.6c-0.8,-1,-1.2,-2.3,-1.2,-3.9c-0.1,-1.5,0.2,-3.3,0.8,-5.2c0.2,-0.4,0.3,-0.7,0.5,-1.1c0.4,-0.3,0.7,-0.7,1,-1.2c0.2,-0.5,0.4,-1,0.5,-1.6c0.4,-0.5,0.8,-1,1.2,-1.5c2.9,-1.7,5.9,-3.4,8.9,-5.1c0.3,0,0.8,-0.2,1.2,-0.4c0.4,-0.2,0.8,-0.6,1.1,-1.1c1,-0.5,1.9,-1,2.9,-1.5c0.2,-0.2,0.6,-0.3,0.9,-0.3c0.3,0,0.7,0.1,1,0.2c3,1.6,6,3.3,9.1,4.9c0.5,0.4,1,1.1,1.4,2c0.4,1,0.8,2.3,1,3.9c0.1,0.7,0.2,1.4,0.4,2.2c-0.2,1.3,-0.5,2.4,-0.8,3.4c-0.3,1,-0.8,1.8,-1.2,2.4c2.1,0.5,3.9,1.1,5.3,1.6c1.5,0.4,2.7,1,3.5,1.5c0.8,0.3,1.6,0.6,2.3,0.6c0.7,0.1,1.3,-0.1,1.7,-0.3c0.3,-0.2,0.6,-0.3,0.9,-0.3c0.2,0,0.4,0,0.6,0.2c0.5,-0.4,0.9,-0.6,1.2,-0.8c0.3,-0.1,0.6,0,0.8,0.1c0.9,0.5,1.9,1,2.8,1.6c0.6,-0.4,1.3,-0.8,1.9,-1.2c0.5,-0.1,0.9,-0.1,1.3,-0.1c0.3,0.1,0.5,0.3,0.7,0.6c3.6,-2.1,7.2,-4.2,10.8,-6.3c0.3,0,0.6,-0.1,0.8,-0.2c0.1,-0.1,0.2,-0.2,0.2,-0.3c1.2,-0.7,2.5,-1.4,3.7,-2.1c0.1,-0.1,0.4,-0.2,0.5,-0.2c0.2,0,0.5,0,0.6,0c0.1,-0.2,0.4,-0.5,0.9,-0.7c0.5,-0.2,1.2,-0.6,2.2,-0.8c0.7,-0.3,1.4,-0.5,2.1,-0.5c0.7,0,1.5,0,2.2,0c0.2,-0.1,0.6,-0.3,1,-0.3c0.3,0,0.7,0.1,1.1,0.1c2,-1.1,4.1,-2.3,6.2,-3.6c0.2,-0.1,0.5,-0.2,0.8,-0.2c0.2,0,0.5,0,0.7,0Z" class="g10_3" />
<path d="M129.5,247.4c0,-0.1,-0.2,-0.3,-0.4,-0.4c-0.2,-0.1,-0.5,-0.3,-0.8,-0.5c-1.2,-0.7,-2.3,-1.4,-3.5,-2c-0.8,-1,-1.3,-2.4,-1.3,-4.3c0,-1.8,0.5,-3.8,1.3,-5.7c0.5,-0.5,0.7,-0.8,1,-1.4c0.4,-0.6,0.5,-1,0.6,-1.6c0.4,-0.5,0.7,-1,1.1,-1.4c2.9,-1.7,5.9,-3.4,8.9,-5.2c1.3,0.1,2.4,-1.3,2.4,-1.3c0.9,-0.6,1.8,-1.1,2.8,-1.7c0.7,-0.4,1.3,-0.4,1.7,-0.2c3.1,1.7,6.2,3.4,9.4,5.1" class="g9_3" />
<path d="M134.6,250.4c-2.7,-1.6,-5.4,-3.2,-8.2,-4.8c0,-0.1,0,-0.2,-0.1,-0.2" class="g9_3" />
<path d="M136.5,235.2l14.4,-8.3" class="g8_3" />
<path d="M150.9,226.9c0.6,-0.4,1.2,-0.4,1.6,-0.2" class="g8_3" />
<path d="M136.5,235.2c-1.3,1.6,-2.3,3.3,-3,5c-0.6,1.7,-1,3.4,-1.1,5.3c0.1,1.7,0.5,3,1.1,3.9c0.3,0.3,0.5,0.6,0.8,0.8" class="g8_3" />
<path d="M212.4,229.6c0.7,0.1,1.3,0.2,1.9,0.3c0.7,0,1.5,0.7,2,1.6c0.6,1,0.7,2,0.4,2.6c-0.2,0.5,-0.5,1.1,-0.7,1.7" class="g9_3" />
<path d="M212.9,229.8c0.9,0.3,1.8,1.1,2.5,2.2c0.7,1.2,0.9,2.5,0.7,3.4" class="g8_3" />
<path d="M210.7,229.1c0.6,0.2,1.3,0.4,2,0.6c0.9,0.3,1.9,1.2,2.6,2.4c0.7,1.3,1,2.6,0.7,3.5c-0.1,0.7,-0.3,1.3,-0.4,2" class="g9_3" />
<path d="M202.6,232.9c2,-1.2,4.1,-2.4,6.1,-3.6c0.6,-0.3,1.3,-0.4,2,-0.2" class="g9_3" />
<path d="M212,229.7c0.9,0.7,1.8,1.7,2.5,2.9c0.7,1.2,1.1,2.5,1.1,3.6" class="g8_3" />
<path d="M215.6,237.6c-0.2,0.7,-0.6,1.2,-1.1,1.6c-2.1,1.2,-4.2,2.4,-6.3,3.6" class="g9_3" />
<path d="M200.7,233.2c1.7,0.3,3.8,2,5.1,4.4c1.5,2.4,1.8,5,1.3,6.6" class="g8_3" />
<path d="M193.6,235c2.3,-1.2,5.9,0.9,8.1,4.8c2.2,3.8,2.2,8,0,9.4" class="g8_3" />
<path d="M201.8,249.6c-0.1,0.1,-0.2,0.1,-0.4,0.2" class="g9_3" />
<path d="M193.3,234.7c2.4,-1.3,6.2,0.8,8.6,5c2.3,4.1,2.3,8.5,-0.1,9.9" class="g8_3" />
<path d="M187.7,237.7c0.2,-0.1,0.3,-0.2,0.4,-0.3c0.2,-0.1,0.3,-0.2,0.5,-0.3c0.9,-0.6,1.9,-1.1,2.8,-1.7c2.5,-1.4,6.5,0.9,8.9,5.2c2.5,4.2,2.5,8.8,0,10.2c-0.9,0.6,-1.9,1.1,-2.8,1.7" class="g9_3" />
<path d="M188.2,237.7c0.1,-0.1,0.2,-0.2,0.3,-0.3c2.4,-1.3,6.3,0.9,8.6,5c2.1,3.6,2.4,7.5,0.8,9.3" class="g8_3" />
<path d="M205.1,231.4c1.5,-0.9,4.1,0.6,5.7,3.3c1.5,2.7,1.5,5.7,0,6.6" class="g8_3" />
<path d="M188.6,237.1c2.5,-1.5,6.5,0.8,8.9,5.1c2.5,4.2,2.5,8.9,0,10.3" class="g8_3" />
<path d="M189.2,252.2c0.7,-0.4,1.4,-0.5,1.9,-0.2c0.5,0.3,0.8,0.9,0.8,1.7" class="g8_3" />
<path d="M191.9,253.7c0,0.8,-0.3,1.8,-0.8,2.7c-0.5,0.9,-1.2,1.6,-1.9,2" class="g9_3" />
<path d="M189.2,258.4l-8.4,4.8" class="g9_3" />
<path d="M180.8,263.2l-3.4,2" class="g8_3" />
<path d="M189.2,252.2l-3.6,2" class="g8_3" />
<path d="M185,254.6l-3.6,2.1" class="g8_3" />
<path d="M180.8,257.1l-3.2,1.8" class="g8_3" />
<path d="M183.7,260.1c0.2,0,0.6,-0.1,0.8,-0.2c0.8,-0.5,1.5,-0.9,2.3,-1.3c0.4,-0.3,0.8,-0.7,1.1,-1.3c0.6,-0.9,0.7,-1.8,0.4,-2.4" class="g8_3" />
<path d="M188.3,254.9c-0.1,-0.1,-0.2,-0.2,-0.4,-0.3c-0.3,-0.1,-0.7,-0.1,-1.1,0.1c-0.7,0.5,-1.5,0.9,-2.3,1.3c-0.4,0.3,-0.8,0.7,-1.1,1.3c-0.7,1.1,-0.7,2.3,0,2.7c0.1,0,0.2,0.1,0.3,0.1" class="g8_3" />
<path d="M184,258.8c0.2,0.1,0.3,0.2,0.5,0.3c0.3,0.2,0.7,0.2,1.2,-0.1c0.3,-0.1,0.6,-0.3,0.9,-0.5c0.4,-0.3,0.8,-0.7,1.1,-1.2c0.7,-1.1,0.7,-2.3,0,-2.7" class="g8_3" />
<path d="M185.1,255.8c-0.2,0.2,-0.4,0.4,-0.6,0.7c-0.6,1.1,-0.6,2.2,0,2.6" class="g8_3" />
<path d="M183.2,259.8c0.2,0,0.5,-0.1,0.7,-0.3c0.2,-0.1,0.5,-0.2,0.7,-0.4" class="g8_3" />
<path d="M187.7,255.8c0,-0.3,-0.1,-0.5,-0.3,-0.7c-0.2,-0.1,-0.6,-0.1,-0.9,0.1c-0.2,0.2,-0.5,0.3,-0.8,0.5c-0.3,0.2,-0.6,0.5,-0.9,0.9c-0.5,0.8,-0.5,1.7,0,2c0.1,0.1,0.2,0.1,0.4,0.1" class="g8_3" />
<path d="M185.2,258.7c0.2,0,0.3,0,0.5,-0.2" class="g8_3" />
<path d="M186.5,258.1c0.3,-0.2,0.7,-0.5,0.9,-1c0.2,-0.2,0.3,-0.6,0.3,-0.9" class="g8_3" />
<path d="M183.7,256.7c-0.3,0.9,-0.2,1.8,0.3,2.1" class="g8_3" />
<path d="M184.5,257.9c0.1,0.1,0.1,0.3,0.3,0.3c0.2,0.1,0.4,0.1,0.7,-0.1c0.2,-0.1,0.5,-0.2,0.7,-0.4c0.3,-0.1,0.5,-0.4,0.7,-0.8c0.4,-0.6,0.4,-1.4,0,-1.6c0,-0.1,-0.1,-0.1,-0.2,-0.1" class="g8_3" />
<path d="M188.2,255.6l0.2,0.1l3.5,-2l6.5,-4.7" class="g8_3" />
<path d="M188.3,250.8l-3,1.8" class="g8_3" />
<path d="M188.3,250.8c1.2,-0.2,2,-0.1,2.6,0.4c0.6,0.5,0.9,1.3,1,2.5" class="g8_3" />
<path d="M157.9,257.2c0.6,-1,1.2,-1.9,1.7,-2.6c0.6,-0.7,1.1,-1.3,1.6,-1.7c8.7,-5.1,17.5,-10.1,26.2,-15.2c1.6,-0.1,3.2,0.3,4.8,1.2c1.7,1,3.3,2.4,4.9,4.5c1.7,3.9,1.7,7.7,0,9.7c-2,1.1,-4.1,2.3,-6.2,3.5" class="g9_3" />
<path d="M197.1,243.4l-13.3,7.7l1.9,3.1" class="g8_3" />
<path d="M185.2,248.1c-1.1,-1.2,-2.2,-2.1,-3.4,-2.8c-1.1,-0.7,-2.1,-1.1,-3.2,-1.3c-0.2,0,-0.4,0,-0.1,-0.3c3.1,-1.8,6.2,-3.6,9.3,-5.4c0.4,-0.1,0.5,-0.1,0.6,-0.1c1.1,0.1,2.2,0.5,3.4,1.2c1.2,0.7,2.2,1.7,3.4,2.9c0.1,0.1,0.4,0.3,0,0.6c-3.1,1.7,-6.2,3.5,-9.3,5.3c-0.4,0.3,-0.7,-0.1,-0.7,-0.1Z" class="g8_3" />
<path d="M143.5,250.3c-1.1,-0.6,-1.1,-2.8,0,-4.8c0.6,-0.9,1.3,-1.7,2.1,-2.2c0.3,-0.2,0.7,-0.2,1,-0.2c0.4,0,0.8,0.2,1.2,0.4c2.4,1,4.6,1.9,6.8,2.6c2.1,0.7,4.1,1.3,6,1.7c0.5,0.1,1.2,0.2,1.9,0.2c0.6,0,1.4,-0.1,2.1,-0.2c0.9,-0.2,1.7,-0.2,2.3,-0.1c0.7,0.1,1.2,0.5,1.6,1" class="g8_3" />
<path d="M158.9,255.5c-0.3,-0.1,-0.8,-0.4,-1.4,-0.5c-0.7,-0.2,-1.5,-0.4,-2.4,-0.6c-2.7,-0.6,-5,-1.2,-7.1,-2c-2.1,-0.8,-3.9,-1.7,-5.5,-2.6" class="g9_3" />
<path d="M167.8,243.9c-0.1,0,-0.2,-0.1,-0.2,-0.1c-0.3,-0.2,-0.7,-0.1,-1.1,0.1c-0.5,0.3,-0.9,0.5,-1.6,0.5c-0.6,0,-1.4,-0.2,-2.3,-0.5c-1.5,-0.8,-3.1,-1.5,-4.9,-2.1c-1.7,-0.6,-3.5,-1,-5.5,-1.5c-0.8,-0.1,-1.4,-0.3,-1.7,-0.6c-0.3,-0.3,-0.4,-0.5,-0.3,-0.9" class="g9_3" />
<path d="M126.4,231.5l4.9,2.8" class="g8_3" />
<path d="M124.8,234.5l4.8,2.7" class="g8_3" />
<path d="M131.3,234.3c0.7,0.4,0.9,1.4,0.5,2.2c-0.5,0.8,-1.5,1.2,-2.2,0.7" class="g8_3" />
<path d="M136.5,235.2l-8.9,-5.1" class="g8_3" />
<path d="M138.8,223.6c1.7,1,3.5,2,5.3,3.1c0.7,0.3,0.7,0.9,0,1.3c-0.7,0.4,-1.7,0.4,-2.4,0c-1.8,-1,-3.5,-2,-5.3,-3.1" class="g8_3" />
<path d="M152.7,226.8c0.6,0.3,1.2,1.1,1.7,2.5c0.5,1.4,0.8,3.2,1.1,5.5c-0.4,2.3,-0.9,4,-1.6,5.3c-0.1,0.1,-0.2,0.3,-0.3,0.5" class="g9_3" />
<path d="M142.4,249.7c-0.5,-0.3,-1.1,-0.4,-1.6,-0.4c-0.5,0,-1.1,0.2,-1.6,0.5" class="g9_3" />
<path d="M141.5,249.4c-1.7,0.8,-3.2,1.3,-4.3,1.5c-1.1,0.1,-2,0,-2.6,-0.5" class="g9_3" />
<path d="M173.2,261.4c-1.3,0.7,-1.8,2.4,-1.8,4.2c0,1.7,0.5,2.8,1.8,2.1" class="g8_3" />
<path d="M157.9,257.2c-0.8,1.3,-1.1,3.1,-1.1,4.8c0,1.7,0.3,3,1.1,3.4c1.4,0.8,2.8,1.6,4.2,2.4" class="g9_3" />
<path d="M152.4,229.3c-0.5,1.4,-1.1,2.8,-1.4,4.3c-0.4,1.6,-0.7,3.2,-0.8,5" class="g8_3" />
<path d="M136.3,236.2c0.4,0.2,0.7,0.6,0.9,0.8c0.2,0.3,0.4,0.7,0.5,1.1c0.3,1.6,0.9,2.9,1.6,4c0.7,1,1.6,1.9,2.6,2.4" class="g8_3" />
<path d="M142.4,249.7c-1.1,-0.7,-1.1,-2.8,0,-4.8c0.6,-1,1.3,-1.8,2.1,-2.2c1.4,-0.8,2.9,-1.7,4.4,-2.5c0.7,-0.5,1.5,-0.5,2,-0.2" class="g8_3" />
<path d="M142.1,249.5c-1.1,-0.6,-1.1,-2.8,0,-4.7c0.6,-1.1,1.4,-1.8,2.1,-2.2c1.5,-0.9,2.9,-1.7,4.4,-2.6c0.7,-0.4,1.5,-0.5,2.1,-0.2" class="g8_3" />
<path d="M151,240c0,-0.1,0.1,-0.3,0.2,-0.4c0.1,-0.1,0.3,-0.3,0.4,-0.4c0.5,-0.4,1.2,-1,1.7,-1.6c0.6,-0.6,1.3,-1.3,1.9,-1.9c0.1,-0.2,0.1,-0.3,0.2,-0.4c0,-0.1,0.1,-0.1,0.1,-0.2" class="g8_3" />
<path d="M182.9,258.9c-3.9,2.2,-7.7,4.4,-11.5,6.7c-1.7,0.7,-3.5,0.9,-5.2,0.7c-1.7,-0.2,-3.5,-0.8,-5.2,-1.9c-1.4,-0.8,-2.8,-1.6,-4.2,-2.4" class="g8_3" />
<path d="M172.6,244.8c-0.9,-0.5,-1.8,-1,-2.7,-1.5c-0.5,-0.3,-0.9,-0.2,-1.4,0.1c-0.2,0.2,-0.4,0.4,-0.7,0.6" class="g9_3" />
<path d="M176.4,244c0,-0.1,-0.1,-0.2,-0.3,-0.3c-0.4,-0.3,-1.1,-0.3,-1.6,0c-0.5,0.3,-1.1,0.6,-1.6,0.9c-0.2,0.1,-0.4,0.3,-0.4,0.4c0,0.5,0,0.9,0,1.3" class="g9_3" />
<path d="M172.5,245c0,0.2,0.2,0.4,0.4,0.5c0.2,0.1,0.5,0.2,0.7,0.2" class="g8_3" />
<path d="M172.5,246c-0.2,0.1,-0.2,0.3,-0.1,0.4" class="g8_3" />
<path d="M172.5,245.3c-0.3,0.2,-0.6,0.4,-0.9,0.6c-0.3,0.1,-0.6,0.2,-0.9,0.2c-0.2,0,-0.6,0,-0.8,-0.1" class="g8_3" />
<path d="M171.1,246c-0.7,-0.1,-1.3,-0.4,-1.9,-0.7c-0.5,-0.4,-1,-0.9,-1.4,-1.4" class="g8_3" />
<path d="M177.5,265.1c0,-0.1,0,-0.3,0,-0.5c0,-0.1,0,-0.1,-0.1,-0.2" class="g8_3" />
<path d="M181,256.9l-0.2,-0.3l0,-1.3L180.4,255l-3.4,2l0,1.9" class="g9_3" />
<path d="M177,258.9c0,0,-1.7,-1,-1.7,-1" class="g8_3" />
<path d="M180.5,256.8l-2.7,1.6" class="g8_3" />
<path d="M183.8,251.1l1.5,1.5l0.4,1.6" class="g8_3" />
<path d="M181.3,254.4l-8.4,4.8" class="g8_3" />
<path d="M177.1,259.8L175.2,258" class="g8_3" />
<path d="M177,257l0.4,0.2" class="g8_3" />
<path d="M181.3,254.4c0.6,-0.4,1,0,1,0c0,0,0.2,0.1,0.2,0.1" class="g8_3" />
<path d="M181.5,252.5l0,1" class="g8_3" />
<path d="M180.8,255.5c0.6,-0.3,1.2,-0.6,1.8,-1c0,0,0.5,-0.2,0.4,-0.7" class="g9_3" />
<path d="M183,253.8c0,-0.1,-0.1,-0.2,-0.1,-0.2c-0.3,-0.4,-0.5,-0.8,-0.7,-1.2c0,0,-0.3,-0.7,-0.9,-0.4c-2.9,1.7,-5.9,3.4,-8.8,5.1c-0.1,0.1,-0.2,0.2,-0.2,0.2" class="g8_3" />
<path d="M172.3,257.3c-0.3,0.4,-0.1,0.8,-0.1,0.8c0.6,1,1.1,1.9,1.7,2.9c0,0,0,0.6,0,0.6c0.1,0.2,0.2,0.3,0.3,0.3" class="g9_3" />
<path d="M174.2,261.9c0.1,0,0.2,-0.1,0.2,-0.1c0.9,-0.4,1.7,-0.9,2.6,-1.5c0,0,0.4,-0.2,0.5,-0.8c0,-0.2,0,-0.4,0,-0.6c0,-0.1,-0.1,-0.2,-0.1,-0.3c0,-0.4,0,-0.9,0,-1.4c0,0,3.4,-1.9,3.4,-1.9" class="g8_3" />
<path d="M176.8,264.4c0,0,0.2,-0.1,0.2,0.1c0,0.6,0,1.2,0,1.8c0.1,0.1,0.2,0.2,0.4,0.3c1.1,-0.6,2.3,-1.3,3.4,-2c0,0,0,-1.4,0,-1.4" class="g9_3" />
<path d="M177.5,266.5l0,-1" class="g8_3" />
<path d="M182.1,249.3c0.6,-0.4,1.3,-0.7,2,-1.1c0,0,0.2,0.2,0.3,0.3c0.1,0.1,0.2,0.3,0.4,0.4" class="g8_3" />
<path d="M184.8,248.9c-0.7,0.4,-1.4,0.8,-2,1.2c-0.2,-0.1,-0.3,-0.3,-0.4,-0.4c-0.1,-0.1,-0.3,-0.3,-0.4,-0.4" class="g8_3" />
<path d="M181.2,248.5c0.6,-0.4,1.3,-0.8,2,-1.2c0.1,0.1,0.2,0.2,0.3,0.4c0.2,0.1,0.3,0.2,0.4,0.3" class="g8_3" />
<path d="M183.9,248c-0.7,0.4,-1.3,0.8,-2,1.2c-0.1,-0.1,-0.2,-0.3,-0.3,-0.4c-0.2,-0.1,-0.3,-0.2,-0.4,-0.3" class="g8_3" />
<path d="M180.2,247.7c0.6,-0.4,1.3,-0.8,2,-1.2c0.1,0.1,0.2,0.2,0.3,0.3c0.1,0.1,0.3,0.3,0.5,0.4" class="g8_3" />
<path d="M183,247.2c-0.7,0.4,-1.3,0.8,-2,1.2c-0.1,-0.2,-0.3,-0.3,-0.4,-0.4c-0.1,-0.1,-0.3,-0.2,-0.4,-0.3" class="g8_3" />
<path d="M179,246.9c0.7,-0.4,1.4,-0.8,2,-1.2c0.2,0.1,0.3,0.2,0.5,0.3c0.1,0.1,0.3,0.2,0.5,0.4" class="g8_3" />
<path d="M182,246.4c-0.7,0.3,-1.4,0.7,-2,1.1c-0.2,-0.1,-0.3,-0.2,-0.5,-0.3c-0.1,-0.1,-0.3,-0.3,-0.5,-0.3" class="g8_3" />
<path d="M177.8,246.2c0.7,-0.3,1.4,-0.7,2,-1.1c0.1,0,0.3,0.1,0.5,0.2c0.2,0.1,0.3,0.2,0.5,0.3" class="g8_3" />
<path d="M180.8,245.6c-0.6,0.4,-1.3,0.8,-2,1.2c-0.1,-0.1,-0.3,-0.2,-0.4,-0.3c-0.2,-0.1,-0.4,-0.2,-0.6,-0.3" class="g8_3" />
<path d="M176.6,245.8c0.7,-0.4,1.3,-0.8,2.1,-1.2c0.1,0,0.2,0.1,0.4,0.2c0.1,0,0.3,0.1,0.5,0.2" class="g8_3" />
<path d="M179.6,245c-0.7,0.3,-1.3,0.7,-2,1.1c-0.1,0,-0.3,-0.1,-0.4,-0.1c-0.2,-0.1,-0.4,-0.2,-0.6,-0.2" class="g8_3" />
<path d="M175.4,245.5c0.6,-0.3,1.3,-0.7,2,-1.1c0.1,0,0.3,0,0.4,0c0.2,0,0.4,0.1,0.6,0.2" class="g8_3" />
<path d="M178.4,244.6c-0.7,0.3,-1.4,0.7,-2,1.1c-0.1,0,-0.3,-0.1,-0.5,-0.1c-0.1,0,-0.3,-0.1,-0.5,-0.1" class="g8_3" />
<path d="M170.5,256c1.4,-0.8,2.9,-1.6,4.3,-2.5c0.1,0.1,0.2,0.3,0.4,0.4c0.1,0.1,0.2,0.3,0.3,0.4" class="g8_3" />
<path d="M175.5,254.3c-1.4,0.8,-2.9,1.6,-4.3,2.5c-0.1,-0.1,-0.3,-0.3,-0.4,-0.4c-0.1,-0.1,-0.2,-0.3,-0.3,-0.4" class="g8_3" />
<path d="M169.6,255.2c1.5,-0.8,2.9,-1.7,4.4,-2.5c0.1,0,0.2,0.2,0.3,0.3c0.1,0.1,0.2,0.3,0.4,0.4" class="g8_3" />
<path d="M174.7,253.4c-1.5,0.8,-2.9,1.6,-4.4,2.5c-0.1,-0.1,-0.2,-0.3,-0.3,-0.4c-0.2,-0.1,-0.3,-0.2,-0.4,-0.3" class="g8_3" />
<path d="M168.7,254.4c1.4,-0.9,2.8,-1.7,4.3,-2.6c0,0.1,0.2,0.2,0.3,0.3c0.1,0.1,0.3,0.3,0.5,0.4" class="g8_3" />
<path d="M173.8,252.5c-1.5,0.8,-2.9,1.7,-4.4,2.5c-0.1,-0.1,-0.3,-0.3,-0.4,-0.3c-0.1,-0.1,-0.3,-0.3,-0.4,-0.3" class="g8_3" />
<path d="M167.5,253.5c1.4,-0.8,2.8,-1.6,4.3,-2.4c0.2,0,0.3,0.2,0.5,0.2c0.1,0.1,0.3,0.3,0.4,0.4" class="g8_3" />
<path d="M172.7,251.7c-1.4,0.8,-2.9,1.6,-4.3,2.5c-0.1,-0.1,-0.3,-0.2,-0.4,-0.3c-0.2,-0.1,-0.4,-0.3,-0.6,-0.3" class="g8_3" />
<path d="M166.3,252.9c1.4,-0.8,2.9,-1.6,4.3,-2.5c0.1,0,0.3,0.2,0.5,0.2c0.1,0.1,0.3,0.2,0.5,0.3" class="g8_3" />
<path d="M171.6,250.9c-1.4,0.9,-2.9,1.7,-4.3,2.5c-0.1,0,-0.3,-0.1,-0.5,-0.2c-0.1,-0.1,-0.3,-0.2,-0.5,-0.3" class="g8_3" />
<path d="M165.1,252.5c1.4,-0.8,2.9,-1.7,4.3,-2.5c0.1,0,0.3,0.1,0.4,0.1c0.2,0.1,0.4,0.1,0.6,0.2" class="g8_3" />
<path d="M170.4,250.3c-1.5,0.8,-2.9,1.7,-4.4,2.5c-0.1,0,-0.3,-0.1,-0.4,-0.1c-0.2,-0.1,-0.4,-0.2,-0.5,-0.2" class="g8_3" />
<path d="M163.8,252.2c1.5,-0.8,2.9,-1.6,4.4,-2.5c0.1,0,0.3,0.1,0.4,0.1c0.2,0,0.4,0.1,0.5,0.1" class="g8_3" />
<path d="M169.1,249.9c-1.4,0.8,-2.9,1.6,-4.3,2.5c-0.1,0,-0.3,-0.1,-0.5,-0.1c-0.1,0,-0.3,-0.1,-0.5,-0.1" class="g8_3" />
<path d="M212,238.8l-3.7,2.1" class="g8_3" />
<path d="M211.5,240.5l-3.2,1.9" class="g8_3" />
<path d="M211.6,240.2l-3.3,1.9" class="g8_3" />
<path d="M211.9,238.4l-3.6,2.1" class="g8_3" />
<path d="M211.7,237l-3.7,2.2" class="g8_3" />
<path d="M211.5,236.4l-3.7,2.2" class="g8_3" />
<path d="M210.9,235l-3.8,2.1" class="g8_3" />
<path d="M210.5,234.4l-3.7,2.2" class="g8_3" />
<path d="M209.5,233l-3.7,2.2" class="g8_3" />
<path d="M209,232.6l-3.6,2.1" class="g8_3" />
<path d="M208,231.8l-3.6,2.1" class="g8_3" />
<path d="M207.5,231.5l-3.5,2" class="g8_3" />
<path d="M206.2,231.2L203,233" class="g8_3" />
<path d="M205.8,231.2l-3.1,1.8" class="g8_3" />
<path d="M205.2,231.3c1.6,-0.9,4.2,0.6,5.7,3.3c1.6,2.7,1.6,5.7,0,6.6" class="g8_3" />
<path d="M192.9,235c0.1,-0.1,0.2,-0.2,0.4,-0.3c1.3,-0.7,2.7,-1.3,3.8,-1.5c1.2,-0.3,2.4,-0.3,3.4,-0.1c1.8,-1,4.8,0.6,6.6,3.8c1.7,3.1,1.7,6.5,-0.1,7.5c-0.4,1,-1.1,2,-1.9,2.9c-0.9,0.8,-2,1.6,-3.3,2.3" class="g9_3" />
<path d="M177.4,264.4c-0.1,-0.3,-0.4,-0.1,-0.4,-0.1c-0.9,0.5,-1.7,1,-2.6,1.5c0,0,-0.4,0.2,-0.5,0.9c0,0,0,0.5,0,0.5c-0.3,0.2,-0.7,0.4,-1,0.6c-0.8,0.4,-1.5,0.8,-2.3,1.1c-0.7,0.3,-1.5,0.5,-2.2,0.6c-0.7,0.1,-1.6,0.1,-2.7,-0.2c-1,-0.3,-2.2,-0.8,-3.6,-1.5" class="g9_3" />
<path d="M184.5,248.5l0,1" class="g8_3" />
<path d="M183.5,247.5l0,1" class="g8_3" />
<path d="M182.5,246.5l0,1" class="g8_3" />
<path d="M181.5,245.5l0,1" class="g8_3" />
<path d="M179.5,245.5l0,1" class="g8_3" />
<path d="M178.5,244.5l0,1" class="g8_3" />
<path d="M177.5,244.5l0,1" class="g8_3" />
<path d="M174.5,253.5l0,1" class="g8_3" />
<path d="M173.5,252.5l0,1" class="g8_3" />
<path d="M172.5,251.5l0,1" class="g8_3" />
<path d="M171.5,251.5l0,1" class="g8_3" />
<path d="M170.5,250.5l0,1" class="g8_3" />
<path d="M169.5,249.5l0,1" class="g8_3" />
<path d="M168.5,249.5l0,1" class="g8_3" />
<path d="M252.8,231c0.4,0.2,0.7,0.5,1.1,0.7c0,0.4,0,0.8,0,1.3c-0.4,0.2,-0.8,0.4,-1.1,0.5c-0.3,0.1,-0.6,0.2,-0.8,0.2" class="g8_3" />
<path d="M253.9,231.7c-2.8,1.7,-1.3,2.1,-2.7,2.8c-0.6,0.4,-1.2,0.7,-1.9,1.1c0,0.1,-0.2,0.1,-0.3,0.1c-0.1,0,-0.3,0.1,-0.4,0.1" class="g8_3" />
<path d="M252.8,231c-2.8,1.7,-0.6,2.9,-3.5,4.6" class="g8_3" />
<path d="M251.1,232.1c-2.9,1.6,-0.7,2.9,-3.5,4.5c-0.4,0.2,-0.8,0.5,-1.2,0.7c-0.1,0,-0.3,0.1,-0.4,0.1c0,0,-0.2,0.1,-0.3,0.1" class="g8_3" />
<path d="M251.7,231.9c-0.1,0,-0.3,0.1,-0.4,0.1c0,0,-0.2,0.1,-0.2,0.1c-0.4,0.2,-0.8,0.4,-1.2,0.7c-2.9,1.6,-0.7,2.8,-3.5,4.5" class="g8_3" />
<path d="M248.2,233.7c-2.9,1.7,-0.7,2.9,-3.5,4.6c-0.4,0.2,-0.8,0.4,-1.2,0.7c-0.1,0,-0.2,0.1,-0.3,0.1c-0.1,0,-0.3,0.1,-0.3,0.1" class="g8_3" />
<path d="M248.9,233.5c-0.2,0,-0.4,0.1,-0.4,0.1c-0.1,0,-0.3,0.1,-0.3,0.1c-0.4,0.2,-0.8,0.5,-1.2,0.7c-2.8,1.7,-0.6,2.9,-3.5,4.6" class="g8_3" />
<path d="M245.3,235.4c-2.9,1.6,-0.7,2.9,-3.5,4.6c-0.4,0.2,-0.8,0.4,-1.2,0.6c-0.1,0.1,-0.2,0.2,-0.3,0.2c-0.1,0,-0.3,0,-0.3,0" class="g8_3" />
<path d="M246,235.2c-0.2,0,-0.4,0.1,-0.4,0.1c-0.1,0,-0.3,0.1,-0.3,0.1c-0.4,0.2,-0.8,0.5,-1.2,0.7c-2.8,1.6,-0.6,2.9,-3.5,4.5" class="g8_3" />
<path d="M242.5,237c-2.8,1.7,-0.7,2.9,-3.5,4.6c-0.4,0.2,-0.8,0.4,-1.2,0.6c-0.1,0.1,-0.3,0.2,-0.3,0.2c-0.1,0,-0.2,0,-0.3,0" class="g8_3" />
<path d="M243.1,236.8c-0.1,0,-0.3,0.1,-0.4,0.1c0,0,-0.1,0.1,-0.2,0.1c-0.4,0.2,-0.8,0.5,-1.2,0.7c-2.8,1.6,-0.7,2.9,-3.5,4.5" class="g8_3" />
<path d="M239.6,238.7c-2.8,1.6,-0.7,2.9,-3.5,4.6c-0.4,0.2,-0.8,0.4,-1.2,0.6c-0.1,0.1,-0.3,0.1,-0.3,0.1c-0.1,0,-0.2,0.1,-0.3,0.1" class="g8_3" />
<path d="M240.2,238.5c-0.1,0,-0.3,0.1,-0.4,0.1c0,0,-0.1,0.1,-0.2,0.1c-0.4,0.2,-0.8,0.5,-1.2,0.7c-2.8,1.6,-0.7,2.8,-3.5,4.5" class="g8_3" />
<path d="M236.6,240.4c-2.8,1.7,-0.6,2.9,-3.4,4.5c-4.7,2.7,-9.3,5.4,-13.9,8.1c-0.3,0.1,-0.8,-0.1,-1.1,-0.6c-0.3,-0.6,-0.3,-1.1,0,-1.3c6.1,-3.6,12.3,-7.1,18.4,-10.7c0.1,0,0.2,-0.1,0.3,-0.1c0.1,0,0.3,-0.1,0.4,-0.1" class="g8_3" />
<path d="M218.2,251.1c0.1,0,0.3,0,0.4,0.1c0.1,0.1,0.3,0.3,0.4,0.4c0.2,0.3,0.4,0.6,0.4,0.8c0,0.2,0,0.5,-0.1,0.6" class="g8_3" />
<path d="M337.9,224.3l18,10.8" class="g9_3" />
<path d="M335.1,226.1L353,236.8" class="g8_3" />
<path d="M333.7,229.9l17.9,10.7" class="g8_3" />
<path d="M334.1,231.5L353,242.7" class="g9_3" />
<path d="M266.4,267.7l60.9,-36.3c3.3,-2,4.7,-1.1,6.8,0.1" class="g9_3" />
<path d="M267.7,265.5l59.8,-35.8c2.7,-1.6,4.6,-0.7,6.2,0.2" class="g8_3" />
<path d="M266.2,261.8l60.9,-36.2c2.8,-1.7,5.3,-1.1,8,0.5" class="g8_3" />
<path d="M263.5,260.1l59.7,-35.8c6.5,-3.7,9.9,-2.7,14.7,0" class="g9_3" />
<path d="M351.6,240.5c0.7,-0.4,1.9,-2.1,1.4,-3.7" class="g8_3" />
<path d="M353,236.8c0.8,0.5,2.7,-0.6,2.9,-1.7" class="g8_3" />
<path d="M351.6,240.6c0.8,0.1,1.8,0.9,1.4,2.1" class="g8_3" />
<path d="M353,242.7c0.2,-0.6,1.8,-2,2.9,-1.6" class="g9_3" />
<path d="M355.9,241.1c-0.5,-1.1,0.5,-3.8,1.4,-3.9" class="g9_3" />
<path d="M355.9,235.1c0,0.7,0.2,1.8,1.4,2.1" class="g9_3" />
<path d="M267.7,265.5c-0.6,-0.5,-1.9,-2.1,-1.3,-3.8" class="g8_3" />
<path d="M266.4,261.7c-0.9,0.5,-2.7,-0.5,-2.9,-1.6" class="g8_3" />
<path d="M267.7,265.5c-0.8,0.1,-1.7,1,-1.3,2.2" class="g8_3" />
<path d="M266.4,267.7c-0.3,-0.6,-1.9,-2.1,-2.9,-1.7" class="g9_3" />
<path d="M263.5,266c0.4,-1.1,-0.5,-3.8,-1.5,-3.9" class="g9_3" />
<path d="M263.5,260.1c0,0.7,-0.2,1.8,-1.5,2" class="g9_3" />
<path d="M408.5,169.5l118,0" class="g8_3" />
<path d="M253.4,575.2c0.7,1.3,0.8,3.2,0,5.1c-0.6,1.4,-1.5,2.5,-2.6,3.1" class="g9_3" />
<path d="M250.3,573.8c0.6,-0.2,1.3,-0.1,1.8,0.1c0.6,0.3,1,0.7,1.3,1.3" class="g8_3" />
<path d="M250.3,573.8l-4.3,2.1" class="g8_3" />
<path d="M250.7,583.4l-4.7,2.2" class="g9_3" />
<path d="M245.8,585.6l0.2,-9.7l1.8,1.1l-0.1,7.6" class="g8_3" />
<path d="M247.8,577l3,-1.6c0,0,1.3,-0.5,2.5,0.8" class="g8_3" />
<path d="M247.8,577l5.3,3.1" class="g8_3" />
<path d="M268.8,559.8l0,5l-11,4.8" class="g9_3" />
<path d="M257.6,569.8l0,-5.4l11.2,-5" class="g8_3" />
<path d="M257.6,564.4l1.8,1.2" class="g8_3" />
<path d="M259.3,569l0.1,-3.4l9.3,-4.1" class="g8_3" />
<path d="M259.4,565.6l3.1,1.7" class="g8_3" />
<path d="M268.2,577.6l0,4.6l-9.9,4.3" class="g9_3" />
<path d="M258,586.6l0,-4.8l10.2,-4.5" class="g8_3" />
<path d="M258,581.8l1.7,1.1" class="g8_3" />
<path d="M259.6,585.9l0.1,-3l8.3,-3.7" class="g8_3" />
<path d="M259.7,582.9l2.8,1.5" class="g8_3" />
<path d="M286.8,560.3c0.7,1.3,0.7,3.3,0,5.2c-0.6,1.4,-1.6,2.5,-2.6,3.1" class="g9_3" />
<path d="M283.7,559c0.6,-0.2,1.2,-0.2,1.8,0.1c0.6,0.3,1,0.7,1.3,1.2" class="g8_3" />
<path d="M283.7,559l-4.3,2.1" class="g8_3" />
<path d="M284.1,568.6l-4.7,2.2" class="g9_3" />
<path d="M279.2,570.7l0.2,-9.6l1.8,1.1l-0.1,7.6" class="g8_3" />
<path d="M281.2,562.2l3,-1.6c0,0,1.3,-0.6,2.5,0.8" class="g8_3" />
<path d="M281.2,562.2l5.3,3.1" class="g8_3" />
<path d="M302.2,544.9l0,5.1l-11,4.8" class="g9_3" />
<path d="M290.9,554.9l0,-5.4l11.3,-4.9" class="g8_3" />
<path d="M290.9,549.5l1.8,1.3" class="g8_3" />
<path d="M292.7,554.1l0,-3.3l9.3,-4.1" class="g8_3" />
<path d="M292.7,550.8l3.1,1.7" class="g8_3" />
<path d="M301.6,562.8l0,4.5l-9.9,4.4" class="g9_3" />
<path d="M291.4,571.8l0,-4.9l10.2,-4.4" class="g8_3" />
<path d="M291.4,566.9l1.6,1.2" class="g8_3" />
<path d="M293,571.1l0,-3l8.4,-3.7" class="g8_3" />
<path d="M293,568.1l2.8,1.5" class="g8_3" />
<path d="M365.5,507.5l0,43" class="g8_3" />
<path d="M383.2,499.3l0.1,43.3" class="g8_3" />
<path d="M368,503.6l12.6,-5.5" class="g8_3" />
<path d="M368.2,551.5L380.7,546" class="g8_3" />
<path d="M368,503.6c0,0,-1.9,0.9,-2.4,3.6" class="g8_3" />
<path d="M383.2,499.3c0,0,0.2,-2.1,-2.6,-1.2" class="g8_3" />
<path d="M365.6,550.3c0,0,0,1.9,2.6,1.2" class="g8_3" />
<path d="M383.3,542.6c0,0,0.1,1.9,-2.6,3.4" class="g8_3" />
<path d="M255.5,628.4c0.7,0.5,1,1.1,1,1.7c0,1.7,-2.7,3.1,-6.1,3.1c-3.4,0,-6.2,-1.4,-6.2,-3.1c0,-0.6,0.4,-1.2,1,-1.7" class="g8_3" />
<path d="M245.2,628.4c1.1,-0.9,3,-1.4,5.2,-1.4c2.2,0,4.1,0.5,5.1,1.4" class="g9_3" />
<path d="M255.3,628.2c0.3,1.8,-2.2,3,-5,3c-2.8,0,-5.3,-1.2,-4.8,-3" class="g8_3" />
<path d="M249.5,628.1l1.4,0l0.6,0.7l-0.5,0.7l-1.4,0L249,628.9Z" class="g8_3" />
<path d="M283.7,644.4c0.6,0.5,1,1,1,1.7c0,1.7,-2.8,3.1,-6.2,3.1c-3.4,0,-6.1,-1.4,-6.1,-3.1c0,-0.7,0.4,-1.2,1,-1.7" class="g8_3" />
<path d="M273.4,644.4c1.1,-0.9,3,-1.5,5.1,-1.5c2.2,0,4.1,0.6,5.2,1.5" class="g9_3" />
<path d="M283.4,644.2c0.4,1.8,-2.1,3,-4.9,3c-2.9,0,-5.3,-1.2,-4.9,-3" class="g8_3" />
<path d="M277.6,644.1l1.5,0l0.5,0.6l-0.5,0.8l-1.4,0l-0.5,-0.6Z" class="g8_3" />
<path d="M424.4,555.4c0.6,0.5,0.9,1.1,0.9,1.7c0,1.7,-2.7,3.1,-6.1,3.1c-3.4,0,-6.1,-1.4,-6.1,-3.1c0,-0.7,0.3,-1.2,1,-1.7" class="g8_3" />
<path d="M414.1,555.4c1.1,-0.9,3,-1.4,5.1,-1.4c2.2,0,4.1,0.5,5.2,1.4" class="g9_3" />
<path d="M424.1,555.2c0.4,1.8,-2.1,3,-5,3c-2.8,0,-5.3,-1.2,-4.8,-3" class="g8_3" />
<path d="M418.3,555.1l1.4,0l0.6,0.7l-0.5,0.7l-1.4,0l-0.6,-0.6Z" class="g8_3" />
<path d="M452.6,571.5c0.6,0.5,0.9,1,0.9,1.7c0,1.7,-2.7,3.1,-6.1,3.1c-3.4,0,-6.1,-1.4,-6.1,-3.1c0,-0.7,0.3,-1.2,0.9,-1.7" class="g8_3" />
<path d="M442.2,571.5c1.1,-0.9,3,-1.4,5.2,-1.4c2.2,0,4.1,0.5,5.2,1.4" class="g9_3" />
<path d="M452.3,571.3c0.4,1.8,-2.1,3,-5,3c-2.8,0,-5.3,-1.2,-4.8,-3" class="g8_3" />
<path d="M446.5,571.2l1.4,0l0.6,0.6l-0.5,0.8l-1.4,0L446,572Z" class="g8_3" />
<path d="M406.1,483.1L229.7,559.8" class="g9_3" />
<path d="M409.5,533.5l0,-46" class="g8_3" />
<path d="M229.6,617.6L404.8,541.4" class="g8_3" />
<path d="M226,563l0,57" class="g9_3" />
<path d="M412.5,535.5l0,-47" class="g8_3" />
<path d="M480.5,578.9l0,-59.2" class="g9_3" />
<path d="M242.5,621.6L412.1,548.2" class="g8_3" />
<path d="M242.4,625.8L411.6,552.3" class="g8_3" />
<path d="M310.3,652.2l17.5,-7.5m53.8,-23.4l76.8,-33.1" class="g9_3" />
<path d="M465.8,588l12.5,-5.4" class="g9_3" />
<path d="M382.6,624.2l-49.1,21.1" class="g9_3" />
<path d="M295.8,661.8L313.7,654" class="g9_3" />
<path d="M241.4,632.2l51.7,29.6" class="g9_3" />
<path d="M424.4,552.8l52,29.6" class="g8_3" />
<path d="M425.3,549.1l50.6,28.8" class="g8_3" />
<path d="M418,541.7l61.8,34.8" class="g8_3" />
<path d="M417.8,483.9l61.6,34.7" class="g9_3" />
<path d="M227.8,623.2l12.1,7.1" class="g9_3" />
<path d="M239.9,625.2l0,4.5" class="g9_3" />
<path d="M479.8,576.5l-2.6,1.5c0,0,-0.6,0.1,-1.3,-0.1" class="g9_3" />
<path d="M479.8,576.5c0,0,0.5,0,0.7,-0.9" class="g8_3" />
<path d="M480.5,578.9c0,0,0.2,2.6,-2.2,3.7" class="g9_3" />
<path d="M229.6,617.6c-0.4,0.2,-2.1,1,-2.7,2.1c-0.5,0.9,0,2.1,0,2.3" class="g8_3" />
<path d="M226.2,620.2c0,0,0.1,1.9,1.6,3" class="g9_3" />
<path d="M404.8,541.4c0,0,6.4,-2.3,13.2,0.3" class="g8_3" />
<path d="M412.1,548.2c0,0,6.4,-2,13.2,0.9" class="g8_3" />
<path d="M411.6,552.3c0,0,6.4,-2.2,12.8,0.5" class="g8_3" />
<path d="M406.1,483.1c0,0,6.2,-1.6,11.7,0.8" class="g9_3" />
<path d="M229.7,559.8c0,0,-3,0.8,-3.5,3.7" class="g9_3" />
<path d="M242.5,621.6c0,0,-2.7,1.1,-2.6,3.6" class="g8_3" />
<path d="M242.4,625.8c0,0,-1.8,0.5,-2.5,2.8" class="g8_3" />
<path d="M239.9,629.7c0,0,0,1.7,1.5,2.5" class="g9_3" />
<path d="M293.1,661.8c0,0,1.2,0.6,2.7,0" class="g9_3" />
<path d="M315.2,650.3c0,0,0.3,2.9,-1.5,3.7" class="g9_3" />
<path d="M384.5,620.3c0,0,-0.2,3.1,-1.9,3.9" class="g9_3" />
<path d="M313.3,654.2c0,0,-4.4,-0.3,-3.3,-1.7" class="g8_3" />
<path d="M327.8,644.7c0,0,1.6,-0.5,2.5,0.5c1,0.9,2.6,0.4,3.2,0.1" class="g9_3" />
<path d="M458.4,588.2c0,0,2.6,-1.1,3.6,-0.1c0.9,1,3.1,0.2,3.8,-0.1" class="g9_3" />
<path d="M329.7,644.9l-10.8,4.7l-2.2,-0.1" class="g9_3" />
<path d="M382.6,624.2c0,0.2,-3.9,0.1,-1.3,-3" class="g8_3" />
<path d="M490.2,532.3c0.6,0.4,0.9,1,0.9,1.6c0,1.8,-2.7,3.2,-6.1,3.2c-1.8,0,-3.4,-0.4,-4.5,-1" class="g8_3" />
<path d="M480.6,531.8c1.1,-0.6,2.7,-1,4.4,-1c2.2,0,4.1,0.6,5.2,1.5" class="g9_3" />
<path d="M489.9,532.1c0.4,1.8,-2.1,3,-5,3c-1.8,0,-3.5,-0.5,-4.3,-1.4" class="g8_3" />
<path d="M484.1,532l1.4,0l0.6,0.6l-0.5,0.8l-1.4,0l-0.6,-0.7Z" class="g8_3" />
<path d="M479.4,518.6c0,0,0.8,0.1,1.1,1.1" class="g9_3" />
<path d="M482.3,520.3l15.6,9.1" class="g8_3" />
<path d="M482.3,524.4l15.6,9" class="g8_3" />
<path d="M499.2,530.9l0,4.6" class="g9_3" />
<path d="M480.5,545l17.1,-7.5" class="g9_3" />
<path d="M499.2,535.5c0,0,0,1.5,-1.6,2" class="g9_3" />
<path d="M497.9,529.4c0,0,1.2,0.4,1.4,1.4" class="g8_3" />
<path d="M497.9,533.4c0,0,0.7,0.3,1.3,1.1" class="g8_3" />
<path d="M480.7,524.4c0,0,0.7,-0.4,1.6,0" class="g8_3" />
<path d="M480.8,519.8c0,0,0.5,-0.1,1.5,0.5" class="g8_3" />
<path d="M476.4,582.4c0,0,0.9,0.4,1.7,0.1" class="g8_3" />
<path d="M126.6,972.2l2,-413" class="g9_3" />
<path d="M823.7,290.2L128.5,593.1" class="g8_3" />
<path d="M128.6,559.2L771.6,279" class="g9_3" />
<path d="M154,994.1l2,-413" class="g8_3" />
<path d="M418.6,730.1l276,156.6l24.1,13.7" class="g8_3" />
<path d="M297.5,661.3l121.1,68.8" class="g8_3" />
<path d="M156,581.1l69.9,39.6" class="g8_3" />
<path d="M737.1,1057.7l0.2,-49.8" class="g8_3" />
<path d="M741.5,909.4L760.9,901l84.7,-36.2" class="g8_3" />
<path d="M361.5,639.2c4,2.2,8.4,-5,7,-8.9" class="g8_3" />
<path d="M362.1,637.1c2.7,1.5,5.7,-3.6,4.5,-6.1" class="g8_3" />
<path d="M369.5,629.9c4.6,2.5,-0.6,13.4,-5.5,10.7c-1.7,-0.9,-2.1,-1.1,-2,-1c-0.4,-0.2,-1.1,-0.7,-1.3,-1.4" class="g9_3" />
<path fill-rule="evenodd" d="M330,878l140,0l0,-22l-140,0Z" class="g12_3" />
<path d="M368,888l-25,0" class="g13_3" />
<path d="M368,904l-25,0" class="g13_3" />
<path d="M368,921l-25,0" class="g13_3" />
<path d="M368,921l-25,0" class="g14_3" />
<path d="M368,904l-25,0" class="g15_3" />
<path d="M355.8,636c2.3,1.3,4.8,-0.5,6.2,-3" class="g8_3" />
<path d="M365.5,631.5c-0.6,3.7,-4,7.7,-7.1,6c-1.7,-0.9,-2.1,-1.1,-2,-1.1c-0.2,-0.1,-0.5,-0.2,-0.8,-0.5" class="g9_3" />
<path d="M367.6,642.4c4.8,2.7,10.2,-8.2,5.5,-10.7" class="g8_3" />
<path d="M368.3,640.4c3.1,1.7,6.6,-5.4,3.5,-7" class="g8_3" />
<path d="M371,631.2c0.7,-0.2,1.4,0.2,1.8,0.3c0,0,1.8,1,2.8,1.6c4.7,2.6,-0.6,13.5,-5.5,10.8c-1.7,-0.9,-2,-1.1,-2,-1c-0.4,-0.2,-1.1,-0.7,-1.3,-1.5" class="g9_3" />
<path d="M373.4,645.2c4.9,2.7,10.2,-8.2,5.5,-10.7" class="g8_3" />
<path d="M374.1,643.2c3.1,1.7,6.6,-5.4,3.5,-7" class="g8_3" />
<path d="M376.8,634c0.7,-0.2,1.4,0.2,1.8,0.3c0,0,1.8,1,2.8,1.6c4.7,2.6,-0.6,13.5,-5.5,10.8c-1.6,-0.9,-2,-1.1,-1.9,-1c-0.5,-0.2,-1.1,-0.7,-1.4,-1.5" class="g9_3" />
<path d="M379.6,648.3c4.9,2.5,9.9,-8.7,5.1,-11" class="g8_3" />
<path d="M380.2,646.2c3.2,1.6,6.4,-5.6,3.3,-7.1" class="g8_3" />
<path d="M382.6,636.9c0.7,-0.2,1.4,0.1,1.8,0.3c0,0,1.8,0.9,2.9,1.5c4.7,2.4,-0.2,13.4,-5.1,11c-1.8,-0.9,-2.1,-1.1,-2,-1c-0.5,-0.2,-1.2,-0.7,-1.4,-1.4" class="g9_3" />
<path d="M385.6,650.9c5,2.4,9.7,-8.9,4.9,-11.1" class="g8_3" />
<path d="M386.1,648.7c3.2,1.6,6.3,-5.7,3.2,-7.1" class="g8_3" />
<path d="M388.4,639.4c0.7,-0.2,1.3,0.1,1.7,0.3c0,0,1.9,0.9,3,1.4c4.8,2.3,0.1,13.5,-5,11.1c-1.7,-0.8,-2,-1,-2,-1c-0.4,-0.1,-1.1,-0.6,-1.4,-1.3" class="g9_3" />
<path d="M391.7,653.8c5.1,2.3,9.7,-9,4.8,-11.2" class="g8_3" />
<path d="M392.3,651.6c3.2,1.6,6.2,-5.8,3.1,-7.2" class="g8_3" />
<path d="M394.4,642.3c0.7,-0.2,1.4,0.1,1.8,0.2c0,0,1.8,0.9,2.9,1.4c4.8,2.3,0.3,13.5,-4.8,11.2c-1.7,-0.8,-2.1,-1,-2,-1c-0.4,-0.1,-1.1,-0.5,-1.4,-1.3" class="g9_3" />
<path d="M397.8,656.2c5,2.2,9.5,-9.2,4.6,-11.3" class="g8_3" />
<path d="M398.3,654c3.2,1.5,6.1,-5.9,2.9,-7.2" class="g8_3" />
<path d="M400.2,644.6c0.7,-0.2,1.4,0.1,1.8,0.3c0,0,1.9,0.8,3,1.3c4.8,2.2,0.5,13.4,-4.6,11.2c-1.7,-0.7,-2.1,-0.9,-2,-0.9c-0.5,-0.1,-1.2,-0.5,-1.5,-1.3" class="g9_3" />
<path d="M403.8,658.6c5,2.3,9.5,-9.1,4.6,-11.2" class="g8_3" />
<path d="M404.3,656.4c3.2,1.5,6.1,-5.8,3,-7.2" class="g8_3" />
<path d="M406.3,647.1c0.7,-0.3,1.4,0.1,1.8,0.2c0,0,1.9,0.9,2.9,1.4c4.9,2.2,0.4,13.4,-4.6,11.1c-1.8,-0.7,-2.1,-0.9,-2.1,-0.9c-0.4,-0.1,-1.1,-0.5,-1.4,-1.3" class="g9_3" />
<path d="M409.8,660.9c5.1,2.2,9.4,-9.2,4.5,-11.2" class="g8_3" />
<path d="M410.3,658.8c3.3,1.4,6.1,-6,2.9,-7.3" class="g8_3" />
<path d="M412.2,649.4c0.7,-0.3,1.4,0,1.7,0.2c0,0,1.9,0.8,3,1.3c4.9,2.1,0.7,13.4,-4.4,11.2c-1.8,-0.7,-2.2,-0.9,-2.1,-0.8c-0.5,-0.2,-1.2,-0.6,-1.4,-1.3" class="g9_3" />
<path d="M416.1,663.6c5.1,2.2,9.3,-9.3,4.3,-11.3" class="g8_3" />
<path d="M416.5,661.4c3.4,1.4,6.1,-6,2.9,-7.3" class="g8_3" />
<path d="M418.3,652c0.7,-0.2,1.4,0,1.8,0.2c0,0,1.9,0.8,3,1.3c4.9,2,0.8,13.4,-4.3,11.3c-1.8,-0.7,-2.2,-0.9,-2.1,-0.9c-0.5,-0.1,-1.2,-0.5,-1.5,-1.2" class="g9_3" />
<path d="M422.2,665.7c5.2,2.1,9.1,-9.5,4.2,-11.3" class="g8_3" />
<path d="M422.6,663.6c3.4,1.3,5.9,-6.2,2.7,-7.4" class="g8_3" />
<path d="M424.2,654.1c0.7,-0.2,1.4,0,1.8,0.2c0,0,1.9,0.8,3,1.2c5,2,1.1,13.4,-4.1,11.4c-1.8,-0.7,-2.1,-0.9,-2.1,-0.8c-0.4,-0.1,-1.2,-0.5,-1.5,-1.3" class="g9_3" />
<path d="M428.1,668.2c5,2.3,9.5,-9.1,4.6,-11.2" class="g8_3" />
<path d="M428.6,666c3.2,1.5,6.1,-5.8,3,-7.2" class="g8_3" />
<path d="M430.6,656.7c0.7,-0.3,1.4,0.1,1.8,0.2c0,0,1.9,0.9,2.9,1.4c4.9,2.2,0.4,13.4,-4.6,11.1c-1.8,-0.7,-2.1,-0.9,-2.1,-0.9c-0.4,-0.1,-1.1,-0.5,-1.4,-1.3" class="g9_3" />
<path d="M434.1,670.5c5.1,2.2,9.4,-9.2,4.5,-11.2" class="g8_3" />
<path d="M434.6,668.4c3.3,1.4,6.1,-6,2.9,-7.3" class="g8_3" />
<path d="M436.5,659c0.7,-0.3,1.3,0,1.7,0.2c0,0,1.9,0.8,3,1.3c4.9,2.1,0.7,13.4,-4.4,11.2c-1.8,-0.7,-2.2,-0.9,-2.1,-0.8c-0.5,-0.2,-1.2,-0.6,-1.4,-1.3" class="g9_3" />
<path d="M440.4,673.2c5.1,2.2,9.3,-9.3,4.3,-11.3" class="g8_3" />
<path d="M440.8,671c3.4,1.4,6.1,-6,2.8,-7.3" class="g8_3" />
<path d="M442.6,661.6c0.7,-0.3,1.4,0,1.8,0.2c0,0,1.9,0.8,3,1.3c4.9,2,0.8,13.4,-4.3,11.3c-1.8,-0.7,-2.2,-0.9,-2.1,-0.9c-0.5,-0.1,-1.2,-0.5,-1.5,-1.2" class="g9_3" />
<path d="M446.5,675.3c5.2,2.1,9.1,-9.5,4.2,-11.3" class="g8_3" />
<path d="M446.9,673.2c3.4,1.3,5.9,-6.2,2.7,-7.4" class="g8_3" />
<path d="M448.5,663.7c0.7,-0.2,1.4,0,1.8,0.2c0,0,1.9,0.8,3,1.2c5,2,1.1,13.4,-4.1,11.4c-1.8,-0.7,-2.1,-0.9,-2.1,-0.8c-0.4,-0.1,-1.2,-0.5,-1.5,-1.3" class="g9_3" />
<path d="M452.8,677.6c5.2,2.1,9.2,-9.4,4.3,-11.3" class="g8_3" />
<path d="M453.3,675.5c3.3,1.3,5.9,-6.1,2.7,-7.4" class="g8_3" />
<path d="M455,666c0.6,-0.2,1.3,0,1.7,0.2c0,0,1.9,0.8,3,1.2c5,2.1,1,13.4,-4.2,11.4c-1.8,-0.7,-2.1,-0.9,-2.1,-0.8c-0.4,-0.2,-1.1,-0.6,-1.4,-1.3" class="g9_3" />
<path d="M459,679.7c5.2,2,9,-9.6,4,-11.4" class="g8_3" />
<path d="M459.4,677.6c3.3,1.3,5.8,-6.2,2.6,-7.4" class="g8_3" />
<path d="M460.9,668.1c0.7,-0.3,1.4,0,1.8,0.1c0,0,1.9,0.8,3,1.2c5,2,1.2,13.4,-4,11.4c-1.8,-0.6,-2.2,-0.8,-2.1,-0.8c-0.5,-0.1,-1.2,-0.5,-1.5,-1.2" class="g9_3" />
<path d="M465.4,682.1c5.2,2,8.9,-9.6,3.9,-11.4" class="g8_3" />
<path d="M465.7,680c3.4,1.3,5.8,-6.3,2.6,-7.4" class="g8_3" />
<path d="M467.1,670.5c0.7,-0.3,1.4,0,1.8,0.1c0,0,1.9,0.7,3.1,1.2c4.9,1.8,1.3,13.3,-3.9,11.4c-1.8,-0.6,-2.2,-0.8,-2.1,-0.7c-0.5,-0.1,-1.2,-0.5,-1.5,-1.3" class="g9_3" />
<path d="M471.6,684.1c5.2,1.8,8.7,-9.9,3.7,-11.6" class="g8_3" />
<path d="M471.9,681.9c3.4,1.2,5.7,-6.4,2.4,-7.5" class="g8_3" />
<path d="M473.1,672.4c0.7,-0.3,1.4,-0.1,1.8,0c0,0,2,0.8,3.1,1.2c5,1.7,1.6,13.3,-3.7,11.5c-1.8,-0.6,-2.2,-0.8,-2.1,-0.7c-0.5,-0.1,-1.2,-0.5,-1.5,-1.2" class="g9_3" />
<path d="M477.3,686.4c5.2,2.2,9.3,-9.3,4.4,-11.3" class="g8_3" />
<path d="M477.8,684.3c3.3,1.4,6,-6.1,2.8,-7.4" class="g8_3" />
<path d="M479.5,674.8c0.7,-0.2,1.4,0.1,1.8,0.2c0,0,1.9,0.8,3,1.3c4.9,2,0.8,13.4,-4.3,11.3c-1.8,-0.7,-2.1,-0.9,-2.1,-0.9c-0.4,-0.1,-1.1,-0.5,-1.4,-1.2" class="g9_3" />
<path d="M483.5,688.5c5.1,2.1,9.1,-9.5,4.1,-11.3" class="g8_3" />
<path d="M483.9,686.4c3.3,1.3,5.9,-6.2,2.6,-7.4" class="g8_3" />
<path d="M485.5,676.9c0.6,-0.2,1.4,0,1.8,0.2c0,0,1.9,0.8,3,1.2c4.9,2,1,13.4,-4.1,11.4c-1.8,-0.7,-2.2,-0.9,-2.1,-0.8c-0.5,-0.1,-1.2,-0.5,-1.5,-1.3" class="g9_3" />
<path d="M489.8,691c5.2,2,9,-9.6,4,-11.4" class="g8_3" />
<path d="M490.2,688.9c3.4,1.3,5.8,-6.3,2.6,-7.5" class="g8_3" />
<path d="M491.7,679.4c0.7,-0.3,1.4,0,1.8,0.1c0,0,1.9,0.7,3,1.2c5,1.9,1.2,13.4,-4,11.4c-1.7,-0.6,-2.1,-0.8,-2.1,-0.8c-0.4,-0.1,-1.1,-0.5,-1.5,-1.2" class="g9_3" />
<path d="M496.1,693c5.2,1.9,8.8,-9.8,3.7,-11.5" class="g8_3" />
<path d="M496.4,690.8c3.4,1.2,5.7,-6.3,2.4,-7.4" class="g8_3" />
<path d="M497.7,681.3c0.6,-0.3,1.4,0,1.8,0.1c0,0,1.9,0.7,3,1.1c5,1.8,1.5,13.4,-3.7,11.5c-1.8,-0.6,-2.2,-0.8,-2.1,-0.7c-0.5,-0.1,-1.2,-0.5,-1.6,-1.2" class="g9_3" />
<path d="M501.9,695.2c5.1,2.1,9.2,-9.4,4.3,-11.3" class="g8_3" />
<path d="M502.3,693c3.3,1.4,6,-6,2.8,-7.3" class="g8_3" />
<path d="M504.1,683.6c0.6,-0.3,1.3,0,1.7,0.2c0,0,1.9,0.8,3,1.2c5,2.1,0.9,13.5,-4.3,11.4c-1.7,-0.8,-2.1,-0.9,-2,-0.9C502,695.4,501.3,695,501,694.2" class="g9_3" />
<path d="M508,697.3c5.2,2.1,9.1,-9.5,4.1,-11.4" class="g8_3" />
<path d="M508.4,695.2c3.3,1.3,5.9,-6.2,2.7,-7.4" class="g8_3" />
<path d="M510,685.7c0.7,-0.3,1.4,0,1.8,0.1c0,0,1.9,0.8,3,1.3c4.9,1.9,1.1,13.4,-4.1,11.4c-1.8,-0.7,-2.2,-0.9,-2.1,-0.8c-0.5,-0.2,-1.2,-0.6,-1.5,-1.3" class="g9_3" />
<path d="M514.4,699.8c5.2,2,8.9,-9.6,3.9,-11.5" class="g8_3" />
<path d="M514.7,697.6c3.4,1.3,5.9,-6.2,2.6,-7.4" class="g8_3" />
<path d="M516.2,688.1c0.7,-0.2,1.4,0,1.8,0.2c0,0,1.9,0.7,3,1.1c5,2,1.3,13.4,-3.9,11.5c-1.8,-0.7,-2.2,-0.8,-2.1,-0.8c-0.5,-0.1,-1.2,-0.5,-1.5,-1.2" class="g9_3" />
<path d="M520.6,701.7c5.2,2,8.8,-9.7,3.7,-11.5" class="g8_3" />
<path d="M520.9,699.6c3.4,1.2,5.7,-6.4,2.4,-7.5" class="g8_3" />
<path d="M522.2,690.1c0.7,-0.3,1.4,-0.1,1.8,0.1c0,0,1.9,0.7,3,1.1c5.1,1.8,1.5,13.3,-3.7,11.5c-1.8,-0.6,-2.2,-0.8,-2.1,-0.7c-0.5,-0.2,-1.2,-0.5,-1.5,-1.2" class="g9_3" />
<path d="M526.7,703.9c5.1,2.1,9.2,-9.4,4.3,-11.3" class="g8_3" />
<path d="M527.1,701.7c3.3,1.4,6,-6,2.8,-7.3" class="g8_3" />
<path d="M528.9,692.3c0.6,-0.3,1.3,0,1.7,0.2c0,0,1.9,0.8,3,1.2c5,2.1,0.9,13.5,-4.3,11.4c-1.7,-0.8,-2.1,-0.9,-2,-0.9c-0.5,-0.1,-1.2,-0.5,-1.5,-1.3" class="g9_3" />
<path d="M532.8,706c5.2,2.1,9.1,-9.5,4.1,-11.4" class="g8_3" />
<path d="M533.2,703.9c3.4,1.3,5.9,-6.2,2.7,-7.4" class="g8_3" />
<path d="M534.8,694.4c0.7,-0.3,1.4,0,1.8,0.2c0,0,1.9,0.7,3,1.2c5,1.9,1.1,13.4,-4.1,11.4c-1.8,-0.7,-2.2,-0.9,-2.1,-0.8c-0.5,-0.2,-1.2,-0.6,-1.5,-1.3" class="g9_3" />
<path d="M539.2,708.5c5.2,2,9,-9.6,3.9,-11.5" class="g8_3" />
<path d="M539.6,706.3c3.3,1.3,5.8,-6.2,2.5,-7.4" class="g8_3" />
<path d="M541,696.8c0.7,-0.2,1.4,0,1.8,0.2c0,0,1.9,0.7,3,1.2c5,1.9,1.3,13.3,-3.9,11.4c-1.8,-0.7,-2.2,-0.8,-2.1,-0.8c-0.5,-0.1,-1.2,-0.5,-1.5,-1.2" class="g9_3" />
<path d="M545.4,710.4c5.2,2,8.8,-9.7,3.7,-11.5" class="g8_3" />
<path d="M545.7,708.3c3.4,1.2,5.7,-6.3,2.5,-7.5" class="g8_3" />
<path d="M547,698.8c0.7,-0.3,1.4,-0.1,1.8,0.1c0,0,1.9,0.7,3.1,1.1c5,1.8,1.4,13.4,-3.8,11.5c-1.8,-0.6,-2.2,-0.8,-2.1,-0.7c-0.5,-0.1,-1.2,-0.5,-1.5,-1.2" class="g9_3" />
<path d="M551.4,712.7c5.1,2.2,9.2,-9.3,4.3,-11.3" class="g8_3" />
<path d="M551.8,710.6c3.3,1.4,6,-6.1,2.8,-7.4" class="g8_3" />
<path d="M553.6,701.1c0.6,-0.2,1.3,0.1,1.7,0.2c0,0,1.9,0.8,3,1.3c5,2,0.9,13.4,-4.3,11.3c-1.7,-0.7,-2.1,-0.9,-2,-0.9c-0.5,-0.1,-1.2,-0.5,-1.5,-1.2" class="g9_3" />
<path d="M557.5,714.8c5.2,2.1,9.1,-9.5,4.1,-11.3" class="g8_3" />
<path d="M557.9,712.7c3.3,1.3,5.9,-6.2,2.7,-7.4" class="g8_3" />
<path d="M559.5,703.2c0.7,-0.2,1.4,0,1.8,0.2c0,0,1.9,0.8,3,1.2c4.9,2,1.1,13.4,-4.1,11.4c-1.8,-0.7,-2.2,-0.9,-2.1,-0.8c-0.5,-0.1,-1.2,-0.5,-1.5,-1.3" class="g9_3" />
<path d="M563.9,717.3c5.2,2,9,-9.6,3.9,-11.4" class="g8_3" />
<path d="M564.3,715.2c3.3,1.3,5.8,-6.3,2.5,-7.5" class="g8_3" />
<path d="M565.7,705.7c0.7,-0.3,1.4,0,1.8,0.1c0,0,1.9,0.7,3,1.2c5,1.9,1.3,13.4,-3.9,11.4c-1.8,-0.6,-2.2,-0.8,-2.1,-0.8c-0.5,-0.1,-1.2,-0.5,-1.5,-1.2" class="g9_3" />
<path d="M570.1,719.3c5.2,1.9,8.8,-9.8,3.7,-11.5" class="g8_3" />
<path d="M570.4,717.1c3.4,1.2,5.7,-6.3,2.4,-7.4" class="g8_3" />
<path d="M571.7,707.6c0.7,-0.3,1.4,0,1.8,0.1c0,0,1.9,0.7,3,1.1c5.1,1.8,1.5,13.4,-3.7,11.5c-1.8,-0.6,-2.2,-0.8,-2.1,-0.7c-0.5,-0.1,-1.2,-0.5,-1.5,-1.2" class="g9_3" />
<path d="M575.5,721.3c4.9,2.5,9.9,-8.7,5.1,-11" class="g8_3" />
<path d="M576,719.1c3.3,1.7,6.5,-5.6,3.4,-7.1" class="g8_3" />
<path d="M578.5,709.9c0.7,-0.2,1.3,0.1,1.7,0.3c0,0,1.9,0.9,2.9,1.5c4.8,2.4,-0.1,13.4,-5.1,10.9c-1.7,-0.8,-2.1,-1,-2,-1c-0.4,-0.1,-1.1,-0.6,-1.4,-1.3" class="g9_3" />
<path d="M581.4,723.8c5,2.5,9.8,-8.8,4.9,-11" class="g8_3" />
<path d="M582,721.7c3.2,1.6,6.3,-5.7,3.2,-7.1" class="g8_3" />
<path d="M584.2,712.4c0.7,-0.2,1.4,0.1,1.8,0.3c0,0,1.8,0.9,2.9,1.4c4.8,2.3,0.1,13.4,-4.9,11.1c-1.7,-0.8,-2.1,-1,-2,-1c-0.5,-0.1,-1.2,-0.6,-1.4,-1.3" class="g9_3" />
<path d="M587.1,726.7c4.9,2.7,10.2,-8.4,5.5,-10.8" class="g8_3" />
<path d="M587.8,724.6c3.2,1.7,6.6,-5.4,3.5,-7" class="g8_3" />
<path d="M590.5,715.4c0.7,-0.2,1.4,0.2,1.8,0.4c0,0,1.8,1,2.8,1.5c4.7,2.6,-0.5,13.5,-5.4,10.8c-1.7,-0.8,-2.1,-1.1,-2,-1c-0.4,-0.2,-1.1,-0.7,-1.3,-1.4" class="g9_3" />
<path d="M593,729.4c5,2.6,10.1,-8.5,5.3,-10.9" class="g8_3" />
<path d="M593.7,727.3c3.1,1.7,6.4,-5.5,3.4,-7" class="g8_3" />
<path d="M596.2,718.1c0.7,-0.2,1.4,0.1,1.8,0.3c0,0,1.8,1,2.8,1.5c4.8,2.5,-0.3,13.5,-5.2,11c-1.7,-0.9,-2.1,-1.1,-2,-1.1c-0.5,-0.1,-1.1,-0.6,-1.4,-1.4" class="g9_3" />
<path d="M599.1,732.6c5,2.5,9.9,-8.7,5.1,-11" class="g8_3" />
<path d="M599.7,730.4c3.2,1.7,6.4,-5.6,3.3,-7.1" class="g8_3" />
<path d="M602.1,721.2c0.7,-0.2,1.4,0.1,1.8,0.3c0,0,1.8,0.9,2.9,1.4c4.7,2.5,-0.1,13.5,-5.1,11c-1.7,-0.8,-2.1,-1,-2,-1c-0.5,-0.1,-1.2,-0.6,-1.4,-1.3" class="g9_3" />
<path d="M604.9,735.5c5,2.5,9.8,-8.8,5,-11" class="g8_3" />
<path d="M605.5,733.4c3.2,1.6,6.3,-5.7,3.2,-7.1" class="g8_3" />
<path d="M607.8,724.1c0.6,-0.2,1.3,0.1,1.7,0.3c0,0,1.9,0.9,2.9,1.4c4.8,2.3,0.1,13.5,-4.9,11.1c-1.7,-0.8,-2.1,-1,-2,-1c-0.5,-0.1,-1.1,-0.6,-1.4,-1.3" class="g9_3" />
<path d="M610.2,738.2c4.6,3.1,10.9,-7.4,6.4,-10.3" class="g8_3" />
<path d="M611,736.2c3,2,7.1,-4.8,4.2,-6.7" class="g8_3" />
<path d="M614.6,727.3c0.7,-0.2,1.3,0.3,1.7,0.5c0,0,1.7,1.1,2.7,1.8c4.4,3,-1.8,13.3,-6.5,10.3c-1.5,-1.1,-1.9,-1.3,-1.8,-1.2c-0.4,-0.3,-1.1,-0.8,-1.2,-1.6" class="g9_3" />
<path d="M615.8,741.5c4.6,3,10.7,-7.6,6.2,-10.4" class="g8_3" />
<path d="M616.6,739.5c3,1.9,7,-4.9,4,-6.8" class="g8_3" />
<path d="M620,730.5c0.7,-0.2,1.3,0.3,1.7,0.5c0,0,1.7,1.1,2.7,1.7c4.5,2.9,-1.5,13.4,-6.2,10.4c-1.6,-1,-2,-1.2,-1.9,-1.2c-0.4,-0.2,-1.1,-0.7,-1.2,-1.5" class="g9_3" />
<path d="M621.1,745c4.5,3.3,11.1,-7,6.7,-10" class="g8_3" />
<path d="M622,743c2.9,2.1,7.2,-4.5,4.4,-6.5" class="g8_3" />
<path d="M625.8,734.2c0.7,-0.1,1.4,0.4,1.7,0.6c0,0,1.7,1.2,2.7,1.9c4.3,3.1,-2.2,13.3,-6.8,10.1c-1.5,-1.1,-1.8,-1.4,-1.8,-1.3c-0.4,-0.2,-1,-0.8,-1.1,-1.6" class="g9_3" />
<path d="M626.6,748.5c4.6,3.1,11,-7.3,6.6,-10.2" class="g8_3" />
<path d="M627.5,746.5c3,2,7.1,-4.7,4.2,-6.6" class="g8_3" />
<path d="M631.2,737.6c0.7,-0.1,1.3,0.3,1.7,0.5c0,0,1.6,1.2,2.6,1.9c4.4,3,-1.9,13.3,-6.5,10.2c-1.6,-1.1,-1.9,-1.3,-1.9,-1.3c-0.4,-0.2,-1,-0.7,-1.1,-1.5" class="g9_3" />
<path d="M632.3,752.3c4.6,3.1,10.9,-7.4,6.4,-10.3" class="g8_3" />
<path d="M633.1,750.3c3,2,7.1,-4.8,4.2,-6.7" class="g8_3" />
<path d="M636.7,741.4c0.7,-0.2,1.3,0.3,1.7,0.5c0,0,1.7,1.1,2.7,1.8c4.4,3,-1.8,13.3,-6.4,10.3c-1.6,-1.1,-2,-1.3,-1.9,-1.2c-0.4,-0.3,-1.1,-0.8,-1.2,-1.6" class="g9_3" />
<path d="M637.5,755.6c4.4,3.4,11.3,-6.8,7,-9.9" class="g8_3" />
<path d="M638.5,753.6c2.8,2.2,7.3,-4.4,4.5,-6.4" class="g8_3" />
<path d="M642.5,744.9c0.7,-0.1,1.3,0.4,1.7,0.6c0,0,1.6,1.3,2.5,2c4.3,3.2,-2.5,13.2,-6.9,9.9c-1.5,-1.1,-1.9,-1.4,-1.8,-1.3c-0.4,-0.3,-1,-0.8,-1.1,-1.6" class="g9_3" />
<path d="M641.5,758.7c3.7,4.1,12.4,-4.5,8.8,-8.4" class="g8_3" />
<path d="M643.8,757.5c2.7,0.8,6.8,-3.8,4.7,-6" class="g8_3" />
<path d="M648.5,749.2c0.7,0,1.2,0.6,1.5,0.9c0,0,1.4,1.5,2.2,2.4c3.5,4,-5.1,12.5,-8.8,8.4c-1.3,-1.4,-1.5,-1.7,-1.5,-1.7c-0.2,-0.2,-0.5,-0.6,-0.7,-1" class="g8_3" />
<path d="M646.1,763.2c3.8,4.1,12.3,-4.6,8.7,-8.5" class="g8_3" />
<path d="M647.4,761.5c2.5,2.6,8,-3,5.6,-5.5" class="g8_3" />
<path d="M652.9,753.6c0.8,0.1,1.3,0.6,1.6,0.9c0,0,1.4,1.5,2.2,2.4c3.6,3.9,-4.8,12.6,-8.6,8.5c-1.3,-1.4,-1.6,-1.7,-1.6,-1.6c-0.3,-0.3,-0.8,-1,-0.8,-1.8" class="g8_3" />
<path d="M650.4,768c3.6,4.3,12.5,-4.1,9,-8.1" class="g8_3" />
<path d="M651.8,766.3c2.3,2.7,8.1,-2.6,5.8,-5.2" class="g8_3" />
<path d="M657.7,758.7c0.7,0.1,1.2,0.7,1.5,1c0,0,1.3,1.6,2.1,2.5c3.4,4.1,-5.5,12.3,-9.1,8.1c-1.2,-1.5,-1.5,-1.8,-1.4,-1.7c-0.4,-0.4,-0.8,-1,-0.7,-1.8" class="g8_3" />
<path d="M654.9,772.7c3.6,4.2,12.4,-4.3,8.9,-8.2" class="g8_3" />
<path d="M656.2,771c2.4,2.7,8.1,-2.8,5.8,-5.4" class="g8_3" />
<path d="M662,763.3c0.7,0.1,1.2,0.6,1.5,0.9c0,0,1.3,1.6,2.1,2.5c3.5,4,-5.2,12.4,-8.9,8.2c-1.2,-1.4,-1.5,-1.7,-1.4,-1.6c-0.4,-0.3,-0.8,-1,-0.8,-1.8" class="g8_3" />
<path d="M659.4,777.8c3.7,4.2,12.4,-4.4,8.8,-8.3" class="g8_3" />
<path d="M660.7,776.1c2.4,2.7,8.1,-2.9,5.7,-5.4" class="g8_3" />
<path d="M666.4,768.3c0.7,0.1,1.2,0.6,1.5,0.9c0,0,1.4,1.6,2.2,2.5c3.5,4,-5.1,12.5,-8.8,8.3c-1.3,-1.4,-1.5,-1.7,-1.5,-1.6c-0.4,-0.3,-0.8,-1,-0.8,-1.8" class="g8_3" />
<path d="M663.6,782.5c3.5,4.3,12.6,-3.9,9.1,-8" class="g8_3" />
<path d="M665,780.8c2.3,2.8,8.2,-2.5,5.9,-5.1" class="g8_3" />
<path d="M671,773.3c0.7,0.1,1.2,0.7,1.5,1c0,0,1.3,1.6,2,2.5c3.4,4.2,-5.5,12.3,-9.1,8c-1.2,-1.5,-1.5,-1.8,-1.4,-1.7c-0.4,-0.3,-0.8,-1,-0.7,-1.8" class="g8_3" />
<path d="M667,786.8c2.9,4.8,13,-2.2,10.1,-6.6" class="g8_3" />
<path d="M668.6,785.4c1.9,3,8.4,-1.5,6.6,-4.4" class="g8_3" />
<path d="M675.6,778.7c0.7,0.2,1.1,0.8,1.3,1.2c0,0,1.1,1.8,1.7,2.8c2.8,4.5,-7.1,11.4,-10.1,6.7c-1,-1.7,-1.2,-2,-1.2,-1.9c-0.3,-0.4,-0.6,-1.2,-0.4,-1.9" class="g8_3" />
<path d="M670.8,792.2c3,4.6,12.9,-2.5,10,-6.9" class="g8_3" />
<path d="M672.4,790.6c1.9,3.1,8.3,-1.5,6.4,-4.4" class="g8_3" />
<path d="M679.2,783.9c0.7,0.1,1.1,0.8,1.3,1.1c0,0,1.1,1.8,1.8,2.8c2.8,4.5,-7,11.5,-10,6.8c-1.1,-1.5,-1.3,-1.9,-1.2,-1.8c-0.4,-0.4,-0.7,-1.1,-0.5,-1.9" class="g8_3" />
<path d="M674.2,797.6c2.7,4.8,13,-1.8,10.3,-6.4" class="g8_3" />
<path d="M675.8,796.1c1.8,3.2,8.5,-1.1,6.7,-4.1" class="g8_3" />
<path d="M682.9,789.7c0.7,0.2,1.1,0.9,1.3,1.2c0,0,1,1.8,1.6,2.9c2.7,4.6,-7.4,11.1,-10.3,6.3c-0.9,-1.6,-1.1,-2,-1.1,-1.9c-0.3,-0.4,-0.6,-1.1,-0.4,-1.9" class="g8_3" />
<path d="M677.7,803c2.9,4.8,13,-2,10.2,-6.5" class="g8_3" />
<path d="M679.4,801.6c1.8,3,8.4,-1.4,6.6,-4.3" class="g8_3" />
<path d="M686.4,795c0.7,0.2,1.1,0.8,1.3,1.2c0,0,1,1.8,1.7,2.8c2.7,4.6,-7.3,11.3,-10.2,6.5c-1,-1.6,-1.2,-1.9,-1.2,-1.9c-0.3,-0.3,-0.6,-1.1,-0.4,-1.8" class="g8_3" />
<path d="M681.3,808.8c2.9,4.8,13,-2.2,10.1,-6.6" class="g8_3" />
<path d="M682.9,807.4c1.9,3,8.4,-1.5,6.5,-4.4" class="g8_3" />
<path d="M689.8,800.7c0.7,0.2,1.1,0.8,1.4,1.2c0,0,1,1.8,1.7,2.8c2.8,4.5,-7.2,11.4,-10.1,6.7c-1,-1.7,-1.3,-2,-1.2,-1.9c-0.3,-0.4,-0.7,-1.2,-0.5,-1.9" class="g8_3" />
<path d="M685,814.2c3,4.6,13,-2.5,10,-6.9" class="g8_3" />
<path d="M686.6,812.6c1.9,3.1,8.4,-1.5,6.5,-4.4" class="g8_3" />
<path d="M693.4,805.9c0.7,0.2,1.1,0.8,1.4,1.1c0,0,1.1,1.8,1.7,2.8c2.9,4.5,-6.9,11.5,-10,6.8c-1,-1.5,-1.2,-1.9,-1.2,-1.8c-0.3,-0.4,-0.6,-1.1,-0.5,-1.9" class="g8_3" />
<path d="M687.8,819.5c2.3,5.1,13.1,-0.7,10.7,-5.5" class="g8_3" />
<path d="M689.5,818.2c1.5,3.3,8.5,-0.5,7,-3.6" class="g8_3" />
<path d="M697.1,812.4c0.7,0.2,1,0.9,1.2,1.3c0,0,0.9,1.9,1.4,2.9c2.3,4.9,-8.3,10.6,-10.8,5.6c-0.8,-1.7,-1,-2.1,-0.9,-2c-0.3,-0.4,-0.6,-1.2,-0.3,-1.9" class="g8_3" />
<path d="M690.9,825.2c2.5,5,13.1,-1,10.7,-5.7" class="g8_3" />
<path d="M692.6,823.9c1.6,3.2,8.5,-0.7,6.9,-3.7" class="g8_3" />
<path d="M700.1,817.9c0.7,0.3,1,0.9,1.3,1.3c0,0,0.9,1.9,1.4,2.9c2.4,4.8,-8.2,10.7,-10.7,5.8c-0.8,-1.7,-1,-2.1,-1,-2c-0.3,-0.4,-0.5,-1.2,-0.3,-1.9" class="g8_3" />
<path d="M693.7,831c2.2,5.1,13.1,-0.4,10.9,-5.2" class="g8_3" />
<path d="M695.5,829.7c1.4,3.3,8.5,-0.2,7,-3.3" class="g8_3" />
<path d="M703.2,824.1c0.7,0.3,1,1,1.2,1.4c0,0,0.8,1.9,1.3,3c2.1,4.8,-8.7,10.3,-10.9,5.2c-0.8,-1.7,-1,-2.1,-0.9,-2c-0.3,-0.5,-0.5,-1.2,-0.2,-2" class="g8_3" />
<path d="M696.6,836.8c2.3,5,13.2,-0.6,10.9,-5.4" class="g8_3" />
<path d="M698.4,835.5c1.5,3.3,8.5,-0.4,7,-3.5" class="g8_3" />
<path d="M706.1,829.7c0.7,0.3,1,1,1.2,1.4c0,0,0.8,1.8,1.3,2.9c2.2,4.9,-8.4,10.5,-10.8,5.4c-0.8,-1.7,-1,-2.1,-1,-2c-0.2,-0.4,-0.5,-1.2,-0.2,-1.9" class="g8_3" />
<path d="M699.5,843c2.4,5,13.2,-0.8,10.8,-5.6" class="g8_3" />
<path d="M701.3,841.7c1.5,3.2,8.5,-0.6,7,-3.6" class="g8_3" />
<path d="M708.9,835.8c0.7,0.3,1,0.9,1.2,1.3c0,0,0.9,1.9,1.4,3c2.3,4.8,-8.3,10.5,-10.8,5.5c-0.8,-1.7,-1,-2.1,-0.9,-2c-0.3,-0.4,-0.6,-1.2,-0.3,-1.9" class="g8_3" />
<path d="M702.5,848.8c2.4,5,13.1,-1,10.6,-5.7" class="g8_3" />
<path d="M704.2,847.5c1.6,3.2,8.5,-0.7,6.9,-3.7" class="g8_3" />
<path d="M711.7,841.5c0.7,0.2,1,0.9,1.2,1.3c0,0,0.9,1.8,1.5,2.9c2.3,4.8,-8.2,10.7,-10.7,5.8c-0.9,-1.7,-1,-2.1,-1,-2c-0.3,-0.4,-0.6,-1.2,-0.3,-1.9" class="g8_3" />
<path d="M705,854.1c1.9,5.3,13.2,0.5,11.2,-4.5" class="g8_3" />
<path d="M706.9,853c1.2,3.4,8.5,0.3,7.3,-2.9" class="g8_3" />
<path d="M715,847.9c0.6,0.3,0.9,1,1.1,1.4c0,0,0.7,1.9,1.1,3.1c1.8,5,-9.3,9.7,-11.3,4.5c-0.6,-1.8,-0.8,-2.2,-0.7,-2.1c-0.3,-0.4,-0.4,-1.2,-0.1,-1.9" class="g8_3" />
<path d="M707.6,860.1c2,5.2,13.2,0.2,11.2,-4.7" class="g8_3" />
<path d="M709.5,858.9c1.2,3.4,8.5,0.2,7.2,-3" class="g8_3" />
<path d="M717.5,853.7c0.6,0.3,0.9,1,1.1,1.4c0,0,0.7,1.9,1.1,3c1.9,5,-9.1,9.9,-11.1,4.7c-0.7,-1.7,-0.9,-2.1,-0.8,-2c-0.3,-0.5,-0.5,-1.3,-0.1,-2" class="g8_3" />
<path d="M709.8,866.1c1.8,5.3,13.2,0.8,11.4,-4.2" class="g8_3" />
<path d="M711.7,865c1.2,3.4,8.5,0.6,7.4,-2.7" class="g8_3" />
<path d="M720,860.1c0.6,0.4,0.9,1.1,1,1.5c0,0,0.7,2,1,3.1c1.7,5.1,-9.5,9.4,-11.3,4.2c-0.6,-1.8,-0.8,-2.2,-0.7,-2.1c-0.2,-0.5,-0.4,-1.3,0,-2" class="g8_3" />
<path d="M712.2,872.1c1.9,5.3,13.2,0.6,11.3,-4.4" class="g8_3" />
<path d="M714.1,871c1.2,3.4,8.5,0.4,7.3,-2.8" class="g8_3" />
<path d="M722.3,866c0.7,0.3,0.9,1,1.1,1.4c0,0,0.6,2,1,3.1c1.8,5,-9.4,9.6,-11.3,4.4c-0.6,-1.8,-0.7,-2.2,-0.7,-2.1c-0.2,-0.4,-0.4,-1.2,-0.1,-1.9" class="g8_3" />
<path d="M714.6,878.5c1.9,5.3,13.1,0.5,11.2,-4.5" class="g8_3" />
<path d="M716.4,877.4c1.3,3.4,8.5,0.3,7.3,-2.9" class="g8_3" />
<path d="M724.6,872.3c0.6,0.3,0.9,1,1,1.4c0,0,0.7,2,1.1,3.1c1.9,5,-9.3,9.7,-11.2,4.5c-0.7,-1.8,-0.8,-2.2,-0.8,-2.1c-0.2,-0.4,-0.4,-1.2,-0.1,-1.9" class="g8_3" />
<path d="M717.2,884.5c1.9,5.2,13.1,0.2,11.1,-4.7" class="g8_3" />
<path d="M719,883.3c1.3,3.4,8.5,0.2,7.2,-3" class="g8_3" />
<path d="M727,878.1c0.7,0.3,1,1,1.1,1.4c0,0,0.8,1.9,1.2,3c1.9,5,-9.1,9.9,-11.2,4.7c-0.7,-1.7,-0.8,-2.1,-0.8,-2c-0.2,-0.4,-0.4,-1.2,-0.1,-2" class="g8_3" />
<path d="M719,890.1c1.2,5.4,13,2.2,11.7,-3" class="g8_3" />
<path d="M721,889.2c0.8,3.5,8.4,1.4,7.6,-1.9" class="g8_3" />
<path d="M729.7,885.2c0.6,0.4,0.8,1.1,0.9,1.6c0,0,0.4,2,0.7,3.1c1.1,5.2,-10.5,8.4,-11.7,3c-0.5,-1.8,-0.5,-2.2,-0.5,-2.2c-0.2,-0.4,-0.3,-1.2,0.2,-1.9" class="g8_3" />
<path d="M720.8,896.3c1.2,5.4,13,2,11.7,-3.2" class="g8_3" />
<path d="M722.8,895.4c0.8,3.5,8.4,1.3,7.5,-2.1" class="g8_3" />
<path d="M731.4,891.3c0.6,0.4,0.8,1.1,0.9,1.5c0,0,0.5,2,0.8,3.2c1.2,5.2,-10.4,8.6,-11.7,3.2c-0.5,-1.9,-0.6,-2.3,-0.6,-2.2c-0.1,-0.4,-0.2,-1.3,0.2,-1.9" class="g8_3" />
<path d="M722.2,902.6c1,5.4,12.9,2.6,11.8,-2.7" class="g8_3" />
<path d="M724.2,901.7c0.7,3.6,8.4,1.7,7.7,-1.7" class="g8_3" />
<path d="M733.1,898c0.6,0.4,0.7,1.2,0.8,1.6c0,0,0.4,2,0.6,3.2c1,5.2,-10.8,8.1,-11.8,2.6c-0.4,-1.8,-0.5,-2.2,-0.5,-2.2c-0.1,-0.4,-0.2,-1.2,0.3,-1.9" class="g8_3" />
<path d="M723.8,908.9c1.1,5.4,12.9,2.3,11.7,-2.9" class="g8_3" />
<path d="M725.8,908c0.7,3.5,8.4,1.5,7.6,-1.8" class="g8_3" />
<path d="M734.6,904.1c0.6,0.4,0.7,1.2,0.8,1.6c0,0,0.4,2,0.7,3.2c1,5.2,-10.6,8.3,-11.8,2.8c-0.4,-1.8,-0.5,-2.2,-0.5,-2.2c-0.1,-0.4,-0.2,-1.2,0.2,-1.9" class="g8_3" />
<path d="M725.2,915.5c1.2,5.5,13,2.2,11.8,-2.9" class="g8_3" />
<path d="M727.2,914.7c0.8,3.5,8.4,1.4,7.6,-2" class="g8_3" />
<path d="M735.9,910.7c0.6,0.4,0.8,1.1,0.9,1.5c0,0,0.4,2,0.7,3.2c1.1,5.2,-10.5,8.4,-11.7,3c-0.5,-1.9,-0.5,-2.3,-0.5,-2.2c-0.2,-0.4,-0.3,-1.3,0.2,-1.9" class="g8_3" />
<path d="M726.7,921.6c1,5.5,12.9,2.7,11.9,-2.5" class="g8_3" />
<path d="M728.8,920.8c0.6,3.6,8.3,1.8,7.6,-1.6" class="g8_3" />
<path d="M737.6,917.2c0.6,0.4,0.7,1.1,0.8,1.5c0,0,0.4,2.1,0.6,3.2c1,5.3,-10.8,8.1,-11.8,2.6c-0.4,-1.9,-0.4,-2.3,-0.5,-2.2c-0.1,-0.4,-0.1,-1.3,0.3,-1.9" class="g8_3" />
<path d="M728.3,927.7c0.4,5.5,12.5,4,12,-1.3" class="g8_3" />
<path d="M730.4,927.1c0.3,3.6,8.1,2.6,7.8,-0.8" class="g8_3" />
<path d="M739.6,924.4c0.6,0.5,0.6,1.3,0.7,1.7c0,0,0.1,2,0.2,3.2c0.4,5.3,-11.6,6.8,-12.1,1.3c-0.1,-1.9,-0.1,-2.3,-0.1,-2.2c-0.1,-0.5,-0.1,-1.3,0.4,-1.9" class="g8_3" />
<path d="M729.1,933.9c0.5,5.5,12.6,3.8,12,-1.5" class="g8_3" />
<path d="M731.2,933.2c0.3,3.6,8.1,2.5,7.8,-0.9" class="g8_3" />
<path d="M740.3,930.4c0.6,0.4,0.6,1.2,0.7,1.6c0,0,0.2,2.1,0.3,3.3c0.5,5.3,-11.5,7,-12,1.5c-0.2,-1.9,-0.2,-2.4,-0.3,-2.3c-0.1,-0.4,0,-1.3,0.5,-1.9" class="g8_3" />
<path d="M729.6,940.2c0.2,5.6,12.4,4.4,12.1,-0.9" class="g8_3" />
<path d="M731.7,939.7c0.2,3.6,8,2.9,7.8,-0.6" class="g8_3" />
<path d="M741,937.3c0.5,0.5,0.6,1.3,0.6,1.7c0,0,0.1,2,0.1,3.2c0.3,5.4,-11.8,6.5,-12.1,0.9c-0.1,-1.9,-0.1,-2.3,-0.1,-2.2c-0.1,-0.5,0,-1.3,0.6,-1.9" class="g8_3" />
<path d="M730.3,946.7c0.3,5.5,12.4,4.2,12,-1.1" class="g8_3" />
<path d="M732.4,946.1c0.2,3.6,8.1,2.8,7.8,-0.7" class="g8_3" />
<path d="M741.6,943.6c0.5,0.4,0.6,1.2,0.6,1.6c0,0,0.1,2.1,0.2,3.3c0.3,5.3,-11.7,6.6,-12,1.1c-0.2,-1.9,-0.2,-2.3,-0.2,-2.2c-0.1,-0.5,0,-1.3,0.5,-1.9" class="g8_3" />
<path d="M730.7,953.5c0.4,5.6,12.6,4,12.1,-1.3" class="g8_3" />
<path d="M732.8,952.9c0.3,3.6,8.2,2.6,7.8,-0.8" class="g8_3" />
<path d="M742.1,950.2c0.5,0.5,0.5,1.3,0.6,1.7c0,0,0.1,2,0.2,3.2c0.4,5.3,-11.6,6.8,-12,1.3c-0.2,-1.9,-0.2,-2.3,-0.2,-2.2c-0.1,-0.5,-0.1,-1.3,0.5,-1.9" class="g8_3" />
<path d="M731.6,960c0.5,5.5,12.6,3.8,12,-1.5" class="g8_3" />
<path d="M733.7,959.3c0.3,3.6,8.2,2.5,7.8,-0.9" class="g8_3" />
<path d="M742.9,956.5c0.5,0.4,0.6,1.2,0.6,1.6c0,0,0.2,2.1,0.3,3.3c0.5,5.3,-11.5,7,-12,1.5c-0.2,-1.9,-0.2,-2.3,-0.2,-2.3c-0.1,-0.4,-0.1,-1.3,0.4,-1.9" class="g8_3" />
<path d="M731.7,965.7c-0.2,5.5,12.1,5.3,12.1,-0.1" class="g8_3" />
<path d="M733.9,965.3c-0.1,3.6,7.8,3.4,7.8,0" class="g8_3" />
<path d="M743.3,963.6c0.5,0.5,0.5,1.3,0.5,1.7c0,0,-0.1,2,-0.1,3.2c-0.2,5.4,-12.3,5.6,-12.1,0.1c0,-1.9,0,-2.3,0,-2.3c0,-0.4,0.1,-1.2,0.7,-1.8" class="g8_3" />
<path d="M731.9,972.2c-0.1,5.5,12.2,5,12.1,-0.3" class="g8_3" />
<path d="M734.1,971.8c-0.1,3.6,7.8,3.3,7.8,-0.2" class="g8_3" />
<path d="M743.5,969.9c0.5,0.5,0.5,1.2,0.5,1.7c0,0,-0.1,2,-0.1,3.2c0,5.3,-12.1,5.8,-12.1,0.3c0,-1.9,0,-2.3,0,-2.3c0,-0.4,0.1,-1.2,0.7,-1.8" class="g8_3" />
<path d="M731.8,978.6c-0.4,5.5,11.9,5.6,12.1,0.3" class="g8_3" />
<path d="M733.9,978.3c-0.2,3.6,7.7,3.6,7.9,0.2" class="g8_3" />
<path d="M743.4,976.8c0.5,0.6,0.5,1.3,0.5,1.7c0,0,-0.2,2.1,-0.3,3.3c-0.3,5.3,-12.3,5.2,-12.1,-0.3c0.1,-1.9,0.2,-2.4,0.1,-2.3c0,-0.4,0.2,-1.3,0.8,-1.8" class="g8_3" />
<path d="M731.8,985.1c-0.3,5.5,12,5.4,12.1,0.1" class="g8_3" />
<path d="M733.9,984.7c-0.1,3.6,7.8,3.6,7.9,0.1" class="g8_3" />
<path d="M743.4,983.1c0.5,0.5,0.4,1.3,0.4,1.7c0,0,-0.1,2.1,-0.1,3.3c-0.2,5.3,-12.3,5.4,-12.1,-0.1c0,-1.9,0.1,-2.3,0.1,-2.3c-0.1,-0.4,0.1,-1.2,0.6,-1.8" class="g8_3" />
<path d="M731.6,991.9c-0.2,5.5,12,5.3,12.1,0" class="g8_3" />
<path d="M733.7,991.5c-0.1,3.6,7.8,3.5,7.9,0" class="g8_3" />
<path d="M743.2,989.8c0.4,0.5,0.4,1.3,0.4,1.7c0,0,-0.1,2.1,-0.1,3.3c-0.1,5.3,-12.2,5.5,-12.1,0c0,-1.9,0.1,-2.3,0,-2.2c0,-0.5,0.1,-1.3,0.7,-1.9" class="g8_3" />
<path d="M731.8,998.4c-0.1,5.5,12.1,5.1,12.1,-0.3" class="g8_3" />
<path d="M733.9,998c0,3.6,7.9,3.3,7.8,-0.2" class="g8_3" />
<path d="M743.3,996.1c0.5,0.5,0.5,1.3,0.5,1.7c0,0,0,2,0,3.2c-0.1,5.4,-12.2,5.9,-12.1,0.3c0,-1.9,0,-2.3,0,-2.2c-0.1,-0.5,0,-1.3,0.6,-1.9" class="g8_3" />
</svg>