<?xml version="1.0" encoding="UTF-8" standalone="no"?>
<!DOCTYPE svg PUBLIC "-//W3C//DTD SVG 1.1//EN"
"http://www.w3.org/Graphics/SVG/1.1/DTD/svg11.dtd">
<svg version="1.1" xmlns="http://www.w3.org/2000/svg" xmlns:xlink="http://www.w3.org/1999/xlink">
<defs>
<style type="text/css"><![CDATA[
.g16_1{
fill: #636363;
}
.g2_1{
fill: none;
stroke: #FFFFFF;
stroke-width: 3;
stroke-linecap: round;
stroke-linejoin: miter;
stroke-miterlimit: 2;
}
.g3_1{
fill: #FFFFFF;
stroke: #000000;
stroke-width: 2;
stroke-linecap: butt;
stroke-linejoin: miter;
stroke-miterlimit: 2;
}
.g14_1{
fill: #636363;
stroke: #000000;
stroke-width: 1;
stroke-linecap: round;
stroke-linejoin: round;
stroke-miterlimit: 2;
}
.g15_1{
fill: #D4D4D4;
}
.g1_1{
fill: #B3B3B3;
}
.g7_1{
fill: #636363;
stroke: #000000;
stroke-width: 1;
stroke-linecap: butt;
stroke-linejoin: miter;
stroke-miterlimit: 2;
}
.g10_1{
fill: none;
stroke: #000000;
stroke-width: 2;
stroke-linecap: round;
stroke-linejoin: round;
stroke-miterlimit: 2;
}
.g17_1{
fill: #FFFFFF;
stroke: #FFFFFF;
stroke-width: 2;
stroke-linecap: round;
stroke-linejoin: round;
stroke-miterlimit: 2;
}
.g12_1{
fill: #FFFFFF;
stroke: #000000;
stroke-width: 2;
stroke-linecap: round;
stroke-linejoin: round;
stroke-miterlimit: 2;
}
.g5_1{
fill: none;
stroke: #000000;
stroke-width: 2;
stroke-linecap: butt;
stroke-linejoin: miter;
stroke-miterlimit: 2;
}
.g11_1{
fill: #808080;
stroke: #000000;
stroke-width: 1;
stroke-linecap: round;
stroke-linejoin: round;
stroke-miterlimit: 2;
}
.g4_1{
fill: none;
stroke: #000000;
stroke-width: 1;
stroke-linecap: butt;
stroke-linejoin: miter;
stroke-miterlimit: 2;
}
.g9_1{
fill: #FFFFFF;
}
.g6_1{
}
.g8_1{
fill: none;
stroke: #000000;
stroke-width: 1;
stroke-linecap: round;
stroke-linejoin: round;
stroke-miterlimit: 2;
}
.g13_1{
fill: #FFFFFF;
stroke: #FFFFFF;
stroke-width: 3;
stroke-linecap: round;
stroke-linejoin: round;
stroke-miterlimit: 2;
}
]]></style>
</defs>
<path fill-rule="evenodd" d="M55,54l824,0l0,1101l-824,0Z" class="g1_1" />
<path d="M55.5,256.5l27,0" class="g2_1" />
<path d="M55.5,430.5l27,0" class="g2_1" />
<path d="M55.5,605.5l27,0" class="g2_1" />
<path d="M55.5,779.5l27,0" class="g2_1" />
<path d="M55.5,953.5l27,0" class="g2_1" />
<path d="M852.5,256.5l28,0" class="g2_1" />
<path d="M852.5,605.5l28,0" class="g2_1" />
<path d="M852.5,779.5l28,0" class="g2_1" />
<path d="M852.5,953.5l28,0" class="g2_1" />
<path d="M236.5,82.5l0,-27" class="g2_1" />
<path d="M390.5,82.5l0,-27" class="g2_1" />
<path d="M544.5,82.5l0,-27" class="g2_1" />
<path d="M698.5,82.5l0,-27" class="g2_1" />
<path d="M236.5,1155.5l0,-28" class="g2_1" />
<path d="M390.5,1155.5l0,-28" class="g2_1" />
<path d="M544.5,1155.5l0,-28" class="g2_1" />
<path d="M698.5,1155.5l0,-28" class="g2_1" />
<path fill-rule="evenodd" d="M82,82l770,0l0,1045l-770,0Z" class="g3_1" />
<path d="M184.5,209.5l646,0" class="g4_1" />
<path d="M103.5,278.5l727,0" class="g4_1" />
<path d="M82,1097l770,0" class="g5_1" />
<path d="M466.5,1099.5l0,28" class="g4_1" />
<path d="M468.5,1099.5l0,28" class="g4_1" />
<path d="M272.5,1099.5l0,28" class="g4_1" />
<path d="M274.5,1099.5l0,28" class="g4_1" />
<path d="M664.5,1099.5l0,28" class="g4_1" />
<path d="M666.5,1099.5l0,28" class="g4_1" />
<path fill-rule="evenodd" d="M106,289l37,0l0,38l-37,0Z" class="g6_1" />
<path fill-rule="evenodd" d="M103.5,287.5l38,0l0,37l-38,0Z" class="g7_1" />
<path d="M103.5,673.5l727,0" class="g4_1" />
<path d="M274.5,1099.5l192,0" class="g8_1" />
<path d="M468.5,1099.5l196,0" class="g8_1" />
<path d="M666.5,1099.5l186,0" class="g8_1" />
<path d="M272.5,1099.5l-190,0" class="g8_1" />
<path d="M467.5,1097.5l0,-819" class="g4_1" />
<path fill-rule="evenodd" d="M479,289l37,0l0,38l-37,0Z" class="g6_1" />
<path fill-rule="evenodd" d="M477.5,287.5l37,0l0,37l-37,0Z" class="g7_1" />
<path fill-rule="evenodd" d="M359,1040.4l-60.9,-20.7l0.5,-14.1l62.1,24.7Z" class="g9_1" />
<path d="M852.5,430.5l28,0" class="g2_1" />
<path fill-rule="evenodd" d="M106,683l37,0l0,38l-37,0Z" class="g6_1" />
<path fill-rule="evenodd" d="M103.5,681.5l38,0l0,38l-38,0Z" class="g7_1" />
<path fill-rule="evenodd" d="M479,683l37,0l0,38l-37,0Z" class="g6_1" />
<path fill-rule="evenodd" d="M477.5,681.5l37,0l0,38l-37,0Z" class="g7_1" />
<path d="M189.8,220.3c0.1,-0.1,0.3,-0.2,0.4,-0.3" class="g8_1" />
<path d="M190.2,220c0.3,-0.1,0.7,-0.1,1.1,-0.1c0.6,0.2,1.2,0.5,2,1.1c6.3,-1.6,12.2,-2.7,18.1,-3.4c5.8,-0.5,11.2,-0.6,16.5,-0.2" class="g8_1" />
<path d="M228.6,217.7c-0.3,-0.5,-0.9,-0.9,-1.7,-1.2c-0.8,-0.2,-1.8,-0.4,-3,-0.4c-7.2,-0.2,-13.6,0.1,-19.2,0.7c-5.6,0.7,-10.5,1.8,-14.5,3.2" class="g10_1" />
<path d="M187.3,228.5c1,0.7,2.1,1.4,3.2,2c1.1,0.6,2.2,1.1,3.4,1.5c3.8,-0.5,7.6,-1,11.4,-1.4" class="g8_1" />
<path d="M205.3,230.6c0.3,-0.1,0.6,-0.1,0.9,-0.2c0,-0.4,0,-0.9,0,-1.4c-0.4,-0.3,-0.7,-0.6,-0.9,-0.9c-0.1,-0.3,-0.2,-0.5,-0.2,-0.8c0.2,-1.2,0.7,-2.1,1.3,-2.7c0.7,-0.6,1.6,-1,2.7,-1c1.3,-0.1,2.2,-0.1,3,0c0.7,0.2,1.1,0.5,1.2,0.9c0.9,-0.1,2,-0.2,3.3,-0.4c1.4,-0.3,3,-0.6,4.7,-1.1c1.1,-0.3,1.9,-0.3,2.5,0.1" class="g10_1" />
<path d="M223.8,223.1c0.6,0.4,0.9,1.2,1,2.4c0.1,1,0.2,2.1,0.3,3.2" class="g8_1" />
<path d="M189.8,220.3c-0.4,2,-0.8,3.9,-1.3,5.9c0,0.3,-0.2,0.5,-0.4,0.6c-0.2,0.2,-0.4,0.2,-0.7,0.2c0,0.5,-0.1,1,-0.1,1.5" class="g10_1" />
<path d="M193.3,221.1c-0.1,2.4,-0.1,4.9,-0.2,7.4c0,0.3,0.1,0.7,0.2,1c0.2,0.4,0.4,0.7,0.7,1.1" class="g8_1" />
<path d="M194.1,230.6l12.1,-1.5" class="g8_1" />
<path d="M194.1,230.6L193.5,243" class="g8_1" />
<path d="M225.1,228.7c0,1,0.2,1.7,0.5,2.2c0.3,0.4,0.9,0.6,1.5,0.6" class="g8_1" />
<path d="M222.2,222.9c0.2,1.3,0.4,2.6,0.6,3.9c0.1,0.9,0,1.6,-0.4,2.1c-0.4,0.6,-1.2,0.9,-2.2,1.1c-4.1,0.7,-8.3,1.5,-12.5,2.2" class="g10_1" />
<path d="M224.4,230.2l-1.6,-1" class="g8_1" />
<path fill-rule="evenodd" d="M195.2,222.9c-0.1,0.5,0.1,1,0.5,1c0.3,0.1,0.6,-0.2,0.7,-0.7c0.1,-0.5,-0.1,-1,-0.4,-1c-0.3,-0.1,-0.7,0.3,-0.8,0.7Z" class="g11_1" />
<path fill-rule="evenodd" d="M194.8,228.1c0,0.5,0.1,0.9,0.5,1c0.3,0,0.6,-0.3,0.7,-0.8c0.1,-0.5,-0.1,-0.9,-0.4,-1c-0.3,-0.1,-0.7,0.3,-0.8,0.8Z" class="g11_1" />
<path fill-rule="evenodd" d="M205,222.4c-0.1,0.5,0.1,1,0.4,1.1c0.3,0,0.7,-0.3,0.8,-0.8c0.1,-0.5,-0.1,-0.9,-0.4,-1c-0.4,-0.1,-0.7,0.3,-0.8,0.7Z" class="g11_1" />
<path d="M227.2,222.3c0,-1,-0.3,-1.6,-0.9,-2.1c-0.7,-0.4,-1.7,-0.6,-3.1,-0.5c-1.7,-0.1,-3.8,-0.1,-6.5,0c-2.6,0.1,-5.7,0.3,-9.4,0.6c-1.2,0.1,-2.1,0.5,-2.6,1.1c-0.5,0.7,-0.7,1.5,-0.5,2.8c0.2,0.8,0.4,1.5,0.5,2.2" class="g8_1" />
<path d="M205.6,225.9c0.7,-0.1,1.5,0,2.1,0.2c0.7,0.3,1.3,0.7,1.8,1.3c0.5,-0.9,0.9,-1.8,1.3,-2.6" class="g10_1" />
<path d="M208.2,223.7c1.2,0.2,2.1,0.6,2.6,1.1c0.6,0.4,1,1,1.1,1.6" class="g8_1" />
<path d="M211.9,226.4c0.2,-0.5,0.4,-1,0.6,-1.3c0.3,-0.3,0.6,-0.5,0.9,-0.6" class="g10_1" />
<path d="M211.9,226.4l-1.4,-0.8" class="g10_1" />
<path d="M209.5,227.4l-1.7,-0.9" class="g8_1" />
<path d="M207,225.9c0.3,0.2,0.6,0.5,0.9,0.7" class="g8_1" />
<path d="M208,248.3c0.3,-0.2,0.7,-0.5,1,-0.7c7.2,-1.6,14.5,-3.3,21.7,-4.9c0,0,1.9,-1.2,2.3,-2.7c0,-1.8,0.1,-3.6,0.1,-5.4c-0.3,-2.4,-2.3,-4,-2.3,-4c-0.3,-0.4,-0.3,-0.6,-0.4,-0.9c-0.2,-0.3,-0.3,-0.8,-0.4,-1.2c0,0,-1.4,-10.7,-1.4,-10.7" class="g10_1" />
<path d="M205.3,230.6c0.2,3.8,0.1,8.2,-0.1,13.1c-0.3,4.9,-0.8,10.3,-1.5,16.2" class="g10_1" />
<path d="M203.7,259.9l-3.1,0.7" class="g8_1" />
<path d="M233,234.7l-23.9,4.9" class="g8_1" />
<path d="M209.1,239.6c0,-1.1,0,-2.3,0,-3.5c0,-0.1,0,-0.1,-0.1,-0.2c0,0,-0.1,-0.1,-0.2,-0.1c-0.3,-0.1,-0.5,-0.2,-0.6,-0.4c-0.2,-0.2,-0.3,-0.5,-0.3,-0.8c0,-1.1,-0.2,-2.1,-0.5,-2.9c-0.3,-0.9,-0.7,-1.6,-1.2,-2.1" class="g10_1" />
<path d="M233,240l-28,5.9" class="g8_1" />
<path d="M205,245.9c0.2,-0.1,0.3,-0.2,0.3,-0.3c0.1,-0.1,0.2,-0.2,0.2,-0.4c0,-1.6,0.1,-3.2,0.2,-4.8c0,-1.2,0,-2.4,0,-3.6c0,0,-0.1,-0.1,-0.1,-0.1c0,-0.1,-0.1,-0.1,-0.2,-0.2" class="g8_1" />
<path d="M208.9,236l-3.1,0.7" class="g8_1" />
<path d="M207.8,235.4l-2.2,0.5" class="g8_1" />
<path d="M216.8,230.7c1.6,0.1,2.9,0.7,3.8,1.6c0.9,0.9,1.5,2.3,1.8,4c0,0.1,0.1,0.3,0.1,0.3c0.1,0.1,0.1,0.2,0.2,0.2" class="g8_1" />
<path d="M222.3,242.3c-0.2,0.7,-0.7,1.3,-1.3,1.8c-0.7,0.6,-1.7,1.1,-2.9,1.4" class="g8_1" />
<path d="M222.8,236.8l-0.1,5.3" class="g8_1" />
<path d="M227.7,231.3l2.2,-0.5" class="g8_1" />
<path d="M225,230.9c0,0.3,-0.2,0.6,-0.4,0.7c-0.1,0.2,-0.4,0.3,-0.7,0.3c-0.7,0.2,-1.4,0.3,-2.2,0.5" class="g8_1" />
<path d="M220.1,232.8l-11.3,2" class="g8_1" />
<path d="M202.2,231.1c0.2,3.8,0.1,8.2,-0.1,13.1c-0.3,4.9,-0.8,10.4,-1.5,16.4" class="g8_1" />
<path d="M203.9,258.8l2.9,-0.7" class="g8_1" />
<path d="M206.8,258.1c0.4,-1.1,0.8,-2.4,1,-3.8c0.2,-1.4,0.3,-3.1,0.3,-4.8c-0.1,-0.7,-0.1,-1.4,0,-2c0.1,-0.6,0.4,-1.1,0.7,-1.5" class="g10_1" />
<path d="M209.5,247.6c0.8,0.3,1.4,1.6,1.5,3.2c0.2,1.9,-0.4,3.6,-1.4,3.6c-0.6,0.3,-1.2,0.5,-1.9,0.8" class="g10_1" />
<path d="M210.9,252.9l7.2,4.3" class="g10_1" />
<path d="M218.1,257.2l-25.3,6.2" class="g8_1" />
<path d="M192.8,263.4l-4.3,-2.9" class="g8_1" />
<path d="M190.6,271.7l-0.2,-0.1" class="g8_1" />
<path d="M193.8,251.7l0,1.6l-2.8,0.5l-1.1,-0.5" class="g10_1" />
<path d="M187.6,252.1c0,-1.7,0,-3.4,0,-5.1c-0.1,-0.8,-0.2,-1.7,-0.2,-2.6c0,-0.9,-0.1,-2,-0.1,-3c0,-0.2,-0.1,-0.5,-0.1,-0.6c-0.1,-0.2,-0.1,-0.4,-0.2,-0.5c-0.1,-0.1,-0.2,-0.2,-0.3,-0.4c0,-0.2,-0.1,-0.4,-0.1,-0.7c0.1,-1.1,0.1,-2.5,0.2,-4.3c0.1,-1.8,0.3,-3.9,0.4,-6.4" class="g10_1" />
<path d="M190.9,253.8c0,-1.7,0,-3.3,0,-5c0.3,-0.7,0.5,-1.5,0.7,-2.3c0.2,-0.9,0.4,-1.8,0.5,-2.7c0.1,-0.2,0.2,-0.4,0.2,-0.5" class="g8_1" />
<path d="M192.3,243.3c0.2,-0.1,0.3,-0.1,0.5,-0.1c0.2,0.1,0.4,0.2,0.6,0.2c0.3,0.1,0.5,0.1,0.9,0" class="g10_1" />
<path d="M187.6,247l3.4,1.7l7.3,-1l1.4,-4.5" class="g8_1" />
<path d="M187.6,252.1l0.8,0.4l1.3,-0.1" class="g10_1" />
<path d="M187.1,259.4L183,256.7" class="g8_1" />
<path d="M188.5,252.5l0,-1" class="g8_1" />
<path d="M189,253l0,-1" class="g10_1" />
<path d="M188.4,251.6c0.1,-0.4,0.3,-0.7,0.6,-0.8" class="g8_1" />
<path d="M189,250.8c0.3,-0.1,0.7,0.4,0.9,1c0,0.2,0,0.4,0,0.5" class="g10_1" />
<path d="M200.4,259.7L199,260" class="g8_1" />
<path d="M199,260c0.3,-2.7,0.6,-5.5,0.8,-8.2c0.2,-2.7,0.3,-5.4,0.3,-8.1c0,-0.2,-0.1,-0.5,-0.2,-0.8" class="g8_1" />
<path d="M199.9,242.9c-0.3,0,-0.6,0,-1,0c-1.5,0.1,-3.1,0.3,-4.6,0.5" class="g10_1" />
<path d="M199,260l-1.2,-0.8" class="g8_1" />
<path d="M198.3,247.7c0,0.7,0,2.1,-0.1,4c-0.1,1.9,-0.2,4.4,-0.4,7.5" class="g8_1" />
<path d="M200.6,260.6c-0.1,0,-0.2,-0.1,-0.3,-0.1c0,0,-0.1,-0.1,-0.1,-0.1" class="g8_1" />
<path d="M201.9,231c0.1,3.8,0.1,8,-0.2,12.9c-0.2,5,-0.7,10.4,-1.4,16.4" class="g8_1" />
<path d="M213.7,256.3l-3.5,-2.1" class="g8_1" />
<path d="M209.7,257.2l-2.2,-1.3" class="g8_1" />
<path d="M212.3,256.8l-3.4,-2.1" class="g10_1" />
<path d="M208.2,257.6l-1,-0.6" class="g10_1" />
<path d="M213.7,256.4l-1.4,0.4" class="g10_1" />
<path d="M209.8,257.3l-1.6,0.4" class="g10_1" />
<path fill-rule="evenodd" d="M230.4,232.6c0.3,0.6,0.2,1.1,0,1.3c-0.3,0.1,-0.8,-0.2,-1.1,-0.7c-0.3,-0.6,-0.3,-1.2,0,-1.3c0.3,-0.2,0.8,0.2,1.1,0.7Z" class="g11_1" />
<path d="M187.1,259.4l3.2,-0.7" class="g8_1" />
<path d="M192.1,258.3l0.9,-0.2" class="g8_1" />
<path d="M193.8,251.7c0,-0.2,0.1,-0.4,0.1,-0.6c0.3,-0.8,1,-1.3,1.7,-1.1" class="g10_1" />
<path d="M195.6,250c0.4,0.1,0.7,0.6,0.7,1.1c0.1,2,0.2,4,0.4,6.1c0,0.4,0.2,0.8,0.3,1.1c0.2,0.2,0.5,0.4,0.8,0.5" class="g8_1" />
<path d="M197.2,258.5L193.5,256" class="g8_1" />
<path d="M192.2,254.4c0.6,0.2,1.2,0.6,1.2,1" class="g10_1" />
<path d="M193.4,255.4c0,0.5,-1,1,-2.3,1c-1.3,0,-2.3,-0.5,-2.3,-1" class="g8_1" />
<path d="M188.8,255.4c0,-0.4,0.6,-0.8,1.3,-1" class="g10_1" />
<path d="M188.5,255.5l0,1" class="g8_1" />
<path d="M189,257.3c0.4,0.4,1.2,0.6,2.1,0.6c0.6,0,1.2,-0.1,1.6,-0.3" class="g10_1" />
<path d="M193.5,256.5l0,-1" class="g8_1" />
<path d="M190.1,253.3c0,0.7,0,1.3,0,2c0,0.3,0.4,0.5,1,0.5c0.6,0,1.1,-0.2,1.1,-0.5c0,-0.6,0,-1.1,0,-1.7" class="g8_1" />
<path d="M190,257l0,3" class="g10_1" />
<path d="M192.5,257.5l0,2" class="g8_1" />
<path d="M190.5,263.5l0,8" class="g8_1" />
<path d="M192.2,263.7l0,5.7l-1.6,2.4" class="g10_1" />
<path d="M192.9,258.1c0.2,0,0.4,-0.1,0.7,-0.1c0.8,0,1.4,0.3,1.4,0.6" class="g8_1" />
<path d="M190.5,257.5l0,2" class="g8_1" />
<path d="M190,263l0,8" class="g10_1" />
<path d="M211.3,225.2c0.1,0.2,0.2,0.5,0.2,0.7" class="g8_1" />
<path d="M211.4,225.9l-0.9,-0.5" class="g8_1" />
<path d="M189,256c0.2,0,0.4,0.2,0.5,0.6c0.1,0.3,-0.1,0.6,-0.3,0.7" class="g8_1" />
<path d="M188.4,256.2c0.2,-0.1,0.5,0.2,0.5,0.5c0.1,0.4,0,0.7,-0.3,0.7" class="g8_1" />
<path d="M193.1,256.4c-0.3,-0.2,-0.7,-0.1,-0.9,0.2c-0.2,0.3,-0.1,0.6,0.1,0.8" class="g8_1" />
<path d="M192.8,257.7c0.2,0.1,0.6,0,0.8,-0.2c0.2,-0.3,0.1,-0.7,-0.1,-0.9" class="g10_1" />
<path d="M193.5,256.6c-0.2,-0.1,-0.6,0,-0.8,0.3c-0.2,0.3,-0.2,0.6,0.1,0.8" class="g8_1" />
<path d="M193.5,256.7l-0.4,-0.3" class="g8_1" />
<path d="M192.7,257.6l-0.4,-0.2" class="g8_1" />
<path d="M192.8,263.3l-3,-1l-4.3,-2.9" class="g8_1" />
<path d="M187.1,259.4l-3,-1l-4.2,-2.8" class="g8_1" />
<path d="M213.3,256.5l-3.6,-2.1" class="g8_1" />
<path d="M209.3,257.4l-1.9,-1.2" class="g8_1" />
<path d="M189.8,262.3l-0.2,0.4" class="g8_1" />
<path d="M184.1,258.4l-0.2,0.4" class="g8_1" />
<path d="M218.1,257.2c0,0.2,0,0.3,0,0.5c-8.4,2,-16.9,4,-25.3,6.1c-1,-0.3,-2.1,-0.7,-3.2,-1c-1.4,-1,-2.9,-2,-4.3,-3c0,-0.1,0.1,-0.2,0.2,-0.4c1,0.3,2,0.6,3,1c2,-0.4,3.9,-0.8,5.9,-1.3c0.3,-0.1,0.6,-0.3,0.6,-0.5" class="g10_1" />
<path d="M188.7,255.4l-5.7,1.3l0,-0.1l-3,-1l-0.1,0.1l-0.2,0.4l4.1,2.8l1.6,0.5" class="g10_1" />
<path d="M187.1,259.9l3.2,-0.8" class="g8_1" />
<path d="M192.2,258.7c0.2,-0.1,0.5,-0.1,0.8,-0.2c0.1,0,0.4,-0.1,0.6,-0.1c0.6,0,1,0.2,1.2,0.3" class="g8_1" />
<path d="M189.2,257.3c-0.2,0,-0.3,0.1,-0.5,0.1l-0.1,0c-0.2,0.1,-0.4,-0.2,-0.5,-0.5c-0.1,-0.4,0.1,-0.7,0.3,-0.7c0,0,-0.1,-0.1,-0.1,-0.1c0.2,0,0.5,0,0.7,-0.1" class="g10_1" />
<path d="M229.3,237.3l0.7,-0.2l0,-0.7" class="g8_1" />
<path d="M230,237.1l0.2,0.1" class="g8_1" />
<path d="M230.5,236.9l0.7,-0.1l0,-0.7" class="g8_1" />
<path d="M231.2,236.8l0.2,0.1" class="g8_1" />
<path d="M231.8,236.7l0.6,-0.2l0,-0.7" class="g8_1" />
<path d="M232.4,236.5l0.2,0.2" class="g8_1" />
<path d="M231.8,238l0.6,-0.2l0,-0.6" class="g8_1" />
<path d="M232.4,237.9l0.2,0.1" class="g8_1" />
<path d="M231.8,239.4l0.6,-0.2l0,-0.7" class="g8_1" />
<path d="M232.4,239.2l0.2,0.2" class="g8_1" />
<path d="M230.5,239.6l0.7,-0.1l0,-0.7" class="g8_1" />
<path d="M231.2,239.5l0.2,0.1" class="g8_1" />
<path d="M230.5,238.3l0.6,-0.2l0,-0.7" class="g8_1" />
<path d="M231.2,238.2l0.2,0.1" class="g8_1" />
<path d="M229.3,238.6l0.7,-0.2l0,-0.7" class="g8_1" />
<path d="M230,238.4l0.2,0.2" class="g8_1" />
<path d="M229.3,239.9l0.6,-0.1l0,-0.7" class="g8_1" />
<path d="M229.9,239.8l0.2,0.1" class="g8_1" />
<path d="M194.3,229.7l10.6,-1.2" class="g8_1" />
<path fill-rule="evenodd" d="M268.3,247.2c11.4,-6.5,22.8,-13.1,34.2,-19.8c0.4,-0.5,0.9,-1.1,1.3,-1.7c0.2,-0.2,0.2,-0.4,0.2,-0.5C303.9,225,303.7,225,303.5,225c-0.8,0,-1.5,0.1,-2.3,0.2c-11.3,6.5,-22.6,13.1,-33.9,19.6c0.3,0.8,0.6,1.6,1,2.4Z" class="g9_1" />
<path d="M259.9,252.1c14.2,-8.3,28.4,-16.5,42.6,-24.7c0.4,-0.5,0.9,-1.1,1.3,-1.7c0.2,-0.2,0.2,-0.4,0.2,-0.5C303.9,225,303.7,225,303.5,225c-0.8,0,-1.5,0.1,-2.3,0.2C287.1,233.3,273,241.4,259,249.6" class="g10_1" />
<path d="M301.8,227.3c0.2,-0.5,0.5,-0.8,0.8,-1.1c0.3,-0.3,0.7,-0.5,1.2,-0.6" class="g8_1" />
<path d="M300.8,225.9c0.5,0,1.1,-0.1,1.5,-0.3c0.5,-0.1,0.9,-0.3,1.3,-0.6" class="g8_1" />
<path fill-rule="evenodd" d="M271.6,238.4c-0.7,0.3,-1.3,0.7,-1.9,1.1c-0.4,0.2,-0.7,0.5,-0.9,0.8c-0.2,0.3,-0.4,0.7,-0.5,1.2c0,0.3,0,0.5,-0.1,0.6c-0.1,0.1,-0.3,0.2,-0.5,0.1c-0.6,-0.5,-1.4,-0.8,-2,-0.8c-0.6,-0.1,-1.4,0,-2,0.3c-6.8,3.9,-13.7,7.9,-20.5,11.8c-1.5,1.5,-2.4,2.9,-2.6,4.3c-0.2,1.5,0.2,2.9,1.1,4.2c1.2,1.4,2.6,2.3,3.9,2.5c1.4,0.2,3,-0.1,4.6,-1.1c6.4,-3.7,12.8,-7.4,19.2,-11.1c0.7,-0.6,1.2,-1.2,1.5,-1.9c0.3,-0.6,0.4,-1.4,0.4,-2.1c0,-0.3,0.2,-0.5,0.3,-0.6c0.1,0,0.3,0.1,0.5,0.3c0.4,0.2,0.8,0.4,1.1,0.4c0.4,0,0.8,-0.1,1.1,-0.2c0.7,-0.4,1.5,-0.9,2.2,-1.3c0.7,-0.7,1,-1.5,0.9,-2.5c0,-1,-0.5,-2.2,-1.3,-3.4c-0.8,-1.1,-1.6,-1.9,-2.3,-2.3c-0.8,-0.5,-1.5,-0.6,-2.2,-0.3Z" class="g9_1" />
<path d="M268.4,242.1c-0.1,-1.1,0.3,-2,1,-2.4c0.6,-0.4,1.4,-0.8,2.1,-1.2c1.3,-0.8,3.5,0.5,4.9,2.8c1.3,2.3,1.3,4.9,0,5.6c-0.7,0.4,-1.4,0.9,-2.1,1.3c-0.8,0.4,-1.8,0.2,-2.8,-0.4" class="g10_1" />
<path d="M270.9,248.7c-0.1,-1.1,-0.5,-2.3,-1.2,-3.6c-0.5,-0.9,-1.2,-1.7,-1.9,-2.3" class="g8_1" />
<path d="M271.4,247.2c-0.1,-0.7,-0.3,-1.7,-0.8,-2.5c-0.5,-0.9,-1.2,-1.6,-1.8,-2" class="g8_1" />
<path d="M272.8,247.7c-0.5,-0.2,-0.9,-0.2,-1.1,-0.1c-0.2,0,-0.4,0.3,-0.4,0.5c0,0.9,-0.1,1.8,-0.4,2.4c-0.3,0.7,-0.8,1.3,-1.4,1.6c-6.8,4,-13.6,7.9,-20.5,11.9c-0.9,0.4,-1.5,0.6,-2.4,0.6c-3.3,0,-6,-2.7,-6,-6c0,-1.9,1.1,-3.8,2.6,-4.9c6.7,-4,13.6,-7.9,20.4,-11.9c0.5,-0.3,1.2,-0.4,1.8,-0.4c0.7,0.1,1.5,0.4,2.3,0.8c0.3,0.1,0.7,0.1,0.9,0.1c0.2,-0.1,0.4,-0.5,0.5,-0.9" class="g10_1" />
<path d="M244.1,253.7c1.6,0.2,3.4,1.5,4.6,3.7c1.2,2,1.5,4.1,1.1,5.6" class="g8_1" />
<path d="M273.8,248.1c1.1,-0.9,1,-3.1,-0.2,-5.2c-1.2,-2.1,-3.1,-3.3,-4.4,-2.8" class="g8_1" />
<path d="M247,253.8L265.5,243" class="g8_1" />
<path d="M248.8,254.8l17.9,-10.6" class="g8_1" />
<path d="M250.8,258.5l18.1,-11" class="g8_1" />
<path d="M251.1,260.6l18.1,-11" class="g8_1" />
<path d="M248.8,254.8c-0.7,0.5,-2.9,0,-1.8,-1" class="g8_1" />
<path d="M250.8,258.5c-1.1,0.7,-1,2.7,0.3,2.1" class="g8_1" />
<path d="M269.2,249.6c1.1,-0.6,1.3,-3.1,-0.3,-2.1" class="g8_1" />
<path d="M266.7,244.2c1.1,-0.7,0,-1.9,-1.2,-1.2" class="g8_1" />
<path fill-rule="evenodd" d="M584.4,906.8c44.7,0,81,14.9,81,33.2c0,18.4,-36.3,33.3,-81,33.3c-44.7,0,-81,-14.9,-81,-33.3c0,-18.3,36.3,-33.2,81,-33.2Zm0,6.5c39.8,0,72.2,12,72.2,26.7c0,14.8,-32.4,26.8,-72.2,26.8c-39.9,0,-72.2,-12,-72.2,-26.8c0,-14.7,32.3,-26.7,72.2,-26.7Z" class="g12_1" />
<path fill-rule="evenodd" d="M584.4,915.4c44.7,0,81,14.9,81,33.3c0,18.4,-36.3,33.2,-81,33.2c-44.7,0,-81,-14.8,-81,-33.2c0,-18.4,36.3,-33.3,81,-33.3Zm0,6.5c39.8,0,72.2,12,72.2,26.8c0,14.8,-32.4,26.7,-72.2,26.7c-39.9,0,-72.2,-11.9,-72.2,-26.7c0,-14.8,32.3,-26.8,72.2,-26.8Z" class="g12_1" />
<path fill-rule="evenodd" d="M584.4,924.3c44.7,0,81,14.9,81,33.2c0,18.4,-36.3,33.3,-81,33.3c-44.7,0,-81,-14.9,-81,-33.3c0,-18.3,36.3,-33.2,81,-33.2Zm0,6.5c39.8,0,72.2,12,72.2,26.7c0,14.8,-32.4,26.8,-72.2,26.8c-39.9,0,-72.2,-12,-72.2,-26.8c0,-14.7,32.3,-26.7,72.2,-26.7Z" class="g12_1" />
<path d="M292.5,535.2l42.1,-24.4" class="g8_1" />
<path d="M305.5,542.4l29.4,-17" class="g8_1" />
<path d="M330.1,513.4l-0.3,-14" class="g8_1" />
<path d="M330.1,542.3l-0.3,-14.1" class="g8_1" />
<path d="M254.7,649.3l20.1,11.5" class="g8_1" />
<path d="M250,649.9l-18,10.4" class="g8_1" />
<path d="M176.5,607.5l-16.9,9.8l-2.6,1.5" class="g8_1" />
<path d="M184.2,631.8L159.5,617.5" class="g8_1" />
<path d="M234.6,658.8L210.1,644.6" class="g8_1" />
<path d="M315.4,632.1l-44,27.6" class="g8_1" />
<path d="M385.7,588.3l-35.6,22.2" class="g8_1" />
<path fill-rule="evenodd" d="M159.6,615.9c1.1,0,2,0.6,2,1.4c0,0.8,-0.9,1.4,-2,1.4c-1.2,0,-2.1,-0.6,-2.1,-1.4c0,-0.8,0.9,-1.4,2.1,-1.4Z" class="g6_1" />
<path fill-rule="evenodd" d="M234.4,657.3c1.1,0,2.1,0.6,2.1,1.4c0,0.8,-1,1.4,-2.1,1.4c-1.1,0,-2.1,-0.6,-2.1,-1.4c0,-0.8,1,-1.4,2.1,-1.4Z" class="g6_1" />
<path fill-rule="evenodd" d="M272.1,657.8c1.2,0,2.1,0.7,2.1,1.5c0,0.8,-0.9,1.4,-2.1,1.4c-1.1,0,-2.1,-0.6,-2.1,-1.4c0,-0.8,1,-1.5,2.1,-1.5Z" class="g6_1" />
<path fill-rule="evenodd" d="M385.6,586.8c1.2,0,2.1,0.6,2.1,1.4c0,0.8,-0.9,1.4,-2.1,1.4c-1.1,0,-2,-0.6,-2,-1.4c0,-0.8,0.9,-1.4,2,-1.4Z" class="g6_1" />
<path fill-rule="evenodd" d="M328.6,527.5c0.7,-1,1.7,-1.4,2.4,-1c0.6,0.4,0.7,1.6,0,2.5c-0.6,1,-1.6,1.4,-2.3,1c-0.7,-0.5,-0.7,-1.6,-0.1,-2.5Z" class="g6_1" />
<path fill-rule="evenodd" d="M328.9,512.6c0.6,-0.9,1.7,-1.4,2.3,-0.9c0.7,0.4,0.7,1.5,0.1,2.5c-0.6,0.9,-1.7,1.4,-2.3,0.9c-0.7,-0.4,-0.7,-1.5,-0.1,-2.5Z" class="g6_1" />
<path d="M365.9,577.3L289.6,536.7L178.9,605.8" class="g8_1" />
<path d="M365.9,577.3L252.3,648.1L178.9,605.8" class="g10_1" />
<path d="M353.4,584.7L289.2,551.8l-97.8,61" class="g10_1" />
<path d="M365.9,440.2L289.6,399.6L178.9,468.7" class="g10_1" />
<path d="M178.9,468.7L252.3,511L365.9,440.2" class="g8_1" />
<path d="M252.3,511.1l-0.2,14.2" class="g8_1" />
<path d="M178.7,468.7l0,14.2l73.4,42.4L365.7,454.4l0,-14.2" class="g10_1" />
<path fill-rule="evenodd" d="M256.3,610.4l-5.7,-3.1l-0.3,-6.4l-12.5,8l-5.7,-3.1l24.3,-63.4l6,2.2l27.4,30.9l-16.9,10.7l0.6,12.7Z" class="g13_1" />
<path d="M259.7,599.6c-1.3,-0.7,-0.6,-5,0.4,-7.3c1.1,-2.3,4.5,-5.7,6.3,-4.8" class="g8_1" />
<path d="M269.2,581.2l0.4,6.6" class="g8_1" />
<path fill-rule="evenodd" d="M263.9,574.1l-3.2,33.3l-4.4,3l-5.7,-3.1l-0.3,-6.4l-12.5,8l-5.7,-3.1l24.3,-63.4l6,2.2Z" class="g14_1" />
<path fill-rule="evenodd" d="M272.9,586.3l0.6,12.6l-17.3,11.5l-0.6,-12.9L237.7,609l24.7,-64.4l27.4,30.9Z" class="g15_1" />
<path d="M256.2,610.4l17.3,-11.5l-0.6,-12.7l16.9,-10.7L262.4,544.6" class="g8_1" />
<path d="M237.7,609l24.7,-64.4" class="g8_1" />
<path d="M256.3,610.4l-0.7,-12.9" class="g8_1" />
<path d="M237.7,609l17.9,-11.5" class="g8_1" />
<path d="M289.6,536.7l-0.4,15.1" class="g8_1" />
<path d="M368.4,578.8l19.7,10.5" class="g8_1" />
<path d="M793,570.6L710.9,527l-69.4,43.3m-8,4.8l-41.7,26.2" class="g8_1" />
<path d="M591.8,601.3l79,45.5L793,570.6" class="g10_1" />
<path d="M779.6,578.6L710.4,543.2l-69.1,43.2m-8.3,5.2l-27.7,17.2" class="g10_1" />
<path d="M710.7,528.2l-0.3,15.2" class="g8_1" />
<path d="M589.2,435.6L707.6,361.9c0,0,2.1,-1,3.8,0c1.7,0.9,24.1,14.1,24.1,14.1" class="g10_1" />
<path d="M755.3,377.8c0,0,0.1,0.7,-0.6,1.3c-0.8,0.6,-87.1,54.4,-87.1,54.4c0,0,-4.7,3.2,-10.3,3.5c-5.7,0.4,-40.7,2.1,-40.7,2.1" class="g8_1" />
<path d="M708.9,377.2l43.3,-2.1c0,0,1.4,-0.1,1.9,0.2c0.4,0.3,1.2,2.5,1.2,2.5" class="g10_1" />
<path d="M612.6,436.6c0,0.5,0.5,0.6,0.5,0.6L671.5,471c0,0,6.9,3.2,11.9,0.3c5,-2.8,85.3,-53.1,85.3,-53.1c0,0,3.2,-1.8,3.1,-4.3" class="g10_1" />
<path d="M760.2,390.1L797.9,412c0,0,1.5,0.8,1.5,1.9c0,1.1,0,1.7,0,1.7c0,0,0,0.5,-0.7,1c-0.6,0.5,-118.5,74,-118.5,74c0,0,-1.8,1.1,-3.9,0c-2.2,-1.1,-87,-50.5,-87,-50.5c0,0,-0.8,-0.4,-0.9,-1.3c0,-0.8,0,-2,0,-2c0,0,0,-0.7,0.8,-1.2" class="g10_1" />
<path d="M799.4,413.7c0,0,0,0.5,-0.7,1c-0.6,0.5,-118.5,74,-118.5,74c0,0,-1.8,1.1,-3.9,-0.1c-2.2,-1.1,-87,-50.5,-87,-50.5c0,0,-0.8,-0.4,-0.9,-1.2" class="g8_1" />
<path d="M754.2,375.8c0,0,0.1,0.6,-0.6,1.2c-0.8,0.7,-87.1,54.5,-87.1,54.5c0,0,-4.7,3.1,-10.3,3.5c-5.7,0.3,-43,2,-43,2" class="g8_1" />
<path d="M612.6,436.6c0,-0.4,0.4,-0.5,0.6,-0.6c0.2,-0.2,95.8,-59.7,95.8,-59.7c0,0,1,-0.5,1.6,-0.1c0.6,0.4,1.1,0.7,1.1,0.7" class="g8_1" />
<path d="M708.5,377.4c0,0,-95.2,59.3,-95.2,59.3" class="g8_1" />
<path d="M662.7,437.8l12,31.1" class="g8_1" />
<path d="M666.6,441.1l11,29.1" class="g8_1" />
<path d="M755.3,377.8l14.5,37.4c0,0,0.8,1.8,-1.7,3.4" class="g10_1" />
<path d="M767.5,409.3c1.4,0.8,4.3,1.9,4.3,4.6" class="g8_1" />
<path d="M768.5,411.9c1.2,0.7,2.6,1.5,3.1,3" class="g10_1" />
<path d="M683.2,443.9l2.4,6" class="g10_1" />
<path d="M683.2,443.9l2.7,-1.8" class="g10_1" />
<path d="M685.6,449.9l2.7,-1.7" class="g8_1" />
<path d="M688.3,448.2c1.2,-0.8,1.3,-3,1,-4.4c-0.4,-1.4,-2,-2.5,-3.4,-1.7" class="g8_1" />
<path d="M685.4,449.2l1.4,-0.9" class="g8_1" />
<path d="M686.8,448.3c1.2,-0.7,1.5,-2.8,1.2,-4.2c-0.3,-1.4,-1.8,-2.1,-3.2,-1.2" class="g8_1" />
<path d="M685.2,448.5l1,-0.6" class="g8_1" />
<path d="M686.2,447.9c0.9,-0.6,1.2,-2.1,1,-3.3c-0.1,-1.3,-1.7,-2.2,-2.6,-1.6" class="g8_1" />
<path d="M704.1,431l2.4,5.9" class="g10_1" />
<path d="M704.1,431l2.7,-1.8" class="g10_1" />
<path d="M706.5,436.9l2.7,-1.7" class="g8_1" />
<path d="M709.2,435.2c1.2,-0.7,1.3,-2.9,1,-4.3c-0.4,-1.5,-2,-2.6,-3.4,-1.7" class="g8_1" />
<path d="M706.3,436.3l1.4,-0.9" class="g8_1" />
<path d="M707.7,435.4c1.2,-0.8,1.5,-2.9,1.2,-4.3c-0.3,-1.4,-1.8,-2.1,-3.2,-1.2" class="g8_1" />
<path d="M706.1,435.5l1,-0.6" class="g8_1" />
<path d="M707.1,434.9c0.9,-0.5,1.2,-2.1,1,-3.3c-0.1,-1.2,-1.7,-2.1,-2.6,-1.5" class="g8_1" />
<path d="M688.7,435.1l1.3,3.2Z" class="g10_1" />
<path d="M695.6,430.8l-6.9,4.3" class="g10_1" />
<path d="M690,438.3l7,-4.3l-1.4,-3.2" class="g8_1" />
<path d="M689.8,437.4l5.7,-3.5l-1,-2.4" class="g8_1" />
<path d="M689.4,436.9l5.1,-3.1l-0.7,-1.7" class="g8_1" />
<path d="M693.7,446.1l1.3,3.1Z" class="g10_1" />
<path d="M699.5,442.4l-5.8,3.7" class="g10_1" />
<path d="M695,449.2l6,-3.5l-1.4,-3.3" class="g8_1" />
<path d="M694.7,448.6l4.8,-3l-1,-2.4" class="g8_1" />
<path d="M694.5,447.9l3.9,-2.4l-0.7,-1.7" class="g8_1" />
<path d="M709.6,422l1.3,3.2Z" class="g10_1" />
<path d="M716.5,417.7l-6.9,4.3" class="g10_1" />
<path d="M710.9,425.2l7,-4.3l-1.4,-3.2" class="g8_1" />
<path d="M710.7,424.3l5.7,-3.5l-1,-2.4" class="g8_1" />
<path d="M710.3,423.8l5.1,-3.1L714.7,419" class="g8_1" />
<path d="M714.6,433l1.3,3.2Z" class="g10_1" />
<path d="M720.4,429.3l-5.8,3.7" class="g10_1" />
<path d="M715.9,436.2l6,-3.6l-1.4,-3.3" class="g8_1" />
<path d="M715.6,435.5l4.8,-3l-1,-2.4" class="g8_1" />
<path d="M715.4,434.8l3.9,-2.4l-0.7,-1.7" class="g8_1" />
<path d="M734.3,414.3c0.1,0,0.3,0,0.5,-0.1c0.7,-0.3,7.6,-4.8,7.6,-4.8c0,0,0.6,-0.5,0.4,-1.2c-0.2,-0.7,-1.4,-3.5,-1.4,-3.5c0,0,-0.2,-0.2,-0.5,-0.3" class="g8_1" />
<path d="M740.9,404.4c-0.2,-0.1,-0.5,-0.1,-0.9,0c-0.8,0.4,-7.2,4.4,-7.2,4.4c0,0,-1.1,0.8,-0.6,1.5l1.5,3.7c0,0,0.2,0.3,0.6,0.3" class="g10_1" />
<path d="M733.8,413.9c1.4,-0.9,7.3,-4.6,7.3,-4.6c0,0,0.6,-0.5,0.4,-1.3c-0.3,-0.7,-1.5,-3.5,-1.5,-3.5" class="g8_1" />
<path d="M733.1,411.5l6.5,-4.1l-0.4,-1.5c0,0,-1.3,0.2,-1.4,0" class="g8_1" />
<path d="M739,406l-6,3.7l0.4,1.2" class="g8_1" />
<path d="M733,409.7l-0.8,-0.3" class="g8_1" />
<path d="M737,421.9c0.2,0,0.4,0,0.7,-0.1c0.6,-0.3,7.6,-4.8,7.6,-4.8c0,0,0.6,-0.5,0.4,-1.2c-0.3,-0.7,-1.5,-3.5,-1.5,-3.5c0,0,-0.1,-0.2,-0.4,-0.3" class="g8_1" />
<path d="M743.8,412c-0.2,-0.1,-0.5,-0.1,-0.9,0.1c-0.9,0.4,-7.2,4.3,-7.2,4.3c0,0,-1.1,0.8,-0.6,1.5l1.5,3.7c0,0,0.2,0.2,0.4,0.3" class="g10_1" />
<path d="M736.6,421.5c1.4,-0.9,7.4,-4.6,7.4,-4.6c0,0,0.6,-0.5,0.3,-1.2c-0.2,-0.8,-1.4,-3.6,-1.4,-3.6" class="g8_1" />
<path d="M735.9,419.1l6.6,-4.1L742,413.5c0,0,-1.2,0.2,-1.3,0" class="g8_1" />
<path d="M741.9,413.6l-6.1,3.7l0.5,1.2" class="g8_1" />
<path d="M735.8,417.3l-0.7,-0.2" class="g8_1" />
<path d="M597.3,444.7l0,54.5c0,0,-0.3,2.3,3.3,4.2c3.6,1.9,70.4,40.9,70.4,40.9c0,0,5,2.7,9.6,-0.1c4.7,-2.7,16.9,-10.5,16.9,-10.5c0,0,1.4,-1,1.4,-2c0,-1.1,0,-2.6,0,-2.6c0,0,-0.1,-0.5,-0.6,-0.7c-0.4,-0.3,-1.4,-0.9,-1.4,-0.9" class="g10_1" />
<path d="M689.3,533.1c-0.1,-0.7,0.2,-1.1,0.8,-1.5c0.6,-0.4,55.5,-34.6,55.5,-34.6c0,0,1.1,-0.6,1.1,0.4" class="g10_1" />
<path d="M698.9,529.1c-0.2,-0.4,-0.4,-0.6,-1.2,-0.3c-0.8,0.3,-1.3,0.5,-1.8,1c-0.6,0.4,-5.8,3.6,-5.8,3.6c0,0,-0.8,0.4,-0.8,-0.3" class="g8_1" />
<path d="M744.7,497.5l0,3.2c0,0,0.1,0.5,0.4,0.8c0.3,0.2,1.5,0.9,1.5,0.9c0,0,0.6,0.4,1.4,-0.1c0.8,-0.6,26.8,-16.7,26.8,-16.7c0,0,1.5,-1.1,1.5,-2.1c0,-1,0,-2.7,0,-2.7c0,0,0.1,-0.2,-0.7,-0.7c-0.7,-0.4,-1.5,-0.8,-1.5,-0.8" class="g10_1" />
<path d="M766.7,484.8c0,-0.9,0.4,-1.2,0.7,-1.4c0.4,-0.3,18.2,-11.2,18.2,-11.2c0,0,2.1,-0.8,2.1,-3.5c0,-2.6,0,-45.4,0,-45.4" class="g10_1" />
<path d="M776.3,480.8c0.1,-0.4,-0.5,-0.5,-1,-0.3c-0.5,0.2,-1.2,0.4,-1.2,0.4l-6.5,4.2c0,0,-0.9,0.5,-0.9,-0.3" class="g8_1" />
<path d="M641.1,629.3c0.1,-29,0.2,-49,0.1,-102.3" class="g10_1" />
<path d="M633.2,625.2c0.1,-31.4,0.5,-50.1,0.5,-102.6" class="g10_1" />
<path d="M675.5,541.5l0,-48" class="g8_1" />
<path d="M746.7,497.4l0,4.2c0,0,0.2,1.1,0.9,0.9" class="g8_1" />
<path d="M677.5,493.5l0,42" class="g8_1" />
<path fill-rule="evenodd" d="M725.7,544.4L697,605.9l-4.8,-2.8L665.4,576.7l18.3,-11.5l-0.1,-11.9l20,-12.5l4.6,2.5l0,6.7l13.3,-8.2Z" class="g16_1" />
<path fill-rule="evenodd" d="M726.2,544.1l-18,11.2l0,-12l-20.1,12.4l0,12.1l-18.2,11.5L697,605.9Z" class="g15_1" />
<path d="M725.8,544.3L697,605.9l-4.8,-2.8L665.4,576.7l2.4,-1.5l15.9,-9.8l-0.1,-12.3l20,-12.3l4.6,2.5l0,12" class="g10_1" />
<path d="M725.8,544.3l-4.3,-2.5L708.3,550" class="g10_1" />
<path d="M725.8,544.3l-17.6,11" class="g8_1" />
<path d="M669.9,579.3l18.2,-11.5l0,-12.1l20.1,-12.4" class="g8_1" />
<path d="M688.1,555.7l-4.5,-2.6" class="g8_1" />
<path d="M688,567.8l-4.3,-2.4" class="g8_1" />
<path d="M697,605.9L669.9,579.3" class="g8_1" />
<path d="M669.9,579.3l-4.5,-2.6" class="g8_1" />
<path fill-rule="evenodd" d="M439.6,912.5l4.1,-2.5l-4.4,-40.7L421.5,854.9L406.8,843.3l-4.1,2.6l19,33.2l4.1,-2.6l-4.2,-9.4l8,6.1l0.3,31.5Z" class="g16_1" />
<path fill-rule="evenodd" d="M443.7,910l-0.3,-43.3L425.6,852.4l-0.1,-10.8l-18.7,1.7l19,33.2l-0.1,-11.9l8,6.1l0.3,31.4Z" class="g15_1" />
<path d="M425.7,870.3l3.9,2.9l0.3,31.5l9.7,7.8l4.1,-2.5l-0.3,-43.3L425.6,852.4l-0.1,-10.8l-18.7,1.7l-4.1,2.6l19,33.2l4.1,-2.6l-0.1,-11.9" class="g10_1" />
<path d="M406.8,843.3l19,33.2" class="g8_1" />
<path d="M425.7,864.6l8,6.1l0.3,31.4l9.3,7.6" class="g8_1" />
<path d="M433.7,870.7l-4.1,2.5" class="g8_1" />
<path d="M434.1,902.1l-4.1,2.6" class="g8_1" />
<path d="M272.7,801.9c3.6,-7.1,11.1,-17.2,19.1,-24.6" class="g10_1" />
<path d="M271.4,930.7C273.8,914.3,266,890.3,264,861.6c-1.7,-23.2,2.5,-46.2,6.6,-54.4" class="g10_1" />
<path d="M278.2,928.4c2.4,-13.1,-4.9,-39.4,-6.8,-57.9c-2.4,-23.9,-1.1,-43.7,6.7,-63c5.4,-13.5,18.6,-25.7,26.8,-32.1" class="g10_1" />
<path d="M358.2,871.6c0,-0.7,0.9,-1.4,2.1,-1.4c1.2,0,2.2,0.6,2.2,1.3l0,2.3" class="g10_1" />
<path d="M358.3,872.1c0.3,-0.6,1.1,-1,2,-1c1.2,0,2.2,0.6,2.2,1.4" class="g8_1" />
<path d="M359.1,872.3c0.4,-0.2,0.8,-0.3,1.3,-0.3c1.2,0,2.1,0.6,2.2,1.4" class="g8_1" />
<path d="M360.4,872.9c1.2,0,2.2,0.6,2.2,1.3" class="g8_1" />
<path d="M356.2,891.9c0,-1.5,2,-2.8,4.4,-2.9c2.5,0,4.5,1.2,4.5,2.8" class="g8_1" />
<path d="M365.1,891.8c0,1.5,-2,2.8,-4.4,2.8c-2.5,0.1,-4.5,-1.1,-4.5,-2.7" class="g10_1" />
<path d="M356.2,891c0,-1.6,1.9,-2.8,4.4,-2.9c2.4,0,4.4,1.2,4.5,2.8" class="g10_1" />
<path d="M359.5,891.7l-0.6,0.4" class="g8_1" />
<path d="M358.9,892.1l0.9,0.8l-0.8,0.6l0.7,0.4l1,-0.5l1.1,0.4l0.8,-0.4l-1.1,-0.5l0.9,-0.9l-0.6,-0.4l-0.7,0.7c-0.3,0.2,-0.6,0.2,-0.8,0c-0.3,-0.2,-0.8,-0.6,-0.8,-0.6" class="g8_1" />
<path d="M357.5,880.2c0,-1,1.3,-1.9,3,-1.9c1.6,0,2.9,0.8,2.9,1.8" class="g8_1" />
<path d="M358.1,881.3c-0.3,-0.3,-0.6,-0.7,-0.6,-1.1" class="g8_1" />
<path d="M363.4,880.1c0,0.5,-0.2,0.9,-0.6,1.2" class="g8_1" />
<path d="M358.3,880.3c0,-0.8,1,-1.4,2.2,-1.4c1.2,0,2.2,0.6,2.2,1.3" class="g8_1" />
<path d="M358.3,881.1c0,-0.7,1,-1.4,2.2,-1.4c1.2,0,2.2,0.6,2.2,1.4" class="g8_1" />
<path d="M358.3,881.9c0,-0.8,1,-1.4,2.2,-1.4c1.2,0,2.2,0.6,2.2,1.3" class="g8_1" />
<path d="M358.3,882.7c0,-0.8,1,-1.4,2.2,-1.5c1.2,0,2.2,0.6,2.2,1.4" class="g8_1" />
<path d="M358.3,883.5c0,-0.8,1,-1.4,2.2,-1.4c1.2,0,2.2,0.6,2.2,1.3" class="g8_1" />
<path d="M358.4,884.3c-0.1,-0.8,0.9,-1.4,2.1,-1.4c1.2,-0.1,2.2,0.6,2.2,1.3" class="g8_1" />
<path d="M358.4,885.1c0,-0.8,0.9,-1.4,2.1,-1.4c1.2,0,2.2,0.6,2.2,1.3" class="g8_1" />
<path d="M358.4,885.9c0,-0.7,0.9,-1.4,2.1,-1.4c1.2,0,2.2,0.6,2.2,1.4" class="g8_1" />
<path d="M358.4,886.7c0,-0.8,0.9,-1.4,2.2,-1.4c1.2,0,2.1,0.6,2.2,1.3" class="g8_1" />
<path d="M358.4,887.5c0,-0.7,1,-1.3,2.2,-1.4c1.2,0,2.2,0.6,2.2,1.4" class="g8_1" />
<path d="M358.4,888.4c0,-0.8,1,-1.4,2.2,-1.4c1.2,-0.1,2.2,0.6,2.2,1.3" class="g8_1" />
<path d="M359,888.2c0.4,-0.2,0.9,-0.4,1.6,-0.4c0.7,-0.1,1.2,0.1,1.7,0.4" class="g8_1" />
<path d="M200.3,1007.6c-0.6,0.2,-1.2,-0.3,-1.6,-1c-0.3,-0.8,-0.1,-1.6,0.4,-1.8" class="g10_1" />
<path d="M199.1,1004.8c0.6,-0.2,1.3,0.2,1.6,1c0.3,0.8,0.1,1.6,-0.4,1.8" class="g8_1" />
<path d="M198.7,1005.3c0.3,0.1,0.7,0.5,0.9,1c0.2,0.4,0.2,0.9,0,1.3" class="g8_1" />
<path d="M198.2,1002.4c-1,0.7,-1,1.2,-1.2,1.9c-0.1,0.7,0.1,2.4,0.5,2.9c0.5,0.5,9.7,7.5,9.7,7.5l0.7,-5.1" class="g8_1" />
<path d="M205.9,1015.2l-9.5,-7.4c0,0,-0.8,-1.4,-0.6,-3.2c0.2,-1.7,1.3,-2.1,1.8,-2.2c0.5,-0.1,0.6,-0.2,0.6,-0.2l9.7,7.4" class="g10_1" />
<path d="M207.2,1014.7l-1.3,0.5" class="g8_1" />
<path d="M197.5,1007.3l-1.3,0.5" class="g8_1" />
<path d="M190.7,1011.7c-0.5,0.2,-1.2,-0.2,-1.5,-1c-0.3,-0.8,-0.2,-1.6,0.4,-1.8" class="g10_1" />
<path d="M189.6,1008.9c0.5,-0.2,1.2,0.2,1.5,1c0.3,0.8,0.1,1.6,-0.4,1.8" class="g8_1" />
<path d="M189.1,1009.4c0.4,0.2,0.7,0.5,0.9,1c0.2,0.5,0.2,0.9,0.1,1.3" class="g8_1" />
<path d="M188.7,1006.5c-1.1,0.7,-1.1,1.2,-1.3,1.9c-0.1,0.7,0.1,2.4,0.5,2.9c0.5,0.5,9.7,7.5,9.7,7.5l0.7,-5.1" class="g8_1" />
<path d="M187,1012.1l-0.2,-0.1c0,0,-0.8,-1.5,-0.6,-3.2c0.3,-1.8,1.3,-2.2,1.8,-2.3c0.6,-0.1,0.7,-0.1,0.7,-0.1l9.6,7.3" class="g10_1" />
<path d="M187.9,1011.4l-1.2,0.5" class="g8_1" />
<path d="M192.4,1020.5l-0.5,4l4.2,3.4" class="g10_1" />
<path d="M196,1024.4l0.2,7.7l14,10.8c0,0,1.3,1.2,3.3,1.2c2,0.1,3.2,0.1,4.4,-0.9c1.1,-1,8.9,-8,8.9,-8" class="g10_1" />
<path d="M196.2,1032.1l7.4,-3.2l2.5,-9l4.8,-3.7l1,-7.8l-1,7.8l13.7,10.6c0,0,3.6,2.7,3.3,5.2" class="g8_1" />
<path d="M206.1,1019.9l14.4,11.1c0,0,2.9,2.1,7,3" class="g8_1" />
<path d="M205.9,1008.1l0.7,-0.3l5.3,0.6l14.3,10.9c0,0,3.3,2.6,2.9,5.5c-0.4,2.8,-1.1,8.1,-1.1,8.1c0,0,-0.3,1.3,-1.2,2.3" class="g10_1" />
<path d="M197.2,1012.9l2,-1.8l0.8,-0.5" class="g10_1" />
<path d="M191.9,1024.5l4.1,-0.1" class="g8_1" />
<path d="M203.6,1028.9l13.6,10.4c0,0,2.5,2.1,1,3.6" class="g8_1" />
<path d="M218.2,1040c0.6,0,1.7,-0.4,2.5,-0.9c0.8,-0.4,6.3,-3.9,6.7,-4.7" class="g8_1" />
<path d="M221.7,1040.1l5.9,3.3c0,0,1.1,0.6,2.2,0.3c1.1,-0.3,2.8,-0.9,4.4,-3.1c1.5,-2.1,1.9,-4.5,1.8,-5.1c-0.1,-0.7,-0.3,-1.3,-0.8,-1.9c-0.5,-0.5,-6.4,-6.7,-6.4,-6.7" class="g10_1" />
<path d="M199.4,1026c0.7,0.4,1.8,-0.2,2.5,-1.1c0.7,-1,1,-2.3,0.3,-2.8" class="g8_1" />
<path d="M199.4,1026l-12.7,-10c0,0,-1.6,-1.4,-0.4,-3.1c1.2,-1.8,3,-0.8,3.8,-0.3c0.7,0.6,12.1,9.5,12.1,9.5" class="g10_1" />
<path d="M350.7,769.7l5.1,4l6.6,-2.8l-6.6,2.8l0,1.5l7.8,-3.4l-7.8,3.4l-6.5,-4.9" class="g8_1" />
<path d="M364.6,772.5l-7.2,3.2c0,0,-0.5,0.3,-0.4,0.7" class="g10_1" />
<path d="M357,776.4c0,0.2,0.4,0.5,0.6,0.6c0.2,0.2,3.5,2.6,3.5,2.6c0,0,0.6,0.6,0.4,1" class="g8_1" />
<path d="M360.1,780.5L347.9,771" class="g8_1" />
<path d="M346.7,770.1l-10.8,-8.4" class="g8_1" />
<path d="M334.7,760.7l-1.1,-0.8l-0.1,-0.7" class="g8_1" />
<path d="M335.3,758.6l0.1,0.9l0.8,0.7" class="g8_1" />
<path d="M337.4,761l10.8,8.4l2.6,-1.1" class="g8_1" />
<path d="M338.7,760.5l9.5,7.4l1.7,-0.7" class="g8_1" />
<path d="M340.1,759.9l-2.7,1.1" class="g8_1" />
<path d="M338.8,759l-2.6,1.1l0.1,-1.6" class="g8_1" />
<path d="M348.2,767.9l0,1.5" class="g8_1" />
<path d="M352,769.1l-2.7,1.2" class="g8_1" />
<path d="M321.6,767.9l10.8,8.4l14.3,-6.2" class="g8_1" />
<path d="M322.9,767.4l9.6,7.4l13,-5.7" class="g8_1" />
<path d="M347.9,770.9l-14.3,6.3" class="g8_1" />
<path d="M335.9,761.7l-14.3,6.2" class="g8_1" />
<path d="M334.6,760.8L320.5,767l0,-1.6" class="g8_1" />
<path d="M320.5,767l-1.9,-1.5" class="g8_1" />
<path d="M320.5,765.4L320,764.9" class="g8_1" />
<path d="M320.5,765.4l13,-5.7" class="g8_1" />
<path d="M317.1,766.1l1.9,1.5" class="g8_1" />
<path d="M320.2,768.5l10.7,8.4" class="g8_1" />
<path d="M332.2,777.8l12.2,9.6" class="g8_1" />
<path d="M333.7,777.2l12.2,9.5" class="g8_1" />
<path d="M335,776.6l10.9,8.6l0,1.5" class="g8_1" />
<path d="M358.9,779.5l-13,5.7" class="g8_1" />
<path d="M360.1,780.5l-14.2,6.1" class="g8_1" />
<path d="M358,775.4l3.3,2.5c0,0,0.5,0.5,0.5,1.2" class="g10_1" />
<path d="M361.8,779.1l-0.3,1.5c0,0,-0.1,0.4,-0.5,0.6c-0.5,0.2,-50.9,22.2,-50.9,22.2" class="g10_1" />
<path d="M309.3,802.7l0.8,0.7" class="g8_1" />
<path d="M309.3,802.7l0.5,-1.9l-0.6,-0.5c0,0,-0.8,-0.5,-1.8,0c-1,0.4,-10.2,4.4,-10.2,4.4" class="g8_1" />
<path d="M297.2,804.7l-0.1,1.7l-1.4,0.7l0.4,6.7" class="g8_1" />
<path d="M297.2,804.7L289.8,799" class="g8_1" />
<path d="M297.1,806.4l-8.7,-6.7" class="g8_1" />
<path d="M295.7,807.1l-12.3,-9.2" class="g8_1" />
<path d="M269.5,787l3.8,2.9L273,800.3l-1.3,0.5" class="g10_1" />
<path d="M265.2,794.7c-0.3,0.1,0,1,0.4,1.5c0.5,0.6,6.1,4.6,6.1,4.6c0,0,1.4,0.9,1.4,2.6c0,1.6,-0.1,2.4,-0.1,2.4c0,0,-0.1,0.5,-0.6,0.8c-0.5,0.2,-1.3,0.5,-1.3,0.5c0,0,-0.4,0.3,-1,-0.1C269.4,806.7,256,795.8,256,795.8c0,0,-1,-0.7,-1.3,-1.8c-0.3,-1.2,-0.1,-2.3,-0.1,-2.4C254.5,791.5,254,733.5,254,733.5" class="g10_1" />
<path d="M273,800.3l-7.1,-5.6c0,0,-0.4,-0.2,-0.7,0" class="g8_1" />
<path d="M273.2,791.4l3.1,-1.3l0.2,-1.5" class="g10_1" />
<path d="M276.3,790.1l-4,-3.1" class="g8_1" />
<path d="M276.4,788.5L273,785.9" class="g10_1" />
<path d="M317.5,785.3c0,0,0.4,0.3,-0.3,0.6c-0.8,0.2,-28.9,12.5,-28.9,12.5c0,0,-0.7,0.3,-1,0.2c-0.3,-0.1,-2.9,-2.1,-2.9,-2.1" class="g8_1" />
<path d="M273.3,785.7c4.6,-2,26.8,-11.6,27.5,-11.9c0.8,-0.4,1.5,-0.3,2,0c0.4,0.3,14.7,11.5,14.7,11.5" class="g10_1" />
<path d="M272.3,787c-0.4,-0.3,-0.3,-0.7,0.1,-0.9c0.1,0,0.4,-0.2,0.9,-0.4" class="g8_1" />
<path d="M285.2,795.3l2,1.6c0,0,0.7,0.3,1.1,0.2c0.4,-0.2,28.4,-12.4,28.4,-12.4" class="g10_1" />
<path d="M348.5,757.9c0.3,-0.4,0.4,-0.4,1,0c0.5,0.4,45.8,35.7,45.8,35.7c0,0,0.9,0.7,0.9,2c-0.1,1.4,-0.1,3.9,-0.1,3.9c0,0,0.2,1.4,1.1,2.2c0.9,0.9,22.3,17.4,22.3,17.4c0,0,0.8,0.5,1.3,0.2" class="g8_1" />
<path d="M257.2,792.8c0.2,-0.4,0.6,-0.7,1.2,-1c2.7,-1.1,75.3,-32.7,75.3,-32.7c0,0,3.3,-1.8,6.7,0.8c3.4,2.5,12.9,10,12.9,10c0,0,0.5,0.6,1.4,0.2c0.8,-0.3,1.3,-0.5,1.3,-0.5c0,0,0.5,-0.2,0.6,-0.8c0,-0.6,-0.1,-2.3,-0.1,-2.3c0,0,-0.2,-1.4,-1.2,-2.2c-0.9,-0.9,-5.9,-4.8,-5.9,-4.8c0,0,-1.1,-1.1,-0.9,-1.6" class="g10_1" />
<path d="M272.8,805.7c-0.2,0.2,-0.6,0.4,-1.1,0c-0.4,-0.3,-14.1,-11.1,-14.1,-11.1c0,0,-1.4,-1.1,-0.8,-2.2" class="g8_1" />
<path d="M317.8,766.6l-13.2,5.8l-0.8,-0.5" class="g8_1" />
<path d="M319,767.7l-14.4,6.2l-2,-1.4" class="g8_1" />
<path d="M304.6,773.9l0,-1.5" class="g8_1" />
<path d="M320.2,768.5l-14.5,6.3l10.8,8.4l14.4,-6.3" class="g8_1" />
<path d="M329.7,776l-13.1,5.7L307,774.2" class="g8_1" />
<path d="M316.6,781.7l-0.1,1.5" class="g8_1" />
<path d="M332.2,777.8l-14.5,6.3" class="g8_1" />
<path d="M320,784.3l-0.1,1.6l-1.8,0.8" class="g8_1" />
<path d="M319.1,783.5l0.9,0.8" class="g8_1" />
<path d="M317.7,784.1l2.2,1.8" class="g8_1" />
<path d="M319.4,786.1l8.6,6.8l15,-6.5" class="g8_1" />
<path d="M318.1,786.7l9.9,7.8l16.4,-7.1" class="g8_1" />
<path d="M328,792.9l0,1.6" class="g8_1" />
<path d="M358.2,872.6c0,-0.8,0.9,-1.4,2.1,-1.5c1.2,0,2.2,0.6,2.2,1.4" class="g8_1" />
<path d="M358.4,872.8c0.3,-0.4,1.1,-0.8,1.9,-0.8c1.2,0,2.2,0.6,2.2,1.4" class="g8_1" />
<path d="M432.1,927.5c0.4,-0.2,0.9,-0.3,1.4,-0.3c1.2,-0.1,2.2,0.6,2.2,1.3l0.1,1.9" class="g10_1" />
<path d="M432.9,928.1c0.2,0,0.4,0,0.7,0c1.2,0,2.1,0.6,2.2,1.3" class="g8_1" />
<path d="M429.4,948.9c0,-1.6,2,-2.9,4.4,-2.9c2.5,0,4.5,1.2,4.5,2.7" class="g8_1" />
<path d="M438.3,948.7c0,1.6,-1.9,2.9,-4.4,2.9c-2.4,0,-4.4,-1.2,-4.5,-2.7" class="g10_1" />
<path d="M429.4,948c0,-1.6,2,-2.9,4.4,-2.9c2.5,0,4.5,1.2,4.5,2.7" class="g10_1" />
<path d="M432.7,948.6l-0.6,0.4" class="g8_1" />
<path d="M432.1,949l0.9,0.8l-0.8,0.6l0.7,0.4l1,-0.4l1.1,0.4l0.8,-0.5l-1.1,-0.4l0.9,-1L435,948.6l-0.7,0.7c-0.2,0.1,-0.6,0.2,-0.8,0c-0.2,-0.2,-0.8,-0.7,-0.8,-0.7" class="g8_1" />
<path d="M430.7,937.2c0,-1.1,1.3,-1.9,3,-1.9c1.6,-0.1,2.9,0.8,3,1.8" class="g8_1" />
<path d="M431.4,938.3c-0.4,-0.3,-0.6,-0.7,-0.7,-1.1" class="g8_1" />
<path d="M436.7,937.1c0,0.5,-0.3,0.9,-0.7,1.2" class="g8_1" />
<path d="M431.5,937.2c0,-0.7,1,-1.3,2.2,-1.4c1.2,0,2.2,0.6,2.2,1.4" class="g8_1" />
<path d="M431.5,938.1c0,-0.8,1,-1.4,2.2,-1.4c1.2,0,2.2,0.6,2.2,1.3" class="g8_1" />
<path d="M431.5,938.9c0,-0.8,1,-1.4,2.2,-1.4c1.2,-0.1,2.2,0.5,2.2,1.3" class="g8_1" />
<path d="M431.6,939.6c-0.1,-0.7,0.9,-1.4,2.1,-1.4c1.2,0,2.2,0.6,2.2,1.4" class="g8_1" />
<path d="M431.6,940.5c0,-0.8,0.9,-1.4,2.1,-1.5c1.2,0,2.2,0.6,2.2,1.4" class="g8_1" />
<path d="M431.6,941.2c0,-0.7,0.9,-1.4,2.1,-1.4c1.2,0,2.2,0.6,2.2,1.4" class="g8_1" />
<path d="M431.6,942.1c0,-0.8,0.9,-1.4,2.2,-1.5c1.2,0,2.1,0.6,2.2,1.4" class="g8_1" />
<path d="M431.6,942.9c0,-0.8,1,-1.4,2.2,-1.4c1.2,0,2.2,0.6,2.2,1.3" class="g8_1" />
<path d="M431.6,943.7c0,-0.8,1,-1.4,2.2,-1.4c1.2,-0.1,2.2,0.5,2.2,1.3" class="g8_1" />
<path d="M431.6,944.5c0,-0.8,1,-1.4,2.2,-1.4c1.2,0,2.2,0.6,2.2,1.3" class="g8_1" />
<path d="M431.6,945.3c0,-0.7,1,-1.4,2.2,-1.4c1.2,0,2.2,0.6,2.2,1.4" class="g8_1" />
<path d="M432.2,945.2c0.4,-0.3,1,-0.5,1.6,-0.5c0.7,0,1.3,0.2,1.7,0.5" class="g8_1" />
<path d="M246.7,921.1l0,-1.3c0,-0.7,1,-1.4,2.2,-1.4c1.2,0,2.2,0.6,2.2,1.4l0,1.3" class="g10_1" />
<path d="M246.9,920.3c0.3,-0.6,1.1,-1,2,-1c1.2,0,2.2,0.6,2.2,1.4" class="g8_1" />
<path d="M247.7,920.5c0.3,-0.2,0.8,-0.3,1.2,-0.3c1.2,0,2.2,0.6,2.2,1.4" class="g8_1" />
<path d="M244.8,940.1c0,-1.5,1.9,-2.8,4.4,-2.8" class="g8_1" />
<path d="M250.6,942.7c-0.5,0.1,-0.9,0.2,-1.3,0.2c-2.5,0,-4.5,-1.2,-4.5,-2.8" class="g10_1" />
<path d="M244.8,939.2c-0.1,-1.5,1.9,-2.8,4.4,-2.9" class="g10_1" />
<path d="M248,939.9l-0.6,0.4" class="g8_1" />
<path d="M247.4,940.3l1,0.8l-0.9,0.6l0.7,0.4l1,-0.5m0.1,-0.9c-0.2,0,-0.3,0,-0.5,-0.1c-0.2,-0.2,-0.8,-0.7,-0.8,-0.7" class="g8_1" />
<path d="M246.1,928.4c0,-1,1.3,-1.9,2.9,-1.9c0.1,0,0.2,0,0.3,0" class="g8_1" />
<path d="M246.7,929.6c-0.4,-0.4,-0.6,-0.7,-0.6,-1.2" class="g8_1" />
<path d="M246.9,928.5c0,-0.8,0.9,-1.4,2.1,-1.4" class="g8_1" />
<path d="M246.9,929.3c0,-0.7,0.9,-1.4,2.1,-1.4" class="g8_1" />
<path d="M246.9,930.1c0,-0.7,0.9,-1.4,2.2,-1.4" class="g8_1" />
<path d="M246.9,930.9c0,-0.8,1,-1.4,2.2,-1.4" class="g8_1" />
<path d="M246.9,931.7c0,-0.8,1,-1.4,2.2,-1.4" class="g8_1" />
<path d="M246.9,932.5c0,-0.8,1,-1.4,2.2,-1.4" class="g8_1" />
<path d="M246.9,933.3c0,-0.8,1,-1.4,2.2,-1.4" class="g8_1" />
<path d="M246.9,934.1c0,-0.7,1,-1.4,2.2,-1.4" class="g8_1" />
<path d="M247,934.9c0,-0.7,0.9,-1.4,2.1,-1.4" class="g8_1" />
<path d="M247,935.8c0,-0.8,0.9,-1.4,2.1,-1.5" class="g8_1" />
<path d="M247,936.6c0,-0.8,0.9,-1.4,2.1,-1.4" class="g8_1" />
<path d="M247.5,936.5c0.4,-0.3,1,-0.5,1.7,-0.5" class="g8_1" />
<path d="M246.7,920.8c0,-0.8,1,-1.4,2.2,-1.4c1.2,-0.1,2.2,0.5,2.2,1.3" class="g8_1" />
<path d="M247,921c0.3,-0.4,1,-0.8,1.9,-0.8c1,0,1.8,0.4,2.1,0.9" class="g8_1" />
<path d="M317.8,997.2c0,-0.5,0.3,-1.1,0.8,-1.5" class="g8_1" />
<path d="M322.9,999.9c-0.2,0.1,-0.4,0.1,-0.6,0.1c-2.5,0,-4.5,-1.2,-4.5,-2.8" class="g10_1" />
<path d="M318.1,995.3c-0.2,0.3,-0.3,0.6,-0.3,1l0,0.9" class="g8_1" />
<path d="M320.5,997.4l0.9,0.8l-0.8,0.6l0.7,0.4l1,-0.4l0.4,0" class="g8_1" />
<path d="M326.5,795.1l-9.9,-7.7l-11.8,5.1" class="g8_1" />
<path d="M305.9,792l8.7,6.8l10.7,-4.6" class="g8_1" />
<path d="M304.6,792.6l10.1,7.7l11.8,-5.1" class="g8_1" />
<path d="M314.6,798.8l0.1,1.5" class="g8_1" />
<path d="M313,801l-10,-7.7l-14.6,6.4" class="g8_1" />
<path d="M311.7,800.1c0,-0.1,-1.8,0.8,-1.8,0.8" class="g8_1" />
<path d="M313,801l-3.6,1.6" class="g8_1" />
<path d="M413.1,808.3c0.1,-0.6,0.4,-0.3,1,0.1c0.5,0.4,14.9,11.7,14.9,11.7c0,0,1.2,1.3,1,2.2" class="g8_1" />
<path d="M356.4,766.1L393.6,795c0,0,0.7,0.8,0.7,1.6c0,0.9,0,4.1,0,4.1c0,0,0,1.4,1,2.1c0.9,0.7,22.4,17.5,22.4,17.5c0,0,0.8,0.5,1.3,0.3c0.5,-0.2,1.7,-0.7,1.7,-0.7c0,0,0.3,-0.2,0.4,-0.6c0,-0.5,0,-2.5,0,-2.5c0,0,-0.2,-1.3,-1.3,-2.2c-1.2,-0.8,-5.9,-4.7,-5.9,-4.7c0,0,-1,-0.9,-0.8,-1.6" class="g10_1" />
<path d="M329.4,844.7c-0.3,0.5,0.2,1.3,0.8,1.7c0.5,0.4,5.6,4.3,5.6,4.3l1.1,1.2c0,0,0.4,1.1,0.3,1.7c0,0.7,0,2.1,0,2.1c0,0,-0.1,0.6,-0.5,0.8c-0.4,0.1,-1.4,0.6,-1.4,0.6c0,0,-0.5,0.2,-1,-0.2c-0.6,-0.4,-21.4,-16.5,-22.4,-17.4c-0.9,-0.8,-1.1,-1.6,-1.2,-2.6c-0.1,-1,0,-3.8,0,-3.8c0,0,-0.2,-1.1,-1.3,-1.9c-1.1,-0.8,-29.2,-22.8,-29.2,-22.8l0,-4.8" class="g10_1" />
<path d="M427.5,822.4c0,0.6,-0.4,1.2,-1.6,1.7c-3,1.3,-74.9,32.6,-74.9,32.6c0,0,-3.1,1.8,-6.8,-0.9c-3.6,-2.7,-14,-11,-14,-11c0,0,-0.6,-0.7,-0.8,-0.1" class="g8_1" />
<path d="M421,816.3l5.7,4.5c0,0,0.8,0.7,0.8,1.6" class="g10_1" />
<path d="M282.4,799.6l-0.2,7.9l-2,0.9" class="g8_1" />
<path d="M282.2,807.5l12.2,9.5" class="g8_1" />
<path d="M336.9,856.3c-0.2,0.1,-0.5,0,-0.8,-0.2c-0.5,-0.3,-21.4,-16.5,-22.4,-17.4c-0.9,-0.8,-1.1,-1.6,-1.2,-2.6c-0.1,-1.2,0,-2.3,0.1,-3.5" class="g8_1" />
<path d="M254.6,793.7c0,-0.6,0.2,-2.1,2.3,-3c2.1,-0.9,75.3,-32.8,75.3,-32.8c0,0,4.5,-2.9,10,1.1c5.5,4.1,13,10.2,13,10.2c0,0,0.6,0.6,1,0.3" class="g8_1" />
<path d="M383.1,786.9l-5.4,2.3c0,0,-1,0.5,-1.8,0c-0.7,-0.5,-3.2,-2.5,-3.2,-2.5c0,0,-1.9,-1.6,-4.4,-0.5c-2.5,1.1,-45,19.6,-45,19.6" class="g10_1" />
<path d="M385.6,788.8l-7.4,3.2c0,0,-2.1,0.7,-3.2,-0.1c-1.1,-0.8,-4.5,-3.6,-4.5,-3.6l-1.2,0.5L368.1,788" class="g8_1" />
<path d="M377.1,792.3l5.3,4l8.3,-3.6" class="g8_1" />
<path d="M382.4,796.3l-0.8,2l0.9,0.9" class="g8_1" />
<path d="M381.6,798.3L392,793.7" class="g8_1" />
<path d="M393,794.5l-7.9,3.5" class="g8_1" />
<path d="M386.4,797.4l9.6,7.5l1.3,-0.5" class="g8_1" />
<path d="M385.1,798l10.8,8.5l2.6,-1.1" class="g8_1" />
<path d="M395.9,806.5l0.1,-1.6" class="g8_1" />
<path d="M399.7,806.2l-2.6,1.2" class="g8_1" />
<path d="M394.4,807.1l-14.2,6.2" class="g8_1" />
<path d="M412.6,816.3l-1.3,0.5" class="g8_1" />
<path d="M413.9,817.3l-2.6,1.2l-7.5,-5.8" class="g8_1" />
<path d="M404,811.1l7.3,5.7l0,1.7" class="g8_1" />
<path d="M415.3,818.3l-42.7,18.6" class="g10_1" />
<path d="M377.7,833.1l-14.2,-11" class="g8_1" />
<path d="M377.8,831.5L364.9,821.4" class="g8_1" />
<path d="M394.2,826L379.9,814.9" class="g8_1" />
<path d="M395.6,825.3L381.4,814.2" class="g8_1" />
<path d="M395.6,823.6l-12.9,-10" class="g8_1" />
<path d="M409.8,819.2l-7.9,-6.3l-0.1,-1.4" class="g8_1" />
<path d="M395.5,808.1l-14.1,6.1" class="g8_1" />
<path d="M382.5,799.2l-1.8,4.3" class="g10_1" />
<path d="M394.4,807.1l-10.8,-8.4l-1.1,0.5" class="g8_1" />
<path d="M393.1,806.1l-12.9,5.6l-9.2,-7" class="g8_1" />
<path d="M373.2,800l-3.5,7.3" class="g10_1" />
<path d="M370.5,805.7l9.7,7.6" class="g8_1" />
<path d="M369.8,807.1l8.8,6.9" class="g8_1" />
<path d="M379.9,814.9l-16.4,7.2" class="g8_1" />
<path d="M378.6,814l-16.2,7.1" class="g8_1" />
<path d="M377.3,813l-15,6.5l-9.5,-7.3" class="g8_1" />
<path d="M364.7,807.1l-13.2,5.7l10.9,8.3" class="g8_1" />
<path d="M363.5,806.1l-13.2,5.7" class="g8_1" />
<path d="M362.4,805.2l-11.9,5.2l-11,-8.6" class="g8_1" />
<path d="M350.3,811.8l-12.1,-9.4l16.3,-7.2l7.5,5.7" class="g8_1" />
<path d="M359.7,793l-3.7,1.6" class="g8_1" />
<path d="M357.4,794l5.8,4.5" class="g8_1" />
<path d="M356,794.6l6.7,5.1" class="g8_1" />
<path d="M409.8,819.2l-14.2,6.1l0.1,-1.6l12.8,-5.6" class="g8_1" />
<path d="M392.8,824.9l-15,6.6l-0.1,1.6l16.5,-7.2" class="g8_1" />
<path d="M376.1,833.7l-14.2,-11L350,827.9" class="g8_1" />
<path d="M351.4,827.3l11.5,9l7.5,-3.2l1.5,1l3,-1.3" class="g8_1" />
<path d="M350,827.9l12.8,9.9l7.5,-3.2l1.5,1l4.3,-1.9" class="g8_1" />
<path d="M370.4,833.1l-0.1,1.5" class="g8_1" />
<path d="M371.9,834.1l-0.1,1.5" class="g8_1" />
<path d="M362.9,836.3l-0.1,1.5" class="g8_1" />
<path d="M361.3,838.5l-12.8,-9.9l-14.7,6.3" class="g8_1" />
<path d="M335.2,834.3l6.6,5.2l0,1.6" class="g8_1" />
<path d="M333.8,834.9l8,6.2" class="g8_1" />
<path d="M361.3,838.6l-6.2,2.6l0,-1.5l5,-2.1" class="g8_1" />
<path d="M353.1,841.8l-6.8,2.9L343,842.2" class="g10_1" />
<path d="M354.5,842.9l15.3,-6.6c0.7,0.7,1.6,0.9,2.8,0.6" class="g10_1" />
<path d="M395.5,808.1l0.7,0.5c0,0,0.6,0.2,1.7,0.3c1.1,0.1,2.6,0.5,3.5,1.3c1,0.8,1.6,1.7,0.5,2.7" class="g8_1" />
<path d="M397.1,807.4l0.6,0.5c0,0,0.7,0.3,1.8,0.3c1,0.1,2.3,0.6,3.3,1.4c0.9,0.8,1.8,1.9,1,3.1" class="g8_1" />
<path d="M403.8,809.5c0.2,0.3,0.3,0.6,0.3,0.9" class="g8_1" />
<path d="M398.7,806.7c0.2,0.1,0.5,0.1,0.8,0.1c0.3,0.1,0.7,0.1,1.2,0.3" class="g8_1" />
<path d="M404.1,810.4l0,1.4" class="g8_1" />
<path d="M402.2,811c-0.1,0.2,-0.2,0.3,-0.4,0.5" class="g8_1" />
<path d="M379.4,803.5c0,0,-12.6,-9.8,-13,-10.1c-0.4,-0.3,-0.6,-0.7,-0.3,-1.2c0.2,-0.4,2,-4.2,2,-4.2l1.4,-0.6c0,0,1.3,-0.6,3,0.8c1.7,1.5,3.2,2.5,3.2,2.5c0,0,0.3,0.9,2.3,0c2,-0.8,6.4,-2.8,6.4,-2.8" class="g8_1" />
<path d="M380.7,803.5c-0.3,0.6,-0.9,0.8,-1.5,0.7c-0.5,-0.1,-5.3,-0.9,-5.3,-0.9c0,0,-0.6,0,-1,-0.4c-0.5,-0.3,-0.8,-0.6,-0.8,-0.6" class="g10_1" />
<path d="M363.9,796.9l-4.5,-3.8" class="g10_1" />
<path d="M359.7,793c-0.3,-0.3,-0.5,-1.1,-0.3,-1.3" class="g8_1" />
<path d="M321.2,808.1l38.1,-16.5" class="g8_1" />
<path d="M324.7,808.2l12,-5.2l12.2,9.6" class="g8_1" />
<path d="M326.1,807.6l11,8.6l10.6,-4.6" class="g8_1" />
<path d="M324.7,808.2l12.3,9.5l11.9,-5.1" class="g8_1" />
<path d="M335.5,818.5l-12.3,-9.7l-4.5,2" class="g8_1" />
<path d="M335.5,818.5l-14.6,6.3l-4.6,-3.5" class="g8_1" />
<path d="M334.2,817.5l-13.3,5.7l-4.1,-3.1" class="g8_1" />
<path d="M320.9,823.2l0,1.6" class="g8_1" />
<path d="M350.5,810.4l-0.2,1.4" class="g8_1" />
<path d="M360.8,821.8L350,813.5l-11.9,5.2" class="g8_1" />
<path d="M359.6,820.9L349,825.5l-9.6,-7.4" class="g8_1" />
<path d="M360.8,821.8L348.9,827l-10.8,-8.3" class="g8_1" />
<path d="M348.9,827l0.1,-1.5" class="g8_1" />
<path d="M347.3,827.7l-10.8,-8.3L322,825.7" class="g8_1" />
<path d="M346.1,826.7l-13.3,5.8l-9.5,-7.4" class="g8_1" />
<path d="M347.3,827.7L332.8,834L322,825.7" class="g8_1" />
<path d="M332.8,834l0,-1.5" class="g8_1" />
<path d="M315.7,822.9l25.8,20l3.4,-1.5c2.7,-1.1,6,-1.6,9.6,1.5" class="g10_1" />
<path d="M355.1,841.2c-3.2,-2.4,-6.7,-3,-13.3,-0.1" class="g8_1" />
<path d="M355.2,839.7c-3.2,-2.5,-6.8,-3,-13.4,-0.2" class="g8_1" />
<path d="M337.1,852.7l5.1,4c2.4,1.7,6.3,3.1,10.2,1.4c3.9,-1.7,74.9,-32.6,74.9,-32.6c0,0,2.5,-0.8,2.7,-3.2c0.3,-2.4,1.2,-55.2,1.2,-55.2" class="g10_1" />
<path d="M335,702.4l0,51.8" class="g8_1" />
<path d="M338.5,703.2l0.1,51.8" class="g8_1" />
<path d="M365.5,792.8l-5.7,-0.5" class="g8_1" />
<path d="M369.7,807.3c-0.1,0.4,-0.5,0.7,-1,0.6c-0.4,-0.1,-3.3,-0.7,-3.5,-0.7c-0.2,0,-0.5,-0.3,-0.9,-0.5c-0.4,-0.3,-3.2,-2.5,-3.2,-2.5c0,0,-0.4,-0.5,-0.1,-0.9c0.3,-0.5,3.5,-7.6,3.5,-7.6" class="g10_1" />
<path d="M367.5,797.6l0.4,-1.6l-3.3,-0.5l-0.2,1.5" class="g8_1" />
<path d="M368.5,796.5l-3.4,7.9" class="g8_1" />
<path d="M361.4,803.9l3.4,0.8l4.1,2.9" class="g8_1" />
<path d="M368.9,796.6l4,3.2" class="g8_1" />
<path d="M312.3,802.7l-7.2,17.9" class="g10_1" />
<path d="M309.4,818.9l-3.6,3.7" class="g8_1" />
<path d="M310.1,811.7l-2.4,2.4" class="g10_1" />
<path d="M315.6,816.9l-7.4,7.6" class="g10_1" />
<path d="M321,809.8l-7.4,17.7" class="g10_1" />
<path d="M314.4,815.4l21.9,-23.5" class="g10_1" />
<path d="M311.7,812.9l15.9,-17.2" class="g10_1" />
<path d="M317.5,806.7l-6.3,2.7L310,808.5" class="g10_1" />
<path d="M311.2,809.4l-0.2,2.5" class="g8_1" />
<path d="M310.5,825.1l1.6,-4.6" class="g8_1" />
<path d="M306.3,817.6l-0.1,3.1c-0.1,1.5,-0.4,2.6,-1.5,3.2c-1.2,0.6,-1.9,1,-3,0.5c-1.2,-0.5,-4.4,-3.3,-4.4,-3.3c0,0,-0.6,-0.8,-0.7,-1.2" class="g8_1" />
<path d="M308.1,800.6L301.9,817c0,0,-2.6,5.5,-5.3,2.9" class="g8_1" />
<path d="M315.7,816.8c-0.2,0.2,-1.6,-0.8,-3.1,-2.2c-1.5,-1.4,-2.6,-2.7,-2.4,-2.9" class="g8_1" />
<path d="M310.2,811.7c0.1,-0.1,0.8,0.3,1.7,1m2.7,2.5c0.8,0.8,1.2,1.4,1.1,1.6" class="g10_1" />
<path d="M314.3,815.5c-0.1,0.1,-0.8,-0.4,-1.5,-1.1c-0.7,-0.6,-1.3,-1.3,-1.2,-1.4" class="g8_1" />
<path d="M309.4,818.9c-0.2,-0.2,-0.3,-0.3,-0.5,-0.4c-0.9,-0.9,-1.7,-1.7,-2.1,-2.3" class="g8_1" />
<path d="M295.1,818.8c-1,-0.7,-0.9,-2.5,0.2,-4c1.1,-1.5,2.8,-2.2,3.8,-1.5" class="g10_1" />
<path d="M299.1,813.3c1,0.8,0.9,2.5,-0.2,4.1c-1.1,1.5,-2.8,2.1,-3.8,1.4" class="g8_1" />
<path d="M300.9,814.7c1,0.7,0.9,2.5,-0.2,4c-1.1,1.5,-2.8,2.1,-3.8,1.4" class="g8_1" />
<path d="M305,820.6c-0.1,0.4,-0.4,0.9,-0.7,1.3c-0.3,0.4,-0.6,0.7,-1,1" class="g8_1" />
<path d="M303.2,825.3c0.6,0.4,1.4,1.2,2.4,0.8c1.1,-0.3,1.8,-0.8,2.6,-1.6" class="g8_1" />
<path d="M313.6,827.5c-0.9,2.4,-3.6,3.2,-4.6,2.5" class="g8_1" />
<path d="M309,830l-4.5,-3.5" class="g8_1" />
<path d="M308.6,824.1c-0.1,0.3,-0.3,0.6,-0.5,0.9c-1.1,1.5,-2.8,2.1,-3.8,1.4" class="g8_1" />
<path d="M299.1,813.3l1.8,1.4" class="g10_1" />
<path d="M295.1,818.8l1.5,1.1" class="g10_1" />
<path d="M303.2,825.3c-0.2,-0.1,-0.4,-0.5,-0.4,-0.7" class="g8_1" />
<path d="M304.3,826.4c-0.1,-0.1,-0.3,-0.3,-0.3,-0.5" class="g8_1" />
<path d="M309.4,830.2c0.2,0.4,0.5,0.9,0.7,1.1" class="g8_1" />
<path d="M310.1,831.3l1.8,1.3" class="g8_1" />
<path d="M310.1,831.3c0.6,-0.5,2.3,-1.4,3.3,-1.6" class="g8_1" />
<path d="M311.9,832.6c1.1,-0.1,2.8,-0.8,3.4,-1.4" class="g10_1" />
<path d="M315.3,831.2c0.7,-0.9,1.8,-2.4,1.6,-3.9" class="g10_1" />
<path d="M315.4,825.2c0.4,0.3,1.2,1.4,1.5,2.1l-1.8,-1.2" class="g10_1" />
<path d="M315.4,825.2l-0.5,-0.4" class="g8_1" />
<path d="M315.3,831.2l-1.9,-1.5" class="g8_1" />
<path d="M315.1,826.1c-0.5,0.7,-1.3,2,-1.7,3.6" class="g8_1" />
<path d="M315.1,826.1c-0.3,-0.4,-0.5,-0.9,-0.5,-0.9" class="g8_1" />
<path d="M346,908.9l0,1.1l3,-1.3" class="g8_1" />
<path d="M347.4,907.7l-1.2,0.5" class="g10_1" />
<path d="M348.6,908.4l-4.8,-3.8" class="g10_1" />
<path d="M344.2,904.9l-1.3,-1.7c-0.3,-0.5,-0.4,-1.6,-0.3,-1.9c0,-0.4,0,-0.8,0.7,-1.1c0.6,-0.2,1,-0.5,1,-0.5c0,0,0.9,-0.3,0.9,-1.6c0,-1.2,0,-18.3,0,-18.3c0,0,-0.4,-1.8,2,-2.9c2.5,-1.1,9.9,-4.3,9.9,-4.3c0,0,2.2,-1.1,4.6,0.6c2.5,1.6,83,64.1,83,64.1c0,0,0.7,0.6,0.8,1.4c0,0.7,-0.1,2.3,-0.1,2.3c0,0,0,0.5,-0.9,0.9c-0.9,0.4,-8.3,3.6,-8.3,3.6" class="g10_1" />
<path d="M433.5,952.3l-0.1,14.1c0,0,-0.1,2.1,-1.8,2.9C429.8,970,338,1010,338,1010c0,0,-1,0.6,-1.9,-0.1c-0.9,-0.6,-61.5,-47.9,-61.9,-48.2c-0.4,-0.3,-0.6,-1.2,-0.6,-1.6c0,-0.4,0.1,-1,0.1,-1" class="g10_1" />
<path d="M249.1,922.4c-0.1,-0.2,-0.3,-0.2,-0.7,0c-1.1,0.6,-9.7,4.2,-9.7,4.2c0,0,-0.9,0.4,-0.8,1.5" class="g8_1" />
<path d="M276.1,961.1c0,-0.2,0,-0.4,-0.3,-0.6c-0.7,-0.6,-8.3,-6.5,-8.3,-6.5c0,0,-1,-0.6,-1.7,-0.3c-0.7,0.3,-1.1,0.6,-1.9,0c-0.8,-0.7,-14,-10.9,-14,-10.9c0,0,-0.7,-0.7,-0.9,-1.5c-0.1,-0.7,0.1,-17.9,0.1,-17.9c0,0,0,-0.5,-0.2,-0.7" class="g10_1" />
<path d="M274.7,961.8c0.4,0,1.1,-0.3,1.1,-0.3c0,0,0.3,-0.1,0.3,-0.4" class="g8_1" />
<path d="M237.9,927.6l-0.2,-1.3c0,0,-0.2,-0.9,1.1,-1.5c1.2,-0.5,9.9,-4.3,9.9,-4.3c0,0,0.7,-0.4,1.3,-0.1c0.6,0.3,14.5,11.3,14.5,11.3c0,0,0.5,0.6,0.6,1.4c0.1,0.4,0.1,0.8,0.1,1.1" class="g10_1" />
<path d="M251,940.6c0.2,0.2,0.5,0,0.7,-0.1c0.2,-0.1,1.5,-0.6,1.5,-0.6c0,0,0.5,-0.3,1,-0.1c0.5,0.1,3.8,1.6,3.8,1.6l4.6,3.4l1.4,-0.5" class="g10_1" />
<path d="M250,920.4c0.8,0.6,0.6,1.2,0.6,1.5c0,0.2,-0.2,18.2,-0.2,18.2c0,0,0.1,0.7,0.3,0.8" class="g8_1" />
<path d="M265.3,945.1l-2.9,1.3l-4.7,-3.6l-3.5,-1.5c0,0,-0.9,-0.1,-1.5,0.1c-0.5,0.2,-1.7,0.8,-1.7,0.8c0,0,-0.6,0.4,-1.4,-0.4" class="g8_1" />
<path d="M237.9,927.6c0.1,0.4,0.4,0.8,0.8,1.1c0.5,0.3,8.3,6.3,8.3,6.3" class="g10_1" />
<path d="M265.3,945.1l-6.6,-5c-0.4,-0.4,-0.4,-0.7,-0.4,-1.3c-0.1,-0.7,0.1,-1.8,0.8,-2.1c0.7,-0.3,77.6,-33.8,77.6,-33.8c0,0,1.6,-0.8,2.9,0c1.2,0.9,6.5,5.2,6.5,5.2" class="g10_1" />
<path d="M346,910l-6.7,-5.1c0,0,-0.9,-0.8,-2.5,-0.1c-1.6,0.7,-77.7,33.8,-77.7,33.8c0,0,-0.9,0.6,-0.8,0.9" class="g8_1" />
<path d="M342.7,902.7c-0.1,-0.4,0.2,-0.7,0.7,-0.9c0.5,-0.2,1.7,-0.8,1.7,-0.8c0,0,1.7,-0.5,1.7,-2.5c0,-2,0,-18.6,0,-18.6c0,0,-0.1,-1.1,1.2,-1.6c1.2,-0.6,9.4,-4.1,9.4,-4.1c0,0,2,-1,4,0.5c2,1.5,82.6,64.2,83.3,64.7c0.8,0.6,0.8,1.2,0.7,1.6" class="g8_1" />
<path d="M347.8,879.4l9.6,7.7" class="g8_1" />
<path d="M365,892.9l66.1,51.5" class="g8_1" />
<path d="M347.2,900.7l85.3,66.4" class="g8_1" />
<path d="M413.2,958.7l-3.1,1.3L384.2,939.7" class="g8_1" />
<path d="M412.3,957.9l-2.1,0.9l-25,-19.6" class="g8_1" />
<path d="M410.2,958.8l-0.1,1.2" class="g8_1" />
<path d="M413.2,958.7l-26,-20.3l-3.1,1.3" class="g10_1" />
<path d="M329.6,995.2l-3,1.3" class="g8_1" />
<path d="M326.6,996.5L282.5,962.4" class="g8_1" />
<path d="M326.7,995.4l-0.1,1.1" class="g8_1" />
<path d="M327.9,994.3l-1.2,0.5" class="g10_1" />
<path d="M326.7,994.6L282.6,960.5" class="g10_1" />
<path d="M329.1,994.8l-15.3,-12c-0.9,-0.7,-0.7,-2.5,-0.5,-3.2c0.3,-0.7,1.1,-1.6,2.4,-2.1c1.3,-0.4,2.9,-1.6,2.7,-2.5" class="g10_1" />
<path d="M344.5,957.4c0.1,-0.9,-0.1,-1.6,-1.2,-2.6c-1.2,-1,-8.8,-6.8,-8.8,-6.8c0,0,-3.6,-3,-9.5,-0.5c-5.9,2.6,-22.6,9.9,-22.6,9.9c0,0,-3.2,1.9,-7.3,-0.7c-4.1,-2.6,-8.1,-0.6,-8.7,-0.4c-0.5,0.3,-3.3,1.5,-3.3,1.5c0,0,-1.7,0.9,-1.7,2.5" class="g10_1" />
<path d="M281.4,960.3c0,0.6,0.1,1.2,1.1,2.1" class="g8_1" />
<path d="M282.6,960.5c-0.4,-0.4,-0.6,-0.8,-0.8,-1.1" class="g10_1" />
<path d="M298.3,958l17.8,13.9" class="g10_1" />
<path d="M344.5,957.4c-0.3,0.9,-1.3,1.8,-2.4,2.3c-1.2,0.5,-23.8,10.3,-23.8,10.3c0,0,-2.1,0.9,-2.2,2" class="g8_1" />
<path d="M318.4,976.5c0.3,-0.7,0.3,-1.8,-0.5,-2.6c-0.8,-0.9,-1.9,-1.3,-1.8,-2.7c0.1,-1.3,0.2,-2.1,1.4,-2.6" class="g10_1" />
<path d="M317.5,968.6l24.9,-10.9c1.1,-0.5,1.7,-1.2,1.3,-2.3" class="g10_1" />
<path d="M318.4,977.1c-0.5,0.9,-1.3,1.4,-1.9,1.6c-0.5,0.3,-2.2,1,-2.2,1c0,0,-1,0.3,-1.1,1.3" class="g8_1" />
<path d="M246.7,919.8l0,1.6" class="g8_1" />
<path d="M251.1,919.8l0,1.5" class="g8_1" />
<path d="M246.9,928.5l0,8.2" class="g8_1" />
<path d="M249,735.9l90.7,-39.8" class="g10_1" />
<path d="M435.9,770.7L339.7,696.1" class="g10_1" />
<path d="M254,739.7l-5,-3.8" class="g8_1" />
<path d="M431.1,772.8l4.8,-2.1" class="g8_1" />
<path d="M235.9,1037.1c18.2,13.4,42.6,25,52.2,13c9.6,-11.9,8.8,-22.8,-0.9,-40.8c-9.8,-18,-30.6,-36.5,-20.5,-55.6" class="g10_1" />
<path d="M231.5,1043.3c18.3,13.5,47.1,26.9,59,15.8c12,-11.2,16,-26.3,7.8,-44.6c-12.6,-28.1,-33,-38.8,-25.4,-56.3" class="g10_1" />
<path d="M751.3,790.7c0,-1.6,2,-2.8,4.4,-2.9c2.5,0,4.5,1.2,4.5,2.8" class="g8_1" />
<path d="M751.3,789.8l0,0.9c0.1,1.5,2.1,2.8,4.5,2.7c2.5,0,4.4,-1.3,4.4,-2.8l0,-1" class="g10_1" />
<path d="M751.3,789.8c0,-1.6,2,-2.9,4.4,-2.9c2.5,0,4.5,1.2,4.5,2.7" class="g8_1" />
<path d="M754.6,790.4l-0.6,0.4" class="g8_1" />
<path d="M754,790.8l0.9,0.9l-0.8,0.5l0.7,0.5l1,-0.5l1.1,0.4l0.8,-0.4l-1.1,-0.5l0.9,-1l-0.6,-0.3l-0.7,0.7c-0.2,0.1,-0.6,0.2,-0.8,0c-0.2,-0.2,-0.8,-0.7,-0.8,-0.7" class="g8_1" />
<path d="M713.1,824.3l-0.5,-0.4" class="g8_1" />
<path d="M713.1,824.3l13,-5.7" class="g8_1" />
<path d="M688.3,866l0.4,6.7" class="g8_1" />
<path d="M657.8,853.6c-0.3,0.1,0,1,0.4,1.6c0.5,0.5,6.1,4.6,6.1,4.6c0,0,1.4,0.9,1.4,2.5c0,1.6,-0.1,2.4,-0.1,2.4c0,0,-0.1,0.6,-0.6,0.8c-0.5,0.2,-1.3,0.5,-1.3,0.5c0,0,-0.4,0.3,-1,-0.1C662,865.6,648.6,854.7,648.6,854.7c0,0,-1,-0.7,-1.3,-1.8c-0.3,-1.2,-0.1,-2.2,-0.1,-2.3c-0.1,-0.1,-0.6,-58.1,-0.6,-58.1" class="g10_1" />
<path d="M787.9,852.5c0,0,0.9,0.7,0.9,2c-0.1,1.4,-0.1,3.9,-0.1,3.9c0,0,0.2,1.4,1.1,2.3c0.9,0.8,22.3,17.3,22.3,17.3c0,0,0.8,0.6,1.3,0.2" class="g8_1" />
<path d="M649.8,851.7c0.2,-0.3,0.6,-0.7,1.2,-0.9c2.7,-1.2,75.3,-32.8,75.3,-32.8c0,0,3.3,-1.7,6.7,0.8c3.4,2.5,12.9,10,12.9,10c0,0,0.5,0.6,1.4,0.3c0.8,-0.3,1.3,-0.6,1.3,-0.6c0,0,0.5,-0.2,0.5,-0.8c0.1,-0.6,0,-2.3,0,-2.3c0,0,-0.2,-1.4,-1.2,-2.2C747,822.4,742,818.4,742,818.4c0,0,-1.1,-1.1,-0.9,-1.6" class="g10_1" />
<path d="M665.4,864.6c-0.2,0.2,-0.6,0.4,-1.1,0.1c-0.4,-0.4,-14.1,-11.2,-14.1,-11.2c0,0,-1.4,-1.1,-0.8,-2.2" class="g8_1" />
<path d="M710.4,825.6l-13.2,5.7l-0.8,-0.4" class="g8_1" />
<path d="M642.8,830.2c0.3,-0.2,0.8,-0.3,1.2,-0.3c1.2,0,2.2,0.6,2.2,1.4" class="g8_1" />
<path d="M780,849.1l6.2,4.8c0,0,0.7,0.8,0.7,1.7c0,0.8,0,4,0,4c0,0,0,1.4,1,2.1c0.9,0.7,22.4,17.5,22.4,17.5c0,0,0.8,0.6,1.3,0.4c0.4,-0.2,1.7,-0.8,1.7,-0.8c0,0,0.3,-0.1,0.4,-0.6c0,-0.4,0,-2.5,0,-2.5c0,0,-0.2,-1.3,-1.3,-2.1c-1.2,-0.9,-5.9,-4.8,-5.9,-4.8c0,0,-1,-0.9,-0.8,-1.6" class="g10_1" />
<path d="M722,903.6c-0.3,0.5,0.2,1.3,0.8,1.7c0.5,0.5,5.6,4.3,5.6,4.3l1.1,1.3c0,0,0.4,1,0.3,1.7c0,0.6,0,2,0,2c0,0,-0.1,0.6,-0.5,0.8c-0.4,0.2,-1.4,0.6,-1.4,0.6c0,0,-0.5,0.2,-1,-0.1c-0.6,-0.4,-21.4,-16.6,-22.4,-17.5c-0.9,-0.8,-1.1,-1.6,-1.2,-2.6c-0.1,-1,0,-3.8,0,-3.8c0,0,-0.2,-1.1,-1.3,-1.9c-1.1,-0.8,-24.9,-19,-24.9,-19" class="g10_1" />
<path d="M677.2,868.3l9.8,7.6" class="g8_1" />
<path d="M729.5,915.3c-0.3,0,-0.5,0,-0.8,-0.2c-0.5,-0.4,-21.4,-16.6,-22.4,-17.5c-0.9,-0.8,-1.1,-1.6,-1.2,-2.6c-0.1,-1.2,0,-2.3,0.1,-3.5" class="g8_1" />
<path d="M647.2,852.6c0,-0.6,0.2,-2.1,2.3,-3c2.1,-0.9,75.3,-32.8,75.3,-32.8c0,0,4.5,-2.9,10,1.2c5.5,4,13,10.1,13,10.1c0,0,0.6,0.6,1,0.3" class="g8_1" />
<path d="M730.6,858.5c-8.1,3.5,-14.6,6.3,-14.7,6.2" class="g10_1" />
<path d="M738.9,866l-6.8,-5.3" class="g8_1" />
<path d="M738.2,867l-7.4,-5.7l2.1,-0.9" class="g8_1" />
<path d="M796.4,868.4c0.2,0.3,0.3,0.6,0.3,0.9" class="g8_1" />
<path d="M713.8,867l17.7,-7.7" class="g8_1" />
<path d="M717.3,867.2l12,-5.3l7.4,5.9" class="g8_1" />
<path d="M718.6,866.5l7.5,5.9" class="g8_1" />
<path d="M717.3,867.2l7.4,5.7" class="g8_1" />
<path d="M723.1,873.6l-7.2,-5.7l-4.6,1.8" class="g8_1" />
<path d="M713.4,883.7l-4.5,-3.4" class="g8_1" />
<path d="M711.2,880.5l-1.8,-1.4" class="g8_1" />
<path d="M708.2,881.8l5.1,3.9" class="g10_1" />
<path d="M823.6,834.5c0.1,-5.1,0.2,-8.5,0.2,-8.5" class="g10_1" />
<path d="M738.4,917.4c2,0.6,4.3,0.6,6.6,-0.4c3.9,-1.7,74.9,-32.5,74.9,-32.5c0,0,2.5,-0.9,2.7,-3.3" class="g10_1" />
<path d="M727.6,761.4l0,51.7" class="g8_1" />
<path d="M731.1,762.1l0.1,51.8" class="g8_1" />
<path d="M703.7,864.7l-6.1,14.8" class="g10_1" />
<path d="M702,877.8l-3.6,3.7" class="g8_1" />
<path d="M702.7,870.6l-2.4,2.4" class="g10_1" />
<path d="M708.2,875.8l-7.4,7.6" class="g10_1" />
<path d="M713.6,868.7l-7.4,17.8" class="g10_1" />
<path d="M707,874.3l16.9,-18.1" class="g10_1" />
<path d="M704.3,871.9l11.5,-12.8" class="g10_1" />
<path d="M710.1,865.6l-6.3,2.7l-1.2,-0.9" class="g10_1" />
<path d="M703.8,868.3l-0.2,2.6" class="g8_1" />
<path d="M703.1,884l1.6,-4.6" class="g8_1" />
<path d="M698.9,876.5l-0.1,3.1c-0.1,1.5,-0.4,2.6,-1.5,3.3c-1.2,0.6,-1.9,0.9,-3,0.4c-1.2,-0.5,-4.4,-3.2,-4.4,-3.2c0,0,-0.6,-0.9,-0.7,-1.2" class="g8_1" />
<path d="M697.9,866.9l-3.4,9c0,0,-2.6,5.5,-5.3,3" class="g8_1" />
<path d="M708.3,875.7c-0.2,0.2,-1.6,-0.8,-3.1,-2.2c-1.5,-1.4,-2.6,-2.7,-2.4,-2.9" class="g8_1" />
<path d="M702.8,870.6c0.1,-0.1,0.8,0.3,1.7,1m2.7,2.5c0.8,0.8,1.2,1.5,1.1,1.6" class="g10_1" />
<path d="M706.8,874.4c0,0.1,-0.7,-0.4,-1.4,-1.1c-0.7,-0.6,-1.3,-1.2,-1.2,-1.3" class="g8_1" />
<path d="M702,877.8c-0.2,-0.1,-0.3,-0.3,-0.5,-0.4c-0.9,-0.9,-1.7,-1.7,-2.1,-2.2" class="g8_1" />
<path d="M687.7,877.7c-1,-0.7,-0.9,-2.5,0.2,-4c1.1,-1.5,2.8,-2.1,3.8,-1.4" class="g10_1" />
<path d="M691.7,872.3c1,0.7,0.9,2.5,-0.2,4c-1.1,1.5,-2.8,2.1,-3.8,1.4" class="g8_1" />
<path d="M693.5,873.6c1,0.7,0.9,2.5,-0.2,4c-1.1,1.5,-2.8,2.1,-3.8,1.4" class="g8_1" />
<path d="M697.6,879.5c-0.1,0.4,-0.4,0.9,-0.7,1.3c-0.3,0.4,-0.6,0.8,-1,1" class="g8_1" />
<path d="M695.8,884.3c0.6,0.4,1.4,1.1,2.4,0.8c1.1,-0.4,1.8,-0.9,2.6,-1.7" class="g8_1" />
<path d="M706.2,886.5c-0.9,2.4,-3.6,3.1,-4.6,2.4" class="g8_1" />
<path d="M701.6,888.9l-4.5,-3.5" class="g8_1" />
<path d="M701.2,883c-0.1,0.3,-0.3,0.6,-0.5,0.9c-1.1,1.5,-2.8,2.2,-3.8,1.5" class="g8_1" />
<path d="M691.7,872.3l1.8,1.3" class="g10_1" />
<path d="M687.7,877.7l1.5,1.2" class="g10_1" />
<path d="M695.8,884.3c-0.2,-0.2,-0.4,-0.6,-0.5,-0.8" class="g8_1" />
<path d="M696.9,885.4c-0.1,-0.1,-0.3,-0.4,-0.3,-0.6" class="g8_1" />
<path d="M702,889.1c0.2,0.4,0.5,0.9,0.7,1.1" class="g8_1" />
<path d="M702.7,890.2l1.8,1.4" class="g8_1" />
<path d="M702.7,890.2c0.6,-0.5,2.3,-1.4,3.3,-1.5" class="g8_1" />
<path d="M704.5,891.6c1.1,-0.2,2.8,-0.8,3.4,-1.5" class="g10_1" />
<path d="M707.9,890.1c0.7,-0.9,1.8,-2.4,1.6,-3.9" class="g10_1" />
<path d="M708,884.1c0.4,0.4,1.2,1.4,1.5,2.1L707.7,885" class="g10_1" />
<path d="M708,884.1l-0.5,-0.4" class="g8_1" />
<path d="M707.9,890.1L706,888.7" class="g8_1" />
<path d="M707.7,885c-0.5,0.7,-1.4,2,-1.7,3.7" class="g8_1" />
<path d="M707.7,885c-0.3,-0.4,-0.5,-0.9,-0.5,-0.9" class="g8_1" />
<path d="M742.8,819l1.4,-0.6" class="g8_1" />
<path d="M742.5,817.4l-1,0.4" class="g10_1" />
<path d="M743.8,818.1l-4.9,-3.8" class="g10_1" />
<path d="M739.3,814.6L738,812.9c-0.3,-0.5,-0.4,-1.6,-0.3,-1.9c0.1,-0.4,0,-0.8,0.7,-1.1c0.7,-0.2,1,-0.5,1,-0.5c0,0,0.9,-0.3,0.9,-1.6c0,-1.2,0,-18.3,0,-18.3c0,0,-0.4,-1.8,2.1,-2.9c2.4,-1.1,9.8,-4.3,9.8,-4.3c0,0,2.2,-1.1,4.6,0.6c2.5,1.6,83,64.1,83,64.1c0,0,0.8,0.6,0.8,1.4c0,0.7,-0.1,2.3,-0.1,2.3c0,0,0,0.5,-0.9,0.9c-0.9,0.4,-6.9,3,-11,4.8" class="g10_1" />
<path d="M828.6,856.4l-0.1,19.7c0,0,-0.1,2.1,-1.8,2.9c-1.7,0.7,-93.6,40.7,-93.6,40.7c0,0,-1,0.6,-1.9,-0.1C730.4,919,669.8,872.2,669.4,871.8" class="g10_1" />
<path d="M644.3,832.1c-0.2,-0.2,-0.4,-0.2,-0.8,0c-1.1,0.6,-9.7,4.2,-9.7,4.2c0,0,-0.9,0.4,-0.8,1.5" class="g8_1" />
<path d="M647.5,854.4C646,853.3,645,852.5,645,852.5c0,0,-0.7,-0.7,-0.9,-1.5c-0.1,-0.7,0.2,-17.9,0.1,-17.9c0,0,0,-0.5,-0.2,-0.7" class="g10_1" />
<path d="M671.2,870.8c0,-0.2,0,-0.4,-0.3,-0.6c-0.4,-0.3,-3.6,-2.8,-5.8,-4.6" class="g10_1" />
<path d="M669.8,871.5c0.4,0,1.1,-0.3,1.1,-0.3c0,0,0.3,-0.1,0.3,-0.4" class="g8_1" />
<path d="M633,837.3L632.8,836c0,0,-0.1,-0.9,1.1,-1.5c1.2,-0.5,10,-4.3,10,-4.3c0,0,0.6,-0.4,1.2,-0.1c0.1,0.1,0.8,0.6,1.9,1.4" class="g10_1" />
<path d="M645.1,830.1c0.8,0.6,0.6,1.2,0.6,1.5c0,0.2,-0.2,18.2,-0.2,18.2c0,0,0.1,0.7,0.3,0.8" class="g8_1" />
<path d="M660.4,854.8l-6.5,-5" class="g10_1" />
<path d="M737.8,812.4c-0.1,-0.4,0.2,-0.7,0.7,-0.9c0.5,-0.2,1.8,-0.8,1.8,-0.8c0,0,1.7,-0.5,1.6,-2.5c0,-2,0.1,-18.6,0.1,-18.6c0,0,-0.2,-1.1,1.1,-1.6c1.2,-0.6,9.4,-4.1,9.4,-4.1c0,0,2,-1,4,0.5c2,1.5,82.6,64.2,83.3,64.7c0.8,0.6,0.9,1.2,0.7,1.6" class="g8_1" />
<path d="M742.9,789.1l17.2,13.5" class="g8_1" />
<path d="M760.1,802.6l68.5,53.8" class="g8_1" />
<path d="M742.3,810.4l85.3,66.4" class="g8_1" />
<path d="M808.4,868.4l-1.7,0.7" class="g8_1" />
<path d="M807.4,867.6l-1.4,0.6" class="g8_1" />
<path d="M808.4,868.4L782.3,848.1l-2.7,1.1" class="g10_1" />
<path d="M724.7,904.9l-1.5,0.6" class="g8_1" />
<path d="M723,904l-1,0.4" class="g10_1" />
<path d="M724.2,904.5l-15.3,-12c-0.9,-0.7,-0.7,-2.5,-0.5,-3.2c0.3,-0.7,1.1,-1.6,2.4,-2.1c1.3,-0.4,2.9,-1.6,2.7,-2.5" class="g10_1" />
<path d="M739.6,867.1c0.1,-0.9,0,-1.6,-1.2,-2.6c-1.1,-1,-8.8,-6.8,-8.8,-6.8c0,0,-3.6,-3,-9.5,-0.5c-5.8,2.6,-22.6,9.9,-22.6,9.9c0,0,-3.2,1.9,-7.3,-0.7c-4,-2.6,-8.1,-0.6,-8.6,-0.4c-0.6,0.3,-3.4,1.5,-3.4,1.5c0,0,-1.7,0.9,-1.6,2.5" class="g10_1" />
<path d="M739.6,867.1c-0.3,0.9,-1.2,1.8,-2.4,2.3c-1.2,0.5,-23.8,10.3,-23.8,10.3c0,0,-2.1,0.9,-2.2,2" class="g8_1" />
<path d="M713.5,886.2c0.3,-0.7,0.3,-1.8,-0.5,-2.6c-0.8,-0.9,-1.8,-1.3,-1.8,-2.7c0.1,-1.3,0.3,-2.1,1.4,-2.6" class="g10_1" />
<path d="M712.6,878.3l24.9,-10.9c1.1,-0.5,1.7,-1.2,1.3,-2.3" class="g10_1" />
<path d="M713.5,886.8c-0.5,0.9,-1.2,1.4,-1.8,1.6c-0.6,0.3,-2.3,1,-2.3,1c0,0,-1,0.3,-1.1,1.3" class="g8_1" />
<path d="M641.6,794.8L732.3,755" class="g10_1" />
<path d="M753.2,771.2L732.3,755" class="g10_1" />
<path d="M825.5,827.4L757.9,774.8" class="g10_1" />
<path d="M646.6,798.7l-5,-3.9" class="g8_1" />
<path d="M823.7,831.7l2.1,-0.9" class="g8_1" />
<path d="M660.4,854.8c-1.6,0.9,-1.6,0.8,-1.6,0.8" class="g10_1" />
<path d="M757.7,783l-0.1,-17.4c0,-0.8,-1,-1.4,-2.2,-1.4c-1.2,0,-2.1,0.7,-2.1,1.4c0,0.8,0,16.5,0,16.5" class="g10_1" />
<path d="M753.4,766.1c0.3,-0.6,1.1,-0.9,2.1,-1c1.2,0,2.1,0.6,2.2,1.4" class="g8_1" />
<path d="M753.3,767.6c0,-0.8,1,-1.4,2.2,-1.4c1.2,0,2.1,0.6,2.2,1.3" class="g8_1" />
<path d="M753.3,769c0,-0.8,1,-1.4,2.2,-1.4c1.2,0,2.1,0.6,2.2,1.3" class="g8_1" />
<path d="M753.3,770.2c0,-0.8,1,-1.4,2.2,-1.4c1.2,0,2.1,0.6,2.2,1.3" class="g8_1" />
<path d="M753.3,771.4c0,-0.7,1,-1.3,2.2,-1.4c1.2,0,2.1,0.6,2.2,1.4" class="g8_1" />
<path d="M753.3,772.8c0,-0.8,1,-1.4,2.2,-1.4c1.2,0,2.1,0.6,2.2,1.3" class="g8_1" />
<path d="M753.3,774.2c0,-0.8,1,-1.4,2.2,-1.5c1.2,0,2.1,0.6,2.2,1.4" class="g8_1" />
<path d="M753.3,775.6c0,-0.7,1,-1.4,2.2,-1.4c1.2,0,2.1,0.6,2.2,1.4" class="g8_1" />
<path d="M753.3,778.4c0,-0.7,1,-1.4,2.2,-1.4c1.2,0,2.1,0.6,2.2,1.4" class="g8_1" />
<path d="M753.2,777.2c0,-0.8,1,-1.4,2.2,-1.4c1.2,0,2.2,0.6,2.2,1.3" class="g8_1" />
<path d="M753.3,779.9c0,-0.8,1,-1.4,2.2,-1.4c1.2,-0.1,2.1,0.5,2.2,1.3" class="g8_1" />
<path d="M753.3,781.3c0,-0.7,1,-1.4,2.2,-1.4c1.2,0,2.1,0.6,2.2,1.4" class="g8_1" />
<path d="M753.3,782.5c0,-0.8,1,-1.4,2.2,-1.4c1.2,0,2.1,0.6,2.2,1.3" class="g8_1" />
<path d="M823.8,847.4c0,-1.6,2,-2.9,4.4,-2.9c2.5,0,4.5,1.2,4.5,2.7" class="g8_1" />
<path d="M823.8,846.4l0,1c0.1,1.5,2.1,2.7,4.5,2.7c2.5,0,4.4,-1.3,4.4,-2.9l0,-0.9" class="g10_1" />
<path d="M823.8,846.4c0,-1.5,2,-2.8,4.4,-2.8c2.5,-0.1,4.5,1.2,4.5,2.7" class="g8_1" />
<path d="M827.1,847.1l-0.6,0.4" class="g8_1" />
<path d="M826.5,847.5l0.9,0.8l-0.8,0.6l0.7,0.4l1,-0.4l1.1,0.4l0.8,-0.5l-1.1,-0.5l0.9,-0.9l-0.6,-0.3l-0.7,0.6c-0.3,0.2,-0.6,0.3,-0.8,0.1c-0.2,-0.2,-0.8,-0.7,-0.8,-0.7" class="g8_1" />
<path d="M830.2,839.4l-0.1,-17.2c0,-0.7,-1,-1.3,-2.2,-1.3c-1.2,0,-2.1,0.6,-2.1,1.4c0,0.8,0,13.9,0,13.9" class="g10_1" />
<path d="M825.9,822.8c0.3,-0.6,1.1,-1,2.1,-1c1.2,0,2.1,0.6,2.2,1.4" class="g8_1" />
<path d="M825.8,824.3c0,-0.8,0.9,-1.4,2.2,-1.5c1.2,0,2.1,0.6,2.2,1.4" class="g8_1" />
<path d="M825.8,825.6c0,-0.7,0.9,-1.3,2.2,-1.4c1.2,0,2.1,0.6,2.2,1.4" class="g8_1" />
<path d="M825.8,826.8c0,-0.7,0.9,-1.3,2.2,-1.4c1.2,0,2.1,0.6,2.2,1.4" class="g8_1" />
<path d="M825.8,828.1c0,-0.7,0.9,-1.4,2.2,-1.4c1.2,0,2.1,0.6,2.2,1.4" class="g8_1" />
<path d="M825.8,829.5c0,-0.8,0.9,-1.4,2.2,-1.4c1.2,-0.1,2.1,0.6,2.2,1.3" class="g8_1" />
<path d="M825.8,830.8c0,-0.7,0.9,-1.4,2.2,-1.4c1.2,0,2.1,0.6,2.2,1.4" class="g8_1" />
<path d="M825.8,832.3c0,-0.8,0.9,-1.4,2.2,-1.4c1.2,0,2.1,0.6,2.2,1.3" class="g8_1" />
<path d="M825.8,835.1c0,-0.8,0.9,-1.4,2.2,-1.4c1.2,0,2.1,0.6,2.2,1.3" class="g8_1" />
<path d="M825.7,833.8c0,-0.7,1,-1.3,2.2,-1.4c1.2,0,2.2,0.6,2.2,1.4" class="g8_1" />
<path d="M825.8,836.5c0,-0.7,0.9,-1.4,2.2,-1.4c1.2,0,2.1,0.6,2.2,1.4" class="g8_1" />
<path d="M828,836.6c1.2,0,2.1,0.6,2.2,1.3" class="g8_1" />
<path d="M828,837.8c1.2,-0.1,2.1,0.5,2.2,1.3" class="g8_1" />
<path d="M641.6,831l0,-14.3c0,-0.8,0.9,-1.4,2.1,-1.4c1.2,0,2.2,0.6,2.2,1.3l0,14.2" class="g10_1" />
<path d="M639.6,840c0,-1.6,2,-2.8,4.4,-2.9" class="g8_1" />
<path d="M644.1,842.7c-2.5,0.1,-4.5,-1.2,-4.5,-2.7l0,-0.9" class="g10_1" />
<path d="M639.6,839.1c0,-1.6,1.9,-2.9,4.4,-2.9" class="g8_1" />
<path d="M642.9,839.8l-0.6,0.4" class="g8_1" />
<path d="M642.3,840.2l0.9,0.8l-0.8,0.6l0.7,0.4l1,-0.5m0,-1c-0.1,0.1,-0.3,0,-0.4,-0.1c-0.3,-0.2,-0.8,-0.6,-0.8,-0.6" class="g8_1" />
<path d="M641.7,831.6c0,-0.8,1,-1.4,2.2,-1.4" class="g8_1" />
<path d="M641.6,818.3c0,-0.7,0.9,-1.4,2.1,-1.4c1.2,0,2.2,0.6,2.2,1.4" class="g8_1" />
<path d="M641.6,819.7c0,-0.8,0.9,-1.4,2.1,-1.5c1.2,0,2.2,0.6,2.2,1.4" class="g8_1" />
<path d="M641.6,821c0,-0.7,0.9,-1.4,2.1,-1.4c1.2,0,2.2,0.6,2.2,1.4" class="g8_1" />
<path d="M641.6,822.4c0,-0.8,0.9,-1.4,2.1,-1.4c1.2,-0.1,2.2,0.5,2.2,1.3" class="g8_1" />
<path d="M641.6,823.6c0,-0.7,0.9,-1.4,2.1,-1.4c1.2,0,2.2,0.6,2.2,1.4" class="g8_1" />
<path d="M641.6,825c0,-0.8,0.9,-1.4,2.1,-1.4c1.2,-0.1,2.2,0.5,2.2,1.3" class="g8_1" />
<path d="M641.6,826.3c0,-0.8,0.9,-1.4,2.1,-1.4c1.2,0,2.2,0.6,2.2,1.3" class="g8_1" />
<path d="M641.6,827.5c0,-0.7,0.9,-1.4,2.1,-1.4c1.2,0,2.2,0.6,2.2,1.4" class="g8_1" />
<path d="M641.6,829c0,-0.8,0.9,-1.4,2.1,-1.5c1.2,0,2.2,0.6,2.2,1.4" class="g8_1" />
<path d="M641.6,830.2c0,-0.7,0.9,-1.4,2.1,-1.4c1.2,0,2.2,0.6,2.2,1.4" class="g8_1" />
<path d="M633,837.5l11.2,8.7" class="g10_1" />
<path fill-rule="evenodd" d="M584.4,933.5c44.7,0,81,14.9,81,33.3c0,18.3,-36.3,33.2,-81,33.2c-44.7,0,-81,-14.9,-81,-33.2c0,-18.4,36.3,-33.3,81,-33.3Zm0,6.5c39.8,0,72.2,12,72.2,26.8c0,14.7,-32.4,26.7,-72.2,26.7c-39.9,0,-72.2,-12,-72.2,-26.7C512.2,952,544.5,940,584.4,940Z" class="g12_1" />
<path d="M616.8,901c13.7,2.9,40.7,-10.2,46.9,-35" class="g10_1" />
<path d="M617.3,907.7c11.2,2,40.4,-4.5,52.7,-37.8" class="g10_1" />
<path d="M517.9,921.1c11,-9.6,36.6,-16.4,66.5,-16.4c11.7,0,22.7,1.1,32.5,2.9" class="g10_1" />
<path d="M504,935.5c-0.4,-1.3,-0.6,-2.6,-0.6,-4c0,-18.4,36.3,-33.3,81,-33.3c11.9,0,23.2,1.1,33.3,3" class="g10_1" />
<path d="M563.8,1020.2c-0.5,0.2,-1.2,-0.3,-1.5,-1.1c-0.3,-0.7,-0.1,-1.5,0.4,-1.7" class="g10_1" />
<path d="M562.7,1017.4c0.5,-0.3,1.2,0.2,1.5,1c0.4,0.7,0.2,1.5,-0.4,1.8" class="g8_1" />
<path d="M562.3,1017.9c0.3,0.1,0.6,0.5,0.8,1c0.2,0.4,0.2,0.9,0.1,1.2" class="g8_1" />
<path d="M561.8,1014.9c-1,0.7,-1.1,1.3,-1.2,2c-0.1,0.7,0,2.4,0.5,2.9c0.5,0.5,9.7,7.5,9.7,7.5l0.7,-5.1" class="g8_1" />
<path d="M569.5,1027.8l-9.6,-7.4c0,0,-0.7,-1.4,-0.5,-3.2c0.2,-1.8,1.2,-2.1,1.8,-2.2c0.5,-0.2,0.6,-0.2,0.6,-0.2l9.7,7.4" class="g10_1" />
<path d="M570.8,1027.3l-1.3,0.5" class="g8_1" />
<path d="M561.1,1019.8l-1.3,0.5" class="g8_1" />
<path d="M554.3,1024.3c-0.6,0.2,-1.2,-0.3,-1.6,-1c-0.3,-0.8,-0.1,-1.6,0.4,-1.8" class="g10_1" />
<path d="M553.1,1021.5c0.6,-0.2,1.3,0.2,1.6,1c0.3,0.8,0.1,1.6,-0.4,1.8" class="g8_1" />
<path d="M552.7,1022c0.3,0.1,0.7,0.5,0.9,1c0.2,0.4,0.2,0.9,0,1.3" class="g8_1" />
<path d="M552.2,1019.1c-1,0.7,-1.1,1.2,-1.2,1.9c-0.1,0.7,0.1,2.4,0.5,2.9c0.5,0.5,9.7,7.5,9.7,7.5l0.7,-5.1" class="g8_1" />
<path d="M550.6,1024.7l-0.2,-0.2c0,0,-0.8,-1.4,-0.6,-3.1c0.2,-1.8,1.3,-2.2,1.8,-2.3c0.5,-0.1,0.6,-0.1,0.6,-0.1l9.7,7.3" class="g10_1" />
<path d="M551.5,1024l-1.3,0.5" class="g8_1" />
<path d="M555.9,1033.1l-0.4,4l4.2,3.3" class="g10_1" />
<path d="M559.6,1036.9l0.2,7.8l14,10.8c0,0,1.3,1.2,3.3,1.2c2,0.1,3.2,0.1,4.3,-0.9c1.2,-1.1,9,-8,9,-8" class="g10_1" />
<path d="M559.8,1044.7l7.4,-3.3l2.5,-8.9l4.7,-3.7l1.1,-7.9l-1.1,7.9l13.8,10.6c0,0,3.6,2.7,3.3,5.2" class="g8_1" />
<path d="M569.7,1032.5l14.3,11.1c0,0,2.9,2,7,3" class="g8_1" />
<path d="M569.5,1020.7l0.7,-0.3l5.3,0.5l14.3,11c0,0,3.2,2.6,2.9,5.5c-0.4,2.8,-1.2,8.1,-1.2,8.1c0,0,-0.2,1.3,-1.1,2.3" class="g10_1" />
<path d="M560.8,1025.4l2,-1.7l0.8,-0.5" class="g10_1" />
<path d="M555.5,1037.1l4.1,-0.2" class="g8_1" />
<path d="M567.2,1041.4l13.6,10.5c0,0,2.4,2.1,1,3.5" class="g8_1" />
<path d="M581.7,1052.5c0.7,0.1,1.7,-0.3,2.6,-0.8c0.8,-0.4,6.3,-3.9,6.7,-4.8" class="g8_1" />
<path d="M585.3,1052.7l5.9,3.3c0,0,1.1,0.6,2.2,0.3c1.1,-0.3,2.8,-0.9,4.3,-3.1c1.6,-2.2,2,-4.5,1.9,-5.1c-0.1,-0.7,-0.3,-1.4,-0.8,-1.9c-0.6,-0.5,-6.4,-6.7,-6.4,-6.7" class="g10_1" />
<path d="M563,1038.5c0.7,0.5,1.8,-0.1,2.5,-1c0.7,-1,0.9,-2.3,0.3,-2.8" class="g8_1" />
<path d="M563,1038.5l-12.7,-9.9c0,0,-1.6,-1.4,-0.4,-3.2c1.2,-1.7,3,-0.7,3.7,-0.2c0.8,0.6,12.2,9.5,12.2,9.5" class="g10_1" />
<path fill-rule="evenodd" d="M650,983.6l10,-8.7l-3.1,7.3l-8.6,6.6Z" class="g17_1" />
<path d="M595.1,1055.9c18.2,13.4,47.1,26.9,59,15.7c11.9,-11.1,17,-27.2,8.3,-45.4c-8.6,-18.2,-13.3,-21.7,0.7,-51.7" class="g10_1" />
<path d="M599.4,1049.7c18.3,13.4,42.7,25,52.2,13c9.6,-11.9,8.8,-22.8,-0.9,-40.8c-8.9,-16.6,-3.9,-33.4,4.8,-50.6" class="g10_1" />
<path d="M358,880l0,8" class="g10_1" />
<path d="M362,880l0,8" class="g10_1" />
<path d="M431,937l0,8" class="g10_1" />
<path d="M435,937l0,8" class="g10_1" />
<path d="M246,928l0,8" class="g10_1" />
<path d="M408.5,172.5l118,0" class="g8_1" />
<image x="102" y="102" width="114" height="39" xlink:href="img/1.png" />
</svg>