<?xml version="1.0" encoding="UTF-8" standalone="no"?>
<!DOCTYPE svg PUBLIC "-//W3C//DTD SVG 1.1//EN"
"http://www.w3.org/Graphics/SVG/1.1/DTD/svg11.dtd">
<svg version="1.1" xmlns="http://www.w3.org/2000/svg" xmlns:xlink="http://www.w3.org/1999/xlink">
<defs>
<clipPath id="c0_2"><path d="M543.5,1053.5l0,-280l257,0l0,280Z" /></clipPath>
<clipPath id="c1_2"><path d="M775.5,1155.5l0,-68l84,0l0,68Z" /></clipPath>
<style type="text/css"><![CDATA[
.g6_2{
fill: none;
stroke: #65666A;
stroke-width: 1;
stroke-linecap: butt;
stroke-linejoin: miter;
stroke-miterlimit: 4;
}
.g2_2{
fill: none;
stroke: #64666A;
stroke-width: 1;
stroke-linecap: butt;
stroke-linejoin: miter;
}
.g3_2{
fill: none;
stroke: #64666A;
stroke-width: 1;
stroke-linecap: butt;
stroke-linejoin: miter;
stroke-miterlimit: 2;
}
.g4_2{
fill: none;
stroke: #64666A;
stroke-width: 1;
stroke-linecap: round;
stroke-linejoin: round;
stroke-miterlimit: 2;
}
.g7_2{
fill: #FFFFFF;
}
.g1_2{
fill: #CAC8C7;
}
.g5_2{
fill: none;
stroke: #65666A;
stroke-width: 1;
stroke-linecap: butt;
stroke-linejoin: miter;
stroke-dasharray: 2,2;
}
]]></style>
</defs>
<path d="M82,62l10,0L92,0L82,0l0,62Z" class="g1_2" />
<image x="-1" y="334" width="938" height="378" xlink:href="img/1.png" />
<g clip-path="url(#c0_2)">
<path d="M613.5,901.6L571.1,917c-0.1,0,-6.7,1.8,-9.3,9.3l0.1,-0.2l-1.1,0l0,1.2c-16.7,0.3,-17.4,18.2,-17.4,18.2l0,8.1l3,0l0,83c0,3,5.6,2.9,5.6,0c0,2.8,5.7,3.2,5.7,0l0,-83l3.1,0l0,1.4c-0.8,0.3,-2.6,2.3,-2.6,5.1c0,0,0,34,0,39c0,5.1,5.2,6.2,6,6.2l9.4,0c0.4,0,0.9,0.1,0.9,0.1l4.1,1.2l-3,11.5l-10.1,-2.7c-0.6,-0.2,-1.2,0.2,-1.4,0.8l-1.8,6.8c-0.1,0.7,0.2,1.3,0.9,1.5l26.9,7.2c0.6,0.1,1.3,-0.2,1.4,-0.8l1.7,-6.9c0.1,-0.6,-0.2,-1.2,-0.8,-1.4l-9.2,-2.4l2.9,-11.6l3.1,0.8l0.8,-3c0,0,-1.3,-0.4,-3.2,-0.9l3.7,-14.7L590.1,990l-6.2,-1.6l-0.7,0.5l-3.8,14.6c-2.3,-0.6,-4.2,-1.1,-4.3,-1.1c-0.5,-0.2,-1.3,-0.2,-1.3,-0.2l-9.4,0c-1.7,0,-3,-1.5,-3,-2.6l0,-26l0,-6.6l0,-3.3l0,-4.2c0,-0.9,0.6,-1.7,1.5,-2.2l6.8,0l0.3,2.5c0,0,0.1,0.4,0.7,0.4l13.2,0c0,0,0.5,0,0.5,-0.6c0.1,-0.6,0.4,-2.3,0.4,-2.3l25.2,0l0.3,2.5c0,0,0,0.4,0.7,0.4l13.2,0c0,0,0.5,0,0.6,-0.6c0.1,-0.6,0.3,-2.3,0.3,-2.3l6.7,0l0,-5.7l-18.3,-50ZM799,838.6c-0.4,-2.6,-3.6,-23,-3.6,-23c0,0,-3.5,-25,-31.4,-25l-9.4,0l0,-2.6l-1.7,0c-0.1,-1.7,-0.1,-3.9,-0.1,-6.2c0,-4.7,-3.8,-8.5,-8.6,-8.5c-4.7,0,-8.5,3.8,-8.5,8.5l0,6.2l-0.1,0l-1.7,0l0,2.6l-9.5,0c-27.8,0,-31.3,25,-31.3,25c0,0,-3.3,20.4,-3.6,23c-0.4,2.7,-0.6,6.7,-0.6,6.7l0,15.4l3,0l0,-1l1.5,0l0,1.1l101.6,0l0,-1.1l1.6,0l0,1l3,0l0,-15.4c0,0,-0.2,-4,-0.6,-6.7ZM707.5,959.3c0,0,0,0.6,0.4,0.6l2.1,0c0,0,0.1,0,0.2,0l-0.1,0l13.4,0c0,0,0.4,0,0.5,-0.6c0.2,-0.6,0.4,-2.2,0.4,-2.2l-17.2,0l0.3,2.2ZM786,910.4c-15.2,-6.6,-25,-8.8,-41.3,-8.8c-16.3,0,-26,2.2,-41.2,8.8c-15.2,6.6,-14.4,19.1,-14.4,19.1l0,26.8c0,0.2,0.3,0.8,0.8,0.8l2.1,0l0.1,0l1.5,0l40.7,0l0,50.8c0,0.3,0.7,1,3,1c0.4,0,1,0,1.8,0l0,5c-5.4,0.7,-9.3,2.3,-9.3,4.3l0,8.2c0,1.9,3.9,3.6,9.3,4.3l0,21.2l0,0.5l0.1,0c0.6,1.5,4.5,1.4,5.2,0l0.2,0c0.8,1.1,4.8,1.3,5.5,0l0.1,0l0,-0.5l0,-21.2c5.4,-0.7,9.2,-2.4,9.2,-4.3l0,-8.4c0,0,0,-0.1,0,-0.2c-0.5,-1.8,-4.2,-3.3,-9.2,-3.9l0,-5c1.5,0,2.4,0,2.4,0c0,0,2.5,-0.1,2.5,-1.1l0,-50.7l9.9,0c0,0.1,0.1,1.7,0.2,2.2c0.1,0.6,0.6,0.6,0.6,0.6l15.6,0c0.4,0,0.4,-0.6,0.4,-0.6l0.3,-2.2l-2.3,0l-9.5,0l9.5,0l15.8,0l1.7,0l2.2,0c0.5,0,0.8,-0.6,0.8,-0.8l0,-26.8c0,0,0.9,-12.5,-14.3,-19.1Z" class="g2_2" />
<path d="M707.2,957.1l0.3,2.2c0,0,0,0.6,0.4,0.6l15.6,0c0,0,0.4,0,0.5,-0.6c0.2,-0.6,0.4,-2.2,0.4,-2.2m-14.9,0.1l0.3,2.2c0,0,0,0.5,0.4,0.5M692,957.1l107.5,0m-2.2,-0.8c0,0.2,0.3,0.8,0.8,0.8m1.4,0c0.5,0,0.8,-0.6,0.8,-0.8l0,-26.8c0,0,0.9,-12.5,-14.3,-19.1c-15.2,-6.6,-25,-8.8,-41.3,-8.8c-16.3,0,-26,2.2,-41.2,8.8c-15.2,6.6,-14.4,19.1,-14.4,19.1l0,26.8c0,0.2,0.3,0.8,0.8,0.8l2.1,0m0.1,-0.8c0,0.2,-0.3,0.8,-0.8,0.8m0.8,-0.1l0,-27.3c0,0,-0.8,-9.3,9.3,-15.1c10.1,-5.7,24.4,-10.3,43.3,-10.3c18.9,0,33.2,4.6,43.3,10.3c10.1,5.8,9.3,15.1,9.3,15.1l0,27.3" class="g3_2" />
</g>
<path d="M692.1,957.1l0,-26.8c0,0,-0.8,-9.3,9.3,-15.1c10.1,-5.8,24.4,-10.3,43.3,-10.3c18.9,0,33.2,4.5,43.3,10.3c10.1,5.8,9.3,14.8,9.3,14.8l0,27.1" class="g4_2" />
<path d="M693.6,957.1l0,-25.8c0,0,-0.9,-9.4,8.9,-15.1c9.8,-5.8,23.7,-10.4,42.1,-10.4c18.4,0,32.2,4.6,42,10.4c9.8,5.7,9,15.1,9,15.1l0,25.8m-102,-5.7l102,0m-106.5,0l3,0m105.2,0l3,0m-18.2,5.7l-0.3,2.2c0,0,0,0.6,-0.4,0.6l-15.6,0c0,0,-0.5,0,-0.6,-0.6C765.1,958.8,765,957,765,957m14.8,0.1l-0.3,2.3c0,0,0,0.5,-0.4,0.5M718.3,920.8l12,0l0,4.2l-12,0l0,-4.2Zm0.8,1.2l10.3,0l0,2.4l-10.3,0l0,-2.4Zm0,0.6l10.3,0M719.1,922l-0.8,-1.2m11.1,1.2l0.9,-1.2m-0.9,3.6l0.9,0.6m-11.2,-0.6l-0.8,0.6m46,-4.2l12,0l0,4.2l-12,0l0,-4.2Zm0.8,1.2l10.3,0l0,2.4l-10.3,0l0,-2.4Zm0,0.6l10.3,0M765.1,922l-0.8,-1.2m11.1,1.2l0.9,-1.2m-0.9,3.6l0.9,0.6m-11.2,-0.6l-0.8,0.6m0.9,10l10.1,0l0,4.1l-10.1,0l0,-4.1Zm0.8,1.1l8.4,0l0,2.4l-8.4,0l0,-2.4Zm0,0.7l8.4,0M766,936.1L765.2,935m9.2,1.1l0.9,-1.1m-0.9,3.5l0.9,0.6M766,938.5l-0.8,0.6M719.3,935l10.1,0l0,4.1l-10.1,0l0,-4.1Zm0.8,1.1l8.4,0l0,2.4l-8.4,0l0,-2.4Zm0,0.7l8.4,0m-8.4,-0.7L719.3,935m9.2,1.1l0.9,-1.1m-0.9,3.5l0.9,0.6m-9.3,-0.6l-0.8,0.6m-13.1,-13l0,7.5m0,0l4.2,0c1.6,0,3.9,-1.3,3.9,-3.8c0,-2.4,-2.3,-3.7,-3.9,-3.7l-4.2,0m0.8,1.1l0,5.9m0,0l3.3,0c1.3,0,3.2,-1,3.2,-3c0,-1.9,-1.9,-2.9,-3.2,-2.9l-3.3,0m6.4,3.3c-0.2,-1.7,-1.9,-2.6,-3.1,-2.6l-3.3,0m0,-0.7l-0.8,-1.1l0,7.5l0.8,-0.5m45.2,-7l0,7.5m0,0l4.1,0c1.6,0,4,-1.3,4,-3.8c0,-2.4,-2.3,-3.7,-4,-3.7l-4.1,0m0.8,1.1l0,5.9m0,0l3.3,0c1.2,0,3.1,-1,3.1,-3c0,-1.9,-1.8,-2.9,-3.1,-2.9l-3.3,0m6.4,3.3c-0.2,-1.7,-1.9,-2.6,-3.1,-2.6l-3.3,0m0,-0.7l-0.8,-1.1l0,7.5l0.8,-0.5m-18.7,24l0,50.8c0,0.3,0.7,1,3,1c2.3,0,15.3,0,15.3,0c0,0,2.5,-0.1,2.5,-1.1l0,-50.7m-20.2,1.5l19.4,0m-20,46.2c0,0.4,0.7,1,3,1c2.3,0,15.3,0,15.3,0c0,0,2.5,-0.1,2.5,-1m-20.8,-3.2l6.1,0m8.6,0l6.2,0m-20.3,-0.9l5.2,0m9.4,0l5.2,0m-13.9,3.2l0,-14.5c0,-0.6,1.7,-1.5,3.8,-1.5c2.1,0,3.9,0.9,3.9,1.5l0,14.2m0,-14.2c0,0.7,-1.8,1.2,-3.9,1.2c-2.1,0,-3.8,-0.5,-3.8,-1.2" class="g3_2" />
<path d="M741.6,988.9c0,-0.5,1.4,-1,3,-1c1.7,0,3,0.5,3,1" class="g4_2" />
<g clip-path="url(#c0_2)">
<path d="M747.6,988.9c0,0.5,-1.3,0.9,-3,0.9c-1.6,0,-3,-0.4,-3,-0.9m6.9,14.7c0,0.7,-1.8,1.2,-3.9,1.2c-2.1,0,-3.8,-0.5,-3.8,-1.2m7.7,-1c0,0.6,-1.8,1.2,-3.9,1.2c-2.1,0,-3.8,-0.6,-3.8,-1.2m7.7,-1.2c0,0.7,-1.8,1.2,-3.9,1.2c-2.1,0,-3.8,-0.5,-3.8,-1.2m7.7,-1.2c0,0.6,-1.8,1.2,-3.9,1.2c-2.1,0,-3.8,-0.6,-3.8,-1.2m7.7,-1.2c0,0.6,-1.8,1.2,-3.9,1.2c-2.1,0,-3.8,-0.6,-3.8,-1.2m7.7,-1.2c0,0.7,-1.8,1.2,-3.9,1.2c-2.1,0,-3.8,-0.5,-3.8,-1.2m7.7,-1.2c0,0.7,-1.8,1.2,-3.9,1.2c-2.1,0,-3.8,-0.5,-3.8,-1.2m7.7,-1.2c0,0.7,-1.8,1.3,-3.9,1.3c-2.1,0,-3.8,-0.6,-3.8,-1.3m7.7,-1.1c0,0.7,-1.8,1.2,-3.9,1.2c-2.1,0,-3.8,-0.5,-3.8,-1.2m7.7,-1.2c0,0.7,-1.8,1.2,-3.9,1.2c-2.1,0,-3.8,-0.5,-3.8,-1.2m7.7,-1.1c0,0.6,-1.8,1.2,-3.9,1.2c-2.1,0,-3.8,-0.6,-3.8,-1.2m7.7,-1.3c0,0.7,-1.8,1.2,-3.9,1.2c-2.1,0,-3.8,-0.5,-3.8,-1.2m0,27.8l0,-9.6m7.7,0l0,9.4m0,-0.1c0,0.7,-1.8,1.2,-3.9,1.2c-2.1,0,-3.8,-0.5,-3.8,-1.2m7.7,-1c0,0.7,-1.8,1.2,-3.9,1.2c-2.1,0,-3.8,-0.5,-3.8,-1.2m7.7,-1.2c0,0.7,-1.8,1.2,-3.9,1.2c-2.1,0,-3.8,-0.5,-3.8,-1.2m7.7,-1.2c0,0.7,-1.8,1.2,-3.9,1.2c-2.1,0,-3.8,-0.5,-3.8,-1.2m7.7,-1.2c0,0.7,-1.8,1.2,-3.9,1.2c-2.1,0,-3.8,-0.5,-3.8,-1.2m7.7,-1.1c0,0.6,-1.8,1.2,-3.9,1.2c-2.1,0,-3.8,-0.6,-3.8,-1.2m7.7,-1.2c0,0.6,-1.8,1.2,-3.9,1.2c-2.1,0,-3.8,-0.6,-3.8,-1.2m7.7,-1.2c0,0.6,-1.8,1.2,-3.9,1.2c-2.1,0,-3.8,-0.6,-3.8,-1.2m7.7,-1.2c0,0.7,-1.8,1.3,-3.9,1.3c-2.1,0,-3.8,-0.6,-3.8,-1.3m5.2,0c-0.4,0,-0.9,0.1,-1.4,0.1c-0.5,0,-0.9,-0.1,-1.4,-0.1m14.8,9c0,2.3,-6,4.2,-13.4,4.2c-7.4,0,-13.4,-1.9,-13.4,-4.2m28.2,0.3c0,-2.2,-4.7,-4,-10.8,-4.5m-7.8,0c-6.2,0.5,-11,2.3,-11,4.5l0,8.2c0,2.5,6.7,4.6,14.8,4.6c8.2,0,14.8,-2.1,14.8,-4.6l0,-8.4m-20.3,-9.1l0,5m11.1,-5l0,5m-11.1,16.8l0,21.2m11.1,-21.2l0,21.2m7.8,-34c0,-1.9,-4.2,-3.5,-9.5,-4.1m-7.8,0.1c-5.4,0.5,-9.5,2.1,-9.5,4M759,1020c-1.6,2,-7.5,3.5,-14.4,3.5c-6.7,0,-12.3,-1.4,-14.1,-3.3m66.8,-63.1l0,-27.1M692.1,957.1l0,-27.1m47,121.9c0,2.2,5.4,2,5.4,0.1c0,-2,5.7,-2.1,5.7,-0.1c0,2.1,-5.7,1.7,-5.7,0.1M764.2,790.6l-39.5,0c-27.9,0,-31.4,25,-31.4,25c0,0,-3.2,20.4,-3.6,23c-0.4,2.7,-0.6,6.7,-0.6,6.7l0,15.4l3,0l0,-7.7c0,-2.2,4,-4.2,6.9,-5c3,-0.7,18.9,-4.1,45.9,-4.1c27,0,41.3,3.1,45.4,4.4c4.1,1.3,6.5,2.9,6.5,4.7l0,7.7l3,0l0,-15.4c0,0,-0.2,-4,-0.6,-6.7c-0.4,-2.6,-3.6,-23,-3.6,-23c0,0,-3.5,-25,-31.4,-25m-30.1,0l0,-2.6l1.7,0m-1.1,2.6c0.6,0,0.7,0,2.6,0.4c1.9,0.4,4.8,0.9,5.6,1.1c0.8,0.2,2.6,0.2,3.8,0c1.2,-0.3,7.1,-1.5,7.1,-1.5m-17.9,0l0,-8.8c0,-4.7,3.8,-8.5,8.6,-8.5c4.7,0,8.5,3.8,8.5,8.5c0,4.7,0.2,8.8,0,8.8m1.8,0l0,-2.6l-1.7,0m-23,61.8l0,1.6l-11.9,0l0,-1.6" class="g3_2" />
</g>
<path d="M718.5,849.5l12,0" class="g4_2" />
<path d="M729.2,850.2l0.9,1.2" class="g3_2" />
<path d="M719.5,849.5l0,1l10,0l0,-1" class="g4_2" />
<path d="M718.2,851.4l0.8,-1.2m10.2,0l0,-0.4m0,5.1l0,1.6l-10,0l0,-1.6" class="g3_2" />
<path d="M719.5,854.5l10,0" class="g4_2" />
<path d="M728.3,855.4l0.9,1.1" class="g3_2" />
<path d="M720.5,855.5l8,0" class="g4_2" />
<path d="M719.2,856.5l0.8,-1.1" class="g3_2" />
<path d="M728.5,855.5l0,-1m-8,1l0,-1" class="g4_2" />
<path d="M706.2,851.8l0,2.7m0,0l4.3,0c0,0,3.7,0.1,3.7,-1.3" class="g3_2" />
<path d="M706.2,851.8l4.3,0c0,0,3.7,-0.1,3.7,1.4M707,851.8l0,1.6m0,0l3.4,0c0,0,2.8,0.1,3,-1.1" class="g4_2" />
<path d="M707,853.4l-0.8,1.1m69.7,-4.7l0,1.6l-12,0l0,-1.6" class="g3_2" />
<path d="M763.5,849.5l12,0" class="g4_2" />
<path d="M775,850.2l0.9,1.2" class="g3_2" />
<path d="M764.5,849.5l0,1l10,0l0,-1" class="g4_2" />
<path d="M763.9,851.4l0.9,-1.2m10.2,0l0,-0.4m-0.1,5.1l0,1.6l-10,0l0,-1.6" class="g3_2" />
<path d="M764.5,854.5l10,0" class="g4_2" />
<path d="M774.1,855.4l0.8,1.1" class="g3_2" />
<path d="M765.5,855.5l9,0" class="g4_2" />
<path d="M764.9,856.5l0.9,-1.1" class="g3_2" />
<path d="M774.5,855.5l0,-1m-9,1l0,-1" class="g4_2" />
<path d="M751.9,851.8l0,2.7m0,0l4.3,0c0,0,3.8,0.1,3.8,-1.3" class="g3_2" />
<path d="M751.9,851.8l4.3,0c0,0,3.8,-0.1,3.8,1.4m-7.2,-1.4l0,1.6m0,0l3.4,0c0,0,2.8,0.1,3,-1.1" class="g4_2" />
<path d="M752.8,853.4l-0.9,1.1m-62.7,-1.6c0,-2.3,4.2,-4.6,7.3,-5.4c3.1,-0.9,19.9,-4.7,48.4,-4.7c28.5,0,43.6,3.5,48,4.9c4.3,1.5,6.8,3.3,6.8,5.2m-106.1,0.2c0,-2.1,3.9,-4,6.8,-4.7c2.8,-0.7,18.3,-4,44.5,-4c26.2,0,40.1,3,44.1,4.2c4,1.2,6.3,2.8,6.3,4.5M693.6,852c0,-1.1,1.2,-2.1,2.7,-3m99,3l0,8.8l-101.7,0l0,-8.8m99.8,-2.5c1.2,0.8,1.9,1.7,1.9,2.5m-103.2,7.7l1.5,0m101.7,0l1.5,0M561,953.3l-17.5,0l0,-8.1c0,0,0.2,-18.3,17.3,-18.3m1.2,-1.1l-1.1,0l0,30.3c0,0,0.1,0.9,1.2,0.9l69.8,0l0,-5.7L613.7,901.2l-42.4,15.5c-0.2,0,-10.4,2.8,-10.4,16m9,24.3l0.3,2.5c0,0,0,0.4,0.7,0.4l13.1,0c0,0,0.5,0,0.6,-0.6c0.1,-0.6,0.3,-2.3,0.3,-2.3m25.2,0l0.3,2.5c0,0,0.1,0.4,0.7,0.4l13.3,0c0,0,0.4,0,0.5,-0.6c0.1,-0.6,0.3,-2.3,0.3,-2.3m-78.7,-3.7l0,83m11.3,-83l0,83c0,3.1,-5.7,2.7,-5.7,0c0,-2.7,-5.6,-2.9,-5.6,0c0,2.9,5.6,2.9,5.6,0m8.8,-81.7c-0.8,0.4,-2.6,2.4,-2.6,5.2M563,957c-0.8,0.5,-1.4,1.3,-1.4,2.2l0,7.5l0,32.5c0,1.2,1.3,2.7,3,2.7l9.4,0c0,0,0.7,0,1.2,0.1c0.5,0.2,14.9,4,14.9,4l-0.8,3.1l-14.7,-4c0,0,-0.5,-0.1,-0.9,-0.1l-9.4,0c-0.8,0,-5.9,-1.1,-5.9,-6.2c0,-5.1,-0.1,-39,-0.1,-39m17.2,57.9l3.1,-11.5m0.8,-3.1l4,-14.5m-0.6,31l3.1,-11.5m0.7,-3.1l4,-14.6" class="g3_2" />
<path d="M590.6,990.4l-0.4,-0.7l-6.1,-1.6l-0.7,0.5" class="g4_2" />
<path d="M583.4,988.6l7.2,1.8m-7.5,-1l7.4,1.5m-7.7,-0.3l7.4,1.5m-7.7,-0.3l7.3,1.5M582.2,993l7.3,1.5m-7.7,-0.3l7.4,1.5m-7.7,-0.3l7.4,1.4m-7.7,-0.2l7.3,1.4m-7.6,-0.2l7.3,1.4M580.5,999l7.4,1.4m-7.7,-0.2l7.4,1.4m-7.7,-0.2l7.3,1.4m-7.6,-0.2l7.3,1.4m-8.6,3.3l7.4,1.5m-7.7,-0.3l7.4,1.4m-7.7,-0.2l7.3,1.5m-7.6,-0.3l7.3,1.5m-7.6,-0.3l7.3,1.4m-7.7,-0.2l7.4,1.4m-7.7,-0.2l7.4,1.4m-7.7,-0.3l7.3,1.5m-7.8,-0.3l7.4,1.5m-17.3,-3.2l26.8,7.2c0.6,0.1,1,0.8,0.8,1.4l-1.7,6.8c-0.1,0.6,-0.8,1,-1.4,0.8l-26.9,-7.2c-0.6,-0.1,-1,-0.8,-0.8,-1.4l1.7,-6.8c0.2,-0.6,0.9,-1,1.5,-0.8Z" class="g3_2" />
<path d="M671.5,790.5l44,0" class="g5_2" />
<path d="M671.5,860.5l16,0" class="g5_2" />
<path d="M669.5,790.5l0,70" class="g6_2" />
<path d="M670.5,790.5l-2,0" class="g6_2" />
<path d="M670.5,860.5l-2,0" class="g6_2" />
<path d="M817.5,902.5l-51,0" class="g5_2" />
<path d="M817.5,957.5l-16,0" class="g5_2" />
<path d="M819.5,902.5l0,55" class="g6_2" />
<path d="M818.5,902.5l2,0" class="g6_2" />
<path d="M818.5,957.5l2,0" class="g6_2" />
<path d="M633.5,957.5l7,0" class="g5_2" />
<path d="M591.5,1009.5l50,0" class="g5_2" />
<path d="M642.5,957.5l0,52" class="g6_2" />
<path d="M643.5,957.5l-2,0" class="g6_2" />
<path d="M643.5,1009.5l-2,0" class="g6_2" />
<path d="M688.5,871.5l0,-9" class="g5_2" />
<path d="M800.5,871.5l0,-9" class="g5_2" />
<path d="M688.5,872.5l112,0" class="g6_2" />
<path d="M688.5,871.5l0,2" class="g6_2" />
<path d="M800.5,871.5l0,2" class="g6_2" />
<g clip-path="url(#c1_2)">
<path d="M837.4,1112.8c-3.2,5.5,-9.2,9.5,-17,11.6c7.1,-2.5,10.9,-6.4,13,-9.9c3.6,-5.9,3.1,-12.5,1,-16.4c-4.1,-7.9,-16.9,-8.7,-31.4,-7.6c16.4,-3.6,29.3,-1.4,34.3,6.3c3.1,4.7,3.1,10.6,0.1,16m-10.2,5.3c3.4,-4.4,4.5,-10.1,2.9,-15.6c-1.8,-6.3,-8.7,-10.1,-20.7,-11.1c13.8,-0.4,21.2,1.9,24,7.3c1.8,3.5,2.3,9.7,-1,15.3c-1.6,2.7,-4.5,5.8,-9.5,8.1c1.6,-1.1,3.1,-2.5,4.3,-4m11.1,-21.9c-6,-9.2,-22.2,-11.1,-42.3,-5c-0.1,0,-0.1,0,-0.1,0c-0.1,0.1,-0.1,0.1,-0.1,0.1c0,0,-0.1,0,-0.1,0c0,0.1,0,0.1,0,0.1c0,0,0,0.1,0,0.1c-0.1,0,-0.1,0,-0.1,0c0,0.1,0,0.1,0,0.1c0,0,0,0.1,0,0.1c0,0,0,0.1,0,0.1c0,0,0,0.1,0,0.1c0.1,0,0.1,0.1,0.1,0.1c0,0.1,0,0.1,0.1,0.1c0,0.1,0,0.1,0.1,0.1c0.1,0,0.1,0.1,0.1,0.1l0.1,0l0.1,0c13.4,-0.6,30,0.8,32.8,10.6c1.5,5.1,0.5,10.4,-2.7,14.5c-3.1,3.9,-7.8,6.5,-13.8,7.7c-2.7,0.4,-5.7,0.6,-9,0.7c0,0,-0.1,0,-0.1,0c-0.2,0,-0.4,0.1,-0.5,0.3c0,0.1,0,0.1,0,0.1c0,0.1,0,0.1,0,0.1c0,0.1,0,0.1,0,0.1l0,0.1l0,0.1c0.1,0,0.1,0,0.1,0.1l0.1,0.1l0.1,0c0,0,0,0.1,0,0.1c0.1,0,0.1,0,0.2,0l0.1,0c1.3,0.1,2.6,0.2,3.9,0.2c14.5,0,25.9,-5,31,-13.8c3.3,-5.7,3.2,-12.1,-0.1,-17.1Z" class="g7_2" />
</g>
<path d="M796.4,1127.2c-0.3,0,-0.6,-0.2,-0.6,-0.6l0,-32c0,-0.3,0.3,-0.6,0.6,-0.6c0.3,0,0.5,0.3,0.5,0.6l0,32c0,0.4,-0.2,0.6,-0.5,0.6Z" class="g7_2" />
<path d="M798.6,1127.2c-0.3,0,-0.5,-0.2,-0.5,-0.6l0,-32c0,-0.3,0.2,-0.6,0.5,-0.6c0.3,0,0.6,0.3,0.6,0.6l0,32c0,0.4,-0.3,0.6,-0.6,0.6Z" class="g7_2" />
<path d="M800.9,1127.2c-0.4,0,-0.6,-0.2,-0.6,-0.6l0,-32c0,-0.3,0.2,-0.6,0.6,-0.6c0.3,0,0.5,0.3,0.5,0.6l0,32c0,0.4,-0.2,0.6,-0.5,0.6Z" class="g7_2" />
<path d="M782.1,1152.1c4.1,0,6.9,-2.9,6.9,-7c0,-4,-2.8,-6.9,-6.9,-6.9l-3.7,0l0,13.9Zm-6.4,-16c0,-0.3,0.2,-0.5,0.5,-0.5l6.2,0c5.3,0,9.6,4.3,9.6,9.5c0,5.3,-4.3,9.6,-9.6,9.6l-6.2,0c-0.3,0,-0.5,-0.2,-0.5,-0.5Z" class="g7_2" />
<path d="M794.2,1136.1c0,-0.3,0.2,-0.5,0.5,-0.5l11,0c0.3,0,0.5,0.2,0.5,0.5l0,1.5c0,0.3,-0.2,0.6,-0.5,0.6l-8.7,0l0,5.5l7.3,0c0.3,0,0.6,0.3,0.6,0.6l0,1.5c0,0.3,-0.3,0.5,-0.6,0.5l-7.3,0l0,5.9l8.7,0c0.3,0,0.5,0.2,0.5,0.5l0,1.5c0,0.3,-0.2,0.5,-0.5,0.5l-11,0c-0.3,0,-0.5,-0.2,-0.5,-0.5Z" class="g7_2" />
<path d="M809.4,1136.2c0,-0.3,0.3,-0.6,0.7,-0.6l1.6,0c0.3,0,0.6,0.3,0.6,0.6l0,7.6l7.7,-7.9c0.1,-0.2,0.3,-0.3,0.6,-0.3l2,0c0.5,0,0.8,0.6,0.4,1l-7.9,8l8.4,9.2c0.2,0.3,0,0.9,-0.5,0.9l-2.2,0c-0.3,0,-0.5,-0.1,-0.5,-0.2l-8,-8.9l0,8.5c0,0.3,-0.3,0.6,-0.6,0.6l-1.6,0c-0.4,0,-0.7,-0.3,-0.7,-0.6Z" class="g7_2" />
<path d="M825.9,1136.2c0,-0.3,0.2,-0.6,0.6,-0.6l1.6,0c0.4,0,0.7,0.3,0.7,0.6l0,7.6l7.7,-7.9c0.1,-0.2,0.3,-0.3,0.5,-0.3l2,0c0.5,0,0.8,0.6,0.4,1l-7.9,8l8.4,9.2c0.2,0.3,0.1,0.9,-0.5,0.9l-2.2,0c-0.3,0,-0.4,-0.1,-0.5,-0.2l-7.9,-8.9l0,8.5c0,0.3,-0.3,0.6,-0.7,0.6l-1.6,0c-0.4,0,-0.6,-0.3,-0.6,-0.6Z" class="g7_2" />
<g clip-path="url(#c1_2)">
<path d="M849.4,1152.3c3.9,0,7.1,-3.2,7.1,-7.1c0,-3.9,-3.2,-7.2,-7.1,-7.2c-3.9,0,-7.1,3.3,-7.1,7.2c0,3.9,3.2,7.1,7.1,7.1m0,-17c5.4,0,9.8,4.4,9.8,9.9c0,5.5,-4.4,9.8,-9.8,9.8c-5.5,0,-9.8,-4.3,-9.8,-9.8c0,-5.5,4.3,-9.9,9.8,-9.9Z" class="g7_2" />
</g>
<image x="85" y="828" width="182" height="194" xlink:href="img/2.png" />
<image x="273" y="828" width="181" height="194" xlink:href="img/3.png" />
</svg>