<?xml version="1.0" encoding="UTF-8" standalone="no"?>
<!DOCTYPE svg PUBLIC "-//W3C//DTD SVG 1.1//EN"
"http://www.w3.org/Graphics/SVG/1.1/DTD/svg11.dtd">
<svg version="1.1" xmlns="http://www.w3.org/2000/svg" xmlns:xlink="http://www.w3.org/1999/xlink">
<defs>
<style type="text/css"><![CDATA[
.g16_1{
fill: #636363;
}
.g2_1{
fill: none;
stroke: #FFFFFF;
stroke-width: 3;
stroke-linecap: round;
stroke-linejoin: miter;
stroke-miterlimit: 2;
}
.g12_1{
fill: #636363;
stroke: #000000;
stroke-width: 3;
stroke-linecap: round;
stroke-linejoin: round;
stroke-miterlimit: 2;
}
.g14_1{
fill: none;
stroke: #000000;
stroke-width: 3;
stroke-linecap: round;
stroke-linejoin: round;
stroke-miterlimit: 2;
}
.g15_1{
stroke: #000000;
stroke-width: 1;
stroke-linecap: round;
stroke-linejoin: round;
stroke-miterlimit: 2;
}
.g3_1{
fill: #FFFFFF;
stroke: #000000;
stroke-width: 2;
stroke-linecap: butt;
stroke-linejoin: miter;
stroke-miterlimit: 2;
}
.g13_1{
fill: #D4D4D4;
}
.g1_1{
fill: #B3B3B3;
}
.g7_1{
fill: #636363;
stroke: #000000;
stroke-width: 1;
stroke-linecap: butt;
stroke-linejoin: miter;
stroke-miterlimit: 2;
}
.g10_1{
fill: none;
stroke: #000000;
stroke-width: 2;
stroke-linecap: round;
stroke-linejoin: round;
stroke-miterlimit: 2;
}
.g5_1{
fill: none;
stroke: #000000;
stroke-width: 2;
stroke-linecap: butt;
stroke-linejoin: miter;
stroke-miterlimit: 2;
}
.g11_1{
fill: #808080;
stroke: #000000;
stroke-width: 1;
stroke-linecap: round;
stroke-linejoin: round;
stroke-miterlimit: 2;
}
.g4_1{
fill: none;
stroke: #000000;
stroke-width: 1;
stroke-linecap: butt;
stroke-linejoin: miter;
stroke-miterlimit: 2;
}
.g9_1{
fill: #FFFFFF;
}
.g6_1{
}
.g8_1{
fill: none;
stroke: #000000;
stroke-width: 1;
stroke-linecap: round;
stroke-linejoin: round;
stroke-miterlimit: 2;
}
]]></style>
</defs>
<path fill-rule="evenodd" d="M55,54l824,0l0,1101l-824,0Z" class="g1_1" />
<path d="M55.5,256.5l27,0" class="g2_1" />
<path d="M55.5,430.5l27,0" class="g2_1" />
<path d="M55.5,605.5l27,0" class="g2_1" />
<path d="M55.5,779.5l27,0" class="g2_1" />
<path d="M55.5,953.5l27,0" class="g2_1" />
<path d="M852.5,256.5l28,0" class="g2_1" />
<path d="M852.5,605.5l28,0" class="g2_1" />
<path d="M852.5,779.5l28,0" class="g2_1" />
<path d="M852.5,953.5l28,0" class="g2_1" />
<path d="M236.5,82.5l0,-27" class="g2_1" />
<path d="M390.5,82.5l0,-27" class="g2_1" />
<path d="M544.5,82.5l0,-27" class="g2_1" />
<path d="M698.5,82.5l0,-27" class="g2_1" />
<path d="M236.5,1155.5l0,-28" class="g2_1" />
<path d="M390.5,1155.5l0,-28" class="g2_1" />
<path d="M544.5,1155.5l0,-28" class="g2_1" />
<path d="M698.5,1155.5l0,-28" class="g2_1" />
<path fill-rule="evenodd" d="M82,82l770,0l0,1045l-770,0Z" class="g3_1" />
<path d="M184.5,209.5l646,0" class="g4_1" />
<path d="M103.5,278.5l727,0" class="g4_1" />
<path d="M82,1097l770,0" class="g5_1" />
<path d="M466.5,1099.5l0,28" class="g4_1" />
<path d="M468.5,1099.5l0,28" class="g4_1" />
<path d="M272.5,1099.5l0,28" class="g4_1" />
<path d="M274.5,1099.5l0,28" class="g4_1" />
<path d="M664.5,1099.5l0,28" class="g4_1" />
<path d="M666.5,1099.5l0,28" class="g4_1" />
<path fill-rule="evenodd" d="M106,289l37,0l0,38l-37,0Z" class="g6_1" />
<path fill-rule="evenodd" d="M103.5,287.5l38,0l0,37l-38,0Z" class="g7_1" />
<path d="M103.5,673.5l727,0" class="g4_1" />
<path d="M274.5,1099.5l192,0" class="g8_1" />
<path d="M468.5,1099.5l196,0" class="g8_1" />
<path d="M666.5,1099.5l186,0" class="g8_1" />
<path d="M272.5,1099.5l-190,0" class="g8_1" />
<path d="M467.5,1097.5l0,-819" class="g4_1" />
<path fill-rule="evenodd" d="M479,289l37,0l0,38l-37,0Z" class="g6_1" />
<path fill-rule="evenodd" d="M477.5,287.5l37,0l0,37l-37,0Z" class="g7_1" />
<path fill-rule="evenodd" d="M359,1040.4l-60.9,-20.7l0.5,-14.1l62.1,24.7Z" class="g9_1" />
<path d="M852.5,430.5l28,0" class="g2_1" />
<path fill-rule="evenodd" d="M106,683l37,0l0,38l-37,0Z" class="g6_1" />
<path fill-rule="evenodd" d="M103.5,681.5l38,0l0,38l-38,0Z" class="g7_1" />
<path fill-rule="evenodd" d="M479,683l37,0l0,38l-37,0Z" class="g6_1" />
<path fill-rule="evenodd" d="M477.5,681.5l37,0l0,38l-37,0Z" class="g7_1" />
<path d="M189.8,220.3c0.1,-0.1,0.3,-0.2,0.4,-0.3" class="g8_1" />
<path d="M190.2,220c0.3,-0.1,0.7,-0.1,1.1,-0.1c0.6,0.2,1.2,0.5,2,1.1c6.3,-1.6,12.2,-2.7,18.1,-3.4c5.8,-0.5,11.2,-0.6,16.5,-0.2" class="g8_1" />
<path d="M228.6,217.7c-0.3,-0.5,-0.9,-0.9,-1.7,-1.2c-0.8,-0.2,-1.8,-0.4,-3,-0.4c-7.2,-0.2,-13.6,0.1,-19.2,0.7c-5.6,0.7,-10.5,1.8,-14.5,3.2" class="g10_1" />
<path d="M187.3,228.5c1,0.7,2.1,1.4,3.2,2c1.1,0.6,2.2,1.1,3.4,1.5c3.8,-0.5,7.6,-1,11.4,-1.4" class="g8_1" />
<path d="M205.3,230.6c0.3,-0.1,0.6,-0.1,0.9,-0.2c0,-0.4,0,-0.9,0,-1.4c-0.4,-0.3,-0.7,-0.6,-0.9,-0.9c-0.1,-0.3,-0.2,-0.5,-0.2,-0.8c0.2,-1.2,0.7,-2.1,1.3,-2.7c0.7,-0.6,1.6,-1,2.7,-1c1.3,-0.1,2.2,-0.1,3,0c0.7,0.2,1.1,0.5,1.2,0.9c0.9,-0.1,2,-0.2,3.3,-0.4c1.4,-0.3,3,-0.6,4.7,-1.1c1.1,-0.3,1.9,-0.3,2.5,0.1" class="g10_1" />
<path d="M223.8,223.1c0.6,0.4,0.9,1.2,1,2.4c0.1,1,0.2,2.1,0.3,3.2" class="g8_1" />
<path d="M189.8,220.3c-0.4,2,-0.8,3.9,-1.3,5.9c0,0.3,-0.2,0.5,-0.4,0.6c-0.2,0.2,-0.4,0.2,-0.7,0.2c0,0.5,-0.1,1,-0.1,1.5" class="g10_1" />
<path d="M193.3,221.1c-0.1,2.4,-0.1,4.9,-0.2,7.4c0,0.3,0.1,0.7,0.2,1c0.2,0.4,0.4,0.7,0.7,1.1" class="g8_1" />
<path d="M194.1,230.6l12.1,-1.5" class="g8_1" />
<path d="M194.1,230.6L193.5,243" class="g8_1" />
<path d="M225.1,228.7c0,1,0.2,1.7,0.5,2.2c0.3,0.4,0.9,0.6,1.5,0.6" class="g8_1" />
<path d="M222.2,222.9c0.2,1.3,0.4,2.6,0.6,3.9c0.1,0.9,0,1.6,-0.4,2.1c-0.4,0.6,-1.2,0.9,-2.2,1.1c-4.1,0.7,-8.3,1.5,-12.5,2.2" class="g10_1" />
<path d="M224.4,230.2l-1.6,-1" class="g8_1" />
<path fill-rule="evenodd" d="M195.2,222.9c-0.1,0.5,0.1,1,0.5,1c0.3,0.1,0.6,-0.2,0.7,-0.7c0.1,-0.5,-0.1,-1,-0.4,-1c-0.3,-0.1,-0.7,0.3,-0.8,0.7Z" class="g11_1" />
<path fill-rule="evenodd" d="M194.8,228.1c0,0.5,0.1,0.9,0.5,1c0.3,0,0.6,-0.3,0.7,-0.8c0.1,-0.5,-0.1,-0.9,-0.4,-1c-0.3,-0.1,-0.7,0.3,-0.8,0.8Z" class="g11_1" />
<path fill-rule="evenodd" d="M205,222.4c-0.1,0.5,0.1,1,0.4,1.1c0.3,0,0.7,-0.3,0.8,-0.8c0.1,-0.5,-0.1,-0.9,-0.4,-1c-0.4,-0.1,-0.7,0.3,-0.8,0.7Z" class="g11_1" />
<path d="M227.2,222.3c0,-1,-0.3,-1.6,-0.9,-2.1c-0.7,-0.4,-1.7,-0.6,-3.1,-0.5c-1.7,-0.1,-3.8,-0.1,-6.5,0c-2.6,0.1,-5.7,0.3,-9.4,0.6c-1.2,0.1,-2.1,0.5,-2.6,1.1c-0.5,0.7,-0.7,1.5,-0.5,2.8c0.2,0.8,0.4,1.5,0.5,2.2" class="g8_1" />
<path d="M205.6,225.9c0.7,-0.1,1.5,0,2.1,0.2c0.7,0.3,1.3,0.7,1.8,1.3c0.5,-0.9,0.9,-1.8,1.3,-2.6" class="g10_1" />
<path d="M208.2,223.7c1.2,0.2,2.1,0.6,2.6,1.1c0.6,0.4,1,1,1.1,1.6" class="g8_1" />
<path d="M211.9,226.4c0.2,-0.5,0.4,-1,0.6,-1.3c0.3,-0.3,0.6,-0.5,0.9,-0.6" class="g10_1" />
<path d="M211.9,226.4l-1.4,-0.8" class="g10_1" />
<path d="M209.5,227.4l-1.7,-0.9" class="g8_1" />
<path d="M207,225.9c0.3,0.2,0.6,0.5,0.9,0.7" class="g8_1" />
<path d="M208,248.3c0.3,-0.2,0.7,-0.5,1,-0.7c7.2,-1.6,14.5,-3.3,21.7,-4.9c0,0,1.9,-1.2,2.3,-2.7c0,-1.8,0.1,-3.6,0.1,-5.4c-0.3,-2.4,-2.3,-4,-2.3,-4c-0.3,-0.4,-0.3,-0.6,-0.4,-0.9c-0.2,-0.3,-0.3,-0.8,-0.4,-1.2c0,0,-1.4,-10.7,-1.4,-10.7" class="g10_1" />
<path d="M205.3,230.6c0.2,3.8,0.1,8.2,-0.1,13.1c-0.3,4.9,-0.8,10.3,-1.5,16.2" class="g10_1" />
<path d="M203.7,259.9l-3.1,0.7" class="g8_1" />
<path d="M233,234.7l-23.9,4.9" class="g8_1" />
<path d="M209.1,239.6c0,-1.1,0,-2.3,0,-3.5c0,-0.1,0,-0.1,-0.1,-0.2c0,0,-0.1,-0.1,-0.2,-0.1c-0.3,-0.1,-0.5,-0.2,-0.6,-0.4c-0.2,-0.2,-0.3,-0.5,-0.3,-0.8c0,-1.1,-0.2,-2.1,-0.5,-2.9c-0.3,-0.9,-0.7,-1.6,-1.2,-2.1" class="g10_1" />
<path d="M233,240l-28,5.9" class="g8_1" />
<path d="M205,245.9c0.2,-0.1,0.3,-0.2,0.3,-0.3c0.1,-0.1,0.2,-0.2,0.2,-0.4c0,-1.6,0.1,-3.2,0.2,-4.8c0,-1.2,0,-2.4,0,-3.6c0,0,-0.1,-0.1,-0.1,-0.1c0,-0.1,-0.1,-0.1,-0.2,-0.2" class="g8_1" />
<path d="M208.9,236l-3.1,0.7" class="g8_1" />
<path d="M207.8,235.4l-2.2,0.5" class="g8_1" />
<path d="M216.8,230.7c1.6,0.1,2.9,0.7,3.8,1.6c0.9,0.9,1.5,2.3,1.8,4c0,0.1,0.1,0.3,0.1,0.3c0.1,0.1,0.1,0.2,0.2,0.2" class="g8_1" />
<path d="M222.3,242.3c-0.2,0.7,-0.7,1.3,-1.3,1.8c-0.7,0.6,-1.7,1.1,-2.9,1.4" class="g8_1" />
<path d="M222.8,236.8l-0.1,5.3" class="g8_1" />
<path d="M227.7,231.3l2.2,-0.5" class="g8_1" />
<path d="M225,230.9c0,0.3,-0.2,0.6,-0.4,0.7c-0.1,0.2,-0.4,0.3,-0.7,0.3c-0.7,0.2,-1.4,0.3,-2.2,0.5" class="g8_1" />
<path d="M220.1,232.8l-11.3,2" class="g8_1" />
<path d="M202.2,231.1c0.2,3.8,0.1,8.2,-0.1,13.1c-0.3,4.9,-0.8,10.4,-1.5,16.4" class="g8_1" />
<path d="M203.9,258.8l2.9,-0.7" class="g8_1" />
<path d="M206.8,258.1c0.4,-1.1,0.8,-2.4,1,-3.8c0.2,-1.4,0.3,-3.1,0.3,-4.8c-0.1,-0.7,-0.1,-1.4,0,-2c0.1,-0.6,0.4,-1.1,0.7,-1.5" class="g10_1" />
<path d="M209.5,247.6c0.8,0.3,1.4,1.6,1.5,3.2c0.2,1.9,-0.4,3.6,-1.4,3.6c-0.6,0.3,-1.2,0.5,-1.9,0.8" class="g10_1" />
<path d="M210.9,252.9l7.2,4.3" class="g10_1" />
<path d="M218.1,257.2l-25.3,6.2" class="g8_1" />
<path d="M192.8,263.4l-4.3,-2.9" class="g8_1" />
<path d="M190.6,271.7l-0.2,-0.1" class="g8_1" />
<path d="M193.8,251.7l0,1.6l-2.8,0.5l-1.1,-0.5" class="g10_1" />
<path d="M187.6,252.1c0,-1.7,0,-3.4,0,-5.1c-0.1,-0.8,-0.2,-1.7,-0.2,-2.6c0,-0.9,-0.1,-2,-0.1,-3c0,-0.2,-0.1,-0.5,-0.1,-0.6c-0.1,-0.2,-0.1,-0.4,-0.2,-0.5c-0.1,-0.1,-0.2,-0.2,-0.3,-0.4c0,-0.2,-0.1,-0.4,-0.1,-0.7c0.1,-1.1,0.1,-2.5,0.2,-4.3c0.1,-1.8,0.3,-3.9,0.4,-6.4" class="g10_1" />
<path d="M190.9,253.8c0,-1.7,0,-3.3,0,-5c0.3,-0.7,0.5,-1.5,0.7,-2.3c0.2,-0.9,0.4,-1.8,0.5,-2.7c0.1,-0.2,0.2,-0.4,0.2,-0.5" class="g8_1" />
<path d="M192.3,243.3c0.2,-0.1,0.3,-0.1,0.5,-0.1c0.2,0.1,0.4,0.2,0.6,0.2c0.3,0.1,0.5,0.1,0.9,0" class="g10_1" />
<path d="M187.6,247l3.4,1.7l7.3,-1l1.4,-4.5" class="g8_1" />
<path d="M187.6,252.1l0.8,0.4l1.3,-0.1" class="g10_1" />
<path d="M187.1,259.4L183,256.7" class="g8_1" />
<path d="M188.5,252.5l0,-1" class="g8_1" />
<path d="M189,253l0,-1" class="g10_1" />
<path d="M188.4,251.6c0.1,-0.4,0.3,-0.7,0.6,-0.8" class="g8_1" />
<path d="M189,250.8c0.3,-0.1,0.7,0.4,0.9,1c0,0.2,0,0.4,0,0.5" class="g10_1" />
<path d="M200.4,259.7L199,260" class="g8_1" />
<path d="M199,260c0.3,-2.7,0.6,-5.5,0.8,-8.2c0.2,-2.7,0.3,-5.4,0.3,-8.1c0,-0.2,-0.1,-0.5,-0.2,-0.8" class="g8_1" />
<path d="M199.9,242.9c-0.3,0,-0.6,0,-1,0c-1.5,0.1,-3.1,0.3,-4.6,0.5" class="g10_1" />
<path d="M199,260l-1.2,-0.8" class="g8_1" />
<path d="M198.3,247.7c0,0.7,0,2.1,-0.1,4c-0.1,1.9,-0.2,4.4,-0.4,7.5" class="g8_1" />
<path d="M200.6,260.6c-0.1,0,-0.2,-0.1,-0.3,-0.1c0,0,-0.1,-0.1,-0.1,-0.1" class="g8_1" />
<path d="M201.9,231c0.1,3.8,0.1,8,-0.2,12.9c-0.2,5,-0.7,10.4,-1.4,16.4" class="g8_1" />
<path d="M213.7,256.3l-3.5,-2.1" class="g8_1" />
<path d="M209.7,257.2l-2.2,-1.3" class="g8_1" />
<path d="M212.3,256.8l-3.4,-2.1" class="g10_1" />
<path d="M208.2,257.6l-1,-0.6" class="g10_1" />
<path d="M213.7,256.4l-1.4,0.4" class="g10_1" />
<path d="M209.8,257.3l-1.6,0.4" class="g10_1" />
<path fill-rule="evenodd" d="M230.4,232.6c0.3,0.6,0.2,1.1,0,1.3c-0.3,0.1,-0.8,-0.2,-1.1,-0.7c-0.3,-0.6,-0.3,-1.2,0,-1.3c0.3,-0.2,0.8,0.2,1.1,0.7Z" class="g11_1" />
<path d="M187.1,259.4l3.2,-0.7" class="g8_1" />
<path d="M192.1,258.3l0.9,-0.2" class="g8_1" />
<path d="M193.8,251.7c0,-0.2,0.1,-0.4,0.1,-0.6c0.3,-0.8,1,-1.3,1.7,-1.1" class="g10_1" />
<path d="M195.6,250c0.4,0.1,0.7,0.6,0.7,1.1c0.1,2,0.2,4,0.4,6.1c0,0.4,0.2,0.8,0.3,1.1c0.2,0.2,0.5,0.4,0.8,0.5" class="g8_1" />
<path d="M197.2,258.5L193.5,256" class="g8_1" />
<path d="M192.2,254.4c0.6,0.2,1.2,0.6,1.2,1" class="g10_1" />
<path d="M193.4,255.4c0,0.5,-1,1,-2.3,1c-1.3,0,-2.3,-0.5,-2.3,-1" class="g8_1" />
<path d="M188.8,255.4c0,-0.4,0.6,-0.8,1.3,-1" class="g10_1" />
<path d="M188.5,255.5l0,1" class="g8_1" />
<path d="M189,257.3c0.4,0.4,1.2,0.6,2.1,0.6c0.6,0,1.2,-0.1,1.6,-0.3" class="g10_1" />
<path d="M193.5,256.5l0,-1" class="g8_1" />
<path d="M190.1,253.3c0,0.7,0,1.3,0,2c0,0.3,0.4,0.5,1,0.5c0.6,0,1.1,-0.2,1.1,-0.5c0,-0.6,0,-1.1,0,-1.7" class="g8_1" />
<path d="M190,257l0,3" class="g10_1" />
<path d="M192.5,257.5l0,2" class="g8_1" />
<path d="M190.5,263.5l0,8" class="g8_1" />
<path d="M192.2,263.7l0,5.7l-1.6,2.4" class="g10_1" />
<path d="M192.9,258.1c0.2,0,0.4,-0.1,0.7,-0.1c0.8,0,1.4,0.3,1.4,0.6" class="g8_1" />
<path d="M190.5,257.5l0,2" class="g8_1" />
<path d="M190,263l0,8" class="g10_1" />
<path d="M211.3,225.2c0.1,0.2,0.2,0.5,0.2,0.7" class="g8_1" />
<path d="M211.4,225.9l-0.9,-0.5" class="g8_1" />
<path d="M189,256c0.2,0,0.4,0.2,0.5,0.6c0.1,0.3,-0.1,0.6,-0.3,0.7" class="g8_1" />
<path d="M188.4,256.2c0.2,-0.1,0.5,0.2,0.5,0.5c0.1,0.4,0,0.7,-0.3,0.7" class="g8_1" />
<path d="M193.1,256.4c-0.3,-0.2,-0.7,-0.1,-0.9,0.2c-0.2,0.3,-0.1,0.6,0.1,0.8" class="g8_1" />
<path d="M192.8,257.7c0.2,0.1,0.6,0,0.8,-0.2c0.2,-0.3,0.1,-0.7,-0.1,-0.9" class="g10_1" />
<path d="M193.5,256.6c-0.2,-0.1,-0.6,0,-0.8,0.3c-0.2,0.3,-0.2,0.6,0.1,0.8" class="g8_1" />
<path d="M193.5,256.7l-0.4,-0.3" class="g8_1" />
<path d="M192.7,257.6l-0.4,-0.2" class="g8_1" />
<path d="M192.8,263.3l-3,-1l-4.3,-2.9" class="g8_1" />
<path d="M187.1,259.4l-3,-1l-4.2,-2.8" class="g8_1" />
<path d="M213.3,256.5l-3.6,-2.1" class="g8_1" />
<path d="M209.3,257.4l-1.9,-1.2" class="g8_1" />
<path d="M189.8,262.3l-0.2,0.4" class="g8_1" />
<path d="M184.1,258.4l-0.2,0.4" class="g8_1" />
<path d="M218.1,257.2c0,0.2,0,0.3,0,0.5c-8.4,2,-16.9,4,-25.3,6.1c-1,-0.3,-2.1,-0.7,-3.2,-1c-1.4,-1,-2.9,-2,-4.3,-3c0,-0.1,0.1,-0.2,0.2,-0.4c1,0.3,2,0.6,3,1c2,-0.4,3.9,-0.8,5.9,-1.3c0.3,-0.1,0.6,-0.3,0.6,-0.5" class="g10_1" />
<path d="M188.7,255.4l-5.7,1.3l0,-0.1l-3,-1l-0.1,0.1l-0.2,0.4l4.1,2.8l1.6,0.5" class="g10_1" />
<path d="M187.1,259.9l3.2,-0.8" class="g8_1" />
<path d="M192.2,258.7c0.2,-0.1,0.5,-0.1,0.8,-0.2c0.1,0,0.4,-0.1,0.6,-0.1c0.6,0,1,0.2,1.2,0.3" class="g8_1" />
<path d="M189.2,257.3c-0.2,0,-0.3,0.1,-0.5,0.1l-0.1,0c-0.2,0.1,-0.4,-0.2,-0.5,-0.5c-0.1,-0.4,0.1,-0.7,0.3,-0.7c0,0,-0.1,-0.1,-0.1,-0.1c0.2,0,0.5,0,0.7,-0.1" class="g10_1" />
<path d="M229.3,237.3l0.7,-0.2l0,-0.7" class="g8_1" />
<path d="M230,237.1l0.2,0.1" class="g8_1" />
<path d="M230.5,236.9l0.7,-0.1l0,-0.7" class="g8_1" />
<path d="M231.2,236.8l0.2,0.1" class="g8_1" />
<path d="M231.8,236.7l0.6,-0.2l0,-0.7" class="g8_1" />
<path d="M232.4,236.5l0.2,0.2" class="g8_1" />
<path d="M231.8,238l0.6,-0.2l0,-0.6" class="g8_1" />
<path d="M232.4,237.9l0.2,0.1" class="g8_1" />
<path d="M231.8,239.4l0.6,-0.2l0,-0.7" class="g8_1" />
<path d="M232.4,239.2l0.2,0.2" class="g8_1" />
<path d="M230.5,239.6l0.7,-0.1l0,-0.7" class="g8_1" />
<path d="M231.2,239.5l0.2,0.1" class="g8_1" />
<path d="M230.5,238.3l0.6,-0.2l0,-0.7" class="g8_1" />
<path d="M231.2,238.2l0.2,0.1" class="g8_1" />
<path d="M229.3,238.6l0.7,-0.2l0,-0.7" class="g8_1" />
<path d="M230,238.4l0.2,0.2" class="g8_1" />
<path d="M229.3,239.9l0.6,-0.1l0,-0.7" class="g8_1" />
<path d="M229.9,239.8l0.2,0.1" class="g8_1" />
<path d="M194.3,229.7l10.6,-1.2" class="g8_1" />
<path fill-rule="evenodd" d="M268.3,247.2c11.4,-6.5,22.8,-13.1,34.2,-19.8c0.4,-0.5,0.9,-1.1,1.3,-1.7c0.2,-0.2,0.2,-0.4,0.2,-0.5C303.9,225,303.7,225,303.5,225c-0.8,0,-1.5,0.1,-2.3,0.2c-11.3,6.5,-22.6,13.1,-33.9,19.6c0.3,0.8,0.6,1.6,1,2.4Z" class="g9_1" />
<path d="M259.9,252.1c14.2,-8.3,28.4,-16.5,42.6,-24.7c0.4,-0.5,0.9,-1.1,1.3,-1.7c0.2,-0.2,0.2,-0.4,0.2,-0.5C303.9,225,303.7,225,303.5,225c-0.8,0,-1.5,0.1,-2.3,0.2C287.1,233.3,273,241.4,259,249.6" class="g10_1" />
<path d="M301.8,227.3c0.2,-0.5,0.5,-0.8,0.8,-1.1c0.3,-0.3,0.7,-0.5,1.2,-0.6" class="g8_1" />
<path d="M300.8,225.9c0.5,0,1.1,-0.1,1.5,-0.3c0.5,-0.1,0.9,-0.3,1.3,-0.6" class="g8_1" />
<path fill-rule="evenodd" d="M271.6,238.4c-0.7,0.3,-1.3,0.7,-1.9,1.1c-0.4,0.2,-0.7,0.5,-0.9,0.8c-0.2,0.3,-0.4,0.7,-0.5,1.2c0,0.3,0,0.5,-0.1,0.6c-0.1,0.1,-0.3,0.2,-0.5,0.1c-0.6,-0.5,-1.4,-0.8,-2,-0.8c-0.6,-0.1,-1.4,0,-2,0.3c-6.8,3.9,-13.7,7.9,-20.5,11.8c-1.5,1.5,-2.4,2.9,-2.6,4.3c-0.2,1.5,0.2,2.9,1.1,4.2c1.2,1.4,2.6,2.3,3.9,2.5c1.4,0.2,3,-0.1,4.6,-1.1c6.4,-3.7,12.8,-7.4,19.2,-11.1c0.7,-0.6,1.2,-1.2,1.5,-1.9c0.3,-0.6,0.4,-1.4,0.4,-2.1c0,-0.3,0.2,-0.5,0.3,-0.6c0.1,0,0.3,0.1,0.5,0.3c0.4,0.2,0.8,0.4,1.1,0.4c0.4,0,0.8,-0.1,1.1,-0.2c0.7,-0.4,1.5,-0.9,2.2,-1.3c0.7,-0.7,1,-1.5,0.9,-2.5c0,-1,-0.5,-2.2,-1.3,-3.4c-0.8,-1.1,-1.6,-1.9,-2.3,-2.3c-0.8,-0.5,-1.5,-0.6,-2.2,-0.3Z" class="g9_1" />
<path d="M268.4,242.1c-0.1,-1.1,0.3,-2,1,-2.4c0.6,-0.4,1.4,-0.8,2.1,-1.2c1.3,-0.8,3.5,0.5,4.9,2.8c1.3,2.3,1.3,4.9,0,5.6c-0.7,0.4,-1.4,0.9,-2.1,1.3c-0.8,0.4,-1.8,0.2,-2.8,-0.4" class="g10_1" />
<path d="M270.9,248.7c-0.1,-1.1,-0.5,-2.3,-1.2,-3.6c-0.5,-0.9,-1.2,-1.7,-1.9,-2.3" class="g8_1" />
<path d="M271.4,247.2c-0.1,-0.7,-0.3,-1.7,-0.8,-2.5c-0.5,-0.9,-1.2,-1.6,-1.8,-2" class="g8_1" />
<path d="M272.8,247.7c-0.5,-0.2,-0.9,-0.2,-1.1,-0.1c-0.2,0,-0.4,0.3,-0.4,0.5c0,0.9,-0.1,1.8,-0.4,2.4c-0.3,0.7,-0.8,1.3,-1.4,1.6c-6.8,4,-13.6,7.9,-20.5,11.9c-0.9,0.4,-1.5,0.6,-2.4,0.6c-3.3,0,-6,-2.7,-6,-6c0,-1.9,1.1,-3.8,2.6,-4.9c6.7,-4,13.6,-7.9,20.4,-11.9c0.5,-0.3,1.2,-0.4,1.8,-0.4c0.7,0.1,1.5,0.4,2.3,0.8c0.3,0.1,0.7,0.1,0.9,0.1c0.2,-0.1,0.4,-0.5,0.5,-0.9" class="g10_1" />
<path d="M244.1,253.7c1.6,0.2,3.4,1.5,4.6,3.7c1.2,2,1.5,4.1,1.1,5.6" class="g8_1" />
<path d="M273.8,248.1c1.1,-0.9,1,-3.1,-0.2,-5.2c-1.2,-2.1,-3.1,-3.3,-4.4,-2.8" class="g8_1" />
<path d="M247,253.8L265.5,243" class="g8_1" />
<path d="M248.8,254.8l17.9,-10.6" class="g8_1" />
<path d="M250.8,258.5l18.1,-11" class="g8_1" />
<path d="M251.1,260.6l18.1,-11" class="g8_1" />
<path d="M248.8,254.8c-0.7,0.5,-2.9,0,-1.8,-1" class="g8_1" />
<path d="M250.8,258.5c-1.1,0.7,-1,2.7,0.3,2.1" class="g8_1" />
<path d="M269.2,249.6c1.1,-0.6,1.3,-3.1,-0.3,-2.1" class="g8_1" />
<path d="M266.7,244.2c1.1,-0.7,0,-1.9,-1.2,-1.2" class="g8_1" />
<path d="M409,596l0,-68" class="g10_1" />
<path d="M408.2,596.7L255.2,513" class="g8_1" />
<path d="M409.3,528.4L255.2,443.6" class="g10_1" />
<path d="M255.5,512.5l0,-69" class="g8_1" />
<path d="M270.4,506.9L255.2,513" class="g8_1" />
<path d="M409.1,582.3L270.4,506.9" class="g10_1" />
<path d="M270,506l0,-55" class="g10_1" />
<path fill-rule="evenodd" d="M344.3,519.4l-1.8,16.3l9.6,4.7L350.3,552l-87.9,-0.6l1.5,-10.6l12.3,-38.5l23.1,10.8l17.4,-8.2Z" class="g9_1" />
<path d="M327.9,521.4c-0.2,1.7,-5.2,2.8,-8.2,2.5c-2.9,-0.2,-8.2,-2.5,-7.9,-4.9" class="g8_1" />
<path d="M303.8,518.5l7.1,-3.2" class="g8_1" />
<path fill-rule="evenodd" d="M298.1,527.3l43.2,-6.5l0,7l-10.4,4.6l18.1,9.4l0,7.5l-82.8,-0.7l0.1,-7.6Z" class="g12_1" />
<path fill-rule="evenodd" d="M299.4,515.7l17.7,-8l24.2,13.1l-17.7,8.1L349,541.8L266.3,541l11.1,-35.7Z" class="g13_1" />
<path d="M341.3,520.8L317.1,507.7l-17.7,8l-22,-10.4L266.3,541" class="g14_1" />
<path d="M349,541.8L266.3,541" class="g8_1" />
<path d="M341.3,520.8l-17.4,7.9" class="g8_1" />
<path d="M349,541.8L323.9,528.7" class="g14_1" />
<path d="M276.5,640.5l0,-68" class="g8_1" />
<path d="M276.3,572.6L122.1,487.8" class="g8_1" />
<path d="M291.5,566.5l-15.2,6.1" class="g8_1" />
<path d="M122.1,557.2l-0.2,-69.7l15.3,-6.1l154.3,85.1l0,68.6l-15.7,6.1Z" class="g10_1" />
<path d="M255.5,439.5l0,-11" class="g8_1" />
<path d="M409.5,525.5l0,-12" class="g8_1" />
<path d="M255.2,431.4l57.1,31.4" class="g8_1" />
<path d="M352.8,485.1l56.6,31.1" class="g8_1" />
<path fill-rule="evenodd" d="M254.7,430.1c0.5,-0.2,1.2,0.2,1.4,0.9c0.3,0.7,0,1.5,-0.5,1.6c-0.5,0.2,-1.2,-0.2,-1.4,-0.9c-0.3,-0.7,0,-1.4,0.5,-1.6Z" class="g15_1" />
<path fill-rule="evenodd" d="M408.8,514.9c0.6,-0.2,1.2,0.2,1.5,0.9c0.2,0.7,0,1.4,-0.6,1.6c-0.5,0.2,-1.1,-0.2,-1.4,-0.9c-0.2,-0.7,0,-1.5,0.5,-1.6Z" class="g15_1" />
<path d="M429.2,539L412,529.5" class="g8_1" />
<path d="M429.2,607.8L412,598.4" class="g8_1" />
<path d="M425.5,605.5l0,-25" class="g8_1" />
<path d="M425.5,562.5l0,-25" class="g8_1" />
<path fill-rule="evenodd" d="M424.8,535.9c0.5,-0.1,1.1,0.3,1.4,1c0.2,0.7,0,1.4,-0.5,1.6c-0.6,0.2,-1.2,-0.2,-1.5,-0.9c-0.2,-0.7,0,-1.5,0.6,-1.7Z" class="g15_1" />
<path fill-rule="evenodd" d="M424.8,604.4c0.5,-0.2,1.1,0.2,1.4,0.9c0.2,0.7,0,1.5,-0.5,1.7c-0.6,0.1,-1.2,-0.3,-1.5,-1c-0.2,-0.7,0,-1.4,0.6,-1.6Z" class="g15_1" />
<path d="M364.1,950.6c0,0,-19.7,-13,-34.6,-21.6c-11.2,-6.4,-36.6,0.6,-61,-2" class="g10_1" />
<path d="M243.9,932.5c-1.6,-0.7,-3.2,-1.4,-4.8,-2.1" class="g10_1" />
<path d="M358.1,959.6c0,0,-24.1,-16.1,-34.6,-21.5c-7.4,-3.9,-31.5,1.2,-55.3,-0.6" class="g10_1" />
<path d="M365.8,967.9l-6.4,-5.7c0,0,-2.8,-3,0.5,-8.1" class="g10_1" />
<path d="M379,955.5l-11.3,-4.7c0,0,-4.2,-2.1,-7.8,3.3" class="g10_1" />
<path d="M365.9,962.7l0,8.3c0,0,-0.4,2.9,2.3,4.7c2.8,1.7,15.6,9.9,15.6,9.9l4.7,0.3" class="g10_1" />
<path d="M373.8,979.6c0.4,2.9,0.9,4.9,0.9,4.9c0,0,0.6,1.2,2,2c1.5,0.9,13.6,8.6,13.6,8.6c0,0,0.7,0.6,1.6,0.3c0.9,-0.4,7.1,-2.7,7.1,-2.7" class="g10_1" />
<path d="M365.9,962.7c-0.1,-0.7,0.9,-2.8,1.7,-3.4" class="g10_1" />
<path d="M367.6,959.3c2.3,-0.3,7.4,-2.2,8.8,-3c1.4,-0.8,3,-1.2,5.8,-1.1c2.7,0.1,5.3,0.8,6.9,1.4c1.6,0.6,1.8,0.9,3.2,1.7c1.4,0.8,13.7,8.5,13.7,8.5c0,0,0.8,0.8,0.8,1.3c-0.1,0.6,0,3.2,0,3.2" class="g10_1" />
<path d="M383.3,975.4l-14.6,-9.5" class="g8_1" />
<path d="M399.6,965.9l-14.3,-9" class="g8_1" />
<path d="M383.7,984.3l0,-7.3c0,0,-0.2,-1,0.9,-2.1c1.1,-1.1,5.5,-5,5.5,-5c0,0,1.1,-0.8,1.8,-1.1c0.7,-0.3,7,-2.6,7,-2.6c0,0,1.3,-0.2,1.7,-0.1c0.5,0.1,4.5,0.7,4.5,0.7" class="g8_1" />
<path d="M389.2,986.5l1.3,7.7" class="g8_1" />
<path d="M390.3,972.7l10.1,6.4c0,0,2,2.7,0.3,6.3" class="g10_1" />
<path d="M400.7,985.4l-1.6,0.7l-10.3,-6.4" class="g10_1" />
<path d="M388.8,973.3l10.2,6.4c0,0,2,2.7,0.2,6.3" class="g8_1" />
<path d="M388.7,979.3l0,-6l1.6,-0.6" class="g8_1" />
<path d="M401.8,968.3l10.1,6.4c0,0,2,2.8,0.3,6.4" class="g10_1" />
<path d="M412.2,981.1l-1.6,0.7l-10.3,-6.4" class="g10_1" />
<path d="M400.3,969l10.2,6.3c0,0,2,2.8,0.3,6.4" class="g8_1" />
<path d="M400.2,975l0,-6l1.6,-0.7" class="g8_1" />
<path d="M404.7,978.6l-2.9,2.4" class="g10_1" />
<path d="M400.6,985.9l0,1.2" class="g10_1" />
<path d="M393.7,989.2l13.7,8.6c0,0,2.6,1,3.6,-0.9c1,-1.9,0.3,-3,-0.7,-3.7c-0.9,-0.6,-11.1,-6.8,-11.1,-6.8" class="g10_1" />
<path d="M393.7,989.2c-0.7,-0.5,-0.7,-2.4,0,-3.3c0.6,-0.8,2,-1.9,2.9,-1.3" class="g8_1" />
<path d="M396.4,980c0.7,-0.3,1.5,0.2,1.8,1.1c0.4,0.9,0.2,1.8,-0.4,2.1c-0.6,0.3,-1.4,-0.3,-1.8,-1.1c-0.4,-0.9,-0.2,-1.9,0.4,-2.1Z" class="g8_1" />
<path d="M408,975.6c0.6,-0.2,1.4,0.3,1.8,1.2c0.4,0.9,0.2,1.8,-0.4,2.1c-0.7,0.2,-1.5,-0.3,-1.8,-1.2c-0.4,-0.9,-0.2,-1.8,0.4,-2.1Z" class="g8_1" />
<path d="M355.7,915.8l0,20.3c0,0,0.2,1.3,-1.3,2c-1.5,0.8,-6.1,2.3,-6.1,2.3" class="g10_1" />
<path d="M334.8,945.4l-6.2,2.3c0,0,-1.5,0.7,-1.6,2.4c0,1.8,0,21.1,0,21.1c0,0,0,0.7,0.5,1c0.4,0.3,1.2,0.6,1.2,0.6c0,0,0.8,0.1,1.7,-0.2c0.8,-0.4,26.6,-10,26.6,-10" class="g10_1" />
<path d="M357,916.5l0,20.4c0,0,0.2,1.3,-1.3,2c-1.5,0.7,-6.1,2.3,-6.1,2.3" class="g8_1" />
<path d="M336.2,946.1l-6.3,2.4c0,0,-1.5,0.7,-1.6,2.4c0,1.7,0,21.1,0,21.1c0,0,0,0.7,0.5,1" class="g8_1" />
<path d="M356.7,915.7c-1,0.1,-1.6,0,-2.4,0.5c-0.7,0.5,-21.4,7.9,-21.4,7.9c0,0,-2.8,0.2,-3.4,0.2c-0.5,0,-1.3,-0.1,-1.5,-0.4c-0.3,-0.4,-1,-0.5,-1,-1.5c0,-1.1,0,-2.2,0,-2.2c0,0,-0.1,-1.3,-1.1,-2c-1.1,-0.8,-22.8,-14,-22.8,-14c0,0,-1.8,-1.2,-1.8,-3.6" class="g10_1" />
<path d="M301.3,900.6l-0.1,-1.3" class="g10_1" />
<path d="M328.3,923.3c0,-1.1,0,-3.9,0,-3.9c0,0,-0.1,-1.2,-1.2,-2c-1,-0.8,-22.3,-13.8,-22.7,-14c-0.4,-0.3,-2.1,-0.8,-1.9,-4.2" class="g8_1" />
<path d="M301.4,886.9c0.1,-1,1.2,-3.1,3.2,-3.9c1.9,-0.7,108.9,-39.9,108.9,-39.9c0,0,1.2,-0.3,2.3,0.2c1,0.5,1.6,1.4,1.6,1.4" class="g10_1" />
<path d="M425.3,864.4l15.8,9.6c0,0,2.2,1.5,2.2,4.7c0,3.3,0,60.8,0,60.8c0,0,0.3,1.7,-1.5,2.4c-1.8,0.7,-47.4,17.6,-47.4,17.6" class="g10_1" />
<path d="M390.3,954.3l0,-4.1L431.6,935" class="g10_1" />
<path d="M390.6,952.9l39.8,-14.6l0,-2.6" class="g10_1" />
<path d="M390.3,954.3l41.4,-15.2l0,-4.1" class="g8_1" />
<path d="M390.4,906.9l0,-4.1l41.3,-15.2" class="g10_1" />
<path d="M390.7,905.5l39.8,-14.6l0,-2.5" class="g10_1" />
<path d="M390.4,906.9l41.4,-15.2l0,-4.1" class="g8_1" />
<path d="M326.4,958.6l-23.8,8.8c0,0,-1.3,0.6,-1.3,2c0,1.3,0,2.3,0,2.3" class="g10_1" />
<path d="M302.5,971.7l0,-1.8c0,0,0.1,-0.3,0.1,-0.4" class="g8_1" />
<path d="M328.9,917.7L440.5,876.8" class="g8_1" />
<path d="M330.8,915.6L395,892.1" class="g8_1" />
<path d="M375.3,902l64.3,-23.6" class="g8_1" />
<path d="M330.1,893.1c2,1.2,2.4,4.2,0.8,6.7c-1.5,2.5,-4.3,3.6,-6.3,2.4" class="g10_1" />
<path d="M324.6,902.2c-2,-1.2,-2.4,-4.3,-0.9,-6.8c1.5,-2.5,4.4,-3.5,6.4,-2.3" class="g8_1" />
<path d="M330.3,893.3c0,0,0.8,0.3,-1.2,-0.9c-2,-1.2,-4.8,-0.2,-6.3,2.3c-1.5,2.5,-1.2,5.5,0.8,6.7c2,1.2,1,0.8,1,0.8" class="g10_1" />
<path d="M317.1,894.6c-0.7,0.2,-1.4,0.2,-2,-0.2" class="g10_1" />
<path d="M318.9,888.1c0.7,0.4,1.1,1,1.2,1.8" class="g10_1" />
<path d="M315.1,894.4c-1.4,-0.9,-1.7,-2.9,-0.6,-4.7c1.1,-1.7,3,-2.5,4.4,-1.6" class="g8_1" />
<path d="M311.8,892.3c-1.3,-0.8,-1.6,-2.9,-0.6,-4.7c1.1,-1.7,3.1,-2.5,4.5,-1.6" class="g8_1" />
<path d="M315.1,894.4l-3.3,-2.1" class="g10_1" />
<path d="M318.9,888.1L315.7,886" class="g10_1" />
<path d="M323.9,892.3c-2.4,-1.4,-5.7,-3.5,-5.7,-3.5" class="g10_1" />
<path d="M321.2,897.1c-2.4,-1.4,-5.7,-3.5,-5.7,-3.5" class="g10_1" />
<path d="M315.5,893.4c-1,-0.6,-1.2,-2.1,-0.4,-3.3c0.7,-1.2,2.1,-1.7,3.1,-1.1" class="g8_1" />
<path d="M316.8,894.3c-1,-0.6,-1.1,-2,-0.4,-3.2c0.7,-1.3,2.1,-1.8,3.1,-1.2" class="g8_1" />
<path d="M318.4,895c-1,-0.5,-1.2,-2,-0.4,-3.2c0.7,-1.2,2.1,-1.7,3,-1.2" class="g8_1" />
<path d="M321.4,896.8c-1,-0.5,-1.2,-2,-0.4,-3.2c0.7,-1.2,2.1,-1.7,3.1,-1.2" class="g8_1" />
<path d="M327.6,896l0.8,-0.4c0,0,0.1,1.1,0.2,1.4c0.1,0.2,0.5,0.4,0.7,0.3c0.2,-0.2,0.7,-0.5,0.7,-0.5l0.2,0.9c0,0,-0.6,0.3,-1,0.6c-0.2,0.1,-0.5,0.4,-0.6,0.8c-0.1,0.4,-0.1,1,-0.1,1c0,0.1,-1,0.4,-1,0.4c0,0,0.2,-0.6,0.2,-0.9c0,-0.2,-0.3,-0.6,-0.7,-0.5c-0.4,0,-1.1,0.2,-1.1,0.2l-0.1,-0.9l0.9,-0.2c0,0,1.1,-0.5,1,-1.2c-0.1,-0.7,-0.1,-1,-0.1,-1Z" class="g8_1" />
<path d="M315.4,895.1c-0.8,0.7,-2.5,1.7,-4.9,1.3" class="g10_1" />
<path d="M310.5,896.4l-7.6,2.8c0,0,-2.2,0.3,-2.9,0c-0.7,-0.3,-0.9,-0.6,-0.9,-0.6l0,-12.1c0,0,-0.2,-1.3,2.4,-1.5" class="g10_1" />
<path d="M299.1,886.5c0,0.4,1.4,0.8,2.4,0.7c1.1,0,1.9,-0.4,2.4,-0.5c0.5,-0.2,6.6,-2.5,6.6,-2.5c0,0,2.1,-2,4,-2.3c1.9,-0.2,1.9,-0.1,2.4,0c0.4,0,3.6,-0.5,3.6,-0.5l0,7.6" class="g10_1" />
<path d="M303,886.3c0.4,-0.5,1.6,-2,3,-2.5C307.4,883.4,414.6,844,414.6,844" class="g8_1" />
<path d="M310.5,895.5l0,-10" class="g8_1" />
<path d="M316.5,883.5l0,2" class="g8_1" />
<path d="M423.4,859c2,1.2,2.4,4.2,0.9,6.7c-1.5,2.5,-4.4,3.6,-6.4,2.4" class="g10_1" />
<path d="M417.9,868.1c-2,-1.2,-2.3,-4.2,-0.8,-6.7c1.5,-2.5,4.4,-3.6,6.3,-2.4" class="g8_1" />
<path d="M423.7,859.2c0,0,0.8,0.3,-1.2,-0.9c-2,-1.2,-4.8,-0.2,-6.4,2.3c-1.5,2.5,-1.1,5.5,0.9,6.7c2,1.3,0.9,0.8,0.9,0.8" class="g10_1" />
<path d="M410.5,860.6c-0.7,0.1,-1.4,0.1,-2,-0.3" class="g10_1" />
<path d="M412.3,854c0.6,0.4,1,1,1.2,1.8" class="g10_1" />
<path d="M408.5,860.3c-1.4,-0.8,-1.7,-2.9,-0.6,-4.7c1,-1.7,3,-2.4,4.4,-1.6" class="g8_1" />
<path d="M405.2,858.2c-1.4,-0.8,-1.7,-2.9,-0.6,-4.7c1.1,-1.7,3,-2.4,4.4,-1.6" class="g8_1" />
<path d="M408.5,860.3l-3.3,-2.1" class="g10_1" />
<path d="M412.3,854L409,851.9" class="g10_1" />
<path d="M417.3,858.2c-2.4,-1.4,-5.7,-3.5,-5.7,-3.5" class="g10_1" />
<path d="M414.5,863c-2.3,-1.4,-5.6,-3.5,-5.6,-3.5" class="g10_1" />
<path d="M408.8,859.3c-0.9,-0.6,-1.1,-2.1,-0.4,-3.3c0.8,-1.2,2.2,-1.7,3.1,-1.1" class="g8_1" />
<path d="M410.2,860.2c-1,-0.6,-1.2,-2,-0.5,-3.2c0.8,-1.2,2.2,-1.7,3.1,-1.2" class="g8_1" />
<path d="M411.7,861c-0.9,-0.6,-1.1,-2.1,-0.4,-3.3c0.8,-1.2,2.1,-1.7,3.1,-1.1" class="g8_1" />
<path d="M414.7,862.8c-0.9,-0.6,-1.1,-2.1,-0.4,-3.3c0.8,-1.2,2.1,-1.7,3.1,-1.1" class="g8_1" />
<path d="M420.9,861.9l0.8,-0.4c0,0,0.1,1.1,0.2,1.4c0.2,0.2,0.5,0.4,0.7,0.3c0.2,-0.2,0.8,-0.5,0.8,-0.5l0.2,0.9c0,0,-0.6,0.3,-1,0.6c-0.2,0.2,-0.5,0.4,-0.6,0.8c-0.2,0.5,-0.1,1,-0.1,1c0,0.1,-1,0.4,-1,0.4c0,0,0.1,-0.6,0.1,-0.9c0,-0.2,-0.2,-0.6,-0.6,-0.5c-0.4,0,-1.1,0.2,-1.1,0.2l-0.1,-0.9l0.9,-0.2c0,0,1,-0.5,0.9,-1.2c0,-0.6,-0.1,-1,-0.1,-1Z" class="g8_1" />
<path d="M413.2,861.7c-1,-0.6,-1.2,-2,-0.5,-3.3c0.8,-1.2,2.2,-1.7,3.1,-1.1" class="g8_1" />
<path d="M408.7,861c-0.4,0.4,-2.4,1.5,-4.7,1.1" class="g10_1" />
<path d="M404,862.1l-1.6,1.6l-0.6,0l0.1,-12.2l2,-1.8c0,0,2.3,-1.9,3.8,-2.2c1.4,-0.3,2.4,-0.1,2.4,-0.1l7.3,-2.7c0,0,1.6,-1.3,-0.6,-1.5" class="g10_1" />
<path d="M416.5,857.4c0.6,-0.1,2.1,-0.7,2.2,-1.2c0.1,-0.6,0,-12.4,0,-12.4" class="g10_1" />
<path d="M418.7,843.8c-0.1,-0.5,-1.1,-1.6,-3,-0.9" class="g10_1" />
<path d="M403.5,861.5l0,-11" class="g8_1" />
<path d="M331.1,891.6l78.7,-28.9" class="g8_1" />
<path d="M304.6,901.3l12.7,-4.7" class="g8_1" />
<path d="M329.3,890.8l41.4,-15.2" class="g8_1" />
<path d="M319.7,896c-1,-0.6,-1.2,-2.1,-0.4,-3.3c0.7,-1.2,2.1,-1.7,3.1,-1.1" class="g8_1" />
<path d="M323.5,938.1c-3.3,-2,-6.6,-4.7,-12.7,-4.4" class="g10_1" />
<path d="M300.7,969.9c-1,0.5,-1.5,0.6,-1.6,1.5c0,0.9,0,12.1,0,12.1c0,0,0.6,0.9,2.3,0.9c1.6,0,1.9,-0.4,2.5,-0.6c0.6,-0.3,6.3,-2.4,6.3,-2.4c0,0,3.2,0.5,5.4,-1.6" class="g10_1" />
<path d="M299.1,971.2c0,0.6,1.2,1.1,2.2,1.2c1,0,3.7,-1.2,3.7,-1.2" class="g10_1" />
<path d="M303.1,984.5c0.8,0.6,2,0.5,3,0.2c0.9,-0.3,11.8,-4.5,11.8,-4.5" class="g10_1" />
<path d="M329.9,978.2c1.9,1.3,2.3,4.3,0.8,6.8c-1.5,2.5,-4.4,3.5,-6.4,2.3" class="g10_1" />
<path d="M324.3,987.3c-1.9,-1.2,-2.3,-4.2,-0.8,-6.7c1.5,-2.5,4.4,-3.6,6.4,-2.4" class="g8_1" />
<path d="M330.1,978.4c0,0,0.8,0.3,-1.2,-0.9c-2,-1.2,-4.8,-0.1,-6.4,2.4c-1.5,2.5,-1.1,5.5,0.9,6.7c2,1.2,0.9,0.7,0.9,0.7" class="g10_1" />
<path d="M316.9,979.8c-0.7,0.2,-1.4,0.1,-2,-0.3" class="g10_1" />
<path d="M318.7,973.2c0.6,0.4,1,1.1,1.2,1.8" class="g10_1" />
<path d="M314.9,979.5c-1.4,-0.8,-1.7,-2.9,-0.6,-4.6c1,-1.8,3,-2.5,4.4,-1.7" class="g8_1" />
<path d="M311.6,977.4c-1.4,-0.8,-1.6,-2.9,-0.6,-4.6c1.1,-1.8,3.1,-2.5,4.4,-1.7" class="g8_1" />
<path d="M314.9,979.5l-3.3,-2.1" class="g10_1" />
<path d="M318.7,973.2l-3.3,-2.1" class="g10_1" />
<path d="M323.7,977.5C321.3,976,318,974,318,974" class="g10_1" />
<path d="M320.9,982.3c-2.3,-1.5,-5.6,-3.5,-5.6,-3.5" class="g10_1" />
<path d="M315.3,978.5c-1,-0.6,-1.2,-2,-0.5,-3.2c0.8,-1.2,2.2,-1.8,3.1,-1.2" class="g8_1" />
<path d="M316.6,979.5c-1,-0.6,-1.2,-2.1,-0.4,-3.3c0.7,-1.2,2.1,-1.7,3,-1.1" class="g8_1" />
<path d="M318.1,980.2c-0.9,-0.6,-1.1,-2.1,-0.4,-3.3c0.8,-1.2,2.1,-1.7,3.1,-1.1" class="g8_1" />
<path d="M321.2,982c-1,-0.6,-1.2,-2.1,-0.5,-3.3c0.8,-1.2,2.2,-1.7,3.1,-1.1" class="g8_1" />
<path d="M327.3,981.1l0.8,-0.3c0,0,0.1,1.1,0.2,1.3c0.2,0.3,0.6,0.5,0.8,0.3c0.1,-0.1,0.7,-0.4,0.7,-0.4l0.2,0.9c0,0,-0.6,0.2,-1,0.5c-0.2,0.2,-0.5,0.5,-0.6,0.8c-0.1,0.5,-0.1,1,-0.1,1.1c0,0.1,-1,0.3,-1,0.3c0,0,0.1,-0.5,0.1,-0.8c0,-0.3,-0.2,-0.7,-0.6,-0.6c-0.4,0.1,-1.1,0.2,-1.1,0.2l-0.1,-0.9l0.9,-0.1c0,0,1,-0.5,1,-1.2c-0.1,-0.7,-0.2,-1.1,-0.2,-1.1Z" class="g8_1" />
<path d="M319.6,980.9c-1,-0.5,-1.2,-2,-0.4,-3.2c0.7,-1.2,2.1,-1.7,3,-1.2" class="g8_1" />
<path fill-rule="evenodd" d="M309.7,973.4l15.6,9.9l1.8,0.9l3.2,-1.1l3.5,-1.3l-0.4,-3.5L328,975.1L321.1,971l-4.4,-2.5l-5,0.8Z" class="g9_1" />
<path d="M326.6,982.2L304,968.2c0,0,-1,-0.6,-1.6,-0.4" class="g8_1" />
<path d="M326.6,982.2c0.3,-0.2,0.3,0.3,0.4,-0.6c0,-0.9,0,-2.8,0,-2.8c0,0,0.2,-1,1.5,-1.9c1.4,-1,3,-2.1,3,-2.1l24.2,-9l0,-2.7" class="g10_1" />
<path d="M327.2,983.7c0.3,-0.1,1,-0.4,1,-1.3c0,-0.9,0,-2.9,0,-2.9c0,0,0.2,-0.9,1.6,-1.9c1.3,-0.9,3,-2.1,3,-2.1l24.1,-8.9l0,-3.8" class="g8_1" />
<path d="M302.6,969.5c0.2,-0.3,0.7,-0.1,0.9,0c0.1,0.1,22.9,14.4,22.9,14.4c0,0,0.6,0.4,1.6,0c1,-0.4,37.9,-14,37.9,-14" class="g10_1" />
<path d="M416.3,951.8c0.6,0.7,2.5,1.7,4.6,0.6c2.1,-1.2,2.7,-2.9,3.1,-3.5" class="g10_1" />
<path d="M420.7,950l0.1,0.9l0.8,-0.3l0,-0.9" class="g8_1" />
<path d="M112.2,871.6l0,-55.5L249.4,766.3" class="g10_1" />
<path d="M112.2,864.1L127,873" class="g10_1" />
<path d="M143.4,883.3l3.3,1.8" class="g10_1" />
<path d="M170.1,885l7.6,-2.7" class="g10_1" />
<path d="M200.5,873.8l1.2,-0.3c0,0,0.6,-0.3,0.7,-1.2c0,-1,-0.1,-2.2,-0.1,-2.2c0,0,-0.3,-0.5,-0.9,-0.9c-0.7,-0.3,-1.7,-0.9,-1.7,-0.9c0,0,-1.3,-0.4,-2.6,-0.1c-1.3,0.4,-9.8,3.5,-9.8,3.5c0,0,-0.9,-0.1,-1.1,-0.2" class="g10_1" />
<path d="M200.4,868.2l6.4,-2.3" class="g10_1" />
<path d="M172.7,844.6L239,886.1" class="g10_1" />
<path d="M178.2,835l66.3,41.5" class="g10_1" />
<path d="M155,884l0,-2" class="g10_1" />
<path d="M155.1,869.8l0,-24.4c0,-1.3,0.5,-2.4,1.9,-3c1.4,-0.6,44.1,-15.9,44.1,-15.9c0,0,1.1,-0.4,1.1,-1.3c0,-0.9,0,-1.8,0,-1.8c0,0,-0.2,-0.8,-0.7,-1.1c-0.4,-0.3,-2,-1.2,-2,-1.2c0,0,-1.8,-0.2,-3.1,0.1c-1.3,0.3,-9.7,3.5,-9.7,3.5c0,0,-1.1,0.2,-1.5,-0.1" class="g10_1" />
<path d="M200.4,821l29.3,-10.6c0,0,1.8,-0.6,2.8,0c1,0.6,3.7,2.2,3.7,2.2c0,0,1.2,0.7,2.8,0.1c1.6,-0.6,35.6,-12.9,35.6,-12.9c0,0,0.9,-0.5,0.9,-0.9c0,-0.4,0,-2.2,0,-2.2c0,0,-0.1,-0.7,-0.7,-1.1c-0.5,-0.3,-2,-1.1,-2,-1.1c0,0,-1.2,-0.3,-2.2,-0.1c-1,0.2,-2.2,0.7,-2.2,0.7l-8.1,2.9c0,0,-1.1,0.2,-1.6,0" class="g10_1" />
<path d="M242.7,769.2L277.3,791c0,0,1.7,0.8,1.8,3.5c0.2,2.7,0,40.7,0,40.7c0,0,0,4,-3.8,5.9" class="g10_1" />
<path d="M275.3,841.1l-1.8,0.7" class="g10_1" />
<path d="M220.5,860.9l9.8,-3.6c0,0,1.2,-0.4,2.1,0.1c0.8,0.5,3.7,2.3,3.7,2.3c0,0,1.3,0.7,2.9,0.1c1.7,-0.5,35.7,-13,35.7,-13c0,0,0.9,-0.4,0.9,-1c0,-0.6,0,-2,0,-2c0,0,-0.3,-0.8,-0.6,-1c-0.4,-0.3,-2.7,-1.5,-2.7,-1.5c0,0,-1.1,0.1,-2.4,0.4c-1.3,0.3,-9.5,3.4,-9.5,3.4c0,0,-1.1,0.1,-1.8,-0.2" class="g10_1" />
<path d="M217.9,859.1l12.4,-4.5c0,0,1.2,-0.5,2.1,0c0.8,0.5,3.7,2.4,3.7,2.4c0,0,1.3,0.6,2.9,0c1.7,-0.5,35.7,-13,35.7,-13c0,0,0.6,-0.1,0.6,-0.8" class="g8_1" />
<path d="M203.5,864.4c0.2,-0.3,-18,6.6,-18,6.6" class="g8_1" />
<path d="M195.2,873.1l6.4,-2.3" class="g8_1" />
<path d="M163.2,884.8l6.5,-2.4" class="g8_1" />
<path d="M276.4,793.9c-0.3,-0.2,-0.6,-0.3,-1.1,-0.1c-1.4,0.6,-1.8,0.7,-1.8,0.7" class="g10_1" />
<path d="M258.8,844.2l16.3,-5.9c0,0,1.7,-0.7,1.7,-2.6c0,-1.9,0,-40.6,0,-40.6c0,0,0,-0.8,-0.4,-1.2" class="g8_1" />
<path d="M185.4,823.8l44.7,-16.2c0,0,1.3,-0.4,2.1,0.1c0.9,0.5,3.8,2.4,3.8,2.4c0,0,1.2,0.6,2.9,0c1.6,-0.5,35.7,-13,35.7,-13c0,0,0.6,-0.1,0.6,-0.8" class="g8_1" />
<path d="M258.6,797.2l16,-5.8c0.7,-0.3,2.5,0,3.2,0.4" class="g8_1" />
<path d="M201,823.8l-44.3,16.1c0,0,-4.3,1.3,-4.2,7.3c0.1,6,0,22.7,0,22.7" class="g8_1" />
<path d="M152,884l0,-2" class="g10_1" />
<path d="M213.2,855.9l58.2,-21c0,0,1.7,-0.6,1.7,-2.5c0,-1.9,0,-31.9,0,-31.9" class="g8_1" />
<path d="M198,861.2l-26,9.7" class="g8_1" />
<path d="M167.2,839l0,2.4c0,0,0.8,3.1,2.5,4.1c1.8,1,3.2,1.5,5.1,0.7" class="g10_1" />
<path d="M168.5,838.5l0,3.7c0,0,-0.2,2.4,2.5,4.1" class="g8_1" />
<path d="M170.5,837.6l0,4.3c0,0,-0.2,2.3,2.5,4.1" class="g8_1" />
<path d="M172.4,844.3c-0.9,-0.6,-1.5,-3.5,-0.6,-5.5c1,-2.1,3.7,-3.6,3.7,-3.6" class="g8_1" />
<path d="M180,836l0,-3" class="g10_1" />
<path d="M152.3,840.2L115,817.6" class="g8_1" />
<path d="M149.6,840.1L112.3,817.5" class="g8_1" />
<path d="M239,886.1c7,4.4,17.3,12.3,17.7,24.8c0.5,12.6,-12.9,24.6,-30.6,32c-17.6,7.4,-40.3,12.7,-64.5,12.2c-24.2,-0.4,-43.4,-3.5,-64,-12.9" class="g10_1" />
<path d="M244.5,876.5c11.2,7.4,23.7,17.8,23.9,35.5c0.2,17.8,-18.7,32.5,-32,39.3c-13.3,6.9,-39.5,15.4,-75.9,15.8C124.1,967.6,97.6,954.9,97.6,954.9" class="g10_1" />
<path d="M243.1,947.9c-4.9,3.7,-10.7,7,-17,9.6c-17.6,7.5,-40.3,12.7,-64.5,12.2c-24.2,-0.4,-43.4,-3.5,-64,-12.8" class="g10_1" />
<path d="M267.6,919.3c0.5,2.3,0.8,4.8,0.8,7.4c0.2,17.7,-18.7,32.4,-32,39.3c-13.3,6.9,-39.5,15.3,-75.9,15.7C124.1,982.2,97.6,969.5,97.6,969.5" class="g10_1" />
<path d="M245.4,960.9c-5.2,4.5,-11.9,8.4,-19.3,11.5c-17.6,7.5,-40.3,12.7,-64.5,12.2c-24.2,-0.4,-43.4,-3.5,-64,-12.8" class="g10_1" />
<path d="M267.5,934c0.6,2.4,0.9,4.9,0.9,7.6c0.2,17.7,-18.7,32.4,-32,39.3c-13.3,6.8,-39.5,15.3,-75.9,15.7C124.1,997.1,97.6,984.4,97.6,984.4" class="g10_1" />
<path d="M239.1,930.4c-3.9,-2.6,-8.3,-4.9,-13,-6.9c-17.6,-7.4,-40.3,-12.6,-64.5,-12.2c-24.2,0.4,-43.4,3.5,-64,12.9" class="g10_1" />
<path d="M245.7,920.6c-3.2,-2.2,-6.4,-4,-9.3,-5.5c-13.3,-6.9,-39.5,-15.4,-75.9,-15.8c-36.4,-0.4,-62.9,12.2,-62.9,12.2" class="g10_1" />
<path d="M250.7,925.7c-5.5,-6.6,-14.3,-12.5,-24.6,-16.8c-17.6,-7.5,-40.3,-12.7,-64.5,-12.2c-24.2,0.4,-43.4,3.5,-64,12.8" class="g10_1" />
<path d="M246,906.2c-3.3,-2.3,-6.6,-4.2,-9.6,-5.8c-13.3,-6.8,-39.5,-15.3,-75.9,-15.7c-36.4,-0.5,-62.9,12.2,-62.9,12.2" class="g10_1" />
<path d="M255.2,918.1C251.3,908.5,240,899.9,226.1,894c-17.6,-7.4,-40.3,-12.7,-64.5,-12.2c-24.2,0.4,-43.4,3.5,-64,12.9" class="g10_1" />
<path d="M245.2,890.8c-3,-2.1,-6,-3.8,-8.8,-5.2c-13.3,-6.9,-39.5,-15.4,-75.9,-15.8C124.1,869.4,97.6,882,97.6,882" class="g10_1" />
<path d="M114.1,844.4c-0.8,0.3,-1.7,-0.6,-2.1,-1.9c-0.4,-1.3,-0.1,-2.6,0.6,-2.9c0.8,-0.3,1.7,0.6,2.1,1.9c0.4,1.3,0.1,2.6,-0.6,2.9Z" class="g8_1" />
<path d="M114.3,843.7c-0.6,0.3,-1.3,-0.4,-1.6,-1.4c-0.3,-1,-0.1,-2,0.5,-2.2c0.6,-0.2,1.3,0.4,1.6,1.4c0.3,1,0.1,2,-0.5,2.2Z" class="g8_1" />
<path d="M112.2,871.6l7.2,-2.7" class="g8_1" />
<path d="M249.5,766.5l0,7" class="g8_1" />
<path d="M231.5,856.5l0,-2" class="g8_1" />
<path d="M237.5,859.5l0,-2" class="g8_1" />
<path d="M231.5,809.5l0,-2" class="g8_1" />
<path d="M237.5,812.5l0,-2" class="g8_1" />
<path fill-rule="evenodd" d="M375.8,851.7l0,-6l-46.1,-22l-26.9,9.5l-21.9,8l0,6l47.6,1.6l0,-6l-12.7,-1.7l11.7,-4.6l33.6,20.4Z" class="g16_1" />
<path fill-rule="evenodd" d="M375.8,845.7l-46.1,-28l-26.9,9.4l-11.6,-7l-10.3,21.1l47.6,1.6L315.8,835l11.7,-4.5l33.6,20.4Z" class="g13_1" />
<path d="M321.9,838.7l5.6,-2.2l33.6,20.4l14.7,-5.2l0,-6l-46.1,-28l-26.9,9.4l-11.6,-7l-10.3,21.1l0,6l47.6,1.6l0,-6L315.8,835" class="g10_1" />
<path d="M280.9,841.2l47.6,1.6" class="g8_1" />
<path d="M315.8,835l11.7,-4.5l33.6,20.4l14.1,-5" class="g8_1" />
<path d="M327.5,830.5l0,6" class="g8_1" />
<path d="M361.5,850.5l0,6" class="g8_1" />
<path d="M754.6,928.1c-36.9,-17.9,-105.8,7.7,-128.1,5.3" class="g10_1" />
<path d="M604,938.4c-1.4,-0.6,-2.9,-1.2,-4.3,-1.9" class="g10_1" />
<path d="M749.1,936.3C715.7,920.8,648,944.6,626.3,943.1" class="g10_1" />
<path d="M755.9,944.4l-5.8,-5.3c0,0,-2.5,-2.7,0.5,-7.4" class="g10_1" />
<path d="M767.9,933l-10.2,-4.3c0,0,-3.9,-1.9,-7.1,3" class="g10_1" />
<path d="M756,939.6l0,7.6c0,0,-0.4,2.6,2.1,4.2c2.6,1.6,14.3,9.1,14.3,9.1l4.2,0.3" class="g10_1" />
<path d="M763.2,955c0.4,2.7,0.8,4.5,0.8,4.5c0,0,0.6,1.1,1.9,1.8c1.3,0.8,12.3,7.8,12.3,7.8c0,0,0.7,0.6,1.5,0.3c0.8,-0.3,6.5,-2.4,6.5,-2.4" class="g10_1" />
<path d="M756,939.6c-0.1,-0.7,0.8,-2.6,1.6,-3.1" class="g10_1" />
<path d="M757.6,936.5c2,-0.2,6.7,-2,8,-2.8c1.2,-0.7,2.7,-1,5.2,-0.9c2.5,0.1,4.9,0.7,6.4,1.2c1.5,0.6,1.6,0.8,2.9,1.6c1.3,0.7,12.5,7.8,12.5,7.8c0,0,0.7,0.6,0.7,1.1c0,0.5,0,3,0,3" class="g10_1" />
<path d="M771.9,951.2l-13.4,-8.7" class="g8_1" />
<path d="M786.8,942.5l-13.1,-8.2" class="g8_1" />
<path d="M772.2,959.3l0,-6.6c0,0,-0.2,-1,0.8,-2c1,-1,5,-4.6,5,-4.6c0,0,1.1,-0.7,1.7,-0.9c0.7,-0.3,6.4,-2.4,6.4,-2.4c0,0,1.1,-0.2,1.6,-0.1c0.4,0.1,4.1,0.6,4.1,0.6" class="g8_1" />
<path d="M777.3,961.3l1.1,7" class="g8_1" />
<path d="M778.2,948.7l9.3,5.8c0,0,1.8,2.5,0.2,5.8" class="g10_1" />
<path d="M787.7,960.3l-1.5,0.6l-9.3,-5.8" class="g10_1" />
<path d="M776.9,949.2l9.3,5.9c0,0,1.8,2.5,0.2,5.8" class="g8_1" />
<path d="M776.8,954.7l0,-5.5l1.4,-0.5" class="g8_1" />
<path d="M788.7,944.7l9.3,5.9c0,0,1.8,2.5,0.2,5.8" class="g10_1" />
<path d="M798.2,956.4l-1.5,0.6l-9.4,-5.8" class="g10_1" />
<path d="M787.4,945.3l9.3,5.8c0,0,1.8,2.6,0.2,5.8" class="g8_1" />
<path d="M787.3,950.8l0,-5.5l1.4,-0.6" class="g8_1" />
<path d="M791.4,954.1l-2.6,2.2" class="g10_1" />
<path d="M787.7,960.7l-0.1,1.2" class="g10_1" />
<path d="M781.4,963.8l12.5,7.8c0,0,2.3,0.9,3.2,-0.8c1,-1.7,0.3,-2.7,-0.6,-3.4c-0.8,-0.6,-10.2,-6.2,-10.2,-6.2" class="g10_1" />
<path d="M781.4,963.8c-0.7,-0.5,-0.6,-2.2,-0.1,-3c0.6,-0.8,1.9,-1.8,2.8,-1.2" class="g8_1" />
<path d="M783.9,955.3c0.5,-0.2,1.3,0.3,1.6,1.1c0.3,0.8,0.1,1.7,-0.4,1.9c-0.6,0.2,-1.3,-0.2,-1.7,-1.1c-0.3,-0.8,-0.1,-1.6,0.5,-1.9Z" class="g8_1" />
<path d="M794.4,951.4c0.6,-0.2,1.3,0.2,1.7,1c0.3,0.9,0.1,1.7,-0.5,1.9c-0.5,0.3,-1.3,-0.2,-1.6,-1c-0.3,-0.8,-0.1,-1.7,0.4,-1.9Z" class="g8_1" />
<path d="M483.9,882.9l0,-50.6L501,826" class="g10_1" />
<path d="M483.9,876l13.5,8.2" class="g10_1" />
<path d="M512.4,893.5l3,1.7" class="g10_1" />
<path d="M536.8,895.1l6.9,-2.4" class="g10_1" />
<path d="M564.5,884.9l1,-0.3c0,0,0.6,-0.2,0.7,-1.1c0,-0.8,-0.1,-2,-0.1,-2c0,0,-0.2,-0.4,-0.8,-0.7c-0.6,-0.4,-1.6,-0.9,-1.6,-0.9c0,0,-1.1,-0.4,-2.3,-0.1c-1.2,0.3,-8.9,3.2,-8.9,3.2c0,0,-0.9,-0.1,-1.1,-0.2" class="g10_1" />
<path d="M539.1,858.3l60.5,37.9" class="g10_1" />
<path d="M544.1,849.5l60.5,37.9" class="g10_1" />
<path d="M523,894l0,-2" class="g10_1" />
<path d="M523,881.3L523,859c0,-1.2,0.5,-2.1,1.8,-2.7c1.3,-0.6,40.3,-14.5,40.3,-14.5c0,0,1,-0.4,0.9,-1.2c0,-0.9,0,-1.6,0,-1.6c0,0,-0.2,-0.8,-0.6,-1.1c-0.4,-0.2,-1.9,-1,-1.9,-1c0,0,-1.5,-0.3,-2.7,0c-1.2,0.3,-8.9,3.2,-8.9,3.2c0,0,-1,0.2,-1.4,-0.1" class="g10_1" />
<path d="M582.6,830.2l8.6,-3.1c0,0,1.5,-0.5,2.5,0c0.9,0.5,3.4,2,3.4,2c0,0,1.1,0.7,2.5,0.1c1.5,-0.5,32.5,-11.8,32.5,-11.8c0,0,0.8,-0.4,0.8,-0.8c0,-0.4,0,-2,0,-2c0,0,-0.1,-0.7,-0.6,-1c-0.5,-0.3,-1.8,-1,-1.8,-1c0,0,-1.2,-0.3,-2.1,-0.1c-0.9,0.2,-2,0.6,-2,0.6l-7.4,2.6c0,0,-1,0.3,-1.4,0.1" class="g10_1" />
<path d="M630.8,807.1l3.7,2.3c0,0,1.6,0.7,1.7,3.2c0.1,2.4,0,37.1,0,37.1c0,0,0,3.6,-3.5,5.4" class="g10_1" />
<path d="M632.7,855.1l-1.6,0.7" class="g10_1" />
<path d="M582.7,873.2l8.9,-3.3c0,0,1.2,-0.4,2,0c0.7,0.5,3.4,2.2,3.4,2.2c0,0,1.1,0.6,2.6,0.1c1.5,-0.5,32.6,-11.9,32.6,-11.9c0,0,0.8,-0.3,0.8,-0.9c0,-0.6,0,-1.9,0,-1.9c0,0,-0.3,-0.7,-0.6,-0.9c-0.3,-0.2,-2.4,-1.3,-2.4,-1.3c0,0,-1,0.1,-2.2,0.3c-1.2,0.3,-8.7,3.1,-8.7,3.1c0,0,-0.8,0.2,-1.4,0" class="g10_1" />
<path d="M593.6,867.4c0.7,0.5,3.4,2.2,3.4,2.2c0,0,1.1,0.5,2.6,0c1.5,-0.5,32.6,-11.8,32.6,-11.8c0,0,0.5,-0.2,0.5,-0.8" class="g8_1" />
<path d="M559.6,884.3l5.9,-2.1" class="g8_1" />
<path d="M530.5,894.9l5.9,-2.1" class="g8_1" />
<path d="M633.7,812.1c-0.2,-0.2,-0.5,-0.3,-1,-0.1c-1.3,0.5,-1.6,0.6,-1.6,0.6" class="g10_1" />
<path d="M630.7,853.2l1.9,-0.7c0,0,1.5,-0.6,1.5,-2.3c0,-1.7,0,-37.1,0,-37.1c0,0,0,-0.7,-0.4,-1" class="g8_1" />
<path d="M593.4,824.6c0.8,0.5,3.5,2.2,3.5,2.2c0,0,1.1,0.5,2.6,0C601,826.3,632.1,815,632.1,815c0,0,0.5,-0.2,0.5,-0.8" class="g8_1" />
<path d="M630.7,810.2l1.4,-0.4c0.6,-0.3,2.2,-0.1,2.9,0.3" class="g8_1" />
<path d="M564.9,839.3L524.5,854c0,0,-3.9,1.2,-3.8,6.7c0.1,5.4,0,20.7,0,20.7" class="g8_1" />
<path d="M520,894l0,-2" class="g10_1" />
<path d="M630.7,847.1c0,-1.7,0,-29,0,-29" class="g8_1" />
<path d="M534.1,853.1l0,2.3c0,0,0.7,2.8,2.3,3.7c1.6,0.9,2.9,1.3,4.6,0.6" class="g10_1" />
<path d="M535.3,852.7l0,3.4c0,0,-0.2,2.1,2.3,3.7" class="g8_1" />
<path d="M537.1,851.9l0,3.9c0,0,-0.2,2.1,2.3,3.7" class="g8_1" />
<path d="M538.9,858c-0.8,-0.6,-1.5,-3.1,-0.6,-5.1c0.9,-1.9,3.4,-3.2,3.4,-3.2" class="g8_1" />
<path d="M546,850l0,-2" class="g10_1" />
<path d="M520.5,854.3l-34,-20.7" class="g8_1" />
<path d="M518.1,854.2L484,833.5" class="g8_1" />
<path d="M599.6,896.2c6.4,4,15.8,11.1,16.2,22.6c0.4,11.4,-11.9,22.4,-28,29.1c-16.1,6.8,-36.7,11.6,-58.8,11.2c-22.1,-0.4,-39.6,-3.3,-58.4,-11.8" class="g10_1" />
<path d="M604.6,887.4c10.3,6.7,21.6,16.2,21.8,32.4c0.2,16.2,-17,29.6,-29.1,35.8c-12.2,6.3,-36.1,14,-69.3,14.4c-33.2,0.4,-57.4,-11.1,-57.4,-11.1" class="g10_1" />
<path d="M603.3,952.5c-4.4,3.4,-9.7,6.3,-15.5,8.8c-16.1,6.8,-36.7,11.5,-58.8,11.1C506.9,972,489.4,969.2,470.6,960.7" class="g10_1" />
<path d="M625.7,926.5c0.4,2,0.7,4.3,0.7,6.6c0.2,16.2,-17,29.6,-29.1,35.9c-12.2,6.3,-36.1,14,-69.3,14.4c-33.2,0.4,-57.4,-11.2,-57.4,-11.2" class="g10_1" />
<path d="M605.4,964.4c-4.7,4,-10.8,7.6,-17.6,10.5C571.7,981.6,551.1,986.4,529,986c-22.1,-0.4,-39.6,-3.2,-58.4,-11.7" class="g10_1" />
<path d="M625.6,939.8c0.5,2.2,0.8,4.5,0.8,6.9c0.2,16.2,-17,29.6,-29.1,35.9c-12.2,6.2,-36.1,13.9,-69.3,14.3c-33.2,0.4,-57.4,-11.1,-57.4,-11.1" class="g10_1" />
<path d="M599.7,936.5c-3.6,-2.3,-7.6,-4.4,-11.9,-6.3C571.7,923.5,551.1,918.7,529,919.1c-22.1,0.4,-39.6,3.2,-58.4,11.8" class="g10_1" />
<path d="M605.7,927.6c-2.9,-2,-5.8,-3.7,-8.4,-5c-12.2,-6.3,-36.1,-14,-69.3,-14.4c-33.2,-0.4,-57.4,11.1,-57.4,11.1" class="g10_1" />
<path d="M610.3,932.2c-5,-6,-13.1,-11.3,-22.5,-15.3C571.7,910.1,551.1,905.4,529,905.8c-22.1,0.4,-39.6,3.2,-58.4,11.7" class="g10_1" />
<path d="M605.9,914.5c-2.9,-2.1,-5.9,-3.9,-8.6,-5.3c-12.2,-6.3,-36.1,-14,-69.3,-14.4C494.8,894.4,470.6,906,470.6,906" class="g10_1" />
<path d="M614.4,925.3c-3.6,-8.7,-13.9,-16.6,-26.6,-22C571.7,896.5,551.1,891.8,529,892.2c-22.1,0.4,-39.6,3.2,-58.4,11.7" class="g10_1" />
<path d="M605.3,900.4c-2.8,-1.9,-5.5,-3.5,-8,-4.8C585.1,889.4,561.2,881.7,528,881.3c-33.2,-0.4,-57.4,11.1,-57.4,11.1" class="g10_1" />
<path d="M485.7,858.1c-0.7,0.2,-1.6,-0.5,-2,-1.7c-0.3,-1.2,-0.1,-2.4,0.6,-2.7c0.7,-0.2,1.6,0.5,2,1.7c0.3,1.2,0.1,2.4,-0.6,2.7Z" class="g8_1" />
<path d="M485.8,857.5c-0.5,0.2,-1.1,-0.4,-1.4,-1.3c-0.3,-0.9,-0.1,-1.8,0.4,-2c0.6,-0.2,1.2,0.4,1.5,1.3c0.3,0.9,0.1,1.8,-0.5,2Z" class="g8_1" />
<path d="M483.9,882.9l6.6,-2.4" class="g8_1" />
<path d="M592.5,868.5l0,-1" class="g8_1" />
<path d="M598.5,871.5l0,-1" class="g8_1" />
<path d="M592.5,825.5l0,-1" class="g8_1" />
<path d="M597.5,828.5l0,-1" class="g8_1" />
<path d="M545.3,862.3c-0.7,0.3,-1.1,0.4,-1.1,0.4" class="g10_1" />
<path d="M550,846l0,7" class="g10_1" />
<path d="M544.2,862.7l-18,6.7c0,0,-1.4,0.6,-1.4,2.2c-0.1,1.5,0,9.7,0,9.7" class="g10_1" />
<path d="M546.5,863c-0.6,0.2,-1.1,0.4,-1.1,0.4" class="g8_1" />
<path d="M552.5,846.5l0,8" class="g8_1" />
<path d="M545.4,863.4l-18,6.7c0,0,-1.4,0.6,-1.4,2.2c-0.1,1.5,0,9,0,9" class="g8_1" />
<path d="M551.8,840.2c-0.9,0,-1.4,-0.1,-2.1,0.4c-0.7,0.4,-19.6,7.2,-19.6,7.2c0,0,-2.5,0.2,-3.1,0.2c-0.5,0,-1.1,-0.1,-1.4,-0.4c-0.2,-0.3,-0.8,-0.4,-0.8,-1.3c0,-1,0,-2,0,-2c0,0,-0.1,-1.2,-1.1,-1.9c-1,-0.7,-20.8,-12.8,-20.8,-12.8c0,0,-1.6,-1,-1.6,-3.2" class="g10_1" />
<path d="M501.3,826.4l-0.1,-1.2" class="g10_1" />
<path d="M525.9,847.1c0,-1,0,-3.5,0,-3.5c0,0,-0.1,-1.2,-1,-1.9c-1,-0.7,-20.4,-12.5,-20.8,-12.8c-0.4,-0.2,-1.8,-0.7,-1.7,-3.8" class="g8_1" />
<path d="M501.4,813.9c0.1,-0.9,1.1,-2.8,2.9,-3.5c1.8,-0.7,99.3,-36.4,99.3,-36.4c0,0,1.1,-0.3,2.1,0.1c1,0.5,1.5,1.3,1.5,1.3" class="g10_1" />
<path d="M630.8,860.8c0,0.7,0,1.1,0,1.1c0.1,-0.1,0.3,1.5,-1.4,2.2c-1.3,0.5,-28.1,10.4,-38.8,14.4" class="g10_1" />
<path d="M630.7,818c0,11.4,0,28.4,0.1,37.5" class="g10_1" />
<path d="M614.4,793.4l14.4,8.7c0,0,2.2,1.2,2,4.3c0,0.6,-0.1,2.9,-0.1,6.2" class="g10_1" />
<path d="M582.5,873.5l0,-1.9l37.7,-13.9" class="g10_1" />
<path d="M583.1,873.9l10.6,-3.8" class="g10_1" />
<path d="M620.5,858.5l0,-1" class="g8_1" />
<path d="M584.3,874.7l10.6,-3.9" class="g8_1" />
<path d="M582.6,832.1l0,-3.7l37.6,-13.9" class="g10_1" />
<path d="M582.8,830.9l10.3,-3.8" class="g10_1" />
<path d="M620.5,815.5l0,-1" class="g8_1" />
<path d="M582.6,832.1l11.7,-4.3" class="g8_1" />
<path d="M526.5,842L628.3,804.7" class="g8_1" />
<path d="M528.2,840.1l58.6,-21.5" class="g8_1" />
<path d="M568.8,827.7l58.6,-21.5" class="g8_1" />
<path d="M527.6,819.6c1.8,1.1,2.1,3.8,0.7,6.1c-1.3,2.3,-3.9,3.2,-5.8,2.1" class="g10_1" />
<path d="M522.5,827.8c-1.8,-1.1,-2.1,-3.8,-0.7,-6.1c1.4,-2.3,3.9,-3.3,5.8,-2.1" class="g8_1" />
<path d="M527.8,819.7c0,0,0.7,0.3,-1.1,-0.8c-1.8,-1.1,-4.4,-0.2,-5.8,2.1c-1.4,2.3,-1,5,0.8,6.1c1.8,1.1,0.8,0.7,0.8,0.7" class="g10_1" />
<path d="M515.7,821c-0.6,0.1,-1.3,0.1,-1.8,-0.3" class="g10_1" />
<path d="M517.4,815c0.6,0.3,0.9,0.9,1.1,1.6" class="g10_1" />
<path d="M513.9,820.7c-1.3,-0.7,-1.5,-2.7,-0.6,-4.2c1,-1.6,2.8,-2.3,4.1,-1.5" class="g8_1" />
<path d="M510.9,818.8c-1.2,-0.8,-1.5,-2.7,-0.5,-4.3c0.9,-1.5,2.8,-2.2,4,-1.4" class="g8_1" />
<path d="M513.9,820.7l-3,-1.9" class="g10_1" />
<path d="M517.4,815l-3,-1.9" class="g10_1" />
<path d="M521.9,818.8c-2.1,-1.3,-5.1,-3.2,-5.1,-3.2" class="g10_1" />
<path d="M519.4,823.2c-2.1,-1.3,-5.2,-3.2,-5.2,-3.2" class="g10_1" />
<path d="M514.2,819.8c-0.8,-0.5,-1,-1.9,-0.3,-3c0.6,-1.1,1.9,-1.5,2.8,-1" class="g8_1" />
<path d="M515.4,820.7c-0.8,-0.6,-1,-1.9,-0.3,-3c0.6,-1.1,1.9,-1.6,2.8,-1" class="g8_1" />
<path d="M516.9,821.3c-0.9,-0.5,-1.1,-1.9,-0.4,-3c0.7,-1.1,1.9,-1.5,2.8,-1" class="g8_1" />
<path d="M519.6,823c-0.9,-0.6,-1,-1.9,-0.4,-3c0.7,-1.1,2,-1.6,2.9,-1" class="g8_1" />
<path d="M525.3,822.2l0.7,-0.4c0,0,0.1,1,0.2,1.3c0.1,0.2,0.5,0.4,0.6,0.3c0.2,-0.2,0.7,-0.5,0.7,-0.5l0.2,0.9c0,0,-0.6,0.2,-0.9,0.5c-0.2,0.1,-0.5,0.4,-0.6,0.7c-0.1,0.4,-0.1,0.9,-0.1,1c0,0,-0.9,0.3,-0.9,0.3c0,0,0.1,-0.5,0.1,-0.8c0,-0.2,-0.2,-0.6,-0.5,-0.5c-0.4,0.1,-1,0.2,-1,0.2l-0.1,-0.8l0.8,-0.2c0,0,0.9,-0.5,0.9,-1.1c-0.1,-0.6,-0.1,-0.9,-0.1,-0.9Z" class="g8_1" />
<path d="M514.1,821.4c-0.7,0.6,-2.2,1.5,-4.4,1.1" class="g10_1" />
<path d="M509.7,822.5l-6.9,2.6c0,0,-2.1,0.3,-2.7,0c-0.6,-0.2,-0.8,-0.5,-0.8,-0.5l0,-11.1c0,0,-0.2,-1.2,2.2,-1.4" class="g10_1" />
<path d="M499.3,813.5c0,0.4,1.2,0.7,2.2,0.7c1,0,1.7,-0.4,2.2,-0.5c0.4,-0.2,6,-2.3,6,-2.3c0,0,1.9,-1.8,3.7,-2.1c1.7,-0.2,1.7,0,2.1,0c0.4,0.1,3.3,-0.4,3.3,-0.4l0,6.9" class="g10_1" />
<path d="M502.9,813.4c0.3,-0.6,1.4,-1.9,2.7,-2.3c1.3,-0.4,99,-36.3,99,-36.3" class="g8_1" />
<path d="M509.5,821.5l0,-9" class="g8_1" />
<path d="M515.5,810.5l0,2" class="g8_1" />
<path d="M612.7,788.5c1.8,1.1,2.2,3.8,0.8,6.1c-1.4,2.3,-4,3.2,-5.8,2.1" class="g10_1" />
<path d="M607.7,796.7c-1.8,-1.1,-2.2,-3.8,-0.8,-6.1c1.4,-2.3,4,-3.2,5.8,-2.1" class="g8_1" />
<path d="M612.9,788.6c0,0,0.8,0.3,-1.1,-0.8c-1.8,-1.1,-4.4,-0.2,-5.8,2.1c-1.3,2.3,-1,5,0.8,6.2c1.8,1.1,0.9,0.6,0.9,0.6" class="g10_1" />
<path d="M600.9,789.9c-0.7,0.1,-1.3,0.1,-1.9,-0.3" class="g10_1" />
<path d="M602.5,783.9c0.6,0.3,1,0.9,1.1,1.6" class="g10_1" />
<path d="M599,789.6c-1.2,-0.7,-1.5,-2.6,-0.5,-4.2c1,-1.6,2.8,-2.3,4,-1.5" class="g8_1" />
<path d="M596.1,787.7c-1.3,-0.7,-1.5,-2.7,-0.6,-4.2c1,-1.6,2.8,-2.3,4.1,-1.5" class="g8_1" />
<path d="M599,789.6l-2.9,-1.9" class="g10_1" />
<path d="M602.5,783.9L599.6,782" class="g10_1" />
<path d="M607.1,787.7c-2.2,-1.3,-5.2,-3.2,-5.2,-3.2" class="g10_1" />
<path d="M604.6,792.1c-2.2,-1.3,-5.2,-3.2,-5.2,-3.2" class="g10_1" />
<path d="M599.4,788.7c-0.9,-0.5,-1.1,-1.9,-0.4,-3c0.7,-1.1,2,-1.5,2.8,-1" class="g8_1" />
<path d="M600.6,789.6c-0.9,-0.6,-1.1,-1.9,-0.4,-3c0.7,-1.1,2,-1.6,2.8,-1" class="g8_1" />
<path d="M602,790.2c-0.8,-0.5,-1,-1.8,-0.3,-2.9c0.6,-1.2,1.9,-1.6,2.8,-1.1" class="g8_1" />
<path d="M604.8,791.9c-0.9,-0.6,-1.1,-1.9,-0.4,-3c0.7,-1.1,1.9,-1.6,2.8,-1" class="g8_1" />
<path d="M610.4,791.1l0.7,-0.4c0,0,0.1,1,0.2,1.3c0.2,0.2,0.5,0.4,0.7,0.3c0.2,-0.2,0.6,-0.5,0.6,-0.5l0.2,0.9c0,0,-0.5,0.2,-0.9,0.5c-0.1,0.1,-0.4,0.4,-0.5,0.7c-0.1,0.4,-0.1,0.9,-0.1,1c0,0.1,-0.9,0.3,-0.9,0.3c0,0,0.1,-0.5,0.1,-0.8c0,-0.2,-0.2,-0.6,-0.6,-0.5c-0.3,0.1,-1,0.2,-1,0.2l-0.1,-0.8l0.8,-0.2c0,0,1,-0.4,0.9,-1.1c0,-0.6,-0.1,-0.9,-0.1,-0.9Z" class="g8_1" />
<path d="M603.3,790.9c-0.9,-0.5,-1,-1.9,-0.3,-3c0.6,-1.1,1.9,-1.5,2.8,-1" class="g8_1" />
<path d="M599.3,790.2c-0.4,0.4,-2.2,1.5,-4.3,1.1" class="g10_1" />
<path d="M595,791.3l-1.5,1.5L593,792.7l0.1,-11.1l1.8,-1.6c0,0,2.1,-1.8,3.4,-2.1c1.4,-0.2,2.2,0,2.2,0l6.7,-2.5c0,0,1.5,-1.2,-0.5,-1.4" class="g10_1" />
<path d="M606.3,787c0.6,-0.1,2,-0.6,2.1,-1.1c0.1,-0.5,0,-11.3,0,-11.3" class="g10_1" />
<path d="M608.4,774.6c-0.1,-0.5,-1,-1.5,-2.7,-0.8" class="g10_1" />
<path d="M594.5,790.5l0,-10" class="g8_1" />
<path d="M528.5,818.2l71.8,-26.4" class="g8_1" />
<path d="M504.3,827.1l11.6,-4.3" class="g8_1" />
<path d="M526.9,817.5l37.7,-13.9" class="g8_1" />
<path d="M518.1,822.2c-0.9,-0.6,-1.1,-1.9,-0.4,-3c0.7,-1.1,1.9,-1.6,2.8,-1" class="g8_1" />
<path d="M499.3,894.9c0,0.4,0,-0.4,0,2.4" class="g10_1" />
<path d="M570,886.1c5.1,-1.9,8.5,-3.1,8.5,-3.1" class="g10_1" />
<path d="M544.1,895.6c1.9,-0.7,3.9,-1.4,5.9,-2.1" class="g10_1" />
<path d="M606.2,873.1c0.6,0.6,2.3,1.5,4.2,0.5c1.9,-1,2.5,-2.6,2.8,-3.2" class="g10_1" />
<path d="M610.3,871.5l0,0.8L611,872l0,-0.8" class="g8_1" />
<path d="M248.3,509.8L191.1,478.5" class="g8_1" />
<path d="M252.6,496.9L207.1,472" class="g8_1" />
<path fill-rule="evenodd" d="M213.8,474.7c1,0,1.8,0.4,1.8,1c0,0.5,-0.8,1,-1.8,1c-1,0,-1.8,-0.5,-1.8,-1c0,-0.6,0.8,-1,1.8,-1Z" class="g15_1" />
<path fill-rule="evenodd" d="M197.9,481.2c1,0,1.9,0.5,1.9,1c0,0.6,-0.9,1,-1.9,1c-1,0,-1.8,-0.4,-1.8,-1c0,-0.5,0.8,-1,1.8,-1Z" class="g15_1" />
<path d="M197.7,482.4l-15.3,6.1" class="g8_1" />
<path d="M228.8,469.6l-15.3,6.1" class="g8_1" />
<path d="M408.5,173.5l118,0" class="g8_1" />
<path d="M603.5,662.5l128,0" class="g8_1" />
<path fill-rule="evenodd" d="M548.1,356l36.4,-0.6l0,2.4l-1.8,16l-1.2,0.5l-9.8,-4.5l-7.5,3.5l-12.3,-5.5l0,-3l4.6,-2.1L548.1,359Z" class="g16_1" />
<path fill-rule="evenodd" d="M548.1,356l11.4,5.3l-7.6,3.5l12.2,5.5l7.6,-3.3l10.9,4.9l1.9,-16.5Z" class="g13_1" />
<path d="M548.1,356l36.4,-0.6l0,3l-1.8,15.4l-1.2,0.5l-9.8,-4.5l-7.5,3.5l-12.3,-5.5l0,-3l7.6,-3.5" class="g10_1" />
<path d="M548.1,356l0,3l8.3,3.7" class="g10_1" />
<path d="M548.4,356.1l11.1,5.2" class="g8_1" />
<path d="M582.8,372.1l-11.2,-5.2l-7.5,3.4l-12.2,-5.5" class="g8_1" />
<path d="M564.5,370.5l0,3" class="g8_1" />
<path d="M571.5,366.5l0,3" class="g8_1" />
<path d="M582.5,373.5l0,-1Z" class="g8_1" />
<path d="M584.5,355.4l-2,16.6" class="g8_1" />
<path d="M562.9,339.4l55.8,25.3l0,25.7" class="g10_1" />
<path d="M598,372.3l20.7,9.4" class="g10_1" />
<path d="M592,369.6l-7.4,-3.5" class="g10_1" />
<path d="M610.2,361c0.1,-0.1,-43.8,20.6,-43.8,20.6" class="g10_1" />
<path d="M616.1,363.8c0.1,-0.2,-43.9,20.5,-43.9,20.5" class="g10_1" />
<path d="M572,343l0,11" class="g10_1" />
<path d="M562.5,339.5l0,15" class="g8_1" />
<path d="M589.6,377l28.9,13.2" class="g8_1" />
<path d="M549,419.5l24.6,-11.7c0,0,1.2,-0.5,1.2,-2.2c0,-1.6,0,-1.6,0,-1.6l0,-16.4c0,0,0,-2.2,-2.6,-3.3C569.7,383.1,555,376.4,555,376.4c0,0,-0.8,-0.3,-1.2,-0.1c-0.4,0.2,-1,0.6,-1,0.6c0,0,-0.2,0.1,-0.2,0.4c0,0.2,0,0.8,0,0.8" class="g10_1" />
<path d="M556.7,379.7c-0.2,0.1,-0.5,0,-0.7,-0.1c-0.1,0,-18.4,-8.4,-18.4,-8.4" class="g10_1" />
<path d="M538.8,371.8l1,-0.5c0,0,0.3,-0.2,0.3,-0.5c0,-0.3,0,-1,0,-1c0,0,-0.1,-0.3,-0.4,-0.5c-0.2,-0.1,-14.4,-6.5,-14.4,-6.5c0,0,-0.8,-0.2,-1.2,0c-0.5,0.2,-1.3,0.4,-1.3,0.7c-0.1,0.3,0,1,0,1" class="g10_1" />
<path d="M526.9,366.1c-0.3,0.1,-0.8,-0.1,-0.8,-0.1l-6.4,-2.9c0,0,-0.7,-0.2,-1.3,0.1c-0.6,0.3,-20.4,9.1,-20.4,9.1" class="g10_1" />
<path d="M523,363.3c0,0.1,0,0.6,0.3,0.8c0.4,0.1,3.8,1.6,3.8,1.6" class="g8_1" />
<path d="M537.8,370.9l1.8,-0.8c0,0,0.5,-0.3,0.1,-0.8" class="g8_1" />
<path d="M552.8,376.9c-0.1,0.2,0,0.6,0.3,0.8c0.4,0.2,3.8,1.7,3.8,1.7" class="g8_1" />
<path d="M573.8,387.3l-23.1,9.3" class="g8_1" />
<path d="M572.2,385.9L549,395.3" class="g8_1" />
<path d="M490.7,369c-0.8,-0.3,-1.6,-0.1,-2.2,0.4c-0.5,0.5,-0.7,1.2,-0.8,1.9c0,0.7,0.2,26.8,0.2,26.8c0,0,0,1.5,0.7,2.3c0.7,0.9,1.8,1.5,1.8,1.5L546,427.5c0,0,1.5,0.5,2.3,-0.1c0.9,-0.7,0.8,-1.5,0.8,-1.7c-0.1,-0.3,0,-26.9,0,-26.9c0,0,0.1,-2.9,-3.1,-4.4C542.8,392.9,490.7,369,490.7,369Z" class="g10_1" />
<path d="M491,371.4c-0.7,-0.3,-1.4,-0.2,-1.9,0.3c-0.5,0.5,-0.7,1.1,-0.7,1.7c-0.1,0.7,0.1,24.9,0.1,24.9c0,0,0,1.3,0.6,2.1c0.6,0.8,1.6,1.3,1.6,1.3l53.7,24.7c0,0,1.4,0.4,2.1,-0.1c0.8,-0.6,0.7,-1.4,0.7,-1.6c0,-0.2,0,-24.9,0,-24.9c0,0,0.1,-2.6,-2.8,-3.9C541.5,394.5,491,371.4,491,371.4Z" class="g8_1" />
<path d="M493.2,377.5c0.4,-0.2,0.7,-0.1,1,0.1c0.3,0.2,47.3,21.8,47.3,21.8c0,0,1,0.6,1,1.3c0.1,0.8,0.1,19,0.1,19" class="g10_1" />
<path d="M554.6,405.7c0.3,0.1,0.4,0.7,0.1,1.3c-0.2,0.5,-0.8,0.8,-1.1,0.6" class="g8_1" />
<path d="M553.6,407.6c-0.4,-0.2,-0.5,-0.7,-0.2,-1.3c0.3,-0.5,0.8,-0.8,1.2,-0.6" class="g8_1" />
<path d="M554.3,405.6c0.4,0.2,0.4,0.8,0.2,1.3c-0.3,0.5,-0.8,0.7,-1.1,0.6" class="g8_1" />
<path d="M554.2,405.8c0.2,0.2,0.3,0.6,0.1,1c-0.2,0.4,-0.6,0.6,-0.8,0.4" class="g8_1" />
<path d="M553.8,405.9c0.1,-0.1,0.2,-0.1,0.4,-0.1" class="g8_1" />
<path d="M553.5,407.2c-0.1,0,-0.2,-0.1,-0.2,-0.3" class="g8_1" />
<path d="M554,406.1c0.2,0.1,0.2,0.3,0.1,0.6c-0.1,0.2,-0.3,0.4,-0.5,0.3" class="g8_1" />
<path d="M553.6,407c-0.2,-0.1,-0.2,-0.4,-0.1,-0.6c0.1,-0.2,0.4,-0.4,0.5,-0.3" class="g8_1" />
<path d="M531.5,403.1l0,-1.7l-3.2,-1.6" class="g10_1" />
<path d="M528.3,399.8l0,1.9l3.2,1.4" class="g8_1" />
<path d="M528.8,400.1l0,1.2l2.7,1.3" class="g8_1" />
<path d="M529.3,400.3l0,0.9l2.2,1" class="g8_1" />
<path d="M528.3,401.7l0.5,-0.4l0.5,-0.1" class="g8_1" />
<path d="M531.8,409.1l0,-1.8L528,405.5" class="g10_1" />
<path d="M528,405.5l0,1.8l3.8,1.8" class="g8_1" />
<path d="M528.5,405.7l0,1.3l3.3,1.5" class="g8_1" />
<path d="M529,405.9l0,1l2.8,1.2" class="g8_1" />
<path d="M528,407.3l0.6,-0.3l0.4,-0.1" class="g8_1" />
<path d="M535.7,408.7l0,-3.2l-1.3,-0.7c0,0,-0.8,-0.4,-1.1,0.2" class="g10_1" />
<path d="M533.9,405c-0.2,0.2,-0.4,0.7,-0.4,1.2c0.1,0.4,0.5,1.1,0.9,1.4c0.5,0.3,1,0.5,1,0.5" class="g8_1" />
<path d="M533.3,405c-0.3,0.3,-0.3,1,-0.2,1.6c0.1,0.5,0.9,1.3,1.3,1.6c0.5,0.3,1,0.5,1,0.5" class="g8_1" />
<path d="M534.4,404.8c-0.3,0.2,-0.5,0.8,-0.4,1.2c0,0.4,0.4,1.2,0.9,1.4c0.4,0.3,0.9,0.5,0.9,0.5" class="g8_1" />
<path d="M520.4,398.1l0,-1.8l-3.3,-1.6" class="g10_1" />
<path d="M517.1,394.7l0,1.9l3.3,1.5" class="g8_1" />
<path d="M517.7,395l0,1.2l2.7,1.3" class="g8_1" />
<path d="M518.1,395.2l0,0.9l2.3,1" class="g8_1" />
<path d="M517.1,396.6l0.6,-0.4l0.4,-0.1" class="g8_1" />
<path d="M520.7,404l0,-1.8l-3.8,-1.8" class="g10_1" />
<path d="M516.9,400.4l0,1.8l3.8,1.8" class="g8_1" />
<path d="M517.4,400.6l0,1.3l3.3,1.5" class="g8_1" />
<path d="M517.9,400.8l0,1l2.8,1.2" class="g8_1" />
<path d="M516.9,402.2l0.5,-0.3l0.5,-0.1" class="g8_1" />
<path d="M524.5,403.6l0,-3.2l-1.2,-0.7c0,0,-0.9,-0.4,-1.1,0.2" class="g10_1" />
<path d="M522.8,399.9c-0.3,0.2,-0.5,0.7,-0.4,1.2c0.1,0.4,0.4,1.2,0.9,1.4c0.5,0.3,1,0.5,1,0.5" class="g8_1" />
<path d="M522.2,399.9c-0.3,0.3,-0.4,1,-0.3,1.6c0.2,0.5,0.9,1.3,1.4,1.6c0.5,0.3,1,0.5,1,0.5" class="g8_1" />
<path d="M523.2,399.7c-0.2,0.2,-0.4,0.8,-0.4,1.2c0.1,0.4,0.5,1.2,0.9,1.4c0.5,0.3,1,0.5,1,0.5" class="g8_1" />
<path d="M542.6,419.2c-0.9,0.1,-1.1,0.1,-2.7,-0.5c-1.6,-0.5,-45,-20.7,-45,-20.7c0,0,-1.3,-0.6,-1.4,-1.8c0,-1.1,0,-18.1,0,-18.1" class="g8_1" />
<path d="M508.6,397.8c0.2,-0.1,0.1,-0.4,0.1,-0.6c0,-0.2,0,-1.6,0,-1.6c0,0,0,-0.7,-0.6,-0.9c-0.5,-0.2,-3.9,-1.8,-3.9,-1.8c0,0,-0.3,-0.1,-0.4,0.1" class="g10_1" />
<path d="M503.7,393.2c0,0.5,0,2.1,0,2.1c0,0,0,0.4,0.5,0.6c0.4,0.3,3.9,1.9,3.9,1.9c0,0,0.3,0.1,0.5,0" class="g8_1" />
<path d="M504.1,393c0,0.5,0,2.1,0,2.1c0,0,0,0.4,0.5,0.6c0.4,0.2,3.8,1.8,3.8,1.8c0,0,0.4,0.1,0.6,0.1" class="g8_1" />
<path d="M504.6,393.1c0,0.6,0,1.7,0,1.7c0,0,0,0.4,0.4,0.7c0.4,0.2,2.9,1.3,3.7,1.7" class="g8_1" />
<path d="M505.3,393.9l0,0.8l3.1,1.4" class="g10_1" />
<path d="M505.5,394c0.4,0.3,2.9,1.4,2.9,1.4" class="g8_1" />
<path d="M508.6,393.9c0.2,-0.1,0.1,-0.4,0.1,-0.6c0,-0.2,0,-1.6,0,-1.6c0,0,0,-0.7,-0.6,-0.9c-0.5,-0.2,-3.9,-1.8,-3.9,-1.8c0,0,-0.3,-0.1,-0.4,0.1" class="g10_1" />
<path d="M503.7,389.3c0,0.5,0,2.1,0,2.1c0,0,0,0.4,0.5,0.6c0.4,0.3,3.9,1.8,3.9,1.8c0,0,0.3,0.1,0.5,0.1" class="g8_1" />
<path d="M504.1,389.1c0,0.5,0,2,0,2c0,0,0,0.5,0.5,0.7c0.4,0.2,3.8,1.8,3.8,1.8c0,0,0.4,0.1,0.6,0.1" class="g8_1" />
<path d="M504.6,389.2c0,0.6,0,1.7,0,1.7c0,0,0,0.4,0.4,0.7c0.4,0.2,2.9,1.3,3.7,1.7" class="g8_1" />
<path d="M505.3,390l0,0.8l3.1,1.4" class="g10_1" />
<path d="M505.5,390.1c0.4,0.2,2.9,1.4,2.9,1.4" class="g8_1" />
<path d="M540.9,400.7l0.1,18" class="g8_1" />
<path d="M494.2,378.9l0.1,17.9" class="g8_1" />
<path d="M766.2,354.3l48.9,22l-0.3,167.1" class="g10_1" />
<path d="M788,364l0,38" class="g10_1" />
<path d="M788,452l0,47" class="g10_1" />
<path d="M730.5,526.2l84.4,-39.3" class="g10_1" />
<path d="M730.6,539.4l84.3,-39.3" class="g10_1" />
<path d="M790,511.7l24.8,11.4" class="g10_1" />
<path d="M814.8,543.4L767.9,522" class="g8_1" />
<path d="M766.5,509.5l0,-22" class="g8_1" />
<path fill-rule="evenodd" d="M765.8,383.8l-5,-2.3l0,34.4l-18.5,8.5l0,36.8l5.4,2.4l12.5,-5.7l0,27.9l5.3,1.9Z" class="g16_1" />
<path fill-rule="evenodd" d="M765.8,383.8l-0.1,34.7l-18,8.5l0,36.6l17.8,-8.1l0,32.2l45.2,-71.1Z" class="g13_1" />
<path d="M765.5,455.5l-17.8,8.1l-5.4,-2.4l0,-36.8l18.5,-8.5l0,-34.4l5,2.3l44.9,32.8l-45.2,71.1l-5.3,-1.9l0,-27.9" class="g10_1" />
<path d="M765.5,455.5l0,32" class="g8_1" />
<path d="M765.5,418.5l0,-35" class="g8_1" />
<path d="M760.8,415.9l4.9,2.6l-18,8.5l-5.4,-2.6" class="g8_1" />
<path d="M747.5,426.5l0,37" class="g8_1" />
<path d="M766.5,354.5l0,28" class="g8_1" />
<path d="M630.2,424.8l50.3,-22.7c0,0,1.6,-0.9,3.7,0c2.1,1,34.6,15.7,34.6,15.7c0,0,4.6,1.8,4.6,7.3c0,5.6,0,20.2,0,20.2c0,0,0.3,0.9,0.8,0.7" class="g10_1" />
<path d="M723.4,429.3c0.3,-0.6,0.6,-1,1.1,-1.3c0.6,-0.3,2.3,-0.9,2.3,-0.9c0,0,0.7,-0.3,1.3,0c0.5,0.2,2.2,0.8,2.4,1.1c0.2,0.4,0,2.1,0,2.1l0.2,43.1c0,0,-0.1,1.6,-1.5,2.2c-1.4,0.7,-4.6,2.3,-4.6,2.3c0,0,-1.4,0.5,-1.2,1.8c0.1,1.4,0,54.9,0,54.9c0,0,0,0.3,0.7,0.5" class="g10_1" />
<path d="M723.4,518.6c0.3,-0.7,0.6,-1,1.1,-1.3c0.6,-0.3,2.3,-1,2.3,-1c0,0,0.7,-0.3,1.3,0c0.5,0.3,1.4,0.7,2,1.1c0.6,0.3,0.4,2.2,0.4,2.2l0.2,53.9c0,0,-0.1,1.6,-1.5,2.2c-1.4,0.7,-59.1,28.3,-59.1,28.3" class="g10_1" />
<path d="M724.1,535.1c0.7,0.1,1.1,-0.7,1.1,-1.5c0.1,-0.8,0,-10.9,0,-10.9l0.5,-2.7c0,0,0.5,-1,1.3,-1.4c0.8,-0.4,2.1,-1,2.1,-1" class="g8_1" />
<path d="M724.1,445.6c0.7,0.2,1.1,-0.6,1.1,-1.5c0.1,-0.8,0,-10.8,0,-10.8l0.5,-2.7c0,0,0.5,-1,1.3,-1.4c0.8,-0.5,2.1,-1.1,2.1,-1.1" class="g8_1" />
<path d="M670.1,618.3c0,3.1,-1.5,4.2,-2.7,4.8c-1.2,0.7,-3.5,0.3,-5,-0.3C661,622.2,611.5,599.1,611.5,599.1c0,0,-5.2,-2.8,-5.2,-8.4c0,-5.6,0.1,-167.4,0,-168.5c0,-1.1,0.4,-4,2.6,-5.2c2.2,-1.3,3.7,-0.3,4.4,0c0.7,0.2,48.8,22.3,50.8,23.2c1.9,1,5.7,4.4,5.7,9.3c0,4.9,0.3,168.8,0.3,168.8Z" class="g10_1" />
<path d="M668,617.3c0,3,-1.4,4.1,-2.5,4.7c-1.2,0.7,-3.5,0.3,-4.9,-0.3c-1.4,-0.6,-49.3,-22.9,-49.3,-22.9c0,0,-5,-2.7,-5,-8.2c0,-5.4,0.1,-165,0,-166c0,-1,0.4,-3.8,2.5,-5c2.2,-1.3,3.6,-0.3,4.3,0c0.6,0.2,47.2,21.6,49.1,22.5c1.9,0.9,5.5,4.2,5.5,9c0,4.7,0.3,166.2,0.3,166.2Z" class="g8_1" />
<path d="M670.1,443.5l49.1,-21.7" class="g8_1" />
<path d="M673,444.5l49,-21.7" class="g8_1" />
<path d="M655.2,603.3c0.8,-0.7,0.9,-1.5,0.9,-3.3c0.1,-1.7,0,-141.1,0,-141.1c0,0,-0.1,-3.7,-2.8,-5.1c-2.7,-1.5,-33.8,-15.5,-34.2,-15.7c-0.4,-0.2,-0.9,-0.1,-1.4,0.2" class="g10_1" />
<path d="M619.1,438.1c-1.1,1.2,-1.8,3.9,-1.7,6.8c0.1,2.8,0,135.6,0,135.6c0,0,0,4.2,2.5,5.7c2.6,1.5,35.9,16.3,35.9,16.3" class="g10_1" />
<path d="M639.1,577l0,-3.7c0,0,0.1,-3.3,-1.7,-4.7c-1.9,-1.5,-2.7,-1.3,-2.9,-1.2" class="g10_1" />
<path d="M639.1,577l-6.2,-3l0,-3.5c0,0,-0.2,-2.5,1.6,-3.1" class="g8_1" />
<path d="M639.1,575.6l-4.9,-2.4l0,-2.6c0,0,-0.2,-2.5,1.6,-3.1" class="g8_1" />
<path d="M639.1,574.9l-4.1,-2l0,-2.6c0,0,-0.3,-2,1.2,-2.5" class="g8_1" />
<path d="M632.9,574l1.4,-0.8l0.7,-0.3l3.9,-1.8" class="g8_1" />
<path d="M632.2,562.2l0,-11.2l-3.5,-1.7" class="g10_1" />
<path d="M632.2,562.2l-3.5,-1.5l0,-11.4" class="g8_1" />
<path d="M632.2,560.7l-2.1,-0.9L630,550" class="g8_1" />
<path d="M632.2,559.9l-1.4,-0.6l0,-9" class="g8_1" />
<path d="M628.7,560.7l1.4,-0.9l0.8,-0.4l1.1,-0.6" class="g8_1" />
<path d="M643.1,566.6l0,-9.9L639.5,555" class="g10_1" />
<path d="M643.1,566.6l-3.5,-1.5L639.5,555" class="g8_1" />
<path d="M643,565.2l-2.1,-1l0,-8.6" class="g8_1" />
<path d="M643.1,564.4l-1.4,-0.6l0,-7.8" class="g8_1" />
<path d="M639.6,565.1l1.3,-0.9l0.8,-0.4l1.2,-0.6" class="g8_1" />
<path d="M639.1,544l0,-3.7c0,0,0.1,-3.3,-1.7,-4.8c-1.9,-1.4,-2.7,-1.2,-2.9,-1.1" class="g10_1" />
<path d="M639.1,544l-6.2,-3l0,-3.5c0,0,-0.2,-2.5,1.6,-3.1" class="g8_1" />
<path d="M639.1,542.5l-4.9,-2.3l0,-2.6c0,0,-0.2,-2.5,1.6,-3.1" class="g8_1" />
<path d="M639.1,541.8L635,539.9l0,-2.6c0,0,-0.3,-2,1.2,-2.5" class="g8_1" />
<path d="M632.9,541l1.4,-0.8l0.7,-0.3l3.9,-1.8" class="g8_1" />
<path d="M632.2,529.1l0,-11.1l-3.5,-1.7" class="g10_1" />
<path d="M632.2,529.1l-3.5,-1.5l0,-11.3" class="g8_1" />
<path d="M632.2,527.7l-2.1,-0.9L630,516.9" class="g8_1" />
<path d="M632.2,526.9l-1.4,-0.6l0,-9" class="g8_1" />
<path d="M628.7,527.6l1.4,-0.8l0.8,-0.5l1.1,-0.5" class="g8_1" />
<path d="M643.1,533.6l0,-9.9l-3.6,-1.8" class="g10_1" />
<path d="M643.1,533.6l-3.5,-1.5l-0.1,-10.2" class="g8_1" />
<path d="M643,532.1l-2.1,-0.9l0,-8.6" class="g8_1" />
<path d="M643.1,531.4l-1.4,-0.6l0,-7.8" class="g8_1" />
<path d="M639.6,532.1l1.3,-0.9l0.8,-0.4l1.2,-0.6" class="g8_1" />
<path d="M637.3,481.1c0.3,-0.1,0.3,-0.3,1.2,0.1c0.9,0.4,3.1,1.4,3.1,1.4c0,0,0.8,0.9,0.9,1.5c0.1,0.5,0.1,12.3,0.1,12.3c0,0,-0.3,0.8,-1,0.8" class="g10_1" />
<path d="M641.4,497.2c-0.6,-0.2,-3.5,-1.6,-3.8,-1.8c-0.3,-0.2,-0.4,-0.6,-0.4,-1.2c0,-0.7,0,-12.6,0,-12.6" class="g8_1" />
<path d="M640.9,482.6l0,10.3l1.4,0.9" class="g10_1" />
<path d="M641.5,493.5l0,-11" class="g8_1" />
<path d="M642.6,496.2c-0.7,-0.2,-3,-1.4,-3.3,-1.6c-0.3,-0.3,-0.4,-0.6,-0.4,-1.3c0,-0.6,0,-11.9,0,-11.9" class="g8_1" />
<path d="M629.7,477.6c0.4,0,0.4,-0.2,1.2,0.2c0.9,0.4,3.1,1.4,3.1,1.4c0,0,0.9,0.9,0.9,1.5c0.1,0.5,0.1,12.2,0.1,12.2c0,0,-0.2,0.9,-1,0.9" class="g10_1" />
<path d="M633.8,493.8c-0.6,-0.2,-3.5,-1.6,-3.8,-1.8c-0.3,-0.3,-0.4,-0.6,-0.4,-1.3c0,-0.6,0,-12.5,0,-12.5" class="g8_1" />
<path d="M633.3,479.2l0,10.3l1.4,0.8" class="g10_1" />
<path d="M634.5,490.5l0,-11" class="g8_1" />
<path d="M635,492.8c-0.6,-0.2,-3,-1.4,-3.3,-1.7c-0.3,-0.2,-0.4,-0.5,-0.4,-1.2c0,-0.6,0,-12,0,-12" class="g8_1" />
<path d="M658.7,428.2c1.6,0,2.8,0.6,2.8,1.3c0,0.8,-1.2,1.4,-2.8,1.4c-1.6,0,-2.8,-0.6,-2.8,-1.4c0,-0.7,1.2,-1.3,2.8,-1.3Z" class="g8_1" />
<path d="M656.8,430.5c-0.1,0,-0.1,-0.1,-0.1,-0.2c0,-0.5,0.9,-0.9,2,-0.9c1.1,0,2,0.4,2,0.9c0,0.1,0,0.2,-0.1,0.2" class="g8_1" />
<path d="M657.7,430.4l0,-0.1c0,-0.2,0.4,-0.5,1,-0.5c0.6,0,1,0.3,1,0.5c0,0.1,0,0.1,0,0.1" class="g8_1" />
<path d="M620.8,442.7l32.8,14.6" class="g8_1" />
<path d="M619.7,440.7l32.8,14.6" class="g8_1" />
<path d="M619.7,583.6l32.8,14.6" class="g8_1" />
<path fill-rule="evenodd" d="M551.2,527.8l-15.2,33l-2.1,-1l-13.7,-8.5l0,-1.3l8.4,-7l0.1,-8.2L539,526.1l2.6,1.3l-0.1,5l7,-5.9Z" class="g16_1" />
<path fill-rule="evenodd" d="M551.2,527.8l-9.7,8l0.1,-8.4L531.4,536l-0.3,8.3l-9.2,7.7l14.1,8.8Z" class="g13_1" />
<path d="M551.2,527.8l-15.2,33l-2.7,-1.3l-13.1,-8.2l0,-1.3l8.4,-7l0.1,-8.2L539,526.1l2.6,1.3l-0.1,8.4" class="g10_1" />
<path d="M551.2,527.8l-2.7,-1.3l-7,5.9" class="g10_1" />
<path d="M551,528l-9.5,7.8" class="g8_1" />
<path d="M521.7,552.1l9.5,-7.8l0.2,-8.3l10.2,-8.6" class="g8_1" />
<path d="M531.4,536l-2.7,-1.3" class="g8_1" />
<path d="M531.2,544.3l-2.7,-1.2" class="g8_1" />
<path d="M520.2,551.1l1.7,0.8Z" class="g8_1" />
<path d="M536,560.8l-14.1,-8.9" class="g8_1" />
<path d="M559.8,548.3l-47,39.3l-23.1,-11" class="g10_1" />
<path d="M514.9,565.7l-17.4,14.6" class="g10_1" />
<path d="M520,561.5l6.3,-5.2" class="g10_1" />
<path d="M519.8,581.6c0.1,0.1,0.5,-48.4,0.5,-48.4" class="g10_1" />
<path d="M514.8,585.8c0.1,0.1,0.5,-48.5,0.5,-48.5" class="g10_1" />
<path d="M552,554.8L542.1,550" class="g10_1" />
<path d="M559.6,548.2L546,541.7" class="g8_1" />
<path d="M514.3,556.1L490,576.5" class="g8_1" />
<path d="M493.6,501.1l-0.1,27.3c0,0,0,1.2,1.5,1.9c1.4,0.7,1.4,0.7,1.4,0.7l14.7,7.2c0,0,2,0.9,4.2,-0.9c2.1,-1.8,14.6,-12.1,14.6,-12.1c0,0,0.5,-0.6,0.5,-1c0,-0.5,0,-1.2,0,-1.2c0,0,0,-0.3,-0.3,-0.4c-0.2,-0.1,-0.7,-0.4,-0.7,-0.4" class="g10_1" />
<path d="M526.1,525.3c0,-0.2,0.2,-0.5,0.4,-0.6c0.1,-0.1,15.5,-13,15.5,-13" class="g10_1" />
<path d="M541,512.6l0,1.1c0,0,0.1,0.3,0.3,0.4c0.3,0.2,1,0.5,1,0.5c0,0,0.3,0,0.5,-0.1C543,514.3,555,504.3,555,504.3c0,0,0.5,-0.6,0.5,-1.1c0,-0.5,0.1,-1.3,-0.1,-1.5c-0.3,-0.2,-0.8,-0.4,-0.8,-0.4" class="g10_1" />
<path d="M551.3,504.2c0,-0.2,0.4,-0.6,0.4,-0.6l5.4,-4.5c0,0,0.5,-0.5,0.5,-1.2c0,-0.7,0.6,-22.4,0.6,-22.4" class="g10_1" />
<path d="M555.5,502c-0.1,-0.1,-0.5,-0.3,-0.8,0c-0.3,0.2,-3.2,2.6,-3.2,2.6" class="g8_1" />
<path d="M542.2,512.1l0,1.9c0,0,0.1,0.7,0.6,0.5" class="g8_1" />
<path d="M530.4,523c-0.2,-0.2,-0.6,-0.3,-0.9,-0.1c-0.3,0.2,-3.1,2.7,-3.1,2.7" class="g8_1" />
<path d="M511.9,537.5l0,-25.9" class="g8_1" />
<path d="M513.8,536.6l0,-24.8" class="g8_1" />
<path d="M564.3,470.4c0.6,-0.6,0.9,-1.4,0.6,-2.1c-0.2,-0.7,-0.7,-1.3,-1.3,-1.6c-0.7,-0.3,-24.3,-11.4,-24.3,-11.4c0,0,-1.3,-0.6,-2.4,-0.4c-1.1,0.2,-2,1,-2,1l-47.2,39c0,0,-1.2,1.2,-0.9,2.2c0.2,1,1,1.3,1.2,1.4c0.2,0.1,24.2,11.6,24.2,11.6c0,0,2.6,1.4,5.3,-0.9c2.8,-2.2,46.8,-38.8,46.8,-38.8Z" class="g10_1" />
<path d="M562,469.6c0.6,-0.5,0.8,-1.2,0.6,-1.8c-0.2,-0.7,-0.7,-1.1,-1.2,-1.4c-0.6,-0.3,-22.5,-10.7,-22.5,-10.7c0,0,-1.2,-0.5,-2.2,-0.3c-0.9,0.2,-1.8,0.9,-1.8,0.9L489.4,494c0,0,-1,1,-0.8,1.9c0.2,1,0.9,1.2,1.1,1.3c0.2,0.1,22.4,10.8,22.4,10.8c0,0,2.3,1.2,4.8,-0.8c2.4,-2,45.1,-37.6,45.1,-37.6Z" class="g8_1" />
<path d="M555.6,469c0,0.5,-0.2,0.7,-0.5,0.8C554.8,470,515,503.1,515,503.1c0,0,-1,0.6,-1.7,0.3c-0.7,-0.3,-17.1,-8.2,-17.1,-8.2" class="g10_1" />
<path d="M503.7,512.1c-0.4,0.3,-0.9,0.1,-1.3,-0.4c-0.4,-0.5,-0.4,-1.1,-0.1,-1.3" class="g8_1" />
<path d="M502.3,510.4c0.3,-0.3,0.9,-0.1,1.3,0.4c0.3,0.5,0.4,1.1,0.1,1.3" class="g8_1" />
<path d="M503.8,511.9c-0.3,0.2,-0.8,0.1,-1.2,-0.4c-0.3,-0.4,-0.4,-1,-0.1,-1.2" class="g8_1" />
<path d="M503.7,511.7c-0.3,0.1,-0.7,0,-0.9,-0.3c-0.3,-0.4,-0.3,-0.8,-0.1,-1" class="g8_1" />
<path d="M503.8,511.3c0,0.2,0,0.3,-0.1,0.4" class="g8_1" />
<path d="M502.7,510.4c0.1,0,0.2,-0.1,0.4,0" class="g8_1" />
<path d="M503.5,511.4c-0.2,0.1,-0.4,0.1,-0.6,-0.2c-0.1,-0.2,-0.2,-0.4,0,-0.5" class="g8_1" />
<path d="M502.9,510.7c0.1,-0.1,0.4,-0.1,0.5,0.2c0.2,0.2,0.2,0.4,0.1,0.5" class="g8_1" />
<path d="M515.9,492.4l1.6,0.8l2.8,-2.3" class="g10_1" />
<path d="M520.3,490.9l-1.7,-0.8l-2.7,2.3" class="g8_1" />
<path d="M519.8,491.3l-1.1,-0.5l-2.3,1.9" class="g8_1" />
<path d="M519.5,491.6l-0.9,-0.4l-1.9,1.6" class="g8_1" />
<path d="M518.6,490.1l0.1,0.7l-0.1,0.4" class="g8_1" />
<path d="M510.4,490.1l1.6,0.8l3.3,-2.6" class="g10_1" />
<path d="M515.3,488.2l-1.6,-0.8l-3.3,2.7" class="g8_1" />
<path d="M514.8,488.6l-1.1,-0.5l-2.7,2.3" class="g8_1" />
<path d="M514.5,488.9l-0.9,-0.4l-2.3,2" class="g8_1" />
<path d="M513.7,487.4l0,0.7l-0.1,0.4" class="g8_1" />
<path d="M509.1,493.8l2.9,1.4l1.2,-0.9c0,0,0.7,-0.6,0.3,-1.1" class="g10_1" />
<path d="M513.2,493.8c-0.1,-0.3,-0.5,-0.7,-0.9,-0.9c-0.4,-0.1,-1.3,-0.1,-1.7,0.2c-0.5,0.3,-0.9,0.7,-0.9,0.7" class="g8_1" />
<path d="M513.5,493.2c-0.2,-0.4,-0.8,-0.7,-1.4,-0.8c-0.5,-0.2,-1.6,0.2,-2,0.5c-0.5,0.3,-0.9,0.6,-0.9,0.6" class="g8_1" />
<path d="M513.2,494.3c-0.1,-0.4,-0.5,-0.8,-0.9,-0.9c-0.4,-0.1,-1.3,-0.1,-1.7,0.2c-0.5,0.3,-0.9,0.7,-0.9,0.7" class="g8_1" />
<path d="M525.3,484.6l1.6,0.7l2.8,-2.2" class="g10_1" />
<path d="M529.7,483.1l-1.6,-0.8l-2.8,2.3" class="g8_1" />
<path d="M529.2,483.5l-1.1,-0.6l-2.3,1.9" class="g8_1" />
<path d="M528.9,483.8L528,483.4l-1.9,1.6" class="g8_1" />
<path d="M528.1,482.3l0,0.7l-0.1,0.4" class="g8_1" />
<path d="M519.8,482.3l1.6,0.8l3.3,-2.7" class="g10_1" />
<path d="M524.7,480.4l-1.6,-0.8l-3.3,2.7" class="g8_1" />
<path d="M524.3,480.8l-1.2,-0.5l-2.7,2.3" class="g8_1" />
<path d="M523.9,481.1l-0.8,-0.4l-2.4,2" class="g8_1" />
<path d="M523.1,479.6l0,0.7l0,0.4" class="g8_1" />
<path d="M518.5,485.9l2.9,1.4l1.2,-0.8c0,0,0.7,-0.6,0.3,-1.1" class="g10_1" />
<path d="M522.6,486c-0.1,-0.4,-0.5,-0.8,-0.9,-0.9c-0.4,-0.1,-1.2,-0.1,-1.7,0.2c-0.5,0.3,-0.9,0.7,-0.9,0.7" class="g8_1" />
<path d="M522.9,485.4c-0.1,-0.4,-0.8,-0.8,-1.3,-0.9c-0.6,-0.1,-1.6,0.2,-2.1,0.5c-0.5,0.3,-0.9,0.7,-0.9,0.7" class="g8_1" />
<path d="M522.6,486.4c-0.1,-0.3,-0.5,-0.7,-0.9,-0.8c-0.4,-0.2,-1.3,-0.1,-1.7,0.2c-0.5,0.3,-0.9,0.6,-0.9,0.6" class="g8_1" />
<path d="M496.6,495.5c0.3,-0.9,0.5,-1.1,1.6,-2.3c1.2,-1.2,38.2,-31.5,38.2,-31.5c0,0,1.1,-1,2.2,-0.5c1,0.4,16.3,7.8,16.3,7.8" class="g8_1" />
<path d="M530.6,474c0,0.3,0.3,0.4,0.5,0.4c0.2,0.1,1.4,0.7,1.4,0.7c0,0,0.7,0.3,1.1,-0.1c0.4,-0.4,3.3,-2.7,3.3,-2.7c0,0,0.3,-0.3,0.2,-0.5" class="g10_1" />
<path d="M536.9,471.6c-0.5,-0.2,-1.9,-0.9,-1.9,-0.9c0,0,-0.4,-0.1,-0.8,0.2c-0.4,0.3,-3.3,2.7,-3.3,2.7c0,0,-0.2,0.3,-0.3,0.4" class="g8_1" />
<path d="M536.9,472.1c-0.4,-0.2,-1.8,-0.9,-1.8,-0.9c0,0,-0.4,-0.2,-0.8,0.1c-0.4,0.4,-3.3,2.7,-3.3,2.7c0,0,-0.3,0.3,-0.3,0.5" class="g8_1" />
<path d="M536.6,472.5c-0.6,-0.3,-1.5,-0.8,-1.5,-0.8c0,0,-0.4,-0.2,-0.8,0.2c-0.4,0.2,-2.5,2,-3.1,2.5" class="g8_1" />
<path d="M535.6,472.8l-0.7,-0.3l-2.7,2.1" class="g10_1" />
<path d="M535.4,472.9c-0.4,0.3,-2.5,2,-2.5,2" class="g8_1" />
<path d="M534.2,475.7c0,0.3,0.3,0.4,0.5,0.4c0.1,0.1,1.4,0.7,1.4,0.7c0,0,0.6,0.3,1,-0.1c0.5,-0.4,3.3,-2.7,3.3,-2.7c0,0,0.3,-0.3,0.2,-0.5" class="g10_1" />
<path d="M540.4,473.3c-0.5,-0.2,-1.9,-0.9,-1.9,-0.9c0,0,-0.3,-0.1,-0.7,0.2c-0.5,0.3,-3.4,2.7,-3.4,2.7c0,0,-0.2,0.2,-0.2,0.4" class="g8_1" />
<path d="M540.4,473.8c-0.4,-0.2,-1.8,-0.9,-1.8,-0.9c0,0,-0.4,-0.2,-0.8,0.1c-0.4,0.3,-3.3,2.7,-3.3,2.7c0,0,-0.2,0.3,-0.3,0.5" class="g8_1" />
<path d="M540.2,474.2c-0.6,-0.3,-1.6,-0.8,-1.6,-0.8c0,0,-0.4,-0.2,-0.8,0.2c-0.3,0.2,-2.4,2,-3.1,2.5" class="g8_1" />
<path d="M539.1,474.5l-0.7,-0.3l-2.6,2.1" class="g10_1" />
<path d="M538.9,474.6c-0.4,0.3,-2.5,2,-2.5,2" class="g8_1" />
<path d="M514,501.9l-16.2,-7.7" class="g8_1" />
<path d="M553.9,469.3l-16.2,-7.7" class="g8_1" />
<image x="102" y="102" width="114" height="39" xlink:href="img/1.png" />
</svg>