<?xml version="1.0" encoding="UTF-8" standalone="no"?>
<!DOCTYPE svg PUBLIC "-//W3C//DTD SVG 1.1//EN"
"http://www.w3.org/Graphics/SVG/1.1/DTD/svg11.dtd">
<svg version="1.1" xmlns="http://www.w3.org/2000/svg" xmlns:xlink="http://www.w3.org/1999/xlink">
<defs>
<clipPath id="c0_1"><path d="M27.5,126.5l0,-54l65,0l0,54Z" /></clipPath>
<style type="text/css"><![CDATA[
.g2_1{
fill: #060706;
}
.g3_1{
fill: #FFFFFF;
}
.g1_1{
fill: #646669;
}
]]></style>
</defs>
<path d="M0,90l440,0L440,0L0,0L0,90Z" class="g1_1" />
<image x="-1" y="146" width="443" height="300" xlink:href="img/1.png" />
<path d="M0,147l118,0L118,0L0,0L0,147Z" class="g2_1" />
<g clip-path="url(#c0_1)">
<path d="M75.7,92.7c-2.5,4.4,-7.2,7.5,-13.4,9.1C68,99.9,71,96.8,72.6,94.1C75.4,89.5,75,84.3,73.4,81.2C70.1,74.9,60,74.3,48.7,75.2c12.9,-2.9,23,-1.1,27,4.9c2.4,3.7,2.4,8.4,0,12.6m-8,4.2C70.4,93.4,71.2,89,70,84.7c-1.4,-5.1,-6.9,-8,-16.3,-8.9c10.9,-0.2,16.7,1.6,18.9,5.8c1.5,2.8,1.8,7.7,-0.8,12.1c-1.3,2.1,-3.6,4.6,-7.5,6.4c1.3,-0.9,2.5,-2,3.4,-3.2M76.5,79.6C71.7,72.4,58.9,70.9,43.1,75.7l-0.1,0l0,0.1l-0.1,0c0,0,0,0.1,0,0.1c0,0,-0.1,0,-0.1,0c0,0.1,0,0.1,0,0.1c0,0.1,0,0.1,0,0.1l0,0.1l0,0.1c0.1,0,0.1,0.1,0.1,0.1c0,0,0,0.1,0.1,0.1l0.1,0c0,0.1,0,0.1,0.1,0.1c0,0,0.1,0,0.1,0c10.6,-0.5,23.6,0.6,25.8,8.3c1.2,4,0.4,8.2,-2.1,11.5c-2.4,3,-6.2,5.1,-10.9,6C54,102.8,51.6,102.9,49,103c-0.2,0,-0.3,0.1,-0.4,0.3c0,0.1,0,0.1,0,0.1c0,0.1,0,0.1,0,0.1c0,0,0,0.1,0,0.1c0,0,0,0.1,0,0.1c0.1,0,0.1,0,0.1,0c0,0.1,0,0.1,0.1,0.1c0.1,0.1,0.1,0.1,0.1,0.1c0.1,0,0.1,0,0.1,0c1.1,0.1,2.1,0.1,3.1,0.1c11.5,0,20.4,-4,24.4,-10.8c2.6,-4.5,2.6,-9.6,0,-13.6Z" class="g3_1" />
</g>
<path d="M43.4,104.1c-0.2,0,-0.4,-0.2,-0.4,-0.4L43,78.4c0,-0.3,0.2,-0.5,0.4,-0.5c0.3,0,0.5,0.2,0.5,0.5l0,25.3c0,0.2,-0.2,0.4,-0.5,0.4Z" class="g3_1" />
<path d="M45.2,104.1c-0.3,0,-0.5,-0.2,-0.5,-0.4l0,-25.3c0,-0.3,0.2,-0.5,0.5,-0.5c0.2,0,0.4,0.2,0.4,0.5l0,25.3c0,0.2,-0.2,0.4,-0.4,0.4Z" class="g3_1" />
<path d="M46.9,104.1c-0.2,0,-0.4,-0.2,-0.4,-0.4l0,-25.3c0,-0.3,0.2,-0.5,0.4,-0.5c0.3,0,0.5,0.2,0.5,0.5l0,25.3c0,0.2,-0.2,0.4,-0.5,0.4Z" class="g3_1" />
<g clip-path="url(#c0_1)">
<path d="M32.2,123.7c3.2,0,5.4,-2.3,5.4,-5.5c0,-3.1,-2.2,-5.4,-5.4,-5.4l-2.9,0l0,10.9ZM27.1,111.1c0,-0.2,0.1,-0.4,0.4,-0.4l4.9,0c4.2,0,7.6,3.4,7.6,7.5c0,4.2,-3.4,7.6,-7.6,7.6l-4.9,0c-0.3,0,-0.4,-0.2,-0.4,-0.4Z" class="g3_1" />
</g>
<path d="M41.7,111.1c0,-0.2,0.2,-0.4,0.4,-0.4l8.6,0c0.3,0,0.5,0.2,0.5,0.4l0,1.2c0,0.2,-0.2,0.4,-0.5,0.4l-6.8,0l0,4.4l5.8,0c0.2,0,0.4,0.2,0.4,0.4l0,1.2c0,0.3,-0.2,0.5,-0.4,0.5l-5.8,0l0,4.6l6.8,0c0.3,0,0.5,0.2,0.5,0.4l0,1.2c0,0.2,-0.2,0.4,-0.5,0.4l-8.6,0c-0.2,0,-0.4,-0.2,-0.4,-0.4Z" class="g3_1" />
<path d="M53.7,111.2c0,-0.3,0.2,-0.5,0.5,-0.5l1.3,0c0.2,0,0.5,0.2,0.5,0.5l0,6l6.1,-6.3c0,-0.1,0.2,-0.2,0.4,-0.2l1.6,0c0.4,0,0.6,0.5,0.3,0.8l-6.2,6.3l6.6,7.3c0.1,0.2,0,0.7,-0.4,0.7l-1.8,0c-0.2,0,-0.3,-0.1,-0.3,-0.2l-6.3,-7l0,6.7c0,0.3,-0.3,0.5,-0.5,0.5l-1.3,0c-0.3,0,-0.5,-0.2,-0.5,-0.5Z" class="g3_1" />
<path d="M66.6,111.2c0,-0.3,0.3,-0.5,0.6,-0.5l1.2,0c0.3,0,0.5,0.2,0.5,0.5l0,6L75,110.9c0.1,-0.1,0.2,-0.2,0.4,-0.2l1.6,0c0.4,0,0.6,0.5,0.3,0.8l-6.2,6.3l6.6,7.3c0.2,0.2,0.1,0.7,-0.4,0.7l-1.7,0c-0.2,0,-0.4,-0.1,-0.4,-0.2l-6.3,-7l0,6.7c0,0.3,-0.2,0.5,-0.5,0.5l-1.2,0c-0.3,0,-0.6,-0.2,-0.6,-0.5Z" class="g3_1" />
<path d="M85.2,123.9c3.1,0,5.6,-2.5,5.6,-5.6c0,-3.1,-2.5,-5.7,-5.6,-5.7c-3.1,0,-5.6,2.6,-5.6,5.7c0,3.1,2.5,5.6,5.6,5.6m0,-13.4c4.3,0,7.7,3.5,7.7,7.8c0,4.3,-3.4,7.7,-7.7,7.7c-4.3,0,-7.8,-3.4,-7.8,-7.7c0,-4.3,3.5,-7.8,7.8,-7.8Z" class="g3_1" />
</svg>