<?xml version="1.0" encoding="UTF-8" standalone="no"?>
<!DOCTYPE svg PUBLIC "-//W3C//DTD SVG 1.1//EN"
"http://www.w3.org/Graphics/SVG/1.1/DTD/svg11.dtd">
<svg viewBox="0 0 935 1210" version="1.1" xmlns="http://www.w3.org/2000/svg" xmlns:xlink="http://www.w3.org/1999/xlink">
<defs>
<style type="text/css"><![CDATA[
.g12_3{
fill: #636363;
}
.g2_3{
fill: none;
stroke: #FFFFFF;
stroke-width: 3;
stroke-linecap: round;
stroke-linejoin: miter;
stroke-miterlimit: 2;
}
.g3_3{
fill: #FFFFFF;
stroke: #000000;
stroke-width: 2;
stroke-linecap: butt;
stroke-linejoin: miter;
stroke-miterlimit: 2;
}
.g13_3{
fill: #D4D4D4;
}
.g1_3{
fill: #B3B3B3;
}
.g7_3{
fill: #636363;
stroke: #000000;
stroke-width: 1;
stroke-linecap: butt;
stroke-linejoin: miter;
stroke-miterlimit: 2;
}
.g10_3{
fill: none;
stroke: #000000;
stroke-width: 2;
stroke-linecap: round;
stroke-linejoin: round;
stroke-miterlimit: 2;
}
.g5_3{
fill: none;
stroke: #000000;
stroke-width: 2;
stroke-linecap: butt;
stroke-linejoin: miter;
stroke-miterlimit: 2;
}
.g11_3{
fill: #808080;
stroke: #000000;
stroke-width: 1;
stroke-linecap: round;
stroke-linejoin: round;
stroke-miterlimit: 2;
}
.g4_3{
fill: none;
stroke: #000000;
stroke-width: 1;
stroke-linecap: butt;
stroke-linejoin: miter;
stroke-miterlimit: 2;
}
.g9_3{
fill: #FFFFFF;
}
.g6_3{
}
.g8_3{
fill: none;
stroke: #000000;
stroke-width: 1;
stroke-linecap: round;
stroke-linejoin: round;
stroke-miterlimit: 2;
}
]]></style>
</defs>
<path fill-rule="evenodd" d="M55,54l824,0l0,1101l-824,0Z" class="g1_3" />
<path d="M55.5,256.5l27,0" class="g2_3" />
<path d="M55.5,430.5l27,0" class="g2_3" />
<path d="M55.5,605.5l27,0" class="g2_3" />
<path d="M55.5,779.5l27,0" class="g2_3" />
<path d="M55.5,953.5l27,0" class="g2_3" />
<path d="M852.5,256.5l28,0" class="g2_3" />
<path d="M852.5,605.5l28,0" class="g2_3" />
<path d="M236.5,82.5l0,-27" class="g2_3" />
<path d="M390.5,82.5l0,-27" class="g2_3" />
<path d="M544.5,82.5l0,-27" class="g2_3" />
<path d="M698.5,82.5l0,-27" class="g2_3" />
<path d="M236.5,1155.5l0,-28" class="g2_3" />
<path d="M390.5,1155.5l0,-28" class="g2_3" />
<path d="M544.5,1155.5l0,-28" class="g2_3" />
<path d="M698.5,1155.5l0,-28" class="g2_3" />
<path d="M852.5,430.5l28,0" class="g2_3" />
<path d="M852.5,779.5l28,0" class="g2_3" />
<path d="M852.5,953.5l28,0" class="g2_3" />
<path fill-rule="evenodd" d="M82,82l770,0l0,1045l-770,0Z" class="g3_3" />
<path d="M184.5,209.5l646,0" class="g4_3" />
<path d="M103.5,278.5l727,0" class="g4_3" />
<path d="M82,1097l770,0" class="g5_3" />
<path d="M466.5,1099.5l0,28" class="g4_3" />
<path d="M468.5,1099.5l0,28" class="g4_3" />
<path d="M272.5,1099.5l0,28" class="g4_3" />
<path d="M274.5,1099.5l0,28" class="g4_3" />
<path d="M664.5,1099.5l0,28" class="g4_3" />
<path d="M666.5,1099.5l0,28" class="g4_3" />
<path fill-rule="evenodd" d="M106,289l37,0l0,38l-37,0Z" class="g6_3" />
<path fill-rule="evenodd" d="M103.5,287.5l38,0l0,37l-38,0Z" class="g7_3" />
<path d="M274.5,1099.5l192,0" class="g8_3" />
<path d="M468.5,1099.5l196,0" class="g8_3" />
<path d="M666.5,1099.5l186,0" class="g8_3" />
<path d="M272.5,1099.5l-190,0" class="g8_3" />
<path fill-rule="evenodd" d="M279,248.7c13.3,-7.7,26.7,-15.5,40.1,-23.2c0.5,-0.7,1,-1.3,1.5,-2c0.2,-0.3,0.3,-0.5,0.2,-0.7c-0.1,-0.1,-0.3,-0.2,-0.6,-0.2c-0.9,0.1,-1.8,0.2,-2.7,0.3c-13.2,7.6,-26.4,15.3,-39.6,22.9c0.3,1,0.7,1.9,1.1,2.9Z" class="g9_3" />
<path d="M269.2,254.3c16.6,-9.6,33.2,-19.2,49.9,-28.8c0.5,-0.7,1,-1.3,1.5,-2c0.2,-0.3,0.3,-0.5,0.2,-0.7c-0.1,-0.1,-0.3,-0.2,-0.6,-0.2c-0.9,0.1,-1.8,0.2,-2.7,0.3c-16.4,9.5,-32.9,19,-49.4,28.6" class="g10_3" />
<path d="M318.3,225.3c0.1,-0.5,0.5,-1,0.8,-1.3c0.4,-0.3,1,-0.6,1.5,-0.7" class="g8_3" />
<path d="M317,223.7c0.7,0,1.3,-0.2,1.9,-0.3c0.5,-0.2,1,-0.4,1.5,-0.7" class="g8_3" />
<path fill-rule="evenodd" d="M282.9,238.3c-0.8,0.4,-1.6,0.9,-2.3,1.3c-0.4,0.2,-0.8,0.6,-1,0.9c-0.3,0.4,-0.5,0.9,-0.6,1.5c0,0.3,0,0.6,-0.1,0.7c-0.1,0.1,-0.3,0.2,-0.6,0.1c-0.7,-0.5,-1.6,-0.9,-2.3,-1c-0.8,-0.1,-1.7,0.1,-2.4,0.4c-8,4.6,-16,9.2,-24,13.8c-1.8,1.8,-2.8,3.5,-3.1,5.1c-0.2,1.7,0.2,3.3,1.4,4.9c1.4,1.7,2.9,2.7,4.6,2.9c1.6,0.3,3.4,-0.1,5.2,-1.2c7.5,-4.4,15.1,-8.7,22.6,-13.1c0.8,-0.7,1.4,-1.4,1.7,-2.2c0.4,-0.7,0.6,-1.6,0.6,-2.4c0,-0.4,0.1,-0.7,0.3,-0.8c0.1,0,0.4,0.1,0.6,0.4c0.4,0.2,0.9,0.4,1.3,0.4c0.4,0,0.8,0,1.2,-0.2c0.8,-0.5,1.7,-1,2.6,-1.5c0.8,-0.8,1.2,-1.8,1.1,-3c-0.1,-1.1,-0.6,-2.5,-1.5,-4c-1,-1.3,-1.9,-2.2,-2.8,-2.7c-0.8,-0.5,-1.7,-0.6,-2.5,-0.3Z" class="g9_3" />
<path d="M279.1,242.7c-0.1,-1.3,0.3,-2.4,1.1,-2.8c0.8,-0.5,1.7,-1,2.6,-1.5c1.5,-0.9,4.1,0.6,5.7,3.4c1.6,2.7,1.6,5.6,0,6.5c-0.8,0.5,-1.7,1,-2.5,1.5c-0.9,0.5,-2,0.3,-3.2,-0.5" class="g10_3" />
<path d="M282,250.5c-0.1,-1.4,-0.5,-2.8,-1.4,-4.3c-0.6,-1.1,-1.3,-2,-2.2,-2.7" class="g8_3" />
<path d="M282.6,248.7c0,-0.9,-0.3,-2,-1,-3c-0.5,-1,-1.3,-1.8,-2,-2.3" class="g8_3" />
<path d="M284.3,249.2c-0.6,-0.2,-1,-0.2,-1.3,-0.1c-0.2,0,-0.4,0.4,-0.4,0.7c0,1,-0.2,2,-0.6,2.8c-0.4,0.7,-0.9,1.4,-1.6,1.8c-8,4.7,-16,9.3,-24,14c-1,0.4,-1.7,0.6,-2.9,0.6c-3.8,0,-6.9,-3.1,-6.9,-7c0,-2.2,1.2,-4.4,2.9,-5.8c8,-4.6,16,-9.2,24,-13.9c0.6,-0.3,1.4,-0.4,2.2,-0.4c0.7,0.1,1.7,0.4,2.6,0.9c0.4,0.2,0.8,0.2,1,0.1c0.3,-0.1,0.5,-0.5,0.6,-1" class="g10_3" />
<path d="M250.7,256.3c1.8,0.1,3.9,1.8,5.4,4.3c1.3,2.3,1.7,4.9,1.2,6.5" class="g8_3" />
<path d="M285.5,249.7c1.2,-1,1.1,-3.6,-0.3,-6.1c-1.4,-2.5,-3.7,-3.9,-5.2,-3.3" class="g8_3" />
<path d="M254.1,256.3l21.6,-12.5" class="g8_3" />
<path d="M256.2,257.5l21,-12.4" class="g8_3" />
<path d="M258.4,261.9L279.7,249" class="g8_3" />
<path d="M258.9,264.3l21.2,-12.9" class="g8_3" />
<path d="M256.2,257.6c-0.9,0.5,-3.4,-0.1,-2.1,-1.3" class="g8_3" />
<path d="M258.4,261.9c-1.2,0.8,-1,3.1,0.5,2.5" class="g8_3" />
<path d="M280.1,251.5c1.2,-0.7,1.5,-3.6,-0.4,-2.5" class="g8_3" />
<path d="M277.2,245.1c1.2,-0.7,0,-2.2,-1.5,-1.3" class="g8_3" />
<path d="M193.1,221.3c0.2,-0.1,0.3,-0.2,0.4,-0.3" class="g8_3" />
<path d="M193.5,221c0.4,-0.1,0.7,-0.2,1.1,-0.1c0.6,0.1,1.2,0.5,2,1.1c6.3,-1.7,12.3,-2.7,18.1,-3.4c5.8,-0.6,11.2,-0.7,16.5,-0.2" class="g8_3" />
<path d="M232,218.7c-0.4,-0.5,-1,-1,-1.8,-1.2c-0.8,-0.3,-1.8,-0.4,-2.9,-0.4c-7.3,-0.2,-13.7,0.1,-19.3,0.7c-5.6,0.6,-10.5,1.7,-14.5,3.2" class="g10_3" />
<path d="M190.6,229.4c1.1,0.8,2.1,1.4,3.3,2.1c1,0.5,2.1,1,3.3,1.5c3.8,-0.5,7.6,-1,11.4,-1.5" class="g8_3" />
<path d="M208.6,231.5c0.3,0,0.6,0,0.9,-0.1c0,-0.5,0,-0.9,0,-1.4c-0.4,-0.4,-0.7,-0.7,-0.8,-0.9c-0.2,-0.3,-0.3,-0.6,-0.3,-0.8c0.3,-1.2,0.7,-2.1,1.3,-2.7c0.7,-0.7,1.6,-1,2.7,-1c1.3,-0.2,2.3,-0.2,3,0c0.7,0.2,1.1,0.4,1.3,0.8c0.8,0,1.9,-0.1,3.3,-0.4c1.3,-0.2,2.9,-0.6,4.7,-1c1,-0.4,1.8,-0.3,2.4,0.1" class="g10_3" />
<path d="M227.1,224.1c0.6,0.4,0.9,1.2,1,2.3c0.1,1.1,0.2,2.2,0.3,3.2" class="g8_3" />
<path d="M193.1,221.3c-0.4,1.9,-0.8,3.9,-1.2,5.8c-0.1,0.3,-0.3,0.6,-0.5,0.7c-0.1,0.1,-0.4,0.2,-0.7,0.2c0,0.5,-0.1,1,-0.1,1.5" class="g10_3" />
<path d="M196.6,222c-0.1,2.5,-0.1,5,-0.2,7.5c0,0.3,0.1,0.7,0.3,1c0.1,0.3,0.4,0.7,0.6,1.1" class="g8_3" />
<path d="M197.4,231.6L209.5,230" class="g8_3" />
<path d="M197.4,231.6L196.8,244" class="g8_3" />
<path d="M228.4,229.6c0,1,0.2,1.8,0.5,2.2c0.4,0.5,0.9,0.7,1.5,0.6" class="g8_3" />
<path d="M225.5,223.8c0.2,1.3,0.4,2.6,0.6,3.9c0.2,0.9,0,1.7,-0.4,2.2c-0.4,0.5,-1.2,0.9,-2.1,1c-4.2,0.8,-8.4,1.5,-12.6,2.3" class="g10_3" />
<path d="M227.7,231.2l-1.6,-1.1" class="g8_3" />
<path fill-rule="evenodd" d="M198.6,223.9c-0.1,0.5,0.1,1,0.4,1c0.3,0.1,0.7,-0.3,0.8,-0.8c0,-0.4,-0.1,-0.9,-0.5,-1c-0.3,0,-0.6,0.3,-0.7,0.8Z" class="g11_3" />
<path fill-rule="evenodd" d="M198.2,229c-0.1,0.5,0.1,1,0.4,1c0.3,0.1,0.7,-0.3,0.8,-0.8c0.1,-0.4,-0.1,-0.9,-0.5,-1c-0.3,0,-0.6,0.3,-0.7,0.8Z" class="g11_3" />
<path fill-rule="evenodd" d="M208.3,223.4c-0.1,0.5,0.1,0.9,0.5,1c0.3,0.1,0.6,-0.3,0.7,-0.8c0.1,-0.5,-0.1,-0.9,-0.4,-1c-0.3,0,-0.7,0.3,-0.8,0.8Z" class="g11_3" />
<path d="M230.5,223.3c0.1,-1,-0.2,-1.7,-0.9,-2.1c-0.7,-0.5,-1.7,-0.6,-3.1,-0.6c-1.6,0,-3.8,0,-6.4,0.1c-2.7,0.1,-5.8,0.3,-9.4,0.6c-1.3,0.1,-2.2,0.4,-2.7,1.1c-0.5,0.6,-0.6,1.5,-0.4,2.7c0.1,0.9,0.3,1.6,0.4,2.2" class="g8_3" />
<path d="M208.9,226.8c0.7,-0.1,1.5,0,2.1,0.3c0.7,0.2,1.3,0.7,1.9,1.3c0.4,-0.9,0.8,-1.8,1.3,-2.7" class="g10_3" />
<path d="M211.6,224.7c1.1,0.2,2,0.6,2.6,1c0.5,0.5,0.9,1,1,1.7" class="g8_3" />
<path d="M215.3,227.4c0.1,-0.6,0.3,-1,0.6,-1.3c0.2,-0.3,0.5,-0.5,0.8,-0.6" class="g10_3" />
<path d="M215.3,227.4l-1.5,-0.8" class="g10_3" />
<path d="M212.8,228.3l-1.6,-0.8" class="g8_3" />
<path d="M210.3,226.9c0.3,0.2,0.6,0.4,0.9,0.7" class="g8_3" />
<path d="M211.4,249.2c0.3,-0.2,0.6,-0.4,0.9,-0.6c7.3,-1.7,14.5,-3.3,21.8,-5c0,0,1.8,-1.1,2.2,-2.7c0,-1.7,0.1,-3.5,0.1,-5.3c-0.3,-2.4,-2.3,-4,-2.3,-4c-0.3,-0.4,-0.3,-0.6,-0.4,-0.9c-0.2,-0.3,-0.3,-0.9,-0.4,-1.2c0,0,-1.4,-10.7,-1.4,-10.7" class="g10_3" />
<path d="M208.7,231.6c0.1,3.8,0,8.2,-0.2,13.1c-0.3,4.8,-0.8,10.2,-1.5,16.1" class="g10_3" />
<path d="M207,260.8l-3.1,0.8" class="g8_3" />
<path d="M236.3,235.6l-23.9,5" class="g8_3" />
<path d="M212.4,240.6c0,-1.2,0,-2.3,0,-3.5c0,-0.1,0,-0.2,-0.1,-0.2c0,-0.1,-0.1,-0.1,-0.2,-0.1c-0.3,-0.1,-0.5,-0.3,-0.6,-0.4c-0.1,-0.2,-0.2,-0.5,-0.2,-0.8c-0.1,-1.1,-0.3,-2.1,-0.6,-3c-0.2,-0.8,-0.7,-1.5,-1.2,-2" class="g10_3" />
<path d="M236.3,241l-28,5.8" class="g8_3" />
<path d="M208.3,246.9c0.2,-0.1,0.3,-0.2,0.4,-0.3c0,-0.1,0.1,-0.3,0.1,-0.4c0,-1.6,0.1,-3.2,0.2,-4.9c0,-1.1,0,-2.3,0,-3.5c0,-0.1,-0.1,-0.1,-0.1,-0.2c0,0,-0.1,-0.1,-0.2,-0.1" class="g8_3" />
<path d="M212.2,237l-3,0.7" class="g8_3" />
<path d="M211.2,236.4l-2.3,0.5" class="g8_3" />
<path d="M220.1,231.7c1.6,0.1,2.9,0.6,3.8,1.5c0.9,1,1.6,2.3,1.8,4.1c0,0.1,0.1,0.2,0.1,0.3c0.1,0.1,0.2,0.1,0.3,0.2" class="g8_3" />
<path d="M225.6,243.2c-0.2,0.7,-0.6,1.4,-1.3,1.9c-0.7,0.5,-1.7,1,-2.8,1.4" class="g8_3" />
<path d="M226.1,237.8l-0.1,5.3" class="g8_3" />
<path d="M231,232.3l2.3,-0.5" class="g8_3" />
<path d="M228.3,231.9c0,0.3,-0.2,0.5,-0.3,0.7c-0.2,0.1,-0.5,0.3,-0.8,0.3c-0.7,0.2,-1.4,0.3,-2.2,0.5" class="g8_3" />
<path d="M223.4,233.7l-11.3,2.1" class="g8_3" />
<path d="M205.5,232c0.2,3.8,0.1,8.2,-0.1,13.2c-0.3,4.9,-0.8,10.4,-1.5,16.4" class="g8_3" />
<path d="M207.2,259.8l2.9,-0.8" class="g8_3" />
<path d="M210.1,259c0.4,-1,0.8,-2.3,1,-3.7c0.2,-1.5,0.3,-3.1,0.3,-4.8c-0.1,-0.8,0,-1.4,0.1,-2c0.1,-0.6,0.3,-1.1,0.6,-1.6" class="g10_3" />
<path d="M212.9,248.5c0.7,0.4,1.3,1.7,1.5,3.3c0.1,1.9,-0.5,3.5,-1.4,3.6c-0.7,0.3,-1.3,0.5,-2,0.8" class="g10_3" />
<path d="M214.2,253.8l7.2,4.4" class="g10_3" />
<path d="M221.4,258.2l-25.3,6.1" class="g8_3" />
<path d="M196.1,264.3l-4.2,-2.9" class="g8_3" />
<path d="M193.9,272.7l-0.2,-0.2" class="g8_3" />
<path d="M197.1,252.6l0,1.7l-2.8,0.5l-1.1,-0.5" class="g10_3" />
<path d="M190.9,253.1c0,-1.7,0,-3.4,0,-5.1c-0.1,-0.8,-0.2,-1.7,-0.2,-2.6c0,-1,-0.1,-2,-0.1,-3.1c0,-0.2,0,-0.4,-0.1,-0.6c0,-0.1,-0.1,-0.3,-0.2,-0.4c-0.1,-0.1,-0.2,-0.3,-0.2,-0.4C190,240.7,190,240.4,190,240.2c0,-1.1,0.1,-2.6,0.2,-4.3c0.1,-1.8,0.2,-4,0.4,-6.4" class="g10_3" />
<path d="M194.3,254.8c0,-1.7,0,-3.4,0,-5.1c0.2,-0.7,0.4,-1.5,0.6,-2.3c0.2,-0.8,0.4,-1.7,0.6,-2.7c0,-0.1,0.1,-0.3,0.2,-0.5" class="g8_3" />
<path d="M195.7,244.2c0.1,0,0.3,0,0.4,-0.1c0.2,0.2,0.4,0.3,0.7,0.3c0.2,0,0.5,0,0.8,0" class="g10_3" />
<path d="M190.9,248l3.4,1.7l7.3,-1.1l1.4,-4.4" class="g8_3" />
<path d="M190.9,253.1l0.8,0.4l1.3,-0.1" class="g10_3" />
<path d="M190.5,260.4l-4.2,-2.8" class="g8_3" />
<path d="M191.5,253.5l0,-1" class="g8_3" />
<path d="M193,254l0,-1" class="g10_3" />
<path d="M191.7,252.6c0.1,-0.4,0.3,-0.8,0.6,-0.8" class="g8_3" />
<path d="M192.3,251.8c0.4,-0.1,0.8,0.3,0.9,1c0,0.2,0.1,0.3,0,0.5" class="g10_3" />
<path d="M203.7,260.6l-1.4,0.4" class="g8_3" />
<path d="M202.3,261c0.4,-2.8,0.6,-5.5,0.8,-8.2c0.2,-2.7,0.3,-5.4,0.4,-8.1c-0.1,-0.3,-0.2,-0.5,-0.3,-0.8" class="g8_3" />
<path d="M203.2,243.9c-0.3,0,-0.6,0,-0.9,-0.1c-1.6,0.2,-3.1,0.4,-4.7,0.6" class="g10_3" />
<path d="M202.3,261l-1.2,-0.8" class="g8_3" />
<path d="M201.6,248.7c0,0.7,0,2,-0.1,3.9c-0.1,2,-0.2,4.5,-0.4,7.6" class="g8_3" />
<path d="M203.9,261.6c-0.1,0,-0.2,-0.1,-0.2,-0.1c-0.1,-0.1,-0.1,-0.1,-0.1,-0.1" class="g8_3" />
<path d="M205.2,232c0.2,3.8,0.1,8,-0.2,12.9c-0.2,4.9,-0.7,10.3,-1.4,16.4" class="g8_3" />
<path d="M217,257.3l-3.5,-2.1" class="g8_3" />
<path d="M213,258.2l-2.2,-1.3" class="g8_3" />
<path d="M215.6,257.7l-3.4,-2" class="g10_3" />
<path d="M211.5,258.6l-1,-0.6" class="g10_3" />
<path d="M217,257.4l-1.4,0.3" class="g10_3" />
<path d="M213.1,258.3l-1.5,0.3" class="g10_3" />
<path fill-rule="evenodd" d="M233.7,233.6c0.3,0.5,0.3,1.1,0,1.2c-0.3,0.2,-0.8,-0.1,-1.1,-0.7c-0.2,-0.5,-0.2,-1.1,0.1,-1.2c0.2,-0.2,0.7,0.1,1,0.7Z" class="g11_3" />
<path d="M190.5,260.4l3.1,-0.7" class="g8_3" />
<path d="M195.5,259.2l0.8,-0.2" class="g8_3" />
<path d="M197.1,252.6c0.1,-0.2,0.1,-0.4,0.2,-0.6c0.2,-0.8,1,-1.3,1.6,-1.1" class="g10_3" />
<path d="M198.9,250.9c0.4,0.2,0.7,0.7,0.7,1.2c0.1,2,0.2,4,0.4,6c0,0.5,0.2,0.9,0.3,1.1c0.2,0.3,0.5,0.5,0.8,0.6" class="g8_3" />
<path d="M200.5,259.5l-3.7,-2.6" class="g8_3" />
<path d="M195.5,255.4c0.6,0.2,1.2,0.5,1.2,0.9" class="g10_3" />
<path d="M196.7,256.3c0,0.6,-1,1.1,-2.3,1.1c-1.3,0,-2.3,-0.5,-2.3,-1.1" class="g8_3" />
<path d="M192.1,256.3c0,-0.4,0.6,-0.7,1.3,-1" class="g10_3" />
<path d="M192.5,256.5l0,1" class="g8_3" />
<path d="M192.3,258.3c0.4,0.4,1.2,0.6,2.1,0.6c0.6,0,1.2,-0.1,1.6,-0.3" class="g10_3" />
<path d="M196.5,257.5l0,-1" class="g8_3" />
<path d="M193.4,254.3c0,0.6,0,1.3,0,2c0,0.2,0.5,0.4,1,0.4c0.6,0,1.1,-0.2,1.1,-0.4c0,-0.6,0,-1.2,0,-1.8" class="g8_3" />
<path d="M193,258l0,3" class="g10_3" />
<path d="M195.5,258.5l0,2" class="g8_3" />
<path d="M193.5,264.5l0,8" class="g8_3" />
<path d="M195.5,264.6l0,5.8l-1.5,2.3" class="g10_3" />
<path d="M196.2,259.1c0.2,-0.1,0.5,-0.1,0.7,-0.1c0.8,0,1.4,0.2,1.4,0.6" class="g8_3" />
<path d="M193.5,258.5l0,2" class="g8_3" />
<path d="M193,264l0,8" class="g10_3" />
<path d="M214.6,226.2c0.1,0.2,0.2,0.5,0.2,0.7" class="g8_3" />
<path d="M214.7,226.8l-0.9,-0.5" class="g8_3" />
<path d="M192.3,257c0.2,-0.1,0.5,0.2,0.5,0.5c0.1,0.4,0,0.7,-0.3,0.8" class="g8_3" />
<path d="M191.7,257.1c0.2,0,0.5,0.2,0.5,0.6c0.1,0.3,0,0.6,-0.3,0.7" class="g8_3" />
<path d="M196.4,257.3c-0.3,-0.1,-0.6,0,-0.8,0.3c-0.2,0.2,-0.2,0.6,0,0.8" class="g8_3" />
<path d="M196.1,258.7c0.2,0.1,0.6,0,0.8,-0.3c0.2,-0.2,0.2,-0.6,-0.1,-0.8" class="g10_3" />
<path d="M196.8,257.6c-0.2,-0.1,-0.6,0,-0.8,0.2c-0.2,0.3,-0.2,0.7,0.1,0.9" class="g8_3" />
<path d="M196.8,257.6l-0.4,-0.3" class="g8_3" />
<path d="M196,258.6l-0.4,-0.2" class="g8_3" />
<path d="M196.1,264.3l-3,-1l-4.3,-3" class="g8_3" />
<path d="M190.4,260.3l-2.9,-1l-4.2,-2.7" class="g8_3" />
<path d="M216.6,257.5l-3.5,-2.1" class="g8_3" />
<path d="M212.6,258.4l-1.9,-1.2" class="g8_3" />
<path d="M193.1,263.3l-0.2,0.4" class="g8_3" />
<path d="M187.4,259.3l-0.2,0.5" class="g8_3" />
<path d="M221.4,258.2c0,0.1,0,0.3,0,0.4c-8.4,2.1,-16.8,4.1,-25.3,6.2c-1,-0.4,-2.1,-0.7,-3.2,-1c-1.4,-1,-2.9,-2,-4.3,-3c0.1,-0.1,0.1,-0.3,0.2,-0.4l0,-0.1c1,0.4,2,0.7,3,1.1l0.1,0c1.9,-0.4,3.9,-0.9,5.8,-1.3c0.4,-0.1,0.6,-0.3,0.6,-0.5" class="g10_3" />
<path d="M192,256.3l-5.7,1.3l-3,-1l-0.3,0.5l4.2,2.7l1.6,0.5" class="g10_3" />
<path d="M190.5,260.8l3.1,-0.7" class="g8_3" />
<path d="M195.5,259.6c0.2,0,0.5,-0.1,0.8,-0.1c0.2,-0.1,0.4,-0.1,0.6,-0.1c0.6,0,1.1,0.1,1.3,0.3" class="g8_3" />
<path d="M192.5,258.3c-0.1,0,-0.3,0,-0.5,0.1l-0.1,0c-0.2,0,-0.4,-0.2,-0.5,-0.6c-0.1,-0.3,0.1,-0.6,0.3,-0.7c0.2,0,0.4,-0.1,0.6,-0.1" class="g10_3" />
<path d="M232.6,238.2l0.7,-0.1l0,-0.7" class="g8_3" />
<path d="M233.3,238.1l0.2,0.1" class="g8_3" />
<path d="M233.8,237.9l0.7,-0.2l0,-0.6" class="g8_3" />
<path d="M234.5,237.8l0.2,0.1" class="g8_3" />
<path d="M235.1,237.6l0.6,-0.1l0,-0.7" class="g8_3" />
<path d="M235.8,237.5l0.1,0.1" class="g8_3" />
<path d="M235.1,239l0.6,-0.2l0,-0.7" class="g8_3" />
<path d="M235.8,238.8l0.1,0.2" class="g8_3" />
<path d="M235.1,240.3l0.6,-0.1l0,-0.7" class="g8_3" />
<path d="M235.8,240.2l0.1,0.1" class="g8_3" />
<path d="M233.8,240.6l0.7,-0.2l0,-0.6" class="g8_3" />
<path d="M234.5,240.5l0.2,0.1" class="g8_3" />
<path d="M233.8,239.2l0.7,-0.1l0,-0.7" class="g8_3" />
<path d="M234.5,239.1l0.2,0.1" class="g8_3" />
<path d="M232.6,239.6l0.7,-0.2l0,-0.7" class="g8_3" />
<path d="M233.3,239.4l0.2,0.1" class="g8_3" />
<path d="M232.6,240.9l0.6,-0.2l0,-0.6" class="g8_3" />
<path d="M233.3,240.8l0.2,0.1" class="g8_3" />
<path d="M197.6,230.7l10.6,-1.3" class="g8_3" />
<path d="M103.5,669.5l727,0" class="g4_3" />
<path fill-rule="evenodd" d="M106,681l37,0l0,37l-37,0Z" class="g6_3" />
<path fill-rule="evenodd" d="M103.5,679.5l38,0l0,37l-38,0Z" class="g7_3" />
<path d="M380.5,222.1l18,10.8" class="g10_3" />
<path d="M377.7,223.8l17.9,10.7" class="g8_3" />
<path d="M376.3,227.7l17.9,10.7" class="g8_3" />
<path d="M376.7,229.2l18.9,11.3" class="g10_3" />
<path d="M309,265.4l60.9,-36.2c3.3,-2,4.7,-1.2,6.8,0" class="g10_3" />
<path d="M310.3,263.2l59.8,-35.7c2.7,-1.6,4.6,-0.7,6.2,0.2" class="g8_3" />
<path d="M308.8,259.6l60.9,-36.3c2.8,-1.6,5.3,-1,8,0.5" class="g8_3" />
<path d="M306.1,257.8l59.7,-35.7c6.5,-3.8,9.9,-2.8,14.7,0" class="g10_3" />
<path d="M394.2,238.3c0.7,-0.5,1.9,-2.1,1.4,-3.8" class="g8_3" />
<path d="M395.6,234.5c0.8,0.5,2.7,-0.5,2.9,-1.6" class="g8_3" />
<path d="M394.2,238.4c0.8,0.1,1.8,0.9,1.4,2.1" class="g8_3" />
<path d="M395.6,240.5c0.2,-0.6,1.8,-2.1,2.9,-1.7" class="g10_3" />
<path d="M398.5,238.8c-0.5,-1.1,0.5,-3.7,1.4,-3.9" class="g10_3" />
<path d="M398.5,232.9c0,0.7,0.2,1.8,1.4,2" class="g10_3" />
<path d="M310.3,263.2c-0.6,-0.4,-1.9,-2.1,-1.3,-3.7" class="g8_3" />
<path d="M309,259.5c-0.9,0.5,-2.7,-0.6,-2.9,-1.7" class="g8_3" />
<path d="M310.3,263.2c-0.8,0.1,-1.7,1,-1.3,2.2" class="g8_3" />
<path d="M309,265.4c-0.3,-0.6,-1.9,-2,-2.9,-1.6" class="g10_3" />
<path d="M306.1,263.8c0.4,-1.1,-0.5,-3.8,-1.5,-3.9" class="g10_3" />
<path d="M306.1,257.8c0,0.7,-0.2,1.8,-1.5,2.1" class="g10_3" />
<path d="M408.5,174.5l118,0" class="g8_3" />
<path d="M374,381l0,65" class="g10_3" />
<path d="M374.6,381.8l242.3,-83" class="g10_3" />
<path d="M616.5,298.5l0,5" class="g8_3" />
<path d="M374.6,446.4l4.5,-1.5" class="g8_3" />
<path d="M647.5,390.4l-0.1,45" class="g10_3" />
<path d="M565.5,463.1l0,-42.5" class="g8_3" />
<path d="M564.2,462.4l0.1,-41.3" class="g10_3" />
<path d="M539.8,426.4l0,-11.9" class="g10_3" />
<path d="M541.1,427.1l0,-11.8" class="g8_3" />
<path d="M515.8,401.6l0,-15.9" class="g10_3" />
<path d="M517.1,401.6l-0.1,-15" class="g8_3" />
<path d="M539.8,426.4c0,0,0.2,1.1,1.7,0.8" class="g10_3" />
<path d="M643.2,337.8L518.4,381.7" class="g10_3" />
<path d="M644.7,338.3L520.2,382" class="g8_3" />
<path d="M518.4,381.7c0,0,-2.5,1.2,-2.6,4" class="g10_3" />
<path d="M517,386.6c0,0,-0.2,-3.3,3.2,-4.6" class="g8_3" />
<path d="M518.3,403l21,8.6" class="g8_3" />
<path d="M517.5,404.6l20.9,8.5" class="g10_3" />
<path d="M517.1,401.6c0,0,0,0.8,1.2,1.4" class="g8_3" />
<path d="M515.8,401.6c0,0,-0.1,2.1,1.7,3" class="g10_3" />
<path d="M539.3,411.6c0,0,1.8,1,1.8,3.7" class="g8_3" />
<path d="M538.4,413.1c0,0,1.1,0.4,1.4,1.4" class="g10_3" />
<path d="M578.2,408.1L552,417.2" class="g10_3" />
<path d="M578.2,412.5l0,-4.4" class="g8_3" />
<path d="M552,421.9l26.2,-9.4" class="g8_3" />
<path d="M552,417.2l0,4.7" class="g10_3" />
<path d="M552,420.9l24.9,-8.8" class="g10_3" />
<path d="M576.9,408.5l0,3.6" class="g10_3" />
<path d="M576.9,412.1l1.3,0.4" class="g8_3" />
<path d="M642.3,359.1l-91.2,32.1" class="g8_3" />
<path d="M563.6,419.7l-22.1,7.5" class="g10_3" />
<path d="M563.6,419.7c0,0,0.7,-0.4,0.7,1.4" class="g10_3" />
<path d="M563.6,419.7c0,0,1.9,-0.8,1.9,0.9" class="g10_3" />
<path d="M649.6,360.8C647.3,360,646.4,357,647.4,354c1,-3,3.7,-4.8,5.9,-4.1" class="g10_3" />
<path d="M653.3,349.9c2.3,0.8,3.2,3.9,2.2,6.9c-1,3,-3.7,4.8,-5.9,4" class="g10_3" />
<path d="M650.6,361c-2.2,-0.8,-3.3,-3.6,-2.2,-6.7c1,-3,3.6,-4.7,5.8,-3.9" class="g8_3" />
<path d="M652.7,353.5l0.8,-0.1l0.3,1.8l1.2,-0.3l0.1,0.9l-1.3,0.8l-0.1,1.7l-1,0.3L652.6,357l-1.5,0.2l0,-1l1.5,-0.6Z" class="g8_3" />
<path d="M636.7,353.7c-1.5,-0.4,-2.3,-2.4,-1.8,-4.5c0.5,-2,2.2,-3.4,3.7,-3" class="g10_3" />
<path d="M638,353.2c-0.2,0.3,-0.7,0.6,-1.3,0.5" class="g8_3" />
<path d="M638.6,346.2c0.7,0.2,1.2,0.7,1.3,1.4" class="g8_3" />
<path d="M636.7,352.7c-0.2,0.3,-0.5,0.3,-1.1,0.2" class="g8_3" />
<path d="M637.7,346.1c0.5,0.2,0.8,0.3,0.9,0.9" class="g8_3" />
<path d="M647,356.6l-12.1,-4.8" class="g10_3" />
<path d="M637,346.4l12.1,4.8" class="g10_3" />
<path d="M640.7,354.1c-1.1,-0.4,-1.4,-2.2,-0.9,-3.6c0.4,-1.4,1.7,-2.3,2.7,-1.9" class="g8_3" />
<path d="M642.2,354.7c-1,-0.4,-1.3,-2.2,-0.8,-3.6c0.4,-1.4,1.7,-2.3,2.7,-1.9" class="g8_3" />
<path d="M643.9,355.4c-1,-0.4,-1.3,-2.3,-0.8,-3.7c0.5,-1.4,1.7,-2.1,2.7,-1.8" class="g8_3" />
<path d="M645.6,356.1c-1.1,-0.4,-1.4,-2.2,-0.9,-3.6c0.4,-1.4,1.7,-2.3,2.7,-1.9" class="g8_3" />
<path d="M647,356.6c-1.1,-0.3,-1.2,-2.1,-0.7,-3.5c0.4,-1.4,1.6,-2.3,2.7,-1.9" class="g8_3" />
<path d="M637.2,352.6c-1.1,-0.3,-1.4,-2.2,-0.9,-3.6c0.4,-1.4,1.7,-2.2,2.7,-1.9" class="g8_3" />
<path d="M638.8,353.3c-1,-0.3,-1.3,-2.3,-0.8,-3.7c0.5,-1.4,1.7,-2.1,2.7,-1.8" class="g8_3" />
<path d="M542.3,401.1c-2.2,-0.8,-3.2,-3.8,-2.1,-6.8c1,-3,3.6,-4.8,5.9,-4.1" class="g10_3" />
<path d="M546.1,390.2c2.2,0.8,3.2,3.9,2.2,6.9c-1.1,3,-3.7,4.8,-6,4" class="g10_3" />
<path d="M543.4,401.3c-2.2,-0.8,-3.3,-3.6,-2.3,-6.7c1.1,-3,3.7,-4.7,5.9,-3.9" class="g8_3" />
<path d="M545.5,393.8l0.7,-0.1l0.4,1.8l1.1,-0.3l0.1,0.9l-1.2,0.8l-0.2,1.7l-0.9,0.3l-0.1,-1.6l-1.5,0.2l0,-1l1.5,-0.6Z" class="g8_3" />
<path d="M526.3,392.6c-1.5,-0.4,-2.4,-2.4,-1.9,-4.5c0.5,-2.1,2.2,-3.4,3.8,-3" class="g10_3" />
<path d="M527.5,392.1c-0.2,0.2,-0.6,0.6,-1.2,0.5" class="g8_3" />
<path d="M528.2,385.1c0.7,0.1,1.1,0.7,1.3,1.4" class="g8_3" />
<path d="M526.2,391.5c-0.2,0.3,-0.5,0.4,-1,0.3" class="g8_3" />
<path d="M527.2,385c0.6,0.1,0.9,0.3,1,0.9" class="g8_3" />
<path d="M539.7,396.9l-15.2,-6.1" class="g10_3" />
<path d="M526.4,385.3l15.4,6.2" class="g10_3" />
<path d="M533.4,394.4c-1,-0.4,-1.3,-2.2,-0.9,-3.6c0.5,-1.4,1.7,-2.3,2.8,-1.9" class="g8_3" />
<path d="M535,395c-1,-0.4,-1.3,-2.2,-0.9,-3.6c0.5,-1.4,1.7,-2.3,2.8,-1.9" class="g8_3" />
<path d="M536.7,395.7c-1.1,-0.4,-1.3,-2.3,-0.9,-3.7c0.5,-1.4,1.7,-2.1,2.8,-1.8" class="g8_3" />
<path d="M538.3,396.4c-1,-0.4,-1.3,-2.2,-0.9,-3.6c0.5,-1.4,1.7,-2.3,2.8,-1.9" class="g8_3" />
<path d="M539.7,396.9c-1,-0.3,-1.1,-2.1,-0.7,-3.5c0.5,-1.4,1.7,-2.3,2.8,-1.9" class="g8_3" />
<path d="M528.3,392.3c-1,-0.3,-1.3,-2.2,-0.8,-3.6c0.4,-1.4,1.6,-2.2,2.7,-1.9" class="g8_3" />
<path d="M529.9,392.9c-1,-0.3,-1.3,-2.2,-0.9,-3.6c0.5,-1.4,1.7,-2.2,2.8,-1.9" class="g8_3" />
<path d="M531.6,393.6c-1.1,-0.3,-1.3,-2.3,-0.8,-3.7c0.4,-1.4,1.6,-2.1,2.7,-1.8" class="g8_3" />
<path d="M526.6,391.6c-1,-0.3,-1.3,-2.2,-0.9,-3.6c0.5,-1.4,1.7,-2.2,2.8,-1.9" class="g8_3" />
<path d="M667,376.8l-31,10.8" class="g10_3" />
<path d="M643.5,388.7l-7.5,2.5" class="g10_3" />
<path d="M644.1,389.4l-7.9,2.8" class="g8_3" />
<path d="M644.5,438.3l-8.5,3.2" class="g10_3" />
<path d="M666.5,434.3L636.3,445" class="g10_3" />
<path d="M667.1,435l-30.8,10.9" class="g8_3" />
<path d="M671.8,368.8l0,3.8" class="g10_3" />
<path d="M670,365.6c0,0,1.8,1.1,1.8,3.2" class="g10_3" />
<path d="M667,376.8l4,-2.7" class="g10_3" />
<path d="M671,374.1c0,0,0.7,-0.6,0.8,-1.5" class="g10_3" />
<path d="M646.3,389c0,0,1.2,0.2,1.2,1.4" class="g10_3" />
<path d="M647.4,389.8l0.1,0.6" class="g10_3" />
<path d="M646.3,389c0,0,1,0.3,1.2,1.4" class="g10_3" />
<path d="M643.2,388.8l0.9,0.6" class="g8_3" />
<path d="M636,387.6l0,4.6" class="g10_3" />
<path d="M666.5,434.3l3.1,-0.1" class="g10_3" />
<path d="M667.1,435l3.5,-0.1" class="g8_3" />
<path d="M669.6,434.2c0,0,2,0.3,2.1,1.4" class="g10_3" />
<path d="M671.7,435.6l0.1,1.2" class="g10_3" />
<path d="M670.6,434.9c0,0,0.9,0,1.1,0.7" class="g8_3" />
<path d="M666.5,434.3l0.6,0.7" class="g8_3" />
<path d="M644.5,438.3l1.1,-0.5c0,0,1.8,-1,1.8,-2.4" class="g10_3" />
<path d="M636,441.5l-0.1,4.6" class="g10_3" />
<path d="M647.4,430.5l13.9,5.6" class="g10_3" />
<path d="M564.3,460.3l-47,16.7" class="g10_3" />
<path d="M562.6,464.7l-22.8,7.9" class="g10_3" />
<path d="M564.2,465l-23.1,8.2" class="g8_3" />
<path d="M670.7,441.3L540.6,487.4" class="g10_3" />
<path d="M644.1,452.8l-101.5,36m-9.1,3.2l-13.1,4.7" class="g10_3" />
<path d="M564.2,462.4c0,0,0.1,1.3,-1.6,2.3" class="g10_3" />
<path d="M565.5,463.1c0,0,0.1,1.2,-1.3,1.9" class="g8_3" />
<path d="M517.3,477l21.4,8.7" class="g8_3" />
<path d="M518.2,479l20.6,8.5" class="g10_3" />
<path d="M539.8,472.6l0,12.6" class="g10_3" />
<path d="M541.1,473.2l0.1,12.3" class="g8_3" />
<path d="M538.7,485.7c0,0,0.9,0.4,1.1,-0.5" class="g10_3" />
<path d="M541.2,485.5c0,0,0.1,1.1,-0.8,1.9" class="g8_3" />
<path d="M538.8,487.5c0,0,0.6,0.3,1.8,-0.1" class="g10_3" />
<path d="M539.8,472.6l1.3,0.6" class="g8_3" />
<path d="M517,479.7l0.1,14.7" class="g8_3" />
<path d="M515.8,478.6l0,15.8" class="g10_3" />
<path d="M536.1,495.2c-2.2,-0.8,-3.2,-3.8,-2.2,-6.8c0.3,-0.9,0.8,-1.7,1.3,-2.3" class="g10_3" />
<path d="M542.2,486.9c0.4,1.2,0.4,2.8,-0.1,4.3c-1.1,3,-3.7,4.8,-6,4" class="g10_3" />
<path d="M537.2,495.4c-2.2,-0.8,-3.3,-3.6,-2.3,-6.7c0.3,-0.8,0.8,-1.6,1.3,-2.2" class="g8_3" />
<path d="M539.3,487.9l0.7,-0.2l0.4,1.9l1.1,-0.3l0.1,0.9l-1.2,0.8l-0.2,1.7l-0.9,0.3l-0.1,-1.6l-1.5,0.2l0,-1l1.5,-0.6Z" class="g8_3" />
<path d="M526.6,489.1c-1.6,-0.4,-2.4,-2.4,-1.9,-4.5c0.2,-0.9,0.7,-1.7,1.3,-2.3" class="g10_3" />
<path d="M527.8,488.6c-0.2,0.3,-0.7,0.6,-1.2,0.5" class="g8_3" />
<path d="M526.5,488.1c-0.2,0.3,-0.5,0.3,-1.1,0.2" class="g8_3" />
<path d="M533.5,491l-7.1,-2.9" class="g10_3" />
<path d="M530.5,489.8c-1.1,-0.4,-1.3,-2.3,-0.9,-3.7c0.3,-0.8,0.8,-1.4,1.4,-1.7" class="g8_3" />
<path d="M532.1,490.5c-1,-0.4,-1.3,-2.2,-0.9,-3.6c0.3,-0.8,0.8,-1.5,1.4,-1.8" class="g8_3" />
<path d="M533.5,491c-1,-0.3,-1.1,-2.1,-0.7,-3.5c0.3,-0.8,0.8,-1.5,1.4,-1.8" class="g8_3" />
<path d="M528.6,488.8c-1.1,-0.3,-1.3,-2.2,-0.9,-3.5c0.3,-0.8,0.7,-1.4,1.3,-1.7" class="g8_3" />
<path d="M526.7,488.2c-1,-0.3,-1.2,-2.2,-0.7,-3.6c0.2,-0.8,0.7,-1.4,1.3,-1.7" class="g8_3" />
<path d="M515.8,478.6c0,-0.2,0.2,-0.7,0.6,-1.1c0.3,-0.3,0.8,-0.5,0.9,-0.5" class="g10_3" />
<path d="M517,479.7c0,0,0.1,-1.1,1.2,-0.7" class="g10_3" />
<path d="M646.6,456.2c-1.9,-0.6,-2.9,-2.9,-2.5,-5.4" class="g10_3" />
<path d="M652.6,447.7c0.5,1.3,0.5,2.9,-0.1,4.5c-1,3,-3.6,4.8,-5.9,4" class="g10_3" />
<path d="M647.7,456.4c-2.1,-0.7,-3.2,-3.3,-2.5,-6.1" class="g8_3" />
<path d="M649.7,448.9l0.8,-0.2l0.3,1.9l1.2,-0.3l0.1,0.9l-1.2,0.8l-0.2,1.7l-1,0.3l0,-1.6l-1.5,0.2l-0.1,-1l1.6,-0.6Z" class="g8_3" />
<path d="M515.8,494.4c0,0,0.1,1.8,2,2.3c1.9,0.4,2.6,0,2.6,0" class="g10_3" />
<path d="M517.1,494.4c0,0,0.1,2,1.2,2.4" class="g10_3" />
<path d="M642.6,451.2l1.4,0.6" class="g10_3" />
<path d="M671.8,436.8l0,2.6c0,0,0,1.4,-1.1,1.9" class="g10_3" />
<path d="M665.2,367.7l-122.8,43" class="g8_3" />
<path d="M665.3,371L543.8,413.2" class="g8_3" />
<path d="M578.1,462L552,471.1" class="g10_3" />
<path d="M578.1,466.5l0,-4.5" class="g8_3" />
<path d="M552,475.8l26.1,-9.3" class="g8_3" />
<path d="M552,471.1l0,4.7" class="g10_3" />
<path d="M552,474.9l24.9,-8.8" class="g10_3" />
<path d="M576.9,462.5l0,3.6" class="g10_3" />
<path d="M576.9,466.1l1.2,0.4" class="g8_3" />
<path d="M643.2,337.8c0.2,0,0.9,-0.1,1.5,-0.1c0.5,0,0.9,0.2,1.1,0.3c0.1,0.1,0.9,0.3,1.3,0.8c0.4,0.5,0.5,1.3,0.5,1.4c0,0.2,0,10.4,0,10.4" class="g10_3" />
<path d="M654.2,359.1l15.8,6.5" class="g10_3" />
<path d="M644.1,389.4c0,0,0.9,-0.3,2.6,-0.2" class="g8_3" />
<path d="M643.5,388.7c0,0,1.3,-0.4,2.8,0.3" class="g10_3" />
<path d="M476.9,377.8c0,0,0.2,0.2,0.1,0.5c0,0,-0.1,0.1,-0.2,0.1c-0.2,0.1,-8.7,3.1,-8.7,3.1c0,0,-0.6,0.2,-1,0.5c-0.2,0.2,-0.3,0.4,-0.3,0.5c0,0.1,0,3,0,3l2.6,1.2c0,0,0.7,0.2,1.5,0.2c0.7,0,1.4,-0.2,1.5,-0.2c0.2,-0.1,21.6,-7.8,21.6,-7.8l0,-2.9c0,0,0,-0.1,-0.1,-0.2c-0.2,-0.2,-0.6,-0.4,-0.6,-0.4c-0.2,-0.1,-1.5,-0.6,-1.5,-0.6l59,-20.7l-0.1,2.1l2.5,1c0,0,0.7,0.3,1.5,0.3c0.7,0,1.4,-0.2,1.6,-0.3c0.5,-0.2,97.2,-34.1,97.2,-34.1c0,0,1,-0.3,1.2,0.1" class="g10_3" />
<path d="M452,385.9l23.3,-8.2c0,0,1.2,-0.4,1.6,0.1" class="g8_3" />
<path d="M491.8,374.8l-2.9,-1.3c0,0,-0.4,-0.3,0,-0.5" class="g10_3" />
<path d="M466.8,382.8l2.9,1.2c0,0,0.7,0.1,1.3,0.1c0.6,0,1.1,-0.2,1.3,-0.2c0.3,-0.1,21.6,-7.6,21.6,-7.6" class="g8_3" />
<path d="M488.9,373l70.2,-24.7c0,0,0.9,-0.2,1.4,0" class="g8_3" />
<path d="M560.5,348.3c0,0,0.3,0.2,0.3,0.4c0.1,0.2,-0.1,0.3,-0.2,0.4c-0.3,0.1,-9.1,3.2,-9.1,3.2c0,0,-0.3,0.1,-0.5,0.3c-0.2,0.2,-0.2,0.4,-0.2,0.5c-0.1,0.2,0,1,0,1" class="g10_3" />
<path d="M550.8,353.4l2.5,1.1c0,0,0.7,0.3,1.4,0.3c0.6,0,1.3,-0.3,1.5,-0.3c0.4,-0.2,98.5,-34.6,98.5,-34.6" class="g8_3" />
<path d="M470.5,384.5l0,1" class="g8_3" />
<path d="M471.5,384.5l0,1" class="g8_3" />
<path d="M554.5,355.5l0,1" class="g8_3" />
<path d="M555.5,355.5l0,1" class="g8_3" />
<path d="M452,385.9c-0.1,0,-0.3,0.1,-0.4,0.3c0,0.2,0.3,0.4,0.3,0.4c0.2,0.1,4.8,1.9,4.8,1.9c0,0,0.2,0.1,0.3,0.2c0.1,0.1,0.1,0.2,0.1,0.3c0,0.2,0,2.5,0,2.5c0,0,0,0.2,-0.2,0.4c-0.2,0.2,-0.6,0.4,-0.7,0.4c-0.2,0.1,-37.4,13.1,-37.4,13.1c0,0,-1.1,0.3,-1.8,0.9c-0.7,0.5,-0.8,1.5,-0.8,1.6c0,0.3,0,47.5,0,47.5c0,0,0.1,1.1,0.9,1.2" class="g10_3" />
<path d="M455,387.8l11.8,-4.1" class="g10_3" />
<path d="M456.3,388.4l10.5,-3.7" class="g10_3" />
<path d="M480.1,405.9c-1.4,-0.5,-1.8,-2.6,-1,-4.8c0.7,-2.2,2.5,-3.5,3.9,-3" class="g10_3" />
<path d="M483,398.1c1.4,0.5,1.9,2.7,1.1,4.8c-0.8,2.2,-2.6,3.6,-4,3" class="g10_3" />
<path d="M481.7,403.4l0.9,-1.1l0,-1.5l-1.1,-0.4" class="g8_3" />
<path d="M481.5,400.4l-0.8,1.1l0,1.5l1,0.4" class="g8_3" />
<path d="M482.6,402.3l-1.9,-0.8" class="g8_3" />
<path d="M481.7,403.4l-1,-1.4" class="g8_3" />
<path d="M482.6,400.8l-1.5,0.2" class="g8_3" />
<path d="M423.7,403.7l-1.1,41.2l-6.4,2.4" class="g10_3" />
<path d="M424.2,403.5l-1,41.3" class="g8_3" />
<path d="M423.5,444.7l8.7,-3.2l0,-24.1c0,0,0.1,-3.1,1.7,-5.4c1.5,-2.2,3.5,-3.6,4.7,-3.7c0.5,0,1.6,0.8,2.1,2c0.7,1.2,0.5,2.9,0.5,3.1c0,0.4,0.1,22.5,0.1,22.5" class="g10_3" />
<path d="M438.6,408.1c0.3,0,2.1,0,3.4,1.2c1.2,1.1,1.6,3.1,1.6,3.9c0,0.5,0,24.3,0,24.3" class="g8_3" />
<path d="M416.2,447.8l16.6,-5.9l0,-1.4l10.3,-3.7l0,1.5l18.8,-6.6l0,-1.5l10.5,-3.7l0,1.5l55,-19.4" class="g8_3" />
<path d="M432.8,440.5c0,0,-0.4,-0.2,-0.5,-0.2" class="g8_3" />
<path d="M443.1,436.8l-1.8,-0.9" class="g8_3" />
<path d="M461.9,430.2L461.4,430" class="g8_3" />
<path d="M472.4,426.5l-2,-0.8" class="g8_3" />
<path d="M443.7,437.4l17.7,-6.2" class="g10_3" />
<path d="M467.8,397.8c0.3,-0.1,2,-0.1,3.3,1.2c1.2,1,1.6,3.1,1.6,3.8c0,0.5,0.1,24.3,0.1,24.3" class="g8_3" />
<path d="M462,430.1c0,0,-0.5,-0.2,-0.5,-0.2" class="g8_3" />
<path d="M472.2,426.4l-1.8,-0.9" class="g8_3" />
<path d="M461.4,431.2l0,-24.2c0,0,0.1,-3.1,1.6,-5.3c1.5,-2.2,3.6,-3.6,4.7,-3.7c0.5,-0.1,1.6,0.7,2.2,1.9c0.6,1.3,0.4,3,0.4,3.2c0,0.4,0.1,22.4,0.1,22.4" class="g10_3" />
<path d="M472.9,427.1l12,-4.2l-1.1,-40.3" class="g10_3" />
<path d="M484.3,382.4l1.1,40.6" class="g8_3" />
<path d="M485.5,422.8l41.2,-14.5" class="g10_3" />
<path d="M462.1,403.4l8.2,3.3" class="g10_3" />
<path d="M461.4,412.4l9,3.8" class="g10_3" />
<path d="M461.4,413.3l9,3.8" class="g8_3" />
<path d="M461.3,414.9l9.1,3.8" class="g8_3" />
<path d="M416.2,448.9L528.8,409.2" class="g10_3" />
<path d="M452,439.4c-0.1,0,-0.3,0.2,-0.3,0.4c0,0.1,0.2,0.2,0.2,0.3c0.2,0,4.7,1.9,4.7,1.9c0,0,0.3,0.1,0.4,0.2c0.1,0.2,0.1,0.3,0.1,0.4c0,0.1,0,2.4,0,2.4c0,0,0,0.2,-0.1,0.4c-0.2,0.2,-0.5,0.3,-0.6,0.3c-0.1,0.1,-38.8,13.7,-38.8,13.7c0,0,-1.5,0.1,-2,-0.1c-0.5,-0.2,-41,-16.5,-41,-16.5" class="g10_3" />
<path d="M477,431.2c0,0,0.3,0.1,0.2,0.4c0,0.1,-0.2,0.2,-0.3,0.3c-0.3,0.1,-9.3,3.4,-9.3,3.4c0,0,-0.4,0.2,-0.6,0.4c-0.2,0.1,-0.2,0.3,-0.2,0.4c0,0.2,0,2.6,0,2.6c0,0,0.1,0.1,0.1,0.2c0.1,0.1,0.2,0.2,0.3,0.2c0.2,0.1,2.5,1.1,2.5,1.1c0,0,0.7,0.2,1.3,0.2c0.6,0,1.2,-0.2,1.3,-0.3c0.3,-0.1,21.3,-7.5,21.3,-7.5c0,0,0.3,-0.1,0.4,-0.3c0.2,-0.1,0.2,-0.3,0.2,-0.4c0,-0.2,0,-2.4,0,-2.4c0,0,0,-0.2,-0.1,-0.3C494,429,493.7,429,493.6,428.9c-0.1,-0.1,-4.5,-1.9,-4.5,-1.9c0,0,-0.7,-0.4,0,-0.7" class="g10_3" />
<path d="M454.8,441.2l12,-4.2" class="g10_3" />
<path d="M452,439.4l23.4,-8.2c0,0,1,-0.4,1.5,-0.2" class="g8_3" />
<path d="M417.1,456.6l39.6,-13.8" class="g8_3" />
<path d="M466.8,436.2l2.9,1.1c0,0,0.6,0.2,1.3,0.2c0.6,0,1.2,-0.1,1.4,-0.2c0.4,-0.2,21.6,-7.7,21.6,-7.7" class="g8_3" />
<path d="M489.1,426.3L533,410.9" class="g8_3" />
<path d="M491.9,428.2l44.7,-15.8" class="g10_3" />
<path d="M643.5,326.5l0,11" class="g8_3" />
<path d="M645,326l0,11" class="g10_3" />
<path d="M657.4,360.3c-0.1,0.1,0,-37.5,0,-37.5c0,0,-0.1,-1,-0.6,-1.7c-0.4,-0.6,-1.2,-0.9,-1.4,-1C655,319.9,609.9,301.2,609.9,301.2" class="g10_3" />
<path d="M655.3,351.4l0,-27.1c0,0,0,-1,-0.3,-1.1" class="g8_3" />
<path d="M655.5,357.5l0,2" class="g8_3" />
<path d="M376.4,389.8l37.2,15.5" class="g8_3" />
<path d="M377.3,387.9l37.4,15.5" class="g8_3" />
<path d="M456.9,389.2L418,402.9c0,0,-1.9,0.7,-2.8,1.9c-1,1.3,-1.1,3.1,-1.1,3.2c0,0.1,0,48.5,0,48.5c0,0,0.1,2.2,1.3,2.6" class="g8_3" />
<path d="M827.2,563.5c-5.1,21.6,-46.9,38.4,-97.6,38.4c-36,0,-66.8,-8.6,-83.5,-21.3c-5.3,-4,-7.4,-8.6,-8.1,-13.4" class="g10_3" />
<path d="M827.9,558.9c0,1.5,-0.2,3,-0.5,4.5" class="g10_3" />
<path d="M827.3,573.3c-5.1,21.6,-46.8,38.4,-97.5,38.4c-36,0,-66.9,-8.6,-83.6,-21.3c-5.2,-4,-7.5,-8.5,-8.3,-13.2" class="g10_3" />
<path d="M827.4,583c-5.1,21.6,-47.5,38.2,-98.2,38.2c-36,0,-66.9,-8.6,-83.5,-21.3c-5.1,-3.8,-7,-8.1,-7.7,-12.6" class="g10_3" />
<path d="M827.5,592.9c-5.1,21.6,-46.8,38.4,-97.5,38.4c-36,0,-66.7,-8.8,-83.6,-21.3c-9,-6.6,-9.9,-15,-8.1,-22.3" class="g10_3" />
<path d="M816.7,558.9c1.4,15.4,-39.9,32.4,-86.2,31.8C684.2,590.1,648.9,576.9,648.9,563" class="g10_3" />
<path d="M655.6,573.3c12.4,-9.7,42.1,-16.4,75.5,-16.4c30.8,0,59.5,8.4,74.3,17.1" class="g10_3" />
<path d="M663.9,578.3c14.9,-7,42.8,-12.2,69.9,-11.7c24.5,0.5,47,6.1,62.6,12.2" class="g10_3" />
<path d="M638.1,567.9c0,0,-1.6,3.1,-0.2,9.3" class="g10_3" />
<path d="M638.1,578.2c0,0,-1.6,3.1,-0.2,9.3" class="g10_3" />
<path d="M827.2,563.5c0,0,1.3,2.3,0.1,9.8" class="g10_3" />
<path d="M827.2,573.3c0,0,1.4,2.2,0.2,9.7" class="g10_3" />
<path d="M827.3,583.5c0,0,1.3,2.3,0.1,9.8" class="g10_3" />
<path d="M827.4,593.3c0,0,5.7,16.2,-16.6,29.5" class="g10_3" />
<path d="M648.9,563c4.2,-13.7,42.3,-25.3,82.2,-25.1c40.3,0.1,78.6,15.2,83.9,26.1" class="g10_3" />
<path d="M650.8,568.6c7.3,-11.4,42,-21.4,80.3,-21.1c39.5,0.4,73.9,12.8,80.4,21.9" class="g10_3" />
<path d="M807.5,547.4c1.1,0.7,2.1,1.4,3.1,2.1c4.8,3.5,5.3,6.9,6.1,9.4" class="g10_3" />
<path d="M638,567.2c-1.2,-6.7,3.5,-18.5,16.9,-25.7c18.9,-10,50.2,-15.3,74.1,-14.9c17.4,0.4,35.4,1.2,50.5,5.9" class="g10_3" />
<path d="M827.8,558.8c0.3,1.3,0,-7.3,-5.5,-13.7c-7,-7.9,-19.9,-14.2,-23,-15.7" class="g10_3" />
<path d="M810.8,622.8C793.1,634,763.1,641,729.7,641c-25.5,0,-48.2,-4.3,-65.4,-11.3" class="g10_3" />
<path d="M562.4,575.9l85.5,35.2" class="g10_3" />
<path d="M559.2,586.4l105.1,43.3" class="g10_3" />
<path d="M557.9,588c-2.4,-1.4,-3,-5.5,-1.4,-9.3c1.7,-3.8,4.9,-5.7,7.4,-4.3" class="g8_3" />
<path d="M562.2,587.6c-1.4,0.9,-3,1.2,-4.3,0.4" class="g10_3" />
<path d="M563.9,574.4c1,0.6,1.7,1.6,2,3" class="g10_3" />
<path d="M559.2,586.5c-0.2,-0.1,-0.5,-0.3,-0.7,-0.4c-1.7,-1.1,-2,-4.2,-0.6,-6.9c1.1,-2.1,2.9,-3.3,4.5,-3.2" class="g8_3" />
<path d="M563.9,574.4L549.1,565c0,0,-0.4,-0.2,-0.8,-0.2" class="g10_3" />
<path d="M558.4,588.2l-10.5,-2.3c0,0,-0.3,-0.1,-0.6,-0.5" class="g10_3" />
<path d="M548.1,564.8c0,0,-0.2,-1,-0.6,-1.3" class="g10_3" />
<path d="M521.5,559.1l8.3,-3.1l17.7,7.5" class="g10_3" />
<path d="M538.6,566.2l-17.1,-7.1" class="g8_3" />
<path d="M547.4,567.4l-4.7,-0.8c0,0,-3.2,-0.1,-4.1,-0.4" class="g8_3" />
<path d="M548.1,564.8c0,0,1.9,1.7,1.7,2.2" class="g10_3" />
<path d="M547.4,567.4c0,0,2.1,0.1,2.4,-0.3" class="g8_3" />
<path d="M542.3,566.6c0,0,-1.4,2.2,3,7.7" class="g8_3" />
<path d="M514.7,565.8l18,7.4c0,0,3.5,1.4,12.6,1.1" class="g8_3" />
<path d="M545.3,574.3c0.2,-0.1,-2,1.9,-1.8,5.5c0.1,3.1,3.4,5.7,3.8,5.6" class="g8_3" />
<path d="M544.5,585.8l-3.6,8c0,0,-1.5,2.3,-2.2,2.3" class="g8_3" />
<path d="M521.5,559.1l-6.8,6.7l0,11.2l18.5,7.6c0,0,5.7,1.7,14.1,0.8" class="g10_3" />
<path d="M520.1,579.2l1.4,9.7l17.2,7.2" class="g10_3" />
<path d="M553,587l-5,7.7" class="g10_3" />
<path d="M538.7,596.1c0,0,6.7,1.6,9.3,-1.4" class="g10_3" />
<path d="M529.8,556l6.6,1.9l18.5,7.8" class="g10_3" />
<path d="M554.9,565.7c0,0,2.7,1,2.2,4.4" class="g10_3" />
<path d="M510.6,564.9c-0.6,0.3,-1.4,-0.4,-1.6,-1.4c-0.3,-1,0,-2,0.7,-2.2" class="g8_3" />
<path d="M509.7,561.3c0.6,-0.2,1.4,0.4,1.6,1.4c0.3,1,0,2,-0.7,2.2" class="g10_3" />
<path d="M511.2,564.3c-0.4,-0.2,-0.7,-0.7,-0.9,-1.3c-0.1,-0.6,-0.1,-1.1,0,-1.5" class="g10_3" />
<path d="M520.2,560.4c-0.2,-0.3,-0.3,-0.6,-0.4,-0.9c-0.3,-1,0,-2,0.7,-2.2" class="g8_3" />
<path d="M520.5,557.3c0.7,-0.2,1.4,0.4,1.7,1.4" class="g10_3" />
<path d="M521.2,559.2c0,0,0,-0.1,0,-0.2c-0.2,-0.6,-0.2,-1.1,0,-1.5" class="g10_3" />
<path d="M508.3,565.9c-0.8,-0.7,-1.3,-1.9,-1.4,-3.4c-0.2,-2.3,0.9,-4.3,2.4,-4.4" class="g10_3" />
<path d="M518.9,561.7c-0.8,-0.7,-0.9,-1.7,-1,-3.1c-0.2,-2.4,0.8,-4.4,2.3,-4.5" class="g10_3" />
<path d="M520.2,554.1l7,2.9" class="g10_3" />
<path d="M519,554.7l6.8,2.8" class="g10_3" />
<path d="M509.3,558.1l9.3,3.8" class="g10_3" />
<path d="M508.1,558.6l9.8,4.1" class="g10_3" />
<path d="M508.3,565.9l6.4,2.8" class="g10_3" />
<path d="M514.7,570.8l-3.5,-1.5" class="g10_3" />
<path d="M514.7,576.9l-5.4,-2.3" class="g10_3" />
<path d="M509.3,574.6c-0.9,-0.5,-1.4,-1.4,-1.4,-2.5c0,-1.6,1.2,-2.8,2.7,-2.8c0.2,0,0.4,0,0.6,0" class="g10_3" />
<path d="M640.6,386c2.2,1.9,0.9,0.7,3,2.7m3.9,3.3c2.3,2.4,4.8,5.8,7.6,8.8c21.2,22.7,26.6,29.6,45.4,53.9" class="g10_3" />
<path d="M652.4,381.8c3.2,3,6.7,6.4,10.5,10.5C684,415,689.4,422,708.3,446.2" class="g10_3" />
<path d="M700.5,454.7c-0.4,-0.6,22.7,31.9,49.7,56.3c19,17.4,44.6,29.2,44.6,29.2" class="g10_3" />
<path d="M708.3,446.2c-0.5,-0.6,23.1,32.6,50.1,57.1c14.2,13,32.6,22.2,40.9,26.1" class="g10_3" />
<path d="M794.8,540.2c0,0,7.8,3.3,12.7,7.2" class="g10_3" />
<path fill-rule="evenodd" d="M529.2,467.9l9.6,-4l0,-5L512,447.9l10.3,-3.8l10.1,4l4.3,-13.3l0.1,-5.1L502,431l-0.1,5l4,1.5l-20.3,7.6l0,5Z" class="g12_3" />
<path fill-rule="evenodd" d="M529.1,462.8l9.7,-3.9L505.4,445.3l16.9,-6.2l10.1,4l4.4,-13.4L502,431l10.7,4.1l-27.1,10.1Z" class="g13_3" />
<path d="M485.6,445.1l43.5,17.6" class="g8_3" />
<path d="M512.7,435.1l-20.3,7.1" class="g8_3" />
<path d="M522.3,439.1L505.4,445" class="g8_3" />
<path d="M538.8,458.9l-9.7,3.8" class="g8_3" />
<path d="M532.4,443.1l4.4,-13.4L502,431l10.7,4.1" class="g8_3" />
<path d="M532.4,443.1l-10.1,-4" class="g8_3" />
<path d="M485.6,450.1l43.5,17.6" class="g8_3" />
<path d="M522.3,444.1l-3.5,1.2" class="g8_3" />
<path d="M532.4,448.1l4.3,-13.3l0.1,-5.1L502,431l-0.1,5l4,1.5" class="g8_3" />
<path d="M532.4,448.1l-10.1,-4" class="g8_3" />
<path d="M522.3,439.1l0.1,4.7" class="g8_3" />
<path d="M529.1,462.7l0.1,4.7" class="g8_3" />
<path d="M505.4,445.2l33.4,13.7l0,5l-9.7,3.7L485.6,450.1l0,-5l27.1,-10" class="g10_3" />
<path d="M505.9,437.5l-4,-1.5l0.1,-5l34.8,-1.3l-0.1,5.1l-4.3,13.3l-10.1,-4l-10.5,3.7" class="g10_3" />
<path d="M532.4,443.1l0,4.7" class="g8_3" />
<path d="M517.1,756.9l-0.1,2.4l2.8,1.1c0,0,0.8,0.3,1.7,0.3c0.7,0,1.6,-0.3,1.8,-0.3c0.6,-0.2,109,-38.3,109,-38.3c0,0,1.1,-0.3,1.4,0.1" class="g10_3" />
<path d="M434.3,782.7c0,0,0,1,0.1,1.3c0,0.1,-0.2,0.1,-0.3,0.1c-0.2,0.1,-9.7,3.5,-9.7,3.5c0,0,-0.7,0.3,-1.2,0.6c-0.2,0.2,-0.3,0.4,-0.3,0.5c0,0.2,0,3.4,0,3.4l2.9,1.3c0,0,0.8,0.3,1.7,0.3c0.7,0,1.5,-0.2,1.6,-0.3c0.3,-0.1,24.3,-8.7,24.3,-8.7l0,-3.2c0,0,0,-0.2,-0.1,-0.3c-0.2,-0.2,-0.6,-0.4,-0.7,-0.4c-0.2,-0.1,-1.6,-0.7,-1.6,-0.7l11.3,-4" class="g10_3" />
<path d="M451,780.1l-3.3,-1.4c0,0,-0.5,-0.4,0,-0.7" class="g10_3" />
<path d="M422.9,789l3.2,1.4c0,0,0.8,0.2,1.5,0.2c0.6,0,1.2,-0.3,1.4,-0.3c0.3,-0.1,24.3,-8.5,24.3,-8.5" class="g8_3" />
<path d="M528.4,750.3c0,0,0,0.4,0,0.5c-0.1,0.2,-0.2,0.4,-0.3,0.4c-0.3,0.2,-10.2,3.7,-10.2,3.7c0,0,-0.4,0.1,-0.6,0.3c-0.2,0.2,-0.2,0.4,-0.2,0.5c0,0.2,0,1.2,0,1.2" class="g10_3" />
<path d="M517.1,756.1l2.8,1.2c0,0,0.8,0.3,1.6,0.3c0.7,0,1.5,-0.2,1.7,-0.3c0.5,-0.2,110.5,-38.8,110.5,-38.8" class="g8_3" />
<path d="M426.5,791.5l0,1" class="g8_3" />
<path d="M428.5,791.5l0,1" class="g8_3" />
<path d="M520.5,758.5l0,1" class="g8_3" />
<path d="M522.5,758.5l0,1" class="g8_3" />
<path d="M406.3,792.5c-0.1,0.1,-0.4,0.1,-0.4,0.4c-0.1,0.3,0.2,0.4,0.3,0.5c0.2,0.1,5.3,2.1,5.3,2.1c0,0,0.2,0.1,0.3,0.2c0.1,0.1,0.2,0.3,0.2,0.4c0,0.2,0,2.8,0,2.8c0,0,0,0.2,-0.2,0.4c-0.2,0.2,-0.7,0.4,-0.8,0.5c-0.2,0,-42,14.6,-42,14.6c0,0,-1.2,0.4,-2,1c-0.7,0.6,-0.9,1.7,-0.9,1.9c0,0.3,0.1,53.2,0.1,53.2c0,0,0,1.2,0.9,1.4" class="g10_3" />
<path d="M409.6,794.7L420.4,791" class="g10_3" />
<path d="M411.1,795.3l9.3,-3.3" class="g10_3" />
<path d="M437.8,815c-1.5,-0.5,-2.1,-3,-1.2,-5.4c0.9,-2.4,2.9,-4,4.5,-3.4" class="g10_3" />
<path d="M441.1,806.2c1.5,0.6,2.1,3,1.2,5.5c-0.9,2.4,-2.9,3.9,-4.5,3.3" class="g10_3" />
<path d="M439.6,812.2l1,-1.3l0,-1.7l-1.2,-0.3" class="g8_3" />
<path d="M439.4,808.9l-1,1.2l0,1.7l1.2,0.4" class="g8_3" />
<path d="M440.6,810.9l-2.2,-0.8" class="g8_3" />
<path d="M439.6,812.2l-1.2,-1.5" class="g8_3" />
<path d="M440.6,809.2l-1.7,0.3" class="g8_3" />
<path d="M374.5,812.5l-1.2,46.3l-7.2,2.6" class="g10_3" />
<path d="M375.1,812.3L374,858.6" class="g8_3" />
<path d="M374.3,858.5L384,855l0.1,-27.1c0,0,0.1,-3.5,1.8,-6.1c1.7,-2.5,4,-4,5.3,-4.1c0.6,-0.1,1.8,0.9,2.4,2.2c0.7,1.4,0.5,3.3,0.5,3.5c0,0.5,0.1,25.2,0.1,25.2" class="g10_3" />
<path d="M391.3,817.5c0.3,-0.1,2.2,0,3.7,1.3c1.3,1.2,1.8,3.5,1.8,4.3c0,0.6,0,27.3,0,27.3" class="g8_3" />
<path d="M366.1,862l18.6,-6.7l0,-1.5l11.5,-4.2l0,1.7l21.2,-7.4l0,-1.7l11.7,-4.1l0,1.7L448,833.1" class="g8_3" />
<path d="M384.7,853.8c0,0,-0.5,-0.2,-0.5,-0.3" class="g8_3" />
<path d="M396.2,849.6l-2,-1" class="g8_3" />
<path d="M417.4,842.2l-0.5,-0.1" class="g8_3" />
<path d="M429.1,838.1l-2.2,-0.9" class="g8_3" />
<path d="M397,850.4l19.8,-7" class="g10_3" />
<path d="M424,805.9c0.4,-0.1,2.3,-0.1,3.8,1.3c1.3,1.2,1.7,3.5,1.7,4.3c0,0.6,0.1,27.3,0.1,27.3" class="g8_3" />
<path d="M417.4,842.2c0,0,-0.4,-0.3,-0.5,-0.3" class="g8_3" />
<path d="M429,838l-2,-1" class="g8_3" />
<path d="M416.8,843.4l0,-27.1c0,0,0.1,-3.5,1.8,-6.1c1.7,-2.4,4,-4,5.3,-4.1c0.6,0,1.8,0.9,2.5,2.2c0.6,1.4,0.5,3.3,0.4,3.5c0,0.5,0.1,25.1,0.1,25.1" class="g10_3" />
<path d="M429.8,838.7L443.1,834L442,788.8" class="g10_3" />
<path d="M442.5,788.6l1.3,45.5" class="g8_3" />
<path d="M443.9,834l4,-1.4" class="g10_3" />
<path d="M417.7,812.2l9.2,3.7" class="g10_3" />
<path d="M416.8,822.3l10.1,4.2" class="g10_3" />
<path d="M416.8,823.3l10.1,4.2" class="g8_3" />
<path d="M416.8,825.1l10.1,4.3" class="g8_3" />
<path d="M366.1,863.1l81.6,-28.6" class="g10_3" />
<path d="M406.2,852.5c-0.1,0.1,-0.3,0.3,-0.3,0.5c0,0.2,0.2,0.3,0.3,0.3c0.2,0.1,5.3,2.2,5.3,2.2c0,0,0.2,0.1,0.4,0.3c0.1,0.1,0.1,0.3,0.1,0.3c0,0.1,0,2.7,0,2.7c0,0,0,0.3,-0.1,0.5c-0.2,0.2,-0.6,0.3,-0.7,0.4c-0.1,0.1,-43.5,15.3,-43.5,15.3c0,0,-1.7,0.2,-2.3,-0.1c-0.6,-0.2,-47.6,-19.2,-47.6,-19.2" class="g10_3" />
<path d="M434.5,843.5c0.1,0.1,0.1,0.3,0.1,0.3c0,0.1,-0.3,0.3,-0.4,0.3c-0.3,0.2,-10.4,3.8,-10.4,3.8c0,0,-0.5,0.3,-0.7,0.5c-0.2,0.2,-0.2,0.4,-0.2,0.5c0,0.2,0,2.9,0,2.9c0,0,0,0.1,0.1,0.3c0.1,0.1,0.2,0.1,0.3,0.2c0.2,0.1,2.9,1.1,2.9,1.1c0,0,0.7,0.3,1.4,0.3c0.6,0,1.3,-0.2,1.5,-0.3c0.3,-0.1,23.8,-8.4,23.8,-8.4c0,0,0.4,-0.1,0.5,-0.3c0.2,-0.2,0.2,-0.5,0.2,-0.6c0,-0.2,0,-2.6,0,-2.6c0,0,0,-0.2,-0.1,-0.4c-0.2,-0.2,-0.4,-0.2,-0.5,-0.3c-0.2,-0.1,-5.1,-2.1,-5.1,-2.1" class="g10_3" />
<path d="M409.5,854.6l11.2,-3.9" class="g10_3" />
<path d="M367.1,871.9l44.5,-15.5" class="g8_3" />
<path d="M422.9,849l3.2,1.3c0,0,0.7,0.2,1.4,0.2c0.7,0,1.5,-0.2,1.7,-0.3c0.4,-0.2,24.2,-8.6,24.2,-8.6" class="g8_3" />
<path d="M451.1,840l11.2,-4" class="g10_3" />
<path d="M636.8,774.9c-0.1,0.1,-0.1,-53.1,-0.1,-53.1c0,0,-0.2,-1.1,-0.7,-2c-0.5,-0.6,-1.3,-1,-1.5,-1.1c-0.5,-0.2,-53,-21.9,-53,-21.9" class="g10_3" />
<path d="M634.6,775.3l0,-51.9c0,0,0,-1,-0.6,-1.2" class="g8_3" />
<path d="M319.4,796.4l42.4,17.9" class="g8_3" />
<path d="M320.5,794.6l42.6,17.9" class="g8_3" />
<path d="M411.7,796.2l-43.6,15.4c0,0,-2,0.8,-3.1,2.2c-1.1,1.4,-1.2,3.4,-1.2,3.5c0,0.2,0,54.5,0,54.5c0,0,0,2.4,1.4,2.9" class="g8_3" />
<path d="M406.5,792.5l14.2,-5" class="g8_3" />
<path d="M541.3,754l0,49.2" class="g10_3" />
<path d="M449.6,834.1l0,-48" class="g8_3" />
<path d="M448.1,833.3l0,-46.7" class="g10_3" />
<path d="M420.5,793.1l0,-13.3" class="g10_3" />
<path d="M422,793.9l0,-13.3" class="g8_3" />
<path d="M393.6,765.3l0,-17.8" class="g10_3" />
<path d="M395,765.2l0,-16.8" class="g8_3" />
<path d="M420.5,793.1c0,0,0.3,1.2,1.9,0.9" class="g10_3" />
<path d="M536.6,693.7L396.5,742.9" class="g10_3" />
<path d="M538.2,694.2l-139.6,49" class="g8_3" />
<path d="M396.5,742.9c0,0,-2.8,1.3,-2.9,4.6" class="g10_3" />
<path d="M395,748.4c0,0,-0.3,-3.6,3.6,-5.2" class="g8_3" />
<path d="M396.4,766.8l23.6,9.6" class="g8_3" />
<path d="M395.5,768.6l23.4,9.6" class="g10_3" />
<path d="M395,765.2c0,0,0.1,1,1.4,1.6" class="g8_3" />
<path d="M393.6,765.3c0,0,-0.1,2.3,1.9,3.3" class="g10_3" />
<path d="M420,776.4c0,0,2,1.3,2,4.2" class="g8_3" />
<path d="M418.9,778.2c0,0,1.3,0.5,1.6,1.6" class="g10_3" />
<path d="M463.6,772.6l-29.3,10.1" class="g10_3" />
<path d="M463.8,777.5l0,-5" class="g8_3" />
<path d="M453.3,781.2l10.5,-3.7" class="g8_3" />
<path d="M452.5,780.5l9.8,-3.5" class="g10_3" />
<path d="M462.3,773l0,4" class="g10_3" />
<path d="M462.3,777l1.5,0.5" class="g8_3" />
<path d="M535.5,717.6L398.1,765.9" class="g8_3" />
<path d="M529.3,711.5c-1.7,-0.4,-2.7,-2.7,-2.1,-5c0.6,-2.3,2.4,-3.8,4.2,-3.4" class="g10_3" />
<path d="M530.7,710.9c-0.3,0.4,-0.8,0.8,-1.4,0.6" class="g8_3" />
<path d="M531.4,703.1c0.8,0.2,1.3,0.8,1.4,1.6" class="g8_3" />
<path d="M529.2,710.4c-0.2,0.3,-0.6,0.4,-1.2,0.2" class="g8_3" />
<path d="M530.3,703c0.6,0.2,1,0.3,1.1,1" class="g8_3" />
<path d="M405.4,755.1c-1.7,-0.4,-2.7,-2.6,-2.1,-5c0.6,-2.3,2.4,-3.8,4.2,-3.4" class="g10_3" />
<path d="M406.8,754.6c-0.3,0.3,-0.8,0.7,-1.4,0.5" class="g8_3" />
<path d="M407.5,746.7c0.8,0.2,1.3,0.8,1.4,1.6" class="g8_3" />
<path d="M405.3,754c-0.2,0.3,-0.6,0.4,-1.2,0.2" class="g8_3" />
<path d="M406.4,746.7c0.7,0.1,1,0.2,1.1,1" class="g8_3" />
<path d="M563.2,737.4l-34.8,12.2" class="g10_3" />
<path d="M538,806.5l-9.6,3.5" class="g10_3" />
<path d="M568.6,728.5l0,4.2" class="g10_3" />
<path d="M566.6,724.9c0,0,2,1.2,2,3.6" class="g10_3" />
<path d="M563.2,737.4l4.5,-2.9" class="g10_3" />
<path d="M567.7,734.5c0,0,0.8,-0.8,0.9,-1.8" class="g10_3" />
<path d="M528.4,749.6l0,1.5" class="g10_3" />
<path d="M538,806.5l1.2,-0.7c0,0,2.1,-1.1,2.1,-2.6" class="g10_3" />
<path d="M528.4,810l0,0.7" class="g10_3" />
<path d="M446.1,836l-25.2,8.6" class="g10_3" />
<path d="M447.8,836.1l-25.7,9.1" class="g8_3" />
<path d="M567.4,809.8L421.7,861.1c-0.7,0.3,-1.2,0.5,-2.5,0" class="g10_3" />
<path d="M537.5,822.8L423.7,863.1m-10.2,3.6l-14.7,5.2" class="g10_3" />
<path d="M448.1,833.3c0,0,-0.1,1.7,-2,2.7" class="g10_3" />
<path d="M449.6,834.1c0,0,-0.1,1.3,-1.8,2" class="g8_3" />
<path d="M412,856.1l7.2,2.9" class="g8_3" />
<path d="M420.9,844.6L420.8,858" class="g10_3" />
<path d="M422.1,845.2l0,14.2" class="g8_3" />
<path d="M419.2,859c0.1,0.1,1.6,0.6,1.6,-1" class="g10_3" />
<path d="M420.9,844.6l1.2,0.6" class="g8_3" />
<path d="M395.1,865.4l-0.1,4" class="g8_3" />
<path d="M393.6,865.9l0,3.4" class="g10_3" />
<path d="M540.4,826.5c-2.2,-0.7,-3.3,-3.3,-2.9,-6.1" class="g10_3" />
<path d="M547.1,817c0.5,1.4,0.5,3.2,-0.1,5c-1.1,3.4,-4.1,5.4,-6.6,4.5" class="g10_3" />
<path d="M541.5,826.7c-2.3,-0.8,-3.5,-3.6,-2.7,-6.8" class="g8_3" />
<path d="M543.9,818.3l0.8,-0.1l0.4,2l1.3,-0.3l0.1,1l-1.4,0.9l-0.2,1.9l-1,0.3l-0.1,-1.8l-1.7,0.3l0,-1.1l1.7,-0.7Z" class="g8_3" />
<path d="M393.6,869.3c0,0,0.1,2.1,2.2,2.6c2.2,0.5,3,0,3,0" class="g10_3" />
<path d="M395,869.4c0,0,0.2,2.2,1.4,2.6" class="g8_3" />
<path d="M535.8,820.9l1.6,0.7" class="g10_3" />
<path d="M568.5,804.3l0.1,3.4c0,0,0.1,1.6,-1.2,2.1" class="g10_3" />
<path d="M560,728.4L422.3,776.8" class="g8_3" />
<path d="M563.4,729.1L427,776.4" class="g8_3" />
<path d="M463.6,832.7l-29.4,10.5" class="g10_3" />
<path d="M463.8,837.8l0,-5.1" class="g8_3" />
<path d="M453.6,841.4l10.2,-3.6" class="g8_3" />
<path d="M452.8,840.7l9.6,-3.4" class="g10_3" />
<path d="M462.4,833.1l0,4.2" class="g10_3" />
<path d="M462.4,837.3l1.4,0.5" class="g8_3" />
<path d="M536.6,693.7c0.2,0,0.9,-0.1,1.6,-0.1c0.6,0,1.1,0.3,1.2,0.3c0.2,0.1,1,0.4,1.5,1c0.5,0.5,0.6,1.3,0.6,1.5c0,0.3,0,10.2,0,10.2" class="g10_3" />
<path d="M566.6,724.9l-23.1,-9.5c-1.4,-0.7,-2.1,-1.4,-2.1,-3.9" class="g10_3" />
<path d="M419.3,861.1L412,858" class="g10_3" />
<path d="M406.2,852.5l14.6,-5.1" class="g8_3" />
<path d="M528.7,810.7l-10.2,3.8c0,0,-0.7,0.3,-1.1,0.7c-0.1,0.1,-0.2,0.4,-0.2,0.5c0,0.2,0,3.1,0,3.1l3.1,1.5c0,0,0.7,0.2,1.5,0.2c0.8,0,1.7,-0.3,1.9,-0.3c0.2,-0.2,88.9,-31.5,88.9,-31.5" class="g10_3" />
<path d="M517.2,815.7l3.1,1.4c0,0,0.8,0.3,1.6,0.3c0.8,-0.1,1.6,-0.4,1.8,-0.4c0.3,-0.1,86.1,-30.4,86.1,-30.4" class="g8_3" />
<path d="M627,783.7l6.5,-2.4c0,0,3.2,-1.4,3.3,-6.4" class="g10_3" />
<path d="M624.3,781.5l8.4,-2.9c0,0,1.9,-0.8,1.9,-3.3" class="g8_3" />
<path d="M521.5,818.5l0,1" class="g8_3" />
<path d="M522.5,818.5l0,1" class="g8_3" />
<path d="M426.5,851.5l0,1" class="g8_3" />
<path d="M428.5,851.5l0,1" class="g8_3" />
<path d="M623.1,725.5l0.1,47.3l-7.2,2.5" class="g10_3" />
<path d="M621.3,726.1l0.1,46l-6.6,2.5" class="g8_3" />
<path d="M614.1,774.3l6.5,-2.3c0,0,0.6,-0.3,0.6,-0.9" class="g10_3" />
<path d="M589.2,772.9c0,-1.6,0.7,-3.9,1.7,-5.5c2.3,-3.9,6.5,-5.8,9.4,-4.1c0.2,0.1,0.3,0.2,0.4,0.3" class="g8_3" />
<path d="M594.1,773.8c0.1,-1.1,0.4,-2.3,1,-3.5c1.7,-3.6,5.5,-5.3,7.6,-4.1c1.1,0.7,1.6,1.2,1.8,2.9" class="g8_3" />
<path d="M600.8,763.7c0.7,0.1,1.3,0.3,1.8,0.6c0.2,0.1,1.9,0.9,2.4,4.9" class="g10_3" />
<path d="M591.7,773.4c0,-1.6,0.8,-3.6,1.8,-5.2c1.8,-3.1,4.7,-4.8,7.3,-4.5" class="g8_3" />
<path d="M589.2,772.9l0.1,11.8" class="g8_3" />
<path d="M591.7,773.4l-0.1,12.2" class="g8_3" />
<path d="M594.1,773.8l0,11.8" class="g8_3" />
<path d="M596.2,779.2c-1.2,-1.4,-1.7,-3.9,-0.9,-6.8c1,-3.8,3.7,-5.7,5.8,-5.5c1.4,0.1,2,0.9,2.3,1.7" class="g10_3" />
<path d="M624.5,774.9l5.6,2.1" class="g8_3" />
<path d="M626.2,773l5.6,2.1" class="g8_3" />
<path d="M541.3,801.5l48,-16.8l2.3,0.9l2.5,0l8.8,-3.1" class="g10_3" />
<path d="M541.2,800.2l48.1,-17" class="g10_3" />
<path d="M828.6,991.8c-5.7,24.4,-52.8,43.4,-109.9,43.4c-40.6,0,-75.4,-9.7,-94.2,-24c-6,-4.6,-8.3,-9.8,-9.2,-15.2" class="g10_3" />
<path d="M829.4,986.7c0,1.7,-0.2,3.4,-0.5,5" class="g10_3" />
<path d="M828.8,1002.9c-5.8,24.3,-52.8,43.3,-110,43.3c-40.5,0,-75.3,-9.7,-94.1,-24c-6,-4.5,-8.5,-9.6,-9.5,-15" class="g10_3" />
<path d="M828.9,1013.9c-5.8,24.3,-53.5,43,-110.7,43c-40.6,0,-75.4,-9.6,-94.2,-24c-5.6,-4.3,-7.8,-9.1,-8.7,-14.2" class="g10_3" />
<path d="M829,1025c-5.7,24.3,-52.8,43.3,-110,43.3c-40.5,0,-75.1,-9.9,-94.1,-24c-10.2,-7.5,-11.2,-17,-9.1,-25.1" class="g10_3" />
<path d="M816.8,986.7c1.6,17.3,-44.9,36.5,-97.1,35.9c-52.2,-0.7,-92,-15.6,-92,-31.3" class="g10_3" />
<path d="M635.2,1002.9c14,-10.9,47.5,-18.5,85.2,-18.5c34.7,0.1,67,9.5,83.7,19.3" class="g10_3" />
<path d="M644.6,1008.5c16.8,-7.9,48.2,-13.7,78.7,-13.1c27.6,0.5,53.1,6.9,70.7,13.7" class="g10_3" />
<path d="M615.5,996.8c0,0,-1.9,3.5,-0.3,10.4" class="g10_3" />
<path d="M615.5,1008.5c0,0,-1.8,3.5,-0.2,10.4" class="g10_3" />
<path d="M828.6,991.8c0,0,1.6,2.6,0.2,11.1" class="g10_3" />
<path d="M828.7,1002.8c0,0,1.5,2.6,0.2,11.1" class="g10_3" />
<path d="M828.8,1014.4c0,0,1.5,2.5,0.1,11" class="g10_3" />
<path d="M828.9,1025.4c0,0,6.4,18.3,-18.7,33.3" class="g10_3" />
<path d="M627.7,991.3c4.7,-15.5,47.6,-28.5,92.6,-28.4c45.5,0.2,88.6,17.2,94.6,29.5" class="g10_3" />
<path d="M629.8,997.7c8.3,-12.9,47.4,-24.3,90.5,-23.8c44.5,0.4,83.3,14.4,90.7,24.6" class="g10_3" />
<path d="M806.5,973.7c1.2,0.8,2.4,1.6,3.4,2.3c5.4,4,6,7.8,6.9,10.7" class="g10_3" />
<path d="M615.3,996c-1.2,-7.5,4,-20.9,19.1,-28.9c21.3,-11.3,56.6,-17.3,83.5,-16.8c19.6,0.4,40,1.3,57,6.6" class="g10_3" />
<path d="M829.4,986.6c0.3,1.5,0,-8.3,-6.3,-15.4c-7.9,-9,-22.3,-16.1,-25.9,-17.7" class="g10_3" />
<path d="M810.2,1058.7c-19.9,12.7,-53.7,20.5,-91.5,20.5c-28.7,0,-54.3,-4.9,-73.6,-12.8" class="g10_3" />
<path d="M530.1,1005.9l96.4,39.6" class="g10_3" />
<path d="M526.6,1017.6l118.5,48.8" class="g10_3" />
<path d="M525.1,1019.5c-2.7,-1.6,-3.4,-6.3,-1.6,-10.5c1.9,-4.3,5.6,-6.4,8.3,-4.9" class="g8_3" />
<path d="M529.9,1019c-1.6,1.1,-3.3,1.3,-4.8,0.5" class="g10_3" />
<path d="M531.8,1004.1c1.2,0.7,1.9,1.9,2.3,3.4" class="g10_3" />
<path d="M526.6,1017.8c-0.3,-0.1,-0.6,-0.3,-0.9,-0.5c-1.9,-1.3,-2.2,-4.7,-0.6,-7.8c1.2,-2.3,3.3,-3.7,5,-3.5" class="g8_3" />
<path d="M531.8,1004.1L515.2,993.6c0,0,-0.5,-0.3,-1,-0.3" class="g10_3" />
<path d="M525.6,1019.7l-11.8,-2.6c0,0,-0.4,-0.1,-0.7,-0.5" class="g10_3" />
<path d="M514,993.3c0,0,-0.2,-1.1,-0.7,-1.5" class="g10_3" />
<path d="M484,986.9l9.4,-3.5l19.9,8.4" class="g10_3" />
<path d="M503.3,994.9l-19.3,-8" class="g8_3" />
<path d="M513.2,996.3L508,995.4c0,0,-3.7,-0.1,-4.7,-0.5" class="g8_3" />
<path d="M514,993.3c0,0,2.2,1.9,1.9,2.5" class="g10_3" />
<path d="M513.2,996.3c0,0,2.4,0,2.7,-0.4" class="g8_3" />
<path d="M507.5,995.4c0,0,-1.6,2.4,3.4,8.6" class="g8_3" />
<path d="M476.4,994.5l20.3,8.3c0,0,3.9,1.6,14.2,1.2" class="g8_3" />
<path d="M510.9,1004c0.2,-0.1,-2.3,2.2,-2.1,6.2c0.2,3.6,3.9,6.4,4.3,6.4" class="g8_3" />
<path d="M510,1016.9l-4.1,9.1c0,0,-1.7,2.6,-2.5,2.6" class="g8_3" />
<path d="M484,986.9l-7.6,7.6l0,12.6l20.8,8.5c0,0,6.5,2,15.9,1" class="g10_3" />
<path d="M482.4,1009.6l1.6,10.9l19.4,8.1" class="g10_3" />
<path d="M519.5,1018.4l-5.6,8.6" class="g10_3" />
<path d="M503.4,1028.6c0,0,7.5,1.8,10.5,-1.6" class="g10_3" />
<path d="M493.4,983.4l7.4,2.2l20.8,8.7" class="g10_3" />
<path d="M521.6,994.3c0,0,3.1,1.1,2.6,5" class="g10_3" />
<path d="M471.8,993.5c-0.8,0.2,-1.6,-0.5,-1.9,-1.6c-0.3,-1.2,0.1,-2.3,0.8,-2.5" class="g8_3" />
<path d="M470.7,989.4c0.7,-0.3,1.6,0.5,1.9,1.6c0.3,1.1,-0.1,2.2,-0.8,2.5" class="g10_3" />
<path d="M472.4,992.7c-0.4,-0.2,-0.8,-0.8,-1,-1.4c-0.1,-0.7,-0.1,-1.3,0.1,-1.7" class="g10_3" />
<path d="M482.6,988.3c-0.2,-0.2,-0.4,-0.6,-0.5,-0.9c-0.3,-1.2,0.1,-2.3,0.8,-2.5" class="g8_3" />
<path d="M482.9,984.9c0.8,-0.3,1.6,0.5,1.9,1.6" class="g10_3" />
<path d="M483.7,987.1c0,-0.1,0,-0.2,-0.1,-0.3c-0.1,-0.7,-0.1,-1.3,0.1,-1.7" class="g10_3" />
<path d="M469.1,994.6c-0.8,-0.8,-1.4,-2.2,-1.6,-3.8c-0.1,-2.7,1.1,-4.9,2.7,-5.1" class="g10_3" />
<path d="M481.1,989.8c-0.9,-0.8,-1,-1.9,-1.2,-3.5c-0.1,-2.7,1,-4.9,2.6,-5" class="g10_3" />
<path d="M482.5,981.3l7.9,3.2" class="g10_3" />
<path d="M481.2,982l7.7,3.1" class="g10_3" />
<path d="M470.2,985.7l10.6,4.4" class="g10_3" />
<path d="M468.9,986.4l11.1,4.5" class="g10_3" />
<path d="M469.1,994.6l7.3,3.1" class="g10_3" />
<path d="M476.4,1000.1l-4,-1.7" class="g10_3" />
<path d="M476.4,1006.9l-6.2,-2.5" class="g10_3" />
<path d="M470.2,1004.4c-0.9,-0.6,-1.5,-1.6,-1.5,-2.8c0,-1.8,1.3,-3.3,3,-3.3c0.3,0,0.5,0.1,0.7,0.1" class="g10_3" />
<path d="M596.2,779.2c0,0,14.6,3.6,38.5,29.2c23.8,25.6,29.9,33.4,51.2,60.8" class="g10_3" />
<path d="M600,767.2c0,0,19.5,6,43.4,31.6c23.9,25.6,29.9,33.5,51.2,60.8" class="g10_3" />
<path d="M685.9,869.2c-0.5,-0.7,25.6,35.9,55.9,63.5c21.5,19.5,50.3,32.9,50.3,32.9" class="g10_3" />
<path d="M694.6,859.6c-0.5,-0.6,26.1,36.8,56.5,64.4c16.1,14.6,36.8,25,46.1,29.5" class="g10_3" />
<path d="M792.1,965.6c0,0,8.9,3.7,14.4,8.1" class="g10_3" />
<path d="M422.4,794l2.6,-0.9" class="g10_3" />
<path d="M317,787l0,72" class="g10_3" />
<path d="M317.8,787l75,-25.7M542.6,710l45.8,-15.6" class="g10_3" />
<path d="M588.5,694.5l0,5" class="g8_3" />
<path d="M317.8,859.2l5,-1.7" class="g8_3" />
<path d="M529.3,711.6c-1.8,-0.4,-2.7,-2.7,-2.2,-5c0.6,-2.4,2.5,-3.9,4.3,-3.5" class="g10_3" />
<path d="M530.7,711c-0.3,0.4,-0.8,0.8,-1.4,0.6" class="g8_3" />
<path d="M531.4,703.1c0.8,0.2,1.3,0.8,1.4,1.6" class="g8_3" />
<path d="M410.8,759.8c-2.6,-0.9,-3.7,-4.4,-2.5,-7.8c1.2,-3.4,4.2,-5.5,6.7,-4.6" class="g10_3" />
<path d="M415,747.4c2.6,0.9,3.7,4.4,2.5,7.8c-1.2,3.4,-4.2,5.4,-6.7,4.6" class="g10_3" />
<path d="M412,760c-2.6,-0.9,-3.8,-4.2,-2.6,-7.6c1.2,-3.4,4.1,-5.3,6.7,-4.4" class="g8_3" />
<path d="M414.3,751.5l0.9,-0.2l0.4,2.1l1.3,-0.4l0.1,1.1l-1.4,0.9l-0.2,1.9l-1.1,0.3l-0.1,-1.8l-1.6,0.3l-0.1,-1.2l1.7,-0.6Z" class="g8_3" />
<path d="M405.4,755.2c-1.8,-0.4,-2.7,-2.7,-2.2,-5c0.6,-2.4,2.5,-3.9,4.3,-3.5" class="g10_3" />
<path d="M406.8,754.6c-0.3,0.4,-0.8,0.8,-1.4,0.6" class="g8_3" />
<path d="M407.5,746.7c0.8,0.2,1.3,0.8,1.4,1.7" class="g8_3" />
<path d="M407.8,755l-4.5,-1.8m-9.9,-3.9l-9.2,-3.9" class="g10_3" />
<path d="M386.4,739.3l9.9,3.9m9.2,3.8l4.7,1.9" class="g10_3" />
<path d="M404.4,753.6c-1.2,-0.4,-1.5,-2.6,-1,-4.2c0.5,-1.6,1.9,-2.4,3.1,-2" class="g8_3" />
<path d="M406.2,754.4c-1.2,-0.4,-1.5,-2.5,-1,-4.1c0.6,-1.6,1.9,-2.6,3.1,-2.2" class="g8_3" />
<path d="M407.8,755c-1.2,-0.4,-1.3,-2.4,-0.8,-4c0.5,-1.6,1.9,-2.6,3.1,-2.2" class="g8_3" />
<path d="M393,749c-1.2,-0.4,-1.6,-2.5,-1.1,-4.1c0.6,-1.5,2,-2.5,3.1,-2.1" class="g8_3" />
<path d="M384.2,745.4c-1.2,-0.4,-1.6,-2.5,-1.1,-4c0.6,-1.6,2,-2.6,3.1,-2.2" class="g8_3" />
<path d="M391.1,748.2c-1.2,-0.4,-1.6,-2.5,-1,-4.1c0.5,-1.6,1.9,-2.5,3.1,-2.2" class="g8_3" />
<path d="M389.1,747.3c-1.2,-0.4,-1.6,-2.4,-1.1,-4c0.5,-1.6,1.9,-2.6,3.1,-2.2" class="g8_3" />
<path d="M386.9,746.4c-1.2,-0.4,-1.5,-2.5,-1,-4c0.5,-1.6,1.9,-2.6,3.1,-2.2" class="g8_3" />
<path d="M384.9,745.6c-1.2,-0.4,-1.6,-2.5,-1.1,-4.1c0.6,-1.6,2,-2.5,3.1,-2.1" class="g8_3" />
<path d="M534.7,716.1c-2.6,-0.8,-3.7,-4.3,-2.5,-7.7c1.2,-3.4,4.2,-5.5,6.7,-4.6" class="g10_3" />
<path d="M538.9,703.8c2.6,0.9,3.7,4.3,2.5,7.7c-1.2,3.5,-4.2,5.5,-6.7,4.6" class="g10_3" />
<path d="M535.9,716.3c-2.6,-0.8,-3.8,-4.1,-2.6,-7.5c1.2,-3.4,4.1,-5.3,6.7,-4.4" class="g8_3" />
<path d="M538.2,707.9l0.9,-0.2l0.4,2.1l1.3,-0.4l0.1,1.1l-1.4,0.9l-0.2,1.9l-1.1,0.3l-0.1,-1.8l-1.6,0.2l-0.1,-1.1l1.7,-0.7Z" class="g8_3" />
<path d="M529.3,711.6c-1.8,-0.4,-2.7,-2.7,-2.2,-5c0.6,-2.4,2.5,-4,4.3,-3.5" class="g10_3" />
<path d="M530.7,711c-0.3,0.4,-0.8,0.8,-1.4,0.6" class="g8_3" />
<path d="M531.4,703.1c0.8,0.2,1.3,0.8,1.4,1.6" class="g8_3" />
<path d="M531.7,711.4l-4.5,-1.8m-16.7,-6.8l-2.4,-1" class="g10_3" />
<path d="M510.3,695.6l9.6,3.9m9.5,3.9l4.7,1.9" class="g10_3" />
<path d="M528.3,710c-1.2,-0.4,-1.5,-2.6,-1,-4.2c0.5,-1.6,1.9,-2.4,3.1,-2" class="g8_3" />
<path d="M530.1,710.7c-1.2,-0.3,-1.5,-2.4,-1,-4c0.5,-1.6,1.9,-2.6,3.1,-2.2" class="g8_3" />
<path d="M531.7,711.4c-1.2,-0.4,-1.3,-2.4,-0.8,-4c0.5,-1.6,1.9,-2.6,3.1,-2.2" class="g8_3" />
<path d="M516.2,700.6c0.6,-1.1,1.7,-1.8,2.7,-1.4" class="g8_3" />
<path d="M508.1,701.8c-1.2,-0.4,-1.6,-2.5,-1.1,-4.1c0.6,-1.5,2,-2.5,3.1,-2.1" class="g8_3" />
<path d="M513.7,701.6c0,-0.4,0.1,-0.7,0.3,-1.1c0.6,-1.6,1.9,-2.6,3.1,-2.2" class="g8_3" />
<path d="M511.8,702.3c-0.2,-0.8,-0.2,-1.8,0.1,-2.7c0.5,-1.5,1.9,-2.5,3.1,-2.1" class="g8_3" />
<path d="M510.8,702.8c-1.2,-0.4,-1.5,-2.5,-1,-4.1c0.5,-1.5,1.9,-2.5,3.1,-2.1" class="g8_3" />
<path d="M508.8,702c-1.2,-0.4,-1.6,-2.5,-1.1,-4.1c0.6,-1.6,2,-2.5,3.1,-2.1" class="g8_3" />
<path d="M410.9,863.3c-1.1,-0.2,-1.9,-1.3,-2.1,-2.7" class="g10_3" />
<path d="M412.3,862.7c-0.2,0.4,-0.7,0.8,-1.4,0.6" class="g8_3" />
<path d="M410.9,862.2c-0.3,0.3,-0.6,0.4,-1.3,0.2" class="g8_3" />
<path d="M416.3,867.9c-2.5,-0.9,-3.6,-4.4,-2.4,-7.8c0,-0.2,0.1,-0.4,0.2,-0.6" class="g10_3" />
<path d="M423.5,861.1c0,0.7,-0.2,1.4,-0.4,2.2c-1.2,3.4,-4.2,5.4,-6.8,4.6" class="g10_3" />
<path d="M417.5,868.1c-2.5,-0.9,-3.7,-4.2,-2.5,-7.6c0.1,-0.3,0.2,-0.6,0.4,-0.9" class="g8_3" />
<path d="M419.8,861.2l1.1,0l0.2,0.3l1.4,-0.4l0.1,1.1l-1.4,0.9L421,865l-1.1,0.3l-0.1,-1.8l-1.7,0.3l0,-1.2l1.7,-0.6Z" class="g8_3" />
<path d="M410.9,863.3c-1.1,-0.2,-1.9,-1.3,-2.2,-2.6" class="g10_3" />
<path d="M412.3,862.7c-0.2,0.4,-0.7,0.8,-1.4,0.6" class="g8_3" />
<path d="M413.4,863.1l-4.5,-1.8" class="g10_3" />
<path d="M409.9,861.7c-0.5,-0.2,-0.8,-0.7,-1,-1.3" class="g8_3" />
<path d="M411.8,862.5c-0.8,-0.3,-1.2,-1.3,-1.3,-2.4" class="g8_3" />
<path d="M413.4,863.1c-1.2,-0.4,-1.3,-2.4,-0.8,-4" class="g8_3" />
</svg>