<?xml version="1.0" encoding="UTF-8" standalone="no"?>
<!DOCTYPE svg PUBLIC "-//W3C//DTD SVG 1.1//EN"
"http://www.w3.org/Graphics/SVG/1.1/DTD/svg11.dtd">
<svg viewBox="0 0 935 1210" version="1.1" xmlns="http://www.w3.org/2000/svg" xmlns:xlink="http://www.w3.org/1999/xlink">
<defs>
<style type="text/css"><![CDATA[
.g17_1{
fill: #E0E0E0;
}
.g18_1{
fill: none;
stroke: #FFFFFF;
stroke-width: 4;
stroke-linecap: round;
stroke-linejoin: round;
stroke-miterlimit: 2;
}
.g2_1{
fill: none;
stroke: #FFFFFF;
stroke-width: 3;
stroke-linecap: round;
stroke-linejoin: miter;
stroke-miterlimit: 2;
}
.g15_1{
stroke: #000000;
stroke-width: 1;
stroke-linecap: round;
stroke-linejoin: round;
stroke-miterlimit: 2;
}
.g3_1{
fill: #FFFFFF;
stroke: #000000;
stroke-width: 2;
stroke-linecap: butt;
stroke-linejoin: miter;
stroke-miterlimit: 2;
}
.g11_1{
fill: #636363;
stroke: #000000;
stroke-width: 1;
stroke-linecap: round;
stroke-linejoin: round;
stroke-miterlimit: 2;
}
.g1_1{
fill: #B3B3B3;
}
.g7_1{
fill: #636363;
stroke: #000000;
stroke-width: 1;
stroke-linecap: butt;
stroke-linejoin: miter;
stroke-miterlimit: 2;
}
.g10_1{
fill: none;
stroke: #000000;
stroke-width: 2;
stroke-linecap: round;
stroke-linejoin: round;
stroke-miterlimit: 2;
}
.g19_1{
fill: none;
stroke: #000000;
stroke-width: 1;
stroke-linecap: round;
stroke-linejoin: round;
stroke-miterlimit: 2;
stroke-dasharray: 2,3;
}
.g16_1{
fill: #FFFFFF;
stroke: #000000;
stroke-width: 2;
stroke-linecap: round;
stroke-linejoin: round;
stroke-miterlimit: 2;
}
.g5_1{
fill: none;
stroke: #000000;
stroke-width: 2;
stroke-linecap: butt;
stroke-linejoin: miter;
stroke-miterlimit: 2;
}
.g14_1{
fill: none;
stroke: #FFFFFF;
stroke-width: 1;
stroke-linecap: round;
stroke-linejoin: round;
stroke-miterlimit: 2;
stroke-dasharray: 2,2,4,2;
}
.g4_1{
fill: none;
stroke: #000000;
stroke-width: 1;
stroke-linecap: butt;
stroke-linejoin: miter;
stroke-miterlimit: 2;
}
.g9_1{
fill: #FFFFFF;
}
.g13_1{
fill: #FFFFFF;
stroke: #000000;
stroke-width: 1;
stroke-linecap: round;
stroke-linejoin: round;
stroke-miterlimit: 2;
}
.g6_1{
}
.g12_1{
fill: none;
stroke: #FFFFFF;
stroke-width: 1;
stroke-linecap: round;
stroke-linejoin: round;
stroke-miterlimit: 2;
}
.g8_1{
fill: none;
stroke: #000000;
stroke-width: 1;
stroke-linecap: round;
stroke-linejoin: round;
stroke-miterlimit: 2;
}
]]></style>
</defs>
<path fill-rule="evenodd" d="M55,54l824,0l0,1101l-824,0Z" class="g1_1" />
<path d="M55.5,256.5l27,0" class="g2_1" />
<path d="M55.5,430.5l27,0" class="g2_1" />
<path d="M55.5,605.5l27,0" class="g2_1" />
<path d="M55.5,779.5l27,0" class="g2_1" />
<path d="M55.5,953.5l27,0" class="g2_1" />
<path d="M852.5,256.5l28,0" class="g2_1" />
<path d="M852.5,605.5l28,0" class="g2_1" />
<path d="M852.5,779.5l28,0" class="g2_1" />
<path d="M852.5,953.5l28,0" class="g2_1" />
<path d="M236.5,82.5l0,-27" class="g2_1" />
<path d="M390.5,82.5l0,-27" class="g2_1" />
<path d="M544.5,82.5l0,-27" class="g2_1" />
<path d="M698.5,82.5l0,-27" class="g2_1" />
<path d="M236.5,1155.5l0,-28" class="g2_1" />
<path d="M390.5,1155.5l0,-28" class="g2_1" />
<path d="M544.5,1155.5l0,-28" class="g2_1" />
<path d="M698.5,1155.5l0,-28" class="g2_1" />
<path fill-rule="evenodd" d="M82,82l770,0l0,1045l-770,0Z" class="g3_1" />
<path d="M184.5,209.5l646,0" class="g4_1" />
<path d="M103.5,278.5l727,0" class="g4_1" />
<path d="M82,1097l770,0" class="g5_1" />
<path d="M466.5,1099.5l0,28" class="g4_1" />
<path d="M468.5,1099.5l0,28" class="g4_1" />
<path d="M272.5,1099.5l0,28" class="g4_1" />
<path d="M274.5,1099.5l0,28" class="g4_1" />
<path d="M664.5,1099.5l0,28" class="g4_1" />
<path d="M666.5,1099.5l0,28" class="g4_1" />
<path fill-rule="evenodd" d="M106,289l37,0l0,38l-37,0Z" class="g6_1" />
<path fill-rule="evenodd" d="M103.5,287.5l38,0l0,37l-38,0Z" class="g7_1" />
<path d="M103.5,673.5l727,0" class="g4_1" />
<path d="M274.5,1099.5l192,0" class="g8_1" />
<path d="M468.5,1099.5l196,0" class="g8_1" />
<path d="M666.5,1099.5l186,0" class="g8_1" />
<path d="M272.5,1099.5l-190,0" class="g8_1" />
<path fill-rule="evenodd" d="M479,289l37,0l0,38l-37,0Z" class="g6_1" />
<path fill-rule="evenodd" d="M477.5,287.5l37,0l0,37l-37,0Z" class="g7_1" />
<path fill-rule="evenodd" d="M347.1,1085.2l-52.9,-18l0.5,-12.2l53.8,21.4Z" class="g9_1" />
<path d="M852.5,430.5l28,0" class="g2_1" />
<path fill-rule="evenodd" d="M106,683l37,0l0,38l-37,0Z" class="g6_1" />
<path fill-rule="evenodd" d="M103.5,681.5l38,0l0,38l-38,0Z" class="g7_1" />
<path d="M467.8,673.3L466.6,278.8" class="g4_1" />
<path fill-rule="evenodd" d="M363.1,247.9c15.4,-8.9,30.8,-17.8,46.3,-26.8c0.5,-0.7,1.1,-1.5,1.7,-2.3c0.2,-0.3,0.3,-0.6,0.2,-0.7c-0.1,-0.2,-0.3,-0.3,-0.7,-0.3c-0.9,0.1,-2,0.2,-3,0.3c-15.2,8.8,-30.5,17.6,-45.7,26.5c0.4,1.1,0.8,2.2,1.2,3.3Z" class="g9_1" />
<path d="M351.8,254.4c19.2,-11.1,38.4,-22.2,57.6,-33.3c0.5,-0.7,1.1,-1.5,1.7,-2.3c0.2,-0.3,0.3,-0.6,0.2,-0.7c-0.1,-0.2,-0.3,-0.3,-0.7,-0.3c-0.9,0.1,-2,0.2,-3,0.3c-19,11,-38,21.9,-57,33" class="g10_1" />
<path d="M408.4,220.9c0.2,-0.6,0.6,-1.1,1,-1.4c0.4,-0.4,1.1,-0.7,1.7,-0.9" class="g8_1" />
<path d="M407,219c0.7,0,1.5,-0.1,2.1,-0.3c0.7,-0.2,1.3,-0.5,1.7,-0.8" class="g8_1" />
<path fill-rule="evenodd" d="M367.6,235.9c-0.9,0.5,-1.7,1,-2.6,1.5c-0.5,0.3,-0.9,0.7,-1.2,1.1c-0.2,0.4,-0.5,1,-0.7,1.6c0,0.4,0,0.7,-0.1,0.9c-0.1,0.1,-0.3,0.1,-0.6,0c-0.9,-0.6,-1.9,-1,-2.7,-1.1c-0.9,-0.1,-1.9,0.1,-2.8,0.4c-9.2,5.4,-18.4,10.7,-27.6,16c-2,2,-3.3,4,-3.6,5.9c-0.2,1.9,0.3,3.8,1.6,5.6c1.6,1.9,3.4,3.1,5.3,3.4c1.8,0.3,3.9,-0.2,6.1,-1.5c8.6,-5,17.3,-10,26,-15c0.9,-0.8,1.6,-1.7,2,-2.5c0.4,-0.9,0.6,-1.9,0.6,-2.9c0,-0.4,0.1,-0.7,0.3,-0.8c0.2,-0.1,0.5,0.1,0.8,0.4c0.4,0.2,1,0.5,1.4,0.5c0.5,0,1,-0.1,1.4,-0.3c1,-0.5,2,-1.1,3.1,-1.7c0.9,-0.9,1.3,-2.1,1.2,-3.4c-0.1,-1.4,-0.7,-2.9,-1.7,-4.6c-1.1,-1.5,-2.2,-2.6,-3.2,-3.1c-1,-0.6,-2.1,-0.7,-3,-0.4Z" class="g9_1" />
<path d="M363.3,241c-0.1,-1.5,0.4,-2.8,1.3,-3.3c0.9,-0.5,1.9,-1.1,2.9,-1.7c1.8,-1,4.8,0.7,6.6,3.9c1.8,3.1,1.8,6.5,0,7.6c-0.9,0.5,-1.9,1.1,-2.9,1.6c-1,0.6,-2.3,0.3,-3.6,-0.5" class="g10_1" />
<path d="M366.7,249.9c-0.1,-1.5,-0.7,-3.2,-1.6,-4.9c-0.7,-1.3,-1.6,-2.3,-2.6,-3.1" class="g8_1" />
<path d="M367.3,247.9c0,-1.1,-0.4,-2.4,-1.1,-3.5c-0.6,-1.2,-1.5,-2.1,-2.4,-2.7" class="g8_1" />
<path d="M369.2,248.4c-0.6,-0.1,-1.1,-0.1,-1.4,-0.1c-0.3,0.1,-0.5,0.4,-0.5,0.8c0,1.2,-0.3,2.4,-0.7,3.2c-0.4,0.9,-1,1.7,-1.8,2.2c-9.2,5.3,-18.4,10.6,-27.6,16c-1.2,0.6,-2.1,0.8,-3.4,0.8c-4.4,0,-8,-3.7,-8,-8.1c0,-2.6,1.4,-5.1,3.4,-6.6c9.2,-5.4,18.4,-10.7,27.6,-16.1c0.7,-0.3,1.7,-0.5,2.5,-0.5c0.9,0.1,2,0.5,3,1c0.5,0.3,1,0.3,1.3,0.1c0.2,-0.1,0.5,-0.5,0.6,-1.1" class="g10_1" />
<path d="M330.6,256.6c2,0.2,4.5,2.1,6.2,5c1.5,2.7,1.9,5.6,1.4,7.5" class="g8_1" />
<path d="M370.6,249c1.5,-1.1,1.4,-4.1,-0.3,-7c-1.6,-2.8,-4.2,-4.5,-5.9,-3.8" class="g8_1" />
<path d="M334.5,256.7l24.9,-14.5" class="g8_1" />
<path d="M336.9,258.1l24.2,-14.4" class="g8_1" />
<path d="M339.5,263.1l24.4,-14.8" class="g8_1" />
<path d="M340,265.9L364.4,251" class="g8_1" />
<path d="M336.9,258.1c-1,0.6,-3.9,-0.1,-2.4,-1.4" class="g8_1" />
<path d="M339.5,263.1c-1.4,0.9,-1.3,3.5,0.5,2.8" class="g8_1" />
<path d="M364.4,251c1.5,-0.7,1.7,-4.1,-0.5,-2.7" class="g8_1" />
<path d="M361.1,243.7c1.4,-0.8,0,-2.5,-1.7,-1.5" class="g8_1" />
<path d="M104.2,659.8l0,-229.6c0,0,0.3,-0.8,0.8,-0.9" class="g10_1" />
<path d="M104.9,429.3c-0.4,-0.3,-0.7,-0.3,-0.7,-0.9c0,-0.7,0,-20.3,0,-20.3c0,0,0.3,-0.8,1.2,-1.1c0.8,-0.3,312.3,-94.5,312.3,-94.5" class="g10_1" />
<path d="M105,429.3L455.5,323.4" class="g8_1" />
<path d="M120.5,425.5l0,234" class="g8_1" />
<path d="M121.4,425.1l304.9,92.5l29.2,-9" class="g8_1" />
<path d="M426.5,517.5l0,142" class="g8_1" />
<path d="M183.9,436.8l109,-33" class="g8_1" />
<path d="M132.2,421.1l51.7,15.7" class="g8_1" />
<path d="M241.2,388.1l51.7,15.7" class="g8_1" />
<path fill-rule="evenodd" d="M132.2,421.1l109,-33l51.7,15.7l-109,33Z" class="g11_1" />
<path d="M137.2,422.3L244.9,389.6" class="g12_1" />
<path fill-rule="evenodd" d="M248.7,391.7l11.1,3.6c0,0,0.4,-0.2,0.5,-0.4c0.2,-0.3,0.8,0,1.2,-0.2c0.5,-0.2,1,-0.4,1.4,-0.7c0.4,-0.2,2.8,-0.5,2.8,-0.5l-11.3,-3.6c0,0,-1.9,0,-1.6,0.5c0.3,0.5,-2.1,0.2,-2.3,0.4c-0.2,0.2,-0.6,0.3,-0.6,0.3Z" class="g13_1" />
<path fill-rule="evenodd" d="M140.3,425.2l11.1,3.6c0,0,0.4,-0.2,0.6,-0.4c0.1,-0.3,0.7,0,1.1,-0.2c0.5,-0.2,1,-0.4,1.4,-0.7c0.4,-0.2,2.8,-0.5,2.8,-0.5L146,423.4c0,0,-1.9,0,-1.6,0.5c0.3,0.5,-2.1,0.2,-2.3,0.4c-0.2,0.1,-0.5,0.3,-0.5,0.3Z" class="g13_1" />
<path fill-rule="evenodd" d="M175.7,436.3l11.2,3.7c0,0,0.4,-0.2,0.5,-0.5c0.2,-0.2,0.7,0.1,1.2,-0.1c0.5,-0.2,0.9,-0.5,1.3,-0.7c0.4,-0.3,2.9,-0.5,2.9,-0.5l-11.4,-3.6c0,0,-1.9,0,-1.6,0.5c0.3,0.4,-2,0.2,-2.2,0.3c-0.3,0.2,-0.6,0.4,-0.6,0.4Z" class="g13_1" />
<path fill-rule="evenodd" d="M281.4,402.5l11.1,3.7c0,0,0.4,-0.2,0.5,-0.5c0.2,-0.2,0.7,0.1,1.2,-0.1c0.5,-0.2,1,-0.5,1.4,-0.7c0.3,-0.3,2.8,-0.5,2.8,-0.5l-11.3,-3.6c0,0,-2,0,-1.7,0.5c0.3,0.5,-2,0.2,-2.2,0.4c-0.2,0.1,-0.6,0.3,-0.6,0.3Z" class="g13_1" />
<path d="M155.9,420.5l82.5,-24.8l22.3,6.8l-82.5,24.8Z" class="g14_1" />
<path d="M179.3,460.1c-0.3,-0.2,-0.7,-0.4,-1.1,-0.6c-0.4,0.2,-0.8,0.4,-1.2,0.7c0,0.4,0.1,0.9,0.1,1.2c0.1,0.4,0.1,0.7,0.2,0.9" class="g8_1" />
<path d="M178.2,459.5c0,3.5,-1.2,2.3,-1.2,3.9c0,0.8,0,1.5,0,2.3c0,0.1,0,0.2,0.1,0.4c0,0.1,0,0.2,0.1,0.4" class="g8_1" />
<path d="M179.3,460.1c0.1,3.5,-2.2,2.2,-2.3,5.6" class="g8_1" />
<path d="M179.3,462.3c0.1,3.4,-2.2,2.1,-2.3,5.5c0,0.5,0,1,0,1.5c0.1,0.1,0.1,0.3,0.1,0.3c0,0.1,0.1,0.3,0.1,0.4" class="g8_1" />
<path d="M179.1,461.6c0.1,0.1,0.1,0.3,0.2,0.4c0,0.1,0,0.2,0,0.3c0,0.5,0,0.9,0,1.4c0,3.5,-2.2,2.1,-2.3,5.6" class="g8_1" />
<path d="M179.4,465.7c-0.1,3.5,-2.3,2.2,-2.4,5.6c0,0.5,0,0.9,0.1,1.5c0,0,0,0.2,0,0.3c0,0.1,0.1,0.3,0.1,0.3" class="g8_1" />
<path d="M179.1,465c0.1,0.2,0.1,0.4,0.2,0.4c0,0.1,0,0.3,0.1,0.3c-0.1,0.5,-0.1,1,-0.1,1.5c0,3.4,-2.2,2.1,-2.2,5.6" class="g8_1" />
<path d="M179.3,469.2c0,3.5,-2.2,2.2,-2.3,5.6c0,0.5,0,0.9,0,1.5c0,0.1,0.1,0.2,0.1,0.3c0,0.1,0.1,0.2,0.1,0.3" class="g8_1" />
<path d="M179.1,468.6c0.1,0.1,0.1,0.3,0.2,0.4c0,0,0,0.2,0,0.2c0,0.5,0,1,0,1.5c0,3.4,-2.2,2.1,-2.3,5.6" class="g8_1" />
<path d="M179.3,472.6c0,3.5,-2.2,2.1,-2.3,5.6c0.1,0.5,0,1,0,1.4c0.1,0.2,0.1,0.3,0.1,0.4c0.1,0.1,0.1,0.2,0.1,0.3" class="g8_1" />
<path d="M179.2,472c0,0.1,0,0.3,0.1,0.4c0,0,0,0.2,0,0.2c0,0.5,0,1,0,1.5c0,3.4,-2.2,2.1,-2.3,5.5" class="g8_1" />
<path d="M179.3,476.1c0,3.5,-2.2,2.1,-2.3,5.6c0,0.5,0,1,0,1.4c0.1,0.2,0.1,0.4,0.1,0.4c0.1,0.1,0,0.2,0.1,0.3" class="g8_1" />
<path d="M179.1,475.5c0.1,0.1,0.1,0.3,0.2,0.4c0,0,0,0.2,0,0.2c0,0.5,0,1,0,1.5c0,3.4,-2.2,2.1,-2.3,5.5" class="g8_1" />
<path d="M179.3,479.7c0,3.5,-2.2,2.1,-2.3,5.6c0,5.6,0,11.2,0,16.8c0,0.3,0.5,0.7,1.2,0.6c0.6,0,1.1,-0.3,1.1,-0.6c0,-7.5,0,-14.9,0,-22.4c0,0,0,-0.2,0,-0.3c-0.1,0,-0.1,-0.3,-0.1,-0.4" class="g8_1" />
<path d="M179.3,502.1c0,-0.1,-0.2,-0.3,-0.3,-0.3c-0.2,-0.1,-0.5,-0.2,-0.7,-0.2c-0.3,0,-0.7,0,-0.9,0.1c-0.2,0,-0.3,0.2,-0.4,0.4" class="g8_1" />
<path fill-rule="evenodd" d="M187.8,497.9C187,497,186,496.1,185.1,495.2c-0.8,-1,-1.6,-2,-2.3,-3c-0.5,-0.6,-1.2,-1,-1.9,-1.3c-0.7,-0.3,-1.6,-0.4,-2.6,-0.4c-1.2,0.1,-2.4,0.2,-3.2,0.6c-0.8,0.4,-1.5,0.9,-1.9,1.5c-0.4,0.7,-0.9,1.4,-1.4,1.9c-0.4,0.6,-1,1.2,-1.6,1.7c-0.9,0.7,-1.7,1.5,-2.1,2.3c-0.5,0.8,-0.8,1.7,-0.8,2.4c0,4.5,0,9,0,13.5c-0.6,0.6,-1,1.2,-1.3,1.8c-0.2,0.6,-0.3,1.1,-0.3,1.7c-1.4,2,-2.4,4.2,-3,6.5c-0.5,2.3,-0.6,4.9,-0.2,7.6c-0.5,0.5,-0.8,1.6,-0.9,3c-0.1,1.5,-0.1,3.5,0,5.9c-0.3,0.3,-0.5,0.9,-0.6,1.3c-0.1,0.4,-0.1,1,-0.1,1.5c0.1,4.1,0.1,8.2,0.1,12.3c-0.5,0.9,-0.9,1.8,-1,2.7c-0.2,0.9,-0.3,1.9,-0.2,2.8c0,5.6,0,11.3,-0.1,17c-0.7,0.4,-1.4,0.9,-2.2,1.2c-0.1,2.5,0,5.1,0,7.6c0.3,0.2,0.5,0.4,0.9,0.6c1,-0.6,2.1,-1.2,3.2,-1.8c0,1.8,0,3.6,0,5.5c-0.1,0.3,-0.1,0.6,-0.3,0.8c-0.1,0.2,-0.3,0.5,-0.6,0.7c-0.3,0.2,-0.6,0.4,-1,0.6c0,1.2,0,2.5,0,3.9c0.1,3.6,1.1,6.7,2.9,9.6c1.8,2.8,4.6,5.2,8.2,7.1c2.4,1.3,4.9,2.7,7.4,4.1c2.3,0,4.5,-0.7,6.6,-1.9c2.2,-1.2,4.3,-3.2,6.3,-5.7c0.4,-0.7,0.8,-1.3,1.1,-1.9c0.4,-0.7,0.7,-1.3,0.9,-1.8c0.8,0.6,1.9,1.5,3.1,2.8c1.2,1.3,2.7,2.9,4.2,4.8c3.4,3.4,6.5,6.3,9.2,8.5c2.6,2.1,5.1,3.8,7.1,4.7c1,0.5,2,1.1,2.5,1.8c0.4,0.7,0.7,1.4,0.7,2.2c0.3,2.7,0.9,5.1,1.6,6.7c0.7,1.7,1.6,2.8,2.7,3.4c5.1,3,10.3,6.1,15.4,9.1c0.5,0,1.1,0.1,1.6,0.2c0.7,0.5,1.4,0.9,2.2,1.4c2.4,0.2,4.9,-0.3,7.5,-1.7c2.5,-1.4,5.1,-3.5,7.8,-6.4c0.4,-0.6,0.8,-1.2,1.2,-1.8c0.2,-0.9,0.6,-1.9,1.1,-2.7c0.6,-0.8,1.3,-1.8,2.2,-2.5c0.4,-1,0.9,-2.1,1.3,-3.2c0,-6.4,0,-12.9,0,-19.5c-0.3,-0.6,-0.5,-1.4,-0.5,-2.3c0,-0.8,0.2,-1.9,0.6,-2.9c-0.1,-2,-0.1,-4,-0.1,-6.1c0.1,-0.6,-0.1,-1.3,-0.4,-1.8c-0.3,-0.6,-0.8,-1,-1.4,-1.4c-5.4,-3.4,-11,-6.8,-16.6,-10.2c-1.1,-0.6,-2.7,-0.8,-4.6,-0.5c-1.9,0.2,-4.5,0.8,-7.3,1.9c-1.2,0.6,-2.5,1.1,-3.9,1.6c-1.9,1.5,-3.5,3.1,-4.8,4.5c-1.3,1.4,-2.2,2.9,-2.9,4.3c-2.8,-3,-5.4,-5.4,-7.6,-7.3c-2.1,-1.9,-4.2,-3.4,-5.7,-4.3c-1.4,-1,-2.6,-2.1,-3.2,-3.1c-0.7,-1.1,-1.1,-2.2,-1.2,-3.2c0.1,-0.6,0,-1.3,-0.2,-1.7c-0.2,-0.4,-0.6,-0.7,-1.1,-0.8c0.3,-1.1,0.3,-2,0.2,-2.6c-0.1,-0.6,-0.4,-1.1,-0.9,-1.3c-1.7,-1,-3.4,-2.1,-5.1,-3.2c-0.1,-1.3,0,-2.7,0,-4.2c-0.3,-0.9,-0.6,-1.6,-1,-2c-0.4,-0.5,-1,-0.7,-1.6,-0.7c0,-7.9,0,-15.8,0,-23.7c-0.2,-0.5,-0.3,-1.1,-0.4,-1.4c0,-0.3,0.2,-0.7,0.4,-0.8c0,-2.6,0,-5.3,-0.1,-8c0.1,-0.3,0,-0.7,-0.2,-1c-0.1,-0.2,-0.4,-0.7,-0.6,-1c0.3,-0.3,0.5,-1,0.4,-2c-0.1,-1.1,-0.3,-2.6,-0.8,-4.5c-0.2,-1.3,-0.6,-2.7,-1.2,-3.9c-0.6,-1.2,-1.3,-2.4,-2.1,-3.5c0,-0.6,-0.1,-1.3,-0.4,-1.9c-0.3,-0.5,-0.8,-1.1,-1.2,-1.6c-0.1,-4.6,-0.1,-9.1,0,-13.7c-0.1,-0.5,-0.2,-1.1,-0.4,-1.5c-0.2,-0.3,-0.5,-0.9,-0.8,-1.2Z" class="g9_1" />
<path d="M234.2,647.6c0.2,0,0.6,0.1,1,0.3c0.3,0.2,1,0.5,1.7,0.9c2.1,1.2,4.3,2.5,6.5,3.8c2.4,0.4,5.2,-0.1,8.2,-1.9c2.9,-1.7,5.8,-4.4,8.2,-7.6c0.3,-1.1,0.6,-1.9,1.3,-3c0.7,-1.1,1.2,-1.7,2,-2.4c0.6,-1.1,1,-2,1.4,-3.1c0,-6.4,0,-12.9,0,-19.4c-1.4,-2.1,0,-5.3,0,-5.3c0,-2,0,-4.1,0,-6.2c0,-1.4,-0.5,-2.5,-1.3,-2.9c-5.7,-3.5,-11.4,-7.1,-17.1,-10.6" class="g10_1" />
<path d="M224.4,642.1c5.2,2.9,10.5,5.9,15.7,8.9c0.1,-0.1,0.3,-0.1,0.4,-0.1" class="g10_1" />
<path d="M247.5,624.8l0.1,-31.5" class="g8_1" />
<path d="M247.6,593.3c0,-1.4,-0.5,-2.4,-1.2,-3" class="g8_1" />
<path d="M247.5,624.8c-1.4,3.6,-3.2,6.7,-5.3,9.5c-2.2,2.7,-4.6,4.9,-7.6,6.8c-2.9,1.5,-5.3,2.1,-7.5,1.9c-0.7,-0.1,-1.4,-0.3,-2,-0.6" class="g8_1" />
<path d="M184.9,495c-0.7,-0.9,-1.5,-1.9,-2.2,-2.8c-0.7,-1,-2.5,-1.7,-4.6,-1.7c-2,0,-3.8,0.7,-4.6,1.8c-0.6,0.9,-1.3,1.8,-2.1,2.7" class="g10_1" />
<path d="M184.1,494.4c-1.2,-1.2,-3.4,-1.9,-5.9,-1.9c-2.7,0,-5,0.8,-6.2,2" class="g8_1" />
<path d="M187.4,497.5c-1,-1,-1.9,-1.9,-2.9,-2.8c-1.4,-1.2,-3.7,-2,-6.4,-2c-2.7,0,-5.1,0.8,-6.4,2.1c-0.9,0.9,-1.9,1.7,-2.8,2.6" class="g10_1" />
<path d="M188.9,514.3c0,-4.5,0,-9,0,-13.6c0,-1.2,-0.5,-2.3,-1.5,-3.2" class="g10_1" />
<path d="M185.1,495.9c-1.8,-0.9,-4.3,-1.4,-7,-1.4c-2.7,0,-5.2,0.5,-7,1.5" class="g8_1" />
<path d="M168.9,497.4c-1,1,-1.5,2.1,-1.5,3.3c-0.1,4.6,-0.1,9.2,0,13.8" class="g10_1" />
<path d="M190.2,517.6c-2.2,-2.5,-6.8,-4.3,-12.1,-4.3c-5.3,0,-9.9,1.8,-12.1,4.4" class="g8_1" />
<path d="M193.8,531c-0.1,-4.8,-7,-8.7,-15.4,-8.8c-8.4,0.1,-15.3,4,-15.4,8.9" class="g8_1" />
<path d="M162.2,531.2c0,0.3,0,0.6,0.1,0.9" class="g10_1" />
<path d="M194.6,531.2c0,-5.2,-7.2,-9.4,-16.2,-9.4c-8.9,0,-16.2,4.2,-16.2,9.4" class="g8_1" />
<path d="M195,543.1c0,-0.3,0.1,-0.7,0.1,-0.9c0.1,-0.3,0.1,-0.8,0.1,-1.1c0,-2.1,0,-4.1,0,-6.2c0,-5.4,-7.5,-9.7,-16.8,-9.7c-9.2,0,-16.8,4.3,-16.8,9.7c0,2.1,0,4.1,0,6.2" class="g10_1" />
<path d="M194.7,542.4c0,-0.3,0,-0.6,0,-0.8c0,-5.2,-7.3,-9.4,-16.3,-9.5c-7.9,0.1,-14.5,3.3,-16,7.6" class="g8_1" />
<path d="M189,508.8c0,-3.4,-4.9,-6.3,-10.8,-6.3c-6,0,-10.9,2.9,-10.9,6.3" class="g8_1" />
<path d="M195.2,541.1c0.1,-5.4,-7.5,-9.8,-16.8,-9.7c-9.3,-0.1,-16.8,4.3,-16.8,9.7" class="g8_1" />
<path d="M169.9,554.4c0.1,-1.5,-0.5,-2.7,-1.5,-3.2c-0.9,-0.6,-2.2,-0.5,-3.5,0.3" class="g8_1" />
<path d="M164.9,551.5c-1.3,0.7,-2.6,2,-3.7,3.8c-0.9,1.7,-1.4,3.5,-1.4,5" class="g10_1" />
<path d="M159.8,560.3l-0.1,18.3" class="g10_1" />
<path d="M159.7,578.6l0.1,7.5" class="g8_1" />
<path d="M169.9,554.4l0,7.8" class="g8_1" />
<path d="M169.9,563.5l0,8" class="g8_1" />
<path d="M169.9,572.8l0,7" class="g8_1" />
<path d="M162.2,570.9c-0.3,-0.4,-0.5,-1,-0.5,-1.6c0,-1.6,0,-3.2,0,-4.9c0.1,-0.9,0.4,-2,1,-3.1c0.9,-1.7,2.5,-2.8,3.6,-2.7" class="g8_1" />
<path d="M166.3,558.6c0.3,0,0.6,0.1,0.8,0.2c0.5,0.4,0.9,1.1,0.9,2c0,1.6,0,3.2,0,4.9c0,1,-0.3,2.1,-0.9,3.1c-1.2,2.1,-3.2,3.2,-4.5,2.6c-0.1,-0.2,-0.3,-0.3,-0.4,-0.5" class="g8_1" />
<path d="M163.9,569.2c-0.2,-0.2,-0.5,-0.4,-0.9,-0.6c-0.6,-0.3,-0.9,-1,-0.9,-1.9c-0.1,-0.7,-0.1,-1.4,0,-2.1c-0.1,-0.9,0.3,-2,0.9,-3c1.2,-2.1,3,-3.1,4.3,-2.5" class="g8_1" />
<path d="M167.9,564.5c-0.1,0.6,-0.4,1.1,-0.7,1.6c-1.1,2.1,-3,3.2,-4.2,2.5" class="g8_1" />
<path d="M163.2,571.5c-0.2,-0.4,-0.3,-0.9,-0.3,-1.5c0,-0.5,-0.1,-1,0,-1.5" class="g8_1" />
<path d="M165.4,560.2c0.5,-0.3,1,-0.3,1.4,0c0.5,0.2,0.7,0.8,0.7,1.5c0,0.6,0,1.1,0,1.7c0,0.7,-0.3,1.6,-0.7,2.3c-0.9,1.7,-2.4,2.5,-3.3,1.9c-0.2,0,-0.4,-0.2,-0.5,-0.5" class="g8_1" />
<path d="M163,567.1c-0.1,-0.2,-0.2,-0.5,-0.2,-0.9" class="g8_1" />
<path d="M162.8,564.4c0,-0.7,0.2,-1.6,0.7,-2.3c0.3,-0.6,0.7,-1.1,1.2,-1.5" class="g8_1" />
<path d="M167.6,567.7c-1.1,1.4,-2.7,2,-3.7,1.5" class="g8_1" />
<path d="M165,567.4c-0.3,0.1,-0.6,0.1,-0.7,0c-0.4,-0.3,-0.6,-0.7,-0.6,-1.3c0,-0.5,-0.1,-1,0,-1.6c0,-0.6,0.2,-1.2,0.6,-1.9c0.7,-1.3,1.9,-2,2.7,-1.6c0.1,0.1,0.2,0.2,0.3,0.3" class="g8_1" />
<path d="M165.2,559.3l-0.3,-0.2l-0.1,-7.6l1.6,-15.1" class="g8_1" />
<path d="M173,554.6l-0.1,6.6" class="g8_1" />
<path d="M173,554.6c-0.7,-2.1,-1.7,-3.4,-3.1,-3.9c-1.3,-0.6,-3,-0.3,-5,0.8" class="g8_1" />
<path d="M191.2,610.4c1.2,-1.9,2.1,-3.7,2.7,-5.3c0.7,-1.5,1.1,-3,1.3,-4.2c0,-19,0.1,-38.1,0.1,-57.2c-1.3,-2.8,-3.5,-5.1,-6.5,-6.8c-3.1,-1.8,-7.1,-3.1,-12,-3.8c-7.9,0.9,-14.2,4.6,-15.8,9.2c0,4.4,0,9,0,13.5" class="g10_1" />
<path d="M176.8,533.1l0,29.1l-6.9,-0.1" class="g8_1" />
<path d="M180.4,557.2c3,0.6,5.6,1.5,7.7,2.8c2.2,1.1,3.8,2.5,5.2,4.1c0.2,0.3,0.4,0.5,0.6,-0.2c0,-6.8,0,-13.6,0,-20.3c-0.2,-0.8,-0.3,-1,-0.4,-1.2c-1.2,-1.7,-2.9,-3.1,-5.1,-4.3c-2.2,-1.3,-4.9,-2.1,-8,-2.9c-0.3,0,-0.9,-0.3,-0.9,0.6c0,6.7,0,13.5,0,20.3c-0.1,1,0.9,1.1,0.9,1.1Z" class="g8_1" />
<path d="M216.2,627.5c2.1,1.2,5.6,-0.8,7.8,-4.5c1,-1.9,1.6,-3.9,1.6,-5.5c0,-0.7,-0.2,-1.4,-0.5,-2c-0.4,-0.6,-1.1,-1.1,-1.8,-1.5c-3.9,-2.9,-7.6,-5.8,-10.7,-8.6c-3.2,-2.8,-6.1,-5.6,-8.5,-8.3c-0.7,-0.8,-1.4,-1.8,-2.1,-2.9c-0.6,-1.1,-1.1,-2.4,-1.6,-3.7c-0.6,-1.6,-1.4,-2.9,-2.2,-3.8c-0.7,-1,-1.8,-1.5,-3,-1.7" class="g8_1" />
<path d="M193,607.1c0.6,0.5,1.5,1.1,2.3,1.9c0.9,0.9,2,2,3.2,3.3c3.4,3.9,6.7,7,10,9.8c3.3,2.8,6.4,4.9,9.5,6.5" class="g10_1" />
<path d="M203.7,581.7c0.1,0,0.3,0.1,0.4,0.2c0.6,0.4,0.9,1,0.8,1.8c0,1.2,0.2,2,0.8,3c0.6,1.1,1.7,2.3,3,3.4c2.7,1.7,5.3,3.7,7.9,6c2.7,2.4,5.1,4.9,7.7,7.8c1,1.1,1.9,1.8,2.6,2.1c0.8,0.3,1.3,0.1,1.8,-0.3" class="g10_1" />
<path d="M263.1,637.7l-9.2,-5.4" class="g8_1" />
<path d="M259.8,643.1l-9.1,-5.3" class="g8_1" />
<path d="M253.9,632.3c-1.3,-0.7,-3.1,-0.1,-4,1.4c-0.9,1.5,-0.5,3.4,0.8,4.1" class="g8_1" />
<path d="M247.5,624.8l16.7,9.6" class="g8_1" />
<path d="M264.5,609.9c-3.4,-1.9,-6.7,-3.8,-10.1,-5.8c-1.2,-0.7,-2.3,-0.1,-2.3,1.3c0,1.5,1,3.2,2.3,4c3.3,1.9,6.7,3.8,10.1,5.8" class="g8_1" />
<path d="M246.1,590.2c-1.2,-0.8,-3.1,-0.9,-5.8,-0.5c-2.7,0.6,-5.9,1.7,-10.1,3.5c-3.3,2.8,-5.6,5.2,-7.1,7.5c-0.2,0.4,-0.4,0.7,-0.6,1" class="g10_1" />
<path d="M218.2,628.7c1,0.6,1.7,1.5,2.2,2.3c0.5,0.8,0.7,1.9,0.7,3" class="g10_1" />
<path d="M219.6,629.9c0.3,3.6,0.8,6.4,1.6,8.4c0.9,2,2,3.4,3.2,3.8" class="g10_1" />
<path d="M170,589.4c0,2.7,-2.3,5.2,-5.1,6.9c-2.9,1.6,-5.2,1.7,-5.2,-1" class="g8_1" />
<path d="M191.2,610.4c-1.4,2.5,-3.9,4.7,-6.7,6.4c-2.8,1.6,-5.3,2.2,-6.7,1.4c-2.6,-1.5,-5.2,-3,-7.9,-4.6" class="g10_1" />
<path d="M242.1,593c-1.6,2.2,-3.5,4.5,-5.6,6.5c-2.2,2,-4.7,4.1,-7.4,6" class="g8_1" />
<path d="M246.1,626c-0.7,-0.4,-1.5,-0.6,-2.2,-0.7c-0.7,-0.2,-1.5,-0.1,-2.1,0.1c-3,1,-5.8,1.4,-8.2,1.2c-2.4,-0.1,-4.6,-0.8,-6.4,-2" class="g8_1" />
<path d="M218.2,628.7c2.2,1.2,5.7,-0.8,7.9,-4.6c1.1,-1.9,1.6,-3.8,1.6,-5.4c0,-3.2,0,-6.4,0,-9.6c0,-1.6,-0.6,-2.9,-1.6,-3.5" class="g8_1" />
<path d="M218.7,629c2.2,1.2,5.7,-0.8,7.9,-4.5c1.1,-2,1.6,-3.9,1.6,-5.5c0,-3.2,0,-6.4,0,-9.6c0,-1.6,-0.5,-2.9,-1.6,-3.6" class="g8_1" />
<path d="M226.1,605.5c0,-0.2,0.2,-0.5,0.3,-0.8c0.1,-0.2,0.2,-0.6,0.3,-0.9c0.2,-1.4,0.6,-2.9,1,-4.5c0.4,-1.5,0.9,-3.1,1.4,-4.8c0.1,-0.2,0.3,-0.5,0.4,-0.7c0.1,-0.1,0.2,-0.2,0.3,-0.3" class="g8_1" />
<path d="M164.9,571.1c0,8.4,0,16.8,0,25.2c0.4,3.4,1.6,6.5,3.6,9.2c1.9,2.6,4.7,4.9,8.1,6.7c2.6,1.5,5.2,3,7.9,4.6" class="g8_1" />
<path d="M197.6,574.6c1.7,1,3.4,2,5.1,3c1.1,0.6,1.2,1.3,1.2,2.3c-0.1,0.6,-0.2,1.2,-0.3,1.8" class="g10_1" />
<path d="M195.3,567.7c0.3,-0.1,0.6,-0.1,1,0.1c0.8,0.4,1.5,1.6,1.4,2.6c0,1.2,0,2.3,0,3.5c0.1,0.5,-0.1,0.9,-0.3,1c-0.7,0.4,-1.4,0.8,-2.1,1.3" class="g10_1" />
<path d="M197.4,574.9c-0.3,0.2,-0.7,0.2,-1.1,-0.1c-0.4,-0.2,-0.8,-0.6,-1.1,-1" class="g8_1" />
<path d="M195.9,575.9c-0.1,0.4,-0.4,0.6,-0.7,0.6" class="g8_1" />
<path d="M197,575.3c0,0.6,0,1.3,0,2c-0.1,0.5,0,1.2,0.3,1.6c0.2,0.5,0.6,0.9,1,1.3" class="g8_1" />
<path d="M197.1,578.3c0.9,0.9,1.9,1.7,3,2.2c1.1,0.6,2.4,1,3.6,1.2" class="g8_1" />
<path d="M159.8,585.8c0.2,-0.1,0.6,-0.3,0.9,-0.5c0.1,0,0.2,-0.1,0.3,-0.1" class="g8_1" />
<path d="M170,572.3l0.6,0.1l2.2,-1.3l0.9,0.4l-0.1,7.5l-3.1,1.8" class="g10_1" />
<path d="M170.5,580.8c0,0,3.2,1.8,3.2,1.8" class="g8_1" />
<path d="M170.6,573l0,6" class="g8_1" />
<path d="M176.8,562.2l-3.9,-1l-3,0.9" class="g8_1" />
<path d="M173.8,569.4l0,18.3" class="g8_1" />
<path d="M168.8,581.5l4.9,1.3" class="g8_1" />
<path d="M173.5,579l-0.6,-0.4" class="g8_1" />
<path d="M173.8,569.4c0,-1.3,-0.9,-1.5,-0.9,-1.5c0,0,-0.6,-0.3,-0.6,-0.3" class="g8_1" />
<path d="M177,566.6l-2.8,1.6" class="g8_1" />
<path d="M172.3,571.3c0,-1.3,0,-2.6,0,-3.9c0,0,-0.1,-1,0.8,-1.2" class="g10_1" />
<path d="M173.1,566.2c0.2,-0.1,0.3,-0.1,0.5,-0.1c0.9,0,1.7,0,2.7,0c0,0,1.2,-0.2,1.3,1.2c0,6.3,0,12.7,0,19.1c0,0.3,0,0.5,-0.1,0.6" class="g8_1" />
<path d="M177.5,587c-0.3,0.8,-1.3,0.8,-1.3,0.8c-2,0,-4.1,0,-6.3,0c0,0,-0.9,0.5,-0.9,0.5c-0.5,0.2,-0.7,0.1,-0.8,-0.1" class="g10_1" />
<path d="M168.2,588.2c-0.1,-0.2,-0.1,-0.5,-0.1,-0.5c-0.1,-1.8,-0.1,-3.7,0,-5.6c0,0,-0.1,-0.9,0.9,-1.5c0.3,-0.2,0.6,-0.4,0.9,-0.6c0.2,-0.1,0.5,-0.2,0.7,-0.2c0.7,-0.4,1.5,-0.9,2.2,-1.3c0,0,0,-7.4,0,-7.4" class="g8_1" />
<path d="M161.6,586.2c0,0,0,-0.3,-0.3,-0.1c-1,0.5,-2,1.1,-3,1.7c-0.3,-0.1,-0.5,-0.3,-0.8,-0.5c-0.1,-2.4,0,-4.9,0,-7.4c0,0,2.2,-1.3,2.2,-1.3" class="g10_1" />
<path d="M157.4,587.4l2.3,-1.3" class="g8_1" />
<path d="M181.3,563.4c0,-1.4,0,-2.9,0.1,-4.4c-0.3,0,-0.6,-0.1,-0.9,-0.2c-0.3,0,-0.7,-0.1,-1,-0.2" class="g8_1" />
<path d="M179.5,558.6c0,1.4,-0.1,2.9,-0.1,4.4c0.3,0,0.7,0.2,1,0.2c0.3,0.1,0.8,0.2,1,0.3" class="g8_1" />
<path d="M183.5,564.1c0,-1.5,0,-2.9,0.1,-4.4c-0.3,-0.1,-0.6,-0.2,-0.9,-0.3c-0.3,-0.1,-0.7,-0.2,-1,-0.2" class="g8_1" />
<path d="M181.7,559.2c0,1.4,0,2.9,0,4.3c0.3,0,0.6,0.2,0.9,0.3c0.3,0,0.7,0.2,1,0.3" class="g8_1" />
<path d="M185.8,564.9c0,-1.4,0,-2.9,0,-4.3c-0.1,-0.1,-0.5,-0.2,-0.8,-0.4c-0.2,-0.1,-0.7,-0.2,-1,-0.4" class="g8_1" />
<path d="M184,559.8c-0.1,1.5,-0.1,3,-0.1,4.4c0.3,0.1,0.7,0.3,1,0.4c0.3,0.1,0.7,0.2,1,0.3" class="g8_1" />
<path d="M188.2,566c0,-1.4,0,-2.9,0,-4.3c-0.3,-0.1,-0.6,-0.3,-0.9,-0.5c-0.3,-0.2,-0.7,-0.3,-1,-0.5" class="g8_1" />
<path d="M186.3,560.7c0,1.4,0,2.9,0,4.4c0.3,0.2,0.7,0.3,1,0.4c0.2,0.2,0.6,0.3,0.9,0.5" class="g8_1" />
<path d="M190.4,567.4c0,-1.4,0,-2.9,0,-4.4c-0.2,-0.1,-0.5,-0.3,-0.8,-0.5c-0.3,-0.2,-0.7,-0.4,-1,-0.7" class="g8_1" />
<path d="M188.6,561.8c0,1.5,0,3,0,4.4c0.2,0.1,0.6,0.4,0.9,0.5c0.3,0.2,0.6,0.4,0.9,0.7" class="g8_1" />
<path d="M192.3,569c0,-1.5,0,-2.9,-0.1,-4.5c-0.1,-0.1,-0.3,-0.3,-0.6,-0.5c-0.2,-0.3,-0.5,-0.5,-0.8,-0.7" class="g8_1" />
<path d="M190.8,563.3c0,1.5,0,2.9,0,4.4c0.2,0.1,0.5,0.3,0.7,0.5c0.2,0.3,0.6,0.5,0.8,0.8" class="g8_1" />
<path d="M193.9,570.8c-0.1,-1.4,-0.1,-2.9,-0.1,-4.4c-0.1,-0.1,-0.3,-0.4,-0.5,-0.7c-0.1,-0.2,-0.4,-0.5,-0.7,-0.8" class="g8_1" />
<path d="M192.6,564.9c0.1,1.4,0.1,2.9,0.1,4.4c0.1,0.2,0.4,0.4,0.5,0.7c0.2,0.2,0.5,0.5,0.7,0.8" class="g8_1" />
<path d="M181.3,588.6c0.1,-3,0,-6.2,0.1,-9.4c-0.3,-0.1,-0.7,-0.1,-1,-0.2c-0.3,-0.1,-0.7,-0.1,-1,-0.2" class="g8_1" />
<path d="M179.4,578.8c0,3.1,0.1,6.3,0,9.5c0.3,0.1,0.7,0.1,1,0.2c0.3,0.1,0.7,0.1,0.9,0.2" class="g8_1" />
<path d="M183.5,589.3c0,-3.1,0,-6.3,0,-9.5c-0.2,-0.1,-0.5,-0.2,-0.8,-0.2c-0.3,-0.1,-0.7,-0.2,-1,-0.2" class="g8_1" />
<path d="M181.7,579.4c0,3,0,6.2,0,9.4c0.3,0.1,0.6,0.2,0.9,0.3c0.3,0.1,0.7,0.2,0.9,0.2" class="g8_1" />
<path d="M185.8,590.1c0,-3.1,0,-6.2,0,-9.4c-0.1,-0.1,-0.5,-0.2,-0.8,-0.3c-0.2,-0.2,-0.7,-0.3,-1.1,-0.4" class="g8_1" />
<path d="M183.9,580c0.1,3.1,0.1,6.3,0,9.4c0.3,0.1,0.8,0.3,1,0.4c0.3,0.1,0.7,0.2,0.9,0.4" class="g8_1" />
<path d="M188.2,591.2c0,-3,0,-6.2,0,-9.3c-0.3,-0.2,-0.6,-0.4,-0.9,-0.6c-0.3,-0.1,-0.7,-0.2,-1,-0.4" class="g8_1" />
<path d="M186.3,580.9c0,3.2,0,6.3,0,9.5c0.2,0.1,0.6,0.2,0.9,0.4c0.3,0.2,0.7,0.4,1,0.5" class="g8_1" />
<path d="M190.4,592.6c0,-3.1,0,-6.3,0,-9.5c-0.2,-0.1,-0.6,-0.3,-0.8,-0.5c-0.3,-0.2,-0.7,-0.4,-1,-0.5" class="g8_1" />
<path d="M188.6,582.1c0,3.1,0,6.2,0,9.4c0.2,0.1,0.6,0.3,0.8,0.5c0.3,0.2,0.7,0.4,1,0.6" class="g8_1" />
<path d="M192.2,594.2c0,-3.1,0,-6.3,0.1,-9.5c-0.2,-0.1,-0.5,-0.3,-0.7,-0.5c-0.2,-0.2,-0.5,-0.5,-0.8,-0.8" class="g8_1" />
<path d="M190.8,583.4c0,3.2,0,6.4,0,9.6c0.2,0.2,0.4,0.4,0.7,0.6c0.2,0.2,0.5,0.4,0.8,0.6" class="g8_1" />
<path d="M193.8,596c0,-3.1,0,-6.2,0,-9.4c-0.1,-0.2,-0.4,-0.5,-0.5,-0.7c-0.2,-0.3,-0.5,-0.5,-0.7,-0.8" class="g8_1" />
<path d="M192.6,585.1c0.1,3.2,0.1,6.3,0,9.5c0.2,0.2,0.5,0.4,0.6,0.7c0.2,0.3,0.5,0.5,0.7,0.8" class="g8_1" />
<path d="M170.2,504.5l0.1,7.9" class="g8_1" />
<path d="M167.9,506.9l0,6.9" class="g8_1" />
<path d="M168.4,506.3l0,7.2" class="g8_1" />
<path d="M171,504.2l0,7.8" class="g8_1" />
<path d="M173.5,503.2l0,8.1" class="g8_1" />
<path d="M174.6,503l-0.1,8" class="g8_1" />
<path d="M177.6,502.6l0,8.2" class="g8_1" />
<path d="M178.8,502.6l0,8.2" class="g8_1" />
<path d="M182,503l0.1,8.1" class="g8_1" />
<path d="M183.2,503.4l0,7.9" class="g8_1" />
<path d="M185.5,504.3l0,7.9" class="g8_1" />
<path d="M186.4,504.8l0,7.7" class="g8_1" />
<path d="M188.2,506.8l0.1,6.9" class="g8_1" />
<path d="M188.6,507.3l0,6.7" class="g8_1" />
<path d="M188.9,508.4c0,-3.4,-4.8,-6.2,-10.8,-6.2c-5.9,0,-10.7,2.8,-10.8,6.3" class="g8_1" />
<path d="M194.6,532.1c0,-0.3,0,-0.6,0,-0.9c0,-2.9,-0.3,-5.6,-1,-7.8c-0.8,-2.1,-1.8,-4.1,-3.2,-5.5c0.1,-4,-5.5,-7.2,-12.3,-7.2c-6.8,0,-12.3,3.3,-12.3,7.2c-1.3,1.6,-2.2,3.7,-2.8,5.9c-0.6,2.2,-0.9,4.7,-0.8,7.4" class="g10_1" />
<path d="M161,585.2c0.7,-0.1,0.6,0.7,0.6,0.7c0,1.8,0,3.7,0,5.6c0,0,0,1,-0.9,1.6c0,0,-1,0.6,-1,0.6c0,0,0.1,0,0.1,0c-0.1,0.7,-0.1,1.4,0,2.2c0,1.6,0.1,3.3,0.3,4.7c0.3,1.5,0.6,3,1.1,4.2c0.5,1.4,1.4,2.8,2.8,4.3c1.5,1.4,3.5,2.9,5.9,4.5" class="g10_1" />
<path d="M181.4,559l-1.7,1" class="g8_1" />
<path d="M183.6,559.7l-1.7,1" class="g8_1" />
<path d="M185.8,560.6l-1.6,0.9" class="g8_1" />
<path d="M188.2,561.7l-1.8,1" class="g8_1" />
<path d="M190.4,563l-1.6,1" class="g8_1" />
<path d="M192.2,564.5l-1.2,0.8" class="g8_1" />
<path d="M193.8,566.4l-1,0.6" class="g8_1" />
<path d="M181.3,579.2l-1.7,1" class="g8_1" />
<path d="M183.5,579.8l-1.7,1" class="g8_1" />
<path d="M185.8,580.7l-1.7,1" class="g8_1" />
<path d="M188.2,581.9l-1.8,1" class="g8_1" />
<path d="M190.4,583.1l-1.7,1" class="g8_1" />
<path d="M192.3,584.7l-1.4,0.8" class="g8_1" />
<path d="M193.8,586.6l-1.1,0.6" class="g8_1" />
<path fill-rule="evenodd" d="M252,427l207,0l0,78l-207,0Z" class="g9_1" />
<path fill-rule="evenodd" d="M106.5,731.5l178,0l0,75l-178,0Z" class="g15_1" />
<path fill-rule="evenodd" d="M104.5,728.5l177,0l0,76l-177,0Z" class="g13_1" />
<path d="M206.9,748.6l4.7,18.1" class="g8_1" />
<path d="M225.9,748.6l4.8,18.1" class="g8_1" />
<path d="M216.4,748.6l4.7,18.1" class="g8_1" />
<path d="M245.4,750.2l3.8,15.1" class="g8_1" />
<path d="M235.4,748.6l4.7,18" class="g8_1" />
<path d="M255.4,752.4l2.6,9.8" class="g8_1" />
<path d="M218.4,751.8l3.6,11.8l1.1,0" class="g8_1" />
<path d="M219.1,763.6l-3.5,-11.8l-1.3,0" class="g8_1" />
<path d="M208.9,751.8l3.5,11.8l1.2,0" class="g8_1" />
<path d="M209.6,763.6l-3.5,-11.8l-1.2,0" class="g8_1" />
<path d="M227.9,751.8l3.5,11.8l1.3,0" class="g8_1" />
<path d="M228.6,763.6l-3.5,-11.8l-1.2,0" class="g8_1" />
<path d="M237.6,752.2l3.2,10.8l1.3,-0.2" class="g8_1" />
<path d="M238,763.2l-3.4,-11.4l-1.2,0" class="g8_1" />
<path d="M247.4,753.3l2.5,8.3l1.3,-0.1" class="g8_1" />
<path d="M247.2,762.2l-2.8,-9.4l-1.2,-0.1" class="g8_1" />
<path d="M257.5,755.3l1.3,4.3l1.2,-0.3" class="g8_1" />
<path d="M256.2,760.5l-1.8,-5.9l-1.3,-0.5" class="g8_1" />
<path d="M204.1,763.6l5.5,0l2,3.1l2,-3.1l5.5,0l2,3.1l2,-3.1l5.5,0" class="g10_1" />
<path d="M228.6,763.7c0.7,1,1.4,2,2.1,3c0.6,-0.9,1.3,-1.9,2,-3c1.7,-0.2,3.5,-0.3,5.3,-0.5c0.7,1.1,1.4,2.2,2.1,3.4c0.7,-1.2,1.4,-2.5,2,-3.8c1.7,-0.2,3.4,-0.3,5.2,-0.6c0.6,1,1.3,2,1.9,3.1c0.7,-1.2,1.3,-2.5,2,-3.8c1.6,-0.3,3.3,-0.6,5,-0.9c0.5,0.6,1.1,1.2,1.8,1.9c0.6,-1,1.3,-2.1,2,-3.2c0.8,-0.2,1.6,-0.5,2.2,-0.7c0.6,-0.3,1.3,-0.6,1.7,-0.9c-1.1,-0.5,-2.4,-1.1,-3.4,-1.5c-1.1,-0.4,-2.2,-0.8,-3.1,-1" class="g10_1" />
<path d="M199.4,751.8l5.5,0l2,-3.2l2,3.2l5.4,0l2.1,-3.2l2,3.2l5.5,0" class="g10_1" />
<path d="M223.9,751.8l2,-3.2l2,3.2l5.5,0l2,-3.2l2.2,3.6l5.6,0.5l2.2,-2.5l2,3l5.7,0.9l2.3,-1.9l2.1,3" class="g10_1" />
<path d="M197.4,748.6l4.7,18.1" class="g8_1" />
<path d="M199.4,751.8l3.5,11.8l1.2,0" class="g8_1" />
<path d="M200.1,763.6l-3.6,-11.8l-1.2,0" class="g8_1" />
<path fill-rule="evenodd" d="M164,757.3c0,10.7,-8.7,19.5,-19.5,19.5C133.8,776.8,125,768,125,757.3c0,-10.8,8.8,-19.5,19.5,-19.5c10.8,0,19.5,8.7,19.5,19.5Z" class="g16_1" />
<path fill-rule="evenodd" d="M193.9,756.8c0.1,-4.1,1,-7.9,2.6,-11.2c1.6,-3.3,4.1,-6.4,7.1,-8.9c0.7,0,1.3,0,2,0c0,13.4,0,26.8,0,40.1c-0.6,0,-1.3,0,-2,0c-3,-2.5,-5.5,-5.5,-7.1,-8.8c-1.6,-3.2,-2.5,-7.1,-2.6,-11.2Z" class="g16_1" />
<path d="M203.5,739.5l0,34" class="g8_1" />
<path fill-rule="evenodd" d="M155.1,758.9l0,0.2l0,0.1l0,0.1l0,0.2l-0.1,0.1l-0.1,0.1l0,0.1l-0.1,0.1l-0.1,0.1l-0.1,0.1l-0.1,0l0,0.1l-0.1,0l-0.2,0l-0.1,0.1l-0.1,0.1l-0.1,0l-0.1,0l-0.1,0l-6.4,0l0,6.3l0,0.2l0,0.1l0,0.1l0,0.2l-0.1,0.1l0,0.1l-0.1,0l0,0.1l-0.1,0.1l-0.1,0.1l-0.1,0.1l-0.1,0l0,0.1l-0.1,0l-0.2,0.1l-0.1,0l-0.1,0.1l-0.1,0l-0.1,0l-0.1,0l-3.1,0l-0.2,0l-0.1,0l0,-0.1l-0.1,0l-0.2,0L142.1,768l-0.1,0l-0.1,-0.1l-0.1,-0.1l0,-0.1l-0.2,0l0,-0.1l-0.1,-0.1l0,-0.1l0,-0.1l-0.1,-0.2l0,-0.1l-0.1,0l0,-0.1l0,-0.2l0,-6.3l-6.3,0l-0.2,0l-0.1,0l0,-0.1l-0.1,0l-0.2,-0.1l-0.1,0l-0.1,0l-0.1,-0.1L134,760l-0.1,-0.1l-0.1,0l0,-0.1l-0.1,-0.1l0,-0.1l0,-0.1l-0.1,-0.2l0,-0.1l-0.1,0l0,-0.1l0,-0.2l0,-3.1l0,-0.1l0,-0.1l0.1,-0.1l0,-0.1l0.1,-0.1l0,-0.2l0,-0.1l0.1,0l0,-0.1l0.1,-0.1l0.1,-0.1l0.1,0l0.1,-0.1l0.1,0l0,-0.1l0.1,-0.1l0.2,0l0.1,0l0.1,0l0.2,0l6.3,0l0,-6.4l0,-0.1l0,-0.1l0.1,-0.1l0,-0.1l0.1,-0.1l0,-0.2l0.1,-0.1l0,-0.1l0.2,-0.1l0.1,-0.1l0.1,-0.1l0.1,0l0,-0.1l0.1,-0.1l0.2,0l0.1,0l0.1,0l0.2,0l3.1,0l0.1,0l0.1,0l0.1,0l0.1,0l0.1,0l0.2,0.1l0.1,0.1l0,0.1l0.1,0l0.1,0.1l0.1,0l0,0.1l0.1,0.1l0,0.1l0.1,0l0.1,0.2l0,0.1l0,0.1l0,0.1l0,0.1l0,0.1l0,6.4l6.4,0l0.1,0l0.1,0l0.1,0l0.1,0l0.1,0l0.2,0.1l0,0.1l0.1,0l0,0.1l0.1,0l0.1,0l0.1,0.1l0,0.1l0.1,0.1l0.1,0l0,0.1l0.1,0.2l0,0.1l0,0.1l0,0.1l0,0.1l0,0.1Z" class="g13_1" />
<path fill-rule="evenodd" d="M155.9,420c1,0,1.9,0.2,1.9,0.5c0,0.3,-0.9,0.6,-1.9,0.6c-1,0,-1.8,-0.3,-1.8,-0.6c0,-0.3,0.8,-0.5,1.8,-0.5Z" class="g15_1" />
<path fill-rule="evenodd" d="M178.2,426.8c1,0,1.8,0.2,1.8,0.5c0,0.3,-0.8,0.6,-1.8,0.6c-1,0,-1.8,-0.3,-1.8,-0.6c0,-0.3,0.8,-0.5,1.8,-0.5Z" class="g15_1" />
<path fill-rule="evenodd" d="M238.4,395.1c1,0,1.9,0.3,1.9,0.6c0,0.3,-0.9,0.5,-1.9,0.5c-1,0,-1.8,-0.2,-1.8,-0.5c0,-0.3,0.8,-0.6,1.8,-0.6Z" class="g15_1" />
<path fill-rule="evenodd" d="M260.7,401.9c1,0,1.8,0.3,1.8,0.6c0,0.3,-0.8,0.5,-1.8,0.5c-1,0,-1.8,-0.2,-1.8,-0.5c0,-0.3,0.8,-0.6,1.8,-0.6Z" class="g15_1" />
<path fill-rule="evenodd" d="M271.7,232.2c0,0,0.7,-0.5,0.9,-0.7c0.4,-0.1,0.8,-0.3,1.2,-0.5c0.3,-0.5,0.6,-0.9,0.9,-1.3c0,0,0.1,-0.1,0,-0.2c0,-0.1,-0.2,-0.1,-0.2,-0.1c-0.2,0.1,-0.5,0.3,-0.7,0.4c-0.2,0.2,-0.3,0.3,-0.5,0.5c-0.1,0.2,-0.3,0.4,-0.4,0.6c-0.4,0.2,-0.9,0.5,-1.2,0.7c0,0.2,0,0.4,0,0.6Z" class="g17_1" />
<path d="M271.7,232.3c0.2,-0.3,0.5,-0.5,0.8,-0.7c0.4,-0.2,0.8,-0.4,1.2,-0.6c0.4,-0.5,0.8,-0.9,1.1,-1.4c0.2,-0.2,0.2,-0.4,0.1,-0.5c0,-0.1,-0.1,-0.1,-0.4,-0.1c-0.6,0,-1.2,0.1,-1.9,0.1c-0.3,0.3,-0.6,0.6,-1,0.8c-0.3,0.2,-0.7,0.4,-1,0.5" class="g10_1" />
<path d="M272.9,230.9c0.2,-0.4,0.4,-0.6,0.7,-0.9c0.2,-0.2,0.6,-0.4,0.9,-0.6" class="g8_1" />
<path d="M272.5,229.7c0.3,0,0.6,-0.1,0.9,-0.2c0.3,-0.1,0.6,-0.3,0.9,-0.5" class="g10_1" />
<path fill-rule="evenodd" d="M271.6,232.3c0,0.1,0,0.2,0,0.3c-1.9,1,-3.7,2.1,-5.6,3.1c-0.1,0.1,-0.3,0.1,-0.5,0.1c-0.1,0,-0.1,0,-0.2,0c-0.1,0,-0.1,0,-0.2,-0.1c-0.3,-0.1,-0.5,-0.3,-0.6,-0.5c-0.2,-0.3,-0.2,-0.5,-0.2,-0.8c0,-0.1,0,-0.3,0,-0.4c0.1,-0.1,0.1,-0.2,0.1,-0.3c1.9,-1,3.7,-2.1,5.5,-3.1c0.1,-0.1,0.2,-0.1,0.3,-0.1c0.1,-0.1,0.2,-0.1,0.4,-0.1c0.1,0.1,0.3,0.1,0.4,0.2c0.2,0.2,0.3,0.4,0.5,0.6c0,0.1,0.1,0.3,0.2,0.5c0,0.2,0,0.4,-0.1,0.6Z" class="g9_1" />
<path d="M264.3,234.6l0,-0.3l0,-0.1l0,-0.1l0.1,-0.1l0,-0.1l0,-0.2" class="g10_1" />
<path d="M264.9,235.6l0.3,0.2" class="g10_1" />
<path d="M264.9,235.6l-0.1,0l-0.1,-0.1l-0.1,-0.2l-0.1,-0.1l-0.1,-0.1l0,-0.2l-0.1,-0.2l0,-0.1" class="g10_1" />
<path d="M264.3,234.6l0,-0.1l0.1,-0.1l0,-0.1l0.1,-0.1l0.1,0l0.1,0l0.1,0l0.1,0.1l0.2,0.1l0.1,0.1l0.1,0.2l0,0.1l0.1,0.2l0,0.1l0,0.2" class="g8_1" />
<path d="M265.2,233.7l0.1,0.1l0.1,0.2l0,0.1l0.1,0.1l0.1,0.2l0.1,0.1l0.2,0.1l0.1,0.1" class="g8_1" />
<path d="M265.9,235.3l0,0.1l0,0.1l0.1,0l0,0.1l0,0.1" class="g8_1" />
<path d="M265.4,235.3l0,0.1l0,0.1l-0.1,0.1l-0.1,0.1l-0.1,0l-0.2,-0.1" class="g8_1" />
<path d="M264.4,233.7l0.1,0.1l0.1,0l0.1,0l0.1,0l0.1,-0.1l0.2,0l0.1,0" class="g8_1" />
<path d="M266,234.7l0,0.1l0,0.1l-0.1,0.1l0,0.2l0,0.1" class="g8_1" />
<path d="M266,235.7l-0.1,0.1l-0.2,0l-0.1,0l-0.1,0l-0.1,0l-0.1,0l-0.1,0" class="g10_1" />
<path d="M264.4,233.7l5.5,-3.2" class="g10_1" />
<path d="M265.2,233.7l5.5,-3.2" class="g8_1" />
<path d="M266,234.7l5.5,-3.2" class="g8_1" />
<path d="M266,235.7l5.5,-3.2" class="g10_1" />
<path d="M269.9,230.5l0.2,0l0.1,0l0.2,0l0,-0.1l0.1,0l0.1,0l0.1,0l0,0.1" class="g10_1" />
<path d="M271.7,232l0,-0.1l0,-0.2l-0.1,-0.2l0,-0.2l-0.2,-0.2l-0.1,-0.2l-0.1,-0.2L271,230.6l-0.1,-0.1" class="g8_1" />
<path d="M271.7,231.9l0,0.1l0,0.1l-0.1,0.2l0,0.1l-0.1,0.1" class="g10_1" />
<path d="M270.7,230.5l0.2,0" class="g10_1" />
<path d="M270.7,230.5l0.2,0.1l0.1,0.1l0.2,0l0,0.1l0.1,0.2l0.1,0.1l0.1,0.1l0,0.1l0,0.2l0.1,0.1l0.1,0.1l0,0.1l0,0.1" class="g10_1" />
<path fill-rule="evenodd" d="M262.7,231c0.6,0.1,1.3,0.3,2,0.5c0.6,0.1,1.3,0.2,2,0.3c0.3,0,0.7,0.3,1,0.5c0.3,0.2,0.7,0.6,0.9,1.1c0.3,0.6,0.5,1.1,0.6,1.6c0,0.5,0,0.9,-0.2,1.3c-0.2,0.3,-0.4,0.8,-0.5,1.1c-0.1,0.4,-0.3,0.8,-0.3,1.2c-0.1,0.6,-0.3,1.2,-0.5,1.6c-0.3,0.4,-0.6,0.8,-0.9,1c-2.1,1.1,-4.2,2.3,-6.2,3.5c-0.2,0.5,-0.3,0.8,-0.5,1.1c-0.2,0.3,-0.4,0.5,-0.7,0.6c-0.5,1.2,-1.3,2.2,-2.2,3.1c-0.9,0.8,-2.1,1.6,-3.4,2.1c-0.1,0.3,-0.5,0.8,-1.1,1.2c-0.7,0.4,-1.6,1,-2.8,1.5c0,0.3,-0.2,0.5,-0.4,0.7c-0.1,0.1,-0.4,0.3,-0.6,0.4c-1.9,1,-3.8,2.1,-5.7,3.2c-0.3,0.5,-0.6,0.9,-1,1.2c-0.3,0.3,-0.8,0.6,-1.2,0.8c-2.6,1.5,-5.2,3,-7.8,4.5c0,0.5,0,0.9,0.1,1.4c-1.2,0.7,-2.4,1.3,-3.5,2c-0.2,-0.1,-0.3,-0.1,-0.5,-0.3c0,-0.6,0,-1.2,0,-1.9c-0.9,0.5,-1.7,1,-2.5,1.5c-0.2,0,-0.3,0.2,-0.4,0.3c0,0.1,-0.1,0.3,-0.1,0.5c0,0.2,0,0.3,0,0.6c-0.6,0.3,-1.2,0.6,-1.8,1c-1.7,0.9,-3.4,1.3,-5.2,1.2c-1.7,-0.1,-3.6,-0.7,-5.4,-1.9c-1.3,-0.7,-2.5,-1.5,-3.8,-2.3c-0.6,-1,-0.9,-2.2,-0.9,-3.5c0,-1.3,0.4,-2.8,0.9,-4.4c0.2,-0.3,0.4,-0.7,0.6,-1c0.2,-0.3,0.4,-0.6,0.6,-0.9c-0.5,-0.2,-1.2,-0.4,-2.1,-0.6c-0.9,-0.2,-2,-0.5,-3.3,-0.7c-2.5,-0.6,-4.6,-1.3,-6.3,-2c-1.7,-0.6,-3.1,-1.3,-4,-2c-0.5,-0.3,-1.1,-0.6,-1.5,-0.6c-0.5,-0.1,-0.9,0,-1.2,0.2c-1.4,0.6,-2.6,0.9,-3.5,1.1c-1,0.1,-1.7,0,-2.3,-0.4c-2.7,-1.5,-5.5,-3.1,-8.2,-4.6c-0.2,-0.2,-0.4,-0.5,-0.6,-0.7c-0.4,-0.2,-0.8,-0.4,-1.1,-0.6c-0.8,-1.1,-1.2,-2.4,-1.3,-3.9c0,-1.5,0.3,-3.3,0.9,-5.3c0.2,-0.3,0.3,-0.7,0.5,-1c0.4,-0.3,0.7,-0.8,0.9,-1.2c0.3,-0.5,0.5,-1.1,0.6,-1.7c0.4,-0.5,0.7,-1,1.1,-1.5c3,-1.7,5.9,-3.4,8.9,-5.1c0.4,0,0.9,-0.1,1.2,-0.4c0.4,-0.2,0.9,-0.6,1.2,-1c1,-0.5,1.9,-1,2.8,-1.6c0.3,-0.2,0.7,-0.3,1,-0.3c0.3,0,0.6,0.1,1,0.3c3,1.6,6,3.2,9,4.9c0.6,0.3,1.1,1,1.5,2c0.4,0.9,0.8,2.2,1,3.8c0.1,0.7,0.2,1.5,0.3,2.2c-0.2,1.3,-0.4,2.4,-0.8,3.4c-0.3,1,-0.7,1.8,-1.1,2.5c2,0.5,3.8,1,5.3,1.5c1.4,0.5,2.7,1,3.5,1.5c0.8,0.3,1.6,0.6,2.3,0.7c0.6,0,1.3,-0.1,1.7,-0.4c0.3,-0.1,0.6,-0.3,0.8,-0.3c0.3,0,0.5,0.1,0.7,0.3c0.4,-0.4,0.8,-0.7,1.1,-0.8c0.4,-0.1,0.7,-0.1,0.9,0.1c0.9,0.5,1.8,1,2.8,1.5c0.6,-0.4,1.2,-0.8,1.9,-1.1c0.5,-0.2,0.9,-0.2,1.2,-0.1c0.3,0.1,0.6,0.3,0.8,0.5c3.6,-2,7.2,-4.1,10.8,-6.2c0.3,-0.1,0.6,-0.2,0.7,-0.2c0.2,-0.1,0.3,-0.3,0.3,-0.4c1.2,-0.7,2.4,-1.4,3.7,-2.1c0.1,-0.1,0.3,-0.2,0.5,-0.2c0.1,0,0.4,0,0.6,0c0.1,-0.2,0.3,-0.4,0.8,-0.7c0.6,-0.2,1.3,-0.5,2.3,-0.8c0.6,-0.2,1.4,-0.4,2.1,-0.5c0.7,0,1.4,0,2.1,0.1c0.3,-0.2,0.7,-0.3,1,-0.3c0.3,0,0.8,0,1.1,0.1c2.1,-1.2,4.2,-2.4,6.3,-3.6c0.2,-0.1,0.5,-0.3,0.7,-0.3c0.3,0,0.6,0,0.8,0.1Z" class="g9_1" />
<path d="M181.9,249.3c0,-0.1,-0.2,-0.2,-0.4,-0.3c-0.2,-0.2,-0.5,-0.4,-0.9,-0.6c-1.1,-0.6,-2.2,-1.3,-3.4,-2c-0.8,-1,-1.3,-2.4,-1.3,-4.2c0,-1.8,0.5,-3.9,1.3,-5.8c0.4,-0.4,0.7,-0.8,1,-1.4c0.3,-0.6,0.5,-1,0.6,-1.6c0.4,-0.5,0.7,-0.9,1.1,-1.4c2.9,-1.7,5.9,-3.4,8.8,-5.1c1.3,0,2.4,-1.4,2.4,-1.4c1,-0.6,1.9,-1.1,2.9,-1.6c0.6,-0.4,1.3,-0.5,1.7,-0.2c3.1,1.6,6.2,3.3,9.3,5" class="g10_1" />
<path d="M187,252.3c-2.7,-1.6,-5.5,-3.2,-8.2,-4.8c0,-0.1,0,-0.1,-0.1,-0.2" class="g10_1" />
<path d="M188.8,237.2l14.4,-8.4" class="g8_1" />
<path d="M203.2,228.8c0.7,-0.4,1.3,-0.4,1.7,-0.2" class="g8_1" />
<path d="M188.8,237.2c-1.3,1.6,-2.2,3.2,-2.9,4.9c-0.7,1.7,-1.1,3.5,-1.1,5.3c0,1.7,0.4,3,1.1,4c0.2,0.3,0.5,0.5,0.8,0.7" class="g8_1" />
<path d="M264.8,231.6c0.6,0,1.2,0.1,1.9,0.2c0.6,0.1,1.4,0.7,2,1.6c0.5,1,0.6,2,0.4,2.6c-0.3,0.6,-0.5,1.1,-0.7,1.7" class="g10_1" />
<path d="M265.3,231.7c0.9,0.3,1.8,1.1,2.4,2.3c0.7,1.2,1,2.5,0.7,3.3" class="g8_1" />
<path d="M263,231.1c0.7,0.2,1.4,0.4,2.1,0.5c0.9,0.4,1.9,1.2,2.6,2.4c0.7,1.3,0.9,2.6,0.7,3.5c-0.2,0.7,-0.3,1.4,-0.5,2" class="g10_1" />
<path d="M254.9,234.8c2.1,-1.2,4.1,-2.4,6.2,-3.6c0.6,-0.3,1.2,-0.3,1.9,-0.1" class="g10_1" />
<path d="M264.3,231.7c0.9,0.6,1.8,1.6,2.5,2.8c0.8,1.3,1.2,2.6,1.2,3.7" class="g8_1" />
<path d="M267.9,239.5c-0.2,0.7,-0.5,1.3,-1.1,1.6c-2,1.2,-4.2,2.4,-6.3,3.6" class="g10_1" />
<path d="M253,235.1c1.8,0.3,3.8,2,5.2,4.4c1.4,2.5,1.8,5,1.2,6.7" class="g8_1" />
<path d="M246,237c2.2,-1.2,5.8,0.9,8.1,4.7c2.2,3.9,2.2,8,0,9.4" class="g8_1" />
<path d="M254.2,251.5c-0.1,0.1,-0.3,0.2,-0.4,0.2" class="g10_1" />
<path d="M245.7,236.7c2.3,-1.4,6.2,0.8,8.6,4.9c2.3,4.1,2.3,8.5,-0.1,9.9" class="g8_1" />
<path d="M240.1,239.6c0.1,0,0.3,-0.2,0.4,-0.3c0.1,-0.1,0.3,-0.2,0.5,-0.3c0.9,-0.5,1.9,-1.1,2.8,-1.6c2.5,-1.4,6.5,0.8,8.9,5.1c2.5,4.2,2.5,8.9,0,10.3c-1,0.5,-1.9,1.1,-2.8,1.6" class="g10_1" />
<path d="M240.5,239.6c0.2,-0.1,0.3,-0.2,0.4,-0.2c2.4,-1.4,6.2,0.8,8.6,4.9c2.1,3.6,2.4,7.6,0.8,9.4" class="g8_1" />
<path d="M257.4,233.3c1.6,-0.9,4.2,0.6,5.8,3.3c1.5,2.8,1.5,5.7,0,6.6" class="g8_1" />
<path d="M241,239c2.4,-1.4,6.4,0.9,8.9,5.1c2.4,4.3,2.4,8.9,0,10.3" class="g8_1" />
<path d="M241.6,254.1c0.6,-0.4,1.3,-0.5,1.8,-0.2c0.6,0.3,0.8,0.9,0.8,1.7" class="g8_1" />
<path d="M244.2,255.6c0,0.8,-0.2,1.8,-0.8,2.7c-0.5,0.9,-1.2,1.6,-1.8,2" class="g10_1" />
<path d="M241.6,260.3l-8.4,4.9" class="g10_1" />
<path d="M233.2,265.2l-3.5,1.9" class="g8_1" />
<path d="M241.6,254.1l-3.6,2.1" class="g8_1" />
<path d="M237.4,256.5l-3.6,2.1" class="g8_1" />
<path d="M233.1,259l-3.1,1.8" class="g8_1" />
<path d="M236.1,262c0.2,0.1,0.5,0,0.8,-0.2c0.7,-0.4,1.5,-0.8,2.3,-1.3c0.4,-0.3,0.8,-0.7,1.1,-1.2c0.6,-0.9,0.6,-1.9,0.3,-2.4" class="g8_1" />
<path d="M240.6,256.9c-0.1,-0.1,-0.2,-0.3,-0.3,-0.3c-0.3,-0.2,-0.7,-0.2,-1.1,0.1c-0.8,0.4,-1.5,0.8,-2.3,1.3c-0.4,0.3,-0.9,0.7,-1.2,1.2c-0.6,1.1,-0.6,2.3,0,2.7c0.1,0.1,0.3,0.1,0.4,0.1" class="g8_1" />
<path d="M236.4,260.8c0.1,0,0.3,0.1,0.5,0.2c0.3,0.2,0.7,0.2,1.1,0c0.4,-0.2,0.7,-0.4,1,-0.6c0.4,-0.2,0.8,-0.7,1.1,-1.2c0.6,-1.1,0.6,-2.2,0,-2.6" class="g8_1" />
<path d="M237.4,257.7c-0.1,0.2,-0.3,0.5,-0.5,0.7c-0.6,1.1,-0.6,2.3,0,2.6" class="g8_1" />
<path d="M235.5,261.7c0.3,0,0.5,-0.1,0.8,-0.2c0.2,-0.2,0.4,-0.3,0.7,-0.4" class="g8_1" />
<path d="M240.1,257.7c0,-0.3,-0.1,-0.5,-0.3,-0.6c-0.3,-0.2,-0.6,-0.1,-0.9,0.1c-0.3,0.1,-0.5,0.3,-0.8,0.4c-0.3,0.2,-0.7,0.5,-0.9,1c-0.5,0.8,-0.5,1.7,0,2c0.1,0,0.2,0.1,0.4,0" class="g8_1" />
<path d="M237.6,260.6c0.1,0,0.3,0,0.5,-0.1" class="g8_1" />
<path d="M238.9,260c0.3,-0.2,0.6,-0.5,0.9,-0.9c0.2,-0.3,0.3,-0.6,0.3,-0.9" class="g8_1" />
<path d="M236.1,258.7c-0.3,0.9,-0.2,1.7,0.3,2.1" class="g8_1" />
<path d="M236.9,259.8c0,0.2,0.1,0.3,0.2,0.3c0.2,0.1,0.5,0.1,0.8,0c0.2,-0.2,0.5,-0.3,0.7,-0.4c0.3,-0.2,0.5,-0.5,0.7,-0.8c0.4,-0.7,0.4,-1.5,0,-1.7c0,0,-0.1,0,-0.2,0" class="g8_1" />
<path d="M240.6,257.5l0.2,0.2l3.5,-2l6.4,-4.7" class="g8_1" />
<path d="M240.7,252.8l-3,1.7" class="g8_1" />
<path d="M240.7,252.8c1.1,-0.3,2,-0.2,2.6,0.3c0.6,0.5,0.9,1.3,0.9,2.6" class="g8_1" />
<path d="M210.3,259.2c0.5,-1.1,1.1,-2,1.7,-2.7c0.5,-0.7,1.1,-1.3,1.6,-1.7c8.7,-5,17.4,-10.1,26.2,-15.1c1.6,-0.2,3.2,0.2,4.8,1.2c1.6,0.9,3.3,2.4,4.9,4.4c1.7,3.9,1.7,7.7,0,9.7c-2.1,1.2,-4.1,2.3,-6.2,3.6" class="g10_1" />
<path d="M249.5,245.3L236.2,253l1.8,3.2" class="g8_1" />
<path d="M237.5,250.1c-1.1,-1.3,-2.2,-2.2,-3.3,-2.9c-1.1,-0.6,-2.2,-1,-3.3,-1.2c-0.2,0,-0.3,-0.1,0,-0.4c3.1,-1.7,6.2,-3.5,9.3,-5.3c0.4,-0.2,0.5,-0.2,0.6,-0.2c1.1,0.2,2.2,0.6,3.3,1.3c1.2,0.6,2.3,1.6,3.5,2.9c0.1,0.1,0.3,0.3,0,0.5c-3.1,1.8,-6.2,3.6,-9.3,5.4c-0.5,0.3,-0.8,-0.1,-0.8,-0.1Z" class="g8_1" />
<path d="M195.9,252.3c-1.2,-0.7,-1.2,-2.8,0,-4.8c0.6,-1,1.3,-1.8,2.1,-2.2c0.3,-0.2,0.7,-0.3,1,-0.3c0.4,0,0.8,0.2,1.2,0.4c2.3,1.1,4.6,2,6.7,2.7c2.1,0.7,4.2,1.3,6.1,1.6c0.5,0.2,1.2,0.2,1.8,0.2c0.7,0,1.5,-0.1,2.2,-0.2c0.9,-0.1,1.7,-0.1,2.3,0c0.6,0.1,1.2,0.4,1.6,0.9" class="g8_1" />
<path d="M211.3,257.5c-0.3,-0.2,-0.8,-0.4,-1.5,-0.6c-0.6,-0.1,-1.4,-0.4,-2.3,-0.6c-2.7,-0.5,-5,-1.2,-7.2,-2c-2.1,-0.8,-3.9,-1.6,-5.4,-2.6" class="g10_1" />
<path d="M220.2,245.9c-0.1,-0.1,-0.2,-0.1,-0.3,-0.2c-0.3,-0.1,-0.6,-0.1,-1,0.1c-0.5,0.3,-1,0.5,-1.6,0.5c-0.7,0,-1.5,-0.2,-2.3,-0.5c-1.5,-0.8,-3.1,-1.5,-4.9,-2c-1.8,-0.6,-3.6,-1.1,-5.6,-1.5c-0.7,-0.2,-1.3,-0.4,-1.6,-0.7c-0.4,-0.2,-0.4,-0.5,-0.4,-0.9" class="g10_1" />
<path d="M178.8,233.4l4.9,2.9" class="g8_1" />
<path d="M177.2,236.4l4.8,2.8" class="g8_1" />
<path d="M183.7,236.3c0.7,0.4,0.9,1.3,0.4,2.1c-0.4,0.8,-1.4,1.2,-2.1,0.8" class="g8_1" />
<path d="M188.8,237.2L180,232.1" class="g8_1" />
<path d="M191.1,225.5c1.8,1,3.6,2,5.4,3.1c0.6,0.3,0.6,1,0,1.4c-0.7,0.4,-1.8,0.4,-2.4,0c-1.8,-1.1,-3.5,-2.1,-5.4,-3.1" class="g8_1" />
<path d="M205,228.7c0.7,0.4,1.3,1.2,1.8,2.5c0.4,1.4,0.8,3.2,1.1,5.5c-0.4,2.3,-0.9,4,-1.6,5.3c-0.1,0.2,-0.2,0.3,-0.3,0.5" class="g10_1" />
<path d="M194.8,251.6c-0.6,-0.2,-1.2,-0.4,-1.7,-0.4c-0.5,0,-1,0.2,-1.5,0.5" class="g10_1" />
<path d="M193.9,251.3c-1.7,0.8,-3.2,1.3,-4.3,1.5c-1.2,0.2,-2.1,0,-2.6,-0.5" class="g10_1" />
<path d="M225.5,263.3c-1.2,0.7,-1.8,2.5,-1.8,4.2c0,1.7,0.6,2.8,1.8,2.1" class="g8_1" />
<path d="M210.3,259.2c-0.8,1.3,-1.1,3,-1.1,4.7c0,1.8,0.3,3,1.1,3.5c1.4,0.8,2.7,1.5,4.2,2.4" class="g10_1" />
<path d="M204.8,231.3c-0.6,1.3,-1.1,2.7,-1.5,4.3c-0.3,1.5,-0.6,3.2,-0.8,4.9" class="g8_1" />
<path d="M188.6,238.2c0.4,0.2,0.7,0.5,1,0.8c0.2,0.2,0.4,0.6,0.4,1c0.4,1.6,0.9,3,1.6,4c0.8,1.1,1.7,1.9,2.7,2.5" class="g8_1" />
<path d="M194.8,251.6c-1.2,-0.6,-1.2,-2.8,0,-4.8c0.6,-1,1.3,-1.7,2.1,-2.1c1.4,-0.9,2.9,-1.7,4.3,-2.6c0.8,-0.4,1.5,-0.5,2.1,-0.2" class="g8_1" />
<path d="M194.5,251.5c-1.1,-0.7,-1.1,-2.8,0,-4.8c0.6,-1,1.3,-1.8,2.1,-2.2c1.4,-0.8,2.9,-1.7,4.4,-2.5c0.7,-0.5,1.5,-0.6,2,-0.2" class="g8_1" />
<path d="M203.3,241.9c0.1,-0.1,0.2,-0.2,0.3,-0.3c0.1,-0.2,0.2,-0.3,0.4,-0.4c0.5,-0.5,1.1,-1.1,1.7,-1.7c0.6,-0.6,1.2,-1.2,1.9,-1.9c0,-0.1,0.1,-0.3,0.2,-0.3c0,-0.1,0,-0.2,0,-0.2" class="g8_1" />
<path d="M235.3,260.8c-3.9,2.2,-7.7,4.5,-11.6,6.7c-1.6,0.7,-3.4,1,-5.1,0.8c-1.8,-0.2,-3.5,-0.9,-5.2,-2c-1.4,-0.8,-2.8,-1.5,-4.2,-2.4" class="g8_1" />
<path d="M225,246.8c-0.9,-0.5,-1.8,-1,-2.7,-1.6c-0.6,-0.3,-0.9,-0.2,-1.4,0.1c-0.2,0.2,-0.5,0.4,-0.7,0.6" class="g10_1" />
<path d="M228.8,246c0,-0.2,-0.1,-0.3,-0.3,-0.4c-0.5,-0.3,-1.2,-0.3,-1.6,0c-0.5,0.3,-1.1,0.6,-1.6,0.9c-0.3,0.2,-0.4,0.3,-0.4,0.5c0,0.4,0,0.8,0,1.3" class="g10_1" />
<path d="M224.9,247c0,0.2,0.1,0.3,0.4,0.4c0.2,0.2,0.4,0.2,0.7,0.2" class="g8_1" />
<path d="M224.8,247.9c-0.1,0.2,-0.1,0.3,0,0.5" class="g8_1" />
<path d="M224.9,247.2c-0.3,0.2,-0.7,0.4,-1,0.6c-0.2,0.1,-0.5,0.3,-0.8,0.3c-0.3,0,-0.6,-0.1,-0.9,-0.2" class="g8_1" />
<path d="M223.5,248c-0.7,-0.2,-1.3,-0.4,-1.9,-0.8c-0.5,-0.4,-1,-0.8,-1.4,-1.3" class="g8_1" />
<path d="M229.8,267.1c0,-0.2,0,-0.4,0,-0.6c0,-0.1,0,-0.1,0,-0.1" class="g8_1" />
<path d="M233.3,258.8l-0.1,-0.2l0,-1.4l-0.5,-0.3l-3.4,2l0,1.9" class="g10_1" />
<path d="M229.3,260.8c0,0,-1.6,-0.9,-1.6,-0.9" class="g8_1" />
<path d="M232.9,258.7l-2.8,1.6" class="g8_1" />
<path d="M236.2,253l1.5,1.5l0.3,1.7" class="g8_1" />
<path d="M233.6,256.3l-8.3,4.8" class="g8_1" />
<path d="M229.5,261.8l-1.9,-1.9" class="g8_1" />
<path d="M229.4,259l0.3,0.2" class="g8_1" />
<path d="M233.6,256.3c0.7,-0.3,1,0,1,0c0,0,0.3,0.2,0.3,0.2" class="g8_1" />
<path d="M234.5,254.5l0,1" class="g8_1" />
<path d="M233.2,257.5c0.6,-0.3,1.2,-0.7,1.8,-1.1c0,0,0.5,-0.1,0.3,-0.7" class="g10_1" />
<path d="M235.3,255.7c0,0,0,-0.1,0,-0.2c-0.3,-0.4,-0.5,-0.8,-0.8,-1.2c0,0,-0.2,-0.6,-0.9,-0.3c-2.9,1.7,-5.8,3.3,-8.7,5.1c-0.1,0,-0.2,0.1,-0.3,0.2" class="g8_1" />
<path d="M224.6,259.3c-0.2,0.3,0,0.8,0,0.8c0.5,0.9,1.1,1.9,1.7,2.9c0,0,0,0.5,0,0.5c0,0.3,0.1,0.4,0.3,0.4" class="g10_1" />
<path d="M226.6,263.9c0.1,0,0.2,-0.1,0.2,-0.1c0.9,-0.5,1.7,-1,2.6,-1.5c0,0,0.4,-0.2,0.4,-0.8c0,-0.2,0,-0.4,0,-0.6c0,-0.1,0,-0.3,0,-0.4c0,-0.4,0,-0.9,0,-1.3c0,0,3.4,-2,3.4,-2" class="g8_1" />
<path d="M229.2,266.3c0,0,0.1,-0.1,0.1,0.1c0,0.6,0,1.3,0,1.9c0.2,0.1,0.3,0.1,0.5,0.2c1.1,-0.6,2.2,-1.3,3.4,-1.9c0,0,0,-1.4,0,-1.4" class="g10_1" />
<path d="M229.5,268.5l0,-1" class="g8_1" />
<path d="M234.4,251.3c0.7,-0.4,1.4,-0.8,2,-1.2c0.1,0.1,0.2,0.2,0.3,0.4c0.2,0.1,0.3,0.2,0.4,0.3" class="g8_1" />
<path d="M237.1,250.8c-0.6,0.4,-1.3,0.8,-2,1.2c-0.1,-0.1,-0.2,-0.3,-0.4,-0.4c-0.1,-0.1,-0.2,-0.2,-0.3,-0.3" class="g8_1" />
<path d="M233.5,250.5c0.7,-0.4,1.4,-0.8,2,-1.2c0.1,0.1,0.3,0.2,0.4,0.3c0.1,0.1,0.3,0.3,0.4,0.4" class="g8_1" />
<path d="M236.3,250c-0.7,0.3,-1.4,0.7,-2,1.1c-0.1,-0.1,-0.3,-0.2,-0.4,-0.3c-0.1,-0.2,-0.3,-0.3,-0.4,-0.4" class="g8_1" />
<path d="M232.6,249.6c0.6,-0.4,1.3,-0.8,1.9,-1.1c0.1,0,0.3,0.2,0.4,0.2c0.1,0.1,0.3,0.3,0.5,0.4" class="g8_1" />
<path d="M235.4,249.1c-0.7,0.4,-1.4,0.8,-2,1.2c-0.1,-0.1,-0.3,-0.2,-0.5,-0.4c-0.1,-0.1,-0.2,-0.2,-0.3,-0.3" class="g8_1" />
<path d="M231.4,248.8c0.7,-0.3,1.3,-0.7,2,-1.1c0.1,0.1,0.3,0.2,0.4,0.2c0.2,0.1,0.4,0.3,0.6,0.4" class="g8_1" />
<path d="M234.4,248.3c-0.7,0.4,-1.4,0.7,-2,1.1c-0.2,0,-0.4,-0.2,-0.5,-0.3c-0.2,-0.1,-0.3,-0.2,-0.5,-0.3" class="g8_1" />
<path d="M230.2,248.2c0.7,-0.4,1.3,-0.8,2,-1.2c0.1,0,0.3,0.2,0.5,0.2c0.1,0.1,0.3,0.2,0.5,0.3" class="g8_1" />
<path d="M233.2,247.5c-0.6,0.4,-1.3,0.8,-2,1.2c-0.1,-0.1,-0.3,-0.2,-0.5,-0.3c-0.1,-0.1,-0.3,-0.2,-0.5,-0.2" class="g8_1" />
<path d="M229,247.7c0.7,-0.3,1.3,-0.7,2,-1.1c0.1,0,0.3,0.1,0.5,0.1c0.1,0,0.3,0.1,0.5,0.2" class="g8_1" />
<path d="M232,246.9c-0.7,0.4,-1.4,0.8,-2,1.2c-0.2,-0.1,-0.3,-0.2,-0.5,-0.2c-0.1,0,-0.3,-0.1,-0.5,-0.2" class="g8_1" />
<path d="M227.7,247.5c0.7,-0.4,1.4,-0.8,2,-1.2c0.1,0,0.3,0.1,0.5,0.1c0.2,0,0.4,0.1,0.5,0.1" class="g8_1" />
<path d="M230.7,246.5c-0.6,0.3,-1.3,0.7,-1.9,1.1c-0.2,0,-0.4,0,-0.5,0c-0.2,0,-0.4,-0.1,-0.6,-0.1" class="g8_1" />
<path d="M222.9,257.9c1.4,-0.8,2.8,-1.6,4.3,-2.5c0.1,0.1,0.2,0.3,0.3,0.4c0.2,0.1,0.3,0.3,0.4,0.4" class="g8_1" />
<path d="M227.9,256.2c-1.5,0.8,-2.9,1.7,-4.4,2.5c-0.1,-0.1,-0.2,-0.3,-0.3,-0.4c-0.1,-0.1,-0.2,-0.2,-0.4,-0.3" class="g8_1" />
<path d="M222,257.1c1.4,-0.8,2.9,-1.6,4.3,-2.5c0.1,0.1,0.3,0.2,0.4,0.3c0.1,0.1,0.2,0.3,0.3,0.4" class="g8_1" />
<path d="M227,255.3c-1.4,0.8,-2.8,1.7,-4.3,2.5c-0.1,-0.1,-0.3,-0.2,-0.4,-0.3c-0.1,-0.2,-0.2,-0.3,-0.3,-0.4" class="g8_1" />
<path d="M221,256.3c1.4,-0.8,2.9,-1.7,4.3,-2.5c0.1,0,0.3,0.2,0.4,0.3c0.1,0,0.3,0.2,0.5,0.3" class="g8_1" />
<path d="M226.2,254.4c-1.5,0.9,-2.9,1.7,-4.4,2.6c-0.1,-0.2,-0.3,-0.3,-0.4,-0.4c-0.1,-0.1,-0.3,-0.2,-0.4,-0.3" class="g8_1" />
<path d="M219.9,255.5c1.4,-0.9,2.8,-1.7,4.3,-2.5c0.1,0.1,0.3,0.2,0.4,0.3c0.2,0.1,0.4,0.2,0.5,0.3" class="g8_1" />
<path d="M225.1,253.6c-1.4,0.8,-2.9,1.7,-4.3,2.5c-0.2,0,-0.3,-0.2,-0.5,-0.3c-0.1,-0.1,-0.3,-0.2,-0.5,-0.3" class="g8_1" />
<path d="M218.7,254.8c1.4,-0.8,2.8,-1.6,4.3,-2.5c0.1,0.1,0.3,0.2,0.5,0.3c0.1,0,0.3,0.2,0.5,0.3" class="g8_1" />
<path d="M224,252.9c-1.4,0.8,-2.9,1.6,-4.3,2.5c-0.2,-0.1,-0.4,-0.2,-0.5,-0.3c-0.2,-0.1,-0.4,-0.2,-0.6,-0.3" class="g8_1" />
<path d="M217.5,254.4c1.4,-0.8,2.8,-1.6,4.3,-2.5c0.1,0,0.3,0.1,0.4,0.2c0.2,0,0.4,0.1,0.6,0.1" class="g8_1" />
<path d="M222.8,252.2c-1.5,0.8,-2.9,1.7,-4.4,2.6c-0.1,-0.1,-0.3,-0.2,-0.5,-0.2c-0.1,0,-0.3,-0.2,-0.5,-0.2" class="g8_1" />
<path d="M216.2,254.2c1.4,-0.8,2.9,-1.7,4.3,-2.5c0.1,0,0.3,0,0.5,0c0.2,0,0.3,0.1,0.5,0.1" class="g8_1" />
<path d="M221.5,251.8c-1.4,0.8,-2.9,1.7,-4.3,2.5c-0.2,0,-0.4,0,-0.5,0c-0.2,0,-0.4,-0.1,-0.6,-0.1" class="g8_1" />
<path d="M264.3,240.8l-3.6,2.1" class="g8_1" />
<path d="M263.9,242.5l-3.2,1.8" class="g8_1" />
<path d="M264,242.1l-3.3,1.9" class="g8_1" />
<path d="M264.3,240.3l-3.6,2.1" class="g8_1" />
<path d="M264.1,238.9l-3.7,2.2" class="g8_1" />
<path d="M263.9,238.4l-3.7,2.1" class="g8_1" />
<path d="M263.3,236.9l-3.8,2.2" class="g8_1" />
<path d="M262.9,236.3l-3.7,2.2" class="g8_1" />
<path d="M261.9,235l-3.7,2.1" class="g8_1" />
<path d="M261.4,234.5l-3.6,2.1" class="g8_1" />
<path d="M260.4,233.7l-3.6,2.1" class="g8_1" />
<path d="M259.9,233.4l-3.5,2.1" class="g8_1" />
<path d="M258.5,233.1l-3.1,1.8" class="g8_1" />
<path d="M258.2,233.1l-3.1,1.8" class="g8_1" />
<path d="M257.6,233.3c1.6,-0.9,4.1,0.5,5.7,3.2c1.6,2.8,1.6,5.7,0,6.7" class="g8_1" />
<path d="M245.2,236.9c0.2,0,0.3,-0.2,0.5,-0.2c1.3,-0.8,2.6,-1.4,3.8,-1.6c1.2,-0.2,2.4,-0.3,3.4,0c1.8,-1.1,4.7,0.6,6.5,3.7c1.8,3.1,1.8,6.5,0,7.5c-0.4,1.1,-1.1,2,-2,2.9c-0.8,0.9,-1.9,1.6,-3.2,2.3" class="g10_1" />
<path d="M229.8,266.4c-0.1,-0.4,-0.5,-0.2,-0.5,-0.2c-0.8,0.5,-1.6,1,-2.5,1.5c0,0,-0.5,0.3,-0.5,0.9c0,0,0,0.6,0,0.6c0,0,0,-0.1,0,-0.1c-0.3,0.2,-0.7,0.4,-1,0.6c-0.8,0.5,-1.6,0.9,-2.3,1.1c-0.8,0.3,-1.5,0.5,-2.2,0.7c-0.7,0.1,-1.6,0,-2.7,-0.2c-1.1,-0.3,-2.3,-0.8,-3.6,-1.5" class="g10_1" />
<path d="M236.5,250.5l0,1" class="g8_1" />
<path d="M235.5,249.5l0,1" class="g8_1" />
<path d="M234.5,248.5l0,1" class="g8_1" />
<path d="M233.5,247.5l0,1" class="g8_1" />
<path d="M232.5,247.5l0,1" class="g8_1" />
<path d="M231.5,246.5l0,1" class="g8_1" />
<path d="M227.5,255.5l0,1" class="g8_1" />
<path d="M226.5,254.5l0,1" class="g8_1" />
<path d="M225.5,253.5l0,1" class="g8_1" />
<path d="M224.5,253.5l0,1" class="g8_1" />
<path d="M222.5,252.5l0,1" class="g8_1" />
<path d="M221.5,251.5l0,1" class="g8_1" />
<path d="M220.5,251.5l0,1" class="g8_1" />
<path d="M305.2,233c0.3,0.2,0.7,0.4,1.1,0.6c0,0.4,0,0.9,0,1.3c-0.4,0.2,-0.8,0.4,-1.1,0.5c-0.3,0.2,-0.6,0.3,-0.9,0.3" class="g8_1" />
<path d="M306.3,233.6c-2.9,1.7,-1.3,2.1,-2.7,2.9c-0.6,0.3,-1.3,0.7,-1.9,1.1c-0.1,0,-0.2,0.1,-0.3,0.1c-0.1,0,-0.3,0.1,-0.4,0.1" class="g8_1" />
<path d="M305.2,233c-2.9,1.6,-0.7,2.9,-3.5,4.6" class="g8_1" />
<path d="M303.4,234c-2.8,1.6,-0.6,2.9,-3.5,4.6c-0.4,0.2,-0.7,0.4,-1.2,0.6c-0.1,0.1,-0.2,0.2,-0.3,0.2c-0.1,0,-0.2,0,-0.3,0" class="g8_1" />
<path d="M304.1,233.8c-0.1,0,-0.3,0.1,-0.4,0.1c-0.1,0,-0.2,0.1,-0.3,0.1c-0.4,0.2,-0.8,0.5,-1.1,0.7c-2.9,1.6,-0.7,2.9,-3.6,4.5" class="g8_1" />
<path d="M300.6,235.6c-2.9,1.7,-0.7,2.9,-3.5,4.6c-0.4,0.2,-0.8,0.5,-1.2,0.7c-0.1,0,-0.3,0.1,-0.3,0.1c-0.1,0,-0.3,0.1,-0.4,0.1" class="g8_1" />
<path d="M301.2,235.5c-0.1,0,-0.3,0.1,-0.4,0.1c0,0,-0.2,0,-0.2,0c-0.4,0.3,-0.8,0.5,-1.2,0.7c-2.9,1.7,-0.7,2.9,-3.5,4.6" class="g8_1" />
<path d="M297.7,237.3c-2.9,1.7,-0.7,2.9,-3.5,4.6c-0.4,0.2,-0.8,0.4,-1.2,0.7c-0.1,0,-0.3,0.1,-0.3,0.1c-0.1,0,-0.3,0,-0.4,0" class="g8_1" />
<path d="M298.3,237.2c-0.1,0,-0.3,0,-0.4,0c0,0,-0.2,0.1,-0.2,0.1c-0.4,0.3,-0.8,0.5,-1.2,0.7c-2.9,1.7,-0.7,2.9,-3.5,4.6" class="g8_1" />
<path d="M294.9,239c-2.9,1.6,-0.7,2.8,-3.5,4.5c-0.4,0.2,-0.8,0.4,-1.2,0.7c-0.1,0,-0.3,0.1,-0.4,0.1c0,0,-0.2,0.1,-0.2,0.1" class="g8_1" />
<path d="M295.5,238.8c-0.1,0,-0.3,0.1,-0.4,0.1c-0.1,0,-0.2,0,-0.2,0.1c-0.4,0.2,-0.8,0.4,-1.2,0.6c-2.8,1.7,-0.7,2.9,-3.5,4.6" class="g8_1" />
<path d="M292,240.6c-2.9,1.7,-0.7,2.9,-3.5,4.6c-0.4,0.2,-0.8,0.4,-1.2,0.7c-0.1,0,-0.3,0.1,-0.4,0.1c0,0,-0.2,0.1,-0.2,0.1" class="g8_1" />
<path d="M292.6,240.5c-0.1,0,-0.3,0,-0.4,0c-0.1,0,-0.2,0.1,-0.2,0.1c-0.4,0.3,-0.8,0.5,-1.2,0.7c-2.8,1.7,-0.7,2.9,-3.5,4.6" class="g8_1" />
<path d="M289,242.3c-2.8,1.7,-0.7,2.9,-3.5,4.6c-4.6,2.7,-9.2,5.3,-13.8,8c-0.4,0.2,-0.9,-0.1,-1.1,-0.6c-0.4,-0.6,-0.4,-1.1,0,-1.3c6.1,-3.5,12.3,-7.1,18.4,-10.7c0,0,0.2,-0.1,0.3,-0.1c0.1,0,0.3,-0.1,0.4,-0.1" class="g8_1" />
<path d="M270.6,253c0.1,0,0.3,0.1,0.4,0.2c0.1,0,0.3,0.2,0.4,0.4c0.2,0.3,0.3,0.6,0.4,0.8c0,0.2,0,0.4,-0.1,0.5" class="g8_1" />
<path d="M408.5,169.5l118,0" class="g8_1" />
<path d="M611.1,396c0,-2,3.2,-3.6,7.1,-3.6c3.9,0,7,1.6,7,3.6" class="g10_1" />
<path d="M625.2,396c0,2.1,-3.1,3.7,-7,3.7c-3.9,0,-7.1,-1.6,-7.1,-3.7" class="g8_1" />
<path d="M564.5,489.8c0,-2,3.1,-3.7,7,-3.7c3.9,0,7.1,1.7,7.1,3.7" class="g10_1" />
<path d="M578.6,489.8c0,2,-3.2,3.6,-7.1,3.6c-3.9,0,-7,-1.6,-7,-3.6" class="g8_1" />
<path d="M576.8,487.3c1,1.8,-1.3,3.7,-5.2,3.7c-3.9,0,-6.2,-1.6,-5.3,-3.7" class="g8_1" />
<path d="M571,487.1l1,0.3l1,-0.1l0,0.6l0.7,0.6l-0.9,0.3l-0.7,0.6L571.5,489l-1.4,0.2l0,-0.7l-0.7,-0.6l1,-0.2Z" class="g10_1" />
<path d="M532,507.7c0,-2,3.1,-3.6,7,-3.6c3.9,0,7.1,1.6,7.1,3.6" class="g10_1" />
<path d="M546.1,507.7c0,2,-3.2,3.7,-7.1,3.7c-3.9,0,-7,-1.7,-7,-3.7" class="g8_1" />
<path d="M544.3,505.3c0.9,1.7,-1.3,3.6,-5.2,3.6c-3.9,0,-6.2,-1.6,-5.3,-3.6" class="g8_1" />
<path d="M538.5,505l1,0.4l1,-0.1l0,0.5l0.7,0.6l-0.9,0.3l-0.7,0.6L539,507l-1.4,0.1l0,-0.7l-0.7,-0.6l1,-0.2Z" class="g10_1" />
<path d="M675.6,575.3c0,-2,3.2,-3.6,7.1,-3.6c3.9,0,7,1.6,7,3.6" class="g10_1" />
<path d="M689.7,575.3c0,2,-3.1,3.7,-7,3.7c-3.9,0,-7.1,-1.7,-7.1,-3.7" class="g8_1" />
<path d="M687.9,572.9c1,1.7,-1.3,3.6,-5.2,3.6c-3.9,0,-6.1,-1.6,-5.3,-3.6" class="g8_1" />
<path d="M682.2,572.6l1,0.4l1,-0.1l0,0.5l0.7,0.7l-1,0.2l-0.7,0.6l-0.6,-0.3l-1.4,0.1l0.1,-0.7l-0.7,-0.5l0.9,-0.3Z" class="g10_1" />
<path d="M708.1,557.6c0,-2,3.2,-3.7,7.1,-3.7c3.9,0,7,1.7,7,3.7" class="g10_1" />
<path d="M722.2,557.6c0,2,-3.1,3.6,-7,3.6c-3.9,0,-7.1,-1.6,-7.1,-3.6" class="g8_1" />
<path d="M720.4,555.1c1,1.8,-1.3,3.7,-5.2,3.7c-3.9,0,-6.1,-1.6,-5.3,-3.6" class="g8_1" />
<path d="M714.7,554.9l1,0.3l1,-0.1l0,0.6l0.6,0.6l-0.9,0.3l-0.7,0.6l-0.6,-0.4l-1.4,0.2l0,-0.7l-0.6,-0.6l0.9,-0.2Z" class="g10_1" />
<path d="M622.3,393.1c0.1,0.2,-0.2,2,-4.1,2c-3.9,0,-4.2,-1.8,-4.2,-2" class="g8_1" />
<path d="M621.5,392.9c-0.6,0.4,-1.6,0.7,-3.3,0.7c-1.7,0,-2.7,-0.3,-3.3,-0.7" class="g10_1" />
<path d="M682.8,430.3c0,-2.1,3.1,-3.7,7,-3.7c3.9,0,7.1,1.6,7.1,3.7" class="g10_1" />
<path d="M696.9,430.3c0,2,-3.2,3.6,-7.1,3.6c-3.9,0,-7,-1.6,-7,-3.6" class="g8_1" />
<path d="M693.9,427.3c0.2,0.2,-0.1,2.1,-4,2.1c-3.9,0,-4.3,-1.9,-4.2,-2.1" class="g8_1" />
<path d="M693.2,427.1c-0.6,0.4,-1.6,0.7,-3.3,0.7c-1.7,0,-2.7,-0.3,-3.3,-0.7" class="g10_1" />
<path d="M754.3,464.3c0,-2,3.2,-3.7,7.1,-3.7c3.9,0,7,1.7,7,3.7" class="g10_1" />
<path d="M768.4,464.3c0,2,-3.1,3.6,-7,3.6c-3.9,0,-7.1,-1.6,-7.1,-3.6" class="g8_1" />
<path d="M765.5,461.3c0.1,0.3,-0.2,2.1,-4.1,2.1c-3.9,0,-4.2,-1.9,-4.2,-2.1" class="g8_1" />
<path d="M764.7,461.1c-0.6,0.4,-1.6,0.7,-3.3,0.7c-1.7,0,-2.7,-0.3,-3.3,-0.7" class="g10_1" />
<path d="M515.9,503.9l65.4,-36.6" class="g8_1" />
<path d="M665.6,583.5L514.9,512.6" class="g10_1" />
<path d="M594.4,470.7L704,522.6m27.8,13.2l12.9,6.1" class="g8_1" />
<path d="M530.1,500.1l58.8,-32.5" class="g8_1" />
<path d="M530.1,504.6l59,-32.6" class="g8_1" />
<path d="M514.9,440.8l66.5,-37.4" class="g10_1" />
<path d="M595.7,395.9l18.5,-10.2" class="g10_1" />
<path d="M596.2,400.1l18.3,-10" class="g8_1" />
<path d="M714.7,456.9l18.5,-10.1" class="g10_1" />
<path d="M735.7,462.6l18.9,-10.3" class="g10_1" />
<path d="M736.2,466.9l18.4,-10.1" class="g8_1" />
<path d="M754.6,476l18.6,-10.2" class="g10_1" />
<path d="M689.9,579.3l58.3,-31.7" class="g10_1" />
<path d="M672.9,580L531.1,513.2" class="g10_1" />
<path d="M772.9,461.1L764,456.8M733,442.1L624.9,390.5" class="g8_1" />
<path d="M772.8,456.5L764,452.3M732.8,437.4L624.7,385.9" class="g10_1" />
<path d="M511.4,506.9L511.6,445" class="g10_1" />
<path d="M584.4,462.6l0.2,-56.4c0,-1.4,-1.8,-3.6,-3.2,-2.8" class="g8_1" />
<path d="M587.4,464l0.1,-56.9" class="g10_1" />
<path d="M590.4,465.1l0.1,-60.3" class="g10_1" />
<path d="M593.8,463.4l0.1,-60.1" class="g8_1" />
<path d="M713,520.2l-0.1,-60.5" class="g10_1" />
<path d="M730.9,531.1l0,-10.8m-0.1,-17.1l-0.1,-31.9" class="g10_1" />
<path d="M734.3,530.3l0,-11.4m-0.1,-17l-0.1,-32.2" class="g8_1" />
<path d="M753.1,538.1L753,514.2m-0.1,-16.4l-0.1,-18.9" class="g10_1" />
<path d="M596.9,469.3l109.5,51.9m27.8,13.2l12.9,6.1" class="g8_1" />
<path d="M707.1,530.2l19.1,9.1" class="g8_1" />
<path d="M710.1,527l16.2,7.7" class="g10_1" />
<path d="M711.9,524.2l15.9,7.6" class="g8_1" />
<path d="M716.8,522.3l13.6,6.6" class="g8_1" />
<path d="M712.3,523.3l1.6,-0.9l2.9,-0.1l0,-13.6" class="g8_1" />
<path d="M713.9,522.4l0,-13.9" class="g8_1" />
<path d="M716.8,508.7c0,-0.6,0.6,-3.4,2.8,-4.2c2.5,-1.1,5,0.8,5.1,0.9" class="g8_1" />
<path d="M717.1,503.3c3.5,-1.5,7,1.2,7.6,2.1" class="g10_1" />
<path d="M713.9,508.5c0,-1.1,1.4,-4.4,3.2,-5.2" class="g8_1" />
<path d="M713,505.7l4.1,-2.4" class="g10_1" />
<path d="M730.4,520.4l0,8.5l0.2,1.4l-2.8,1.4" class="g10_1" />
<path d="M720.7,505.6c0.9,-0.2,2,-0.1,3,0.4" class="g8_1" />
<path d="M719.5,516.4c-2.5,-4.6,-1.9,-8.9,0,-10.3c0.3,-0.2,0.7,-0.4,1.2,-0.5" class="g10_1" />
<path d="M726.6,522.2c-2.7,0.1,-5.1,-1.9,-7.1,-5.8" class="g10_1" />
<path d="M726.3,534.7c1,0.4,2.3,0.1,3.4,-0.8c1.1,-0.9,1.1,-2.6,1.2,-2.8" class="g10_1" />
<path d="M726.2,539.3c1.9,0.4,3.6,-0.7,5,-2.1c2.3,-2.5,3,-6.6,3.1,-6.9" class="g8_1" />
<path d="M707.1,530.2c-0.2,-0.1,-0.5,-0.7,0.1,-1.1" class="g10_1" />
<path d="M707.2,529.1c0.2,0,2.5,-1.3,3.7,-3.2c1.6,-2.4,2.2,-5.4,2.1,-5.7" class="g10_1" />
<path d="M729.2,531l1.6,0.8" class="g10_1" />
<path d="M714.7,456.9c0,0,-1.5,0.9,-1.8,2.8" class="g10_1" />
<path d="M735.7,462.6c0,0,-4.7,2.4,-5,8.7" class="g10_1" />
<path d="M736.2,466.9c0,0,-1.7,0.6,-2.1,2.8" class="g8_1" />
<path d="M712.9,464.6l17.8,8.4" class="g10_1" />
<path d="M734.7,439.9l0,4.8c0,0,-0.1,1.3,-1.5,2.1" class="g10_1" />
<path d="M733,442.1c0,0,1.7,1.1,1.7,2.2" class="g8_1" />
<path d="M732.8,437.4c0,0,1.9,0.9,1.9,2.5" class="g10_1" />
<path d="M754.6,452.3c0,0,4.6,-1.9,9.4,0" class="g10_1" />
<path d="M754.6,456.8c0,0,4.7,-1.8,9.4,0" class="g8_1" />
<path d="M774.6,458.8l0,4.8c0,0,0,1.4,-1.4,2.2" class="g10_1" />
<path d="M772.9,461.1c0,0,1.4,0.8,1.7,1.9" class="g8_1" />
<path d="M772.8,456.5c0,0,1.8,0.9,1.8,2.3" class="g10_1" />
<path d="M754.6,476c0,0,-1.8,1,-1.8,2.9" class="g10_1" />
<path d="M599.1,404.2l109.5,51.9m27.8,13.2l12.9,6.1" class="g8_1" />
<path d="M614.5,390.1c0,0,4.8,-2.2,10.4,0.4" class="g8_1" />
<path d="M614.2,385.7c0,0,5,-2.2,10.5,0.2" class="g10_1" />
<path d="M595.7,395.9c0,0,-5.1,2.8,-5.2,8.9" class="g10_1" />
<path d="M596.2,400.1c0,0,-2.3,1.1,-2.3,3.2" class="g8_1" />
<path d="M590.5,406.4l-6.8,-3.2c0,0,-1.2,-0.4,-2.3,0.2" class="g10_1" />
<path d="M586,404.3c0,0,1.5,0.8,1.5,2.8" class="g10_1" />
<path d="M590.4,465.1c0,0,-0.2,1.8,-1.5,2.5" class="g10_1" />
<path d="M593.8,463.4c0,0,-0.2,5.7,-4.7,8.6" class="g8_1" />
<path d="M587.4,464l2.9,1.5" class="g10_1" />
<path d="M511.6,445c0,0,0,-2.4,3.3,-4.2" class="g10_1" />
<path d="M511.4,506.9c0,0,-0.6,3.8,3.5,5.7" class="g10_1" />
<path d="M527.4,503.9l0,3.7" class="g10_1" />
<path d="M527.4,503.9c0,0,-0.1,-2.3,2.7,-3.8" class="g8_1" />
<path d="M527.4,507.6c0,0,0.5,-1.8,2.7,-3" class="g8_1" />
<path d="M527.4,507.6c0,0,-0.8,3.6,3.7,5.6" class="g10_1" />
<path d="M672.9,580c0,0,8.4,3.4,17,-0.7" class="g10_1" />
<path d="M685.1,580.9l-4.4,2.3" class="g10_1" />
<path d="M665.6,583.5c0,0,7.1,2.7,15.1,-0.3" class="g10_1" />
<path d="M753.1,538.1c0,0,-0.7,6.8,-4.9,9.5" class="g10_1" />
<path d="M718,508.8c1.1,-0.7,11.4,-5.7,22.9,-8.6c10.5,-2.7,22.2,-3.4,27.2,-3.4c28.3,0,59.1,7.1,59.9,7.6" class="g10_1" />
<path d="M726.6,522.2c1.2,-0.6,11.4,-5.1,23,-7.4c10.5,-2.2,22.1,-2.3,27.2,-2c19.3,0.9,39.9,5.3,51.2,8.2" class="g10_1" />
<path d="M585.7,465.6l2.7,1.2" class="g8_1" />
<path d="M581.3,467.3c1,-0.5,3.1,-2.1,3.1,-4.7" class="g8_1" />
<path d="M409.1,796.3c0.6,1,0.6,2.5,0,4c-0.5,1.1,-1.2,1.9,-2,2.4" class="g10_1" />
<path d="M406.7,795.2c0.5,-0.1,1,-0.1,1.4,0.1c0.5,0.2,0.8,0.5,1,1" class="g8_1" />
<path d="M406.7,795.2l-3.4,1.6" class="g8_1" />
<path d="M407,802.7l-3.6,1.7" class="g10_1" />
<path d="M403.2,804.4l0.1,-7.6l1.5,0.9l-0.1,5.9" class="g8_1" />
<path d="M404.8,797.7l2.3,-1.3c0,0,1,-0.4,2,0.7" class="g8_1" />
<path d="M404.8,797.7l4.1,2.4" class="g8_1" />
<path d="M421.1,784.3l0,3.9l-8.5,3.7" class="g10_1" />
<path d="M412.3,792l0,-4.2l8.8,-3.8" class="g8_1" />
<path d="M412.3,787.8l1.4,1" class="g8_1" />
<path d="M413.7,791.4l0,-2.6l7.3,-3.2" class="g8_1" />
<path d="M413.7,788.8l2.5,1.3" class="g8_1" />
<path d="M420.6,798.2l0,3.5l-7.7,3.4" class="g10_1" />
<path d="M412.7,805.2l0,-3.8l7.9,-3.4" class="g8_1" />
<path d="M412.7,801.4l1.3,0.9" class="g8_1" />
<path d="M414,804.6l0,-2.3l6.5,-2.9" class="g8_1" />
<path d="M414,802.3l2.2,1.2" class="g8_1" />
<path d="M435.1,784.7c0.6,1,0.6,2.5,0,4c-0.5,1.1,-1.2,2,-2,2.4" class="g10_1" />
<path d="M432.7,783.6c0.5,-0.1,1,-0.1,1.4,0.1c0.5,0.2,0.8,0.6,1,1" class="g8_1" />
<path d="M432.7,783.6l-3.4,1.7" class="g8_1" />
<path d="M433,791.1l-3.6,1.8" class="g10_1" />
<path d="M429.2,792.8l0.1,-7.5l1.5,0.8l-0.1,5.9" class="g8_1" />
<path d="M430.8,786.1l2.3,-1.2c0,0,1,-0.4,2,0.6" class="g8_1" />
<path d="M430.8,786.1l4.1,2.5" class="g8_1" />
<path d="M447.2,772.7l0,3.9l-8.6,3.8" class="g10_1" />
<path d="M438.4,780.5l0,-4.2l8.8,-3.9" class="g8_1" />
<path d="M438.4,776.3l1.4,1" class="g8_1" />
<path d="M439.7,779.9l0.1,-2.6l7.2,-3.2" class="g8_1" />
<path d="M439.8,777.3l2.4,1.3" class="g8_1" />
<path d="M446.6,786.6l0,3.6l-7.7,3.3" class="g10_1" />
<path d="M438.7,793.6l0,-3.8l7.9,-3.4" class="g8_1" />
<path d="M438.7,789.8l1.3,0.9" class="g8_1" />
<path d="M440,793.1l0,-2.4l6.5,-2.8" class="g8_1" />
<path d="M440,790.7l2.2,1.2" class="g8_1" />
<path d="M500.4,736.4L392.1,783.2" class="g8_1" />
<path d="M504.5,774.5l0,-37" class="g8_1" />
<path d="M392.1,828.2L499.4,781.8" class="g8_1" />
<path d="M388.8,786.6l-0.1,42.5" class="g10_1" />
<path d="M505.5,779.5l0,-41" class="g8_1" />
<path d="M558.4,811l0,-46.1" class="g10_1" />
<path d="M402.3,831.3L505,787.1" class="g8_1" />
<path d="M402.7,834.3l102,-44" class="g8_1" />
<path d="M472.2,850.3l84.4,-36.4" class="g10_1" />
<path d="M444,862.7l12,-5.4" class="g10_1" />
<path d="M401,840l39.7,22.6" class="g10_1" />
<path d="M514.6,790.7l40.6,23" class="g8_1" />
<path d="M515.4,787.8l39.4,22.4" class="g8_1" />
<path d="M509.6,782l48.2,27.2" class="g8_1" />
<path d="M509.5,737l48,27" class="g8_1" />
<path d="M390.5,833.4l9.7,5.4" class="g10_1" />
<path d="M399.7,834.2l0,2.6" class="g10_1" />
<path d="M557.8,809.2l-2,1.1c0,0,-0.5,0.1,-1,-0.1" class="g8_1" />
<path d="M557.8,809.2c0,0,0.4,-0.1,0.6,-0.8" class="g8_1" />
<path d="M558.4,811c0,0,0.2,2.1,-1.8,2.9" class="g10_1" />
<path d="M392.1,828.2c-0.3,0.2,-3.7,1.4,-3,3.5c0.5,1.1,1.4,1.6,1.4,1.7" class="g8_1" />
<path d="M388.7,829.1c0,0,-0.3,2.9,1.8,4.3" class="g10_1" />
<path d="M499.4,781.8c0,0,4.9,-1.8,10.2,0.2" class="g8_1" />
<path d="M505,787.1c0,0,5,-1.5,10.4,0.7" class="g8_1" />
<path d="M504.7,790.3c0,0,5,-1.8,9.9,0.4" class="g8_1" />
<path d="M500.4,736.4c0,0,4.8,-1.3,9.1,0.6" class="g8_1" />
<path d="M389.5,785.1c-0.3,0.4,-0.6,0.9,-0.7,1.5" class="g10_1" />
<path d="M392.1,783.2c0,0,-1.6,0.6,-2.6,1.9" class="g8_1" />
<path d="M402.3,831.3c0,0,-2.6,1,-2.6,2.9" class="g8_1" />
<path d="M402.7,834.3c0,0,-2.7,1.3,-2.9,2.8" class="g8_1" />
<path d="M399.7,836.8c0,0,0.2,2.5,1.3,3.2" class="g10_1" />
<path d="M440.7,862.6c0,0,1.7,0.7,3.3,0.1" class="g10_1" />
<path d="M458.1,854c0,0,-0.1,2.4,-2.1,3.3" class="g10_1" />
<path d="M456,857.3c0,0,-2.9,-0.4,-1.6,-1.7" class="g8_1" />
<path d="M467.3,850.1c0,0,1.7,-0.5,2.5,0.2c0.7,0.8,1.9,0.2,2.4,0" class="g10_1" />
<path d="M469.5,850.1l-8.5,3.8l-2.1,-0.2" class="g10_1" />
<path d="M557.5,764c0,0,0.6,0.1,0.9,0.9" class="g8_1" />
<path d="M559.8,765.4l12.1,7" class="g8_1" />
<path d="M559.7,768.5l12.2,7.1" class="g8_1" />
<path d="M572.9,773.6l0,3.6" class="g10_1" />
<path d="M558.4,784.6l13.3,-5.8" class="g10_1" />
<path d="M572.9,777.2c0,0,0,1.1,-1.2,1.6" class="g10_1" />
<path d="M571.9,772.4c0,0,1,0.4,1.1,1.1" class="g8_1" />
<path d="M571.9,775.6c0,0,0.6,0.2,1,0.8" class="g8_1" />
<path d="M558.5,768.5c0,0,0.5,-0.3,1.2,0" class="g8_1" />
<path d="M558.6,765c0,0,0.4,-0.1,1.2,0.4" class="g8_1" />
<path d="M555.2,813.7c0,0,0.7,0.4,1.3,0.1" class="g8_1" />
<path d="M475.8,761.3l-9,4" class="g8_1" />
<path d="M476,766l0,-5" class="g10_1" />
<path d="M466.8,771.7l9,-4" class="g10_1" />
<path d="M465.5,766.5l0,5" class="g8_1" />
<path d="M477,762.5l-9.7,4.3" class="g8_1" />
<path d="M467.5,766.5l0,5" class="g8_1" />
<path d="M477,764.5l-8.1,3.6" class="g10_1" />
<path d="M468,768l0,1" class="g10_1" />
<path d="M477,766.1l-8.1,3.6" class="g10_1" />
<path d="M467.3,766.8l2.4,0.9" class="g8_1" />
<path d="M468.9,769.7l1.3,0.5" class="g10_1" />
<path d="M465.6,766.6c0,0,0,-0.8,1.2,-1.3" class="g8_1" />
<path d="M465.6,771.5c0,0,0,0.7,1.2,0.2" class="g8_1" />
<path d="M477,766.2c0,0,0.1,0.9,-1.2,1.5" class="g10_1" />
<path d="M477,761.5c0,0,0,-0.7,-1.2,-0.2" class="g8_1" />
<path d="M475.8,770.3l-8.9,3.9" class="g8_1" />
<path d="M477,775l0,-5" class="g10_1" />
<path d="M466.8,780.6l9,-3.9" class="g10_1" />
<path d="M465.5,775.5l0,5" class="g8_1" />
<path d="M477,771.5l-9.7,4.3" class="g8_1" />
<path d="M467.5,775.5l0,5" class="g8_1" />
<path d="M477,773.5l-8,3.5" class="g10_1" />
<path d="M468,777l0,1" class="g10_1" />
<path d="M477,775.1l-8,3.5" class="g10_1" />
<path d="M467.3,775.8l2.5,0.9" class="g8_1" />
<path d="M469,778.6l1.2,0.5" class="g10_1" />
<path d="M465.6,775.6c0,0,0,-0.8,1.3,-1.4" class="g8_1" />
<path d="M465.6,780.5c0,0,0,0.7,1.2,0.1" class="g8_1" />
<path d="M477,775.2c0,0,0.1,0.9,-1.2,1.5" class="g10_1" />
<path d="M477,770.5c0,0,0,-0.7,-1.2,-0.2" class="g8_1" />
<path d="M559.3,776.3c0,-1.3,2,-2.4,4.6,-2.4c2.5,0,4.5,1.1,4.5,2.4" class="g8_1" />
<path d="M568.4,776.3c0,1.4,-2,2.5,-4.5,2.5c-2.6,0,-4.6,-1.1,-4.6,-2.5" class="g8_1" />
<path d="M454.4,855.6l12.9,-5.5" class="g10_1" />
<path d="M467.4,850c0,0,1.2,-0.3,2,0.4c0.7,0.8,2,0.3,2.5,0.1" class="g10_1" />
<path d="M443.7,862.8l70.4,39.9" class="g8_1" />
<path d="M333.9,800.5l55.2,31.3" class="g8_1" />
<path d="M538.2,684.8L312.5,783.1l-2.1,304.4" class="g10_1" />
<path d="M333.5,800.6l-2.1,284.6" class="g8_1" />
<path d="M599.1,684.8l-286.8,125" class="g8_1" />
<path d="M476.5,660.5l215,0" class="g8_1" />
<path d="M615.3,337.7c0,-1.1,1.5,-2,3.5,-2c1.9,0,3.4,0.9,3.4,2" class="g10_1" />
<path d="M622.2,337.7c0,1.1,-1.5,2,-3.4,2c-2,0,-3.5,-0.9,-3.5,-2" class="g8_1" />
<path d="M687.3,369.8c0,-1.1,1.5,-2,3.5,-2c1.9,0,3.4,0.9,3.4,2" class="g10_1" />
<path d="M694.2,369.8c0,1.1,-1.5,2,-3.4,2c-2,0,-3.5,-0.9,-3.5,-2" class="g8_1" />
<path d="M499.2,372.7L573,407.6" class="g10_1" />
<path d="M737,555l0,107" class="g10_1" />
<path d="M819.3,440l-42.2,23.3" class="g8_1" />
<path d="M758.5,405c0,-1.1,1.5,-2,3.4,-2c2,0,3.5,0.9,3.5,2" class="g10_1" />
<path d="M765.4,405c0,1.1,-1.5,2,-3.5,2c-1.9,0,-3.4,-0.9,-3.4,-2" class="g8_1" />
<path d="M618,338l0,44" class="g18_1" />
<path d="M618.5,338.5l0,46" class="g19_1" />
<path d="M690,371l0,44" class="g18_1" />
<path d="M690.5,371.5l0,46" class="g19_1" />
<path d="M761,405l0,44" class="g18_1" />
<path d="M761.5,405.5l0,46" class="g19_1" />
<path d="M511.9,508.6c0,-2.5,0.9,-2.7,3.5,-4.5" class="g8_1" />
<path d="M618,394l0,173" class="g18_1" />
<path d="M618.5,394.5l0,173" class="g19_1" />
<path d="M613.3,585.6c0,-1.4,2.2,-2.6,4.9,-2.6c2.6,0,4.8,1.2,4.8,2.6" class="g8_1" />
<path d="M623,585.6c0,1.5,-2.2,2.7,-4.8,2.7c-2.7,0,-4.9,-1.2,-4.9,-2.7" class="g10_1" />
<path d="M622.5,584.4l-2.7,-2.6l0,-13.1" class="g10_1" />
<path d="M613.9,584.4l2.7,-2.6l0,-13.1" class="g10_1" />
<path d="M616.6,568.7c0,-1.1,3.2,-1.2,3.2,0" class="g10_1" />
<path d="M616.6,581.6c0,-1.1,3.2,-1.2,3.2,0" class="g8_1" />
<path d="M616.6,579.7c0,-1.1,3.2,-1.2,3.2,0" class="g8_1" />
<path d="M616.6,577.5c0,-1.2,3.2,-1.2,3.2,0" class="g8_1" />
<path d="M616.6,575.6c0,-1.2,3.2,-1.2,3.2,0" class="g8_1" />
<path d="M616.6,573.9c0,-1.1,3.2,-1.2,3.2,0" class="g8_1" />
<path d="M616.6,572.2c0,-1.1,3.2,-1.2,3.2,0" class="g8_1" />
<path d="M616.6,570.5c0,-1.1,3.2,-1.2,3.2,0" class="g8_1" />
<path d="M619.7,585.5c0,0.1,0,0.2,0.1,0.2c0.2,0.1,0,0.6,-0.3,0.5c-0.3,-0.1,-0.7,0.1,-0.9,0.3c-0.2,0.2,-0.7,0.3,-0.8,0.1c-0.1,-0.2,-0.5,-0.4,-0.7,-0.3c-0.3,0.1,-0.7,-0.1,-0.5,-0.3c0.1,-0.1,0.1,-0.2,0.1,-0.3" class="g8_1" />
<path d="M616.7,585.7c0,-0.1,0,-0.2,-0.1,-0.2c-0.2,-0.2,-0.1,-0.5,0.1,-0.4c0.3,0,1.2,0,1.3,-0.4c0.2,-0.1,0.5,-0.2,0.6,-0.1c0.1,0.1,0.6,0.4,0.8,0.4c0.2,-0.1,0.8,0,0.6,0.2c-0.1,0.1,-0.3,0.2,-0.3,0.3" class="g10_1" />
<path d="M619.7,585.1c-0.4,-0.1,-0.7,0.1,-0.9,0.3c-0.2,0.2,-0.7,0.3,-0.8,0.1c-0.2,-0.2,-0.5,-0.3,-0.7,-0.3c-0.2,0.1,-0.6,0,-0.6,-0.1" class="g8_1" />
<path d="M619.7,585l0,0.6" class="g8_1" />
<path d="M616.7,585.1l0,0.6" class="g8_1" />
<path d="M619.4,585.3l0,0.7" class="g8_1" />
<path d="M616.9,585.4l0,0.8" class="g8_1" />
<path d="M618.5,585.7l0,0.7" class="g8_1" />
<path d="M617.8,585.6l0,0.8" class="g8_1" />
<path d="M613.3,585.6c0,-0.4,0.4,-1.1,0.6,-1.2" class="g10_1" />
<path d="M623,585.6c0,-0.5,-0.5,-1.2,-0.5,-1.2" class="g10_1" />
<path d="M689,428l0,174" class="g18_1" />
<path d="M689.5,428.5l0,174" class="g19_1" />
<path d="M685,619.3c0,-1.5,2.1,-2.7,4.8,-2.7c2.7,0,4.8,1.2,4.8,2.7" class="g8_1" />
<path d="M694.6,619.3c0,1.5,-2.1,2.7,-4.8,2.7c-2.7,0,-4.8,-1.2,-4.8,-2.7" class="g10_1" />
<path d="M694.1,618l-2.7,-2.6l0,-13.1" class="g10_1" />
<path d="M685.5,618l2.7,-2.6l0,-13.1" class="g10_1" />
<path d="M688.2,602.3c0,-1.1,3.2,-1.2,3.2,0" class="g10_1" />
<path d="M688.2,615.3c0,-1.1,3.2,-1.2,3.2,0" class="g8_1" />
<path d="M688.2,613.3c0,-1.1,3.2,-1.2,3.2,0" class="g8_1" />
<path d="M688.2,611.1c0,-1.1,3.2,-1.2,3.2,0" class="g8_1" />
<path d="M688.2,609.2c0,-1.1,3.2,-1.2,3.2,0" class="g8_1" />
<path d="M688.2,607.5c0,-1.1,3.2,-1.2,3.2,0" class="g8_1" />
<path d="M688.2,605.9c0,-1.1,3.2,-1.2,3.2,0" class="g8_1" />
<path d="M688.2,604.2c0,-1.1,3.2,-1.2,3.2,0" class="g8_1" />
<path d="M691.3,619.2c0,0,0,0.1,0.1,0.1c0.2,0.2,0.1,0.6,-0.3,0.5c-0.3,-0.1,-0.7,0.1,-0.9,0.3c-0.2,0.2,-0.7,0.3,-0.8,0.1c-0.1,-0.2,-0.5,-0.3,-0.7,-0.3c-0.2,0.1,-0.7,0,-0.5,-0.3c0.1,-0.1,0.2,-0.2,0.2,-0.3" class="g8_1" />
<path d="M688.4,619.3c0,-0.1,-0.1,-0.1,-0.2,-0.2c-0.2,-0.1,-0.1,-0.4,0.2,-0.4c0.2,0,1.1,0,1.2,-0.4c0.2,-0.1,0.5,-0.1,0.6,0c0.1,0.1,0.7,0.4,0.9,0.3c0.2,0,0.7,0,0.5,0.2c-0.1,0.2,-0.2,0.3,-0.3,0.4" class="g10_1" />
<path d="M691.3,618.8c-0.3,-0.1,-0.7,0.1,-0.9,0.3c-0.2,0.2,-0.7,0.2,-0.8,0.1c-0.1,-0.2,-0.5,-0.4,-0.7,-0.3c-0.2,0,-0.5,0,-0.6,-0.2" class="g8_1" />
<path d="M691.3,618.6l0,0.6" class="g8_1" />
<path d="M688.4,618.7l0,0.6" class="g8_1" />
<path d="M691.1,618.9l0,0.8" class="g8_1" />
<path d="M688.6,619.1l-0.1,0.8" class="g8_1" />
<path d="M690.2,619.3l0,0.8" class="g8_1" />
<path d="M689.4,619.3l0,0.8" class="g8_1" />
<path d="M685,619.3c0,-0.5,0.3,-1.1,0.5,-1.3" class="g10_1" />
<path d="M694.6,619.3c0,-0.5,-0.5,-1.3,-0.5,-1.3" class="g10_1" />
<path d="M761,462l0,32m0,21l0,121" class="g18_1" />
<path d="M761.2,462.8l0,34.3m0,17.4l0,121.5" class="g19_1" />
<path d="M756.4,652.9c0,-1.4,2.1,-2.6,4.8,-2.6c2.7,0,4.8,1.2,4.8,2.6" class="g8_1" />
<path d="M766,652.9c0,1.5,-2.1,2.7,-4.8,2.7c-2.7,0,-4.8,-1.2,-4.8,-2.7" class="g10_1" />
<path d="M765.5,651.7l-2.7,-2.6l0,-13.1" class="g10_1" />
<path d="M756.9,651.7l2.7,-2.6l0,-13.1" class="g10_1" />
<path d="M759.6,636c0,-1.1,3.2,-1.2,3.2,0" class="g10_1" />
<path d="M759.6,648.9c0,-1.1,3.2,-1.2,3.2,0" class="g8_1" />
<path d="M759.6,647c0,-1.1,3.2,-1.2,3.2,0" class="g8_1" />
<path d="M759.6,644.8c0,-1.2,3.2,-1.2,3.2,0" class="g8_1" />
<path d="M759.6,642.9c0,-1.1,3.2,-1.2,3.2,0" class="g8_1" />
<path d="M759.6,641.2c0,-1.1,3.2,-1.2,3.2,0" class="g8_1" />
<path d="M759.6,639.5c0,-1.1,3.2,-1.2,3.2,0" class="g8_1" />
<path d="M759.6,637.8c0,-1.1,3.2,-1.2,3.2,0" class="g8_1" />
<path d="M762.7,652.9c0,0,0,0.1,0.1,0.1c0.2,0.2,0.1,0.6,-0.3,0.5c-0.3,-0.1,-0.7,0.1,-0.9,0.3c-0.2,0.2,-0.7,0.3,-0.8,0.1c-0.1,-0.2,-0.5,-0.4,-0.7,-0.3c-0.2,0.1,-0.7,0,-0.5,-0.3c0.1,-0.1,0.1,-0.2,0.2,-0.3" class="g8_1" />
<path d="M759.8,653c0,-0.1,-0.1,-0.2,-0.2,-0.2c-0.2,-0.2,-0.1,-0.5,0.2,-0.4c0.2,0,1.1,0,1.2,-0.4c0.2,-0.1,0.5,-0.2,0.6,-0.1c0.1,0.1,0.6,0.4,0.8,0.4c0.3,-0.1,0.8,0,0.6,0.2c-0.1,0.1,-0.2,0.2,-0.3,0.4" class="g10_1" />
<path d="M762.7,652.4c-0.3,-0.1,-0.7,0.1,-0.9,0.3c-0.2,0.2,-0.7,0.3,-0.8,0.1c-0.1,-0.2,-0.5,-0.3,-0.7,-0.3c-0.2,0.1,-0.5,0,-0.6,-0.1" class="g8_1" />
<path d="M762.7,652.3l0,0.6" class="g8_1" />
<path d="M759.8,652.4l0,0.6" class="g8_1" />
<path d="M762.5,652.6l-0.1,0.7" class="g8_1" />
<path d="M760,652.8l-0.1,0.7" class="g8_1" />
<path d="M761.6,653l-0.1,0.7" class="g8_1" />
<path d="M760.8,652.9l0,0.8" class="g8_1" />
<path d="M756.4,652.9c0,-0.4,0.3,-1.1,0.5,-1.2" class="g10_1" />
<path d="M766,652.9c0,-0.5,-0.5,-1.2,-0.5,-1.2" class="g10_1" />
<path d="M645.1,1047.6c-0.2,-18.1,31.6,-34,70.5,-34c8.4,0,16.1,0.2,23.6,1.5" class="g10_1" />
<path d="M784.9,1048.5c2.1,17.9,-30.6,33.3,-69.2,32.4c-38.6,-1,-70.4,-15.2,-70.6,-33.3" class="g10_1" />
<path d="M741.2,1005.6c14.7,2.4,27.4,7.1,36.6,13.3c12.4,8.2,17.8,18.4,15.9,28.2" class="g10_1" />
<path d="M636.3,1043.9c3.6,-20.6,35.5,-39.2,78.6,-40.1c1.5,0,3.1,0,4.6,0" class="g10_1" />
<path d="M793.7,1047.1c0.3,1.4,0.4,2.9,0.4,4.3c0,22.1,-34.1,40.1,-79.6,39C669,1089.3,636.9,1070.8,636,1048.5c0,-1.5,0.1,-3.1,0.3,-4.6" class="g10_1" />
<path d="M784.5,1046.9c-4.8,15.2,-34.4,27.3,-68.6,26.4c-36.4,-0.9,-66.6,-13.6,-70.2,-30.1" class="g10_1" />
<path d="M782.6,1043.1c-8.2,13.3,-35.6,23.3,-66.9,22.6c-33.2,-0.9,-61.2,-11.5,-68.7,-25.9" class="g10_1" />
<path d="M779.9,1039.7c-10.7,11.4,-35.8,19.4,-63.9,18.7c-30.5,-0.7,-56.7,-9.8,-66.5,-22.5" class="g10_1" />
<path d="M774.7,1035.4c-12.1,9.5,-34.9,16,-60.2,15.4c-26.8,-0.7,-50.2,-7.8,-62.2,-18" class="g10_1" />
<path d="M724.7,996.4c21.4,0.9,40.6,6.5,53.1,14.9c12.4,8.2,18,18.1,16.1,27.9" class="g10_1" />
<path d="M636.4,1043.7c-1.3,-10.8,3.1,-18.5,10.5,-25.7c12.5,-12.1,35,-19.6,59.8,-21.4" class="g10_1" />
<path d="M711.6,989c1,-0.1,2,-0.1,3,-0.1c25.3,-0.5,48.5,5.4,62.9,15c12.4,8.3,18.3,17.9,16.4,27.7" class="g10_1" />
<path d="M636.4,1036.4c-1.2,-10.8,2.8,-18.5,10.2,-25.7c10.7,-10.4,28.6,-17.4,49.1,-20.3" class="g10_1" />
<path d="M700.1,982.5c4.8,-0.5,9.7,-0.9,14.6,-1c25.3,-0.5,48.5,5.4,62.9,15.1c12.4,8.2,18.2,17.9,16.3,27.7" class="g10_1" />
<path d="M676.8,987.2c2.1,-0.7,4.2,-1.2,6.4,-1.8" class="g10_1" />
<path d="M636.4,1029.2c-1.3,-10.8,2.9,-18.7,10.3,-25.9c5.5,-5.4,13,-9.8,21.8,-13.3" class="g10_1" />
<path d="M773.8,1023.9L690.6,977.2" class="g10_1" />
<path d="M770.3,1032.4L686.6,985.2" class="g10_1" />
<path d="M646.3,961.1c-0.5,0.2,-1.2,-0.3,-1.4,-1c-0.3,-0.8,-0.1,-1.6,0.4,-1.8" class="g8_1" />
<path d="M645.3,958.3c0.5,-0.2,1.1,0.3,1.4,1.1c0.3,0.8,0.1,1.5,-0.4,1.7" class="g8_1" />
<path d="M644.8,958.9c0.4,0.1,0.7,0.5,0.9,1c0.1,0.4,0.2,0.9,0,1.2" class="g8_1" />
<path d="M642.8,962c-0.6,-0.6,-1,-1.8,-1,-3c0,-1.8,0.9,-3.3,1.9,-3.3" class="g10_1" />
<path d="M643.7,955.7l9.5,5.3" class="g10_1" />
<path d="M643.8,961.4l9.4,5.3" class="g8_1" />
<path d="M642.8,962l9.5,5.3" class="g10_1" />
<path d="M653.2,961l0,5.7l-0.7,0.6" class="g8_1" />
<path d="M643.8,961.4c-0.5,-0.6,-0.8,-1.8,-0.8,-3c0,-1.1,0.2,-2.1,0.7,-2.7" class="g8_1" />
<path d="M643.8,961.4l-0.9,0.4" class="g8_1" />
<path d="M655.8,957c-0.5,0.2,-1.1,-0.2,-1.4,-1c-0.3,-0.8,-0.1,-1.6,0.4,-1.8" class="g8_1" />
<path d="M654.8,954.2c0.5,-0.1,1.2,0.3,1.5,1.1c0.3,0.8,0.1,1.6,-0.5,1.7" class="g8_1" />
<path d="M654.4,954.8c0.3,0.2,0.6,0.5,0.8,1c0.2,0.5,0.2,0.9,0.1,1.2" class="g8_1" />
<path d="M652.3,957.9c-0.5,-0.6,-1,-1.8,-1,-3c0,-1.8,0.9,-3.3,1.9,-3.3" class="g10_1" />
<path d="M653.2,951.6l9.5,5.3" class="g10_1" />
<path d="M653.4,957.3l9.3,5.4" class="g8_1" />
<path d="M652.3,957.9l9.5,5.3" class="g10_1" />
<path d="M662.7,956.9l0,5.8l-0.7,0.5" class="g8_1" />
<path d="M653.4,957.3c-0.6,-0.5,-0.8,-1.7,-0.8,-2.9c0,-1.1,0.2,-2.2,0.6,-2.8" class="g8_1" />
<path d="M653.4,957.3l-0.9,0.5" class="g8_1" />
<path d="M643.7,967.8c-0.5,-0.5,-0.9,-1.1,-0.9,-1.9c0,-1.2,1,-2.2,2.1,-2.2c0.4,0,0.7,0.1,1,0.2" class="g10_1" />
<path d="M658.4,970.7c0.6,0.4,0.7,1.1,0.7,2c0,1.2,-0.9,2.4,-2.1,2.4c-0.4,0,-1,-0.2,-1.3,-0.4" class="g8_1" />
<path d="M645.9,963.9l12.5,6.8" class="g10_1" />
<path d="M643.7,967.8l12.5,7.1" class="g10_1" />
<path d="M648,970.2l0,2.5l4.8,2.8l1.2,6.4l14.5,8.1" class="g10_1" />
<path d="M648.2,972.8l4.2,0.1l0.4,2.5" class="g8_1" />
<path d="M654,981.7l7.1,-3l13.5,7.6" class="g8_1" />
<path d="M661.1,978.7l1.3,-10l4.4,-3.9l0,-8.9" class="g8_1" />
<path d="M666.8,964.8l14.2,8" class="g8_1" />
<path d="M662.4,968.7l14.1,7.9" class="g8_1" />
<path d="M668.5,990c0.5,0.2,3.3,0.4,5.2,-0.1c1.4,-0.4,2,-1.5,2,-1.9" class="g10_1" />
<path d="M674.6,986.3c0,0,1.5,1,1.1,1.7" class="g8_1" />
<path d="M683.7,985.6L679,983.8l-3.3,4.2" class="g10_1" />
<path d="M678.7,983.7c-0.8,0.9,-1.7,1.8,-2.5,2.4" class="g8_1" />
<path d="M683.1,977.6c0,0,-2,3.4,-4.3,6.1" class="g10_1" />
<path d="M674.5,986.2c0,0,0.8,0.5,1.7,-0.1" class="g8_1" />
<path d="M681,972.8c0,0,2.1,1.3,2.3,2.7" class="g8_1" />
<path d="M676.5,976.6c0,0,2.6,1.5,6.5,1.2" class="g8_1" />
<path d="M683.3,967.2l0.1,9.3c0,0,0,0.7,-0.3,1.1" class="g10_1" />
<path d="M651.6,960.1l1.7,-1.7" class="g10_1" />
<path d="M666.8,955.9l-5.1,-1c0,0,-1.1,-0.2,-1.7,0.5" class="g10_1" />
<path d="M666.8,955.9l14.6,8.3c0,0,1.9,1.2,1.9,3" class="g10_1" />
<path d="M683.7,970l6.2,5.1" class="g10_1" />
<path d="M683.7,985.6c0.7,0,3.4,0.3,5.7,-3.5c2.2,-3.7,0.7,-6.7,0.5,-7" class="g10_1" />
<path d="M524.8,908.8l128.8,73.1m56.2,31.8l28.7,16.4" class="g8_1" />
<path d="M443.7,862.8l81.1,46" class="g8_1" />
<path d="M770.3,1032.4c8,4.8,13.7,10.5,14.6,16.1" class="g10_1" />
<path d="M773.8,1023.9c11.5,6.3,19.3,14.4,19.9,23.2" class="g10_1" />
<path d="M774.8,1035.3c0,0.1,-0.1,0.1,-0.1,0.1" class="g10_1" />
<path d="M738.3,1095.5l0.1,-4.2m0.1,-44.2l0,-17" class="g8_1" />
<path d="M738.5,1030.1l15.7,-6.8m44.2,-18.9l48.5,-20.5" class="g8_1" />
<path d="M541.6,850.9l-12.2,3.5c0,0,-2.3,0.5,-2.8,1.7" class="g10_1" />
<path d="M541.6,850.9l6.8,1.9l0,1.2l-3.7,1.2" class="g10_1" />
<path d="M523.6,865.2c0.3,2.2,1.8,3.6,3.1,4.1c1.4,0.4,7.3,2.1,7.3,2.1c0,0,4.2,0.2,6.6,-5.3" class="g10_1" />
<path d="M540.6,866.1c0.7,-1.5,0.6,-4.7,0.4,-6" class="g10_1" />
<path d="M541,860.1l7.3,-2.6l0,-1l-6.6,-2.1l-6.1,1.7" class="g10_1" />
<path d="M535.6,856.1c-1.1,0.4,-2,2.2,-2,3.2c-0.1,1.1,-0.2,9.3,-7.2,9.5" class="g10_1" />
<path d="M535.5,858l4.3,1.5" class="g8_1" />
<path d="M541.9,856.3c1.5,0,2.7,0.4,2.7,0.9c0,0.6,-1.2,1,-2.7,1c-1.4,0,-2.6,-0.4,-2.6,-1c0,-0.5,1.2,-0.9,2.6,-0.9Z" class="g8_1" />
<path d="M541.9,852.6c1.5,0,2.7,0.4,2.7,1c0,0.5,-1.2,0.9,-2.7,0.9c-1.4,0,-2.6,-0.4,-2.6,-0.9c0,-0.6,1.2,-1,2.6,-1Z" class="g8_1" />
<path d="M541,878l0,-20" class="g18_1" />
<path d="M541.5,878.5l0,-21" class="g19_1" />
<path d="M539.9,888.4l0,-6l1.9,-4.2l2.1,3.9l0,6.4" class="g10_1" />
<path d="M541.8,888.6c2.5,0,4.5,0.9,4.5,2c0,1.1,-2.1,3.2,-4.6,3.2c-2.4,0,-4.3,-2.1,-4.3,-3.2c0,-1.1,2,-2,4.4,-2Z" class="g10_1" />
<path d="M543.3,892.7c-0.1,-0.3,0.2,-0.6,0.6,-0.9l-0.6,-0.4c-0.4,0.7,-2.3,1,-3.3,0.1l-0.3,0.3c0.4,0.4,0.4,0.4,0.5,0.8" class="g8_1" />
<path d="M539.8,887.3c0,-0.5,1,-0.9,2.1,-0.9c1.1,0,2.1,0.4,2.1,0.9" class="g8_1" />
<path d="M539.8,885.7c0,-0.5,1,-0.9,2.1,-0.9c1.1,0,2.1,0.4,2.1,0.9" class="g8_1" />
<path d="M539.8,884.3c0,-0.5,1,-0.9,2.1,-0.9c1.1,0,2.1,0.4,2.1,0.9" class="g8_1" />
<path d="M539.8,882.7c0,-0.5,1,-0.9,2.1,-0.9c1.1,0,2.1,0.4,2.1,0.9" class="g8_1" />
<path d="M660.2,893.2L648,896.8c0,0,-2.4,0.5,-2.8,1.7" class="g10_1" />
<path d="M660.2,893.2l6.8,2l0,1.2l-3.8,1.2" class="g10_1" />
<path d="M642.1,907.5c0.4,2.2,1.8,3.7,3.2,4.1c1.3,0.5,7.2,2.2,7.2,2.2c0,0,4.2,0.1,6.6,-5.3" class="g10_1" />
<path d="M659.1,908.5c0.7,-1.5,0.7,-4.7,0.4,-6" class="g10_1" />
<path d="M659.5,902.5l7.4,-2.7l0,-0.9l-6.6,-2.1l-6.2,1.6" class="g10_1" />
<path d="M654.1,898.4c-1,0.5,-1.9,2.3,-2,3.3c0,1.1,-0.2,9.3,-7.2,9.5" class="g10_1" />
<path d="M654,900.4l4.3,1.5" class="g8_1" />
<path d="M660.5,898.6c1.4,0,2.6,0.5,2.6,1c0,0.6,-1.2,1,-2.6,1c-1.5,0,-2.7,-0.4,-2.7,-1c0,-0.5,1.2,-1,2.7,-1Z" class="g8_1" />
<path d="M660.5,895c1.4,0,2.6,0.4,2.6,1c0,0.5,-1.2,0.9,-2.6,0.9c-1.5,0,-2.7,-0.4,-2.7,-0.9c0,-0.6,1.2,-1,2.7,-1Z" class="g8_1" />
<path d="M660,920l0,-20" class="g18_1" />
<path d="M660.5,920.5l0,-21" class="g19_1" />
<path d="M658.4,930.8l0.1,-6.1l1.9,-4.2l2.1,3.9l0,6.4" class="g10_1" />
<path d="M660.4,931c2.4,0,4.4,0.9,4.4,2c0,1.1,-2.1,3.2,-4.6,3.2c-2.4,0,-4.3,-2.1,-4.3,-3.2c0,-1.1,2,-2,4.5,-2Z" class="g10_1" />
<path d="M661.8,935.1c0,-0.3,0.2,-0.7,0.7,-0.9l-0.7,-0.4c-0.4,0.7,-2.2,1,-3.3,0.1l-0.3,0.3c0.5,0.4,0.4,0.4,0.5,0.8" class="g8_1" />
<path d="M658.4,929.7c0,-0.5,0.9,-0.9,2,-0.9c1.2,0,2.1,0.4,2.1,0.9" class="g8_1" />
<path d="M658.4,928.1c0,-0.5,0.9,-0.9,2,-0.9c1.2,0,2.1,0.4,2.1,0.9" class="g8_1" />
<path d="M658.4,926.7c0,-0.5,0.9,-0.9,2,-0.9c1.2,0,2.1,0.4,2.1,0.9" class="g8_1" />
<path d="M658.4,925.1c0,-0.5,0.9,-0.9,2,-0.9c1.2,0,2.1,0.4,2.1,0.9" class="g8_1" />
<path d="M493.7,841.4c9.6,5.5,25.2,12.5,39.8,18.4m8.9,3.3c25.9,9.6,91.6,32.6,109.2,38.5m9.2,3.1c25.4,9.1,75.9,29.2,96.3,43.3c23.1,16,51.6,39.3,36.9,70.1" class="g10_1" />
<path d="M483,846c9.4,5.3,29.7,15.2,47.2,21.6m7.4,2.6c24.1,8.5,90.4,31.6,112,38.8m8.4,2.8c23.6,8.2,73.1,26.6,94.2,41.2c20.5,14.2,43.3,30.6,38.1,55.6" class="g10_1" />
<path d="M516.2,912.1l10.9,-9.6" class="g18_1" />
<path d="M537.6,893l-3.9,9.8l-6.2,-7Zm-6.4,6.1l-0.5,-0.2l0,-0.1l0.1,0l0.1,0l0.1,0l0.1,0l0.1,0l0,0.1l0.1,0l0,0.1l0,0.1l-0.1,0Zm-49.5,43.4l49,-43.6l0.5,0.2l-49,43.7Zm0,0l0.5,0.3l-0.1,0l0,0.1l-0.1,0l-0.1,0l-0.1,0l0,-0.1l-0.1,0l0,-0.1l-0.1,0l0,-0.1l0.1,0l0,-0.1Z" class="g6_1" />
<path d="M628.6,976.1l8.4,-5.3" class="g18_1" />
<path d="M643.1,966.9l-5.5,9.1l-5,-8Zm-7.4,5l-0.4,-0.3l0,-0.1l0.1,0l0.1,0l0.1,0l0.1,0l0,0.1l0.1,0l0,0.1l0,0.1l0,0.1l-0.1,0Zm-27,16.5l26.6,-16.8l0.4,0.3l-26.5,16.8Zm0,0l0.5,0.3l-0.1,0l0,0.1l-0.1,0l-0.1,0l-0.1,0l0,-0.1l-0.1,0l0,-0.1l-0.1,0l0,-0.1l0.1,0l0,-0.1Z" class="g6_1" />
<path d="M559.9,776.3c0,-1.2,1.8,-2.1,4,-2.1c2.1,0,3.9,0.9,3.9,2.1" class="g8_1" />
<path d="M567.8,776.3c0,1.2,-1.8,2.2,-3.9,2.2c-2.2,0,-4,-1,-4,-2.2" class="g8_1" />
<path d="M565.1,776.3l0.1,0.1c0.2,0.1,0,0.4,-0.2,0.4c-0.3,-0.1,-0.6,0.1,-0.8,0.2c-0.1,0.2,-0.5,0.2,-0.6,0.1c-0.2,-0.2,-0.4,-0.3,-0.6,-0.2c-0.2,0,-0.6,-0.1,-0.4,-0.3c0.1,-0.1,0.1,-0.2,0.1,-0.2" class="g8_1" />
<path d="M562.7,776.4c0,-0.1,0,-0.2,-0.1,-0.2c-0.2,-0.1,-0.1,-0.4,0.1,-0.3c0.2,0,0.9,0,1,-0.4c0.2,0,0.4,-0.1,0.5,0c0.1,0.1,0.5,0.3,0.7,0.3c0.2,0,0.6,0,0.5,0.1c-0.1,0.2,-0.3,0.3,-0.3,0.4" class="g10_1" />
<path d="M565.1,775.9c-0.3,-0.1,-0.6,0.1,-0.7,0.3c-0.2,0.1,-0.6,0.2,-0.7,0c-0.1,-0.1,-0.4,-0.3,-0.6,-0.2c-0.1,0,-0.4,0,-0.4,-0.1" class="g8_1" />
<path d="M565.1,775.8l0,0.5" class="g8_1" />
<path d="M562.7,775.9l0,0.5" class="g8_1" />
<path d="M564.9,776l0,0.7" class="g8_1" />
<path d="M562.9,776.2l0,0.6" class="g8_1" />
<path d="M564.2,776.3l0,0.7" class="g8_1" />
<path d="M563.6,776.3l0,0.7" class="g8_1" />
<path d="M528.1,806.6c0,-1.4,2,-2.5,4.5,-2.5c2.6,0,4.6,1.1,4.6,2.5" class="g8_1" />
<path d="M537.2,806.6c0,1.3,-2,2.5,-4.6,2.5c-2.5,0,-4.5,-1.2,-4.5,-2.5" class="g8_1" />
<path d="M528.7,806.6c0,-1.2,1.8,-2.2,3.9,-2.2c2.2,0,4,1,4,2.2" class="g8_1" />
<path d="M536.6,806.6c0,1.2,-1.8,2.1,-4,2.1c-2.1,0,-3.9,-0.9,-3.9,-2.1" class="g8_1" />
<path d="M533.9,806.5c0,0,0,0.1,0.1,0.1c0.1,0.1,0,0.5,-0.3,0.4c-0.3,-0.1,-0.6,0.1,-0.7,0.2c-0.2,0.2,-0.6,0.3,-0.7,0.1c-0.1,-0.1,-0.4,-0.3,-0.6,-0.2c-0.1,0.1,-0.5,-0.1,-0.3,-0.3c0,-0.1,0.1,-0.1,0.1,-0.2" class="g8_1" />
<path d="M531.5,806.6c0,-0.1,-0.1,-0.1,-0.2,-0.2c-0.1,-0.1,0,-0.3,0.2,-0.3c0.2,0,0.9,0,1,-0.3c0.1,-0.1,0.4,-0.2,0.5,-0.1c0.1,0.1,0.5,0.4,0.7,0.3c0.1,0,0.6,0,0.4,0.2c-0.1,0.1,-0.2,0.2,-0.2,0.3" class="g10_1" />
<path d="M533.9,806.1c-0.3,0,-0.6,0.1,-0.8,0.3c-0.1,0.1,-0.5,0.2,-0.6,0c-0.1,-0.1,-0.4,-0.2,-0.6,-0.2c-0.1,0.1,-0.4,0,-0.4,-0.1" class="g8_1" />
<path d="M533.9,806l0,0.5" class="g8_1" />
<path d="M531.5,806.1l0,0.5" class="g8_1" />
<path d="M533.7,806.2l0,0.7" class="g8_1" />
<path d="M531.6,806.4l0,0.6" class="g8_1" />
<path d="M532.9,806.6l0,0.6" class="g8_1" />
<path d="M532.3,806.6l0,0.6" class="g8_1" />
<path d="M506,794.1c0,-1.4,2.1,-2.5,4.6,-2.5c2.5,0,4.6,1.1,4.6,2.5" class="g8_1" />
<path d="M515.2,794.1c0,1.4,-2.1,2.5,-4.6,2.5c-2.5,0,-4.6,-1.1,-4.6,-2.5" class="g8_1" />
<path d="M506.7,794.1c0,-1.2,1.7,-2.2,3.9,-2.2c2.2,0,3.9,1,3.9,2.2" class="g8_1" />
<path d="M514.5,794.1c0,1.2,-1.7,2.1,-3.9,2.1c-2.2,0,-3.9,-0.9,-3.9,-2.1" class="g8_1" />
<path d="M511.9,794c0,0,0,0.1,0,0.1c0.2,0.1,0.1,0.5,-0.2,0.4c-0.3,-0.1,-0.6,0.1,-0.7,0.2c-0.2,0.2,-0.6,0.3,-0.7,0.1c-0.1,-0.1,-0.4,-0.3,-0.6,-0.2c-0.2,0.1,-0.5,-0.1,-0.4,-0.3c0.1,-0.1,0.1,-0.1,0.1,-0.2" class="g8_1" />
<path d="M509.4,794.1c0.1,-0.1,0,-0.1,-0.1,-0.2c-0.2,-0.1,-0.1,-0.3,0.1,-0.3c0.3,0,1,0,1.1,-0.3c0.1,-0.1,0.3,-0.2,0.4,-0.1c0.1,0.1,0.6,0.4,0.7,0.3c0.2,0,0.6,0,0.5,0.2c-0.1,0.1,-0.2,0.2,-0.2,0.3" class="g10_1" />
<path d="M511.8,793.6c-0.2,0,-0.5,0.1,-0.7,0.3c-0.1,0.1,-0.6,0.2,-0.7,0.1c-0.1,-0.2,-0.4,-0.3,-0.5,-0.3c-0.2,0.1,-0.4,0,-0.5,-0.1" class="g8_1" />
<path d="M511.9,793.5l0,0.5" class="g8_1" />
<path d="M509.4,793.6l0.1,0.5" class="g8_1" />
<path d="M511.6,793.7l0,0.7" class="g8_1" />
<path d="M509.6,793.9l0,0.6" class="g8_1" />
<path d="M510.9,794.1l0,0.6" class="g8_1" />
<path d="M510.3,794.1l0,0.6" class="g8_1" />
<path d="M425.2,850.9c0,-1.4,2.1,-2.5,4.6,-2.5c2.5,0,4.6,1.1,4.6,2.5" class="g8_1" />
<path d="M434.4,850.9c0,1.3,-2.1,2.5,-4.6,2.5c-2.5,0,-4.6,-1.2,-4.6,-2.5" class="g8_1" />
<path d="M425.9,850.9c0,-1.2,1.7,-2.2,3.9,-2.2c2.2,0,4,1,4,2.2" class="g8_1" />
<path d="M433.8,850.9c0,1.2,-1.8,2.1,-4,2.1c-2.2,0,-3.9,-0.9,-3.9,-2.1" class="g8_1" />
<path d="M431.1,850.8c0,0,0,0.1,0,0.1c0.2,0.1,0.1,0.5,-0.2,0.4c-0.3,-0.1,-0.6,0.1,-0.7,0.2c-0.2,0.2,-0.6,0.3,-0.7,0.1c-0.1,-0.1,-0.4,-0.3,-0.6,-0.2c-0.2,0,-0.5,-0.1,-0.4,-0.3c0.1,-0.1,0.1,-0.1,0.2,-0.2" class="g8_1" />
<path d="M428.7,850.9c0,-0.1,-0.1,-0.1,-0.2,-0.2c-0.2,-0.1,-0.1,-0.3,0.2,-0.3c0.2,0,0.9,0,1,-0.3c0.1,-0.1,0.4,-0.2,0.4,-0.1c0.1,0.1,0.6,0.4,0.7,0.3c0.2,0,0.6,0,0.5,0.2c-0.1,0.1,-0.2,0.2,-0.2,0.3" class="g10_1" />
<path d="M431.1,850.4c-0.3,0,-0.6,0.1,-0.8,0.3c-0.1,0.1,-0.5,0.2,-0.6,0c-0.2,-0.1,-0.4,-0.2,-0.6,-0.2c-0.2,0.1,-0.4,0,-0.5,-0.1" class="g8_1" />
<path d="M431.1,850.3l0,0.5" class="g8_1" />
<path d="M428.7,850.4l0,0.5" class="g8_1" />
<path d="M430.9,850.5l-0.1,0.7" class="g8_1" />
<path d="M428.8,850.7l0,0.6" class="g8_1" />
<path d="M430.1,850.9l0,0.6" class="g8_1" />
<path d="M429.5,850.8l0,0.7" class="g8_1" />
<path d="M403.2,838.4c0,-1.4,2.1,-2.5,4.6,-2.5c2.5,0,4.6,1.1,4.6,2.5" class="g8_1" />
<path d="M412.4,838.4c0,1.3,-2.1,2.5,-4.6,2.5c-2.5,0,-4.6,-1.2,-4.6,-2.5" class="g8_1" />
<path d="M403.9,838.4c0,-1.2,1.7,-2.2,3.9,-2.2c2.2,0,3.9,1,3.9,2.2" class="g8_1" />
<path d="M411.7,838.4c0,1.2,-1.7,2.1,-3.9,2.1c-2.2,0,-3.9,-0.9,-3.9,-2.1" class="g8_1" />
<path d="M409,838.3c0,0,0,0.1,0.1,0.1c0.2,0.1,0.1,0.5,-0.2,0.4c-0.3,-0.1,-0.6,0.1,-0.8,0.2c-0.1,0.2,-0.5,0.3,-0.6,0.1c-0.1,-0.1,-0.4,-0.3,-0.6,-0.2c-0.2,0,-0.6,-0.1,-0.4,-0.3c0.1,-0.1,0.1,-0.1,0.1,-0.2" class="g8_1" />
<path d="M406.6,838.4c0,-0.1,0,-0.1,-0.1,-0.2c-0.2,-0.1,-0.1,-0.3,0.1,-0.3c0.2,0,1,0,1.1,-0.3c0.1,-0.1,0.3,-0.2,0.4,-0.1c0.1,0.1,0.5,0.4,0.7,0.3c0.2,0,0.6,0,0.5,0.2c-0.1,0.1,-0.2,0.2,-0.3,0.3" class="g10_1" />
<path d="M409,837.9c-0.3,0,-0.6,0.1,-0.7,0.3c-0.2,0.1,-0.6,0.2,-0.7,0C407.5,838.1,407.2,838,407,838c-0.1,0.1,-0.4,0,-0.4,-0.1" class="g8_1" />
<path d="M409,837.8l0,0.5" class="g8_1" />
<path d="M406.6,837.9l0,0.5" class="g8_1" />
<path d="M408.8,838l0,0.7" class="g8_1" />
<path d="M406.8,838.2l0,0.6" class="g8_1" />
<path d="M408.1,838.4l0,0.6" class="g8_1" />
<path d="M407.5,838.3l0,0.7" class="g8_1" />
</svg>