<?xml version="1.0" encoding="UTF-8" standalone="no"?>
<!DOCTYPE svg PUBLIC "-//W3C//DTD SVG 1.1//EN"
"http://www.w3.org/Graphics/SVG/1.1/DTD/svg11.dtd">
<svg version="1.1" xmlns="http://www.w3.org/2000/svg" xmlns:xlink="http://www.w3.org/1999/xlink">
<defs>
<clipPath id="c0_2"><path d="M537.5,1069.5l0,-178l314,0l0,178Z" /></clipPath>
<style type="text/css"><![CDATA[
.g14_2{
fill: none;
stroke: #231F20;
stroke-width: 1;
stroke-linecap: butt;
stroke-linejoin: miter;
}
.g5_2{
fill: #696C6D;
}
.g13_2{
fill: none;
stroke: #040503;
stroke-width: 1;
stroke-linecap: butt;
stroke-linejoin: miter;
}
.g6_2{
fill: #B92D34;
}
.g8_2{
fill: #578DAA;
}
.g12_2{
fill: #FFFFFF;
}
.g7_2{
fill: #060706;
}
.g1_2{
fill: #1A1412;
}
.g10_2{
fill: #7A9C3D;
}
.g9_2{
fill: #D46537;
}
.g11_2{
fill: #040503;
}
.g2_2{
fill: #CDCACC;
}
.g15_2{
fill: none;
stroke: #231F20;
stroke-width: 1;
stroke-linecap: butt;
stroke-linejoin: miter;
stroke-dasharray: 4,4;
}
.g4_2{
fill: #DEDFDE;
}
.g3_2{
fill: none;
stroke: #646669;
stroke-width: 1;
stroke-linecap: butt;
stroke-linejoin: miter;
}
]]></style>
</defs>
<path d="M0,126l935,0L935,0L0,0L0,126Z" class="g1_2" />
<path d="M366,423l569,0l0,-297l-569,0l0,297Z" class="g2_2" />
<image x="-1" y="124" width="368" height="302" xlink:href="img/1.png" />
<path d="M82.5,903.5l162,0" class="g3_2" />
<path d="M244.5,903.5l179,0" class="g3_2" />
<path d="M247,935l55,0l0,-21l-55,0l0,21Z" class="g4_2" />
<path d="M247,961l55,0l0,-21l-55,0l0,21Z" class="g5_2" />
<path d="M247,1040l55,0l0,-22l-55,0l0,22Z" class="g6_2" />
<path d="M247,988l55,0l0,-22l-55,0l0,22Z" class="g7_2" />
<path d="M247,1066l55,0l0,-22l-55,0l0,22Z" class="g8_2" />
<path d="M247,1014l55,0l0,-22l-55,0l0,22Z" class="g9_2" />
<path d="M247,1092l55,0l0,-22l-55,0l0,22Z" class="g10_2" />
<path d="M82,935l55,0l0,-21l-55,0l0,21Z" class="g4_2" />
<path d="M82,961l55,0l0,-21l-55,0l0,21Z" class="g5_2" />
<path d="M82,988l55,0l0,-22l-55,0l0,22Z" class="g7_2" />
<image x="91" y="445" width="170" height="127" xlink:href="img/2.png" />
<image x="286" y="445" width="169" height="127" xlink:href="img/3.png" />
<image x="480" y="445" width="169" height="127" xlink:href="img/4.png" />
<image x="674" y="445" width="170" height="127" xlink:href="img/5.png" />
<path fill-rule="evenodd" d="M627,940l11,0l0,-4l-11,0l0,4Z" class="g11_2" />
<path fill-rule="evenodd" d="M627,929l11,0l0,4l-11,0l0,-4Z" class="g11_2" />
<path d="M547.6,952.8l0,0.2l118.1,0l0.2,-0.1l0.1,-0.1l0,-36.3l-0.1,-0.2l-0.2,0l-118.1,0l-0.1,0l-0.1,0.2l0,36.3l0.1,0.1l0.1,0.1l0,-0.2l0.3,0l0,-36l117.6,0l0,35.7l-117.9,0l0,0.3l0.3,0Z" class="g11_2" />
<path d="M554.3,952.8l0,-35.4l104.6,0l0,35.4l0.2,0.1l0.1,-0.1l0,-35.5l0,-0.1l-0.1,0l-105,0l-0.1,0.1l0,35.5l0.1,0.1Z" class="g11_2" />
<path d="M547.6,916.5l0,0.3l118.1,0l0.2,-0.1l0.1,-0.2l0,-2.7l-0.1,-0.1l-0.2,-0.1l-118.1,0l-0.1,0.1l-0.1,0.1l0,2.7l0.1,0.2l0.1,0.1l0,-0.3l0.3,0l0,-2.4l117.6,0l0,2.2l-117.9,0l0,0.2l0.3,0Zm17.2,15l-0.2,0l0,6.2l0,0.2l0.2,0.1l3.4,0c0,0,0.7,-0.1,1.5,-0.6c0.7,-0.4,1.5,-1.3,1.5,-2.8c0,-1.4,-0.6,-2.3,-1.3,-2.7c-0.7,-0.5,-1.4,-0.6,-1.8,-0.6c-0.7,0,-3.3,0,-3.3,0l-0.2,0.2l0.2,0l0,0.3c0,0,2.6,0,3.3,0c0.3,0,1,0.1,1.5,0.5c0.6,0.4,1.1,1.1,1.1,2.3c0,1.3,-0.6,2,-1.3,2.4c-0.3,0.2,-0.6,0.3,-0.9,0.4l-0.3,0l-0.1,0.1l0.1,0.2l0,-0.2l-3.1,0l0,-6l-0.3,0l0,0.3Z" class="g11_2" />
<path fill-rule="evenodd" d="M565.5,932.3l0,4.7l2.6,0c0,0,2.1,-0.3,2.1,-2.4c0,-2,-1.6,-2.3,-2.2,-2.3c-0.5,0,-2.5,0,-2.5,0Z" class="g11_2" />
<path d="M565.5,932.3l-0.1,0l0,4.7l0,0.1l0.1,0l2.6,0c0,0,0.6,-0.1,1.1,-0.4c0.6,-0.3,1.2,-1,1.2,-2.1c0,-1,-0.5,-1.7,-1,-2c-0.5,-0.4,-1.1,-0.5,-1.4,-0.5c-0.5,0,-2.5,0,-2.5,0l-0.1,0.2l0.1,0l0,0.1c0,0,2,0,2.5,0c0.3,0,0.8,0.1,1.3,0.4c0.4,0.3,0.8,0.8,0.8,1.8c0,1,-0.5,1.6,-1,1.9c-0.3,0.1,-0.5,0.2,-0.7,0.3c-0.2,0,-0.3,0.1,-0.3,0.1l0,0.1l0,-0.1l-2.4,0l0,-4.6l-0.2,0l0,0.1Zm0.1,-0.1l-0.7,-0.7l-0.2,0l0,0.1l0.7,0.8l0.2,0Zm-0.7,5.6l0.7,-0.7l0,-0.2l-0.2,0l-0.7,0.7l0,0.2Z" class="g11_2" />
<path d="M590.3,931.5l-0.3,0l0,6.2l0.1,0.2l0.2,0.1l3.3,0l0.1,0c0,0,0.7,-0.1,1.5,-0.6c0.7,-0.4,1.5,-1.3,1.5,-2.8c0,-1.4,-0.6,-2.3,-1.3,-2.7c-0.7,-0.5,-1.4,-0.6,-1.8,-0.6c-0.8,0,-3.3,0,-3.3,0l-0.3,0.2l0.3,0l0,0.3c0,0,2.5,0,3.3,0c0.3,0,1,0.1,1.5,0.5c0.6,0.4,1.1,1.1,1.1,2.3c0,1.3,-0.6,2,-1.3,2.4c-0.3,0.2,-0.7,0.3,-0.9,0.4l-0.3,0l-0.1,0.1l0,0.2l0,-0.2l-3.1,0l0,-6l-0.2,0l0,0.3Z" class="g11_2" />
<path fill-rule="evenodd" d="M591,932.3l0,4.7l2.6,0c0,0,2.1,-0.3,2.1,-2.4c0,-2,-1.6,-2.3,-2.2,-2.3c-0.5,0,-2.5,0,-2.5,0Z" class="g11_2" />
<path d="M591,932.3l-0.1,0l0,4.7l0,0.1l0.1,0l2.6,0c0,0,0.5,-0.1,1.1,-0.4c0.6,-0.3,1.1,-1,1.1,-2.1c0,-1,-0.4,-1.7,-0.9,-2c-0.5,-0.4,-1.1,-0.5,-1.4,-0.5c-0.5,0,-2.5,0,-2.5,0l-0.1,0.2l0.1,0l0,0.1c0,0,2,0,2.5,0c0.3,0,0.8,0.1,1.2,0.4c0.5,0.3,0.9,0.8,0.9,1.8c0,1,-0.5,1.6,-1,1.9c-0.3,0.1,-0.5,0.2,-0.7,0.3c-0.2,0,-0.4,0.1,-0.4,0.1l0.1,0.1l0,-0.1l-2.5,0l0,-4.6l-0.1,0l0,0.1Zm0.1,-0.1l-0.7,-0.7l-0.2,0l0,0.1l0.7,0.8l0.2,0Zm-0.7,5.6l0.7,-0.7l0,-0.2l-0.2,0l-0.7,0.7l0,0.2Z" class="g11_2" />
<path d="M574.5,938.3l0,0.2l7.2,0l0,3l-7.2,0l0,-3l0,-0.2l0,-0.3c-0.3,0,-0.5,0.2,-0.5,0.5l0,3c0,0.2,0.2,0.5,0.5,0.5l7.2,0c0.2,0,0.5,-0.3,0.5,-0.5l0,-3c0,-0.3,-0.3,-0.5,-0.5,-0.5l-7.2,0Z" class="g11_2" />
<path fill-rule="evenodd" d="M575.1,938.9l6,0l0.2,0.1l0,1.9l-0.2,0.2l-6,0l-0.2,-0.2l0,-1.9Z" class="g11_2" />
<path d="M575.1,938.9l0,0.1l6,0l0,0.1l0,1.8l0,0.1l-6,0l0,-0.1l0,-1.8l0.1,-0.2l-0.1,0l0,0.1l0,-0.1L575,938.8l-0.2,0.1l0,0.1l0,1.9l0,0.1l0.2,0.2l0.1,0l6,0l0.1,0l0.2,-0.2l0,-0.1l0,-1.9l0,-0.1l-0.2,-0.1l-0.1,-0.1l-6,0l-0.1,0.1Zm-0.9,-0.5l0.7,0.6l0.2,0l0,-0.2l-0.7,-0.6l-0.2,0Zm0.2,3.3l0.7,-0.6l0,-0.2l-0.2,0l-0.7,0.6l0,0.2Zm7.3,-3.5l-0.6,0.6l0,0.2l0.2,0l0.6,-0.6l0,-0.2Zm0.2,3.3l-0.6,-0.6l-0.2,0l0,0.2l0.6,0.6l0.2,0Z" class="g11_2" />
<path d="M573.9,927.6l0,0.2l8.3,0l0,3l-8.3,0l0,-3l0,-0.2l0,-0.3c-0.2,0,-0.5,0.2,-0.5,0.5l0,3c0,0.2,0.3,0.5,0.5,0.5l8.3,0c0.3,0,0.5,-0.3,0.5,-0.5l0,-3c0,-0.3,-0.2,-0.5,-0.5,-0.5l-8.3,0Z" class="g11_2" />
<path fill-rule="evenodd" d="M574.5,928.2l7.2,0l0.1,0.1l0,1.9l-0.1,0.2l-7.2,0l-0.1,-0.2l0,-1.9Z" class="g11_2" />
<path d="M574.5,928.2l0,0.1l7.1,0l0.1,0.1l0,1.8l-0.1,0.1l-7,0l-0.1,-0.1l0,-1.8l0.1,-0.2l-0.1,0l0,0.1l0,-0.1l-0.1,-0.1l-0.1,0.1l-0.1,0.1l0,1.9l0.1,0.1l0.1,0.2l0.1,0l7.2,0l0.1,0l0.1,-0.2l0.1,-0.1l0,-1.9l-0.1,-0.1l-0.1,-0.1L581.7,928l-7.2,0l-0.1,0.1Zm-0.8,-0.5l0.6,0.6l0.2,0l0,-0.2l-0.6,-0.6l-0.2,0Zm0.2,3.3l0.6,-0.6l0,-0.2l-0.2,0l-0.6,0.6l0,0.2Zm8.4,-3.5l-0.6,0.6l0,0.2l0.1,0l0.7,-0.6l0,-0.2Zm0.2,3.3l-0.7,-0.6l-0.1,0l0,0.2l0.6,0.6l0.2,0Z" class="g11_2" />
<path d="M600.1,938.3l0,0.2l7.2,0l0,3l-7.2,0l0,-3l0,-0.2l0,-0.3c-0.3,0,-0.5,0.2,-0.5,0.5l0,3c0,0.2,0.2,0.5,0.5,0.5l7.2,0c0.3,0,0.5,-0.3,0.5,-0.5l0,-3c0,-0.3,-0.2,-0.5,-0.5,-0.5l-7.2,0Z" class="g11_2" />
<path fill-rule="evenodd" d="M600.7,938.9l6,0l0.2,0.1l0,1.9l-0.2,0.2l-6,0l-0.2,-0.2l0,-1.9Z" class="g11_2" />
<path d="M600.7,938.9l0,0.1l6,0l0.1,0.1l0,1.8l-0.1,0.1l-5.9,0l-0.1,-0.1l0,-1.8l0.1,-0.2l-0.1,0l0,0.1l0,-0.1l-0.1,-0.1l-0.1,0.1l-0.1,0.1l0,1.9l0.1,0.1l0.1,0.2l0.1,0l6,0l0.1,0L607,941l0,-0.1l0,-1.9l0,-0.1l-0.2,-0.1l-0.1,-0.1l-6,0l-0.1,0.1Zm-0.8,-0.5l0.6,0.6l0.2,0l0,-0.2L600,938.2l-0.1,0Zm0.1,3.3l0.7,-0.6l0,-0.2l-0.2,0l-0.6,0.6l0,0.2Zm7.4,-3.5l-0.7,0.6l0,0.2l0.2,0l0.6,-0.6l0,-0.2Zm0.1,3.3l-0.6,-0.6l-0.2,0l0,0.2l0.7,0.6l0.1,0Z" class="g11_2" />
<path d="M599.6,927.6l0,0.2l8.3,0l0,3l-8.2,0l-0.1,-0.2l0,-2.7l0.1,-0.2l-0.1,-0.1l0,0.2l0,-0.2l-0.2,-0.2l-0.3,0.2l0,0.2l0,3l0,0.1l0.3,0.3l0.2,0.1l8.3,0c0.2,0,0.5,-0.3,0.5,-0.5l0,-3c0,-0.3,-0.3,-0.5,-0.5,-0.5l-8.3,0l-0.2,0.1Z" class="g11_2" />
<path fill-rule="evenodd" d="M600.2,928.2l7.1,0l0.2,0.1l0,1.9l-0.2,0.2l-7.1,0L600,930.2l0,-1.9Z" class="g11_2" />
<path d="M600.2,928.2l0,0.1l7,0l0.1,0.1l0,1.8l-0.1,0.1l-7,0l-0.1,-0.1l0,-1.8l0.1,-0.2l0,0.1l0,-0.1l-0.1,-0.1l-0.2,0.1l0,0.1l0,1.9l0,0.1l0.2,0.2l0.1,0l7.1,0l0.1,0l0.2,-0.2l0,-0.1l0,-1.9l0,-0.1l-0.2,-0.1L607.3,928l-7.1,0l-0.1,0.1Zm-0.9,-0.5l0.6,0.6l0.2,0l0,-0.2l-0.6,-0.6l-0.2,0Zm0.2,3.3l0.6,-0.6l0,-0.2l-0.2,0l-0.6,0.6l0,0.2Zm8.4,-3.5l-0.6,0.6l0,0.2l0.2,0l0.6,-0.6l0,-0.2Zm0.2,3.3l-0.6,-0.6l-0.2,0l0,0.2l0.6,0.6l0.2,0Z" class="g11_2" />
<path d="M628.1,928.6l0,0.3l9.4,0c0.3,0,0.6,0.2,0.6,0.5l0,3.6c0,0.3,-0.3,0.5,-0.6,0.5l-9.4,0c-0.3,0,-0.6,-0.2,-0.6,-0.5l0,-3.6c0,-0.3,0.3,-0.5,0.6,-0.5l0,-0.3l0,-0.2c-0.6,0,-1.1,0.4,-1.1,1l0,3.6c0,0.5,0.5,1,1.1,1l9.4,0c0.6,0,1.1,-0.5,1.1,-1l0,-3.6c0,-0.6,-0.5,-1,-1.1,-1l-9.4,0Z" class="g11_2" />
<path fill-rule="evenodd" d="M637.2,931.6l0,-1.2c0,-0.3,-0.2,-0.5,-0.6,-0.5l-7.8,0c-0.3,0,-0.6,0.2,-0.6,0.5l0,1.2Z" class="g12_2" />
<path d="M636.7,931.2l0.1,0l0,-0.6c0,-0.2,-0.2,-0.4,-0.4,-0.4l-7.3,0c-0.3,0,-0.4,0.2,-0.4,0.4l0,0.6l0.1,0.1l7.9,0l0.1,-0.1l-0.1,0l0,-0.2l-7.8,0l0,-0.4l0.2,-0.2l7.3,0l0.2,0.2l0,0.6l0.1,0l0,-0.2Zm-8,-0.1l-0.5,0.4l0,0.2l0.1,0l0.6,-0.5l0,-0.1Zm7.9,0.2l0.5,0.4l0.2,0l0,-0.2l-0.5,-0.4l-0.2,0Zm-9.3,-2.1l11,0l0.1,-0.1L638.3,929l-11,0l-0.1,0.1Zm0,4.2l11,0l0.1,-0.1l-0.1,-0.1l-11,0l-0.1,0.1Z" class="g11_2" />
<path d="M628.1,935.8l0,0.3l9.4,0c0.3,0,0.6,0.2,0.6,0.5l0,3.6c0,0.3,-0.3,0.5,-0.6,0.5l-9.4,0c-0.3,0,-0.6,-0.2,-0.6,-0.5l0,-3.6c0,-0.3,0.3,-0.5,0.6,-0.5l0,-0.3l0,-0.2c-0.6,0,-1.1,0.5,-1.1,1l0,3.6c0,0.6,0.5,1,1.1,1l9.4,0c0.6,0,1.1,-0.4,1.1,-1l0,-3.6c0,-0.5,-0.5,-1,-1.1,-1l-9.4,0Z" class="g11_2" />
<path fill-rule="evenodd" d="M637.2,938.8l0,-1.2c0,-0.3,-0.2,-0.5,-0.6,-0.5l-7.8,0c-0.3,0,-0.6,0.2,-0.6,0.5l0,1.2Z" class="g12_2" />
<path d="M636.7,938.4l0.1,0l0,-0.6c0,-0.2,-0.2,-0.4,-0.4,-0.4l-7.3,0c-0.3,0,-0.4,0.2,-0.4,0.4l0,0.6l0,0.1l0.1,0l7.9,0l0.1,0l0,-0.1l-0.1,0l0,-0.2l-7.8,0l0,-0.4l0.2,-0.1l7.3,0l0.2,0.1l0,0.6l0.1,0l0,-0.2Zm-8,-0.1l-0.5,0.4l0,0.2l0.1,0l0.6,-0.4l0,-0.2Zm7.9,0.2l0.5,0.4l0.2,0l0,-0.2l-0.5,-0.4l-0.2,0Zm-9.3,-2.1l11,0l0.1,-0.1l-0.1,-0.1l-11,0l-0.1,0.1Zm0,4.2l11,0l0.1,-0.1l-0.1,-0.1l-11,0l-0.1,0.1Z" class="g11_2" />
<path d="M590.9,969l0,0.2c0.2,0,0.4,0.2,0.4,0.4c0,0.3,-0.2,0.5,-0.4,0.5c-0.2,0,-0.4,-0.2,-0.4,-0.5c0,-0.2,0.2,-0.4,0.4,-0.4l0,-0.2l0,-0.3c-0.5,0,-0.9,0.4,-0.9,0.9c0,0.5,0.4,1,0.9,1c0.5,0,0.9,-0.5,0.9,-1c0,-0.5,-0.4,-0.9,-0.9,-0.9Zm31.7,0l0,0.2c0.2,0,0.4,0.2,0.4,0.4c0,0.3,-0.2,0.5,-0.4,0.5c-0.2,0,-0.4,-0.2,-0.4,-0.5c0,-0.2,0.2,-0.4,0.4,-0.4l0,-0.2l0,-0.3c-0.5,0,-0.9,0.4,-0.9,0.9c0,0.5,0.4,1,0.9,1c0.5,0,0.9,-0.5,0.9,-1c0,-0.5,-0.4,-0.9,-0.9,-0.9Zm-31.7,7.1l0,0.3l31.5,0l0,2l-31.2,0l0,-2.3l-0.3,0l0,0.3l0,-0.3l-0.2,0l0,2.5l0.1,0.2l0.1,0.1l31.7,0l0.2,-0.1l0.1,-0.2l0,-2.5l-0.1,-0.2l-0.2,0l-31.7,0l-0.1,0l-0.1,0.2Zm0.3,0l0,-5.8c0,-0.1,-0.1,-0.2,-0.3,-0.2c-0.1,0,-0.2,0.1,-0.2,0.2l0,5.8c0,0.1,0.1,0.3,0.2,0.3c0.2,0,0.3,-0.2,0.3,-0.3m31.7,0l0,-5.8c0,-0.1,-0.1,-0.2,-0.3,-0.2c-0.1,0,-0.2,0.1,-0.2,0.2l0,5.8c0,0.1,0.1,0.3,0.2,0.3c0.2,0,0.3,-0.2,0.3,-0.3m-32.1,23.8l0,-29.6c0,-0.1,-0.1,-0.2,-0.2,-0.2c-0.1,0,-0.3,0.1,-0.3,0.2l0,29.6c0,0.1,0.2,0.2,0.3,0.2c0.1,0,0.2,-0.1,0.2,-0.2m32.3,0l0,-29.6c0,-0.1,-0.1,-0.2,-0.2,-0.2c-0.2,0,-0.3,0.1,-0.3,0.2l0,29.6c0,0.1,0.1,0.2,0.3,0.2c0.1,0,0.2,-0.1,0.2,-0.2m-32.8,0c0,2.3,2,4.6,4.7,4.6c2.5,0,23.6,-0.1,23.6,-0.1l0.1,0c0,0,1.1,-0.1,2.2,-0.7c1.1,-0.6,2.3,-1.7,2.3,-3.8c0,-0.2,-0.2,-0.3,-0.3,-0.3c-0.1,0,-0.2,0.1,-0.2,0.3c0,1.9,-1,2.8,-2,3.4c-0.6,0.2,-1.1,0.4,-1.5,0.5c-0.1,0,-0.3,0.1,-0.4,0.1l-0.2,0l0,0.3l0,-0.3c0,0,-0.3,0,-0.9,0c-4.1,0,-20.5,0.1,-22.7,0.1c-1.2,0,-2.2,-0.5,-3,-1.3c-0.7,-0.8,-1.2,-1.8,-1.2,-2.8c0,-0.2,-0.1,-0.3,-0.2,-0.3c-0.1,0,-0.3,0.1,-0.3,0.3m-11.6,10.4l0,0.2l55.9,0l0,2.1l-55.7,0l0,-2.3l-0.2,0l0,0.2l0,-0.2l-0.3,0l0,2.5l0.1,0.2l0.2,0.1l56.2,0l0.2,-0.1l0,-0.2l0,-2.5l0,-0.2l-0.2,-0.1l-56.2,0l-0.2,0.1l-0.1,0.2Zm-0.4,-57.5l0,56.5c0,0,0,0.3,0.2,0.6c0.1,0.3,0.4,0.6,0.9,0.6c0.2,0,0.3,-0.1,0.3,-0.2c0,-0.2,-0.1,-0.3,-0.3,-0.3c-0.2,0,-0.4,-0.1,-0.5,-0.3l-0.1,-0.3l0,-0.2l-0.3,0.1l0.3,0l0,-56.5c0,-0.2,-0.1,-0.3,-0.3,-0.3c-0.1,0,-0.2,0.1,-0.2,0.3m56.4,0l0,56.5c0,0,0,0.2,-0.1,0.4c-0.1,0.2,-0.3,0.3,-0.5,0.3c-0.2,0,-0.3,0.1,-0.3,0.3c0,0.1,0.1,0.2,0.3,0.2c0.4,0,0.8,-0.3,0.9,-0.5c0.2,-0.3,0.2,-0.6,0.2,-0.7l0,-56.5c0,-0.2,-0.1,-0.3,-0.2,-0.3c-0.2,0,-0.3,0.1,-0.3,0.3Z" class="g11_2" />
<path d="M583.5,1010.3l0,-0.5l4.9,0l0,0.5c0,0.1,0.1,0.2,0.3,0.2c0.1,0,0.2,-0.1,0.2,-0.2l0,-0.7l-0.1,-0.2l-0.1,-0.1l-5.4,0l-0.2,0.1l-0.1,0.2l0,0.7c0,0.1,0.1,0.2,0.3,0.2c0.1,0,0.2,-0.1,0.2,-0.2Zm42.3,0l0,-0.5l4.9,0l0,0.5c0,0.1,0.1,0.2,0.2,0.2c0.2,0,0.3,-0.1,0.3,-0.2l0,-0.7l-0.1,-0.2l-0.2,-0.1l-5.3,0l-0.2,0.1l-0.1,0.2l0,0.7c0,0.1,0.1,0.2,0.3,0.2c0.1,0,0.2,-0.1,0.2,-0.2Z" class="g11_2" />
<path d="M583,1012.8l0,20.9l0.1,0.2l0.2,0l5.4,0l0.1,0l0.1,-0.2l0,-20.9c0,-0.1,-0.1,-0.2,-0.2,-0.2c-0.2,0,-0.3,0.1,-0.3,0.2l0,20.6l-4.9,0l0,-20.6c0,-0.1,-0.1,-0.2,-0.2,-0.2c-0.2,0,-0.3,0.1,-0.3,0.2Zm42.3,0l0,20.9l0.1,0.2l0.2,0l5.3,0l0.2,0l0.1,-0.2l0,-20.9c0,-0.1,-0.1,-0.2,-0.3,-0.2c-0.1,0,-0.2,0.1,-0.2,0.2l0,20.6l-4.9,0l0,-20.6c0,-0.1,-0.1,-0.2,-0.2,-0.2c-0.2,0,-0.3,0.1,-0.3,0.2Zm-29.6,0l0,14.1l0.1,0.1l0.1,0.1l21.6,0l0.1,-0.1l0.1,-0.1l0,-14.1c0,-0.1,-0.1,-0.2,-0.2,-0.2c-0.2,0,-0.3,0.1,-0.3,0.2l0,13.8l-21,0l0,-13.8c0,-0.1,-0.1,-0.2,-0.3,-0.2c-0.1,0,-0.2,0.1,-0.2,0.2m-7,1.5l1.9,0l0.1,0l-0.1,-0.1l0,0.1l0.1,0l-0.1,-0.1l0,0.1c0.1,0,0.4,0,0.7,-0.2c0.3,-0.2,0.5,-0.6,0.5,-1.3c0,-0.1,-0.1,-0.2,-0.2,-0.2c-0.2,0,-0.3,0.1,-0.3,0.2c0,0.6,-0.2,0.8,-0.3,0.9c-0.2,0.1,-0.3,0.1,-0.4,0.1l0,0.3l0,-0.3l-1.9,0c-0.2,0,-0.3,0.1,-0.3,0.3c0,0.1,0.1,0.2,0.3,0.2m-5.4,-0.5l-3.7,0c-0.1,0,-0.3,0,-0.6,0.2c-0.3,0.1,-0.7,0.5,-0.7,1.1l0,3.7c0,0,0.1,1.8,1.3,2.9c1.3,1.1,2.6,1.2,3.7,1.2c0.1,0,0.2,-0.1,0.2,-0.2c0,-0.2,-0.1,-0.3,-0.2,-0.3c-1,0,-2.2,-0.1,-3.3,-1.1c-0.6,-0.4,-0.8,-1.1,-1,-1.6c-0.1,-0.3,-0.1,-0.5,-0.1,-0.7c-0.1,-0.2,-0.1,-0.3,-0.1,-0.3l-0.2,0.1l0.2,0l0,-3.7c0,-0.4,0.2,-0.6,0.4,-0.7l0.3,-0.1l0.1,0l0,-0.2l0,0.2l3.7,0c0.1,0,0.2,-0.1,0.2,-0.2c0,-0.2,-0.1,-0.3,-0.2,-0.3m5.4,9.1l7.2,0c0.2,0,0.3,-0.1,0.3,-0.3c0,-0.1,-0.1,-0.2,-0.3,-0.2l-7.2,0c-0.2,0,-0.3,0.1,-0.3,0.2c0,0.2,0.1,0.3,0.3,0.3m36.9,-9.1l-2.7,0l0,0.3l0,-0.3c-0.1,0,-0.2,0,-0.4,-0.1c-0.1,-0.1,-0.3,-0.3,-0.3,-0.9c0,-0.1,-0.1,-0.2,-0.2,-0.2c-0.2,0,-0.3,0.1,-0.3,0.2c0,0.7,0.2,1.1,0.5,1.3c0.3,0.2,0.6,0.2,0.7,0.2l0,-0.1l-0.1,0.1l0.1,0l0,-0.1l-0.1,0.1l0.1,0l2.7,0c0.1,0,0.2,-0.1,0.2,-0.2c0,-0.2,-0.1,-0.3,-0.2,-0.3m5.3,0.5l3.1,0l0,-0.2l0,0.2c0.1,0,0.3,0.1,0.4,0.2c0.2,0.1,0.3,0.2,0.3,0.6l0,3.7l0.3,0l-0.3,-0.1c0,0,0,0.1,0,0.3c-0.1,0.5,-0.3,1.6,-1.1,2.3c-0.9,0.8,-1.8,1,-2.6,1.1c-0.2,0,-0.3,0.1,-0.3,0.3c0.1,0.1,0.2,0.2,0.3,0.2c0.9,-0.1,2,-0.3,2.9,-1.2c1.3,-1.1,1.3,-2.9,1.3,-2.9l0,-3.7c0,-0.6,-0.3,-1,-0.6,-1.1c-0.3,-0.2,-0.6,-0.2,-0.6,-0.2l-3.1,0c-0.1,0,-0.2,0.1,-0.2,0.3c0,0.1,0.1,0.2,0.2,0.2m-5.3,8.1l-8.1,0c-0.2,0,-0.3,0.1,-0.3,0.2c0,0.2,0.1,0.3,0.3,0.3l8.1,0c0.1,0,0.2,-0.1,0.2,-0.3c0,-0.1,-0.1,-0.2,-0.2,-0.2Z" class="g11_2" />
<path d="M625.6,1033l5.4,-0.9l0.1,-0.1l-0.2,-0.1l-5.4,0.9l-0.1,0.1Zm0,-3.2l5.4,-0.9l0.1,-0.1l-0.2,-0.1l-5.4,0.9l-0.1,0.1Zm0,1.6l5.4,-0.9l0.1,-0.1l-0.2,-0.1l-5.3,0.9l-0.1,0.1Zm0,-3.2l5.4,-0.9l0.1,-0.1l-0.2,-0.1l-5.3,0.9l-0.1,0.1Zm0,-1.6l5.4,-0.9l0.1,-0.1l-0.2,-0.1l-5.4,0.9l-0.1,0.1Zm0,-3.2l5.4,-0.9l0.1,-0.1l-0.2,-0.1l-5.4,0.9l-0.1,0.1Zm0,1.6l5.4,-0.9l0.1,-0.1l-0.2,-0.1l-5.3,0.9l-0.1,0.1Zm0,-3.2l5.4,-0.9l0.1,-0.1l-0.2,-0.1l-5.3,0.9l-0.1,0.1Zm0,-1.6l5.4,-0.9l0.1,-0.2l-0.2,-0.1l-5.4,0.9l-0.1,0.2Zm0,-3.2l5.4,-0.9l0.1,-0.2l-0.2,-0.1l-5.4,0.9l-0.1,0.2Zm0,1.6l5.4,-0.9l0.1,-0.2l-0.2,-0.1l-5.3,0.9l-0.1,0.2Zm0,-3.2l5.4,-0.9l0.1,-0.2l-0.2,-0.1l-5.3,0.9l-0.1,0.2Zm0,-1.6l4.8,-0.9l0.1,-0.1l-0.1,-0.1l-4.9,0.8l-0.1,0.2Zm1.1,-3.4l4.3,-0.8l0.1,-0.1l-0.2,-0.1l-4.3,0.7l-0.1,0.2Zm-43.4,23.4l5.4,-0.9l0.1,-0.1l-0.2,-0.1l-5.3,0.9l-0.1,0.1Zm0,-3.2l5.4,-0.9l0.1,-0.1l-0.2,-0.1l-5.3,0.9l-0.1,0.1Zm0,1.6l5.4,-0.9l0.1,-0.1l-0.2,-0.1l-5.3,0.9l-0.1,0.1Zm0,-3.2l5.4,-0.9l0.1,-0.1l-0.2,-0.1l-5.3,0.9l-0.1,0.1Zm0,-1.6l5.4,-0.9l0.1,-0.2l-0.2,-0.1l-5.3,1l-0.1,0.1Zm0,-3.2l5.4,-0.9l0.1,-0.2l-0.2,-0.1l-5.3,0.9l-0.1,0.2Zm0,1.6l5.4,-0.9l0.1,-0.1l-0.2,-0.2l-5.3,1l-0.1,0.1Zm0,-3.2l5.4,-0.9l0.1,-0.2l-0.2,-0.1l-5.3,0.9l-0.1,0.2Zm0,-1.6l5.4,-0.9l0.1,-0.2l-0.2,-0.1l-5.3,0.9l-0.1,0.2Zm0,-3.2l5.4,-1l0.1,-0.1l-0.2,-0.1l-5.3,0.9l-0.1,0.2Zm0,1.6l5.4,-0.9l0.1,-0.2l-0.2,-0.1l-5.3,0.9l-0.1,0.2Zm0,-3.2l5.4,-0.9l0.1,-0.2l-0.2,-0.1l-5.3,0.9l-0.1,0.2Zm0,-1.7l5.4,-0.9l0.1,-0.1l-0.2,-0.1l-5.3,0.9l-0.1,0.1Z" class="g11_2" />
<path d="M575.4,1037l0,0.2l21.1,0l0.1,0.1l0,4.7l-0.1,0.1l-21.1,0l-0.1,-0.1l0,-4.7l0.1,-0.1l0,-0.2l0,-0.3c-0.3,0,-0.6,0.3,-0.6,0.6l0,4.7c0,0.3,0.3,0.6,0.6,0.6l21.1,0c0.3,0,0.6,-0.3,0.6,-0.6l0,-4.7c0,-0.3,-0.3,-0.6,-0.6,-0.6l-21.1,0Z" class="g11_2" />
<path d="M576.3,1042.5c2.7,2,6.2,2.9,9.6,2.9c3.7,0,7.3,-1.1,9.6,-2.9l0.1,-0.3l-0.4,-0.1c-2.2,1.8,-5.7,2.8,-9.3,2.8c-3.3,0,-6.7,-0.9,-9.3,-2.8l-0.3,0.1Zm1.9,-5.3c0.1,-0.1,0.3,-0.1,0.5,-0.3c0.1,-0.2,0.2,-0.4,0.2,-0.7l0,-2.2l14.1,0l0,2.2c0,0,0,0.2,0.1,0.5c0.1,0.2,0.3,0.5,0.7,0.5c0.2,0,0.3,-0.1,0.3,-0.2c0,-0.2,-0.1,-0.3,-0.3,-0.3c-0.1,0,-0.1,-0.1,-0.2,-0.2l-0.1,-0.2l0,-0.1l-0.2,0l0.2,0l0,-2.5l-0.1,-0.1l-0.1,-0.1l-14.6,0l-0.2,0.1l-0.1,0.1l0,2.5c0,0.2,0,0.3,-0.1,0.4c-0.1,0,-0.2,0.1,-0.3,0.1l-0.1,0.4Z" class="g11_2" />
<path d="M586.3,1037l0,5.3l0.1,0.1l0.2,-0.1l0,-5.3l-0.2,-0.2Zm-0.9,0l0,5.3l0.1,0.1l0.1,-0.1l0,-5.3l-0.1,-0.2Zm-1,0l0,5.3l0.1,0.1l0.2,-0.1l0,-5.3l-0.2,-0.2Zm-0.9,0l0,5.3l0.1,0.1l0.1,-0.1l0,-5.3l-0.1,-0.2Zm-0.9,0l0,5.3l0.1,0.1l0.1,-0.1l0,-5.3l-0.1,-0.2Zm-0.8,0l0,5.3l0.1,0.1l0.1,-0.1l0,-5.3l-0.1,-0.2Zm-0.9,-0.1l0,5.4l0.1,0.1l0.1,-0.1l0,-5.4l-0.1,-0.1ZM580,1037l0,5.3l0.1,0.1l0.2,-0.1l0,-5.3l-0.2,-0.2Zm-0.8,0l0,5.3l0.1,0.1l0.2,-0.1l0,-5.3l-0.2,-0.2Zm-0.7,0l0,5.3l0.1,0.1l0.1,-0.1l0,-5.3l-0.1,-0.2Zm-0.7,0l0,5.3l0.2,0.1l0.1,-0.1l0,-5.3l-0.1,-0.2Zm-0.6,0l0,5.3l0.1,0.1l0.1,-0.1l0,-5.3l-0.1,-0.2Zm-0.6,0l0,5.3l0.1,0.1l0.2,-0.1l0,-5.3l-0.2,-0.2Zm-0.5,0l0,5.3l0.2,0.1l0.1,-0.1l0,-5.3l-0.1,-0.2Zm-0.8,0l0,5.3l0.1,0.1l0.1,-0.1l0,-5.3l-0.1,-0.2Zm0.4,0l0,5.3l0.2,0.1l0.1,-0.1l0,-5.3l-0.1,-0.2Zm11.5,0l0,5.3l0.1,0.1l0.2,-0.1l0,-5.3l-0.2,-0.2Zm1,0l0,5.3l0.1,0.1l0.1,-0.1l0,-5.3l-0.1,-0.2Zm0.9,0l0,5.3l0.1,0.1l0.1,-0.1l0,-5.3l-0.1,-0.2Zm0.9,0l0,5.3l0.1,0.1l0.2,-0.1l0,-5.3l-0.2,-0.2Zm0.8,0l0,5.3l0.1,0.1l0.2,-0.1l0,-5.3l-0.2,-0.2Zm0.8,0l0,5.3l0.1,0.1l0.1,-0.1l0,-5.3l-0.1,-0.2Zm0.8,0l0,5.3l0.2,0.1l0.1,-0.1l0,-5.3l-0.1,-0.2Zm0.8,0l0,5.3l0.1,0.1l0.2,-0.1l0,-5.3l-0.2,-0.2Zm0.9,0l0,5.3l0.1,0.1l0.1,-0.1l0,-5.3l-0.1,-0.2Zm0.7,0l0,5.3l0.1,0.1l0.1,-0.1l0,-5.3l-0.1,-0.2Zm0.6,0l0,5.3l0.2,0.1l0.1,-0.1l0,-5.3l-0.1,-0.2Zm0.6,0l0,5.3l0.1,0.1l0.1,-0.1l0,-5.3l-0.1,-0.2Zm0.4,0l0,5.3l0.2,0.1l0.1,-0.1l0,-5.3l-0.1,-0.2Z" class="g11_2" />
<path d="M617.7,1037l0,0.2l21.2,0l0,0.1l0,4.7l0,0.1l-21.2,0l0,-0.1l0,-4.7l0,-0.1l0,-0.2l0,-0.3c-0.3,0,-0.5,0.3,-0.5,0.6l0,4.7c0,0.3,0.2,0.6,0.5,0.6l21.2,0c0.3,0,0.5,-0.3,0.5,-0.6l0,-4.7c0,-0.3,-0.2,-0.6,-0.5,-0.6l-21.2,0Z" class="g11_2" />
<path d="M618.7,1042.5c2.7,2,6.2,2.9,9.6,2.9c3.6,0,7.2,-1.1,9.6,-2.9l0.1,-0.3l-0.4,-0.1c-2.2,1.8,-5.7,2.8,-9.3,2.8c-3.3,0,-6.7,-0.9,-9.3,-2.8l-0.4,0.1Zm1.9,-5.3c0.1,-0.1,0.3,-0.1,0.4,-0.3c0.2,-0.2,0.3,-0.4,0.3,-0.7l0,-2.2l14.1,0l0,2.2c0,0,0,0.2,0.1,0.5c0.1,0.2,0.3,0.5,0.7,0.5c0.1,0,0.3,-0.1,0.3,-0.2c0,-0.2,-0.2,-0.3,-0.3,-0.3c-0.1,0,-0.2,-0.1,-0.2,-0.2l-0.1,-0.2l0,-0.1l-0.3,0l0.3,0l0,-2.5l-0.1,-0.1l-0.2,-0.1l-14.6,0l-0.1,0.1l-0.1,0.1l0,2.5c0,0.2,-0.1,0.3,-0.1,0.4c-0.1,0,-0.2,0.1,-0.3,0.1l-0.1,0.4Z" class="g11_2" />
<path d="M628.7,1037l0,5.3l0.1,0.1l0.2,-0.1l0,-5.3l-0.2,-0.2Zm-1,0l0,5.3l0.2,0.1l0.1,-0.1l0,-5.3l-0.1,-0.2Zm-0.9,0l0,5.3l0.1,0.1l0.1,-0.1l0,-5.3l-0.1,-0.2Zm-0.9,0l0,5.3l0.1,0.1l0.1,-0.1l0,-5.3l-0.1,-0.2Zm-0.9,0l0,5.3l0.1,0.1l0.1,-0.1l0,-5.3l-0.1,-0.2Zm-0.8,0l0,5.3l0.1,0.1l0.1,-0.1l0,-5.3l-0.1,-0.2Zm-0.7,0l0,5.3l0.1,0.1l0.2,-0.1l0,-5.3l-0.2,-0.2Zm-0.8,0l0,5.3l0.1,0.1l0.1,-0.1l0,-5.3l-0.1,-0.2Zm-0.9,0l0,5.3l0.1,0.1l0.1,-0.1l0,-5.3l-0.1,-0.2Zm-0.9,0l0,5.3l0.1,0.1l0.1,-0.1l0,-5.3l-0.1,-0.2Zm-0.7,0l0,5.3l0.1,0.1l0.2,-0.1l0,-5.3l-0.2,-0.2Zm-0.7,0l0,5.3l0.2,0.1l0.1,-0.1l0,-5.3l-0.1,-0.2Zm-0.5,0l0,5.3l0.1,0.1l0.1,-0.1l0,-5.3l-0.1,-0.2Zm-0.5,0l0,5.3l0.1,0.1l0.2,-0.1l0,-5.3l-0.2,-0.2Zm-0.8,0l0,5.3l0.1,0.1l0.1,-0.1l0,-5.3l-0.1,-0.2Zm0.4,0l0,5.3l0.1,0.1l0.2,-0.1l0,-5.3l-0.2,-0.2Zm11.5,0l0,5.3l0.1,0.1l0.1,-0.1l0,-5.3l-0.1,-0.2Zm1,0l0,5.3l0.1,0.1l0.1,-0.1l0,-5.3l-0.1,-0.2Zm0.9,0l0,5.3l0.1,0.1l0.1,-0.1l0,-5.3l-0.1,-0.2Zm0.9,0l0,5.3l0.1,0.1l0.1,-0.1l0,-5.3l-0.1,-0.2Zm0.8,0l0,5.3l0.1,0.1l0.1,-0.1l0,-5.3l-0.1,-0.2Zm0.6,0l0,5.3l0.2,0.1l0.1,-0.1l0,-5.3l-0.1,-0.2Zm0.9,0l0,5.3l0.1,0.1l0.1,-0.1l0,-5.3l-0.1,-0.2Zm0.9,0l0,5.3l0.1,0.1l0.1,-0.1l0,-5.3l-0.1,-0.2Zm0.9,0l0,5.3l0.1,0.1l0.1,-0.1l0,-5.3l-0.1,-0.2Zm0.6,0l0,5.3l0.2,0.1l0.1,-0.1l0,-5.3l-0.1,-0.2Zm0.7,0l0,5.3l0.1,0.1l0.2,-0.1l0,-5.3l-0.2,-0.2Zm0.5,0l0,5.3l0.2,0.1l0.1,-0.1l0,-5.3l-0.1,-0.2Zm0.5,0l0,5.3l0.2,0.1l0.1,-0.1l0,-5.3l-0.1,-0.2Z" class="g11_2" />
<path d="M744.1,913.8l0,0.3l60,0c0,0,0.1,0,0.4,0c0.8,0,2.8,0.3,4.7,1.5c1.8,1.2,3.4,3.2,3.4,7l0,87.1l-2.1,0l0,-86.7c0,0,-0.1,-1.7,-0.9,-3.4c-0.7,-1.7,-2.4,-3.5,-5.4,-3.5l-59.8,0l0,-2.3l-0.3,0l0,0.3l0,-0.3l-0.2,0l0,2.6l0.2,0.2l60.1,0c2.8,0,4.2,1.6,5,3.2c0.4,0.8,0.6,1.6,0.7,2.2c0,0.3,0,0.6,0,0.7c0.1,0.2,0.1,0.3,0.1,0.3l0.2,0l-0.2,0l0,86.9l0,0.2l0.2,0.1l2.7,0l0.1,-0.1l0.1,-0.2l0,-87.3c0,-4.5,-2.3,-6.8,-4.5,-7.9c-2.2,-1.1,-4.5,-1.1,-4.5,-1.1l-60,0l-0.2,0.1l0,0.1ZM810,976l-0.1,0.1c-0.4,0.5,-2.5,2.2,-5.7,2.2l-22.5,0l0,-2.1l22.6,0c0,0,1.5,0,3.1,-0.7c1.5,-0.7,3.1,-2.2,3.1,-4.9l-0.3,-0.3l-0.2,0.3c0,2.5,-1.4,3.8,-2.8,4.4c-0.8,0.3,-1.5,0.5,-2,0.6c-0.3,0,-0.5,0.1,-0.7,0.1c-0.1,0,-0.2,0,-0.2,0l-22.9,0l-0.2,0.1l0,0.1l0,2.6l0,0.2l0.2,0.1l22.8,0c3.9,0,6.2,-2.4,6.2,-2.4l0,-0.4Zm-23.8,34.1l-0.2,0l0,2.6l0,0.2l0.2,0l25.7,0c1.6,0,2.5,-0.5,3,-1c0.6,-0.5,1.2,-1.2,1.2,-2.8l0,-4.9L816,1004l-0.2,-0.1l-2.6,0l-0.1,0.1l-0.1,0.2l0,5l0,0.1l-0.1,0.2c0,0.2,-0.1,0.3,-0.4,0.3c-0.1,0.1,-1,0.1,-2.2,0.1c-1.3,0,-3,0,-4.9,0c-3.9,0,-8.7,0,-12.5,0c-3.8,-0.1,-6.7,-0.1,-6.7,-0.1l-0.2,0.1l0,0.2l0.2,0l0,0.2c0,0,11.4,0.1,19.2,0.1c1.9,0,3.7,0,5,0c0.6,0,1.1,0,1.5,0c0.2,0,0.4,0,0.5,-0.1l0.3,0c0.3,-0.1,0.6,-0.3,0.7,-0.5c0.1,-0.2,0.1,-0.4,0.1,-0.5l0,-0.1l-0.3,0l0.3,0l0,-4.8l2.1,0l0,4.7c0,1.5,-0.5,2,-1,2.4c-0.4,0.4,-1.3,0.9,-2.7,0.9l-25.4,0l0,-2.3l-0.3,0l0,0.2Z" class="g11_2" />
<path d="M790.5,1010.5l5,0" class="g13_2" />
<path d="M790.1,1012.7l0,20.7l0.1,0.2l0.2,0.1l5.3,0l0.2,-0.1l0.1,-0.2l0,-20.7l-0.3,-0.3l-0.2,0.3l0,20.5l-4.9,0l0,-20.5l-0.2,-0.3Z" class="g11_2" />
<path d="M790.4,1032.8l5.3,-0.9l0.1,-0.2l-0.1,-0.1l-5.3,0.9l-0.1,0.2Zm0,-3.2l5.3,-0.9l0.1,-0.2l-0.1,-0.1l-5.3,0.9l-0.1,0.2Zm0,1.6l5.4,-0.9l0.1,-0.2l-0.2,-0.1l-5.3,0.9l-0.1,0.2Zm0,-3.2l5.4,-0.9l0.1,-0.1l-0.2,-0.1l-5.3,0.9l-0.1,0.1Zm0,-1.6l5.3,-0.9l0.1,-0.1l-0.1,-0.1l-5.3,0.9l-0.1,0.1Zm0,-3.2l5.3,-0.9l0.1,-0.1l-0.1,-0.1l-5.3,0.9l-0.1,0.1Zm0,1.6l5.4,-0.9l0.1,-0.1l-0.2,-0.1l-5.3,0.9l-0.1,0.1Zm0,-3.2l5.4,-0.9l0.1,-0.1l-0.2,-0.1l-5.3,0.9l-0.1,0.1Zm0,-1.6l5.3,-0.9l0.1,-0.1l-0.1,-0.1l-5.3,0.9l-0.1,0.1Zm0,-3.2l5.3,-0.9l0.1,-0.1l-0.1,-0.1l-5.3,0.9l-0.1,0.1Zm0,1.6l5.4,-0.9l0.1,-0.1l-0.2,-0.1l-5.3,0.9l-0.1,0.1Zm0,-3.1l5.4,-0.9l0.1,-0.2l-0.2,-0.1l-5.3,0.9l-0.1,0.2Zm0,-1.7l4.8,-0.8l0.1,-0.1l-0.1,-0.1l-4.8,0.8l-0.1,0.1Zm1.1,-3.5l4.2,-0.7l0.1,-0.2l-0.1,-0.1l-4.3,0.7l-0.1,0.2Z" class="g11_2" />
<path d="M782.6,1036.7l0,0.2l21,0l0,0.1l0,4.7l-21,0l0,-4.7l0,-0.1l0,-0.2l0,-0.3c-0.3,0,-0.5,0.3,-0.5,0.6l0,4.7c0,0.3,0.2,0.5,0.5,0.5l21,0c0.3,0,0.5,-0.2,0.5,-0.5l0,-4.7c0,-0.3,-0.2,-0.6,-0.5,-0.6l-21,0Z" class="g11_2" />
<path d="M783.6,1042.2c2.6,1.9,6.1,2.8,9.5,2.8c3.6,0,7.2,-1,9.5,-2.8l0.1,-0.4l-0.4,0c-2.2,1.7,-5.7,2.7,-9.2,2.7c-3.3,0,-6.7,-0.9,-9.2,-2.7l-0.4,0Zm1.9,-5.3c0.1,-0.1,0.2,-0.1,0.4,-0.3c0.1,-0.2,0.2,-0.4,0.2,-0.7l0,-2.2l14,0l0,2.2c0,0,0,0.2,0.1,0.5c0.1,0.2,0.3,0.5,0.7,0.5l0.3,-0.2l-0.3,-0.3c-0.1,0,-0.1,-0.1,-0.2,-0.2l-0.1,-0.2l0,-0.1l-0.2,0l0.2,0l0,-2.4l0,-0.2l-0.2,-0.1l-14.5,0l-0.2,0.1l-0.1,0.2l0,2.4c0,0.2,0,0.3,-0.1,0.4c0,0,-0.1,0.1,-0.3,0.1l-0.1,0.4l0.4,0.1Z" class="g11_2" />
<path d="M793.5,1036.7l0,5.3l0.1,0.1l0.1,-0.1l0,-5.3l-0.1,-0.2Zm-1,0l0,5.3l0.2,0.1l0.1,-0.1l0,-5.3l-0.1,-0.2Zm-0.9,0l0,5.3l0.1,0.1l0.1,-0.1l0,-5.3l-0.1,-0.2Zm-0.9,0l0,5.3l0.1,0.1l0.1,-0.1l0,-5.3l-0.1,-0.2Zm-0.9,0l0,5.3l0.1,0.1L790,1042l0,-5.3l-0.1,-0.2Zm-0.8,0l0,5.3l0.1,0.1l0.1,-0.1l0,-5.3l-0.1,-0.2Zm-0.7,0l0,5.3l0.2,0.1l0.1,-0.1l0,-5.3l-0.1,-0.2Zm-0.8,0l0,5.3l0.1,0.1l0.2,-0.1l0,-5.3l-0.2,-0.2Zm-0.9,0l0,5.3l0.1,0.1l0.2,-0.1l0,-5.3l-0.2,-0.2Zm-0.9,0l0,5.3l0.2,0.1L786,1042l0,-5.3l-0.1,-0.2Zm-0.6,0l0,5.3l0.1,0.1l0.1,-0.1l0,-5.3l-0.1,-0.2Zm-0.7,0l0,5.3l0.1,0.1l0.2,-0.1l0,-5.3l-0.2,-0.2Zm-0.5,0l0,5.3l0.1,0.1l0.1,-0.1l0,-5.3l-0.1,-0.2Zm-0.5,0l0,5.3l0.1,0.1l0.1,-0.1l0,-5.3l-0.1,-0.2Zm-0.8,0l0,5.3l0.1,0.1l0.1,-0.1l0,-5.3l-0.1,-0.2Zm0.4,0l0,5.3l0.1,0.1l0.1,-0.1l0,-5.3l-0.1,-0.2Zm11.4,0l0,5.3l0.1,0.1l0.1,-0.1l0,-5.3l-0.1,-0.2Zm0.9,0l0,5.3l0.2,0.1l0.1,-0.1l0,-5.3l-0.1,-0.2Zm0.9,0l0,5.3l0.2,0.1l0.1,-0.1l0,-5.3l-0.1,-0.2Zm0.9,0l0,5.3l0.2,0.1l0.1,-0.1l0,-5.3l-0.1,-0.2Zm0.8,0l0,5.3l0.2,0.1l0.1,-0.1l0,-5.3l-0.1,-0.2Zm0.7,0l0,5.3l0.1,0.1l0.1,-0.1l0,-5.3l-0.1,-0.2Zm0.8,0l0,5.3l0.1,0.1l0.2,-0.1l0,-5.3l-0.2,-0.2Zm0.9,0l0,5.3l0.1,0.1l0.2,-0.1l0,-5.3l-0.2,-0.2Zm0.9,0l0,5.3l0.1,0.1l0.2,-0.1l0,-5.3l-0.2,-0.2Zm0.7,0l0,5.3l0.1,0.1l0.1,-0.1l0,-5.3l-0.1,-0.2Zm0.6,0l0,5.3l0.1,0.1l0.2,-0.1l0,-5.3l-0.2,-0.2Zm0.6,0l0,5.3l0.1,0.1l0.1,-0.1l0,-5.3l-0.1,-0.2Zm0.4,0l0,5.3l0.2,0.1l0.1,-0.1l0,-5.3l-0.1,-0.2Z" class="g11_2" />
<g clip-path="url(#c0_2)">
<path d="M806.1,1012.9c0.2,0,0.4,0.1,0.5,0.2c0.1,0.1,0.2,0.3,0.2,0.4l0,9.5c0,0.1,0,1,0.5,1.9c0.5,1,1.5,1.9,3.3,1.9l5.1,0l0.2,-0.1l0.1,-0.1l0,-2.6l-0.1,-0.2l-0.2,0l-5.1,0l0,0.2l0,-0.2c-0.1,0,-0.3,-0.1,-0.4,-0.2c-0.2,-0.1,-0.3,-0.3,-0.3,-0.6l0,-9.5l0,-0.1c0,0,-0.1,-0.4,-0.4,-0.9l-0.4,0l0,0.3c0.1,0.2,0.2,0.4,0.2,0.5l0.1,0.1l0,0.1l0.2,0l-0.2,0l0,9.5c0,0.6,0.3,0.9,0.6,1.1c0.3,0.1,0.5,0.2,0.5,0.2l0.1,0l4.9,0l0,2l-4.9,0c-1.6,0,-2.4,-0.8,-2.8,-1.6c-0.2,-0.4,-0.4,-0.8,-0.4,-1.2c-0.1,-0.1,-0.1,-0.3,-0.1,-0.3l0,-0.2l-0.2,0l0.2,0l0,-9.5c0,-0.3,-0.2,-0.6,-0.4,-0.8c-0.2,-0.2,-0.5,-0.3,-0.8,-0.3l-0.2,0.3Zm3.8,-0.2l0,9.8l0.1,0.2l0.2,0.1l2.6,0l0.2,-0.1l0,-0.2l0,-9.9l-0.2,-0.2l-0.3,0.2l0,9.7l-2.1,0l0,-9.6l-0.2,-0.3Zm2.9,1l-2.6,0l-0.3,0.2l0.3,0.3l2.6,0l0.2,-0.3Zm0.1,-72.2l38.1,0l0.2,-0.3L851,941l-38.1,0l-0.3,0.2Zm0,8.1l38.1,0l0.2,-0.2L851,949.1l-38.1,0l-0.3,0.3Zm-5,-8.1l2.3,0l0.3,-0.3L810.2,941l-2.3,0l-0.3,0.2Zm0,8.1l2.3,0l0.3,-0.2l-0.3,-0.3l-2.3,0l-0.3,0.3Zm-3.3,2.7l0,0.2l3.1,0l0.2,-0.1l0.1,-0.1l0,-11.8l-0.1,-0.1l-1.1,-1.2l-0.1,0l-2,0l-0.3,0.2l-0.1,12.9l0.1,0.1l0.2,0.1l0,-0.2l0.2,0l0.1,-12.7l1.6,0l1,1l0,11.4l-2.9,0l0,0.3l0.2,0Z" class="g11_2" />
</g>
<path d="M806.5,952.5l0,-13" class="g13_2" />
<path d="M744.2,952l-0.2,0c0,0.5,0.4,0.9,0.9,0.9l58.9,0l0.1,0c0,0,0.2,-0.1,0.4,-0.2c0.2,-0.1,0.4,-0.3,0.4,-0.7l0,-32.1l-0.2,0l0.2,0l0,-0.1c0,-0.4,0,-1.2,-0.5,-2c-0.4,-0.8,-1.3,-1.5,-2.9,-1.5l-56.5,0c0,0,-0.2,0,-0.4,0.1c-0.2,0.1,-0.4,0.3,-0.4,0.7c0,0.5,0,34.9,0,34.9l0.2,0l0.3,0c0,0,0,-8.6,0,-17.3c0,-8.6,0,-17.4,0,-17.6l0.1,-0.3l0.2,0l0.1,0l-0.1,-0.3l0,0.3l56.5,0c1.4,0,2.1,0.6,2.5,1.2c0.4,0.7,0.4,1.5,0.4,1.8l0,0.1l0,32.1c0,0.2,-0.1,0.2,-0.2,0.3l-0.1,0.1l-0.1,0l0,0.2l0,-0.2l-58.9,0c-0.3,0,-0.4,-0.2,-0.4,-0.4Z" class="g11_2" />
<path d="M547.5,906.5l118,0m0,2l0,-4m78,2l70,0m0,2l0,-4m-70,4l0,-4" class="g14_2" />
<path d="M734.5,913.5l0,39" class="g14_2" />
<path d="M732.5,952.5l4,0" class="g14_2" />
<path d="M740.5,952.5l0,24" class="g14_2" />
<path d="M738.5,976.5l4,0" class="g14_2" />
<path d="M775.5,976.5l0,34" class="g14_2" />
<path d="M773.5,976.5l4,0m-4,34l4,0m-45,-97l4,0m-189,-5l0,-4m191,48l4,0m62,99l-23,0m0,-2l0,3m0,-3l0,3m0,-73l0,2" class="g14_2" />
<path d="M781.5,984.5l0,61" class="g15_2" />
<path d="M781.5,1046.5l0,2m23,1l0,3" class="g14_2" />
</svg>