<?xml version="1.0" encoding="UTF-8" standalone="no"?>
<!DOCTYPE svg PUBLIC "-//W3C//DTD SVG 1.1//EN"
"http://www.w3.org/Graphics/SVG/1.1/DTD/svg11.dtd">
<svg version="1.1" xmlns="http://www.w3.org/2000/svg" xmlns:xlink="http://www.w3.org/1999/xlink">
<defs>
<clipPath id="c0_1"><path d="M121.5,211.5l0,-69l87,0l0,69Z" /></clipPath>
<clipPath id="c1_1"><path d="M0.5,1210.5L0.5,0.5l935,0l0,1210Z" /></clipPath>
<style type="text/css"><![CDATA[
.g4_1{
fill: none;
stroke: #FFFFFF;
stroke-width: 2;
stroke-linecap: butt;
stroke-linejoin: miter;
stroke-miterlimit: 4;
}
.g2_1{
fill: #060706;
}
.g3_1{
fill: #FFFFFF;
}
.g1_1{
fill: #646669;
}
]]></style>
</defs>
<path d="M0,164l935,0L935,0L0,0L0,164Z" class="g1_1" />
<path d="M87,240l155,0L242,0L87,0l0,240Z" class="g2_1" />
<g clip-path="url(#c0_1)">
<path d="M185.7,168c-3.3,5.8,-9.5,9.9,-17.6,12c7.4,-2.6,11.4,-6.6,13.5,-10.1c3.6,-6.1,3.1,-12.9,1,-17c-4.2,-8.1,-17.5,-8.9,-32.4,-7.8c16.9,-3.8,30.2,-1.5,35.4,6.5c3.2,4.8,3.2,10.9,0.1,16.4m-10.5,5.5c3.5,-4.5,4.6,-10.4,3,-16c-1.9,-6.6,-9.1,-10.4,-21.4,-11.6c14.3,-0.3,21.9,2.1,24.8,7.6c1.9,3.6,2.4,10.1,-1,15.8c-1.8,2.8,-4.7,6,-9.9,8.4c1.7,-1.2,3.2,-2.6,4.5,-4.2m11.4,-22.6c-6.2,-9.4,-22.9,-11.4,-43.6,-5.2c0,0.1,0,0.1,-0.1,0.1c0,0,-0.1,0,-0.1,0c0,0,0,0.1,-0.1,0.1c0,0,0,0.1,0,0.1c-0.1,0,-0.1,0,-0.1,0.1c0,0,0,0.1,0,0.1c0,0,0,0.1,0,0.1c0,0,0,0.1,0,0.1c0,0,0,0.1,0,0.1c0,0,0,0.1,0,0.1c0,0,0.1,0,0.1,0c0,0.1,0,0.1,0,0.1c0,0,0.1,0,0.1,0.1c0.1,0,0.1,0,0.1,0.1l0.1,0c0.1,0,0.1,0,0.1,0c0,0,0.1,0,0.1,0c13.8,-0.6,31,0.8,33.8,10.9c1.5,5.3,0.5,10.8,-2.8,15c-3.1,4,-8,6.7,-14.2,8c-2.8,0.4,-5.9,0.6,-9.3,0.7l-0.1,0c-0.2,0,-0.4,0.1,-0.5,0.3c0,0.1,0,0.1,0,0.1c0,0.1,0,0.1,0,0.1c0,0.1,0,0.1,0,0.1l0,0.1c0,0,0,0.1,0,0.1c0.1,0,0.1,0.1,0.1,0.1c0,0,0,0.1,0.1,0.1l0.1,0c0,0.1,0,0.1,0,0.1c0.1,0,0.1,0,0.2,0c0,0,0.1,0.1,0.1,0.1c1.4,0,2.7,0.1,4.1,0.1c14.9,0,26.7,-5.2,31.9,-14.2c3.4,-5.9,3.4,-12.5,-0.1,-17.7Z" class="g3_1" />
</g>
<path d="M143.4,182.9c-0.4,0,-0.6,-0.2,-0.6,-0.5l0,-33.1c0,-0.3,0.2,-0.6,0.6,-0.6c0.3,0,0.5,0.3,0.5,0.6l0,33.1c0,0.3,-0.2,0.5,-0.5,0.5Z" class="g3_1" />
<path d="M145.7,182.9c-0.3,0,-0.6,-0.2,-0.6,-0.5l0,-33.1c0,-0.3,0.3,-0.6,0.6,-0.6c0.3,0,0.6,0.3,0.6,0.6l0,33.1c0,0.3,-0.3,0.5,-0.6,0.5Z" class="g3_1" />
<path d="M148,182.9c-0.3,0,-0.6,-0.2,-0.6,-0.5l0,-33.1c0,-0.3,0.3,-0.6,0.6,-0.6c0.3,0,0.6,0.3,0.6,0.6l0,33.1c0,0.3,-0.3,0.5,-0.6,0.5Z" class="g3_1" />
<g clip-path="url(#c0_1)">
<path d="M128.7,208.7c4.1,0,7.1,-3.1,7.1,-7.3c0,-4.1,-3,-7.1,-7.1,-7.1l-3.8,0l0,14.4ZM122,192.1c0,-0.3,0.2,-0.5,0.5,-0.5l6.5,0c5.4,0,9.9,4.4,9.9,9.8c0,5.5,-4.5,9.9,-9.9,9.9l-6.5,0c-0.3,0,-0.5,-0.2,-0.5,-0.5Z" class="g3_1" />
</g>
<path d="M141.1,192.1c0,-0.3,0.3,-0.5,0.6,-0.5l11.3,0c0.3,0,0.5,0.2,0.5,0.5l0,1.6c0,0.3,-0.2,0.5,-0.5,0.5l-9,0l0,5.8l7.6,0c0.3,0,0.5,0.3,0.5,0.5l0,1.6c0,0.3,-0.2,0.6,-0.5,0.6l-7.6,0l0,6l9,0c0.3,0,0.5,0.3,0.5,0.6l0,1.5c0,0.3,-0.2,0.5,-0.5,0.5l-11.3,0c-0.3,0,-0.6,-0.2,-0.6,-0.5Z" class="g3_1" />
<path d="M156.8,192.3c0,-0.4,0.3,-0.7,0.7,-0.7l1.6,0c0.4,0,0.7,0.3,0.7,0.7l0,7.8l8,-8.2c0.1,-0.2,0.3,-0.3,0.5,-0.3l2.1,0c0.5,0,0.8,0.6,0.4,1l-8.1,8.3l8.6,9.5c0.2,0.3,0.1,0.9,-0.5,0.9l-2.3,0c-0.2,0,-0.4,-0.1,-0.5,-0.2l-8.2,-9.2l0,8.8c0,0.3,-0.3,0.6,-0.7,0.6l-1.6,0c-0.4,0,-0.7,-0.3,-0.7,-0.6Z" class="g3_1" />
<path d="M173.8,192.3c0,-0.4,0.3,-0.7,0.7,-0.7l1.6,0c0.4,0,0.7,0.3,0.7,0.7l0,7.8l7.9,-8.2c0.1,-0.2,0.3,-0.3,0.6,-0.3l2.1,0c0.5,0,0.8,0.6,0.4,1l-8.2,8.3l8.7,9.5c0.2,0.3,0,0.9,-0.5,0.9l-2.3,0c-0.3,0,-0.5,-0.1,-0.5,-0.2l-8.2,-9.2l0,8.8c0,0.3,-0.3,0.6,-0.7,0.6l-1.6,0c-0.4,0,-0.7,-0.3,-0.7,-0.6Z" class="g3_1" />
<path d="M198.1,208.9c4,0,7.3,-3.4,7.3,-7.4c0,-4,-3.3,-7.5,-7.3,-7.5c-4.1,0,-7.4,3.5,-7.4,7.5c0,4,3.3,7.4,7.4,7.4m0,-17.6c5.6,0,10.1,4.6,10.1,10.2c0,5.6,-4.5,10.1,-10.1,10.1c-5.7,0,-10.2,-4.5,-10.2,-10.1c0,-5.6,4.5,-10.2,10.2,-10.2Z" class="g3_1" />
<use 
xlink:href ="#T1_0_4" 
 transform="matrix(0.017 , 0, 0 , -0.017, 302.5 , 211.8)"
fill="#646669" 
stroke="none" 
 />
<use 
xlink:href ="#T1_0_16" 
 transform="matrix(0.017 , 0, 0 , -0.017, 322.7 , 211.8)"
fill="#646669" 
stroke="none" 
 />
<use 
xlink:href ="#T1_0_9" 
 transform="matrix(0.017 , 0, 0 , -0.017, 339.4 , 211.8)"
fill="#646669" 
stroke="none" 
 />
<use 
xlink:href ="#T1_0_11" 
 transform="matrix(0.017 , 0, 0 , -0.017, 361.7 , 211.8)"
fill="#646669" 
stroke="none" 
 />
<use 
xlink:href ="#T1_0_7" 
 transform="matrix(0.017 , 0, 0 , -0.017, 377.2 , 211.8)"
fill="#646669" 
stroke="none" 
 />
<use 
xlink:href ="#T1_0_19" 
 transform="matrix(0.017 , 0, 0 , -0.017, 395.2 , 211.8)"
fill="#646669" 
stroke="none" 
 />
<use 
xlink:href ="#T1_0_6" 
 transform="matrix(0.017 , 0, 0 , -0.017, 422 , 211.8)"
fill="#646669" 
stroke="none" 
 />
<use 
xlink:href ="#T1_0_18" 
 transform="matrix(0.017 , 0, 0 , -0.017, 443.6 , 211.8)"
fill="#646669" 
stroke="none" 
 />
<use 
xlink:href ="#T1_0_13" 
 transform="matrix(0.017 , 0, 0 , -0.017, 464.7 , 211.8)"
fill="#646669" 
stroke="none" 
 />
<use 
xlink:href ="#T1_0_4" 
 transform="matrix(0.017 , 0, 0 , -0.017, 497 , 211.8)"
fill="#646669" 
stroke="none" 
 />
<use 
xlink:href ="#T1_0_10" 
 transform="matrix(0.017 , 0, 0 , -0.017, 517 , 211.8)"
fill="#646669" 
stroke="none" 
 />
<use 
xlink:href ="#T1_0_15" 
 transform="matrix(0.017 , 0, 0 , -0.017, 527.3 , 211.8)"
fill="#646669" 
stroke="none" 
 />
<use 
xlink:href ="#T1_1_21" 
 transform="matrix(0.013 , 0, 0 , -0.013, 546.6 , 207.2)"
fill="#646669" 
stroke="none" 
 />
<image x="-1" y="911" width="473" height="301" xlink:href="img/1.png" />
<image x="468" y="911" width="469" height="301" xlink:href="img/2.png" />
<image x="-1" y="240" width="938" height="675" xlink:href="img/3.png" />
<g clip-path="url(#c1_1)">
<path d="M-184,913l1161,0" class="g4_1" />
<path d="M470,913l0,390" class="g4_1" />
</g>
<defs>
	<path d="M663.1,365.1L510.3,701.3l-4.6,0L356,365.1ZM29,0C6.1,0,-6,19.9,3.1,39.7L478.2,1067.9c4.6,9.2,12.2,16.8,26,16.8l15.2,0c15.3,0,21.4,-7.6,26,-16.8L1016,39.7C1025.1,19.9,1012.9,0,990,0L857.1,0C834.2,0,823.5,9.2,812.8,30.6l-74.9,165l-456.8,0L206.3,30.6C200.1,15.3,186.4,0,161.9,0Z" 
	id="T1_0_4"
	 />

	<path d="M421.7,-15.2C229.2,-15.2,129.9,65.7,85.6,103.9c-15.3,12.2,-21.4,21.4,-7.7,45.8l55,94.7c7.2,12.6,19.1,17.8,30.4,17.8c8.1,0,15.9,-2.6,21.6,-7.1c62.6,-47.3,131.4,-94.7,230.7,-94.7c79.4,0,139,52,139,117.7c0,77.9,-65.7,131.3,-194,183.3C216.9,519.4,73.3,611.1,73.3,791.4c0,136,100.9,293.3,343.8,293.3c155.8,0,275,-79.4,305.5,-102.3c15.3,-9.2,19.9,-35.2,9.2,-50.5l-58,-87c-8.9,-13.3,-23.2,-23.3,-37.4,-23.3c-5.5,0,-11,1.5,-16.1,4.9c-65.7,41.3,-128.4,84.1,-212.4,84.1c-87.1,0,-134.4,-48.9,-134.4,-107c0,-71.8,56.5,-120.7,180.3,-171.1C601.9,572.9,773.1,484.3,773.1,287.2c0,-157.3,-136,-302.4,-351.4,-302.4Z" 
	id="T1_0_16"
	 />

	<path d="M158.9,0c-15.3,0,-29,13.8,-29,29l0,1011.4c0,15.3,13.7,29,29,29l142.1,0c16.8,0,29,-13.7,29,-29l0,-404.8l498.1,0l0,404.8c0,15.3,12.2,29,29,29l140.5,0c15.3,0,29.1,-13.7,29.1,-29L1026.7,29c0,-15.2,-13.8,-29,-29.1,-29L857.1,0c-16.8,0,-29,13.8,-29,29l0,421.7l-498.1,0L330,29C330,13.8,317.8,0,301,0Z" 
	id="T1_0_9"
	 />

	<path d="M158.9,0c-16.8,0,-29,13.8,-29,29l0,1011.4c0,15.3,12.2,29,29,29l140.5,0c15.3,0,29.1,-13.7,29.1,-29l0,-857.1l389.6,0c16.8,0,29,-13.7,29,-29L747.1,29c0,-15.2,-12.2,-29,-29,-29Z" 
	id="T1_0_11"
	 />

	<path d="M158.9,0c-16.8,0,-29,13.8,-29,29l0,1011.4c0,15.3,12.2,29,29,29l621.8,0c16.8,0,29,-13.7,29,-29l0,-125.3c0,-15.2,-12.2,-29,-29,-29l-452.2,0l0,-250.5l377.3,0c15.3,0,29.1,-13.8,29.1,-29.1l0,-126.8c0,-16.8,-13.8,-29,-29.1,-29l-377.3,0l0,-267.4l452.2,0c16.8,0,29,-13.7,29,-29L809.7,29c0,-15.2,-12.2,-29,-29,-29Z" 
	id="T1_0_7"
	 />

	<path d="M381.9,0c-16.8,0,-29,13.8,-29,29l0,485.9L4.6,1025.1c-12.1,19.9,0,44.3,24.4,44.3l155.9,0c12.2,0,19.8,-7.6,24.4,-13.7L453.8,704.3l244.4,351.4c4.6,6.1,12.2,13.7,24.4,13.7l157.4,0c24.4,0,36.7,-24.4,24.4,-44.3L551.5,516.4L551.5,29c0,-15.2,-13.7,-29,-29,-29Z" 
	id="T1_0_19"
	 />

	<path d="M501.1,186.4c198.6,0,343.8,140.5,343.8,349.9C844.9,744,699.7,884.6,501.1,884.6l-174.2,0l0,-698.2ZM157.4,0C142.1,0,129.9,13.8,129.9,29l0,1011.4c0,15.3,12.2,29,27.5,29l362,0c294.9,0,536.3,-239.8,536.3,-533.1C1055.7,239.9,814.3,0,519.4,0Z" 
	id="T1_0_6"
	 />

	<path d="M543.9,-15.2C304,-15.2,119.2,160.4,119.2,392.6l0,647.8c0,15.3,13.7,29,29,29l145.1,0c16.8,0,29.1,-13.7,29.1,-29l0,-637.1c0,-129.8,88.6,-220,221.5,-220c132.9,0,223,90.2,223,218.5l0,638.6c0,15.3,12.3,29,29.1,29l145.1,0c15.3,0,29,-13.7,29,-29l0,-647.8C970.1,160.4,785.3,-15.2,543.9,-15.2Z" 
	id="T1_0_18"
	 />

	<path d="M615.7,183.3c192.5,0,351.4,157.4,351.4,349.9c0,192.5,-158.9,352.9,-351.4,352.9C423.2,886.1,265.8,725.7,265.8,533.2c0,-192.5,157.4,-349.9,349.9,-349.9Zm0,-198.5C310.1,-15.2,67.2,227.6,67.2,533.2c0,305.6,242.9,551.5,548.5,551.5c305.6,0,550,-245.9,550,-551.5c0,-305.6,-244.4,-548.4,-550,-548.4Z" 
	id="T1_0_13"
	 />

	<path d="M158.9,0c-15.3,0,-29,13.8,-29,29l0,1011.4c0,15.3,13.7,29,29,29l142.1,0c15.3,0,29,-13.7,29,-29L330,29C330,13.8,316.3,0,301,0Z" 
	id="T1_0_10"
	 />

	<path d="M579,582.1c81,0,151.3,70.3,151.3,155.8c0,81,-70.3,148.2,-151.3,148.2l-249,0l0,-304ZM158.9,0c-16.8,0,-29,13.8,-29,29l0,1011.4c0,15.3,12.2,29,29,29l436.9,0c183.4,0,333.1,-146.6,333.1,-328.4C928.9,600.4,835.7,485.8,702.8,432.4L912.1,44.3C922.8,24.4,912.1,0,886.1,0L725.7,0C711.9,0,704.3,7.6,701.3,13.8L498.1,418.6l-169.6,0L328.5,29C328.5,13.8,314.7,0,299.4,0Z" 
	id="T1_0_15"
	 />

	<path d="M267.4,597.4c-16.8,0,-29.1,13.7,-29.1,29l0,348.3l-102.3,0c-15.3,0,-29.1,12.2,-29.1,29.1l0,36.6c0,15.3,13.8,29,29.1,29l302.5,0c16.8,0,29,-13.7,29,-29l0,-36.6c0,-16.9,-12.2,-29.1,-29,-29.1l-102.4,0l0,-348.3c0,-15.3,-13.7,-29,-29,-29Zm514.8,-4.6c-7.6,0,-21.4,6.1,-25.9,15.3L656.9,844.9L611.1,621.8c-1.5,-12.2,-16.8,-24.4,-29,-24.4l-35.2,0c-19.8,0,-32,16.8,-29,35.1l79.5,421.7c3,12.2,15.2,22.9,29,22.9l6.1,0c9.2,0,22.9,-9.2,26,-16.8l128.3,-304l131.4,304c3.1,7.6,16.8,16.8,26,16.8l6.1,0c12.2,0,26,-10.7,29,-22.9l81,-423.2c3,-18.4,-10.7,-33.6,-29,-33.6l-39.8,0c-13.7,0,-25.9,12.2,-29,25.9L919.7,844.9L815.8,606.5c-3,-7.6,-15.2,-13.7,-24.4,-13.7Z" 
	id="T1_1_21"
	 />


</defs>
</svg>