<?xml version="1.0" encoding="UTF-8" standalone="no"?>
<!DOCTYPE svg PUBLIC "-//W3C//DTD SVG 1.1//EN"
"http://www.w3.org/Graphics/SVG/1.1/DTD/svg11.dtd">
<svg version="1.1" xmlns="http://www.w3.org/2000/svg" xmlns:xlink="http://www.w3.org/1999/xlink">
<defs>
<style type="text/css"><![CDATA[
.g4_14{
fill: none;
stroke: #040503;
stroke-width: 2;
stroke-linecap: round;
stroke-linejoin: round;
stroke-miterlimit: 2;
}
.g6_14{
fill: none;
stroke: #040503;
stroke-width: 2;
stroke-linecap: butt;
stroke-linejoin: miter;
stroke-miterlimit: 2;
}
.g3_14{
fill: none;
stroke: #040503;
stroke-width: 1;
stroke-linecap: round;
stroke-linejoin: round;
stroke-miterlimit: 2;
}
.g2_14{
fill: none;
stroke: #231F20;
stroke-width: 1;
stroke-linecap: butt;
stroke-linejoin: miter;
}
.g5_14{
fill: none;
stroke: #040503;
stroke-width: 1;
stroke-linecap: butt;
stroke-linejoin: miter;
stroke-miterlimit: 2;
}
.g1_14{
fill: none;
stroke: #231F20;
stroke-width: 4;
stroke-linecap: butt;
stroke-linejoin: miter;
}
]]></style>
</defs>
<path d="M55,191l245,0" class="g1_14" />
<path d="M299,191l150,0" class="g1_14" />
<path d="M449,191l70,0" class="g1_14" />
<path d="M519,191l70,0" class="g1_14" />
<path d="M589,191l140,0" class="g1_14" />
<path d="M729,191l95,0" class="g1_14" />
<path d="M299.5,226.5l150,0" class="g2_14" />
<path d="M449.5,226.5l70,0" class="g2_14" />
<path d="M519.5,226.5l70,0" class="g2_14" />
<path d="M589.5,226.5l140,0" class="g2_14" />
<path d="M729.5,226.5l95,0" class="g2_14" />
<path d="M299.5,260.5l150,0" class="g2_14" />
<path d="M449.5,260.5l70,0" class="g2_14" />
<path d="M519.5,260.5l70,0" class="g2_14" />
<path d="M589.5,260.5l140,0" class="g2_14" />
<path d="M729.5,260.5l95,0" class="g2_14" />
<path d="M299.5,294.5l150,0" class="g2_14" />
<path d="M449.5,294.5l70,0" class="g2_14" />
<path d="M519.5,294.5l70,0" class="g2_14" />
<path d="M589.5,294.5l140,0" class="g2_14" />
<path d="M729.5,294.5l95,0" class="g2_14" />
<path d="M299.5,329.5l150,0" class="g2_14" />
<path d="M449.5,329.5l70,0" class="g2_14" />
<path d="M519.5,329.5l70,0" class="g2_14" />
<path d="M589.5,329.5l140,0" class="g2_14" />
<path d="M729.5,329.5l95,0" class="g2_14" />
<path d="M66,256.9l-0.4,-0.5L65,259.5l0.5,-0.2Z" class="g3_14" />
<path d="M66,256.9l0.5,0.1L66,259.3l-0.5,0l0.5,0l0.7,0.3" class="g3_14" />
<path d="M65,259.5l1.2,0.4c0,0,0.8,0.1,1.2,-0.7" class="g3_14" />
<path d="M65.6,256.4l1.2,0.4c0,0,0.6,0.2,0.8,0.9" class="g3_14" />
<path d="M65.6,256.4c0,0,0.7,0.2,1.2,0.4c0.6,0.2,0.7,0.6,0.7,0.9c0.1,0.4,0,1.2,-0.2,1.5c-0.1,0.3,-0.3,0.6,-0.7,0.7" class="g4_14" />
<path d="M69.5,255.3l3.4,1.1l-0.3,1.7L69.2,257Z" class="g3_14" />
<path d="M69.9,255.8l2.9,0.9l-0.2,1l-2.9,-0.9Z" class="g3_14" />
<path d="M69.5,255.3l0.4,0.5l-0.2,1L69.2,257" class="g3_14" />
<path d="M70.4,255.9l-0.2,1" class="g3_14" />
<path d="M72.7,257.8l0.2,-1.3l-3.2,-1" class="g4_14" />
<path d="M68.5,261.2l2.9,0.9L71,263.8l-2.8,-0.9Z" class="g3_14" />
<path d="M68.9,261.7l2.3,0.7l-0.2,1l-2.3,-0.8Z" class="g3_14" />
<path d="M69.4,261.8l-0.2,0.9l1.8,0.6" class="g3_14" />
<path d="M70.2,256.8l2.4,0.8" class="g3_14" />
<path d="M66.5,257l0.6,0.2c0,0,0.3,0.2,0.4,0.5" class="g3_14" />
<path d="M65.5,259.3c0,0,1,0.3,1.2,0.3c0.2,-0.1,0.4,-0.1,0.6,-0.4" class="g3_14" />
<path d="M79,261l-0.4,-0.4L78,263.7l0.5,-0.3Z" class="g3_14" />
<path d="M79,261l0.5,0.2L79,263.5l-0.5,-0.1l0.5,0.1l0.7,0.2" class="g3_14" />
<path d="M78,263.7l1.2,0.4c0,0,0.8,0.1,1.2,-0.7" class="g3_14" />
<path d="M78.6,260.6l1.2,0.4c0,0,0.6,0.2,0.8,0.9" class="g3_14" />
<path d="M82.5,259.5l3.4,1.1l-0.3,1.7l-3.4,-1.1Z" class="g3_14" />
<path d="M82.9,260l2.9,0.9l-0.2,1L82.7,261Z" class="g3_14" />
<path d="M82.5,259.5l0.4,0.5l-0.2,1l-0.5,0.2" class="g3_14" />
<path d="M83.4,260.1l-0.2,1" class="g3_14" />
<path d="M81.5,265.4l2.9,0.9L84,268l-2.8,-1Z" class="g3_14" />
<path d="M81.9,265.8l2.3,0.8l-0.2,1l-2.3,-0.8Z" class="g3_14" />
<path d="M82.4,266l-0.2,0.8l1.8,0.7" class="g3_14" />
<path d="M83.2,261l2.4,0.8" class="g3_14" />
<path d="M79.5,261.2l0.6,0.2c0,0,0.3,0.2,0.4,0.5" class="g3_14" />
<path d="M78.5,263.4c0,0,1,0.4,1.2,0.4c0.2,-0.1,0.4,-0.1,0.6,-0.5" class="g3_14" />
<path d="M59.8,265.5l0,2.2" class="g3_14" />
<path d="M59.9,265.5l28.9,9.3l0.1,2.2" class="g3_14" />
<path d="M59.3,265.3l0.1,2.1" class="g3_14" />
<path d="M59.8,267.7l29.1,9.4l0,2.5" class="g4_14" />
<path d="M89.1,276.9l-0.2,0.2" class="g3_14" />
<path d="M90.1,277.2l0,-1.8" class="g3_14" />
<path d="M74.8,249.2l11.3,1.1" class="g4_14" />
<path d="M102,270.1l0,-8.2" class="g4_14" />
<path d="M86.1,250.3c0,0,7.6,1.3,12.6,5.6" class="g4_14" />
<path d="M98.7,255.9c0,0,2.9,2.4,3.3,6" class="g4_14" />
<path d="M58.5,265.2l0.8,0.3" class="g3_14" />
<path d="M59.5,267.4l-0.2,0" class="g4_14" />
<path d="M59.3,267.4c0,0,-0.7,0.2,-0.8,-0.4" class="g4_14" />
<path d="M89.3,275.1l0.8,0.3" class="g3_14" />
<path d="M89.3,275l0,2" class="g3_14" />
<path d="M100.9,271.8c0,0,-3.3,2.1,-5.4,3.1c-2,1,-5.4,2.3,-5.4,2.3c0,0.1,-0.3,0.1,-0.4,0.2c-0.1,-0.1,-0.3,-0.1,-0.4,-0.2" class="g4_14" />
<path d="M89.3,277c0,0,0.1,0.6,0.8,0.2" class="g3_14" />
<path d="M102,270.1c0,0,-0.1,0.9,-1.1,1.7" class="g4_14" />
<path d="M93.9,265l6.8,-2.2" class="g3_14" />
<path d="M92.9,260l5.9,-2" class="g3_14" />
<path d="M94.8,275.3l0,6.2" class="g3_14" />
<path d="M95.6,274.9l0,6.4" class="g4_14" />
<path d="M88.4,286.4l2.7,-2.2" class="g3_14" />
<path d="M92.2,283.6l1.7,-0.7" class="g3_14" />
<path d="M92.2,284.8L94,284" class="g4_14" />
<path d="M88.8,287.3l2.7,-2.2" class="g4_14" />
<path d="M82.4,284.6l2.3,-1.9" class="g4_14" />
<path d="M82.6,285.4l4.3,1.4" class="g3_14" />
<path d="M82.7,286.4l4.3,1.4" class="g4_14" />
<path d="M82.3,285.2l0.1,0.8" class="g4_14" />
<path d="M82.7,286.4c0,0,-0.2,-0.1,-0.3,-0.4" class="g4_14" />
<path d="M82.3,285.2c0,0,-0.1,-0.4,0.1,-0.6" class="g4_14" />
<path d="M82.3,285.1c0,0,0,0.2,0.3,0.3" class="g3_14" />
<path d="M88.4,286.4c0,0,-0.4,0.5,-1.5,0.4" class="g3_14" />
<path d="M88.8,287.3c0,0,-0.7,0.7,-1.8,0.5" class="g4_14" />
<path d="M91.1,284.2c0,0,0.5,-0.4,1.1,-0.6" class="g3_14" />
<path d="M92.2,284.8c0,0,-0.5,0.1,-0.7,0.3" class="g4_14" />
<path d="M95.6,281.3c0,0,-0.2,2,-1.6,2.7" class="g4_14" />
<path d="M94.8,281.5c0,0,-0.1,0.9,-0.9,1.4" class="g3_14" />
<path d="M88.9,279.6c0,0,0.1,1.3,-1.5,1.6" class="g4_14" />
<path d="M89.5,280.3l4.3,1.3" class="g3_14" />
<path d="M88.9,281l4.3,1.3" class="g3_14" />
<path d="M87.9,282.2l3.2,1" class="g3_14" />
<path d="M86.3,291l-0.7,-3.7m-0.4,-2.4l-0.8,-4" class="g4_14" />
<path d="M87.1,280.4l0.8,3.8m0.6,3.3l0.6,2.9" class="g4_14" />
<path d="M84.4,280.9c-0.2,-0.4,0.3,-0.8,1.1,-1c0.8,-0.2,1.5,0,1.6,0.4" class="g4_14" />
<path d="M87.9,284.3c0.1,0.4,-0.4,0.9,-1.1,1.1c-0.8,0.1,-1.5,-0.1,-1.7,-0.5" class="g3_14" />
<path d="M89.1,290.3c0.1,0.4,-0.4,0.9,-1.1,1c-0.8,0.2,-1.5,0,-1.7,-0.4" class="g3_14" />
<path d="M87.2,280.7c0.1,0.4,-0.4,0.9,-1.1,1.1c-0.8,0.2,-1.5,0,-1.7,-0.4" class="g3_14" />
<path d="M87.4,281.4c0.1,0.4,-0.4,0.9,-1.1,1c-0.8,0.2,-1.5,0,-1.7,-0.4" class="g3_14" />
<path d="M87.4,282c0.2,0.4,-0.3,0.9,-1.1,1.1c-0.7,0.1,-1.5,-0.1,-1.6,-0.5" class="g3_14" />
<path d="M87.6,282.6c0.1,0.4,-0.4,0.8,-1.2,1c-0.7,0.2,-1.4,0,-1.6,-0.4" class="g3_14" />
<path d="M87.7,283.2c0.1,0.4,-0.4,0.9,-1.1,1.1c-0.8,0.1,-1.5,-0.1,-1.7,-0.5" class="g3_14" />
<path d="M87.8,283.8c0.1,0.4,-0.4,0.9,-1.1,1.1c-0.8,0.2,-1.5,0,-1.6,-0.4" class="g3_14" />
<path d="M88.8,289.1c0.1,0.4,-0.4,0.9,-1.1,1.1c-0.8,0.1,-1.5,-0.1,-1.6,-0.5" class="g3_14" />
<path d="M88.9,289.7c0.2,0.4,-0.3,0.9,-1.1,1.1c-0.8,0.2,-1.5,0,-1.6,-0.4" class="g3_14" />
<path d="M88.6,287.9c0.1,0.4,-0.4,0.9,-1.1,1.1c-0.8,0.1,-1.5,-0.1,-1.7,-0.5" class="g3_14" />
<path d="M88.7,288.5c0.1,0.4,-0.4,0.9,-1.1,1.1c-0.8,0.2,-1.5,0,-1.6,-0.4" class="g3_14" />
<path d="M88.4,287.6c-0.1,0.3,-0.5,0.6,-1.1,0.7c-0.7,0.2,-1.4,0,-1.6,-0.4" class="g3_14" />
<path d="M88.6,287.9c0.1,0.4,-0.4,0.9,-1.1,1.1c-0.8,0.1,-1.5,-0.1,-1.7,-0.5" class="g3_14" />
<path d="M87,287.8c-0.7,0.1,-1.2,-0.1,-1.4,-0.5" class="g3_14" />
<path d="M93.3,289.5c0.4,1.7,-1.8,3.8,-4.8,4.5c-3,0.6,-5.9,-0.2,-6.3,-1.9" class="g3_14" />
<path d="M88.6,287.6c2.4,-0.1,4.4,0.8,4.8,2.1" class="g4_14" />
<path d="M82.2,292.1c-0.3,-1.5,1.2,-3.1,3.5,-3.9" class="g4_14" />
<path d="M93.8,292.1c0.4,1.7,-1.8,3.7,-4.8,4.4c-3,0.6,-5.9,-0.2,-6.3,-1.9" class="g4_14" />
<path d="M82.7,294.6l-0.5,-2.5" class="g4_14" />
<path d="M93.8,292.1l-0.4,-2.4" class="g4_14" />
<path d="M130.2,278.7c6.4,-2.4,15.2,-3.5,24.6,-3.4c21.2,0.1,37.3,6.2,36.6,15.4" class="g4_14" />
<path d="M191.2,292.4c-1.9,7.8,-17.5,13.8,-36.4,13.8c-13.5,0,-25,-3.1,-31.2,-7.6c-2,-1.5,-2.8,-3.2,-3.1,-4.9" class="g4_14" />
<path d="M191.4,290.7c0,0.6,0,1.1,-0.2,1.6" class="g4_14" />
<path d="M191.2,295.9c-1.9,7.8,-17.5,13.9,-36.4,13.9c-13.4,0,-25,-3.1,-31.2,-7.7c-1.9,-1.5,-2.8,-3.1,-3.1,-4.8" class="g4_14" />
<path d="M191.3,299.4c-2,7.8,-17.8,13.8,-36.7,13.8c-13.4,0,-25,-3.1,-31.2,-7.7c-1.9,-1.4,-2.6,-2.9,-2.9,-4.5" class="g4_14" />
<path d="M191.3,303c-1.9,7.8,-17.5,13.8,-36.4,13.8c-13.5,0,-24.9,-3.2,-31.2,-7.6c-3.4,-2.4,-3.7,-5.5,-3,-8.1" class="g4_14" />
<path d="M124.5,292.2c0,-5,14,-9.7,30.5,-9.4c16.5,0.3,30.7,5.4,31.7,9.7" class="g4_14" />
<path d="M187.3,290.7c0,5,-15.4,11,-32.3,11c-16.9,0,-30.5,-4.4,-30.5,-9.5" class="g4_14" />
<path d="M125.1,293.9c3.1,-4.2,15.5,-7.7,29.8,-7.5c13.8,0.3,26.1,4,30.2,7.6" class="g4_14" />
<path d="M127.1,295.9c4.7,-3.5,15.8,-6.1,28.2,-5.9c11.5,0.2,21.8,2.8,27.4,5.7" class="g4_14" />
<path d="M130.3,297.6c5.6,-2.5,14.8,-4.3,25,-4.1c9.1,0.2,17.6,1.9,23.5,4.1" class="g4_14" />
<path d="M131.5,282.8c5.7,-2.2,14.3,-3.6,23.6,-3.5c16.5,0.3,30.7,5.4,31.8,9.7" class="g4_14" />
<path d="M186.9,289c0,0,0.3,0.6,0.4,1.7" class="g4_14" />
<path d="M131.5,282.8l-7.3,2.8" class="g4_14" />
<path d="M124.2,285.6c0,0,-4.9,2.8,-3.7,8.1" class="g4_14" />
<path d="M120.6,294c0,0,-0.6,1.1,-0.1,3.3" class="g4_14" />
<path d="M120.6,297.7c0,0,-0.6,1.1,-0.1,3.3" class="g4_14" />
<path d="M191.2,292.4c0,0,0.5,0.8,0,3.5" class="g4_14" />
<path d="M191.2,295.9c0,0,0.5,0.8,0.1,3.5" class="g4_14" />
<path d="M191.2,299.6c0,0,0.5,0.8,0.1,3.5" class="g4_14" />
<path d="M191.3,303.1c0,0,2.1,5.9,-6.2,10.7" class="g4_14" />
<path d="M185.1,313.8l-2.7,1.3l-37.6,16.5" class="g4_14" />
<path d="M172.9,314.8l-29.6,13" class="g4_14" />
<path d="M106,281.1c0,0,4.8,1.9,11.1,1.4c6.2,-0.4,13.1,-4,13.1,-3.8" class="g4_14" />
<path d="M105.5,285.5c0,0,4.9,1.9,11.1,1.4c2.6,-0.2,5.3,-0.6,7.6,-1.3" class="g4_14" />
<path d="M97.2,274c0,0,2.4,5.2,8.8,7.1" class="g4_14" />
<path d="M95.6,278.5c0,0,3.5,5.1,9.9,7" class="g4_14" />
<path d="M78.7,260.6c0,0,0.7,0.2,1.2,0.3c0.6,0.2,0.7,0.7,0.7,1c0.1,0.3,0,1.1,-0.2,1.4c-0.1,0.4,-0.3,0.7,-0.7,0.7" class="g4_14" />
<path d="M85.7,261.8l0.2,-1.2l-3.2,-1" class="g4_14" />
<path d="M71.1,263.4l0.3,-1.3l-2.6,-0.8" class="g4_14" />
<path d="M59.8,265.5c0,0,1.7,-7.8,2.2,-9.6c0.4,-1.8,2.3,-3.7,5.1,-4.7c3,-1,6.8,-0.9,10.4,0.1c3.9,1,7.9,3.3,10.5,6.1c2.4,2.7,3.6,5.9,3.1,8.4c-0.6,2.6,-2.3,9,-2.3,9" class="g5_14" />
<path d="M59.3,265.3c0,0,1.7,-7.8,2.2,-9.6c0.4,-1.9,2.4,-3.9,5.3,-4.9c3.1,-1,7.1,-1,10.8,0c4.1,1.1,8.2,3.5,10.8,6.4c2.6,2.8,3.7,6,3.1,8.7C91,268.6,89.3,275,89.3,275" class="g5_14" />
<path d="M78,249.8c4.4,1.1,8.4,4,11.2,7.1c2.7,3,3.8,6.4,3.2,9.2c-0.5,2.8,-2.4,9.7,-2.4,9.7" class="g5_14" />
<path d="M74.8,249.2c-3,-0.3,-6.1,0.1,-8.5,0.9c-3.1,1.1,-5.2,3.2,-5.6,5.2c-0.5,1.9,-2.2,9.9,-2.2,9.9l0,1.8" class="g6_14" />
<path d="M87,280.2c0.2,0.4,-0.3,0.9,-1.1,1.1c-0.7,0.1,-1.5,-0.1,-1.6,-0.5" class="g3_14" />
<path d="M142.1,327.5c1.1,-0.2,2.3,0.8,2.7,2.4c0.3,1.2,0.1,2.4,-0.5,3" class="g4_14" />
<path d="M142.1,327.5l-6.3,1.5" class="g4_14" />
<path d="M127.7,332.1l6.3,-2.8" class="g3_14" />
<path d="M125,332.9l7,-3.1c0,0,1,-0.3,2,-0.5c1,-0.3,1.8,-0.3,1.8,-0.3" class="g4_14" />
<path d="M131.1,333.2l6.3,-2.7c0,0,0.6,-0.4,0.6,-0.7" class="g3_14" />
<path d="M138,329.8l0.6,-0.7c0,0,0,-0.2,0,-0.3" class="g3_14" />
<path d="M138.2,328.7c0,0,-0.3,-0.2,-0.9,-0.1" class="g3_14" />
<path d="M138,329.8c0,0,0.9,0.5,3.2,1.1" class="g3_14" />
<path d="M133.8,335.8l6.9,-3.1c0,0,0.7,-0.4,0.8,-0.8" class="g3_14" />
<path d="M141.5,331.3c0.1,0.1,0.1,0.3,0,0.6" class="g4_14" />
<path d="M141.2,330.9c0,0,0.3,0,0.3,0.4" class="g3_14" />
<path d="M141.5,331.9l0,4.2" class="g4_14" />
<path d="M144.3,332.9l-2.8,1.8" class="g4_14" />
<path d="M133.8,340.2l6.9,-3" class="g4_14" />
<path d="M141.5,336.1c0,0,0.1,0.5,-0.8,1.1" class="g4_14" />
<path d="M127.5,342.9l0.2,1l3.4,1.2l6.3,-2.8" class="g4_14" />
<path d="M137.4,342.3c0,0,0.7,0,3.1,-5" class="g4_14" />
<path d="M131.7,340.6l2.1,-0.4" class="g4_14" />
<path d="M131.1,345.1l0.6,-4.5" class="g3_14" />
<path d="M133.8,340.2l0,-4.4l-2.7,-2.6l-3.4,-1.1l-2.7,0.8" class="g3_14" />
<path d="M125,332.9l0,0.8" class="g4_14" />
<path d="M126.3,333.2L122,335" class="g4_14" />
<path d="M127.4,336.3l-4.4,1.9" class="g4_14" />
<path d="M122.5,338.1L122,338c0,0,-1.1,-1.1,0,-3" class="g4_14" />
<path d="M123,338.2c-0.2,-0.2,-0.9,-1.2,0,-2.9" class="g3_14" />
<path d="M122.5,335.1l0.5,0.2l4.4,-1.9l-0.5,-0.1l0.5,0.1l0,2.9" class="g3_14" />
<path d="M130.9,334.7l-4.4,1.9" class="g4_14" />
<path d="M131.8,337.8l-4.4,1.9" class="g4_14" />
<path d="M127,339.7l-0.5,-0.1c0,0,-1.1,-1,0,-3" class="g4_14" />
<path d="M127.4,339.7c-0.2,-0.2,-0.9,-1.2,0,-2.9" class="g3_14" />
<path d="M126.9,336.6l0.5,0.2l4.4,-1.9l-0.5,-0.2l0.5,0.2l0,2.9" class="g3_14" />
<path d="M125,337.4l1,0.8" class="g4_14" />
<path d="M127.1,339.6l0.1,0.9" class="g4_14" />
<path d="M122.9,342.4l6.1,-2.6" class="g4_14" />
<path d="M129.9,341.9l-6,2.5" class="g4_14" />
<path d="M123.9,344.5c-0.1,0,-0.2,0,-0.3,0c-0.6,0,-1.1,-0.5,-1.1,-1.1c0,-0.4,0.2,-0.8,0.4,-1" class="g4_14" />
<path d="M129,339.8c0,0,0.7,-0.2,1.1,0.8c0.3,0.9,-0.2,1.3,-0.2,1.3" class="g4_14" />
<path d="M123.2,342.7c0,0,1,0.1,0.7,1.3" class="g3_14" />
<path d="M128.1,338.6c-0.3,-0.1,-0.4,-0.5,-0.3,-0.9c0.1,-0.4,0.4,-0.7,0.6,-0.6" class="g3_14" />
<path d="M128.5,337c0.2,0.1,0.3,0.5,0.2,0.9c-0.1,0.5,-0.4,0.8,-0.6,0.7" class="g3_14" />
<path d="M128.2,337.1c0,0.2,0,0.4,0,0.6c-0.1,0.3,-0.2,0.5,-0.4,0.6" class="g3_14" />
<path d="M123.6,337.2c-0.2,-0.1,-0.4,-0.5,-0.3,-0.9c0.1,-0.4,0.4,-0.7,0.7,-0.6" class="g3_14" />
<path d="M124,335.6c0.3,0.1,0.4,0.5,0.3,0.9c-0.1,0.4,-0.4,0.8,-0.7,0.7" class="g3_14" />
<path d="M123.7,335.7c0.1,0.2,0.1,0.4,0,0.6c0,0.3,-0.2,0.5,-0.3,0.6" class="g3_14" />
</svg>