<?xml version="1.0" encoding="UTF-8" standalone="no"?>
<!DOCTYPE svg PUBLIC "-//W3C//DTD SVG 1.1//EN"
"http://www.w3.org/Graphics/SVG/1.1/DTD/svg11.dtd">
<svg viewBox="0 0 935 1210" version="1.1" xmlns="http://www.w3.org/2000/svg" xmlns:xlink="http://www.w3.org/1999/xlink">
<defs>
<style type="text/css"><![CDATA[
.g15_4{
}
.g7_4{
fill: #636363;
stroke: #000000;
stroke-width: 3;
stroke-linecap: round;
stroke-linejoin: round;
stroke-miterlimit: 2;
}
.g13_4{
fill: none;
stroke: #FFFFFF;
stroke-width: 2;
stroke-linecap: round;
stroke-linejoin: round;
stroke-miterlimit: 2;
stroke-dasharray: 8,5,2,5;
}
.g2_4{
fill: none;
stroke: #FFFFFF;
stroke-width: 3;
stroke-linecap: round;
stroke-linejoin: miter;
stroke-miterlimit: 2;
}
.g12_4{
fill: none;
stroke: #000000;
stroke-width: 3;
stroke-linecap: round;
stroke-linejoin: round;
stroke-miterlimit: 2;
}
.g3_4{
fill: #FFFFFF;
stroke: #000000;
stroke-width: 2;
stroke-linecap: butt;
stroke-linejoin: miter;
stroke-miterlimit: 2;
}
.g1_4{
fill: #B3B3B3;
}
.g9_4{
fill: none;
stroke: #FFFFFF;
stroke-width: 1;
stroke-linecap: round;
stroke-linejoin: round;
stroke-miterlimit: 2;
stroke-dasharray: 4,3,1,3;
}
.g11_4{
fill: none;
stroke: #FFFFFF;
stroke-width: 2;
stroke-linecap: round;
stroke-linejoin: round;
stroke-miterlimit: 2;
}
.g4_4{
fill: none;
stroke: #000000;
stroke-width: 2;
stroke-linecap: butt;
stroke-linejoin: miter;
stroke-miterlimit: 2;
}
.g8_4{
fill: none;
stroke: #FFFFFF;
stroke-width: 2;
stroke-linecap: round;
stroke-linejoin: round;
stroke-miterlimit: 2;
stroke-dasharray: 8,8;
}
.g5_4{
fill: none;
stroke: #000000;
stroke-width: 1;
stroke-linecap: butt;
stroke-linejoin: miter;
stroke-miterlimit: 2;
}
.g10_4{
fill: #FFFFFF;
}
.g14_4{
stroke: #000000;
stroke-width: 2;
stroke-linecap: round;
stroke-linejoin: round;
stroke-miterlimit: 2;
}
.g6_4{
fill: none;
stroke: #000000;
stroke-width: 1;
stroke-linecap: round;
stroke-linejoin: round;
stroke-miterlimit: 2;
}
]]></style>
</defs>
<path fill-rule="evenodd" d="M55,54l824,0l0,1101l-824,0Z" class="g1_4" />
<path d="M55.5,256.5l27,0" class="g2_4" />
<path d="M55.5,430.5l27,0" class="g2_4" />
<path d="M55.5,605.5l27,0" class="g2_4" />
<path d="M55.5,779.5l27,0" class="g2_4" />
<path d="M55.5,953.5l27,0" class="g2_4" />
<path d="M852.5,256.5l28,0" class="g2_4" />
<path d="M852.5,605.5l28,0" class="g2_4" />
<path d="M236.5,82.5l0,-27" class="g2_4" />
<path d="M390.5,82.5l0,-27" class="g2_4" />
<path d="M544.5,82.5l0,-27" class="g2_4" />
<path d="M698.5,82.5l0,-27" class="g2_4" />
<path d="M236.5,1155.5l0,-28" class="g2_4" />
<path d="M390.5,1155.5l0,-28" class="g2_4" />
<path d="M544.5,1155.5l0,-28" class="g2_4" />
<path d="M698.5,1155.5l0,-28" class="g2_4" />
<path d="M852.5,430.5l28,0" class="g2_4" />
<path d="M852.5,779.5l28,0" class="g2_4" />
<path d="M852.5,953.5l28,0" class="g2_4" />
<path fill-rule="evenodd" d="M82,82l770,0l0,1045l-770,0Z" class="g3_4" />
<path d="M82,1097l770,0" class="g4_4" />
<path d="M466.5,1099.5l0,28" class="g5_4" />
<path d="M468.5,1099.5l0,28" class="g5_4" />
<path d="M272.5,1099.5l0,28" class="g5_4" />
<path d="M274.5,1099.5l0,28" class="g5_4" />
<path d="M664.5,1099.5l0,28" class="g5_4" />
<path d="M666.5,1099.5l0,28" class="g5_4" />
<path d="M274.5,1099.5l192,0" class="g6_4" />
<path d="M468.5,1099.5l196,0" class="g6_4" />
<path d="M666.5,1099.5l186,0" class="g6_4" />
<path d="M272.5,1099.5l-190,0" class="g6_4" />
<path fill-rule="evenodd" d="M366.5,114.5l450,0l0,952l-450,0Z" class="g7_4" />
<path d="M394,117l0,814" class="g8_4" />
<path d="M773.5,1048.5l0,-21l21,0" class="g9_4" />
<path d="M394.6,153.7L404,149l0,9.4Zm9,-0.8l0,1.6l-0.1,0l-0.1,0l0,-0.1l-0.1,0l-0.1,0l-0.1,-0.1l-0.1,0l0,-0.1l-0.1,0l0,-0.1l0,-0.1l-0.1,0l0,-0.1l0,-0.1l0,-0.1l0,-0.1l0,-0.1l0,-0.1l0.1,0l0,-0.1l0,-0.1l0.1,0l0,-0.1l0.1,0l0.1,0l0,-0.1l0.1,0l0.1,0l0,-0.1l0.1,0Zm168.7,1.6l-168.7,0l0,-1.6l168.7,0Zm0,0l0,-1.6l0.1,0l0.1,0.1l0.1,0l0.1,0l0,0.1l0.1,0l0,0.1l0.1,0l0,0.1l0.1,0l0,0.1l0,0.1l0,0.1l0.1,0l0,0.1l0,0.1l-0.1,0.1l0,0.1l0,0.1l-0.1,0l0,0.1l-0.1,0l0,0.1l-0.1,0l0,0.1l-0.1,0l-0.1,0l0,0.1l-0.1,0l-0.1,0Z" class="g10_4" />
<path d="M773.6,153.5l-9.4,4.7l0,-9.4Zm-8.9,0.7l0,-1.5l0.1,0l0.1,0l0,0.1l0.1,0l0.1,0l0,0.1l0.1,0l0,0.1l0.1,0l0,0.1l0.1,0l0,0.1l0,0.1l0,0.1l0,0.1l0,0.1l0,0.1l0,0.1l-0.1,0.1l0,0.1l-0.1,0l0,0.1l-0.1,0l-0.1,0.1l-0.1,0l-0.1,0l-0.1,0ZM607.2,152.7l157.5,0l0,1.5l-157.5,0Zm0,0l0,1.5l-0.1,0l-0.1,0l-0.1,0l-0.1,0l0,-0.1l-0.1,0l0,-0.1l-0.1,0l0,-0.1l-0.1,-0.1l0,-0.1l0,-0.1l-0.1,0l0,-0.1l0,-0.1l0.1,0l0,-0.1l0,-0.1l0,-0.1l0.1,0l0,-0.1l0.1,-0.1l0.1,0l0,-0.1l0.1,0l0.1,-0.1l0.1,0l0.1,0Z" class="g10_4" />
<path d="M727,600l23,0" class="g11_4" />
<path d="M698,1027l50,0" class="g11_4" />
<path d="M742.8,600.7l4.7,9.4l-9.4,0Zm0.8,8.9l-1.5,0l0,-0.1l0,-0.1l0,-0.1l0.1,-0.1l0.1,-0.1l0.1,-0.1l0.1,0l0,-0.1l0.1,0l0.1,0l0.1,0l0.1,0l0.1,0l0.1,0l0.1,0.1l0.1,0l0,0.1l0.1,0l0,0.1l0.1,0l0,0.1l0,0.1l0.1,0l0,0.1l0,0.1Zm-1.5,192.6l0,-192.6l1.5,0l0,192.6Zm0,0l1.5,0l0,0.1l0,0.1l0,0.1l-0.1,0l0,0.1l0,0.1l-0.1,0l0,0.1l-0.1,0l0,0.1l-0.1,0l-0.1,0l0,0.1l-0.1,0l-0.1,0l-0.1,0l-0.1,0l-0.1,0l-0.1,-0.1l-0.1,0l-0.1,-0.1l-0.1,-0.1l0,-0.1l-0.1,0l0,-0.1l0,-0.1l0,-0.1Z" class="g10_4" />
<path d="M742.8,1027.4l-4.6,-9.4l9.4,0Zm-0.7,-8.9l1.5,0l0,0.1l0,0.1l0,0.1l-0.1,0.1l0,0.1l-0.1,0l0,0.1l-0.1,0l-0.1,0.1l-0.1,0l-0.1,0l-0.1,0l-0.1,0l-0.1,0l-0.1,0l-0.1,0l0,-0.1l-0.1,0l0,-0.1l-0.1,0l0,-0.1l-0.1,0l0,-0.1l0,-0.1l-0.1,0l0,-0.1l0,-0.1Zm2.8,-176.9l-1.3,176.9l-1.5,0l1.3,-176.9Zm0,0l-1.5,0l0,-0.1l0,-0.1l0,-0.1l0.1,0l0,-0.1l0.1,-0.1l0.1,-0.1l0.1,0l0,-0.1l0.1,0l0.1,0l0.1,0l0.1,0l0.1,0l0.1,0l0.1,0l0,0.1l0.1,0l0.1,0.1l0.1,0.1l0,0.1l0.1,0.1l0,0.1l0,0.1Z" class="g10_4" />
<path d="M366.5,114.5l0,-18" class="g12_4" />
<path d="M366.5,114.5l-18,0" class="g12_4" />
<path d="M366.5,1066.5l-18,0" class="g12_4" />
<path d="M366.5,1066.5l0,17" class="g12_4" />
<path d="M773,172l0,357" class="g13_4" />
<path d="M773,172l0,855" class="g13_4" />
<path d="M773.5,1027.5l-20,0" class="g9_4" />
<path fill-rule="evenodd" d="M774,1020.4c3.8,0,6.9,3.1,6.9,6.9c0,3.8,-3.1,6.9,-6.9,6.9c-3.8,0,-6.9,-3.1,-6.9,-6.9c0,-3.8,3.1,-6.9,6.9,-6.9Z" class="g14_4" />
<path d="M773.5,151.5l0,21l21,0" class="g9_4" />
<path d="M773.5,172.5l-20,0" class="g9_4" />
<path d="M773.5,600.5l21,0" class="g9_4" />
<path d="M773.5,600.5l-20,0" class="g9_4" />
<path fill-rule="evenodd" d="M774,593.3c3.8,0,6.9,3,6.9,6.8c0,3.8,-3.1,6.9,-6.9,6.9c-3.8,0,-6.9,-3.1,-6.9,-6.9c0,-3.8,3.1,-6.8,6.9,-6.8Z" class="g14_4" />
<path fill-rule="evenodd" d="M774,166.1c3.8,0,6.9,3.1,6.9,6.9c0,3.8,-3.1,6.8,-6.9,6.8c-3.8,0,-6.9,-3,-6.9,-6.8c0,-3.8,3.1,-6.9,6.9,-6.9Z" class="g14_4" />
<path d="M700,172l50,0" class="g11_4" />
<path d="M816.5,114.5l0,-18" class="g12_4" />
<path d="M816.5,114.5l18,0" class="g12_4" />
<path d="M816.5,1066.5l18,0" class="g12_4" />
<path d="M816.5,1066.5l0,17" class="g12_4" />
<path fill-rule="evenodd" d="M136,188l169,0l0,1l-169,0Z" class="g15_4" />
<path d="M711.2,172.9l4.8,9.4l-9.5,0Zm0.8,8.9l-1.5,0l0,-0.1l0,-0.1l0,-0.1l0.1,0l0,-0.1l0,-0.1l0.1,0l0.1,-0.1l0.1,0l0,-0.1l0.1,0l0.1,0l0.1,0l0.1,0l0.1,0l0.1,0l0.1,0l0,0.1l0.1,0l0.1,0.1l0.1,0.1l0,0.1l0.1,0.1l0,0.1l0,0.1Zm-1.5,396.6l0,-396.6l1.5,0l0,396.6Zm0,0l1.5,0l0,0.1l0,0.1l-0.1,0l0,0.1l0,0.1l-0.1,0l0,0.1l-0.1,0l0,0.1l-0.1,0l-0.1,0.1l-0.1,0l-0.1,0l-0.1,0l-0.1,0l-0.1,0l-0.1,0l0,-0.1l-0.1,0l0,-0.1l-0.1,0l-0.1,-0.1l0,-0.1l-0.1,0l0,-0.1l0,-0.1l0,-0.1Z" class="g10_4" />
<path d="M711.2,1027.4l-4.6,-9.4l9.4,0Zm-0.7,-8.9l1.5,0l0,0.1l0,0.1l0,0.1l-0.1,0l0,0.1l0,0.1l-0.1,0l0,0.1l-0.1,0l-0.1,0.1l-0.1,0l-0.1,0l-0.1,0l-0.1,0l-0.1,0l-0.1,0l-0.1,0l0,-0.1l-0.1,0l0,-0.1l-0.1,0l0,-0.1l-0.1,0l0,-0.1l-0.1,-0.1l0,-0.1l0,-0.1Zm2.8,-392.2L712,1018.5l-1.5,0l1.3,-392.2Zm0,0l-1.5,0l0,-0.1l0,-0.1l0,-0.1l0.1,0l0,-0.1l0,-0.1l0.1,0l0,-0.1l0.1,0l0,-0.1l0.1,0l0.1,0l0.1,-0.1l0.1,0l0.1,0l0.1,0l0.1,0l0,0.1l0.1,0l0.1,0l0,0.1l0.1,0l0,0.1l0.1,0l0,0.1l0,0.1l0.1,0l0,0.1l0,0.1Z" class="g10_4" />
</svg>