<?xml version="1.0" encoding="UTF-8" standalone="no"?>
<!DOCTYPE svg PUBLIC "-//W3C//DTD SVG 1.1//EN"
"http://www.w3.org/Graphics/SVG/1.1/DTD/svg11.dtd">
<svg version="1.1" xmlns="http://www.w3.org/2000/svg" xmlns:xlink="http://www.w3.org/1999/xlink">
<defs>
<style type="text/css"><![CDATA[
.g9_1{
fill: #231F20;
}
.g13_1{
fill: none;
stroke: #FFFFFF;
stroke-width: 4;
stroke-linecap: round;
stroke-linejoin: round;
stroke-miterlimit: 2;
}
.g2_1{
fill: none;
stroke: #FFFFFF;
stroke-width: 3;
stroke-linecap: round;
stroke-linejoin: miter;
stroke-miterlimit: 2;
}
.g17_1{
stroke: #FFFFFF;
stroke-width: 1;
stroke-linecap: round;
stroke-linejoin: round;
stroke-miterlimit: 2;
}
.g3_1{
fill: #FFFFFF;
stroke: #000000;
stroke-width: 2;
stroke-linecap: butt;
stroke-linejoin: miter;
stroke-miterlimit: 2;
}
.g1_1{
fill: #B3B3B3;
}
.g7_1{
fill: #636363;
stroke: #000000;
stroke-width: 1;
stroke-linecap: butt;
stroke-linejoin: miter;
stroke-miterlimit: 2;
}
.g10_1{
fill: none;
stroke: #000000;
stroke-width: 2;
stroke-linecap: round;
stroke-linejoin: round;
stroke-miterlimit: 2;
}
.g12_1{
fill: #FFFFFF;
stroke: #FFFFFF;
stroke-width: 2;
stroke-linecap: round;
stroke-linejoin: round;
stroke-miterlimit: 2;
}
.g11_1{
fill: #FFFFFF;
stroke: #000000;
stroke-width: 2;
stroke-linecap: round;
stroke-linejoin: round;
stroke-miterlimit: 2;
}
.g5_1{
fill: none;
stroke: #000000;
stroke-width: 2;
stroke-linecap: butt;
stroke-linejoin: miter;
stroke-miterlimit: 2;
}
.g14_1{
fill: none;
stroke: #000000;
stroke-width: 1;
stroke-linecap: round;
stroke-linejoin: round;
stroke-miterlimit: 2;
stroke-dasharray: 2,3;
}
.g4_1{
fill: none;
stroke: #000000;
stroke-width: 1;
stroke-linecap: butt;
stroke-linejoin: miter;
stroke-miterlimit: 2;
}
.g16_1{
fill: #FFFFFF;
}
.g15_1{
fill: #808080;
stroke: #000000;
stroke-width: 1;
stroke-linecap: round;
stroke-linejoin: round;
stroke-miterlimit: 2;
}
.g6_1{
}
.g8_1{
fill: none;
stroke: #000000;
stroke-width: 1;
stroke-linecap: round;
stroke-linejoin: round;
stroke-miterlimit: 2;
}
]]></style>
</defs>
<path fill-rule="evenodd" d="M55,54l824,0l0,1101l-824,0Z" class="g1_1" />
<path d="M55.5,256.5l27,0" class="g2_1" />
<path d="M55.5,430.5l27,0" class="g2_1" />
<path d="M55.5,605.5l27,0" class="g2_1" />
<path d="M55.5,779.5l27,0" class="g2_1" />
<path d="M55.5,953.5l27,0" class="g2_1" />
<path d="M852.5,256.5l28,0" class="g2_1" />
<path d="M852.5,605.5l28,0" class="g2_1" />
<path d="M852.5,779.5l28,0" class="g2_1" />
<path d="M852.5,953.5l28,0" class="g2_1" />
<path d="M236.5,82.5l0,-27" class="g2_1" />
<path d="M390.5,82.5l0,-27" class="g2_1" />
<path d="M544.5,82.5l0,-27" class="g2_1" />
<path d="M698.5,82.5l0,-27" class="g2_1" />
<path d="M236.5,1155.5l0,-28" class="g2_1" />
<path d="M390.5,1155.5l0,-28" class="g2_1" />
<path d="M544.5,1155.5l0,-28" class="g2_1" />
<path d="M698.5,1155.5l0,-28" class="g2_1" />
<path fill-rule="evenodd" d="M82,82l770,0l0,1045l-770,0Z" class="g3_1" />
<path d="M184.5,209.5l646,0" class="g4_1" />
<path d="M103.5,278.5l727,0" class="g4_1" />
<path d="M82,1097l770,0" class="g5_1" />
<path d="M466.5,1099.5l0,28" class="g4_1" />
<path d="M468.5,1099.5l0,28" class="g4_1" />
<path d="M272.5,1099.5l0,28" class="g4_1" />
<path d="M274.5,1099.5l0,28" class="g4_1" />
<path d="M664.5,1099.5l0,28" class="g4_1" />
<path d="M666.5,1099.5l0,28" class="g4_1" />
<path fill-rule="evenodd" d="M106,289l37,0l0,38l-37,0Z" class="g6_1" />
<path fill-rule="evenodd" d="M103.5,287.5l38,0l0,37l-38,0Z" class="g7_1" />
<path d="M103.5,673.5l727,0" class="g4_1" />
<path d="M274.5,1099.5l192,0" class="g8_1" />
<path d="M468.5,1099.5l196,0" class="g8_1" />
<path d="M666.5,1099.5l186,0" class="g8_1" />
<path d="M272.5,1099.5l-190,0" class="g8_1" />
<path d="M467.5,1097.5l0,-819" class="g4_1" />
<path fill-rule="evenodd" d="M479,289l37,0l0,38l-37,0Z" class="g6_1" />
<path fill-rule="evenodd" d="M477.5,287.5l37,0l0,37l-37,0Z" class="g7_1" />
<path d="M852.5,430.5l28,0" class="g2_1" />
<path fill-rule="evenodd" d="M106,683l37,0l0,38l-37,0Z" class="g6_1" />
<path fill-rule="evenodd" d="M103.5,681.5l38,0l0,38l-38,0Z" class="g7_1" />
<path fill-rule="evenodd" d="M479,683l37,0l0,38l-37,0Z" class="g6_1" />
<path fill-rule="evenodd" d="M477.5,681.5l37,0l0,38l-37,0Z" class="g7_1" />
<path d="M546,95.3c1.6,-0.7,3.4,0,4.1,1.5c0.7,1.6,0.1,3.4,-1.5,4.1c-1.5,0.8,-3.4,0.1,-4.1,-1.5c-0.7,-1.5,0,-3.3,1.5,-4.1Z" class="g8_1" />
<path d="M173.5,114c-2.4,4,-6.7,6.9,-12.3,8.4c5.1,-1.8,7.9,-4.6,9.4,-7.1c2.6,-4.3,2.2,-9,0.7,-11.9c-2.9,-5.7,-12.2,-6.2,-22.6,-5.5c11.8,-2.6,21.1,-1,24.7,4.6c2.3,3.4,2.3,7.7,0.1,11.5Zm-7.4,3.9c2.5,-3.2,3.2,-7.3,2.1,-11.3c-1.3,-4.6,-6.3,-7.3,-14.9,-8c9.9,-0.3,15.3,1.4,17.3,5.2c1.3,2.6,1.7,7.1,-0.7,11.1c-1.2,2,-3.3,4.2,-6.9,5.9c1.2,-0.9,2.2,-1.8,3.1,-2.9Zm8,-15.9c-4.3,-6.6,-16,-7.9,-30.5,-3.6c-0.1,0,-0.1,0,-0.1,0c0,0.1,0,0.1,0,0.1c0,0,-0.1,0,-0.1,0c0,0.1,0,0.1,0,0.1c0,0,-0.1,0,-0.1,0c0,0.1,0,0.1,0,0.1c0,0.1,0,0.1,0,0.1c0,0.1,0,0.1,0,0.1c0,0,0,0.1,0,0.1c0,0,0.1,0,0.1,0c0,0.1,0,0.1,0,0.1c0.1,0,0.1,0,0.1,0.1c0.1,0,0.1,0,0.1,0c0,0,0.1,0,0.1,0c9.7,-0.4,21.7,0.6,23.7,7.7c1.1,3.7,0.4,7.5,-2,10.5c-2.1,2.8,-5.6,4.7,-9.9,5.5c-2,0.3,-4.1,0.5,-6.5,0.5c-0.2,0,-0.3,0.1,-0.4,0.3c0,0.1,0,0.1,0,0.1c0,0.1,0,0.1,0,0.1c0,0,0,0.1,0,0.1l0,0.1c0.1,0,0.1,0,0.1,0c0,0,0,0.1,0.1,0.1c0,0,0.1,0,0.1,0c0,0,0.1,0.1,0.1,0.1c1,0,1.9,0,2.8,0c10.5,0,18.7,-3.6,22.4,-9.9c2.4,-4.1,2.3,-8.7,-0.1,-12.4Z" class="g9_1" />
<path d="M143.9,124.4c-0.3,0,-0.4,-0.1,-0.4,-0.4l0,-23.1c0,-0.2,0.1,-0.4,0.4,-0.4c0.2,0,0.4,0.2,0.4,0.4l0,23.1c0,0.3,-0.2,0.4,-0.4,0.4Z" class="g9_1" />
<path d="M145.5,124.4c-0.2,0,-0.4,-0.1,-0.4,-0.4l0,-23.1c0,-0.2,0.2,-0.4,0.4,-0.4c0.2,0,0.4,0.2,0.4,0.4l0,23.1c0,0.3,-0.2,0.4,-0.4,0.4Z" class="g9_1" />
<path d="M147.1,124.4c-0.2,0,-0.4,-0.1,-0.4,-0.4l0,-23.1c0,-0.2,0.2,-0.4,0.4,-0.4c0.2,0,0.4,0.2,0.4,0.4l0,23.1c0,0.3,-0.2,0.4,-0.4,0.4Z" class="g9_1" />
<path d="M133.6,142.4c2.9,0,4.9,-2.1,4.9,-5c0,-2.9,-2,-5,-4.9,-5l-2.7,0l0,10Zm-4.7,-11.5c0,-0.2,0.2,-0.4,0.4,-0.4l4.5,0c3.8,0,6.9,3.1,6.9,6.9c0,3.8,-3.1,6.9,-6.9,6.9l-4.5,0c-0.2,0,-0.4,-0.2,-0.4,-0.4Z" class="g9_1" />
<path d="M142.3,130.9c0,-0.2,0.2,-0.4,0.4,-0.4l7.9,0c0.2,0,0.4,0.2,0.4,0.4l0,1.1c0,0.2,-0.2,0.4,-0.4,0.4l-6.3,0l0,4l5.3,0c0.2,0,0.4,0.2,0.4,0.4l0,1.1c0,0.2,-0.2,0.3,-0.4,0.3l-5.3,0l0,4.3l6.3,0c0.2,0,0.4,0.2,0.4,0.4l0,1c0,0.2,-0.2,0.4,-0.4,0.4l-7.9,0c-0.2,0,-0.4,-0.2,-0.4,-0.4Z" class="g9_1" />
<path d="M153.3,131c0,-0.3,0.2,-0.5,0.5,-0.5l1.1,0c0.3,0,0.5,0.2,0.5,0.5l0,5.4l5.5,-5.7c0.1,-0.1,0.3,-0.2,0.4,-0.2l1.5,0c0.4,0,0.5,0.4,0.3,0.7l-5.7,5.8l6,6.7c0.2,0.2,0.1,0.6,-0.3,0.6l-1.6,0c-0.2,0,-0.3,-0.1,-0.4,-0.1l-5.7,-6.5l0,6.1c0,0.3,-0.2,0.5,-0.5,0.5l-1.1,0c-0.3,0,-0.5,-0.2,-0.5,-0.5Z" class="g9_1" />
<path d="M165.1,131c0,-0.3,0.2,-0.5,0.5,-0.5l1.2,0c0.2,0,0.4,0.2,0.4,0.5l0,5.4l5.6,-5.7c0.1,-0.1,0.2,-0.2,0.4,-0.2l1.5,0c0.3,0,0.5,0.4,0.2,0.7l-5.7,5.8l6.1,6.7c0.1,0.2,0,0.6,-0.4,0.6l-1.6,0c-0.2,0,-0.3,-0.1,-0.3,-0.1l-5.8,-6.5l0,6.1c0,0.3,-0.2,0.5,-0.4,0.5l-1.2,0c-0.3,0,-0.5,-0.2,-0.5,-0.5Z" class="g9_1" />
<path d="M182.1,142.6c2.8,0,5.2,-2.3,5.2,-5.2c0,-2.8,-2.4,-5.2,-5.2,-5.2c-2.8,0,-5.1,2.4,-5.1,5.2c0,2.9,2.3,5.2,5.1,5.2Zm0,-12.3c4,0,7.1,3.2,7.1,7.1c0,4,-3.1,7.1,-7.1,7.1c-3.9,0,-7.1,-3.1,-7.1,-7.1c0,-3.9,3.2,-7.1,7.1,-7.1Z" class="g9_1" />
<path d="M128,602c0,1,0.2,0.8,0.8,1.5c0.7,0.7,74.1,43.7,75.4,44.3c1.2,0.7,5,0.8,7.7,-0.4c2.7,-1.3,135.2,-65.1,135.2,-65.1c0,0,2.5,-1.3,2.5,-2.4" class="g10_1" />
<path d="M349.5,579.9c0,-1,-0.1,-0.8,-0.8,-1.5C348,577.7,274.6,534.7,273.3,534.1c-1.2,-0.7,-5,-0.8,-7.7,0.4c-0.3,0.2,-2.7,1.3,-6.5,3.1m-54.9,26.5c-35.7,17.2,-73.8,35.5,-73.8,35.5c0,0,-2.5,1.3,-2.5,2.4" class="g8_1" />
<path d="M321.9,594.3c-21.4,-12.5,-47.8,-28,-48.6,-28.4c-1.2,-0.6,-5,-0.8,-7.7,0.5c-0.4,0.1,-2.5,1.1,-7.5,3.6m-45.4,21.9c-19.9,9.6,-40.3,19.3,-56.7,27.2" class="g10_1" />
<path d="M269.5,562.5l0,-6m0,-9l0,-11" class="g8_1" />
<path d="M128,450.9c0,1,0.2,0.8,0.8,1.5c0.7,0.7,74.1,43.7,75.4,44.3c1.2,0.7,5,0.8,7.7,-0.4c2.7,-1.3,135.2,-65,135.2,-65c0,0,2.5,-1.4,2.5,-2.4" class="g8_1" />
<path d="M349.5,428.8c0,-0.9,-0.1,-0.8,-0.8,-1.5C348,426.7,274.6,383.6,273.3,383c-1.2,-0.6,-5,-0.8,-7.7,0.5c-2.7,1.2,-135.2,65,-135.2,65c0,0,-2.5,1.4,-2.5,2.4" class="g10_1" />
<path d="M207.5,525.5l0,-26" class="g8_1" />
<path d="M128,482c0,0.9,0.2,0.8,0.8,1.5c0.7,0.6,74.1,43.7,75.4,44.3c1.2,0.6,5,0.8,7.7,-0.5c2.7,-1.2,135.2,-65,135.2,-65c0,0,2.5,-1.4,2.5,-2.4" class="g10_1" />
<path d="M127,481l0,-31" class="g10_1" />
<path d="M349,459l0,-31" class="g10_1" />
<path d="M220.4,607l36.7,-17.9l0,-27.7l17,-8.3L238.7,521.9l-39.4,67.7l21.1,-10.3Z" class="g8_1" />
<path d="M232.7,518.5l6,3.5" class="g10_1" />
<path d="M193.4,586l5.9,3.5" class="g10_1" />
<path d="M193.4,586l39.3,-67.5" class="g10_1" />
<path d="M214,588l0,-6" class="g10_1" />
<path d="M193.4,586l39.3,-67.5l6,3.4l35.4,31.2l-17,8.3l0,27.7L220.4,607l-6,-3.6l0,-21.1l-15.1,7.2Z" class="g10_1" />
<path d="M214.4,582.3l6,-3" class="g10_1" />
<path d="M270.4,532.4l51.9,-24.7" class="g8_1" />
<path d="M318.5,509.6l-0.3,-11.5" class="g8_1" />
<path d="M318.4,548.1L318.2,540" class="g8_1" />
<path fill-rule="evenodd" d="M317,539.5c0.6,-1,1.7,-1.6,2.3,-1.2c0.7,0.4,0.7,1.5,0.1,2.5c-0.6,1,-1.7,1.6,-2.3,1.2c-0.7,-0.4,-0.7,-1.5,-0.1,-2.5Z" class="g6_1" />
<path fill-rule="evenodd" d="M317.3,508.9c0.6,-1,1.6,-1.5,2.3,-1.2c0.6,0.4,0.7,1.5,0.1,2.5c-0.7,1.1,-1.7,1.6,-2.4,1.2c-0.6,-0.3,-0.7,-1.5,0,-2.5Z" class="g6_1" />
<path d="M301.1,548l21,-9.9" class="g8_1" />
<path d="M208.5,650.6L226,660.9l2.1,1.2" class="g8_1" />
<path fill-rule="evenodd" d="M224.9,658.3c1.1,0.2,1.8,1,1.4,1.8c-0.3,0.7,-1.5,1.1,-2.6,0.8c-1.1,-0.2,-1.8,-1,-1.4,-1.7c0.3,-0.8,1.5,-1.2,2.6,-0.9Z" class="g6_1" />
<path fill-rule="evenodd" d="M369.1,589.9c1.2,0.2,1.8,1,1.4,1.8c-0.3,0.7,-1.5,1.1,-2.6,0.8c-1.1,-0.2,-1.7,-1,-1.4,-1.7c0.3,-0.8,1.5,-1.2,2.6,-0.9Z" class="g6_1" />
<path d="M224.2,659.6l58.1,-27.3m26.6,-13l59.6,-28.1" class="g8_1" />
<path d="M351.4,580.8l17.1,10.4l2.1,1.2" class="g8_1" />
<path d="M185.4,659.6L153.3,640.1m-12.8,-7.5L106,612.3" class="g8_1" />
<path fill-rule="evenodd" d="M106.6,610.9c1.1,0.3,1.7,1.1,1.4,1.8c-0.3,0.7,-1.5,1.2,-2.6,0.9c-1.1,-0.2,-1.8,-1,-1.4,-1.7c0.3,-0.8,1.5,-1.2,2.6,-1Z" class="g6_1" />
<path d="M125.5,603.2L106,612.3l-2.2,1.1" class="g8_1" />
<path fill-rule="evenodd" d="M186,658.2c1.1,0.3,1.7,1.1,1.4,1.8c-0.3,0.8,-1.5,1.1,-2.6,0.9c-1.1,-0.3,-1.8,-1.1,-1.4,-1.8c0.3,-0.7,1.5,-1.1,2.6,-0.9Z" class="g6_1" />
<path d="M204.9,650.5l-19.5,9.1l-2.2,1.1" class="g8_1" />
<path d="M544.7,611.2c0,1,0.2,0.8,0.9,1.5c0.7,0.7,74.1,43.7,75.3,44.4c1.3,0.6,5.1,0.8,7.8,-0.5c2.7,-1.3,135.1,-65,135.1,-65c0,0,2.5,-1.4,2.5,-2.4" class="g10_1" />
<path d="M563.1,601.2c-9.7,4.6,-15.9,7.6,-15.9,7.6c0,0,-2.5,1.4,-2.5,2.4" class="g8_1" />
<path d="M766.3,589.1c0,-0.9,-0.2,-0.8,-0.9,-1.4c-0.7,-0.7,-74,-43.8,-75.3,-44.4c-1.3,-0.6,-5,-0.8,-7.7,0.5c-0.5,0.2,-4.9,2.3,-11.7,5.6m-35.6,17.1c-20.6,9.9,-43.9,21.1,-61.4,29.5" class="g8_1" />
<path d="M686.5,571.5l0,-27" class="g8_1" />
<path d="M739,603.4C717.6,590.8,690.8,575.1,690.1,574.8c-1.3,-0.7,-5.1,-0.8,-7.7,0.4c-0.3,0.2,-1.9,0.9,-4.5,2.2m-48.8,23.3C612.9,608.5,595.2,617.1,581,624" class="g10_1" />
<path d="M539,459.1c0,1,0.5,2.3,1.3,2.9c0.8,0.6,75.5,43.5,78.1,45c2.7,1.6,8.9,1.8,11.6,0.5c2.7,-1.2,138.5,-65.3,139.7,-66c1.1,-0.7,2.7,-2.3,2.7,-3.7" class="g8_1" />
<path d="M701.8,396c-5.4,-3,-8.9,-5,-9.3,-5.3c-2.1,-1.4,-8.1,-1.7,-10.8,-0.5c-2.7,1.3,-138.8,65,-140.2,65.6c-1.3,0.7,-2.5,2.3,-2.5,3.3" class="g10_1" />
<path d="M772.4,437.8c0,-1,-0.4,-1.9,-2.3,-3.2c-0.8,-0.5,-14.4,-8.2,-29.9,-16.9" class="g10_1" />
<path d="M539,462.5c0,0.9,0.5,2.2,1.3,2.8c0.8,0.6,75.5,43.5,78.1,45c2.7,1.6,8.9,1.8,11.6,0.6c2.7,-1.3,138.5,-65.3,139.7,-66c1.1,-0.7,2.7,-2.4,2.7,-3.8" class="g10_1" />
<path d="M538,462l0,-3" class="g10_1" />
<path d="M772,441l0,-4" class="g10_1" />
<path d="M651.1,502.6l0,33c0,0,-0.1,1.8,1,2.9c1.2,1.2,2,1.2,2,1.2c0,0,1.4,0.7,3.1,-0.1c1.6,-0.9,64,-30.7,64,-30.7c0,0,3.2,-1.1,3.2,-6.5c0,-5.3,0,-31.5,0,-31.5c0,0,0.1,-4.6,3.9,-6.4" class="g10_1" />
<path d="M648.8,502c1.1,-0.5,2.7,-0.5,3.6,0.4" class="g10_1" />
<path d="M652.4,502.4c0.8,1,0.8,1.5,0.8,3.1" class="g8_1" />
<path d="M653.2,505.5l0,31.2c0,0,-0.8,3.2,3,3.2" class="g8_1" />
<path d="M666.2,528.9l0,-3.5l17.4,-8.2" class="g10_1" />
<path d="M666.2,528.9l17.4,-8.1l0,-3.6l0,3.6L682.1,520" class="g8_1" />
<path d="M682.1,517.9l0,2.1l-15.9,7.3" class="g10_1" />
<path d="M666.2,522.4l0,-3.5l17.4,-8.2" class="g10_1" />
<path d="M666.2,522.4l17.4,-8.1l0,-3.6l0,3.6l-1.5,-0.8" class="g8_1" />
<path d="M682.1,511.4l0,2.1l-15.9,7.3" class="g10_1" />
<path d="M666.2,515.6l0,-3.5l17.4,-8.2" class="g10_1" />
<path d="M666.2,515.6l17.4,-8l0,-3.7l0,3.7l-1.5,-0.8" class="g8_1" />
<path d="M682.1,504.7l0,2.1l-15.9,7.3" class="g10_1" />
<path d="M666.2,509l0,-3.5l17.4,-8.2" class="g10_1" />
<path d="M666.2,509l17.4,-8l0,-3.7l0,3.7l-1.5,-0.9" class="g8_1" />
<path d="M682.1,498l0,2.1l-15.9,7.3" class="g10_1" />
<path d="M666.2,502.4l0,-3.5l17.4,-8.2" class="g10_1" />
<path d="M666.2,502.4l17.4,-8.1l0,-3.6l0,3.6l-1.5,-0.8" class="g8_1" />
<path d="M682.1,491.4l0,2.1l-15.9,7.3" class="g10_1" />
<path d="M694.1,485.6l0,-3.5l17.4,-8.2" class="g10_1" />
<path d="M694.1,485.6l17.4,-8l0,-3.7l0,3.7l-1.6,-0.9" class="g8_1" />
<path d="M709.9,474.6l0,2.1L694.1,484" class="g10_1" />
<path d="M694.1,492.5l0,-3.5l17.4,-8.2" class="g10_1" />
<path d="M694.1,492.5l17.4,-8l0,-3.7l0,3.7l-1.6,-0.9" class="g8_1" />
<path d="M709.9,481.5l0,2.1l-15.8,7.3" class="g10_1" />
<path d="M694.1,499.2l0,-3.5l17.4,-8.2" class="g10_1" />
<path d="M694.1,499.2l17.4,-8l0,-3.7l0,3.7l-1.6,-0.8" class="g8_1" />
<path d="M709.9,488.3l0,2.1l-15.8,7.3" class="g10_1" />
<path d="M694.1,505.8l0,-3.5l17.4,-8.2" class="g10_1" />
<path d="M694.1,505.8l17.4,-8l0,-3.7l0,3.7l-1.6,-0.9" class="g8_1" />
<path d="M709.9,494.8l0,2.1l-15.8,7.3" class="g10_1" />
<path d="M694.1,512.6l0,-3.5l17.4,-8.2" class="g10_1" />
<path d="M694.1,512.6l17.4,-8l0,-3.7l0,3.7l-1.6,-0.9" class="g8_1" />
<path d="M709.9,501.6l0,2.1L694.1,511" class="g10_1" />
<path d="M562.1,477.9l12.8,33.5c0,0,1.4,1.3,2.7,1c1.3,-0.3,31.7,-7.3,31.7,-7.3" class="g10_1" />
<path d="M628.1,551.7c0,1.1,-1.4,2,-3.2,2c-1.8,0,-3.2,-0.9,-3.2,-2c0,-1.1,0,-40.4,0,-40.4" class="g10_1" />
<path d="M628,551l0,-40" class="g10_1" />
<path d="M628.1,549.7c0,1.1,-1.4,2,-3.2,2c-1.8,0,-3.2,-0.9,-3.2,-2" class="g8_1" />
<path d="M628.1,548.4c0,1.1,-1.4,2,-3.2,2c-1.8,0,-3.2,-0.9,-3.2,-2" class="g8_1" />
<path d="M628.1,547.1c0,1.1,-1.4,2,-3.2,2c-1.8,0,-3.2,-0.9,-3.2,-2" class="g8_1" />
<path d="M628.1,545.7c0,1.1,-1.4,2,-3.2,2c-1.8,0,-3.2,-0.9,-3.2,-2" class="g8_1" />
<path d="M628.1,544.3c0,1.1,-1.4,2,-3.2,2c-1.8,0,-3.2,-0.9,-3.2,-2" class="g8_1" />
<path d="M628.1,542.9c0,1.1,-1.4,2,-3.2,2c-1.8,0,-3.2,-0.9,-3.2,-2" class="g8_1" />
<path d="M628.1,541.6c0,1.1,-1.4,2,-3.2,2c-1.8,0,-3.2,-0.9,-3.2,-2" class="g8_1" />
<path d="M628.1,540.3c0,1.1,-1.4,2,-3.2,2c-1.8,0,-3.2,-0.9,-3.2,-2" class="g8_1" />
<path d="M628.1,538.8c0,1.1,-1.4,2,-3.2,2c-1.8,0,-3.2,-0.9,-3.2,-2" class="g8_1" />
<path d="M628.1,537.5c0,1.1,-1.4,2,-3.2,2c-1.8,0,-3.2,-0.9,-3.2,-2" class="g8_1" />
<path d="M628.1,536.2c0,1.1,-1.4,2,-3.2,2c-1.8,0,-3.2,-0.9,-3.2,-2" class="g8_1" />
<path d="M628.1,534.8c0,1.1,-1.4,2,-3.2,2c-1.8,0,-3.2,-0.9,-3.2,-2" class="g8_1" />
<path d="M628.1,533.4c0,1.1,-1.4,2,-3.2,2c-1.8,0,-3.2,-0.9,-3.2,-2" class="g8_1" />
<path d="M628.1,532c0,1.1,-1.4,2,-3.2,2c-1.8,0,-3.2,-0.9,-3.2,-2" class="g8_1" />
<path d="M628.1,530.7c0,1.1,-1.4,2,-3.2,2c-1.8,0,-3.2,-0.9,-3.2,-2" class="g8_1" />
<path d="M628.1,529.4c0,1.1,-1.4,2,-3.2,2c-1.8,0,-3.2,-0.9,-3.2,-2" class="g8_1" />
<path d="M628.1,528c0,1.1,-1.4,2,-3.2,2c-1.8,0,-3.2,-0.9,-3.2,-2" class="g8_1" />
<path d="M628.1,526.6c0,1.1,-1.4,2,-3.2,2c-1.8,0,-3.2,-0.9,-3.2,-2" class="g8_1" />
<path d="M628.1,525.3c0,1.1,-1.4,2,-3.2,2c-1.8,0,-3.2,-0.9,-3.2,-2" class="g8_1" />
<path d="M628.1,523.9c0,1.1,-1.4,2,-3.2,2c-1.8,0,-3.2,-0.9,-3.2,-2" class="g8_1" />
<path d="M628.1,522.5c0,1.1,-1.4,2,-3.2,2c-1.8,0,-3.2,-0.9,-3.2,-2" class="g8_1" />
<path d="M628.1,521.2c0,1.1,-1.4,2,-3.2,2c-1.8,0,-3.2,-0.9,-3.2,-2" class="g8_1" />
<path d="M628.1,519.9c0,1.1,-1.4,2,-3.2,2c-1.8,0,-3.2,-0.9,-3.2,-2" class="g8_1" />
<path d="M628.1,518.5c0,1.1,-1.4,2,-3.2,2c-1.8,0,-3.2,-0.9,-3.2,-2" class="g8_1" />
<path d="M628.1,517.1c0,1.1,-1.4,2,-3.2,2c-1.8,0,-3.2,-0.9,-3.2,-2" class="g8_1" />
<path d="M628.1,515.7c0,1.1,-1.4,2,-3.2,2c-1.8,0,-3.2,-0.9,-3.2,-2" class="g8_1" />
<path d="M628.1,514.4c0,1.1,-1.4,2,-3.2,2c-1.8,0,-3.2,-0.9,-3.2,-2" class="g8_1" />
<path d="M628.1,513c0,1.1,-1.4,2,-3.2,2c-1.8,0,-3.2,-0.9,-3.2,-2" class="g8_1" />
<path d="M628.1,511.6c0,1.1,-1.4,2,-3.2,2c-1.8,0,-3.2,-0.9,-3.2,-2" class="g8_1" />
<path d="M763.9,487.4c0,1.1,-1.4,2,-3.2,2c-1.7,0,-3.2,-0.9,-3.2,-2c0,-1.1,0,-36.8,0,-36.8" class="g10_1" />
<path d="M763,487l0,-40" class="g10_1" />
<path d="M763.9,485.4c0,1.1,-1.4,2,-3.2,2c-1.7,0,-3.2,-0.9,-3.2,-2" class="g8_1" />
<path d="M763.9,484c0,1.1,-1.4,2,-3.2,2c-1.7,0,-3.2,-0.9,-3.2,-2" class="g8_1" />
<path d="M763.9,482.7c0,1.1,-1.4,2,-3.2,2c-1.7,0,-3.2,-0.9,-3.2,-2" class="g8_1" />
<path d="M763.9,481.4c0,1.1,-1.4,2,-3.2,2c-1.7,0,-3.2,-0.9,-3.2,-2" class="g8_1" />
<path d="M763.9,480c0,1.1,-1.4,2,-3.2,2c-1.7,0,-3.2,-0.9,-3.2,-2" class="g8_1" />
<path d="M763.9,478.6c0,1.1,-1.4,2,-3.2,2c-1.7,0,-3.2,-0.9,-3.2,-2" class="g8_1" />
<path d="M763.9,477.3c0,1.1,-1.4,2,-3.2,2c-1.7,0,-3.2,-0.9,-3.2,-2" class="g8_1" />
<path d="M763.9,475.9c0,1.1,-1.4,2,-3.2,2c-1.7,0,-3.2,-0.9,-3.2,-2" class="g8_1" />
<path d="M763.9,474.5c0,1.1,-1.4,2,-3.2,2c-1.7,0,-3.2,-0.9,-3.2,-2" class="g8_1" />
<path d="M763.9,473.1c0,1.1,-1.4,2,-3.2,2c-1.7,0,-3.2,-0.9,-3.2,-2" class="g8_1" />
<path d="M763.9,471.8c0,1.1,-1.4,2,-3.2,2c-1.7,0,-3.2,-0.9,-3.2,-2" class="g8_1" />
<path d="M763.9,470.5c0,1.1,-1.4,2,-3.2,2c-1.7,0,-3.2,-0.9,-3.2,-2" class="g8_1" />
<path d="M763.9,469.1c0,1.1,-1.4,2,-3.2,2c-1.7,0,-3.2,-0.9,-3.2,-2" class="g8_1" />
<path d="M763.9,467.7c0,1.1,-1.4,2,-3.2,2c-1.7,0,-3.2,-0.9,-3.2,-2" class="g8_1" />
<path d="M763.9,466.4c0,1.1,-1.4,2,-3.2,2c-1.7,0,-3.2,-0.9,-3.2,-2" class="g8_1" />
<path d="M763.9,465c0,1.1,-1.4,2,-3.2,2c-1.7,0,-3.2,-0.9,-3.2,-2" class="g8_1" />
<path d="M763.9,463.6c0,1.1,-1.4,2,-3.2,2c-1.7,0,-3.2,-0.9,-3.2,-2" class="g8_1" />
<path d="M763.9,462.3c0,1.1,-1.4,2,-3.2,2c-1.7,0,-3.2,-0.9,-3.2,-2" class="g8_1" />
<path d="M763.9,461c0,1.1,-1.4,2,-3.2,2c-1.7,0,-3.2,-0.9,-3.2,-2" class="g8_1" />
<path d="M763.9,459.6c0,1.1,-1.4,2,-3.2,2c-1.7,0,-3.2,-0.9,-3.2,-2" class="g8_1" />
<path d="M763.9,458.2c0,1.1,-1.4,2,-3.2,2c-1.7,0,-3.2,-0.9,-3.2,-2" class="g8_1" />
<path d="M763.9,456.8c0,1.1,-1.4,2,-3.2,2c-1.7,0,-3.2,-0.9,-3.2,-2" class="g8_1" />
<path d="M763.9,455.5c0,1.1,-1.4,2,-3.2,2c-1.7,0,-3.2,-0.9,-3.2,-2" class="g8_1" />
<path d="M763.9,454.2c0,1.1,-1.4,2,-3.2,2c-1.7,0,-3.2,-0.9,-3.2,-2" class="g8_1" />
<path d="M763.9,452.7c0,1.1,-1.4,2,-3.2,2c-1.7,0,-3.2,-0.9,-3.2,-2" class="g8_1" />
<path d="M763.9,451.4c0,1.1,-1.4,2,-3.2,2c-1.7,0,-3.2,-0.9,-3.2,-2" class="g8_1" />
<path d="M763.9,450.1c0,1.1,-1.4,2,-3.2,2c-1.7,0,-3.2,-0.9,-3.2,-2" class="g8_1" />
<path d="M763.9,448.7c0,1.1,-1.4,2,-3.2,2c-0.8,0,-1.6,-0.2,-2.1,-0.5" class="g8_1" />
<path d="M763.9,447.3c0,1.1,-1.4,2,-3.2,2" class="g8_1" />
<path d="M553.8,508.9c0,1.1,-1.5,2,-3.2,2c-1.8,0,-3.2,-0.9,-3.2,-2c0,-1.1,0,-39.2,0,-39.2" class="g10_1" />
<path d="M553,508l0,-35" class="g10_1" />
<path d="M553.8,506.9c0,1.1,-1.5,2,-3.2,2c-1.8,0,-3.2,-0.9,-3.2,-2" class="g8_1" />
<path d="M553.8,505.6c0,1.1,-1.5,2,-3.2,2c-1.8,0,-3.2,-0.9,-3.2,-2" class="g8_1" />
<path d="M553.8,504.3c0,1.1,-1.5,2,-3.2,2c-1.8,0,-3.2,-0.9,-3.2,-2" class="g8_1" />
<path d="M553.8,502.9c0,1.1,-1.5,2,-3.2,2c-1.8,0,-3.2,-0.9,-3.2,-2" class="g8_1" />
<path d="M553.8,501.5c0,1.1,-1.5,2,-3.2,2c-1.8,0,-3.2,-0.9,-3.2,-2" class="g8_1" />
<path d="M553.8,500.1c0,1.1,-1.5,2,-3.2,2c-1.8,0,-3.2,-0.9,-3.2,-2" class="g8_1" />
<path d="M553.8,498.8c0,1.1,-1.5,2,-3.2,2c-1.8,0,-3.2,-0.9,-3.2,-2" class="g8_1" />
<path d="M553.8,497.5c0,1.1,-1.5,2,-3.2,2c-1.8,0,-3.2,-0.9,-3.2,-2" class="g8_1" />
<path d="M553.8,496c0,1.1,-1.5,2,-3.2,2c-1.8,0,-3.2,-0.9,-3.2,-2" class="g8_1" />
<path d="M553.8,494.7c0,1.1,-1.5,2,-3.2,2c-1.8,0,-3.2,-0.9,-3.2,-2" class="g8_1" />
<path d="M553.8,493.4c0,1.1,-1.5,2,-3.2,2c-1.8,0,-3.2,-0.9,-3.2,-2" class="g8_1" />
<path d="M553.8,492c0,1.1,-1.5,2,-3.2,2c-1.8,0,-3.2,-0.9,-3.2,-2" class="g8_1" />
<path d="M553.8,490.6c0,1.1,-1.5,2,-3.2,2c-1.8,0,-3.2,-0.9,-3.2,-2" class="g8_1" />
<path d="M553.8,489.2c0,1.1,-1.5,2,-3.2,2c-1.8,0,-3.2,-0.9,-3.2,-2" class="g8_1" />
<path d="M553.8,487.9c0,1.1,-1.5,2,-3.2,2c-1.8,0,-3.2,-0.9,-3.2,-2" class="g8_1" />
<path d="M553.8,486.6c0,1.1,-1.5,2,-3.2,2c-1.8,0,-3.2,-0.9,-3.2,-2" class="g8_1" />
<path d="M553.8,485.2c0,1.1,-1.5,2,-3.2,2c-1.8,0,-3.2,-0.9,-3.2,-2" class="g8_1" />
<path d="M553.8,483.8c0,1.1,-1.5,2,-3.2,2c-1.8,0,-3.2,-0.9,-3.2,-2" class="g8_1" />
<path d="M553.8,482.5c0,1.1,-1.5,2,-3.2,2c-1.8,0,-3.2,-0.9,-3.2,-2" class="g8_1" />
<path d="M553.8,481.1c0,1.1,-1.5,2,-3.2,2c-1.8,0,-3.2,-0.9,-3.2,-2" class="g8_1" />
<path d="M553.8,479.7c0,1.1,-1.5,2,-3.2,2c-1.8,0,-3.2,-0.9,-3.2,-2" class="g8_1" />
<path d="M553.8,478.4c0,1.1,-1.5,2,-3.2,2c-1.8,0,-3.2,-0.9,-3.2,-2" class="g8_1" />
<path d="M553.8,477.1c0,1.1,-1.5,2,-3.2,2c-1.8,0,-3.2,-0.9,-3.2,-2" class="g8_1" />
<path d="M553.8,475.7c0,1.1,-1.5,2,-3.2,2c-1.8,0,-3.2,-0.9,-3.2,-2" class="g8_1" />
<path d="M553.8,474.2c0,1.2,-1.5,2.1,-3.2,2.1c-1.8,0,-3.2,-0.9,-3.2,-2.1" class="g8_1" />
<path d="M553.8,472.9c0,1.1,-1.5,2,-3.2,2c-1.8,0,-3.2,-0.9,-3.2,-2" class="g8_1" />
<path d="M553.1,472.8c-0.5,0.5,-1.5,0.8,-2.5,0.8c-1.8,0,-3.2,-0.9,-3.2,-2" class="g8_1" />
<path d="M551.9,472c-0.4,0.2,-0.9,0.2,-1.3,0.2c-1.8,0,-3.2,-0.9,-3.2,-2" class="g8_1" />
<path d="M547,502.2c-17.7,14.6,-28.7,40.5,-6.9,65.6c29.4,34,29.4,50.6,29.4,59.1" class="g10_1" />
<path d="M567.3,491.6c-4.3,1.1,-8.8,3,-13.1,5.6" class="g10_1" />
<path d="M570.2,502.3c-15.7,4,-29.4,15.8,-30.6,31.7c-1,14.2,5.6,22.8,17,36.7c27.9,33.8,23.7,54.1,23.7,62.6" class="g10_1" />
<path d="M559.6,458.6L684.7,400.7" class="g8_1" />
<path d="M556.8,459.2c0.6,0.5,2.4,0.6,3.4,0.4c1,-0.2,38.5,-8.8,38.5,-8.8c0,0,8,-2.2,13.7,-4.9c5.8,-2.6,114.1,-53.6,114.1,-53.6c0,0,3.8,-1.8,3.4,-2.4" class="g8_1" />
<path d="M563,462.6c6.3,-1.4,37.5,-8.6,37.5,-8.6c0,0,8,-2.2,13.7,-4.8c5.7,-2.7,114.1,-53.7,114.1,-53.7c0,0,3.8,-1.7,3.3,-2.4" class="g8_1" />
<path d="M749.3,436.9c-0.3,-1.2,-1.2,-2.6,-3.5,-4" class="g8_1" />
<path d="M748.1,440.4c0.8,-0.9,1.4,-2.1,1.2,-3.5" class="g10_1" />
<path d="M556.8,459.2l61.4,35.6c0,0,7.9,3.9,14.1,0.8c6.2,-3.2,112.5,-53.4,114.1,-54c0.4,-0.1,1.1,-0.6,1.7,-1.2" class="g8_1" />
<path d="M748,439.2L730.9,394.1" class="g10_1" />
<path d="M730.9,394.1c0.4,-0.3,0.6,-1.1,0.4,-1.6c-0.3,-0.5,-1,-2.3,-1,-2.3c0,0,-0.6,-0.7,-1.7,-0.4c-1,0.3,-40,9.3,-40,9.3c0,0,-2,0.6,-2.7,-0.1" class="g10_1" />
<path d="M749,438.3c-0.4,-0.8,-1.1,-1.6,-2.2,-2.4" class="g10_1" />
<path d="M606.3,449.5l0.6,1.4" class="g8_1" />
<path d="M607.6,452.8l16.9,42.4" class="g8_1" />
<path d="M643.4,458.6l-1.8,-4.1l9.1,-4.9" class="g10_1" />
<path d="M643.1,456.8l5.7,-3.1l-0.9,-2.1" class="g10_1" />
<path d="M650.7,449.6l2.1,4.5l-9.2,4.7" class="g8_1" />
<path d="M649.3,450.3L651,454l-7.9,4.1" class="g8_1" />
<path d="M651,454l1.7,0.2" class="g8_1" />
<path d="M649.9,472.8L648,468.7l7.8,-4.2" class="g10_1" />
<path d="M649.5,471.1l4.4,-2.5L653,466.5" class="g10_1" />
<path d="M655.8,464.5L658,469l-8,4.1" class="g8_1" />
<path d="M654.4,465.2l1.8,3.7l-6.7,3.4" class="g8_1" />
<path d="M656.2,468.9l1.6,0.2" class="g8_1" />
<path d="M637.4,472.2l-3.2,-7.7l3.1,-2.1c0,0,0.8,-0.4,1.7,-0.2" class="g10_1" />
<path d="M637.9,472.2l3.2,-1.8c0,0,2.4,-1.6,1.5,-5c-1,-3.4,-3.6,-3.2,-3.6,-3.2" class="g8_1" />
<path d="M636.7,470.5c2,-1.1,3.1,-2.7,2.5,-4.6c-0.5,-1.9,-2.3,-2.2,-3.9,-2.2" class="g10_1" />
<path d="M637.1,470.9L634.6,465l2.4,-1.6c0,0,0.6,-0.3,1.2,-0.1" class="g10_1" />
<path d="M637.4,470.9l2.4,-1.4c0,0,1.9,-1.2,1.2,-3.8c-0.7,-2.6,-2.8,-2.4,-2.8,-2.4" class="g8_1" />
<path d="M671.2,445.1L669.4,441l9,-4.9" class="g10_1" />
<path d="M670.9,443.4l5.7,-3.2l-1,-2.1" class="g10_1" />
<path d="M678.4,436.1l2.2,4.5l-9.2,4.8" class="g8_1" />
<path d="M677.1,436.9l1.7,3.6l-7.9,4.1" class="g8_1" />
<path d="M678.8,440.5l1.7,0.2" class="g8_1" />
<path d="M677.6,459.3l-1.8,-4l7.8,-4.3" class="g10_1" />
<path d="M677.3,457.6l4.4,-2.5L680.8,453" class="g10_1" />
<path d="M683.6,451l2.1,4.5l-7.9,4.1" class="g8_1" />
<path d="M682.2,451.8l1.8,3.6l-6.7,3.5" class="g8_1" />
<path d="M684,455.4l1.6,0.2" class="g8_1" />
<path d="M665.2,458.7L662,451l3.1,-2.1c0,0,0.8,-0.3,1.6,-0.1" class="g10_1" />
<path d="M665.7,458.8l3.1,-1.9c0,0,2.5,-1.5,1.6,-5c-1,-3.4,-3.7,-3.1,-3.7,-3.1" class="g8_1" />
<path d="M664.5,457c2,-1,3.1,-2.7,2.5,-4.6c-0.6,-1.8,-2.4,-2.2,-3.9,-2.1" class="g10_1" />
<path d="M664.9,457.4l-2.5,-5.9l2.4,-1.6c0,0,0.6,-0.2,1.2,-0.1" class="g10_1" />
<path d="M665.2,457.4l2.4,-1.3c0,0,1.9,-1.2,1.2,-3.9c-0.7,-2.6,-2.8,-2.4,-2.8,-2.4" class="g8_1" />
<path d="M710.5,423.1L699,428.9l3.2,6.3" class="g10_1" />
<path d="M702.2,435.2l11.1,-5.5l-2.8,-6.6" class="g8_1" />
<path d="M701.6,433.3l3.6,-2l0.1,-1.6" class="g10_1" />
<path d="M700.9,431.7l8.3,-4.1l-0.6,-1.5l-8.5,4.4" class="g8_1" />
<path d="M713.1,429.6l-7.3,1.4" class="g8_1" />
<path d="M705.3,429.5l3.9,-1.9l-0.6,-1.5l-1.8,0l-6.7,3.4" class="g10_1" />
<path d="M714.5,432.9L703,438.6l3.2,6.4" class="g10_1" />
<path d="M706.2,445l11.1,-5.6l-2.8,-6.5" class="g8_1" />
<path d="M705.6,443l3.6,-2l0.1,-1.5" class="g10_1" />
<path d="M704.9,441.4l8.3,-4.1l-0.6,-1.5l-8.5,4.4" class="g8_1" />
<path d="M717,439.3l-7.2,1.5" class="g8_1" />
<path d="M709.3,439.2l3.9,-1.9l-0.6,-1.5l-1.9,0l-6.6,3.4" class="g10_1" />
<path d="M625,592.5l16.1,-7.8l0,-21.3l28.1,-13.7l0,21.3l13,-6.4" class="g8_1" />
<path d="M625,592.5l30.1,27.9l27.1,-55.8" class="g8_1" />
<path d="M641.1,584.7l-4.8,-2.8" class="g8_1" />
<path d="M641.1,563.4l-4.8,-2.7" class="g8_1" />
<path d="M669.2,549.7L664.4,547" class="g8_1" />
<path d="M682.2,564.6l-4.8,-2.7" class="g8_1" />
<path d="M625,592.5l-4.8,-2.7" class="g8_1" />
<path d="M655.1,620.4l-4.7,-2.7" class="g8_1" />
<path d="M677.4,561.9l-8,3.9m-49.2,24l16.3,-7.9l0,-21.2L664.4,547" class="g8_1" />
<path d="M620.2,589.8l30.2,27.9" class="g8_1" />
<path d="M655.1,620.4l27.1,-55.8l-4.8,-2.7l-8.2,4l0,5.1l0,-21.3L664.4,547l-28.1,13.7l0.2,21.2l-16.3,7.9l30.2,27.9Z" class="g10_1" />
<path fill-rule="evenodd" d="M172.1,925.7c41.6,0,75.3,13.8,75.3,30.9c0,17.1,-33.7,30.9,-75.3,30.9c-41.5,0,-75.2,-13.8,-75.2,-30.9c0,-17.1,33.7,-30.9,75.2,-30.9Zm0,6c37.1,0,67.1,11.2,67.1,24.9c0,13.7,-30,24.9,-67.1,24.9c-37,0,-67.1,-11.2,-67.1,-24.9c0,-13.7,30.1,-24.9,67.1,-24.9Z" class="g11_1" />
<path fill-rule="evenodd" d="M172.1,933.7c41.6,0,75.3,13.9,75.3,31c0,17,-33.7,30.9,-75.3,30.9c-41.5,0,-75.2,-13.9,-75.2,-30.9c0,-17.1,33.7,-31,75.2,-31Zm0,6.1c37.1,0,67.1,11.1,67.1,24.9c0,13.7,-30,24.8,-67.1,24.8c-37,0,-67.1,-11.1,-67.1,-24.8c0,-13.8,30.1,-24.9,67.1,-24.9Z" class="g11_1" />
<path fill-rule="evenodd" d="M172.1,942c41.6,0,75.3,13.8,75.3,30.9c0,17.1,-33.7,30.9,-75.3,30.9c-41.5,0,-75.2,-13.8,-75.2,-30.9c0,-17.1,33.7,-30.9,75.2,-30.9Zm0,6c37.1,0,67.1,11.2,67.1,24.9c0,13.7,-30,24.8,-67.1,24.8c-37,0,-67.1,-11.1,-67.1,-24.8C105,959.2,135.1,948,172.1,948Z" class="g11_1" />
<path fill-rule="evenodd" d="M172.1,950.5c41.6,0,75.3,13.9,75.3,31c0,17,-33.7,30.9,-75.3,30.9c-41.5,0,-75.2,-13.9,-75.2,-30.9c0,-17.1,33.7,-31,75.2,-31Zm0,6.1c37.1,0,67.1,11.1,67.1,24.9c0,13.7,-30,24.8,-67.1,24.8c-37,0,-67.1,-11.1,-67.1,-24.8c0,-13.8,30.1,-24.9,67.1,-24.9Z" class="g11_1" />
<path d="M202.3,920.3c22.1,4.1,43.7,-15.4,28.6,-38.9" class="g10_1" />
<path d="M202.7,926.5c27.8,5.9,50.9,-23.8,36.3,-46" class="g10_1" />
<path d="M110.3,939c10.2,-9,34.1,-15.2,61.8,-15.2c10.9,0,21.2,1,30.3,2.7" class="g10_1" />
<path d="M97.4,952.4c-0.3,-1.2,-0.5,-2.5,-0.5,-3.7c0,-17.1,33.7,-31,75.2,-31c11.1,0,21.6,1,31,2.8" class="g10_1" />
<path d="M310.6,1031.1c0.5,0.2,1.1,-0.2,1.4,-0.9c0.3,-0.8,0.1,-1.5,-0.4,-1.7" class="g10_1" />
<path d="M311.6,1028.5c-0.5,-0.2,-1.1,0.2,-1.4,0.9c-0.3,0.8,-0.1,1.5,0.4,1.7" class="g8_1" />
<path d="M312,1029c-0.3,0.1,-0.6,0.4,-0.8,0.9c-0.2,0.4,-0.2,0.9,0,1.2" class="g8_1" />
<path d="M312.5,1026.3c0.9,0.6,1,1.1,1.1,1.8c0.1,0.6,0,2.2,-0.5,2.7c-0.4,0.4,-9,6.9,-9,6.9l-0.6,-4.7" class="g8_1" />
<path d="M305.3,1038.2l8.9,-6.9c0,0,0.7,-1.3,0.5,-2.9c-0.2,-1.7,-1.1,-2,-1.6,-2.1c-0.5,-0.1,-0.6,-0.1,-0.6,-0.1l-9,6.8" class="g10_1" />
<path d="M304.1,1037.7l1.2,0.5" class="g8_1" />
<path d="M313.1,1030.8l1.2,0.5" class="g8_1" />
<path d="M319.5,1034.9c0.5,0.2,1.1,-0.2,1.4,-0.9c0.3,-0.7,0.1,-1.5,-0.4,-1.7" class="g10_1" />
<path d="M320.5,1032.3c-0.5,-0.2,-1.1,0.3,-1.4,1c-0.3,0.7,-0.1,1.4,0.4,1.6" class="g8_1" />
<path d="M320.9,1032.8c-0.3,0.1,-0.6,0.5,-0.8,0.9c-0.2,0.5,-0.2,0.9,0,1.2" class="g8_1" />
<path d="M321.4,1030.1c0.9,0.6,1,1.2,1.1,1.8c0.1,0.6,0,2.2,-0.5,2.7c-0.4,0.5,-9,6.9,-9,6.9l-0.6,-4.7" class="g8_1" />
<path d="M322.9,1035.4l0.2,-0.2c0,0,0.7,-1.3,0.5,-3c-0.2,-1.6,-1.1,-2,-1.6,-2.1c-0.5,-0.1,-0.6,-0.1,-0.6,-0.1l-9,6.8" class="g10_1" />
<path d="M322,1034.6l1.2,0.5" class="g8_1" />
<path d="M317.9,1043.1l0.5,3.7l-4,3.2" class="g10_1" />
<path d="M314.5,1046.7l-0.1,7.2L301.3,1064c0,0,-1.2,1.1,-3,1.1c-1.9,0,-3,0.1,-4.1,-0.9c-1.1,-0.9,-8.3,-7.4,-8.3,-7.4" class="g10_1" />
<path d="M314.4,1053.9l-6.9,-3l-2.4,-8.4l-4.4,-3.3l-1,-7.4l1,7.4L288,1049c0,0,-3.4,2.5,-3.1,4.8" class="g8_1" />
<path d="M305.1,1042.5l-13.3,10.4c0,0,-2.7,1.9,-6.5,2.8" class="g8_1" />
<path d="M305.3,1031.6l-0.7,-0.3l-4.9,0.5L286.5,1042c0,0,-3.1,2.4,-2.7,5.1c0.3,2.7,1,7.6,1,7.6c0,0,0.2,1.1,1.1,2.1" class="g10_1" />
<path d="M313.4,1036l-1.8,-1.6l-0.8,-0.4" class="g10_1" />
<path d="M318.4,1046.8l-3.9,-0.1" class="g8_1" />
<path d="M307.5,1050.9l-12.7,9.7c0,0,-2.2,2,-0.9,3.3" class="g8_1" />
<path d="M293.9,1061.2c-0.5,0,-1.5,-0.3,-2.3,-0.8c-0.8,-0.4,-5.9,-3.6,-6.3,-4.4" class="g8_1" />
<path d="M290.6,1061.4l-5.4,3.1c0,0,-1.1,0.5,-2.1,0.2c-1,-0.3,-2.6,-0.9,-4,-2.9c-1.5,-2,-1.9,-4.2,-1.8,-4.8c0.1,-0.5,0.3,-1.2,0.8,-1.7c0.5,-0.5,6,-6.2,6,-6.2" class="g10_1" />
<path d="M311.4,1048.2c-0.7,0.4,-1.7,-0.1,-2.4,-1c-0.6,-0.9,-0.8,-2.1,-0.2,-2.6" class="g8_1" />
<path d="M311.4,1048.2l11.8,-9.2c0,0,1.4,-1.4,0.3,-3c-1.1,-1.6,-2.8,-0.7,-3.4,-0.2c-0.7,0.5,-11.3,8.8,-11.3,8.8" class="g10_1" />
<path fill-rule="evenodd" d="M233.1,997.1l12,-8.1l-2.9,6.8l-10.7,6.2Z" class="g12_1" />
<path d="M277.6,1058.8c-17.9,9.3,-24.2,-5.7,-32,-19.8c-9.1,-16.4,-13.3,-22.5,-0.3,-50.3" class="g10_1" />
<path d="M281.9,1064.3c-27.1,16.3,-37.5,-12,-48.1,-31.6c-8.3,-15.4,-3.7,-31,4.5,-47" class="g10_1" />
<path d="M230.9,881.4C219,856.8,204.6,851.5,242.8,802.5" class="g10_1" />
<path d="M239,880.5c-16.7,-29.3,-18.3,-35.1,9.8,-73.3" class="g10_1" />
<path d="M196,842.2c0,-1.3,2,-2.4,4.4,-2.4c0.8,0,1.5,0.1,2.1,0.3" class="g8_1" />
<path d="M203.9,843.5c-0.7,0.7,-2,1.1,-3.5,1.1c-2.4,0,-4.4,-1.1,-4.4,-2.4c0,-1.3,0,-3.3,0,-3.3" class="g10_1" />
<path d="M196,838.9c0,-1.3,2,-2.4,4.4,-2.4c0.8,0,1.5,0.2,2.1,0.4" class="g8_1" />
<path d="M202.7,841.1c-0.6,0.2,-1.3,0.3,-2,0.3c-1,0,-1.9,-0.2,-2.6,-0.6" class="g10_1" />
<path d="M189.4,838.8c0,-3.3,4.9,-6,11,-6c6,0,10.9,2.7,10.9,6" class="g8_1" />
<path d="M211.3,839.1c0,0.9,-0.3,1.7,-1,2.5m-5.6,3c-1.4,0.3,-2.8,0.5,-4.3,0.5c-0.9,0,-0.9,0,-1.7,-0.1m-5.4,-1.3c-2.4,-1.1,-3.9,-2.8,-3.9,-4.6" class="g10_1" />
<path d="M189.4,837.2c0,-3.4,4.9,-6,11,-6c6,0,10.9,2.6,10.9,6" class="g10_1" />
<path d="M189,838l0,-1" class="g10_1" />
<path d="M211,838l0,-1" class="g10_1" />
<path d="M196,840.6c-4.8,5,-6.8,9.8,-6.4,12.2c0.4,2.4,1.2,3.1,2.2,3.1c0.9,-0.1,1.6,-0.5,2.7,-2.3c1,-1.7,3.4,-6.3,3.2,-9.5" class="g10_1" />
<path d="M190.4,855c0.9,-0.1,1.7,-0.5,2.7,-2.2c1,-1.8,3.4,-6.4,3.3,-9.6" class="g8_1" />
<path d="M202.5,836.5l0,4" class="g8_1" />
<path d="M202.5,840.1c0.7,1.8,1.5,3.2,2.3,4.3c1.2,1.8,2.3,2.7,2.3,2.7c0,0,1.1,0.5,1.8,-0.4c0.7,-0.8,2,-3.4,1.2,-5.4c-0.8,-2,-3.9,-3.9,-5.1,-4.3c-1.3,-0.3,-2.5,-0.1,-2.5,-0.1" class="g10_1" />
<path d="M205.7,846.5c0,0,1.2,0.6,1.9,-0.3c0.7,-0.8,1.9,-3.5,1.2,-5.4c-0.8,-2,-3.9,-3.9,-5.2,-4.3" class="g8_1" />
<path d="M279.3,796.1c0,-1.4,1.9,-2.4,4.3,-2.4c0.8,0,1.6,0.1,2.2,0.3" class="g8_1" />
<path d="M287.2,797.4c-0.8,0.6,-2.1,1,-3.6,1c-2.4,0,-4.3,-1,-4.3,-2.3c0,-1.4,0,-3.3,0,-3.3" class="g10_1" />
<path d="M279.3,792.8c0,-1.3,1.9,-2.4,4.3,-2.4c0.8,0,1.5,0.1,2.2,0.3" class="g8_1" />
<path d="M285.9,794.9c-0.5,0.2,-1.2,0.4,-1.9,0.4c-1,0,-1.9,-0.3,-2.6,-0.6" class="g10_1" />
<path d="M272.7,792.7c0,-3.3,4.9,-6,10.9,-6c6.1,0,11,2.7,11,6" class="g8_1" />
<path d="M294.6,793c0,0.8,-0.4,1.7,-1,2.4m-5.7,3.1c-1.3,0.3,-2.8,0.5,-4.3,0.5c-0.9,0,-0.8,0,-1.6,-0.1m-5.5,-1.4c-2.3,-1.1,-3.8,-2.7,-3.8,-4.5" class="g10_1" />
<path d="M272.7,791c0,-3.3,4.9,-6,10.9,-6c6.1,0,11,2.7,11,6" class="g10_1" />
<path d="M272,792l0,-1" class="g10_1" />
<path d="M294,792l0,-1" class="g10_1" />
<path d="M279.3,794.4c-4.8,5,-6.8,9.9,-6.5,12.3c0.4,2.3,1.3,3.1,2.2,3c1,0,1.7,-0.4,2.7,-2.2c1,-1.8,3.4,-6.3,3.3,-9.6" class="g10_1" />
<path d="M273.6,808.8c1,0,1.7,-0.4,2.7,-2.2c1,-1.8,3.5,-6.3,3.3,-9.6" class="g8_1" />
<path d="M285.5,790.5l0,3" class="g8_1" />
<path d="M285.8,794c0.7,1.8,1.5,3.2,2.2,4.3c1.3,1.7,2.3,2.6,2.3,2.6c0,0,1.2,0.5,1.9,-0.3c0.6,-0.8,1.9,-3.5,1.1,-5.4c-0.8,-2,-3.8,-3.9,-5.1,-4.3c-1.3,-0.4,-2.4,-0.2,-2.4,-0.2" class="g10_1" />
<path d="M289,800.4c0,0,1.2,0.5,1.8,-0.3c0.7,-0.9,2,-3.5,1.2,-5.5c-0.8,-1.9,-3.8,-3.9,-5.1,-4.2" class="g8_1" />
<path d="M347.9,912.2c0,-1.3,1.9,-2.4,4.3,-2.4c0.8,0,1.6,0.1,2.2,0.3" class="g8_1" />
<path d="M355.8,913.5c-0.8,0.7,-2.1,1.1,-3.6,1.1c-2.4,0,-4.3,-1.1,-4.3,-2.4c0,-1.3,0,-3.3,0,-3.3" class="g10_1" />
<path d="M347.9,908.9c0,-1.3,1.9,-2.4,4.3,-2.4c0.8,0,1.6,0.2,2.2,0.4" class="g8_1" />
<path d="M354.5,911.1c-0.5,0.2,-1.2,0.3,-1.9,0.3c-1,0,-1.9,-0.2,-2.6,-0.6" class="g10_1" />
<path d="M341.3,908.8c0,-3.3,4.9,-6,10.9,-6c6.1,0,11,2.7,11,6" class="g8_1" />
<path d="M363.2,909.1c0,0.9,-0.4,1.7,-1,2.5m-5.7,3c-1.3,0.3,-2.7,0.5,-4.3,0.5c-0.9,0,-0.8,0,-1.6,-0.1m-5.4,-1.3c-2.4,-1.1,-3.9,-2.8,-3.9,-4.6" class="g10_1" />
<path d="M341.3,907.2c0,-3.4,4.9,-6.1,10.9,-6.1c6.1,0,11,2.7,11,6.1" class="g10_1" />
<path d="M341,908l0,-1" class="g10_1" />
<path d="M363,908l0,-1" class="g10_1" />
<path d="M347.9,910.6c-4.8,5,-6.8,9.8,-6.4,12.2c0.3,2.4,1.2,3.1,2.1,3.1c1,-0.1,1.7,-0.5,2.7,-2.3c1,-1.7,3.5,-6.3,3.3,-9.5" class="g10_1" />
<path d="M342.3,925c0.9,-0.1,1.6,-0.5,2.6,-2.3c1.1,-1.7,3.5,-6.3,3.3,-9.5" class="g8_1" />
<path d="M354.5,906.5l0,4" class="g8_1" />
<path d="M354.4,910.1c0.7,1.8,1.5,3.2,2.3,4.3c1.2,1.8,2.2,2.6,2.2,2.6c0,0,1.2,0.6,1.9,-0.3c0.7,-0.8,1.9,-3.5,1.1,-5.4c-0.7,-2,-3.8,-3.9,-5.1,-4.3c-1.2,-0.4,-2.4,-0.1,-2.4,-0.1" class="g10_1" />
<path d="M357.6,916.5c0,0,1.2,0.5,1.9,-0.3c0.7,-0.8,1.9,-3.5,1.1,-5.4c-0.8,-2,-3.8,-3.9,-5.1,-4.3" class="g8_1" />
<path d="M430.9,866.1c0,-1.4,2,-2.4,4.4,-2.4c0.8,0,1.5,0.1,2.1,0.3" class="g8_1" />
<path d="M438.9,867.4c-0.8,0.6,-2.1,1,-3.6,1c-2.4,0,-4.4,-1,-4.4,-2.3c0,-1.4,0,-3.3,0,-3.3" class="g10_1" />
<path d="M430.9,862.8c0,-1.3,2,-2.4,4.4,-2.4c0.8,0,1.5,0.1,2.1,0.3" class="g8_1" />
<path d="M437.6,864.9c-0.6,0.2,-1.3,0.4,-2,0.4c-1,0,-1.9,-0.3,-2.5,-0.6" class="g10_1" />
<path d="M424.3,862.7c0,-3.3,4.9,-6,11,-6c6,0,10.9,2.7,10.9,6" class="g8_1" />
<path d="M446.2,862.9c0,0.9,-0.3,1.8,-1,2.5m-5.6,3.1c-1.4,0.3,-2.8,0.5,-4.3,0.5c-0.9,0,-0.9,0,-1.7,-0.1m-5.4,-1.4c-2.4,-1.1,-3.9,-2.7,-3.9,-4.6" class="g10_1" />
<path d="M424.3,861c0,-3.3,4.9,-6,11,-6c6,0,10.9,2.7,10.9,6" class="g10_1" />
<path d="M424,862l0,-1" class="g10_1" />
<path d="M446,862l0,-1" class="g10_1" />
<path d="M430.9,864.4c-4.8,5,-6.8,9.9,-6.4,12.3c0.4,2.3,1.2,3.1,2.2,3c0.9,0,1.7,-0.4,2.7,-2.2c1,-1.8,3.4,-6.3,3.2,-9.6" class="g10_1" />
<path d="M425.3,878.8c0.9,0,1.7,-0.4,2.7,-2.2c1,-1.8,3.4,-6.3,3.3,-9.6" class="g8_1" />
<path d="M437.5,860.5l0,3" class="g8_1" />
<path d="M437.4,864c0.7,1.8,1.5,3.2,2.3,4.3c1.2,1.7,2.3,2.6,2.3,2.6c0,0,1.1,0.5,1.8,-0.3c0.7,-0.8,2,-3.5,1.2,-5.4c-0.8,-2,-3.9,-3.9,-5.1,-4.3c-1.3,-0.4,-2.5,-0.2,-2.5,-0.2" class="g10_1" />
<path d="M440.7,870.4c0,0,1.1,0.5,1.8,-0.3c0.7,-0.9,2,-3.5,1.2,-5.5c-0.8,-1.9,-3.9,-3.9,-5.2,-4.2" class="g8_1" />
<path d="M355.1,866.9c1.9,-0.6,3.7,-1.7,3.7,-1.7l72.5,-40.3" class="g8_1" />
<path d="M438.6,821.1c1,-0.6,1.7,-0.9,1.7,-0.9c0,0,2,-0.9,2,-1.9" class="g8_1" />
<path d="M442.3,818.3c0,-0.6,0.2,-1.9,-2.3,-3C437.5,814.1,286.9,744.6,286.9,744.6c0,0,-4.4,-1.7,-7.9,0.2c-3.5,1.9,-83,46.6,-83,46.6c0,0,-1.7,0.7,-1.8,2.8" class="g10_1" />
<path d="M194.2,794.2c-0.1,0.9,0.6,1.9,2.5,2.8" class="g8_1" />
<path d="M203.8,799.9l30.5,14" class="g8_1" />
<path d="M242.4,817.6l105.9,48.7" class="g8_1" />
<path d="M348.3,880.8c0,-0.9,1.5,-1.7,3.4,-1.7c1.8,0,3.3,0.8,3.3,1.7" class="g8_1" />
<path d="M348.3,847.9c0,0,0,32,0,32.9c0,0.9,1.5,1.7,3.4,1.7c1.8,0,3.3,-0.8,3.3,-1.7c0,-0.9,0,-29.9,0,-29.9" class="g10_1" />
<path d="M348.3,879.4c0,-1,1.5,-1.7,3.4,-1.7c1.8,0,3.3,0.7,3.3,1.7" class="g8_1" />
<path d="M348.3,878.1c0,-1,1.5,-1.7,3.4,-1.7c1.8,0,3.3,0.7,3.3,1.7" class="g8_1" />
<path d="M348.3,876.6c0,-0.9,1.5,-1.7,3.4,-1.7c1.8,0,3.3,0.8,3.3,1.7" class="g8_1" />
<path d="M348.3,875.2c0,-1,1.5,-1.7,3.4,-1.7c1.8,0,3.3,0.7,3.3,1.7" class="g8_1" />
<path d="M348.3,873.7c0,-0.9,1.5,-1.7,3.4,-1.7c1.8,0,3.3,0.8,3.3,1.7" class="g8_1" />
<path d="M348.3,872.4c0,-0.9,1.5,-1.7,3.4,-1.7c1.8,0,3.3,0.8,3.3,1.7" class="g8_1" />
<path d="M348.3,871c0,-1,1.5,-1.7,3.4,-1.7c1.8,0,3.3,0.7,3.3,1.7" class="g8_1" />
<path d="M348.3,869.6c0,-1,1.5,-1.7,3.4,-1.7c1.8,0,3.3,0.7,3.3,1.7" class="g8_1" />
<path d="M348.3,868.1c0,-0.9,1.5,-1.6,3.4,-1.6c1.8,0,3.3,0.7,3.3,1.6" class="g8_1" />
<path d="M348.3,866.8c0,-0.9,1.5,-1.7,3.4,-1.7c1.8,0,3.3,0.8,3.3,1.7" class="g8_1" />
<path d="M348.3,865.4c0,-0.9,1.5,-1.7,3.4,-1.7c1.8,0,3.3,0.8,3.3,1.7" class="g8_1" />
<path d="M348.3,863.9c0,-0.9,1.5,-1.7,3.4,-1.7c1.8,0,3.3,0.8,3.3,1.7" class="g8_1" />
<path d="M348.3,862.5c0,-0.9,1.5,-1.7,3.4,-1.7c1.8,0,3.3,0.8,3.3,1.7" class="g8_1" />
<path d="M348.3,861.2c0,-1,1.5,-1.7,3.4,-1.7c1.8,0,3.3,0.7,3.3,1.7" class="g8_1" />
<path d="M348.3,859.7c0,-0.9,1.5,-1.7,3.4,-1.7c1.8,0,3.3,0.8,3.3,1.7" class="g8_1" />
<path d="M348.3,858.4c0,-0.9,1.5,-1.7,3.4,-1.7c1.8,0,3.3,0.8,3.3,1.7" class="g8_1" />
<path d="M348.3,856.9c0,-0.9,1.5,-1.6,3.4,-1.6c1.8,0,3.3,0.7,3.3,1.6" class="g8_1" />
<path d="M348.3,855.6c0,-0.9,1.5,-1.7,3.4,-1.7c1.8,0,3.3,0.8,3.3,1.7" class="g8_1" />
<path d="M348.3,854.2c0,-0.9,1.5,-1.7,3.4,-1.7c1.8,0,3.3,0.8,3.3,1.7" class="g8_1" />
<path d="M348.3,852.7c0,-0.9,1.5,-1.7,3.4,-1.7c1.8,0,3.3,0.8,3.3,1.7" class="g8_1" />
<path d="M348.3,851.3c0,-0.9,1.5,-1.7,3.4,-1.7c1.8,0,3.3,0.8,3.3,1.7" class="g8_1" />
<path d="M348.3,850c0,-0.6,0.6,-1.2,1.6,-1.5" class="g8_1" />
<path d="M431.5,834.7c0,-0.9,1.5,-1.7,3.4,-1.7c1.8,0,3.3,0.8,3.3,1.7" class="g8_1" />
<path d="M431.5,811.4c0,0,0,22.4,0,23.3c0,1,1.5,1.7,3.4,1.7c1.8,0,3.3,-0.7,3.3,-1.7c0,-0.9,0,-20.2,0,-20.2" class="g10_1" />
<path d="M431.5,833.3c0,-0.9,1.5,-1.7,3.4,-1.7c1.8,0,3.3,0.8,3.3,1.7" class="g8_1" />
<path d="M431.5,832c0,-1,1.5,-1.7,3.4,-1.7c1.8,0,3.3,0.7,3.3,1.7" class="g8_1" />
<path d="M431.5,830.5c0,-0.9,1.5,-1.6,3.4,-1.6c1.8,0,3.3,0.7,3.3,1.6" class="g8_1" />
<path d="M431.5,829.1c0,-1,1.5,-1.7,3.4,-1.7c1.8,0,3.3,0.7,3.3,1.7" class="g8_1" />
<path d="M431.5,827.6c0,-0.9,1.5,-1.7,3.4,-1.7c1.8,0,3.3,0.8,3.3,1.7" class="g8_1" />
<path d="M431.5,826.3c0,-0.9,1.5,-1.7,3.4,-1.7c1.8,0,3.3,0.8,3.3,1.7" class="g8_1" />
<path d="M431.5,824.9c0,-0.9,1.5,-1.7,3.4,-1.7c1.8,0,3.3,0.8,3.3,1.7" class="g8_1" />
<path d="M431.5,823.5c0,-0.9,1.5,-1.7,3.4,-1.7c1.8,0,3.3,0.8,3.3,1.7" class="g8_1" />
<path d="M431.5,822.1c0,-1,1.5,-1.7,3.4,-1.7c1.8,0,3.3,0.7,3.3,1.7" class="g8_1" />
<path d="M431.5,820.8c0,-1,1.5,-1.7,3.4,-1.7c1.8,0,3.3,0.7,3.3,1.7" class="g8_1" />
<path d="M431.5,819.3c0,-0.9,1.5,-1.7,3.4,-1.7c1.8,0,3.3,0.8,3.3,1.7" class="g8_1" />
<path d="M431.5,817.9c0,-1,1.5,-1.7,3.4,-1.7c1.8,0,3.3,0.7,3.3,1.7" class="g8_1" />
<path d="M431.5,816.4c0,-0.9,1.5,-1.7,3.4,-1.7c1.8,0,3.3,0.8,3.3,1.7" class="g8_1" />
<path d="M431.5,815.1c0,-0.9,1.5,-1.7,3.4,-1.7c1.8,0,3.3,0.8,3.3,1.7" class="g8_1" />
<path d="M196.9,811.3c0,-1,1.5,-1.7,3.4,-1.7c1.8,0,3.3,0.7,3.3,1.7" class="g8_1" />
<path d="M196.9,790.9c0,0,0,19.4,0,20.4c0,0.9,1.5,1.6,3.4,1.6c1.8,0,3.3,-0.7,3.3,-1.6c0,-1,0,-24.2,0,-24.2" class="g10_1" />
<path d="M196.9,809.8c0,-0.9,1.5,-1.7,3.4,-1.7c1.8,0,3.3,0.8,3.3,1.7" class="g8_1" />
<path d="M196.9,808.5c0,-0.9,1.5,-1.7,3.4,-1.7c1.8,0,3.3,0.8,3.3,1.7" class="g8_1" />
<path d="M196.9,807.1c0,-1,1.5,-1.7,3.4,-1.7c1.8,0,3.3,0.7,3.3,1.7" class="g8_1" />
<path d="M196.9,805.6c0,-0.9,1.5,-1.7,3.4,-1.7c1.8,0,3.3,0.8,3.3,1.7" class="g8_1" />
<path d="M196.9,804.2c0,-1,1.5,-1.7,3.4,-1.7c1.8,0,3.3,0.7,3.3,1.7" class="g8_1" />
<path d="M196.9,802.9c0,-1,1.5,-1.7,3.4,-1.7c1.8,0,3.3,0.7,3.3,1.7" class="g8_1" />
<path d="M196.9,801.4c0,-0.9,1.5,-1.7,3.4,-1.7c1.8,0,3.3,0.8,3.3,1.7" class="g8_1" />
<path d="M196.9,800c0,-0.9,1.5,-1.7,3.4,-1.7c1.8,0,3.3,0.8,3.3,1.7" class="g8_1" />
<path d="M196.9,798.6c0,-0.9,1.5,-1.7,3.4,-1.7c1.8,0,3.3,0.8,3.3,1.7" class="g8_1" />
<path d="M196.9,797.3c0,-1,1.5,-1.7,3.4,-1.7c1.8,0,3.3,0.7,3.3,1.7" class="g8_1" />
<path d="M196.9,795.8c0,-0.9,1.5,-1.6,3.4,-1.6c1.8,0,3.3,0.7,3.3,1.6" class="g8_1" />
<path d="M196.9,794.4c0,-1,1.5,-1.7,3.4,-1.7c1.8,0,3.3,0.7,3.3,1.7" class="g8_1" />
<path d="M196.9,792.9c0,-0.9,1.5,-1.6,3.4,-1.6c1.8,0,3.3,0.7,3.3,1.6" class="g8_1" />
<path d="M196.9,791.6c0,-0.9,1.5,-1.7,3.4,-1.7c1.8,0,3.3,0.8,3.3,1.7" class="g8_1" />
<path d="M201.2,788.6c1.2,0.2,2.4,0.9,2.4,1.6" class="g8_1" />
<path d="M279.9,764.3c0,-1,1.6,-1.7,3.4,-1.7c1.9,0,3.4,0.7,3.4,1.7" class="g8_1" />
<path d="M279.9,744.6c0,0,0,18.7,0,19.7c0,0.9,1.6,1.7,3.4,1.7c1.9,0,3.4,-0.8,3.4,-1.7c0,-1,0,-19.7,0,-19.7" class="g10_1" />
<path d="M279.9,762.8c0,-0.9,1.6,-1.7,3.4,-1.7c1.9,0,3.4,0.8,3.4,1.7" class="g8_1" />
<path d="M279.9,761.5c0,-0.9,1.6,-1.7,3.4,-1.7c1.9,0,3.4,0.8,3.4,1.7" class="g8_1" />
<path d="M279.9,760.1c0,-1,1.6,-1.7,3.4,-1.7c1.9,0,3.4,0.7,3.4,1.7" class="g8_1" />
<path d="M279.9,758.6c0,-0.9,1.6,-1.7,3.4,-1.7c1.9,0,3.4,0.8,3.4,1.7" class="g8_1" />
<path d="M279.9,757.2c0,-1,1.6,-1.7,3.4,-1.7c1.9,0,3.4,0.7,3.4,1.7" class="g8_1" />
<path d="M279.9,755.9c0,-1,1.6,-1.7,3.4,-1.7c1.9,0,3.4,0.7,3.4,1.7" class="g8_1" />
<path d="M279.9,754.4c0,-0.9,1.6,-1.7,3.4,-1.7c1.9,0,3.4,0.8,3.4,1.7" class="g8_1" />
<path d="M279.9,753c0,-0.9,1.6,-1.7,3.4,-1.7c1.9,0,3.4,0.8,3.4,1.7" class="g8_1" />
<path d="M279.9,751.6c0,-0.9,1.6,-1.7,3.4,-1.7c1.9,0,3.4,0.8,3.4,1.7" class="g8_1" />
<path d="M279.9,750.3c0,-1,1.6,-1.7,3.4,-1.7c1.9,0,3.4,0.7,3.4,1.7" class="g8_1" />
<path d="M279.9,748.8c0,-0.9,1.6,-1.6,3.4,-1.6c1.9,0,3.4,0.7,3.4,1.6" class="g8_1" />
<path d="M279.9,747.4c0,-1,1.6,-1.7,3.4,-1.7c1.9,0,3.4,0.7,3.4,1.7" class="g8_1" />
<path d="M279.9,745.9c0,-0.9,1.6,-1.6,3.4,-1.6c1.9,0,3.4,0.7,3.4,1.6" class="g8_1" />
<path d="M279.9,744.6c0,-0.9,1.6,-1.7,3.4,-1.7c1.9,0,3.4,0.8,3.4,1.7" class="g8_1" />
<path d="M219.1,778.4l8.2,12.8c0,0,1.6,1.6,3.3,2.4c1.7,0.8,138.4,64,138.4,64c0,0,1.9,1,3.3,-1.2c1.4,-2.2,39.4,-54.2,39.4,-54.2" class="g10_1" />
<path d="M229.4,791l23.7,-31.6" class="g8_1" />
<path d="M270.8,749.4L280,754" class="g8_1" />
<path d="M287.8,757.4l24.9,12.3" class="g8_1" />
<path d="M312.7,756.5l0,30.8c0,0,-0.9,5.2,4.2,7.7c5.1,2.4,72.4,33.2,72.4,33.2c0,0,4.2,1.9,5.1,-2.3c0.9,-4.2,0,-31.6,0,-31.6" class="g10_1" />
<path d="M314.8,757.5l0,28.3c0,0,-0.9,5.3,4.2,7.7c5.1,2.4,70.9,32.7,70.9,32.7c0,0,4.1,1.9,5,-2.3" class="g8_1" />
<path d="M349,801.5L329.5,792l0,-4.3l19.5,8.9Z" class="g8_1" />
<path d="M329.7,789.6l17.3,7.9l0,2.6" class="g10_1" />
<path d="M349,801.5L329.5,792l0,-4.3" class="g10_1" />
<path d="M347,797.5l2,-0.9" class="g8_1" />
<path d="M349,793.6l-19.5,-9.5l0,-4.3l19.5,8.9Z" class="g8_1" />
<path d="M329.7,781.7l17.3,8l0,2.6" class="g10_1" />
<path d="M349,793.6l-19.5,-9.5l0,-4.3" class="g10_1" />
<path d="M347,789.7l2,-1" class="g8_1" />
<path d="M349,786.3l-19.5,-9.6l0,-4.2l19.5,8.9Z" class="g8_1" />
<path d="M329.7,774.4l17.3,7.9l0,2.6" class="g10_1" />
<path d="M349,786.3l-19.5,-9.6l0,-4.2" class="g10_1" />
<path d="M347,782.3l2,-0.9" class="g8_1" />
<path d="M349,778.6l-19.5,-9.5l0,-4.2l19.5,8.9Z" class="g8_1" />
<path d="M329.7,766.8l17.3,7.9l0,2.6" class="g10_1" />
<path d="M349,778.6l-19.5,-9.5l0,-4.2" class="g10_1" />
<path d="M347,774.7l2,-0.9" class="g8_1" />
<path d="M380,796.9l-19.4,-9.5l0,-4.3L380,792Z" class="g8_1" />
<path d="M360.7,785l17.3,8l0,2.5" class="g10_1" />
<path d="M380,796.9l-19.4,-9.5l0,-4.3" class="g10_1" />
<path d="M378,793l2,-1" class="g8_1" />
<path d="M380,804.4l-19.4,-9.5l0,-4.3l19.4,8.9Z" class="g8_1" />
<path d="M360.7,792.5l17.3,7.9l0,2.6" class="g10_1" />
<path d="M380,804.4l-19.4,-9.5l0,-4.3" class="g10_1" />
<path d="M378,800.4l2,-0.9" class="g8_1" />
<path d="M380,811.7l-19.4,-9.5l0,-4.2l19.4,8.9Z" class="g8_1" />
<path d="M360.7,799.9l17.3,7.9l0,2.6" class="g10_1" />
<path d="M380,811.7l-19.4,-9.5l0,-4.2" class="g10_1" />
<path d="M378,807.8l2,-0.9" class="g8_1" />
<path d="M380,787.9l0,1.4l-19.4,-9.5l0,-1.3" class="g8_1" />
<path d="M380,789.3l-19.4,-9.5" class="g10_1" />
<path d="M394.7,806.9l3.8,2.2c1.2,0.6,5.1,0.8,7,-1.9c1.9,-2.6,4.2,-5.9,4.2,-5.9" class="g10_1" />
<path d="M250.4,784.1c1.5,1.9,0.9,4.7,-1.2,6.4c-2.1,1.7,-5,1.6,-6.4,-0.3" class="g8_1" />
<path d="M242.8,790.2c-1.5,-1.8,-1,-4.7,1.1,-6.3c2.1,-1.7,5,-1.6,6.5,0.2" class="g10_1" />
<path d="M261.1,769.7c1.6,2.1,1.1,5.3,-1.4,7.3c-2.4,1.9,-5.7,1.8,-7.3,-0.3" class="g8_1" />
<path d="M252.4,776.7c-1.7,-2.1,-1.1,-5.4,1.3,-7.3c2.4,-1.9,5.7,-1.8,7.4,0.3" class="g10_1" />
<path d="M371.8,840.6c1.4,1.8,0.9,4.7,-1.2,6.4c-2.1,1.7,-5,1.5,-6.5,-0.3" class="g8_1" />
<path d="M364.1,846.7c-1.4,-1.8,-0.9,-4.7,1.2,-6.4c2.1,-1.6,5,-1.5,6.5,0.3" class="g10_1" />
<path d="M382.5,826.2c1.6,2.1,1,5.3,-1.4,7.3c-2.4,1.9,-5.7,1.7,-7.4,-0.3" class="g8_1" />
<path d="M373.7,833.2c-1.6,-2.1,-1,-5.4,1.4,-7.3c2.4,-1.9,5.7,-1.8,7.4,0.3" class="g10_1" />
<path d="M407.9,800.6c-0.2,1.3,-1,2.6,-2.2,3.5c-2.3,1.8,-5.7,1.8,-7.3,-0.3" class="g10_1" />
<path d="M399.1,804.4c-1.6,-2.1,-1,-5.3,1.4,-7.2" class="g8_1" />
<path d="M398.4,803.7c-1.7,-2.1,-1.1,-5.3,1.3,-7.3" class="g8_1" />
<path d="M402,800l-0.6,0.9" class="g8_1" />
<path d="M401.4,803.3l1,0.8" class="g8_1" />
<path d="M405.3,803l0.7,-0.9" class="g8_1" />
<path d="M405.5,800.1l-1.1,-0.7" class="g8_1" />
<path d="M401.4,800.9c0.6,0.4,0.8,1.9,0,2.4" class="g8_1" />
<path d="M402.4,804.1c0.8,-1,1.4,-1.7,2.9,-1.1" class="g8_1" />
<path d="M406,801.8c-0.9,-0.3,-1.1,-0.9,-0.5,-1.7" class="g8_1" />
<path d="M402,800c1,0.9,2,0.2,2.4,-0.6" class="g8_1" />
<path d="M241.1,798.5c1.2,4.5,4.1,7.5,7.2,8.3c3,0.8,4.2,-0.1,6.3,-2" class="g10_1" />
<path d="M200,828l0,-17" class="g13_1" />
<path d="M200.5,830.5l0,-20" class="g14_1" />
<path d="M351,897l0,-16" class="g13_1" />
<path d="M351.7,900.3l0,-19.8" class="g14_1" />
<path d="M434,851l0,-16" class="g13_1" />
<path d="M434.5,854.5l0,-20" class="g14_1" />
<path d="M283,780l0,-16" class="g13_1" />
<path d="M283.5,784.5l0,-20" class="g14_1" />
<path d="M477,1063.9c28.6,5.2,81.3,-23.2,61.7,-53.6" class="g10_1" />
<path d="M477,1072.7c40.7,6.2,89.6,-32.4,72.1,-63.6" class="g10_1" />
<path d="M538.7,1010.3c-15.4,-31.8,-34,-38.6,15.4,-102" class="g10_1" />
<path d="M549.1,1009.1c-21.5,-37.9,-23.5,-45.4,12.7,-94.7" class="g10_1" />
<path d="M690,996.8c0,-1.7,2.5,-3.1,5.6,-3.1c1,0,2,0.1,2.8,0.4" class="g8_1" />
<path d="M690.6,998.1c-0.4,-0.4,-0.6,-0.9,-0.6,-1.3c0,-1.7,0,-4.3,0,-4.3" class="g10_1" />
<path d="M690,992.5c0,-1.7,2.5,-3,5.6,-3c1,0,2,0.1,2.8,0.4" class="g8_1" />
<path d="M681.5,992.4c0,-4.3,6.3,-7.7,14.1,-7.7c7.8,0,14.2,3.4,14.2,7.7" class="g8_1" />
<path d="M709.8,992.7c0,1.2,-0.5,2.3,-1.3,3.3m-7.3,3.9c-0.6,0.1,-1.1,0.2,-1.6,0.3m-13.1,-1.5c-3.1,-1.5,-5,-3.6,-5,-6" class="g10_1" />
<path d="M681.5,990.3c0,-4.3,6.3,-7.8,14.1,-7.8c7.8,0,14.2,3.5,14.2,7.8" class="g10_1" />
<path d="M681,992l0,-2" class="g10_1" />
<path d="M709,992l0,-2" class="g10_1" />
<path d="M690,994.6c-6.2,6.5,-8.8,12.8,-8.3,15.9c0.5,3,1.6,4,2.8,3.9c1.2,0,2.2,-0.5,3.5,-2.8c0.6,-1.2,1.7,-3.1,2.6,-5.3" class="g10_1" />
<path d="M682.7,1013.3c1.2,-0.1,2.2,-0.6,3.5,-2.9c1.3,-2.3,4.4,-8.2,4.2,-12.4" class="g8_1" />
<path d="M698.5,989.5l0,5" class="g8_1" />
<path d="M698.4,994.1c0.9,2.3,1.9,4.1,2.9,5.5c1.6,2.3,3,3.4,3,3.4c0,0,1.5,0.7,2.4,-0.4c0.8,-1.1,2.5,-4.5,1.5,-7c-1.1,-2.5,-5,-5.1,-6.7,-5.5c-1.6,-0.5,-3.1,-0.2,-3.1,-0.2" class="g10_1" />
<path d="M702.6,1002.3c0,0,1.5,0.7,2.3,-0.4c0.9,-1.1,2.6,-4.5,1.5,-7c-1,-2.5,-4.9,-5,-6.6,-5.5" class="g8_1" />
<path d="M708.7,986.7l80.2,-44.6" class="g8_1" />
<path d="M593.3,838c-24.5,13.8,-86.8,48.8,-86.8,48.8" class="g10_1" />
<path d="M793.5,917.8C771.3,907.5,728.6,887.8,690.1,870m-13.7,-6.3c-23.8,-11,-44.6,-20.6,-56.1,-25.9" class="g10_1" />
<path d="M503.7,905L543,923.1" class="g8_1" />
<path d="M553.6,927.8l128.8,59.3" class="g8_1" />
<path d="M690.3,967c0,0,0,7.3,0,15.8m8.8,-0.5c0,-6.6,0,-11.2,0,-11.2" class="g10_1" />
<path d="M690.3,982.3c0,-1.2,2,-2.2,4.4,-2.2c2.4,0,4.4,1,4.4,2.2" class="g8_1" />
<path d="M690.3,980.6c0,-1.3,2,-2.2,4.4,-2.2c2.4,0,4.4,0.9,4.4,2.2" class="g8_1" />
<path d="M690.3,978.7c0,-1.2,2,-2.2,4.4,-2.2c2.4,0,4.4,1,4.4,2.2" class="g8_1" />
<path d="M690.3,977c0,-1.2,2,-2.2,4.4,-2.2c2.4,0,4.4,1,4.4,2.2" class="g8_1" />
<path d="M690.3,975.1c0,-1.2,2,-2.1,4.4,-2.1c2.4,0,4.4,0.9,4.4,2.1" class="g8_1" />
<path d="M690.3,973.2c0,-1.2,2,-2.1,4.4,-2.1c2.4,0,4.4,0.9,4.4,2.1" class="g8_1" />
<path d="M690.3,971.4c0,-1.2,2,-2.2,4.4,-2.2c2.4,0,4.4,1,4.4,2.2" class="g8_1" />
<path d="M690.3,969.7c0,-0.8,0.9,-1.5,2.1,-1.9" class="g8_1" />
<path d="M690.7,1016.3c0,-1.3,2,-2.2,4.4,-2.2c2.4,0,4.3,0.9,4.3,2.2" class="g8_1" />
<path d="M690.7,998.2c0,0,0,16.8,0,18.1c0,1.2,2,2.1,4.4,2.1c2.4,0,4.3,-0.9,4.3,-2.1c0,-1.3,0,-19.4,0,-19.4" class="g10_1" />
<path d="M690.7,1014.4c0,-1.2,2,-2.2,4.4,-2.2c2.4,0,4.3,1,4.3,2.2" class="g8_1" />
<path d="M690.7,1012.7c0,-1.2,2,-2.2,4.4,-2.2c2.4,0,4.3,1,4.3,2.2" class="g8_1" />
<path d="M690.7,1010.8c0,-1.2,2,-2.1,4.4,-2.1c2.4,0,4.3,0.9,4.3,2.1" class="g8_1" />
<path d="M690.7,1008.9c0,-1.2,2,-2.1,4.4,-2.1c2.4,0,4.3,0.9,4.3,2.1" class="g8_1" />
<path d="M690.7,1007.1c0,-1.2,2,-2.2,4.4,-2.2c2.4,0,4.3,1,4.3,2.2" class="g8_1" />
<path d="M690.7,1005.4c0,-1.2,2,-2.2,4.4,-2.2c2.4,0,4.3,1,4.3,2.2" class="g8_1" />
<path d="M690.7,1003.5c0,-1.2,2,-2.1,4.4,-2.1c2.4,0,4.3,0.9,4.3,2.1" class="g8_1" />
<path d="M690.7,1001.7c0,-1.2,2,-2.1,4.4,-2.1c2.4,0,4.3,0.9,4.3,2.1" class="g8_1" />
<path d="M690.7,999.9c0,-1.2,2,-2.2,4.4,-2.2c2.4,0,4.3,1,4.3,2.2" class="g8_1" />
<path d="M690.7,998.2c0,-1.2,2,-2.2,4.4,-2.2c2.4,0,4.3,1,4.3,2.2" class="g8_1" />
<path d="M602.1,858.9c0,-1.2,1.9,-2.1,4.3,-2.1c2.4,0,4.4,0.9,4.4,2.1" class="g8_1" />
<path d="M602.1,857.1c0,-1.2,1.9,-2.2,4.3,-2.2c2.4,0,4.4,1,4.4,2.2" class="g8_1" />
<path d="M602.1,855.4c0,-1.2,1.9,-2.2,4.3,-2.2c2.4,0,4.4,1,4.4,2.2" class="g8_1" />
<path d="M602.1,853.5c0,-1.2,1.9,-2.2,4.3,-2.2c2.4,0,4.4,1,4.4,2.2" class="g8_1" />
<path d="M602.1,851.6c0,-1.2,1.9,-2.1,4.3,-2.1c2.4,0,4.4,0.9,4.4,2.1" class="g8_1" />
<path d="M602.1,849.8c0,-1.2,1.9,-2.2,4.3,-2.2c2.4,0,4.4,1,4.4,2.2" class="g8_1" />
<path d="M602.1,848.1c0,-1.2,1.9,-2.2,4.3,-2.2c2.4,0,4.4,1,4.4,2.2" class="g8_1" />
<path d="M602.1,846.2c0,-1.2,1.9,-2.2,4.3,-2.2c2.4,0,4.4,1,4.4,2.2" class="g8_1" />
<path d="M602.1,844.4c0,-1.2,1.9,-2.1,4.3,-2.1c2.4,0,4.4,0.9,4.4,2.1" class="g8_1" />
<path d="M602.1,842.6c0,-1.2,1.9,-2.2,4.3,-2.2c2.4,0,4.4,1,4.4,2.2" class="g8_1" />
<path d="M602.1,840.9c0,-1.2,1.9,-2.2,4.3,-2.2c2.4,0,4.4,1,4.4,2.2" class="g8_1" />
<path d="M523.5,877.2l10.6,16.5c0,0,2,2.1,4.2,3.1c2.2,1.1,178.9,82.7,178.9,82.7c0,0,2.4,1.4,4.2,-1.5c1.8,-2.9,50.8,-70,50.8,-70" class="g10_1" />
<path d="M536.7,893.4l30.6,-40.8" class="g8_1" />
<path d="M590.2,839.8l6,2.9" class="g8_1" />
<path d="M612.3,850.1l32,15.9" class="g8_1" />
<path d="M644.4,848.9l0,39.8c0,0,-1.2,6.8,5.4,9.9c6.5,3.2,93.6,43,93.6,43c0,0,5.4,2.4,6.5,-3.1c1.2,-5.4,0,-40.7,0,-40.7" class="g10_1" />
<path d="M647.1,850.2l0,36.5c0,0,-1.2,6.9,5.4,10c6.5,3.1,91.6,42.3,91.6,42.3c0,0,5.3,2.4,6.5,-3.1" class="g8_1" />
<path d="M691.2,907L666.1,894.7l0,-5.5l25.1,11.5Z" class="g8_1" />
<path d="M666.3,891.7L688.7,902l0,3.3" class="g10_1" />
<path d="M691.2,907L666.1,894.7l0,-5.5" class="g10_1" />
<path d="M688.7,902l2.5,-1.3" class="g8_1" />
<path d="M691.2,896.8L666.1,884.6l0,-5.6l25.1,11.6Z" class="g8_1" />
<path d="M666.3,881.5l22.4,10.3l0,3.3" class="g10_1" />
<path d="M691.2,896.8L666.1,884.6l0,-5.6" class="g10_1" />
<path d="M688.7,891.8l2.5,-1.2" class="g8_1" />
<path d="M691.2,887.4L666.1,875.1l0,-5.5l25.1,11.5Z" class="g8_1" />
<path d="M666.3,872l22.4,10.3l0,3.3" class="g10_1" />
<path d="M691.2,887.4L666.1,875.1l0,-5.5" class="g10_1" />
<path d="M688.7,882.3l2.5,-1.2" class="g8_1" />
<path d="M688.6,870.1l2.6,1.2l0,6.2L666.1,865.3l0,-5.6l10.1,4.7" class="g8_1" />
<path d="M666.3,862.2l10.3,4.8m6.4,2.9l5.6,2.6l0.1,3.3" class="g10_1" />
<path d="M691.2,877.5L666.1,865.3l0,-5.6" class="g10_1" />
<path d="M688.7,872.5l2.5,-1.2" class="g8_1" />
<path d="M731.3,901.1L706.2,888.8l0,-5.5l25.1,11.5Z" class="g8_1" />
<path d="M706.4,885.7L728.8,896l0,3.4" class="g10_1" />
<path d="M731.3,901.1L706.2,888.8l0,-5.5" class="g10_1" />
<path d="M728.8,896l2.5,-1.2" class="g8_1" />
<path d="M731.3,910.7L706.2,898.5l0,-5.6l25.1,11.6Z" class="g8_1" />
<path d="M706.4,895.4l22.4,10.3l0,3.3" class="g10_1" />
<path d="M731.3,910.7L706.2,898.5l0,-5.6" class="g10_1" />
<path d="M728.8,905.7l2.5,-1.2" class="g8_1" />
<path d="M731.3,920.3L706.2,908l0,-5.5L731.3,914Z" class="g8_1" />
<path d="M706.4,905l22.4,10.2l0,3.4" class="g10_1" />
<path d="M731.3,920.3L706.2,908l0,-5.5" class="g10_1" />
<path d="M728.8,915.2l2.5,-1.2" class="g8_1" />
<path d="M731.3,889.4l0,1.9L706.2,879l0,-1.6" class="g8_1" />
<path d="M728,888l0,1" class="g10_1" />
<path d="M731.3,891.3L706.2,879" class="g10_1" />
<path d="M750.4,914l4.9,2.8c1.5,0.9,6.5,1.1,9,-2.3c2.4,-3.4,5.4,-7.7,5.4,-7.7" class="g10_1" />
<path d="M563.9,884.6c1.9,2.4,1.2,6.1,-1.5,8.2c-2.7,2.2,-6.5,2.1,-8.4,-0.3" class="g8_1" />
<path d="M554,892.5c-1.9,-2.4,-1.2,-6.1,1.5,-8.2c2.8,-2.2,6.5,-2.1,8.4,0.3" class="g10_1" />
<path d="M577.7,866c2.1,2.7,1.4,6.9,-1.7,9.4c-3.1,2.4,-7.4,2.3,-9.6,-0.4" class="g8_1" />
<path d="M566.4,875c-2.1,-2.7,-1.4,-6.9,1.7,-9.4c3.1,-2.5,7.4,-2.3,9.6,0.4" class="g10_1" />
<path d="M720.7,957.6c1.9,2.3,1.2,6,-1.5,8.2c-2.7,2.2,-6.5,2,-8.4,-0.3" class="g8_1" />
<path d="M710.8,965.5c-1.8,-2.4,-1.2,-6.1,1.6,-8.3c2.7,-2.1,6.4,-2,8.3,0.4" class="g10_1" />
<path d="M734.5,939c2.2,2.6,1.4,6.9,-1.7,9.3c-3.1,2.5,-7.4,2.4,-9.5,-0.3" class="g8_1" />
<path d="M723.3,948c-2.2,-2.7,-1.4,-6.9,1.7,-9.4c3.1,-2.5,7.3,-2.3,9.5,0.4" class="g10_1" />
<path d="M767.4,905.9c-0.3,1.7,-1.3,3.3,-2.8,4.5c-3.1,2.4,-7.4,2.3,-9.5,-0.4" class="g10_1" />
<path d="M756,910.8c-2.1,-2.7,-1.3,-6.9,1.8,-9.4" class="g8_1" />
<path d="M755.1,909.9c-2.2,-2.7,-1.4,-6.9,1.7,-9.4" class="g8_1" />
<path d="M759.8,905.2l-0.9,1.1" class="g8_1" />
<path d="M759,909.4l1.3,1" class="g8_1" />
<path d="M764,909l0.9,-1.2" class="g8_1" />
<path d="M764.3,905.2l-1.5,-0.9" class="g8_1" />
<path d="M758.9,906.3c0.8,0.5,1.1,2.4,0.1,3.1" class="g8_1" />
<path d="M760.3,910.4c1,-1.2,1.7,-2.1,3.7,-1.4" class="g8_1" />
<path d="M765,907.4c-1.2,-0.3,-1.5,-1.1,-0.7,-2.2" class="g8_1" />
<path d="M759.8,905.2c1.2,1.1,2.6,0.1,3,-0.9" class="g8_1" />
<path d="M551.9,903.1c1.5,5.9,5.3,9.7,9.2,10.7c4,1.1,5.5,-0.1,8.2,-2.5" class="g10_1" />
<path d="M799.1,928.8c0,-1.7,2.5,-3.1,5.6,-3.1c1,0,2,0.2,2.8,0.5" class="g8_1" />
<path d="M799.6,930.1c-0.3,-0.4,-0.5,-0.8,-0.5,-1.3c0,-1.7,0,-4.2,0,-4.2" class="g10_1" />
<path d="M799.1,924.6c0,-1.7,2.5,-3.1,5.6,-3.1c1,0,1.9,0.2,2.8,0.4" class="g8_1" />
<path d="M790.5,924.5c0,-4.3,6.4,-7.8,14.2,-7.8c7.8,0,14.1,3.5,14.1,7.8" class="g8_1" />
<path d="M818.8,924.8c0,1.2,-0.4,2.2,-1.3,3.2m-7.3,3.9c-0.5,0.2,-1,0.3,-1.6,0.4m-13.1,-1.6c-3,-1.4,-5,-3.5,-5,-5.9" class="g10_1" />
<path d="M790.5,922.3c0,-4.3,6.4,-7.8,14.2,-7.8c7.8,0,14.1,3.5,14.1,7.8" class="g10_1" />
<path d="M790,924l0,-2" class="g10_1" />
<path d="M818,924l0,-2" class="g10_1" />
<path d="M799.1,926.7c-6.2,6.5,-8.8,12.8,-8.3,15.8c0.4,3.1,1.5,4,2.7,4c1.3,-0.1,2.2,-0.6,3.5,-2.9c0.7,-1.1,1.7,-3.1,2.6,-5.3" class="g10_1" />
<path d="M791.8,945.3c1.2,0,2.2,-0.5,3.5,-2.8c1.2,-2.4,4.4,-8.2,4.2,-12.4" class="g8_1" />
<path d="M807.5,921.5l0,5" class="g8_1" />
<path d="M807.5,926.1c0.8,2.3,1.9,4.2,2.9,5.6c1.6,2.2,2.9,3.4,2.9,3.4c0,0,1.5,0.7,2.4,-0.4c0.9,-1.1,2.5,-4.5,1.5,-7c-1,-2.6,-5,-5.1,-6.6,-5.6c-1.6,-0.4,-3.1,-0.2,-3.1,-0.2" class="g10_1" />
<path d="M811.6,934.4c0,0,1.5,0.7,2.4,-0.4c0.9,-1.1,2.5,-4.5,1.5,-7c-1,-2.5,-5,-5.1,-6.6,-5.5" class="g8_1" />
<path d="M799.8,948.3c0,-1.2,1.9,-2.2,4.3,-2.2c2.5,0,4.4,1,4.4,2.2" class="g8_1" />
<path d="M799.8,930.3c0,0,0,16.8,0,18c0,1.2,1.9,2.2,4.3,2.2c2.5,0,4.4,-1,4.4,-2.2c0,-1.2,0,-19.3,0,-19.3" class="g10_1" />
<path d="M799.8,946.5c0,-1.2,1.9,-2.2,4.3,-2.2c2.5,0,4.4,1,4.4,2.2" class="g8_1" />
<path d="M799.8,944.8c0,-1.2,1.9,-2.2,4.3,-2.2c2.5,0,4.4,1,4.4,2.2" class="g8_1" />
<path d="M799.8,942.9c0,-1.2,1.9,-2.2,4.3,-2.2c2.5,0,4.4,1,4.4,2.2" class="g8_1" />
<path d="M799.8,941c0,-1.2,1.9,-2.2,4.3,-2.2c2.5,0,4.4,1,4.4,2.2" class="g8_1" />
<path d="M799.8,939.2c0,-1.3,1.9,-2.2,4.3,-2.2c2.5,0,4.4,0.9,4.4,2.2" class="g8_1" />
<path d="M799.8,937.5c0,-1.3,1.9,-2.2,4.3,-2.2c2.5,0,4.4,0.9,4.4,2.2" class="g8_1" />
<path d="M799.8,935.6c0,-1.2,1.9,-2.2,4.3,-2.2c2.5,0,4.4,1,4.4,2.2" class="g8_1" />
<path d="M799.8,933.8c0,-1.2,1.9,-2.2,4.3,-2.2c2.5,0,4.4,1,4.4,2.2" class="g8_1" />
<path d="M799.8,932c0,-1.3,1.9,-2.2,4.3,-2.2c2.5,0,4.4,0.9,4.4,2.2" class="g8_1" />
<path d="M799.8,930.3c0,-1.3,1.9,-2.2,4.3,-2.2c2.5,0,4.4,0.9,4.4,2.2" class="g8_1" />
<path d="M601.3,839.4c0,-1.7,2.5,-3,5.6,-3c1.1,0,2,0.1,2.9,0.4" class="g8_1" />
<path d="M601.9,840.8c-0.4,-0.4,-0.6,-0.9,-0.6,-1.4c0,-1.7,0,-4.2,0,-4.2" class="g10_1" />
<path d="M601.3,835.2c0,-1.7,2.5,-3.1,5.6,-3.1c1.1,0,2,0.2,2.8,0.5" class="g8_1" />
<path d="M592.8,835.1c0,-4.3,6.3,-7.7,14.1,-7.7c7.9,0,14.2,3.4,14.2,7.7" class="g8_1" />
<path d="M621.1,835.4c0,1.2,-0.5,2.3,-1.3,3.3m-7.3,3.9c-0.5,0.1,-1.1,0.2,-1.6,0.3m-13.1,-1.5c-3.1,-1.5,-5,-3.6,-5,-6" class="g10_1" />
<path d="M592.8,832.9c0,-4.2,6.3,-7.7,14.1,-7.7c7.9,0,14.2,3.5,14.2,7.7" class="g10_1" />
<path d="M592,835l0,-3" class="g10_1" />
<path d="M621,835l0,-3" class="g10_1" />
<path d="M601.3,837.3c-6.2,6.5,-8.8,12.8,-8.3,15.9c0.5,3,1.6,4,2.8,3.9c1.2,-0.1,2.2,-0.5,3.5,-2.9c0.6,-1.1,1.7,-3,2.6,-5.2" class="g10_1" />
<path d="M594,855.9c1.3,0,2.2,-0.5,3.5,-2.8c1.3,-2.3,4.5,-8.2,4.3,-12.4" class="g8_1" />
<path d="M609.5,832.5l0,4" class="g8_1" />
<path d="M609.8,836.8c0.8,2.3,1.9,4.1,2.9,5.5c1.5,2.3,2.9,3.4,2.9,3.4c0,0,1.5,0.7,2.4,-0.4c0.9,-1.1,2.5,-4.5,1.5,-7c-1,-2.5,-5,-5.1,-6.6,-5.5c-1.7,-0.5,-3.1,-0.2,-3.1,-0.2" class="g10_1" />
<path d="M613.9,845c0,0,1.5,0.7,2.4,-0.4c0.9,-1.1,2.5,-4.5,1.5,-7c-1,-2.5,-5,-5,-6.6,-5.5" class="g8_1" />
<path d="M602.1,858.9c0,-1.2,1.9,-2.1,4.3,-2.1c2.4,0,4.4,0.9,4.4,2.1" class="g8_1" />
<path d="M602.1,840.9c0,0,0,16.8,0,18c0,1.2,1.9,2.2,4.3,2.2c2.4,0,4.4,-1,4.4,-2.2c0,-1.2,0,-18,0,-18" class="g10_1" />
<path d="M602.1,857.1c0,-1.2,1.9,-2.2,4.3,-2.2c2.4,0,4.4,1,4.4,2.2" class="g8_1" />
<path d="M602.1,855.4c0,-1.2,1.9,-2.2,4.3,-2.2c2.4,0,4.4,1,4.4,2.2" class="g8_1" />
<path d="M602.1,853.5c0,-1.2,1.9,-2.2,4.3,-2.2c2.4,0,4.4,1,4.4,2.2" class="g8_1" />
<path d="M602.1,851.6c0,-1.2,1.9,-2.1,4.3,-2.1c2.4,0,4.4,0.9,4.4,2.1" class="g8_1" />
<path d="M602.1,849.8c0,-1.2,1.9,-2.2,4.3,-2.2c2.4,0,4.4,1,4.4,2.2" class="g8_1" />
<path d="M602.1,848.1c0,-1.2,1.9,-2.2,4.3,-2.2c2.4,0,4.4,1,4.4,2.2" class="g8_1" />
<path d="M602.1,846.2c0,-1.2,1.9,-2.2,4.3,-2.2c2.4,0,4.4,1,4.4,2.2" class="g8_1" />
<path d="M602.1,844.4c0,-1.2,1.9,-2.1,4.3,-2.1c2.4,0,4.4,0.9,4.4,2.1" class="g8_1" />
<path d="M602.1,842.6c0,-1.2,1.9,-2.2,4.3,-2.2c2.4,0,4.4,1,4.4,2.2" class="g8_1" />
<path d="M602.1,840.9c0,-1.2,1.9,-2.2,4.3,-2.2c2.4,0,4.4,1,4.4,2.2" class="g8_1" />
<path d="M494.3,900.2c0,-1.7,2.5,-3.1,5.6,-3.1c1,0,2,0.2,2.8,0.4" class="g8_1" />
<path d="M494.8,901.5c-0.3,-0.4,-0.5,-0.9,-0.5,-1.3c0,-1.7,0,-4.3,0,-4.3" class="g10_1" />
<path d="M494.3,895.9c0,-1.7,2.5,-3,5.6,-3c1,0,2,0.1,2.8,0.4" class="g8_1" />
<path d="M485.7,895.8c0,-4.2,6.4,-7.7,14.2,-7.7c7.8,0,14.1,3.5,14.1,7.7" class="g8_1" />
<path d="M514,896.2c0,1.1,-0.4,2.2,-1.2,3.2m-7.4,3.9c-0.5,0.1,-1,0.2,-1.6,0.3m-13.1,-1.5c-3,-1.4,-5,-3.6,-5,-5.9" class="g10_1" />
<path d="M485.7,893.7c0,-4.3,6.4,-7.8,14.2,-7.8c7.8,0,14.1,3.5,14.1,7.8" class="g10_1" />
<path d="M485,895l0,-2" class="g10_1" />
<path d="M514,895l0,-2" class="g10_1" />
<path d="M494.3,898.1c-6.2,6.4,-8.8,12.7,-8.3,15.8c0.4,3,1.5,4,2.8,3.9c1.2,0,2.1,-0.5,3.4,-2.8c0.7,-1.2,1.7,-3.1,2.6,-5.3" class="g10_1" />
<path d="M487,916.7c1.2,-0.1,2.2,-0.6,3.5,-2.9c1.3,-2.3,4.4,-8.2,4.2,-12.4" class="g8_1" />
<path d="M502.5,893.5l0,4" class="g8_1" />
<path d="M502.7,897.5c0.9,2.3,1.9,4.1,2.9,5.6c1.6,2.2,2.9,3.3,2.9,3.3c0,0,1.5,0.7,2.4,-0.4c0.9,-1.1,2.6,-4.5,1.5,-7c-1,-2.5,-5,-5,-6.6,-5.5c-1.6,-0.5,-3.1,-0.2,-3.1,-0.2" class="g10_1" />
<path d="M506.8,905.8c0,0,1.5,0.6,2.4,-0.5c0.9,-1,2.5,-4.5,1.5,-7c-1,-2.5,-5,-5,-6.6,-5.5" class="g8_1" />
<path d="M495,919.7c0,-1.2,1.9,-2.2,4.4,-2.2c2.4,0,4.3,1,4.3,2.2" class="g8_1" />
<path d="M495,901.6c0,0,0,16.9,0,18.1c0,1.2,1.9,2.1,4.4,2.1c2.4,0,4.3,-0.9,4.3,-2.1c0,-1.2,0,-19.3,0,-19.3" class="g10_1" />
<path d="M495,917.8c0,-1.2,1.9,-2.2,4.4,-2.2c2.4,0,4.3,1,4.3,2.2" class="g8_1" />
<path d="M495,916.1c0,-1.2,1.9,-2.2,4.4,-2.2c2.4,0,4.3,1,4.3,2.2" class="g8_1" />
<path d="M495,914.3c0,-1.3,1.9,-2.2,4.4,-2.2c2.4,0,4.3,0.9,4.3,2.2" class="g8_1" />
<path d="M495,912.4c0,-1.2,1.9,-2.2,4.4,-2.2c2.4,0,4.3,1,4.3,2.2" class="g8_1" />
<path d="M495,910.5c0,-1.2,1.9,-2.2,4.4,-2.2c2.4,0,4.3,1,4.3,2.2" class="g8_1" />
<path d="M495,908.8c0,-1.2,1.9,-2.2,4.4,-2.2c2.4,0,4.3,1,4.3,2.2" class="g8_1" />
<path d="M495,906.9c0,-1.2,1.9,-2.1,4.4,-2.1c2.4,0,4.3,0.9,4.3,2.1" class="g8_1" />
<path d="M495,905.2c0,-1.2,1.9,-2.2,4.4,-2.2c2.4,0,4.3,1,4.3,2.2" class="g8_1" />
<path d="M495,903.3c0,-1.2,1.9,-2.2,4.4,-2.2c2.4,0,4.3,1,4.3,2.2" class="g8_1" />
<path d="M495,901.6c0,-1.2,1.9,-2.2,4.4,-2.2c2.4,0,4.3,1,4.3,2.2" class="g8_1" />
<path d="M675.3,841.8l0,3.6L677,870l48.4,-1.1l0,-3.2L712,859.3l-2.9,1.9l10.5,-6.4l0,-3.3l-17.5,-8l-10.4,6.1Z" class="g10_1" />
<path d="M675.3,845.4l16.5,7.6l10.5,-6.2l17.3,8" class="g8_1" />
<path d="M691.5,853.5l0,-4" class="g8_1" />
<path d="M702.5,846.5l0,-3" class="g8_1" />
<path d="M709.1,861.2l16.3,7.7" class="g8_1" />
<path d="M715.9,836.5l-3.5,2c0,0,-1.8,1.1,-1.7,2.2c0.1,1.1,0,2.2,0,2.2c0,0,0,0.8,1.4,1.7c1.4,0.8,11.5,5.3,11.5,5.3c0,0,3.9,1.3,5.7,0c1.7,-1.3,4.8,-3.1,4.8,-3.1c0,0,3.4,-0.9,5.4,0.3c1.9,1.2,12.3,6.3,12.3,6.3c0,0,2.9,0.4,4.3,-0.6c1.4,-1,5.2,-3.1,5.9,-3.8c0.8,-0.7,1.2,-2.1,1.2,-2.7c0,-0.5,0.1,-1.5,-0.4,-2.8c-0.6,-1.4,-3.7,-6.6,-3.7,-6.6" class="g10_1" />
<path d="M717.4,837.8c-0.1,-0.9,-1.5,-1.6,-2.7,-2.1c-1.2,-0.6,-10.4,-5,-10.4,-5c0,0,-1.4,-1,-1.4,-2.1c0,-1,0.2,-2,0.2,-2l6.5,-4.2c0,0,1.5,-0.8,3,-0.7c1.5,0.1,18.6,1.6,18.6,1.6c0,0,1.7,0.2,3.3,-0.9c1.5,-1,9.9,-5.4,9.9,-5.4c0,0,6.9,-2,11.4,-2c4.6,0,11.2,1.6,14.6,4.9c3.5,3.2,2.5,8,-0.3,10c-2.9,2.1,-11.6,7.4,-11.6,7.4c0,0,-0.9,0,-1.1,1.2" class="g10_1" />
<path d="M703.1,829.7l6.5,-4.1c0,0,1.5,-0.9,3,-0.8c1.5,0.1,18.6,1.6,18.6,1.6c0,0,1.7,0.2,3.3,-0.8c1.5,-1,9.9,-5.5,9.9,-5.5c0,0,6.9,-2,11.4,-2c4.6,0,11.2,1.6,14.6,4.9c1,0.9,1.7,2,2,3.1" class="g8_1" />
<path d="M757.4,838.5c-0.1,1,4.5,7.9,4.5,7.9c0,0,0.9,2.2,-1.1,3.4" class="g8_1" />
<path d="M717.4,837.8c0,0.8,-0.4,0.9,-1.1,1.4c-0.8,0.5,-4.3,2.6,-4.3,2.6c0,0,-1.1,1.2,-0.2,2.2" class="g8_1" />
<path d="M741.1,830.9c1.3,0.8,4.1,1.2,6.3,0.1c2.2,-1.2,10.5,-6.2,10.5,-6.2" class="g10_1" />
<path d="M739.7,832.7c0,-1,0.9,-1.5,1.8,-2.1c0.8,-0.6,11.1,-6.1,11.1,-6.1c0,0,5.2,-1.5,6.5,0.5" class="g10_1" />
<path d="M739.7,832.7c0.1,1.1,3.1,2.5,4.9,2.2c1.9,-0.3,2.5,-0.5,3.7,-1.2c1.1,-0.7,10.4,-5.8,10.4,-5.8c0,0,2,-0.7,0.4,-2.9" class="g8_1" />
<path d="M753,853l0,-27" class="g13_1" />
<path d="M753.5,853.5l0,-27" class="g14_1" />
<path d="M746.5,872.8c0,-2.5,3.3,-4.5,7.5,-4.5c4.1,0,7.5,2,7.5,4.5" class="g10_1" />
<path d="M761.5,874.8c0,2.5,-3.4,4.5,-7.5,4.5c-4.2,0,-7.5,-2,-7.5,-4.5" class="g10_1" />
<path d="M746.5,875.3c0,-2.5,3.3,-4.6,7.5,-4.6c4.1,0,7.5,2.1,7.5,4.6" class="g8_1" />
<path d="M750.3,868.9l0,-6.3l3.7,-7.8l3.7,7.1l0,6.8" class="g10_1" />
<path d="M750.6,867.7c0,-1.1,1.5,-2,3.4,-2c1.9,0,3.4,0.9,3.4,2" class="g8_1" />
<path d="M750.6,865.4c0,-1.2,1.5,-2.1,3.4,-2.1c1.9,0,3.4,0.9,3.4,2.1" class="g8_1" />
<path d="M750.6,863.1c0,-1.1,1.5,-2,3.4,-2c1.9,0,3.4,0.9,3.4,2" class="g8_1" />
<path d="M750.6,860.8c0,-1.1,1.5,-2,3.4,-2c1.9,0,3.4,0.9,3.4,2" class="g8_1" />
<path d="M746,874l0,-2" class="g10_1" />
<path d="M761,874l0,-2" class="g10_1" />
<path d="M750.6,875.5l0.9,-0.7" class="g8_1" />
<path d="M750.6,875.5c2.2,1.6,1.6,2.9,0.6,3.3" class="g8_1" />
<path d="M756.6,874.4l1.2,1" class="g8_1" />
<path d="M757.8,875.4c-2,2,-1.2,2.8,-0.1,3.1" class="g8_1" />
<path d="M751.6,874.7c1.8,2,3.4,1.3,4.8,-0.4" class="g8_1" />
<path d="M756.5,879.2c-1.5,-1.5,-2.9,-1.1,-4.2,0.2" class="g8_1" />
<path d="M189.8,220.3c0.1,-0.1,0.3,-0.2,0.4,-0.3" class="g8_1" />
<path d="M190.2,220c0.3,-0.1,0.7,-0.1,1.1,-0.1c0.6,0.2,1.2,0.5,2,1.1c6.3,-1.6,12.2,-2.7,18.1,-3.4c5.8,-0.5,11.2,-0.6,16.5,-0.2" class="g8_1" />
<path d="M228.6,217.7c-0.3,-0.5,-0.9,-0.9,-1.7,-1.2c-0.8,-0.2,-1.8,-0.4,-3,-0.4c-7.2,-0.2,-13.6,0.1,-19.2,0.7c-5.6,0.7,-10.5,1.8,-14.5,3.2" class="g10_1" />
<path d="M187.3,228.5c1,0.7,2.1,1.4,3.2,2c1.1,0.6,2.2,1.1,3.4,1.5c3.8,-0.5,7.6,-1,11.4,-1.4" class="g8_1" />
<path d="M205.3,230.6c0.3,-0.1,0.6,-0.1,0.9,-0.2c0,-0.4,0,-0.9,0,-1.4c-0.4,-0.3,-0.7,-0.6,-0.9,-0.9c-0.1,-0.3,-0.2,-0.5,-0.2,-0.8c0.2,-1.2,0.7,-2.1,1.3,-2.7c0.7,-0.6,1.6,-1,2.7,-1c1.3,-0.1,2.2,-0.1,3,0c0.7,0.2,1.1,0.5,1.2,0.9c0.9,-0.1,2,-0.2,3.3,-0.4c1.4,-0.3,3,-0.6,4.7,-1.1c1.1,-0.3,1.9,-0.3,2.5,0.1" class="g10_1" />
<path d="M223.8,223.1c0.6,0.4,0.9,1.2,1,2.4c0.1,1,0.2,2.1,0.3,3.2" class="g8_1" />
<path d="M189.8,220.3c-0.4,2,-0.8,3.9,-1.3,5.9c0,0.3,-0.2,0.5,-0.4,0.6c-0.2,0.2,-0.4,0.2,-0.7,0.2c0,0.5,-0.1,1,-0.1,1.5" class="g10_1" />
<path d="M193.3,221.1c-0.1,2.4,-0.1,4.9,-0.2,7.4c0,0.3,0.1,0.7,0.2,1c0.2,0.4,0.4,0.7,0.7,1.1" class="g8_1" />
<path d="M194.1,230.6l12.1,-1.5" class="g8_1" />
<path d="M194.1,230.6L193.5,243" class="g8_1" />
<path d="M225.1,228.7c0,1,0.2,1.7,0.5,2.2c0.3,0.4,0.9,0.6,1.5,0.6" class="g8_1" />
<path d="M222.2,222.9c0.2,1.3,0.4,2.6,0.6,3.9c0.1,0.9,0,1.6,-0.4,2.1c-0.4,0.6,-1.2,0.9,-2.2,1.1c-4.1,0.7,-8.3,1.5,-12.5,2.2" class="g10_1" />
<path d="M224.4,230.2l-1.6,-1" class="g8_1" />
<path fill-rule="evenodd" d="M195.2,222.9c-0.1,0.5,0.1,1,0.5,1c0.3,0.1,0.6,-0.2,0.7,-0.7c0.1,-0.5,-0.1,-1,-0.4,-1c-0.3,-0.1,-0.7,0.3,-0.8,0.7Z" class="g15_1" />
<path fill-rule="evenodd" d="M194.8,228.1c0,0.5,0.1,0.9,0.5,1c0.3,0,0.6,-0.3,0.7,-0.8c0.1,-0.5,-0.1,-0.9,-0.4,-1c-0.3,-0.1,-0.7,0.3,-0.8,0.8Z" class="g15_1" />
<path fill-rule="evenodd" d="M205,222.4c-0.1,0.5,0.1,1,0.4,1.1c0.3,0,0.7,-0.3,0.8,-0.8c0.1,-0.5,-0.1,-0.9,-0.4,-1c-0.4,-0.1,-0.7,0.3,-0.8,0.7Z" class="g15_1" />
<path d="M227.2,222.3c0,-1,-0.3,-1.6,-0.9,-2.1c-0.7,-0.4,-1.7,-0.6,-3.1,-0.5c-1.7,-0.1,-3.8,-0.1,-6.5,0c-2.6,0.1,-5.7,0.3,-9.4,0.6c-1.2,0.1,-2.1,0.5,-2.6,1.1c-0.5,0.7,-0.7,1.5,-0.5,2.8c0.2,0.8,0.4,1.5,0.5,2.2" class="g8_1" />
<path d="M205.6,225.9c0.7,-0.1,1.5,0,2.1,0.2c0.7,0.3,1.3,0.7,1.8,1.3c0.5,-0.9,0.9,-1.8,1.3,-2.6" class="g10_1" />
<path d="M208.2,223.7c1.2,0.2,2.1,0.6,2.6,1.1c0.6,0.4,1,1,1.1,1.6" class="g8_1" />
<path d="M211.9,226.4c0.2,-0.5,0.4,-1,0.6,-1.3c0.3,-0.3,0.6,-0.5,0.9,-0.6" class="g10_1" />
<path d="M211.9,226.4l-1.4,-0.8" class="g10_1" />
<path d="M209.5,227.4l-1.7,-0.9" class="g8_1" />
<path d="M207,225.9c0.3,0.2,0.6,0.5,0.9,0.7" class="g8_1" />
<path d="M208,248.3c0.3,-0.2,0.7,-0.5,1,-0.7c7.2,-1.6,14.5,-3.3,21.7,-4.9c0,0,1.9,-1.2,2.3,-2.7c0,-1.8,0.1,-3.6,0.1,-5.4c-0.3,-2.4,-2.3,-4,-2.3,-4c-0.3,-0.4,-0.3,-0.6,-0.4,-0.9c-0.2,-0.3,-0.3,-0.8,-0.4,-1.2c0,0,-1.4,-10.7,-1.4,-10.7" class="g10_1" />
<path d="M205.3,230.6c0.2,3.8,0.1,8.2,-0.1,13.1c-0.3,4.9,-0.8,10.3,-1.5,16.2" class="g10_1" />
<path d="M203.7,259.9l-3.1,0.7" class="g8_1" />
<path d="M233,234.7l-23.9,4.9" class="g8_1" />
<path d="M209.1,239.6c0,-1.1,0,-2.3,0,-3.5c0,-0.1,0,-0.1,-0.1,-0.2c0,0,-0.1,-0.1,-0.2,-0.1c-0.3,-0.1,-0.5,-0.2,-0.6,-0.4c-0.2,-0.2,-0.3,-0.5,-0.3,-0.8c0,-1.1,-0.2,-2.1,-0.5,-2.9c-0.3,-0.9,-0.7,-1.6,-1.2,-2.1" class="g10_1" />
<path d="M233,240l-28,5.9" class="g8_1" />
<path d="M205,245.9c0.2,-0.1,0.3,-0.2,0.3,-0.3c0.1,-0.1,0.2,-0.2,0.2,-0.4c0,-1.6,0.1,-3.2,0.2,-4.8c0,-1.2,0,-2.4,0,-3.6c0,0,-0.1,-0.1,-0.1,-0.1c0,-0.1,-0.1,-0.1,-0.2,-0.2" class="g8_1" />
<path d="M208.9,236l-3.1,0.7" class="g8_1" />
<path d="M207.8,235.4l-2.2,0.5" class="g8_1" />
<path d="M216.8,230.7c1.6,0.1,2.9,0.7,3.8,1.6c0.9,0.9,1.5,2.3,1.8,4c0,0.1,0.1,0.3,0.1,0.3c0.1,0.1,0.1,0.2,0.2,0.2" class="g8_1" />
<path d="M222.3,242.3c-0.2,0.7,-0.7,1.3,-1.3,1.8c-0.7,0.6,-1.7,1.1,-2.9,1.4" class="g8_1" />
<path d="M222.8,236.8l-0.1,5.3" class="g8_1" />
<path d="M227.7,231.3l2.2,-0.5" class="g8_1" />
<path d="M225,230.9c0,0.3,-0.2,0.6,-0.4,0.7c-0.1,0.2,-0.4,0.3,-0.7,0.3c-0.7,0.2,-1.4,0.3,-2.2,0.5" class="g8_1" />
<path d="M220.1,232.8l-11.3,2" class="g8_1" />
<path d="M202.2,231.1c0.2,3.8,0.1,8.2,-0.1,13.1c-0.3,4.9,-0.8,10.4,-1.5,16.4" class="g8_1" />
<path d="M203.9,258.8l2.9,-0.7" class="g8_1" />
<path d="M206.8,258.1c0.4,-1.1,0.8,-2.4,1,-3.8c0.2,-1.4,0.3,-3.1,0.3,-4.8c-0.1,-0.7,-0.1,-1.4,0,-2c0.1,-0.6,0.4,-1.1,0.7,-1.5" class="g10_1" />
<path d="M209.5,247.6c0.8,0.3,1.4,1.6,1.5,3.2c0.2,1.9,-0.4,3.6,-1.4,3.6c-0.6,0.3,-1.2,0.5,-1.9,0.8" class="g10_1" />
<path d="M210.9,252.9l7.2,4.3" class="g10_1" />
<path d="M218.1,257.2l-25.3,6.2" class="g8_1" />
<path d="M192.8,263.4l-4.3,-2.9" class="g8_1" />
<path d="M190.6,271.7l-0.2,-0.1" class="g8_1" />
<path d="M193.8,251.7l0,1.6l-2.8,0.5l-1.1,-0.5" class="g10_1" />
<path d="M187.6,252.1c0,-1.7,0,-3.4,0,-5.1c-0.1,-0.8,-0.2,-1.7,-0.2,-2.6c0,-0.9,-0.1,-2,-0.1,-3c0,-0.2,-0.1,-0.5,-0.1,-0.6c-0.1,-0.2,-0.1,-0.4,-0.2,-0.5c-0.1,-0.1,-0.2,-0.2,-0.3,-0.4c0,-0.2,-0.1,-0.4,-0.1,-0.7c0.1,-1.1,0.1,-2.5,0.2,-4.3c0.1,-1.8,0.3,-3.9,0.4,-6.4" class="g10_1" />
<path d="M190.9,253.8c0,-1.7,0,-3.3,0,-5c0.3,-0.7,0.5,-1.5,0.7,-2.3c0.2,-0.9,0.4,-1.8,0.5,-2.7c0.1,-0.2,0.2,-0.4,0.2,-0.5" class="g8_1" />
<path d="M192.3,243.3c0.2,-0.1,0.3,-0.1,0.5,-0.1c0.2,0.1,0.4,0.2,0.6,0.2c0.3,0.1,0.5,0.1,0.9,0" class="g10_1" />
<path d="M187.6,247l3.4,1.7l7.3,-1l1.4,-4.5" class="g8_1" />
<path d="M187.6,252.1l0.8,0.4l1.3,-0.1" class="g10_1" />
<path d="M187.1,259.4L183,256.7" class="g8_1" />
<path d="M188.5,252.5l0,-1" class="g8_1" />
<path d="M189,253l0,-1" class="g10_1" />
<path d="M188.4,251.6c0.1,-0.4,0.3,-0.7,0.6,-0.8" class="g8_1" />
<path d="M189,250.8c0.3,-0.1,0.7,0.4,0.9,1c0,0.2,0,0.4,0,0.5" class="g10_1" />
<path d="M200.4,259.7L199,260" class="g8_1" />
<path d="M199,260c0.3,-2.7,0.6,-5.5,0.8,-8.2c0.2,-2.7,0.3,-5.4,0.3,-8.1c0,-0.2,-0.1,-0.5,-0.2,-0.8" class="g8_1" />
<path d="M199.9,242.9c-0.3,0,-0.6,0,-1,0c-1.5,0.1,-3.1,0.3,-4.6,0.5" class="g10_1" />
<path d="M199,260l-1.2,-0.8" class="g8_1" />
<path d="M198.3,247.7c0,0.7,0,2.1,-0.1,4c-0.1,1.9,-0.2,4.4,-0.4,7.5" class="g8_1" />
<path d="M200.6,260.6c-0.1,0,-0.2,-0.1,-0.3,-0.1c0,0,-0.1,-0.1,-0.1,-0.1" class="g8_1" />
<path d="M201.9,231c0.1,3.8,0.1,8,-0.2,12.9c-0.2,5,-0.7,10.4,-1.4,16.4" class="g8_1" />
<path d="M213.7,256.3l-3.5,-2.1" class="g8_1" />
<path d="M209.7,257.2l-2.2,-1.3" class="g8_1" />
<path d="M212.3,256.8l-3.4,-2.1" class="g10_1" />
<path d="M208.2,257.6l-1,-0.6" class="g10_1" />
<path d="M213.7,256.4l-1.4,0.4" class="g10_1" />
<path d="M209.8,257.3l-1.6,0.4" class="g10_1" />
<path fill-rule="evenodd" d="M230.4,232.6c0.3,0.6,0.2,1.1,0,1.3c-0.3,0.1,-0.8,-0.2,-1.1,-0.7c-0.3,-0.6,-0.3,-1.2,0,-1.3c0.3,-0.2,0.8,0.2,1.1,0.7Z" class="g15_1" />
<path d="M187.1,259.4l3.2,-0.7" class="g8_1" />
<path d="M192.1,258.3l0.9,-0.2" class="g8_1" />
<path d="M193.8,251.7c0,-0.2,0.1,-0.4,0.1,-0.6c0.3,-0.8,1,-1.3,1.7,-1.1" class="g10_1" />
<path d="M195.6,250c0.4,0.1,0.7,0.6,0.7,1.1c0.1,2,0.2,4,0.4,6.1c0,0.4,0.2,0.8,0.3,1.1c0.2,0.2,0.5,0.4,0.8,0.5" class="g8_1" />
<path d="M197.2,258.5L193.5,256" class="g8_1" />
<path d="M192.2,254.4c0.6,0.2,1.2,0.6,1.2,1" class="g10_1" />
<path d="M193.4,255.4c0,0.5,-1,1,-2.3,1c-1.3,0,-2.3,-0.5,-2.3,-1" class="g8_1" />
<path d="M188.8,255.4c0,-0.4,0.6,-0.8,1.3,-1" class="g10_1" />
<path d="M188.5,255.5l0,1" class="g8_1" />
<path d="M189,257.3c0.4,0.4,1.2,0.6,2.1,0.6c0.6,0,1.2,-0.1,1.6,-0.3" class="g10_1" />
<path d="M193.5,256.5l0,-1" class="g8_1" />
<path d="M190.1,253.3c0,0.7,0,1.3,0,2c0,0.3,0.4,0.5,1,0.5c0.6,0,1.1,-0.2,1.1,-0.5c0,-0.6,0,-1.1,0,-1.7" class="g8_1" />
<path d="M190,257l0,3" class="g10_1" />
<path d="M192.5,257.5l0,2" class="g8_1" />
<path d="M190.5,263.5l0,8" class="g8_1" />
<path d="M192.2,263.7l0,5.7l-1.6,2.4" class="g10_1" />
<path d="M192.9,258.1c0.2,0,0.4,-0.1,0.7,-0.1c0.8,0,1.4,0.3,1.4,0.6" class="g8_1" />
<path d="M190.5,257.5l0,2" class="g8_1" />
<path d="M190,263l0,8" class="g10_1" />
<path d="M211.3,225.2c0.1,0.2,0.2,0.5,0.2,0.7" class="g8_1" />
<path d="M211.4,225.9l-0.9,-0.5" class="g8_1" />
<path d="M189,256c0.2,0,0.4,0.2,0.5,0.6c0.1,0.3,-0.1,0.6,-0.3,0.7" class="g8_1" />
<path d="M188.4,256.2c0.2,-0.1,0.5,0.2,0.5,0.5c0.1,0.4,0,0.7,-0.3,0.7" class="g8_1" />
<path d="M193.1,256.4c-0.3,-0.2,-0.7,-0.1,-0.9,0.2c-0.2,0.3,-0.1,0.6,0.1,0.8" class="g8_1" />
<path d="M192.8,257.7c0.2,0.1,0.6,0,0.8,-0.2c0.2,-0.3,0.1,-0.7,-0.1,-0.9" class="g10_1" />
<path d="M193.5,256.6c-0.2,-0.1,-0.6,0,-0.8,0.3c-0.2,0.3,-0.2,0.6,0.1,0.8" class="g8_1" />
<path d="M193.5,256.7l-0.4,-0.3" class="g8_1" />
<path d="M192.7,257.6l-0.4,-0.2" class="g8_1" />
<path d="M192.8,263.3l-3,-1l-4.3,-2.9" class="g8_1" />
<path d="M187.1,259.4l-3,-1l-4.2,-2.8" class="g8_1" />
<path d="M213.3,256.5l-3.6,-2.1" class="g8_1" />
<path d="M209.3,257.4l-1.9,-1.2" class="g8_1" />
<path d="M189.8,262.3l-0.2,0.4" class="g8_1" />
<path d="M184.1,258.4l-0.2,0.4" class="g8_1" />
<path d="M218.1,257.2c0,0.2,0,0.3,0,0.5c-8.4,2,-16.9,4,-25.3,6.1c-1,-0.3,-2.1,-0.7,-3.2,-1c-1.4,-1,-2.9,-2,-4.3,-3c0,-0.1,0.1,-0.2,0.2,-0.4c1,0.3,2,0.6,3,1c2,-0.4,3.9,-0.8,5.9,-1.3c0.3,-0.1,0.6,-0.3,0.6,-0.5" class="g10_1" />
<path d="M188.7,255.4l-5.7,1.3l0,-0.1l-3,-1l-0.1,0.1l-0.2,0.4l4.1,2.8l1.6,0.5" class="g10_1" />
<path d="M187.1,259.9l3.2,-0.8" class="g8_1" />
<path d="M192.2,258.7c0.2,-0.1,0.5,-0.1,0.8,-0.2c0.1,0,0.4,-0.1,0.6,-0.1c0.6,0,1,0.2,1.2,0.3" class="g8_1" />
<path d="M189.2,257.3c-0.2,0,-0.3,0.1,-0.5,0.1l-0.1,0c-0.2,0.1,-0.4,-0.2,-0.5,-0.5c-0.1,-0.4,0.1,-0.7,0.3,-0.7c0,0,-0.1,-0.1,-0.1,-0.1c0.2,0,0.5,0,0.7,-0.1" class="g10_1" />
<path d="M229.3,237.3l0.7,-0.2l0,-0.7" class="g8_1" />
<path d="M230,237.1l0.2,0.1" class="g8_1" />
<path d="M230.5,236.9l0.7,-0.1l0,-0.7" class="g8_1" />
<path d="M231.2,236.8l0.2,0.1" class="g8_1" />
<path d="M231.8,236.7l0.6,-0.2l0,-0.7" class="g8_1" />
<path d="M232.4,236.5l0.2,0.2" class="g8_1" />
<path d="M231.8,238l0.6,-0.2l0,-0.6" class="g8_1" />
<path d="M232.4,237.9l0.2,0.1" class="g8_1" />
<path d="M231.8,239.4l0.6,-0.2l0,-0.7" class="g8_1" />
<path d="M232.4,239.2l0.2,0.2" class="g8_1" />
<path d="M230.5,239.6l0.7,-0.1l0,-0.7" class="g8_1" />
<path d="M231.2,239.5l0.2,0.1" class="g8_1" />
<path d="M230.5,238.3l0.6,-0.2l0,-0.7" class="g8_1" />
<path d="M231.2,238.2l0.2,0.1" class="g8_1" />
<path d="M229.3,238.6l0.7,-0.2l0,-0.7" class="g8_1" />
<path d="M230,238.4l0.2,0.2" class="g8_1" />
<path d="M229.3,239.9l0.6,-0.1l0,-0.7" class="g8_1" />
<path d="M229.9,239.8l0.2,0.1" class="g8_1" />
<path d="M194.3,229.7l10.6,-1.2" class="g8_1" />
<path fill-rule="evenodd" d="M268.3,247.2c11.4,-6.5,22.8,-13.1,34.2,-19.8c0.4,-0.5,0.9,-1.1,1.3,-1.7c0.2,-0.2,0.2,-0.4,0.2,-0.5C303.9,225,303.7,225,303.5,225c-0.8,0,-1.5,0.1,-2.3,0.2c-11.3,6.5,-22.6,13.1,-33.9,19.6c0.3,0.8,0.6,1.6,1,2.4Z" class="g16_1" />
<path d="M259.9,252.1c14.2,-8.3,28.4,-16.5,42.6,-24.7c0.4,-0.5,0.9,-1.1,1.3,-1.7c0.2,-0.2,0.2,-0.4,0.2,-0.5C303.9,225,303.7,225,303.5,225c-0.8,0,-1.5,0.1,-2.3,0.2C287.1,233.3,273,241.4,259,249.6" class="g10_1" />
<path d="M301.8,227.3c0.2,-0.5,0.5,-0.8,0.8,-1.1c0.3,-0.3,0.7,-0.5,1.2,-0.6" class="g8_1" />
<path d="M300.8,225.9c0.5,0,1.1,-0.1,1.5,-0.3c0.5,-0.1,0.9,-0.3,1.3,-0.6" class="g8_1" />
<path fill-rule="evenodd" d="M271.6,238.4c-0.7,0.3,-1.3,0.7,-1.9,1.1c-0.4,0.2,-0.7,0.5,-0.9,0.8c-0.2,0.3,-0.4,0.7,-0.5,1.2c0,0.3,0,0.5,-0.1,0.6c-0.1,0.1,-0.3,0.2,-0.5,0.1c-0.6,-0.5,-1.4,-0.8,-2,-0.8c-0.6,-0.1,-1.4,0,-2,0.3c-6.8,3.9,-13.7,7.9,-20.5,11.8c-1.5,1.5,-2.4,2.9,-2.6,4.3c-0.2,1.5,0.2,2.9,1.1,4.2c1.2,1.4,2.6,2.3,3.9,2.5c1.4,0.2,3,-0.1,4.6,-1.1c6.4,-3.7,12.8,-7.4,19.2,-11.1c0.7,-0.6,1.2,-1.2,1.5,-1.9c0.3,-0.6,0.4,-1.4,0.4,-2.1c0,-0.3,0.2,-0.5,0.3,-0.6c0.1,0,0.3,0.1,0.5,0.3c0.4,0.2,0.8,0.4,1.1,0.4c0.4,0,0.8,-0.1,1.1,-0.2c0.7,-0.4,1.5,-0.9,2.2,-1.3c0.7,-0.7,1,-1.5,0.9,-2.5c0,-1,-0.5,-2.2,-1.3,-3.4c-0.8,-1.1,-1.6,-1.9,-2.3,-2.3c-0.8,-0.5,-1.5,-0.6,-2.2,-0.3Z" class="g16_1" />
<path d="M268.4,242.1c-0.1,-1.1,0.3,-2,1,-2.4c0.6,-0.4,1.4,-0.8,2.1,-1.2c1.3,-0.8,3.5,0.5,4.9,2.8c1.3,2.3,1.3,4.9,0,5.6c-0.7,0.4,-1.4,0.9,-2.1,1.3c-0.8,0.4,-1.8,0.2,-2.8,-0.4" class="g10_1" />
<path d="M270.9,248.7c-0.1,-1.1,-0.5,-2.3,-1.2,-3.6c-0.5,-0.9,-1.2,-1.7,-1.9,-2.3" class="g8_1" />
<path d="M271.4,247.2c-0.1,-0.7,-0.3,-1.7,-0.8,-2.5c-0.5,-0.9,-1.2,-1.6,-1.8,-2" class="g8_1" />
<path d="M272.8,247.7c-0.5,-0.2,-0.9,-0.2,-1.1,-0.1c-0.2,0,-0.4,0.3,-0.4,0.5c0,0.9,-0.1,1.8,-0.4,2.4c-0.3,0.7,-0.8,1.3,-1.4,1.6c-6.8,4,-13.6,7.9,-20.5,11.9c-0.9,0.4,-1.5,0.6,-2.4,0.6c-3.3,0,-6,-2.7,-6,-6c0,-1.9,1.1,-3.8,2.6,-4.9c6.7,-4,13.6,-7.9,20.4,-11.9c0.5,-0.3,1.2,-0.4,1.8,-0.4c0.7,0.1,1.5,0.4,2.3,0.8c0.3,0.1,0.7,0.1,0.9,0.1c0.2,-0.1,0.4,-0.5,0.5,-0.9" class="g10_1" />
<path d="M244.1,253.7c1.6,0.2,3.4,1.5,4.6,3.7c1.2,2,1.5,4.1,1.1,5.6" class="g8_1" />
<path d="M273.8,248.1c1.1,-0.9,1,-3.1,-0.2,-5.2c-1.2,-2.1,-3.1,-3.3,-4.4,-2.8" class="g8_1" />
<path d="M247,253.8L265.5,243" class="g8_1" />
<path d="M248.8,254.8l17.9,-10.6" class="g8_1" />
<path d="M250.8,258.5l18.1,-11" class="g8_1" />
<path d="M251.1,260.6l18.1,-11" class="g8_1" />
<path d="M248.8,254.8c-0.7,0.5,-2.9,0,-1.8,-1" class="g8_1" />
<path d="M250.8,258.5c-1.1,0.7,-1,2.7,0.3,2.1" class="g8_1" />
<path d="M269.2,249.6c1.1,-0.6,1.3,-3.1,-0.3,-2.1" class="g8_1" />
<path d="M266.7,244.2c1.1,-0.7,0,-1.9,-1.2,-1.2" class="g8_1" />
<path fill-rule="evenodd" d="M393.9,230c0.6,0.2,1.2,0.3,1.8,0.5c0.6,0.1,1.3,0.2,1.9,0.2c0.3,0.1,0.6,0.3,0.9,0.5c0.3,0.2,0.6,0.6,0.8,1c0.3,0.5,0.5,1.1,0.6,1.5c0,0.4,0,0.8,-0.2,1.2c-0.2,0.3,-0.4,0.7,-0.5,1c-0.1,0.3,-0.2,0.7,-0.3,1.1c0,0.6,-0.2,1.1,-0.4,1.5c-0.3,0.3,-0.5,0.7,-0.9,0.8c-1.8,1.1,-3.7,2.2,-5.6,3.3c-0.1,0.4,-0.3,0.7,-0.5,1c-0.1,0.2,-0.4,0.4,-0.6,0.5c-0.5,1.1,-1.2,2.1,-2,2.9c-0.9,0.8,-1.9,1.4,-3.2,1.9c-0.1,0.3,-0.4,0.7,-1,1.1c-0.6,0.4,-1.4,0.9,-2.5,1.4c0,0.2,-0.2,0.4,-0.4,0.6c-0.1,0.1,-0.4,0.3,-0.6,0.4c-1.7,1,-3.4,2,-5.1,3c-0.3,0.4,-0.6,0.8,-0.9,1c-0.4,0.3,-0.8,0.6,-1.2,0.8c-2.3,1.4,-4.7,2.7,-7.1,4.1c0,0.4,0,0.9,0,1.3c-1,0.6,-2.1,1.2,-3.2,1.8c-0.1,-0.1,-0.3,-0.1,-0.4,-0.2c0,-0.6,0,-1.2,0,-1.8c-0.8,0.4,-1.5,0.9,-2.3,1.3c-0.1,0.1,-0.2,0.2,-0.3,0.3c-0.1,0.1,-0.2,0.3,-0.2,0.5c0,0.1,0,0.3,0,0.5c-0.5,0.3,-1,0.6,-1.6,1c-1.5,0.8,-3.1,1.1,-4.7,1.1c-1.6,-0.1,-3.3,-0.7,-5,-1.8c-1.2,-0.6,-2.3,-1.4,-3.5,-2.1c-0.6,-0.9,-0.8,-2,-0.8,-3.2c0,-1.2,0.3,-2.6,0.8,-4c0.2,-0.3,0.4,-0.7,0.6,-1c0.2,-0.2,0.3,-0.5,0.5,-0.7c-0.4,-0.2,-1.1,-0.5,-1.9,-0.7c-0.8,-0.1,-1.9,-0.4,-3.1,-0.6c-2.2,-0.5,-4.2,-1.2,-5.7,-1.8c-1.6,-0.5,-2.9,-1.2,-3.7,-1.8c-0.5,-0.3,-1,-0.6,-1.4,-0.6c-0.4,0,-0.8,0,-1.1,0.2c-1.2,0.5,-2.3,0.9,-3.2,1c-0.9,0.1,-1.6,0,-2.1,-0.3c-2.5,-1.4,-5,-2.9,-7.5,-4.3c-0.2,-0.2,-0.3,-0.4,-0.5,-0.6c-0.4,-0.2,-0.7,-0.4,-1.1,-0.6c-0.7,-1,-1.1,-2.2,-1.1,-3.6c0,-1.4,0.2,-3,0.8,-4.8c0.1,-0.3,0.3,-0.6,0.4,-0.9c0.4,-0.3,0.7,-0.7,0.9,-1.2c0.2,-0.4,0.4,-0.9,0.5,-1.5c0.3,-0.4,0.7,-0.9,1.1,-1.3c2.6,-1.6,5.4,-3.2,8.1,-4.7c0.4,0,0.8,-0.1,1.1,-0.4c0.4,-0.2,0.8,-0.5,1.1,-0.9c0.9,-0.5,1.7,-1,2.6,-1.5c0.2,-0.1,0.6,-0.2,0.8,-0.2c0.3,0,0.7,0.1,0.9,0.2c2.8,1.5,5.6,3,8.4,4.5c0.5,0.3,0.9,1,1.3,1.8c0.4,0.9,0.7,2.1,0.9,3.5c0.1,0.7,0.2,1.4,0.3,2.1c-0.2,1.1,-0.4,2.2,-0.7,3.1c-0.3,0.9,-0.7,1.6,-1.1,2.2c1.9,0.5,3.6,1,4.9,1.4c1.3,0.5,2.5,1,3.2,1.4c0.8,0.3,1.5,0.6,2.1,0.6c0.6,0.1,1.2,-0.1,1.6,-0.3c0.3,-0.2,0.5,-0.3,0.8,-0.3c0.2,0,0.4,0.1,0.6,0.3c0.4,-0.4,0.7,-0.7,1,-0.8c0.3,-0.1,0.6,0,0.8,0.1c0.8,0.5,1.7,0.9,2.6,1.4c0.5,-0.3,1.1,-0.7,1.7,-1c0.4,-0.1,0.8,-0.2,1.1,-0.1c0.3,0.1,0.6,0.2,0.7,0.5c3.3,-1.9,6.6,-3.8,10,-5.7c0.2,-0.1,0.5,-0.2,0.6,-0.2c0.1,-0.1,0.3,-0.2,0.3,-0.3c1.1,-0.7,2.2,-1.3,3.3,-2c0.1,-0.1,0.4,-0.1,0.5,-0.1c0.1,0,0.4,0,0.6,0c0,-0.2,0.3,-0.5,0.7,-0.7c0.5,-0.2,1.2,-0.5,2.1,-0.7c0.6,-0.2,1.3,-0.4,1.9,-0.5c0.7,0,1.3,0,2,0.1c0.2,-0.2,0.6,-0.3,0.9,-0.3c0.3,0,0.7,0,1,0.1c1.9,-1.1,3.8,-2.2,5.7,-3.3c0.2,-0.1,0.5,-0.2,0.7,-0.2c0.2,0,0.5,0,0.7,0Z" class="g16_1" />
<path d="M319.9,246.8c-0.1,-0.1,-0.2,-0.2,-0.4,-0.3c-0.2,-0.1,-0.5,-0.3,-0.8,-0.5c-1,-0.6,-2.1,-1.2,-3.2,-1.8c-0.7,-0.9,-1.2,-2.3,-1.2,-3.9c0,-1.7,0.5,-3.5,1.2,-5.3c0.4,-0.4,0.7,-0.8,1,-1.3c0.3,-0.5,0.4,-0.9,0.5,-1.4c0.3,-0.5,0.6,-0.9,1,-1.4c2.7,-1.5,5.4,-3.1,8.1,-4.7c1.2,0.1,2.2,-1.2,2.2,-1.2c0.9,-0.5,1.7,-1,2.6,-1.5c0.6,-0.4,1.2,-0.4,1.6,-0.2c2.8,1.5,5.7,3.1,8.6,4.6" class="g10_1" />
<path d="M324.5,249.6c-2.5,-1.5,-5,-3,-7.5,-4.4c0,-0.1,0,-0.2,-0.1,-0.2" class="g10_1" />
<path d="M326.2,235.7L339.4,228" class="g8_1" />
<path d="M339.4,228c0.6,-0.3,1.1,-0.4,1.5,-0.2" class="g8_1" />
<path d="M326.2,235.7c-1.2,1.5,-2,3,-2.7,4.5c-0.6,1.6,-1,3.2,-1,4.9c0,1.5,0.4,2.7,1,3.6c0.2,0.3,0.5,0.5,0.7,0.7" class="g8_1" />
<path d="M395.8,230.6c0.6,0,1.2,0.1,1.8,0.2c0.6,0,1.3,0.6,1.8,1.5c0.5,0.8,0.6,1.8,0.4,2.3c-0.3,0.5,-0.5,1,-0.7,1.6" class="g10_1" />
<path d="M396.3,230.7c0.8,0.2,1.6,1,2.2,2c0.7,1.2,0.9,2.3,0.7,3.1" class="g8_1" />
<path d="M394.2,230.1c0.6,0.2,1.2,0.3,1.9,0.5c0.8,0.3,1.7,1.1,2.4,2.2c0.6,1.2,0.9,2.4,0.6,3.2c-0.1,0.6,-0.2,1.2,-0.4,1.8" class="g10_1" />
<path d="M386.8,233.5c1.9,-1,3.8,-2.2,5.7,-3.3c0.5,-0.3,1.1,-0.3,1.7,-0.1" class="g10_1" />
<path d="M395.4,230.7c0.8,0.5,1.7,1.4,2.3,2.5c0.7,1.2,1,2.4,1.1,3.4" class="g8_1" />
<path d="M398.7,237.8c-0.2,0.7,-0.5,1.2,-1,1.5c-1.9,1.1,-3.8,2.2,-5.8,3.3" class="g10_1" />
<path d="M385.1,233.8c1.6,0.3,3.4,1.8,4.7,4c1.3,2.3,1.7,4.6,1.1,6.1" class="g8_1" />
<path d="M378.6,235.5c2,-1.1,5.4,0.8,7.4,4.4c2,3.5,2,7.3,0,8.6" class="g8_1" />
<path d="M386.1,248.8c-0.1,0.1,-0.2,0.2,-0.4,0.2" class="g10_1" />
<path d="M378.3,235.2c2.2,-1.2,5.7,0.8,7.9,4.5c2.1,3.8,2.1,7.9,-0.1,9.1" class="g8_1" />
<path d="M373.2,237.9c0.1,0,0.3,-0.2,0.4,-0.2c0.1,-0.1,0.3,-0.3,0.4,-0.3c0.9,-0.5,1.7,-1,2.6,-1.5c2.3,-1.3,5.9,0.8,8.1,4.7c2.3,3.8,2.3,8.1,0,9.4c-0.8,0.5,-1.7,1,-2.5,1.5" class="g10_1" />
<path d="M373.6,237.9c0.1,-0.1,0.2,-0.1,0.3,-0.2c2.2,-1.3,5.7,0.8,7.9,4.6c1.9,3.3,2.2,6.9,0.7,8.5" class="g8_1" />
<path d="M389.1,232.2c1.4,-0.9,3.8,0.5,5.2,3c1.5,2.5,1.5,5.2,0,6.1" class="g8_1" />
<path d="M374,237.4c2.3,-1.4,5.9,0.8,8.2,4.7c2.2,3.9,2.2,8.1,0,9.4" class="g8_1" />
<path d="M374.5,251.2c0.7,-0.4,1.3,-0.4,1.8,-0.1c0.4,0.2,0.7,0.8,0.7,1.5" class="g8_1" />
<path d="M377,252.6c0,0.7,-0.2,1.6,-0.7,2.5c-0.5,0.8,-1.1,1.4,-1.8,1.8" class="g10_1" />
<path d="M374.5,256.9l-7.6,4.5" class="g10_1" />
<path d="M366.9,261.4l-3.2,1.8" class="g8_1" />
<path d="M374.5,251.2l-3.2,1.9" class="g8_1" />
<path d="M370.7,253.4l-3.3,2" class="g8_1" />
<path d="M366.8,255.7l-2.9,1.7" class="g8_1" />
<path d="M369.5,258.5c0.2,0,0.5,-0.1,0.8,-0.2c0.7,-0.4,1.3,-0.8,2.1,-1.2c0.3,-0.3,0.7,-0.7,1,-1.2c0.5,-0.8,0.6,-1.7,0.3,-2.2" class="g8_1" />
<path d="M373.7,253.7c-0.1,-0.1,-0.2,-0.2,-0.3,-0.2c-0.3,-0.2,-0.7,-0.1,-1,0.1c-0.7,0.4,-1.4,0.8,-2.1,1.2c-0.4,0.2,-0.8,0.6,-1.1,1.1c-0.6,1,-0.6,2.1,0,2.5c0.1,0,0.2,0.1,0.3,0.1" class="g8_1" />
<path d="M369.8,257.3c0.1,0.1,0.3,0.1,0.5,0.3c0.3,0.1,0.6,0.1,1,-0.1c0.3,-0.2,0.6,-0.3,0.9,-0.5c0.4,-0.2,0.7,-0.6,1,-1.1c0.6,-1,0.6,-2.1,0,-2.4" class="g8_1" />
<path d="M370.8,254.5c-0.2,0.2,-0.4,0.4,-0.5,0.7c-0.6,1,-0.6,2,0,2.4" class="g8_1" />
<path d="M369,258.2c0.2,0,0.5,-0.1,0.7,-0.2c0.2,-0.2,0.4,-0.3,0.6,-0.4" class="g8_1" />
<path d="M373.2,254.5c0,-0.2,-0.1,-0.5,-0.3,-0.6c-0.2,-0.1,-0.5,-0.1,-0.8,0.1c-0.2,0.1,-0.5,0.3,-0.8,0.4c-0.2,0.2,-0.5,0.5,-0.7,0.9c-0.5,0.7,-0.5,1.6,0,1.8c0,0.1,0.1,0.1,0.3,0.1" class="g8_1" />
<path d="M370.9,257.2c0.1,0,0.3,0,0.4,-0.1" class="g8_1" />
<path d="M372.1,256.6c0.3,-0.2,0.6,-0.4,0.8,-0.8c0.2,-0.3,0.3,-0.6,0.3,-0.9" class="g8_1" />
<path d="M369.6,255.4c-0.4,0.8,-0.3,1.6,0.2,1.9" class="g8_1" />
<path d="M370.3,256.4c0,0.2,0.1,0.3,0.2,0.3c0.2,0.1,0.4,0.1,0.7,0c0.2,-0.2,0.4,-0.3,0.6,-0.4c0.3,-0.1,0.5,-0.4,0.7,-0.7c0.4,-0.6,0.4,-1.3,0,-1.6c-0.1,0,-0.1,0,-0.2,0" class="g8_1" />
<path d="M373.6,254.4l0.2,0.1l3.2,-1.9l5.9,-4.3" class="g8_1" />
<path d="M373.8,250l-2.8,1.6" class="g8_1" />
<path d="M373.8,250c1,-0.2,1.8,-0.1,2.3,0.3c0.6,0.4,0.9,1.2,0.9,2.3" class="g8_1" />
<path d="M345.9,255.8c0.5,-0.9,1,-1.7,1.5,-2.4c0.5,-0.6,1,-1.2,1.5,-1.5c8,-4.7,16,-9.3,24,-13.9c1.5,-0.2,3,0.2,4.4,1.1c1.5,0.8,3,2.2,4.5,4.1c1.5,3.5,1.5,7,0,8.8c-1.9,1.1,-3.8,2.2,-5.7,3.3" class="g10_1" />
<path d="M381.8,243.2l-12.2,7l1.7,2.9" class="g8_1" />
<path d="M370.8,247.5c-1,-1.1,-2,-2,-3,-2.6c-1,-0.6,-2,-1,-3,-1.1c-0.2,0,-0.3,-0.1,0,-0.4c2.8,-1.6,5.7,-3.2,8.5,-4.9c0.3,-0.1,0.5,-0.1,0.6,-0.1c1,0.1,2,0.5,3,1.1c1.1,0.6,2.1,1.5,3.2,2.7c0,0.1,0.3,0.3,-0.1,0.5c-2.8,1.6,-5.6,3.3,-8.5,4.9c-0.4,0.3,-0.7,-0.1,-0.7,-0.1Z" class="g8_1" />
<path d="M332.7,249.5c-1.1,-0.6,-1.1,-2.5,0,-4.4c0.5,-0.9,1.2,-1.6,1.9,-2c0.3,-0.2,0.6,-0.2,0.9,-0.2c0.4,0,0.8,0.1,1.1,0.4c2.2,0.9,4.3,1.7,6.2,2.4c1.9,0.6,3.8,1.2,5.5,1.5c0.5,0.1,1.1,0.2,1.8,0.2c0.6,0,1.2,-0.1,1.9,-0.2c0.8,-0.2,1.6,-0.2,2.1,-0.1c0.6,0.1,1.1,0.5,1.5,0.9" class="g8_1" />
<path d="M346.8,254.3c-0.3,-0.2,-0.8,-0.4,-1.3,-0.5c-0.6,-0.2,-1.3,-0.4,-2.2,-0.6c-2.4,-0.5,-4.6,-1.1,-6.5,-1.8c-2,-0.7,-3.6,-1.5,-5.1,-2.4" class="g10_1" />
<path d="M354.9,243.7c0,-0.1,-0.1,-0.2,-0.2,-0.2c-0.3,-0.1,-0.6,-0.1,-0.9,0.1c-0.5,0.3,-0.9,0.5,-1.5,0.5c-0.6,0,-1.3,-0.2,-2.1,-0.5c-1.4,-0.7,-2.9,-1.3,-4.5,-1.9c-1.6,-0.5,-3.3,-1,-5.1,-1.3c-0.7,-0.2,-1.2,-0.4,-1.5,-0.6c-0.3,-0.3,-0.4,-0.5,-0.3,-0.8" class="g10_1" />
<path d="M317,232.3l4.5,2.6" class="g8_1" />
<path d="M315.5,235l4.5,2.5" class="g8_1" />
<path d="M321.5,234.9c0.6,0.3,0.8,1.2,0.4,1.9c-0.4,0.8,-1.3,1.1,-1.9,0.7" class="g8_1" />
<path d="M326.2,235.7L318.1,231" class="g8_1" />
<path d="M328.3,225c1.6,0.9,3.3,1.9,4.9,2.8c0.6,0.3,0.6,0.9,0,1.3c-0.6,0.3,-1.6,0.3,-2.2,0c-1.6,-1,-3.2,-1.9,-4.9,-2.9" class="g8_1" />
<path d="M341.1,227.9c0.6,0.4,1.1,1.1,1.6,2.3c0.4,1.3,0.7,2.9,1,5.1c-0.4,2.1,-0.9,3.6,-1.5,4.8c-0.1,0.2,-0.2,0.3,-0.3,0.5" class="g10_1" />
<path d="M331.7,248.9c-0.5,-0.2,-1.1,-0.3,-1.5,-0.3c-0.5,0,-1,0.2,-1.4,0.4" class="g10_1" />
<path d="M330.8,248.6c-1.5,0.8,-2.9,1.3,-3.9,1.4c-1.1,0.2,-1.9,0,-2.4,-0.4" class="g10_1" />
<path d="M359.9,259.7c-1.2,0.6,-1.7,2.2,-1.7,3.8c0,1.6,0.5,2.6,1.7,1.9" class="g8_1" />
<path d="M345.9,255.8c-0.7,1.3,-1.1,2.8,-1.1,4.4c0,1.6,0.4,2.8,1.1,3.2c1.2,0.7,2.5,1.4,3.8,2.2" class="g10_1" />
<path d="M340.9,230.3c-0.6,1.2,-1.1,2.5,-1.4,3.9c-0.3,1.4,-0.6,3,-0.7,4.5" class="g8_1" />
<path d="M326,236.6c0.4,0.2,0.7,0.5,0.9,0.7c0.2,0.3,0.3,0.6,0.4,1c0.3,1.4,0.8,2.7,1.5,3.7c0.6,0.9,1.5,1.7,2.4,2.2" class="g8_1" />
<path d="M331.7,248.9c-1.1,-0.6,-1.1,-2.5,0,-4.4c0.5,-0.9,1.2,-1.6,1.9,-2c1.3,-0.7,2.6,-1.5,4,-2.3c0.7,-0.4,1.4,-0.5,1.9,-0.2" class="g8_1" />
<path d="M331.4,248.8c-1,-0.6,-1,-2.6,0,-4.4c0.6,-0.9,1.2,-1.6,1.9,-2c1.3,-0.8,2.7,-1.5,4,-2.3c0.7,-0.4,1.4,-0.5,1.9,-0.2" class="g8_1" />
<path d="M339.5,240c0.1,0,0.2,-0.2,0.2,-0.3c0.1,-0.1,0.3,-0.2,0.4,-0.4c0.5,-0.4,1,-0.9,1.6,-1.5c0.5,-0.5,1.1,-1.1,1.7,-1.7c0,-0.1,0.1,-0.3,0.2,-0.3c0,-0.1,0,-0.2,0,-0.2" class="g8_1" />
<path d="M368.8,257.4c-3.6,2,-7.1,4,-10.6,6.1c-1.5,0.6,-3.2,0.9,-4.7,0.7c-1.6,-0.2,-3.2,-0.8,-4.8,-1.8c-1.3,-0.7,-2.6,-1.4,-3.9,-2.2" class="g8_1" />
<path d="M359.4,244.5c-0.9,-0.5,-1.7,-1,-2.5,-1.5c-0.5,-0.2,-0.9,-0.1,-1.3,0.2c-0.2,0.1,-0.4,0.3,-0.7,0.5" class="g10_1" />
<path d="M362.8,243.8c0,-0.2,-0.1,-0.3,-0.3,-0.4c-0.3,-0.2,-1,-0.2,-1.4,0c-0.5,0.3,-1,0.6,-1.5,0.9c-0.2,0.1,-0.3,0.2,-0.3,0.4c0,0.4,0,0.8,0,1.1" class="g10_1" />
<path d="M359.3,244.7c0,0.1,0.1,0.3,0.3,0.4c0.2,0.1,0.4,0.2,0.7,0.2" class="g8_1" />
<path d="M359.2,245.5c-0.1,0.2,-0.1,0.3,-0.1,0.5" class="g8_1" />
<path d="M359.2,244.9c-0.2,0.2,-0.5,0.3,-0.8,0.5c-0.2,0.2,-0.5,0.3,-0.8,0.3c-0.2,0,-0.5,-0.1,-0.8,-0.1" class="g8_1" />
<path d="M358,245.6c-0.7,-0.1,-1.2,-0.4,-1.7,-0.7c-0.5,-0.3,-1,-0.8,-1.4,-1.2" class="g8_1" />
<path d="M363.8,263.1c0,-0.2,0,-0.3,0,-0.5c0,-0.1,0,-0.1,0,-0.2" class="g8_1" />
<path d="M367,255.5l-0.1,-0.2l0,-1.3l-0.4,-0.2l-3.2,1.8l0,1.7" class="g10_1" />
<path d="M363.3,257.3c0,0,-1.5,-0.8,-1.5,-0.8" class="g8_1" />
<path d="M366.6,255.4l-2.5,1.5" class="g8_1" />
<path d="M369.6,250.2l1.4,1.4l0.3,1.5" class="g8_1" />
<path d="M367.3,253.2l-7.7,4.4" class="g8_1" />
<path d="M363.4,258.2l-1.7,-1.7" class="g8_1" />
<path d="M363.4,255.7l0.3,0.1" class="g8_1" />
<path d="M367.3,253.2c0.6,-0.3,0.9,0,0.9,0c0,0,0.2,0.2,0.2,0.2" class="g8_1" />
<path d="M367.5,251.5l0,1" class="g8_1" />
<path d="M366.9,254.3c0.5,-0.3,1.1,-0.6,1.6,-0.9c0,0,0.4,-0.2,0.3,-0.7" class="g10_1" />
<path d="M368.8,252.7c0,-0.1,0,-0.1,0,-0.2c-0.3,-0.4,-0.5,-0.7,-0.7,-1.1c0,0,-0.2,-0.6,-0.8,-0.3c-2.7,1.5,-5.4,3.1,-8.1,4.7c-0.1,0,-0.1,0.1,-0.2,0.1" class="g8_1" />
<path d="M359,255.9c-0.2,0.4,0,0.8,0,0.8c0.5,0.8,1,1.7,1.5,2.6c0,0,0,0.5,0,0.5c0.1,0.3,0.2,0.3,0.3,0.3" class="g10_1" />
<path d="M360.8,260.1c0.1,0,0.2,0,0.2,0c0.8,-0.5,1.6,-0.9,2.4,-1.4c0,0,0.4,-0.2,0.4,-0.7c0,-0.2,0,-0.4,0,-0.6c0,-0.1,0,-0.2,-0.1,-0.3c0,-0.4,0,-0.8,0,-1.3c0,0,3.2,-1.8,3.2,-1.8" class="g8_1" />
<path d="M363.2,262.4c0,0,0.1,-0.1,0.1,0.1c0,0.5,0,1.1,0,1.7c0.1,0.1,0.3,0.1,0.4,0.2c1.1,-0.6,2.1,-1.2,3.2,-1.8c0,0,0,-1.2,0,-1.2" class="g10_1" />
<path d="M363.5,264.5l0,-1" class="g8_1" />
<path d="M368,248.6c0.6,-0.3,1.2,-0.7,1.8,-1.1c0.1,0.1,0.2,0.3,0.3,0.4c0.1,0.1,0.3,0.2,0.4,0.3" class="g8_1" />
<path d="M370.5,248.2c-0.6,0.4,-1.2,0.7,-1.8,1.1c-0.2,-0.1,-0.3,-0.3,-0.4,-0.4c-0.1,-0.1,-0.3,-0.2,-0.3,-0.3" class="g8_1" />
<path d="M367.2,247.9c0.6,-0.4,1.2,-0.8,1.8,-1.1c0.1,0.1,0.3,0.2,0.4,0.3c0.1,0.1,0.2,0.2,0.3,0.3" class="g8_1" />
<path d="M369.7,247.4c-0.6,0.4,-1.2,0.7,-1.8,1.1c-0.1,-0.1,-0.3,-0.2,-0.4,-0.4c-0.1,-0.1,-0.2,-0.2,-0.3,-0.3" class="g8_1" />
<path d="M366.3,247.1c0.6,-0.4,1.2,-0.7,1.8,-1.1c0.1,0.1,0.2,0.2,0.3,0.3c0.1,0.1,0.3,0.2,0.5,0.3" class="g8_1" />
<path d="M368.9,246.6c-0.6,0.4,-1.3,0.8,-1.9,1.1c-0.1,-0.1,-0.2,-0.2,-0.4,-0.3c-0.1,-0.1,-0.2,-0.2,-0.3,-0.3" class="g8_1" />
<path d="M365.2,246.4c0.7,-0.4,1.3,-0.7,1.9,-1.1c0.1,0.1,0.2,0.2,0.4,0.3c0.1,0,0.3,0.2,0.4,0.3" class="g8_1" />
<path d="M367.9,245.9c-0.6,0.3,-1.2,0.7,-1.8,1c-0.1,0,-0.3,-0.2,-0.4,-0.3c-0.2,0,-0.3,-0.2,-0.5,-0.2" class="g8_1" />
<path d="M364.1,245.8c0.6,-0.4,1.3,-0.7,1.9,-1.1c0.1,0,0.2,0.1,0.4,0.2c0.1,0.1,0.3,0.2,0.5,0.3" class="g8_1" />
<path d="M366.9,245.2c-0.6,0.3,-1.2,0.7,-1.8,1c-0.1,0,-0.3,-0.1,-0.5,-0.2c-0.1,-0.1,-0.3,-0.2,-0.5,-0.2" class="g8_1" />
<path d="M363,245.3c0.6,-0.3,1.2,-0.6,1.9,-1c0.1,0,0.2,0.1,0.4,0.1c0.1,0,0.3,0.1,0.4,0.2" class="g8_1" />
<path d="M365.7,244.6c-0.6,0.4,-1.2,0.7,-1.8,1.1c-0.1,-0.1,-0.2,-0.1,-0.4,-0.2c-0.1,0,-0.3,-0.1,-0.5,-0.2" class="g8_1" />
<path d="M361.9,245.1c0.6,-0.3,1.2,-0.7,1.8,-1c0.1,0,0.3,0,0.4,0c0.2,0,0.4,0.1,0.5,0.1" class="g8_1" />
<path d="M364.6,244.2c-0.6,0.4,-1.2,0.7,-1.8,1.1c-0.1,0,-0.3,-0.1,-0.4,-0.1c-0.2,0,-0.4,-0.1,-0.5,-0.1" class="g8_1" />
<path d="M357.4,254.7c1.3,-0.7,2.6,-1.5,4,-2.3c0.1,0.1,0.2,0.3,0.3,0.4c0.1,0.1,0.2,0.2,0.3,0.3" class="g8_1" />
<path d="M362,253.1c-1.3,0.8,-2.6,1.5,-4,2.3c-0.1,-0.1,-0.2,-0.2,-0.3,-0.3c-0.1,-0.1,-0.2,-0.3,-0.3,-0.3" class="g8_1" />
<path d="M356.6,254c1.3,-0.8,2.6,-1.5,4,-2.3c0.1,0,0.2,0.1,0.3,0.3c0.1,0.1,0.2,0.2,0.3,0.3" class="g8_1" />
<path d="M361.2,252.3c-1.3,0.8,-2.6,1.5,-3.9,2.3c-0.1,-0.1,-0.3,-0.2,-0.4,-0.3c-0.1,-0.1,-0.2,-0.2,-0.3,-0.3" class="g8_1" />
<path d="M355.7,253.2c1.3,-0.7,2.6,-1.5,4,-2.3c0,0,0.2,0.2,0.3,0.3c0.1,0,0.3,0.2,0.4,0.3" class="g8_1" />
<path d="M360.4,251.5c-1.3,0.8,-2.6,1.5,-4,2.3c-0.1,-0.1,-0.2,-0.2,-0.4,-0.3c-0.1,-0.1,-0.2,-0.2,-0.3,-0.3" class="g8_1" />
<path d="M354.6,252.5c1.3,-0.8,2.7,-1.6,4,-2.3c0.1,0.1,0.3,0.2,0.4,0.2c0.2,0.1,0.3,0.3,0.5,0.4" class="g8_1" />
<path d="M359.5,250.8c-1.4,0.7,-2.7,1.5,-4,2.3c-0.1,-0.1,-0.3,-0.2,-0.4,-0.3c-0.2,-0.1,-0.3,-0.2,-0.5,-0.3" class="g8_1" />
<path d="M353.6,251.9c1.3,-0.8,2.6,-1.5,3.9,-2.3c0.1,0,0.3,0.1,0.5,0.2c0.1,0.1,0.3,0.2,0.4,0.3" class="g8_1" />
<path d="M358.4,250.1c-1.3,0.7,-2.6,1.5,-3.9,2.2c-0.1,0,-0.3,-0.1,-0.5,-0.2c-0.1,0,-0.3,-0.1,-0.5,-0.2" class="g8_1" />
<path d="M352.5,251.5c1.3,-0.8,2.6,-1.5,3.9,-2.3c0.1,0,0.3,0.1,0.4,0.1c0.1,0.1,0.3,0.1,0.5,0.2" class="g8_1" />
<path d="M357.3,249.5c-1.3,0.7,-2.7,1.5,-4,2.3c-0.1,0,-0.3,-0.1,-0.4,-0.1c-0.2,-0.1,-0.3,-0.2,-0.5,-0.2" class="g8_1" />
<path d="M351.3,251.3c1.3,-0.8,2.6,-1.5,4,-2.3c0.1,0,0.2,0,0.4,0c0.1,0,0.3,0.1,0.5,0.1" class="g8_1" />
<path d="M356.2,249.1c-1.4,0.8,-2.7,1.5,-4,2.3c-0.1,0,-0.3,-0.1,-0.5,-0.1c-0.1,0,-0.3,0,-0.5,0" class="g8_1" />
<path d="M395.4,239l-3.3,1.9" class="g8_1" />
<path d="M395,240.5l-2.9,1.7" class="g8_1" />
<path d="M395.1,240.2l-3,1.7" class="g8_1" />
<path d="M395.4,238.6l-3.3,1.9" class="g8_1" />
<path d="M395.2,237.3l-3.4,2" class="g8_1" />
<path d="M395,236.8l-3.4,2" class="g8_1" />
<path d="M394.4,235.4l-3.4,2" class="g8_1" />
<path d="M394.1,234.9l-3.4,2" class="g8_1" />
<path d="M393.2,233.7l-3.4,1.9" class="g8_1" />
<path d="M392.7,233.3l-3.3,1.9" class="g8_1" />
<path d="M391.8,232.5l-3.3,1.9" class="g8_1" />
<path d="M391.4,232.3l-3.3,1.8" class="g8_1" />
<path d="M390.1,232l-2.9,1.6" class="g8_1" />
<path d="M389.8,232l-2.8,1.6" class="g8_1" />
<path d="M389.2,232.1c1.5,-0.8,3.8,0.5,5.3,3c1.4,2.5,1.4,5.2,0,6.1" class="g8_1" />
<path d="M377.9,235.5c0.2,-0.1,0.3,-0.2,0.4,-0.3c1.2,-0.7,2.5,-1.2,3.5,-1.4c1.1,-0.2,2.2,-0.3,3.1,-0.1c1.7,-0.9,4.4,0.6,6,3.5c1.6,2.8,1.6,6,0,6.9c-0.4,0.9,-1,1.8,-1.8,2.6c-0.8,0.8,-1.8,1.5,-3,2.1" class="g10_1" />
<path d="M363.8,262.4c-0.1,-0.3,-0.5,-0.1,-0.5,-0.1c-0.7,0.5,-1.5,0.9,-2.3,1.4c0,0,-0.4,0.2,-0.5,0.8c0,0,0,0.5,0,0.5c-0.2,0.2,-0.6,0.3,-0.9,0.5c-0.7,0.4,-1.4,0.8,-2.1,1c-0.7,0.3,-1.3,0.5,-2,0.6c-0.7,0.1,-1.5,0.1,-2.5,-0.2c-0.9,-0.2,-2,-0.7,-3.3,-1.3" class="g10_1" />
<path d="M369.5,247.5l0,1" class="g8_1" />
<path d="M369.5,246.5l0,1" class="g8_1" />
<path d="M367.5,245.5l0,1" class="g8_1" />
<path d="M365.5,244.5l0,1" class="g8_1" />
<path d="M361.5,252.5l0,1" class="g8_1" />
<path d="M360.5,251.5l0,1" class="g8_1" />
<path d="M359.5,250.5l0,1" class="g8_1" />
<path d="M358.5,250.5l0,1" class="g8_1" />
<path d="M357.5,249.5l0,1" class="g8_1" />
<path d="M355.5,248.5l0,1" class="g8_1" />
<path d="M408.5,197.5l118,0" class="g8_1" />
<path fill-rule="evenodd" d="M759.5,863.1c1.1,0,1.9,-0.8,1.9,-1.8c0,-1.1,-0.8,-1.9,-1.9,-1.9c-1,0,-1.9,0.8,-1.9,1.9c0,1,0.9,1.8,1.9,1.8Z" class="g17_1" />
<path d="M794.4,846l-5,0l-29.9,15.3" class="g8_1" />
<path fill-rule="evenodd" d="M724.2,822.7c1,0,1.8,-0.9,1.8,-1.9c0,-1,-0.8,-1.9,-1.8,-1.9c-1.1,0,-1.9,0.9,-1.9,1.9c0,1,0.8,1.9,1.9,1.9Z" class="g17_1" />
<path d="M704.3,799.1l5.3,0l14.6,21.7" class="g8_1" />
<path fill-rule="evenodd" d="M361.8,916.7c-1,0,-1.9,0.9,-1.9,1.9c0,1,0.9,1.9,1.9,1.9c1.1,0,1.9,-0.9,1.9,-1.9c0,-1,-0.8,-1.9,-1.9,-1.9Z" class="g17_1" />
<path d="M381.7,940.3l-5.3,0L361.8,918.6" class="g8_1" />
<path fill-rule="evenodd" d="M325.9,1032.2c1.1,0,1.9,-0.8,1.9,-1.8c0,-1.1,-0.8,-1.9,-1.9,-1.9c-1,0,-1.9,0.8,-1.9,1.9c0,1,0.9,1.8,1.9,1.8Z" class="g17_1" />
<path d="M360.8,1015.1l-5,0l-29.9,15.3" class="g8_1" />
</svg>