<?xml version="1.0" encoding="UTF-8" standalone="no"?>
<!DOCTYPE svg PUBLIC "-//W3C//DTD SVG 1.1//EN"
"http://www.w3.org/Graphics/SVG/1.1/DTD/svg11.dtd">
<svg version="1.1" xmlns="http://www.w3.org/2000/svg" xmlns:xlink="http://www.w3.org/1999/xlink">
<defs>
<clipPath id="c0_15"><path d="M110.5,348.5l0,-103l150,0l0,103Z" /></clipPath>
<clipPath id="c1_15"><path d="M110.5,583.5l0,-98l123,0l0,98Z" /></clipPath>
<style type="text/css"><![CDATA[
.g4_15{
fill: #F5F5F6;
}
.g3_15{
fill: none;
stroke: #040503;
stroke-width: 1;
stroke-linecap: round;
stroke-linejoin: round;
stroke-miterlimit: 2;
}
.g2_15{
fill: none;
stroke: #231F20;
stroke-width: 1;
stroke-linecap: butt;
stroke-linejoin: miter;
}
.g1_15{
fill: none;
stroke: #231F20;
stroke-width: 4;
stroke-linecap: butt;
stroke-linejoin: miter;
}
]]></style>
</defs>
<path d="M110,191l245,0" class="g1_15" />
<path d="M354,191l150,0" class="g1_15" />
<path d="M504,191l70,0" class="g1_15" />
<path d="M574,191l70,0" class="g1_15" />
<path d="M644,191l140,0" class="g1_15" />
<path d="M784,191l95,0" class="g1_15" />
<path d="M354.5,226.5l150,0" class="g2_15" />
<path d="M504.5,226.5l70,0" class="g2_15" />
<path d="M574.5,226.5l70,0" class="g2_15" />
<path d="M644.5,226.5l140,0" class="g2_15" />
<path d="M784.5,226.5l95,0" class="g2_15" />
<path d="M354.5,260.5l150,0" class="g2_15" />
<path d="M504.5,260.5l70,0" class="g2_15" />
<path d="M574.5,260.5l70,0" class="g2_15" />
<path d="M644.5,260.5l140,0" class="g2_15" />
<path d="M784.5,260.5l95,0" class="g2_15" />
<path d="M354.5,294.5l150,0" class="g2_15" />
<path d="M504.5,294.5l70,0" class="g2_15" />
<path d="M574.5,294.5l70,0" class="g2_15" />
<path d="M644.5,294.5l140,0" class="g2_15" />
<path d="M784.5,294.5l95,0" class="g2_15" />
<path d="M354.5,466.5l150,0" class="g2_15" />
<path d="M504.5,466.5l70,0" class="g2_15" />
<path d="M574.5,466.5l70,0" class="g2_15" />
<path d="M644.5,466.5l140,0" class="g2_15" />
<path d="M784.5,466.5l95,0" class="g2_15" />
<path d="M354.5,501.5l150,0" class="g2_15" />
<path d="M504.5,501.5l70,0" class="g2_15" />
<path d="M574.5,501.5l70,0" class="g2_15" />
<path d="M644.5,501.5l140,0" class="g2_15" />
<path d="M784.5,501.5l95,0" class="g2_15" />
<path d="M354.5,535.5l150,0" class="g2_15" />
<path d="M504.5,535.5l70,0" class="g2_15" />
<path d="M574.5,535.5l70,0" class="g2_15" />
<path d="M644.5,535.5l140,0" class="g2_15" />
<path d="M784.5,535.5l95,0" class="g2_15" />
<path d="M110.5,432.5l245,0" class="g2_15" />
<path d="M354.5,432.5l150,0" class="g2_15" />
<path d="M504.5,432.5l70,0" class="g2_15" />
<path d="M574.5,432.5l70,0" class="g2_15" />
<path d="M644.5,432.5l140,0" class="g2_15" />
<path d="M784.5,432.5l95,0" class="g2_15" />
<path d="M193.5,287.5l0,-7" class="g3_15" />
<path d="M193.5,291.5l0,-2" class="g3_15" />
<path d="M194.5,280.5l0,7m0,2l0,2" class="g3_15" />
<path d="M193.1,280c0,-0.1,0.2,-0.1,0.5,-0.1c0.2,0,0.5,0,0.5,0.1" class="g3_15" />
<path d="M194.1,280c0,0.1,-0.3,0.2,-0.5,0.2c-0.3,0,-0.5,-0.1,-0.5,-0.2" class="g3_15" />
<path d="M193,280.2l0.1,-0.2" class="g3_15" />
<path d="M194.1,280l0,0.2" class="g3_15" />
<path d="M194.1,280.2c0,0.1,-0.2,0.2,-0.5,0.2c-0.3,0,-0.6,-0.1,-0.6,-0.2" class="g3_15" />
<path d="M194.6,287.1c0,0.3,-0.4,0.5,-1,0.5c-0.6,0,-1.1,-0.2,-1.1,-0.5" class="g3_15" />
<path d="M194.2,286.9c0.2,0.1,0.4,0.2,0.4,0.3" class="g3_15" />
<path d="M192.5,287.2c0,-0.1,0.2,-0.2,0.5,-0.3" class="g3_15" />
<path d="M194.1,290.2c0,0.1,-0.2,0.2,-0.5,0.2c-0.3,0,-0.6,-0.1,-0.6,-0.2" class="g3_15" />
<path d="M194.1,290.5c0,0.1,-0.2,0.2,-0.5,0.2c-0.3,0,-0.6,-0.1,-0.6,-0.2" class="g3_15" />
<path d="M194.1,290.8c0,0.1,-0.2,0.2,-0.5,0.2c-0.3,0,-0.6,-0.1,-0.6,-0.2" class="g3_15" />
<path d="M194.1,291c0,0.1,-0.2,0.2,-0.5,0.2c-0.3,0,-0.6,-0.1,-0.6,-0.2" class="g3_15" />
<path d="M194.1,291.1c0,0.2,-0.2,0.3,-0.5,0.3c-0.3,0,-0.6,-0.1,-0.6,-0.3" class="g3_15" />
<path d="M194.1,289.3c0,0.1,-0.2,0.2,-0.5,0.2c-0.2,0,-0.3,0,-0.4,-0.1" class="g3_15" />
<path d="M194.1,289.4c0,0.1,-0.2,0.2,-0.5,0.2c-0.3,0,-0.6,-0.1,-0.6,-0.2" class="g3_15" />
<path d="M194.1,289.7c0,0.1,-0.2,0.2,-0.5,0.2c-0.3,0,-0.6,-0.1,-0.6,-0.2" class="g3_15" />
<path d="M194.1,289.9c0,0.1,-0.2,0.2,-0.5,0.2c-0.3,0,-0.6,-0.1,-0.6,-0.2" class="g3_15" />
<path d="M194.1,286.9c0,0.1,-0.2,0.2,-0.5,0.2c-0.3,0,-0.6,-0.1,-0.6,-0.2" class="g3_15" />
<path d="M194.1,287.2c0,0.1,-0.2,0.2,-0.5,0.2c-0.3,0,-0.6,-0.1,-0.6,-0.2" class="g3_15" />
<path d="M194.6,291.2c0,0.2,-0.4,0.4,-1,0.4c-0.6,0,-1,-0.2,-1,-0.4" class="g3_15" />
<path d="M194.2,290.8c0.2,0.1,0.4,0.2,0.4,0.4" class="g3_15" />
<path d="M192.6,291.2c0,-0.2,0.1,-0.3,0.4,-0.4" class="g3_15" />
<path d="M194.6,288.1c0,0.2,-0.4,0.4,-1,0.4c-0.6,0,-1.1,-0.2,-1.1,-0.4" class="g3_15" />
<path d="M192.5,288.5l0,-1" class="g3_15" />
<path d="M194.5,287.5l0,1" class="g3_15" />
<path d="M194.6,291.5c0,0.2,-0.4,0.4,-1,0.4c-0.6,0,-1,-0.2,-1,-0.4" class="g3_15" />
<path d="M194.6,291.2l0,0.3" class="g3_15" />
<path d="M194.6,291.5c0,0.2,-0.4,0.6,-1,0.6c-0.6,0,-1,-0.4,-1,-0.6" class="g3_15" />
<path d="M194.6,287.3c0,0.2,-0.4,0.4,-1,0.4c-0.6,0,-1.1,-0.2,-1.1,-0.4" class="g3_15" />
<path d="M203.5,282.5l0,-7" class="g3_15" />
<path d="M203.5,286.5l0,-1" class="g3_15" />
<path d="M204.5,275.5l0,7m0,2l0,2" class="g3_15" />
<path d="M203.4,275.7c0,-0.1,0.2,-0.2,0.4,-0.2c0.3,0,0.5,0.1,0.5,0.2" class="g3_15" />
<path d="M204.3,275.7c0,0.1,-0.2,0.2,-0.5,0.2c-0.2,0,-0.4,-0.1,-0.4,-0.2" class="g3_15" />
<path d="M203.3,275.9l0.1,-0.2" class="g3_15" />
<path d="M204.3,275.7l0.1,0.2" class="g3_15" />
<path d="M204.4,275.9c0,0.1,-0.3,0.2,-0.6,0.2c-0.3,0,-0.5,-0.1,-0.5,-0.2" class="g3_15" />
<path d="M204.8,282.8c0,0.3,-0.4,0.4,-1,0.4c-0.6,0,-1,-0.1,-1,-0.4" class="g3_15" />
<path d="M204.4,282.6c0.3,0,0.4,0.2,0.4,0.3" class="g3_15" />
<path d="M202.8,282.9c0,-0.1,0.2,-0.3,0.4,-0.3" class="g3_15" />
<path d="M204.3,286.8c0,0.1,-0.2,0.2,-0.5,0.2c-0.3,0,-0.5,-0.1,-0.5,-0.2" class="g3_15" />
<path d="M204.9,286.8c0,0.3,-0.5,0.4,-1.1,0.4c-0.6,0,-1,-0.1,-1,-0.4" class="g3_15" />
<path d="M204.4,286.5c0.3,0.1,0.5,0.2,0.5,0.3" class="g3_15" />
<path d="M202.8,286.8c0,-0.1,0.2,-0.2,0.4,-0.3" class="g3_15" />
<path d="M204.8,283.8c0,0.2,-0.4,0.4,-1,0.4c-0.6,0,-1,-0.2,-1,-0.4" class="g3_15" />
<path d="M202.5,283.5l0,-1" class="g3_15" />
<path d="M204.5,282.5l0,1" class="g3_15" />
<path d="M204.9,287.1c0,0.3,-0.5,0.4,-1.1,0.4c-0.6,0,-1,-0.1,-1,-0.4" class="g3_15" />
<path d="M202.5,286.5l0,1" class="g3_15" />
<path d="M204.9,286.8l0,0.3" class="g3_15" />
<path d="M204.9,287.1c0,0.3,-0.5,0.6,-1.1,0.6c-0.6,0,-1,-0.3,-1,-0.6" class="g3_15" />
<path d="M204.8,282.9c0,0.3,-0.4,0.5,-1,0.5c-0.6,0,-1,-0.2,-1,-0.5" class="g3_15" />
<path d="M204.3,306.7L189,313.3" class="g3_15" />
<path d="M201.9,271.4L189,277" class="g3_15" />
<path d="M189.6,278.9l17.9,-7.6" class="g3_15" />
<path d="M189.7,279.4l18,-7.6" class="g3_15" />
<path d="M189.6,281l14.9,-6.3" class="g3_15" />
<path d="M207.5,271.2c0,0,0.5,0.2,0.2,0.6" class="g3_15" />
<path d="M189.1,278.9c0,0,0.3,0.1,0.5,0" class="g3_15" />
<path d="M189,279.4c0,0,0.4,0.2,0.7,0" class="g3_15" />
<path d="M188.9,281.1c0,0,0.3,0.1,0.7,-0.1" class="g3_15" />
<path d="M189.5,279.5l0,1" class="g3_15" />
<path d="M189.5,279.5l0,1" class="g3_15" />
<path d="M204.5,273.5l0,1" class="g3_15" />
<path d="M204.7,274.5c0,0,0.1,0.1,-0.4,0.3" class="g3_15" />
<path d="M204.5,274.5l0,1" class="g3_15" />
<path d="M204.3,287.7l0,16.3" class="g3_15" />
<path d="M190.5,282.2l0,5.3m0,6.4l0,12.5" class="g3_15" />
<path d="M187.6,282.1l0,3m0,8.3l0,18" class="g3_15" />
<path d="M204.7,306.7l-15.5,6.6" class="g3_15" />
<path d="M204.5,309.3l-15.2,6.6" class="g3_15" />
<path d="M204.5,309.5l0,-3" class="g3_15" />
<path d="M204.7,309c0,0,0,0.3,-0.2,0.3" class="g3_15" />
<path d="M188.8,315.9c0,0,0.2,0.1,0.5,0" class="g3_15" />
<path d="M189.2,313.3l0,2.5" class="g3_15" />
<path d="M189,313.3l0,2.5" class="g3_15" />
<path d="M188.9,313.4l0,2.4" class="g3_15" />
<path d="M189.2,313.3l-0.2,0l-0.1,0.1" class="g3_15" />
<path d="M187.3,290.5l0.8,0.2" class="g3_15" />
<path d="M188.5,291.4c0,0.1,-0.4,0.2,-0.4,-0.7" class="g3_15" />
<path d="M188,290.8l-0.1,0.4" class="g3_15" />
<path d="M188.5,291.6c0,0,-0.4,0.1,-0.6,-0.4" class="g3_15" />
<path d="M187.1,290.6l0.9,0.2" class="g3_15" />
<path d="M188.1,290.7l-0.1,0.1" class="g3_15" />
<path d="M187.1,290.6c0,0,0,-0.1,0.2,-0.1" class="g3_15" />
<path d="M191.4,292l-1.9,0.8" class="g3_15" />
<path d="M187.1,290.6l0,1.6l1.8,0.6" class="g3_15" />
<path d="M188.9,292.8c0,0,0.3,0.1,0.6,0" class="g3_15" />
<path d="M188.6,290.7l0,0.6c0,0,0,0.2,-0.1,0.2" class="g3_15" />
<path d="M187.2,288l-0.1,0.1l0,1.6l0.3,0.2" class="g3_15" />
<path d="M187.3,288l1.6,0.5" class="g3_15" />
<path d="M187.2,288.1l1.6,0.5" class="g3_15" />
<path d="M189.9,288.3l-0.5,0.2" class="g3_15" />
<path d="M190,288.4l-0.5,0.2" class="g3_15" />
<path d="M188.9,288.5c0,0,0.3,0.1,0.5,0" class="g3_15" />
<path d="M188.8,288.6c0,0,0.4,0.1,0.7,0" class="g3_15" />
<path d="M190,288.3l0.2,0.1l0,0.4" class="g3_15" />
<path d="M189.4,289.1l0,2.9" class="g3_15" />
<path d="M190.1,289.2l0,2.9" class="g3_15" />
<path d="M193.1,289.2l-2.5,-0.8" class="g3_15" />
<path d="M193.2,289.6l-2.5,-0.8" class="g3_15" />
<path d="M190.7,288.7c0,0,-0.2,-0.1,-0.5,0.1" class="g3_15" />
<path d="M190.6,288.4c0,0,-0.2,-0.1,-0.4,0" class="g3_15" />
<path d="M193.6,289.2l13.1,-5.6" class="g3_15" />
<path d="M193.6,289.6L206.7,284" class="g3_15" />
<path d="M193.2,289.6c0,0,0.1,0,0.4,0" class="g3_15" />
<path d="M193.6,289.2c0,0,-0.2,0.1,-0.5,0" class="g3_15" />
<path d="M190.5,288.3l2,-0.9m1.7,-0.7l8.5,-3.6" class="g3_15" />
<path d="M204.8,282.8l1.9,0.6" class="g3_15" />
<path d="M206.7,283.4c0,0,0.3,0.4,0,0.6" class="g3_15" />
<path d="M204.7,282.1l0,0.6m0,2.2l0,1.3" class="g3_15" />
<path d="M204.4,281.9c0,0,0.7,0.1,0,0.4" class="g3_15" />
<path d="M204.7,286.2c0,0,-0.1,0.2,-0.3,0.3" class="g3_15" />
<path d="M202.8,287.2l0,2.6l-11.3,4.9l-0.3,-0.1" class="g3_15" />
<path d="M191.5,292l-0.1,2.6" class="g3_15" />
<path d="M191.2,292.1l0,2.5" class="g3_15" />
<path d="M188.6,287.1c-0.3,0.1,-0.6,-0.1,-0.8,-0.5c-0.2,-0.4,-0.1,-0.8,0.2,-0.9" class="g3_15" />
<path d="M188,285.7c0.2,-0.2,0.6,0.1,0.8,0.5c0.1,0.4,0.1,0.8,-0.2,0.9" class="g3_15" />
<path d="M188.2,285.6c0.2,-0.1,0.6,0.1,0.7,0.5c0.2,0.4,0.1,0.8,-0.1,0.9" class="g3_15" />
<path d="M188,285.6l0.2,0" class="g3_15" />
<path d="M188.6,287.1l0.2,-0.1" class="g3_15" />
<path d="M188.2,286l0,0.3l0.3,0.2l0,0.1" class="g3_15" />
<path d="M188.2,286l-0.1,0l-0.1,0.3l-0.1,-0.1l0,0.2l0.1,0.2l0.1,0.3l0.1,0" class="g3_15" />
<path d="M188.4,286.7l-0.2,-0.1" class="g3_15" />
<path d="M188,286.3l0.2,0.2" class="g3_15" />
<path d="M188.2,286.9l0,-0.2" class="g3_15" />
<path d="M188,286.6l0.2,-0.1" class="g3_15" />
<path d="M188.4,290.6c-0.2,0.1,-0.6,-0.1,-0.7,-0.5c-0.2,-0.4,-0.1,-0.8,0.1,-0.9" class="g3_15" />
<path d="M187.8,289.2c0.3,-0.1,0.6,0.1,0.8,0.5c0.2,0.4,0.1,0.8,-0.2,0.9" class="g3_15" />
<path d="M188,289.1c0.3,-0.1,0.6,0.1,0.8,0.5c0.2,0.4,0.1,0.9,-0.2,1" class="g3_15" />
<path d="M187.9,289.2l0.2,-0.1" class="g3_15" />
<path d="M188.5,290.7l0.2,-0.2" class="g3_15" />
<path d="M188.1,289.6l0,0.2l0.2,0.2l0,0.1" class="g3_15" />
<path d="M188.1,289.5l-0.2,0l0,0.3l-0.2,0l0,0.1l0.2,0.2l0,0.3l0.2,0" class="g3_15" />
<path d="M188.3,290.2l-0.2,-0.1" class="g3_15" />
<path d="M187.9,289.8l0.2,0.2" class="g3_15" />
<path d="M188.1,290.4l0,-0.2" class="g3_15" />
<path d="M187.9,290.1l0.2,-0.1" class="g3_15" />
<path d="M185.6,278.7c0,0.3,-0.2,0.5,-0.4,0.6c-0.3,0.1,-0.7,-0.1,-0.8,-0.5c-0.1,-0.1,-0.1,-0.2,-0.1,-0.3" class="g3_15" />
<path d="M184.3,278.5l0,-0.5" class="g3_15" />
<path d="M185.6,278.7l0,-0.3" class="g3_15" />
<path d="M184.8,278.2c0.1,0,0.2,0,0.3,0.2c0,0.1,0,0.2,-0.1,0.3c-0.1,0,-0.2,-0.1,-0.3,-0.2c0,-0.1,0,-0.3,0.1,-0.3Z" class="g3_15" />
<path d="M204.4,279.4c0,0,0.4,0.4,0,1" class="g3_15" />
<path d="M196.7,308.9c-0.2,0,-0.3,-0.4,-0.3,-0.7c0.1,-0.4,0.3,-0.6,0.6,-0.6" class="g3_15" />
<path d="M197,307.6c0.2,0,0.3,0.4,0.3,0.7c-0.1,0.4,-0.3,0.6,-0.6,0.6" class="g3_15" />
<path d="M203.3,301.6l0,2" class="g3_15" />
<path d="M200,306.8l0,-4.1l2.9,-1.3" class="g3_15" />
<path d="M200.4,307l-0.3,-0.2" class="g3_15" />
<path d="M203.2,301.6l-2.8,1.2L200,302.7l0.4,0.1l0,4.2" class="g3_15" />
<path d="M203.3,301.6l-0.4,-0.1" class="g3_15" />
<path d="M200.4,307l2.4,-1" class="g3_15" />
<path d="M201.8,305.5c-0.4,0,-0.7,-0.6,-0.6,-1.2c0,-0.6,0.4,-1.1,0.9,-1" class="g3_15" />
<path d="M228.8,314c3.2,-1.3,7.7,-1.8,12.5,-1.8c10.8,0.1,19,3.2,18.7,7.9" class="g3_15" />
<path d="M259.9,320.9c-1,4,-8.9,7.1,-18.6,7.1c-6.9,0,-12.8,-1.6,-15.9,-3.9c-1,-0.8,-1.4,-1.6,-1.6,-2.5" class="g3_15" />
<path d="M260,320.1c0,0.2,0,0.5,-0.1,0.8" class="g3_15" />
<path d="M259.9,322.7c-1,4,-8.9,7.1,-18.6,7.1c-6.8,0,-12.7,-1.6,-15.9,-4c-1,-0.7,-1.4,-1.5,-1.6,-2.4" class="g3_15" />
<path d="M259.9,324.5c-1,4,-9,7,-18.7,7c-6.8,0,-12.7,-1.6,-15.9,-3.9c-1,-0.7,-1.3,-1.5,-1.5,-2.3" class="g3_15" />
<path d="M259.9,326.3c-0.9,4,-8.9,7.1,-18.5,7.1c-6.9,0,-12.8,-1.7,-16,-4c-1.7,-1.2,-1.9,-2.7,-1.5,-4" class="g3_15" />
<path d="M225.8,320.8c0,-2.5,7.2,-4.9,15.6,-4.8c8.4,0.2,15.7,2.8,16.2,5" class="g3_15" />
<path d="M257.9,320.1c0,2.5,-7.9,5.5,-16.5,5.5c-8.6,0,-15.6,-2.2,-15.6,-4.8" class="g3_15" />
<path d="M226.1,321.7c1.6,-2.2,8,-4,15.3,-3.8c7,0.1,13.3,2,15.4,3.9" class="g3_15" />
<path d="M227.2,322.7c2.4,-1.8,8,-3.1,14.4,-3c5.8,0.1,11.1,1.4,13.9,2.9" class="g3_15" />
<path d="M228.8,323.6c2.8,-1.3,7.6,-2.2,12.7,-2.1c4.7,0.1,9.1,0.9,12,2" class="g3_15" />
<path d="M229.4,316c2.9,-1.1,7.3,-1.8,12.1,-1.7c8.4,0.1,15.7,2.7,16.2,4.9" class="g3_15" />
<path d="M257.7,319.2c0,0,0.1,0.3,0.2,0.9" class="g3_15" />
<path d="M229.4,316l-3.7,1.4" class="g3_15" />
<path d="M225.7,317.4c0,0,-2.5,1.5,-1.9,4.2" class="g3_15" />
<path d="M223.8,321.7c0,0,-0.3,0.6,0,1.7" class="g3_15" />
<path d="M223.9,323.6c0,0,-0.4,0.6,-0.1,1.7" class="g3_15" />
<path d="M259.9,320.9c0,0,0.2,0.4,0,1.8" class="g3_15" />
<path d="M259.9,322.7c0,0,0.2,0.4,0,1.8" class="g3_15" />
<path d="M259.9,324.6c0,0,0.3,0.4,0,1.8" class="g3_15" />
<g clip-path="url(#c0_15)">
<path d="M259.9,326.4c0,0,1.1,3,-3.1,5.4" class="g3_15" />
</g>
<path d="M256.8,331.8l-1.4,0.7l-19.2,8.4" class="g3_15" />
<path d="M250.5,332.3l-15.1,6.6" class="g3_15" />
<path d="M226.6,317.1c-1.6,0.2,-5.5,0,-8.7,-2.9" class="g3_15" />
<path d="M226.9,314.7c-1.6,0.5,-4,0.6,-7.7,-2.2" class="g3_15" />
<path d="M228.8,314c0,0,-1,0.3,-1.9,0.7" class="g3_15" />
<path d="M219.2,312.5c-0.9,-0.8,-1.4,-1.1,-2,-1.5" class="g3_15" />
<path d="M217.9,314.2c-0.5,-0.4,-1.4,-1.2,-2.1,-1.6" class="g3_15" />
<path d="M201.8,305.5c0,0,5.9,2,14,7.1" class="g3_15" />
<path d="M202.1,303.3c0.1,-0.1,7.1,2.5,15.1,7.7" class="g3_15" />
<path d="M190.2,276.2l0,0.2" class="g3_15" />
<path d="M118.3,253c0,0,-0.1,0.1,0.1,0.1" class="g3_15" />
<path d="M118.4,253c0,0,-0.1,0.1,-0.1,0.2" class="g3_15" />
<path d="M118.3,253.7c0,0,-0.1,0.1,0.1,0.2" class="g3_15" />
<path d="M116.7,253.6l13,-5.5" class="g3_15" />
<path d="M118.2,253.4l-0.9,0.4" class="g3_15" />
<path d="M128.9,249l0.8,-0.4" class="g3_15" />
<path d="M129.7,248.1l0,0.5" class="g3_15" />
<path d="M129.5,248.5l0,1" class="g3_15" />
<path d="M111.1,253.8l18,-7.6" class="g3_15" />
<path d="M129.1,246.2c0,0,0.2,-0.1,0.5,0" class="g3_15" />
<path d="M110.5,253.5l0,1" class="g3_15" />
<path d="M110.9,253.9c0,0,0,-0.1,0.2,-0.1" class="g3_15" />
<path d="M116.5,257.8l0,32" class="g3_15" />
<path d="M116.3,257.7l0.1,32.1" class="g3_15" />
<path d="M114.4,257.2l0,4.7m0,1.5l0,1.1m0,4.4l0,20.2" class="g3_15" />
<path d="M113.5,255.5l0,1" class="g3_15" />
<path d="M114,257l0.4,0.1" class="g3_15" />
<path d="M114,289.1l0,2.3" class="g3_15" />
<path d="M114,291.4c0,0,0,0.3,0.3,0.4" class="g3_15" />
<path d="M114,289.1c0,0,0.1,-0.2,0.4,-0.3" class="g3_15" />
<path d="M114.2,289.1l0.2,-0.1" class="g3_15" />
<path d="M113.9,262.2L112,263l0,0.5l2.3,0.7l-0.3,0.2l0,4.3l1.8,0.6" class="g3_15" />
<path d="M112.1,263.1l2.3,0.7" class="g3_15" />
<path d="M114.1,264.5l1.8,0.7l0.1,-0.1l-1.7,-0.6" class="g3_15" />
<path d="M114.3,264.5l0.1,-0.1" class="g3_15" />
<path d="M115.9,265.2l0,1.6l0.2,-0.1l0,-1.5c0,0,0,-0.1,-0.1,-0.1" class="g3_15" />
<path d="M115.9,267.6l-0.1,1.7l0.3,-0.1l0,-1.6L116,267.5" class="g3_15" />
<path d="M115.9,267.6L115,267.4l0.2,-0.1l0.8,0.2" class="g3_15" />
<path d="M115.9,267.7l0.1,0" class="g3_15" />
<path d="M115.9,265.3l0.1,-0.1" class="g3_15" />
<path d="M115.3,266.6l0.5,0.1" class="g3_15" />
<path d="M114.9,267.9c0,0,0.2,0,0.2,-0.5" class="g3_15" />
<path d="M114.9,267.8c0,0,-0.3,0,-0.3,-0.8" class="g3_15" />
<path d="M114.9,267.9c0,0,-0.4,0,-0.5,-0.4" class="g3_15" />
<path d="M113.9,262.1c0,0,0,-0.4,0.5,-0.5" class="g3_15" />
<path d="M113.9,262.8c0,0,0,0.2,0.3,0.3" class="g3_15" />
<path d="M114,262c0,0,0,0.2,0.2,0.2" class="g3_15" />
<path d="M114.8,267c-0.3,0.1,-0.6,-0.1,-0.8,-0.5c-0.1,-0.4,-0.1,-0.8,0.2,-0.9" class="g3_15" />
<path d="M114.2,265.6c0.3,-0.1,0.6,0.1,0.8,0.5c0.2,0.4,0.1,0.8,-0.2,0.9" class="g3_15" />
<path d="M114.4,265.5c0.2,-0.1,0.6,0.1,0.8,0.5c0.1,0.4,0.1,0.8,-0.2,0.9" class="g3_15" />
<path d="M114.2,265.5l0.2,0" class="g3_15" />
<path d="M114.9,267.1l0.1,-0.2" class="g3_15" />
<path d="M114.4,265.9l0,0.3l0.3,0.2l0,0.1" class="g3_15" />
<path d="M114.4,265.9l-0.1,0l0,0.3l-0.2,0l0,0.1l0.2,0.2l0,0.3l0.1,0" class="g3_15" />
<path d="M114.7,266.6l-0.2,-0.1" class="g3_15" />
<path d="M114.3,266.2l0.1,0.2" class="g3_15" />
<path d="M114.4,266.8l0,-0.2" class="g3_15" />
<path d="M114.3,266.5l0.1,-0.1" class="g3_15" />
<path d="M115,263.5c-0.2,0.1,-0.6,-0.1,-0.7,-0.5c-0.2,-0.4,-0.1,-0.8,0.1,-0.9" class="g3_15" />
<path d="M114.4,262.1c0.3,-0.2,0.6,0.1,0.8,0.5c0.2,0.4,0.1,0.8,-0.2,0.9" class="g3_15" />
<path d="M114.6,262c0.3,-0.1,0.6,0.1,0.8,0.5c0.2,0.4,0.1,0.8,-0.2,0.9" class="g3_15" />
<path d="M114.5,262l0.2,0" class="g3_15" />
<path d="M115.1,263.5l0.2,-0.1" class="g3_15" />
<path d="M114.6,262.4l0.1,0.3l0.2,0.2l0,0.1" class="g3_15" />
<path d="M114.7,262.4l-0.2,0l0,0.3l-0.2,0l0,0.1l0.2,0.2l0,0.3l0.2,0" class="g3_15" />
<path d="M114.9,263.1L114.7,263" class="g3_15" />
<path d="M114.5,262.7l0.2,0.2" class="g3_15" />
<path d="M114.7,263.3l0,-0.2" class="g3_15" />
<path d="M114.5,263l0.2,-0.1" class="g3_15" />
<path d="M133.6,297.5c-0.3,0.2,-0.7,-0.1,-0.8,-0.5c-0.2,-0.4,-0.1,-0.8,0.1,-0.9" class="g3_15" />
<path d="M132.9,296.1c0.3,-0.1,0.7,0.1,0.8,0.5c0.2,0.4,0.1,0.8,-0.1,0.9" class="g3_15" />
<path d="M133.1,296c0.3,-0.1,0.6,0.1,0.8,0.5c0.2,0.4,0.1,0.9,-0.2,1" class="g3_15" />
<path d="M133,296.1l0.2,-0.1" class="g3_15" />
<path d="M133.6,297.6l0.2,-0.2" class="g3_15" />
<path d="M133.2,296.5l0,0.3l0.2,0.1l0,0.2" class="g3_15" />
<path d="M133.2,296.4l-0.2,0l0,0.3l-0.2,0l0,0.1L133,297l0,0.3l0.2,0" class="g3_15" />
<path d="M133.4,297.1L133.2,297" class="g3_15" />
<path d="M133,296.7l0.2,0.2" class="g3_15" />
<path d="M133.2,297.3l0,-0.2" class="g3_15" />
<path d="M133,297l0.2,0" class="g3_15" />
<path d="M118.7,257.2c0,0.2,-0.1,0.5,-0.3,0.5c-0.3,0.2,-0.7,0,-0.9,-0.4c0,-0.1,-0.1,-0.2,-0.1,-0.3" class="g3_15" />
<path d="M117.4,257l0,-0.6" class="g3_15" />
<path d="M118.7,257.2l0,-0.4" class="g3_15" />
<path d="M118,256.7c0.1,-0.1,0.2,0,0.3,0.1c0,0.2,0,0.3,-0.1,0.3c-0.1,0.1,-0.3,0,-0.3,-0.1c-0.1,-0.2,0,-0.3,0.1,-0.3Z" class="g3_15" />
<path d="M129.6,246.2l77.9,25" class="g3_15" />
<path d="M129.7,248.1l72.2,23.3" class="g3_15" />
<path d="M129.7,248.6l71.7,23" class="g3_15" />
<path d="M128.5,248.9L118.4,253" class="g3_15" />
<path d="M128.5,248.9L164,260.3" class="g3_15" />
<path d="M118.4,253.9l35.2,11.3c0,0,0.3,0.1,0.6,0" class="g3_15" />
<path d="M118.4,253.1l35.3,11.4c0,0,0.3,0.1,0.5,0" class="g3_15" />
<path d="M116.7,253.6L189,277" class="g3_15" />
<path d="M154.2,264.5l2.5,-1.1l-0.1,-0.7l2.9,-1.2l2,-0.1l2.5,-1.1" class="g3_15" />
<path d="M156.7,263.3l2.8,-1.1l2,-0.1" class="g3_15" />
<path d="M159.5,261.5l0,0.6" class="g3_15" />
<path d="M161.5,261.4l0,0.7" class="g3_15" />
<path d="M154.4,264.6l2.4,-1.1l2.2,0l2.8,-1.3l0,-0.7l2.4,-1" class="g3_15" />
<path d="M161.5,262.1l0.3,-0.1" class="g3_15" />
<path d="M153.3,265.1l-0.4,0.2" class="g3_15" />
<path d="M153.3,265.4l0.4,-0.2l0.6,0.3l-0.2,0.2l0.2,-0.2l0.2,0.2l0.5,-0.2l0.5,0.2L155,266l0.5,-0.3l0.5,0.2" class="g3_15" />
<path d="M155.7,266.2l0.3,-0.3" class="g3_15" />
<path d="M154.3,264.8l0,0.5l35.1,11.5" class="g3_15" />
<path d="M163.7,260.1l0.2,0l0.4,0.1l0.6,-0.3" class="g3_15" />
<path d="M166.5,261.1l0,-0.6l0,0.2l-0.3,0.2" class="g3_15" />
<path d="M165,260.5l0.7,-0.3" class="g3_15" />
<path d="M165.3,260.6l0.7,-0.3" class="g3_15" />
<path d="M164.7,260.5l35.5,11.4" class="g3_15" />
<path d="M164.2,260.5c0,0,0.3,-0.1,0.5,0" class="g3_15" />
<path d="M154.4,264.6c0,0,-0.1,0.1,-0.1,0.2" class="g3_15" />
<path d="M153.6,264.7l0,0.3" class="g3_15" />
<path d="M154.3,264.7l35.9,11.5l10,-4.3" class="g3_15" />
<path d="M111.1,253.8l78,25.1" class="g3_15" />
<path d="M110.9,254.3L189,279.4" class="g3_15" />
<path d="M114.4,257.2l74.5,23.9" class="g3_15" />
<path d="M152,267.9c0,0.3,-0.2,0.5,-0.4,0.6c-0.3,0.1,-0.7,-0.1,-0.8,-0.5c-0.1,-0.1,-0.1,-0.2,-0.1,-0.3" class="g3_15" />
<path d="M150.7,267.7l0,-0.5" class="g3_15" />
<path d="M152,267.9l0,-0.3" class="g3_15" />
<path d="M151.2,267.4c0.1,0,0.3,0,0.3,0.2c0.1,0.1,0,0.2,-0.1,0.3c-0.1,0,-0.2,-0.1,-0.3,-0.2c0,-0.1,0,-0.3,0.1,-0.3Z" class="g3_15" />
<path d="M114.1,289L189,313.3" class="g3_15" />
<path d="M114,289.1l74.9,24.3" class="g3_15" />
<path d="M114.3,291.8l74.5,24.1" class="g3_15" />
<path d="M151.4,303.3c-0.2,0.1,-0.6,-0.2,-0.8,-0.6c-0.1,-0.4,-0.1,-0.8,0.2,-0.9" class="g3_15" />
<path d="M150.8,301.8c0.3,-0.1,0.6,0.1,0.8,0.5c0.2,0.5,0.1,0.9,-0.2,1" class="g3_15" />
<path d="M151,301.7c0.2,-0.1,0.6,0.2,0.8,0.6c0.1,0.4,0.1,0.8,-0.2,0.9" class="g3_15" />
<path d="M150.8,301.8l0.2,-0.1" class="g3_15" />
<path d="M151.5,303.3l0.1,-0.1" class="g3_15" />
<path d="M151,302.2l0,0.3l0.3,0.1l0,0.2" class="g3_15" />
<path d="M151,302.1l-0.1,0l0,0.4l-0.2,-0.1l0,0.2l0.2,0.1l0,0.3l0.1,0.1" class="g3_15" />
<path d="M151.3,302.8l-0.2,0" class="g3_15" />
<path d="M150.9,302.5l0.1,0.1" class="g3_15" />
<path d="M151,303l0,-0.2" class="g3_15" />
<path d="M150.9,302.7l0.1,0" class="g3_15" />
<path d="M158.8,301l-14.4,-4.8c-0.4,-0.1,-0.8,-0.8,-0.8,-1.1l0.1,-9.2" class="g3_15" />
<path d="M143.7,285.9c0,-0.3,0.3,-0.8,0.6,-0.7l14.4,4.7c0.4,0.1,0.8,0.8,0.8,1.1l0,9.3c0,0.4,-0.4,0.8,-0.7,0.7" class="g3_15" />
<path d="M159,300.9l-14.6,-4.7c-0.3,-0.1,-0.7,-0.8,-0.7,-1.2l0,-9.3" class="g3_15" />
<path d="M149.2,297.7l6.4,-2.7l3.9,1.2" class="g3_15" />
<path d="M155.5,294.5l0,-6" class="g3_15" />
<path d="M192.7,307.2l0,4.2" class="g3_15" />
<path d="M189.5,312.4l0,-4.1l2.8,-1.3" class="g3_15" />
<path d="M189.8,312.6l-0.3,-0.2" class="g3_15" />
<path d="M192.6,307.2l-2.7,1.2l-0.4,-0.1l0.4,0.1l-0.1,4.2" class="g3_15" />
<path d="M192.7,307.2l-0.3,-0.1" class="g3_15" />
<path d="M189.8,312.6l2.9,-1.2" class="g3_15" />
<path d="M190.7,309.2l0,1.6" class="g3_15" />
<path d="M191.3,309.4l0,1.4" class="g3_15" />
<path d="M190.7,309.2l1.1,-0.5" class="g3_15" />
<path d="M190.7,310.8c0,0,0.3,0.2,0.6,0" class="g3_15" />
<path d="M190.7,309.4c0,0,0.3,0.1,0.6,0" class="g3_15" />
<path d="M191.7,310.5l0.2,-0.1" class="g3_15" />
<path d="M191.7,310.5c0,0,-0.4,0.1,-0.4,0.3" class="g3_15" />
<path d="M191.7,309c0,0,-0.4,0.2,-0.4,0.4" class="g3_15" />
<path d="M191.7,309l0,1.5" class="g3_15" />
<path d="M191.7,309l-0.2,-0.1" class="g3_15" />
<path d="M191.5,310.5l0,-2" class="g3_15" />
<path d="M191,311.5l0,-0.2c0,0,0.1,0,0.1,0c0,0.1,-0.1,0.1,-0.1,0.1" class="g3_15" />
<path d="M191.2,311.2l0,0.2l0.1,-0.1l0,-0.1" class="g3_15" />
<path d="M191.4,311.3l0,-0.2c0,0,0.1,0,0.1,0c0,0.1,-0.1,0.1,-0.1,0.1" class="g3_15" />
<path d="M191.5,311.2l0,0.1" class="g3_15" />
<path d="M200.5,271.5l0,1" class="g3_15" />
<path d="M194.1,286.2c0,0.1,-0.2,0.2,-0.5,0.2c-0.3,0,-0.6,-0.1,-0.6,-0.2" class="g3_15" />
<path d="M194.1,286.5c0,0.1,-0.2,0.2,-0.5,0.2c-0.3,0,-0.6,-0.1,-0.6,-0.2" class="g3_15" />
<path d="M194.1,285.6c0,0.1,-0.2,0.2,-0.5,0.2c-0.3,0,-0.6,-0.1,-0.6,-0.2" class="g3_15" />
<path d="M194.1,285.9c0,0.1,-0.2,0.2,-0.5,0.2c-0.3,0,-0.6,-0.1,-0.6,-0.2" class="g3_15" />
<path d="M194.1,285c0,0.1,-0.2,0.2,-0.5,0.2c-0.3,0,-0.6,-0.1,-0.6,-0.2" class="g3_15" />
<path d="M194.1,285.3c0,0.1,-0.2,0.2,-0.5,0.2c-0.3,0,-0.6,-0.1,-0.6,-0.2" class="g3_15" />
<path d="M194.1,284.4c0,0.1,-0.2,0.2,-0.5,0.2c-0.3,0,-0.6,-0.1,-0.6,-0.2" class="g3_15" />
<path d="M194.1,284.7c0,0.1,-0.2,0.2,-0.5,0.2c-0.3,0,-0.6,-0.1,-0.6,-0.2" class="g3_15" />
<path d="M194.1,283.7c0,0.1,-0.2,0.2,-0.5,0.2c-0.3,0,-0.6,-0.1,-0.6,-0.2" class="g3_15" />
<path d="M194.1,284c0,0.1,-0.2,0.2,-0.5,0.2c-0.3,0,-0.6,-0.1,-0.6,-0.2" class="g3_15" />
<path d="M194.1,283.1c0,0.1,-0.2,0.2,-0.5,0.2c-0.3,0,-0.6,-0.1,-0.6,-0.2" class="g3_15" />
<path d="M194.1,283.4c0,0.1,-0.2,0.2,-0.5,0.2c-0.3,0,-0.6,-0.1,-0.6,-0.2" class="g3_15" />
<path d="M194.1,282.5c0,0.1,-0.2,0.2,-0.5,0.2c-0.3,0,-0.6,-0.1,-0.6,-0.2" class="g3_15" />
<path d="M194.1,282.8c0,0.1,-0.2,0.2,-0.5,0.2c-0.3,0,-0.6,-0.1,-0.6,-0.2" class="g3_15" />
<path d="M194.1,281.9c0,0.1,-0.2,0.2,-0.5,0.2c-0.3,0,-0.6,-0.1,-0.6,-0.2" class="g3_15" />
<path d="M194.1,282.2c0,0.1,-0.2,0.2,-0.5,0.2c-0.3,0,-0.6,-0.1,-0.6,-0.2" class="g3_15" />
<path d="M194.1,281.2c0,0.1,-0.2,0.2,-0.5,0.2c-0.3,0,-0.6,-0.1,-0.6,-0.2" class="g3_15" />
<path d="M194.1,281.5c0,0.2,-0.2,0.2,-0.5,0.2c-0.3,0,-0.6,0,-0.6,-0.2" class="g3_15" />
<path d="M194.1,280.6c0,0.1,-0.2,0.2,-0.5,0.2c-0.3,0,-0.6,-0.1,-0.6,-0.2" class="g3_15" />
<path d="M194.1,280.9c0,0.1,-0.2,0.2,-0.5,0.2c-0.3,0,-0.6,-0.1,-0.6,-0.2" class="g3_15" />
<path d="M194.1,280c0,0.1,-0.2,0.2,-0.5,0.2c-0.3,0,-0.6,-0.1,-0.6,-0.2" class="g3_15" />
<path d="M194.1,280.3c0,0.1,-0.2,0.2,-0.5,0.2c-0.3,0,-0.6,-0.1,-0.6,-0.2" class="g3_15" />
<path d="M204.4,276.2c0,0.1,-0.3,0.2,-0.6,0.2c-0.3,0,-0.5,-0.1,-0.5,-0.2" class="g3_15" />
<path d="M204.4,276.6c0,0.1,-0.3,0.2,-0.6,0.2c-0.3,0,-0.5,-0.1,-0.5,-0.2" class="g3_15" />
<path d="M204.4,276.9c0,0.1,-0.3,0.2,-0.6,0.2c-0.3,0,-0.5,-0.1,-0.5,-0.2" class="g3_15" />
<path d="M204.4,277.2c0,0.1,-0.3,0.2,-0.6,0.2c-0.3,0,-0.5,-0.1,-0.5,-0.2" class="g3_15" />
<path d="M204.4,277.5c0,0.2,-0.3,0.3,-0.6,0.3c-0.3,0,-0.5,-0.1,-0.5,-0.3" class="g3_15" />
<path d="M204.4,277.9c0,0.1,-0.3,0.2,-0.6,0.2c-0.3,0,-0.5,-0.1,-0.5,-0.2" class="g3_15" />
<path d="M204.4,278.2c0,0.1,-0.3,0.2,-0.6,0.2c-0.3,0,-0.5,-0.1,-0.5,-0.2" class="g3_15" />
<path d="M204.4,278.5c0,0.2,-0.3,0.3,-0.6,0.3c-0.3,0,-0.5,-0.1,-0.5,-0.3" class="g3_15" />
<path d="M204.4,278.9c0,0.1,-0.3,0.2,-0.6,0.2c-0.3,0,-0.5,-0.1,-0.5,-0.2" class="g3_15" />
<path d="M204.4,279.2c0,0.1,-0.3,0.2,-0.6,0.2c-0.3,0,-0.5,-0.1,-0.5,-0.2" class="g3_15" />
<path d="M204.4,279.5c0,0.2,-0.3,0.3,-0.6,0.3c-0.3,0,-0.5,-0.1,-0.5,-0.3" class="g3_15" />
<path d="M204.4,279.9c0,0.1,-0.3,0.2,-0.6,0.2c-0.3,0,-0.5,-0.1,-0.5,-0.2" class="g3_15" />
<path d="M204.4,280.2c0,0.1,-0.3,0.2,-0.6,0.2c-0.3,0,-0.5,-0.1,-0.5,-0.2" class="g3_15" />
<path d="M204.4,280.6c0,0.1,-0.3,0.2,-0.6,0.2c-0.3,0,-0.5,-0.1,-0.5,-0.2" class="g3_15" />
<path d="M204.4,280.9c0,0.1,-0.3,0.2,-0.6,0.2c-0.3,0,-0.5,-0.1,-0.5,-0.2" class="g3_15" />
<path d="M204.4,281.2c0,0.1,-0.3,0.2,-0.6,0.2c-0.3,0,-0.5,-0.1,-0.5,-0.2" class="g3_15" />
<path d="M204.4,281.6c0,0.1,-0.3,0.2,-0.6,0.2c-0.3,0,-0.5,-0.1,-0.5,-0.2" class="g3_15" />
<path d="M204.4,281.9c0,0.2,-0.3,0.3,-0.6,0.3c-0.3,0,-0.5,-0.1,-0.5,-0.3" class="g3_15" />
<path d="M204.4,282.3c0,0.1,-0.3,0.2,-0.6,0.2c-0.3,0,-0.5,-0.1,-0.5,-0.2" class="g3_15" />
<path d="M204.4,282.6c0,0.1,-0.3,0.2,-0.6,0.2c-0.3,0,-0.5,-0.1,-0.5,-0.2" class="g3_15" />
<path d="M204.4,282.9c0,0.1,-0.3,0.2,-0.6,0.2c-0.3,0,-0.5,-0.1,-0.5,-0.2" class="g3_15" />
<path d="M234.8,338.8c0.5,-0.1,1.1,0.4,1.3,1.2c0.2,0.6,0,1.1,-0.2,1.4" class="g3_15" />
<path d="M234.8,338.8l-3.1,0.7" class="g3_15" />
<path d="M227.7,341l3.1,-1.3" class="g3_15" />
<path d="M226.4,341.4l3.5,-1.5c0,0,0.4,-0.1,0.9,-0.2c0.5,-0.2,0.9,-0.2,0.9,-0.2" class="g3_15" />
<path d="M229.4,341.6l3.1,-1.4c0,0,0.3,-0.1,0.3,-0.3" class="g3_15" />
<path d="M232.8,339.9l0.3,-0.4l0,-0.1" class="g3_15" />
<path d="M232.9,339.4c0,0,-0.2,-0.1,-0.5,-0.1" class="g3_15" />
<path d="M232.8,339.9c0,0,0.4,0.3,1.6,0.5" class="g3_15" />
<path d="M230.7,342.9l3.4,-1.5c0,0,0.4,-0.3,0.4,-0.5" class="g3_15" />
<path d="M234.5,340.6c0,0.1,0,0.2,0,0.3" class="g3_15" />
<path d="M234.4,340.4c0,0,0.1,0.1,0.1,0.2" class="g3_15" />
<path d="M234.5,340.9l0,2.1" class="g3_15" />
<path d="M235.9,341.4l-1.4,0.9" class="g3_15" />
<path d="M230.7,345l3.4,-1.5" class="g3_15" />
<path d="M234.5,343c0,0,0.1,0.2,-0.4,0.5" class="g3_15" />
<path d="M227.6,346.4l0.1,0.4l1.7,0.6l3.1,-1.4" class="g3_15" />
<path d="M232.5,346c0,0,0.3,0,1.5,-2.4" class="g3_15" />
<path d="M229.7,345.2l1,-0.2" class="g3_15" />
<path d="M229.4,347.4l0.3,-2.2" class="g3_15" />
<path d="M230.7,345l0,-2.1l-1.3,-1.3L227.7,341l-1.3,0.4" class="g3_15" />
<path d="M227,341.6l-2.1,0.9" class="g3_15" />
<path d="M227.6,343.1l-2.2,0.9" class="g3_15" />
<path d="M225.2,344l-0.3,-0.1c0,0,-0.5,-0.5,0,-1.4" class="g3_15" />
<path d="M225.4,344c-0.1,-0.1,-0.4,-0.6,0,-1.4" class="g3_15" />
<path d="M225.2,342.5l0.2,0.1l2.2,-0.9l-0.3,-0.1l0.3,0.1l0,1.4" class="g3_15" />
<path d="M229.3,342.3l-2.2,1" class="g3_15" />
<path d="M229.7,343.8l-2.1,1" class="g3_15" />
<path d="M227.4,344.8l-0.3,-0.1c0,0,-0.5,-0.5,0,-1.4" class="g3_15" />
<path d="M227.6,344.8c-0.1,-0.1,-0.5,-0.6,0,-1.5" class="g3_15" />
<path d="M227.3,343.3l0.3,0l2.1,-0.9l-0.2,-0.1l0.2,0.1l0,1.4" class="g3_15" />
<path d="M226.4,343.6l0.5,0.5" class="g3_15" />
<path d="M227.4,344.7l0.1,0.5" class="g3_15" />
<path d="M225.4,346.1l2.9,-1.3" class="g3_15" />
<path d="M228.8,345.8l-2.9,1.3" class="g3_15" />
<path d="M225.9,347.1c-0.1,0,-0.1,0,-0.2,0c-0.3,0,-0.5,-0.2,-0.5,-0.5c0,-0.2,0,-0.4,0.2,-0.5" class="g3_15" />
<path d="M228.3,344.8c0,0,0.4,-0.1,0.6,0.4c0.1,0.5,-0.1,0.6,-0.1,0.6" class="g3_15" />
<path d="M225.5,346.2c0,0,0.5,0.1,0.3,0.7" class="g3_15" />
<path d="M227.9,344.2c-0.1,0,-0.2,-0.2,-0.1,-0.4c0,-0.2,0.1,-0.3,0.3,-0.3" class="g3_15" />
<path d="M228.1,343.5c0.1,0,0.2,0.2,0.1,0.4c0,0.2,-0.2,0.4,-0.3,0.4" class="g3_15" />
<path d="M227.9,343.5c0.1,0.1,0.1,0.2,0.1,0.3c-0.1,0.1,-0.1,0.2,-0.2,0.3" class="g3_15" />
<path d="M225.7,343.5c-0.1,0,-0.2,-0.2,-0.1,-0.4c0,-0.2,0.2,-0.3,0.3,-0.3" class="g3_15" />
<path d="M225.9,342.8c0.1,0,0.2,0.2,0.1,0.4c0,0.2,-0.2,0.4,-0.3,0.4" class="g3_15" />
<path d="M225.8,342.8c0,0.1,0,0.2,0,0.3c-0.1,0.1,-0.1,0.2,-0.2,0.3" class="g3_15" />
<path d="M160.5,518.5l0,-8" class="g3_15" />
<path d="M160.5,522.5l0,-2" class="g3_15" />
<path d="M161.5,510.5l0,8m0,2l0,2" class="g3_15" />
<path d="M160.5,510.5c0,-0.1,0.2,-0.2,0.5,-0.2c0.3,0,0.5,0.1,0.5,0.2" class="g3_15" />
<path d="M161.5,510.5c0,0.1,-0.2,0.2,-0.5,0.2c-0.3,0,-0.5,-0.1,-0.5,-0.2" class="g3_15" />
<path d="M160.4,510.7l0.1,-0.2" class="g3_15" />
<path d="M161.5,510.5l0.1,0.2" class="g3_15" />
<path d="M161.6,510.7c0,0.1,-0.3,0.2,-0.6,0.2c-0.3,0,-0.6,-0.1,-0.6,-0.2" class="g3_15" />
<path d="M162.1,518.1c0,0.3,-0.5,0.5,-1.1,0.5c-0.6,0,-1.1,-0.2,-1.1,-0.5" class="g3_15" />
<path d="M161.6,517.9c0.3,0.1,0.5,0.2,0.5,0.3" class="g3_15" />
<path d="M159.9,518.2c0,-0.1,0.2,-0.3,0.5,-0.3" class="g3_15" />
<path d="M161.6,510.9c0,0.1,-0.3,0.2,-0.6,0.2c-0.4,0,-0.6,-0.1,-0.6,-0.2" class="g3_15" />
<path d="M161.6,511.1c0,0.2,-0.3,0.3,-0.6,0.3c-0.4,0,-0.6,-0.1,-0.6,-0.3" class="g3_15" />
<path d="M161.6,511.4c0,0.1,-0.3,0.2,-0.6,0.2c-0.3,0,-0.6,-0.1,-0.6,-0.2" class="g3_15" />
<path d="M161.6,511.7c0,0.1,-0.3,0.2,-0.6,0.2c-0.4,0,-0.6,-0.1,-0.6,-0.2" class="g3_15" />
<path d="M161.6,512c0,0.2,-0.3,0.3,-0.6,0.3c-0.4,0,-0.6,-0.1,-0.6,-0.3" class="g3_15" />
<path d="M161.6,512.3c0,0.2,-0.3,0.3,-0.6,0.3c-0.4,0,-0.6,-0.1,-0.6,-0.3" class="g3_15" />
<path d="M161.6,512.6c0,0.1,-0.3,0.2,-0.6,0.2c-0.3,0,-0.6,-0.1,-0.6,-0.2" class="g3_15" />
<path d="M161.6,512.9c0,0.1,-0.3,0.2,-0.6,0.2c-0.4,0,-0.6,-0.1,-0.6,-0.2" class="g3_15" />
<path d="M161.6,513.1c0,0.2,-0.3,0.3,-0.6,0.3c-0.4,0,-0.6,-0.1,-0.6,-0.3" class="g3_15" />
<path d="M161.6,513.4c0,0.1,-0.3,0.2,-0.6,0.2c-0.4,0,-0.6,-0.1,-0.6,-0.2" class="g3_15" />
<path d="M161.6,513.7c0,0.1,-0.3,0.2,-0.6,0.2c-0.3,0,-0.6,-0.1,-0.6,-0.2" class="g3_15" />
<path d="M161.6,514c0,0.1,-0.3,0.2,-0.6,0.2c-0.4,0,-0.6,-0.1,-0.6,-0.2" class="g3_15" />
<path d="M161.6,514.2c0,0.2,-0.3,0.3,-0.6,0.3c-0.4,0,-0.6,-0.1,-0.6,-0.3" class="g3_15" />
<path d="M161.6,514.5c0,0.1,-0.3,0.2,-0.6,0.2c-0.4,0,-0.6,-0.1,-0.6,-0.2" class="g3_15" />
<path d="M161.6,514.8c0,0.1,-0.3,0.2,-0.6,0.2c-0.3,0,-0.6,-0.1,-0.6,-0.2" class="g3_15" />
<path d="M161.6,515c0,0.2,-0.3,0.3,-0.6,0.3c-0.4,0,-0.6,-0.1,-0.6,-0.3" class="g3_15" />
<path d="M161.6,515.3c0,0.1,-0.3,0.2,-0.6,0.2c-0.4,0,-0.6,-0.1,-0.6,-0.2" class="g3_15" />
<path d="M161.6,515.6c0,0.1,-0.3,0.2,-0.6,0.2c-0.4,0,-0.6,-0.1,-0.6,-0.2" class="g3_15" />
<path d="M161.6,515.9c0,0.1,-0.3,0.2,-0.6,0.2c-0.3,0,-0.6,-0.1,-0.6,-0.2" class="g3_15" />
<path d="M161.6,516.1c0,0.2,-0.3,0.3,-0.6,0.3c-0.4,0,-0.6,-0.1,-0.6,-0.3" class="g3_15" />
<path d="M161.6,516.4c0,0.1,-0.3,0.2,-0.6,0.2c-0.4,0,-0.6,-0.1,-0.6,-0.2" class="g3_15" />
<path d="M161.6,516.7c0,0.1,-0.3,0.3,-0.6,0.3c-0.4,0,-0.6,-0.2,-0.6,-0.3" class="g3_15" />
<path d="M161.6,517c0,0.1,-0.3,0.2,-0.6,0.2c-0.3,0,-0.6,-0.1,-0.6,-0.2" class="g3_15" />
<path d="M161.6,517.3c0,0.1,-0.3,0.2,-0.6,0.2c-0.4,0,-0.6,-0.1,-0.6,-0.2" class="g3_15" />
<path d="M161.6,517.5c0,0.2,-0.3,0.3,-0.6,0.3c-0.4,0,-0.6,-0.1,-0.6,-0.3" class="g3_15" />
<path d="M161.6,521.6c0,0.1,-0.3,0.2,-0.6,0.2c-0.4,0,-0.6,-0.1,-0.6,-0.2" class="g3_15" />
<path d="M161.6,521.9c0,0.1,-0.3,0.2,-0.6,0.2c-0.3,0,-0.6,-0.1,-0.6,-0.2" class="g3_15" />
<path d="M161.6,522.2c0,0.1,-0.3,0.2,-0.6,0.2c-0.4,0,-0.6,-0.1,-0.6,-0.2" class="g3_15" />
<path d="M161.6,522.4c0,0.1,-0.3,0.3,-0.6,0.3c-0.4,0,-0.6,-0.2,-0.6,-0.3" class="g3_15" />
<path d="M161.6,520.4c0,0.2,-0.3,0.3,-0.6,0.3c-0.2,0,-0.3,-0.1,-0.4,-0.1" class="g3_15" />
<path d="M161.6,520.7c0,0.1,-0.3,0.2,-0.6,0.2c-0.3,0,-0.6,-0.1,-0.6,-0.2" class="g3_15" />
<path d="M161.6,521c0,0.1,-0.3,0.2,-0.6,0.2c-0.4,0,-0.6,-0.1,-0.6,-0.2" class="g3_15" />
<path d="M161.6,521.2c0,0.2,-0.3,0.3,-0.6,0.3c-0.4,0,-0.6,-0.1,-0.6,-0.3" class="g3_15" />
<path d="M161.6,518c0,0.2,-0.3,0.3,-0.6,0.3c-0.4,0,-0.6,-0.1,-0.6,-0.3" class="g3_15" />
<path d="M161.6,518.2c0,0.1,-0.3,0.2,-0.6,0.2c-0.4,0,-0.6,-0.1,-0.6,-0.2" class="g3_15" />
<path d="M161.6,517.8c0,0.1,-0.3,0.2,-0.6,0.2c-0.4,0,-0.6,-0.1,-0.6,-0.2" class="g3_15" />
<path d="M162.1,522.5c0,0.2,-0.5,0.4,-1.1,0.4c-0.6,0,-1.1,-0.2,-1.1,-0.4" class="g3_15" />
<path d="M161.6,522.1c0.3,0.1,0.5,0.2,0.5,0.4" class="g3_15" />
<path d="M159.9,522.5c0,-0.2,0.2,-0.3,0.5,-0.4" class="g3_15" />
<path d="M162.1,519.2c0,0.2,-0.5,0.4,-1.1,0.4c-0.6,0,-1.1,-0.2,-1.1,-0.4" class="g3_15" />
<path d="M159.5,519.5l0,-1" class="g3_15" />
<path d="M162.5,518.5l0,1" class="g3_15" />
<path d="M162.1,522.8c0,0.2,-0.5,0.4,-1.1,0.4c-0.6,0,-1.1,-0.2,-1.1,-0.4" class="g3_15" />
<path d="M162.1,522.5l0,0.3" class="g3_15" />
<path d="M162.1,522.8c0,0.2,-0.5,0.6,-1.1,0.6c-0.6,0,-1.1,-0.4,-1.1,-0.6" class="g3_15" />
<path d="M162.1,518.3c0,0.2,-0.5,0.4,-1.1,0.4c-0.6,0,-1.1,-0.2,-1.1,-0.4" class="g3_15" />
<path d="M171.5,513.5l0,-7" class="g3_15" />
<path d="M171.5,517.5l0,-1" class="g3_15" />
<path d="M172.5,506.5l0,7m0,2l0,2" class="g3_15" />
<path d="M171.5,505.9c0,-0.1,0.2,-0.2,0.5,-0.2c0.2,0,0.5,0.1,0.5,0.2" class="g3_15" />
<path d="M172.5,505.9c0,0.1,-0.3,0.2,-0.5,0.2c-0.3,0,-0.5,-0.1,-0.5,-0.2" class="g3_15" />
<path d="M171.4,506.1l0.1,-0.2" class="g3_15" />
<path d="M172.5,505.9l0,0.2" class="g3_15" />
<path d="M172.5,506.1c0,0.1,-0.2,0.2,-0.6,0.2c-0.3,0,-0.5,-0.1,-0.5,-0.2" class="g3_15" />
<path d="M173.1,513.5c0,0.3,-0.5,0.5,-1.2,0.5c-0.6,0,-1.1,-0.2,-1.1,-0.5" class="g3_15" />
<path d="M172.6,513.2c0.3,0.1,0.5,0.3,0.5,0.4" class="g3_15" />
<path d="M170.8,513.6c0,-0.1,0.2,-0.3,0.5,-0.4" class="g3_15" />
<path d="M172.5,506.3c0,0.1,-0.2,0.2,-0.6,0.2c-0.3,0,-0.6,-0.1,-0.6,-0.2" class="g3_15" />
<path d="M172.5,506.5c0,0.2,-0.2,0.3,-0.6,0.3c-0.3,0,-0.6,-0.1,-0.6,-0.3" class="g3_15" />
<path d="M172.5,506.8c0,0.1,-0.2,0.2,-0.6,0.2c-0.3,0,-0.5,-0.1,-0.5,-0.2" class="g3_15" />
<path d="M172.5,507c0,0.2,-0.2,0.3,-0.6,0.3c-0.3,0,-0.6,-0.1,-0.6,-0.3" class="g3_15" />
<path d="M172.5,507.3c0,0.1,-0.2,0.2,-0.6,0.2c-0.3,0,-0.6,-0.1,-0.6,-0.2" class="g3_15" />
<path d="M172.5,507.5c0,0.2,-0.2,0.3,-0.6,0.3c-0.3,0,-0.6,-0.1,-0.6,-0.3" class="g3_15" />
<path d="M172.5,507.8c0,0.1,-0.2,0.2,-0.6,0.2c-0.3,0,-0.6,-0.1,-0.6,-0.2" class="g3_15" />
<path d="M172.5,508.1c0,0.1,-0.2,0.3,-0.6,0.3c-0.3,0,-0.6,-0.2,-0.6,-0.3" class="g3_15" />
<path d="M172.5,508.4c0,0.1,-0.2,0.2,-0.6,0.2c-0.3,0,-0.6,-0.1,-0.6,-0.2" class="g3_15" />
<path d="M172.5,508.6c0,0.2,-0.2,0.3,-0.6,0.3c-0.3,0,-0.6,-0.1,-0.6,-0.3" class="g3_15" />
<path d="M172.5,508.9c0,0.1,-0.2,0.2,-0.6,0.2c-0.3,0,-0.6,-0.1,-0.6,-0.2" class="g3_15" />
<path d="M172.5,509.2c0,0.1,-0.2,0.2,-0.6,0.2c-0.3,0,-0.6,-0.1,-0.6,-0.2" class="g3_15" />
<path d="M172.5,509.5c0,0.1,-0.2,0.2,-0.6,0.2c-0.3,0,-0.6,-0.1,-0.6,-0.2" class="g3_15" />
<path d="M172.5,509.7c0,0.1,-0.2,0.2,-0.6,0.2c-0.3,0,-0.6,-0.1,-0.6,-0.2" class="g3_15" />
<path d="M172.5,510c0,0.1,-0.2,0.2,-0.6,0.2c-0.3,0,-0.6,-0.1,-0.6,-0.2" class="g3_15" />
<path d="M172.5,510.3c0,0.1,-0.2,0.2,-0.6,0.2c-0.3,0,-0.6,-0.1,-0.6,-0.2" class="g3_15" />
<path d="M172.5,510.5c0,0.2,-0.2,0.3,-0.6,0.3c-0.3,0,-0.6,-0.1,-0.6,-0.3" class="g3_15" />
<path d="M172.5,510.8c0,0.2,-0.2,0.3,-0.6,0.3c-0.3,0,-0.6,-0.1,-0.6,-0.3" class="g3_15" />
<path d="M172.5,511.1c0,0.1,-0.2,0.2,-0.6,0.2c-0.3,0,-0.6,-0.1,-0.6,-0.2" class="g3_15" />
<path d="M172.5,511.4c0,0.1,-0.2,0.2,-0.6,0.2c-0.3,0,-0.6,-0.1,-0.6,-0.2" class="g3_15" />
<path d="M172.5,511.7c0,0.1,-0.2,0.2,-0.6,0.2c-0.3,0,-0.6,-0.1,-0.6,-0.2" class="g3_15" />
<path d="M172.5,511.9c0,0.2,-0.2,0.3,-0.6,0.3c-0.3,0,-0.6,-0.1,-0.6,-0.3" class="g3_15" />
<path d="M172.5,512.2c0,0.1,-0.2,0.2,-0.6,0.2c-0.3,0,-0.6,-0.1,-0.6,-0.2" class="g3_15" />
<path d="M172.5,512.5c0,0.1,-0.2,0.2,-0.6,0.2c-0.3,0,-0.6,-0.1,-0.6,-0.2" class="g3_15" />
<path d="M172.5,512.8c0,0.1,-0.2,0.2,-0.6,0.2c-0.3,0,-0.6,-0.1,-0.6,-0.2" class="g3_15" />
<path d="M172.5,517c0,0.1,-0.2,0.2,-0.6,0.2c-0.3,0,-0.6,-0.1,-0.6,-0.2" class="g3_15" />
<path d="M172.5,517.2c0,0.2,-0.2,0.3,-0.6,0.3c-0.3,0,-0.5,-0.1,-0.5,-0.3" class="g3_15" />
<path d="M172.5,517.5c0,0.2,-0.2,0.3,-0.6,0.3c-0.3,0,-0.6,-0.1,-0.6,-0.3" class="g3_15" />
<path d="M172.5,517.8c0,0.1,-0.2,0.2,-0.6,0.2c-0.3,0,-0.6,-0.1,-0.6,-0.2" class="g3_15" />
<path d="M172.5,515.8c0,0.1,-0.2,0.2,-0.6,0.2c0,0,-0.1,0,-0.2,0" class="g3_15" />
<path d="M172.5,516.1c0,0.1,-0.2,0.2,-0.6,0.2c-0.2,0,-0.4,-0.1,-0.5,-0.1" class="g3_15" />
<path d="M172.5,516.3c0,0.2,-0.2,0.3,-0.6,0.3c-0.3,0,-0.6,-0.1,-0.6,-0.3" class="g3_15" />
<path d="M172.5,516.6c0,0.1,-0.2,0.2,-0.6,0.2c-0.3,0,-0.6,-0.1,-0.6,-0.2" class="g3_15" />
<path d="M172.5,513.3c0,0.1,-0.2,0.2,-0.6,0.2c-0.3,0,-0.6,-0.1,-0.6,-0.2" class="g3_15" />
<path d="M172.5,513.5c0,0.2,-0.2,0.3,-0.6,0.3c-0.3,0,-0.6,-0.1,-0.6,-0.3" class="g3_15" />
<path d="M172.5,513.1c0,0.1,-0.2,0.2,-0.6,0.2c-0.3,0,-0.6,-0.1,-0.6,-0.2" class="g3_15" />
<path d="M173.1,517.8c0,0.3,-0.5,0.5,-1.1,0.5c-0.7,0,-1.2,-0.2,-1.2,-0.5" class="g3_15" />
<path d="M172.6,517.5c0.3,0,0.5,0.2,0.5,0.3" class="g3_15" />
<path d="M170.8,517.8c0,-0.1,0.2,-0.3,0.5,-0.3" class="g3_15" />
<path d="M173.1,514.5c0,0.3,-0.5,0.5,-1.2,0.5c-0.6,0,-1.1,-0.2,-1.1,-0.5" class="g3_15" />
<path d="M170.5,514.5l0,-1" class="g3_15" />
<path d="M173.5,513.5l0,1" class="g3_15" />
<path d="M173.1,518.1c0,0.3,-0.5,0.5,-1.1,0.5c-0.7,0,-1.2,-0.2,-1.2,-0.5" class="g3_15" />
<path d="M170.5,517.5l0,1" class="g3_15" />
<path d="M173.1,517.8l0,0.3" class="g3_15" />
<path d="M173.1,518.1c0,0.3,-0.5,0.7,-1.1,0.7c-0.7,0,-1.2,-0.4,-1.2,-0.7" class="g3_15" />
<path d="M173.1,513.6c0,0.3,-0.5,0.5,-1.2,0.5c-0.6,0,-1.1,-0.2,-1.1,-0.5" class="g3_15" />
<path d="M168.1,501.9l-10.7,4.6L119,494.1" class="g3_15" />
<path d="M119,494l10.8,-4.6l38.3,12.4" class="g3_15" />
<path d="M118.9,494c0,0,-0.1,0.1,0.1,0.1" class="g3_15" />
<path d="M156.1,546.1L114.5,532.6" class="g3_15" />
<path d="M172.5,539.1l-16.4,7" class="g3_15" />
<path d="M156.5,507L119,494.9" class="g3_15" />
<path d="M169.9,501.3l-13.8,5.9" class="g3_15" />
<path d="M119,494c0,0,-0.2,0,-0.2,0.2" class="g3_15" />
<path d="M118.8,494.7c0,0,0,0.2,0.2,0.2" class="g3_15" />
<path d="M117.2,494.6l13.9,-5.9" class="g3_15" />
<path d="M156.1,507.2L117.2,494.7" class="g3_15" />
<path d="M118.8,494.4l-0.9,0.4" class="g3_15" />
<path d="M119.6,495.5l0.2,-0.3L119.2,495l-0.5,0.2" class="g3_15" />
<path d="M118.8,494.7l-0.7,0.3" class="g3_15" />
<path d="M169.3,501.5L131.2,489.3" class="g3_15" />
<path d="M169.9,501.2L131.1,488.7" class="g3_15" />
<path d="M175.9,501.1L131.1,486.6" class="g3_15" />
<path d="M130.4,489.6l0.7,-0.3" class="g3_15" />
<path d="M131.1,488.7l0,0.5" class="g3_15" />
<path d="M111.2,494.8l19.3,-8.1" class="g3_15" />
<path d="M156.7,509.3l19.2,-8.2" class="g3_15" />
<path d="M156.9,509.9l19.2,-8.2" class="g3_15" />
<path d="M156.7,511.6l16,-6.8" class="g3_15" />
<path d="M175.9,501.1c0,0,0.6,0.1,0.2,0.6" class="g3_15" />
<path d="M156.2,509.3L111.3,494.8" class="g3_15" />
<path d="M156.1,509.9L111,495.3" class="g3_15" />
<path d="M155.9,511.6L114.3,498.2" class="g3_15" />
<path d="M130.5,486.7c0,0,0.2,-0.2,0.6,-0.1" class="g3_15" />
<path d="M111.5,494.5l0,1" class="g3_15" />
<path d="M111,495c0,0,0,-0.1,0.2,-0.2" class="g3_15" />
<path d="M156.2,509.3c0,0,0.3,0.1,0.5,0" class="g3_15" />
<path d="M156.1,509.9c0,0,0.4,0.1,0.8,0" class="g3_15" />
<path d="M155.9,511.6c0,0,0.4,0.1,0.8,0" class="g3_15" />
<path d="M156.5,510.5l0,1" class="g3_15" />
<path d="M156.5,510.5l0,1" class="g3_15" />
<path d="M172.5,503.5l0,1" class="g3_15" />
<path d="M172.9,504.6c0,0,0.1,0.1,-0.4,0.3" class="g3_15" />
<path d="M172.5,504.5l0,1" class="g3_15" />
<path d="M172.5,538.5l0,1" class="g3_15" />
<path d="M172.5,518.7l0,17.6" class="g3_15" />
<path d="M157.7,512.8l0,5.7m0,6.9l0,18.3" class="g3_15" />
<path d="M154.6,512.7l0,3.2m0,9l0,19.3" class="g3_15" />
<path d="M116.9,499.1l0.1,34.3" class="g3_15" />
<path d="M116.8,499.1l0,34.3" class="g3_15" />
<path d="M114.8,498.4l0,5.2m0,1.5l0,1.2m0,4.7l0,21.6" class="g3_15" />
<path d="M114.5,496.5l0,2" class="g3_15" />
<path d="M114.3,498.2l0.5,0.2" class="g3_15" />
<path d="M155.9,546.3L114.3,532.8" class="g3_15" />
<path d="M155.8,548.9L114.7,535.5" class="g3_15" />
<path d="M114.3,532.6l0,2.5" class="g3_15" />
<path d="M114.3,535.1c0,0,0,0.3,0.4,0.5" class="g3_15" />
<path d="M114.3,532.6c0,0,0.1,-0.2,0.5,-0.2" class="g3_15" />
<path d="M114.5,532.6l0.2,0" class="g3_15" />
<path d="M114.2,503.9l-2,0.8l0,0.5l2.4,0.8l-0.3,0.2l0,4.6l1.9,0.6" class="g3_15" />
<path d="M112.2,504.8l2.5,0.8" class="g3_15" />
<path d="M114.3,506.3l2,0.7l0.2,-0.1l-1.9,-0.6" class="g3_15" />
<path d="M114.6,506.3l0.1,-0.1" class="g3_15" />
<path d="M116.3,507l0,1.7l0.2,0l0,-1.7l0,-0.1" class="g3_15" />
<path d="M116.3,509.7l0,1.8l0.2,-0.2l0,-1.6c0,0,0,-0.1,-0.1,-0.1" class="g3_15" />
<path d="M116.3,509.7l-0.9,-0.3l0.2,-0.1l0.8,0.3" class="g3_15" />
<path d="M116.4,509.7l0.1,0" class="g3_15" />
<path d="M116.3,509.6l0.1,0" class="g3_15" />
<path d="M116.4,507.1l0.1,0" class="g3_15" />
<path d="M115.7,508.6l0.5,0.1" class="g3_15" />
<path d="M115.2,509.9c0,0,0.2,0,0.2,-0.5" class="g3_15" />
<path d="M115.2,509.9c0,0,-0.3,0,-0.3,-0.9" class="g3_15" />
<path d="M115.2,510c0,0,-0.4,0,-0.5,-0.5" class="g3_15" />
<path d="M114.5,504.5l0,-1" class="g3_15" />
<path d="M114.2,503.7c0,0,0,-0.4,0.5,-0.5" class="g3_15" />
<path d="M114.2,504.5c0,0,0,0.2,0.3,0.3" class="g3_15" />
<path d="M114.3,503.6c0,0,-0.1,0.2,0.2,0.2" class="g3_15" />
<path d="M173,539.1l-16.6,7.1" class="g3_15" />
<path d="M172.7,541.9l-16.3,7" class="g3_15" />
<path d="M172.5,541.5l0,-2" class="g3_15" />
<path d="M172.9,541.6c0,0,0,0.3,-0.2,0.3" class="g3_15" />
<path d="M155.8,548.9c0,0,0.3,0.1,0.5,0" class="g3_15" />
<path d="M156.3,546.2l0,2.7" class="g3_15" />
<path d="M156.1,546.2l0,2.7" class="g3_15" />
<path d="M155.9,546.3l0,2.6" class="g3_15" />
<path d="M156.3,546.2l-0.2,-0.1l-0.1,0.1" class="g3_15" />
<path d="M154.2,521.7l0.9,0.3" class="g3_15" />
<path d="M155.6,522.7c-0.1,0.1,-0.5,0.2,-0.5,-0.7" class="g3_15" />
<path d="M154.9,522.1l0,0.4" class="g3_15" />
<path d="M155.5,522.9c0,0,-0.4,0.1,-0.6,-0.4" class="g3_15" />
<path d="M154,521.8l0.9,0.3" class="g3_15" />
<path d="M155.1,522l-0.2,0.1" class="g3_15" />
<path d="M154,521.8c0,0,0.1,-0.1,0.2,-0.1" class="g3_15" />
<path d="M158.6,523.4l-2,0.8" class="g3_15" />
<path d="M154.1,521.9l-0.1,1.7l1.9,0.6" class="g3_15" />
<path d="M155.9,524.2c0,0,0.4,0.1,0.7,0" class="g3_15" />
<path d="M155.6,522l0,0.6c0,0,0,0.2,-0.1,0.2" class="g3_15" />
<path d="M154.1,519.1l-0.1,0l0,1.8l0.4,0.1" class="g3_15" />
<path d="M154.2,519l1.8,0.6" class="g3_15" />
<path d="M154.1,519.2l1.8,0.5" class="g3_15" />
<path d="M157.1,519.4l-0.6,0.2" class="g3_15" />
<path d="M157.1,519.5l-0.5,0.2" class="g3_15" />
<path d="M156,519.6c0,0,0.2,0.1,0.5,0" class="g3_15" />
<path d="M155.9,519.7c0,0,0.4,0.1,0.7,0" class="g3_15" />
<path d="M157.1,519.4l0.2,0.1l0,0.5" class="g3_15" />
<path d="M156.5,520.3l0,3.1" class="g3_15" />
<path d="M157.3,520.3l-0.1,3.1" class="g3_15" />
<path d="M160.4,520.3l-2.6,-0.9" class="g3_15" />
<path d="M160.5,520.8l-2.6,-0.9" class="g3_15" />
<path d="M157.9,519.8c0,0,-0.3,-0.1,-0.6,0.2" class="g3_15" />
<path d="M157.8,519.4c0,0,-0.2,0,-0.4,0.1" class="g3_15" />
<path d="M161,520.3l14.1,-6" class="g3_15" />
<path d="M161,520.8l14,-6" class="g3_15" />
<path d="M160.5,520.8c0,0,0.2,0.1,0.5,0" class="g3_15" />
<path d="M161,520.3c0,0,-0.3,0.1,-0.6,0" class="g3_15" />
<path d="M157.7,519.4l2.2,-0.9m1.7,-0.8l9.2,-3.9" class="g3_15" />
<path d="M173.1,513.5l1.9,0.7" class="g3_15" />
<path d="M175,514.2c0,0,0.3,0.4,0,0.6" class="g3_15" />
<path d="M172.9,512.7l0,0.7m0,2.2l0,1.6" class="g3_15" />
<path d="M172.6,512.5c0,0,0.7,0.1,0,0.4" class="g3_15" />
<path d="M172.9,517.2c0,0,-0.1,0.2,-0.3,0.3" class="g3_15" />
<path d="M170.8,518.2l0,2.8l-12.1,5.3l-0.3,-0.1" class="g3_15" />
<path d="M158.7,523.4l0,2.8" class="g3_15" />
<path d="M158.4,523.5l0,2.7" class="g3_15" />
<path d="M155.6,518.1c-0.2,0.1,-0.6,-0.1,-0.8,-0.6c-0.2,-0.4,-0.1,-0.8,0.2,-1" class="g3_15" />
<path d="M155,516.5c0.3,-0.1,0.6,0.2,0.8,0.6c0.2,0.5,0.1,0.9,-0.2,1" class="g3_15" />
<path d="M155.2,516.5c0.3,-0.2,0.6,0.1,0.8,0.5c0.2,0.5,0.1,0.9,-0.2,1" class="g3_15" />
<path d="M155,516.5l0.2,0" class="g3_15" />
<path d="M155.7,518.1l0.2,-0.1" class="g3_15" />
<path d="M155.2,517l0,0.3l0.3,0.1l0,0.2" class="g3_15" />
<path d="M155.2,516.9l-0.1,0l-0.1,0.4l-0.2,-0.1l0,0.2l0.3,0.1l0,0.3l0.1,0.1" class="g3_15" />
<path d="M155.5,517.6l-0.2,0" class="g3_15" />
<path d="M155,517.3l0.2,0.1" class="g3_15" />
<path d="M155.2,517.8l0,-0.2" class="g3_15" />
<path d="M155.1,517.5l0.1,0" class="g3_15" />
<path d="M155.5,521.9c-0.3,0.1,-0.7,-0.2,-0.9,-0.6c-0.2,-0.4,-0.1,-0.9,0.2,-1" class="g3_15" />
<path d="M154.8,520.3c0.3,-0.1,0.7,0.2,0.9,0.6c0.1,0.4,0.1,0.9,-0.2,1" class="g3_15" />
<path d="M155,520.2c0.3,-0.1,0.7,0.2,0.9,0.6c0.1,0.4,0.1,0.9,-0.2,1" class="g3_15" />
<path d="M154.8,520.3l0.3,0" class="g3_15" />
<path d="M155.5,521.9l0.2,-0.1" class="g3_15" />
<path d="M155.1,520.7l0,0.3l0.3,0.2l0,0.2" class="g3_15" />
<path d="M155.1,520.7l-0.2,-0.1l0,0.4l-0.2,-0.1l0,0.2l0.2,0.2l0,0.3l0.2,0.1" class="g3_15" />
<path d="M155.3,521.4l-0.2,0" class="g3_15" />
<path d="M154.9,521l0.2,0.2" class="g3_15" />
<path d="M155.1,521.6l0,-0.2" class="g3_15" />
<path d="M154.9,521.3l0.2,0" class="g3_15" />
<path d="M115.2,509c-0.3,0.1,-0.7,-0.1,-0.9,-0.6c-0.2,-0.4,-0.1,-0.8,0.2,-1" class="g3_15" />
<path d="M114.5,507.4c0.3,-0.1,0.7,0.2,0.8,0.6c0.2,0.5,0.1,0.9,-0.1,1" class="g3_15" />
<path d="M114.7,507.4c0.3,-0.2,0.7,0.1,0.8,0.5c0.2,0.5,0.1,0.9,-0.1,1" class="g3_15" />
<path d="M114.5,507.4l0.3,0" class="g3_15" />
<path d="M115.2,509l0.2,-0.1" class="g3_15" />
<path d="M114.7,507.9l0,0.3l0.3,0.1l0,0.2" class="g3_15" />
<path d="M114.7,507.8l-0.1,0l0,0.4l-0.2,-0.1l0,0.2l0.2,0.1l0,0.3l0.1,0.1" class="g3_15" />
<path d="M115,508.5l-0.2,0" class="g3_15" />
<path d="M114.6,508.2l0.1,0.1" class="g3_15" />
<path d="M114.7,508.7l0.1,-0.2" class="g3_15" />
<path d="M114.6,508.4l0.1,0" class="g3_15" />
<path d="M115.4,505.3c-0.3,0.1,-0.7,-0.2,-0.8,-0.6c-0.2,-0.5,-0.1,-0.9,0.1,-1" class="g3_15" />
<path d="M114.7,503.7c0.3,-0.1,0.7,0.1,0.9,0.6c0.2,0.4,0.1,0.9,-0.2,1" class="g3_15" />
<path d="M114.9,503.6c0.3,-0.1,0.7,0.1,0.9,0.6c0.2,0.4,0.1,0.9,-0.2,1" class="g3_15" />
<path d="M114.8,503.7l0.2,-0.1" class="g3_15" />
<path d="M115.5,505.3l0.1,-0.1" class="g3_15" />
<path d="M115,504.1l0,0.3l0.3,0.2l0,0.1" class="g3_15" />
<path d="M115,504l-0.2,0l0,0.4l-0.2,-0.1l0,0.2l0.2,0.2l0,0.3l0.2,0" class="g3_15" />
<path d="M115.2,504.8L115,504.7" class="g3_15" />
<path d="M114.8,504.4l0.2,0.2" class="g3_15" />
<path d="M115,505l0,-0.2" class="g3_15" />
<path d="M114.8,504.7l0.2,-0.1" class="g3_15" />
<path d="M135.3,541.7c-0.3,0.1,-0.7,-0.1,-0.9,-0.6c-0.2,-0.4,-0.1,-0.8,0.2,-0.9" class="g3_15" />
<path d="M134.6,540.2c0.3,-0.2,0.7,0.1,0.8,0.5c0.2,0.5,0.1,0.9,-0.1,1" class="g3_15" />
<path d="M134.8,540.1c0.3,-0.2,0.6,0.1,0.8,0.5c0.2,0.5,0.1,0.9,-0.1,1" class="g3_15" />
<path d="M134.6,540.1l0.3,0" class="g3_15" />
<path d="M135.3,541.8l0.2,-0.2" class="g3_15" />
<path d="M134.8,540.6l0,0.3l0.3,0.1l0,0.2" class="g3_15" />
<path d="M134.8,540.5l-0.1,0l0,0.4l-0.2,-0.1l0,0.2l0.2,0.1l0,0.4l0.1,0" class="g3_15" />
<path d="M135.1,541.2l-0.2,0" class="g3_15" />
<path d="M134.7,540.9l0.1,0.1" class="g3_15" />
<path d="M134.8,541.5l0,-0.3" class="g3_15" />
<path d="M134.7,541.1l0.1,0" class="g3_15" />
<path d="M119.4,498.5c0,0.2,-0.2,0.5,-0.4,0.6c-0.3,0.1,-0.8,-0.1,-0.9,-0.5C118,498.5,118,498.4,118,498.3" class="g3_15" />
<path d="M118,498.3l0,-0.6" class="g3_15" />
<path d="M119.4,498.5l0,-0.4" class="g3_15" />
<path d="M118.6,497.9c0.1,0,0.2,0.1,0.3,0.2c0,0.1,0,0.3,-0.1,0.3c-0.2,0.1,-0.3,0,-0.3,-0.2c-0.1,-0.1,0,-0.2,0.1,-0.3Z" class="g3_15" />
<path d="M135.9,503.8c-0.1,0.3,-0.2,0.5,-0.4,0.6c-0.4,0.1,-0.8,-0.1,-1,-0.5c0,-0.1,0,-0.2,0,-0.3" class="g3_15" />
<path d="M134.5,503.6l0,-0.6" class="g3_15" />
<path d="M135.9,503.8l-0.1,-0.4" class="g3_15" />
<path d="M135,503.2c0.2,0,0.3,0.1,0.3,0.2c0.1,0.2,0,0.3,-0.1,0.4c-0.1,0,-0.2,-0.1,-0.3,-0.2c0,-0.2,0,-0.3,0.1,-0.4Z" class="g3_15" />
<path d="M152.4,509.1c0,0.3,-0.2,0.5,-0.4,0.6c-0.3,0.1,-0.7,-0.1,-0.9,-0.5C151,509.1,151,509,151,508.9" class="g3_15" />
<path d="M151,508.9l0,-0.6" class="g3_15" />
<path d="M152.4,509.1l0,-0.4" class="g3_15" />
<path d="M151.6,508.6c0.1,-0.1,0.2,0,0.3,0.1c0,0.2,0,0.3,-0.1,0.4c-0.1,0,-0.3,-0.1,-0.3,-0.2c-0.1,-0.2,0,-0.3,0.1,-0.3Z" class="g3_15" />
<path d="M172.6,509.8c0,0,0.4,0.5,0,1.1" class="g3_15" />
<path d="M164.4,541.5c-0.3,-0.1,-0.4,-0.4,-0.4,-0.8c0.1,-0.4,0.4,-0.7,0.6,-0.6" class="g3_15" />
<path d="M164.6,540.1c0.2,0,0.4,0.4,0.3,0.8c0,0.3,-0.3,0.6,-0.5,0.6" class="g3_15" />
<path d="M171.4,533.6l0,2.2" class="g3_15" />
<path d="M167.9,539.2l0,-4.4l3.1,-1.4" class="g3_15" />
<path d="M168.3,539.4L168,539.2" class="g3_15" />
<path d="M171.3,533.6l-3,1.3l-0.4,-0.1l0.4,0.1l0,4.5" class="g3_15" />
<path d="M171.4,533.6L171,533.5" class="g3_15" />
<path d="M168.3,539.4l2.5,-1.1" class="g3_15" />
<path d="M169.8,537.8c-0.4,0,-0.8,-0.6,-0.7,-1.3c0.1,-0.6,0.5,-1.1,1,-1.1" class="g3_15" />
<path d="M198.7,546.9c3.5,-1.3,8.3,-1.9,13.5,-1.9c11.5,0.1,20.3,3.4,20,8.4" class="g3_15" />
<path d="M232,554.3c-1,4.3,-9.5,7.6,-19.9,7.6c-7.3,0,-13.6,-1.7,-17,-4.2c-1.1,-0.8,-1.5,-1.7,-1.7,-2.6" class="g3_15" />
<path d="M232.2,553.4c0,0.3,0,0.6,-0.1,0.9" class="g3_15" />
<path d="M232.1,556.3c-1.1,4.2,-9.6,7.5,-19.9,7.5c-7.4,0,-13.7,-1.7,-17.1,-4.2C194,558.8,193.6,558,193.4,557" class="g3_15" />
<path d="M232.1,558.2c-1.1,4.2,-9.7,7.5,-20.1,7.5c-7.3,0,-13.6,-1.7,-17,-4.2c-1.1,-0.7,-1.4,-1.6,-1.6,-2.5" class="g3_15" />
<path d="M232.1,560.1c-1,4.3,-9.5,7.6,-19.9,7.6c-7.4,0,-13.6,-1.8,-17.1,-4.2c-1.8,-1.3,-2,-3,-1.6,-4.4" class="g3_15" />
<path d="M195.6,554.3c0,-2.8,7.7,-5.4,16.7,-5.2c9,0.2,16.7,3,17.3,5.3" class="g3_15" />
<path d="M229.9,553.4c0,2.8,-8.4,6,-17.6,6c-9.3,0,-16.7,-2.4,-16.7,-5.1" class="g3_15" />
<path d="M195.9,555.2c1.7,-2.3,8.5,-4.3,16.3,-4.1c7.6,0.1,14.3,2.1,16.5,4.1" class="g3_15" />
<path d="M197,556.3c2.5,-1.9,8.6,-3.4,15.4,-3.3c6.3,0.2,11.9,1.6,15,3.2" class="g3_15" />
<path d="M198.7,557.2c3.1,-1.4,8.1,-2.3,13.7,-2.2c5,0.1,9.7,1,12.9,2.2" class="g3_15" />
<path d="M199.4,549.1c3.1,-1.2,7.8,-2,12.9,-1.9c9,0.2,16.8,3,17.4,5.3" class="g3_15" />
<path d="M229.7,552.5c0,0,0.2,0.3,0.2,0.9" class="g3_15" />
<path d="M199.4,549.1l-4,1.5" class="g3_15" />
<path d="M195.4,550.6c0,0,-2.7,1.6,-2,4.5" class="g3_15" />
<path d="M193.4,555.2c0,0,-0.3,0.6,0,1.8" class="g3_15" />
<path d="M193.4,557.2c0,0,-0.3,0.6,0,1.9" class="g3_15" />
<path d="M232,554.3c0,0,0.3,0.5,0.1,2" class="g3_15" />
<path d="M232.1,556.3c0,0,0.2,0.4,0,1.9" class="g3_15" />
<path d="M232.1,558.3c0,0,0.3,0.4,0,1.9" class="g3_15" />
<g clip-path="url(#c1_15)">
<path d="M232.1,560.2c0,0,1.2,3.2,-3.4,5.8" class="g3_15" />
</g>
<path d="M228.7,566l-1.4,0.8l-20.6,9" class="g3_15" />
<path d="M222,566.6l-16.2,7.1" class="g3_15" />
<path d="M195.9,550.4c-1.8,0.3,-5.1,0.3,-8.9,-3.3" class="g3_15" />
<path d="M196.6,547.6c-1.5,0.5,-4.7,0.7,-8.3,-2.5" class="g3_15" />
<path d="M198.7,546.9c0,0,-1.2,0.4,-2.1,0.7" class="g3_15" />
<path d="M188.5,545.3c0,0,-0.5,-0.5,-2.2,-1.6" class="g3_15" />
<path d="M187,547.1c0,0,-0.4,-0.6,-2.2,-1.7" class="g3_15" />
<path d="M169.8,537.8c0,0,6.3,2.2,15,7.6" class="g3_15" />
<path d="M170.1,535.5c0.1,-0.1,7.6,2.6,16.2,8.2" class="g3_15" />
<path d="M157.4,506.5l0,0.1" class="g3_15" />
<path d="M205.2,573.5c0.6,-0.2,1.3,0.4,1.5,1.2c0.1,0.7,0,1.3,-0.3,1.6" class="g3_15" />
<path d="M205.2,573.5l-3.2,0.7" class="g3_15" />
<path d="M197.7,575.9l3.3,-1.5" class="g3_15" />
<path d="M196.2,576.3l3.8,-1.6c0,0,0.4,-0.2,1,-0.3c0.5,-0.1,1,-0.2,1,-0.2" class="g3_15" />
<path d="M199.5,576.5l3.3,-1.5c0,0,0.3,-0.2,0.3,-0.3" class="g3_15" />
<path d="M203.1,574.7l0.3,-0.4c0,0,0,-0.1,0,-0.2" class="g3_15" />
<path d="M203.2,574.1c0,0,-0.2,-0.1,-0.5,0" class="g3_15" />
<path d="M203.1,574.7c0,0,0.5,0.3,1.7,0.5" class="g3_15" />
<path d="M200.9,577.8l3.6,-1.6c0,0,0.4,-0.2,0.4,-0.4" class="g3_15" />
<path d="M205,575.4c0,0.1,0,0.2,-0.1,0.4" class="g3_15" />
<path d="M204.8,575.2c0,0,0.1,0.1,0.2,0.2" class="g3_15" />
<path d="M204.9,575.8L205,578" class="g3_15" />
<path d="M206.4,576.3l-1.4,0.9" class="g3_15" />
<path d="M200.9,580.2l3.6,-1.6" class="g3_15" />
<path d="M205,578c0,0,0,0.2,-0.5,0.6" class="g3_15" />
<path d="M197.6,581.6l0.1,0.5l1.8,0.6l3.3,-1.5" class="g3_15" />
<path d="M202.8,581.2c0,0,0.3,0,1.6,-2.6" class="g3_15" />
<path d="M199.8,580.3l1.1,-0.1" class="g3_15" />
<path d="M199.5,582.7l0.3,-2.4" class="g3_15" />
<path d="M200.9,580.2l0,-2.4l-1.4,-1.4l-1.8,-0.5l-1.5,0.4" class="g3_15" />
<path d="M196.2,576.3l0,0.4" class="g3_15" />
<path d="M196.9,576.4l-2.2,1" class="g3_15" />
<path d="M197.5,578.1l-2.3,1" class="g3_15" />
<path d="M194.9,579l-0.2,0c0,0,-0.6,-0.6,0,-1.6" class="g3_15" />
<path d="M195.2,579.1c-0.1,-0.1,-0.5,-0.6,0,-1.5" class="g3_15" />
<path d="M194.9,577.5l0.3,0.1l2.3,-1l-0.3,-0.1l0.3,0.1l0,1.5" class="g3_15" />
<path d="M199.3,577.3l-2.3,1" class="g3_15" />
<path d="M199.8,578.9l-2.3,1" class="g3_15" />
<path d="M197.3,579.9L197,579.8c0,0,-0.5,-0.5,0,-1.5" class="g3_15" />
<path d="M197.5,579.9c-0.1,-0.1,-0.5,-0.7,0,-1.5" class="g3_15" />
<path d="M197.2,578.3l0.3,0.1l2.3,-1l-0.2,-0.1l0.2,0.1l0,1.5" class="g3_15" />
<path d="M196.2,578.7l0.6,0.4" class="g3_15" />
<path d="M197.3,579.9l0.1,0.4" class="g3_15" />
<path d="M195.2,581.3l3.1,-1.4" class="g3_15" />
<path d="M198.8,581l-3.1,1.4" class="g3_15" />
<path d="M195.7,582.4c-0.1,0,-0.1,0,-0.2,0c-0.3,0,-0.6,-0.3,-0.6,-0.6c0,-0.2,0.1,-0.4,0.3,-0.5" class="g3_15" />
<path d="M198.3,579.9c0,0,0.5,-0.1,0.6,0.4c0.2,0.5,-0.1,0.7,-0.1,0.7" class="g3_15" />
<path d="M195.3,581.4c0,0,0.5,0.1,0.4,0.8" class="g3_15" />
<path d="M197.9,579.3c-0.1,0,-0.2,-0.2,-0.2,-0.5c0.1,-0.2,0.2,-0.3,0.4,-0.3" class="g3_15" />
<path d="M198.1,578.5c0.1,0,0.2,0.2,0.1,0.5c0,0.2,-0.2,0.4,-0.3,0.3" class="g3_15" />
<path d="M197.9,578.5c0.1,0.1,0.1,0.2,0,0.3c0,0.2,-0.1,0.3,-0.2,0.4" class="g3_15" />
<path d="M195.5,578.5c-0.1,0,-0.2,-0.2,-0.1,-0.4c0,-0.2,0.2,-0.4,0.3,-0.3" class="g3_15" />
<path d="M195.7,577.7c0.2,0.1,0.2,0.3,0.2,0.5c-0.1,0.2,-0.2,0.4,-0.4,0.4" class="g3_15" />
<path d="M195.6,577.8c0,0.1,0,0.2,0,0.3c0,0.1,-0.1,0.2,-0.2,0.3" class="g3_15" />
<path d="M110,768l245,0l0,338l-245,0l0,-338Z" class="g4_15" />
<path d="M110,768l245,0" class="g1_15" />
</svg>