<?xml version="1.0" encoding="UTF-8" standalone="no"?>
<!DOCTYPE svg PUBLIC "-//W3C//DTD SVG 1.1//EN"
"http://www.w3.org/Graphics/SVG/1.1/DTD/svg11.dtd">
<svg viewBox="0 0 935 1210" version="1.1" xmlns="http://www.w3.org/2000/svg" xmlns:xlink="http://www.w3.org/1999/xlink">
<defs>
<style type="text/css"><![CDATA[
.g2_1{
fill: none;
stroke: #FFFFFF;
stroke-width: 3;
stroke-linecap: round;
stroke-linejoin: miter;
stroke-miterlimit: 2;
}
.g12_1{
fill: #636363;
stroke: #000000;
stroke-width: 3;
stroke-linecap: round;
stroke-linejoin: round;
stroke-miterlimit: 2;
}
.g14_1{
fill: none;
stroke: #000000;
stroke-width: 3;
stroke-linecap: round;
stroke-linejoin: round;
stroke-miterlimit: 2;
}
.g15_1{
stroke: #000000;
stroke-width: 1;
stroke-linecap: round;
stroke-linejoin: round;
stroke-miterlimit: 2;
}
.g3_1{
fill: #FFFFFF;
stroke: #000000;
stroke-width: 2;
stroke-linecap: butt;
stroke-linejoin: miter;
stroke-miterlimit: 2;
}
.g13_1{
fill: #D4D4D4;
}
.g1_1{
fill: #B3B3B3;
}
.g7_1{
fill: #636363;
stroke: #000000;
stroke-width: 1;
stroke-linecap: butt;
stroke-linejoin: miter;
stroke-miterlimit: 2;
}
.g10_1{
fill: none;
stroke: #000000;
stroke-width: 2;
stroke-linecap: round;
stroke-linejoin: round;
stroke-miterlimit: 2;
}
.g5_1{
fill: none;
stroke: #000000;
stroke-width: 2;
stroke-linecap: butt;
stroke-linejoin: miter;
stroke-miterlimit: 2;
}
.g11_1{
fill: #808080;
stroke: #000000;
stroke-width: 1;
stroke-linecap: round;
stroke-linejoin: round;
stroke-miterlimit: 2;
}
.g4_1{
fill: none;
stroke: #000000;
stroke-width: 1;
stroke-linecap: butt;
stroke-linejoin: miter;
stroke-miterlimit: 2;
}
.g9_1{
fill: #FFFFFF;
}
.g6_1{
}
.g8_1{
fill: none;
stroke: #000000;
stroke-width: 1;
stroke-linecap: round;
stroke-linejoin: round;
stroke-miterlimit: 2;
}
]]></style>
</defs>
<path fill-rule="evenodd" d="M55,54l824,0l0,1101l-824,0Z" class="g1_1" />
<path d="M55.5,256.5l27,0" class="g2_1" />
<path d="M55.5,430.5l27,0" class="g2_1" />
<path d="M55.5,605.5l27,0" class="g2_1" />
<path d="M55.5,779.5l27,0" class="g2_1" />
<path d="M55.5,953.5l27,0" class="g2_1" />
<path d="M852.5,256.5l28,0" class="g2_1" />
<path d="M852.5,605.5l28,0" class="g2_1" />
<path d="M852.5,779.5l28,0" class="g2_1" />
<path d="M852.5,953.5l28,0" class="g2_1" />
<path d="M236.5,82.5l0,-27" class="g2_1" />
<path d="M390.5,82.5l0,-27" class="g2_1" />
<path d="M544.5,82.5l0,-27" class="g2_1" />
<path d="M698.5,82.5l0,-27" class="g2_1" />
<path d="M236.5,1155.5l0,-28" class="g2_1" />
<path d="M390.5,1155.5l0,-28" class="g2_1" />
<path d="M544.5,1155.5l0,-28" class="g2_1" />
<path d="M698.5,1155.5l0,-28" class="g2_1" />
<path fill-rule="evenodd" d="M82,82l770,0l0,1045l-770,0Z" class="g3_1" />
<path d="M184.5,209.5l646,0" class="g4_1" />
<path d="M103.5,278.5l727,0" class="g4_1" />
<path d="M82,1097l770,0" class="g5_1" />
<path d="M466.5,1099.5l0,28" class="g4_1" />
<path d="M468.5,1099.5l0,28" class="g4_1" />
<path d="M272.5,1099.5l0,28" class="g4_1" />
<path d="M274.5,1099.5l0,28" class="g4_1" />
<path d="M664.5,1099.5l0,28" class="g4_1" />
<path d="M666.5,1099.5l0,28" class="g4_1" />
<path fill-rule="evenodd" d="M106,289l37,0l0,38l-37,0Z" class="g6_1" />
<path fill-rule="evenodd" d="M103.5,287.5l38,0l0,37l-38,0Z" class="g7_1" />
<path d="M103.5,673.5l727,0" class="g4_1" />
<path d="M274.5,1099.5l192,0" class="g8_1" />
<path d="M468.5,1099.5l196,0" class="g8_1" />
<path d="M666.5,1099.5l186,0" class="g8_1" />
<path d="M272.5,1099.5l-190,0" class="g8_1" />
<path d="M467.5,1097.5l0,-819" class="g4_1" />
<path fill-rule="evenodd" d="M479,289l37,0l0,38l-37,0Z" class="g6_1" />
<path fill-rule="evenodd" d="M477.5,287.5l37,0l0,37l-37,0Z" class="g7_1" />
<path fill-rule="evenodd" d="M359,1040.4l-60.9,-20.7l0.5,-14.1l62.1,24.7Z" class="g9_1" />
<path d="M852.5,430.5l28,0" class="g2_1" />
<path fill-rule="evenodd" d="M106,683l37,0l0,38l-37,0Z" class="g6_1" />
<path fill-rule="evenodd" d="M103.5,681.5l38,0l0,38l-38,0Z" class="g7_1" />
<path fill-rule="evenodd" d="M479,683l37,0l0,38l-37,0Z" class="g6_1" />
<path fill-rule="evenodd" d="M477.5,681.5l37,0l0,38l-37,0Z" class="g7_1" />
<path d="M189.8,220.3c0.1,-0.1,0.3,-0.2,0.4,-0.3" class="g8_1" />
<path d="M190.2,220c0.3,-0.1,0.7,-0.1,1.1,-0.1c0.6,0.2,1.2,0.5,2,1.1c6.3,-1.6,12.2,-2.7,18.1,-3.4c5.8,-0.5,11.2,-0.6,16.5,-0.2" class="g8_1" />
<path d="M228.6,217.7c-0.3,-0.5,-0.9,-0.9,-1.7,-1.2c-0.8,-0.2,-1.8,-0.4,-3,-0.4c-7.2,-0.2,-13.6,0.1,-19.2,0.7c-5.6,0.7,-10.5,1.8,-14.5,3.2" class="g10_1" />
<path d="M187.3,228.5c1,0.7,2.1,1.4,3.2,2c1.1,0.6,2.2,1.1,3.4,1.5c3.8,-0.5,7.6,-1,11.4,-1.4" class="g8_1" />
<path d="M205.3,230.6c0.3,-0.1,0.6,-0.1,0.9,-0.2c0,-0.4,0,-0.9,0,-1.4c-0.4,-0.3,-0.7,-0.6,-0.9,-0.9c-0.1,-0.3,-0.2,-0.5,-0.2,-0.8c0.2,-1.2,0.7,-2.1,1.3,-2.7c0.7,-0.6,1.6,-1,2.7,-1c1.3,-0.1,2.2,-0.1,3,0c0.7,0.2,1.1,0.5,1.2,0.9c0.9,-0.1,2,-0.2,3.3,-0.4c1.4,-0.3,3,-0.6,4.7,-1.1c1.1,-0.3,1.9,-0.3,2.5,0.1" class="g10_1" />
<path d="M223.8,223.1c0.6,0.4,0.9,1.2,1,2.4c0.1,1,0.2,2.1,0.3,3.2" class="g8_1" />
<path d="M189.8,220.3c-0.4,2,-0.8,3.9,-1.3,5.9c0,0.3,-0.2,0.5,-0.4,0.6c-0.2,0.2,-0.4,0.2,-0.7,0.2c0,0.5,-0.1,1,-0.1,1.5" class="g10_1" />
<path d="M193.3,221.1c-0.1,2.4,-0.1,4.9,-0.2,7.4c0,0.3,0.1,0.7,0.2,1c0.2,0.4,0.4,0.7,0.7,1.1" class="g8_1" />
<path d="M194.1,230.6l12.1,-1.5" class="g8_1" />
<path d="M194.1,230.6L193.5,243" class="g8_1" />
<path d="M225.1,228.7c0,1,0.2,1.7,0.5,2.2c0.3,0.4,0.9,0.6,1.5,0.6" class="g8_1" />
<path d="M222.2,222.9c0.2,1.3,0.4,2.6,0.6,3.9c0.1,0.9,0,1.6,-0.4,2.1c-0.4,0.6,-1.2,0.9,-2.2,1.1c-4.1,0.7,-8.3,1.5,-12.5,2.2" class="g10_1" />
<path d="M224.4,230.2l-1.6,-1" class="g8_1" />
<path fill-rule="evenodd" d="M195.2,222.9c-0.1,0.5,0.1,1,0.5,1c0.3,0.1,0.6,-0.2,0.7,-0.7c0.1,-0.5,-0.1,-1,-0.4,-1c-0.3,-0.1,-0.7,0.3,-0.8,0.7Z" class="g11_1" />
<path fill-rule="evenodd" d="M194.8,228.1c0,0.5,0.1,0.9,0.5,1c0.3,0,0.6,-0.3,0.7,-0.8c0.1,-0.5,-0.1,-0.9,-0.4,-1c-0.3,-0.1,-0.7,0.3,-0.8,0.8Z" class="g11_1" />
<path fill-rule="evenodd" d="M205,222.4c-0.1,0.5,0.1,1,0.4,1.1c0.3,0,0.7,-0.3,0.8,-0.8c0.1,-0.5,-0.1,-0.9,-0.4,-1c-0.4,-0.1,-0.7,0.3,-0.8,0.7Z" class="g11_1" />
<path d="M227.2,222.3c0,-1,-0.3,-1.6,-0.9,-2.1c-0.7,-0.4,-1.7,-0.6,-3.1,-0.5c-1.7,-0.1,-3.8,-0.1,-6.5,0c-2.6,0.1,-5.7,0.3,-9.4,0.6c-1.2,0.1,-2.1,0.5,-2.6,1.1c-0.5,0.7,-0.7,1.5,-0.5,2.8c0.2,0.8,0.4,1.5,0.5,2.2" class="g8_1" />
<path d="M205.6,225.9c0.7,-0.1,1.5,0,2.1,0.2c0.7,0.3,1.3,0.7,1.8,1.3c0.5,-0.9,0.9,-1.8,1.3,-2.6" class="g10_1" />
<path d="M208.2,223.7c1.2,0.2,2.1,0.6,2.6,1.1c0.6,0.4,1,1,1.1,1.6" class="g8_1" />
<path d="M211.9,226.4c0.2,-0.5,0.4,-1,0.6,-1.3c0.3,-0.3,0.6,-0.5,0.9,-0.6" class="g10_1" />
<path d="M211.9,226.4l-1.4,-0.8" class="g10_1" />
<path d="M209.5,227.4l-1.7,-0.9" class="g8_1" />
<path d="M207,225.9c0.3,0.2,0.6,0.5,0.9,0.7" class="g8_1" />
<path d="M208,248.3c0.3,-0.2,0.7,-0.5,1,-0.7c7.2,-1.6,14.5,-3.3,21.7,-4.9c0,0,1.9,-1.2,2.3,-2.7c0,-1.8,0.1,-3.6,0.1,-5.4c-0.3,-2.4,-2.3,-4,-2.3,-4c-0.3,-0.4,-0.3,-0.6,-0.4,-0.9c-0.2,-0.3,-0.3,-0.8,-0.4,-1.2c0,0,-1.4,-10.7,-1.4,-10.7" class="g10_1" />
<path d="M205.3,230.6c0.2,3.8,0.1,8.2,-0.1,13.1c-0.3,4.9,-0.8,10.3,-1.5,16.2" class="g10_1" />
<path d="M203.7,259.9l-3.1,0.7" class="g8_1" />
<path d="M233,234.7l-23.9,4.9" class="g8_1" />
<path d="M209.1,239.6c0,-1.1,0,-2.3,0,-3.5c0,-0.1,0,-0.1,-0.1,-0.2c0,0,-0.1,-0.1,-0.2,-0.1c-0.3,-0.1,-0.5,-0.2,-0.6,-0.4c-0.2,-0.2,-0.3,-0.5,-0.3,-0.8c0,-1.1,-0.2,-2.1,-0.5,-2.9c-0.3,-0.9,-0.7,-1.6,-1.2,-2.1" class="g10_1" />
<path d="M233,240l-28,5.9" class="g8_1" />
<path d="M205,245.9c0.2,-0.1,0.3,-0.2,0.3,-0.3c0.1,-0.1,0.2,-0.2,0.2,-0.4c0,-1.6,0.1,-3.2,0.2,-4.8c0,-1.2,0,-2.4,0,-3.6c0,0,-0.1,-0.1,-0.1,-0.1c0,-0.1,-0.1,-0.1,-0.2,-0.2" class="g8_1" />
<path d="M208.9,236l-3.1,0.7" class="g8_1" />
<path d="M207.8,235.4l-2.2,0.5" class="g8_1" />
<path d="M216.8,230.7c1.6,0.1,2.9,0.7,3.8,1.6c0.9,0.9,1.5,2.3,1.8,4c0,0.1,0.1,0.3,0.1,0.3c0.1,0.1,0.1,0.2,0.2,0.2" class="g8_1" />
<path d="M222.3,242.3c-0.2,0.7,-0.7,1.3,-1.3,1.8c-0.7,0.6,-1.7,1.1,-2.9,1.4" class="g8_1" />
<path d="M222.8,236.8l-0.1,5.3" class="g8_1" />
<path d="M227.7,231.3l2.2,-0.5" class="g8_1" />
<path d="M225,230.9c0,0.3,-0.2,0.6,-0.4,0.7c-0.1,0.2,-0.4,0.3,-0.7,0.3c-0.7,0.2,-1.4,0.3,-2.2,0.5" class="g8_1" />
<path d="M220.1,232.8l-11.3,2" class="g8_1" />
<path d="M202.2,231.1c0.2,3.8,0.1,8.2,-0.1,13.1c-0.3,4.9,-0.8,10.4,-1.5,16.4" class="g8_1" />
<path d="M203.9,258.8l2.9,-0.7" class="g8_1" />
<path d="M206.8,258.1c0.4,-1.1,0.8,-2.4,1,-3.8c0.2,-1.4,0.3,-3.1,0.3,-4.8c-0.1,-0.7,-0.1,-1.4,0,-2c0.1,-0.6,0.4,-1.1,0.7,-1.5" class="g10_1" />
<path d="M209.5,247.6c0.8,0.3,1.4,1.6,1.5,3.2c0.2,1.9,-0.4,3.6,-1.4,3.6c-0.6,0.3,-1.2,0.5,-1.9,0.8" class="g10_1" />
<path d="M210.9,252.9l7.2,4.3" class="g10_1" />
<path d="M218.1,257.2l-25.3,6.2" class="g8_1" />
<path d="M192.8,263.4l-4.3,-2.9" class="g8_1" />
<path d="M190.6,271.7l-0.2,-0.1" class="g8_1" />
<path d="M193.8,251.7l0,1.6l-2.8,0.5l-1.1,-0.5" class="g10_1" />
<path d="M187.6,252.1c0,-1.7,0,-3.4,0,-5.1c-0.1,-0.8,-0.2,-1.7,-0.2,-2.6c0,-0.9,-0.1,-2,-0.1,-3c0,-0.2,-0.1,-0.5,-0.1,-0.6c-0.1,-0.2,-0.1,-0.4,-0.2,-0.5c-0.1,-0.1,-0.2,-0.2,-0.3,-0.4c0,-0.2,-0.1,-0.4,-0.1,-0.7c0.1,-1.1,0.1,-2.5,0.2,-4.3c0.1,-1.8,0.3,-3.9,0.4,-6.4" class="g10_1" />
<path d="M190.9,253.8c0,-1.7,0,-3.3,0,-5c0.3,-0.7,0.5,-1.5,0.7,-2.3c0.2,-0.9,0.4,-1.8,0.5,-2.7c0.1,-0.2,0.2,-0.4,0.2,-0.5" class="g8_1" />
<path d="M192.3,243.3c0.2,-0.1,0.3,-0.1,0.5,-0.1c0.2,0.1,0.4,0.2,0.6,0.2c0.3,0.1,0.5,0.1,0.9,0" class="g10_1" />
<path d="M187.6,247l3.4,1.7l7.3,-1l1.4,-4.5" class="g8_1" />
<path d="M187.6,252.1l0.8,0.4l1.3,-0.1" class="g10_1" />
<path d="M187.1,259.4L183,256.7" class="g8_1" />
<path d="M188.5,252.5l0,-1" class="g8_1" />
<path d="M189,253l0,-1" class="g10_1" />
<path d="M188.4,251.6c0.1,-0.4,0.3,-0.7,0.6,-0.8" class="g8_1" />
<path d="M189,250.8c0.3,-0.1,0.7,0.4,0.9,1c0,0.2,0,0.4,0,0.5" class="g10_1" />
<path d="M200.4,259.7L199,260" class="g8_1" />
<path d="M199,260c0.3,-2.7,0.6,-5.5,0.8,-8.2c0.2,-2.7,0.3,-5.4,0.3,-8.1c0,-0.2,-0.1,-0.5,-0.2,-0.8" class="g8_1" />
<path d="M199.9,242.9c-0.3,0,-0.6,0,-1,0c-1.5,0.1,-3.1,0.3,-4.6,0.5" class="g10_1" />
<path d="M199,260l-1.2,-0.8" class="g8_1" />
<path d="M198.3,247.7c0,0.7,0,2.1,-0.1,4c-0.1,1.9,-0.2,4.4,-0.4,7.5" class="g8_1" />
<path d="M200.6,260.6c-0.1,0,-0.2,-0.1,-0.3,-0.1c0,0,-0.1,-0.1,-0.1,-0.1" class="g8_1" />
<path d="M201.9,231c0.1,3.8,0.1,8,-0.2,12.9c-0.2,5,-0.7,10.4,-1.4,16.4" class="g8_1" />
<path d="M213.7,256.3l-3.5,-2.1" class="g8_1" />
<path d="M209.7,257.2l-2.2,-1.3" class="g8_1" />
<path d="M212.3,256.8l-3.4,-2.1" class="g10_1" />
<path d="M208.2,257.6l-1,-0.6" class="g10_1" />
<path d="M213.7,256.4l-1.4,0.4" class="g10_1" />
<path d="M209.8,257.3l-1.6,0.4" class="g10_1" />
<path fill-rule="evenodd" d="M230.4,232.6c0.3,0.6,0.2,1.1,0,1.3c-0.3,0.1,-0.8,-0.2,-1.1,-0.7c-0.3,-0.6,-0.3,-1.2,0,-1.3c0.3,-0.2,0.8,0.2,1.1,0.7Z" class="g11_1" />
<path d="M187.1,259.4l3.2,-0.7" class="g8_1" />
<path d="M192.1,258.3l0.9,-0.2" class="g8_1" />
<path d="M193.8,251.7c0,-0.2,0.1,-0.4,0.1,-0.6c0.3,-0.8,1,-1.3,1.7,-1.1" class="g10_1" />
<path d="M195.6,250c0.4,0.1,0.7,0.6,0.7,1.1c0.1,2,0.2,4,0.4,6.1c0,0.4,0.2,0.8,0.3,1.1c0.2,0.2,0.5,0.4,0.8,0.5" class="g8_1" />
<path d="M197.2,258.5L193.5,256" class="g8_1" />
<path d="M192.2,254.4c0.6,0.2,1.2,0.6,1.2,1" class="g10_1" />
<path d="M193.4,255.4c0,0.5,-1,1,-2.3,1c-1.3,0,-2.3,-0.5,-2.3,-1" class="g8_1" />
<path d="M188.8,255.4c0,-0.4,0.6,-0.8,1.3,-1" class="g10_1" />
<path d="M188.5,255.5l0,1" class="g8_1" />
<path d="M189,257.3c0.4,0.4,1.2,0.6,2.1,0.6c0.6,0,1.2,-0.1,1.6,-0.3" class="g10_1" />
<path d="M193.5,256.5l0,-1" class="g8_1" />
<path d="M190.1,253.3c0,0.7,0,1.3,0,2c0,0.3,0.4,0.5,1,0.5c0.6,0,1.1,-0.2,1.1,-0.5c0,-0.6,0,-1.1,0,-1.7" class="g8_1" />
<path d="M190,257l0,3" class="g10_1" />
<path d="M192.5,257.5l0,2" class="g8_1" />
<path d="M190.5,263.5l0,8" class="g8_1" />
<path d="M192.2,263.7l0,5.7l-1.6,2.4" class="g10_1" />
<path d="M192.9,258.1c0.2,0,0.4,-0.1,0.7,-0.1c0.8,0,1.4,0.3,1.4,0.6" class="g8_1" />
<path d="M190.5,257.5l0,2" class="g8_1" />
<path d="M190,263l0,8" class="g10_1" />
<path d="M211.3,225.2c0.1,0.2,0.2,0.5,0.2,0.7" class="g8_1" />
<path d="M211.4,225.9l-0.9,-0.5" class="g8_1" />
<path d="M189,256c0.2,0,0.4,0.2,0.5,0.6c0.1,0.3,-0.1,0.6,-0.3,0.7" class="g8_1" />
<path d="M188.4,256.2c0.2,-0.1,0.5,0.2,0.5,0.5c0.1,0.4,0,0.7,-0.3,0.7" class="g8_1" />
<path d="M193.1,256.4c-0.3,-0.2,-0.7,-0.1,-0.9,0.2c-0.2,0.3,-0.1,0.6,0.1,0.8" class="g8_1" />
<path d="M192.8,257.7c0.2,0.1,0.6,0,0.8,-0.2c0.2,-0.3,0.1,-0.7,-0.1,-0.9" class="g10_1" />
<path d="M193.5,256.6c-0.2,-0.1,-0.6,0,-0.8,0.3c-0.2,0.3,-0.2,0.6,0.1,0.8" class="g8_1" />
<path d="M193.5,256.7l-0.4,-0.3" class="g8_1" />
<path d="M192.7,257.6l-0.4,-0.2" class="g8_1" />
<path d="M192.8,263.3l-3,-1l-4.3,-2.9" class="g8_1" />
<path d="M187.1,259.4l-3,-1l-4.2,-2.8" class="g8_1" />
<path d="M213.3,256.5l-3.6,-2.1" class="g8_1" />
<path d="M209.3,257.4l-1.9,-1.2" class="g8_1" />
<path d="M189.8,262.3l-0.2,0.4" class="g8_1" />
<path d="M184.1,258.4l-0.2,0.4" class="g8_1" />
<path d="M218.1,257.2c0,0.2,0,0.3,0,0.5c-8.4,2,-16.9,4,-25.3,6.1c-1,-0.3,-2.1,-0.7,-3.2,-1c-1.4,-1,-2.9,-2,-4.3,-3c0,-0.1,0.1,-0.2,0.2,-0.4c1,0.3,2,0.6,3,1c2,-0.4,3.9,-0.8,5.9,-1.3c0.3,-0.1,0.6,-0.3,0.6,-0.5" class="g10_1" />
<path d="M188.7,255.4l-5.7,1.3l0,-0.1l-3,-1l-0.1,0.1l-0.2,0.4l4.1,2.8l1.6,0.5" class="g10_1" />
<path d="M187.1,259.9l3.2,-0.8" class="g8_1" />
<path d="M192.2,258.7c0.2,-0.1,0.5,-0.1,0.8,-0.2c0.1,0,0.4,-0.1,0.6,-0.1c0.6,0,1,0.2,1.2,0.3" class="g8_1" />
<path d="M189.2,257.3c-0.2,0,-0.3,0.1,-0.5,0.1l-0.1,0c-0.2,0.1,-0.4,-0.2,-0.5,-0.5c-0.1,-0.4,0.1,-0.7,0.3,-0.7c0,0,-0.1,-0.1,-0.1,-0.1c0.2,0,0.5,0,0.7,-0.1" class="g10_1" />
<path d="M229.3,237.3l0.7,-0.2l0,-0.7" class="g8_1" />
<path d="M230,237.1l0.2,0.1" class="g8_1" />
<path d="M230.5,236.9l0.7,-0.1l0,-0.7" class="g8_1" />
<path d="M231.2,236.8l0.2,0.1" class="g8_1" />
<path d="M231.8,236.7l0.6,-0.2l0,-0.7" class="g8_1" />
<path d="M232.4,236.5l0.2,0.2" class="g8_1" />
<path d="M231.8,238l0.6,-0.2l0,-0.6" class="g8_1" />
<path d="M232.4,237.9l0.2,0.1" class="g8_1" />
<path d="M231.8,239.4l0.6,-0.2l0,-0.7" class="g8_1" />
<path d="M232.4,239.2l0.2,0.2" class="g8_1" />
<path d="M230.5,239.6l0.7,-0.1l0,-0.7" class="g8_1" />
<path d="M231.2,239.5l0.2,0.1" class="g8_1" />
<path d="M230.5,238.3l0.6,-0.2l0,-0.7" class="g8_1" />
<path d="M231.2,238.2l0.2,0.1" class="g8_1" />
<path d="M229.3,238.6l0.7,-0.2l0,-0.7" class="g8_1" />
<path d="M230,238.4l0.2,0.2" class="g8_1" />
<path d="M229.3,239.9l0.6,-0.1l0,-0.7" class="g8_1" />
<path d="M229.9,239.8l0.2,0.1" class="g8_1" />
<path d="M194.3,229.7l10.6,-1.2" class="g8_1" />
<path fill-rule="evenodd" d="M268.3,247.2c11.4,-6.5,22.8,-13.1,34.2,-19.8c0.4,-0.5,0.9,-1.1,1.3,-1.7c0.2,-0.2,0.2,-0.4,0.2,-0.5C303.9,225,303.7,225,303.5,225c-0.8,0,-1.5,0.1,-2.3,0.2c-11.3,6.5,-22.6,13.1,-33.9,19.6c0.3,0.8,0.6,1.6,1,2.4Z" class="g9_1" />
<path d="M259.9,252.1c14.2,-8.3,28.4,-16.5,42.6,-24.7c0.4,-0.5,0.9,-1.1,1.3,-1.7c0.2,-0.2,0.2,-0.4,0.2,-0.5C303.9,225,303.7,225,303.5,225c-0.8,0,-1.5,0.1,-2.3,0.2C287.1,233.3,273,241.4,259,249.6" class="g10_1" />
<path d="M301.8,227.3c0.2,-0.5,0.5,-0.8,0.8,-1.1c0.3,-0.3,0.7,-0.5,1.2,-0.6" class="g8_1" />
<path d="M300.8,225.9c0.5,0,1.1,-0.1,1.5,-0.3c0.5,-0.1,0.9,-0.3,1.3,-0.6" class="g8_1" />
<path fill-rule="evenodd" d="M271.6,238.4c-0.7,0.3,-1.3,0.7,-1.9,1.1c-0.4,0.2,-0.7,0.5,-0.9,0.8c-0.2,0.3,-0.4,0.7,-0.5,1.2c0,0.3,0,0.5,-0.1,0.6c-0.1,0.1,-0.3,0.2,-0.5,0.1c-0.6,-0.5,-1.4,-0.8,-2,-0.8c-0.6,-0.1,-1.4,0,-2,0.3c-6.8,3.9,-13.7,7.9,-20.5,11.8c-1.5,1.5,-2.4,2.9,-2.6,4.3c-0.2,1.5,0.2,2.9,1.1,4.2c1.2,1.4,2.6,2.3,3.9,2.5c1.4,0.2,3,-0.1,4.6,-1.1c6.4,-3.7,12.8,-7.4,19.2,-11.1c0.7,-0.6,1.2,-1.2,1.5,-1.9c0.3,-0.6,0.4,-1.4,0.4,-2.1c0,-0.3,0.2,-0.5,0.3,-0.6c0.1,0,0.3,0.1,0.5,0.3c0.4,0.2,0.8,0.4,1.1,0.4c0.4,0,0.8,-0.1,1.1,-0.2c0.7,-0.4,1.5,-0.9,2.2,-1.3c0.7,-0.7,1,-1.5,0.9,-2.5c0,-1,-0.5,-2.2,-1.3,-3.4c-0.8,-1.1,-1.6,-1.9,-2.3,-2.3c-0.8,-0.5,-1.5,-0.6,-2.2,-0.3Z" class="g9_1" />
<path d="M268.4,242.1c-0.1,-1.1,0.3,-2,1,-2.4c0.6,-0.4,1.4,-0.8,2.1,-1.2c1.3,-0.8,3.5,0.5,4.9,2.8c1.3,2.3,1.3,4.9,0,5.6c-0.7,0.4,-1.4,0.9,-2.1,1.3c-0.8,0.4,-1.8,0.2,-2.8,-0.4" class="g10_1" />
<path d="M270.9,248.7c-0.1,-1.1,-0.5,-2.3,-1.2,-3.6c-0.5,-0.9,-1.2,-1.7,-1.9,-2.3" class="g8_1" />
<path d="M271.4,247.2c-0.1,-0.7,-0.3,-1.7,-0.8,-2.5c-0.5,-0.9,-1.2,-1.6,-1.8,-2" class="g8_1" />
<path d="M272.8,247.7c-0.5,-0.2,-0.9,-0.2,-1.1,-0.1c-0.2,0,-0.4,0.3,-0.4,0.5c0,0.9,-0.1,1.8,-0.4,2.4c-0.3,0.7,-0.8,1.3,-1.4,1.6c-6.8,4,-13.6,7.9,-20.5,11.9c-0.9,0.4,-1.5,0.6,-2.4,0.6c-3.3,0,-6,-2.7,-6,-6c0,-1.9,1.1,-3.8,2.6,-4.9c6.7,-4,13.6,-7.9,20.4,-11.9c0.5,-0.3,1.2,-0.4,1.8,-0.4c0.7,0.1,1.5,0.4,2.3,0.8c0.3,0.1,0.7,0.1,0.9,0.1c0.2,-0.1,0.4,-0.5,0.5,-0.9" class="g10_1" />
<path d="M244.1,253.7c1.6,0.2,3.4,1.5,4.6,3.7c1.2,2,1.5,4.1,1.1,5.6" class="g8_1" />
<path d="M273.8,248.1c1.1,-0.9,1,-3.1,-0.2,-5.2c-1.2,-2.1,-3.1,-3.3,-4.4,-2.8" class="g8_1" />
<path d="M247,253.8L265.5,243" class="g8_1" />
<path d="M248.8,254.8l17.9,-10.6" class="g8_1" />
<path d="M250.8,258.5l18.1,-11" class="g8_1" />
<path d="M251.1,260.6l18.1,-11" class="g8_1" />
<path d="M248.8,254.8c-0.7,0.5,-2.9,0,-1.8,-1" class="g8_1" />
<path d="M250.8,258.5c-1.1,0.7,-1,2.7,0.3,2.1" class="g8_1" />
<path d="M269.2,249.6c1.1,-0.6,1.3,-3.1,-0.3,-2.1" class="g8_1" />
<path d="M266.7,244.2c1.1,-0.7,0,-1.9,-1.2,-1.2" class="g8_1" />
<path d="M379,580l0,-69" class="g10_1" />
<path d="M378.2,580.3L255.2,513" class="g8_1" />
<path d="M379.2,511.9l-124,-68.3" class="g10_1" />
<path d="M255.5,512.5l0,-69" class="g8_1" />
<path d="M270.4,506.9L255.2,513" class="g8_1" />
<path d="M379,565.9l-108.6,-59" class="g10_1" />
<path d="M270,506l0,-55" class="g10_1" />
<path fill-rule="evenodd" d="M344.3,519.4l-1.8,16.3l9.6,4.7L350.3,552l-87.9,-0.6l1.5,-10.6l12.3,-38.5l23.1,10.8l17.4,-8.2Z" class="g9_1" />
<path d="M327.9,521.4c-0.2,1.7,-5.2,2.8,-8.2,2.5c-2.9,-0.2,-8.2,-2.5,-7.9,-4.9" class="g8_1" />
<path d="M303.8,518.5l7.1,-3.2" class="g8_1" />
<path fill-rule="evenodd" d="M298.1,527.3l43.2,-6.5l0,7l-10.4,4.6l18.1,9.4l0,7.5l-82.8,-0.7l0.1,-7.6Z" class="g12_1" />
<path fill-rule="evenodd" d="M299.4,515.7l17.7,-8l24.2,13.1l-17.7,8.1L349,541.8L266.3,541l11.1,-35.7Z" class="g13_1" />
<path d="M341.3,520.8L317.1,507.7l-17.7,8l-22,-10.4L266.3,541" class="g14_1" />
<path d="M349,541.8L266.3,541" class="g8_1" />
<path d="M341.3,520.8l-17.4,7.9" class="g8_1" />
<path d="M349,541.8L323.9,528.7" class="g14_1" />
<path d="M261.5,635.5l0,-69" class="g8_1" />
<path d="M261.4,566.8L138.8,499.4" class="g8_1" />
<path d="M276.6,560.7l-15.2,6.1" class="g8_1" />
<path d="M138.8,568.8l-0.2,-69.7L153.9,493l122.7,67.7l0,68.6l-15.7,6.1Z" class="g10_1" />
<path d="M255.5,439.5l0,-11" class="g8_1" />
<path d="M379.5,509.5l0,-13" class="g8_1" />
<path d="M255.2,431.4l47.1,25.9" class="g8_1" />
<path d="M333.8,474.5l45.5,25.2" class="g8_1" />
<path fill-rule="evenodd" d="M254.7,430.1c0.5,-0.2,1.2,0.2,1.4,0.9c0.3,0.7,0,1.5,-0.5,1.6c-0.5,0.2,-1.2,-0.2,-1.4,-0.9c-0.3,-0.7,0,-1.4,0.5,-1.6Z" class="g15_1" />
<path fill-rule="evenodd" d="M378.8,498.4c0.6,-0.2,1.2,0.2,1.4,0.9c0.3,0.7,0.1,1.4,-0.5,1.6c-0.5,0.2,-1.2,-0.2,-1.4,-0.9c-0.3,-0.7,0,-1.4,0.5,-1.6Z" class="g15_1" />
<path d="M399.1,522.4L381.8,513" class="g8_1" />
<path d="M399.1,591.3l-17.3,-9.5" class="g8_1" />
<path d="M395.5,589.5l0,-26" class="g8_1" />
<path d="M395.5,545.5l0,-25" class="g8_1" />
<path fill-rule="evenodd" d="M394.6,519.4c0.6,-0.2,1.2,0.2,1.5,0.9c0.2,0.7,0,1.4,-0.6,1.6c-0.5,0.2,-1.1,-0.2,-1.4,-0.9c-0.2,-0.7,0,-1.5,0.5,-1.6Z" class="g15_1" />
<path fill-rule="evenodd" d="M394.6,587.8c0.6,-0.2,1.2,0.2,1.5,0.9c0.2,0.7,0,1.5,-0.6,1.7c-0.5,0.2,-1.1,-0.3,-1.4,-1c-0.2,-0.7,0,-1.4,0.5,-1.6Z" class="g15_1" />
<path d="M248.3,509.8L191.1,478.5" class="g8_1" />
<path d="M252.6,496.9L207.1,472" class="g8_1" />
<path fill-rule="evenodd" d="M213.8,474.7c1,0,1.8,0.4,1.8,1c0,0.5,-0.8,1,-1.8,1c-1,0,-1.8,-0.5,-1.8,-1c0,-0.6,0.8,-1,1.8,-1Z" class="g15_1" />
<path fill-rule="evenodd" d="M197.9,481.2c1,0,1.9,0.5,1.9,1c0,0.6,-0.9,1,-1.9,1c-1,0,-1.8,-0.4,-1.8,-1c0,-0.5,0.8,-1,1.8,-1Z" class="g15_1" />
<path d="M197.7,482.4l-15.3,6.1" class="g8_1" />
<path d="M228.8,469.6l-15.3,6.1" class="g8_1" />
<path d="M408.5,173.5l118,0" class="g8_1" />
<path d="M603.5,662.5l146,0" class="g8_1" />
</svg>