<?xml version="1.0" encoding="UTF-8" standalone="no"?>
<!DOCTYPE svg PUBLIC "-//W3C//DTD SVG 1.1//EN"
"http://www.w3.org/Graphics/SVG/1.1/DTD/svg11.dtd">
<svg version="1.1" xmlns="http://www.w3.org/2000/svg" xmlns:xlink="http://www.w3.org/1999/xlink">
<defs>
<clipPath id="c0_9"><path d="M509.5,431.5l0,-217l199,0l0,217Z" /></clipPath>
<clipPath id="c1_9"><path d="M110.5,742.5l0,-209l366,0l0,209Z" /></clipPath>
<clipPath id="c2_9"><path d="M90.5,351.5l0,-127l371,0l0,127Z" /></clipPath>
<clipPath id="c3_9"><path d="M103.5,444.5l0,-84l214,0l0,84Z" /></clipPath>
<style type="text/css"><![CDATA[
.g9_9{
fill: #FBFBFC;
}
.g4_9{
fill: none;
stroke: #211E1E;
stroke-width: 1;
stroke-linecap: butt;
stroke-linejoin: miter;
stroke-dasharray: 2,2;
}
.g7_9{
fill: none;
stroke: #FFFFFF;
stroke-width: 2;
stroke-linecap: butt;
stroke-linejoin: miter;
}
.g10_9{
fill: none;
stroke: #FFFFFF;
stroke-width: 1;
stroke-linecap: butt;
stroke-linejoin: miter;
stroke-dasharray: 2,2;
}
.g6_9{
fill: none;
stroke: #211E1E;
stroke-width: 1;
stroke-linecap: butt;
stroke-linejoin: miter;
stroke-dasharray: 1,1;
}
.g5_9{
fill: none;
stroke: #211E1E;
stroke-width: 1;
stroke-linecap: butt;
stroke-linejoin: miter;
stroke-miterlimit: 4;
}
.g8_9{
fill: none;
stroke: #040504;
stroke-width: 1;
stroke-linecap: butt;
stroke-linejoin: miter;
}
.g2_9{
fill: none;
stroke: #211E1E;
stroke-width: 1;
stroke-linecap: butt;
stroke-linejoin: miter;
stroke-miterlimit: 2;
}
.g1_9{
fill: none;
stroke: #211E1E;
stroke-width: 1;
stroke-linecap: butt;
stroke-linejoin: miter;
}
.g3_9{
fill: none;
stroke: #211E1E;
stroke-width: 1;
stroke-linecap: round;
stroke-linejoin: round;
stroke-miterlimit: 2;
}
]]></style>
</defs>
<g clip-path="url(#c0_9)">
<path d="M563.8,314.1L531.1,326c-0.1,0,-5.2,1.4,-7.2,7.2l0,-0.2l-0.8,0l0,1c-12.9,0.2,-13.5,14,-13.5,14l0,6.3l2.4,0l0,64.1c0,2.3,4.3,2.2,4.3,0c0,2.1,4.4,2.4,4.4,0l0,-64.1l2.4,0l0,1c-0.6,0.3,-2,1.9,-2,4c0,0,0,26.2,0,30.1c0,3.9,4,4.8,4.6,4.8l7.3,0c0.3,0,0.7,0.1,0.7,0.1l3.2,0.9l-2.4,8.9L526.8,402c-0.5,-0.1,-1,0.2,-1.2,0.6l-1.3,5.3c-0.1,0.5,0.1,1,0.6,1.1l20.8,5.6c0.5,0.1,1,-0.2,1.1,-0.7l1.3,-5.2c0.1,-0.5,-0.1,-1,-0.6,-1.1l-7.1,-1.9l2.2,-9l2.4,0.7l0.6,-2.4c0,0,-1,-0.2,-2.4,-0.6L546,383l-0.3,-0.6L541,381.2l-0.6,0.3l-2.9,11.3c-1.8,-0.4,-3.3,-0.8,-3.4,-0.9c-0.3,-0.1,-0.9,-0.1,-0.9,-0.1l-7.3,0c-1.3,0,-2.3,-1.1,-2.3,-2l0,-20.1l0,-5l0,-2.7l0,-3.1c0,-0.8,0.5,-1.4,1.1,-1.7l5.3,0l0.2,1.9c0,0,0.1,0.3,0.6,0.3l10.1,0c0,0,0.4,0,0.5,-0.5c0,-0.4,0.2,-1.7,0.2,-1.7l19.5,0l0.2,1.9c0,0,0.1,0.3,0.6,0.3l10.2,0c0,0,0.3,0,0.4,-0.5c0.1,-0.4,0.3,-1.7,0.3,-1.7l5.1,0l0,-4.4L563.8,314.1ZM707.1,265.5c-0.3,-2.1,-2.8,-17.8,-2.8,-17.8c0,0,-2.7,-19.3,-24.2,-19.3l-7.3,0l0,-2.1l-1.4,0c0,-1.2,0,-2.9,0,-4.7c0,-3.6,-3,-6.6,-6.6,-6.6c-3.7,0,-6.6,3,-6.6,6.6l0,4.7l-0.1,0l-1.3,0l0,2.1l-7.3,0c-21.5,0,-24.2,19.3,-24.2,19.3c0,0,-2.5,15.7,-2.8,17.8c-0.3,2,-0.4,5.1,-0.4,5.1l0,11.9l2.2,0l0,-0.7l1.2,0l0,0.8l78.5,0l0,-0.8l1.2,0l0,0.7l2.3,0l0,-11.9c0,0,-0.1,-3.1,-0.4,-5.1Zm-70.7,93.2c0,0,0,0.4,0.3,0.4l1.6,0c0.1,0,0.1,0.1,0.2,0.1l-0.1,-0.1l10.3,0c0,0,0.3,0,0.5,-0.4c0.1,-0.5,0.3,-1.7,0.3,-1.7l-13.3,0l0.2,1.7ZM697,320.9c-11.7,-5.1,-19.3,-6.8,-31.8,-6.8c-12.6,0,-20.2,1.7,-31.9,6.8c-11.7,5.1,-11.1,14.8,-11.1,14.8l0,20.6c0,0.2,0.2,0.6,0.6,0.6l1.7,0l1.1,0l31.5,0l0,39.3c0,0.3,0.5,0.7,2.3,0.8c0.3,0,0.8,0,1.4,0l0,3.8c-4.1,0.6,-7.1,1.8,-7.1,3.3l0,6.4c0,1.5,2.9,2.8,7.1,3.3l0,16.4l0,0.4l0.1,0c0.5,1.1,3.5,1,4,0l0.2,0c0.6,0.8,3.7,1,4.2,0l0.1,0l0,-0.4l0,-16.4c4.2,-0.5,7.1,-1.8,7.1,-3.3l0,-6.5c0,0,0,-0.1,0,-0.1c-0.4,-1.4,-3.2,-2.6,-7.1,-3.1l0,-3.8c1.1,0,1.8,0,1.8,0c0,0,2,-0.1,2,-0.8l0,-39.3l7.6,0c0,0.1,0.1,1.4,0.2,1.8c0.1,0.4,0.4,0.4,0.4,0.4l12.1,0c0.3,0,0.3,-0.4,0.3,-0.4L694,357l-1.8,0l0,-0.1l0,0.1l-7.3,-0.1l7.3,0l12.3,0l1.2,0l1.8,0c0.4,0,0.6,-0.4,0.6,-0.6l0,-20.6c0,0,0.6,-9.7,-11.1,-14.8Z" class="g1_9" />
<path d="M636.2,357l0.2,1.7c0,0,0,0.4,0.3,0.4l12,0c0,0,0.3,0,0.5,-0.4c0.1,-0.5,0.3,-1.7,0.3,-1.7m-11.6,0l0.2,1.7c0,0,0.1,0.5,0.4,0.5m-14,-2.3l83,0m-1.8,-0.6c0,0.2,0.3,0.6,0.6,0.6m1.2,0c0.4,0,0.6,-0.4,0.6,-0.6l0,-20.6c0,0,0.6,-9.7,-11.1,-14.8c-11.7,-5.1,-19.3,-6.8,-31.8,-6.8c-12.6,0,-20.2,1.7,-31.9,6.8c-11.7,5.1,-11.1,14.8,-11.1,14.8l0,20.6c0,0.2,0.2,0.6,0.6,0.6l1.7,0m0,-0.6c0,0.2,-0.2,0.6,-0.6,0.6m0.6,0l0,-21.1c0,0,-0.6,-7.1,7.2,-11.6c7.8,-4.5,18.8,-8,33.4,-8c14.7,0,25.7,3.5,33.5,8c7.8,4.5,7.1,11.6,7.1,11.6l0,21.1" class="g2_9" />
</g>
<path d="M624.5,356.9l0,-20.6c0,0,-0.6,-7.2,7.2,-11.7c7.8,-4.4,18.8,-8,33.4,-8c14.7,0,25.7,3.6,33.5,8c7.8,4.5,7.1,11.5,7.1,11.5l0,20.8" class="g3_9" />
<path d="M625.6,356.9l0,-19.9c0,0,-0.6,-7.2,7,-11.6c7.5,-4.5,18.3,-8,32.5,-8c14.1,0,24.9,3.5,32.4,8c7.6,4.4,7,11.6,7,11.6l0,19.9m-78.8,-4.3l78.8,0m-82.3,0l2.3,0m81.2,0l2.4,0M694,357l-0.2,1.7c0,0,0,0.4,-0.3,0.4l-12.1,0c0,0,-0.3,0,-0.4,-0.4c-0.1,-0.4,-0.2,-1.8,-0.2,-1.8m11.4,0l-0.2,1.8c0,0,0,0.4,-0.3,0.4M644.8,329l9.2,0l0,3.2l-9.2,0Zm0.6,0.9l8,0l0,1.8l-8,0Zm0,0.4l8,0m-8,-0.4L644.8,329m8.6,0.9L654,329m-0.6,2.7l0.6,0.5m-8.6,-0.5l-0.6,0.5M680.3,329l9.3,0l0,3.2l-9.3,0Zm0.6,0.9l8,0l0,1.8l-8,0Zm0,0.4l8,0m-8,-0.4L680.3,329m8.6,0.9l0.7,-0.9m-0.7,2.7l0.7,0.5m-8.7,-0.5l-0.6,0.5m0.7,7.7l7.8,0l0,3.2l-7.8,0Zm0.6,0.9l6.5,0l0,1.8l-6.5,0Zm0,0.5l6.5,0m-6.5,-0.5L681,339.9m7.1,0.9l0.7,-0.9m-0.7,2.7l0.7,0.5m-7.2,-0.5l-0.6,0.5m-35.5,-3.2l7.8,0l0,3.2l-7.8,0Zm0.7,0.9l6.4,0l0,1.8l-6.4,0Zm0,0.5l6.4,0m-6.4,-0.5l-0.7,-0.9m7.1,0.9l0.7,-0.9m-0.7,2.7l0.7,0.5m-7.1,-0.5l-0.7,0.5M635.4,333l0,5.9m0,0l3.2,0c1.3,0,3.1,-1.1,3.1,-3c0,-1.9,-1.8,-2.9,-3.1,-2.9l-3.2,0m0.6,0.9l0,4.6m0,0l2.6,0c1,0,2.4,-0.9,2.4,-2.3c0,-1.5,-1.4,-2.3,-2.4,-2.3l-2.6,0m5,2.5c-0.2,-1.3,-1.5,-2,-2.4,-2l-2.6,0m0,-0.5L635.4,333l0,5.9l0.6,-0.4M670.9,333l0,5.9m0,0l3.2,0c1.3,0,3.1,-1.1,3.1,-3c0,-1.9,-1.8,-2.9,-3.1,-2.9l-3.2,0m0.6,0.9l0,4.6m0,0l2.6,0c1,0,2.4,-0.9,2.4,-2.3c0,-1.5,-1.4,-2.3,-2.4,-2.3l-2.6,0m5,2.5c-0.2,-1.3,-1.5,-2,-2.4,-2l-2.6,0m0,-0.5L670.9,333l0,5.9l0.6,-0.4m-14.4,18.4l0,39.3c0,0.3,0.5,0.7,2.3,0.8c1.8,0,11.8,0,11.8,0c0,0,2,-0.1,2,-0.8l0,-39.3m-15.6,1.2l14.9,0m-15.4,35.7c0,0.3,0.5,0.8,2.3,0.8c1.8,0,11.8,0,11.8,0c0,0,2,-0.1,2,-0.8m-16.1,-2.4l4.7,0m6.7,0l4.7,0m-15.6,-0.8l4,0m7.3,0l4,0m-10.8,2.5l0,-11.1c0,-0.6,1.3,-1.2,3,-1.2c1.6,0,2.9,0.6,2.9,1.2l0,10.9M668,382c0,0.5,-1.3,0.9,-2.9,0.9c-1.7,0,-3,-0.4,-3,-0.9" class="g2_9" />
<path d="M662.8,381.5c0,-0.4,1,-0.7,2.3,-0.7c1.3,0,2.3,0.3,2.3,0.7" class="g3_9" />
<g clip-path="url(#c0_9)">
<path d="M667.4,381.5c0,0.4,-1,0.8,-2.3,0.8c-1.3,0,-2.3,-0.4,-2.3,-0.8m5.2,11.4c0,0.5,-1.3,0.9,-2.9,0.9c-1.7,0,-3,-0.4,-3,-0.9m5.9,-0.8c0,0.5,-1.3,0.9,-2.9,0.9c-1.7,0,-3,-0.4,-3,-0.9m5.9,-0.9c0,0.5,-1.3,0.9,-2.9,0.9c-1.7,0,-3,-0.4,-3,-0.9m5.9,-1c0,0.6,-1.3,1,-2.9,1c-1.7,0,-3,-0.4,-3,-1m5.9,-0.9c0,0.5,-1.3,1,-2.9,1c-1.7,0,-3,-0.5,-3,-1m5.9,-0.9c0,0.5,-1.3,1,-2.9,1c-1.7,0,-3,-0.5,-3,-1m5.9,-0.9c0,0.5,-1.3,0.9,-2.9,0.9c-1.7,0,-3,-0.4,-3,-0.9m5.9,-0.9c0,0.5,-1.3,0.9,-2.9,0.9c-1.7,0,-3,-0.4,-3,-0.9m5.9,-0.9c0,0.5,-1.3,1,-2.9,1c-1.7,0,-3,-0.5,-3,-1m5.9,-0.9c0,0.5,-1.3,0.9,-2.9,0.9c-1.7,0,-3,-0.4,-3,-0.9m5.9,-0.9c0,0.5,-1.3,0.9,-2.9,0.9c-1.7,0,-3,-0.4,-3,-0.9M668,383c0,0.5,-1.3,0.9,-2.9,0.9c-1.7,0,-3,-0.4,-3,-0.9m0,21.4l0,-7.4m5.9,0l0,7.2m0,0c0,0.5,-1.3,0.9,-2.9,0.9c-1.7,0,-3,-0.4,-3,-0.9m5.9,-0.8c0,0.5,-1.3,0.9,-2.9,0.9c-1.7,0,-3,-0.4,-3,-0.9m5.9,-0.9c0,0.5,-1.3,0.9,-2.9,0.9c-1.7,0,-3,-0.4,-3,-0.9m5.9,-1c0,0.6,-1.3,1,-2.9,1c-1.7,0,-3,-0.4,-3,-1m5.9,-0.9c0,0.5,-1.3,1,-2.9,1c-1.7,0,-3,-0.5,-3,-1m5.9,-0.9c0,0.5,-1.3,1,-2.9,1c-1.7,0,-3,-0.5,-3,-1m5.9,-0.9c0,0.5,-1.3,0.9,-2.9,0.9c-1.7,0,-3,-0.4,-3,-0.9m5.9,-0.9c0,0.5,-1.3,0.9,-2.9,0.9c-1.7,0,-3,-0.4,-3,-0.9M668,397c0,0.5,-1.3,1,-2.9,1c-1.7,0,-3,-0.5,-3,-1m4,0c-0.3,0,-0.7,0,-1,0c-0.4,0,-0.8,0,-1.1,0m11.4,6.9c0,1.8,-4.6,3.3,-10.3,3.3c-5.7,0,-10.4,-1.5,-10.4,-3.3m21.8,0.2c0,-1.6,-3.6,-3,-8.4,-3.4m-6,0c-4.8,0.4,-8.4,1.8,-8.4,3.4l0,6.4c0,2,5.1,3.6,11.4,3.6c6.3,0,11.4,-1.6,11.4,-3.6l0,-6.5m-15.7,-7l0,3.8m8.6,-3.8l0,3.8m-8.6,13l0,16.4m8.6,-16.4l0,16.4m6,-26.3c0,-1.4,-3.2,-2.7,-7.3,-3.1m-6,0c-4.2,0.5,-7.4,1.7,-7.4,3.1m21.5,1.6c-1.3,1.6,-5.8,2.8,-11.1,2.8c-5.2,0,-9.6,-1.1,-11,-2.6m51.6,-48.8l0,-20.9m-81.2,20.9l0,-20.9m36.3,94.2c0,1.7,4.2,1.5,4.2,0c0,-1.4,4.4,-1.6,4.4,0c0,1.6,-4.4,1.3,-4.4,0M680.2,228.4l-30.5,0c-21.6,0,-24.2,19.3,-24.2,19.3c0,0,-2.6,15.7,-2.9,17.8c-0.2,2,-0.4,5.1,-0.4,5.1l0,11.9l2.3,0l0,-6c0,-1.6,3.1,-3.2,5.3,-3.8c2.3,-0.6,14.6,-3.2,35.5,-3.2c20.8,0,31.9,2.5,35.1,3.4c3.2,1,5,2.3,5,3.6l0,6l2.3,0l0,-11.9c0,0,-0.2,-3.1,-0.5,-5.1c-0.2,-2.1,-2.8,-17.8,-2.8,-17.8c0,0,-2.6,-19.3,-24.2,-19.3m-23.3,0l0,-2.1l1.4,0m-0.9,2.1c0.5,0,0.5,0,2,0.3c1.5,0.3,3.7,0.7,4.3,0.8c0.7,0.2,2.1,0.2,3,0c0.9,-0.2,5.5,-1.1,5.5,-1.1m-13.9,0l0,-6.8c0,-3.6,3,-6.6,6.6,-6.6c3.7,0,6.7,3,6.7,6.6c0,3.6,0.1,6.8,0,6.8m1.3,0l0,-2.1l-1.3,0m-17.7,47.8l0,1.2l-9.3,0l0,-1.2" class="g2_9" />
</g>
<path d="M644.5,274.5l9,0" class="g3_9" />
<path d="M653.2,274.4l0.7,0.9" class="g2_9" />
<path d="M645.5,274.5l8,0" class="g3_9" />
<path d="M644.6,275.3l0.7,-0.9m7.9,0l0,-0.3m-0.1,4l0,1.2l-7.7,0l0,-1.2" class="g2_9" />
<path d="M645.5,278.5l8,0" class="g3_9" />
<path d="M652.5,278.4l0.6,0.9" class="g2_9" />
<path d="M646.5,278.5l6,0" class="g3_9" />
<path d="M645.4,279.3l0.7,-0.9" class="g2_9" />
<path d="M635.4,275.6l0,2.1m0,0l3.3,0c0,0,2.9,0.1,2.9,-1" class="g2_9" />
<path d="M635.4,275.6l3.3,0c0,0,2.9,0,2.9,1.1M636,275.6l0,1.3m0,0l2.7,0c0,0,2.1,0.1,2.3,-0.9" class="g3_9" />
<path d="M636,276.9l-0.6,0.8m53.8,-3.6l0,1.2l-9.2,0l0,-1.2" class="g2_9" />
<path d="M679.5,274.5l10,0" class="g3_9" />
<path d="M688.5,274.4l0.7,0.9" class="g2_9" />
<path d="M680.5,274.5l8,0" class="g3_9" />
<path d="M680,275.3l0.6,-0.9m7.9,0l0,-0.3m0,4l0,1.2l-7.7,0l0,-1.2" class="g2_9" />
<path d="M680.5,278.5l8,0" class="g3_9" />
<path d="M687.8,278.4l0.7,0.9" class="g2_9" />
<path d="M681.5,278.5l6,0" class="g3_9" />
<path d="M680.8,279.3l0.6,-0.9" class="g2_9" />
<path d="M670.7,275.6l0,2.1m0,0l3.3,0c0,0,2.9,0.1,2.9,-1" class="g2_9" />
<path d="M670.7,275.6l3.3,0c0,0,2.9,0,2.9,1.1m-5.5,-1.1l0,1.3m0,0l2.6,0c0,0,2.2,0.1,2.3,-0.9" class="g3_9" />
<path d="M671.4,276.9l-0.7,0.8m-48.4,-1.2c0,-1.8,3.2,-3.5,5.6,-4.2c2.4,-0.7,15.4,-3.6,37.4,-3.6c22,0,33.7,2.7,37,3.8c3.4,1.1,5.3,2.6,5.3,4m-81.9,0.1c0,-1.5,3,-3,5.2,-3.6c2.2,-0.5,14.1,-3,34.4,-3c20.2,0,30.9,2.3,34,3.2c3.1,0.9,4.9,2.2,4.9,3.4m-78.5,-0.8c0,-0.8,0.9,-1.6,2,-2.3m76.5,2.3l0,6.8l-78.5,0l0,-6.8m77.1,-1.9c0.9,0.6,1.4,1.3,1.4,1.9m-79.7,6l1.2,0m78.5,0l1.2,0M523.2,354l-13.5,0l0,-6.2c0,0,0.2,-14.1,13.4,-14.1m0.9,-0.9l-0.8,0l0,23.4c0,0,0,0.7,0.9,0.7l53.9,0l0,-4.4L563.9,313.8l-32.7,11.9c-0.1,0.1,-8,2.2,-8,12.4m6.9,18.8l0.2,1.9c0,0,0.1,0.3,0.6,0.3l10.1,0c0,0,0.4,0,0.5,-0.4c0,-0.5,0.2,-1.8,0.2,-1.8m19.5,0l0.3,1.9c0,0,0,0.3,0.5,0.3l10.2,0c0,0,0.4,0,0.4,-0.4c0.1,-0.5,0.3,-1.8,0.3,-1.8M512.1,354l0,64.2M520.8,354l0,64.2c0,2.4,-4.4,2.1,-4.4,0c0,-2.1,-4.3,-2.3,-4.3,0c0,2.2,4.3,2.2,4.3,0m6.8,-63.1c-0.6,0.3,-2,1.8,-2,4m3.6,-2.2c-0.6,0.4,-1.1,1,-1.1,1.7l0,5.8l0,25.1c0,0.9,1,2,2.3,2l7.3,0c0,0,0.6,0.1,0.9,0.2c0.4,0.1,11.5,3.1,11.5,3.1l-0.6,2.3l-11.3,-3c0,0,-0.4,-0.1,-0.7,-0.1l-7.3,0c-0.6,0,-4.6,-0.9,-4.6,-4.8c0,-3.9,0,-30.1,0,-30.1m13.3,44.7l2.4,-8.9m0.6,-2.4l3,-11.2m-0.4,24l2.4,-9m0.6,-2.3l3,-11.3" class="g2_9" />
<path d="M546.1,382.7l-0.3,-0.5l-4.7,-1.3l-0.6,0.4" class="g3_9" />
<path d="M540.5,381.3l5.6,1.4m-5.7,-0.8l5.6,1.2m-5.9,-0.2l5.7,1.1m-5.9,-0.2l5.6,1.1m-5.9,-0.2l5.7,1.1m-5.9,-0.2l5.6,1.2m-5.9,-0.2l5.7,1.1m-5.9,-0.2l5.6,1.1m-5.9,-0.2l5.7,1.1m-5.9,-0.2l5.6,1.1m-5.9,-0.2l5.7,1.2m-5.9,-0.2l5.6,1.1m-5.9,-0.2l5.7,1.1m-6.7,2.6l5.7,1.1m-5.9,-0.2l5.7,1.1m-6,-0.2l5.7,1.1m-5.9,-0.2l5.7,1.1m-5.9,-0.2l5.6,1.1m-5.9,-0.1l5.7,1.1m-5.9,-0.2l5.6,1.1m-5.9,-0.2l5.7,1.1m-6,-0.2l5.6,1.1m-13.3,-2.4l20.7,5.5c0.5,0.2,0.7,0.7,0.6,1.1l-1.3,5.3c-0.1,0.5,-0.6,0.7,-1.1,0.6L525,408.8c-0.4,-0.2,-0.7,-0.7,-0.6,-1.2l1.4,-5.2c0.1,-0.5,0.6,-0.8,1.1,-0.6Z" class="g2_9" />
<path d="M608.5,228.5l34,0" class="g4_9" />
<path d="M608.5,282.5l12,0" class="g4_9" />
<path d="M607.5,228.5l0,54" class="g5_9" />
<path d="M607.5,228.5l-1,0" class="g5_9" />
<path d="M607.5,282.5l-1,0" class="g5_9" />
<path d="M721.5,314.5l-40,0" class="g4_9" />
<path d="M721.5,357.5l-12,0" class="g4_9" />
<path d="M722.5,314.5l0,43" class="g5_9" />
<path d="M722.5,314.5l1,0" class="g5_9" />
<path d="M722.5,357.5l1,0" class="g5_9" />
<path d="M579.5,357.5l5,0" class="g4_9" />
<path d="M546.5,397.5l39,0" class="g4_9" />
<path d="M586.5,357.5l0,40" class="g5_9" />
<path d="M587.5,357.5l-2,0" class="g5_9" />
<path d="M587.5,397.5l-2,0" class="g5_9" />
<path d="M621.5,290.5l0,-6" class="g4_9" />
<path d="M708.5,290.5l0,-6" class="g4_9" />
<path d="M621.5,291.5l87,0" class="g5_9" />
<path d="M621.5,290.5l0,2" class="g5_9" />
<path d="M708.5,290.5l0,2" class="g5_9" />
<path d="M321.7,699.6l4.6,0c0,0,1.1,-0.9,0,-2m0,0l-4.7,0m0,5.9l6.2,0c0.5,0,0.7,-0.4,0.7,-0.7c0,-0.3,-0.3,-0.8,-0.7,-0.8l-6.2,0m0,3l0,-8.4l-8,0c0,0,-0.4,0,-0.8,0.3c-0.3,0.3,-1.1,0.8,-1.8,1.1m10.6,7l-7.9,0c0,0,-0.4,0,-0.5,-0.4c-0.1,-0.4,-0.4,-2.2,-0.4,-2.2c0,0,-0.1,-0.4,-0.4,-0.4c-0.4,0,-5.1,-0.6,-5.1,-0.6l0,-4l5.9,-0.7m-5.9,1.2l-44.9,0m44.9,3l-44.9,0m-0.7,-4.6l0.6,0l0,6.2l-0.6,0m0,2.4l0,-26.4m0.4,26.5l0,3.5c0,0,-0.1,0.5,-0.6,0.5l-74,0c0,0,-0.6,-0.1,-0.6,-0.6l0,-3.5l17.2,0l0,0.6c0,0.2,0.3,0.3,0.3,0l0,-0.5l14.3,0l0,0.4c0,0.3,0.3,0.3,0.3,0.1l0,-0.6l11.1,0l0,0.6c0,0.2,0.3,0.3,0.3,0l0,-0.5l14.2,0l0,0.5c0,0.2,0.3,0.3,0.3,0l0,-0.6l17.2,0.1Zm-4.4,-0.1l0,-47.3m-70.3,47.3l0,-26.4m0,-0.8l0,-2.4m0,-6.1l0,-11.7m-0.6,-4.1l0,4.1l75.5,0l0,-4m3.2,-0.1l0,-0.2c0,0,0,-0.5,-0.6,-0.5l-80.8,0c0,0,-0.5,0.1,-0.5,0.5m0,0l0,0.2l81.9,0m-11.4,0.8c-0.7,0,-1.3,0.6,-1.3,1.3c0,0.7,0.6,1.2,1.3,1.2c0.7,0,1.2,-0.5,1.2,-1.2c0,-0.7,-0.5,-1.3,-1.2,-1.3Zm-29.6,0c-0.7,0,-1.2,0.6,-1.2,1.3c0,0.7,0.5,1.2,1.2,1.2c0.7,0,1.2,-0.5,1.2,-1.2c0,-0.7,-0.5,-1.3,-1.2,-1.3Zm0.4,1.3l-0.2,0.3l-0.4,0l-0.2,-0.3l0.2,-0.3l0.4,0l0.2,0.3ZM195,654.2c-0.7,0,-1.3,0.6,-1.3,1.3c0,0.7,0.6,1.2,1.3,1.2c0.7,0,1.2,-0.5,1.2,-1.2c0,-0.7,-0.5,-1.3,-1.2,-1.3Zm0.3,1.3l-0.1,0.3l-0.4,0l-0.2,-0.3l0.2,-0.3l0.4,0l0.1,0.3Zm59.1,0l-0.2,0.3l-0.3,0l-0.2,-0.3l0.2,-0.3l0.4,0l0.1,0.3Zm67.2,46.3l-8,-0.1c0,0,-0.4,-0.1,-0.8,-0.2c-0.4,-0.2,-1.5,-0.6,-1.6,-0.7c-0.2,-0.1,-0.2,-0.2,0,-0.4c0.3,-0.2,0.5,-0.4,0.5,-1c0,-0.6,-0.5,-1.1,-0.7,-1.2c-0.1,-0.1,-0.2,-0.1,0,-0.2m10.6,-0.1l-8,0c0,0,-1.5,0.1,-2.7,0.2m10.7,2.8l-8,0c0,0,-1.2,0,-2.4,-0.3m2.3,-2.3l0,2.2m11.9,-2.4c-0.3,0,-0.5,0.2,-0.5,0.5c0,0.3,0.2,0.5,0.5,0.5c0.3,0,0.5,-0.2,0.5,-0.5c0,-0.3,-0.2,-0.5,-0.5,-0.5ZM190.7,669.2l-4.1,0l0,0.4l4.1,0Zm0,0.4l0,5.1c0,0,0,0.6,-0.4,0.6l-0.9,0m-2.8,-5.7l0,5.2c0,0,0.1,0.5,0.5,0.5l0.9,0m2.1,2.7c0,0,0,-0.2,-0.2,-0.2l-2.5,0c0,0,-0.3,0,-0.3,0.2c0,0.2,0,0.2,0.1,0.3c0.1,0.2,0.5,0.5,1.2,0.5c0.7,0.1,1.4,-0.3,1.6,-0.4c0.1,-0.1,0.1,-0.2,0.1,-0.4Zm-0.9,-0.2l0,-8.2m-1.1,8.2l0,-8.1m1.1,-0.6l0,-7.7m-1.1,7.7l0,-7.7l1.1,0m0,0.4l-1.1,-0.3m1.1,0.8L188.1,662m1.1,0.8l-1.1,-0.3m1.1,0.8L188.1,663m1.1,0.8l-1.1,-0.3m1.1,0.8L188.1,664m1.1,0.8l-1.1,-0.3m1.1,0.8L188.1,665m1.1,0.8l-1.1,-0.3m1.1,0.8L188.1,666m1.1,0.8l-1.1,-0.3m1.1,0.8L188.1,667m1.1,0.8l-1.1,-0.3m1.1,0.8L188.1,668m1.1,0.8l-1.1,-0.3m0.8,0.7L188.1,669m1.1,1.4L188.1,670m1.1,0.9l-1.1,-0.4m1.1,0.8L188.1,671m1.1,0.8l-1.1,-0.3m1.1,0.9L188.1,672m1.1,0.8l-1.1,-0.3m1.1,0.8L188.1,673m1.1,0.8l-1.1,-0.3m1.1,0.8L188.1,674m1.1,0.8l-1.1,-0.3m1.1,0.8L188.1,675m1.1,0.8l-1.1,-0.3m1.1,0.8L188.1,676m1.1,0.8l-1.1,-0.3m1.1,0.8L188.1,677m0.8,0.7l-0.8,-0.2m1.1,-7.6l-0.8,-0.3m0.8,2.2c0.4,-0.2,0.6,-0.5,0.6,-1c0,-0.4,-0.2,-0.7,-0.6,-0.9m-1.1,0.1c-0.3,0.2,-0.4,0.5,-0.4,0.8c0,0.4,0.1,0.7,0.4,0.9m1.1,-5c0.4,-0.2,0.6,-0.6,0.6,-1c0,-0.4,-0.2,-0.8,-0.6,-0.9m-1.1,0.1c-0.3,0.2,-0.4,0.5,-0.4,0.8c0,0.4,0.1,0.7,0.4,0.9m73.5,11.1l0,-2.4m0,-6.1l0,-11.7m-3.3,11.7l4.1,0l0,0.4l-4.1,0Zm0,0.4l0,5.1c0,0,0,0.6,0.4,0.6l0.9,0m2.8,-5.7l0,5.2c0,0,-0.1,0.5,-0.5,0.5l-0.9,0m-2.1,2.7c0,0,0,-0.2,0.2,-0.2l2.5,0c0,0,0.4,0,0.4,0.2c0,0.2,0,0.2,-0.1,0.3c-0.1,0.2,-0.6,0.5,-1.3,0.5c-0.7,0.1,-1.4,-0.3,-1.6,-0.4c-0.1,-0.1,-0.1,-0.2,-0.1,-0.4Zm0.9,-0.2l0,-8.2m1.2,8.2l0,-8.1m-1.2,-0.6l0,-7.7m1.2,7.7l0,-7.7l-1.1,0m-0.1,0.4l1.1,-0.3m-1.1,0.8l1.1,-0.3m-1.1,0.8l1.1,-0.3m-1.1,0.8l1.1,-0.3m-1.1,0.8l1.1,-0.3m-1.1,0.8l1.1,-0.3m-1.1,0.8l1.1,-0.3m-1.1,0.8l1.1,-0.3m-1.1,0.8l1.1,-0.3m-1.1,0.8l1.1,-0.3m-1.1,0.8l1.1,-0.3m-1.1,0.8l1.1,-0.3m-1.1,0.8l1.1,-0.3m-1.1,0.8l1.1,-0.3m-1.1,0.8l1.1,-0.3m-0.8,0.7l0.8,-0.2m-1.1,1.4l1.1,-0.4m-1.1,0.9l1.1,-0.4m-1.1,0.8l1.1,-0.3m-1.1,0.8l1.1,-0.3m-1.1,0.9l1.1,-0.4m-1.1,0.8l1.1,-0.3m-1.1,0.8l1.1,-0.3m-1.1,0.8l1.1,-0.3m-1.1,0.8l1.1,-0.3m-1.1,0.8l1.1,-0.3m-1.1,0.8l1.1,-0.3m-1.1,0.8l1.1,-0.3m-1.1,0.8l1.1,-0.3m-1.1,0.8l1.1,-0.3m-1.1,0.8l1.1,-0.3m-0.8,0.7l0.8,-0.2m-1.1,-7.6l0.8,-0.3m-0.8,2.2c-0.4,-0.2,-0.6,-0.5,-0.6,-1c0,-0.4,0.2,-0.7,0.6,-0.9M261,670c0.2,0.2,0.4,0.5,0.4,0.8c0,0.4,-0.2,0.7,-0.5,0.9m-1.1,-5c-0.4,-0.2,-0.6,-0.6,-0.6,-1c0,-0.4,0.2,-0.8,0.6,-0.9m1.1,0.1c0.3,0.2,0.5,0.5,0.5,0.8c0,0.4,-0.2,0.7,-0.5,0.9m-1.6,-13.9l0,-22c0,0,0,-0.8,-0.6,-0.8l-68.1,0c0,0,-0.7,0.1,-0.7,0.8l0,22m1.1,0l0,-2.5l-0.7,0c0,0,-0.4,0,-0.4,-0.4m68.2,2.9l0,-2.5l0.7,0c0,0,0.4,0,0.4,-0.4m5.6,-93l-80.5,0c-0.4,0,-0.7,0.3,-0.7,0.7l0,39.4c0,0.4,0.3,0.7,0.7,0.7l80.5,0c0.4,0,0.7,-0.3,0.7,-0.7l0,-39.4c0,-0.4,-0.3,-0.7,-0.7,-0.7Zm-5.8,5.3l-69,0c-0.1,0,-0.2,0.1,-0.2,0.2l0,0.7c0,0.1,0.1,0.1,0.2,0.1l69,0c0.1,0,0.2,0,0.2,-0.1l0,-0.7c0,-0.1,-0.1,-0.2,-0.2,-0.2Zm-4,8.1l-43.9,0c-0.1,0,-0.2,0.1,-0.2,0.2l0,13.6c0,0.1,0.1,0.2,0.2,0.2l43.9,0c0.1,0,0.2,-0.1,0.2,-0.2l0,-13.6c0,-0.1,-0.1,-0.2,-0.2,-0.2Zm-10.3,4.4l-3.7,0c-0.1,0,-0.2,0.1,-0.2,0.2l0,1.5c0,0.1,0.1,0.2,0.2,0.2l3.7,0c0.1,0,0.2,-0.1,0.2,-0.2l0,-1.5c0,-0.1,-0.1,-0.2,-0.2,-0.2Zm-0.2,0.8l-3.3,0c0,0,-0.1,0,-0.1,0.1l0,0.5c0,0,0.1,0.1,0.1,0.1l3.3,0c0,0,0.1,-0.1,0.1,-0.1l0,-0.5c0,-0.1,-0.1,-0.1,-0.1,-0.1Zm-0.1,0.2l-3.1,0l0,0.2l3.1,0Zm0.3,1.8l-3.7,0c-0.1,0,-0.2,0.1,-0.2,0.2l0,1.5c0,0.1,0.1,0.1,0.2,0.1l3.7,0c0.1,0,0.2,0,0.2,-0.1l0,-1.5c0,-0.1,-0.1,-0.2,-0.2,-0.2Zm-0.2,0.8l-3.3,0c0,0,-0.1,0,-0.1,0.1l0,0.5c0,0,0.1,0.1,0.1,0.1l3.3,0c0,0,0.1,-0.1,0.1,-0.1l0,-0.5c0,-0.1,-0.1,-0.1,-0.1,-0.1Zm-0.1,0.2l-3.1,0l0,0.2l3.1,0Zm-10.8,0l-3.1,0c-0.1,0,-0.1,0.1,-0.1,0.2l0,1c0,0.1,0,0.2,0.1,0.2l3.1,0c0.1,0,0.1,-0.1,0.1,-0.2l0,-1c0,-0.1,0,-0.2,-0.1,-0.2Zm-0.2,0.3l-2.7,0c0,0,-0.1,0,-0.1,0.1l0,0.6c0,0.1,0.1,0.1,0.1,0.1l2.7,0c0,0,0.1,0,0.1,-0.1l0,-0.6c0,-0.1,-0.1,-0.1,-0.1,-0.1Zm-0.1,-4.4l-2.6,0c-0.1,0,-0.1,0.1,-0.1,0.2l0,1c0,0.1,0,0.2,0.1,0.2l2.6,0c0.1,0,0.2,-0.1,0.2,-0.2l0,-1c0,-0.1,-0.1,-0.2,-0.2,-0.2Zm-0.2,0.3l-2.2,0l0,0.1l0,0.7l2.2,0c0.1,0,0.1,0,0.1,0l0,-0.7c0,-0.1,0,-0.1,-0.1,-0.1Zm-6.1,1.3l0,2.3l1.3,0c0,0,1.1,-0.1,1.1,-1.1c0,-1,-0.6,-1.2,-1.1,-1.2c-0.5,0,-1.3,0,-1.3,0Zm0.3,0.2l0,1.8l1,0c0,0,0.8,-0.1,0.8,-0.8c0,-0.8,-0.4,-1,-0.8,-1c-0.4,0,-1,0,-1,0Zm-3.5,2.3l-3.1,0c0,0,-0.1,0.1,-0.1,0.2l0,1c0,0.1,0.1,0.2,0.1,0.2l3.1,0c0.1,0,0.2,-0.1,0.2,-0.2l0,-1c0,-0.1,-0.1,-0.2,-0.2,-0.2Zm-0.2,0.3l-2.6,0c-0.1,0,-0.1,0,-0.1,0.1l0,0.6c0,0.1,0,0.1,0.1,0.1l2.6,0c0.1,0,0.1,0,0.1,-0.1l0,-0.6c0,-0.1,0,-0.1,-0.1,-0.1Zm0,-4.4l-2.6,0c-0.1,0,-0.2,0.1,-0.2,0.2l0,1c0,0.1,0.1,0.2,0.2,0.2l2.6,0c0.1,0,0.1,-0.1,0.1,-0.2l0,-1c0,-0.1,0,-0.2,-0.1,-0.2Zm-0.2,0.3l-2.2,0c-0.1,0,-0.1,0,-0.1,0.1l0,0.7l0.1,0l2.2,0l0,-0.7c0,-0.1,0,-0.1,0,-0.1Zm-6.1,1.3l0,2.3l1.2,0c0,0,1.1,-0.1,1.1,-1.1c0,-1,-0.6,-1.2,-1,-1.2c-0.5,0,-1.3,0,-1.3,0Zm0.2,0.2l0,1.8l1,0c0,0,0.8,-0.1,0.9,-0.8c0,-0.8,-0.5,-1,-0.9,-1c-0.3,0,-1,0,-1,0Zm-12.6,-7.8l-4.8,0c-0.3,0,-0.5,0.2,-0.5,0.5l0,16.7c0,0.3,0.2,0.5,0.5,0.5l4.8,0c0.3,0,0.5,-0.2,0.5,-0.5l0,-16.7c0,-0.3,-0.2,-0.5,-0.5,-0.5Zm-2.5,0.7c-0.4,0,-0.8,0.3,-0.8,0.8c0,0.4,0.4,0.7,0.8,0.7c0.5,0,0.8,-0.3,0.8,-0.7c0,-0.5,-0.3,-0.8,-0.8,-0.8Zm0.2,0.4l0.2,0.4l-0.2,0.4l-0.4,0L202,569.8l0.2,-0.4l0.4,0Zm-0.2,14.3c-0.4,0,-0.8,0.4,-0.8,0.8c0,0.5,0.4,0.8,0.8,0.8c0.5,0,0.8,-0.3,0.8,-0.8c0,-0.4,-0.3,-0.8,-0.8,-0.8Zm0.2,0.5l0.2,0.3l-0.2,0.4l-0.4,0L202,584.5l0.2,-0.3l0.4,0Zm-3.5,-15.9l-4.9,0c-0.3,0,-0.5,0.2,-0.5,0.5l0,16.7c0,0.3,0.2,0.5,0.5,0.5l4.9,0c0.2,0,0.5,-0.2,0.5,-0.5l0,-16.7c0,-0.3,-0.3,-0.5,-0.5,-0.5Zm-2.5,0.7c-0.4,0,-0.8,0.3,-0.8,0.8c0,0.4,0.4,0.7,0.8,0.7c0.4,0,0.8,-0.3,0.8,-0.7c0,-0.5,-0.4,-0.8,-0.8,-0.8Zm0.2,0.4l0.2,0.4l-0.2,0.4l-0.4,0l-0.2,-0.4l0.2,-0.4l0.4,0Zm-0.2,14.3c-0.4,0,-0.8,0.4,-0.8,0.8c0,0.5,0.4,0.8,0.8,0.8c0.4,0,0.8,-0.3,0.8,-0.8c0,-0.4,-0.4,-0.8,-0.8,-0.8Zm0.2,0.5l0.2,0.3l-0.2,0.4l-0.4,0l-0.2,-0.4l0.2,-0.3l0.4,0Zm-7,-21.2l-0.1,0.3l0,27.8c0,0,0,0.4,0.3,0.4l68.9,0c0,0,0.4,-0.1,0.4,-0.4l0,-28.1l-0.1,0l0,1.8l-1.1,0l0,-1.7m-67.2,0l0,1.7l-1,0l0,-1.7m-0.2,22.2l1.2,0l0,2l-1.2,0m69.6,-2l-1.1,0l0,2l1.1,0m3,-30.5l0,-2c0,0,0,-0.5,-0.4,-0.5l-3.1,0c0,0,-0.5,0.1,-0.5,0.5l0,2m3.1,0c0.1,-0.2,0.1,-0.3,0.1,-0.4c0,-0.7,-0.5,-1.2,-1.2,-1.2c-0.6,0,-1.2,0.5,-1.2,1.2c0,0.1,0,0.2,0.1,0.4m1.7,-0.1c0.1,-0.1,0.1,-0.2,0.1,-0.3c0,-0.4,-0.3,-0.7,-0.7,-0.7c-0.4,0,-0.7,0.3,-0.7,0.7c0,0.1,0,0.2,0.1,0.3m-68.9,0.1l0,-2c0,0,-0.1,-0.5,-0.5,-0.5l-3.1,0c0,0,-0.5,0.1,-0.5,0.5l0,2m3.2,0c0,-0.2,0,-0.3,0,-0.4c0,-0.7,-0.5,-1.2,-1.2,-1.2c-0.6,0,-1.2,0.5,-1.2,1.2c0,0.1,0,0.2,0.1,0.4m1.7,-0.1c0.1,-0.1,0.1,-0.2,0.1,-0.3c0,-0.4,-0.3,-0.7,-0.7,-0.7c-0.4,0,-0.7,0.3,-0.7,0.7c0,0.1,0,0.2,0.1,0.3m-1.4,41l0,1.9c0,0,0,0.5,0.4,0.5l3.1,0c0,0,0.6,-0.1,0.6,-0.5l0,-1.9m-3.2,0c-0.1,0.1,-0.1,0.2,-0.1,0.3c0,0.7,0.5,1.2,1.2,1.2c0.7,0,1.2,-0.5,1.2,-1.2c0,-0.1,0,-0.2,-0.1,-0.3m-1.7,0c-0.1,0.1,-0.1,0.2,-0.1,0.3c0,0.4,0.3,0.7,0.7,0.7c0.4,0,0.7,-0.3,0.7,-0.7c0,-0.1,0,-0.2,-0.1,-0.3m69,0l0,1.9c0,0,0,0.5,0.4,0.5l3.1,0c0,0,0.5,-0.1,0.5,-0.5l0,-1.9m-3.1,0c-0.1,0.1,-0.1,0.2,-0.1,0.3c0,0.7,0.5,1.2,1.2,1.2c0.7,0,1.2,-0.5,1.2,-1.2c0,-0.1,0,-0.2,-0.1,-0.3m-1.7,0c-0.1,0.1,-0.1,0.2,-0.1,0.3c0,0.4,0.3,0.7,0.7,0.7c0.4,0,0.7,-0.3,0.7,-0.7c0,-0.1,0,-0.2,-0.1,-0.3M265.5,586l41.8,0m-41.8,3.1l41.8,0m4.2,-4.1l-4.2,0.6l0,3.9l4.3,0.6m-0.4,-4.6c0.3,-0.5,1.5,-2,3.7,-2l6.7,0l0,8.1l-6.9,0c0,0,-2.1,0.1,-3.5,-2M321.6,586l-6.8,0c0,0,-1.6,0.1,-1.6,1.6c0,1.4,1.6,1.6,1.6,1.6l6.8,0m0,-2.4l6.1,0c0,0,0.7,0.1,0.7,0.8c0,0.7,-0.7,0.7,-0.7,0.7l-6.1,0m5.1,-3l-5.1,0l0,0.5l5.1,0Zm-0.4,0l0,0.5m0.4,3.6l-5.1,0l0,0.5l5.1,0Zm-0.4,0l0,0.5M121.8,652.6l-1,-2.5l0,-20c0,0,0,-0.3,-0.2,-0.3l-0.6,0c0,0,-0.3,0.1,-0.3,0.3l0,22.2c0,0,0,0.3,0.2,0.3m-5.6,0.7l0,-0.2c0,0,0,-0.4,0.5,-0.4l40.1,0c0,0,0.4,0,0.4,0.4m0,0l0,0.2l-41,0m37.9,0l0,4.1l-34.7,0l0,-4.1m40.9,15.8l0,0.4l-5.7,0c0,0,-0.4,0.1,-0.4,0.4l0,5.4l-0.4,0l0,-5.5c0,0,0.1,-0.7,0.8,-0.7c0.7,0,5.7,0,5.7,0Zm-6.5,-11.7l0,47.5M157.4,678c0,0,0,-0.3,-0.2,-0.3l-2.5,0c0,0,-0.4,0.1,-0.4,0.2c0,0.2,0,0.3,0.1,0.4c0.1,0.1,0.6,0.5,1.3,0.5c0.7,0.1,1.4,-0.3,1.6,-0.4c0.1,-0.1,0.1,-0.2,0.1,-0.4Zm-0.9,-0.3l0,-8.2m-1.2,8.3l0,-8.3m1.2,-0.4l0,-7.7m-1.2,7.7l0,-7.7l1.1,0m0.1,0.4l-1.2,-0.3m1.2,0.8L155.3,662m1.2,0.8l-1.2,-0.3m1.2,0.8l-1.2,-0.4m1.2,0.9l-1.2,-0.3m1.2,0.8L155.3,664m1.2,0.8l-1.2,-0.3m1.2,0.8l-1.2,-0.4m1.2,0.9l-1.2,-0.3" class="g3_9" />
<path d="M156.5,666.3l-1.2,-0.4m1.2,0.9l-1.2,-0.4m1.2,0.9l-1.2,-0.4m1.2,0.9l-1.2,-0.3m1.2,0.8l-1.2,-0.4m1.2,0.9l-1.2,-0.4m0.6,0.7l-0.6,-0.2m1.2,1.4L155.3,670m1.2,0.8l-1.2,-0.3m1.2,0.8L155.3,671m1.2,0.8l-1.2,-0.3m1.2,0.8L155.3,672m1.2,0.8l-1.2,-0.3m1.2,0.8L155.3,673m1.2,0.8l-1.2,-0.3m1.2,0.8L155.3,674m1.2,0.8l-1.2,-0.3m1.2,0.8L155.3,675m1.2,0.8l-1.2,-0.3m1.2,0.8L155.3,676m1.2,0.8l-1.2,-0.3m1.2,0.8L155.3,677m0.9,0.7l-0.9,-0.2m1.2,-7.7l-1.1,-0.3m-2.9,0.2c0,0,-0.2,0,-0.2,0.2l0,1.9c0,0,0,0.3,0.2,0.3c0.1,0,0.2,0,0.3,-0.1c0,-0.1,0.3,-0.4,0.3,-1c0.1,-0.5,-0.2,-1.1,-0.3,-1.2c-0.1,-0.1,-0.1,-0.1,-0.3,-0.1Zm-0.4,-5.2c0,0,-0.2,0,-0.2,0.1l0,2c0,0,0,0.2,0.1,0.2c0.2,0,0.3,0,0.3,0c0.1,-0.1,0.4,-0.5,0.4,-1c0.1,-0.6,-0.2,-1.1,-0.3,-1.2c-0.1,-0.1,-0.1,-0.2,-0.3,-0.1Zm-40.9,4.6l0,0.4l5.8,0c0,0,0.3,0.1,0.3,0.4l0,5.4l0.4,0l0,-5.5c0,0,0,-0.7,-0.8,-0.7c-0.7,0,-5.7,0,-5.7,0Zm6.5,-11.7l0,47.5M112.2,678c0,0,0.1,-0.3,0.3,-0.3l2.5,0c0,0,0.3,0.1,0.3,0.2c0,0.2,0,0.3,-0.1,0.4c-0.1,0.1,-0.5,0.5,-1.2,0.5c-0.7,0.1,-1.5,-0.3,-1.6,-0.4c-0.1,-0.1,-0.2,-0.2,-0.2,-0.4Zm0.9,-0.3l0.1,-8.2m1.1,8.3l0,-8.3m-1.1,-0.4l0,-7.7m1.1,7.7l0,-7.7l-1.1,0m0,0.4l1.1,-0.3m-1.1,0.8l1.1,-0.3m-1.1,0.8l1.1,-0.3m-1.1,0.8l1.1,-0.3m-1.1,0.8l1.1,-0.3m-1.1,0.8l1.1,-0.3m-1.1,0.8l1.1,-0.3m-1.1,0.8l1.1,-0.4m-1.1,0.9l1.1,-0.3m-1.1,0.8l1.1,-0.4m-1.1,0.9l1.1,-0.4m-1.1,0.9l1.1,-0.4m-1.1,0.9l1.1,-0.3m-1.1,0.8l1.1,-0.4m-1.1,0.9l1.1,-0.4m-0.6,0.7l0.6,-0.2m-1.1,1.4l1.1,-0.3m-1.1,0.8l1.1,-0.3m-1.1,0.8l1.1,-0.3m-1.1,0.8l1.1,-0.3m-1.1,0.8l1.1,-0.3m-1.1,0.8l1.1,-0.3m-1.1,0.8l1.1,-0.3m-1.1,0.8l1.1,-0.3m-1.1,0.8l1.1,-0.3m-1.1,0.8l1.1,-0.3m-1.1,0.8l1.1,-0.3m-1.1,0.8l1.1,-0.3m-1.1,0.8l1.1,-0.3m-1.1,0.8l1.1,-0.3m-1.1,0.8l1.1,-0.3m-0.9,0.7l0.9,-0.2m-1.1,-7.7l1.1,-0.3m2.9,0.2c0,0,0.1,0,0.1,0.2l0,1.9c0,0,0,0.3,-0.1,0.3c-0.2,0,-0.2,0,-0.3,-0.1c-0.1,-0.1,-0.3,-0.4,-0.4,-1c0,-0.5,0.3,-1.1,0.3,-1.2c0.1,-0.1,0.2,-0.1,0.4,-0.1Zm0.4,-5.2c0,0,0.2,0,0.2,0.1l0,2c0,0,0,0.2,-0.2,0.2c-0.1,0,-0.2,0,-0.3,0c-0.1,-0.1,-0.3,-0.5,-0.4,-1c0,-0.6,0.3,-1.1,0.4,-1.2c0,-0.1,0.1,-0.2,0.3,-0.1Zm24.3,22.4l-14.4,0c-0.6,0,-1,0.4,-1,1l0,14.4c0,0.6,0.4,1.1,1,1.1l14.4,0c0.6,0,1,-0.5,1,-1.1l0,-14.4c0,-0.6,-0.4,-1,-1,-1ZM152.2,705l0,3.4c0,0,0,0.6,-0.6,0.6L118,709c0,0,-0.6,-0.1,-0.6,-0.6l0,-3.5l34.8,0.1Zm-35,0.9c0,0,0.2,0,0.2,0.2l0,1.7c0,0,0,0.2,-0.1,0.2c-0.2,0,-0.2,0,-0.3,0c-0.1,-0.1,-0.3,-0.4,-0.3,-0.9c-0.1,-0.5,0.2,-1,0.2,-1.1c0.1,-0.1,0.2,-0.1,0.3,-0.1ZM427.8,556.4l-74.4,0c-0.7,0,-1.3,0.6,-1.3,1.3l0,33.4c0,0.7,0.6,1.3,1.3,1.3l74.4,0c0.7,0,1.3,-0.6,1.3,-1.3l0,-33.4c0,-0.7,-0.6,-1.3,-1.3,-1.3Z" class="g3_9" />
<path d="M352.5,603.5l0,-10" class="g6_9" />
<path d="M429.5,603.5l0,-10" class="g6_9" />
<path d="M352.5,604.5l77,0" class="g5_9" />
<path d="M352.5,603.5l0,2" class="g5_9" />
<path d="M429.5,603.5l0,2" class="g5_9" />
<path d="M429.5,556.5l12,0" class="g4_9" />
<path d="M429.5,592.5l12,0" class="g4_9" />
<path d="M441.5,556.5l0,36" class="g5_9" />
<path d="M441.5,556.5l-1,0" class="g5_9" />
<path d="M441.5,592.5l-1,0" class="g5_9" />
<path d="M183.5,556.5l0,-10" class="g4_9" />
<path d="M265.5,556.5l0,-10" class="g4_9" />
<path d="M189.5,604.5l0,-13" class="g4_9" />
<path d="M259.5,604.5l0,-13" class="g4_9" />
<path d="M186.5,718.5l0,-10" class="g4_9" />
<path d="M261.5,718.5l0,-10" class="g4_9" />
<path d="M178.5,561.5l10,0" class="g4_9" />
<path d="M178.5,591.5l10,0" class="g4_9" />
<path d="M155.5,556.5l27,0" class="g6_9" />
<path d="M155.5,597.5l27,0" class="g6_9" />
<path d="M263.5,657.5l70,0" class="g6_9" />
<path d="M263.5,708.5l71,0" class="g6_9" />
<path d="M188.5,681.5l81,0" class="g6_9" />
<path d="M183.5,543.5l82,0" class="g5_9" />
<path d="M183.5,543.5l0,1" class="g5_9" />
<path d="M265.5,543.5l0,1" class="g5_9" />
<path d="M189.5,606.5l70,0" class="g5_9" />
<path d="M189.5,605.5l0,2" class="g5_9" />
<path d="M259.5,605.5l0,2" class="g5_9" />
<path d="M186.5,720.5l75,0" class="g5_9" />
<path d="M186.5,719.5l0,1" class="g5_9" />
<path d="M261.5,719.5l0,1" class="g5_9" />
<path d="M176.5,561.5l0,30" class="g5_9" />
<path d="M177.5,561.5l-2,0" class="g5_9" />
<path d="M177.5,591.5l-2,0" class="g5_9" />
<path d="M274.5,629.5l-15,0" class="g6_9" />
<path d="M274.5,653.5l-8,0" class="g4_9" />
<path d="M275.5,629.5l0,24" class="g5_9" />
<path d="M274.5,629.5l2,0" class="g5_9" />
<path d="M274.5,653.5l2,0" class="g5_9" />
<path d="M271.5,657.5l0,24" class="g5_9" />
<path d="M272.5,657.5l-1,0" class="g5_9" />
<path d="M272.5,681.5l-1,0" class="g5_9" />
<path d="M335.5,657.5l0,51" class="g5_9" />
<path d="M336.5,657.5l-2,0" class="g5_9" />
<path d="M336.5,708.5l-2,0" class="g5_9" />
<path d="M153.5,556.5l0,41" class="g5_9" />
<path d="M153.5,556.5l-1,0" class="g5_9" />
<path d="M153.5,597.5l-1,0" class="g5_9" />
<path d="M158.5,626.5l0,43" class="g6_9" />
<path d="M111.5,626.5l0,43" class="g6_9" />
<path d="M151.5,711.5l0,8" class="g4_9" />
<path d="M117.5,711.5l0,8" class="g4_9" />
<path d="M158.5,624.5l-47,0" class="g5_9" />
<path d="M158.5,625.5l0,-1" class="g5_9" />
<path d="M111.5,625.5l0,-1" class="g5_9" />
<path d="M151.5,721.5l-34,0" class="g5_9" />
<path d="M151.5,722.5l0,-2" class="g5_9" />
<path d="M117.5,722.5l0,-2" class="g5_9" />
<g clip-path="url(#c1_9)">
<path d="M64,136l-15,0m1246,0l15,0M64,925l-15,0m1246,0l15,0M70,130l0,-15m0,816l0,15M1289,130l0,-15m0,816l0,15" class="g7_9" />
<path d="M64.5,136.5l-15,0m1246,0l15,0m-1246,789l-15,0m1246,0l15,0M70.5,130.5l0,-15m0,816l0,15m1219,-816l0,-15m0,816l0,15" class="g8_9" />
</g>
<path d="M209.2,320.2l145.3,0l0,3.6c0,0,0,0.5,-0.6,0.5c-0.6,0,-144,0,-144,0c0,0,-0.7,-0.1,-0.7,-0.6l0,-3.5Z" class="g3_9" />
<path d="M209.5,320.5l0,-30" class="g3_9" />
<path d="M209.5,284.5l0,-12" class="g3_9" />
<path d="M209.5,268.5l0,4l145,0l0,-4" class="g3_9" />
<path d="M357.9,268.1l0,-0.1c0,0,0,-0.3,-0.5,-0.3l-151,0c0,0,-0.6,0,-0.6,0.3" class="g3_9" />
<path d="M205.5,267.5l0,1l152,0" class="g3_9" />
<path d="M213.5,284.5l-4,0l4,0Z" class="g3_9" />
<path d="M213.7,284.5l0,5.2c0,0,-0.1,0.6,-0.5,0.6l-0.9,0" class="g3_9" />
<path d="M209.6,284.5l-0.1,5.2c0,0,0.1,0.6,0.5,0.6l0.9,0" class="g3_9" />
<path d="M213.1,293c0,0,-0.1,-0.3,-0.3,-0.3l-2.5,0c0,0,-0.3,0,-0.3,0.2c0,0.2,0,0.3,0.1,0.4c0.1,0.1,0.5,0.5,1.2,0.5c0.7,0.1,1.5,-0.3,1.6,-0.4c0.1,-0.1,0.2,-0.2,0.2,-0.4Z" class="g3_9" />
<path d="M212.2,292.7l-0.1,-8.2" class="g3_9" />
<path d="M211,292.7l0,-8.2" class="g3_9" />
<path d="M212.1,284l0,-7.8" class="g3_9" />
<path d="M211,284l-0.1,-7.8l1.2,0" class="g3_9" />
<path d="M211,276.6l1.1,-0.3" class="g3_9" />
<path d="M211,277.1l1.1,-0.3" class="g3_9" />
<path d="M211,277.6l1.1,-0.3" class="g3_9" />
<path d="M211,278.1l1.1,-0.3" class="g3_9" />
<path d="M211,278.7l1.1,-0.4" class="g3_9" />
<path d="M211,279.1l1.1,-0.3" class="g3_9" />
<path d="M211,279.6l1.1,-0.3" class="g3_9" />
<path d="M211,280.1l1.1,-0.3" class="g3_9" />
<path d="M211,280.7l1.1,-0.4" class="g3_9" />
<path d="M211,281.2l1.1,-0.4" class="g3_9" />
<path d="M211,281.6l1.1,-0.3" class="g3_9" />
<path d="M211,282.2l1.1,-0.4" class="g3_9" />
<path d="M211,282.7l1.1,-0.3" class="g3_9" />
<path d="M211,283.2l1.1,-0.4" class="g3_9" />
<path d="M211,283.7l1.1,-0.4" class="g3_9" />
<path d="M211.3,284.1l0.8,-0.3" class="g3_9" />
<path d="M211,285.3l1.1,-0.4" class="g3_9" />
<path d="M211,285.8l1.1,-0.4" class="g3_9" />
<path d="M211,286.2l1.1,-0.3" class="g3_9" />
<path d="M211,286.8l1.1,-0.4" class="g3_9" />
<path d="M211,287.3l1.1,-0.3" class="g3_9" />
<path d="M211,287.8l1.1,-0.4" class="g3_9" />
<path d="M211,288.3l1.1,-0.4" class="g3_9" />
<path d="M211,288.8l1.1,-0.4" class="g3_9" />
<path d="M211,289.3l1.1,-0.3" class="g3_9" />
<path d="M211,289.8l1.1,-0.4" class="g3_9" />
<path d="M211,290.3l1.1,-0.4" class="g3_9" />
<path d="M211,290.8l1.1,-0.4" class="g3_9" />
<path d="M211,291.3l1.1,-0.3" class="g3_9" />
<path d="M211,291.8l1.1,-0.3" class="g3_9" />
<path d="M211,292.3l1.1,-0.3" class="g3_9" />
<path d="M211.3,292.7l0.8,-0.2" class="g3_9" />
<path d="M211,284.8l0.9,-0.3" class="g3_9" />
<path d="M212.2,286.7c0.3,-0.2,0.5,-0.5,0.5,-1c0,-0.4,-0.2,-0.8,-0.6,-0.9" class="g3_9" />
<path d="M211,284.9c-0.3,0.2,-0.4,0.5,-0.4,0.8c0,0.4,0.1,0.7,0.4,0.9" class="g3_9" />
<path d="M281.8,249.9l0,-4.8c0,0,0,-0.7,-0.6,-0.7l-68.4,0c0,0,-0.6,0,-0.6,0.7l0,22.6" class="g3_9" />
<path d="M281.5,267.5l0,-5" class="g3_9" />
<path d="M213.3,267.7l0,-2.8l-0.7,0c0,0,-0.4,0,-0.4,-0.4" class="g3_9" />
<path d="M279.5,267.5l0,-2l1,0l0,2" class="g3_9" />
<path d="M281.8,249.9c0,0.6,-0.1,1,-0.7,1.6c-0.5,0.6,-0.9,0.9,-1,1c-0.1,0.2,-0.4,0.6,-0.4,1.4l0,4c0,0,0,1.1,0.5,1.6c0.5,0.5,0.9,1,1,1.1c0.1,0,0.6,0.5,0.6,1.7" class="g3_9" />
<path d="M217.3,269.1c0.6,0,1.1,0.5,1.1,1.1c0,0.6,-0.5,1.1,-1.1,1.1c-0.6,0,-1.1,-0.5,-1.1,-1.1c0,-0.6,0.5,-1.1,1.1,-1.1Z" class="g3_9" />
<path d="M217.4,269.5l0,0.5l0.2,0.1l0.4,0l0,0.3l-0.4,0l-0.2,0.2l0,0.4l-0.2,0l0,-0.4L217,270.4l-0.4,0l0,-0.4l0.4,0l0.2,-0.1l0,-0.4l0.2,0Z" class="g3_9" />
<path d="M281.8,269.1c0.6,0,1.1,0.5,1.1,1.1c0,0.6,-0.5,1.1,-1.1,1.1c-0.6,0,-1.1,-0.5,-1.1,-1.1c0,-0.6,0.5,-1.1,1.1,-1.1Z" class="g3_9" />
<path d="M281.9,269.5l0,0.5l0.2,0.1l0.4,0l0,0.3l-0.4,0l-0.2,0.2l0,0.4l-0.2,0l0,-0.4l-0.2,-0.2l-0.4,0l0,-0.4l0.4,0l0.2,-0.1l0,-0.4l0.2,0Z" class="g3_9" />
<path d="M346.4,269.1c0.7,0,1.2,0.5,1.2,1.1c0,0.6,-0.5,1.1,-1.2,1.1c-0.6,0,-1.1,-0.5,-1.1,-1.1c0,-0.6,0.5,-1.1,1.1,-1.1Z" class="g3_9" />
<path d="M346.6,269.5l0,0.5l0.1,0.1l0.4,0l0,0.3l-0.4,0l-0.2,0.2l0,0.4l-0.2,0l0,-0.4l-0.2,-0.2l-0.4,0l0,-0.4l0.4,0l0.2,-0.1l0,-0.4l0.3,0Z" class="g3_9" />
<path d="M351.4,276.2c0.1,-0.6,0.6,-1,1.1,-1c0.6,0,1.1,0.5,1.1,1.1c0,0.6,-0.5,1.1,-1.1,1.1" class="g3_9" />
<path d="M351.8,276.2l0.4,0l0.2,-0.2l0,-0.4l0.3,0l0,0.5l0.1,0.1l0.4,0l0,0.3l-0.4,0l-0.2,0.2l0,0.4" class="g3_9" />
<path d="M262.4,306.1c0.6,0,1.1,0.5,1.1,1.1c0,0.6,-0.5,1.1,-1.1,1.1c-0.6,0,-1.1,-0.5,-1.1,-1.1c0,-0.6,0.5,-1.1,1.1,-1.1Z" class="g3_9" />
<path d="M262.5,306.5l0,0.4l0.1,0.2l0.5,0l0,0.2l-0.5,0l-0.1,0.2l0,0.4l-0.3,0l0,-0.4L262,307.3l-0.4,0l0,-0.3l0.5,0l0.1,-0.2l0,-0.3l0.3,0Z" class="g3_9" />
<path d="M281.8,320.9c0.6,0,1.1,0.5,1.1,1.1c0,0.6,-0.5,1.1,-1.1,1.1c-0.6,0,-1.1,-0.5,-1.1,-1.1c0,-0.6,0.5,-1.1,1.1,-1.1Z" class="g3_9" />
<path d="M282,321.3l0,0.4l0.1,0.2l0.4,0l0,0.2l-0.4,0l-0.2,0.2l0,0.4l-0.2,0l0,-0.4l-0.2,-0.2l-0.4,0l0,-0.3l0.4,0l0.2,-0.2l0,-0.3l0.3,0Z" class="g3_9" />
<path d="M212.2,276.2c0,0.1,0.1,0.1,0.1,0.2c0,0.2,-0.1,0.4,-0.1,0.5" class="g3_9" />
<path d="M211,277.5c-0.6,0,-1,-0.5,-1,-1.1c0,-0.6,0.5,-1.1,1.1,-1.1c0.6,0,1,0.4,1.1,0.9" class="g3_9" />
<path d="M211,276.8l-0.2,-0.2l-0.4,0l0,-0.3l0.4,0l0.2,-0.2l0,-0.4l0.3,0l0,0.5" class="g3_9" />
<path d="M414.8,314.6l4.7,0c0,0,1,-0.9,0,-2" class="g3_9" />
<path d="M419.5,312.5l-5,0" class="g3_9" />
<path d="M414.7,318.6l6.2,0c0.6,0,0.8,-0.4,0.8,-0.8c0,-0.3,-0.3,-0.7,-0.8,-0.7l-6.2,0" class="g3_9" />
<path d="M414.7,320.1l0,-8.5l-8.1,0c0,0,-0.4,0,-0.8,0.3c-0.3,0.3,-1.1,0.8,-1.8,1.1" class="g3_9" />
<path d="M414.7,320.1l-8,0c0,0,-0.4,0,-0.5,-0.4c0,-0.4,-0.4,-2.2,-0.4,-2.2c0,0,-0.1,-0.4,-0.4,-0.5c-0.4,0,-5.1,-0.6,-5.1,-0.6l0,-4l5.9,-0.7" class="g3_9" />
<path d="M400.5,312.5l-46,0" class="g3_9" />
<path d="M400.5,315.5l-46,0" class="g3_9" />
<path d="M414.7,316.8l-8.1,-0.1c0,0,-0.4,-0.1,-0.8,-0.2c-0.4,-0.2,-1.5,-0.6,-1.6,-0.7c-0.2,-0.1,-0.2,-0.2,0,-0.3c0.3,-0.2,0.5,-0.5,0.5,-1.1c0,-0.6,-0.5,-1.1,-0.7,-1.2c-0.1,-0.1,-0.2,-0.1,0,-0.2" class="g3_9" />
<path d="M414.7,312.9l-8.1,0c0,0,-1.5,0,-2.7,0.2" class="g3_9" />
<path d="M414.7,315.9l-8.1,0c0,0,-1.2,0,-2.4,-0.3" class="g3_9" />
<path d="M406.5,313.3l0,2.2" class="g3_9" />
<path d="M418.6,313.1c-0.3,0,-0.5,0.2,-0.5,0.5c0,0.3,0.2,0.5,0.5,0.5c0.2,0,0.5,-0.2,0.5,-0.5c0,-0.3,-0.3,-0.5,-0.5,-0.5Z" class="g3_9" />
<path d="M301.2,306.1c0.7,0,1.2,0.5,1.2,1.1c0,0.6,-0.5,1.1,-1.2,1.1c-0.6,0,-1.1,-0.5,-1.1,-1.1c0,-0.6,0.5,-1.1,1.1,-1.1Z" class="g3_9" />
<path d="M301.4,306.5l0,0.4l0.1,0.2l0.4,0l0,0.2l-0.4,0l-0.2,0.2l0,0.4l-0.2,0l0,-0.4l-0.2,-0.2l-0.4,0l0,-0.3l0.4,0l0.2,-0.2l0,-0.3l0.3,0Z" class="g3_9" />
<path d="M262.1,296.9l39.6,0c0.4,0,0.8,0.3,0.8,0.8l0,19c0,0.4,-0.4,0.8,-0.8,0.8l-39.6,0c-0.4,0,-0.8,-0.4,-0.8,-0.8l0,-19c0,-0.5,0.4,-0.8,0.8,-0.8Z" class="g3_9" />
<path d="M213.5,284.5l0,-12" class="g3_9" />
<path d="M213.5,320.5l0,-30" class="g3_9" />
<path d="M350.5,320.5l0,-30" class="g3_9" />
<path d="M350.5,284.5l0,-12" class="g3_9" />
<path d="M354.5,284.5l-5,0l5,0Z" class="g3_9" />
<path d="M354.1,284.5l0,5.2c0,0,-0.1,0.6,-0.5,0.6l-0.9,0" class="g3_9" />
<path d="M350,284.5l-0.1,5.2c0,0,0.1,0.6,0.5,0.6l0.9,0" class="g3_9" />
<path d="M353.5,293c0,0,0,-0.3,-0.3,-0.3l-2.5,0c0,0,-0.3,0,-0.3,0.2c0,0.2,0,0.3,0.1,0.4c0.1,0.1,0.5,0.5,1.2,0.5c0.8,0.1,1.5,-0.3,1.6,-0.4c0.2,-0.1,0.2,-0.2,0.2,-0.4Z" class="g3_9" />
<path d="M352.6,292.7l-0.1,-8.2" class="g3_9" />
<path d="M351.4,292.7l0,-8.2" class="g3_9" />
<path d="M352.6,284l-0.1,-7.8" class="g3_9" />
<path d="M351.4,284l0,-7.8l1.1,0" class="g3_9" />
<path d="M351.4,276.6l1.1,-0.3" class="g3_9" />
<path d="M351.4,277.1l1.1,-0.3" class="g3_9" />
<path d="M351.4,277.6l1.1,-0.3" class="g3_9" />
<path d="M351.4,278.1l1.1,-0.3" class="g3_9" />
<path d="M351.4,278.7l1.1,-0.4" class="g3_9" />
<path d="M351.4,279.1l1.1,-0.3" class="g3_9" />
<path d="M351.4,279.6l1.1,-0.3" class="g3_9" />
<path d="M351.4,280.1l1.1,-0.3" class="g3_9" />
<path d="M351.4,280.7l1.1,-0.4" class="g3_9" />
<path d="M351.4,281.2l1.1,-0.4" class="g3_9" />
<path d="M351.4,281.6l1.1,-0.3" class="g3_9" />
<path d="M351.4,282.2l1.1,-0.4" class="g3_9" />
<path d="M351.4,282.7l1.1,-0.3" class="g3_9" />
<path d="M351.4,283.2l1.1,-0.4" class="g3_9" />
<path d="M351.4,283.7l1.1,-0.4" class="g3_9" />
<path d="M351.7,284.1l0.8,-0.3" class="g3_9" />
<path d="M351.4,285.3l1.1,-0.4" class="g3_9" />
<path d="M351.4,285.8l1.1,-0.4" class="g3_9" />
<path d="M351.4,286.2l1.1,-0.3" class="g3_9" />
<path d="M351.4,286.8l1.1,-0.4" class="g3_9" />
<path d="M351.4,287.3l1.1,-0.3" class="g3_9" />
<path d="M351.4,287.8l1.1,-0.4" class="g3_9" />
<path d="M351.4,288.3l1.1,-0.4" class="g3_9" />
<path d="M351.4,288.8l1.1,-0.4" class="g3_9" />
<path d="M351.4,289.3l1.1,-0.3" class="g3_9" />
<path d="M351.4,289.8l1.1,-0.4" class="g3_9" />
<path d="M351.4,290.3l1.1,-0.4" class="g3_9" />
<path d="M351.4,290.8l1.1,-0.4" class="g3_9" />
<path d="M351.4,291.3l1.1,-0.3" class="g3_9" />
<path d="M351.4,291.8l1.1,-0.3" class="g3_9" />
<path d="M351.4,292.3l1.1,-0.3" class="g3_9" />
<path d="M351.7,292.7l0.8,-0.2" class="g3_9" />
<path d="M351.4,284.8l0.9,-0.3" class="g3_9" />
<path d="M352.6,286.7c0.3,-0.2,0.6,-0.5,0.6,-1c0,-0.4,-0.3,-0.8,-0.6,-0.9" class="g3_9" />
<path d="M351.4,284.9c-0.3,0.2,-0.4,0.5,-0.4,0.8c0,0.4,0.1,0.7,0.4,0.9" class="g3_9" />
<path d="M352.6,276.2c0,0.1,0.1,0.1,0.1,0.2c0,0.2,-0.1,0.4,-0.1,0.5" class="g3_9" />
<path d="M354.5,284.5l0,-12" class="g3_9" />
<path d="M354.5,320.5l0,-30" class="g3_9" />
<path d="M354.5,317.5l0,-6" class="g3_9" />
<path d="M282.1,249.9l0,-4.8c0,0,-0.1,-0.7,0.5,-0.7l68.4,0c0,0,0.7,0,0.7,0.7l0,22.6" class="g3_9" />
<path d="M282.5,267.5l0,-5" class="g3_9" />
<path d="M282.1,249.9c0,0.6,0,1,0.6,1.6c0.5,0.6,0.9,0.9,1,1c0.1,0.2,0.4,0.6,0.4,1.4l0,4c0,0,0.1,1.1,-0.5,1.6c-0.5,0.5,-0.9,1,-1,1.1c-0.1,0,-0.5,0.5,-0.5,1.7" class="g3_9" />
<path d="M121.6,267.8l-1.1,-2.7l0,-20.4c0,0,-0.1,-0.3,-0.2,-0.3l-0.4,0c0,0,-0.3,0,-0.3,0.3l0,22.6c0,0.1,0.1,0.5,0.4,0.5" class="g3_9" />
<path d="M114,268.2l0,-0.1c0,0,0.2,-0.3,0.5,-0.3l40.1,0c0,0,0.5,0,0.5,0.3" class="g3_9" />
<path d="M155.5,268.5l-42,0" class="g3_9" />
<path d="M151.5,268.5l0,4l-34,0l0,-4" class="g3_9" />
<path d="M158.2,284l0,0.4l-5.8,0c0,0,-0.4,0.1,-0.4,0.4l0,5.4l-0.4,0l0,-5.5c0,0,0.1,-0.7,0.9,-0.7c0.7,0,5.7,0,5.7,0Z" class="g3_9" />
<path d="M151.5,272.5l0,48" class="g3_9" />
<path d="M157.2,293c0,0,0,-0.3,-0.2,-0.3l-2.6,0c0,0,-0.3,0,-0.3,0.2c0,0.2,0,0.3,0.1,0.4c0.1,0.1,0.6,0.5,1.3,0.5c0.7,0.1,1.4,-0.3,1.6,-0.4c0.1,-0.1,0.1,-0.2,0.1,-0.4Z" class="g3_9" />
<path d="M155.1,292.7l0,-8.3" class="g3_9" />
<path d="M156.3,292.8l0,-8.4" class="g3_9" />
<path d="M155.1,284l0,-7.8" class="g3_9" />
<path d="M156.3,284l0,-7.8l-1.1,0" class="g3_9" />
<path d="M155.1,276.6l1.1,-0.3" class="g3_9" />
<path d="M155.1,277.1l1.1,-0.3" class="g3_9" />
<path d="M155.1,277.6l1.1,-0.3" class="g3_9" />
<path d="M155.1,278.1l1.1,-0.3" class="g3_9" />
<path d="M155.1,278.6l1.1,-0.3" class="g3_9" />
<path d="M155.1,279.1l1.1,-0.3" class="g3_9" />
<path d="M155.1,279.6l1.1,-0.3" class="g3_9" />
<path d="M155.1,280.1l1.1,-0.3" class="g3_9" />
<path d="M155.1,280.6l1.1,-0.3" class="g3_9" />
<path d="M155.1,281.1l1.1,-0.3" class="g3_9" />
<path d="M155.1,281.6l1.1,-0.3" class="g3_9" />
<path d="M155.1,282.1l1.1,-0.3" class="g3_9" />
<path d="M155.1,282.7l1.1,-0.4" class="g3_9" />
<path d="M155.1,283.2l1.1,-0.4" class="g3_9" />
<path d="M155.1,283.7l1.1,-0.4" class="g3_9" />
<path d="M155.7,284l0.5,-0.2" class="g3_9" />
<path d="M155.1,285.3l1.1,-0.4" class="g3_9" />
<path d="M155.1,285.7l1.1,-0.3" class="g3_9" />
<path d="M155.1,286.2l1.1,-0.3" class="g3_9" />
<path d="M155.1,286.7l1.1,-0.3" class="g3_9" />
<path d="M155.1,287.3l1.1,-0.4" class="g3_9" />
<path d="M155.1,287.8l1.1,-0.4" class="g3_9" />
<path d="M155.1,288.3l1.1,-0.4" class="g3_9" />
<path d="M155.1,288.8l1.1,-0.4" class="g3_9" />
<path d="M155.1,289.3l1.1,-0.4" class="g3_9" />
<path d="M155.1,289.8l1.1,-0.4" class="g3_9" />
<path d="M155.1,290.3l1.1,-0.4" class="g3_9" />
<path d="M155.1,290.8l1.1,-0.4" class="g3_9" />
<path d="M155.1,291.3l1.1,-0.3" class="g3_9" />
<path d="M155.1,291.8l1.1,-0.4" class="g3_9" />
<path d="M155.1,292.3l1.1,-0.3" class="g3_9" />
<path d="M155.4,292.7l0.8,-0.3" class="g3_9" />
<path d="M155.1,284.7l1.1,-0.3" class="g3_9" />
<path d="M152.2,284.6c0,0,-0.2,0,-0.2,0.2l0,1.9c0,0,0,0.3,0.2,0.3c0.1,0,0.2,0,0.3,-0.1c0.1,-0.1,0.3,-0.4,0.4,-1c0,-0.5,-0.3,-1.1,-0.3,-1.2c-0.1,-0.1,-0.2,-0.1,-0.4,-0.1Z" class="g3_9" />
<path d="M151.8,306.1c-0.1,0,-0.2,0,-0.2,0.1c0,0,0,2,0,2c0,0,0.1,0.1,0.2,0.1c0.1,0,0.2,0,0.2,-0.1c0.1,-0.1,0.3,-0.4,0.4,-0.9c0,-0.5,-0.3,-1,-0.3,-1.1c-0.1,-0.1,-0.2,-0.1,-0.3,-0.1Z" class="g3_9" />
<path d="M110.9,284l0,0.4l5.8,0c0,0,0.4,0.1,0.4,0.4l0,5.4l0.4,0l0,-5.5c0,0,-0.1,-0.7,-0.8,-0.7c-0.8,0,-5.8,0,-5.8,0Z" class="g3_9" />
<path d="M117.5,272.5l0,48" class="g3_9" />
<path d="M111.9,293c0,0,0.1,-0.3,0.3,-0.3l2.5,0c0,0,0.3,0,0.3,0.2c0,0.2,0,0.3,-0.1,0.4c-0.1,0.1,-0.5,0.5,-1.2,0.5c-0.7,0.1,-1.5,-0.3,-1.6,-0.4c-0.1,-0.1,-0.2,-0.2,-0.2,-0.4Z" class="g3_9" />
<path d="M112.8,292.7l0.1,-8.3" class="g3_9" />
<path d="M114,292.8l0,-8.4" class="g3_9" />
<path d="M112.9,284l0,-7.8" class="g3_9" />
<path d="M114,284l0.1,-7.8l-1.2,0" class="g3_9" />
<path d="M112.9,276.6l1.1,-0.3" class="g3_9" />
<path d="M112.9,277.1l1.1,-0.3" class="g3_9" />
<path d="M112.9,277.6l1.1,-0.3" class="g3_9" />
<path d="M112.9,278.1l1.1,-0.3" class="g3_9" />
<path d="M112.9,278.6l1.1,-0.3" class="g3_9" />
<path d="M112.9,279.1l1.1,-0.3" class="g3_9" />
<path d="M112.9,279.6l1.1,-0.3" class="g3_9" />
<path d="M112.9,280.1l1.1,-0.3" class="g3_9" />
<path d="M112.9,280.6l1.1,-0.3" class="g3_9" />
<path d="M112.9,281.1l1.1,-0.3" class="g3_9" />
<path d="M112.9,281.6l1.1,-0.3" class="g3_9" />
<path d="M112.9,282.1l1.1,-0.3" class="g3_9" />
<path d="M112.9,282.7l1.1,-0.4" class="g3_9" />
<path d="M112.9,283.2l1.1,-0.4" class="g3_9" />
<path d="M112.9,283.7l1.1,-0.4" class="g3_9" />
<path d="M113.4,284l0.6,-0.2" class="g3_9" />
<path d="M112.9,285.3l1.1,-0.4" class="g3_9" />
<path d="M112.9,285.7l1.1,-0.3" class="g3_9" />
<path d="M112.9,286.2l1.1,-0.3" class="g3_9" />
<path d="M112.9,286.7l1.1,-0.3" class="g3_9" />
<path d="M112.9,287.3l1.1,-0.4" class="g3_9" />
<path d="M112.9,287.8l1.1,-0.4" class="g3_9" />
<path d="M112.9,288.3l1.1,-0.4" class="g3_9" />
<path d="M112.9,288.8l1.1,-0.4" class="g3_9" />
<path d="M112.9,289.3l1.1,-0.4" class="g3_9" />
<path d="M112.9,289.8l1.1,-0.4" class="g3_9" />
<path d="M112.9,290.3l1.1,-0.4" class="g3_9" />
<path d="M112.9,290.8l1.1,-0.4" class="g3_9" />
<path d="M112.9,291.3L114,291" class="g3_9" />
<path d="M112.9,291.8l1.1,-0.4" class="g3_9" />
<path d="M112.9,292.3L114,292" class="g3_9" />
<path d="M113.1,292.7l0.9,-0.3" class="g3_9" />
<path d="M112.9,284.7l1.1,-0.3" class="g3_9" />
<path d="M116.9,284.6c0,0,0.2,0,0.2,0.2l0,1.9c0,0,0,0.3,-0.2,0.3c-0.1,0,-0.2,0,-0.3,-0.1c0,-0.1,-0.3,-0.4,-0.4,-1c0,-0.5,0.3,-1.1,0.4,-1.2c0.1,-0.1,0.1,-0.1,0.3,-0.1Z" class="g3_9" />
<path d="M141.5,296.5l-13,0l0,1l13,0Z" class="g3_9" />
<path d="M151.7,320.2l0,3.5c0,0,0,0.6,-0.6,0.6l-33.6,0c0,0,-0.6,-0.1,-0.6,-0.6l0,-3.5l34.8,0Z" class="g3_9" />
<path d="M128.5,297.5l13,0" class="g3_9" />
<path d="M140.5,297.5l0,-1" class="g3_9" />
<path d="M128.5,297.5l13,0" class="g3_9" />
<path d="M151.9,320.9c-0.2,0,-0.2,0,-0.2,0c0,0.1,0,2,0,2.1c0,0,0,0.1,0.1,0.1c0.1,0,0.2,0,0.3,-0.1c0.1,-0.1,0.3,-0.4,0.3,-0.9c0.1,-0.5,-0.2,-1,-0.3,-1.1c0,-0.1,-0.1,-0.1,-0.2,-0.1Z" class="g3_9" />
<path d="M151.8,275.3c-0.1,0,-0.2,0,-0.2,0c0,0.1,0,2.1,0,2.1c0,0,0.1,0.1,0.2,0.1c0.1,0,0.2,0,0.2,-0.1c0.1,-0.1,0.3,-0.4,0.4,-0.9c0,-0.5,-0.3,-1,-0.3,-1.1c-0.1,-0.1,-0.2,-0.1,-0.3,-0.1Z" class="g3_9" />
<path d="M116.9,320.2c0,-0.3,0.2,-0.6,0.6,-0.6" class="g3_9" />
<path d="M117.2,320.2c0,-0.1,0.1,-0.3,0.3,-0.3" class="g3_9" />
<path d="M117.5,320.5l0,-48" class="g3_9" />
<path fill-rule="evenodd" d="M117.3,275.3c0,0,0.2,0,0.2,0.2l0,1.8c0,0,0,0.2,-0.2,0.2c-0.1,0,-0.2,0,-0.3,0c0,-0.1,-0.3,-0.4,-0.3,-1c-0.1,-0.5,0.2,-1,0.3,-1.1c0.1,-0.1,0.1,-0.1,0.3,-0.1Z" class="g9_9" />
<path d="M117.3,275.3c0,0,0.2,0,0.2,0.2l0,1.8c0,0,0,0.2,-0.2,0.2c-0.1,0,-0.2,0,-0.3,0c0,-0.1,-0.3,-0.4,-0.3,-1c-0.1,-0.5,0.2,-1,0.3,-1.1c0.1,-0.1,0.1,-0.1,0.3,-0.1Z" class="g1_9" />
<path d="M117.3,275.3c0,0,0.2,0,0.2,0.2l0,1.8c0,0,0,0.2,-0.2,0.2c-0.1,0,-0.2,0,-0.3,0c0,-0.1,-0.3,-0.4,-0.3,-1c-0.1,-0.5,0.2,-1,0.3,-1.1c0.1,-0.1,0.1,-0.1,0.3,-0.1Z" class="g3_9" />
<path fill-rule="evenodd" d="M117.6,275.3c0,0,0.2,0,0.2,0.2l0,1.8c0,0,0,0.2,-0.2,0.2c-0.1,0,-0.2,0,-0.2,0c-0.1,-0.1,-0.4,-0.4,-0.4,-1c0,-0.5,0.2,-1,0.3,-1.1c0.1,-0.1,0.1,-0.1,0.3,-0.1Z" class="g9_9" />
<path d="M117.6,275.3c0,0,0.2,0,0.2,0.2l0,1.8c0,0,0,0.2,-0.2,0.2c-0.1,0,-0.2,0,-0.2,0c-0.1,-0.1,-0.4,-0.4,-0.4,-1c0,-0.5,0.2,-1,0.3,-1.1c0.1,-0.1,0.1,-0.1,0.3,-0.1Z" class="g1_9" />
<path d="M117.6,275.3c0,0,0.2,0,0.2,0.2l0,1.8c0,0,0,0.2,-0.2,0.2c-0.1,0,-0.2,0,-0.2,0c-0.1,-0.1,-0.4,-0.4,-0.4,-1c0,-0.5,0.2,-1,0.3,-1.1c0.1,-0.1,0.1,-0.1,0.3,-0.1Z" class="g3_9" />
<path d="M117.2,320.2l0,3.5c0,0,0.1,0.6,0.3,0.6" class="g3_9" />
<path d="M151.4,320.2l0,3.6c0,0,-0.1,0.5,-0.3,0.5" class="g3_9" />
<path d="M147.5,267.8l1.1,-2.7l0,-20.4c0,0,0.1,-0.3,0.2,-0.3l0.4,0c0,0,0.3,0,0.3,0.3l0,22.6c0,0.1,-0.1,0.5,-0.4,0.5" class="g3_9" />
<path d="M199.5,244.5l11,0" class="g6_9" />
<path d="M199.5,267.5l8,0" class="g10_9" />
<path d="M213.5,296.5l146,0" class="g6_9" />
<path d="M157.5,238.5l0,43" class="g6_9" />
<path d="M111.5,238.5l0,43" class="g6_9" />
<path d="M151.5,324.5l0,7" class="g4_9" />
<path d="M116.5,324.5l0,7" class="g4_9" />
<path d="M354.5,324.5l0,8" class="g6_9" />
<path d="M209.5,324.5l0,8" class="g6_9" />
<g clip-path="url(#c2_9)">
<path d="M212.5,222.5l139,0" class="g5_9" />
<path d="M212.5,222.5l0,1" class="g5_9" />
<path d="M351.5,222.5l0,1" class="g5_9" />
</g>
<path d="M209.5,334.5l145,0" class="g5_9" />
<path d="M209.5,333.5l0,1" class="g5_9" />
<path d="M354.5,333.5l0,1" class="g5_9" />
<path d="M198.5,244.5l0,23" class="g5_9" />
<path d="M198.5,244.5l-1,0" class="g5_9" />
<path d="M198.5,267.5l-1,0" class="g5_9" />
<path d="M361.5,272.5l0,24" class="g5_9" />
<path d="M361.5,272.5l-1,0" class="g5_9" />
<path d="M361.5,296.5l-1,0" class="g5_9" />
<path d="M355.5,272.5l68,0" class="g6_9" />
<path d="M355.5,324.5l68,0" class="g6_9" />
<path d="M424.5,272.5l0,52" class="g5_9" />
<path d="M425.5,272.5l-2,0" class="g5_9" />
<path d="M425.5,324.5l-2,0" class="g5_9" />
<path d="M157.5,237.5l-46,0" class="g5_9" />
<path d="M157.5,237.5l0,-1" class="g5_9" />
<path d="M111.5,237.5l0,-1" class="g5_9" />
<path d="M151.5,334.5l-35,0" class="g5_9" />
<path d="M151.5,334.5l0,-1" class="g5_9" />
<path d="M116.5,334.5l0,-1" class="g5_9" />
<g clip-path="url(#c2_9)">
<path d="M64,8L49,8M1295,8l15,0M64,798l-15,0m1246,0l15,0M70,3l0,-14m0,815l0,14M1289,3l0,-14m0,815l0,14" class="g7_9" />
<path d="M64.5,8.5l-15,0m1246,0l15,0m-1246,790l-15,0m1246,0l15,0M70.5,3.5l0,-14m0,815l0,14m1219,-815l0,-14m0,815l0,14" class="g8_9" />
</g>
<path d="M117.2,382.7l149.5,0c0.6,0,1.2,0.5,1.2,1.1l0,31.7c0,0.7,-0.6,1.2,-1.2,1.2l-149.5,0c-0.6,0,-1.1,-0.5,-1.1,-1.2l0,-31.7c0,-0.6,0.5,-1.1,1.1,-1.1Z" class="g3_9" />
<path d="M116.5,426.5l0,-10" class="g6_9" />
<path d="M267.5,426.5l0,-10" class="g6_9" />
<path d="M116.5,427.5l151,0" class="g5_9" />
<path d="M116.5,426.5l0,2" class="g5_9" />
<path d="M267.5,426.5l0,2" class="g5_9" />
<path d="M267.5,382.5l12,0" class="g4_9" />
<path d="M267.5,416.5l12,0" class="g4_9" />
<path d="M279.5,382.5l0,34" class="g5_9" />
<path d="M279.5,382.5l-1,0" class="g5_9" />
<path d="M279.5,416.5l-1,0" class="g5_9" />
<g clip-path="url(#c3_9)">
<path d="M-262,219l-15,0m1246,0l15,0M-262,1008l-15,0m1246,0l15,0M-256,213l0,-15m0,816l0,15M963,213l0,-15m0,816l0,15" class="g7_9" />
<path d="M-261.5,219.5l-15,0m1246,0l15,0m-1246,789l-15,0m1246,0l15,0m-1240,-795l0,-15m0,816l0,15m1219,-816l0,-15m0,816l0,15" class="g8_9" />
</g>
</svg>