<?xml version="1.0" encoding="UTF-8" standalone="no"?>
<!DOCTYPE svg PUBLIC "-//W3C//DTD SVG 1.1//EN"
"http://www.w3.org/Graphics/SVG/1.1/DTD/svg11.dtd">
<svg version="1.1" xmlns="http://www.w3.org/2000/svg" xmlns:xlink="http://www.w3.org/1999/xlink">
<defs>
<style type="text/css"><![CDATA[
.g9_1{
fill: none;
stroke: #000000;
stroke-width: 2;
stroke-linecap: round;
stroke-linejoin: round;
stroke-miterlimit: 2;
}
.g12_1{
fill: #FFFFFF;
stroke: #FFFFFF;
stroke-width: 2;
stroke-linecap: round;
stroke-linejoin: round;
stroke-miterlimit: 2;
}
.g11_1{
fill: #FFFFFF;
stroke: #000000;
stroke-width: 2;
stroke-linecap: round;
stroke-linejoin: round;
stroke-miterlimit: 2;
}
.g5_1{
fill: none;
stroke: #000000;
stroke-width: 2;
stroke-linecap: butt;
stroke-linejoin: miter;
stroke-miterlimit: 2;
}
.g10_1{
fill: #FFFFFF;
stroke: #000000;
stroke-width: 4;
stroke-linecap: round;
stroke-linejoin: round;
stroke-miterlimit: 2;
}
.g2_1{
fill: none;
stroke: #FFFFFF;
stroke-width: 3;
stroke-linecap: round;
stroke-linejoin: miter;
stroke-miterlimit: 2;
}
.g4_1{
fill: none;
stroke: #000000;
stroke-width: 1;
stroke-linecap: butt;
stroke-linejoin: miter;
stroke-miterlimit: 2;
}
.g3_1{
fill: #FFFFFF;
stroke: #000000;
stroke-width: 2;
stroke-linecap: butt;
stroke-linejoin: miter;
stroke-miterlimit: 2;
}
.g6_1{
}
.g8_1{
fill: none;
stroke: #000000;
stroke-width: 1;
stroke-linecap: round;
stroke-linejoin: round;
stroke-miterlimit: 2;
}
.g1_1{
fill: #B3B3B3;
}
.g7_1{
fill: #636363;
stroke: #000000;
stroke-width: 1;
stroke-linecap: butt;
stroke-linejoin: miter;
stroke-miterlimit: 2;
}
]]></style>
</defs>
<path fill-rule="evenodd" d="M55,54l824,0l0,1101l-824,0Z" class="g1_1" />
<path d="M55.5,256.5l27,0" class="g2_1" />
<path d="M55.5,430.5l27,0" class="g2_1" />
<path d="M55.5,605.5l27,0" class="g2_1" />
<path d="M55.5,779.5l27,0" class="g2_1" />
<path d="M55.5,953.5l27,0" class="g2_1" />
<path d="M852.5,256.5l28,0" class="g2_1" />
<path d="M852.5,605.5l28,0" class="g2_1" />
<path d="M852.5,779.5l28,0" class="g2_1" />
<path d="M852.5,953.5l28,0" class="g2_1" />
<path d="M236.5,82.5l0,-27" class="g2_1" />
<path d="M390.5,82.5l0,-27" class="g2_1" />
<path d="M544.5,82.5l0,-27" class="g2_1" />
<path d="M698.5,82.5l0,-27" class="g2_1" />
<path d="M236.5,1155.5l0,-28" class="g2_1" />
<path d="M390.5,1155.5l0,-28" class="g2_1" />
<path d="M544.5,1155.5l0,-28" class="g2_1" />
<path d="M698.5,1155.5l0,-28" class="g2_1" />
<path fill-rule="evenodd" d="M82,82l770,0l0,1045l-770,0Z" class="g3_1" />
<path d="M184.5,209.5l646,0" class="g4_1" />
<path d="M103.5,278.5l727,0" class="g4_1" />
<path d="M82,1097l770,0" class="g5_1" />
<path d="M466.5,1099.5l0,28" class="g4_1" />
<path d="M468.5,1099.5l0,28" class="g4_1" />
<path d="M272.5,1099.5l0,28" class="g4_1" />
<path d="M274.5,1099.5l0,28" class="g4_1" />
<path d="M664.5,1099.5l0,28" class="g4_1" />
<path d="M666.5,1099.5l0,28" class="g4_1" />
<path fill-rule="evenodd" d="M106,289l37,0l0,38l-37,0Z" class="g6_1" />
<path fill-rule="evenodd" d="M103.5,287.5l38,0l0,37l-38,0Z" class="g7_1" />
<path d="M103.5,673.5l727,0" class="g4_1" />
<path d="M274.5,1099.5l192,0" class="g8_1" />
<path d="M468.5,1099.5l196,0" class="g8_1" />
<path d="M666.5,1099.5l186,0" class="g8_1" />
<path d="M272.5,1099.5l-190,0" class="g8_1" />
<path d="M467.5,673.5l0,-395" class="g4_1" />
<path fill-rule="evenodd" d="M479,289l37,0l0,38l-37,0Z" class="g6_1" />
<path fill-rule="evenodd" d="M477.5,287.5l37,0l0,37l-37,0Z" class="g7_1" />
<path d="M852.5,430.5l28,0" class="g2_1" />
<path fill-rule="evenodd" d="M106,683l37,0l0,38l-37,0Z" class="g6_1" />
<path fill-rule="evenodd" d="M103.5,681.5l38,0l0,38l-38,0Z" class="g7_1" />
<path d="M495.9,748.8c27.8,11.6,26.5,13.7,84.3,31.3c57.7,17.6,174.6,34.4,203.6,34.4" class="g9_1" />
<path fill-rule="evenodd" d="M683,763.7c85.7,0,155.2,69.5,155.2,155.3c-2.5,85.7,-69.5,155.3,-155.2,155.3c-88.7,0,-155.3,-69.6,-155.3,-155.3c0,-85.8,69.5,-155.3,155.3,-155.3Z" class="g10_1" />
<path fill-rule="evenodd" d="M408,171l118,0l0,1l-118,0Z" class="g6_1" />
<path fill-rule="evenodd" d="M384.5,876.9c56.6,0,102.4,18.8,102.4,42.1c0,23.2,-45.8,42,-102.4,42C328,961,282.2,942.2,282.2,919c0,-23.3,45.8,-42.1,102.3,-42.1Zm0,8.2c50.4,0,91.3,15.2,91.3,33.9c0,18.6,-40.9,33.8,-91.3,33.8c-50.3,0,-91.2,-15.2,-91.2,-33.8c0,-18.7,40.9,-33.9,91.2,-33.9Z" class="g11_1" />
<path fill-rule="evenodd" d="M384.5,887.9c56.6,0,102.4,18.8,102.4,42c0,23.2,-45.8,42,-102.4,42c-56.5,0,-102.3,-18.8,-102.3,-42c0,-23.2,45.8,-42,102.3,-42Zm0,8.2c50.4,0,91.3,15.1,91.3,33.8c0,18.7,-40.9,33.8,-91.3,33.8c-50.3,0,-91.2,-15.1,-91.2,-33.8c0,-18.7,40.9,-33.8,91.2,-33.8Z" class="g11_1" />
<path fill-rule="evenodd" d="M384.5,899.1c56.6,0,102.4,18.8,102.4,42c0,23.2,-45.8,42,-102.4,42c-56.5,0,-102.3,-18.8,-102.3,-42c0,-23.2,45.8,-42,102.3,-42Zm0,8.2c50.4,0,91.3,15.1,91.3,33.8c0,18.7,-40.9,33.8,-91.3,33.8c-50.3,0,-91.2,-15.1,-91.2,-33.8c0,-18.7,40.9,-33.8,91.2,-33.8Z" class="g11_1" />
<path fill-rule="evenodd" d="M384.5,910.7c56.6,0,102.4,18.8,102.4,42c0,23.3,-45.8,42.1,-102.4,42.1C328,994.8,282.2,976,282.2,952.7c0,-23.2,45.8,-42,102.3,-42Zm0,8.2c50.4,0,91.3,15.2,91.3,33.8c0,18.7,-40.9,33.9,-91.3,33.9c-50.3,0,-91.2,-15.2,-91.2,-33.9c0,-18.6,40.9,-33.8,91.2,-33.8Z" class="g11_1" />
<path d="M425.5,869.6c30.1,5.5,59.5,-20.9,38.9,-52.9" class="g9_1" />
<path d="M426.1,878c37.8,8,69.2,-32.3,49.3,-62.6" class="g9_1" />
<path d="M300.5,895c13.9,-12.2,46.3,-20.7,84,-20.7c14.8,0,28.8,1.3,41.1,3.7" class="g9_1" />
<path d="M282.9,913.3c-0.4,-1.7,-0.7,-3.4,-0.7,-5.2c0,-23.2,45.8,-42,102.3,-42c15.1,0,29.3,1.3,42.2,3.7" class="g9_1" />
<path d="M358.6,1020.3c-0.7,0.2,-1.6,-0.3,-2,-1.3c-0.4,-1,-0.1,-2,0.5,-2.3" class="g9_1" />
<path d="M357.1,1016.7c0.7,-0.3,1.6,0.3,2,1.3c0.4,1,0.1,2,-0.5,2.3" class="g8_1" />
<path d="M356.5,1017.4c0.5,0.1,0.9,0.6,1.2,1.2c0.2,0.6,0.2,1.2,0,1.6" class="g8_1" />
<path d="M356,1013.7c-1.3,0.9,-1.4,1.6,-1.5,2.4c-0.2,0.9,0,3,0.6,3.7c0.6,0.6,12.2,9.4,12.2,9.4l0.9,-6.4" class="g8_1" />
<path d="M365.7,1029.9l-12.1,-9.3c0,0,-1,-1.8,-0.7,-4.1c0.3,-2.2,1.6,-2.7,2.3,-2.8c0.7,-0.2,0.8,-0.2,0.8,-0.2l12.2,9.3" class="g9_1" />
<path d="M367.3,1029.2l-1.6,0.7" class="g8_1" />
<path d="M355.1,1019.9l-1.6,0.6" class="g8_1" />
<path d="M346.4,1025.5c-0.6,0.3,-1.5,-0.3,-1.9,-1.3c-0.4,-1,-0.1,-2,0.5,-2.3" class="g9_1" />
<path d="M345,1021.9c0.7,-0.2,1.6,0.3,2,1.3c0.3,1,0.1,2,-0.6,2.3" class="g8_1" />
<path d="M344.4,1022.6c0.5,0.2,0.9,0.6,1.2,1.2c0.2,0.6,0.2,1.2,0,1.7" class="g8_1" />
<path d="M343.9,1018.9c-1.3,0.9,-1.4,1.6,-1.6,2.4c-0.1,0.9,0.1,3,0.7,3.7c0.6,0.7,12.2,9.4,12.2,9.4l0.9,-6.4" class="g8_1" />
<path d="M341.8,1026l-0.3,-0.2c0,0,-1,-1.8,-0.7,-4c0.3,-2.3,1.6,-2.8,2.3,-2.9c0.6,-0.1,0.8,-0.1,0.8,-0.1l12.2,9.2" class="g9_1" />
<path d="M343,1025.1l-1.6,0.6" class="g8_1" />
<path d="M348.6,1036.6l-0.6,5l5.3,4.3" class="g9_1" />
<path d="M353.2,1041.5l0.2,9.7l17.8,13.8c0,0,1.5,1.4,4.1,1.5c2.5,0.1,4,0.1,5.5,-1.2c1.5,-1.3,11.3,-10.1,11.3,-10.1" class="g9_1" />
<path d="M353.4,1051.2l9.4,-4l3.1,-11.4l6,-4.6l1.4,-10l-1.4,10l17.4,13.4c0,0,4.6,3.4,4.2,6.5" class="g8_1" />
<path d="M365.9,1035.8l18.2,14.1c0,0,3.6,2.6,8.8,3.8" class="g8_1" />
<path d="M365.7,1020.9l0.9,-0.3l6.7,0.6l18,13.9c0,0,4.2,3.3,3.7,6.9c-0.5,3.6,-1.4,10.3,-1.4,10.3c0,0,-0.3,1.6,-1.5,2.9" class="g9_1" />
<path d="M354.7,1026.9l2.5,-2.2l1.1,-0.6" class="g9_1" />
<path d="M348,1041.6l5.2,-0.1" class="g8_1" />
<path d="M362.8,1047.2l17.1,13.2c0,0,3.2,2.6,1.4,4.5" class="g8_1" />
<path d="M381.2,1061.2c0.8,0,2.1,-0.5,3.2,-1.1c1,-0.5,8,-5,8.5,-6" class="g8_1" />
<path d="M385.6,1061.4l7.5,4.2c0,0,1.5,0.7,2.8,0.3c1.4,-0.4,3.5,-1.1,5.5,-3.9c2,-2.7,2.5,-5.7,2.4,-6.5c-0.1,-0.8,-0.4,-1.6,-1.1,-2.3c-0.7,-0.7,-8.1,-8.4,-8.1,-8.4" class="g9_1" />
<path d="M357.5,1043.5c0.9,0.6,2.2,-0.2,3.1,-1.4c1,-1.2,1.2,-2.8,0.4,-3.5" class="g8_1" />
<path d="M357.5,1043.5L341.4,1031c0,0,-2,-1.9,-0.5,-4.1c1.5,-2.1,3.8,-0.9,4.8,-0.2c0.9,0.7,15.3,11.9,15.3,11.9" class="g9_1" />
<path fill-rule="evenodd" d="M467.5,974l13.8,-11l-1.5,9.2l-16.9,8.4Z" class="g12_1" />
<path d="M398.1,1065.5c23,16.9,59.5,34,74.6,19.8c15.1,-14.1,21.5,-34.4,10.5,-57.4c-11,-23,-16.8,-27.5,0.9,-65.3" class="g9_1" />
<path d="M403.6,1057.6c23,17,53.8,31.6,66,16.5c12.1,-15.1,11.1,-28.9,-1.2,-51.6c-11.3,-21.1,-5,-42.2,6.1,-64" class="g9_1" />
<path d="M556.9,534.7l8.5,-1.1l2.4,-11.5" class="g9_1" />
<path d="M554.2,495.1l-13.1,-6.2l2.2,-11.5l45.2,4.4l-2.2,11.3l-9.8,12.7l-13,-6.3" class="g9_1" />
<path d="M541.1,488.9l45.2,4.2" class="g8_1" />
<path d="M529.8,508.7c0.7,-4.3,4.7,-10.4,24.4,-13.6" class="g8_1" />
<path d="M541.3,487.9c-6.9,3.1,-8.8,6.7,-9.3,9.5c-0.7,4.3,-2.2,11.3,-2.2,11.3c0,0,-2.2,5.4,7.3,13.9c3.5,3.1,7.1,5.2,10.3,7.1c5.4,3.2,9.5,5,9.5,5" class="g9_1" />
<path d="M546.1,505.7c4.2,7.1,14.1,12.8,21.7,16.4" class="g9_1" />
<path d="M565.4,533.5c-7.6,-3.6,-18.3,-9.9,-21.7,-16.5" class="g8_1" />
<path d="M543.7,517c-1.3,-2.7,-1.4,-3.8,-1.4,-4.5" class="g8_1" />
<path d="M542.3,512.5c0,-5.8,5.5,-10.4,21.2,-13" class="g9_1" />
<path d="M739.1,548.4l-13,-6.2l-10,12.2l-2.3,11.5l45,4.4l2.1,-9.9" class="g9_1" />
<path d="M739.1,548.4c7.1,-0.9,13.8,-3.1,17.9,-6.4" class="g9_1" />
<path d="M754.9,553.4c-4.2,3.3,-10.9,5.5,-17.9,6.3" class="g8_1" />
<path d="M713.8,565.9l10.1,-12.3l2.2,-11.4l-2.2,11.4l13.1,6.1l2.1,-11.3" class="g8_1" />
<path d="M758.8,570.3l-12.7,-6.2" class="g8_1" />
<path d="M735.4,526l9.2,-1.3" class="g8_1" />
<path d="M744.6,524.7c9.6,4.2,27.3,14.8,26.7,24.9" class="g8_1" />
<path d="M746.8,513.4c9.6,4.2,27.3,14.8,26.7,24.9" class="g9_1" />
<path d="M744.6,524.7l2.2,-11.3" class="g8_1" />
<path d="M746.9,513.5l-9.2,1.2L735.4,526" class="g9_1" />
<path d="M746.1,564.1c9.9,-1.5,23.3,-4.5,25.2,-14.5c1.9,-10,2.2,-11.3,2.2,-11.3" class="g9_1" />
<path d="M735.4,526c13.9,6.5,25.3,15.3,22.7,23.4" class="g9_1" />
<path d="M754.9,553.4c1.4,-1.1,2.7,-2.9,3.2,-4" class="g8_1" />
<path d="M595.1,446c0,0,-1.7,105.5,3.8,176.8" class="g9_1" />
<path d="M622.2,484.4c0,6.3,0,13,0.1,20.2m0.4,33.1c0.5,28.5,1.5,59.1,3.5,85" class="g9_1" />
<path d="M485.8,380.7C550.7,427.6,628,461.9,628,461.9" class="g9_1" />
<path d="M676.8,484c46.5,19.4,110.8,43.8,140.8,52.4" class="g9_1" />
<path d="M601.8,449.4l0.1,18.9c0,0,-0.5,6.2,4.5,8.5c5,2.3,35.4,16.8,35.4,16.8c0,0,2.3,0.9,4.6,0.3" class="g9_1" />
<path d="M669.5,484.6l16,-2.3c0,0,2,-0.2,2.2,-1.2c0.3,-0.9,1.3,-6.8,1.3,-6.8c0,0,0.5,-1.3,-1.7,-2.4c-2.2,-1.1,-25.8,-12.3,-25.8,-12.3c0,0,-5.5,-2.3,-10.9,-1.5c-5.4,0.7,-19.3,2.9,-19.3,2.9c0,0,-1.8,0.1,-3.3,0.9c-1.5,0.8,-15.4,7.5,-15.4,7.5c0,0,-2,1.2,-4.2,-0.5" class="g9_1" />
<path d="M608.4,468.9c-0.8,-0.7,-1.1,-1.5,-1.1,-3.6c0,-2,-0.1,-13.2,-0.1,-13.2" class="g8_1" />
<path d="M606.4,476.8c2.1,0.9,5,0,6.3,-0.6c1.3,-0.6,15.2,-7.4,15.2,-7.4c0,0,1.7,-0.7,3.6,-1c1.8,-0.3,17.9,-2.6,17.9,-2.6c0,0,5.6,-0.8,10.8,1.7c5.3,2.4,25.1,12,25.1,12c0,0,3.3,1.5,2.2,2.7" class="g8_1" />
<path d="M615,524.1c5,-4.5,19.8,-5.7,36.5,-2.6c5.7,1.1,28.3,7,33,15.1" class="g8_1" />
<path d="M685.3,540.3c-1.2,6.6,-18.3,9,-38.2,5.3c-9.7,-1.7,-18.2,-4.6,-24.3,-7.9c-6.5,-3.5,-10.2,-7.3,-9.5,-10.8" class="g9_1" />
<path d="M651,524.4c18.3,3.3,32.2,10.9,31.1,16.7c-1.1,5.9,-16.8,7.9,-35,4.5C628.8,542.3,614.9,534.8,616,528.9c1,-5.9,16.7,-7.9,35,-4.5Z" class="g8_1" />
<path d="M613.3,526.9c0,0,1.9,-10.4,3.1,-17.1c1.3,-6.7,18.4,-9.1,38.3,-5.4c19.9,3.7,35,12.1,33.8,18.7c-1.3,6.7,-3.2,17.2,-3.2,17.2" class="g9_1" />
<path d="M644.9,503.1L650.2,474" class="g9_1" />
<path d="M665,506.8l5.4,-29.1" class="g9_1" />
<path d="M646.3,503.2c1.9,-0.7,5.3,-0.8,9,-0.1c3.7,0.7,6.8,2,8.3,3.3" class="g8_1" />
<path d="M645.3,501.9c0.3,-1.9,5,-2.6,10.5,-1.5c5.5,1,9.6,3.3,9.3,5.2" class="g8_1" />
<path d="M645.8,499.1c0.3,-1.9,5,-2.6,10.5,-1.6c5.5,1,9.6,3.4,9.3,5.3" class="g8_1" />
<path d="M646.3,496.3c0.3,-1.9,5.1,-2.6,10.5,-1.5c5.5,1,9.7,3.3,9.3,5.2" class="g8_1" />
<path d="M646.8,493.5c0.4,-1.9,5.1,-2.6,10.6,-1.6c5.4,1,9.6,3.4,9.2,5.2" class="g8_1" />
<path d="M647.3,490.6c0.4,-1.8,5.1,-2.5,10.6,-1.5c5.4,1,9.6,3.3,9.3,5.2" class="g8_1" />
<path d="M647.9,487.9c0.3,-1.9,5,-2.6,10.5,-1.6c5.5,1,9.6,3.4,9.3,5.2" class="g8_1" />
<path d="M648.3,485.2c0.4,-1.9,5.1,-2.6,10.6,-1.6c5.5,1,9.6,3.4,9.3,5.2" class="g8_1" />
<path d="M648.9,482.2c0.3,-1.8,5.1,-2.5,10.5,-1.5c5.5,1,9.7,3.3,9.3,5.2" class="g8_1" />
<path d="M649.4,479.4c0.4,-1.8,5.1,-2.5,10.6,-1.5c5.4,1,9.6,3.3,9.2,5.2" class="g8_1" />
<path d="M649.9,476.6c0.4,-1.9,5.1,-2.6,10.6,-1.6c5.4,1.1,9.6,3.4,9.3,5.3" class="g8_1" />
<path d="M650.4,473.8c0.4,-1.8,5.1,-2.5,10.6,-1.5c5.5,1,9.6,3.3,9.3,5.2" class="g8_1" />
<path d="M653.2,457.9l2.4,-13.1" class="g9_1" />
<path d="M672.8,464.9l3,-16.4" class="g9_1" />
<path d="M661.6,459.6c0.5,0,1.1,0.1,1.7,0.2c5.5,1,9.6,3.4,9.3,5.3" class="g8_1" />
<path d="M653.6,457.9c1.3,-1.3,5.5,-1.7,10.2,-0.8c5.5,1,9.6,3.3,9.3,5.2" class="g8_1" />
<path d="M653.8,455.9c0.3,-1.8,5,-2.5,10.5,-1.5c5.5,1,9.6,3.3,9.3,5.2" class="g8_1" />
<path d="M654.3,453c0.4,-1.9,5.1,-2.6,10.5,-1.6c5.5,1,9.7,3.4,9.3,5.2" class="g8_1" />
<path d="M654.8,450.2c0.4,-1.9,5.1,-2.6,10.6,-1.6c5.4,1,9.6,3.4,9.3,5.2" class="g8_1" />
<path d="M655.4,447.3c0.3,-1.8,5,-2.5,10.5,-1.5c5.5,1,9.6,3.3,9.3,5.2" class="g8_1" />
<path d="M655.9,444.6c0.3,-1.9,5,-2.6,10.5,-1.6c5.5,1,9.6,3.4,9.3,5.2" class="g8_1" />
<path d="M654.8,464.4L656,459" class="g8_1" />
<path d="M626.2,622.7c0.6,7.8,-13.3,7.5,-13.7,0.2c-0.3,-7.3,-14.3,-9,-13.6,-0.1c0.6,8.8,13.4,8.6,13.6,0.1" class="g9_1" />
<path d="M178.7,498.6l0.5,-0.2l1.3,0.6L307.3,444.5l0.1,-9.6c0,0,-7.5,-29.5,-9.7,-38.3c-2.3,-8.7,-8.7,-16.3,-15,-19.1c-6.4,-2.8,-21.3,-4.9,-34.5,-3.4" class="g9_1" />
<path d="M280.4,374.2c3.3,1.1,5.8,2.3,7.3,3.3c5.4,3.5,10.1,11.3,12,19.1c1.8,7.9,9.4,37.6,9.4,37.6l0,8.5" class="g8_1" />
<path d="M308,442.3l1.4,0.7c0,0,0.8,0.3,1.4,0c0.6,-0.3,1.2,-0.5,1.2,-0.5c0,0,1,-0.3,1,-2c0,-1.7,0,-7.9,0,-7.9L303,393.5c0,0,-4.5,-18.1,-19.2,-23.7c-5.8,-2.2,-10.5,-2.9,-14.5,-3.4c-6.3,-0.9,-10.7,-0.8,-14.4,-0.8c-3.8,0,-54.7,2.3,-54.7,2.3c0,0,-14.9,0.2,-30.8,7.1c-11.4,4.9,-20.8,8.7,-31.7,17.1c-2.8,2.1,-6.2,4.6,-9.2,7.4c-9.6,9,-10.9,14.1,-12.2,18.1c-1.5,4.7,-2.2,13.3,-2.2,19.5c0,6.2,0,22.5,0,22.5c0,0,-0.6,8.3,9.7,14.5c10.4,6.3,25.1,14.9,25.1,14.9c0,0,1.7,1.5,7.5,3.8c5.7,2.3,18.5,7.9,18.5,7.9c0,0,0.8,0.1,1.3,-0.1c0.8,-0.2,2.4,-0.8,2.4,-2.9c0,-2.1,0,-7.7,0,-7.7L168.3,449.7c0,0,-1.4,-8.1,-0.4,-14.9c1,-6.8,5.2,-14.9,10.1,-21.1c4.9,-6.1,18.2,-20.5,26.3,-25.1c8,-4.5,19.9,-13.2,42.4,-17c13.7,-2.2,25.8,-0.1,33.7,2.6" class="g9_1" />
<path d="M174.8,499.9c0,-3.3,0.1,-8.2,0.1,-8.2l-10.4,-41c0,0,-0.7,-2.6,-1,-6.1c-0.2,-4.1,0.5,-9.4,1,-13.1c1,-6.8,5.5,-14.8,10.4,-21c4.9,-6.1,17.7,-19.9,25.6,-25.2c4.4,-2.9,10.3,-6.7,18.4,-10.5c6.5,-3,14.4,-6.2,24.4,-7.9c2.9,-0.5,8.8,-1.2,11.6,-1.3" class="g8_1" />
<path d="M180.4,498.8c0,-3.1,0.1,-9.6,0.1,-9.6L170.6,450c0,0,-1.4,-7.8,-0.4,-14.3c1,-6.5,5,-14.3,9.7,-20.2c4.6,-5.8,15.9,-17.6,23.1,-22.7c3.1,-2.3,9.2,-6,14.5,-8.7c7.8,-3.9,16.7,-8.1,30.7,-10" class="g8_1" />
<path d="M178.5,497.8c0,-3.1,0.1,-8.8,0.1,-8.8L168.1,448.1c0,0,-0.9,-6.9,0.1,-13.4c0.4,-2.9,1.4,-6,2.8,-9.1c1.8,-3.5,4.2,-7,6.7,-10.2c1.9,-2.4,4.8,-6.1,8.1,-9.5c4.5,-4.7,9.8,-9.4,14,-12.6c0.4,-0.3,4.1,-2.8,4.6,-3.1c3.1,-2.3,6.4,-4,11.7,-6.7c7.8,-3.9,16.2,-7.7,30.2,-9.6" class="g8_1" />
<path d="M279.1,373.9c3.3,1.1,5.4,2.4,7,3.4c5.3,3.5,10.1,10.2,11.9,18c1.8,7.9,10,38.7,10,38.7l0,8" class="g8_1" />
<path d="M205.1,446.9l1.9,7.3" class="g9_1" />
<path d="M205.1,446.9l12.4,-5.3l2,7.3L207,454.2l12.5,-5.3l-2.6,-1.1l-10.4,4.5l10.4,-4.5l-1.1,-4.2l1.7,-2l-1.7,2L205.4,448l10.4,-4.4l1.1,4.2l-2.5,0" class="g8_1" />
<path d="M206.3,451.4l8.1,-3.6l-1,-3.2" class="g9_1" />
<path d="M205.4,448l10.4,-4.4" class="g9_1" />
<path d="M262.3,422.3l1.8,7.3" class="g9_1" />
<path d="M262.3,422.3L274.7,417l1.9,7.3l-12.5,5.3l12.5,-5.3l-2.6,-1l-10.3,4.5L274,423.3l-1,-4.2l1.7,-2.1l-1.7,2.1l-10.4,4.4L273,419.1l1,4.2l-2.5,0" class="g8_1" />
<path d="M263.4,426.8l8.1,-3.5l-0.9,-3.2" class="g9_1" />
<path d="M262.6,423.5L273,419.1" class="g9_1" />
<path d="M254.6,397.8l1.9,7.3" class="g9_1" />
<path d="M254.6,397.8l14.9,-6.4l2,7.3l-15,6.4l15,-6.4l-2.6,-1.1L256,403.2l12.9,-5.6l-1.1,-4.2l1.7,-2l-1.7,2l-12.9,5.5l12.9,-5.5l1.1,4.2l-2.5,0" class="g8_1" />
<path d="M255.8,402.3l10.6,-4.7l-1,-3.2" class="g9_1" />
<path d="M254.9,398.9l12.9,-5.5" class="g9_1" />
<path d="M197.4,422.1l1.9,7.3" class="g9_1" />
<path d="M197.4,422.1l14.9,-6.4l2,7.3l-15,6.4l15,-6.4l-2.6,-1.1l-12.9,5.6l12.9,-5.6l-1.1,-4.2l1.7,-2l-1.7,2l-12.9,5.5l12.9,-5.5l1.1,4.2l-2.5,0" class="g8_1" />
<path d="M198.6,426.6l10.6,-4.7l-1,-3.2" class="g9_1" />
<path d="M197.7,423.2l12.9,-5.5" class="g9_1" />
<path d="M245.6,427.1l5.4,-2.3c0,0,3.9,-2.3,3.1,-7.9c-0.8,-5.6,-5,-6.2,-6.7,-5.6c-1.7,0.6,-5.4,2.3,-5.4,2.3" class="g8_1" />
<path d="M245.6,427.1L242,413.6" class="g9_1" />
<path d="M242.3,414.7l4.2,-1.8c0,0,0.6,-0.3,1.5,-0.3" class="g9_1" />
<path d="M244.8,424.2l1.7,-0.5c0,0,3.1,-1.2,2.9,-5.7c-0.2,-4.4,-3.3,-4.9,-3.3,-4.9" class="g9_1" />
<path d="M245.1,425.2l3.8,-1.5c0,0,3.2,-0.6,2.9,-5.7c-0.2,-5,-3.8,-5.4,-3.8,-5.4" class="g8_1" />
<path d="M188.5,451.6l5.4,-2.3c0,0,3.9,-2.4,3.1,-8c-0.8,-5.6,-5,-6.2,-6.7,-5.6c-1.7,0.6,-5.4,2.4,-5.4,2.4" class="g8_1" />
<path d="M188.5,451.6l-3.6,-13.5" class="g9_1" />
<path d="M185.2,439.1l4.2,-1.8c0,0,0.6,-0.2,1.4,-0.2" class="g9_1" />
<path d="M187.7,448.7l1.7,-0.6c0,0,3.1,-1.2,2.9,-5.6c-0.2,-4.5,-3.3,-5,-3.3,-5" class="g9_1" />
<path d="M188,449.6l3.8,-1.5c0,0,3.2,-0.6,2.9,-5.6c-0.2,-5.1,-3.9,-5.4,-3.9,-5.4" class="g8_1" />
<path d="M236.4,537l0,-9.5l8.3,-3.6l-19.5,-8.5l0,-9.4l34.5,-14.9l31.6,13.5L310,496.4l4.7,33.3l0,9.4Z" class="g9_1" />
<path d="M244.7,523.9l11,-4.7" class="g9_1" />
<path d="M225.2,506l30.5,13.2" class="g8_1" />
<path d="M236.4,527.5l78.3,2.2" class="g8_1" />
<path d="M190.6,640.6c98.2,-91.6,275.3,-146,275.3,-146" class="g9_1" />
<path d="M140.6,484.1l0,19.9c0,0,0.3,10.1,8.2,13.6c8,3.5,10.2,4.3,10.2,4.3l15.2,11.5c0,0,3.9,3.5,9.5,1.1c5.7,-2.5,16.5,-7.1,16.5,-7.1c0,0,1.5,-0.5,2.1,-2.7c0.7,-2.3,1,-3.8,1,-3.8c0,0,0,-1.1,-1.3,-2.2c-1.4,-1.1,-8.3,-6.6,-8.3,-6.6" class="g9_1" />
<path d="M172.1,499.5c0.6,0.8,1.4,1.5,2.4,1.9c1,0.4,8.1,3.6,8.1,3.6" class="g9_1" />
<path d="M144.5,486.4l0,18.6c0,0,0,5.6,4.3,7.5c4.4,1.8,10.8,4.5,10.8,4.5c0,0,1,0.5,2.3,1.5c1.3,0.9,14,10.8,14,10.8c0,0,4.1,3,7.8,1.3c3.8,-1.7,17.6,-7.6,17.6,-7.6c0,0,1.7,-0.6,2,-2.1" class="g8_1" />
<path d="M147.1,509l23.1,-8.4" class="g8_1" />
<path d="M135.9,481.4l0,59.3c0,0,-0.2,54.9,8.1,99.9" class="g9_1" />
<path d="M155.6,520.9l0,18.6m0.8,31.1c0.9,19.7,2.9,46.2,7.3,70" class="g9_1" />
<path d="M180.4,507.3c0.5,-2.2,3.8,-3.3,7.4,-2.5c3.7,0.8,6.2,3.3,5.7,5.4" class="g9_1" />
<path d="M193.5,510.2c-0.5,2.2,-3.8,3.3,-7.4,2.5c-3.7,-0.8,-6.2,-3.2,-5.7,-5.4" class="g8_1" />
<path d="M187.8,504.8c2.7,0.6,4.6,2.4,4.2,4c-0.3,1.6,-2.8,2.4,-5.5,1.8c-2.6,-0.6,-4.5,-2.4,-4.2,-4c0.4,-1.6,2.9,-2.4,5.5,-1.8Z" class="g8_1" />
<path d="M171.1,548.2l3.3,-14.6m3.3,-14.7l2.7,-11.6" class="g9_1" />
<path d="M184.3,551.1l4.2,-18.7M191,521.5l2.5,-11.4" class="g9_1" />
<path d="M184.3,551.1c-0.5,2.2,-3.9,3.3,-7.5,2.5c-3.7,-0.8,-6.2,-3.2,-5.7,-5.4" class="g8_1" />
<path d="M151.7,545.8c1.6,-7,10.9,-11.1,22.1,-10.4m13.5,3.1c10.2,4.2,16.7,11.8,15.1,18.7" class="g9_1" />
<path d="M202.4,557.2c-1.9,8.4,-14.8,12.6,-28.8,9.5c-14,-3.2,-23.8,-12.5,-21.9,-20.9" class="g8_1" />
<path d="M187.6,538.5c9.2,4,15,11,13.6,17.3c-1.8,7.9,-13.8,11.8,-26.9,8.9C161.2,561.7,152,553,153.7,545.2c1.5,-6.5,10,-10.3,20.3,-9.8" class="g8_1" />
<path d="M151.7,545.8c0,0,-0.6,1.8,-2.5,10.2c-1.9,8.4,7.9,17.7,21.9,20.9c14,3.1,26.9,-1.1,28.8,-9.5c1.9,-8.4,2.5,-10.2,2.5,-10.2" class="g9_1" />
<path d="M190.9,521.5c-0.5,2.2,-3.8,3.3,-7.4,2.5c-3.7,-0.8,-6.2,-3.2,-5.7,-5.4" class="g8_1" />
<path d="M191.2,520c-0.5,2.1,-3.9,3.2,-7.5,2.4c-3.6,-0.8,-6.2,-3.2,-5.7,-5.4" class="g8_1" />
<path d="M191.6,518.3c-0.4,2.2,-3.8,3.3,-7.4,2.5c-3.7,-0.9,-6.2,-3.3,-5.7,-5.5" class="g8_1" />
<path d="M192,516.6c-0.4,2.2,-3.8,3.3,-7.4,2.5c-3.7,-0.8,-6.2,-3.3,-5.7,-5.4" class="g8_1" />
<path d="M192.4,514.9c-0.5,2.2,-3.8,3.3,-7.5,2.5c-3.6,-0.8,-6.1,-3.2,-5.7,-5.4" class="g8_1" />
<path d="M192.9,513.2c-0.5,2.2,-3.9,3.3,-7.5,2.5c-3.6,-0.8,-6.2,-3.3,-5.7,-5.4" class="g8_1" />
<path d="M193.2,511.6c-0.5,2.2,-3.9,3.3,-7.5,2.5c-3.6,-0.9,-6.2,-3.3,-5.7,-5.5" class="g8_1" />
<path d="M187.3,538c-0.5,2.1,-3.9,3.2,-7.5,2.4c-3.7,-0.8,-6.2,-3.2,-5.7,-5.4" class="g8_1" />
<path d="M184.5,549.6c-0.5,2.2,-3.8,3.3,-7.4,2.5c-3.7,-0.8,-6.2,-3.3,-5.7,-5.5" class="g8_1" />
<path d="M184.8,548c-0.5,2.2,-3.9,3.3,-7.5,2.5c-3.6,-0.8,-6.2,-3.2,-5.7,-5.4" class="g8_1" />
<path d="M185.2,546.4c-0.4,2.1,-3.8,3.2,-7.4,2.4c-3.7,-0.8,-6.2,-3.2,-5.7,-5.4" class="g8_1" />
<path d="M185.6,544.7c-0.4,2.2,-3.8,3.3,-7.4,2.5c-3.7,-0.9,-6.2,-3.3,-5.7,-5.5" class="g8_1" />
<path d="M186,543c-0.5,2.2,-3.8,3.3,-7.5,2.5c-3.6,-0.8,-6.1,-3.3,-5.7,-5.4" class="g8_1" />
<path d="M186.5,541.3c-0.5,2.2,-3.9,3.3,-7.5,2.5c-3.6,-0.9,-6.2,-3.3,-5.7,-5.5" class="g8_1" />
<path d="M186.8,539.7c-0.5,2.1,-3.8,3.2,-7.5,2.4c-3.6,-0.8,-6.2,-3.2,-5.7,-5.4" class="g8_1" />
<path d="M187.7,536.3c-0.5,2.2,-3.9,3.3,-7.5,2.5c-3.7,-0.8,-6.2,-3.2,-5.7,-5.4" class="g8_1" />
<path d="M188.1,534.6c-0.5,2.2,-3.8,3.3,-7.5,2.5c-2,-0.5,-3.7,-1.5,-4.7,-2.6" class="g8_1" />
<path d="M188.4,533c-0.5,2.2,-3.8,3.3,-7.4,2.5" class="g8_1" />
<path d="M181.1,488.9L306.5,435.2" class="g8_1" />
<path d="M309.4,434l2.8,-1.2" class="g8_1" />
<path d="M175.2,491.4l2.5,-1" class="g8_1" />
<path d="M144,640.6c1.1,6.9,10.6,5.5,9.9,-0.2c-0.8,-5.8,8.6,-7.5,9.8,0.2c0.8,5,-3.4,5,-6.6,3.4c-1.7,-0.8,-3.2,-2.1,-3.2,-3.3" class="g9_1" />
<path d="M381.7,687c38.8,28,85,48.5,85,48.5" class="g9_1" />
<path d="M451.1,728.1l0,11.3c0,0,-0.3,3.7,2.7,5c3,1.4,21.2,10.1,21.2,10.1c0,0,1.4,0.6,2.7,0.2" class="g9_1" />
<path d="M491.5,749.1l9.6,-1.4c0,0,1.2,-0.1,1.4,-0.6c0.1,-0.6,0.7,-4.2,0.7,-4.2c0,0,0.3,-0.7,-1,-1.4c-1.3,-0.6,-15.4,-7.3,-15.4,-7.3c0,0,-3.3,-1.4,-6.5,-1c-3.2,0.5,-11.6,1.8,-11.6,1.8c0,0,-1,0.1,-2,0.5c-0.9,0.5,-9.2,4.5,-9.2,4.5c0,0,-1.1,0.7,-2.5,-0.3" class="g9_1" />
<path d="M455,739.7c-0.5,-0.4,-0.7,-0.9,-0.7,-2.1c0,-1.2,0,-7.9,0,-7.9" class="g8_1" />
<path d="M453.8,744.4c1.3,0.6,3,0.1,3.8,-0.3c0.7,-0.3,9.1,-4.4,9.1,-4.4c0,0,1,-0.4,2.1,-0.6c1.1,-0.2,10.8,-1.6,10.8,-1.6c0,0,3.3,-0.4,6.4,1c3.2,1.5,15,7.2,15,7.2c0,0,2,0.9,1.3,1.6" class="g8_1" />
<path d="M459,772.7c3,-2.6,11.8,-3.4,21.8,-1.5c3.4,0.6,16.9,4.2,19.7,9" class="g8_1" />
<path d="M501,782.4c-0.7,4,-11,5.4,-22.9,3.2c-5.7,-1,-10.8,-2.8,-14.5,-4.7c-3.8,-2.1,-6,-4.4,-5.7,-6.5" class="g9_1" />
<path d="M480.5,772.9c10.9,2,19.2,6.5,18.6,10c-0.7,3.5,-10,4.7,-21,2.7c-10.9,-2,-19.2,-6.5,-18.6,-10c0.7,-3.5,10.1,-4.7,21,-2.7Z" class="g8_1" />
<path d="M457.9,774.4c0,0,1.2,-6.2,1.9,-10.2c0.8,-4,11,-5.4,22.9,-3.2c11.9,2.2,20.9,7.2,20.2,11.2c-0.7,4,-1.9,10.2,-1.9,10.2" class="g9_1" />
<path d="M476.8,760.2L480,742.8" class="g9_1" />
<path d="M488.9,762.4L492.1,745" class="g9_1" />
<path d="M477.7,760.2c1.1,-0.4,3.2,-0.4,5.4,0c2.2,0.4,4,1.2,4.9,2" class="g8_1" />
<path d="M477.1,759.5c0.2,-1.1,3,-1.6,6.3,-1c3.2,0.7,5.7,2,5.5,3.2" class="g8_1" />
<path d="M477.4,757.8c0.2,-1.1,3,-1.6,6.3,-0.9c3.2,0.6,5.7,2,5.5,3.1" class="g8_1" />
<path d="M477.7,756.1c0.2,-1.1,3,-1.5,6.3,-0.9c3.3,0.6,5.7,2,5.5,3.1" class="g8_1" />
<path d="M478,754.4c0.2,-1.1,3,-1.5,6.3,-0.9c3.3,0.6,5.8,2,5.5,3.1" class="g8_1" />
<path d="M478.3,752.7c0.2,-1.1,3,-1.5,6.3,-0.9c3.3,0.6,5.8,2,5.6,3.1" class="g8_1" />
<path d="M478.6,751.1c0.2,-1.1,3,-1.6,6.3,-0.9c3.3,0.6,5.8,2,5.6,3.1" class="g8_1" />
<path d="M478.9,749.5c0.2,-1.2,3,-1.6,6.3,-1c3.3,0.6,5.8,2,5.6,3.2" class="g8_1" />
<path d="M479.2,747.7c0.2,-1.1,3.1,-1.5,6.3,-0.9c3.3,0.6,5.8,2,5.6,3.1" class="g8_1" />
<path d="M479.5,746c0.3,-1.1,3.1,-1.5,6.4,-0.9c3.2,0.6,5.7,2,5.5,3.1" class="g8_1" />
<path d="M479.9,744.3c0.2,-1.1,3,-1.5,6.3,-0.9c3.2,0.6,5.7,2,5.5,3.1" class="g8_1" />
<path d="M480.2,742.7c0.2,-1.1,3,-1.5,6.3,-0.9c3.2,0.6,5.7,2,5.5,3.1" class="g8_1" />
<path d="M481.8,733.2l1.5,-7.9" class="g9_1" />
<path d="M493.5,737.3l1.8,-9.8" class="g9_1" />
<path d="M486.8,734.2c0.4,0,0.7,0,1,0.1c3.3,0.6,5.8,2,5.6,3.1" class="g8_1" />
<path d="M482.1,733.2c0.7,-0.8,3.2,-1.1,6.1,-0.5c3.2,0.6,5.7,2,5.5,3.1" class="g8_1" />
<path d="M482.1,732c0.3,-1.1,3.1,-1.6,6.4,-1c3.2,0.7,5.7,2,5.5,3.2" class="g8_1" />
<path d="M482.5,730.2c0.2,-1.1,3,-1.5,6.3,-0.9c3.3,0.6,5.7,2,5.5,3.1" class="g8_1" />
<path d="M482.8,728.5c0.2,-1.1,3,-1.5,6.3,-0.9c3.3,0.6,5.7,2,5.5,3.1" class="g8_1" />
<path d="M483.1,726.8c0.2,-1.1,3,-1.5,6.3,-0.9c3.3,0.6,5.8,2,5.6,3.1" class="g8_1" />
<path d="M483.4,725.2c0.2,-1.1,3,-1.5,6.3,-0.9c3.3,0.6,5.8,2,5.6,3.1" class="g8_1" />
<path d="M482.8,737l0.7,-3.2" class="g8_1" />
<path d="M464.4,816.7c-11.7,-19.4,-25.7,-38.4,-25.7,-95" class="g9_1" />
<path d="M475.4,815.4C460.3,788.9,448.9,780.7,448.9,727" class="g9_1" />
<path d="M657.3,965.1l0.4,-0.1l1,0.5L762,921l0.1,-7.8c0,0,-6.2,-24,-8,-31.1c-1.8,-7.1,-7,-13.3,-12.2,-15.6c-5.2,-2.2,-17.3,-4,-28,-2.8" class="g9_1" />
<path d="M740.1,863.8c2.6,0.9,4.7,1.9,6,2.7c4.3,2.9,8.2,9.2,9.7,15.6c1.4,6.4,7.7,30.5,7.7,30.5l0,7" class="g8_1" />
<path d="M762.6,919.3l1.1,0.5c0,0,0.6,0.3,1.1,0c0.5,-0.2,1,-0.4,1,-0.4c0,0,0.8,-0.2,0.8,-1.6c0,-1.4,0,-6.5,0,-6.5l-8.2,-31.8c0,0,-3.5,-14.7,-15.6,-19.3c-4.6,-1.8,-8.5,-2.3,-11.8,-2.7c-5.1,-0.7,-8.7,-0.7,-11.7,-0.7c-3,0,-44.5,1.9,-44.5,1.9c0,0,-12.1,0.2,-25.1,5.8c-9.3,4,-16.9,7.1,-25.8,13.9c-2.3,1.7,-5.1,3.7,-7.5,6c-7.8,7.3,-8.9,11.5,-9.9,14.8c-1.2,3.8,-1.8,10.8,-1.8,15.8c0,5,0,18.4,0,18.4c0,0,-0.5,6.7,7.9,11.8c8.5,5.1,20.4,12.1,20.4,12.1c0,0,1.4,1.2,6.1,3.1c4.7,1.9,15.1,6.4,15.1,6.4c0,0,0.7,0.1,1.1,-0.1c0.6,-0.1,1.9,-0.6,1.9,-2.3c0,-1.8,0,-6.3,0,-6.3l-8.4,-32.8c0,0,-1.1,-6.6,-0.3,-12.2c0.8,-5.5,4.2,-12.1,8.2,-17.1c4,-5,14.8,-16.7,21.4,-20.4c6.6,-3.7,16.2,-10.8,34.5,-13.9c11.2,-1.8,21.1,-0.1,27.5,2.1" class="g9_1" />
<path d="M654.1,966.1c0,-2.6,0.1,-6.6,0.1,-6.6l-8.5,-33.4c0,0,-0.6,-2.1,-0.8,-5c-0.2,-3.3,0.4,-7.6,0.8,-10.6c0.8,-5.6,4.5,-12.1,8.5,-17.1c4,-5,14.4,-16.2,20.8,-20.5c3.6,-2.4,8.4,-5.5,15,-8.6c5.3,-2.5,11.7,-5.1,19.9,-6.4c2.4,-0.4,7.1,-1,9.4,-1.1" class="g8_1" />
<path d="M658.7,965.3c0,-2.6,0,-7.8,0,-7.8l-8.1,-32c0,0,-1,-6.3,-0.2,-11.6c0.7,-5.3,4,-11.6,7.8,-16.4c3.8,-4.8,13,-14.4,18.9,-18.6c2.5,-1.8,7.4,-4.8,11.8,-7c6.3,-3.2,13.6,-6.6,25,-8.2" class="g8_1" />
<path d="M657.1,964.5c0,-2.5,0.1,-7.2,0.1,-7.2L648.7,924c0,0,-0.8,-5.6,0,-10.9c0.4,-2.4,1.2,-4.9,2.3,-7.4c1.5,-2.9,3.4,-5.7,5.5,-8.4c1.5,-1.9,3.9,-4.9,6.6,-7.7c3.7,-3.8,7.9,-7.7,11.3,-10.2c0.4,-0.3,3.4,-2.3,3.8,-2.6c2.5,-1.8,5.2,-3.2,9.6,-5.4c6.3,-3.2,13.1,-6.3,24.5,-7.8" class="g8_1" />
<path d="M739,863.6c2.7,0.9,4.4,1.9,5.7,2.7c4.3,2.9,8.2,8.3,9.7,14.7c1.5,6.4,8.2,31.5,8.2,31.5l0,6.5" class="g8_1" />
<path d="M678.8,923l1.5,5.9" class="g9_1" />
<path d="M678.8,923l10.1,-4.3l1.6,5.9l-10.2,4.3l10.2,-4.3l-2.1,-0.8l-8.5,3.6l8.5,-3.6l-0.9,-3.5l1.4,-1.6l-1.4,1.6l-8.5,3.6l8.5,-3.6l0.9,3.5l-2.1,0" class="g8_1" />
<path d="M679.7,926.7l6.6,-2.9l-0.8,-2.6" class="g9_1" />
<path d="M679,923.9l8.5,-3.6" class="g9_1" />
<path d="M725.3,903l1.5,6" class="g9_1" />
<path d="M725.3,903l10.1,-4.3l1.6,5.9L726.8,909L737,904.6l-2.1,-0.8l-8.5,3.6l8.5,-3.6L734,900.3l1.4,-1.6l-1.4,1.6l-8.4,3.6l8.4,-3.6l0.9,3.5l-2,0" class="g8_1" />
<path d="M726.3,906.7l6.6,-2.9l-0.8,-2.6" class="g9_1" />
<path d="M725.6,903.9l8.4,-3.6" class="g9_1" />
<path d="M719.1,883l1.5,6" class="g9_1" />
<path d="M719.1,883l12.1,-5.2l1.6,5.9L720.6,889l12.2,-5.3l-2.1,-0.8l-10.5,4.5l10.5,-4.5l-0.9,-3.4l1.4,-1.7l-1.4,1.7l-10.5,4.4l10.5,-4.4l0.9,3.4l-2,0" class="g8_1" />
<path d="M720,886.7l8.7,-3.8l-0.8,-2.6" class="g9_1" />
<path d="M719.3,883.9l10.5,-4.4" class="g9_1" />
<path d="M672.5,902.8l1.5,5.9" class="g9_1" />
<path d="M672.5,902.8l12.1,-5.2l1.6,5.9L674,908.7l12.2,-5.2l-2.1,-0.8l-10.5,4.5l10.5,-4.5l-0.9,-3.5l1.4,-1.6l-1.4,1.6l-10.5,4.5l10.5,-4.5l0.9,3.5l-2,0" class="g8_1" />
<path d="M673.4,906.5l8.7,-3.8l-0.8,-2.6" class="g9_1" />
<path d="M672.7,903.7l10.5,-4.5" class="g9_1" />
<path d="M711.8,906.9l4.3,-1.8c0,0,3.2,-2,2.5,-6.5c-0.6,-4.6,-4,-5.1,-5.4,-4.6c-1.4,0.5,-4.4,1.9,-4.4,1.9" class="g8_1" />
<path d="M711.8,906.9l-3,-11" class="g9_1" />
<path d="M709,896.8l3.5,-1.5c0,0,0.5,-0.2,1.2,-0.2" class="g9_1" />
<path d="M711.1,904.6l1.4,-0.5c0,0,2.5,-0.9,2.3,-4.6c-0.1,-3.6,-2.6,-4,-2.6,-4" class="g9_1" />
<path d="M711.3,905.3l3.2,-1.2c0,0,2.5,-0.5,2.3,-4.6c-0.2,-4.1,-3.1,-4.4,-3.1,-4.4" class="g8_1" />
<path d="M665.3,926.8l4.3,-1.8c0,0,3.2,-2,2.5,-6.5c-0.6,-4.6,-4,-5.1,-5.4,-4.6c-1.4,0.5,-4.4,1.9,-4.4,1.9" class="g8_1" />
<path d="M665.3,926.8l-3,-11" class="g9_1" />
<path d="M662.6,916.7l3.4,-1.5c0,0,0.5,-0.2,1.2,-0.2" class="g9_1" />
<path d="M664.6,924.5L666,924c0,0,2.5,-0.9,2.3,-4.6c-0.1,-3.6,-2.6,-4,-2.6,-4" class="g9_1" />
<path d="M664.8,925.2L668,924c0,0,2.5,-0.5,2.3,-4.6c-0.2,-4.1,-3.1,-4.4,-3.1,-4.4" class="g8_1" />
<path d="M626,953l0,8" class="g9_1" />
<path d="M629.5,955.5l0,4" class="g8_1" />
<path d="M622,951l0,12" class="g9_1" />
<path d="M659.3,957.2l102,-43.7" class="g8_1" />
<path d="M763.7,912.5l2.3,-1" class="g8_1" />
<path d="M654.5,959.3l2,-0.9" class="g8_1" />
<path d="M764.8,901.5c21.4,-7.7,43.3,-14.9,65.8,-21.6" class="g9_1" />
<path d="M553,1004c24.8,-16.1,51.4,-31.4,79.7,-45.9" class="g9_1" />
<image x="102" y="102" width="114" height="39" xlink:href="img/1.png" />
</svg>