<?xml version="1.0" encoding="UTF-8" standalone="no"?>
<!DOCTYPE svg PUBLIC "-//W3C//DTD SVG 1.1//EN"
"http://www.w3.org/Graphics/SVG/1.1/DTD/svg11.dtd">
<svg version="1.1" xmlns="http://www.w3.org/2000/svg" xmlns:xlink="http://www.w3.org/1999/xlink">
<defs>
<style type="text/css"><![CDATA[
.g10_7{
}
.g15_7{
fill: none;
stroke: #FFFFFF;
stroke-width: 4;
stroke-linecap: round;
stroke-linejoin: round;
stroke-miterlimit: 2;
}
.g2_7{
fill: none;
stroke: #FFFFFF;
stroke-width: 3;
stroke-linecap: round;
stroke-linejoin: miter;
stroke-miterlimit: 2;
}
.g3_7{
fill: #FFFFFF;
stroke: #000000;
stroke-width: 2;
stroke-linecap: butt;
stroke-linejoin: miter;
stroke-miterlimit: 2;
}
.g12_7{
stroke: #000000;
stroke-width: 1;
stroke-linecap: round;
stroke-linejoin: round;
stroke-miterlimit: 2;
}
.g1_7{
fill: #B3B3B3;
}
.g8_7{
fill: none;
stroke: #000000;
stroke-width: 2;
stroke-linecap: round;
stroke-linejoin: round;
stroke-miterlimit: 2;
}
.g14_7{
fill: #FFFFFF;
stroke: #000000;
stroke-width: 2;
stroke-linecap: round;
stroke-linejoin: round;
stroke-miterlimit: 2;
}
.g5_7{
fill: none;
stroke: #000000;
stroke-width: 2;
stroke-linecap: butt;
stroke-linejoin: miter;
stroke-miterlimit: 2;
}
.g11_7{
fill: #636363;
stroke: #000000;
stroke-width: 1;
stroke-linecap: butt;
stroke-linejoin: miter;
stroke-miterlimit: 2;
}
.g16_7{
fill: none;
stroke: #000000;
stroke-width: 1;
stroke-linecap: round;
stroke-linejoin: round;
stroke-miterlimit: 2;
stroke-dasharray: 2,3;
}
.g4_7{
fill: none;
stroke: #000000;
stroke-width: 1;
stroke-linecap: butt;
stroke-linejoin: miter;
stroke-miterlimit: 2;
}
.g7_7{
fill: #FFFFFF;
}
.g13_7{
fill: #FFFFFF;
stroke: #000000;
stroke-width: 1;
stroke-linecap: round;
stroke-linejoin: round;
stroke-miterlimit: 2;
}
.g9_7{
fill: #E0E0E0;
}
.g6_7{
fill: none;
stroke: #000000;
stroke-width: 1;
stroke-linecap: round;
stroke-linejoin: round;
stroke-miterlimit: 2;
}
]]></style>
</defs>
<path fill-rule="evenodd" d="M55,54l824,0l0,1101l-824,0Z" class="g1_7" />
<path d="M55.5,256.5l27,0" class="g2_7" />
<path d="M55.5,430.5l27,0" class="g2_7" />
<path d="M55.5,605.5l27,0" class="g2_7" />
<path d="M55.5,779.5l27,0" class="g2_7" />
<path d="M55.5,953.5l27,0" class="g2_7" />
<path d="M852.5,256.5l28,0" class="g2_7" />
<path d="M852.5,605.5l28,0" class="g2_7" />
<path d="M236.5,82.5l0,-27" class="g2_7" />
<path d="M390.5,82.5l0,-27" class="g2_7" />
<path d="M544.5,82.5l0,-27" class="g2_7" />
<path d="M698.5,82.5l0,-27" class="g2_7" />
<path d="M236.5,1155.5l0,-28" class="g2_7" />
<path d="M390.5,1155.5l0,-28" class="g2_7" />
<path d="M544.5,1155.5l0,-28" class="g2_7" />
<path d="M698.5,1155.5l0,-28" class="g2_7" />
<path d="M852.5,430.5l28,0" class="g2_7" />
<path d="M852.5,779.5l28,0" class="g2_7" />
<path d="M852.5,953.5l28,0" class="g2_7" />
<path fill-rule="evenodd" d="M84,83l766,0l0,1045l-766,0Z" class="g3_7" />
<path d="M184.5,209.5l646,0" class="g4_7" />
<path d="M103.5,278.5l727,0" class="g4_7" />
<path d="M82,1097l770,0" class="g5_7" />
<path d="M466.5,1099.5l0,28" class="g4_7" />
<path d="M468.5,1099.5l0,28" class="g4_7" />
<path d="M272.5,1099.5l0,28" class="g4_7" />
<path d="M274.5,1099.5l0,28" class="g4_7" />
<path d="M664.5,1099.5l0,28" class="g4_7" />
<path d="M666.5,1099.5l0,28" class="g4_7" />
<path d="M274.5,1099.5l192,0" class="g6_7" />
<path d="M468.5,1099.5l196,0" class="g6_7" />
<path d="M666.5,1099.5l186,0" class="g6_7" />
<path d="M272.5,1099.5l-190,0" class="g6_7" />
<path fill-rule="evenodd" d="M378,248.9c15.4,-8.9,30.8,-17.8,46.2,-26.8c0.6,-0.7,1.2,-1.5,1.7,-2.3c0.3,-0.3,0.3,-0.6,0.3,-0.7c-0.1,-0.2,-0.4,-0.3,-0.7,-0.3c-1,0.1,-2,0.2,-3.1,0.3c-15.2,8.8,-30.4,17.7,-45.7,26.5c0.4,1.1,0.8,2.2,1.3,3.3Z" class="g7_7" />
<path d="M366.7,255.4c19.1,-11.1,38.3,-22.2,57.5,-33.3c0.6,-0.7,1.2,-1.5,1.7,-2.3c0.3,-0.3,0.3,-0.6,0.3,-0.7c-0.1,-0.2,-0.4,-0.3,-0.7,-0.3c-1,0.1,-2,0.2,-3.1,0.3c-19,11,-38,21.9,-57,33" class="g8_7" />
<path d="M423.3,221.9c0.2,-0.6,0.6,-1.1,1,-1.4c0.4,-0.4,1,-0.7,1.6,-0.9" class="g6_7" />
<path d="M421.8,220.1c0.8,0,1.5,-0.2,2.2,-0.4c0.6,-0.2,1.2,-0.5,1.7,-0.8" class="g6_7" />
<path fill-rule="evenodd" d="M382.5,236.9c-0.9,0.5,-1.8,1,-2.7,1.5c-0.4,0.3,-0.8,0.7,-1.1,1.1c-0.3,0.4,-0.6,1,-0.7,1.6c0,0.4,0,0.8,-0.1,0.9c-0.1,0.1,-0.4,0.1,-0.7,0c-0.8,-0.6,-1.8,-1,-2.7,-1.1c-0.9,-0.1,-1.8,0.1,-2.7,0.4c-9.2,5.4,-18.5,10.7,-27.7,16c-2,2,-3.2,4,-3.5,5.9c-0.3,1.9,0.2,3.8,1.6,5.6c1.6,1.9,3.4,3.1,5.2,3.4c1.9,0.3,4,-0.2,6.1,-1.5c8.7,-5,17.4,-10,26.1,-15c0.8,-0.8,1.5,-1.7,1.9,-2.5c0.4,-0.9,0.6,-1.9,0.6,-2.9c0,-0.4,0.2,-0.7,0.4,-0.8c0.1,0,0.4,0.1,0.7,0.4c0.5,0.2,1,0.5,1.5,0.5c0.4,0,0.9,-0.1,1.4,-0.3c0.9,-0.5,2,-1.1,3,-1.7c0.9,-0.9,1.3,-2.1,1.2,-3.4c0,-1.3,-0.7,-2.9,-1.7,-4.6c-1.1,-1.5,-2.2,-2.5,-3.2,-3.1c-1,-0.6,-2,-0.7,-2.9,-0.4Z" class="g7_7" />
<path d="M378.1,242c-0.1,-1.5,0.4,-2.8,1.3,-3.3c1,-0.5,2,-1.1,2.9,-1.7c1.8,-1,4.8,0.7,6.7,3.9c1.7,3.1,1.7,6.5,0,7.6c-1,0.5,-2,1.1,-2.9,1.6c-1,0.6,-2.4,0.3,-3.7,-0.5" class="g8_7" />
<path d="M381.5,250.9c-0.1,-1.5,-0.6,-3.2,-1.6,-4.9c-0.7,-1.2,-1.6,-2.3,-2.5,-3.1" class="g6_7" />
<path d="M382.2,248.9c-0.1,-1.1,-0.4,-2.3,-1.1,-3.5c-0.7,-1.2,-1.5,-2.1,-2.4,-2.7" class="g6_7" />
<path d="M384.1,249.5c-0.7,-0.2,-1.2,-0.2,-1.5,-0.2c-0.3,0.1,-0.5,0.4,-0.5,0.8c0,1.2,-0.2,2.4,-0.6,3.2c-0.4,0.9,-1.1,1.7,-1.8,2.2c-9.2,5.3,-18.5,10.7,-27.7,16c-1.2,0.6,-2,0.8,-3.4,0.8c-4.4,0,-8,-3.7,-8,-8.1c0,-2.6,1.4,-5.1,3.5,-6.6c9.1,-5.4,18.4,-10.7,27.6,-16.1c0.7,-0.3,1.6,-0.5,2.5,-0.5c0.8,0.1,1.9,0.5,3,1c0.4,0.3,0.9,0.3,1.2,0.1c0.3,-0.1,0.5,-0.5,0.6,-1.1" class="g8_7" />
<path d="M345.4,257.6c2.1,0.2,4.5,2.1,6.2,5c1.5,2.7,2,5.6,1.4,7.5" class="g6_7" />
<path d="M385.5,250c1.4,-1.1,1.3,-4.1,-0.3,-7c-1.6,-2.8,-4.3,-4.5,-6,-3.8" class="g6_7" />
<path d="M349.3,257.7l24.9,-14.5" class="g6_7" />
<path d="M351.7,259.1l24.2,-14.4" class="g6_7" />
<path d="M354.3,264.1l24.5,-14.8" class="g6_7" />
<path d="M354.8,266.9L379.3,252" class="g6_7" />
<path d="M351.7,259.1c-1,0.6,-3.9,-0.1,-2.4,-1.4" class="g6_7" />
<path d="M354.3,264.1c-1.4,0.9,-1.2,3.6,0.5,2.8" class="g6_7" />
<path d="M379.3,252c1.4,-0.7,1.7,-4.1,-0.5,-2.7" class="g6_7" />
<path d="M375.9,244.7c1.5,-0.8,0,-2.5,-1.7,-1.5" class="g6_7" />
<path fill-rule="evenodd" d="M219.3,230.3c0,0,0.7,-0.6,0.9,-0.7c0.4,-0.2,0.8,-0.4,1.2,-0.6c0.3,-0.4,0.6,-0.8,0.9,-1.2c0,0,0.1,-0.2,0.1,-0.2c-0.1,-0.1,-0.3,-0.1,-0.3,-0.1c-0.2,0.1,-0.4,0.2,-0.7,0.4c-0.1,0.1,-0.3,0.3,-0.5,0.4c-0.1,0.2,-0.2,0.4,-0.4,0.6c-0.4,0.3,-0.8,0.6,-1.2,0.8c0,0.2,0,0.4,0,0.6Z" class="g9_7" />
<path d="M219.3,230.3c0.3,-0.2,0.6,-0.4,0.9,-0.7c0.4,-0.2,0.8,-0.3,1.2,-0.5c0.3,-0.5,0.7,-1,1.1,-1.4c0.1,-0.3,0.1,-0.4,0.1,-0.5c-0.1,-0.1,-0.2,-0.2,-0.5,-0.2c-0.6,0.1,-1.2,0.1,-1.9,0.2c-0.3,0.3,-0.6,0.5,-0.9,0.8c-0.4,0.2,-0.8,0.3,-1.1,0.5" class="g8_7" />
<path d="M220.6,228.9c0.1,-0.3,0.3,-0.6,0.6,-0.8c0.3,-0.2,0.6,-0.5,0.9,-0.6" class="g6_7" />
<path d="M220.2,227.8c0.3,0,0.6,-0.1,0.9,-0.2c0.3,-0.1,0.6,-0.3,0.9,-0.5" class="g8_7" />
<path fill-rule="evenodd" d="M219.3,230.3c-0.1,0.1,-0.1,0.2,-0.1,0.3c-1.9,1.1,-3.7,2.1,-5.5,3.2c-0.2,0,-0.4,0.1,-0.6,0.1c0,0,-0.1,0,-0.2,0c0,0,-0.1,-0.1,-0.2,-0.1c-0.3,-0.2,-0.5,-0.4,-0.6,-0.6c-0.1,-0.2,-0.2,-0.4,-0.2,-0.7c0,-0.2,0,-0.3,0.1,-0.4c0,-0.1,0,-0.2,0.1,-0.3c1.8,-1.1,3.6,-2.1,5.5,-3.2c0.1,0,0.2,0,0.3,-0.1c0.1,0,0.2,0,0.3,0c0.1,0,0.3,0.1,0.4,0.2c0.2,0.1,0.3,0.3,0.5,0.5c0.1,0.2,0.1,0.3,0.2,0.5c0,0.2,0,0.4,0,0.6Z" class="g7_7" />
<path d="M211.9,232.7l0,-0.3l0,-0.1l0.1,-0.1l0,-0.1l0,-0.2l0.1,-0.1" class="g8_7" />
<path d="M212.5,233.7l0.4,0.2" class="g8_7" />
<path d="M212.5,233.7l0,-0.1l-0.2,-0.1l-0.1,-0.1l-0.1,-0.1L212,233.1l0,-0.1l-0.1,-0.2l0,-0.1" class="g8_7" />
<path d="M211.9,232.7l0,-0.2l0.1,-0.1l0,-0.1l0.1,0l0.1,0l0.1,0l0.2,0l0.1,0.1l0.1,0.1l0.1,0.1l0.1,0.1l0.1,0.2l0,0.1l0.1,0.2l0,0.1" class="g6_7" />
<path d="M212.9,231.7l0,0.2L213,232l0,0.2l0.1,0.1l0.1,0.1l0.2,0.1l0.1,0.1l0.2,0.1" class="g6_7" />
<path d="M213.5,233.3l0,0.1l0.1,0.1l0,0.1l0,0.1l0.1,0.1" class="g6_7" />
<path d="M213.1,233.3l0,0.2l-0.1,0.1l-0.1,0.1l-0.1,0l-0.1,0l-0.1,0l-0.1,0" class="g6_7" />
<path d="M212.1,231.8l0.1,0l0.1,0l0.1,0l0.2,0l0.1,0l0.2,-0.1" class="g6_7" />
<path d="M213.7,232.7l-0.1,0.2l0,0.1l0,0.1l-0.1,0.1l0,0.1" class="g6_7" />
<path d="M213.7,233.8l-0.2,0l-0.1,0.1l-0.2,0l-0.1,0l-0.1,0l-0.1,0" class="g8_7" />
<path d="M212.1,231.8l5.5,-3.2" class="g8_7" />
<path d="M212.9,231.7l5.5,-3.2" class="g6_7" />
<path d="M213.7,232.7l5.5,-3.2" class="g6_7" />
<path d="M213.7,233.8l5.5,-3.2" class="g8_7" />
<path d="M217.6,228.6l0.1,0l0.2,-0.1l0.1,0l0.1,0l0.1,0l0.1,0" class="g8_7" />
<path d="M219.3,230l0,-0.1l0,-0.2l0,-0.2l-0.1,-0.2l-0.1,-0.2L218.9,229l-0.1,-0.2l-0.2,-0.1l-0.1,-0.1" class="g6_7" />
<path d="M219.3,230l0,0.1l0,0.1l0,0.1l-0.1,0.1l0,0.2" class="g8_7" />
<path d="M218.3,228.5l0.2,0.1" class="g8_7" />
<path d="M218.3,228.5l0.1,0l0.1,0.1l0.2,0.1l0.1,0.1l0.1,0.1L219,229l0,0.1l0.1,0.1l0,0.2l0.1,0.1l0,0.1l0.1,0.1l0,0.1l0,0.1l0,0.1" class="g8_7" />
<path fill-rule="evenodd" d="M210.3,229c0.7,0.2,1.3,0.4,2,0.6c0.7,0.1,1.3,0.1,2,0.2c0.4,0.1,0.7,0.3,1.1,0.6c0.3,0.2,0.6,0.6,0.8,1c0.3,0.6,0.6,1.2,0.6,1.7c0.1,0.4,0,0.9,-0.2,1.2c-0.2,0.4,-0.4,0.8,-0.5,1.2c-0.1,0.3,-0.3,0.8,-0.3,1.1c-0.1,0.7,-0.3,1.2,-0.5,1.7c-0.3,0.4,-0.6,0.7,-0.9,0.9c-2.1,1.2,-4.1,2.4,-6.2,3.6c-0.1,0.4,-0.3,0.8,-0.5,1.1c-0.2,0.2,-0.4,0.4,-0.7,0.5c-0.5,1.2,-1.3,2.3,-2.2,3.1c-0.9,0.9,-2.1,1.6,-3.4,2.2c-0.1,0.3,-0.5,0.7,-1.1,1.2c-0.6,0.4,-1.6,0.9,-2.7,1.5c-0.1,0.2,-0.3,0.5,-0.5,0.6c-0.1,0.2,-0.4,0.4,-0.6,0.5c-1.9,1,-3.8,2.1,-5.7,3.2c-0.2,0.4,-0.6,0.9,-0.9,1.2c-0.4,0.3,-0.8,0.6,-1.3,0.8c-2.5,1.5,-5.1,3,-7.8,4.5c0,0.4,0,0.9,0.1,1.4c-1.2,0.6,-2.3,1.3,-3.5,2c-0.2,-0.1,-0.3,-0.2,-0.5,-0.3c0,-0.6,0,-1.3,0,-1.9c-0.8,0.5,-1.7,0.9,-2.5,1.4c-0.1,0.1,-0.3,0.2,-0.3,0.3c-0.1,0.2,-0.2,0.4,-0.2,0.5c0,0.2,0,0.4,0,0.6c-0.6,0.4,-1.2,0.7,-1.8,1.1c-1.6,0.9,-3.4,1.3,-5.1,1.2c-1.8,-0.1,-3.6,-0.8,-5.5,-1.9c-1.2,-0.7,-2.5,-1.5,-3.8,-2.3c-0.6,-1,-0.9,-2.2,-0.9,-3.5c0,-1.3,0.4,-2.8,1,-4.4c0.2,-0.4,0.4,-0.7,0.6,-1c0.2,-0.4,0.3,-0.7,0.5,-0.9c-0.4,-0.2,-1.2,-0.5,-2.1,-0.7c-0.9,-0.2,-2,-0.4,-3.3,-0.6c-2.4,-0.7,-4.6,-1.4,-6.3,-2c-1.7,-0.6,-3.1,-1.3,-4,-2c-0.5,-0.4,-1.1,-0.6,-1.5,-0.7c-0.4,0,-0.9,0.1,-1.2,0.3c-1.3,0.6,-2.6,0.9,-3.5,1c-0.9,0.1,-1.7,0,-2.3,-0.3c-2.7,-1.6,-5.5,-3.1,-8.2,-4.7c-0.2,-0.2,-0.3,-0.4,-0.5,-0.7c-0.4,-0.1,-0.8,-0.3,-1.2,-0.6c-0.8,-1,-1.2,-2.3,-1.2,-3.9c-0.1,-1.5,0.2,-3.3,0.8,-5.2c0.2,-0.4,0.3,-0.7,0.5,-1.1c0.4,-0.3,0.7,-0.7,1,-1.2c0.2,-0.5,0.4,-1,0.5,-1.6c0.4,-0.5,0.8,-1,1.2,-1.5c2.9,-1.7,5.9,-3.4,8.9,-5.1c0.3,0,0.8,-0.2,1.2,-0.4c0.4,-0.2,0.8,-0.6,1.1,-1.1c1,-0.5,1.9,-1,2.9,-1.5c0.2,-0.2,0.6,-0.3,0.9,-0.3c0.3,0,0.7,0.1,1,0.2c3,1.6,6,3.3,9.1,4.9c0.5,0.4,1,1.1,1.4,2c0.4,1,0.8,2.3,1,3.9c0.1,0.7,0.2,1.4,0.4,2.2c-0.2,1.3,-0.5,2.4,-0.8,3.4c-0.3,1,-0.8,1.8,-1.2,2.4c2.1,0.5,3.9,1.1,5.3,1.6c1.5,0.4,2.7,1,3.5,1.5c0.8,0.3,1.6,0.6,2.3,0.6c0.7,0.1,1.3,-0.1,1.7,-0.3c0.3,-0.2,0.6,-0.3,0.9,-0.3c0.2,0,0.4,0,0.6,0.2c0.5,-0.4,0.9,-0.6,1.2,-0.8c0.3,-0.1,0.6,0,0.8,0.1c0.9,0.5,1.9,1,2.8,1.6c0.6,-0.4,1.3,-0.8,1.9,-1.2c0.5,-0.1,0.9,-0.1,1.3,-0.1c0.3,0.1,0.5,0.3,0.7,0.6c3.6,-2.1,7.2,-4.2,10.8,-6.3c0.3,0,0.6,-0.1,0.8,-0.2c0.1,-0.1,0.2,-0.2,0.2,-0.3c1.2,-0.7,2.5,-1.4,3.7,-2.1c0.1,-0.1,0.4,-0.2,0.5,-0.2c0.2,0,0.5,0,0.6,0c0.1,-0.2,0.4,-0.5,0.9,-0.7c0.5,-0.2,1.2,-0.6,2.2,-0.8c0.7,-0.3,1.4,-0.5,2.1,-0.5c0.7,0,1.5,0,2.2,0c0.2,-0.1,0.6,-0.3,1,-0.3c0.3,0,0.7,0.1,1.1,0.1c2,-1.1,4.1,-2.3,6.2,-3.6c0.2,-0.1,0.5,-0.2,0.8,-0.2c0.2,0,0.5,0,0.7,0Z" class="g7_7" />
<path d="M129.5,247.4c0,-0.1,-0.2,-0.3,-0.4,-0.4c-0.2,-0.1,-0.5,-0.3,-0.8,-0.5c-1.2,-0.7,-2.3,-1.4,-3.5,-2c-0.8,-1,-1.3,-2.4,-1.3,-4.3c0,-1.8,0.5,-3.8,1.3,-5.7c0.5,-0.5,0.7,-0.8,1,-1.4c0.4,-0.6,0.5,-1,0.6,-1.6c0.4,-0.5,0.7,-1,1.1,-1.4c2.9,-1.7,5.9,-3.4,8.9,-5.2c1.3,0.1,2.4,-1.3,2.4,-1.3c0.9,-0.6,1.8,-1.1,2.8,-1.7c0.7,-0.4,1.3,-0.4,1.7,-0.2c3.1,1.7,6.2,3.4,9.4,5.1" class="g8_7" />
<path d="M134.6,250.4c-2.7,-1.6,-5.4,-3.2,-8.2,-4.8c0,-0.1,0,-0.2,-0.1,-0.2" class="g8_7" />
<path d="M136.5,235.2l14.4,-8.3" class="g6_7" />
<path d="M150.9,226.9c0.6,-0.4,1.2,-0.4,1.6,-0.2" class="g6_7" />
<path d="M136.5,235.2c-1.3,1.6,-2.3,3.3,-3,5c-0.6,1.7,-1,3.4,-1.1,5.3c0.1,1.7,0.5,3,1.1,3.9c0.3,0.3,0.5,0.6,0.8,0.8" class="g6_7" />
<path d="M212.4,229.6c0.7,0.1,1.3,0.2,1.9,0.3c0.7,0,1.5,0.7,2,1.6c0.6,1,0.7,2,0.4,2.6c-0.2,0.5,-0.5,1.1,-0.7,1.7" class="g8_7" />
<path d="M212.9,229.8c0.9,0.3,1.8,1.1,2.5,2.2c0.7,1.2,0.9,2.5,0.7,3.4" class="g6_7" />
<path d="M210.7,229.1c0.6,0.2,1.3,0.4,2,0.6c0.9,0.3,1.9,1.2,2.6,2.4c0.7,1.3,1,2.6,0.7,3.5c-0.1,0.7,-0.3,1.3,-0.4,2" class="g8_7" />
<path d="M202.6,232.9c2,-1.2,4.1,-2.4,6.1,-3.6c0.6,-0.3,1.3,-0.4,2,-0.2" class="g8_7" />
<path d="M212,229.7c0.9,0.7,1.8,1.7,2.5,2.9c0.7,1.2,1.1,2.5,1.1,3.6" class="g6_7" />
<path d="M215.6,237.6c-0.2,0.7,-0.6,1.2,-1.1,1.6c-2.1,1.2,-4.2,2.4,-6.3,3.6" class="g8_7" />
<path d="M200.7,233.2c1.7,0.3,3.8,2,5.1,4.4c1.5,2.4,1.8,5,1.3,6.6" class="g6_7" />
<path d="M193.6,235c2.3,-1.2,5.9,0.9,8.1,4.8c2.2,3.8,2.2,8,0,9.4" class="g6_7" />
<path d="M201.8,249.6c-0.1,0.1,-0.2,0.1,-0.4,0.2" class="g8_7" />
<path d="M193.3,234.7c2.4,-1.3,6.2,0.8,8.6,5c2.3,4.1,2.3,8.5,-0.1,9.9" class="g6_7" />
<path d="M187.7,237.7c0.2,-0.1,0.3,-0.2,0.4,-0.3c0.2,-0.1,0.3,-0.2,0.5,-0.3c0.9,-0.6,1.9,-1.1,2.8,-1.7c2.5,-1.4,6.5,0.9,8.9,5.2c2.5,4.2,2.5,8.8,0,10.2c-0.9,0.6,-1.9,1.1,-2.8,1.7" class="g8_7" />
<path d="M188.2,237.7c0.1,-0.1,0.2,-0.2,0.3,-0.3c2.4,-1.3,6.3,0.9,8.6,5c2.1,3.6,2.4,7.5,0.8,9.3" class="g6_7" />
<path d="M205.1,231.4c1.5,-0.9,4.1,0.6,5.7,3.3c1.5,2.7,1.5,5.7,0,6.6" class="g6_7" />
<path d="M188.6,237.1c2.5,-1.5,6.5,0.8,8.9,5.1c2.5,4.2,2.5,8.9,0,10.3" class="g6_7" />
<path d="M189.2,252.2c0.7,-0.4,1.4,-0.5,1.9,-0.2c0.5,0.3,0.8,0.9,0.8,1.7" class="g6_7" />
<path d="M191.9,253.7c0,0.8,-0.3,1.8,-0.8,2.7c-0.5,0.9,-1.2,1.6,-1.9,2" class="g8_7" />
<path d="M189.2,258.4l-8.4,4.8" class="g8_7" />
<path d="M180.8,263.2l-3.4,2" class="g6_7" />
<path d="M189.2,252.2l-3.6,2" class="g6_7" />
<path d="M185,254.6l-3.6,2.1" class="g6_7" />
<path d="M180.8,257.1l-3.2,1.8" class="g6_7" />
<path d="M183.7,260.1c0.2,0,0.6,-0.1,0.8,-0.2c0.8,-0.5,1.5,-0.9,2.3,-1.3c0.4,-0.3,0.8,-0.7,1.1,-1.3c0.6,-0.9,0.7,-1.8,0.4,-2.4" class="g6_7" />
<path d="M188.3,254.9c-0.1,-0.1,-0.2,-0.2,-0.4,-0.3c-0.3,-0.1,-0.7,-0.1,-1.1,0.1c-0.7,0.5,-1.5,0.9,-2.3,1.3c-0.4,0.3,-0.8,0.7,-1.1,1.3c-0.7,1.1,-0.7,2.3,0,2.7c0.1,0,0.2,0.1,0.3,0.1" class="g6_7" />
<path d="M184,258.8c0.2,0.1,0.3,0.2,0.5,0.3c0.3,0.2,0.7,0.2,1.2,-0.1c0.3,-0.1,0.6,-0.3,0.9,-0.5c0.4,-0.3,0.8,-0.7,1.1,-1.2c0.7,-1.1,0.7,-2.3,0,-2.7" class="g6_7" />
<path d="M185.1,255.8c-0.2,0.2,-0.4,0.4,-0.6,0.7c-0.6,1.1,-0.6,2.2,0,2.6" class="g6_7" />
<path d="M183.2,259.8c0.2,0,0.5,-0.1,0.7,-0.3c0.2,-0.1,0.5,-0.2,0.7,-0.4" class="g6_7" />
<path d="M187.7,255.8c0,-0.3,-0.1,-0.5,-0.3,-0.7c-0.2,-0.1,-0.6,-0.1,-0.9,0.1c-0.2,0.2,-0.5,0.3,-0.8,0.5c-0.3,0.2,-0.6,0.5,-0.9,0.9c-0.5,0.8,-0.5,1.7,0,2c0.1,0.1,0.2,0.1,0.4,0.1" class="g6_7" />
<path d="M185.2,258.7c0.2,0,0.3,0,0.5,-0.2" class="g6_7" />
<path d="M186.5,258.1c0.3,-0.2,0.7,-0.5,0.9,-1c0.2,-0.2,0.3,-0.6,0.3,-0.9" class="g6_7" />
<path d="M183.7,256.7c-0.3,0.9,-0.2,1.8,0.3,2.1" class="g6_7" />
<path d="M184.5,257.9c0.1,0.1,0.1,0.3,0.3,0.3c0.2,0.1,0.4,0.1,0.7,-0.1c0.2,-0.1,0.5,-0.2,0.7,-0.4c0.3,-0.1,0.5,-0.4,0.7,-0.8c0.4,-0.6,0.4,-1.4,0,-1.6c0,-0.1,-0.1,-0.1,-0.2,-0.1" class="g6_7" />
<path d="M188.2,255.6l0.2,0.1l3.5,-2l6.5,-4.7" class="g6_7" />
<path d="M188.3,250.8l-3,1.8" class="g6_7" />
<path d="M188.3,250.8c1.2,-0.2,2,-0.1,2.6,0.4c0.6,0.5,0.9,1.3,1,2.5" class="g6_7" />
<path d="M157.9,257.2c0.6,-1,1.2,-1.9,1.7,-2.6c0.6,-0.7,1.1,-1.3,1.6,-1.7c8.7,-5.1,17.5,-10.1,26.2,-15.2c1.6,-0.1,3.2,0.3,4.8,1.2c1.7,1,3.3,2.4,4.9,4.5c1.7,3.9,1.7,7.7,0,9.7c-2,1.1,-4.1,2.3,-6.2,3.5" class="g8_7" />
<path d="M197.1,243.4l-13.3,7.7l1.9,3.1" class="g6_7" />
<path d="M185.2,248.1c-1.1,-1.2,-2.2,-2.1,-3.4,-2.8c-1.1,-0.7,-2.1,-1.1,-3.2,-1.3c-0.2,0,-0.4,0,-0.1,-0.3c3.1,-1.8,6.2,-3.6,9.3,-5.4c0.4,-0.1,0.5,-0.1,0.6,-0.1c1.1,0.1,2.2,0.5,3.4,1.2c1.2,0.7,2.2,1.7,3.4,2.9c0.1,0.1,0.4,0.3,0,0.6c-3.1,1.7,-6.2,3.5,-9.3,5.3c-0.4,0.3,-0.7,-0.1,-0.7,-0.1Z" class="g6_7" />
<path d="M143.5,250.3c-1.1,-0.6,-1.1,-2.8,0,-4.8c0.6,-0.9,1.3,-1.7,2.1,-2.2c0.3,-0.2,0.7,-0.2,1,-0.2c0.4,0,0.8,0.2,1.2,0.4c2.4,1,4.6,1.9,6.8,2.6c2.1,0.7,4.1,1.3,6,1.7c0.5,0.1,1.2,0.2,1.9,0.2c0.6,0,1.4,-0.1,2.1,-0.2c0.9,-0.2,1.7,-0.2,2.3,-0.1c0.7,0.1,1.2,0.5,1.6,1" class="g6_7" />
<path d="M158.9,255.5c-0.3,-0.1,-0.8,-0.4,-1.4,-0.5c-0.7,-0.2,-1.5,-0.4,-2.4,-0.6c-2.7,-0.6,-5,-1.2,-7.1,-2c-2.1,-0.8,-3.9,-1.7,-5.5,-2.6" class="g8_7" />
<path d="M167.8,243.9c-0.1,0,-0.2,-0.1,-0.2,-0.1c-0.3,-0.2,-0.7,-0.1,-1.1,0.1c-0.5,0.3,-0.9,0.5,-1.6,0.5c-0.6,0,-1.4,-0.2,-2.3,-0.5c-1.5,-0.8,-3.1,-1.5,-4.9,-2.1c-1.7,-0.6,-3.5,-1,-5.5,-1.5c-0.8,-0.1,-1.4,-0.3,-1.7,-0.6c-0.3,-0.3,-0.4,-0.5,-0.3,-0.9" class="g8_7" />
<path d="M126.4,231.5l4.9,2.8" class="g6_7" />
<path d="M124.8,234.5l4.8,2.7" class="g6_7" />
<path d="M131.3,234.3c0.7,0.4,0.9,1.4,0.5,2.2c-0.5,0.8,-1.5,1.2,-2.2,0.7" class="g6_7" />
<path d="M136.5,235.2l-8.9,-5.1" class="g6_7" />
<path d="M138.8,223.6c1.7,1,3.5,2,5.3,3.1c0.7,0.3,0.7,0.9,0,1.3c-0.7,0.4,-1.7,0.4,-2.4,0c-1.8,-1,-3.5,-2,-5.3,-3.1" class="g6_7" />
<path d="M152.7,226.8c0.6,0.3,1.2,1.1,1.7,2.5c0.5,1.4,0.8,3.2,1.1,5.5c-0.4,2.3,-0.9,4,-1.6,5.3c-0.1,0.1,-0.2,0.3,-0.3,0.5" class="g8_7" />
<path d="M142.4,249.7c-0.5,-0.3,-1.1,-0.4,-1.6,-0.4c-0.5,0,-1.1,0.2,-1.6,0.5" class="g8_7" />
<path d="M141.5,249.4c-1.7,0.8,-3.2,1.3,-4.3,1.5c-1.1,0.1,-2,0,-2.6,-0.5" class="g8_7" />
<path d="M173.2,261.4c-1.3,0.7,-1.8,2.4,-1.8,4.2c0,1.7,0.5,2.8,1.8,2.1" class="g6_7" />
<path d="M157.9,257.2c-0.8,1.3,-1.1,3.1,-1.1,4.8c0,1.7,0.3,3,1.1,3.4c1.4,0.8,2.8,1.6,4.2,2.4" class="g8_7" />
<path d="M152.4,229.3c-0.5,1.4,-1.1,2.8,-1.4,4.3c-0.4,1.6,-0.7,3.2,-0.8,5" class="g6_7" />
<path d="M136.3,236.2c0.4,0.2,0.7,0.6,0.9,0.8c0.2,0.3,0.4,0.7,0.5,1.1c0.3,1.6,0.9,2.9,1.6,4c0.7,1,1.6,1.9,2.6,2.4" class="g6_7" />
<path d="M142.4,249.7c-1.1,-0.7,-1.1,-2.8,0,-4.8c0.6,-1,1.3,-1.8,2.1,-2.2c1.4,-0.8,2.9,-1.7,4.4,-2.5c0.7,-0.5,1.5,-0.5,2,-0.2" class="g6_7" />
<path d="M142.1,249.5c-1.1,-0.6,-1.1,-2.8,0,-4.7c0.6,-1.1,1.4,-1.8,2.1,-2.2c1.5,-0.9,2.9,-1.7,4.4,-2.6c0.7,-0.4,1.5,-0.5,2.1,-0.2" class="g6_7" />
<path d="M151,240c0,-0.1,0.1,-0.3,0.2,-0.4c0.1,-0.1,0.3,-0.3,0.4,-0.4c0.5,-0.4,1.2,-1,1.7,-1.6c0.6,-0.6,1.3,-1.3,1.9,-1.9c0.1,-0.2,0.1,-0.3,0.2,-0.4c0,-0.1,0.1,-0.1,0.1,-0.2" class="g6_7" />
<path d="M182.9,258.9c-3.9,2.2,-7.7,4.4,-11.5,6.7c-1.7,0.7,-3.5,0.9,-5.2,0.7c-1.7,-0.2,-3.5,-0.8,-5.2,-1.9c-1.4,-0.8,-2.8,-1.6,-4.2,-2.4" class="g6_7" />
<path d="M172.6,244.8c-0.9,-0.5,-1.8,-1,-2.7,-1.5c-0.5,-0.3,-0.9,-0.2,-1.4,0.1c-0.2,0.2,-0.4,0.4,-0.7,0.6" class="g8_7" />
<path d="M176.4,244c0,-0.1,-0.1,-0.2,-0.3,-0.3c-0.4,-0.3,-1.1,-0.3,-1.6,0c-0.5,0.3,-1.1,0.6,-1.6,0.9c-0.2,0.1,-0.4,0.3,-0.4,0.4c0,0.5,0,0.9,0,1.3" class="g8_7" />
<path d="M172.5,245c0,0.2,0.2,0.4,0.4,0.5c0.2,0.1,0.5,0.2,0.7,0.2" class="g6_7" />
<path d="M172.5,246c-0.2,0.1,-0.2,0.3,-0.1,0.4" class="g6_7" />
<path d="M172.5,245.3c-0.3,0.2,-0.6,0.4,-0.9,0.6c-0.3,0.1,-0.6,0.2,-0.9,0.2c-0.2,0,-0.6,0,-0.8,-0.1" class="g6_7" />
<path d="M171.1,246c-0.7,-0.1,-1.3,-0.4,-1.9,-0.7c-0.5,-0.4,-1,-0.9,-1.4,-1.4" class="g6_7" />
<path d="M177.5,265.1c0,-0.1,0,-0.3,0,-0.5c0,-0.1,0,-0.1,-0.1,-0.2" class="g6_7" />
<path d="M181,256.9l-0.2,-0.3l0,-1.3L180.4,255l-3.4,2l0,1.9" class="g8_7" />
<path d="M177,258.9c0,0,-1.7,-1,-1.7,-1" class="g6_7" />
<path d="M180.5,256.8l-2.7,1.6" class="g6_7" />
<path d="M183.8,251.1l1.5,1.5l0.4,1.6" class="g6_7" />
<path d="M181.3,254.4l-8.4,4.8" class="g6_7" />
<path d="M177.1,259.8L175.2,258" class="g6_7" />
<path d="M177,257l0.4,0.2" class="g6_7" />
<path d="M181.3,254.4c0.6,-0.4,1,0,1,0c0,0,0.2,0.1,0.2,0.1" class="g6_7" />
<path d="M181.5,252.5l0,1" class="g6_7" />
<path d="M180.8,255.5c0.6,-0.3,1.2,-0.6,1.8,-1c0,0,0.5,-0.2,0.4,-0.7" class="g8_7" />
<path d="M183,253.8c0,-0.1,-0.1,-0.2,-0.1,-0.2c-0.3,-0.4,-0.5,-0.8,-0.7,-1.2c0,0,-0.3,-0.7,-0.9,-0.4c-2.9,1.7,-5.9,3.4,-8.8,5.1c-0.1,0.1,-0.2,0.2,-0.2,0.2" class="g6_7" />
<path d="M172.3,257.3c-0.3,0.4,-0.1,0.8,-0.1,0.8c0.6,1,1.1,1.9,1.7,2.9c0,0,0,0.6,0,0.6c0.1,0.2,0.2,0.3,0.3,0.3" class="g8_7" />
<path d="M174.2,261.9c0.1,0,0.2,-0.1,0.2,-0.1c0.9,-0.4,1.7,-0.9,2.6,-1.5c0,0,0.4,-0.2,0.5,-0.8c0,-0.2,0,-0.4,0,-0.6c0,-0.1,-0.1,-0.2,-0.1,-0.3c0,-0.4,0,-0.9,0,-1.4c0,0,3.4,-1.9,3.4,-1.9" class="g6_7" />
<path d="M176.8,264.4c0,0,0.2,-0.1,0.2,0.1c0,0.6,0,1.2,0,1.8c0.1,0.1,0.2,0.2,0.4,0.3c1.1,-0.6,2.3,-1.3,3.4,-2c0,0,0,-1.4,0,-1.4" class="g8_7" />
<path d="M177.5,266.5l0,-1" class="g6_7" />
<path d="M182.1,249.3c0.6,-0.4,1.3,-0.7,2,-1.1c0,0,0.2,0.2,0.3,0.3c0.1,0.1,0.2,0.3,0.4,0.4" class="g6_7" />
<path d="M184.8,248.9c-0.7,0.4,-1.4,0.8,-2,1.2c-0.2,-0.1,-0.3,-0.3,-0.4,-0.4c-0.1,-0.1,-0.3,-0.3,-0.4,-0.4" class="g6_7" />
<path d="M181.2,248.5c0.6,-0.4,1.3,-0.8,2,-1.2c0.1,0.1,0.2,0.2,0.3,0.4c0.2,0.1,0.3,0.2,0.4,0.3" class="g6_7" />
<path d="M183.9,248c-0.7,0.4,-1.3,0.8,-2,1.2c-0.1,-0.1,-0.2,-0.3,-0.3,-0.4c-0.2,-0.1,-0.3,-0.2,-0.4,-0.3" class="g6_7" />
<path d="M180.2,247.7c0.6,-0.4,1.3,-0.8,2,-1.2c0.1,0.1,0.2,0.2,0.3,0.3c0.1,0.1,0.3,0.3,0.5,0.4" class="g6_7" />
<path d="M183,247.2c-0.7,0.4,-1.3,0.8,-2,1.2c-0.1,-0.2,-0.3,-0.3,-0.4,-0.4c-0.1,-0.1,-0.3,-0.2,-0.4,-0.3" class="g6_7" />
<path d="M179,246.9c0.7,-0.4,1.4,-0.8,2,-1.2c0.2,0.1,0.3,0.2,0.5,0.3c0.1,0.1,0.3,0.2,0.5,0.4" class="g6_7" />
<path d="M182,246.4c-0.7,0.3,-1.4,0.7,-2,1.1c-0.2,-0.1,-0.3,-0.2,-0.5,-0.3c-0.1,-0.1,-0.3,-0.3,-0.5,-0.3" class="g6_7" />
<path d="M177.8,246.2c0.7,-0.3,1.4,-0.7,2,-1.1c0.1,0,0.3,0.1,0.5,0.2c0.2,0.1,0.3,0.2,0.5,0.3" class="g6_7" />
<path d="M180.8,245.6c-0.6,0.4,-1.3,0.8,-2,1.2c-0.1,-0.1,-0.3,-0.2,-0.4,-0.3c-0.2,-0.1,-0.4,-0.2,-0.6,-0.3" class="g6_7" />
<path d="M176.6,245.8c0.7,-0.4,1.3,-0.8,2.1,-1.2c0.1,0,0.2,0.1,0.4,0.2c0.1,0,0.3,0.1,0.5,0.2" class="g6_7" />
<path d="M179.6,245c-0.7,0.3,-1.3,0.7,-2,1.1c-0.1,0,-0.3,-0.1,-0.4,-0.1c-0.2,-0.1,-0.4,-0.2,-0.6,-0.2" class="g6_7" />
<path d="M175.4,245.5c0.6,-0.3,1.3,-0.7,2,-1.1c0.1,0,0.3,0,0.4,0c0.2,0,0.4,0.1,0.6,0.2" class="g6_7" />
<path d="M178.4,244.6c-0.7,0.3,-1.4,0.7,-2,1.1c-0.1,0,-0.3,-0.1,-0.5,-0.1c-0.1,0,-0.3,-0.1,-0.5,-0.1" class="g6_7" />
<path d="M170.5,256c1.4,-0.8,2.9,-1.6,4.3,-2.5c0.1,0.1,0.2,0.3,0.4,0.4c0.1,0.1,0.2,0.3,0.3,0.4" class="g6_7" />
<path d="M175.5,254.3c-1.4,0.8,-2.9,1.6,-4.3,2.5c-0.1,-0.1,-0.3,-0.3,-0.4,-0.4c-0.1,-0.1,-0.2,-0.3,-0.3,-0.4" class="g6_7" />
<path d="M169.6,255.2c1.5,-0.8,2.9,-1.7,4.4,-2.5c0.1,0,0.2,0.2,0.3,0.3c0.1,0.1,0.2,0.3,0.4,0.4" class="g6_7" />
<path d="M174.7,253.4c-1.5,0.8,-2.9,1.6,-4.4,2.5c-0.1,-0.1,-0.2,-0.3,-0.3,-0.4c-0.2,-0.1,-0.3,-0.2,-0.4,-0.3" class="g6_7" />
<path d="M168.7,254.4c1.4,-0.9,2.8,-1.7,4.3,-2.6c0,0.1,0.2,0.2,0.3,0.3c0.1,0.1,0.3,0.3,0.5,0.4" class="g6_7" />
<path d="M173.8,252.5c-1.5,0.8,-2.9,1.7,-4.4,2.5c-0.1,-0.1,-0.3,-0.3,-0.4,-0.3c-0.1,-0.1,-0.3,-0.3,-0.4,-0.3" class="g6_7" />
<path d="M167.5,253.5c1.4,-0.8,2.8,-1.6,4.3,-2.4c0.2,0,0.3,0.2,0.5,0.2c0.1,0.1,0.3,0.3,0.4,0.4" class="g6_7" />
<path d="M172.7,251.7c-1.4,0.8,-2.9,1.6,-4.3,2.5c-0.1,-0.1,-0.3,-0.2,-0.4,-0.3c-0.2,-0.1,-0.4,-0.3,-0.6,-0.3" class="g6_7" />
<path d="M166.3,252.9c1.4,-0.8,2.9,-1.6,4.3,-2.5c0.1,0,0.3,0.2,0.5,0.2c0.1,0.1,0.3,0.2,0.5,0.3" class="g6_7" />
<path d="M171.6,250.9c-1.4,0.9,-2.9,1.7,-4.3,2.5c-0.1,0,-0.3,-0.1,-0.5,-0.2c-0.1,-0.1,-0.3,-0.2,-0.5,-0.3" class="g6_7" />
<path d="M165.1,252.5c1.4,-0.8,2.9,-1.7,4.3,-2.5c0.1,0,0.3,0.1,0.4,0.1c0.2,0.1,0.4,0.1,0.6,0.2" class="g6_7" />
<path d="M170.4,250.3c-1.5,0.8,-2.9,1.7,-4.4,2.5c-0.1,0,-0.3,-0.1,-0.4,-0.1c-0.2,-0.1,-0.4,-0.2,-0.5,-0.2" class="g6_7" />
<path d="M163.8,252.2c1.5,-0.8,2.9,-1.6,4.4,-2.5c0.1,0,0.3,0.1,0.4,0.1c0.2,0,0.4,0.1,0.5,0.1" class="g6_7" />
<path d="M169.1,249.9c-1.4,0.8,-2.9,1.6,-4.3,2.5c-0.1,0,-0.3,-0.1,-0.5,-0.1c-0.1,0,-0.3,-0.1,-0.5,-0.1" class="g6_7" />
<path d="M212,238.8l-3.7,2.1" class="g6_7" />
<path d="M211.5,240.5l-3.2,1.9" class="g6_7" />
<path d="M211.6,240.2l-3.3,1.9" class="g6_7" />
<path d="M211.9,238.4l-3.6,2.1" class="g6_7" />
<path d="M211.7,237l-3.7,2.2" class="g6_7" />
<path d="M211.5,236.4l-3.7,2.2" class="g6_7" />
<path d="M210.9,235l-3.8,2.1" class="g6_7" />
<path d="M210.5,234.4l-3.7,2.2" class="g6_7" />
<path d="M209.5,233l-3.7,2.2" class="g6_7" />
<path d="M209,232.6l-3.6,2.1" class="g6_7" />
<path d="M208,231.8l-3.6,2.1" class="g6_7" />
<path d="M207.5,231.5l-3.5,2" class="g6_7" />
<path d="M206.2,231.2L203,233" class="g6_7" />
<path d="M205.8,231.2l-3.1,1.8" class="g6_7" />
<path d="M205.2,231.3c1.6,-0.9,4.2,0.6,5.7,3.3c1.6,2.7,1.6,5.7,0,6.6" class="g6_7" />
<path d="M192.9,235c0.1,-0.1,0.2,-0.2,0.4,-0.3c1.3,-0.7,2.7,-1.3,3.8,-1.5c1.2,-0.3,2.4,-0.3,3.4,-0.1c1.8,-1,4.8,0.6,6.6,3.8c1.7,3.1,1.7,6.5,-0.1,7.5c-0.4,1,-1.1,2,-1.9,2.9c-0.9,0.8,-2,1.6,-3.3,2.3" class="g8_7" />
<path d="M177.4,264.4c-0.1,-0.3,-0.4,-0.1,-0.4,-0.1c-0.9,0.5,-1.7,1,-2.6,1.5c0,0,-0.4,0.2,-0.5,0.9c0,0,0,0.5,0,0.5c-0.3,0.2,-0.7,0.4,-1,0.6c-0.8,0.4,-1.5,0.8,-2.3,1.1c-0.7,0.3,-1.5,0.5,-2.2,0.6c-0.7,0.1,-1.6,0.1,-2.7,-0.2c-1,-0.3,-2.2,-0.8,-3.6,-1.5" class="g8_7" />
<path d="M184.5,248.5l0,1" class="g6_7" />
<path d="M183.5,247.5l0,1" class="g6_7" />
<path d="M182.5,246.5l0,1" class="g6_7" />
<path d="M181.5,245.5l0,1" class="g6_7" />
<path d="M179.5,245.5l0,1" class="g6_7" />
<path d="M178.5,244.5l0,1" class="g6_7" />
<path d="M177.5,244.5l0,1" class="g6_7" />
<path d="M174.5,253.5l0,1" class="g6_7" />
<path d="M173.5,252.5l0,1" class="g6_7" />
<path d="M172.5,251.5l0,1" class="g6_7" />
<path d="M171.5,251.5l0,1" class="g6_7" />
<path d="M170.5,250.5l0,1" class="g6_7" />
<path d="M169.5,249.5l0,1" class="g6_7" />
<path d="M168.5,249.5l0,1" class="g6_7" />
<path d="M252.8,231c0.4,0.2,0.7,0.5,1.1,0.7c0,0.4,0,0.8,0,1.3c-0.4,0.2,-0.8,0.4,-1.1,0.5c-0.3,0.1,-0.6,0.2,-0.8,0.2" class="g6_7" />
<path d="M253.9,231.7c-2.8,1.7,-1.3,2.1,-2.7,2.8c-0.6,0.4,-1.2,0.7,-1.9,1.1c0,0.1,-0.2,0.1,-0.3,0.1c-0.1,0,-0.3,0.1,-0.4,0.1" class="g6_7" />
<path d="M252.8,231c-2.8,1.7,-0.6,2.9,-3.5,4.6" class="g6_7" />
<path d="M251.1,232.1c-2.9,1.6,-0.7,2.9,-3.5,4.5c-0.4,0.2,-0.8,0.5,-1.2,0.7c-0.1,0,-0.3,0.1,-0.4,0.1c0,0,-0.2,0.1,-0.3,0.1" class="g6_7" />
<path d="M251.7,231.9c-0.1,0,-0.3,0.1,-0.4,0.1c0,0,-0.2,0.1,-0.2,0.1c-0.4,0.2,-0.8,0.4,-1.2,0.7c-2.9,1.6,-0.7,2.8,-3.5,4.5" class="g6_7" />
<path d="M248.2,233.7c-2.9,1.7,-0.7,2.9,-3.5,4.6c-0.4,0.2,-0.8,0.4,-1.2,0.7c-0.1,0,-0.2,0.1,-0.3,0.1c-0.1,0,-0.3,0.1,-0.3,0.1" class="g6_7" />
<path d="M248.9,233.5c-0.2,0,-0.4,0.1,-0.4,0.1c-0.1,0,-0.3,0.1,-0.3,0.1c-0.4,0.2,-0.8,0.5,-1.2,0.7c-2.8,1.7,-0.6,2.9,-3.5,4.6" class="g6_7" />
<path d="M245.3,235.4c-2.9,1.6,-0.7,2.9,-3.5,4.6c-0.4,0.2,-0.8,0.4,-1.2,0.6c-0.1,0.1,-0.2,0.2,-0.3,0.2c-0.1,0,-0.3,0,-0.3,0" class="g6_7" />
<path d="M246,235.2c-0.2,0,-0.4,0.1,-0.4,0.1c-0.1,0,-0.3,0.1,-0.3,0.1c-0.4,0.2,-0.8,0.5,-1.2,0.7c-2.8,1.6,-0.6,2.9,-3.5,4.5" class="g6_7" />
<path d="M242.5,237c-2.8,1.7,-0.7,2.9,-3.5,4.6c-0.4,0.2,-0.8,0.4,-1.2,0.6c-0.1,0.1,-0.3,0.2,-0.3,0.2c-0.1,0,-0.2,0,-0.3,0" class="g6_7" />
<path d="M243.1,236.8c-0.1,0,-0.3,0.1,-0.4,0.1c0,0,-0.1,0.1,-0.2,0.1c-0.4,0.2,-0.8,0.5,-1.2,0.7c-2.8,1.6,-0.7,2.9,-3.5,4.5" class="g6_7" />
<path d="M239.6,238.7c-2.8,1.6,-0.7,2.9,-3.5,4.6c-0.4,0.2,-0.8,0.4,-1.2,0.6c-0.1,0.1,-0.3,0.1,-0.3,0.1c-0.1,0,-0.2,0.1,-0.3,0.1" class="g6_7" />
<path d="M240.2,238.5c-0.1,0,-0.3,0.1,-0.4,0.1c0,0,-0.1,0.1,-0.2,0.1c-0.4,0.2,-0.8,0.5,-1.2,0.7c-2.8,1.6,-0.7,2.8,-3.5,4.5" class="g6_7" />
<path d="M236.6,240.4c-2.8,1.7,-0.6,2.9,-3.4,4.5c-4.7,2.7,-9.3,5.4,-13.9,8.1c-0.3,0.1,-0.8,-0.1,-1.1,-0.6c-0.3,-0.6,-0.3,-1.1,0,-1.3c6.1,-3.6,12.3,-7.1,18.4,-10.7c0.1,0,0.2,-0.1,0.3,-0.1c0.1,0,0.3,-0.1,0.4,-0.1" class="g6_7" />
<path d="M218.2,251.1c0.1,0,0.3,0,0.4,0.1c0.1,0.1,0.3,0.3,0.4,0.4c0.2,0.3,0.4,0.6,0.4,0.8c0,0.2,0,0.5,-0.1,0.6" class="g6_7" />
<path d="M316.6,224.3l17.9,10.8" class="g8_7" />
<path d="M313.8,226.1l17.8,10.7" class="g6_7" />
<path d="M312.3,229.9l18,10.7" class="g6_7" />
<path d="M312.8,231.5l18.8,11.2" class="g8_7" />
<path d="M245,267.7l60.9,-36.3c3.4,-2,4.8,-1.1,6.9,0.1" class="g8_7" />
<path d="M246.4,265.5l59.7,-35.8c2.7,-1.6,4.7,-0.7,6.2,0.2" class="g6_7" />
<path d="M244.9,261.8l60.8,-36.2c2.9,-1.7,5.4,-1.1,8.1,0.5" class="g6_7" />
<path d="M242.1,260.1l59.8,-35.8c6.5,-3.7,9.9,-2.7,14.7,0" class="g8_7" />
<path d="M330.3,240.5c0.6,-0.4,1.9,-2.1,1.3,-3.7" class="g6_7" />
<path d="M331.6,236.8c0.9,0.5,2.7,-0.6,2.9,-1.7" class="g6_7" />
<path d="M330.3,240.6c0.8,0.1,1.7,0.9,1.3,2.1" class="g6_7" />
<path d="M331.6,242.7c0.3,-0.6,1.9,-2,2.9,-1.6" class="g8_7" />
<path d="M334.5,241.1c-0.4,-1.1,0.6,-3.8,1.5,-3.9" class="g8_7" />
<path d="M334.5,235.1c0,0.7,0.3,1.8,1.5,2.1" class="g8_7" />
<path d="M246.4,265.5c-0.6,-0.5,-1.9,-2.1,-1.4,-3.8" class="g6_7" />
<path d="M245,261.7c-0.8,0.5,-2.6,-0.5,-2.9,-1.6" class="g6_7" />
<path d="M246.4,265.5c-0.9,0.1,-1.7,1,-1.4,2.2" class="g6_7" />
<path d="M245,267.7c-0.2,-0.6,-1.8,-2.1,-2.9,-1.7" class="g8_7" />
<path d="M242.1,266c0.5,-1.1,-0.5,-3.8,-1.4,-3.9" class="g8_7" />
<path d="M242.1,260.1c0.1,0.7,-0.2,1.8,-1.4,2" class="g8_7" />
<path fill-rule="evenodd" d="M106,289l37,0l0,38l-37,0Z" class="g10_7" />
<path fill-rule="evenodd" d="M103.5,287.5l38,0l0,37l-38,0Z" class="g11_7" />
<path d="M172.2,549.5c-0.7,0.1,-1.2,1.3,-1.2,1.3l0,341l0.1,0" class="g8_7" />
<path d="M172,549.4c-0.5,-0.3,-0.9,-0.4,-0.9,-1.2c0,-0.9,0,-27.9,0,-27.9c0,0,0.4,-1.1,1.5,-1.5c1.2,-0.4,654.3,-198.1,654.3,-198.1" class="g8_7" />
<path d="M172.2,549.5L825.3,352.4" class="g6_7" />
<path d="M193.5,544.5l0,380" class="g6_7" />
<path fill-rule="evenodd" d="M106.5,337.5l178,0l0,75l-178,0Z" class="g12_7" />
<path fill-rule="evenodd" d="M104.5,335.5l178,0l0,75l-178,0Z" class="g13_7" />
<path d="M206.9,354.9l4.8,18.2" class="g6_7" />
<path d="M226,354.9l4.8,18.2" class="g6_7" />
<path d="M216.5,354.9l4.7,18.2" class="g6_7" />
<path d="M245.5,356.5l3.9,15.1" class="g6_7" />
<path d="M235.6,354.9l4.6,18" class="g6_7" />
<path d="M255.6,358.7l2.6,9.8" class="g6_7" />
<path d="M218.5,358l3.6,11.9l1.1,0" class="g6_7" />
<path d="M219.2,369.9L215.6,358l-1.2,0" class="g6_7" />
<path d="M209,358l3.5,11.9l1.2,0" class="g6_7" />
<path d="M209.7,369.9L206.1,358l-1.2,0" class="g6_7" />
<path d="M228.1,358l3.5,11.9l1.2,0" class="g6_7" />
<path d="M228.7,369.9L225.2,358l-1.2,0" class="g6_7" />
<path d="M237.7,358.4l3.2,10.9l1.4,-0.2" class="g6_7" />
<path d="M238.2,369.5L234.7,358l-1.2,0" class="g6_7" />
<path d="M247.6,359.6l2.5,8.3l1.3,0" class="g6_7" />
<path d="M247.4,368.5l-2.8,-9.4L243.4,359" class="g6_7" />
<path d="M257.7,361.6l1.3,4.3l1.2,-0.3" class="g6_7" />
<path d="M256.4,366.8l-1.8,-5.9l-1.3,-0.5" class="g6_7" />
<path d="M204.2,369.9l5.5,0l2,3.2l2,-3.2l5.5,0l2,3.2l2,-3.2l5.5,0" class="g8_7" />
<path d="M228.7,370c0.7,1,1.4,2,2.1,3.1c0.6,-1,1.3,-2,2,-3.1c1.8,-0.2,3.5,-0.3,5.4,-0.5c0.7,1.1,1.4,2.3,2,3.4c0.7,-1.2,1.4,-2.5,2.1,-3.8c1.7,-0.2,3.4,-0.3,5.1,-0.6c0.7,1,1.3,2,2,3.1c0.7,-1.2,1.3,-2.4,2,-3.7c1.6,-0.3,3.3,-0.7,5,-1c0.5,0.6,1.2,1.2,1.8,1.9c0.7,-1,1.4,-2.1,2,-3.2c0.8,-0.2,1.7,-0.5,2.3,-0.7c0.6,-0.3,1.2,-0.6,1.7,-0.9c-1.2,-0.5,-2.4,-1.1,-3.5,-1.5c-1.1,-0.4,-2.1,-0.8,-3.1,-1" class="g8_7" />
<path d="M199.4,358l5.5,0l2,-3.1L209,358l5.4,0l2.1,-3.1l2,3.1l5.5,0" class="g8_7" />
<path d="M224,358l2,-3.1l2.1,3.1l5.4,0l2.1,-3.1l2.1,3.5l5.7,0.6l2.1,-2.5l2.1,3l5.7,0.9l2.3,-1.9l2.1,3" class="g8_7" />
<path d="M197.4,354.9l4.8,18.2" class="g6_7" />
<path d="M199.4,358l3.5,11.9l1.3,0" class="g6_7" />
<path d="M200.1,369.9L196.6,358l-1.3,0" class="g6_7" />
<path fill-rule="evenodd" d="M164,363.5c0,10.9,-8.8,19.6,-19.6,19.6c-10.8,0,-19.6,-8.7,-19.6,-19.6C122.2,352.7,133.6,344,144.4,344c8.4,0,19.6,8.7,19.6,19.5Z" class="g14_7" />
<path fill-rule="evenodd" d="M193.9,363.1c0.1,-4.1,1.1,-8,2.7,-11.3c1.6,-3.3,4,-6.3,7.1,-8.8c0.6,0,1.3,0,2,0c0,13.4,0,26.8,0,40.2c-0.6,0,-1.3,0,-2,0c-3.1,-2.5,-5.5,-5.5,-7.1,-8.8c-1.6,-3.3,-2.6,-7.2,-2.7,-11.3Z" class="g14_7" />
<path d="M203.5,345.5l0,35" class="g6_7" />
<path fill-rule="evenodd" d="M155,365.2l0,0.2l0,0.1l0,0.1l0,0.2l-0.1,0.1l-0.1,0.1l0,0.1l-0.1,0.1l-0.1,0.1l-0.1,0.1l-0.1,0l0,0.1l-0.1,0l-0.2,0l-0.1,0.1l-0.1,0.1l-0.1,0l-0.1,0l-0.1,0l-6.4,0l0,6.4l0,0.1l0,0.1l0,0.1l-0.1,0l0,0.2l0,0.1l0,0.1l-0.1,0l0,0.1l-0.1,0.1l-0.1,0.1l-0.1,0.1l-0.1,0l-0.1,0.1l0,0.1l-0.2,0l-0.1,0l-0.1,0l0,0.1l-0.1,0l-0.1,0l-0.1,0l-3.2,0l-0.1,0l-0.1,0l-0.1,-0.1l-0.1,0l-0.1,0l-0.2,0l0,-0.1l-0.1,-0.1l-0.2,-0.1L141.5,374l0,-0.1l-0.1,-0.1l-0.1,-0.1l0,-0.1l-0.1,-0.2l0,-0.1l0,-0.1l0,-0.1l0,-6.4l-6.4,0l-0.1,0l-0.1,0l-0.1,-0.1l-0.1,0l-0.1,-0.1l-0.2,0l-0.1,0l0,-0.1l-0.1,0l-0.1,-0.1l-0.1,-0.1l0,-0.1L133.6,366l0,-0.1l-0.1,0l0,-0.1l-0.1,-0.2l0,-0.1l0,-0.1l0,-0.2l0,-3.1l0,-0.2l0,-0.1l0,-0.1l0.1,-0.1l0,-0.2l0.1,-0.1l0.1,0l0,-0.1l0,-0.1l0.1,-0.1l0.1,0l0.1,0l0,-0.1l0.1,0l0,-0.1l0.2,-0.1l0.1,0l0.1,0l0.1,-0.1l0.1,0l0.1,0l6.4,0l0,-6.3l0,-0.2l0,-0.1l0,-0.1l0,-0.1l0.1,0l0,-0.2l0.1,-0.1l0.1,-0.1l0.1,-0.1l0,-0.1l0.2,-0.1l0.1,0l0,-0.1l0.2,-0.1l0.1,0l0.1,0l0.1,-0.1l0.1,0l0.1,0l3.2,0l0.1,0l0.1,0l0.1,0l0,0.1l0.1,0l0.1,0l0.2,0.1l0,0.1l0.1,0l0.1,0l0.1,0.1l0,0.1l0.1,0.1l0.1,0l0,0.1l0.1,0l0,0.1l0,0.2l0.1,0.1l0,0.1l0,0.1l0,0.2l0,6.3l6.4,0l0.1,0l0.1,0l0.1,0l0.1,0.1l0.1,0l0.2,0.1l0,0.1l0.1,0l0,0.1l0.1,0l0.1,0l0.1,0.1l0,0.1l0.1,0.1l0.1,0l0,0.1l0.1,0.2l0,0.1l0,0.1l0,0.1l0,0.2Z" class="g13_7" />
<path fill-rule="evenodd" d="M389.1,784.2L327.9,763.4l0.6,-14.1l62.2,24.8Z" class="g7_7" />
<path d="M613.2,670.8L828.4,604" class="g6_7" />
<path d="M613.5,753.5l0,205" class="g6_7" />
<path d="M770.8,721.4l-6.4,3c0,0,-3,2.3,-2.3,6.8c0.8,4.5,3.8,6.2,6.4,5.8c2.6,-0.4,9.1,-1.2,9.1,-1.2" class="g8_7" />
<path d="M770.8,721.4l0.2,7.9c0,0,-0.1,2.2,1.9,2.8c2,0.7,3.9,0.5,3.9,0.5l1.8,8.4c0,0,0.6,2.7,2.5,3c1.8,0.4,4.3,0.4,7.2,-0.4c2.9,-0.7,14,-3.9,14,-3.9c0,0,1.4,-0.8,1.5,-1.9c0.1,-1,0.9,-5.1,0.9,-5.1" class="g8_7" />
<path d="M770.8,721.4c0,-1.1,1.1,-2.2,2.8,-3.2c1.6,-1,21.7,-6.8,21.7,-6.8c0,0,2.5,0.2,4.7,0.6" class="g8_7" />
<path d="M790.6,714.2l0,7.6c0,0,0.7,2.1,1.7,2.6c0.9,0.4,1.8,1.5,1.8,1.5c0,0,1,0.3,1.1,1.5c0.1,1.2,0.8,7.4,0.8,7.4c0,0,0.1,2.6,1.6,3c1.4,0.4,4.2,1.1,4.2,1.1" class="g6_7" />
<path d="M790.3,723.4l-18.4,5.7" class="g6_7" />
<path d="M794.2,726.6l-17.1,5.3" class="g6_7" />
<path d="M796.2,737.1l-15.9,5.3" class="g6_7" />
<path d="M799.2,729l14,-4.1c0,0,2.4,-0.5,3.2,1c0.8,1.4,0.3,3,-1.8,3.7c-2.1,0.7,-13.9,4.1,-13.9,4.1" class="g8_7" />
<path d="M794.8,713.6l10.5,-3.2l1.3,0.2c0,0,2.7,1.7,0.1,6.5" class="g8_7" />
<path d="M795.9,720.4l10.8,-3.3" class="g8_7" />
<path d="M807.7,715.4l7.1,-2.1l1.4,0.2c0,0,2.7,1.7,0,6.5" class="g8_7" />
<path d="M805.4,723.3L816.2,720" class="g8_7" />
<path d="M805.4,723.6l-1.5,-0.4L804,718" class="g6_7" />
<path d="M799,729.1c-1.2,0.3,-0.7,2.5,-0.6,3.1c0.2,0.5,1.1,2,2.3,1.5" class="g6_7" />
<path d="M804.2,712.8c0.7,0.3,0.9,1.2,0.5,2c-0.3,0.8,-1.1,1.2,-1.8,1c-0.6,-0.3,-0.9,-1.2,-0.5,-2c0.4,-0.8,1.2,-1.3,1.8,-1Z" class="g6_7" />
<path d="M813.5,715.7c0.6,0.3,0.9,1.2,0.5,2c-0.3,0.8,-1.1,1.3,-1.8,1c-0.6,-0.3,-0.9,-1.2,-0.5,-2c0.3,-0.8,1.1,-1.2,1.8,-1Z" class="g6_7" />
<path d="M795.9,720.2l-1.5,-0.4l0.1,-5.3" class="g6_7" />
<path d="M805.2,710.8c0,0,2.7,1.8,0.1,6.6" class="g6_7" />
<path d="M814.7,713.7c0,0,2.7,1.7,0.1,6.5" class="g6_7" />
<path d="M762.3,727.6c-12.8,3.7,-72.8,20.8,-131.3,17.5c-10.8,-0.7,-22,-3.2,-30.4,-7.9c-7.4,-4.1,-13.9,-8.7,-24.8,-20.3C571.2,712,564.2,703.1,559.4,694.4c-16.1,-29.2,40.6,-74.8,40,-94.1C598.9,580.9,572,584.2,556.9,589.1" class="g8_7" />
<path d="M559.9,597.7c11,-2.7,27.2,-5.5,30.1,1c2.9,6.5,-3.8,14.6,-9,21.4c-7,9.2,-15.4,21.3,-19.7,28.3c-7.4,12.1,-11.4,21.4,-12.1,30c-0.8,8.9,0.6,16.6,6,24.4c21.5,30.7,39.6,48.1,78.9,50c26.5,1.4,51.4,-2.1,81,-6.4c14.5,-2.1,31.4,-6.6,49,-10.9" class="g8_7" />
<path d="M441.1,550l0,-41.3c0,0,-0.3,-1.3,-1.4,-1.6c-1.1,-0.2,-47.8,-14.7,-47.8,-14.7c0,0,-4.3,-0.8,-7.6,0c-3.3,0.8,-142.1,43.2,-142.1,43.2c0,0,-2.2,0.5,-2.2,2.6c0,2.2,0,40.7,0,40.7c0,0,-0.3,1.7,1.8,2.5c2.1,0.8,8.2,2.6,8.2,2.6" class="g8_7" />
<path d="M439.3,506.8c0,0.2,2.7,-0.7,2.7,-0.7c0,0,0.4,-0.2,1.7,0.1c1.2,0.2,12.3,3.9,12.3,3.9c0,0,1,0.5,1,1.5c0,0.9,0,2.4,0,2.4c0,0,-0.2,0.6,-0.9,0.9c-0.6,0.3,-13.7,4.2,-13.7,4.2" class="g8_7" />
<path d="M457,514c0,-0.4,-0.2,-0.5,-0.5,-0.7c-0.4,-0.2,-12.8,-4,-12.8,-4c0,0,-0.6,-0.2,-1,0.1" class="g6_7" />
<path d="M442.7,509.4c-0.3,0.2,-0.3,0.6,-0.3,0.9c0,0.3,0,39.9,0,40.9c0,1.1,-0.6,2.5,-2.7,3.3c-2.2,0.8,-62.7,18.8,-63.5,19c-0.8,0.3,-1.6,0.3,-2.3,0c-0.8,-0.2,-4.3,-1.4,-4.3,-1.4c0,0,-1.6,-0.3,-2.6,0.1c-1,0.4,-21.3,6.4,-21.3,6.4c0,0,-0.8,0.4,0,0.8" class="g8_7" />
<path d="M370.8,597.1l184.2,56" class="g6_7" />
<path d="M424.7,580.1c23.8,7.7,53.7,14.2,70,15.1c16.3,0.9,39.8,0.1,54.5,-4" class="g8_7" />
<path d="M422.2,588.9c23.8,7.7,53.1,13.5,71.4,15c18.3,1.4,43.3,0,57.9,-4" class="g8_7" />
<path d="M387.5,494.5l0,37" class="g6_7" />
<path d="M389.5,495.5l0,37" class="g6_7" />
<path d="M340.6,584.4c6.9,1.7,14.7,3.3,22.3,3.5c11.4,0.4,17.8,-2.8,21.8,-6.5c4.1,-3.7,11,-7.4,19.8,-6.1c8.9,1.2,12.4,2.4,12.4,2.4" class="g8_7" />
<path d="M321.5,588.9c8.4,2.3,24.9,6,24.9,6c0,0,21,3.5,29.1,1.1c8.1,-2.4,13.7,-6.6,16,-8.3c2.3,-1.8,6.5,-4.8,16.6,-2.8c1.7,0.3,3.4,0.7,5.6,1.5" class="g8_7" />
<path d="M424.9,570.7l-12.3,3.5c0,0,-2.4,0.6,-2.9,1.7" class="g8_7" />
<path d="M424.9,570.7l6.9,2l-0.1,1.1L428,575" class="g8_7" />
<path d="M406.7,585.1c0.3,2.2,1.8,3.6,3.1,4.1c1.4,0.5,7.4,2.2,7.4,2.2c0,0,4.2,0.1,6.6,-5.3" class="g8_7" />
<path d="M423.8,586.1c0.7,-1.6,0.7,-4.8,0.4,-6.1" class="g8_7" />
<path d="M424.2,580l7.4,-2.7l0,-1L425,574.2l-6.2,1.7" class="g8_7" />
<path d="M418.8,575.9c-1.1,0.4,-2,2.2,-2,3.3c-0.1,1.1,-0.2,9.4,-7.3,9.6" class="g8_7" />
<path d="M418.7,577.9l4.3,1.5" class="g6_7" />
<path d="M425.2,576.1c1.5,0,2.7,0.4,2.7,1c0,0.5,-1.2,1,-2.7,1c-1.5,0,-2.7,-0.5,-2.7,-1c0,-0.6,1.2,-1,2.7,-1Z" class="g6_7" />
<path d="M425.2,572.4c1.5,0,2.7,0.4,2.7,1c0,0.5,-1.2,1,-2.7,1c-1.5,0,-2.7,-0.5,-2.7,-1c0,-0.6,1.2,-1,2.7,-1Z" class="g6_7" />
<path d="M425,635l0,-57" class="g15_7" />
<path d="M425.5,635.5l0,-58" class="g16_7" />
<path d="M423.1,647.2l0.1,-6.1l1.9,-4.2l2.1,3.9l0,6.5" class="g6_7" />
<path d="M425.1,647.4c2.5,0,4.5,0.9,4.5,2c0,1.1,-2,2.9,-4.5,2.9c-2.5,0,-4.5,-1.8,-4.5,-2.9c0,-1.1,2,-2,4.5,-2Z" class="g6_7" />
<path d="M426.5,651.5c0,-0.3,0.3,-0.6,0.7,-0.9l-0.6,-0.4c-0.4,0.8,-2.3,1,-3.4,0.2l-0.3,0.3c0.5,0.3,0.4,0.3,0.5,0.8" class="g6_7" />
<path d="M423.1,646.1c0,-0.5,0.9,-0.9,2.1,-0.9c1.1,0,2,0.4,2,0.9" class="g6_7" />
<path d="M423.1,644.5c0,-0.5,0.9,-0.9,2.1,-0.9c1.1,0,2,0.4,2,0.9" class="g6_7" />
<path d="M423.1,643.1c0,-0.6,0.9,-1,2.1,-1c1.1,0,2,0.4,2,1" class="g6_7" />
<path d="M423.1,641.4c0,-0.5,0.9,-0.9,2.1,-0.9c1.1,0,2,0.4,2,0.9" class="g6_7" />
<path d="M392.6,586.8c4.8,-3.5,13.1,-6.6,15.6,-5.5" class="g8_7" />
<path d="M315.1,526.3l-7.5,2.3l-0.1,3.9" class="g6_7" />
<path d="M307.5,532.5l7.7,-2.2l-0.1,-4" class="g8_7" />
<path d="M309.1,531.5l0,-1.8l5.7,-1.7" class="g6_7" />
<path d="M307.6,528.6l1.5,1.1" class="g6_7" />
<path d="M315.1,539.1l-7.5,2.4l-0.1,3.8" class="g6_7" />
<path d="M307.5,545.3l7.7,-2.1l-0.1,-4.1" class="g8_7" />
<path d="M309.1,544.3l0,-1.8l5.7,-1.7" class="g6_7" />
<path d="M307.6,541.5l1.5,1" class="g6_7" />
<path d="M337.7,519.7l-7.5,2.3l-0.1,3.9" class="g6_7" />
<path d="M330.1,525.9l7.7,-2.2l-0.1,-4" class="g8_7" />
<path d="M331.7,524.9l0,-1.8l5.6,-1.7" class="g6_7" />
<path d="M330.2,522l1.5,1.1" class="g6_7" />
<path d="M337.7,532.5l-7.5,2.3l-0.1,3.9" class="g6_7" />
<path d="M330.1,538.7l7.7,-2.2l-0.1,-4" class="g8_7" />
<path d="M331.7,537.7l0,-1.8l5.6,-1.7" class="g6_7" />
<path d="M330.2,534.8l1.5,1.1" class="g6_7" />
<path d="M299.7,542.8l0,-6.8l2.6,-1.2" class="g6_7" />
<path d="M301.5,542.4l0,-5.5l2.6,-1.2" class="g6_7" />
<path d="M299.7,542.8l2.9,-0.7c0,0,3.7,-1.5,2.1,-6.3" class="g8_7" />
<path d="M304.6,535.6c-0.4,-0.8,-1.2,-1.3,-2.3,-0.8" class="g6_7" />
<path d="M301.5,536.9L299.7,536" class="g6_7" />
<path d="M322,536.1l0,-6.8l2.6,-1.2" class="g6_7" />
<path d="M323.8,535.7l0,-5.5l2.6,-1.2" class="g6_7" />
<path d="M322,536.1l2.9,-0.6c0,0,3.8,-1.6,2.1,-6.4" class="g8_7" />
<path d="M326.9,528.9c-0.4,-0.8,-1.2,-1.3,-2.3,-0.8" class="g6_7" />
<path d="M323.8,530.2L322,529.3" class="g6_7" />
<path d="M364.1,512.9c0.4,0.2,0.4,0.6,0.4,0.9c0,0.2,-0.1,4.1,-0.1,4.1c0,0,0,1,-0.7,1.3c-0.7,0.3,-7.9,2.5,-7.9,2.5c0,0,-1,0.1,-1.1,-0.1" class="g8_7" />
<path d="M354.4,521l0,-4.1c0,0,0.2,-1.4,1.4,-1.8c1.1,-0.3,7.6,-2.4,7.6,-2.4" class="g6_7" />
<path d="M355.7,521.8l0,-4.2c0,0,0.2,-1.3,1.3,-1.7c1.2,-0.3,7.7,-2.5,7.7,-2.5" class="g6_7" />
<path d="M357.6,519.4l-0.1,-1.6l6.2,-2.1" class="g8_7" />
<path d="M357.6,519.4l1.6,0.8" class="g8_7" />
<path d="M357.6,519.4l6.3,-2" class="g6_7" />
<path d="M364.1,521.7c0.4,0.3,0.4,0.6,0.4,0.9c0,0.3,-0.1,4.1,-0.1,4.1c0,0,0,1,-0.7,1.3c-0.7,0.4,-7.9,2.5,-7.9,2.5c0,0,-1,0.2,-1.1,-0.1" class="g8_7" />
<path d="M354.4,529.9l0,-4.2c0,0,0.2,-1.4,1.4,-1.7c1.1,-0.4,7.6,-2.5,7.6,-2.5" class="g6_7" />
<path d="M355.7,530.6l0,-4.1c0,0,0.2,-1.4,1.3,-1.7c1.2,-0.4,7.7,-2.5,7.7,-2.5" class="g6_7" />
<path d="M357.6,528.3l-0.1,-1.7l6.2,-2" class="g8_7" />
<path d="M357.6,528.3l6.3,-2.1" class="g6_7" />
<path d="M253.6,585.4c0,-0.7,2,-1.3,4.4,-1.3c2.5,0,4.4,0.6,4.4,1.3" class="g6_7" />
<path d="M262.4,585.4c0,0.7,-1.9,1.3,-4.4,1.3c-2.4,0,-4.4,-0.6,-4.4,-1.3" class="g6_7" />
<path d="M262,585.1c0,0.7,-1.8,1.3,-4,1.3c-2.2,0,-4,-0.6,-4,-1.3" class="g6_7" />
<path d="M254.8,584.8c0.4,-0.3,1.6,-0.7,3.2,-0.7c1.6,0,2.8,0.3,3.2,0.8" class="g6_7" />
<path d="M256.4,585.1l0.6,-0.3c0,0,0.9,0.9,2.2,0.1" class="g6_7" />
<path d="M259.2,584.9l0.5,0.2c0.2,0.1,-2,1.1,-0.1,1.1" class="g6_7" />
<path d="M256.4,585.1c0.9,0.5,1,0.9,0,1.1" class="g6_7" />
<path d="M275.5,592c0,-0.7,2,-1.3,4.4,-1.3c2.5,0,4.4,0.6,4.4,1.3" class="g6_7" />
<path d="M284.3,592c0,0.7,-1.9,1.3,-4.4,1.3c-2.4,0,-4.4,-0.6,-4.4,-1.3" class="g6_7" />
<path d="M283.9,591.6c0,0.8,-1.8,1.4,-4,1.4c-2.2,0,-4,-0.6,-4,-1.4" class="g6_7" />
<path d="M276.7,591.4c0.4,-0.4,1.6,-0.7,3.2,-0.7c1.6,0,2.8,0.3,3.2,0.7" class="g6_7" />
<path d="M278.3,591.7l0.6,-0.3c0,0,0.9,0.9,2.2,0" class="g6_7" />
<path d="M281.1,591.4l0.5,0.3c0.2,0,-2.1,1.1,-0.1,1.1" class="g6_7" />
<path d="M278.3,591.7c0.9,0.4,1,0.9,0,1.1" class="g6_7" />
<path d="M391,544c0,-0.7,1.9,-1.3,4.4,-1.3c2.4,0,4.4,0.6,4.4,1.3" class="g6_7" />
<path d="M399.8,544c0,0.7,-2,1.3,-4.4,1.3c-2.5,0,-4.4,-0.6,-4.4,-1.3" class="g6_7" />
<path d="M399.4,543.7c0,0.7,-1.8,1.3,-4,1.3c-2.2,0,-4,-0.6,-4,-1.3" class="g6_7" />
<path d="M392.2,543.5c0.3,-0.4,1.6,-0.8,3.2,-0.8c1.6,0,2.8,0.3,3.2,0.8" class="g6_7" />
<path d="M393.8,543.7l0.6,-0.3c0,0,0.9,0.9,2.2,0.1" class="g6_7" />
<path d="M396.6,543.5l0.5,0.2c0.2,0.1,-2.1,1.1,-0.1,1.1" class="g6_7" />
<path d="M393.8,543.7c0.9,0.5,1,0.9,0,1.1" class="g6_7" />
<path d="M412.5,550.6c0,-0.7,2,-1.3,4.5,-1.3c2.4,0,4.4,0.6,4.4,1.3" class="g6_7" />
<path d="M421.4,550.6c0,0.7,-2,1.3,-4.4,1.3c-2.5,0,-4.5,-0.6,-4.5,-1.3" class="g6_7" />
<path d="M420.9,550.3c0,0.7,-1.8,1.3,-4,1.3c-2.2,0,-4,-0.6,-4,-1.3" class="g6_7" />
<path d="M413.8,550c0.3,-0.3,1.5,-0.7,3.1,-0.7c1.6,0,2.9,0.3,3.2,0.8" class="g6_7" />
<path d="M415.4,550.3l0.5,-0.3c0,0,1,0.9,2.3,0.1" class="g6_7" />
<path d="M418.2,550.1l0.5,0.2c0.1,0.1,-2.1,1.1,-0.1,1.1" class="g6_7" />
<path d="M415.4,550.3c0.9,0.5,0.9,0.9,0,1.1" class="g6_7" />
<path d="M568.1,657l45.8,13.9" class="g6_7" />
<path d="M613.5,670.5l0,69" class="g6_7" />
<path d="M549,581.4l12.3,3.6c0,0,2.4,0.5,2.9,1.7" class="g8_7" />
<path d="M549,581.4l-6.8,2l0,1.2l3.7,1.2" class="g8_7" />
<path d="M567.2,595.8c-0.3,2.2,-1.8,3.7,-3.1,4.2c-1.4,0.4,-7.4,2.1,-7.4,2.1c0,0,-4.2,0.2,-6.6,-5.3" class="g8_7" />
<path d="M550.1,596.8c-0.7,-1.5,-0.7,-4.8,-0.4,-6.1" class="g8_7" />
<path d="M549.7,590.7l-7.4,-2.6l0,-1l6.6,-2.1l6.3,1.6" class="g8_7" />
<path d="M555.2,586.6c1,0.5,1.9,2.3,1.9,3.4c0.1,1,0.2,9.3,7.3,9.5" class="g8_7" />
<path d="M555.3,588.6l-4.4,1.6" class="g6_7" />
<path d="M548.7,586.9c-1.5,0,-2.7,0.4,-2.7,0.9c0,0.6,1.2,1,2.7,1c1.5,0,2.7,-0.4,2.7,-1c0,-0.5,-1.2,-0.9,-2.7,-0.9Z" class="g6_7" />
<path d="M548.7,583.2c-1.5,0,-2.7,0.4,-2.7,0.9c0,0.6,1.2,1,2.7,1c1.5,0,2.7,-0.4,2.7,-1c0,-0.5,-1.2,-0.9,-2.7,-0.9Z" class="g6_7" />
<path d="M548,616l0,-27" class="g15_7" />
<path d="M548.5,616.5l0,-28" class="g16_7" />
<path d="M546.5,628.2l0.1,-6.1l1.9,-4.2l2.2,3.9l0,6.5" class="g6_7" />
<path d="M548.5,628.4c2.5,0,4.5,0.9,4.5,2c0,1.1,-2,2.9,-4.5,2.9c-2.5,0,-4.5,-1.8,-4.5,-2.9c0,-1.1,2,-2,4.5,-2Z" class="g6_7" />
<path d="M550,632.5c0,-0.3,0.2,-0.6,0.6,-0.9L550,631.2c-0.4,0.8,-2.3,1,-3.3,0.2l-0.4,0.3c0.5,0.3,0.5,0.3,0.6,0.8" class="g6_7" />
<path d="M546.5,627.1c0,-0.5,0.9,-0.9,2.1,-0.9c1.1,0,2.1,0.4,2.1,0.9" class="g6_7" />
<path d="M546.5,625.5c0,-0.5,0.9,-1,2.1,-1c1.1,0,2.1,0.5,2.1,1" class="g6_7" />
<path d="M546.5,624.1c0,-0.6,0.9,-1,2.1,-1c1.1,0,2.1,0.4,2.1,1" class="g6_7" />
<path d="M546.5,622.4c0,-0.5,0.9,-0.9,2.1,-0.9c1.1,0,2.1,0.4,2.1,0.9" class="g6_7" />
<path d="M587,595.9c2.7,1.6,6.7,4.9,6.2,8.1" class="g8_7" />
<path d="M250.9,580.9c-0.4,0.3,-0.6,0.8,-0.6,1.6c-0.1,2.3,-0.6,3.1,1.9,4.1c2.5,1,34.4,10.5,34.4,10.5c0,0,4.1,0.9,7.9,-0.2c3.8,-1.1,31.3,-9.5,31.3,-9.5c0,0,1.5,-0.4,2.1,-0.2c0.7,0.2,1.5,0.5,3,0c1.4,-0.5,20.1,-6.1,20.1,-6.1c0,0,2.9,-1.1,3,-4.3" class="g8_7" />
<path d="M441.3,550.1c-0.1,0.9,-1.2,1.3,-1.9,1.2c-0.8,0,-39.9,-12.2,-39.9,-12.2c0,0,-5.9,-1.3,-10.6,-0.1c-4.7,1.3,-136.2,41.1,-136.2,41.1c0,0,-1.1,0,-1.8,0.8" class="g6_7" />
<path d="M358.4,575.6c1.2,0.5,2.8,0.7,4.2,0.2c1.5,-0.5,8.1,-2.8,8.1,-2.8" class="g8_7" />
<path d="M350.4,580.7l-4.7,-1.3" class="g6_7" />
<path d="M441.3,553.3c-0.1,0.9,-1.2,1.3,-1.9,1.2c-0.8,0,-39.9,-12.2,-39.9,-12.2c0,0,-5.9,-1.3,-10.6,-0.1c-4.7,1.3,-136.2,41.1,-136.2,41.1c0,0,-2.3,0,-2.4,2.3" class="g6_7" />
<path d="M263.7,532.4l-7.2,2.2c0,0,-2,1.1,-2,3.3c0,2.3,0,30.8,0,30.8c0,0,-0.1,2.5,2.1,1.9c2.2,-0.5,7.5,-2.3,7.5,-2.3c0,0,2.2,-0.8,2.3,-3.6c0.2,-2.8,0,-30.5,0,-30.5c0,0,-0.1,-2.6,-2.7,-1.8Z" class="g6_7" />
<path d="M260.1,567.8c1.6,-0.5,4.6,-3.4,4.6,-7.3c-0.1,-3.8,-0.2,-21.8,-0.2,-21.8c0,0,-0.3,-2.2,-1.9,-2.8" class="g8_7" />
<path d="M256.2,560.8l0,2.9c0,0,0.4,1.6,1,2.2" class="g6_7" />
<path d="M263.2,563.3L259.4,562c0,0,-2.3,-0.3,-2.5,2.6c-0.1,3,2.2,3,3.2,3.2" class="g8_7" />
<path d="M258.7,561.3l-2.5,-0.5c-0.6,-0.2,-1,-0.6,-1,-1.5C255.1,558.3,255,546,255,546c0,0,0.1,-2.1,1.6,-2c1.6,0.1,3.5,-0.2,3.5,-0.2l1.6,0.7l2.1,0.6" class="g8_7" />
<path d="M256.2,560.8c1.8,-1.1,4.1,-2.7,4.1,-2.7c0,0,1,-0.1,0.8,-2.3c-0.1,-2.1,0,-9.3,0,-9.3c0,0,-0.4,-2.7,-1.8,-2.6" class="g6_7" />
<path d="M259.1,563.2c0.6,0.1,0.8,0.9,0.6,1.6c-0.3,0.8,-0.9,1.3,-1.4,1.1c-0.6,-0.1,-0.8,-0.9,-0.5,-1.7c0.2,-0.7,0.8,-1.2,1.3,-1Z" class="g6_7" />
<path d="M263.4,538.1l-3.9,-1.2c0,0,-2.3,-0.3,-2.4,2.6c-0.2,2.9,4,3.5,5,3.7" class="g8_7" />
<path d="M259.3,538c0.5,0.2,0.8,0.9,0.5,1.7c-0.2,0.8,-0.8,1.3,-1.4,1.1c-0.5,-0.2,-0.7,-0.9,-0.5,-1.7c0.3,-0.8,0.9,-1.2,1.4,-1.1Z" class="g6_7" />
<path d="M259.1,567.2c0.4,-0.8,1.1,-1.7,1.4,-1.8" class="g6_7" />
<path d="M260.7,562.9c-0.4,0.2,-0.4,2,-0.2,2.5" class="g6_7" />
<path d="M260.5,565.4l1.2,0.4" class="g6_7" />
<path d="M259.2,542c0.4,-0.8,1.1,-1.7,1.4,-1.8" class="g6_7" />
<path d="M260.8,537.7c-0.4,0.2,-0.4,1.9,-0.2,2.5" class="g6_7" />
<path d="M260.6,540.2l3.5,1.2" class="g6_7" />
<path d="M262.4,543.3c0.5,-0.9,1.1,-1.8,1.4,-1.8" class="g6_7" />
<path d="M261.6,557.8l2.6,1.2" class="g6_7" />
<path d="M262.6,535.9c-0.6,-0.4,-2.9,-0.3,-3.5,0.3" class="g6_7" />
<path d="M256.7,539.9c-0.3,0.9,-0.1,4.1,-0.1,4.1" class="g6_7" />
<path d="M292.8,532.9l-7.5,2.3l-0.1,3.9" class="g6_7" />
<path d="M285.2,539.1l7.7,-2.2l-0.1,-4" class="g8_7" />
<path d="M286.8,538.1l0,-1.8l5.7,-1.7" class="g6_7" />
<path d="M285.3,535.2l1.5,1.1" class="g6_7" />
<path d="M292.8,545.7l-7.5,2.3l-0.1,3.9" class="g6_7" />
<path d="M285.2,551.9l7.7,-2.2l-0.1,-4" class="g8_7" />
<path d="M286.8,550.9l0,-1.8l5.7,-1.7" class="g6_7" />
<path d="M285.3,548l1.5,1.1" class="g6_7" />
<path d="M277.4,549.4l0,-6.9l2.6,-1.1" class="g6_7" />
<path d="M279.2,548.9l0,-5.5l2.6,-1.1" class="g6_7" />
<path d="M277.4,549.4l2.9,-0.7c0,0,3.8,-1.6,2.1,-6.4" class="g8_7" />
<path d="M282.3,542.2c-0.4,-0.8,-1.2,-1.3,-2.3,-0.8" class="g6_7" />
<path d="M279.2,543.4l-1.8,-0.9" class="g6_7" />
<path d="M193.8,543.6L237.9,557" class="g6_7" />
<path d="M404.5,172.5l126,0" class="g6_7" />
<image x="102" y="102" width="114" height="39" xlink:href="img/1.png" />
</svg>