<?xml version="1.0" encoding="UTF-8" standalone="no"?>
<!DOCTYPE svg PUBLIC "-//W3C//DTD SVG 1.1//EN"
"http://www.w3.org/Graphics/SVG/1.1/DTD/svg11.dtd">
<svg viewBox="0 0 935 1210" version="1.1" xmlns="http://www.w3.org/2000/svg" xmlns:xlink="http://www.w3.org/1999/xlink">
<defs>
<style type="text/css"><![CDATA[
.g11_3{
fill: #E0E0E0;
}
.g13_3{
fill: none;
stroke: #000000;
stroke-width: 4;
stroke-linecap: round;
stroke-linejoin: round;
stroke-miterlimit: 2;
}
.g2_3{
fill: none;
stroke: #FFFFFF;
stroke-width: 3;
stroke-linecap: round;
stroke-linejoin: miter;
stroke-miterlimit: 2;
}
.g3_3{
fill: #FFFFFF;
stroke: #000000;
stroke-width: 2;
stroke-linecap: butt;
stroke-linejoin: miter;
stroke-miterlimit: 2;
}
.g1_3{
fill: #B3B3B3;
}
.g7_3{
fill: #636363;
stroke: #000000;
stroke-width: 1;
stroke-linecap: butt;
stroke-linejoin: miter;
stroke-miterlimit: 2;
}
.g10_3{
fill: none;
stroke: #000000;
stroke-width: 2;
stroke-linecap: round;
stroke-linejoin: round;
stroke-miterlimit: 2;
}
.g14_3{
fill: none;
stroke: #FFFFFF;
stroke-width: 2;
stroke-linecap: round;
stroke-linejoin: round;
stroke-miterlimit: 2;
}
.g5_3{
fill: none;
stroke: #000000;
stroke-width: 2;
stroke-linecap: butt;
stroke-linejoin: miter;
stroke-miterlimit: 2;
}
.g15_3{
fill: none;
stroke: #808080;
stroke-width: 2;
stroke-linecap: round;
stroke-linejoin: round;
stroke-miterlimit: 2;
}
.g12_3{
stroke: #000000;
stroke-width: 2;
stroke-linecap: round;
stroke-linejoin: round;
stroke-miterlimit: 2;
}
.g4_3{
fill: none;
stroke: #000000;
stroke-width: 1;
stroke-linecap: butt;
stroke-linejoin: miter;
stroke-miterlimit: 2;
}
.g9_3{
fill: #FFFFFF;
}
.g6_3{
}
.g8_3{
fill: none;
stroke: #000000;
stroke-width: 1;
stroke-linecap: round;
stroke-linejoin: round;
stroke-miterlimit: 2;
}
]]></style>
</defs>
<path fill-rule="evenodd" d="M55,54l824,0l0,1101l-824,0Z" class="g1_3" />
<path d="M55.5,256.5l27,0" class="g2_3" />
<path d="M55.5,430.5l27,0" class="g2_3" />
<path d="M55.5,605.5l27,0" class="g2_3" />
<path d="M55.5,779.5l27,0" class="g2_3" />
<path d="M55.5,953.5l27,0" class="g2_3" />
<path d="M852.5,256.5l28,0" class="g2_3" />
<path d="M852.5,605.5l28,0" class="g2_3" />
<path d="M236.5,82.5l0,-27" class="g2_3" />
<path d="M390.5,82.5l0,-27" class="g2_3" />
<path d="M544.5,82.5l0,-27" class="g2_3" />
<path d="M698.5,82.5l0,-27" class="g2_3" />
<path d="M236.5,1155.5l0,-28" class="g2_3" />
<path d="M390.5,1155.5l0,-28" class="g2_3" />
<path d="M544.5,1155.5l0,-28" class="g2_3" />
<path d="M698.5,1155.5l0,-28" class="g2_3" />
<path d="M852.5,430.5l28,0" class="g2_3" />
<path d="M852.5,779.5l28,0" class="g2_3" />
<path d="M852.5,953.5l28,0" class="g2_3" />
<path fill-rule="evenodd" d="M82,82l770,0l0,1045l-770,0Z" class="g3_3" />
<path d="M184.5,209.5l646,0" class="g4_3" />
<path d="M103.5,278.5l727,0" class="g4_3" />
<path d="M82,1097l770,0" class="g5_3" />
<path d="M466.5,1099.5l0,28" class="g4_3" />
<path d="M468.5,1099.5l0,28" class="g4_3" />
<path d="M272.5,1099.5l0,28" class="g4_3" />
<path d="M274.5,1099.5l0,28" class="g4_3" />
<path d="M664.5,1099.5l0,28" class="g4_3" />
<path d="M666.5,1099.5l0,28" class="g4_3" />
<path fill-rule="evenodd" d="M106,289l37,0l0,38l-37,0Z" class="g6_3" />
<path fill-rule="evenodd" d="M103.5,287.5l38,0l0,37l-38,0Z" class="g7_3" />
<path d="M274.5,1099.5l192,0" class="g8_3" />
<path d="M468.5,1099.5l196,0" class="g8_3" />
<path d="M666.5,1099.5l186,0" class="g8_3" />
<path d="M272.5,1099.5l-190,0" class="g8_3" />
<path fill-rule="evenodd" d="M398.8,248.9C414.1,240,429.6,231.1,445,222.1c0.6,-0.7,1.2,-1.5,1.7,-2.3c0.3,-0.3,0.3,-0.6,0.3,-0.7c-0.1,-0.2,-0.4,-0.3,-0.7,-0.3c-1,0.1,-2.1,0.2,-3.1,0.3c-15.2,8.8,-30.4,17.7,-45.7,26.5c0.4,1.1,0.8,2.2,1.3,3.3Z" class="g9_3" />
<path d="M387.5,255.4c19.1,-11.1,38.3,-22.2,57.5,-33.3c0.6,-0.7,1.2,-1.5,1.7,-2.3c0.3,-0.3,0.3,-0.6,0.3,-0.7c-0.1,-0.2,-0.4,-0.3,-0.7,-0.3c-1,0.1,-2.1,0.2,-3.1,0.3c-19,11,-38,21.9,-57,33" class="g10_3" />
<path d="M444.1,221.9c0.1,-0.6,0.6,-1.1,1,-1.4c0.4,-0.4,1,-0.7,1.6,-0.9" class="g8_3" />
<path d="M442.6,220.1c0.8,0,1.5,-0.2,2.2,-0.4c0.6,-0.2,1.2,-0.5,1.6,-0.8" class="g8_3" />
<path fill-rule="evenodd" d="M403.2,236.9c-0.8,0.5,-1.7,1,-2.6,1.5c-0.4,0.3,-0.8,0.7,-1.1,1.1c-0.3,0.4,-0.6,1,-0.7,1.6c0,0.4,0,0.8,-0.1,0.9c-0.2,0.1,-0.4,0.1,-0.7,0c-0.8,-0.6,-1.8,-1,-2.7,-1.1c-0.9,-0.1,-1.9,0.1,-2.7,0.4c-9.2,5.4,-18.5,10.7,-27.7,16c-2,2,-3.2,4,-3.5,5.9c-0.3,1.9,0.2,3.8,1.5,5.6c1.7,1.9,3.5,3.1,5.3,3.4c1.9,0.3,4,-0.2,6.1,-1.5c8.7,-5,17.3,-10,26,-15c0.9,-0.8,1.6,-1.7,2,-2.5c0.4,-0.9,0.6,-1.9,0.6,-2.9c0,-0.4,0.2,-0.7,0.3,-0.8c0.2,0,0.5,0.1,0.8,0.4c0.5,0.2,1,0.5,1.5,0.5c0.4,0,0.9,-0.1,1.3,-0.3c1,-0.5,2.1,-1.1,3.1,-1.7c0.9,-0.9,1.3,-2.1,1.2,-3.4c0,-1.3,-0.7,-2.9,-1.7,-4.6c-1.1,-1.5,-2.2,-2.5,-3.2,-3.1c-1,-0.6,-2,-0.7,-3,-0.4Z" class="g9_3" />
<path d="M398.9,242c-0.1,-1.5,0.4,-2.8,1.3,-3.3c1,-0.5,1.9,-1.1,2.9,-1.7c1.8,-1,4.8,0.7,6.6,3.9c1.8,3.1,1.8,6.5,0,7.6c-0.9,0.5,-1.9,1.1,-2.9,1.6c-0.9,0.6,-2.3,0.3,-3.6,-0.5" class="g10_3" />
<path d="M402.3,250.9c-0.1,-1.5,-0.6,-3.2,-1.6,-4.9c-0.7,-1.2,-1.6,-2.3,-2.6,-3.1" class="g8_3" />
<path d="M403,248.9c-0.1,-1.1,-0.4,-2.3,-1.1,-3.5c-0.7,-1.2,-1.6,-2.1,-2.4,-2.7" class="g8_3" />
<path d="M404.9,249.5c-0.7,-0.2,-1.2,-0.2,-1.5,-0.2c-0.3,0.1,-0.5,0.4,-0.5,0.8c0,1.2,-0.2,2.4,-0.6,3.2c-0.4,0.9,-1.1,1.7,-1.8,2.2c-9.3,5.3,-18.5,10.7,-27.7,16c-1.2,0.6,-2,0.8,-3.4,0.8c-4.4,0,-8,-3.7,-8,-8.1c0,-2.6,1.4,-5.1,3.5,-6.6c9.1,-5.4,18.3,-10.7,27.6,-16.1c0.7,-0.3,1.6,-0.5,2.5,-0.5c0.8,0.1,1.9,0.5,3,1c0.4,0.3,0.9,0.3,1.2,0.1c0.3,-0.1,0.5,-0.5,0.6,-1.1" class="g10_3" />
<path d="M366.2,257.6c2.1,0.2,4.5,2.1,6.2,5c1.5,2.7,2,5.6,1.4,7.5" class="g8_3" />
<path d="M406.3,250c1.4,-1.1,1.3,-4.1,-0.3,-7c-1.7,-2.8,-4.3,-4.5,-6,-3.8" class="g8_3" />
<path d="M370.1,257.7L395,243.2" class="g8_3" />
<path d="M372.5,259.1l24.2,-14.4" class="g8_3" />
<path d="M375.1,264.1l24.5,-14.8" class="g8_3" />
<path d="M375.6,266.9L400.1,252" class="g8_3" />
<path d="M372.5,259.1c-1,0.6,-3.9,-0.1,-2.4,-1.4" class="g8_3" />
<path d="M375.1,264.1c-1.4,0.9,-1.2,3.6,0.5,2.8" class="g8_3" />
<path d="M400.1,252c1.4,-0.7,1.7,-4.1,-0.5,-2.7" class="g8_3" />
<path d="M396.7,244.7c1.5,-0.8,0,-2.5,-1.7,-1.5" class="g8_3" />
<path fill-rule="evenodd" d="M219.3,230.3c0,0,0.7,-0.6,0.9,-0.7c0.4,-0.2,0.8,-0.4,1.2,-0.6c0.3,-0.4,0.6,-0.8,0.9,-1.2c0,0,0.1,-0.2,0.1,-0.2c-0.1,-0.1,-0.3,-0.1,-0.3,-0.1c-0.2,0.1,-0.4,0.2,-0.7,0.4c-0.1,0.1,-0.3,0.3,-0.5,0.4c-0.1,0.2,-0.2,0.4,-0.4,0.6c-0.4,0.3,-0.8,0.6,-1.2,0.8c0,0.2,0,0.4,0,0.6Z" class="g11_3" />
<path d="M219.3,230.3c0.3,-0.2,0.6,-0.4,0.9,-0.7c0.4,-0.2,0.8,-0.3,1.2,-0.5c0.3,-0.5,0.7,-1,1.1,-1.4c0.1,-0.3,0.1,-0.4,0.1,-0.5c-0.1,-0.1,-0.2,-0.2,-0.5,-0.2c-0.6,0.1,-1.2,0.1,-1.9,0.2c-0.3,0.3,-0.6,0.5,-0.9,0.8c-0.4,0.2,-0.8,0.3,-1.1,0.5" class="g10_3" />
<path d="M220.6,228.9c0.1,-0.3,0.3,-0.6,0.6,-0.8c0.3,-0.2,0.6,-0.5,0.9,-0.6" class="g8_3" />
<path d="M220.2,227.8c0.3,0,0.6,-0.1,0.9,-0.2c0.3,-0.1,0.6,-0.3,0.9,-0.5" class="g10_3" />
<path fill-rule="evenodd" d="M219.3,230.3c-0.1,0.1,-0.1,0.2,-0.1,0.3c-1.9,1.1,-3.7,2.1,-5.5,3.2c-0.2,0,-0.4,0.1,-0.6,0.1c0,0,-0.1,0,-0.2,0c0,0,-0.1,-0.1,-0.2,-0.1c-0.3,-0.2,-0.5,-0.4,-0.6,-0.6c-0.1,-0.2,-0.2,-0.4,-0.2,-0.7c0,-0.2,0,-0.3,0.1,-0.4c0,-0.1,0,-0.2,0.1,-0.3c1.8,-1.1,3.6,-2.1,5.5,-3.2c0.1,0,0.2,0,0.3,-0.1c0.1,0,0.2,0,0.3,0c0.1,0,0.3,0.1,0.4,0.2c0.2,0.1,0.3,0.3,0.5,0.5c0.1,0.2,0.1,0.3,0.2,0.5c0,0.2,0,0.4,0,0.6Z" class="g9_3" />
<path d="M211.9,232.7l0,-0.3l0,-0.1l0.1,-0.1l0,-0.1l0,-0.2l0.1,-0.1" class="g10_3" />
<path d="M212.5,233.7l0.4,0.2" class="g10_3" />
<path d="M212.5,233.7l0,-0.1l-0.2,-0.1l-0.1,-0.1l-0.1,-0.1L212,233.1l0,-0.1l-0.1,-0.2l0,-0.1" class="g10_3" />
<path d="M211.9,232.7l0,-0.2l0.1,-0.1l0,-0.1l0.1,0l0.1,0l0.1,0l0.2,0l0.1,0.1l0.1,0.1l0.1,0.1l0.1,0.1l0.1,0.2l0,0.1l0.1,0.2l0,0.1" class="g8_3" />
<path d="M212.9,231.7l0,0.2L213,232l0,0.2l0.1,0.1l0.1,0.1l0.2,0.1l0.1,0.1l0.2,0.1" class="g8_3" />
<path d="M213.5,233.3l0,0.1l0.1,0.1l0,0.1l0,0.1l0.1,0.1" class="g8_3" />
<path d="M213.1,233.3l0,0.2l-0.1,0.1l-0.1,0.1l-0.1,0l-0.1,0l-0.1,0l-0.1,0" class="g8_3" />
<path d="M212.1,231.8l0.1,0l0.1,0l0.1,0l0.2,0l0.1,0l0.2,-0.1" class="g8_3" />
<path d="M213.7,232.7l-0.1,0.2l0,0.1l0,0.1l-0.1,0.1l0,0.1" class="g8_3" />
<path d="M213.7,233.8l-0.2,0l-0.1,0.1l-0.2,0l-0.1,0l-0.1,0l-0.1,0" class="g10_3" />
<path d="M212.1,231.8l5.5,-3.2" class="g10_3" />
<path d="M212.9,231.7l5.5,-3.2" class="g8_3" />
<path d="M213.7,232.7l5.5,-3.2" class="g8_3" />
<path d="M213.7,233.8l5.5,-3.2" class="g10_3" />
<path d="M217.6,228.6l0.1,0l0.2,-0.1l0.1,0l0.1,0l0.1,0l0.1,0" class="g10_3" />
<path d="M219.3,230l0,-0.1l0,-0.2l0,-0.2l-0.1,-0.2l-0.1,-0.2L218.9,229l-0.1,-0.2l-0.2,-0.1l-0.1,-0.1" class="g8_3" />
<path d="M219.3,230l0,0.1l0,0.1l0,0.1l-0.1,0.1l0,0.2" class="g10_3" />
<path d="M218.3,228.5l0.2,0.1" class="g10_3" />
<path d="M218.3,228.5l0.1,0l0.1,0.1l0.2,0.1l0.1,0.1l0.1,0.1L219,229l0,0.1l0.1,0.1l0,0.2l0.1,0.1l0,0.1l0.1,0.1l0,0.1l0,0.1l0,0.1" class="g10_3" />
<path fill-rule="evenodd" d="M210.3,229c0.7,0.2,1.3,0.4,2,0.6c0.7,0.1,1.3,0.1,2,0.2c0.4,0.1,0.7,0.3,1.1,0.6c0.3,0.2,0.6,0.6,0.8,1c0.3,0.6,0.6,1.2,0.6,1.7c0.1,0.4,0,0.9,-0.2,1.2c-0.2,0.4,-0.4,0.8,-0.5,1.2c-0.1,0.3,-0.3,0.8,-0.3,1.1c-0.1,0.7,-0.3,1.2,-0.5,1.7c-0.3,0.4,-0.6,0.7,-0.9,0.9c-2.1,1.2,-4.1,2.4,-6.2,3.6c-0.1,0.4,-0.3,0.8,-0.5,1.1c-0.2,0.2,-0.4,0.4,-0.7,0.5c-0.5,1.2,-1.3,2.3,-2.2,3.1c-0.9,0.9,-2.1,1.6,-3.4,2.2c-0.1,0.3,-0.5,0.7,-1.1,1.2c-0.6,0.4,-1.6,0.9,-2.7,1.5c-0.1,0.2,-0.3,0.5,-0.5,0.6c-0.1,0.2,-0.4,0.4,-0.6,0.5c-1.9,1,-3.8,2.1,-5.7,3.2c-0.2,0.4,-0.6,0.9,-0.9,1.2c-0.4,0.3,-0.8,0.6,-1.3,0.8c-2.5,1.5,-5.1,3,-7.8,4.5c0,0.4,0,0.9,0.1,1.4c-1.2,0.6,-2.3,1.3,-3.5,2c-0.2,-0.1,-0.3,-0.2,-0.5,-0.3c0,-0.6,0,-1.3,0,-1.9c-0.8,0.5,-1.7,0.9,-2.5,1.4c-0.1,0.1,-0.3,0.2,-0.3,0.3c-0.1,0.2,-0.2,0.4,-0.2,0.5c0,0.2,0,0.4,0,0.6c-0.6,0.4,-1.2,0.7,-1.8,1.1c-1.6,0.9,-3.4,1.3,-5.1,1.2c-1.8,-0.1,-3.6,-0.8,-5.5,-1.9c-1.2,-0.7,-2.5,-1.5,-3.8,-2.3c-0.6,-1,-0.9,-2.2,-0.9,-3.5c0,-1.3,0.4,-2.8,1,-4.4c0.2,-0.4,0.4,-0.7,0.6,-1c0.2,-0.4,0.3,-0.7,0.5,-0.9c-0.4,-0.2,-1.2,-0.5,-2.1,-0.7c-0.9,-0.2,-2,-0.4,-3.3,-0.6c-2.4,-0.7,-4.6,-1.4,-6.3,-2c-1.7,-0.6,-3.1,-1.3,-4,-2c-0.5,-0.4,-1.1,-0.6,-1.5,-0.7c-0.4,0,-0.9,0.1,-1.2,0.3c-1.3,0.6,-2.6,0.9,-3.5,1c-0.9,0.1,-1.7,0,-2.3,-0.3c-2.7,-1.6,-5.5,-3.1,-8.2,-4.7c-0.2,-0.2,-0.3,-0.4,-0.5,-0.7c-0.4,-0.1,-0.8,-0.3,-1.2,-0.6c-0.8,-1,-1.2,-2.3,-1.2,-3.9c-0.1,-1.5,0.2,-3.3,0.8,-5.2c0.2,-0.4,0.3,-0.7,0.5,-1.1c0.4,-0.3,0.7,-0.7,1,-1.2c0.2,-0.5,0.4,-1,0.5,-1.6c0.4,-0.5,0.8,-1,1.2,-1.5c2.9,-1.7,5.9,-3.4,8.9,-5.1c0.3,0,0.8,-0.2,1.2,-0.4c0.4,-0.2,0.8,-0.6,1.1,-1.1c1,-0.5,1.9,-1,2.9,-1.5c0.2,-0.2,0.6,-0.3,0.9,-0.3c0.3,0,0.7,0.1,1,0.2c3,1.6,6,3.3,9.1,4.9c0.5,0.4,1,1.1,1.4,2c0.4,1,0.8,2.3,1,3.9c0.1,0.7,0.2,1.4,0.4,2.2c-0.2,1.3,-0.5,2.4,-0.8,3.4c-0.3,1,-0.8,1.8,-1.2,2.4c2.1,0.5,3.9,1.1,5.3,1.6c1.5,0.4,2.7,1,3.5,1.5c0.8,0.3,1.6,0.6,2.3,0.6c0.7,0.1,1.3,-0.1,1.7,-0.3c0.3,-0.2,0.6,-0.3,0.9,-0.3c0.2,0,0.4,0,0.6,0.2c0.5,-0.4,0.9,-0.6,1.2,-0.8c0.3,-0.1,0.6,0,0.8,0.1c0.9,0.5,1.9,1,2.8,1.6c0.6,-0.4,1.3,-0.8,1.9,-1.2c0.5,-0.1,0.9,-0.1,1.3,-0.1c0.3,0.1,0.5,0.3,0.7,0.6c3.6,-2.1,7.2,-4.2,10.8,-6.3c0.3,0,0.6,-0.1,0.8,-0.2c0.1,-0.1,0.2,-0.2,0.2,-0.3c1.2,-0.7,2.5,-1.4,3.7,-2.1c0.1,-0.1,0.4,-0.2,0.5,-0.2c0.2,0,0.5,0,0.6,0c0.1,-0.2,0.4,-0.5,0.9,-0.7c0.5,-0.2,1.2,-0.6,2.2,-0.8c0.7,-0.3,1.4,-0.5,2.1,-0.5c0.7,0,1.5,0,2.2,0c0.2,-0.1,0.6,-0.3,1,-0.3c0.3,0,0.7,0.1,1.1,0.1c2,-1.1,4.1,-2.3,6.2,-3.6c0.2,-0.1,0.5,-0.2,0.8,-0.2c0.2,0,0.5,0,0.7,0Z" class="g9_3" />
<path d="M129.5,247.4c0,-0.1,-0.2,-0.3,-0.4,-0.4c-0.2,-0.1,-0.5,-0.3,-0.8,-0.5c-1.2,-0.7,-2.3,-1.4,-3.5,-2c-0.8,-1,-1.3,-2.4,-1.3,-4.3c0,-1.8,0.5,-3.8,1.3,-5.7c0.5,-0.5,0.7,-0.8,1,-1.4c0.4,-0.6,0.5,-1,0.6,-1.6c0.4,-0.5,0.7,-1,1.1,-1.4c2.9,-1.7,5.9,-3.4,8.9,-5.2c1.3,0.1,2.4,-1.3,2.4,-1.3c0.9,-0.6,1.8,-1.1,2.8,-1.7c0.7,-0.4,1.3,-0.4,1.7,-0.2c3.1,1.7,6.2,3.4,9.4,5.1" class="g10_3" />
<path d="M134.6,250.4c-2.7,-1.6,-5.4,-3.2,-8.2,-4.8c0,-0.1,0,-0.2,-0.1,-0.2" class="g10_3" />
<path d="M136.5,235.2l14.4,-8.3" class="g8_3" />
<path d="M150.9,226.9c0.6,-0.4,1.2,-0.4,1.6,-0.2" class="g8_3" />
<path d="M136.5,235.2c-1.3,1.6,-2.3,3.3,-3,5c-0.6,1.7,-1,3.4,-1.1,5.3c0.1,1.7,0.5,3,1.1,3.9c0.3,0.3,0.5,0.6,0.8,0.8" class="g8_3" />
<path d="M212.4,229.6c0.7,0.1,1.3,0.2,1.9,0.3c0.7,0,1.5,0.7,2,1.6c0.6,1,0.7,2,0.4,2.6c-0.2,0.5,-0.5,1.1,-0.7,1.7" class="g10_3" />
<path d="M212.9,229.8c0.9,0.3,1.8,1.1,2.5,2.2c0.7,1.2,0.9,2.5,0.7,3.4" class="g8_3" />
<path d="M210.7,229.1c0.6,0.2,1.3,0.4,2,0.6c0.9,0.3,1.9,1.2,2.6,2.4c0.7,1.3,1,2.6,0.7,3.5c-0.1,0.7,-0.3,1.3,-0.4,2" class="g10_3" />
<path d="M202.6,232.9c2,-1.2,4.1,-2.4,6.1,-3.6c0.6,-0.3,1.3,-0.4,2,-0.2" class="g10_3" />
<path d="M212,229.7c0.9,0.7,1.8,1.7,2.5,2.9c0.7,1.2,1.1,2.5,1.1,3.6" class="g8_3" />
<path d="M215.6,237.6c-0.2,0.7,-0.6,1.2,-1.1,1.6c-2.1,1.2,-4.2,2.4,-6.3,3.6" class="g10_3" />
<path d="M200.7,233.2c1.7,0.3,3.8,2,5.1,4.4c1.5,2.4,1.8,5,1.3,6.6" class="g8_3" />
<path d="M193.6,235c2.3,-1.2,5.9,0.9,8.1,4.8c2.2,3.8,2.2,8,0,9.4" class="g8_3" />
<path d="M201.8,249.6c-0.1,0.1,-0.2,0.1,-0.4,0.2" class="g10_3" />
<path d="M193.3,234.7c2.4,-1.3,6.2,0.8,8.6,5c2.3,4.1,2.3,8.5,-0.1,9.9" class="g8_3" />
<path d="M187.7,237.7c0.2,-0.1,0.3,-0.2,0.4,-0.3c0.2,-0.1,0.3,-0.2,0.5,-0.3c0.9,-0.6,1.9,-1.1,2.8,-1.7c2.5,-1.4,6.5,0.9,8.9,5.2c2.5,4.2,2.5,8.8,0,10.2c-0.9,0.6,-1.9,1.1,-2.8,1.7" class="g10_3" />
<path d="M188.2,237.7c0.1,-0.1,0.2,-0.2,0.3,-0.3c2.4,-1.3,6.3,0.9,8.6,5c2.1,3.6,2.4,7.5,0.8,9.3" class="g8_3" />
<path d="M205.1,231.4c1.5,-0.9,4.1,0.6,5.7,3.3c1.5,2.7,1.5,5.7,0,6.6" class="g8_3" />
<path d="M188.6,237.1c2.5,-1.5,6.5,0.8,8.9,5.1c2.5,4.2,2.5,8.9,0,10.3" class="g8_3" />
<path d="M189.2,252.2c0.7,-0.4,1.4,-0.5,1.9,-0.2c0.5,0.3,0.8,0.9,0.8,1.7" class="g8_3" />
<path d="M191.9,253.7c0,0.8,-0.3,1.8,-0.8,2.7c-0.5,0.9,-1.2,1.6,-1.9,2" class="g10_3" />
<path d="M189.2,258.4l-8.4,4.8" class="g10_3" />
<path d="M180.8,263.2l-3.4,2" class="g8_3" />
<path d="M189.2,252.2l-3.6,2" class="g8_3" />
<path d="M185,254.6l-3.6,2.1" class="g8_3" />
<path d="M180.8,257.1l-3.2,1.8" class="g8_3" />
<path d="M183.7,260.1c0.2,0,0.6,-0.1,0.8,-0.2c0.8,-0.5,1.5,-0.9,2.3,-1.3c0.4,-0.3,0.8,-0.7,1.1,-1.3c0.6,-0.9,0.7,-1.8,0.4,-2.4" class="g8_3" />
<path d="M188.3,254.9c-0.1,-0.1,-0.2,-0.2,-0.4,-0.3c-0.3,-0.1,-0.7,-0.1,-1.1,0.1c-0.7,0.5,-1.5,0.9,-2.3,1.3c-0.4,0.3,-0.8,0.7,-1.1,1.3c-0.7,1.1,-0.7,2.3,0,2.7c0.1,0,0.2,0.1,0.3,0.1" class="g8_3" />
<path d="M184,258.8c0.2,0.1,0.3,0.2,0.5,0.3c0.3,0.2,0.7,0.2,1.2,-0.1c0.3,-0.1,0.6,-0.3,0.9,-0.5c0.4,-0.3,0.8,-0.7,1.1,-1.2c0.7,-1.1,0.7,-2.3,0,-2.7" class="g8_3" />
<path d="M185.1,255.8c-0.2,0.2,-0.4,0.4,-0.6,0.7c-0.6,1.1,-0.6,2.2,0,2.6" class="g8_3" />
<path d="M183.2,259.8c0.2,0,0.5,-0.1,0.7,-0.3c0.2,-0.1,0.5,-0.2,0.7,-0.4" class="g8_3" />
<path d="M187.7,255.8c0,-0.3,-0.1,-0.5,-0.3,-0.7c-0.2,-0.1,-0.6,-0.1,-0.9,0.1c-0.2,0.2,-0.5,0.3,-0.8,0.5c-0.3,0.2,-0.6,0.5,-0.9,0.9c-0.5,0.8,-0.5,1.7,0,2c0.1,0.1,0.2,0.1,0.4,0.1" class="g8_3" />
<path d="M185.2,258.7c0.2,0,0.3,0,0.5,-0.2" class="g8_3" />
<path d="M186.5,258.1c0.3,-0.2,0.7,-0.5,0.9,-1c0.2,-0.2,0.3,-0.6,0.3,-0.9" class="g8_3" />
<path d="M183.7,256.7c-0.3,0.9,-0.2,1.8,0.3,2.1" class="g8_3" />
<path d="M184.5,257.9c0.1,0.1,0.1,0.3,0.3,0.3c0.2,0.1,0.4,0.1,0.7,-0.1c0.2,-0.1,0.5,-0.2,0.7,-0.4c0.3,-0.1,0.5,-0.4,0.7,-0.8c0.4,-0.6,0.4,-1.4,0,-1.6c0,-0.1,-0.1,-0.1,-0.2,-0.1" class="g8_3" />
<path d="M188.2,255.6l0.2,0.1l3.5,-2l6.5,-4.7" class="g8_3" />
<path d="M188.3,250.8l-3,1.8" class="g8_3" />
<path d="M188.3,250.8c1.2,-0.2,2,-0.1,2.6,0.4c0.6,0.5,0.9,1.3,1,2.5" class="g8_3" />
<path d="M157.9,257.2c0.6,-1,1.2,-1.9,1.7,-2.6c0.6,-0.7,1.1,-1.3,1.6,-1.7c8.7,-5.1,17.5,-10.1,26.2,-15.2c1.6,-0.1,3.2,0.3,4.8,1.2c1.7,1,3.3,2.4,4.9,4.5c1.7,3.9,1.7,7.7,0,9.7c-2,1.1,-4.1,2.3,-6.2,3.5" class="g10_3" />
<path d="M197.1,243.4l-13.3,7.7l1.9,3.1" class="g8_3" />
<path d="M185.2,248.1c-1.1,-1.2,-2.2,-2.1,-3.4,-2.8c-1.1,-0.7,-2.1,-1.1,-3.2,-1.3c-0.2,0,-0.4,0,-0.1,-0.3c3.1,-1.8,6.2,-3.6,9.3,-5.4c0.4,-0.1,0.5,-0.1,0.6,-0.1c1.1,0.1,2.2,0.5,3.4,1.2c1.2,0.7,2.2,1.7,3.4,2.9c0.1,0.1,0.4,0.3,0,0.6c-3.1,1.7,-6.2,3.5,-9.3,5.3c-0.4,0.3,-0.7,-0.1,-0.7,-0.1Z" class="g8_3" />
<path d="M143.5,250.3c-1.1,-0.6,-1.1,-2.8,0,-4.8c0.6,-0.9,1.3,-1.7,2.1,-2.2c0.3,-0.2,0.7,-0.2,1,-0.2c0.4,0,0.8,0.2,1.2,0.4c2.4,1,4.6,1.9,6.8,2.6c2.1,0.7,4.1,1.3,6,1.7c0.5,0.1,1.2,0.2,1.9,0.2c0.6,0,1.4,-0.1,2.1,-0.2c0.9,-0.2,1.7,-0.2,2.3,-0.1c0.7,0.1,1.2,0.5,1.6,1" class="g8_3" />
<path d="M158.9,255.5c-0.3,-0.1,-0.8,-0.4,-1.4,-0.5c-0.7,-0.2,-1.5,-0.4,-2.4,-0.6c-2.7,-0.6,-5,-1.2,-7.1,-2c-2.1,-0.8,-3.9,-1.7,-5.5,-2.6" class="g10_3" />
<path d="M167.8,243.9c-0.1,0,-0.2,-0.1,-0.2,-0.1c-0.3,-0.2,-0.7,-0.1,-1.1,0.1c-0.5,0.3,-0.9,0.5,-1.6,0.5c-0.6,0,-1.4,-0.2,-2.3,-0.5c-1.5,-0.8,-3.1,-1.5,-4.9,-2.1c-1.7,-0.6,-3.5,-1,-5.5,-1.5c-0.8,-0.1,-1.4,-0.3,-1.7,-0.6c-0.3,-0.3,-0.4,-0.5,-0.3,-0.9" class="g10_3" />
<path d="M126.4,231.5l4.9,2.8" class="g8_3" />
<path d="M124.8,234.5l4.8,2.7" class="g8_3" />
<path d="M131.3,234.3c0.7,0.4,0.9,1.4,0.5,2.2c-0.5,0.8,-1.5,1.2,-2.2,0.7" class="g8_3" />
<path d="M136.5,235.2l-8.9,-5.1" class="g8_3" />
<path d="M138.8,223.6c1.7,1,3.5,2,5.3,3.1c0.7,0.3,0.7,0.9,0,1.3c-0.7,0.4,-1.7,0.4,-2.4,0c-1.8,-1,-3.5,-2,-5.3,-3.1" class="g8_3" />
<path d="M152.7,226.8c0.6,0.3,1.2,1.1,1.7,2.5c0.5,1.4,0.8,3.2,1.1,5.5c-0.4,2.3,-0.9,4,-1.6,5.3c-0.1,0.1,-0.2,0.3,-0.3,0.5" class="g10_3" />
<path d="M142.4,249.7c-0.5,-0.3,-1.1,-0.4,-1.6,-0.4c-0.5,0,-1.1,0.2,-1.6,0.5" class="g10_3" />
<path d="M141.5,249.4c-1.7,0.8,-3.2,1.3,-4.3,1.5c-1.1,0.1,-2,0,-2.6,-0.5" class="g10_3" />
<path d="M173.2,261.4c-1.3,0.7,-1.8,2.4,-1.8,4.2c0,1.7,0.5,2.8,1.8,2.1" class="g8_3" />
<path d="M157.9,257.2c-0.8,1.3,-1.1,3.1,-1.1,4.8c0,1.7,0.3,3,1.1,3.4c1.4,0.8,2.8,1.6,4.2,2.4" class="g10_3" />
<path d="M152.4,229.3c-0.5,1.4,-1.1,2.8,-1.4,4.3c-0.4,1.6,-0.7,3.2,-0.8,5" class="g8_3" />
<path d="M136.3,236.2c0.4,0.2,0.7,0.6,0.9,0.8c0.2,0.3,0.4,0.7,0.5,1.1c0.3,1.6,0.9,2.9,1.6,4c0.7,1,1.6,1.9,2.6,2.4" class="g8_3" />
<path d="M142.4,249.7c-1.1,-0.7,-1.1,-2.8,0,-4.8c0.6,-1,1.3,-1.8,2.1,-2.2c1.4,-0.8,2.9,-1.7,4.4,-2.5c0.7,-0.5,1.5,-0.5,2,-0.2" class="g8_3" />
<path d="M142.1,249.5c-1.1,-0.6,-1.1,-2.8,0,-4.7c0.6,-1.1,1.4,-1.8,2.1,-2.2c1.5,-0.9,2.9,-1.7,4.4,-2.6c0.7,-0.4,1.5,-0.5,2.1,-0.2" class="g8_3" />
<path d="M151,240c0,-0.1,0.1,-0.3,0.2,-0.4c0.1,-0.1,0.3,-0.3,0.4,-0.4c0.5,-0.4,1.2,-1,1.7,-1.6c0.6,-0.6,1.3,-1.3,1.9,-1.9c0.1,-0.2,0.1,-0.3,0.2,-0.4c0,-0.1,0.1,-0.1,0.1,-0.2" class="g8_3" />
<path d="M182.9,258.9c-3.9,2.2,-7.7,4.4,-11.5,6.7c-1.7,0.7,-3.5,0.9,-5.2,0.7c-1.7,-0.2,-3.5,-0.8,-5.2,-1.9c-1.4,-0.8,-2.8,-1.6,-4.2,-2.4" class="g8_3" />
<path d="M172.6,244.8c-0.9,-0.5,-1.8,-1,-2.7,-1.5c-0.5,-0.3,-0.9,-0.2,-1.4,0.1c-0.2,0.2,-0.4,0.4,-0.7,0.6" class="g10_3" />
<path d="M176.4,244c0,-0.1,-0.1,-0.2,-0.3,-0.3c-0.4,-0.3,-1.1,-0.3,-1.6,0c-0.5,0.3,-1.1,0.6,-1.6,0.9c-0.2,0.1,-0.4,0.3,-0.4,0.4c0,0.5,0,0.9,0,1.3" class="g10_3" />
<path d="M172.5,245c0,0.2,0.2,0.4,0.4,0.5c0.2,0.1,0.5,0.2,0.7,0.2" class="g8_3" />
<path d="M172.5,246c-0.2,0.1,-0.2,0.3,-0.1,0.4" class="g8_3" />
<path d="M172.5,245.3c-0.3,0.2,-0.6,0.4,-0.9,0.6c-0.3,0.1,-0.6,0.2,-0.9,0.2c-0.2,0,-0.6,0,-0.8,-0.1" class="g8_3" />
<path d="M171.1,246c-0.7,-0.1,-1.3,-0.4,-1.9,-0.7c-0.5,-0.4,-1,-0.9,-1.4,-1.4" class="g8_3" />
<path d="M177.5,265.1c0,-0.1,0,-0.3,0,-0.5c0,-0.1,0,-0.1,-0.1,-0.2" class="g8_3" />
<path d="M181,256.9l-0.2,-0.3l0,-1.3L180.4,255l-3.4,2l0,1.9" class="g10_3" />
<path d="M177,258.9c0,0,-1.7,-1,-1.7,-1" class="g8_3" />
<path d="M180.5,256.8l-2.7,1.6" class="g8_3" />
<path d="M183.8,251.1l1.5,1.5l0.4,1.6" class="g8_3" />
<path d="M181.3,254.4l-8.4,4.8" class="g8_3" />
<path d="M177.1,259.8L175.2,258" class="g8_3" />
<path d="M177,257l0.4,0.2" class="g8_3" />
<path d="M181.3,254.4c0.6,-0.4,1,0,1,0c0,0,0.2,0.1,0.2,0.1" class="g8_3" />
<path d="M181.5,252.5l0,1" class="g8_3" />
<path d="M180.8,255.5c0.6,-0.3,1.2,-0.6,1.8,-1c0,0,0.5,-0.2,0.4,-0.7" class="g10_3" />
<path d="M183,253.8c0,-0.1,-0.1,-0.2,-0.1,-0.2c-0.3,-0.4,-0.5,-0.8,-0.7,-1.2c0,0,-0.3,-0.7,-0.9,-0.4c-2.9,1.7,-5.9,3.4,-8.8,5.1c-0.1,0.1,-0.2,0.2,-0.2,0.2" class="g8_3" />
<path d="M172.3,257.3c-0.3,0.4,-0.1,0.8,-0.1,0.8c0.6,1,1.1,1.9,1.7,2.9c0,0,0,0.6,0,0.6c0.1,0.2,0.2,0.3,0.3,0.3" class="g10_3" />
<path d="M174.2,261.9c0.1,0,0.2,-0.1,0.2,-0.1c0.9,-0.4,1.7,-0.9,2.6,-1.5c0,0,0.4,-0.2,0.5,-0.8c0,-0.2,0,-0.4,0,-0.6c0,-0.1,-0.1,-0.2,-0.1,-0.3c0,-0.4,0,-0.9,0,-1.4c0,0,3.4,-1.9,3.4,-1.9" class="g8_3" />
<path d="M176.8,264.4c0,0,0.2,-0.1,0.2,0.1c0,0.6,0,1.2,0,1.8c0.1,0.1,0.2,0.2,0.4,0.3c1.1,-0.6,2.3,-1.3,3.4,-2c0,0,0,-1.4,0,-1.4" class="g10_3" />
<path d="M177.5,266.5l0,-1" class="g8_3" />
<path d="M182.1,249.3c0.6,-0.4,1.3,-0.7,2,-1.1c0,0,0.2,0.2,0.3,0.3c0.1,0.1,0.2,0.3,0.4,0.4" class="g8_3" />
<path d="M184.8,248.9c-0.7,0.4,-1.4,0.8,-2,1.2c-0.2,-0.1,-0.3,-0.3,-0.4,-0.4c-0.1,-0.1,-0.3,-0.3,-0.4,-0.4" class="g8_3" />
<path d="M181.2,248.5c0.6,-0.4,1.3,-0.8,2,-1.2c0.1,0.1,0.2,0.2,0.3,0.4c0.2,0.1,0.3,0.2,0.4,0.3" class="g8_3" />
<path d="M183.9,248c-0.7,0.4,-1.3,0.8,-2,1.2c-0.1,-0.1,-0.2,-0.3,-0.3,-0.4c-0.2,-0.1,-0.3,-0.2,-0.4,-0.3" class="g8_3" />
<path d="M180.2,247.7c0.6,-0.4,1.3,-0.8,2,-1.2c0.1,0.1,0.2,0.2,0.3,0.3c0.1,0.1,0.3,0.3,0.5,0.4" class="g8_3" />
<path d="M183,247.2c-0.7,0.4,-1.3,0.8,-2,1.2c-0.1,-0.2,-0.3,-0.3,-0.4,-0.4c-0.1,-0.1,-0.3,-0.2,-0.4,-0.3" class="g8_3" />
<path d="M179,246.9c0.7,-0.4,1.4,-0.8,2,-1.2c0.2,0.1,0.3,0.2,0.5,0.3c0.1,0.1,0.3,0.2,0.5,0.4" class="g8_3" />
<path d="M182,246.4c-0.7,0.3,-1.4,0.7,-2,1.1c-0.2,-0.1,-0.3,-0.2,-0.5,-0.3c-0.1,-0.1,-0.3,-0.3,-0.5,-0.3" class="g8_3" />
<path d="M177.8,246.2c0.7,-0.3,1.4,-0.7,2,-1.1c0.1,0,0.3,0.1,0.5,0.2c0.2,0.1,0.3,0.2,0.5,0.3" class="g8_3" />
<path d="M180.8,245.6c-0.6,0.4,-1.3,0.8,-2,1.2c-0.1,-0.1,-0.3,-0.2,-0.4,-0.3c-0.2,-0.1,-0.4,-0.2,-0.6,-0.3" class="g8_3" />
<path d="M176.6,245.8c0.7,-0.4,1.3,-0.8,2.1,-1.2c0.1,0,0.2,0.1,0.4,0.2c0.1,0,0.3,0.1,0.5,0.2" class="g8_3" />
<path d="M179.6,245c-0.7,0.3,-1.3,0.7,-2,1.1c-0.1,0,-0.3,-0.1,-0.4,-0.1c-0.2,-0.1,-0.4,-0.2,-0.6,-0.2" class="g8_3" />
<path d="M175.4,245.5c0.6,-0.3,1.3,-0.7,2,-1.1c0.1,0,0.3,0,0.4,0c0.2,0,0.4,0.1,0.6,0.2" class="g8_3" />
<path d="M178.4,244.6c-0.7,0.3,-1.4,0.7,-2,1.1c-0.1,0,-0.3,-0.1,-0.5,-0.1c-0.1,0,-0.3,-0.1,-0.5,-0.1" class="g8_3" />
<path d="M170.5,256c1.4,-0.8,2.9,-1.6,4.3,-2.5c0.1,0.1,0.2,0.3,0.4,0.4c0.1,0.1,0.2,0.3,0.3,0.4" class="g8_3" />
<path d="M175.5,254.3c-1.4,0.8,-2.9,1.6,-4.3,2.5c-0.1,-0.1,-0.3,-0.3,-0.4,-0.4c-0.1,-0.1,-0.2,-0.3,-0.3,-0.4" class="g8_3" />
<path d="M169.6,255.2c1.5,-0.8,2.9,-1.7,4.4,-2.5c0.1,0,0.2,0.2,0.3,0.3c0.1,0.1,0.2,0.3,0.4,0.4" class="g8_3" />
<path d="M174.7,253.4c-1.5,0.8,-2.9,1.6,-4.4,2.5c-0.1,-0.1,-0.2,-0.3,-0.3,-0.4c-0.2,-0.1,-0.3,-0.2,-0.4,-0.3" class="g8_3" />
<path d="M168.7,254.4c1.4,-0.9,2.8,-1.7,4.3,-2.6c0,0.1,0.2,0.2,0.3,0.3c0.1,0.1,0.3,0.3,0.5,0.4" class="g8_3" />
<path d="M173.8,252.5c-1.5,0.8,-2.9,1.7,-4.4,2.5c-0.1,-0.1,-0.3,-0.3,-0.4,-0.3c-0.1,-0.1,-0.3,-0.3,-0.4,-0.3" class="g8_3" />
<path d="M167.5,253.5c1.4,-0.8,2.8,-1.6,4.3,-2.4c0.2,0,0.3,0.2,0.5,0.2c0.1,0.1,0.3,0.3,0.4,0.4" class="g8_3" />
<path d="M172.7,251.7c-1.4,0.8,-2.9,1.6,-4.3,2.5c-0.1,-0.1,-0.3,-0.2,-0.4,-0.3c-0.2,-0.1,-0.4,-0.3,-0.6,-0.3" class="g8_3" />
<path d="M166.3,252.9c1.4,-0.8,2.9,-1.6,4.3,-2.5c0.1,0,0.3,0.2,0.5,0.2c0.1,0.1,0.3,0.2,0.5,0.3" class="g8_3" />
<path d="M171.6,250.9c-1.4,0.9,-2.9,1.7,-4.3,2.5c-0.1,0,-0.3,-0.1,-0.5,-0.2c-0.1,-0.1,-0.3,-0.2,-0.5,-0.3" class="g8_3" />
<path d="M165.1,252.5c1.4,-0.8,2.9,-1.7,4.3,-2.5c0.1,0,0.3,0.1,0.4,0.1c0.2,0.1,0.4,0.1,0.6,0.2" class="g8_3" />
<path d="M170.4,250.3c-1.5,0.8,-2.9,1.7,-4.4,2.5c-0.1,0,-0.3,-0.1,-0.4,-0.1c-0.2,-0.1,-0.4,-0.2,-0.5,-0.2" class="g8_3" />
<path d="M163.8,252.2c1.5,-0.8,2.9,-1.6,4.4,-2.5c0.1,0,0.3,0.1,0.4,0.1c0.2,0,0.4,0.1,0.5,0.1" class="g8_3" />
<path d="M169.1,249.9c-1.4,0.8,-2.9,1.6,-4.3,2.5c-0.1,0,-0.3,-0.1,-0.5,-0.1c-0.1,0,-0.3,-0.1,-0.5,-0.1" class="g8_3" />
<path d="M212,238.8l-3.7,2.1" class="g8_3" />
<path d="M211.5,240.5l-3.2,1.9" class="g8_3" />
<path d="M211.6,240.2l-3.3,1.9" class="g8_3" />
<path d="M211.9,238.4l-3.6,2.1" class="g8_3" />
<path d="M211.7,237l-3.7,2.2" class="g8_3" />
<path d="M211.5,236.4l-3.7,2.2" class="g8_3" />
<path d="M210.9,235l-3.8,2.1" class="g8_3" />
<path d="M210.5,234.4l-3.7,2.2" class="g8_3" />
<path d="M209.5,233l-3.7,2.2" class="g8_3" />
<path d="M209,232.6l-3.6,2.1" class="g8_3" />
<path d="M208,231.8l-3.6,2.1" class="g8_3" />
<path d="M207.5,231.5l-3.5,2" class="g8_3" />
<path d="M206.2,231.2L203,233" class="g8_3" />
<path d="M205.8,231.2l-3.1,1.8" class="g8_3" />
<path d="M205.2,231.3c1.6,-0.9,4.2,0.6,5.7,3.3c1.6,2.7,1.6,5.7,0,6.6" class="g8_3" />
<path d="M192.9,235c0.1,-0.1,0.2,-0.2,0.4,-0.3c1.3,-0.7,2.7,-1.3,3.8,-1.5c1.2,-0.3,2.4,-0.3,3.4,-0.1c1.8,-1,4.8,0.6,6.6,3.8c1.7,3.1,1.7,6.5,-0.1,7.5c-0.4,1,-1.1,2,-1.9,2.9c-0.9,0.8,-2,1.6,-3.3,2.3" class="g10_3" />
<path d="M177.4,264.4c-0.1,-0.3,-0.4,-0.1,-0.4,-0.1c-0.9,0.5,-1.7,1,-2.6,1.5c0,0,-0.4,0.2,-0.5,0.9c0,0,0,0.5,0,0.5c-0.3,0.2,-0.7,0.4,-1,0.6c-0.8,0.4,-1.5,0.8,-2.3,1.1c-0.7,0.3,-1.5,0.5,-2.2,0.6c-0.7,0.1,-1.6,0.1,-2.7,-0.2c-1,-0.3,-2.2,-0.8,-3.6,-1.5" class="g10_3" />
<path d="M184.5,248.5l0,1" class="g8_3" />
<path d="M183.5,247.5l0,1" class="g8_3" />
<path d="M182.5,246.5l0,1" class="g8_3" />
<path d="M181.5,245.5l0,1" class="g8_3" />
<path d="M179.5,245.5l0,1" class="g8_3" />
<path d="M178.5,244.5l0,1" class="g8_3" />
<path d="M177.5,244.5l0,1" class="g8_3" />
<path d="M174.5,253.5l0,1" class="g8_3" />
<path d="M173.5,252.5l0,1" class="g8_3" />
<path d="M172.5,251.5l0,1" class="g8_3" />
<path d="M171.5,251.5l0,1" class="g8_3" />
<path d="M170.5,250.5l0,1" class="g8_3" />
<path d="M169.5,249.5l0,1" class="g8_3" />
<path d="M168.5,249.5l0,1" class="g8_3" />
<path d="M252.8,231c0.4,0.2,0.7,0.5,1.1,0.7c0,0.4,0,0.8,0,1.3c-0.4,0.2,-0.8,0.4,-1.1,0.5c-0.3,0.1,-0.6,0.2,-0.8,0.2" class="g8_3" />
<path d="M253.9,231.7c-2.8,1.7,-1.3,2.1,-2.7,2.8c-0.6,0.4,-1.2,0.7,-1.9,1.1c0,0.1,-0.2,0.1,-0.3,0.1c-0.1,0,-0.3,0.1,-0.4,0.1" class="g8_3" />
<path d="M252.8,231c-2.8,1.7,-0.6,2.9,-3.5,4.6" class="g8_3" />
<path d="M251.1,232.1c-2.9,1.6,-0.7,2.9,-3.5,4.5c-0.4,0.2,-0.8,0.5,-1.2,0.7c-0.1,0,-0.3,0.1,-0.4,0.1c0,0,-0.2,0.1,-0.3,0.1" class="g8_3" />
<path d="M251.7,231.9c-0.1,0,-0.3,0.1,-0.4,0.1c0,0,-0.2,0.1,-0.2,0.1c-0.4,0.2,-0.8,0.4,-1.2,0.7c-2.9,1.6,-0.7,2.8,-3.5,4.5" class="g8_3" />
<path d="M248.2,233.7c-2.9,1.7,-0.7,2.9,-3.5,4.6c-0.4,0.2,-0.8,0.4,-1.2,0.7c-0.1,0,-0.2,0.1,-0.3,0.1c-0.1,0,-0.3,0.1,-0.3,0.1" class="g8_3" />
<path d="M248.9,233.5c-0.2,0,-0.4,0.1,-0.4,0.1c-0.1,0,-0.3,0.1,-0.3,0.1c-0.4,0.2,-0.8,0.5,-1.2,0.7c-2.8,1.7,-0.6,2.9,-3.5,4.6" class="g8_3" />
<path d="M245.3,235.4c-2.9,1.6,-0.7,2.9,-3.5,4.6c-0.4,0.2,-0.8,0.4,-1.2,0.6c-0.1,0.1,-0.2,0.2,-0.3,0.2c-0.1,0,-0.3,0,-0.3,0" class="g8_3" />
<path d="M246,235.2c-0.2,0,-0.4,0.1,-0.4,0.1c-0.1,0,-0.3,0.1,-0.3,0.1c-0.4,0.2,-0.8,0.5,-1.2,0.7c-2.8,1.6,-0.6,2.9,-3.5,4.5" class="g8_3" />
<path d="M242.5,237c-2.8,1.7,-0.7,2.9,-3.5,4.6c-0.4,0.2,-0.8,0.4,-1.2,0.6c-0.1,0.1,-0.3,0.2,-0.3,0.2c-0.1,0,-0.2,0,-0.3,0" class="g8_3" />
<path d="M243.1,236.8c-0.1,0,-0.3,0.1,-0.4,0.1c0,0,-0.1,0.1,-0.2,0.1c-0.4,0.2,-0.8,0.5,-1.2,0.7c-2.8,1.6,-0.7,2.9,-3.5,4.5" class="g8_3" />
<path d="M239.6,238.7c-2.8,1.6,-0.7,2.9,-3.5,4.6c-0.4,0.2,-0.8,0.4,-1.2,0.6c-0.1,0.1,-0.3,0.1,-0.3,0.1c-0.1,0,-0.2,0.1,-0.3,0.1" class="g8_3" />
<path d="M240.2,238.5c-0.1,0,-0.3,0.1,-0.4,0.1c0,0,-0.1,0.1,-0.2,0.1c-0.4,0.2,-0.8,0.5,-1.2,0.7c-2.8,1.6,-0.7,2.8,-3.5,4.5" class="g8_3" />
<path d="M236.6,240.4c-2.8,1.7,-0.6,2.9,-3.4,4.5c-4.7,2.7,-9.3,5.4,-13.9,8.1c-0.3,0.1,-0.8,-0.1,-1.1,-0.6c-0.3,-0.6,-0.3,-1.1,0,-1.3c6.1,-3.6,12.3,-7.1,18.4,-10.7c0.1,0,0.2,-0.1,0.3,-0.1c0.1,0,0.3,-0.1,0.4,-0.1" class="g8_3" />
<path d="M218.2,251.1c0.1,0,0.3,0,0.4,0.1c0.1,0.1,0.3,0.3,0.4,0.4c0.2,0.3,0.4,0.6,0.4,0.8c0,0.2,0,0.5,-0.1,0.6" class="g8_3" />
<path d="M337.9,224.3l18,10.8" class="g10_3" />
<path d="M335.1,226.1L353,236.8" class="g8_3" />
<path d="M333.7,229.9l17.9,10.7" class="g8_3" />
<path d="M334.1,231.5L353,242.7" class="g10_3" />
<path d="M266.4,267.7l60.9,-36.3c3.3,-2,4.7,-1.1,6.8,0.1" class="g10_3" />
<path d="M267.7,265.5l59.8,-35.8c2.7,-1.6,4.6,-0.7,6.2,0.2" class="g8_3" />
<path d="M266.2,261.8l60.9,-36.2c2.8,-1.7,5.3,-1.1,8,0.5" class="g8_3" />
<path d="M263.5,260.1l59.7,-35.8c6.5,-3.7,9.9,-2.7,14.7,0" class="g10_3" />
<path d="M351.6,240.5c0.7,-0.4,1.9,-2.1,1.4,-3.7" class="g8_3" />
<path d="M353,236.8c0.8,0.5,2.7,-0.6,2.9,-1.7" class="g8_3" />
<path d="M351.6,240.6c0.8,0.1,1.8,0.9,1.4,2.1" class="g8_3" />
<path d="M353,242.7c0.2,-0.6,1.8,-2,2.9,-1.6" class="g10_3" />
<path d="M355.9,241.1c-0.5,-1.1,0.5,-3.8,1.4,-3.9" class="g10_3" />
<path d="M355.9,235.1c0,0.7,0.2,1.8,1.4,2.1" class="g10_3" />
<path d="M267.7,265.5c-0.6,-0.5,-1.9,-2.1,-1.3,-3.8" class="g8_3" />
<path d="M266.4,261.7c-0.9,0.5,-2.7,-0.5,-2.9,-1.6" class="g8_3" />
<path d="M267.7,265.5c-0.8,0.1,-1.7,1,-1.3,2.2" class="g8_3" />
<path d="M266.4,267.7c-0.3,-0.6,-1.9,-2.1,-2.9,-1.7" class="g10_3" />
<path d="M263.5,266c0.4,-1.1,-0.5,-3.8,-1.5,-3.9" class="g10_3" />
<path d="M263.5,260.1c0,0.7,-0.2,1.8,-1.5,2" class="g10_3" />
<path d="M408.5,174.5l118,0" class="g8_3" />
<path d="M126.6,972.2l2,-413" class="g10_3" />
<path d="M823.7,290.2L128.5,593.1" class="g8_3" />
<path d="M128.6,559.2L771.6,279" class="g10_3" />
<path d="M154,994.1l2,-413" class="g8_3" />
<path d="M418.6,730.1L712.1,896.6m19.6,11.2l5.9,3.3" class="g8_3" />
<path d="M297.5,661.3l121.1,68.8" class="g8_3" />
<path d="M156,581.1l69.9,39.6" class="g8_3" />
<path d="M737.1,1057.7l0.2,-44.8m0.2,-76l0.1,-25.8" class="g8_3" />
<path d="M737.6,911.1l108,-46.3" class="g8_3" />
<path d="M455.4,464.7l-9.7,4.2c0,0,-2.8,1.8,-2.8,4.8c0,3,0,41.4,0,41.4c0,0,-0.1,3.3,2.9,2.2c3,-1.1,10,-4.3,10,-4.3c0,0,3,-1.5,3.2,-5.3c0.2,-3.7,-0.1,-41,-0.1,-41c0,0,-0.1,-3.5,-3.5,-2Z" class="g8_3" />
<path d="M450.5,512.9c2.1,-0.9,6.2,-5.3,6.1,-10.5c0,-5.2,-0.3,-29.4,-0.3,-29.4c0,0,-0.3,-2.8,-2.5,-3.4" class="g10_3" />
<path d="M445.2,504.1l0.1,4c0,0,0.5,2.1,1.2,2.8" class="g8_3" />
<path d="M454.7,506.3l-5.2,-1c0,0,-3.1,-0.1,-3.3,3.9c-0.2,3.9,3,3.6,4.3,3.7" class="g10_3" />
<path d="M448.6,504.5l-3.4,-0.4c-0.8,-0.1,-1.3,-0.5,-1.4,-1.8c0,-1.3,-0.2,-17.9,-0.2,-17.9c0,0,0.1,-2.8,2.2,-3c2.1,-0.1,4.6,-0.7,4.6,-0.7l2.2,0.6l2.9,0.5" class="g10_3" />
<path d="M445.2,504.1c2.5,-1.8,5.5,-4.2,5.5,-4.2c0,0,1.3,-0.3,1.2,-3.2c-0.2,-2.9,0,-12.5,0,-12.5c0,0,-0.7,-3.6,-2.4,-3.3" class="g8_3" />
<path d="M449.2,506.8c0.7,0.2,1,1.1,0.7,2.2c-0.3,1.1,-1.2,1.8,-1.9,1.7c-0.7,-0.1,-1,-1.1,-0.7,-2.2c0.4,-1,1.2,-1.8,1.9,-1.7Z" class="g8_3" />
<path d="M454.9,472.5l-5.2,-1c0,0,-3.1,-0.1,-3.3,3.9c-0.2,3.9,5.4,4,6.7,4.1" class="g10_3" />
<path d="M449.4,473c0.7,0.2,1,1.1,0.7,2.2c-0.3,1.1,-1.1,1.8,-1.8,1.7c-0.8,-0.1,-1.1,-1.1,-0.7,-2.2c0.3,-1,1.1,-1.8,1.8,-1.7Z" class="g8_3" />
<path d="M449.1,512.3c0.6,-1.2,1.5,-2.5,1.9,-2.6" class="g8_3" />
<path d="M451.2,506.2c-0.4,0.4,-0.4,2.7,-0.1,3.5" class="g8_3" />
<path d="M451.1,509.7l1.5,0.2" class="g8_3" />
<path d="M449.2,478.4c0.6,-1.2,1.5,-2.5,2,-2.6" class="g8_3" />
<path d="M451.4,472.4c-0.5,0.3,-0.5,2.6,-0.2,3.4" class="g8_3" />
<path d="M451.2,475.8l4.7,1" class="g8_3" />
<path d="M453.6,479.6c0.6,-1.3,1.5,-2.5,1.9,-2.7" class="g8_3" />
<path d="M452.4,499.2l3.6,1.2" class="g8_3" />
<path d="M453.8,469.6c-0.8,-0.4,-3.8,0.1,-4.6,1" class="g8_3" />
<path d="M445.9,476c-0.3,1.2,-0.2,5.4,-0.2,5.4" class="g8_3" />
<path d="M252.2,575c0.7,1.3,0.8,3.3,0,5.1c-0.6,1.5,-1.6,2.6,-2.6,3.1" class="g10_3" />
<path d="M249.1,573.6c0.6,-0.2,1.2,-0.1,1.8,0.1c0.6,0.3,1,0.7,1.3,1.3" class="g8_3" />
<path d="M249.1,573.6l-4.4,2.1" class="g8_3" />
<path d="M249.5,583.2l-4.7,2.3" class="g10_3" />
<path d="M244.6,585.4l0.1,-9.7l1.9,1.1l-0.1,7.6" class="g8_3" />
<path d="M246.6,576.8l3,-1.6c0,0,1.3,-0.6,2.5,0.8" class="g8_3" />
<path d="M246.6,576.8l5.3,3.2" class="g8_3" />
<path d="M267.7,559.5l0,5.1l-11.1,4.8" class="g10_3" />
<path d="M256.4,569.5l0,-5.4l11.3,-4.9" class="g8_3" />
<path d="M256.4,564.1l1.8,1.3" class="g8_3" />
<path d="M258.2,568.7l0,-3.3l9.3,-4.1" class="g8_3" />
<path d="M258.2,565.4l3.1,1.7" class="g8_3" />
<path d="M267.1,577.4l0,4.6l-10,4.3" class="g10_3" />
<path d="M256.9,586.5l0,-4.9l10.2,-4.4" class="g8_3" />
<path d="M256.9,581.6l1.6,1.1" class="g8_3" />
<path d="M258.5,585.8l0,-3.1l8.4,-3.7" class="g8_3" />
<path d="M258.5,582.7l2.8,1.6" class="g8_3" />
<path d="M285.7,560.1c0.8,1.3,0.8,3.2,0,5.1c-0.6,1.5,-1.5,2.6,-2.6,3.1" class="g10_3" />
<path d="M282.6,558.7c0.6,-0.2,1.3,-0.1,1.9,0.1c0.5,0.3,0.9,0.7,1.2,1.3" class="g8_3" />
<path d="M282.6,558.7l-4.3,2.1" class="g8_3" />
<path d="M283,568.3l-4.7,2.3" class="g10_3" />
<path d="M278.1,570.5l0.2,-9.7l1.8,1.1l-0.1,7.6" class="g8_3" />
<path d="M280.1,561.9l3,-1.6c0,0,1.3,-0.6,2.6,0.8" class="g8_3" />
<path d="M280.1,561.9l5.3,3.2" class="g8_3" />
<path d="M301.2,544.6l0,5.1l-11,4.8" class="g10_3" />
<path d="M289.9,554.6l0,-5.4l11.3,-4.9" class="g8_3" />
<path d="M289.9,549.2l1.8,1.3" class="g8_3" />
<path d="M291.7,553.8l0,-3.3l9.4,-4.1" class="g8_3" />
<path d="M291.7,550.5l3.1,1.7" class="g8_3" />
<path d="M300.6,562.5l0,4.6l-10,4.3" class="g10_3" />
<path d="M290.4,571.6l0,-4.9l10.2,-4.4" class="g8_3" />
<path d="M290.4,566.7l1.6,1.1" class="g8_3" />
<path d="M292,570.8l0,-3l8.4,-3.7" class="g8_3" />
<path d="M292,567.8l2.8,1.6" class="g8_3" />
<path d="M480.5,456.5l0,43" class="g8_3" />
<path d="M497.8,448.7l0,43.5" class="g8_3" />
<path d="M482.6,453l12.6,-5.5" class="g8_3" />
<path d="M482.7,501.2l12.6,-5.6" class="g8_3" />
<path d="M482.6,453c0,0,-2,0.9,-2.5,3.7" class="g8_3" />
<path d="M497.8,448.7c0,0,0.2,-2.1,-2.6,-1.2" class="g8_3" />
<path d="M480.1,500c0,0,0,1.9,2.6,1.2" class="g8_3" />
<path d="M497.8,492.2c0,0,0.2,1.9,-2.5,3.4" class="g8_3" />
<path d="M539.5,504.9c0.6,0.5,1,1.1,1,1.7c0,1.7,-2.8,3.1,-6.2,3.1c-3.4,0,-6.2,-1.4,-6.2,-3.1c0,-0.6,0.4,-1.2,1,-1.7" class="g8_3" />
<path d="M529.1,504.9c1.1,-0.9,3,-1.4,5.2,-1.4c2.2,0,4.1,0.6,5.2,1.4" class="g10_3" />
<path d="M539.2,504.7c0.4,1.8,-2.1,3.1,-5,3.1c-2.8,0,-5.3,-1.3,-4.9,-3.1" class="g8_3" />
<path d="M533.4,504.7l1.4,-0.1l0.6,0.7l-0.5,0.7l-1.4,0l-0.6,-0.6Z" class="g8_3" />
<path d="M520.7,432.2l-289,125.7" class="g10_3" />
<path d="M524.5,482.5l0,-46" class="g8_3" />
<path d="M231.1,616.2L519.4,490.7" class="g8_3" />
<path d="M225.9,563.6l-0.2,53.2" class="g10_3" />
<path d="M526.5,481.5l0,-47" class="g8_3" />
<path d="M595.5,528.4l0,-59.4" class="g10_3" />
<path d="M243.8,620.3L526.7,497.5" class="g8_3" />
<path d="M244,624.5L526.3,501.7" class="g8_3" />
<path d="M496.1,571l77.1,-33.3" class="g10_3" />
<path d="M310.1,652.2L328,644.4" class="g10_3" />
<path d="M580.6,537.6l12.6,-5.5" class="g10_3" />
<path d="M497.1,573.9l-32.5,13.9m0,0l-17.5,8.1" class="g10_3" />
<path d="M295.9,661.5l18,-7.8" class="g10_3" />
<path d="M240.8,631.5L292.2,661" class="g10_3" />
<path d="M539.1,502.2l52.3,29.7" class="g8_3" />
<path d="M540,498.4l50.9,29" class="g8_3" />
<path d="M532.6,491l62.1,35" class="g8_3" />
<path d="M532.4,433l61.9,34.8" class="g10_3" />
<path d="M594.7,526l-2.6,1.5c0,0,-0.6,0.1,-1.2,-0.1" class="g8_3" />
<path d="M594.7,526c0,0,0.5,-0.1,0.8,-0.9" class="g8_3" />
<path d="M595.5,528.4c0,0,0.2,2.6,-2.3,3.7" class="g10_3" />
<path d="M519.4,490.7c0,0,6.4,-2.3,13.2,0.3" class="g8_3" />
<path d="M526.7,497.5c0,0,6.4,-1.9,13.3,0.9" class="g8_3" />
<path d="M526.3,501.7c0,0,6.4,-2.3,12.8,0.5" class="g8_3" />
<path d="M520.7,432.2c0,0,6.2,-1.7,11.7,0.8" class="g10_3" />
<path d="M231.7,557.9c0,0,-2.9,1.2,-4.4,2.6c-1.4,1.3,-1.4,2.8,-1.4,3.1" class="g10_3" />
<path d="M315.4,650c0,0,0.2,3,-1.5,3.7" class="g10_3" />
<path d="M499,570c0,0,-0.2,3.1,-1.9,3.9" class="g10_3" />
<path d="M313.4,653.9c0,0,-4.4,-0.3,-3.3,-1.7" class="g8_3" />
<path d="M328,644.4c0,0,1.6,-0.5,2.5,0.5c1,0.9,2.6,0.4,3.2,0.1" class="g10_3" />
<path d="M573.2,537.7c0,0,2.6,-1,3.6,-0.1c1,1,3.2,0.2,3.8,0" class="g10_3" />
<path d="M329.9,644.6l-10.8,4.7l-2.3,-0.1" class="g10_3" />
<path d="M497.1,573.9c0,0.2,-3.9,0.1,-1.3,-3" class="g8_3" />
<path d="M605.2,481.5c0.6,0.5,0.9,1.1,0.9,1.7c0,1.8,-2.7,3.2,-6.1,3.2c-1.8,0,-3.4,-0.4,-4.5,-1" class="g8_3" />
<path d="M595.5,481.1c1.1,-0.6,2.7,-1,4.5,-1c2.2,0,4.1,0.6,5.2,1.4" class="g10_3" />
<path d="M604.9,481.3c0.4,1.9,-2.1,3.1,-5,3.1c-1.8,0,-3.6,-0.5,-4.4,-1.4" class="g8_3" />
<path d="M599.1,481.3l1.4,-0.1l0.5,0.7l-0.4,0.8l-1.4,0L598.6,482Z" class="g8_3" />
<path d="M594.3,467.8c0,0,0.8,0.1,1.2,1.2" class="g10_3" />
<path d="M597.3,469.5l15.7,9.1" class="g8_3" />
<path d="M597.2,473.6l15.7,9.1" class="g8_3" />
<path d="M614.2,480.2l0,4.6" class="g10_3" />
<path d="M595.5,494.4l17.1,-7.6" class="g10_3" />
<path d="M614.2,484.8c0,0,0,1.5,-1.6,2" class="g10_3" />
<path d="M613,478.6c0,0,1.1,0.5,1.3,1.5" class="g8_3" />
<path d="M612.9,482.7c0,0,0.8,0.3,1.3,1.1" class="g8_3" />
<path d="M595.7,473.6c0,0,0.6,-0.4,1.5,0" class="g8_3" />
<path d="M595.7,469.1c0,0,0.5,-0.2,1.6,0.4" class="g8_3" />
<path d="M591.4,531.9c0,0,0.9,0.4,1.6,0.1" class="g8_3" />
<path d="M405.1,501.2l-11.5,5.1" class="g8_3" />
<path d="M406,507l0,-6" class="g10_3" />
<path d="M393.5,514.5l11.6,-5.1" class="g10_3" />
<path d="M391.5,508.5l0,6" class="g8_3" />
<path d="M406.7,502.7l-12.6,5.5" class="g8_3" />
<path d="M394.5,508.5l0,6" class="g8_3" />
<path d="M406.7,505.3l-10.4,4.6" class="g10_3" />
<path d="M396,509l0,2" class="g10_3" />
<path d="M406.7,507.4l-10.4,4.5" class="g10_3" />
<path d="M394.1,508.2l3.2,1.2" class="g8_3" />
<path d="M396.3,511.9l1.6,0.7" class="g10_3" />
<path d="M392,508c0,0,0,-1,1.6,-1.7" class="g8_3" />
<path d="M392,514.3c0,0,0,0.9,1.5,0.2" class="g8_3" />
<path d="M406.7,507.5c0,0,0.1,1.2,-1.6,1.9" class="g10_3" />
<path d="M406.7,501.4c0,0,0,-0.9,-1.6,-0.2" class="g8_3" />
<path d="M405.2,512.7l-11.6,5.1" class="g8_3" />
<path d="M406,519l0,-7" class="g10_3" />
<path d="M393.6,526.1L405.1,521" class="g10_3" />
<path d="M392.5,519.5l0,6" class="g8_3" />
<path d="M406.7,514.3l-12.5,5.5" class="g8_3" />
<path d="M394.5,519.5l0,6" class="g8_3" />
<path d="M406.7,516.8l-10.4,4.6" class="g10_3" />
<path d="M396,521l0,2" class="g10_3" />
<path d="M406.7,518.9l-10.4,4.6" class="g10_3" />
<path d="M394.2,519.8l3.1,1.2" class="g8_3" />
<path d="M396.3,523.5l1.7,0.6" class="g10_3" />
<path d="M392,519.6c0,0,0,-1.1,1.6,-1.8" class="g8_3" />
<path d="M392,525.9c0,0,0,0.9,1.6,0.2" class="g8_3" />
<path d="M406.7,519.1c0,0,0.1,1.1,-1.6,1.9" class="g10_3" />
<path d="M406.7,513c0,0,0,-1,-1.5,-0.3" class="g8_3" />
<path d="M318.9,546.1c0.7,1.3,0.8,3.3,0,5.1c-0.6,1.5,-1.6,2.6,-2.6,3.1" class="g10_3" />
<path d="M315.8,544.7c0.6,-0.2,1.2,-0.1,1.8,0.1c0.6,0.3,1,0.7,1.3,1.3" class="g8_3" />
<path d="M315.8,544.7l-4.4,2.1" class="g8_3" />
<path d="M316.2,554.4l-4.7,2.2" class="g10_3" />
<path d="M311.3,556.5l0.1,-9.7l1.9,1.1l-0.1,7.6" class="g8_3" />
<path d="M313.3,547.9l3,-1.6c0,0,1.3,-0.5,2.5,0.9" class="g8_3" />
<path d="M313.3,547.9l5.3,3.2" class="g8_3" />
<path d="M334.4,530.6l0,5.1l-11.1,4.8" class="g10_3" />
<path d="M323.1,540.6l0,-5.4l11.3,-4.9" class="g8_3" />
<path d="M323.1,535.2l1.8,1.3" class="g8_3" />
<path d="M324.9,539.9l0,-3.4l9.3,-4.1" class="g8_3" />
<path d="M324.9,536.5l3.1,1.7" class="g8_3" />
<path d="M333.7,548.6l0,4.5l-9.9,4.4" class="g10_3" />
<path d="M323.6,557.6l0,-4.9l10.1,-4.4" class="g8_3" />
<path d="M323.6,552.7l1.6,1.1" class="g8_3" />
<path d="M325.2,556.9l0,-3.1l8.4,-3.7" class="g8_3" />
<path d="M325.2,553.8l2.8,1.6" class="g8_3" />
<path d="M352.4,531.2c0.8,1.3,0.8,3.3,0,5.1c-0.6,1.5,-1.5,2.6,-2.6,3.1" class="g10_3" />
<path d="M349.3,529.8c0.6,-0.2,1.3,-0.1,1.9,0.1c0.5,0.3,0.9,0.7,1.2,1.3" class="g8_3" />
<path d="M349.3,529.8l-4.3,2.1" class="g8_3" />
<path d="M349.7,539.5l-4.7,2.2" class="g10_3" />
<path d="M344.8,541.6l0.2,-9.7l1.8,1.1l-0.1,7.6" class="g8_3" />
<path d="M346.8,533l3,-1.6c0,0,1.3,-0.5,2.6,0.8" class="g8_3" />
<path d="M346.8,533l5.3,3.2" class="g8_3" />
<path d="M367.9,515.7l0,5.1l-11,4.8" class="g10_3" />
<path d="M356.6,525.7l0,-5.4l11.3,-4.9" class="g8_3" />
<path d="M356.6,520.3l1.8,1.3" class="g8_3" />
<path d="M358.4,524.9l0,-3.3l9.4,-4.1" class="g8_3" />
<path d="M358.4,521.6l3.1,1.7" class="g8_3" />
<path d="M367.3,533.7l0,4.5l-10,4.4" class="g10_3" />
<path d="M357.1,542.7l0,-4.9l10.2,-4.4" class="g8_3" />
<path d="M357.1,537.8l1.6,1.1" class="g8_3" />
<path d="M358.7,542l0,-3.1l8.4,-3.7" class="g8_3" />
<path d="M358.7,538.9l2.8,1.6" class="g8_3" />
<path d="M567.6,521.1c0.6,0.5,1,1.1,1,1.7c0,1.7,-2.8,3.1,-6.2,3.1c-3.4,0,-6.2,-1.4,-6.2,-3.1c0,-0.6,0.4,-1.2,1,-1.7" class="g8_3" />
<path d="M557.2,521.1c1.1,-0.9,3,-1.4,5.2,-1.4c2.2,0,4.1,0.5,5.2,1.4" class="g10_3" />
<path d="M567.3,520.9c0.4,1.8,-2.1,3,-5,3c-2.8,0,-5.3,-1.2,-4.8,-3" class="g8_3" />
<path d="M561.5,520.9l1.4,-0.1l0.6,0.7l-0.5,0.7l-1.4,0L561,521.6Z" class="g8_3" />
<path d="M283.5,644.2c0.6,0.5,1,1.1,1,1.7c0,1.8,-2.8,3.2,-6.2,3.2c-3.4,0,-6.2,-1.4,-6.2,-3.2c0,-0.6,0.4,-1.2,1,-1.7" class="g8_3" />
<path d="M273.1,644.2c1.1,-0.8,3,-1.4,5.2,-1.4c2.2,0,4.1,0.6,5.2,1.4" class="g10_3" />
<path d="M283.2,644c0.4,1.9,-2.1,3.1,-5,3.1c-2.8,0,-5.3,-1.2,-4.8,-3" class="g8_3" />
<path d="M277.4,644l1.4,-0.1l0.6,0.7l-0.5,0.8l-1.4,0l-0.6,-0.7Z" class="g8_3" />
<path d="M255.3,628.2c0.6,0.5,0.9,1.1,0.9,1.7c0,1.7,-2.7,3.1,-6.1,3.1c-3.4,0,-6.2,-1.4,-6.2,-3.1c0,-0.6,0.4,-1.2,1,-1.7" class="g8_3" />
<path d="M244.9,628.2c1.1,-0.9,3,-1.4,5.2,-1.4c2.2,0,4.1,0.5,5.2,1.4" class="g10_3" />
<path d="M255,628c0.4,1.8,-2.1,3.1,-5,3.1c-2.8,0,-5.3,-1.3,-4.9,-3.1" class="g8_3" />
<path d="M249.2,628l1.4,-0.1l0.6,0.7l-0.5,0.7l-1.4,0l-0.6,-0.6Z" class="g8_3" />
<path d="M333.7,645L447.1,595.9" class="g10_3" />
<path d="M292.2,661c0,0,1.5,1,3.7,0.5" class="g10_3" />
<path d="M240.8,631.5c-0.3,-0.2,-0.8,-0.9,-1,-1.6c-0.2,-0.6,-0.2,-1.3,-0.2,-1.4c0,-0.4,0,-4.5,0,-4.5" class="g10_3" />
<path d="M243.8,620.3c0,0,-1.5,0.7,-2.5,1.5c-1.1,0.9,-1.7,1.9,-1.7,2.2" class="g8_3" />
<path d="M244,624.5c0,0,-1.4,0.5,-2.5,1.4c-1.1,0.8,-1.9,2,-1.9,2.2" class="g8_3" />
<path d="M239.8,629.9L228,623.1c0,0,-1.2,-1.1,-1.7,-2.5c-0.6,-1.5,-0.6,-3.4,-0.6,-3.8" class="g10_3" />
<path d="M231.1,616.2c0,0,-5.1,2.1,-4.5,5.1" class="g8_3" />
<path d="M533.5,497.5l0,2" class="g8_3" />
<path d="M532.5,497.5l0,2" class="g8_3" />
<path d="M356.1,641.3c4,2.3,8.4,-5,7,-8.9" class="g8_3" />
<path d="M356.7,639.2c2.7,1.5,5.7,-3.6,4.5,-6" class="g8_3" />
<path d="M364.1,632c4.6,2.6,-0.7,13.4,-5.5,10.8c-1.7,-0.9,-2.1,-1.1,-2,-1.1c-0.4,-0.1,-1.1,-0.6,-1.3,-1.4" class="g10_3" />
<path fill-rule="evenodd" d="M325,880l140,0l0,-21l-140,0Z" class="g12_3" />
<path d="M363,891l-26,0" class="g13_3" />
<path d="M363,906l-26,0" class="g13_3" />
<path d="M363,924l-26,0" class="g13_3" />
<path d="M363,924l-26,0" class="g14_3" />
<path d="M363,906l-26,0" class="g15_3" />
<path d="M350.4,638.2c2.3,1.2,4.8,-0.6,6.2,-3.1" class="g8_3" />
<path d="M360.1,633.6c-0.6,3.7,-4,7.8,-7.2,6c-1.6,-0.9,-2,-1.1,-1.9,-1c-0.2,-0.1,-0.5,-0.3,-0.8,-0.5" class="g10_3" />
<path d="M362.2,644.6c4.8,2.7,10.2,-8.3,5.5,-10.8" class="g8_3" />
<path d="M362.9,642.5c3.1,1.7,6.6,-5.4,3.5,-7" class="g8_3" />
<path d="M365.6,633.3c0.7,-0.2,1.4,0.2,1.8,0.4c0,0,1.8,1,2.8,1.6c4.7,2.5,-0.6,13.4,-5.5,10.8c-1.7,-1,-2,-1.2,-2,-1.1c-0.4,-0.2,-1.1,-0.7,-1.3,-1.4" class="g10_3" />
<path d="M368,647.4c4.9,2.7,10.2,-8.3,5.5,-10.8" class="g8_3" />
<path d="M368.7,645.3c3.1,1.7,6.6,-5.4,3.5,-7" class="g8_3" />
<path d="M371.4,636.1c0.7,-0.2,1.4,0.2,1.8,0.4c0,0,1.8,1,2.8,1.6c4.7,2.5,-0.6,13.4,-5.5,10.8c-1.6,-0.9,-2,-1.2,-1.9,-1.1c-0.5,-0.2,-1.1,-0.7,-1.4,-1.4" class="g10_3" />
<path d="M374.2,650.4c4.9,2.5,9.9,-8.6,5.1,-11" class="g8_3" />
<path d="M374.8,648.3c3.2,1.6,6.4,-5.6,3.3,-7.1" class="g8_3" />
<path d="M377.2,639c0.7,-0.2,1.4,0.2,1.8,0.3c0,0,1.8,1,2.9,1.5c4.7,2.4,-0.2,13.5,-5.2,11c-1.7,-0.8,-2,-1,-2,-1c-0.4,-0.2,-1.1,-0.6,-1.3,-1.4" class="g10_3" />
<path d="M380.2,653c5,2.4,9.7,-8.8,4.9,-11.1" class="g8_3" />
<path d="M380.7,650.9c3.2,1.5,6.3,-5.7,3.2,-7.2" class="g8_3" />
<path d="M383,641.6c0.7,-0.3,1.3,0.1,1.7,0.2c0,0,1.9,0.9,3,1.5c4.8,2.3,0.1,13.4,-5,11c-1.7,-0.8,-2,-1,-2,-0.9c-0.4,-0.2,-1.1,-0.6,-1.4,-1.4" class="g10_3" />
<path d="M386.3,655.9c5.1,2.4,9.7,-9,4.8,-11.1" class="g8_3" />
<path d="M386.9,653.8c3.2,1.5,6.2,-5.8,3,-7.2" class="g8_3" />
<path d="M389,644.4c0.7,-0.2,1.4,0.1,1.8,0.3c0,0,1.8,0.9,2.9,1.4c4.8,2.2,0.3,13.4,-4.8,11.1c-1.7,-0.8,-2.1,-1,-2,-0.9c-0.5,-0.2,-1.1,-0.6,-1.4,-1.4" class="g10_3" />
<path d="M392.4,658.3c5,2.3,9.5,-9.1,4.5,-11.2" class="g8_3" />
<path d="M392.9,656.2c3.2,1.4,6.1,-5.9,2.9,-7.3" class="g8_3" />
<path d="M394.8,646.8c0.7,-0.3,1.4,0,1.8,0.2c0,0,1.9,0.9,3,1.3c4.8,2.2,0.5,13.5,-4.6,11.3c-1.7,-0.8,-2.1,-1,-2,-0.9c-0.5,-0.2,-1.2,-0.6,-1.5,-1.3" class="g10_3" />
<path d="M398.3,660.7c5.1,2.3,9.6,-9,4.7,-11.2" class="g8_3" />
<path d="M398.9,658.6c3.2,1.5,6.1,-5.9,3,-7.2" class="g8_3" />
<path d="M400.9,649.2c0.7,-0.2,1.4,0.1,1.8,0.2c0,0,1.8,0.9,2.9,1.4c4.9,2.2,0.4,13.5,-4.6,11.2c-1.8,-0.8,-2.1,-1,-2.1,-0.9c-0.4,-0.2,-1.1,-0.6,-1.4,-1.3" class="g10_3" />
<path d="M404.4,663.1c5.1,2.2,9.4,-9.3,4.5,-11.3" class="g8_3" />
<path d="M404.9,660.9c3.3,1.5,6.1,-5.9,2.9,-7.3" class="g8_3" />
<path d="M406.8,651.5c0.6,-0.2,1.3,0.1,1.7,0.2c0,0,1.9,0.8,3,1.3c4.9,2.2,0.7,13.5,-4.5,11.3c-1.7,-0.8,-2.1,-0.9,-2,-0.9c-0.5,-0.1,-1.2,-0.5,-1.5,-1.3" class="g10_3" />
<path d="M410.7,665.7c5.1,2.2,9.3,-9.3,4.3,-11.3" class="g8_3" />
<path d="M411.1,663.6c3.4,1.4,6,-6.1,2.8,-7.3" class="g8_3" />
<path d="M412.9,654.1c0.7,-0.2,1.4,0.1,1.8,0.2c0,0,1.9,0.8,3,1.3c4.9,2.1,0.8,13.4,-4.3,11.3c-1.8,-0.7,-2.2,-0.9,-2.1,-0.8c-0.5,-0.2,-1.2,-0.6,-1.5,-1.3" class="g10_3" />
<path d="M416.8,667.9c5.2,2.1,9.1,-9.5,4.2,-11.4" class="g8_3" />
<path d="M417.2,665.7c3.4,1.4,5.9,-6.1,2.7,-7.3" class="g8_3" />
<path d="M418.8,656.3c0.7,-0.3,1.4,0,1.8,0.1c0,0,1.9,0.8,3,1.2c5,2,1.1,13.4,-4.1,11.4c-1.8,-0.7,-2.2,-0.8,-2.1,-0.8c-0.4,-0.1,-1.2,-0.5,-1.5,-1.2" class="g10_3" />
<path d="M422.6,670.3c5.1,2.3,9.6,-9,4.7,-11.2" class="g8_3" />
<path d="M423.2,668.2c3.2,1.5,6.1,-5.9,3,-7.3" class="g8_3" />
<path d="M425.2,658.8c0.7,-0.2,1.4,0.1,1.8,0.2c0,0,1.8,0.9,2.9,1.4c4.9,2.2,0.4,13.4,-4.6,11.2c-1.8,-0.8,-2.1,-1,-2.1,-0.9c-0.4,-0.2,-1.1,-0.6,-1.4,-1.3" class="g10_3" />
<path d="M428.7,672.7c5.1,2.2,9.4,-9.3,4.5,-11.3" class="g8_3" />
<path d="M429.2,670.5c3.3,1.5,6.1,-6,2.9,-7.3" class="g8_3" />
<path d="M431.1,661.1c0.6,-0.2,1.3,0.1,1.7,0.2c0,0,1.9,0.8,3,1.3c4.9,2.1,0.7,13.5,-4.5,11.3c-1.7,-0.8,-2.1,-0.9,-2,-0.9c-0.5,-0.1,-1.2,-0.5,-1.5,-1.3" class="g10_3" />
<path d="M435,675.3c5.1,2.2,9.3,-9.3,4.3,-11.3" class="g8_3" />
<path d="M435.4,673.2c3.4,1.4,6,-6.1,2.8,-7.3" class="g8_3" />
<path d="M437.2,663.7c0.7,-0.2,1.4,0.1,1.8,0.2c0,0,1.9,0.8,3,1.3c4.9,2.1,0.8,13.4,-4.3,11.3c-1.8,-0.7,-2.2,-0.9,-2.1,-0.8c-0.5,-0.2,-1.2,-0.6,-1.5,-1.3" class="g10_3" />
<path d="M441.1,677.5c5.2,2.1,9.1,-9.5,4.2,-11.4" class="g8_3" />
<path d="M441.5,675.3c3.4,1.4,5.9,-6.1,2.7,-7.3" class="g8_3" />
<path d="M443.1,665.9c0.7,-0.3,1.4,0,1.8,0.1c0,0,1.9,0.8,3,1.2c5,2,1.1,13.4,-4.1,11.4c-1.8,-0.7,-2.2,-0.8,-2.1,-0.8c-0.4,-0.1,-1.2,-0.5,-1.5,-1.2" class="g10_3" />
<path d="M447.4,679.8c5.2,2.1,9.2,-9.5,4.3,-11.4" class="g8_3" />
<path d="M447.9,677.6c3.3,1.4,5.9,-6.1,2.7,-7.3" class="g8_3" />
<path d="M449.6,668.2c0.6,-0.3,1.3,0,1.7,0.1c0,0,1.9,0.8,3,1.3c5,2,1,13.4,-4.2,11.3C448.3,680.2,448,680,448,680.1c-0.4,-0.1,-1.2,-0.5,-1.4,-1.3" class="g10_3" />
<path d="M453.6,681.9c5.2,2,9,-9.6,4,-11.5" class="g8_3" />
<path d="M454,679.7c3.3,1.3,5.8,-6.2,2.6,-7.4" class="g8_3" />
<path d="M455.5,670.2c0.7,-0.2,1.4,0,1.8,0.2c0,0,1.9,0.7,3,1.2c5,1.9,1.2,13.4,-4,11.4c-1.8,-0.7,-2.2,-0.9,-2.1,-0.8c-0.5,-0.1,-1.2,-0.5,-1.5,-1.2" class="g10_3" />
<path d="M460,684.3c5.2,1.9,8.9,-9.7,3.9,-11.5" class="g8_3" />
<path d="M460.3,682.1c3.4,1.3,5.8,-6.3,2.5,-7.4" class="g8_3" />
<path d="M461.7,672.6c0.7,-0.3,1.4,0,1.8,0.1c0,0,1.9,0.8,3,1.2c5,1.9,1.4,13.4,-3.8,11.5c-1.8,-0.7,-2.2,-0.8,-2.1,-0.8c-0.5,-0.1,-1.2,-0.5,-1.5,-1.2" class="g10_3" />
<path d="M466.2,686.2c5.2,1.9,8.7,-9.8,3.7,-11.5" class="g8_3" />
<path d="M466.5,684c3.4,1.2,5.7,-6.3,2.4,-7.4" class="g8_3" />
<path d="M467.7,674.5c0.7,-0.3,1.4,0,1.8,0.1c0,0,2,0.7,3.1,1.1c5,1.8,1.5,13.3,-3.7,11.5c-1.8,-0.6,-2.2,-0.7,-2.1,-0.7c-0.5,-0.1,-1.2,-0.5,-1.5,-1.2" class="g10_3" />
<path d="M471.9,688.5c5.2,2.2,9.3,-9.3,4.4,-11.3" class="g8_3" />
<path d="M472.4,686.4c3.3,1.4,6,-6.1,2.8,-7.3" class="g8_3" />
<path d="M474.1,677c0.7,-0.3,1.4,0,1.8,0.1c0,0,1.9,0.8,3,1.3c4.9,2.1,0.8,13.4,-4.3,11.3c-1.8,-0.7,-2.1,-0.9,-2.1,-0.8c-0.4,-0.1,-1.1,-0.6,-1.4,-1.3" class="g10_3" />
<path d="M478.1,690.7c5.1,2.1,9.1,-9.5,4.1,-11.4" class="g8_3" />
<path d="M478.5,688.5c3.3,1.4,5.9,-6.1,2.6,-7.3" class="g8_3" />
<path d="M480.1,679.1c0.6,-0.3,1.3,0,1.7,0.1c0,0,2,0.8,3.1,1.2c4.9,2,1,13.4,-4.1,11.4C479,691.1,478.6,691,478.7,691c-0.5,-0.1,-1.2,-0.5,-1.5,-1.2" class="g10_3" />
<path d="M484.4,693.2c5.2,2,9,-9.7,4,-11.5" class="g8_3" />
<path d="M484.8,691c3.4,1.3,5.8,-6.2,2.6,-7.4" class="g8_3" />
<path d="M486.3,681.5c0.7,-0.3,1.4,0,1.8,0.1c0,0,1.9,0.8,3,1.2c5,1.9,1.2,13.4,-4,11.5c-1.7,-0.7,-2.1,-0.9,-2.1,-0.8c-0.4,-0.1,-1.1,-0.5,-1.5,-1.2" class="g10_3" />
<path d="M490.6,695.1c5.3,1.9,8.8,-9.8,3.8,-11.5" class="g8_3" />
<path d="M491,692.9c3.4,1.3,5.7,-6.3,2.4,-7.4" class="g8_3" />
<path d="M492.3,683.4c0.6,-0.3,1.4,0,1.8,0.1c0,0,1.9,0.7,3,1.2c5,1.8,1.5,13.3,-3.7,11.5c-1.8,-0.7,-2.2,-0.8,-2.1,-0.8c-0.5,-0.1,-1.2,-0.5,-1.6,-1.2" class="g10_3" />
<path d="M496.5,697.3c5.1,2.2,9.2,-9.3,4.3,-11.3" class="g8_3" />
<path d="M496.9,695.2c3.3,1.4,6,-6.1,2.8,-7.4" class="g8_3" />
<path d="M498.7,685.7c0.6,-0.2,1.3,0.1,1.7,0.2c0,0,1.9,0.8,3,1.3c4.9,2,0.9,13.4,-4.3,11.3c-1.7,-0.7,-2.1,-0.9,-2,-0.8c-0.5,-0.2,-1.2,-0.6,-1.5,-1.3" class="g10_3" />
<path d="M502.6,699.5c5.2,2,9.1,-9.6,4.1,-11.4" class="g8_3" />
<path d="M503,697.3c3.3,1.3,5.9,-6.2,2.7,-7.4" class="g8_3" />
<path d="M504.6,687.8c0.7,-0.2,1.4,0.1,1.8,0.2c0,0,1.9,0.8,3,1.2c4.9,2,1.1,13.4,-4.1,11.4c-1.8,-0.7,-2.2,-0.9,-2.1,-0.8c-0.5,-0.1,-1.2,-0.5,-1.5,-1.3" class="g10_3" />
<path d="M509,701.9c5.2,2,8.9,-9.6,3.9,-11.4" class="g8_3" />
<path d="M509.3,699.8c3.4,1.3,5.9,-6.3,2.6,-7.4" class="g8_3" />
<path d="M510.8,690.3c0.7,-0.3,1.4,0,1.8,0.1c0,0,1.9,0.8,3,1.2c5,1.9,1.3,13.4,-3.9,11.4c-1.8,-0.6,-2.2,-0.8,-2.1,-0.8c-0.5,-0.1,-1.2,-0.5,-1.5,-1.2" class="g10_3" />
<path d="M515.2,703.9c5.2,1.9,8.8,-9.8,3.7,-11.5" class="g8_3" />
<path d="M515.5,701.7c3.4,1.3,5.7,-6.3,2.4,-7.4" class="g8_3" />
<path d="M516.8,692.2c0.7,-0.3,1.4,0,1.8,0.1c0,0,1.9,0.7,3,1.1c5,1.8,1.5,13.4,-3.7,11.5c-1.8,-0.6,-2.2,-0.8,-2.1,-0.7c-0.5,-0.1,-1.2,-0.5,-1.5,-1.2" class="g10_3" />
<path d="M521.3,706c5.1,2.2,9.2,-9.3,4.3,-11.3" class="g8_3" />
<path d="M521.7,703.9c3.3,1.4,6,-6.1,2.8,-7.4" class="g8_3" />
<path d="M523.5,694.4c0.6,-0.2,1.3,0.1,1.7,0.2c0,0,1.9,0.8,3,1.3c5,2,0.9,13.4,-4.3,11.3c-1.7,-0.7,-2.1,-0.9,-2,-0.8c-0.5,-0.2,-1.2,-0.6,-1.5,-1.3" class="g10_3" />
<path d="M527.4,708.2c5.2,2,9.1,-9.6,4.1,-11.4" class="g8_3" />
<path d="M527.8,706c3.4,1.3,5.9,-6.1,2.7,-7.4" class="g8_3" />
<path d="M529.4,696.5c0.7,-0.2,1.4,0.1,1.8,0.2c0,0,1.9,0.8,3,1.2c4.9,2,1.1,13.4,-4.1,11.4c-1.8,-0.7,-2.2,-0.8,-2.1,-0.8c-0.5,-0.1,-1.2,-0.5,-1.5,-1.2" class="g10_3" />
<path d="M533.8,710.6c5.2,2,9,-9.6,3.9,-11.4" class="g8_3" />
<path d="M534.2,708.5c3.3,1.3,5.8,-6.3,2.5,-7.4" class="g8_3" />
<path d="M535.6,699c0.7,-0.3,1.4,0,1.8,0.1c0,0,1.9,0.8,3,1.2c5,1.9,1.3,13.4,-3.9,11.4c-1.8,-0.6,-2.2,-0.8,-2.1,-0.7c-0.5,-0.2,-1.2,-0.5,-1.5,-1.3" class="g10_3" />
<path d="M540,712.6c5.2,1.9,8.8,-9.8,3.7,-11.5" class="g8_3" />
<path d="M540.3,710.4c3.4,1.3,5.7,-6.3,2.4,-7.4" class="g8_3" />
<path d="M541.6,700.9c0.7,-0.3,1.4,0,1.8,0.1c0,0,1.9,0.7,3,1.1c5.1,1.8,1.5,13.4,-3.7,11.5c-1.8,-0.6,-2.2,-0.7,-2.1,-0.7c-0.5,-0.1,-1.2,-0.5,-1.5,-1.2" class="g10_3" />
<path d="M546,714.8c5.1,2.2,9.2,-9.3,4.3,-11.3" class="g8_3" />
<path d="M546.4,712.7c3.3,1.4,6,-6.1,2.8,-7.3" class="g8_3" />
<path d="M548.2,703.3c0.6,-0.3,1.3,0,1.7,0.1c0,0,1.9,0.8,3,1.3c4.9,2.1,0.9,13.4,-4.3,11.3c-1.7,-0.7,-2.1,-0.9,-2,-0.8c-0.5,-0.1,-1.2,-0.6,-1.5,-1.3" class="g10_3" />
<path d="M552.1,717c5.2,2.1,9.1,-9.5,4.1,-11.4" class="g8_3" />
<path d="M552.5,714.8c3.3,1.4,5.9,-6.1,2.7,-7.3" class="g8_3" />
<path d="M554.1,705.4c0.7,-0.3,1.4,0,1.8,0.1c0,0,1.9,0.8,3,1.2c4.9,2,1.1,13.4,-4.1,11.4c-1.8,-0.7,-2.2,-0.8,-2.1,-0.8c-0.5,-0.1,-1.2,-0.5,-1.5,-1.2" class="g10_3" />
<path d="M558.5,719.5c5.2,2,8.9,-9.7,3.9,-11.5" class="g8_3" />
<path d="M558.8,717.3c3.4,1.3,5.9,-6.2,2.6,-7.4" class="g8_3" />
<path d="M560.3,707.8c0.7,-0.3,1.4,0,1.8,0.1c0,0,1.9,0.8,3,1.2c5,1.9,1.3,13.4,-3.9,11.5c-1.8,-0.7,-2.2,-0.9,-2.1,-0.8c-0.5,-0.1,-1.2,-0.5,-1.5,-1.2" class="g10_3" />
<path d="M564.7,721.4c5.2,1.9,8.8,-9.8,3.7,-11.5" class="g8_3" />
<path d="M565,719.2c3.4,1.3,5.7,-6.3,2.4,-7.4" class="g8_3" />
<path d="M566.3,709.7c0.7,-0.3,1.4,0,1.8,0.1c0,0,1.9,0.7,3,1.2c5.1,1.8,1.5,13.3,-3.7,11.5c-1.8,-0.7,-2.2,-0.8,-2.1,-0.8c-0.5,-0.1,-1.2,-0.5,-1.5,-1.2" class="g10_3" />
<path d="M570,723.4c5,2.5,10,-8.7,5.2,-11" class="g8_3" />
<path d="M570.6,721.3c3.2,1.6,6.5,-5.6,3.4,-7.1" class="g8_3" />
<path d="M573.1,712c0.7,-0.2,1.3,0.1,1.7,0.3c0,0,1.9,1,2.9,1.5c4.8,2.4,-0.1,13.4,-5.1,11c-1.7,-0.9,-2.1,-1.1,-2,-1c-0.4,-0.2,-1.1,-0.6,-1.4,-1.4" class="g10_3" />
<path d="M576,726c5,2.4,9.8,-8.9,4.9,-11.1" class="g8_3" />
<path d="M576.6,723.9c3.2,1.5,6.3,-5.8,3.2,-7.2" class="g8_3" />
<path d="M578.8,714.5c0.7,-0.2,1.4,0.1,1.8,0.3c0,0,1.8,0.9,2.9,1.4c4.8,2.4,0.1,13.5,-4.9,11.1c-1.7,-0.8,-2.1,-1,-2,-0.9c-0.5,-0.2,-1.2,-0.6,-1.4,-1.4" class="g10_3" />
<path d="M581.7,728.8c4.9,2.7,10.2,-8.3,5.5,-10.8" class="g8_3" />
<path d="M582.4,726.7c3.2,1.8,6.6,-5.4,3.5,-7" class="g8_3" />
<path d="M585.1,717.5c0.7,-0.2,1.4,0.2,1.8,0.4c0,0,1.8,1,2.8,1.6c4.7,2.5,-0.5,13.4,-5.4,10.8c-1.7,-0.9,-2.1,-1.1,-2,-1.1c-0.5,-0.1,-1.1,-0.6,-1.3,-1.4" class="g10_3" />
<path d="M587.6,731.6c4.9,2.6,10,-8.5,5.3,-10.9" class="g8_3" />
<path d="M588.3,729.5c3.1,1.7,6.4,-5.5,3.3,-7.1" class="g8_3" />
<path d="M590.8,720.2c0.7,-0.2,1.4,0.2,1.7,0.4c0,0,1.9,0.9,2.9,1.5c4.7,2.4,-0.3,13.4,-5.2,10.9c-1.7,-0.9,-2.1,-1.1,-2,-1c-0.5,-0.2,-1.1,-0.7,-1.4,-1.4" class="g10_3" />
<path d="M593.7,734.7c5,2.5,9.9,-8.7,5.1,-11" class="g8_3" />
<path d="M594.3,732.6c3.2,1.6,6.4,-5.6,3.3,-7.1" class="g8_3" />
<path d="M596.7,723.3c0.7,-0.2,1.4,0.1,1.8,0.3c0,0,1.8,0.9,2.9,1.5c4.7,2.4,-0.1,13.4,-5.1,11c-1.7,-0.9,-2.1,-1.1,-2,-1c-0.5,-0.2,-1.2,-0.6,-1.4,-1.4" class="g10_3" />
<path d="M599.5,737.7c5,2.4,9.8,-8.8,4.9,-11.1" class="g8_3" />
<path d="M600.1,735.6c3.2,1.5,6.3,-5.7,3.2,-7.2" class="g8_3" />
<path d="M602.3,726.2c0.7,-0.2,1.4,0.2,1.8,0.3c0,0,1.9,0.9,2.9,1.4c4.8,2.4,0.1,13.5,-4.9,11.1c-1.7,-0.8,-2.1,-1,-2,-0.9c-0.5,-0.2,-1.1,-0.6,-1.4,-1.4" class="g10_3" />
<path d="M604.8,740.3c4.6,3.2,10.9,-7.3,6.4,-10.2" class="g8_3" />
<path d="M605.6,738.3c3,2,7.1,-4.8,4.2,-6.6" class="g8_3" />
<path d="M609.2,729.4c0.7,-0.1,1.3,0.3,1.7,0.5c0,0,1.7,1.2,2.7,1.8c4.4,3,-1.8,13.4,-6.5,10.3c-1.5,-1,-1.9,-1.3,-1.8,-1.2c-0.5,-0.2,-1.1,-0.8,-1.2,-1.5" class="g10_3" />
<path d="M610.4,743.6c4.6,3.1,10.7,-7.5,6.2,-10.4" class="g8_3" />
<path d="M611.2,741.6c3,2,7,-4.9,4,-6.7" class="g8_3" />
<path d="M614.6,732.6c0.7,-0.1,1.3,0.3,1.7,0.5c0,0,1.7,1.1,2.7,1.8c4.5,2.9,-1.5,13.3,-6.2,10.4c-1.6,-1,-2,-1.3,-1.9,-1.2c-0.4,-0.2,-1.1,-0.8,-1.2,-1.5" class="g10_3" />
<path d="M615.7,747.2c4.5,3.2,11.1,-7.1,6.7,-10.1" class="g8_3" />
<path d="M616.6,745.2c2.9,2.1,7.2,-4.6,4.4,-6.5" class="g8_3" />
<path d="M620.4,736.4c0.7,-0.1,1.4,0.3,1.7,0.5c0,0,1.7,1.2,2.7,1.9c4.3,3.1,-2.2,13.3,-6.8,10.1c-1.5,-1.1,-1.9,-1.3,-1.8,-1.3c-0.4,-0.2,-1,-0.8,-1.1,-1.5" class="g10_3" />
<path d="M621.2,750.6c4.6,3.2,11,-7.2,6.6,-10.2" class="g8_3" />
<path d="M622.1,748.6c3,2.1,7.1,-4.7,4.2,-6.6" class="g8_3" />
<path d="M625.7,739.7c0.8,-0.1,1.4,0.4,1.7,0.6c0,0,1.7,1.2,2.7,1.8c4.4,3.1,-1.9,13.3,-6.5,10.2c-1.6,-1,-1.9,-1.3,-1.9,-1.2c-0.4,-0.2,-1,-0.8,-1.1,-1.6" class="g10_3" />
<path d="M626.9,754.4c4.6,3.2,10.9,-7.3,6.4,-10.2" class="g8_3" />
<path d="M627.7,752.4c3,2,7.1,-4.8,4.2,-6.6" class="g8_3" />
<path d="M631.3,743.5c0.7,-0.1,1.3,0.3,1.7,0.5c0,0,1.7,1.2,2.7,1.8c4.4,3,-1.8,13.4,-6.4,10.3c-1.6,-1,-2,-1.3,-1.9,-1.2c-0.4,-0.2,-1.1,-0.8,-1.2,-1.5" class="g10_3" />
<path d="M632.1,757.7c4.4,3.4,11.3,-6.7,7,-9.9" class="g8_3" />
<path d="M633,755.8c2.9,2.1,7.3,-4.4,4.6,-6.4" class="g8_3" />
<path d="M637.1,747.1c0.7,-0.1,1.3,0.3,1.6,0.6c0,0,1.7,1.2,2.6,1.9c4.3,3.2,-2.5,13.2,-6.9,9.9c-1.6,-1.1,-1.9,-1.3,-1.8,-1.3c-0.4,-0.2,-1,-0.8,-1.1,-1.6" class="g10_3" />
<path d="M636.1,760.8c3.7,4.2,12.4,-4.4,8.8,-8.4" class="g8_3" />
<path d="M638.4,759.7c2.7,0.7,6.8,-3.8,4.7,-6.1" class="g8_3" />
<path d="M643.1,751.3c0.7,0.1,1.2,0.6,1.5,0.9c0,0,1.4,1.6,2.2,2.5c3.5,3.9,-5.1,12.4,-8.8,8.3c-1.3,-1.4,-1.5,-1.7,-1.5,-1.6c-0.2,-0.2,-0.5,-0.6,-0.7,-1.1" class="g8_3" />
<path d="M640.7,765.4c3.8,4.1,12.3,-4.7,8.6,-8.5" class="g8_3" />
<path d="M642,763.6c2.5,2.7,8,-3,5.6,-5.5" class="g8_3" />
<path d="M647.5,755.8c0.8,0,1.3,0.6,1.6,0.9c0,0,1.4,1.5,2.2,2.4c3.6,3.9,-4.8,12.5,-8.6,8.5c-1.3,-1.4,-1.6,-1.7,-1.6,-1.7c-0.3,-0.3,-0.8,-0.9,-0.8,-1.7" class="g8_3" />
<path d="M645,770.1c3.6,4.3,12.5,-4,9,-8.1" class="g8_3" />
<path d="M646.4,768.4c2.3,2.8,8.1,-2.6,5.8,-5.2" class="g8_3" />
<path d="M652.3,760.8c0.7,0.1,1.2,0.7,1.5,1c0,0,1.3,1.6,2.1,2.5c3.4,4.1,-5.5,12.3,-9.1,8.1c-1.2,-1.4,-1.5,-1.8,-1.4,-1.7c-0.4,-0.3,-0.8,-1,-0.7,-1.8" class="g8_3" />
<path d="M649.5,774.8c3.6,4.3,12.4,-4.2,8.9,-8.2" class="g8_3" />
<path d="M650.8,773.1c2.4,2.7,8.1,-2.8,5.8,-5.3" class="g8_3" />
<path d="M656.6,765.4c0.7,0.1,1.2,0.7,1.5,1c0,0,1.3,1.5,2.1,2.4c3.5,4.1,-5.2,12.4,-8.9,8.3c-1.2,-1.4,-1.5,-1.8,-1.4,-1.7c-0.4,-0.3,-0.8,-1,-0.8,-1.8" class="g8_3" />
<path d="M654,780c3.7,4.1,12.4,-4.5,8.8,-8.4" class="g8_3" />
<path d="M655.3,778.2c2.4,2.7,8.1,-2.9,5.7,-5.4" class="g8_3" />
<path d="M661,770.5c0.7,0,1.2,0.6,1.5,0.9c0,0,1.4,1.5,2.2,2.4c3.5,4,-5.1,12.5,-8.8,8.4c-1.3,-1.4,-1.5,-1.7,-1.5,-1.7c-0.4,-0.3,-0.8,-1,-0.8,-1.8" class="g8_3" />
<path d="M658.2,784.6c3.5,4.4,12.6,-3.9,9.1,-7.9" class="g8_3" />
<path d="M659.6,783c2.3,2.8,8.1,-2.6,5.9,-5.2" class="g8_3" />
<path d="M665.6,775.5c0.7,0,1.2,0.6,1.5,0.9c0,0,1.3,1.6,2,2.6c3.4,4.1,-5.5,12.2,-9.1,7.9c-1.2,-1.4,-1.5,-1.7,-1.4,-1.7c-0.4,-0.3,-0.8,-1,-0.7,-1.8" class="g8_3" />
<path d="M661.6,789c2.9,4.7,13,-2.2,10.1,-6.7" class="g8_3" />
<path d="M663.2,787.5c1.9,3.1,8.4,-1.4,6.6,-4.3" class="g8_3" />
<path d="M670.2,780.9c0.7,0.1,1.1,0.8,1.3,1.1c0,0,1.1,1.8,1.7,2.8c2.8,4.5,-7.2,11.4,-10.1,6.7c-1,-1.6,-1.2,-2,-1.2,-1.9c-0.3,-0.4,-0.6,-1.1,-0.4,-1.9" class="g8_3" />
<path d="M665.4,794.3c3,4.7,12.9,-2.4,9.9,-6.9" class="g8_3" />
<path d="M666.9,792.8c2,3,8.4,-1.6,6.5,-4.5" class="g8_3" />
<path d="M673.8,786c0.7,0.2,1.1,0.8,1.3,1.2c0,0,1.1,1.7,1.8,2.7c2.8,4.5,-7,11.5,-10,6.9c-1.1,-1.6,-1.3,-2,-1.2,-1.9c-0.4,-0.4,-0.7,-1.1,-0.5,-1.9" class="g8_3" />
<path d="M668.8,799.7c2.7,4.8,13,-1.8,10.3,-6.4" class="g8_3" />
<path d="M670.4,798.3c1.8,3.1,8.4,-1.2,6.7,-4.1" class="g8_3" />
<path d="M677.5,791.9c0.7,0.2,1.1,0.8,1.3,1.2c0,0,1,1.8,1.6,2.8c2.7,4.6,-7.4,11.2,-10.3,6.4c-0.9,-1.7,-1.1,-2,-1.1,-1.9c-0.3,-0.4,-0.6,-1.2,-0.4,-1.9" class="g8_3" />
<path d="M672.3,805.2c2.9,4.7,13,-2.1,10.2,-6.6" class="g8_3" />
<path d="M674,803.7c1.8,3.1,8.4,-1.3,6.5,-4.3" class="g8_3" />
<path d="M681,797.1c0.7,0.2,1.1,0.9,1.3,1.2c0,0,1,1.8,1.6,2.8c2.8,4.6,-7.2,11.3,-10.1,6.6c-1,-1.6,-1.2,-2,-1.2,-1.9c-0.3,-0.4,-0.6,-1.1,-0.4,-1.9" class="g8_3" />
<path d="M675.9,811c2.9,4.7,13,-2.2,10.1,-6.7" class="g8_3" />
<path d="M677.5,809.5c1.9,3.1,8.4,-1.4,6.5,-4.3" class="g8_3" />
<path d="M684.4,802.9c0.7,0.1,1.1,0.8,1.4,1.1c0,0,1,1.8,1.7,2.8c2.8,4.5,-7.2,11.4,-10.1,6.7c-1.1,-1.6,-1.3,-2,-1.2,-1.9c-0.3,-0.4,-0.7,-1.1,-0.5,-1.9" class="g8_3" />
<path d="M679.6,816.3c3,4.7,13,-2.4,10,-6.9" class="g8_3" />
<path d="M681.2,814.8c1.9,3,8.4,-1.6,6.5,-4.5" class="g8_3" />
<path d="M688,808c0.7,0.2,1.1,0.8,1.4,1.2c0,0,1.1,1.7,1.7,2.7c2.9,4.5,-6.9,11.5,-10,6.9c-1,-1.6,-1.2,-2,-1.2,-1.9c-0.3,-0.3,-0.6,-1.1,-0.5,-1.9" class="g8_3" />
<path d="M682.3,821.7c2.4,5,13.2,-0.8,10.8,-5.6" class="g8_3" />
<path d="M684.1,820.4c1.5,3.2,8.5,-0.5,7,-3.6" class="g8_3" />
<path d="M691.7,814.5c0.7,0.3,1,1,1.2,1.3c0,0,0.9,1.9,1.4,3c2.3,4.8,-8.3,10.5,-10.8,5.5c-0.8,-1.7,-1,-2.1,-0.9,-2c-0.3,-0.4,-0.6,-1.2,-0.3,-1.9" class="g8_3" />
<path d="M685.5,827.4c2.4,5,13.1,-1,10.6,-5.8" class="g8_3" />
<path d="M687.2,826c1.6,3.3,8.5,-0.6,6.9,-3.7" class="g8_3" />
<path d="M694.7,820.1c0.7,0.2,1,0.9,1.3,1.2c0,0,0.9,1.9,1.4,3c2.4,4.7,-8.2,10.7,-10.7,5.7c-0.8,-1.7,-1,-2.1,-1,-2c-0.3,-0.4,-0.5,-1.2,-0.3,-1.9" class="g8_3" />
<path d="M688.3,833.1c2.2,5.1,13.1,-0.3,10.9,-5.2" class="g8_3" />
<path d="M690.1,831.9c1.4,3.3,8.5,-0.3,7,-3.4" class="g8_3" />
<path d="M697.8,826.3c0.7,0.2,1,0.9,1.2,1.3c0,0,0.8,1.9,1.3,3c2.1,4.9,-8.7,10.3,-10.9,5.2c-0.8,-1.7,-1,-2.1,-0.9,-2c-0.3,-0.4,-0.5,-1.2,-0.2,-1.9" class="g8_3" />
<path d="M691.2,838.9c2.3,5.1,13.2,-0.6,10.9,-5.4" class="g8_3" />
<path d="M693,837.6c1.5,3.3,8.5,-0.4,7,-3.5" class="g8_3" />
<path d="M700.7,831.9c0.7,0.2,1,0.9,1.2,1.3c0,0,0.8,1.9,1.3,3c2.2,4.8,-8.5,10.4,-10.8,5.4c-0.8,-1.7,-1,-2.1,-1,-2c-0.2,-0.4,-0.5,-1.2,-0.2,-2" class="g8_3" />
<path d="M694.1,845.1c2.4,5,13.2,-0.8,10.8,-5.6" class="g8_3" />
<path d="M695.9,843.8c1.5,3.2,8.5,-0.5,7,-3.6" class="g8_3" />
<path d="M703.5,837.9c0.7,0.3,1,1,1.2,1.4c0,0,0.9,1.8,1.4,2.9c2.3,4.8,-8.4,10.5,-10.8,5.5c-0.8,-1.7,-1,-2,-1,-2c-0.2,-0.4,-0.5,-1.1,-0.2,-1.9" class="g8_3" />
<path d="M697,851c2.5,4.9,13.2,-1,10.7,-5.8" class="g8_3" />
<path d="M698.8,849.6c1.6,3.3,8.5,-0.6,6.9,-3.7" class="g8_3" />
<path d="M706.3,843.6c0.7,0.3,1,1,1.2,1.3c0,0,0.9,1.9,1.4,3c2.4,4.7,-8.1,10.7,-10.6,5.7c-0.9,-1.7,-1.1,-2.1,-1,-2c-0.3,-0.4,-0.6,-1.2,-0.3,-1.9" class="g8_3" />
<path d="M699.6,856.3c1.9,5.2,13.2,0.4,11.2,-4.6" class="g8_3" />
<path d="M701.5,855.1c1.2,3.4,8.5,0.3,7.2,-2.9" class="g8_3" />
<path d="M709.6,850c0.6,0.3,0.9,1.1,1.1,1.4c0,0,0.7,2,1.1,3.1c1.8,5,-9.3,9.7,-11.3,4.5c-0.6,-1.8,-0.8,-2.2,-0.8,-2.1c-0.2,-0.4,-0.4,-1.2,0,-1.9" class="g8_3" />
<path d="M702.2,862.2c2,5.2,13.2,0.2,11.1,-4.7" class="g8_3" />
<path d="M704,861.1c1.3,3.3,8.6,0.1,7.3,-3.1" class="g8_3" />
<path d="M712.1,855.8c0.6,0.3,0.9,1,1.1,1.4c0,0,0.7,1.9,1.1,3c1.9,5,-9.1,9.9,-11.1,4.8c-0.7,-1.8,-0.9,-2.2,-0.9,-2.1c-0.2,-0.4,-0.4,-1.2,0,-1.9" class="g8_3" />
<path d="M704.4,868.2c1.8,5.3,13.2,0.9,11.4,-4.2" class="g8_3" />
<path d="M706.3,867.2c1.2,3.4,8.5,0.5,7.4,-2.8" class="g8_3" />
<path d="M714.6,862.3c0.6,0.3,0.9,1,1,1.4c0,0,0.7,2,1,3.1c1.7,5.1,-9.5,9.5,-11.3,4.2c-0.6,-1.8,-0.8,-2.2,-0.7,-2.1c-0.3,-0.4,-0.4,-1.2,0,-1.9" class="g8_3" />
<path d="M706.8,874.3c1.9,5.2,13.2,0.6,11.3,-4.4" class="g8_3" />
<path d="M708.7,873.2c1.2,3.4,8.5,0.4,7.3,-2.9" class="g8_3" />
<path d="M716.9,868.1c0.6,0.4,0.9,1.1,1.1,1.5c0,0,0.6,1.9,1,3.1c1.8,5,-9.4,9.6,-11.3,4.3c-0.6,-1.8,-0.7,-2.2,-0.7,-2.1c-0.2,-0.4,-0.4,-1.2,-0.1,-1.9" class="g8_3" />
<path d="M709.2,880.7c1.8,5.2,13.1,0.4,11.2,-4.5" class="g8_3" />
<path d="M711,879.6c1.3,3.3,8.5,0.2,7.3,-3" class="g8_3" />
<path d="M719.1,874.4c0.7,0.4,1,1.1,1.1,1.5c0,0,0.7,1.9,1.1,3c1.9,5,-9.3,9.7,-11.2,4.5c-0.7,-1.7,-0.8,-2.1,-0.8,-2c-0.2,-0.5,-0.4,-1.3,-0.1,-2" class="g8_3" />
<path d="M711.7,886.6c2,5.2,13.2,0.3,11.2,-4.7" class="g8_3" />
<path d="M713.6,885.5c1.3,3.3,8.5,0.1,7.2,-3.1" class="g8_3" />
<path d="M721.6,880.2c0.7,0.3,1,1,1.1,1.4c0,0,0.7,1.9,1.2,3.1c1.9,4.9,-9.1,9.9,-11.2,4.7c-0.7,-1.8,-0.8,-2.2,-0.8,-2.1c-0.2,-0.4,-0.4,-1.2,-0.1,-1.9" class="g8_3" />
<path d="M713.6,892.2c1.2,5.4,13,2.2,11.7,-3" class="g8_3" />
<path d="M715.6,891.3c0.8,3.5,8.4,1.5,7.6,-1.9" class="g8_3" />
<path d="M724.3,887.3c0.6,0.4,0.8,1.2,0.9,1.6c0,0,0.4,2,0.7,3.2c1.1,5.2,-10.5,8.4,-11.7,3c-0.5,-1.9,-0.5,-2.3,-0.5,-2.2c-0.2,-0.5,-0.3,-1.3,0.2,-2" class="g8_3" />
<path d="M715.4,898.5c1.2,5.4,13,1.9,11.7,-3.2" class="g8_3" />
<path d="M717.4,897.5c0.8,3.5,8.4,1.3,7.5,-2" class="g8_3" />
<path d="M726,893.4c0.6,0.4,0.8,1.1,0.9,1.5c0,0,0.5,2.1,0.8,3.2c1.2,5.2,-10.4,8.6,-11.7,3.2c-0.5,-1.8,-0.6,-2.2,-0.6,-2.2c-0.1,-0.4,-0.2,-1.2,0.2,-1.9" class="g8_3" />
<path d="M716.8,904.7c1,5.5,12.9,2.6,11.8,-2.6" class="g8_3" />
<path d="M718.8,903.9c0.7,3.5,8.4,1.7,7.7,-1.7" class="g8_3" />
<path d="M727.7,900.2c0.5,0.4,0.7,1.1,0.8,1.5c0,0,0.4,2.1,0.6,3.2c1,5.3,-10.8,8.1,-11.8,2.7c-0.4,-1.9,-0.5,-2.3,-0.5,-2.2c-0.1,-0.5,-0.2,-1.3,0.3,-1.9" class="g8_3" />
<path d="M718.4,911c1.1,5.4,12.9,2.4,11.7,-2.8" class="g8_3" />
<path d="M720.4,910.2c0.7,3.5,8.4,1.5,7.6,-1.9" class="g8_3" />
<path d="M729.2,906.3c0.6,0.4,0.7,1.1,0.8,1.5c0,0,0.4,2.1,0.7,3.2c1,5.2,-10.6,8.3,-11.8,2.9c-0.4,-1.9,-0.5,-2.3,-0.5,-2.2c-0.1,-0.5,-0.2,-1.3,0.2,-1.9" class="g8_3" />
<path d="M719.8,917.7c1.2,5.4,13,2.2,11.7,-3" class="g8_3" />
<path d="M721.8,916.8c0.8,3.5,8.4,1.4,7.6,-1.9" class="g8_3" />
<path d="M730.5,912.8c0.6,0.4,0.8,1.2,0.9,1.6c0,0,0.4,2,0.7,3.1c1.1,5.3,-10.5,8.4,-11.7,3c-0.5,-1.8,-0.5,-2.2,-0.5,-2.1c-0.2,-0.5,-0.3,-1.3,0.2,-2" class="g8_3" />
<path d="M721.3,923.8c1,5.4,12.9,2.6,11.9,-2.6" class="g8_3" />
<path d="M723.4,923c0.6,3.5,8.3,1.7,7.6,-1.7" class="g8_3" />
<path d="M732.2,919.3c0.6,0.4,0.7,1.2,0.8,1.6c0,0,0.4,2,0.6,3.2c1,5.2,-10.8,8,-11.8,2.5c-0.4,-1.8,-0.5,-2.2,-0.5,-2.1c-0.1,-0.5,-0.1,-1.3,0.3,-2" class="g8_3" />
<path d="M722.9,929.8c0.4,5.6,12.5,4.1,12,-1.2" class="g8_3" />
<path d="M725,929.3c0.3,3.5,8.1,2.6,7.8,-0.9" class="g8_3" />
<path d="M734.2,926.6c0.6,0.4,0.6,1.2,0.7,1.6c0,0,0.1,2.1,0.2,3.3c0.4,5.3,-11.6,6.8,-12.1,1.2c-0.1,-1.9,-0.1,-2.3,-0.1,-2.2c-0.1,-0.5,-0.1,-1.3,0.4,-1.9" class="g8_3" />
<path d="M723.7,936c0.5,5.5,12.6,3.8,12,-1.5" class="g8_3" />
<path d="M725.8,935.4c0.3,3.6,8.1,2.4,7.8,-1" class="g8_3" />
<path d="M734.9,932.5c0.6,0.5,0.6,1.2,0.7,1.7c0,0,0.2,2,0.3,3.2c0.5,5.3,-11.5,7,-12,1.5c-0.2,-1.9,-0.2,-2.3,-0.3,-2.2c-0.1,-0.5,0,-1.3,0.5,-1.9" class="g8_3" />
<path d="M724.2,942.4c0.2,5.5,12.4,4.4,12.1,-0.9" class="g8_3" />
<path d="M726.3,941.9c0.2,3.6,8,2.8,7.8,-0.6" class="g8_3" />
<path d="M735.6,939.4c0.5,0.5,0.6,1.3,0.6,1.7c0,0,0.1,2.1,0.1,3.3c0.2,5.3,-11.8,6.4,-12.1,0.9c-0.1,-1.9,-0.1,-2.3,-0.1,-2.2c-0.1,-0.5,0,-1.3,0.6,-1.9" class="g8_3" />
<path d="M724.9,948.8c0.3,5.6,12.4,4.2,12,-1.1" class="g8_3" />
<path d="M727,948.3c0.2,3.6,8,2.7,7.8,-0.7" class="g8_3" />
<path d="M736.2,945.7c0.5,0.5,0.6,1.2,0.6,1.7c0,0,0.1,2,0.2,3.2c0.3,5.3,-11.7,6.7,-12,1.1c-0.2,-1.8,-0.2,-2.3,-0.2,-2.2c-0.1,-0.5,0,-1.3,0.5,-1.9" class="g8_3" />
<path d="M725.3,955.6c0.4,5.6,12.6,4.1,12.1,-1.2" class="g8_3" />
<path d="M727.4,955.1c0.3,3.6,8.1,2.6,7.8,-0.9" class="g8_3" />
<path d="M736.6,952.4c0.6,0.4,0.6,1.2,0.7,1.6c0,0,0.1,2.1,0.2,3.3c0.4,5.3,-11.6,6.8,-12,1.3c-0.2,-1.9,-0.2,-2.4,-0.2,-2.3c-0.1,-0.4,-0.1,-1.3,0.5,-1.9" class="g8_3" />
<path d="M726.2,962.1c0.5,5.5,12.6,3.8,12,-1.5" class="g8_3" />
<path d="M728.3,961.5c0.3,3.6,8.1,2.4,7.8,-1" class="g8_3" />
<path d="M737.5,958.6c0.5,0.5,0.6,1.2,0.6,1.7c0,0,0.2,2,0.3,3.2c0.5,5.3,-11.5,7,-12,1.5c-0.2,-1.9,-0.2,-2.3,-0.2,-2.2c-0.1,-0.5,-0.1,-1.3,0.4,-1.9" class="g8_3" />
<path d="M726.3,967.8c-0.2,5.6,12.1,5.3,12.1,0" class="g8_3" />
<path d="M728.5,967.4c-0.1,3.6,7.8,3.5,7.8,0" class="g8_3" />
<path d="M737.9,965.7c0.5,0.5,0.5,1.3,0.5,1.7c0,0,-0.1,2.1,-0.1,3.3c-0.2,5.3,-12.3,5.6,-12.1,0c0,-1.9,0,-2.3,0,-2.2c0,-0.5,0.1,-1.3,0.7,-1.8" class="g8_3" />
<path d="M726.5,974.3c-0.1,5.6,12.2,5.1,12.1,-0.2" class="g8_3" />
<path d="M728.7,973.9c-0.1,3.6,7.8,3.3,7.8,-0.2" class="g8_3" />
<path d="M738.1,972c0.5,0.5,0.5,1.3,0.5,1.7c0,0,-0.1,2.1,-0.1,3.3c0,5.3,-12.1,5.8,-12.1,0.2c0,-1.9,0,-2.3,0,-2.2c0,-0.5,0.1,-1.3,0.6,-1.9" class="g8_3" />
<path d="M726.4,980.7c-0.4,5.5,11.9,5.7,12.1,0.3" class="g8_3" />
<path d="M728.5,980.4c-0.2,3.6,7.7,3.7,7.9,0.2" class="g8_3" />
<path d="M738,978.9c0.5,0.6,0.4,1.4,0.4,1.8c0,0,-0.1,2,-0.2,3.2c-0.3,5.3,-12.4,5.2,-12.1,-0.3c0.1,-1.9,0.2,-2.3,0.1,-2.2c0,-0.5,0.2,-1.3,0.8,-1.8" class="g8_3" />
<path d="M726.4,987.2c-0.3,5.6,12,5.4,12.1,0.1" class="g8_3" />
<path d="M728.5,986.9c-0.1,3.6,7.8,3.5,7.9,0" class="g8_3" />
<path d="M738,985.2c0.5,0.6,0.4,1.3,0.4,1.8c0,0,-0.1,2,-0.1,3.2c-0.2,5.3,-12.3,5.5,-12.1,-0.1c0,-1.9,0.1,-2.3,0.1,-2.2c-0.1,-0.5,0,-1.3,0.6,-1.8" class="g8_3" />
<path d="M726.2,994c-0.2,5.6,12,5.3,12.1,0" class="g8_3" />
<path d="M728.3,993.7c-0.1,3.6,7.8,3.4,7.9,-0.1" class="g8_3" />
<path d="M737.7,991.9c0.5,0.6,0.5,1.3,0.5,1.7c0,0,-0.1,2.1,-0.1,3.3c-0.1,5.3,-12.2,5.6,-12.1,0c0,-1.9,0.1,-2.3,0,-2.2c0,-0.5,0.1,-1.3,0.7,-1.8" class="g8_3" />
<path d="M726.4,1000.5c-0.1,5.6,12.1,5.1,12.1,-0.2" class="g8_3" />
<path d="M728.5,1000.1c0,3.6,7.9,3.3,7.8,-0.1" class="g8_3" />
<path d="M737.9,998.2c0.5,0.5,0.5,1.3,0.5,1.7c0,0,0,2.1,0,3.3c-0.1,5.3,-12.2,5.8,-12.1,0.2c0,-1.9,0,-2.3,0,-2.2c-0.1,-0.5,0,-1.3,0.6,-1.8" class="g8_3" />
</svg>