<?xml version="1.0" encoding="UTF-8" standalone="no"?>
<!DOCTYPE svg PUBLIC "-//W3C//DTD SVG 1.1//EN"
"http://www.w3.org/Graphics/SVG/1.1/DTD/svg11.dtd">
<svg version="1.1" xmlns="http://www.w3.org/2000/svg" xmlns:xlink="http://www.w3.org/1999/xlink">
<defs>
<style type="text/css"><![CDATA[
.g10_7{
}
.g12_7{
fill: #636363;
}
.g2_7{
fill: none;
stroke: #FFFFFF;
stroke-width: 3;
stroke-linecap: round;
stroke-linejoin: miter;
stroke-miterlimit: 2;
}
.g9_7{
fill: #808080;
stroke: #000000;
stroke-width: 1;
stroke-linecap: round;
stroke-linejoin: round;
stroke-miterlimit: 2;
}
.g3_7{
fill: #FFFFFF;
stroke: #000000;
stroke-width: 2;
stroke-linecap: butt;
stroke-linejoin: miter;
stroke-miterlimit: 2;
}
.g13_7{
fill: #D4D4D4;
}
.g1_7{
fill: #B3B3B3;
}
.g8_7{
fill: none;
stroke: #000000;
stroke-width: 2;
stroke-linecap: round;
stroke-linejoin: round;
stroke-miterlimit: 2;
}
.g5_7{
fill: none;
stroke: #000000;
stroke-width: 2;
stroke-linecap: butt;
stroke-linejoin: miter;
stroke-miterlimit: 2;
}
.g11_7{
fill: #636363;
stroke: #000000;
stroke-width: 1;
stroke-linecap: butt;
stroke-linejoin: miter;
stroke-miterlimit: 2;
}
.g4_7{
fill: none;
stroke: #000000;
stroke-width: 1;
stroke-linecap: butt;
stroke-linejoin: miter;
stroke-miterlimit: 2;
}
.g7_7{
fill: #FFFFFF;
}
.g6_7{
fill: none;
stroke: #000000;
stroke-width: 1;
stroke-linecap: round;
stroke-linejoin: round;
stroke-miterlimit: 2;
}
]]></style>
</defs>
<path fill-rule="evenodd" d="M55,54l824,0l0,1101l-824,0Z" class="g1_7" />
<path d="M55.5,256.5l27,0" class="g2_7" />
<path d="M55.5,430.5l27,0" class="g2_7" />
<path d="M55.5,605.5l27,0" class="g2_7" />
<path d="M55.5,779.5l27,0" class="g2_7" />
<path d="M55.5,953.5l27,0" class="g2_7" />
<path d="M852.5,256.5l28,0" class="g2_7" />
<path d="M852.5,605.5l28,0" class="g2_7" />
<path d="M236.5,82.5l0,-27" class="g2_7" />
<path d="M390.5,82.5l0,-27" class="g2_7" />
<path d="M544.5,82.5l0,-27" class="g2_7" />
<path d="M698.5,82.5l0,-27" class="g2_7" />
<path d="M236.5,1155.5l0,-28" class="g2_7" />
<path d="M390.5,1155.5l0,-28" class="g2_7" />
<path d="M544.5,1155.5l0,-28" class="g2_7" />
<path d="M698.5,1155.5l0,-28" class="g2_7" />
<path d="M852.5,430.5l28,0" class="g2_7" />
<path d="M852.5,779.5l28,0" class="g2_7" />
<path d="M852.5,953.5l28,0" class="g2_7" />
<path fill-rule="evenodd" d="M82,82l770,0l0,1045l-770,0Z" class="g3_7" />
<path d="M184.5,209.5l646,0" class="g4_7" />
<path d="M103.5,278.5l727,0" class="g4_7" />
<path d="M82,1097l770,0" class="g5_7" />
<path d="M466.5,1099.5l0,28" class="g4_7" />
<path d="M468.5,1099.5l0,28" class="g4_7" />
<path d="M272.5,1099.5l0,28" class="g4_7" />
<path d="M274.5,1099.5l0,28" class="g4_7" />
<path d="M664.5,1099.5l0,28" class="g4_7" />
<path d="M666.5,1099.5l0,28" class="g4_7" />
<path d="M274.5,1099.5l192,0" class="g6_7" />
<path d="M468.5,1099.5l196,0" class="g6_7" />
<path d="M666.5,1099.5l186,0" class="g6_7" />
<path d="M272.5,1099.5l-190,0" class="g6_7" />
<path fill-rule="evenodd" d="M279,248.7c13.3,-7.7,26.7,-15.5,40.1,-23.2c0.5,-0.7,1,-1.3,1.5,-2c0.2,-0.3,0.3,-0.5,0.2,-0.7c-0.1,-0.1,-0.3,-0.2,-0.6,-0.2c-0.9,0.1,-1.8,0.2,-2.7,0.3c-13.2,7.6,-26.4,15.3,-39.6,22.9c0.3,1,0.7,1.9,1.1,2.9Z" class="g7_7" />
<path d="M269.2,254.3c16.6,-9.6,33.2,-19.2,49.9,-28.8c0.5,-0.7,1,-1.3,1.5,-2c0.2,-0.3,0.3,-0.5,0.2,-0.7c-0.1,-0.1,-0.3,-0.2,-0.6,-0.2c-0.9,0.1,-1.8,0.2,-2.7,0.3c-16.4,9.5,-32.9,19,-49.4,28.6" class="g8_7" />
<path d="M318.3,225.3c0.1,-0.5,0.5,-1,0.8,-1.3c0.4,-0.3,1,-0.6,1.5,-0.7" class="g6_7" />
<path d="M317,223.7c0.7,0,1.3,-0.2,1.9,-0.3c0.5,-0.2,1,-0.4,1.5,-0.7" class="g6_7" />
<path fill-rule="evenodd" d="M282.9,238.3c-0.8,0.4,-1.6,0.9,-2.3,1.3c-0.4,0.2,-0.8,0.6,-1,0.9c-0.3,0.4,-0.5,0.9,-0.6,1.5c0,0.3,0,0.6,-0.1,0.7c-0.1,0.1,-0.3,0.2,-0.6,0.1c-0.7,-0.5,-1.6,-0.9,-2.3,-1c-0.8,-0.1,-1.7,0.1,-2.4,0.4c-8,4.6,-16,9.2,-24,13.8c-1.8,1.8,-2.8,3.5,-3.1,5.1c-0.2,1.7,0.2,3.3,1.4,4.9c1.4,1.7,2.9,2.7,4.6,2.9c1.6,0.3,3.4,-0.1,5.2,-1.2c7.5,-4.4,15.1,-8.7,22.6,-13.1c0.8,-0.7,1.4,-1.4,1.7,-2.2c0.4,-0.7,0.6,-1.6,0.6,-2.4c0,-0.4,0.1,-0.7,0.3,-0.8c0.1,0,0.4,0.1,0.6,0.4c0.4,0.2,0.9,0.4,1.3,0.4c0.4,0,0.8,0,1.2,-0.2c0.8,-0.5,1.7,-1,2.6,-1.5c0.8,-0.8,1.2,-1.8,1.1,-3c-0.1,-1.1,-0.6,-2.5,-1.5,-4c-1,-1.3,-1.9,-2.2,-2.8,-2.7c-0.8,-0.5,-1.7,-0.6,-2.5,-0.3Z" class="g7_7" />
<path d="M279.1,242.7c-0.1,-1.3,0.3,-2.4,1.1,-2.8c0.8,-0.5,1.7,-1,2.6,-1.5c1.5,-0.9,4.1,0.6,5.7,3.4c1.6,2.7,1.6,5.6,0,6.5c-0.8,0.5,-1.7,1,-2.5,1.5c-0.9,0.5,-2,0.3,-3.2,-0.5" class="g8_7" />
<path d="M282,250.5c-0.1,-1.4,-0.5,-2.8,-1.4,-4.3c-0.6,-1.1,-1.3,-2,-2.2,-2.7" class="g6_7" />
<path d="M282.6,248.7c0,-0.9,-0.3,-2,-1,-3c-0.5,-1,-1.3,-1.8,-2,-2.3" class="g6_7" />
<path d="M284.3,249.2c-0.6,-0.2,-1,-0.2,-1.3,-0.1c-0.2,0,-0.4,0.4,-0.4,0.7c0,1,-0.2,2,-0.6,2.8c-0.4,0.7,-0.9,1.4,-1.6,1.8c-8,4.7,-16,9.3,-24,14c-1,0.4,-1.7,0.6,-2.9,0.6c-3.8,0,-6.9,-3.1,-6.9,-7c0,-2.2,1.2,-4.4,2.9,-5.8c8,-4.6,16,-9.2,24,-13.9c0.6,-0.3,1.4,-0.4,2.2,-0.4c0.7,0.1,1.7,0.4,2.6,0.9c0.4,0.2,0.8,0.2,1,0.1c0.3,-0.1,0.5,-0.5,0.6,-1" class="g8_7" />
<path d="M250.7,256.3c1.8,0.1,3.9,1.8,5.4,4.3c1.3,2.3,1.7,4.9,1.2,6.5" class="g6_7" />
<path d="M285.5,249.7c1.2,-1,1.1,-3.6,-0.3,-6.1c-1.4,-2.5,-3.7,-3.9,-5.2,-3.3" class="g6_7" />
<path d="M254.1,256.3l21.6,-12.5" class="g6_7" />
<path d="M256.2,257.5l21,-12.4" class="g6_7" />
<path d="M258.4,261.9L279.7,249" class="g6_7" />
<path d="M258.9,264.3l21.2,-12.9" class="g6_7" />
<path d="M256.2,257.6c-0.9,0.5,-3.4,-0.1,-2.1,-1.3" class="g6_7" />
<path d="M258.4,261.9c-1.2,0.8,-1,3.1,0.5,2.5" class="g6_7" />
<path d="M280.1,251.5c1.2,-0.7,1.5,-3.6,-0.4,-2.5" class="g6_7" />
<path d="M277.2,245.1c1.2,-0.7,0,-2.2,-1.5,-1.3" class="g6_7" />
<path d="M193.1,221.3c0.2,-0.1,0.3,-0.2,0.4,-0.3" class="g6_7" />
<path d="M193.5,221c0.4,-0.1,0.7,-0.2,1.1,-0.1c0.6,0.1,1.2,0.5,2,1.1c6.3,-1.7,12.3,-2.7,18.1,-3.4c5.8,-0.6,11.2,-0.7,16.5,-0.2" class="g6_7" />
<path d="M232,218.7c-0.4,-0.5,-1,-1,-1.8,-1.2c-0.8,-0.3,-1.8,-0.4,-2.9,-0.4c-7.3,-0.2,-13.7,0.1,-19.3,0.7c-5.6,0.6,-10.5,1.7,-14.5,3.2" class="g8_7" />
<path d="M190.6,229.4c1.1,0.8,2.1,1.4,3.3,2.1c1,0.5,2.1,1,3.3,1.5c3.8,-0.5,7.6,-1,11.4,-1.5" class="g6_7" />
<path d="M208.6,231.5c0.3,0,0.6,0,0.9,-0.1c0,-0.5,0,-0.9,0,-1.4c-0.4,-0.4,-0.7,-0.7,-0.8,-0.9c-0.2,-0.3,-0.3,-0.6,-0.3,-0.8c0.3,-1.2,0.7,-2.1,1.3,-2.7c0.7,-0.7,1.6,-1,2.7,-1c1.3,-0.2,2.3,-0.2,3,0c0.7,0.2,1.1,0.4,1.3,0.8c0.8,0,1.9,-0.1,3.3,-0.4c1.3,-0.2,2.9,-0.6,4.7,-1c1,-0.4,1.8,-0.3,2.4,0.1" class="g8_7" />
<path d="M227.1,224.1c0.6,0.4,0.9,1.2,1,2.3c0.1,1.1,0.2,2.2,0.3,3.2" class="g6_7" />
<path d="M193.1,221.3c-0.4,1.9,-0.8,3.9,-1.2,5.8c-0.1,0.3,-0.3,0.6,-0.5,0.7c-0.1,0.1,-0.4,0.2,-0.7,0.2c0,0.5,-0.1,1,-0.1,1.5" class="g8_7" />
<path d="M196.6,222c-0.1,2.5,-0.1,5,-0.2,7.5c0,0.3,0.1,0.7,0.3,1c0.1,0.3,0.4,0.7,0.6,1.1" class="g6_7" />
<path d="M197.4,231.6L209.5,230" class="g6_7" />
<path d="M197.4,231.6L196.8,244" class="g6_7" />
<path d="M228.4,229.6c0,1,0.2,1.8,0.5,2.2c0.4,0.5,0.9,0.7,1.5,0.6" class="g6_7" />
<path d="M225.5,223.8c0.2,1.3,0.4,2.6,0.6,3.9c0.2,0.9,0,1.7,-0.4,2.2c-0.4,0.5,-1.2,0.9,-2.1,1c-4.2,0.8,-8.4,1.5,-12.6,2.3" class="g8_7" />
<path d="M227.7,231.2l-1.6,-1.1" class="g6_7" />
<path fill-rule="evenodd" d="M198.6,223.9c-0.1,0.5,0.1,1,0.4,1c0.3,0.1,0.7,-0.3,0.8,-0.8c0,-0.4,-0.1,-0.9,-0.5,-1c-0.3,0,-0.6,0.3,-0.7,0.8Z" class="g9_7" />
<path fill-rule="evenodd" d="M198.2,229c-0.1,0.5,0.1,1,0.4,1c0.3,0.1,0.7,-0.3,0.8,-0.8c0.1,-0.4,-0.1,-0.9,-0.5,-1c-0.3,0,-0.6,0.3,-0.7,0.8Z" class="g9_7" />
<path fill-rule="evenodd" d="M208.3,223.4c-0.1,0.5,0.1,0.9,0.5,1c0.3,0.1,0.6,-0.3,0.7,-0.8c0.1,-0.5,-0.1,-0.9,-0.4,-1c-0.3,0,-0.7,0.3,-0.8,0.8Z" class="g9_7" />
<path d="M230.5,223.3c0.1,-1,-0.2,-1.7,-0.9,-2.1c-0.7,-0.5,-1.7,-0.6,-3.1,-0.6c-1.6,0,-3.8,0,-6.4,0.1c-2.7,0.1,-5.8,0.3,-9.4,0.6c-1.3,0.1,-2.2,0.4,-2.7,1.1c-0.5,0.6,-0.6,1.5,-0.4,2.7c0.1,0.9,0.3,1.6,0.4,2.2" class="g6_7" />
<path d="M208.9,226.8c0.7,-0.1,1.5,0,2.1,0.3c0.7,0.2,1.3,0.7,1.9,1.3c0.4,-0.9,0.8,-1.8,1.3,-2.7" class="g8_7" />
<path d="M211.6,224.7c1.1,0.2,2,0.6,2.6,1c0.5,0.5,0.9,1,1,1.7" class="g6_7" />
<path d="M215.3,227.4c0.1,-0.6,0.3,-1,0.6,-1.3c0.2,-0.3,0.5,-0.5,0.8,-0.6" class="g8_7" />
<path d="M215.3,227.4l-1.5,-0.8" class="g8_7" />
<path d="M212.8,228.3l-1.6,-0.8" class="g6_7" />
<path d="M210.3,226.9c0.3,0.2,0.6,0.4,0.9,0.7" class="g6_7" />
<path d="M211.4,249.2c0.3,-0.2,0.6,-0.4,0.9,-0.6c7.3,-1.7,14.5,-3.3,21.8,-5c0,0,1.8,-1.1,2.2,-2.7c0,-1.7,0.1,-3.5,0.1,-5.3c-0.3,-2.4,-2.3,-4,-2.3,-4c-0.3,-0.4,-0.3,-0.6,-0.4,-0.9c-0.2,-0.3,-0.3,-0.9,-0.4,-1.2c0,0,-1.4,-10.7,-1.4,-10.7" class="g8_7" />
<path d="M208.7,231.6c0.1,3.8,0,8.2,-0.2,13.1c-0.3,4.8,-0.8,10.2,-1.5,16.1" class="g8_7" />
<path d="M207,260.8l-3.1,0.8" class="g6_7" />
<path d="M236.3,235.6l-23.9,5" class="g6_7" />
<path d="M212.4,240.6c0,-1.2,0,-2.3,0,-3.5c0,-0.1,0,-0.2,-0.1,-0.2c0,-0.1,-0.1,-0.1,-0.2,-0.1c-0.3,-0.1,-0.5,-0.3,-0.6,-0.4c-0.1,-0.2,-0.2,-0.5,-0.2,-0.8c-0.1,-1.1,-0.3,-2.1,-0.6,-3c-0.2,-0.8,-0.7,-1.5,-1.2,-2" class="g8_7" />
<path d="M236.3,241l-28,5.8" class="g6_7" />
<path d="M208.3,246.9c0.2,-0.1,0.3,-0.2,0.4,-0.3c0,-0.1,0.1,-0.3,0.1,-0.4c0,-1.6,0.1,-3.2,0.2,-4.9c0,-1.1,0,-2.3,0,-3.5c0,-0.1,-0.1,-0.1,-0.1,-0.2c0,0,-0.1,-0.1,-0.2,-0.1" class="g6_7" />
<path d="M212.2,237l-3,0.7" class="g6_7" />
<path d="M211.2,236.4l-2.3,0.5" class="g6_7" />
<path d="M220.1,231.7c1.6,0.1,2.9,0.6,3.8,1.5c0.9,1,1.6,2.3,1.8,4.1c0,0.1,0.1,0.2,0.1,0.3c0.1,0.1,0.2,0.1,0.3,0.2" class="g6_7" />
<path d="M225.6,243.2c-0.2,0.7,-0.6,1.4,-1.3,1.9c-0.7,0.5,-1.7,1,-2.8,1.4" class="g6_7" />
<path d="M226.1,237.8l-0.1,5.3" class="g6_7" />
<path d="M231,232.3l2.3,-0.5" class="g6_7" />
<path d="M228.3,231.9c0,0.3,-0.2,0.5,-0.3,0.7c-0.2,0.1,-0.5,0.3,-0.8,0.3c-0.7,0.2,-1.4,0.3,-2.2,0.5" class="g6_7" />
<path d="M223.4,233.7l-11.3,2.1" class="g6_7" />
<path d="M205.5,232c0.2,3.8,0.1,8.2,-0.1,13.2c-0.3,4.9,-0.8,10.4,-1.5,16.4" class="g6_7" />
<path d="M207.2,259.8l2.9,-0.8" class="g6_7" />
<path d="M210.1,259c0.4,-1,0.8,-2.3,1,-3.7c0.2,-1.5,0.3,-3.1,0.3,-4.8c-0.1,-0.8,0,-1.4,0.1,-2c0.1,-0.6,0.3,-1.1,0.6,-1.6" class="g8_7" />
<path d="M212.9,248.5c0.7,0.4,1.3,1.7,1.5,3.3c0.1,1.9,-0.5,3.5,-1.4,3.6c-0.7,0.3,-1.3,0.5,-2,0.8" class="g8_7" />
<path d="M214.2,253.8l7.2,4.4" class="g8_7" />
<path d="M221.4,258.2l-25.3,6.1" class="g6_7" />
<path d="M196.1,264.3l-4.2,-2.9" class="g6_7" />
<path d="M193.9,272.7l-0.2,-0.2" class="g6_7" />
<path d="M197.1,252.6l0,1.7l-2.8,0.5l-1.1,-0.5" class="g8_7" />
<path d="M190.9,253.1c0,-1.7,0,-3.4,0,-5.1c-0.1,-0.8,-0.2,-1.7,-0.2,-2.6c0,-1,-0.1,-2,-0.1,-3.1c0,-0.2,0,-0.4,-0.1,-0.6c0,-0.1,-0.1,-0.3,-0.2,-0.4c-0.1,-0.1,-0.2,-0.3,-0.2,-0.4C190,240.7,190,240.4,190,240.2c0,-1.1,0.1,-2.6,0.2,-4.3c0.1,-1.8,0.2,-4,0.4,-6.4" class="g8_7" />
<path d="M194.3,254.8c0,-1.7,0,-3.4,0,-5.1c0.2,-0.7,0.4,-1.5,0.6,-2.3c0.2,-0.8,0.4,-1.7,0.6,-2.7c0,-0.1,0.1,-0.3,0.2,-0.5" class="g6_7" />
<path d="M195.7,244.2c0.1,0,0.3,0,0.4,-0.1c0.2,0.2,0.4,0.3,0.7,0.3c0.2,0,0.5,0,0.8,0" class="g8_7" />
<path d="M190.9,248l3.4,1.7l7.3,-1.1l1.4,-4.4" class="g6_7" />
<path d="M190.9,253.1l0.8,0.4l1.3,-0.1" class="g8_7" />
<path d="M190.5,260.4l-4.2,-2.8" class="g6_7" />
<path d="M191.5,253.5l0,-1" class="g6_7" />
<path d="M193,254l0,-1" class="g8_7" />
<path d="M191.7,252.6c0.1,-0.4,0.3,-0.8,0.6,-0.8" class="g6_7" />
<path d="M192.3,251.8c0.4,-0.1,0.8,0.3,0.9,1c0,0.2,0.1,0.3,0,0.5" class="g8_7" />
<path d="M203.7,260.6l-1.4,0.4" class="g6_7" />
<path d="M202.3,261c0.4,-2.8,0.6,-5.5,0.8,-8.2c0.2,-2.7,0.3,-5.4,0.4,-8.1c-0.1,-0.3,-0.2,-0.5,-0.3,-0.8" class="g6_7" />
<path d="M203.2,243.9c-0.3,0,-0.6,0,-0.9,-0.1c-1.6,0.2,-3.1,0.4,-4.7,0.6" class="g8_7" />
<path d="M202.3,261l-1.2,-0.8" class="g6_7" />
<path d="M201.6,248.7c0,0.7,0,2,-0.1,3.9c-0.1,2,-0.2,4.5,-0.4,7.6" class="g6_7" />
<path d="M203.9,261.6c-0.1,0,-0.2,-0.1,-0.2,-0.1c-0.1,-0.1,-0.1,-0.1,-0.1,-0.1" class="g6_7" />
<path d="M205.2,232c0.2,3.8,0.1,8,-0.2,12.9c-0.2,4.9,-0.7,10.3,-1.4,16.4" class="g6_7" />
<path d="M217,257.3l-3.5,-2.1" class="g6_7" />
<path d="M213,258.2l-2.2,-1.3" class="g6_7" />
<path d="M215.6,257.7l-3.4,-2" class="g8_7" />
<path d="M211.5,258.6l-1,-0.6" class="g8_7" />
<path d="M217,257.4l-1.4,0.3" class="g8_7" />
<path d="M213.1,258.3l-1.5,0.3" class="g8_7" />
<path fill-rule="evenodd" d="M233.7,233.6c0.3,0.5,0.3,1.1,0,1.2c-0.3,0.2,-0.8,-0.1,-1.1,-0.7c-0.2,-0.5,-0.2,-1.1,0.1,-1.2c0.2,-0.2,0.7,0.1,1,0.7Z" class="g9_7" />
<path d="M190.5,260.4l3.1,-0.7" class="g6_7" />
<path d="M195.5,259.2l0.8,-0.2" class="g6_7" />
<path d="M197.1,252.6c0.1,-0.2,0.1,-0.4,0.2,-0.6c0.2,-0.8,1,-1.3,1.6,-1.1" class="g8_7" />
<path d="M198.9,250.9c0.4,0.2,0.7,0.7,0.7,1.2c0.1,2,0.2,4,0.4,6c0,0.5,0.2,0.9,0.3,1.1c0.2,0.3,0.5,0.5,0.8,0.6" class="g6_7" />
<path d="M200.5,259.5l-3.7,-2.6" class="g6_7" />
<path d="M195.5,255.4c0.6,0.2,1.2,0.5,1.2,0.9" class="g8_7" />
<path d="M196.7,256.3c0,0.6,-1,1.1,-2.3,1.1c-1.3,0,-2.3,-0.5,-2.3,-1.1" class="g6_7" />
<path d="M192.1,256.3c0,-0.4,0.6,-0.7,1.3,-1" class="g8_7" />
<path d="M192.5,256.5l0,1" class="g6_7" />
<path d="M192.3,258.3c0.4,0.4,1.2,0.6,2.1,0.6c0.6,0,1.2,-0.1,1.6,-0.3" class="g8_7" />
<path d="M196.5,257.5l0,-1" class="g6_7" />
<path d="M193.4,254.3c0,0.6,0,1.3,0,2c0,0.2,0.5,0.4,1,0.4c0.6,0,1.1,-0.2,1.1,-0.4c0,-0.6,0,-1.2,0,-1.8" class="g6_7" />
<path d="M193,258l0,3" class="g8_7" />
<path d="M195.5,258.5l0,2" class="g6_7" />
<path d="M193.5,264.5l0,8" class="g6_7" />
<path d="M195.5,264.6l0,5.8l-1.5,2.3" class="g8_7" />
<path d="M196.2,259.1c0.2,-0.1,0.5,-0.1,0.7,-0.1c0.8,0,1.4,0.2,1.4,0.6" class="g6_7" />
<path d="M193.5,258.5l0,2" class="g6_7" />
<path d="M193,264l0,8" class="g8_7" />
<path d="M214.6,226.2c0.1,0.2,0.2,0.5,0.2,0.7" class="g6_7" />
<path d="M214.7,226.8l-0.9,-0.5" class="g6_7" />
<path d="M192.3,257c0.2,-0.1,0.5,0.2,0.5,0.5c0.1,0.4,0,0.7,-0.3,0.8" class="g6_7" />
<path d="M191.7,257.1c0.2,0,0.5,0.2,0.5,0.6c0.1,0.3,0,0.6,-0.3,0.7" class="g6_7" />
<path d="M196.4,257.3c-0.3,-0.1,-0.6,0,-0.8,0.3c-0.2,0.2,-0.2,0.6,0,0.8" class="g6_7" />
<path d="M196.1,258.7c0.2,0.1,0.6,0,0.8,-0.3c0.2,-0.2,0.2,-0.6,-0.1,-0.8" class="g8_7" />
<path d="M196.8,257.6c-0.2,-0.1,-0.6,0,-0.8,0.2c-0.2,0.3,-0.2,0.7,0.1,0.9" class="g6_7" />
<path d="M196.8,257.6l-0.4,-0.3" class="g6_7" />
<path d="M196,258.6l-0.4,-0.2" class="g6_7" />
<path d="M196.1,264.3l-3,-1l-4.3,-3" class="g6_7" />
<path d="M190.4,260.3l-2.9,-1l-4.2,-2.7" class="g6_7" />
<path d="M216.6,257.5l-3.5,-2.1" class="g6_7" />
<path d="M212.6,258.4l-1.9,-1.2" class="g6_7" />
<path d="M193.1,263.3l-0.2,0.4" class="g6_7" />
<path d="M187.4,259.3l-0.2,0.5" class="g6_7" />
<path d="M221.4,258.2c0,0.1,0,0.3,0,0.4c-8.4,2.1,-16.8,4.1,-25.3,6.2c-1,-0.4,-2.1,-0.7,-3.2,-1c-1.4,-1,-2.9,-2,-4.3,-3c0.1,-0.1,0.1,-0.3,0.2,-0.4l0,-0.1c1,0.4,2,0.7,3,1.1l0.1,0c1.9,-0.4,3.9,-0.9,5.8,-1.3c0.4,-0.1,0.6,-0.3,0.6,-0.5" class="g8_7" />
<path d="M192,256.3l-5.7,1.3l-3,-1l-0.3,0.5l4.2,2.7l1.6,0.5" class="g8_7" />
<path d="M190.5,260.8l3.1,-0.7" class="g6_7" />
<path d="M195.5,259.6c0.2,0,0.5,-0.1,0.8,-0.1c0.2,-0.1,0.4,-0.1,0.6,-0.1c0.6,0,1.1,0.1,1.3,0.3" class="g6_7" />
<path d="M192.5,258.3c-0.1,0,-0.3,0,-0.5,0.1l-0.1,0c-0.2,0,-0.4,-0.2,-0.5,-0.6c-0.1,-0.3,0.1,-0.6,0.3,-0.7c0.2,0,0.4,-0.1,0.6,-0.1" class="g8_7" />
<path d="M232.6,238.2l0.7,-0.1l0,-0.7" class="g6_7" />
<path d="M233.3,238.1l0.2,0.1" class="g6_7" />
<path d="M233.8,237.9l0.7,-0.2l0,-0.6" class="g6_7" />
<path d="M234.5,237.8l0.2,0.1" class="g6_7" />
<path d="M235.1,237.6l0.6,-0.1l0,-0.7" class="g6_7" />
<path d="M235.8,237.5l0.1,0.1" class="g6_7" />
<path d="M235.1,239l0.6,-0.2l0,-0.7" class="g6_7" />
<path d="M235.8,238.8l0.1,0.2" class="g6_7" />
<path d="M235.1,240.3l0.6,-0.1l0,-0.7" class="g6_7" />
<path d="M235.8,240.2l0.1,0.1" class="g6_7" />
<path d="M233.8,240.6l0.7,-0.2l0,-0.6" class="g6_7" />
<path d="M234.5,240.5l0.2,0.1" class="g6_7" />
<path d="M233.8,239.2l0.7,-0.1l0,-0.7" class="g6_7" />
<path d="M234.5,239.1l0.2,0.1" class="g6_7" />
<path d="M232.6,239.6l0.7,-0.2l0,-0.7" class="g6_7" />
<path d="M233.3,239.4l0.2,0.1" class="g6_7" />
<path d="M232.6,240.9l0.6,-0.2l0,-0.6" class="g6_7" />
<path d="M233.3,240.8l0.2,0.1" class="g6_7" />
<path d="M197.6,230.7l10.6,-1.3" class="g6_7" />
<path d="M380.5,222.1l18,10.8" class="g8_7" />
<path d="M377.7,223.8l17.9,10.7" class="g6_7" />
<path d="M376.3,227.7l17.9,10.7" class="g6_7" />
<path d="M376.7,229.2l18.9,11.3" class="g8_7" />
<path d="M309,265.4l60.9,-36.2c3.3,-2,4.7,-1.2,6.8,0" class="g8_7" />
<path d="M310.3,263.2l59.8,-35.7c2.7,-1.6,4.6,-0.7,6.2,0.2" class="g6_7" />
<path d="M308.8,259.6l60.9,-36.3c2.8,-1.6,5.3,-1,8,0.5" class="g6_7" />
<path d="M306.1,257.8l59.7,-35.7c6.5,-3.8,9.9,-2.8,14.7,0" class="g8_7" />
<path d="M394.2,238.3c0.7,-0.5,1.9,-2.1,1.4,-3.8" class="g6_7" />
<path d="M395.6,234.5c0.8,0.5,2.7,-0.5,2.9,-1.6" class="g6_7" />
<path d="M394.2,238.4c0.8,0.1,1.8,0.9,1.4,2.1" class="g6_7" />
<path d="M395.6,240.5c0.2,-0.6,1.8,-2.1,2.9,-1.7" class="g8_7" />
<path d="M398.5,238.8c-0.5,-1.1,0.5,-3.7,1.4,-3.9" class="g8_7" />
<path d="M398.5,232.9c0,0.7,0.2,1.8,1.4,2" class="g8_7" />
<path d="M310.3,263.2c-0.6,-0.4,-1.9,-2.1,-1.3,-3.7" class="g6_7" />
<path d="M309,259.5c-0.9,0.5,-2.7,-0.6,-2.9,-1.7" class="g6_7" />
<path d="M310.3,263.2c-0.8,0.1,-1.7,1,-1.3,2.2" class="g6_7" />
<path d="M309,265.4c-0.3,-0.6,-1.9,-2,-2.9,-1.6" class="g8_7" />
<path d="M306.1,263.8c0.4,-1.1,-0.5,-3.8,-1.5,-3.9" class="g8_7" />
<path d="M306.1,257.8c0,0.7,-0.2,1.8,-1.5,2.1" class="g8_7" />
<path fill-rule="evenodd" d="M106,289l37,0l0,38l-37,0Z" class="g10_7" />
<path fill-rule="evenodd" d="M103.5,287.5l38,0l0,37l-38,0Z" class="g11_7" />
<path d="M744.4,615.6l-7.7,-6.9c0,0,-3.3,-3.6,0.6,-9.8" class="g8_7" />
<path d="M760.2,600.6L746.8,595c0,0,-5.2,-2.5,-9.5,3.9" class="g8_7" />
<path d="M744.5,609.4l0,9.9c0,0,-0.5,3.5,2.9,5.6c3.3,2.1,18.7,12,18.7,12l5.6,0.4" class="g8_7" />
<path d="M754,629.7c0.5,3.5,1.1,5.8,1.1,5.8c0,0,0.7,1.5,2.5,2.5c1.7,1,16.3,10.3,16.3,10.3c0,0,0.8,0.7,1.9,0.3c1.1,-0.4,8.5,-3.2,8.5,-3.2" class="g8_7" />
<path d="M744.5,609.4c-0.1,-0.9,1.1,-3.5,2.1,-4.2" class="g8_7" />
<path d="M746.6,605.2c2.7,-0.3,8.9,-2.6,10.5,-3.6c1.7,-1,3.7,-1.4,7,-1.3c3.3,0.1,6.4,0.9,8.3,1.7c2,0.7,2.2,1,3.9,2c1.7,1,16.5,10.3,16.5,10.3c0,0,0.9,0.9,0.9,1.5c0,0.7,0,3.9,0,3.9" class="g8_7" />
<path d="M765.5,624.6L747.9,613.2" class="g6_7" />
<path d="M785.1,613.2L767.9,602.3" class="g6_7" />
<path d="M765.9,635.3l0,-8.8c0,0,-0.2,-1.2,1.1,-2.5c1.3,-1.3,6.6,-6.1,6.6,-6.1c0,0,1.3,-0.9,2.2,-1.2c0.9,-0.4,8.5,-3.1,8.5,-3.1c0,0,1.4,-0.3,2,-0.2c0.6,0.1,5.4,0.8,5.4,0.8" class="g6_7" />
<path d="M772.6,637.9l1.5,9.3" class="g6_7" />
<path d="M773.9,621.3l12.2,7.7c0,0,2.4,3.3,0.3,7.6" class="g8_7" />
<path d="M786.4,636.6l-2,0.9L772,629.8" class="g8_7" />
<path d="M772.1,622.1l12.2,7.6c0,0,2.4,3.4,0.3,7.7" class="g6_7" />
<path d="M772,629.3l0,-7.2l1.9,-0.8" class="g6_7" />
<path d="M787.7,616.1l12.2,7.7c0,0,2.4,3.3,0.3,7.6" class="g8_7" />
<path d="M800.2,631.4l-1.9,0.9l-12.4,-7.7" class="g8_7" />
<path d="M786,616.8l12.2,7.7c0,0,2.4,3.4,0.3,7.7" class="g6_7" />
<path d="M785.8,624.1l0,-7.3l1.9,-0.7" class="g6_7" />
<path d="M791.2,628.5l-3.4,2.8" class="g8_7" />
<path d="M786.3,637.2l0,1.5" class="g8_7" />
<path d="M778,641.2l16.5,10.3c0,0,3,1.3,4.3,-1c1.2,-2.3,0.3,-3.6,-0.8,-4.4c-1.1,-0.8,-13.5,-8.3,-13.5,-8.3" class="g8_7" />
<path d="M778,641.2c-0.9,-0.5,-0.8,-2.9,-0.1,-4c0.8,-1,2.4,-2.2,3.6,-1.5" class="g6_7" />
<path d="M781.3,630.1c0.7,-0.3,1.7,0.3,2.1,1.4c0.5,1.1,0.2,2.2,-0.5,2.5c-0.8,0.3,-1.7,-0.3,-2.2,-1.4c-0.4,-1.1,-0.2,-2.2,0.6,-2.5Z" class="g6_7" />
<path d="M795.2,624.9c0.7,-0.3,1.7,0.3,2.2,1.4c0.4,1,0.2,2.2,-0.6,2.5c-0.7,0.3,-1.7,-0.3,-2.1,-1.4c-0.5,-1.1,-0.2,-2.2,0.5,-2.5Z" class="g6_7" />
<path d="M757.9,587.9c0.8,0.9,3.2,2.2,5.8,0.7c2.6,-1.4,3.4,-3.5,3.8,-4.3" class="g8_7" />
<path d="M763.5,585.7l0,1.2l1,-0.4l0.1,-1.2" class="g6_7" />
<path d="M678.4,585.3l11.7,-4.2" class="g8_7" />
<path d="M709.1,574.1L740,562.7" class="g8_7" />
<path d="M738.8,542.6c-2.3,-1.1,-3.2,-0.4,-4.3,0c-1.1,0.4,-49.7,18.3,-49.7,18.3c0,0,-6.7,3.4,-6.7,10.3c0,7,0,24.9,0,24.9c0,0,0.2,3,2.5,3.7" class="g8_7" />
<path d="M679.3,598.5c1.9,1,3.6,0.9,5.7,0.2c7.7,-2.6,15.6,-5.9,23.3,-8.7" class="g8_7" />
<path d="M725.5,583.6c-0.2,0.4,8.2,-3,8.2,-3c0,0,6.7,-2.8,6.7,-9.5c0,-6.6,0,-24.5,0,-24.5c0,0,0.3,-3.8,-3.8,-4.5" class="g8_7" />
<path d="M726.9,584.7c-0.2,0.3,8.2,-3.1,8.2,-3.1c0,0,6.7,-2.7,6.7,-9.4c0,-6.7,0,-25.6,0,-25.6c0,0,0.3,-3.8,-3.8,-4.5" class="g6_7" />
<path d="M709.6,590.9l-24.8,9.3c-1.5,0.6,-4.3,0.5,-4.9,-0.4" class="g6_7" />
<path d="M635.9,566.6l0.1,-5l33.8,-12.4" class="g8_7" />
<path d="M636.4,565l32.1,-11.8c0,0,0.2,-2.7,0.1,-3.1" class="g8_7" />
<path d="M635.9,566.6l34,-12.3c0,0,0.1,-4.7,-0.1,-5.1" class="g6_7" />
<path d="M635.9,624.4l0.1,-5L669.8,607" class="g8_7" />
<path d="M636.4,622.8L668.5,611c0,0,0.2,-2.7,0.1,-3.1" class="g8_7" />
<path d="M635.9,624.4l34,-12.3c0,0,0.1,-4.7,-0.1,-5.1" class="g6_7" />
<path d="M768,480.8l20,12.5c0,0,3.1,1.6,3.1,4.9c0,3.3,0.4,4.4,-2,6.2c-2.4,1.8,-3.8,2.1,-3.8,2.1l-40.7,15.2l0,4.9" class="g8_7" />
<path d="M759.3,456.9c-1.1,-1.4,-2.5,-2.4,-4.2,-2.1c-1.6,0.2,-163.3,59.8,-163.3,59.8c0,0,-3,1.7,-3,4.7" class="g8_7" />
<path d="M761.2,458.1c-1.1,-1.4,-2.5,-2.4,-4.1,-2.1c-1.7,0.2,-163.4,59.8,-163.4,59.8c0,0,-3,1.6,-2.9,4.6" class="g6_7" />
<path d="M589.4,517c-1.4,0,-3.1,0.5,-3.2,1.5c0,1.1,0,14.9,0,14.9c0,0,1,2.2,4.9,0.8c3.8,-1.3,8.7,-3.2,8.7,-3.2c0,0,4.1,0.7,6.8,-2" class="g8_7" />
<path d="M586.8,518.2c-0.1,1.1,1.4,2.4,3.5,1.8c2,-0.5,9.6,-4,9.6,-4c0,0,3,-3.9,7.8,-2.9" class="g8_7" />
<path d="M612.3,523.1l0,-10.5l-4.6,0.5" class="g8_7" />
<path d="M607.5,518.5l0,-5" class="g6_7" />
<path d="M589.5,521.5l0,11" class="g6_7" />
<path d="M588.9,623l0,-3.3c0,0,0.1,-1.8,2,-2.5c2,-0.7,29.3,-10.8,29.3,-10.8" class="g8_7" />
<path d="M588.9,620.7c-1.4,0.1,-2.6,0.5,-2.7,1.6c0,1.1,0,14.9,0,14.9c0,0,1,2.1,4.9,0.8c3.8,-1.4,8.7,-3.3,8.7,-3.3c0,0,4.1,0.7,6.8,-2" class="g8_7" />
<path d="M586.8,621.9c-0.1,1.1,1.4,2.4,3.5,1.9c0.7,-0.2,2.2,-0.9,3.9,-1.5" class="g8_7" />
<path d="M589.5,625.5l0,11" class="g6_7" />
<path d="M590.5,621.5l0,1" class="g6_7" />
<path d="M591.1,638c0.6,1.5,1.9,1.5,3.6,1.2c1.7,-0.3,14.5,-5.7,14.5,-5.7" class="g8_7" />
<path d="M591.5,538.3c-0.4,-0.3,-1.1,-1.4,-1.1,-2c0,-0.6,0.2,-1.5,0.2,-1.5" class="g6_7" />
<path d="M741.3,593.7l47.9,-17.6c0,0,1.6,-0.8,1.7,-2.3c0,-1.4,-0.2,-3.9,-0.2,-3.9c0,0,-1.6,-1.6,-2.5,-1.7c-0.8,-0.1,-4.8,0.2,-4.8,0.2l-39,14.6" class="g8_7" />
<path d="M744.3,584.7l0,-5.2l11.2,-4l4.6,-2.4c0,0,1.2,-1.5,1.2,-2.4c0,-1,0.1,-48,0.1,-48c0,0,-0.8,-1.1,-1.2,-1.3c-0.3,-0.2,-1,-0.6,-1,-0.6c0,0,-0.7,0.1,-1.4,0.1c-0.7,0.1,-3.5,0.6,-3.5,0.6l-9.5,3.7" class="g8_7" />
<path d="M761.4,524.1c0,0,-0.8,-1.1,-1.2,-1.3c-0.3,-0.2,-1,-0.6,-1,-0.6c0,0,-0.7,0.1,-1.4,0.1c-0.7,0.1,-3.5,0.6,-3.5,0.6l-9.5,3.7" class="g6_7" />
<path d="M790.1,569.5c-0.9,-0.1,-4.8,0.3,-4.8,0.3l-41,14.9" class="g6_7" />
<path d="M781.1,569.3L761.3,556.6" class="g8_7" />
<path d="M624.2,557.7L789.4,497.9" class="g6_7" />
<path d="M622.4,556L787.7,496.2" class="g6_7" />
<path d="M623.9,525.2L752.6,478.6" class="g6_7" />
<path d="M592.2,536.7l16.6,-6" class="g6_7" />
<path d="M757.5,455.3c1.3,-0.5,3,-0.6,3.5,0.7c0.5,1.4,0,15.5,0,15.5c0,0,-1.9,1.2,-2.6,1.2" class="g8_7" />
<path d="M749.2,476.6c-0.9,1.3,-4.2,2.2,-6.3,1.9" class="g8_7" />
<path d="M742.9,478.5l-2.4,1.8l-0.2,-14.7l2.3,-2.1c0,0,2.7,-4.2,7.9,-2.9" class="g8_7" />
<path d="M760.2,457l-9.7,3.6" class="g8_7" />
<path d="M742.5,464.5l0,13" class="g6_7" />
<path d="M624.8,523.5L753.4,476.9" class="g6_7" />
<path d="M594.1,537.4l16.6,-6" class="g6_7" />
<path d="M766.1,474.3c2.4,1.4,2.8,5,1,7.9c-1.8,3,-5.2,4.2,-7.5,2.8" class="g8_7" />
<path d="M759.6,485c-2.4,-1.4,-2.8,-5,-1,-8c1.8,-2.9,5.1,-4.2,7.5,-2.7" class="g6_7" />
<path d="M766.4,474.4c0,0,0.9,0.4,-1.4,-1c-2.4,-1.4,-5.8,-0.2,-7.6,2.8c-1.8,2.9,-1.3,6.5,1,7.9c2.4,1.5,1.2,0.9,1.2,0.9" class="g8_7" />
<path d="M750.7,476.1c-0.8,0.2,-1.7,0.1,-2.4,-0.3" class="g8_7" />
<path d="M752.9,468.3c0.7,0.5,1.2,1.2,1.4,2.1" class="g8_7" />
<path d="M748.3,475.8c-1.6,-1,-1.9,-3.5,-0.7,-5.6c1.3,-2,3.6,-2.9,5.3,-1.9" class="g6_7" />
<path d="M744.4,473.3c-1.6,-1,-1.9,-3.5,-0.7,-5.6c1.3,-2,3.7,-2.9,5.3,-1.9" class="g6_7" />
<path d="M748.3,475.8l-3.9,-2.5" class="g8_7" />
<path d="M752.9,468.3L749,465.8" class="g8_7" />
<path d="M758.8,473.3C756,471.6,752,469.2,752,469.2" class="g8_7" />
<path d="M755.5,479c-2.8,-1.7,-6.7,-4.1,-6.7,-4.1" class="g8_7" />
<path d="M748.8,474.6c-1.2,-0.7,-1.4,-2.4,-0.5,-3.9c0.9,-1.4,2.5,-2,3.6,-1.3" class="g6_7" />
<path d="M750.3,475.7c-1.1,-0.7,-1.3,-2.4,-0.5,-3.9c0.9,-1.4,2.6,-2,3.7,-1.3" class="g6_7" />
<path d="M752.2,476.6c-1.1,-0.7,-1.4,-2.5,-0.5,-3.9c0.9,-1.4,2.5,-2.1,3.7,-1.4" class="g6_7" />
<path d="M755.8,478.7c-1.2,-0.7,-1.4,-2.4,-0.5,-3.9c0.9,-1.4,2.5,-2,3.6,-1.3" class="g6_7" />
<path d="M763.1,477.7l1,-0.5c0,0,0.1,1.3,0.2,1.6c0.2,0.4,0.6,0.6,0.9,0.4c0.2,-0.2,0.8,-0.5,0.8,-0.5l0.2,1c0,0,-0.6,0.4,-1.1,0.7c-0.2,0.2,-0.6,0.5,-0.7,1c-0.2,0.5,-0.1,1.1,-0.2,1.2c0,0.1,-1.1,0.4,-1.1,0.4c0,0,0.1,-0.7,0.1,-1c0,-0.3,-0.3,-0.8,-0.7,-0.7c-0.5,0.1,-1.3,0.3,-1.3,0.3l-0.1,-1.1l1,-0.2c0,0,1.2,-0.6,1.2,-1.4c-0.1,-0.8,-0.2,-1.2,-0.2,-1.2Z" class="g6_7" />
<path d="M753.9,477.5c-1.2,-0.7,-1.4,-2.5,-0.5,-3.9c0.9,-1.5,2.5,-2.1,3.7,-1.4" class="g6_7" />
<path d="M624,527.2c2.4,1.4,2.8,5,1,7.9c-1.8,3,-5.2,4.3,-7.5,2.8" class="g8_7" />
<path d="M617.5,537.9c-2.4,-1.4,-2.8,-5,-1,-8c1.8,-2.9,5.2,-4.2,7.5,-2.7" class="g6_7" />
<path d="M624.3,527.4c0,0,0.9,0.3,-1.4,-1.1c-2.4,-1.4,-5.8,-0.2,-7.6,2.8c-1.8,2.9,-1.3,6.5,1,7.9c2.4,1.5,1.2,0.9,1.2,0.9" class="g8_7" />
<path d="M608.6,529c-0.8,0.2,-1.7,0.1,-2.4,-0.3" class="g8_7" />
<path d="M610.8,521.2c0.7,0.5,1.2,1.2,1.4,2.2" class="g8_7" />
<path d="M606.2,528.7c-1.6,-1,-1.9,-3.5,-0.7,-5.6c1.3,-2,3.6,-2.9,5.3,-1.9" class="g6_7" />
<path d="M602.4,526.2c-1.7,-1,-2,-3.5,-0.7,-5.5c1.2,-2.1,3.6,-3,5.2,-2" class="g6_7" />
<path d="M606.2,528.7l-3.8,-2.5" class="g8_7" />
<path d="M610.8,521.2l-3.9,-2.5" class="g8_7" />
<path d="M616.7,526.2c-2.8,-1.7,-6.7,-4.1,-6.7,-4.1" class="g8_7" />
<path d="M613.4,531.9c-2.8,-1.7,-6.7,-4.1,-6.7,-4.1" class="g8_7" />
<path d="M606.7,527.5c-1.2,-0.7,-1.4,-2.4,-0.5,-3.9c0.9,-1.4,2.5,-2,3.7,-1.3" class="g6_7" />
<path d="M608.2,528.6c-1.1,-0.7,-1.3,-2.4,-0.4,-3.9c0.8,-1.4,2.5,-2,3.6,-1.3" class="g6_7" />
<path d="M610.1,529.5c-1.1,-0.7,-1.3,-2.5,-0.5,-3.9c0.9,-1.4,2.5,-2,3.7,-1.3" class="g6_7" />
<path d="M613.7,531.6c-1.2,-0.7,-1.4,-2.4,-0.5,-3.9c0.9,-1.4,2.5,-2,3.7,-1.3" class="g6_7" />
<path d="M621,530.6l1,-0.5c0,0,0.1,1.3,0.2,1.7c0.2,0.3,0.6,0.5,0.9,0.3c0.2,-0.2,0.8,-0.5,0.8,-0.5l0.3,1c0,0,-0.7,0.4,-1.2,0.7c-0.2,0.2,-0.6,0.5,-0.7,1c-0.2,0.5,-0.1,1.1,-0.1,1.2c-0.1,0.1,-1.2,0.4,-1.2,0.4c0,0,0.1,-0.7,0.1,-1c0,-0.3,-0.2,-0.8,-0.7,-0.7c-0.5,0.1,-1.3,0.3,-1.3,0.3L619,533.4l1,-0.2c0,0,1.3,-0.6,1.2,-1.4C621.1,531,621,530.6,621,530.6Z" class="g6_7" />
<path d="M611.8,530.4c-1.1,-0.7,-1.4,-2.5,-0.5,-3.9c0.9,-1.4,2.5,-2,3.7,-1.4" class="g6_7" />
<path d="M624,632.3c2.4,1.5,2.8,5.1,1,8c-1.8,3,-5.2,4.2,-7.5,2.8" class="g8_7" />
<path d="M617.5,643.1c-2.4,-1.4,-2.8,-5,-1,-8c1.8,-2.9,5.2,-4.2,7.5,-2.8" class="g6_7" />
<path d="M624.3,632.5c0,0,0.9,0.4,-1.4,-1c-2.4,-1.5,-5.8,-0.2,-7.6,2.8c-1.8,2.9,-1.3,6.5,1,7.9c2.4,1.5,1.2,0.9,1.2,0.9" class="g8_7" />
<path d="M608.6,634.2c-0.8,0.2,-1.7,0.1,-2.4,-0.3" class="g8_7" />
<path d="M610.8,626.4c0.7,0.4,1.2,1.2,1.4,2.1" class="g8_7" />
<path d="M606.2,633.9c-1.6,-1,-1.9,-3.5,-0.7,-5.6c1.3,-2,3.6,-2.9,5.3,-1.9" class="g6_7" />
<path d="M602.4,631.4c-1.7,-1,-2,-3.5,-0.7,-5.6c1.2,-2,3.6,-2.9,5.2,-1.9" class="g6_7" />
<path d="M606.2,633.9l-3.8,-2.5" class="g8_7" />
<path d="M610.8,626.4l-3.9,-2.5" class="g8_7" />
<path d="M616.7,631.4c-2.8,-1.7,-6.7,-4.1,-6.7,-4.1" class="g8_7" />
<path d="M613.4,637.1c-2.8,-1.7,-6.7,-4.2,-6.7,-4.2" class="g8_7" />
<path d="M606.7,632.7c-1.2,-0.7,-1.4,-2.5,-0.5,-3.9c0.9,-1.4,2.5,-2,3.7,-1.3" class="g6_7" />
<path d="M608.2,633.8c-1.1,-0.7,-1.3,-2.4,-0.4,-3.9c0.8,-1.4,2.5,-2,3.6,-1.3" class="g6_7" />
<path d="M610.1,634.6c-1.1,-0.7,-1.3,-2.4,-0.5,-3.8c0.9,-1.5,2.5,-2.1,3.7,-1.4" class="g6_7" />
<path d="M613.7,636.8c-1.2,-0.7,-1.4,-2.4,-0.5,-3.9c0.9,-1.4,2.5,-2,3.7,-1.3" class="g6_7" />
<path d="M621,635.8l1,-0.5c0,0,0.1,1.3,0.2,1.6c0.2,0.3,0.6,0.6,0.9,0.4c0.2,-0.2,0.8,-0.6,0.8,-0.6l0.3,1.1c0,0,-0.7,0.3,-1.2,0.7c-0.2,0.2,-0.6,0.5,-0.7,1c-0.2,0.5,-0.1,1.1,-0.1,1.2c-0.1,0.1,-1.2,0.4,-1.2,0.4c0,0,0.1,-0.7,0.1,-1c0,-0.3,-0.2,-0.8,-0.7,-0.7c-0.5,0.1,-1.3,0.3,-1.3,0.3L619,638.6l1,-0.2c0,0,1.3,-0.6,1.2,-1.4c-0.1,-0.8,-0.2,-1.2,-0.2,-1.2Z" class="g6_7" />
<path d="M611.8,635.5c-1.1,-0.7,-1.4,-2.4,-0.5,-3.8c0.9,-1.5,2.5,-2.1,3.7,-1.4" class="g6_7" />
<path fill-rule="evenodd" d="M600.5,621.3l-0.9,4.3l18.7,12.3c0,0,2.9,1.3,2.8,0.8c-0.2,-0.5,2.9,-1.4,2.9,-1.4l2.1,-1l3.5,-4l-4.9,-5.6l-9.1,-2.9Z" class="g7_7" />
<path d="M588.9,535.4c0,0,-0.5,3.3,2.4,5.1c3,1.8,27.5,17.2,27.5,17.2c0,0,1.5,0.6,1.4,2.6c-0.1,2,0,74.7,0,74.7l-0.3,1.1" class="g8_7" />
<path d="M619.8,638.4c0.8,-0.7,1.9,-1.4,2.1,-3.2c0.2,-1.8,0,-74.7,0,-74.7c0,0,0.2,-2.7,-2.3,-4.4C617,554.4,594.1,540,591.5,538.3" class="g6_7" />
<path d="M590.7,620.6c0.6,-0.7,2.8,1.1,2.8,1.1l25.3,16.5c0.9,0.6,2.7,-0.2,4.9,-1c2.2,-0.8,101.5,-37.6,101.5,-37.6" class="g8_7" />
<path d="M618.8,635.4L592.6,619c0,0,-2.2,-1.9,-2.8,-1.1" class="g6_7" />
<path d="M581.5,306.5l0,7" class="g6_7" />
<path d="M583.5,398.5l28,-10c1,-0.4,1.7,-1,1.7,-2.9c-0.1,-1.8,0,-38.2,0,-38.2" class="g6_7" />
<path d="M344.6,459.9l-0.2,-67.5L581.9,306.3" class="g8_7" />
<path d="M344.6,459.9l10.1,-3.6" class="g6_7" />
<path d="M344.5,450.4l50.1,30.7c0,0,2.5,1.8,4.9,0.9c2.4,-0.9,2.4,-0.9,2.4,-0.9l5.4,-2c0,0,1.2,-0.7,1,-1.4c-0.2,-0.7,0,-2.6,0,-2.6c0,0,-0.2,-0.8,-1.2,-1.3c-1,-0.5,-4.1,-2.5,-4.1,-2.5" class="g8_7" />
<path d="M397.7,478.8C397,478,397,478.6,397,476.5c0,-2.1,0,-48.6,0,-48.6c0,0,-0.3,-2.6,2.8,-3.8c3.1,-1.2,7.4,-2.6,7.4,-2.6c0,0,1.2,-0.7,1.2,-1.8c0,-1.1,0,-2.7,0,-2.7l-5.5,-3.6c0,0,-0.6,-0.5,-0.6,-0.8" class="g8_7" />
<path d="M405.6,415.2l16.2,-5.8" class="g8_7" />
<path d="M435.2,401.6c0.4,0.4,0.2,0.7,-0.2,1c-0.5,0.4,-10.8,3.7,-10.8,3.7c0,0,-2.4,1.3,-2.5,1.8c0,0.5,-0.2,3.3,-0.2,3.3c0,0,2,1.6,2.9,2c0.8,0.4,2.8,0.6,4.7,-0.1c2,-0.8,25.8,-9.3,25.8,-9.3c0,0,1.1,-0.6,1.2,-1.4c0.1,-0.8,0.1,-2.9,0.1,-2.9c0,0,-0.8,-1.1,-1.2,-1.3c-0.5,-0.2,-4,-2.1,-4,-2.1c0,0,-0.5,-0.2,-0.4,-0.5" class="g8_7" />
<path d="M454.3,397.3c-0.4,0.6,75.4,-27.4,75.4,-27.4" class="g8_7" />
<path d="M543.5,362.4c0.1,0.4,0,0.8,-0.6,1.1c-0.5,0.2,-10.5,3.7,-10.5,3.7c0,0,-2,0.6,-2.4,1.3c-0.3,0.7,-0.5,1,-0.4,1.9c0,1,0.1,1.7,0.1,1.7c0,0,0.5,0.9,1.4,1.4c0.8,0.4,2,1.1,2,1.1c0,0,1.6,0.3,3.5,-0.3c2,-0.7,84.1,-30.6,84.1,-30.6c0,0,1,-0.5,1.6,0" class="g8_7" />
<path d="M574.3,309l49.2,30.8c0,0,2.4,1.5,2.5,4.2c0.1,2.7,-0.1,49.3,-0.1,49.3c0,0,-0.2,4.4,-3.5,6.8" class="g8_7" />
<path d="M603.1,407.5l-65.5,24.1" class="g8_7" />
<path d="M543.4,420c0.1,0.8,-1.2,1.3,-1.5,1.4c-0.3,0.1,-9.7,3.3,-9.7,3.3c0,0,-2.4,1,-2.4,2.1" class="g8_7" />
<path d="M533,428.8c0.8,0.2,2.6,0.1,3.9,-0.3c1.2,-0.5,83.4,-30.7,83.4,-30.7c0,0,2.6,-0.6,2.7,-3.3c0.1,-2.6,-0.2,-50.4,-0.2,-50.4" class="g6_7" />
<path d="M625,341.2c-1.5,-1.4,-3.7,-0.6,-5.7,-0.1c-2,0.5,-83.4,30.4,-83.4,30.4c0,0,-2.2,0.3,-2.9,-0.3c-0.7,-0.6,-4,-1.9,-3,-2.7" class="g6_7" />
<path d="M543.5,362.4c-1,-1,-2,-0.1,-2.9,0c-0.9,0.1,-89.3,32.4,-89.3,32.4" class="g6_7" />
<path d="M434.9,401.4c-0.9,-1.1,-1.9,-0.2,-2.8,-0.1c-0.9,0.1,-29.4,10.6,-29.4,10.6" class="g6_7" />
<path d="M393,421.7L348,394.4" class="g6_7" />
<path d="M391.5,423.2L346.5,396" class="g6_7" />
<path d="M455.3,400.4c-2,0.5,-27.4,10.2,-27.4,10.2c0,0,-2.2,0.3,-2.9,-0.3c-0.7,-0.6,-4,-1.9,-3,-2.7" class="g6_7" />
<path d="M407.1,417.8l-8.2,3.2c0,0,-5,2.4,-5,8c0,5.6,0,48.6,0,48.6c0,0,-0.2,4.4,2.7,4.4" class="g6_7" />
<path d="M435.2,459.5c0.4,0.4,0.2,0.6,-0.2,1c-0.5,0.3,-10.8,3.7,-10.8,3.7c0,0,-2.4,1.2,-2.5,1.7c0,0.5,-0.2,3.4,-0.2,3.4c0,0,2,1.6,2.9,2c0.8,0.4,2.8,0.6,4.7,-0.2c2,-0.7,25.8,-9.3,25.8,-9.3c0,0,1.1,-0.6,1.2,-1.4c0.1,-0.8,0.1,-2.8,0.1,-2.8c0,0,-0.8,-1.1,-1.2,-1.3c-0.5,-0.2,-4,-2.1,-4,-2.1c0,0,-0.5,-0.3,-0.4,-0.5" class="g8_7" />
<path d="M455.3,458.2c-2,0.5,-27.4,10.3,-27.4,10.3c0,0,-2.2,0.3,-2.9,-0.3c-0.7,-0.6,-4,-1.9,-3,-2.7" class="g6_7" />
<path d="M405.6,472.7L421.8,467" class="g8_7" />
<path d="M435.2,459.2c-0.9,-1,-1.9,-0.1,-2.8,0c-0.9,0.1,-28.4,10.5,-28.4,10.5" class="g6_7" />
<path d="M453.8,455.1c-0.3,0.6,60.4,-21.8,60.4,-21.8" class="g8_7" />
<path d="M510.3,430.9c-26,9.5,-59.5,21.7,-59.5,21.7" class="g6_7" />
<path d="M543,420.2c-0.9,-1,-1.9,-0.1,-2.8,0c-0.2,0,-5.3,1.8,-13,4.6" class="g6_7" />
<path d="M496.1,431.7c-26,9.4,-98.3,36,-98.3,36" class="g6_7" />
<path d="M496.1,430.1c-26,9.5,-98.3,36.1,-98.3,36.1" class="g6_7" />
<path d="M522.3,422.4c0,0,62.9,-23.1,88.9,-32.6" class="g6_7" />
<path d="M556,367.2l-0.2,41.1" class="g6_7" />
<path d="M569.2,403.7l-12.7,4.7l-0.7,-0.1L521,421.2" class="g6_7" />
<path d="M569.2,403.7l0,-25.3c0,0,0.9,-12.1,10.4,-11.7" class="g8_7" />
<path d="M579.6,366.7c1.7,0.3,3.9,1.8,3.9,5.1c0,3.4,0,25.1,0,25.1" class="g6_7" />
<path d="M580,366.9c1,0.8,1.7,2.1,1.7,4.1c0,3.3,0,25,0,25" class="g8_7" />
<path d="M581.7,396l1.8,0.9l0,1.6" class="g8_7" />
<path d="M570.2,402l12.4,-4.7Z" class="g6_7" />
<path d="M570.2,403.5l0,-1.5" class="g6_7" />
<path d="M562.9,378.9c1.7,1,1.9,3.6,0.6,5.8c-1.4,2.2,-3.8,3.1,-5.5,2.1c-1.7,-1,-1.9,-3.6,-0.5,-5.8c1.3,-2.2,3.8,-3.2,5.4,-2.1Z" class="g6_7" />
<path d="M561.5,381.2c0.6,0.5,0.7,1.5,0.2,2.4c-0.6,0.9,-1.6,1.2,-2.2,0.8c-0.7,-0.4,-0.8,-1.4,-0.2,-2.3c0.5,-0.9,1.5,-1.3,2.2,-0.9Z" class="g6_7" />
<path d="M496.7,431.6l-0.1,-10.9c0,-1.3,1.4,-7.3,5.5,-9.3c4,-2,5.6,-1.5,6.8,-1.1c1.2,0.3,1.9,0.9,3.1,1.8c1.1,1,2.3,2.8,2.3,4.9" class="g8_7" />
<path d="M498.8,433l-0.1,-10.9c0,-1.5,1.1,-7,5.5,-9.3c4.4,-2.3,5.6,-1.5,6.8,-1.1" class="g6_7" />
<path d="M501.3,432.6l0,-9.5c0,-1.6,1.5,-6.4,4.6,-8.3c3.2,-2,5.2,-1.1,5.8,-0.8c0.6,0.3,1.8,2,1.9,2.5" class="g6_7" />
<path d="M496.7,431.6l2.1,1.4l2.6,0.2l8.1,-3" class="g6_7" />
<path d="M503.5,426.3c-2.6,-1.6,-1.1,-6.6,0.4,-8.6c1.5,-2,5.1,-3.9,7.2,-2.6" class="g6_7" />
<path d="M503.5,426.3l84.2,53.9" class="g8_7" />
<path d="M511.4,415.4l84.2,54" class="g8_7" />
<path d="M595.6,469.4c6.1,3.8,39.1,19.8,62.9,20.7" class="g8_7" />
<path d="M587.6,480.3c4.7,2.9,27.1,13.5,47.8,18.3" class="g8_7" />
<path d="M591.1,466.5C609.3,453.7,639,439.8,691.6,439.8c52.6,0,79.9,15.9,92.7,26.1" class="g8_7" />
<path d="M591.1,448.7C609.3,436,639,422,691.6,422c52.6,0,79.9,16,92.7,26.1" class="g8_7" />
<path d="M591.1,430.4C609.3,417.6,639,403.7,691.6,403.7c52.6,0,79.9,15.9,92.7,26.1" class="g8_7" />
<path d="M575.7,456.6c0.1,-6.1,4.4,-19,15.4,-26.2" class="g8_7" />
<path d="M784.3,429.8c9.3,8.8,14.9,20,3.3,33.4" class="g8_7" />
<path d="M768.1,477.1c7.1,-3.5,16.5,-9.8,19.5,-13.9" class="g8_7" />
<path d="M791.7,457.3c-1.5,-2.8,-3.5,-6.2,-7.4,-9.2" class="g8_7" />
<path d="M580.8,459.9c3.1,-5.1,7.9,-9.6,10.3,-11.2" class="g8_7" />
<path d="M562.8,448.3c1.8,-8.2,8.7,-19.9,18,-27c9.4,-7,40,-31.3,110.2,-31.3c70.1,0,117,28.9,117,57.7" class="g8_7" />
<path d="M778.4,487.3c11,-6,29.9,-19.3,29.6,-39.6" class="g8_7" />
<path d="M608,508.6C586.2,498.1,566.9,485.9,562.3,464" class="g8_7" />
<path d="M592,483.3c4.9,4.4,24.2,15,36,17.9" class="g8_7" />
<path d="M583.3,437.6C595.4,429,626,408.1,691,408.1c43.4,0,78,11.1,98,26.4" class="g8_7" />
<path d="M587.8,451.6c14.5,-9.9,45.3,-26.1,103,-26c41.4,0,74.6,10.1,95,24.2" class="g8_7" />
<path d="M779.8,487.9c3.4,-2.4,6.3,-4.9,7.8,-6.8" class="g8_7" />
<path d="M790.8,496.9c8.9,-7.2,17.4,-17.8,17.2,-31.4" class="g8_7" />
<path d="M778.4,523c11,-6,29.9,-19.3,29.6,-39.7" class="g8_7" />
<path d="M808,465.5c0,-3.3,-0.5,-6.8,-1.4,-8.2" class="g8_7" />
<path d="M808,483.2c0,-3.3,-0.5,-6.8,-1.4,-8.2" class="g8_7" />
<path d="M761.3,530.9c5.1,-1.8,17.1,-7.9,17.1,-7.9" class="g8_7" />
<path d="M748.6,520.2c5.3,-1.2,16.1,-5.3,19.4,-7.1" class="g8_7" />
<path d="M588.9,516.4c-13.2,-8.6,-23.4,-19.1,-26.6,-34.2" class="g8_7" />
<path d="M585.8,532.2C574.1,524,565.2,514,562.3,500" class="g8_7" />
<path d="M562.9,466.8c-1.5,4.1,-1.9,10.5,-0.6,15.4" class="g8_7" />
<path d="M562.9,484.7c-1.5,4.1,-1.9,10.5,-0.6,15.4" class="g8_7" />
<path d="M589,498.2c2.4,3.5,8.5,7.7,15.5,11.5" class="g8_7" />
<path d="M735.1,605.9c0,0,-42.4,-28,-56.8,-29.5" class="g8_7" />
<path d="M742.2,594.6c0,0,-42.3,-28,-56.8,-29.5" class="g8_7" />
<path d="M680.9,564.5c2.1,0.2,4.5,0.6,4.5,0.6" class="g8_7" />
<path d="M524.1,420.7c0.8,0.2,2.6,0.2,3.9,-0.3c1.2,-0.4,83.4,-30.6,83.4,-30.6c0,0,2.6,-0.6,2.7,-3.3c0.1,-2.7,-0.2,-40.3,-0.2,-40.3" class="g6_7" />
<path d="M526.2,834.5c0.9,0.9,3.4,2.3,6.2,0.8c2.7,-1.6,3.7,-3.8,4.1,-4.7" class="g8_7" />
<path d="M532.2,832.2l0,1.2l1.1,-0.4l0,-1.2" class="g6_7" />
<path d="M505.9,786.3c-2.5,-1.1,-3.4,-0.4,-4.6,0c-1.2,0.5,-52.8,19.4,-52.8,19.4c0,0,-7.2,3.6,-7.2,11.1c0,7.4,0,26.4,0,26.4c0,0,0.3,3.2,2.7,3.9" class="g8_7" />
<path d="M442.6,845.8c2,1,3.8,0.9,6.1,0.1c4.5,-1.5,15,-5.4,24.7,-9.1" class="g8_7" />
<path d="M491.8,829.9c-0.3,0.4,8.7,-3.2,8.7,-3.2c0,0,7.1,-2.9,7.1,-10c0,-7.2,0,-26.2,0,-26.2c0,0,0.4,-4,-4,-4.8" class="g8_7" />
<path d="M493.3,831c-0.3,0.4,8.7,-3.2,8.7,-3.2c0,0,7.1,-2.9,7.1,-10c0,-7.1,0,-27.2,0,-27.2c0,0,0.3,-4.1,-4,-4.8" class="g6_7" />
<path d="M474.7,837.9l-26.2,9.7c-1.6,0.6,-4.6,0.5,-5.2,-0.4" class="g6_7" />
<path d="M396.5,808.3l0,-1.8l36,-13.2" class="g8_7" />
<path d="M417.1,802.7l14.1,-5.2c0,0,0.2,-2.8,0,-3.2" class="g8_7" />
<path d="M418.9,803.7l13.7,-5c0,0,0.1,-5,-0.1,-5.4" class="g6_7" />
<path d="M396.5,869.9l0,-1.9l36,-13.2" class="g8_7" />
<path d="M431.2,855.8c0.2,0.4,0.1,4,0.1,4l-13.4,4.8" class="g8_7" />
<path d="M432.5,854.8c0.2,0.4,0.1,6,0.1,6l-13.2,4.9" class="g6_7" />
<path d="M537,720.5l21.2,13.3c0,0,3.3,1.8,3.3,5.3c0,3.5,0.4,4.7,-2.1,6.6c-2.6,1.9,-4.1,2.2,-4.1,2.2L512.1,764l0,2.3" class="g8_7" />
<path d="M527.7,695.2c-1.1,-1.5,-2.7,-2.6,-4.4,-2.3c-1.8,0.2,-173.8,63.6,-173.8,63.6c0,0,-3.2,1.8,-3.1,5" class="g8_7" />
<path d="M529.7,696.4c-1.1,-1.5,-2.6,-2.5,-4.4,-2.3c-1.7,0.3,-173.7,63.7,-173.7,63.7c0,0,-3.2,1.7,-3.2,4.9" class="g6_7" />
<path d="M347,759c-1.5,0.1,-3.3,0.5,-3.4,1.7c0,1.2,0,15.9,0,15.9c0,0,1.1,2.2,5.2,0.8c4.1,-1.4,9.3,-3.5,9.3,-3.5c0,0,4.3,0.8,7.2,-2.1" class="g8_7" />
<path d="M344.3,760.3c-0.2,1.2,1.5,2.6,3.6,2c2.2,-0.6,10.3,-4.3,10.3,-4.3c0,0,3.1,-4.2,8.3,-3.1" class="g8_7" />
<path d="M371.3,765.5l0,-11.2l-4.8,0.6" class="g8_7" />
<path d="M366.5,760.5l0,-6" class="g6_7" />
<path d="M346.5,764.5l0,12" class="g6_7" />
<path d="M343.6,884.7c0,1.2,0,2.2,0,2.2c0,0,1.1,2.3,5.2,0.8" class="g8_7" />
<path d="M349.3,781.7c-0.5,-0.3,-1.2,-1.4,-1.2,-2.1c0,-0.7,0.2,-1.6,0.2,-1.6" class="g6_7" />
<path d="M508.5,840.6l51,-18.7c0,0,1.7,-0.9,1.8,-2.4" class="g8_7" />
<path d="M511.7,827.6l0,-2l12,-4.4l4.9,-2.5c0,0,1.2,-1.6,1.2,-2.6c0,-1,0.1,-47.1,0.1,-47.1" class="g8_7" />
<path d="M384,802.3L559.8,738.7" class="g6_7" />
<path d="M382.1,800.5L557.9,736.9" class="g6_7" />
<path d="M383.7,767.8L520.6,718.3" class="g6_7" />
<path d="M349.9,780l17.7,-6.4" class="g6_7" />
<path d="M525.8,693.4c1.3,-0.5,3.1,-0.6,3.7,0.8c0.5,1.4,0,16.4,0,16.4c0,0,-2,1.4,-2.7,1.4" class="g8_7" />
<path d="M517,716.1c-1,1.4,-4.5,2.3,-6.8,2" class="g8_7" />
<path d="M510.2,718.1l-2.5,1.9l-0.2,-15.7l2.5,-2.2c0,0,2.8,-4.4,8.3,-3" class="g8_7" />
<path d="M528.7,695.3l-10.4,3.8" class="g8_7" />
<path d="M510.5,702.5l0,15" class="g6_7" />
<path d="M384.6,766L521.5,716.4" class="g6_7" />
<path d="M352,780.7l17.6,-6.4" class="g6_7" />
<path d="M535,713.6c2.5,1.5,2.9,5.3,1,8.5c-1.9,3.1,-5.5,4.5,-8,2.9" class="g8_7" />
<path d="M528,725c-2.5,-1.5,-3,-5.3,-1.1,-8.5c1.9,-3.1,5.5,-4.4,8.1,-2.9" class="g6_7" />
<path d="M535.3,713.8c0,0,1,0.4,-1.5,-1.1c-2.6,-1.6,-6.2,-0.2,-8.1,2.9c-1.9,3.2,-1.4,7,1.1,8.5c2.5,1.5,1.2,0.9,1.2,0.9" class="g8_7" />
<path d="M518.6,715.5c-0.9,0.3,-1.8,0.2,-2.6,-0.3" class="g8_7" />
<path d="M520.9,707.3c0.8,0.4,1.3,1.3,1.5,2.2" class="g8_7" />
<path d="M516,715.2c-1.7,-1,-2.1,-3.7,-0.7,-5.9c1.3,-2.2,3.8,-3.1,5.6,-2" class="g6_7" />
<path d="M511.9,712.6c-1.7,-1.1,-2.1,-3.7,-0.7,-5.9c1.3,-2.2,3.8,-3.1,5.6,-2.1" class="g6_7" />
<path d="M516,715.2l-4.1,-2.6" class="g8_7" />
<path d="M520.9,707.3l-4.1,-2.7" class="g8_7" />
<path d="M527.1,712.6c-2.9,-1.8,-7.1,-4.4,-7.1,-4.4" class="g8_7" />
<path d="M523.7,718.7c-3,-1.8,-7.2,-4.5,-7.2,-4.5" class="g8_7" />
<path d="M516.5,713.9c-1.2,-0.7,-1.4,-2.5,-0.5,-4.1c0.9,-1.5,2.7,-2.1,3.9,-1.4" class="g6_7" />
<path d="M518.2,715.1c-1.2,-0.7,-1.5,-2.6,-0.5,-4.1c0.9,-1.5,2.6,-2.2,3.9,-1.4" class="g6_7" />
<path d="M520.2,716c-1.3,-0.7,-1.5,-2.5,-0.6,-4.1c1,-1.5,2.7,-2.1,3.9,-1.4" class="g6_7" />
<path d="M524,718.3c-1.3,-0.7,-1.5,-2.6,-0.6,-4.1c1,-1.5,2.7,-2.2,3.9,-1.4" class="g6_7" />
<path d="M531.8,717.2l1,-0.4c0,0,0.1,1.3,0.2,1.7c0.2,0.3,0.7,0.6,0.9,0.4c0.3,-0.2,1,-0.6,1,-0.6l0.2,1.1c0,0,-0.7,0.4,-1.2,0.8c-0.3,0.1,-0.6,0.5,-0.8,1c-0.2,0.5,-0.1,1.2,-0.1,1.3c0,0.1,-1.2,0.4,-1.2,0.4c0,0,0.1,-0.7,0.1,-1.1c0,-0.3,-0.3,-0.8,-0.8,-0.7c-0.5,0.1,-1.4,0.3,-1.4,0.3l-0.1,-1.1l1.1,-0.2c0,0,1.3,-0.7,1.2,-1.6c-0.1,-0.8,-0.1,-1.3,-0.1,-1.3Z" class="g6_7" />
<path d="M522,717c-1.3,-0.7,-1.5,-2.6,-0.6,-4.1c1,-1.6,2.7,-2.2,3.9,-1.5" class="g6_7" />
<path d="M383.8,769.9c2.5,1.5,3,5.3,1.1,8.5c-1.9,3.1,-5.5,4.4,-8,2.9" class="g8_7" />
<path d="M376.9,781.3c-2.5,-1.5,-3,-5.3,-1.1,-8.5c1.9,-3.1,5.5,-4.5,8,-2.9" class="g6_7" />
<path d="M384.1,770.1c0,0,1,0.4,-1.5,-1.2c-2.5,-1.5,-6.1,-0.2,-8,3c-1.9,3.2,-1.5,7,1.1,8.5c2.5,1.5,1.2,0.9,1.2,0.9" class="g8_7" />
<path d="M367.4,771.8c-0.9,0.2,-1.8,0.2,-2.5,-0.3" class="g8_7" />
<path d="M369.7,763.5c0.8,0.5,1.3,1.4,1.5,2.3" class="g8_7" />
<path d="M364.9,771.5c-1.8,-1.1,-2.1,-3.7,-0.8,-5.9c1.4,-2.2,3.9,-3.1,5.6,-2.1" class="g6_7" />
<path d="M360.8,768.9c-1.8,-1.1,-2.1,-3.8,-0.8,-6c1.4,-2.2,3.9,-3.1,5.6,-2" class="g6_7" />
<path d="M364.9,771.5l-4.1,-2.6" class="g8_7" />
<path d="M369.7,763.5l-4.1,-2.6" class="g8_7" />
<path d="M376,768.9c-3,-1.8,-7.1,-4.4,-7.1,-4.4" class="g8_7" />
<path d="M372.5,774.9c-2.9,-1.8,-7.1,-4.4,-7.1,-4.4" class="g8_7" />
<path d="M365.4,770.2c-1.2,-0.7,-1.5,-2.6,-0.5,-4.1c0.9,-1.5,2.6,-2.2,3.9,-1.4" class="g6_7" />
<path d="M367,771.4c-1.2,-0.7,-1.4,-2.6,-0.5,-4.1c1,-1.5,2.7,-2.2,3.9,-1.4" class="g6_7" />
<path d="M369,772.3c-1.2,-0.7,-1.4,-2.6,-0.5,-4.1c0.9,-1.5,2.7,-2.2,3.9,-1.4" class="g6_7" />
<path d="M372.8,774.6c-1.2,-0.8,-1.4,-2.6,-0.5,-4.1c0.9,-1.6,2.7,-2.2,3.9,-1.5" class="g6_7" />
<path d="M380.6,773.5l1,-0.5c0,0,0.2,1.4,0.3,1.8c0.2,0.3,0.7,0.5,0.9,0.3c0.3,-0.2,0.9,-0.6,0.9,-0.6l0.3,1.2c0,0,-0.8,0.3,-1.3,0.7c-0.2,0.2,-0.6,0.6,-0.7,1c-0.2,0.6,-0.1,1.3,-0.2,1.3c0,0.2,-1.2,0.5,-1.2,0.5c0,0,0.2,-0.7,0.2,-1.1c0,-0.3,-0.3,-0.8,-0.8,-0.7c-0.5,0.1,-1.4,0.3,-1.4,0.3l-0.2,-1.2l1.2,-0.2c0,0,1.3,-0.6,1.2,-1.5c-0.1,-0.8,-0.2,-1.3,-0.2,-1.3Z" class="g6_7" />
<path d="M370.8,773.3c-1.2,-0.8,-1.4,-2.6,-0.5,-4.1c0.9,-1.6,2.7,-2.2,3.9,-1.5" class="g6_7" />
<path d="M383.8,881.7c2.5,1.6,3,5.4,1.1,8.5c-1.9,3.2,-5.5,4.5,-8,3" class="g8_7" />
<path d="M376.9,893.2c-2.5,-1.5,-3,-5.3,-1.1,-8.5c1.9,-3.2,5.5,-4.5,8,-3" class="g6_7" />
<path d="M384.1,881.9c0,0,1,0.5,-1.5,-1.1c-2.5,-1.5,-6.1,-0.2,-8,3c-1.9,3.1,-1.5,6.9,1.1,8.5c2.5,1.5,1.2,0.9,1.2,0.9" class="g8_7" />
<path d="M369.7,875.4c0.8,0.5,1.3,1.3,1.5,2.3" class="g8_7" />
<path d="M369.7,875.4l-4.1,-2.6" class="g8_7" />
<path d="M376,880.7c-3,-1.7,-7.1,-4.4,-7.1,-4.4" class="g8_7" />
<path d="M372.5,886.8C369.6,885,369,884.6,369,884.6" class="g8_7" />
<path d="M369,884.2c-1.2,-0.8,-1.4,-2.6,-0.5,-4.1c0.9,-1.6,2.7,-2.2,3.9,-1.5" class="g6_7" />
<path d="M372.8,886.5c-1.2,-0.8,-1.4,-2.6,-0.5,-4.2c0.9,-1.5,2.7,-2.1,3.9,-1.4" class="g6_7" />
<path d="M380.6,885.4l1,-0.5c0,0,0.2,1.4,0.3,1.7c0.2,0.4,0.7,0.6,0.9,0.4c0.3,-0.2,0.9,-0.6,0.9,-0.6l0.3,1.2c0,0,-0.8,0.3,-1.3,0.7c-0.2,0.2,-0.6,0.6,-0.7,1c-0.2,0.6,-0.1,1.2,-0.2,1.3c0,0.1,-1.2,0.4,-1.2,0.4c0,0,0.2,-0.7,0.2,-1c0,-0.4,-0.3,-0.8,-0.8,-0.7c-0.5,0.1,-1.4,0.3,-1.4,0.3l-0.2,-1.2l1.2,-0.2c0,0,1.3,-0.6,1.2,-1.5c-0.1,-0.9,-0.2,-1.3,-0.2,-1.3Z" class="g6_7" />
<path d="M370.8,885.1c-1.2,-0.7,-1.4,-2.5,-0.5,-4.1c0.9,-1.5,2.7,-2.1,3.9,-1.4" class="g6_7" />
<path fill-rule="evenodd" d="M358.8,870l-1,4.6l19.9,13c0,0,3.2,1.4,3,0.9c-0.2,-0.6,3.1,-1.5,3.1,-1.5l2.3,-1.1l3.7,-4.2l-5.3,-5.9l-9.7,-3.1Z" class="g7_7" />
<path d="M346.4,778.6c0,0,-0.5,3.5,2.6,5.4c3.2,1.9,29.3,18.4,29.3,18.4c0,0,1.6,0.5,1.5,2.7c-0.1,2.1,0,79.5,0,79.5l-0.4,1.1" class="g8_7" />
<path d="M379.3,888.2c0.9,-0.8,2.1,-1.5,2.3,-3.4c0.2,-1.9,0,-79.5,0,-79.5c0,0,0.2,-2.9,-2.5,-4.7C376.3,798.8,352,783.5,349.3,781.7" class="g6_7" />
<path d="M369.1,881.5l9.2,6.5c0.9,0.6,2.8,-0.2,5.2,-1.1c2.3,-0.8,108.2,-40,108.2,-40" class="g8_7" />
<path d="M378.3,885l-6.6,-4.1" class="g6_7" />
<path d="M726.6,1034.5l-8.2,-7.4c0,0,-3.6,-3.8,0.6,-10.3" class="g8_7" />
<path d="M743.4,1018.5L729,1012.6c0,0,-5.4,-2.7,-10,4.2" class="g8_7" />
<path d="M726.6,1027.8l0.1,10.6c0,0,-0.6,3.7,3,6c3.5,2.3,19.9,12.7,19.9,12.7l6,0.4" class="g8_7" />
<path d="M736.8,1049.4c0.5,3.8,1.1,6.3,1.1,6.3c0,0,0.8,1.5,2.6,2.6c1.9,1.1,17.4,10.9,17.4,10.9c0,0,0.9,0.8,2,0.4c1.2,-0.4,9.1,-3.4,9.1,-3.4" class="g8_7" />
<path d="M726.6,1027.8c0,-0.9,1.2,-3.6,2.3,-4.4" class="g8_7" />
<path d="M728.9,1023.4c2.8,-0.3,9.4,-2.7,11.2,-3.8c1.8,-1.1,3.9,-1.5,7.4,-1.4c3.5,0.2,6.8,1,8.8,1.8c2.1,0.8,2.4,1.1,4.2,2.2c1.8,1,17.5,10.9,17.5,10.9c0,0,1,0.9,1,1.6c-0.1,0.7,0,4.1,0,4.1" class="g8_7" />
<path d="M749,1044.1l-18.8,-12.2" class="g6_7" />
<path d="M769.8,1031.9l-18.3,-11.5" class="g6_7" />
<path d="M749.4,1055.4l0,-9.3c0,0,-0.3,-1.3,1.2,-2.7c1.4,-1.4,7,-6.4,7,-6.4c0,0,1.4,-1,2.3,-1.4c1,-0.3,9.1,-3.3,9.1,-3.3c0,0,1.5,-0.3,2.1,-0.2c0.6,0.2,5.8,0.9,5.8,0.9" class="g6_7" />
<path d="M756.5,1058.3l1.6,9.8" class="g6_7" />
<path d="M757.9,1040.6l13,8.1c0,0,2.5,3.6,0.3,8.2" class="g8_7" />
<path d="M771.2,1056.9l-2.1,0.9l-13.2,-8.2" class="g8_7" />
<path d="M756,1041.3l13,8.2c0,0,2.5,3.6,0.3,8.1" class="g6_7" />
<path d="M755.9,1049.1l0,-7.8l2,-0.7" class="g6_7" />
<path d="M772.6,1035l13,8.2c0,0,2.5,3.5,0.3,8.1" class="g8_7" />
<path d="M785.9,1051.3l-2.1,0.9L770.6,1044" class="g8_7" />
<path d="M770.7,1035.8l13,8.2c0,0,2.6,3.5,0.4,8.1" class="g6_7" />
<path d="M770.6,1043.5l0,-7.7l2,-0.8" class="g6_7" />
<path d="M776.3,1048.2l-3.7,3" class="g8_7" />
<path d="M771.1,1057.5l0,1.6" class="g8_7" />
<path d="M762.2,1061.7l17.6,11c0,0,3.3,1.3,4.6,-1.1c1.3,-2.4,0.3,-3.9,-0.8,-4.7c-1.2,-0.9,-14.4,-8.8,-14.4,-8.8" class="g8_7" />
<path d="M762.2,1061.7c-0.9,-0.6,-0.8,-3.1,0,-4.2c0.8,-1.1,2.6,-2.4,3.8,-1.7" class="g6_7" />
<path d="M765.7,1049.9c0.8,-0.3,1.9,0.3,2.3,1.5c0.5,1.1,0.3,2.3,-0.5,2.6c-0.8,0.4,-1.9,-0.3,-2.3,-1.4c-0.5,-1.2,-0.2,-2.4,0.5,-2.7Z" class="g6_7" />
<path d="M780.6,1044.4c0.8,-0.4,1.8,0.3,2.3,1.4c0.4,1.2,0.2,2.4,-0.6,2.7c-0.8,0.3,-1.8,-0.3,-2.3,-1.5c-0.5,-1.1,-0.2,-2.3,0.6,-2.6Z" class="g6_7" />
<path d="M553.5,705.5l0,8" class="g6_7" />
<path d="M555.4,803.6L585.1,793c1.1,-0.5,1.9,-1.2,1.8,-3.1c0,-2,0,-40.7,0,-40.7" class="g6_7" />
<path d="M635.2,898.9c20.5,1.6,89.3,0.5,116.5,-12.5" class="g8_7" />
<path d="M610.5,910c46.6,9.7,117.3,3.5,152.2,-12" class="g8_7" />
<path d="M557.9,945.7c33.8,19.6,105.1,40.5,159.2,75.9" class="g8_7" />
<path d="M726.4,1011.9C672.3,976.6,579.6,945.9,567.2,936.1c-12.4,-9.9,-18,-16,-18,-16" class="g8_7" />
<path d="M301.2,868.8L301,797.1l45.2,-16.4M535,712.3l18.7,-6.8" class="g8_7" />
<path d="M301.2,868.8l10.9,-3.7" class="g6_7" />
<path d="M301.2,858.7l53.3,32.7c0,0,2.6,1.9,5.2,0.9c2.5,-0.9,2.5,-0.9,2.5,-0.9l5.7,-2.1c0,0,1.3,-0.8,1.1,-1.5c-0.2,-0.8,0,-2.8,0,-2.8c0,0,-0.2,-0.8,-1.3,-1.4c-1,-0.5,-4.3,-2.6,-4.3,-2.6" class="g8_7" />
<path d="M357.8,888.9C357,888.1,357,888.7,357,886.5c0,-2.2,0,-51.6,0,-51.6c0,0,-0.3,-2.9,3,-4.2c3.3,-1.2,7.8,-2.7,7.8,-2.7c0,0,1.3,-0.7,1.3,-1.8c0,-1.2,0,-3,0,-3l-5.8,-3.8c0,0,-0.7,-0.5,-0.6,-0.8" class="g8_7" />
<path d="M366.2,821.3l13.5,-4.8" class="g8_7" />
<path d="M397.7,806.9c0.4,0.4,0.2,0.7,-0.3,1.1c-0.4,0.3,-11.4,3.9,-11.4,3.9c0,0,-2.6,1.3,-2.7,1.8c0,0.6,-0.2,3.6,-0.2,3.6c0,0,2.1,1.7,3,2.2c0.9,0.4,3,0.6,5.1,-0.2c2,-0.8,27.4,-9.9,27.4,-9.9c0,0,1.1,-0.7,1.3,-1.5c0.1,-0.8,0.1,-3,0.1,-3c0,0,-0.8,-1.2,-1.3,-1.4c-0.5,-0.2,-4.3,-2.3,-4.3,-2.3c0,0,-0.5,-0.2,-0.4,-0.5" class="g8_7" />
<path d="M512.8,765.2c0.1,0.4,0,0.9,-0.6,1.1c-0.6,0.3,-11.2,3.9,-11.2,3.9c0,0,-2.1,0.7,-2.5,1.4c-0.3,0.8,-0.5,1.1,-0.4,2.1c0,1,0.1,1.8,0.1,1.8c0,0,0.5,1,1.5,1.4c0.9,0.5,2.1,1.2,2.1,1.2c0,0,1.7,0.4,3.7,-0.3c2.1,-0.7,89.5,-32.5,89.5,-32.5c0,0,1.1,-0.5,1.7,0" class="g8_7" />
<path d="M545.6,708.4L598,741.2c0,0,2.5,1.5,2.6,4.4c0.1,2.9,-0.1,52.5,-0.1,52.5c0,0,-0.2,4.6,-3.7,7.2" class="g8_7" />
<path d="M576.2,813.1l-69.6,25.7" class="g8_7" />
<path d="M512.7,826.4c0.2,0.9,-1.3,1.4,-1.6,1.5c-0.3,0.1,-10.3,3.5,-10.3,3.5c0,0,-2.6,1.1,-2.6,2.3" class="g8_7" />
<path d="M501.7,835.8c0.9,0.2,2.8,0.1,4.1,-0.4c1.3,-0.4,88.7,-32.5,88.7,-32.5c0,0,2.8,-0.7,2.9,-3.5c0.1,-2.9,-0.2,-53.7,-0.2,-53.7" class="g6_7" />
<path d="M599.6,742.7c-1.6,-1.5,-4,-0.8,-6.1,-0.2c-2.1,0.5,-88.8,32.3,-88.8,32.3c0,0,-2.3,0.3,-3,-0.3c-0.8,-0.6,-4.3,-2,-3.2,-2.9" class="g6_7" />
<path d="M379.7,811.7c-0.9,0.1,-16.6,6.1,-16.6,6.1" class="g6_7" />
<path d="M352.8,828.2l-47.9,-29" class="g6_7" />
<path d="M351.2,829.8L303.3,800.9" class="g6_7" />
<path d="M419,805.5c-2.1,0.6,-29.2,11,-29.2,11c0,0,-2.3,0.3,-3,-0.3c-0.8,-0.7,-4.3,-2.1,-3.2,-2.9" class="g6_7" />
<path d="M367.7,824.1l-8.7,3.3c0,0,-5.3,2.7,-5.3,8.6c0,6,0,51.7,0,51.7c0,0,-0.2,4.7,2.9,4.7" class="g6_7" />
<path d="M397.7,868.4c0.4,0.4,0.2,0.7,-0.3,1.1c-0.4,0.4,-11.4,3.9,-11.4,3.9c0,0,-2.6,1.3,-2.7,1.9c0,0.5,-0.2,3.6,-0.2,3.6c0,0,2.1,1.7,3,2.1c0.9,0.4,3,0.6,5.1,-0.2c2,-0.8,27.4,-9.9,27.4,-9.9c0,0,1.1,-0.6,1.3,-1.5c0.1,-0.8,0.1,-3,0.1,-3c0,0,-0.8,-1.2,-1.3,-1.4c-0.5,-0.2,-4.3,-2.2,-4.3,-2.2c0,0,-0.5,-0.3,-0.4,-0.6" class="g8_7" />
<path d="M419,867.1c-2.1,0.5,-29.2,10.9,-29.2,10.9c0,0,-2.3,0.3,-3,-0.3c-0.8,-0.7,-4.3,-2,-3.2,-2.9" class="g6_7" />
<path d="M366.2,882.5l13.2,-4.7" class="g8_7" />
<path d="M379.7,873.5c-7.6,2.9,-15.3,5.8,-15.3,5.8" class="g6_7" />
<path d="M462.5,838.8c-5.2,1.9,-12.9,5.1,-19.9,7m-64.4,23.9c-12.1,4.4,-20.3,7.5,-20.3,7.5" class="g6_7" />
<path d="M462.5,837.2c-5.1,1.8,-11.8,4.3,-19.3,7m-64.6,23.7c-12.3,4.5,-20.7,7.6,-20.7,7.6" class="g6_7" />
<path d="M490.3,829c0,0,3.6,-1.3,11,-4" class="g6_7" />
<path d="M540.2,809.1l-9.4,3.5m-26,9.2l-15.9,5.9" class="g6_7" />
<path d="M540.2,809.1l0,-26.9c0,0,0.9,-12.9,11,-12.5" class="g8_7" />
<path d="M551.2,769.7c1.9,0.3,4.2,2,4.2,5.5c0,3.6,0,26.6,0,26.6" class="g6_7" />
<path d="M551.7,769.9c1,0.9,1.8,2.3,1.8,4.4c0,3.6,0,26.6,0,26.6" class="g8_7" />
<path d="M553.5,800.9l1.9,0.9l0,1.8" class="g8_7" />
<path d="M541.3,807.3l13.2,-5.1Z" class="g6_7" />
<path d="M541.3,808.8l0,-1.5" class="g6_7" />
<path d="M530.2,782.6c1.1,-0.5,2.4,-0.5,3.3,0.1c1.8,1.1,2,3.8,0.6,6.2c-1.1,1.7,-2.7,2.7,-4.3,2.7" class="g6_7" />
<path d="M532,785.2c0.7,0.4,0.8,1.6,0.2,2.5c-0.6,0.9,-1.7,1.3,-2.4,0.9c-0.7,-0.4,-0.8,-1.6,-0.2,-2.5c0.6,-0.9,1.6,-1.3,2.4,-0.9Z" class="g6_7" />
<path d="M463,838.7l0,-11.6c0,-1.3,1.5,-7.7,5.8,-9.8c4.3,-2.1,6,-1.6,7.3,-1.2c1.2,0.4,2,1,3.2,2c1.2,0.9,2.5,2.9,2.5,5.2" class="g8_7" />
<path d="M465.3,838.8l-0.1,-10.2c0,-1.5,1.1,-7.4,5.9,-9.8c4.7,-2.5,5.9,-1.6,7.2,-1.2" class="g6_7" />
<path d="M468,837.8l-0.1,-8.1c0,-1.7,1.7,-6.7,5,-8.8c3.3,-2.1,5.5,-1.2,6.1,-0.8c0.6,0.3,2,2.1,2.1,2.6" class="g6_7" />
<path d="M463,838.7l1.6,1.1" class="g6_7" />
<path d="M470.3,833.1c-2.7,-1.6,-1.2,-6.9,0.4,-9.1c1.6,-2.2,5.5,-4.2,7.7,-2.8" class="g6_7" />
<path d="M470.3,833.1l89.5,57.4" class="g8_7" />
<path d="M478.7,821.6L568.3,879" class="g8_7" />
<path d="M568.3,879c6.5,3.6,41.5,19,66.9,19.9" class="g8_7" />
<path d="M559.7,890.5c5.1,3.2,28.9,14.4,50.8,19.5" class="g8_7" />
<path d="M563.4,875.9c19.4,-13.6,51,-28.4,107,-28.4c55.9,0,85,16.9,98.5,27.7" class="g8_7" />
<path d="M563.4,857c19.4,-13.6,51,-28.4,107,-28.4c55.9,0,85,16.9,98.5,27.8" class="g8_7" />
<path d="M563.4,837.5c19.4,-13.6,51,-28.4,107,-28.4c55.9,0,85,16.9,98.5,27.8" class="g8_7" />
<path d="M547,865.4c0.2,-6.5,4.8,-20.3,16.4,-27.9" class="g8_7" />
<path d="M768.9,836.9c10,9.3,15.9,21.2,3.6,35.5" class="g8_7" />
<path d="M751.7,886.4c7.6,-3.7,17.6,-9.7,20.8,-14" class="g8_7" />
<path d="M776.9,866.1c-1.6,-3,-3.8,-6.6,-8,-9.7" class="g8_7" />
<path d="M552.5,868.9c3.3,-5.4,8.4,-10.2,10.9,-11.9" class="g8_7" />
<path d="M533.3,856.6c2,-8.8,9.3,-21.2,19.3,-28.7c9.9,-7.6,42.5,-33.3,117.1,-33.3c74.6,0,124.5,30.7,124.5,61.2" class="g8_7" />
<path d="M772.6,891.8c10.6,-7.7,21.8,-19.7,21.6,-36" class="g8_7" />
<path d="M555.2,905.7c-11.3,-8.4,-19.4,-18.6,-22.3,-32.5" class="g8_7" />
<path d="M555.2,845.1C568,836,600.5,813.7,669.7,813.7c46.2,0,83,11.8,104.2,28.1" class="g8_7" />
<path d="M560,860c15.3,-10.4,48.1,-27.7,109.5,-27.6c44,0,79.4,10.7,101.1,25.7" class="g8_7" />
<path d="M775.8,908.2c9.5,-7.7,18.6,-18.9,18.4,-33.4" class="g8_7" />
<path d="M794.2,874.8c0,-3.5,-0.6,-7.2,-1.5,-8.7" class="g8_7" />
<path d="M794.2,893.6c0,-3.4,-0.6,-7.2,-1.5,-8.6" class="g8_7" />
<path d="M557.9,945.7c-12.5,-8.6,-21.9,-19.3,-25,-34.1" class="g8_7" />
<path d="M533.5,876.2c-1.6,4.3,-2.1,11.2,-0.6,16.4" class="g8_7" />
<path d="M533.5,895.3c-1.6,4.3,-2.1,11.1,-0.6,16.4" class="g8_7" />
<path d="M530.2,814.3c1.4,-0.5,54.9,-20,54.9,-20c0,0,2.7,-0.7,2.8,-3.5c0.1,-2.9,-0.1,-42.9,-0.1,-42.9" class="g6_7" />
<path d="M558.8,908.2c17.4,15.3,55.6,33.5,111.6,33.5c55.9,0,87.9,-19.8,101.5,-30.6" class="g8_7" />
<path d="M532.9,892.6c1.9,8.8,9.7,22.8,19.7,30.3c9.9,7.6,42.5,33.3,117.1,33.3c74.6,0,124.5,-32,124.5,-62.6" class="g8_7" />
<path d="M555.2,905.7C568,914.8,600.5,937,669.7,937c46.2,0.1,84.9,-12.5,106.1,-28.8" class="g8_7" />
<path d="M560,890.7c15.3,10.5,48.1,27.8,109.5,27.7c44,0,80.9,-11.2,102.5,-26.2" class="g8_7" />
<path d="M103.5,669.5l727,0" class="g4_7" />
<path fill-rule="evenodd" d="M106,681l37,0l0,37l-37,0Z" class="g10_7" />
<path fill-rule="evenodd" d="M103.5,679.5l38,0l0,37l-38,0Z" class="g11_7" />
<path d="M351.1,390l81.7,-29.6" class="g8_7" />
<path fill-rule="evenodd" d="M501.5,589.1l19.3,-6.8l0.1,-6.5L449.7,537.4l15.5,-5.8l18,10.9l15.9,-29.8l0,-6.2l-64,0.6l0,6.3l16.1,9.7l-34.8,6.8l0,6.3Z" class="g12_7" />
<path fill-rule="evenodd" d="M501.5,582.9l19.4,-7.1L449.7,530.9l15.5,-5.6l18,10.9l15.9,-29.7l-64,0.6l16.1,9.8l-34.8,13Z" class="g13_7" />
<path d="M501.5,589.1L416.4,536.2l0,-6.3l28.3,-10.6l-9.6,-5.9l0,-6.3l64,-0.6l0,6.2l-15.9,29.8l-18,-10.9l-9,3.3l64.7,40.9l-0.1,6.5Z" class="g8_7" />
<path d="M444.7,519.3l6.5,-2.4" class="g8_7" />
<path d="M456.2,534.9l-6.5,-4" class="g8_7" />
<path d="M435.1,507.1l16.1,9.8" class="g6_7" />
<path d="M449.9,531.1l15.3,-5.8l18,10.9l15.9,-29.7" class="g6_7" />
<path d="M416.4,529.9l85.1,53l19.4,-7.1" class="g6_7" />
<path d="M501.5,582.5l0,7" class="g6_7" />
<path d="M483.5,536.5l0,6" class="g6_7" />
<path d="M465.5,525.5l0,6" class="g6_7" />
<path d="M404.5,171.5l126,0" class="g6_7" />
<image x="102" y="102" width="114" height="39" xlink:href="img/1.png" />
</svg>