<?xml version="1.0" encoding="UTF-8" standalone="no"?>
<!DOCTYPE svg PUBLIC "-//W3C//DTD SVG 1.1//EN"
"http://www.w3.org/Graphics/SVG/1.1/DTD/svg11.dtd">
<svg version="1.1" xmlns="http://www.w3.org/2000/svg" xmlns:xlink="http://www.w3.org/1999/xlink">
<defs>
<style type="text/css"><![CDATA[
.g12_2{
fill: #636363;
}
.g20_2{
fill: none;
stroke: #000000;
stroke-width: 4;
stroke-linecap: round;
stroke-linejoin: round;
stroke-miterlimit: 2;
}
.g2_2{
fill: none;
stroke: #FFFFFF;
stroke-width: 3;
stroke-linecap: round;
stroke-linejoin: miter;
stroke-miterlimit: 2;
}
.g16_2{
fill: none;
stroke: #000000;
stroke-width: 3;
stroke-linecap: round;
stroke-linejoin: round;
stroke-miterlimit: 2;
}
.g17_2{
fill: none;
stroke: #000000;
stroke-width: 2;
stroke-linecap: round;
stroke-linejoin: round;
stroke-miterlimit: 2;
stroke-dasharray: 3,5;
}
.g3_2{
fill: #FFFFFF;
stroke: #000000;
stroke-width: 2;
stroke-linecap: butt;
stroke-linejoin: miter;
stroke-miterlimit: 2;
}
.g13_2{
fill: #D4D4D4;
}
.g1_2{
fill: #B3B3B3;
}
.g7_2{
fill: #636363;
stroke: #000000;
stroke-width: 1;
stroke-linecap: butt;
stroke-linejoin: miter;
stroke-miterlimit: 2;
}
.g11_2{
fill: none;
stroke: #000000;
stroke-width: 2;
stroke-linecap: round;
stroke-linejoin: round;
stroke-miterlimit: 2;
}
.g21_2{
fill: none;
stroke: #FFFFFF;
stroke-width: 2;
stroke-linecap: round;
stroke-linejoin: round;
stroke-miterlimit: 2;
}
.g5_2{
fill: none;
stroke: #000000;
stroke-width: 2;
stroke-linecap: butt;
stroke-linejoin: miter;
stroke-miterlimit: 2;
}
.g22_2{
fill: none;
stroke: #808080;
stroke-width: 2;
stroke-linecap: round;
stroke-linejoin: round;
stroke-miterlimit: 2;
}
.g10_2{
fill: #E6E6E6;
stroke: #000000;
stroke-width: 1;
stroke-linecap: round;
stroke-linejoin: round;
stroke-miterlimit: 2;
}
.g19_2{
stroke: #000000;
stroke-width: 2;
stroke-linecap: round;
stroke-linejoin: round;
stroke-miterlimit: 2;
}
.g4_2{
fill: none;
stroke: #000000;
stroke-width: 1;
stroke-linecap: butt;
stroke-linejoin: miter;
stroke-miterlimit: 2;
}
.g9_2{
fill: #636363;
stroke: #000000;
stroke-width: 2;
stroke-linecap: round;
stroke-linejoin: round;
stroke-miterlimit: 2;
}
.g14_2{
fill: #FFFFFF;
}
.g18_2{
fill: none;
stroke: #000000;
stroke-width: 2;
stroke-linecap: round;
stroke-linejoin: round;
stroke-miterlimit: 2;
stroke-dasharray: 4,5;
}
.g6_2{
}
.g15_2{
fill: #FFFFFF;
stroke: #000000;
stroke-width: 3;
stroke-linecap: round;
stroke-linejoin: round;
stroke-miterlimit: 2;
}
.g8_2{
fill: none;
stroke: #000000;
stroke-width: 1;
stroke-linecap: round;
stroke-linejoin: round;
stroke-miterlimit: 2;
}
]]></style>
</defs>
<path fill-rule="evenodd" d="M55,54l824,0l0,1101l-824,0Z" class="g1_2" />
<path d="M55.5,256.5l27,0" class="g2_2" />
<path d="M55.5,430.5l27,0" class="g2_2" />
<path d="M55.5,605.5l27,0" class="g2_2" />
<path d="M55.5,779.5l27,0" class="g2_2" />
<path d="M55.5,953.5l27,0" class="g2_2" />
<path d="M852.5,256.5l28,0" class="g2_2" />
<path d="M852.5,449.5l28,0" class="g2_2" />
<path d="M852.5,605.5l28,0" class="g2_2" />
<path d="M852.5,779.5l28,0" class="g2_2" />
<path d="M852.5,953.5l28,0" class="g2_2" />
<path d="M236.5,82.5l0,-27" class="g2_2" />
<path d="M390.5,82.5l0,-27" class="g2_2" />
<path d="M544.5,82.5l0,-27" class="g2_2" />
<path d="M698.5,82.5l0,-27" class="g2_2" />
<path d="M236.5,1155.5l0,-28" class="g2_2" />
<path d="M390.5,1155.5l0,-28" class="g2_2" />
<path d="M544.5,1155.5l0,-28" class="g2_2" />
<path d="M698.5,1155.5l0,-28" class="g2_2" />
<path fill-rule="evenodd" d="M82,82l770,0l0,1045l-770,0Z" class="g3_2" />
<path d="M184.5,209.5l646,0" class="g4_2" />
<path d="M103.5,278.5l727,0" class="g4_2" />
<path d="M82,1097l770,0" class="g5_2" />
<path d="M466.5,1099.5l0,28" class="g4_2" />
<path d="M468.5,1099.5l0,28" class="g4_2" />
<path d="M272.5,1099.5l0,28" class="g4_2" />
<path d="M274.5,1099.5l0,28" class="g4_2" />
<path d="M664.5,1099.5l0,28" class="g4_2" />
<path d="M666.5,1099.5l0,28" class="g4_2" />
<path fill-rule="evenodd" d="M106,289l37,0l0,38l-37,0Z" class="g6_2" />
<path fill-rule="evenodd" d="M103.5,287.5l38,0l0,37l-38,0Z" class="g7_2" />
<path fill-rule="evenodd" d="M106,559l37,0l0,38l-37,0Z" class="g6_2" />
<path fill-rule="evenodd" d="M103.5,557.5l38,0l0,38l-38,0Z" class="g7_2" />
<path d="M310.3,457.3l-7.6,-2c0,0,-0.8,-0.1,-1.4,0.1c-0.6,0.2,-1,0.3,-1.4,0.5c-0.3,0.1,-0.5,0.6,-0.5,1c0,0.4,-0.1,5.1,-0.1,5.1c0,0,0.7,3.6,3.7,4.5c2.9,0.9,40.7,10.7,40.7,10.7c0,0,1,0.1,2.1,-0.2c1.1,-0.2,3.7,-1,3.7,-3.9c-0.1,-2.9,-0.1,-4.6,-0.1,-4.6c0,0,0.1,-1.1,-1.2,-1.4c-1.3,-0.4,-8.8,-2.2,-8.8,-2.2c0,0,-1,-0.3,-1,-1.4c0,-1,0,-2.1,0,-2.1" class="g8_2" />
<path d="M336.6,461.1c0.2,-0.1,0.6,0,0.8,0c0.1,0,8.7,2.3,8.7,2.3c0,0,1.1,0.1,1.6,-0.1c0.6,-0.2,1.7,-0.5,1.7,-1.8c0.1,-1.4,0.1,-51.3,0.1,-51.3" class="g8_2" />
<path d="M336.8,415l0,34.7c0,0,-0.3,3.6,-2.9,3.2" class="g8_2" />
<path d="M335.5,452.3L316,447.2c0,0,-4.1,-0.9,-4.1,-5.7c0,-4.8,0,-11.1,0,-11.1" class="g8_2" />
<path d="M306.1,415.3c0,0,0,0.3,-0.9,0.5c-1,0.3,-16.7,4.3,-16.7,4.3c0,0,-0.9,0.5,-0.9,1.4c0,1,0,2.2,0,2.2c0,0,0.1,0.7,1.1,1c1.1,0.2,20.4,5.3,20.4,5.3c0,0,4,0.9,7.7,-0.3c3.7,-1.1,15.4,-4,15.4,-4c0,0,3.6,-1.4,4.6,-3.7" class="g8_2" />
<path d="M287.9,420.7c0,0,-0.2,0.7,0.8,1c1.1,0.3,20.4,5.4,20.4,5.4c0,0,4,0.8,7.7,-0.3c3.7,-1.1,15.4,-4,15.4,-4c0,0,3.6,-1.3,4.6,-4.9" class="g8_2" />
<path d="M333.9,453l-20.1,-5.1c0,0,-4.1,-1,-4.1,-5.7c0,-4.8,0,-12.1,0,-12.1" class="g8_2" />
<path d="M345.5,477.1c0.9,-0.6,1.8,-1.5,1.8,-3.2c-0.1,-3,-0.1,-4.6,-0.1,-4.6c0,0,0.1,-1.1,-1.2,-1.5c-1.3,-0.3,-8.8,-2.2,-8.8,-2.2c0,0,-1,-0.2,-1,-1.3c0,-1.1,0,-1.8,0,-2.2c0,-0.4,0.2,-0.9,0.2,-0.9" class="g8_2" />
<path d="M300.1,456.3c0.6,-0.2,1.1,0,1.1,0l6.9,1.8c0.7,0.2,1.6,0.3,1.9,0.2" class="g8_2" />
<path d="M346.6,463.2c0.3,-0.3,0.6,-0.7,0.6,-1.3c0.1,-1.4,0.1,-51.3,0.1,-51.3" class="g8_2" />
<path d="M310,458.3c0.3,-0.2,0.3,-0.5,0.4,-0.8c0,-0.3,0,-2.4,0,-2.4c0,0,0,-1,-1.3,-1.4c-1.2,-0.4,-8.2,-2.1,-8.2,-2.1c0,0,-1.5,-0.1,-1.5,-1.7c-0.1,-1.6,-0.1,-22,-0.1,-22" class="g8_2" />
<path d="M299.3,417.4l0,-3.8" class="g8_2" />
<path d="M220.8,391.5c0,0.8,0.2,1.8,2.3,2.5c2.1,0.7,86.7,22.3,89.2,23c2.6,0.6,7.5,0.6,11.1,-0.2c3.6,-0.8,43.8,-11.3,43.8,-11.3c0,0,1.2,-0.5,1.3,-1.5c0.1,-0.9,0,-36.9,0,-36.9c0,0,0.2,-2.6,-1.9,-3.4" class="g8_2" />
<path d="M368.9,373.1c1.8,0.4,2.8,0.5,3.7,0.2c0.9,-0.3,2.7,-0.6,3.2,-3.2c0.4,-2.6,-0.1,-4.7,-0.1,-4.7c0,0,-0.2,-4.2,-5.1,-5.6c-4.8,-1.3,-99.1,-25.2,-99.1,-25.2c0,0,-2.1,-0.2,-3.4,0.1c-1.3,0.3,-45.8,11.8,-45.8,11.8c0,0,-1.7,0.4,-1.7,1.3c0,0.9,0.2,43.7,0.2,43.7" class="g8_2" />
<path d="M223.1,394L223,353l89.2,22.7l0.1,41.3" class="g8_2" />
<path d="M220.6,347.8c0,0.4,0.7,0.9,1.6,1.2c0.8,0.3,89.7,22.8,90.8,23.1c1.2,0.3,7.1,0.8,10.8,-0.2c3.8,-1,44.6,-11.6,44.6,-11.6c0,0,2.6,-0.6,4.5,0.5" class="g8_2" />
<path d="M220.6,350.8c0,0.4,0.7,0.9,1.6,1.2c0.8,0.4,89.9,22.9,90.8,23.1c0.9,0.3,7.1,0.8,10.8,-0.2c3.8,-1,43.3,-11.2,43.3,-11.2" class="g8_2" />
<path d="M370.9,373.5c0.7,0,2,-0.6,2.4,-2c0.4,-1.4,0.5,-3.7,0.4,-4.4c-0.1,-0.8,-0.3,-2.5,-1.8,-3.4" class="g8_2" />
<path d="M371.9,363.7c-1.2,-0.5,-1.8,-0.8,-5.2,0" class="g8_2" />
<path d="M316.5,413.5l0,-37" class="g8_2" />
<path d="M317.5,415.5l0,-37" class="g8_2" />
<path d="M316.5,374.5l0,-2" class="g8_2" />
<path d="M317.5,375.5l0,-2" class="g8_2" />
<path d="M285.1,382c0.3,-0.1,0.6,-0.1,1,0c0.4,0.1,7.3,1.9,7.3,1.9c0,0,1.1,0.6,1.1,1.8c0,1.2,0,4.3,0,4.3c0,0,-0.2,0.6,-0.5,0.6" class="g8_2" />
<path d="M288.5,382.7c0,-0.1,-0.8,0.9,-0.8,0.9l0,1.4l6.7,1.9" class="g8_2" />
<path d="M285.1,382c-0.6,0.6,-0.5,1,-0.5,1.4c-0.1,0.5,0,4,0,4c0,0,0.2,1.1,1.3,1.4c1.2,0.3,7.4,2,7.4,2c0,0,0.4,0.1,0.7,-0.2" class="g8_2" />
<path d="M286.5,381.9c-0.6,0.5,-0.5,0.9,-0.5,1.3c0,0.4,0.1,3.7,0.1,3.7c0,0,0.1,0.9,1.2,1.3c1,0.3,6.8,1.8,6.8,1.8c0,0,0.4,0.1,0.7,-0.1" class="g8_2" />
<path d="M286.9,387.3l3.3,-0.9" class="g8_2" />
<path d="M288.9,383.6l4.5,1.1" class="g8_2" />
<path d="M285.1,390.6c0.3,-0.2,0.6,-0.2,1,0c0.4,0.1,7.3,1.9,7.3,1.9c0,0,1.1,0.6,1.1,1.8c0,1.1,0,4.3,0,4.3c0,0,-0.2,0.6,-0.5,0.6" class="g8_2" />
<path d="M288.5,391.3c0,-0.1,-0.8,0.9,-0.8,0.9l0,1.4l6.7,1.9" class="g8_2" />
<path d="M285.1,390.6c-0.6,0.6,-0.5,1,-0.5,1.4c-0.1,0.5,0,4,0,4c0,0,0.2,1,1.3,1.4c1.2,0.3,7.4,2,7.4,2c0,0,0.4,0.1,0.7,-0.2" class="g8_2" />
<path d="M286.5,390.5c-0.6,0.5,-0.5,0.9,-0.5,1.3c0,0.4,0.1,3.7,0.1,3.7c0,0,0.1,0.9,1.2,1.2c1,0.4,6.8,1.9,6.8,1.9c0,0,0.4,0.1,0.7,-0.1" class="g8_2" />
<path d="M286.9,395.9l3.3,-0.9" class="g8_2" />
<path d="M288.9,392.2l4.5,1.1" class="g8_2" />
<path d="M261.1,374.7l7.6,2l0,3.9" class="g8_2" />
<path d="M261.1,374.7l0,4l7.6,1.9l0,-1.3l-6.1,-1.6l0,-2.6" class="g8_2" />
<path d="M262.6,377.7l4.5,-1.5" class="g8_2" />
<path d="M261.1,387.1l7.6,2.1l0,3.9" class="g8_2" />
<path d="M261.1,387.1l0,4.1l7.6,1.9l0,-1.3l-6.1,-1.6l0,-2.6" class="g8_2" />
<path d="M262.6,390.2l4.5,-1.5" class="g8_2" />
<path d="M253.6,377.5l0,7.2l2.6,0.8c0,0,1,0.4,1.7,-0.1" class="g8_2" />
<path d="M253.6,377.5c2,0.3,4.1,1,4.9,3c0.8,1.9,0.2,3.3,-0.7,4.6" class="g8_2" />
<path d="M255.1,378l0,5.6l2.6,0.9" class="g8_2" />
<path d="M255.2,383.5l3.7,-1.3" class="g8_2" />
<path d="M239.2,369.1l7.6,2l0,3.9" class="g8_2" />
<path d="M239.2,369.1l0,4l7.6,1.9l0,-1.3l-6.1,-1.5l0,-2.7" class="g8_2" />
<path d="M240.7,372.2l4.5,-1.5" class="g8_2" />
<path d="M239.2,381.6l7.6,2l0,3.9" class="g8_2" />
<path d="M239.2,381.6l0,4l7.6,1.9l0,-1.3l-6.1,-1.5l0,-2.7" class="g8_2" />
<path d="M240.7,384.7l4.5,-1.6" class="g8_2" />
<path d="M231.7,371.9l0,7.2l2.6,0.9c0,0,1,0.3,1.7,-0.2" class="g8_2" />
<path d="M231.7,371.9c2,0.4,4.1,1,4.9,3c0.8,2,0.2,3.3,-0.7,4.6" class="g8_2" />
<path d="M233.2,372.5l0,5.5l2.6,0.9" class="g8_2" />
<path d="M233.3,377.9l3.7,-1.2" class="g8_2" />
<path d="M103.5,548.5l727,0" class="g4_2" />
<path fill-rule="evenodd" d="M291.8,484l2.5,-1.5l12.4,3.3l0,-8.2l2.5,-1.5l32.3,8.6l0,10.7l14.3,3.8l-2.5,1.5l-30,14.3Z" class="g9_2" />
<path fill-rule="evenodd" d="M306.7,477.6l32.3,8.7l0,10.6l14.4,3.8L323.3,515L291.8,484l15,4Z" class="g10_2" />
<path d="M291.8,484l2.5,-1.5l12.4,3.3l0,-8.2l2.5,-1.5l32.3,8.6l0,10.7l14.3,3.8l-2.5,1.5l-30,14.3Z" class="g11_2" />
<path d="M306.8,488l-0.1,-2.2" class="g11_2" />
<path d="M339,486.3l2.5,-1.6" class="g8_2" />
<path d="M339,497l2.5,-1.6" class="g8_2" />
<path d="M274.5,1099.5l192,0" class="g8_2" />
<path d="M468.5,1099.5l196,0" class="g8_2" />
<path d="M666.5,1099.5l186,0" class="g8_2" />
<path d="M272.5,1099.5l-190,0" class="g8_2" />
<path d="M483.1,460.1L596.6,437.3" class="g11_2" />
<path d="M706.8,415.2L829.9,390.6" class="g11_2" />
<path d="M710.8,415.2l0.1,3.5c0,0,0.2,1.9,0.3,2.4" class="g11_2" />
<path d="M727.4,440c-1.1,0,-0.7,-0.1,-1.4,-0.9c-0.8,-0.7,-34.5,-42.3,-34.5,-42.3c0,0,-4.8,-5.1,-10.1,-4c-5.4,1.1,-81.1,16.4,-81.1,16.4c0,0,-1.4,0.3,-2.1,1.2c-0.6,1,-2.8,4,-3.3,4.6c-0.4,0.7,-0.4,2.1,0.6,3.4c1,1.4,7.9,9.7,7.9,9.7" class="g11_2" />
<path d="M597.1,413.8l82.2,-16.7c0,0,4.3,-1.2,8,3.1c3.6,4.3,36,44.1,36,44.1c0,0,2.5,2.6,4.6,2.3" class="g8_2" />
<path d="M721.7,433l11.6,-2.3c0,0,0.7,-0.3,1.3,0.5c0.6,0.7,3.3,3.9,3.3,3.9c0,0,0.4,0.7,-0.1,1.4c-0.5,0.7,-5.7,8,-5.7,8c0,0,-0.3,1.2,-5.4,2.3c-5.1,1.1,-17,3.4,-17,3.4c0,0,-3.6,1.1,-6.4,-2.3c-2.8,-3.5,-9,-11.1,-9,-11.1c0,0,-1.1,-1.6,-3.5,-1.1c-2.3,0.5,-6.6,1.3,-6.6,1.3" class="g11_2" />
<path d="M690.1,436.6c0.8,2.5,1.4,6.1,-1.3,10C686,450.4,677.7,462,677.7,462" class="g11_2" />
<path d="M677.2,465.4l6.9,8.5c0,0,0.7,1,0.1,1.9c-0.5,0.9,-2.8,3.9,-2.8,3.9c0,0,-0.1,0.4,-1.1,0.6c-1.1,0.3,-31.2,6.2,-31.2,6.2c0,0,-1.7,0.5,-3.1,-1c-1,-1.1,-4.2,-5.1,-5.9,-7.2" class="g11_2" />
<path d="M707,450.8c0,1.1,-0.6,2,-2.1,2.3c-1.4,0.3,-17.2,3.4,-17.2,3.4c0,0,-1.7,0.4,-1.7,2.2c0.1,1.7,0,6.5,0.1,10.4c0.1,3.9,3.4,7.4,6,7.8c2.6,0.4,4,0.7,4,0.7c0,0,0.7,0.1,2,-0.2c1.2,-0.2,77.9,-15.2,77.9,-15.2c0,0,7,-2.3,7.1,-10.7c0,-8.4,0,-10.5,0,-10.5c0,0,-0.2,-1.2,-1.4,-1.5c-1.2,-0.3,-4.5,-0.6,-4.5,-0.6l-18.4,3.6" class="g11_2" />
<path d="M727.4,440c0.7,-0.1,0.7,-0.2,1.1,-0.6c0.4,-0.4,5.2,-7.1,5.4,-7.4c0.2,-0.2,0.7,-1.1,0.3,-1.2" class="g8_2" />
<path d="M693.7,476.6c2.1,-0.3,3.5,-0.7,3.5,-0.7l73.4,-14.4c3.2,-0.6,7.5,-3.8,7.5,-11.7c0,-8,0,-9.1,0,-9.1c0,0,-0.2,-1.9,-1.5,-1.7" class="g8_2" />
<path d="M761.8,441.3l0,-1.2" class="g11_2" />
<path d="M762,435c0,-0.7,0.7,-1.2,1.5,-1.4c0.9,-0.2,18.2,-3.7,18.2,-3.7c0,0,1.4,-0.3,1.4,-2.2c0.1,-2,0.1,-26.7,0,-27.2" class="g11_2" />
<path d="M759.4,432.9c3.6,-0.8,17.3,-3.5,17.3,-3.5c0,0,1.4,-0.4,1.4,-2.3c0.1,-1.9,0.1,-25.6,0,-26.1" class="g8_2" />
<path d="M758,405.5c0.1,3.1,-0.5,6.5,-1.5,8.6c-1,2.1,-2.7,4.7,-6.2,5.2c-3.5,0.6,-34.5,6.7,-34.5,6.7" class="g11_2" />
<path d="M674.6,470.7l6.2,7.5c0,0,1.3,1.6,0,2.1" class="g8_2" />
<path d="M688.8,447.2l2.9,0.4c0,0,0.6,0.1,1.5,-0.2c0.9,-0.3,8.3,-1.7,8.3,-1.7" class="g11_2" />
<path d="M688.6,446.7c0.3,0,0.7,0,1.2,-0.1c0.9,-0.3,10.6,-2.3,10.6,-2.3" class="g8_2" />
<path d="M684.5,437.4l1,1.2c0,0,0.9,1.3,0.1,2.5c-0.8,1.1,-10.3,14.3,-10.3,14.3" class="g8_2" />
<path d="M612.3,439.1l9.5,11.5" class="g11_2" />
<path d="M677.8,406.8l-20.5,28.6" class="g11_2" />
<path d="M688.6,415.1l-20.3,28.4" class="g11_2" />
<path d="M677.8,406.8c1.2,-1.5,5.2,-1.3,8.1,1.2c2.8,2.4,4.3,4.9,2.7,7.1" class="g8_2" />
<path d="M676.6,408.6c1.1,-1.5,5.1,-1.4,8,1.1c2.8,2.5,4.4,5,2.8,7.2" class="g8_2" />
<path d="M675.3,410.3c1.1,-1.5,5.2,-1.3,8,1.2c2.9,2.5,4.4,4.9,2.8,7.1" class="g8_2" />
<path d="M674,412.1c1.2,-1.5,5.2,-1.3,8.1,1.2c2.8,2.4,4.3,4.9,2.7,7.1" class="g8_2" />
<path d="M672.8,413.9c1.1,-1.5,5.1,-1.4,8,1.1c2.8,2.5,4.4,5,2.8,7.2" class="g8_2" />
<path d="M671.5,415.6c1.1,-1.5,5.2,-1.3,8,1.2c2.9,2.5,4.4,4.9,2.8,7.1" class="g8_2" />
<path d="M670.2,417.4c1.2,-1.5,5.2,-1.3,8.1,1.2c2.8,2.4,4.3,4.9,2.7,7.1" class="g8_2" />
<path d="M669,419.2c1.1,-1.5,5.1,-1.4,8,1.1c2.8,2.5,4.4,5,2.8,7.2" class="g8_2" />
<path d="M667.7,420.9c1.1,-1.5,5.2,-1.3,8,1.2c2.9,2.5,4.4,4.9,2.8,7.1" class="g8_2" />
<path d="M666.4,422.7c1.2,-1.5,5.2,-1.3,8.1,1.2c2.8,2.4,4.3,4.9,2.8,7.1" class="g8_2" />
<path d="M665.2,424.5c1.1,-1.5,5.1,-1.4,8,1.1c2.8,2.5,4.4,5,2.8,7.2" class="g8_2" />
<path d="M663.9,426.2c1.1,-1.5,5.2,-1.3,8,1.2c2.9,2.5,4.4,4.9,2.8,7.1" class="g8_2" />
<path d="M662.6,428c1.2,-1.5,5.2,-1.3,8.1,1.2c2.8,2.5,4.3,4.9,2.8,7.1" class="g8_2" />
<path d="M661.4,429.8c1.1,-1.5,5.1,-1.4,8,1.1c2.8,2.5,4.4,5,2.8,7.2" class="g8_2" />
<path d="M660.1,431.6c1.1,-1.6,5.2,-1.4,8,1.1c2.9,2.5,4.4,4.9,2.8,7.1" class="g8_2" />
<path d="M658.8,433.3c1.2,-1.5,5.2,-1.3,8.1,1.2c2.8,2.5,4.3,4.9,2.8,7.1" class="g8_2" />
<path d="M657.6,435.1c1.1,-1.5,5.1,-1.4,8,1.1c2.8,2.5,4.4,5,2.8,7.2" class="g8_2" />
<path d="M658.2,435.9c1.8,-0.2,4.2,0.4,6.1,2.1c1.9,1.6,3.1,3.1,3.4,4.7" class="g8_2" />
<path d="M608.6,420.5l-19.9,27.8" class="g11_2" />
<path d="M619.4,428.8l-19.9,27.6" class="g11_2" />
<path d="M608.6,420.5c1.1,-1.5,5.2,-1.3,8,1.2c2.9,2.5,4.4,4.9,2.8,7.1" class="g8_2" />
<path d="M607.3,422.3c1.2,-1.5,5.2,-1.3,8,1.2c2.9,2.5,4.4,4.9,2.8,7.1" class="g8_2" />
<path d="M606,424.1c1.2,-1.5,5.2,-1.4,8.1,1.1c2.8,2.5,4.4,5,2.8,7.2" class="g8_2" />
<path d="M604.8,425.8c1.1,-1.5,5.2,-1.3,8,1.2c2.9,2.5,4.4,4.9,2.8,7.1" class="g8_2" />
<path d="M603.5,427.6c1.2,-1.5,5.2,-1.3,8.1,1.2c2.8,2.5,4.3,4.9,2.7,7.1" class="g8_2" />
<path d="M602.2,429.4c1.2,-1.5,5.2,-1.4,8.1,1.1c2.8,2.5,4.4,5,2.8,7.2" class="g8_2" />
<path d="M601,431.2c1.1,-1.6,5.2,-1.4,8,1.1c2.9,2.5,4.4,4.9,2.8,7.1" class="g8_2" />
<path d="M599.7,432.9c1.2,-1.5,5.2,-1.3,8.1,1.2c2.8,2.5,4.3,4.9,2.7,7.1" class="g8_2" />
<path d="M598.4,434.7c1.2,-1.5,5.2,-1.4,8.1,1.1c2.8,2.5,4.4,5,2.8,7.2" class="g8_2" />
<path d="M597.2,436.5c1.1,-1.6,5.2,-1.4,8,1.1c2.9,2.5,4.4,4.9,2.8,7.1" class="g8_2" />
<path d="M595.9,438.2c1.2,-1.5,5.2,-1.3,8.1,1.2c2.8,2.5,4.3,4.9,2.7,7.1" class="g8_2" />
<path d="M594.6,440c1.2,-1.5,5.2,-1.4,8.1,1.1c2.8,2.5,4.4,5,2.8,7.2" class="g8_2" />
<path d="M593.4,441.8c1.1,-1.5,5.2,-1.4,8,1.1c2.9,2.5,4.4,4.9,2.8,7.1" class="g8_2" />
<path d="M592.1,443.5c1.2,-1.5,5.2,-1.3,8.1,1.2c2.8,2.5,4.3,4.9,2.7,7.1" class="g8_2" />
<path d="M590.8,445.3c1.2,-1.5,5.2,-1.4,8.1,1.1c2.8,2.5,4.4,5,2.8,7.2" class="g8_2" />
<path d="M589.6,447.1c1.1,-1.5,5.2,-1.4,8,1.1c2.9,2.5,4.4,4.9,2.8,7.1" class="g8_2" />
<path d="M589.1,448.2c1.7,-0.8,4.9,-0.3,7.3,1.8c2.4,2.1,3.9,4.2,3.2,6.2" class="g8_2" />
<path d="M589,449.7c1.7,-0.3,4.2,0.4,6.1,2c1.8,1.6,3.1,3.2,3.3,4.7" class="g8_2" />
<path d="M631,436.7c4.7,-6,21.1,-5.4,32.7,4.6c11.6,9.9,17.9,19.6,11.4,28.4" class="g11_2" />
<path d="M624,446.2c4.6,-6,21.1,-5.4,32.7,4.6c11.6,9.9,17.8,19.6,11.3,28.4" class="g8_2" />
<path d="M668,479.2c-4.6,6,-21.1,5.4,-32.7,-4.5C623.7,464.8,617.5,455.1,624,446.2" class="g11_2" />
<path d="M626.5,448.1c4.1,-5.3,18.7,-4.7,29,4c10.2,8.8,15.7,17.4,10,25.2" class="g8_2" />
<path d="M665.5,477.3c-4.1,5.3,-18.7,4.8,-29,-4c-10.2,-8.8,-15.7,-17.4,-10,-25.2" class="g8_2" />
<path d="M631,436.7l-7,9.5" class="g11_2" />
<path d="M675.1,469.7l-7.1,9.5" class="g11_2" />
<path d="M627,443.6l6.5,-9" class="g8_2" />
<path d="M628.1,443.2l6.5,-9" class="g8_2" />
<path d="M629.5,442.7l6.5,-9" class="g8_2" />
<path d="M631.1,442.4l6.5,-9" class="g8_2" />
<path d="M632.9,442l6.5,-8.9" class="g8_2" />
<path d="M634.7,441.9l6.6,-8.9" class="g8_2" />
<path d="M636.6,442l6.5,-8.9" class="g8_2" />
<path d="M638.7,442.2l6.5,-9" class="g8_2" />
<path d="M640.6,442.5l6.5,-8.9" class="g8_2" />
<path d="M642.7,443l6.6,-9" class="g8_2" />
<path d="M644.9,443.6l6.5,-8.9" class="g8_2" />
<path d="M647,444.4l6.5,-9" class="g8_2" />
<path d="M649.1,445.4l6.6,-8.9" class="g8_2" />
<path d="M651.3,446.5l6.6,-9" class="g8_2" />
<path d="M653.3,447.8l6.5,-9" class="g8_2" />
<path d="M655.3,449.1l6.6,-8.9" class="g8_2" />
<path d="M657.2,450.7l6.5,-9" class="g8_2" />
<path d="M659,452.3l6.5,-9" class="g8_2" />
<path d="M660.8,453.9l6.5,-9" class="g8_2" />
<path d="M662.5,455.6l6.5,-9" class="g8_2" />
<path d="M664,457.3l6.5,-8.9" class="g8_2" />
<path d="M665.5,459l6.5,-9" class="g8_2" />
<path d="M666.7,460.6l6.5,-8.9" class="g8_2" />
<path d="M667.9,462.4l6.5,-9" class="g8_2" />
<path d="M668.9,464.1l6.5,-9" class="g8_2" />
<path d="M669.7,465.8l6.5,-9" class="g8_2" />
<path d="M670.4,467.4l6.5,-9" class="g8_2" />
<path d="M670.8,469.1l6.5,-9" class="g8_2" />
<path d="M671,470.7l6.5,-9" class="g8_2" />
<path d="M671.1,472.3l6.5,-9" class="g8_2" />
<path d="M670.9,473.7l6.5,-8.9" class="g8_2" />
<path d="M644,432.8c6,-0.5,13.9,1.6,20.2,7c6.1,5.2,10.4,10.3,11.5,15.3" class="g11_2" />
<path d="M562.2,449.5c4.6,-6,21.1,-5.4,32.7,4.5c11.6,9.9,17.8,19.6,11.3,28.5" class="g11_2" />
<path d="M555.1,459c4.6,-6,21.1,-5.4,32.7,4.5c11.6,10,17.8,19.7,11.3,28.5" class="g8_2" />
<path d="M599.1,492c-4.6,6,-21.1,5.4,-32.7,-4.6C554.8,477.5,548.6,467.8,555.1,459" class="g11_2" />
<path d="M557.6,460.9c4.1,-5.3,18.7,-4.8,29,4c10.2,8.8,15.7,17.4,10,25.2" class="g8_2" />
<path d="M596.6,490.1c-4.1,5.3,-18.7,4.8,-28.9,-4c-10.3,-8.8,-15.8,-17.4,-10.1,-25.2" class="g8_2" />
<path d="M562.2,449.5l-7.1,9.5" class="g11_2" />
<path d="M606.2,482.5l-7.1,9.5" class="g11_2" />
<path d="M558.1,456.4l6.5,-9" class="g8_2" />
<path d="M559.2,455.9l6.5,-8.9" class="g8_2" />
<path d="M560.6,455.4l6.5,-8.9" class="g8_2" />
<path d="M562.2,455.2l6.6,-9" class="g8_2" />
<path d="M564,454.8l6.5,-9" class="g8_2" />
<path d="M565.9,454.7l6.5,-9" class="g8_2" />
<path d="M567.7,454.8l6.5,-9" class="g8_2" />
<path d="M569.8,454.9l6.5,-8.9" class="g8_2" />
<path d="M571.7,455.3l6.5,-9" class="g8_2" />
<path d="M573.8,455.8l6.6,-9" class="g8_2" />
<path d="M576,456.4l6.5,-9" class="g8_2" />
<path d="M578.1,457.1l6.5,-8.9" class="g8_2" />
<path d="M580.3,458.2l6.5,-9" class="g8_2" />
<path d="M582.4,459.2l6.6,-8.9" class="g8_2" />
<path d="M584.4,460.5l6.6,-8.9" class="g8_2" />
<path d="M586.5,461.9l6.5,-9" class="g8_2" />
<path d="M588.3,463.4l6.5,-8.9" class="g8_2" />
<path d="M590.1,465l6.5,-8.9" class="g8_2" />
<path d="M591.9,466.6l6.5,-8.9" class="g8_2" />
<path d="M593.6,468.3l6.5,-8.9" class="g8_2" />
<path d="M595.1,470.1l6.5,-9" class="g8_2" />
<path d="M596.6,471.8l6.5,-9" class="g8_2" />
<path d="M597.8,473.4l6.5,-9" class="g8_2" />
<path d="M599,475.1l6.5,-8.9" class="g8_2" />
<path d="M600,476.9l6.5,-9" class="g8_2" />
<path d="M600.8,478.5l6.5,-8.9" class="g8_2" />
<path d="M601.5,480.1l6.5,-8.9" class="g8_2" />
<path d="M601.9,481.8l6.5,-8.9" class="g8_2" />
<path d="M602.1,483.4l6.6,-8.9" class="g8_2" />
<path d="M602.2,485l6.5,-8.9" class="g8_2" />
<path d="M602,486.5l6.5,-9" class="g8_2" />
<path d="M575.2,445.5c5.9,-0.5,13.9,1.7,20.1,7c6.1,5.2,10.4,10.4,11.5,15.3" class="g11_2" />
<path fill-rule="evenodd" d="M746.3,426l4.9,-1l0,8.6l-4.9,-0.7Z" class="g12_2" />
<path fill-rule="evenodd" d="M741.2,434.1l5,-1l0,5.3l5.1,0.7l0,8.6l-5,1l0,-8.5l-5.1,-0.8Z" class="g12_2" />
<path d="M751.3,439.1l-5,1.1" class="g8_2" />
<path fill-rule="evenodd" d="M746.3,432.9l5,0.5l0,-8.5l13.1,12.9l-13,9.8l0,-8.7l-5.1,-0.7Z" class="g13_2" />
<path d="M741.2,433.9l0,5.5l5.1,0.8l0,8.5l5.1,-1l13,-9.6L751.4,425l-5.1,1l0,6.9Z" class="g11_2" />
<path d="M751.4,433.6l-5.1,-0.7" class="g11_2" />
<path d="M746.5,438.5l0,-5" class="g8_2" />
<path d="M751.3,446.8l0,-7.7l-5.2,-0.8l-4.9,1.1" class="g8_2" />
<path d="M751.5,425.5l0,7" class="g8_2" />
<path fill-rule="evenodd" d="M684.2,488.8l4.6,-0.8l2.9,2.5l3.1,2.4l4.2,2.4l3.5,1l3.1,0.4l3.7,-1l3.1,-1.7l2.6,-2.1l1.8,-2.2l-4.9,-5.8l13.8,-5.7l4.8,-0.9l-0.8,19.3l-4.9,1.2l-2.1,-2.1l-2.6,2.5l-3.3,2.5l-5.8,2.9l-6.7,1.8l-6.5,0.9L693.9,506l-5.7,-1.5l-7.5,-3.7l-2.6,-1.6Z" class="g12_2" />
<path d="M716.8,489.7c0,0,-1.9,4.1,-10,7" class="g11_2" />
<path d="M689.1,488l-4.9,0.8l-6.1,10.4" class="g11_2" />
<path fill-rule="evenodd" d="M682.9,498.2c7.9,5.6,14,7.7,21.4,7.2c7.5,-0.5,17.1,-6.5,21.1,-13l4.3,4.3l0.8,-19.4l-13.6,5.8l5,5.7c-2,3.1,-7.3,7.5,-14.7,8.3c-7.4,0.8,-13.4,-4.5,-18.1,-9.2Z" class="g13_2" />
<path d="M721.9,488.8l-5,-5.7l-5,0.8" class="g8_2" />
<path d="M716.8,489.7l5.1,-0.9" class="g8_2" />
<path d="M706.8,497.1c4,0,11.6,-3,15.1,-8.3" class="g8_2" />
<path d="M706.8,496.7c-6.1,-0.1,-11.1,-1.8,-17.7,-8.7" class="g11_2" />
<path d="M725.4,492.4c-3,4.4,-9.8,11.3,-21.1,13" class="g11_2" />
<path d="M716.8,489.7l-4.9,-5.8l13.8,-5.7l4.8,-0.9l-0.8,19.4l-4.9,1.1l-2.1,-2" class="g11_2" />
<path d="M716.9,483.1l13.6,-5.8" class="g8_2" />
<path d="M725.4,492.4l4.3,4.3" class="g8_2" />
<path d="M678.8,499l4.1,-0.8c9.1,7.2,17.3,7.4,21.4,7.2" class="g8_2" />
<path d="M678.1,499.2c11.4,7.6,19.7,8,26.2,6.2" class="g11_2" />
<path d="M682.9,498.2L689.1,488" class="g8_2" />
<path d="M216.8,655.3l250.7,73.5l144,-57.4" class="g11_2" />
<path d="M682.4,642.6l146,-58.2" class="g11_2" />
<path d="M624,674c0,-1.3,2.9,-2,5,-2c2.1,0,5,0.4,5,1.9" class="g8_2" />
<path d="M623,674l0,32" class="g11_2" />
<path d="M634,707l0,-33" class="g11_2" />
<path d="M624,676.2c0,-1.3,2.9,-2,5,-2c2.1,0,5,0.4,5,1.9" class="g8_2" />
<path d="M624,678.4c0,-1.3,2.9,-2,5,-2c2.1,0,5,0.4,5,1.9" class="g8_2" />
<path d="M624,680.7c0,-1.4,2.9,-2.1,5,-2.1c2.1,0,5,0.4,5,2" class="g8_2" />
<path d="M624,682.9c0,-1.4,2.9,-2.1,5,-2.1c2.1,0,5,0.4,5,2" class="g8_2" />
<path d="M624,685.1c0,-1.4,2.9,-2.1,5,-2.1c2.1,0,5,0.4,5,2" class="g8_2" />
<path d="M624,687.3c0,-1.4,2.9,-2.1,5,-2.1c2.1,0,5,0.4,5,2" class="g8_2" />
<path d="M624,689.5c0,-1.4,2.9,-2.1,5,-2.1c2.1,0,5,0.4,5,2" class="g8_2" />
<path d="M624,691.7c0,-1.4,2.9,-2.1,5,-2.1c2.1,0,5,0.4,5,2" class="g8_2" />
<path d="M624,693.9c0,-1.3,2.9,-2,5,-2c2.1,0,5,0.4,5,1.9" class="g8_2" />
<path d="M624,696.1c0,-1.4,2.9,-2.1,5,-2.1c2.1,0,5,0.4,5,2" class="g8_2" />
<path d="M624,698.3c0,-1.3,2.9,-2,5,-2c2.1,0,5,0.4,5,1.9" class="g8_2" />
<path d="M624,700.4c0,-1.3,2.9,-2,5,-2c2.1,0,5,0.4,5,1.9" class="g8_2" />
<path d="M624,702.6c0,-1.3,2.9,-2,5,-2c2.1,0,5,0.4,5,1.9" class="g8_2" />
<path d="M624,704.8c0,-1.3,2.9,-2,5,-2c2.1,0,5,0.4,5,1.9" class="g8_2" />
<path d="M624,707.1c0,-1.4,2.9,-2.1,5,-2.1c2.1,0,5,0.4,5,2" class="g8_2" />
<path d="M649.8,717.4l0,9.9c0,4,-9.3,7.3,-20.8,7.3c-11.5,0,-20.8,-3.3,-20.8,-7.3l0,-9.9" class="g11_2" />
<path d="M608.2,727.3c0,-4,9.3,-7.3,20.8,-7.3c11.5,0,20.8,3.3,20.8,7.3" class="g8_2" />
<path d="M608.2,717.4c0,-4.1,9.3,-7.3,20.8,-7.3c11.5,0,20.8,3.2,20.8,7.3" class="g11_2" />
<path d="M614,712c0,-2.9,6.7,-5.3,15,-5.3c8.3,0,15.1,2.4,15.1,5.3" class="g11_2" />
<path d="M647.2,727.3c0,3.5,-8.1,6.4,-18.2,6.4c-10,0,-18.2,-2.9,-18.2,-6.4" class="g8_2" />
<path d="M610.8,727.3c0,-3.5,8.2,-6.4,18.2,-6.4c10.1,0,18.2,2.9,18.2,6.4" class="g8_2" />
<path d="M628.5,720.5l0,-10" class="g8_2" />
<path d="M626.5,720.5l0,-10" class="g8_2" />
<path d="M624.5,720.5l0,-10" class="g8_2" />
<path d="M623.5,720.5l0,-10" class="g8_2" />
<path d="M621.5,720.5l0,-10" class="g8_2" />
<path d="M620.5,720.5l0,-10" class="g8_2" />
<path d="M618.5,720.5l0,-10" class="g8_2" />
<path d="M617.5,721.5l0,-10" class="g8_2" />
<path d="M616.5,721.5l0,-10" class="g8_2" />
<path d="M615.5,721.5l0,-10" class="g8_2" />
<path d="M613.5,722.5l0,-10" class="g8_2" />
<path d="M612.5,722.5l0,-10" class="g8_2" />
<path d="M611.5,723.5l0,-10" class="g8_2" />
<path d="M610.5,723.5l0,-10" class="g8_2" />
<path d="M608.5,725.5l0,-10" class="g8_2" />
<path d="M630.5,720.5l0,-10" class="g8_2" />
<path d="M631.5,719.5l0,-9" class="g8_2" />
<path d="M633.5,720.5l0,-10" class="g8_2" />
<path d="M635.5,720.5l0,-10" class="g8_2" />
<path d="M636.5,720.5l0,-10" class="g8_2" />
<path d="M638.5,720.5l0,-10" class="g8_2" />
<path d="M639.5,721.5l0,-10" class="g8_2" />
<path d="M640.5,721.5l0,-10" class="g8_2" />
<path d="M641.5,721.5l0,-10" class="g8_2" />
<path d="M642.5,721.5l0,-10" class="g8_2" />
<path d="M644.5,722.5l0,-10" class="g8_2" />
<path d="M645.5,722.5l0,-10" class="g8_2" />
<path d="M646.5,723.5l0,-10" class="g8_2" />
<path d="M647.5,723.5l0,-10" class="g8_2" />
<path d="M648.5,724.5l0,-10" class="g8_2" />
<path d="M648.5,725.5l0,-10" class="g8_2" />
<path d="M676.7,653.3c0,-1.4,3,-2.1,5.1,-2.1c2.1,0,5,0.4,5,2" class="g8_2" />
<path d="M676,653l0,33" class="g11_2" />
<path d="M686,686l0,-33" class="g11_2" />
<path d="M676.7,655.5c0,-1.4,3,-2.1,5.1,-2.1c2.1,0,5,0.4,5,2" class="g8_2" />
<path d="M676.7,657.7c0,-1.4,3,-2.1,5.1,-2.1c2.1,0,5,0.4,5,2" class="g8_2" />
<path d="M676.7,659.9c0,-1.3,3,-2,5.1,-2c2.1,0,5,0.4,5,1.9" class="g8_2" />
<path d="M676.7,662.1c0,-1.3,3,-2,5.1,-2c2.1,0,5,0.4,5,1.9" class="g8_2" />
<path d="M676.7,664.3c0,-1.3,3,-2,5.1,-2c2.1,0,5,0.4,5,1.9" class="g8_2" />
<path d="M676.7,666.5c0,-1.3,3,-2,5.1,-2c2.1,0,5,0.4,5,1.9" class="g8_2" />
<path d="M676.7,668.7c0,-1.3,3,-2,5.1,-2c2.1,0,5,0.4,5,1.9" class="g8_2" />
<path d="M676.7,670.9c0,-1.3,3,-2,5.1,-2c2.1,0,5,0.4,5,1.9" class="g8_2" />
<path d="M676.7,673.1c0,-1.3,3,-2,5.1,-2c2.1,0,5,0.4,5,1.9" class="g8_2" />
<path d="M676.7,675.3c0,-1.3,3,-2,5.1,-2c2.1,0,5,0.4,5,1.9" class="g8_2" />
<path d="M676.7,677.6c0,-1.4,3,-2.1,5.1,-2.1c2.1,0,5,0.4,5,2" class="g8_2" />
<path d="M676.7,679.7c0,-1.4,3,-2.1,5.1,-2.1c2.1,0,5,0.4,5,2" class="g8_2" />
<path d="M676.7,681.9c0,-1.4,3,-2.1,5.1,-2.1c2.1,0,5,0.4,5,2" class="g8_2" />
<path d="M676.7,684.1c0,-1.4,3,-2.1,5.1,-2.1c2.1,0,5,0.4,5,2" class="g8_2" />
<path d="M676.7,686.3c0,-1.3,3,-2,5.1,-2c2.1,0,5,0.4,5,1.9" class="g8_2" />
<path d="M702.5,696.6l0,9.9c0,4.1,-9.3,7.3,-20.7,7.3c-11.5,0,-20.8,-3.2,-20.8,-7.3l0,-9.9" class="g11_2" />
<path d="M661,706.5c0,-4,9.3,-7.2,20.8,-7.2c11.4,0,20.7,3.2,20.7,7.2" class="g8_2" />
<path d="M661,696.6c0,-4,9.3,-7.3,20.8,-7.3c11.4,0,20.7,3.3,20.7,7.3" class="g11_2" />
<path d="M666.7,691.3c0,-3,6.7,-5.3,15.1,-5.3c8.3,0,15,2.3,15,5.3" class="g11_2" />
<path d="M700,706.5c0,3.6,-8.2,6.4,-18.2,6.4c-10.1,0,-18.3,-2.8,-18.3,-6.4" class="g8_2" />
<path d="M663.5,706.5c0,-3.5,8.2,-6.4,18.3,-6.4c10,0,18.2,2.9,18.2,6.4" class="g8_2" />
<path d="M681.5,699.5l0,-10" class="g8_2" />
<path d="M679.5,699.5l0,-10" class="g8_2" />
<path d="M677.5,699.5l0,-10" class="g8_2" />
<path d="M675.5,699.5l0,-10" class="g8_2" />
<path d="M674.5,699.5l0,-10" class="g8_2" />
<path d="M672.5,700.5l0,-10" class="g8_2" />
<path d="M671.5,700.5l0,-10" class="g8_2" />
<path d="M669.5,700.5l0,-10" class="g8_2" />
<path d="M668.5,700.5l0,-10" class="g8_2" />
<path d="M667.5,701.5l0,-10" class="g8_2" />
<path d="M666.5,701.5l0,-10" class="g8_2" />
<path d="M665.5,702.5l0,-10" class="g8_2" />
<path d="M664.5,702.5l0,-10" class="g8_2" />
<path d="M663.5,703.5l0,-10" class="g8_2" />
<path d="M661.5,704.5l0,-10" class="g8_2" />
<path d="M682.5,699.5l0,-10" class="g8_2" />
<path d="M684.5,699.5l0,-10" class="g8_2" />
<path d="M686.5,699.5l0,-10" class="g8_2" />
<path d="M687.5,699.5l0,-10" class="g8_2" />
<path d="M689.5,699.5l0,-10" class="g8_2" />
<path d="M690.5,700.5l0,-10" class="g8_2" />
<path d="M692.5,700.5l0,-10" class="g8_2" />
<path d="M693.5,700.5l0,-10" class="g8_2" />
<path d="M694.5,700.5l0,-10" class="g8_2" />
<path d="M695.5,701.5l0,-10" class="g8_2" />
<path d="M697.5,701.5l0,-10" class="g8_2" />
<path d="M698.5,702.5l0,-10" class="g8_2" />
<path d="M699.5,702.5l0,-10" class="g8_2" />
<path d="M700.5,703.5l0,-10" class="g8_2" />
<path d="M701.5,703.5l0,-10" class="g8_2" />
<path d="M701.5,704.5l0,-10" class="g8_2" />
<path d="M623.1,678.8l-9.4,-2.9c0,0,-1.6,-0.9,-1.6,-2.3c0,-1.4,-0.1,-3.5,-0.1,-3.5c0,0,0.3,-1,1.8,-1.6c1.5,-0.5,62,-24.8,62,-24.8c0,0,4.3,-1.4,9.8,-0.1c5.4,1.2,31.9,9.2,31.9,9.2c0,0,2.1,1,2.2,-1.5c0.2,-2.4,-0.2,-8,-0.2,-8l3.8,1.2l0.2,9.2c0,0,0.1,2.8,-3.9,4.5c-4,1.6,-3.7,1.4,-3.7,1.4" class="g11_2" />
<path d="M719,651l0,-23" class="g11_2" />
<path d="M697.7,645.8c1.2,-1.1,2.3,-5.1,2.2,-9" class="g11_2" />
<path d="M715.5,651.5l0,-21" class="g8_2" />
<path d="M613.7,673.4l62.5,-25.1c0,0,3.3,-1.7,9.1,-0.1c5.8,1.6,31.8,9.1,31.8,9.1c0,0,3.1,0.9,4.1,0" class="g8_2" />
<path d="M661,698.6c-4.3,1.9,-6.1,2.9,-6.8,3.2c-0.8,0.2,-1.1,0.5,-4.7,-0.5c-3.6,-1,-4.2,-1.9,-4.5,-4.8c-0.3,-2.9,-0.9,-9.2,-0.9,-9.2l15.5,-5.7c0,0,1.6,-0.5,1.6,-2.8c0,-2.3,0.1,-4.2,0.1,-4.2" class="g11_2" />
<path d="M634.9,681.9l11.3,3.4" class="g11_2" />
<path d="M661.3,674.6c0,0,-0.6,-1,-1.7,-0.5c-1.1,0.5,-4.8,2.1,-4.8,2.1" class="g11_2" />
<path d="M687.9,663.1l3.6,-1.7c0,0,3.1,-0.3,4.4,0.1c1.3,0.4,7,2,7,2" class="g11_2" />
<path d="M700.1,665l12.7,-5.1c0,0,2.1,-0.4,4,0.4c1.9,0.8,2.1,1.6,2.1,2.6c0,1,0,7,0,7c0,0,-0.8,5.8,-4.9,7.8c-4.1,2,-19.8,7.9,-19.8,7.9" class="g11_2" />
<path d="M691.1,662.5c1.2,1.2,1.4,2.3,1.4,4.2c0,1.9,0.2,16.2,0.2,16.2c0,0,0.1,1.6,1.3,2.8c0.9,0.8,2.6,1.2,3.8,1.5c2.9,0.6,3.1,1.4,3.1,1.4c0,0,0.9,3.5,-0.6,4" class="g11_2" />
<path d="M661.2,678.8c-0.2,5.5,-0.2,14.9,-0.2,14.9l0,2.4" class="g11_2" />
<path d="M660.8,695.6c0,0,-8.4,4,-9.8,4.3c-1.4,0.3,-4.4,0.6,-4.8,-0.1" class="g8_2" />
<path d="M694.2,682.8l16.3,-6.5c0,0,4.2,-1.8,4.6,-8.1c0.4,-6.3,0.2,-7.3,0.2,-7.3" class="g8_2" />
<path d="M687.9,663.1c0.8,1,1,1.6,1.1,3.1c0.1,1.5,0.1,16.5,0.1,16.5c0,0,-0.3,3.2,1.1,4.2" class="g8_2" />
<path d="M654,677.2l5.9,2" class="g8_2" />
<path d="M574,754.5c-6.2,-2.2,-14.9,-7,-15.6,-12.8c-0.7,-5.8,6.7,-12.4,11.6,-14.5" class="g11_2" />
<path fill-rule="evenodd" d="M574,754.5l12.9,-5L587,744c0,0,-16.6,-4.8,-16.6,-8.5c0.1,-3.7,4.7,-5.5,6.2,-6.2c1.6,-0.7,9.6,2.3,9.6,2.3l3.9,-9.1l0,-5.5l-26.9,2.8l0,5.3c0,0,0.2,0.3,-0.4,1.3c-0.6,0.9,-3.5,3.6,-3.8,5.6c-0.2,2.1,-1.4,6.6,-0.6,9.7c0.8,3.1,2.2,6.7,15.6,12.8Z" class="g12_2" />
<path fill-rule="evenodd" d="M574.2,754.6l12.7,-5.1c-0.6,0.2,-10.6,-3.2,-12,-4.6c-0.7,-0.7,-4,-2.2,-5,-5.3c-0.3,-1.2,0.1,-2.5,0.8,-4c1.5,-3.4,4.1,-4.8,5.7,-5.5c1.5,-0.7,10,2.2,10,2.2l3.9,-9.7l-26.8,2.6c0,0,6.5,2,5.3,2.6c-1.2,0.5,-7.5,4.8,-9.1,8.6c-1.6,3.8,-1.9,2.3,-1,5.4c0.8,3.1,2.1,6.7,15.5,12.8Z" class="g13_2" />
<path d="M563.2,719.8l0,5.6l7.1,1.9" class="g11_2" />
<path d="M576.6,729.3l9.6,2.3l3.9,-9.1l0,-5.5l-26.9,2.8" class="g11_2" />
<path d="M563.2,725.4l26.9,-2.9" class="g8_2" />
<path d="M574.2,754.6l12.7,-5.1L587,744c0,0,-14.3,-3.4,-16.8,-9" class="g11_2" />
<path d="M576.6,729.3c-4.4,1.8,-7.2,5,-7,8.7" class="g11_2" />
<path d="M564.1,725.6c-3.6,3,-5.5,6.1,-5.8,9.4c-0.3,3.3,0,6.1,0,6.1c0,0,0.2,7.7,15.9,13.5" class="g11_2" />
<path d="M569.6,738c-0.1,4.5,7,9.2,17.3,11.5" class="g8_2" />
<path d="M570.3,727.3c-5.2,1.7,-12.1,8.5,-12,13.8" class="g8_2" />
<path fill-rule="evenodd" d="M745.9,714l-0.1,6.8l-26.7,2.8L719,718l4.1,-9.2l9.3,2.5l3.4,-1.8l2.4,-2.7l-0.1,-2.7l-3,-2.5l-4.7,-2.5l-3.8,-1.4l-4,-1.1l0,-5.7L735.2,686l7.6,3.6l4.5,3.4l3.1,4.3L751,701l-0.1,3.6l-0.6,3.5l-1.8,3.1Z" class="g12_2" />
<path d="M722.6,696.6l0,-5.7L735.2,686" class="g11_2" />
<path d="M719.1,723.6L719,718l4.1,-9.2l9.3,2.5c0,0,5,-1.3,6.4,-6" class="g11_2" />
<path d="M723.7,714.4l-0.6,-5.6" class="g8_2" />
<path d="M732.4,716.6l0,-5.3" class="g8_2" />
<path fill-rule="evenodd" d="M746.7,713.3l-7.7,5.2l6.8,2.3l-26.7,2.8l4.6,-9.2l8.7,2.2l2.8,-1.2l2.6,-2l1.4,-2.1l0.6,-2.4l0,-1.8l-1.7,-3l-3,-2.5l-4.7,-2.5l-3.8,-1.4l-4,-1.1l12.6,-4.9l5.2,2.1l4.4,2.5l3.9,3.5l1.6,2.5l0.6,2.9l-0.5,2.3l-1.9,3.7Z" class="g13_2" />
<path d="M739.9,708.2c0,-4.8,-8,-9.6,-17.3,-11.6" class="g11_2" />
<path d="M735.2,691.7c9.3,3.2,15.3,8,15.7,12.9" class="g8_2" />
<path d="M722.6,696.6l12.6,-4.9l0,-5.7" class="g8_2" />
<path d="M739,718.5c5.4,-2.6,11.8,-7.8,11.9,-13.3c0.1,-5.5,0,-5.9,0,-5.9c0,0,0.3,-7.2,-15.7,-13.3" class="g11_2" />
<path d="M719.1,723.6l4.6,-9.2l8.7,2.2c0,0,7.3,-1.9,7.5,-8.4" class="g8_2" />
<path d="M719.1,723.6l26.7,-2.8l0.1,-5.4" class="g11_2" />
<path d="M739,718.5l6.8,2.3" class="g8_2" />
<path fill-rule="evenodd" d="M341.9,523.3L289,512.7l0.5,-12.3l53.9,13.9Z" class="g14_2" />
<path d="M438.4,538.9c-2.8,-0.8,-34.6,-8.9,-96.2,-24.8C326.6,510,310.6,505.8,294.8,501.8C229.1,484.7,169,469.1,169,469.1c0,0,-2.9,-0.3,-4.6,0.2c-1.7,0.4,-59,14.3,-59,14.3" class="g11_2" />
<path d="M467.5,548.5l0,-270" class="g4_2" />
<path fill-rule="evenodd" d="M479,289l37,0l0,38l-37,0Z" class="g6_2" />
<path fill-rule="evenodd" d="M477.5,287.5l37,0l0,37l-37,0Z" class="g7_2" />
<path d="M662.5,703.5l0,-10" class="g8_2" />
<path d="M609.5,724.5l0,-10" class="g8_2" />
<path fill-rule="evenodd" d="M404.3,747.1c99.7,0,180.5,58.1,180.5,129.7c0,71.6,-80.8,129.7,-180.5,129.7c-99.7,0,-180.6,-58.1,-180.6,-129.7c0,-71.6,80.9,-129.7,180.6,-129.7Z" class="g1_2" />
<path fill-rule="evenodd" d="M401.4,752.9c98.2,0,175.4,55.5,175.4,123.9c0,68.5,-77.2,124,-172.5,124c-95.3,0,-172.5,-55.5,-172.5,-124C228.6,808.4,309,752.9,404.3,752.9Z" class="g15_2" />
<path d="M461.6,939.8c0.7,0,1,0.7,1,1.5c0,0.7,0,15.3,0,15.3c0,0,0.1,5.3,5.8,5.3c5.8,-0.1,8,-0.1,8,-0.1l0,-4c0,0,-7.7,0,-8.4,0c-0.6,0.1,-1.4,-0.5,-1.4,-1.4c0,-0.9,0,-14.8,0,-15.5c0,-0.8,-0.3,-1.2,-0.3,-1.2l-36.5,0.1l-0.1,-4l40.8,0c0,0,1.9,-0.3,1.9,-1.3c0,-1.1,0,-8,0,-8l3.8,-0.1l0.1,8.3c0,0,-0.1,5.1,-5.1,5c-4.9,0,-4.9,0,-4.9,0" class="g11_2" />
<path d="M436.2,935.8l0.1,-15.4l8.4,0l0,15.4" class="g11_2" />
<path d="M436.2,939.7l0,18.7l-7.3,0l0,3.9c0,0,-0.1,1,-0.9,1.1" class="g11_2" />
<path d="M444.8,939.7l0,18.7l7.2,0l0,3.9c0,0,0.2,1,0.9,1.1" class="g11_2" />
<path d="M436,958l8,0" class="g11_2" />
<path d="M423,963l34,0l0,8l-34,0Z" class="g11_2" />
<path d="M427.2,972.3c6.1,4.2,17,6.2,27.3,-0.4" class="g11_2" />
<path d="M425.1,963.5c0,-0.1,0,8.3,0,8.3" class="g8_2" />
<path d="M426.5,963.5c0,-0.1,0,8.3,0,8.3" class="g8_2" />
<path d="M428.4,963.5c0,-0.1,0,8.3,0,8.3" class="g8_2" />
<path d="M430.6,963.5c0,-0.1,0,8.3,0,8.3" class="g8_2" />
<path d="M432.6,963.5c0,-0.1,0,8.3,0,8.3" class="g8_2" />
<path d="M434.8,963.5c0,-0.1,0,8.3,0,8.3" class="g8_2" />
<path d="M436.7,963.5c0,-0.1,0,8.3,0,8.3" class="g8_2" />
<path d="M438.6,963.5c0,-0.1,0,8.3,0,8.3" class="g8_2" />
<path d="M440.7,963.5c0,-0.1,0,8.3,0,8.3" class="g8_2" />
<path d="M442.8,963.5c0,-0.1,0,8.3,0,8.3" class="g8_2" />
<path d="M445,963.5c0,-0.1,0,8.3,0,8.3" class="g8_2" />
<path d="M447.1,963.5c0,-0.1,0,8.3,0,8.3" class="g8_2" />
<path d="M448.9,963.5c0,-0.1,0,8.3,0,8.3" class="g8_2" />
<path d="M450.5,963.5c0,-0.1,0,8.3,0,8.3" class="g8_2" />
<path d="M452.1,963.5c0,-0.1,0,8.3,0,8.3" class="g8_2" />
<path d="M453.7,963.5c0,-0.1,0,8.3,0,8.3" class="g8_2" />
<path d="M455.1,963.5c0,-0.1,0,8.3,0,8.3" class="g8_2" />
<path d="M456.2,963.5c0,-0.1,0,8.3,0,8.3" class="g8_2" />
<path d="M422.1,886l0,-4.2l36.8,0c0,0,7.7,0.3,8.6,-8.1" class="g11_2" />
<path d="M459.2,886c3.5,-0.2,7.1,-2.3,8.3,-3.8" class="g11_2" />
<path d="M467.5,935.8l0,-139.4c0,0,-0.2,-8.7,-10.1,-8.7c-9.9,0.1,-94.2,0,-94.2,0l0,-3.9l94.3,0c0,0,14,0.1,14,12.8c0,12.7,0,138.9,0,138.9" class="g11_2" />
<path d="M471.2,939.7l0,15.7l-3.7,0l0,-15.7" class="g11_2" />
<path d="M363.2,787.7l0,56.1c0,0,0.4,1.4,2,1.5c1.7,0.1,91.8,0,91.8,0c0,0,1.5,-0.1,1.6,-2c0.1,-1.9,0,-51,0,-51c0,0,-1.1,-4.6,-3.8,-4.6" class="g11_2" />
<path d="M458.6,824.1l3.2,0l1.6,1.8l0,18.6l-5.2,0" class="g11_2" />
<path d="M436.2,956.7l8.6,-1.5" class="g8_2" />
<path d="M436.2,955l8.6,-1.5" class="g8_2" />
<path d="M436.2,953.3l8.6,-1.4" class="g8_2" />
<path d="M436.2,951.7l8.6,-1.5" class="g8_2" />
<path d="M436.2,950l8.6,-1.5" class="g8_2" />
<path d="M436.2,948.3l8.6,-1.4" class="g8_2" />
<path d="M436.2,946.6l8.6,-1.4" class="g8_2" />
<path d="M436.2,944.9l8.6,-1.4" class="g8_2" />
<path d="M436.2,943.2l8.6,-1.4" class="g8_2" />
<path d="M436.2,941.7l8.6,-1.4" class="g8_2" />
<path d="M436.2,935.1l8.6,-1.5" class="g8_2" />
<path d="M436.2,933.4l8.6,-1.5" class="g8_2" />
<path d="M436.2,931.7l8.6,-1.4" class="g8_2" />
<path d="M436.2,930l8.6,-1.5" class="g8_2" />
<path d="M436.2,928.3l8.6,-1.4" class="g8_2" />
<path d="M436.2,926.6l8.6,-1.4" class="g8_2" />
<path d="M436.2,925l8.7,-1.5" class="g8_2" />
<path d="M436.2,923.4l8.7,-1.5" class="g8_2" />
<path d="M436.2,921.8l8.7,-1.5" class="g8_2" />
<path fill-rule="evenodd" d="M233.3,886l232.8,0l0,33.6l-222.6,0L239.6,911L237,903.9L235.3,898l-1.2,-5.9Z" class="g12_2" />
<path d="M232.6,886l232,0c0,0,2.1,0.5,2.1,1.9c0,1.4,-0.1,30.2,-0.1,30.2c0,0,0.3,1.9,-2,1.9c-2.3,0,-221.4,0,-221.4,0" class="g11_2" />
<path d="M463.7,830.8c2.1,0,3.4,0,3.4,0" class="g16_2" />
<path d="M471.6,830.9c7,-0.1,20.2,5.2,20.2,19.1c0,13.8,0,133.5,0,133.5" class="g16_2" />
<path d="M463.7,838.9c2.1,0,3.4,0,3.4,0" class="g16_2" />
<path d="M471.8,839c7,-0.1,11.7,4.4,11.7,14.3c0,9.9,0,133.6,0,133.6" class="g16_2" />
<path d="M222,885l-88,0" class="g17_2" />
<path d="M230,921l-96,0" class="g18_2" />
<path d="M149.7,884.5l-6.2,-12.4l12.4,0Zm-1,-11.7l2,0l0,0.1l0,0.1l-0.1,0l0,0.1l-0.1,0.1l-0.1,0.1l-0.1,0l0,0.1l-0.1,0l-0.1,0l-0.1,0l0,0.1l-0.1,0l-0.1,0l-0.1,0l-0.1,0l-0.1,0l-0.1,0l0,-0.1l-0.1,0l-0.1,0l-0.1,0l0,-0.1l-0.1,0l0,-0.1l-0.1,0l-0.1,-0.1l0,-0.1l-0.1,0l0,-0.1l0,-0.1Zm2,-20.8l0,20.8l-2,0l0,-20.8Zm0,0l-2,0l0,-0.1l0,-0.1l0,-0.1l0.1,0l0,-0.1l0.1,0l0,-0.1l0.1,0l0,-0.1l0.1,0l0.1,0l0,-0.1l0.1,0l0.1,0l0.1,0l0.1,0l0.1,0l0.1,0l0.1,0l0.1,0l0.1,0l0.1,0l0,0.1l0.1,0l0.1,0l0,0.1l0.1,0l0,0.1l0.1,0l0,0.1l0.1,0l0,0.1l0,0.1Z" class="g6_2" />
<path d="M149.7,922.7l6.2,12.4l-12.4,0Zm-1,11.8l0,-0.1l0,-0.1l0,-0.1l0.1,0l0,-0.1l0.1,0l0,-0.1l0.1,0l0.1,0l0,-0.1l0.1,0l0.1,0l0.1,-0.1l0.1,0l0.1,0l0.1,0l0.1,0l0.1,0l0.1,0l0.1,0.1l0.1,0l0.1,0l0,0.1l0.1,0l0.1,0l0,0.1l0.1,0l0,0.1l0.1,0l0,0.1l0,0.1l0,0.1Zm2,18.6l-2,0l0,-18.6l2,0Zm0,0l0,0.1l0,0.1l0,0.1l-0.1,0l0,0.1l-0.1,0l0,0.1l-0.1,0l-0.1,0.1l-0.1,0l-0.1,0l0,0.1l-0.1,0l-0.1,0l-0.1,0l-0.1,0l-0.1,0l-0.1,0l-0.1,0l-0.1,0l0,-0.1l-0.1,0l-0.1,0L149,953.6l-0.1,0l0,-0.1l-0.1,0l0,-0.1l-0.1,0l0,-0.1l0,-0.1l0,-0.1Z" class="g6_2" />
<path d="M701.5,863.3c1,0.1,2.1,0,3.1,-0.4" class="g8_2" />
<path d="M710.8,859.4c1,4.7,-8.8,9.4,-11.1,4.6c-0.1,-0.2,-0.2,-0.5,-0.3,-0.7" class="g8_2" />
<path d="M700.9,867.2c2.3,5.1,13.2,-0.5,10.9,-5.4" class="g8_2" />
<path d="M702.7,865.9c1.5,3.3,8.5,-0.3,7,-3.4" class="g8_2" />
<path d="M710.9,860.5c0.5,0.4,0.5,0.7,0.7,1.1c0,0,0.8,1.8,1.3,2.9c2.2,4.9,-8.5,10.4,-10.8,5.4c-0.8,-1.8,-1,-2.1,-1,-2.1c-0.2,-0.4,-0.5,-1.2,-0.2,-1.9" class="g8_2" />
<path d="M703.6,873c2.2,5.1,13.2,-0.4,11,-5.2" class="g8_2" />
<path d="M705.4,871.7c1.5,3.3,8.5,-0.2,7.1,-3.3" class="g8_2" />
<path d="M713.2,866.1c0.7,0.3,1,1,1.2,1.4c0,0,0.8,1.9,1.3,3c2.1,4.9,-8.7,10.2,-11,5.2c-0.8,-1.8,-0.9,-2.2,-0.9,-2.1c-0.2,-0.4,-0.5,-1.2,-0.2,-1.9" class="g8_2" />
<path d="M706.3,878.9c2,5.2,13.2,0.2,11.2,-4.7" class="g8_2" />
<path d="M708.2,877.7c1.3,3.4,8.5,0.2,7.2,-3" class="g8_2" />
<path d="M716.2,872.5c0.7,0.3,0.9,1,1.1,1.4c0,0,0.7,1.9,1.2,3c1.9,5,-9.1,9.9,-11.2,4.7c-0.7,-1.7,-0.8,-2.1,-0.8,-2.1c-0.2,-0.4,-0.4,-1.2,-0.1,-1.9" class="g8_2" />
<path d="M708.5,884.7c1.7,5.3,13.1,0.9,11.3,-4.2" class="g8_2" />
<path d="M710.4,883.6c1.1,3.4,8.5,0.6,7.3,-2.7" class="g8_2" />
<path d="M718.6,878.8c0.7,0.3,0.9,1,1.1,1.4c0,0,0.6,2,1,3.1c1.6,5.1,-9.6,9.4,-11.4,4.2c-0.6,-1.8,-0.7,-2.2,-0.7,-2.1c-0.2,-0.5,-0.4,-1.3,0,-2" class="g8_2" />
<path d="M710.4,890.6c1.7,5.3,13.1,1,11.4,-4.1" class="g8_2" />
<path d="M712.3,889.5c1.1,3.4,8.5,0.7,7.4,-2.6" class="g8_2" />
<path d="M720.7,884.7c0.6,0.4,0.8,1.1,1,1.5c0,0,0.6,2,0.9,3.1c1.7,5.1,-9.6,9.3,-11.4,4.1c-0.6,-1.9,-0.7,-2.3,-0.7,-2.2c-0.2,-0.4,-0.3,-1.2,0.1,-1.9" class="g8_2" />
<path d="M712.5,896.4c1.6,5.3,13.1,1.3,11.5,-3.8" class="g8_2" />
<path d="M714.5,895.4c1,3.4,8.4,0.8,7.4,-2.5" class="g8_2" />
<path d="M722.9,890.8c0.6,0.4,0.8,1.1,1,1.5c0,0,0.5,2,0.9,3.1c1.5,5.1,-9.9,9.1,-11.5,3.8c-0.6,-1.8,-0.7,-2.2,-0.7,-2.1c-0.2,-0.5,-0.3,-1.3,0.1,-2" class="g8_2" />
<path d="M714.3,902.4c1.4,5.4,13,1.6,11.5,-3.6" class="g8_2" />
<path d="M716.2,901.5c1,3.4,8.5,0.9,7.5,-2.4" class="g8_2" />
<path d="M724.7,897c0.6,0.4,0.8,1.1,1,1.5c0,0,0.5,2,0.8,3.2c1.4,5.1,-10,8.9,-11.5,3.6c-0.6,-1.9,-0.7,-2.3,-0.6,-2.2c-0.2,-0.4,-0.3,-1.2,0,-1.9" class="g8_2" />
<path d="M715.8,908.5c1.3,5.4,13,2,11.7,-3.2" class="g8_2" />
<path d="M717.8,907.6c0.8,3.5,8.4,1.3,7.5,-2.1" class="g8_2" />
<path d="M726.4,903.5c0.6,0.4,0.8,1.1,0.9,1.5c0,0,0.5,2,0.8,3.2c1.2,5.1,-10.4,8.5,-11.7,3.2c-0.5,-1.9,-0.6,-2.3,-0.5,-2.2c-0.2,-0.5,-0.3,-1.3,0.1,-1.9" class="g8_2" />
<path d="M717.3,914.7c1.3,5.4,13,2,11.7,-3.2" class="g8_2" />
<path d="M719.3,913.8c0.8,3.5,8.4,1.3,7.5,-2.1" class="g8_2" />
<path d="M727.9,909.7c0.6,0.4,0.8,1.1,0.9,1.5c0,0,0.5,2,0.8,3.2c1.2,5.2,-10.4,8.6,-11.7,3.2c-0.5,-1.9,-0.6,-2.3,-0.6,-2.2c-0.1,-0.4,-0.2,-1.3,0.2,-1.9" class="g8_2" />
<path d="M718.5,920.7c1.2,5.4,13,2.2,11.7,-3" class="g8_2" />
<path d="M720.5,919.8c0.8,3.5,8.4,1.5,7.6,-1.9" class="g8_2" />
<path d="M729.2,915.8c0.6,0.4,0.8,1.2,0.9,1.6c0,0,0.4,2,0.7,3.2c1.1,5.2,-10.5,8.4,-11.8,3c-0.4,-1.9,-0.5,-2.3,-0.5,-2.2c-0.1,-0.5,-0.2,-1.3,0.2,-1.9" class="g8_2" />
<path d="M719.4,926.6c0.8,5.5,12.8,2.9,11.8,-2.3" class="g8_2" />
<path d="M721.4,925.8c0.6,3.6,8.3,1.9,7.7,-1.5" class="g8_2" />
<path d="M730.4,922.4c0.5,0.4,0.7,1.1,0.7,1.6c0,0,0.4,2,0.5,3.2c0.9,5.2,-10.9,7.8,-11.8,2.3c-0.4,-1.9,-0.4,-2.3,-0.4,-2.2c-0.2,-0.5,-0.2,-1.3,0.3,-1.9" class="g8_2" />
<path d="M720.2,932.9c0.6,5.5,12.7,3.7,12.1,-1.6" class="g8_2" />
<path d="M722.3,932.2c0.4,3.6,8.2,2.4,7.8,-1" class="g8_2" />
<path d="M731.5,929.3c0.5,0.5,0.6,1.2,0.7,1.6c0,0,0.1,2.1,0.3,3.3c0.5,5.3,-11.4,7.1,-12,1.6c-0.2,-1.9,-0.3,-2.4,-0.3,-2.3c-0.1,-0.4,-0.1,-1.3,0.4,-1.9" class="g8_2" />
<path d="M721,939.1c0.4,5.6,12.6,4,12,-1.3" class="g8_2" />
<path d="M723.1,938.5c0.3,3.6,8.1,2.6,7.8,-0.8" class="g8_2" />
<path d="M732.3,935.8c0.5,0.4,0.6,1.2,0.7,1.6c0,0,0.1,2.1,0.2,3.3c0.4,5.3,-11.5,6.9,-12,1.3C721,940.2,721,939.7,721,939.8c-0.1,-0.4,-0.1,-1.3,0.4,-1.9" class="g8_2" />
<path d="M721.5,945.5c0.4,5.5,12.5,4,12,-1.3" class="g8_2" />
<path d="M723.6,944.9c0.3,3.6,8.1,2.6,7.8,-0.8" class="g8_2" />
<path d="M732.8,942.2c0.6,0.5,0.6,1.2,0.7,1.6c0,0,0.1,2.1,0.2,3.3c0.4,5.3,-11.6,6.8,-12,1.3c-0.2,-1.9,-0.2,-2.3,-0.2,-2.2c-0.1,-0.5,-0.1,-1.3,0.4,-1.9" class="g8_2" />
<path d="M721.8,951.9c0.3,5.5,12.5,4.1,12,-1.2" class="g8_2" />
<path d="M723.9,951.3c0.2,3.6,8.1,2.7,7.8,-0.8" class="g8_2" />
<path d="M733.1,948.7c0.5,0.4,0.6,1.2,0.6,1.6c0,0,0.2,2.1,0.2,3.3c0.4,5.3,-11.6,6.7,-12,1.2c-0.2,-1.9,-0.2,-2.3,-0.2,-2.2c-0.1,-0.5,0,-1.3,0.5,-1.9" class="g8_2" />
<path d="M722,957.7c0.1,5.6,12.3,4.6,12.1,-0.7" class="g8_2" />
<path d="M724.1,957.3c0.1,3.5,8,2.9,7.8,-0.5" class="g8_2" />
<path d="M733.4,955c0.5,0.5,0.6,1.2,0.6,1.6c0,0,0,2.1,0.1,3.3c0.1,5.3,-11.9,6.3,-12.1,0.7c-0.1,-1.9,-0.1,-2.3,-0.1,-2.2c-0.1,-0.5,0,-1.3,0.6,-1.8" class="g8_2" />
<path d="M721.9,963.9c-0.1,5.6,12.1,5.1,12.1,-0.3" class="g8_2" />
<path d="M724.1,963.5c-0.1,3.6,7.8,3.3,7.8,-0.2" class="g8_2" />
<path d="M733.5,961.6c0.4,0.5,0.4,1.3,0.5,1.7c0,0,-0.1,2.1,-0.1,3.2c-0.1,5.4,-12.1,5.9,-12.1,0.3c0,-1.9,0,-2.3,0,-2.2c-0.1,-0.5,0.1,-1.3,0.6,-1.9" class="g8_2" />
<path d="M721.7,970c-0.1,5.5,12.1,5.2,12.1,-0.1" class="g8_2" />
<path d="M723.9,969.6c-0.1,3.6,7.8,3.4,7.8,-0.1" class="g8_2" />
<path d="M733.3,967.8c0.5,0.6,0.5,1.3,0.5,1.7c0,0,-0.1,2.1,-0.1,3.3c-0.2,5.3,-12.2,5.6,-12.1,0.1c0,-1.9,0,-2.4,0,-2.3c0,-0.5,0.1,-1.3,0.7,-1.8" class="g8_2" />
<path d="M721.4,976.1c-0.3,5.5,11.9,5.6,12.1,0.3" class="g8_2" />
<path d="M723.6,975.8c-0.2,3.6,7.7,3.7,7.8,0.2" class="g8_2" />
<path d="M733.1,974.3c0.4,0.6,0.4,1.3,0.4,1.8c0,0,-0.2,2,-0.2,3.2c-0.3,5.3,-12.4,5.2,-12.1,-0.3c0.1,-1.9,0.1,-2.3,0.1,-2.2c-0.1,-0.5,0.1,-1.3,0.7,-1.8" class="g8_2" />
<path d="M721.1,982.5c-0.4,5.5,11.9,5.5,12.1,0.2" class="g8_2" />
<path d="M723.2,982.2c-0.2,3.5,7.7,3.6,7.9,0.1" class="g8_2" />
<path d="M732.7,980.6c0.5,0.6,0.4,1.3,0.4,1.8c0,0,-0.1,2,-0.2,3.2c-0.3,5.3,-12.3,5.3,-12.1,-0.2c0.1,-1.9,0.1,-2.4,0.1,-2.3c0,-0.5,0.1,-1.3,0.7,-1.8" class="g8_2" />
<path d="M720.6,988.4c-0.5,5.6,11.7,6,12.1,0.7" class="g8_2" />
<path d="M722.8,988.2c-0.3,3.6,7.6,3.9,7.8,0.4" class="g8_2" />
<path d="M732.3,987c0.5,0.6,0.4,1.3,0.4,1.8c0,0,-0.2,2,-0.3,3.2c-0.5,5.3,-12.6,4.9,-12.1,-0.7c0.1,-1.9,0.2,-2.3,0.2,-2.2c-0.1,-0.5,0.1,-1.3,0.7,-1.8" class="g8_2" />
<path d="M720.1,994.6c-0.5,5.6,11.7,6,12.1,0.7" class="g8_2" />
<path d="M722.3,994.4c-0.4,3.6,7.5,3.9,7.8,0.5" class="g8_2" />
<path d="M731.8,993.2c0.4,0.6,0.4,1.4,0.3,1.8c0,0,-0.2,2,-0.3,3.2c-0.4,5.3,-12.5,4.9,-12.1,-0.7c0.2,-1.9,0.2,-2.3,0.2,-2.2c0,-0.5,0.2,-1.3,0.8,-1.8" class="g8_2" />
<path d="M666,711.2c-0.1,0.2,-0.1,0.4,-0.1,0.6c-0.4,5,10.4,6.7,11.9,2.1" class="g8_2" />
<path d="M677.9,716.4c-0.4,5.6,-12.5,4.1,-12,-1.2" class="g8_2" />
<path d="M675.8,715.9c-0.2,3.6,-8.1,2.6,-7.8,-0.9" class="g8_2" />
<path d="M666.3,713.6c-0.3,0.5,-0.3,0.8,-0.3,1.2c0,0,-0.2,2.1,-0.3,3.3c-0.4,5.3,11.6,6.8,12.1,1.3c0.1,-1.9,0.2,-2.4,0.2,-2.3c0.1,-0.4,0,-1.3,-0.5,-1.9" class="g8_2" />
<path d="M677.4,722.8c-0.3,5.6,-12.5,4.2,-12.1,-1.1" class="g8_2" />
<path d="M675.3,722.3c-0.3,3.5,-8.1,2.7,-7.9,-0.8" class="g8_2" />
<path d="M666,719.7c-0.5,0.5,-0.6,1.2,-0.6,1.6c0,0,-0.1,2.1,-0.2,3.3c-0.3,5.3,11.7,6.6,12.1,1.1c0.1,-1.9,0.1,-2.3,0.1,-2.2c0.1,-0.5,0.1,-1.3,-0.5,-1.9" class="g8_2" />
<path d="M676.9,729.3c-0.1,5.5,-12.3,4.7,-12.1,-0.6" class="g8_2" />
<path d="M674.7,728.8c0,3.6,-7.9,3.1,-7.8,-0.4" class="g8_2" />
<path d="M665.4,726.6c-0.5,0.5,-0.5,1.3,-0.6,1.7c0,0,0,2.1,0,3.3c-0.1,5.3,11.9,6.1,12.1,0.6c0,-1.9,0,-2.3,0,-2.2c0.1,-0.5,0,-1.3,-0.5,-1.9" class="g8_2" />
<path d="M676.9,735.5c0.2,5.5,-12.1,5.3,-12.1,0" class="g8_2" />
<path d="M674.7,735.1c0.1,3.6,-7.8,3.5,-7.8,0" class="g8_2" />
<path d="M665.3,733.4c-0.5,0.5,-0.5,1.3,-0.5,1.7c0,0,0.1,2.1,0.1,3.3c0.2,5.3,12.3,5.5,12.1,0c0,-1.9,0,-2.3,0,-2.2c0,-0.5,-0.1,-1.3,-0.7,-1.9" class="g8_2" />
<path d="M677,741.7c0.3,5.5,-11.9,5.4,-12.1,0.1" class="g8_2" />
<path d="M674.9,741.3c0.1,3.6,-7.8,3.6,-7.9,0.1" class="g8_2" />
<path d="M665.4,739.7c-0.5,0.6,-0.4,1.3,-0.4,1.7c0,0,0.1,2.1,0.1,3.3c0.3,5.3,12.3,5.4,12.1,-0.1c0,-1.9,-0.1,-2.4,0,-2.3c0,-0.4,-0.1,-1.3,-0.7,-1.8" class="g8_2" />
<path d="M677.1,747.9c0.3,5.5,-11.9,5.7,-12.2,0.4" class="g8_2" />
<path d="M674.9,747.6c0.2,3.6,-7.7,3.7,-7.9,0.2" class="g8_2" />
<path d="M665.4,746.2c-0.5,0.5,-0.4,1.3,-0.4,1.7c0,0,0.1,2.1,0.2,3.3c0.4,5.3,12.4,5.1,12.1,-0.4c-0.1,-1.9,-0.1,-2.4,-0.1,-2.3c0,-0.5,-0.1,-1.3,-0.7,-1.8" class="g8_2" />
<path d="M677.5,754.1c0.5,5.6,-11.8,5.9,-12.1,0.6" class="g8_2" />
<path d="M675.3,753.9c0.3,3.6,-7.6,3.8,-7.8,0.4" class="g8_2" />
<path d="M665.8,752.6c-0.4,0.6,-0.4,1.4,-0.4,1.8c0,0,0.2,2,0.3,3.2c0.4,5.3,12.5,5,12.1,-0.6c-0.1,-1.9,-0.2,-2.3,-0.2,-2.2c0.1,-0.5,-0.1,-1.3,-0.7,-1.8" class="g8_2" />
<path d="M678.2,760.4c0.6,5.5,-11.6,6.3,-12.1,1" class="g8_2" />
<path d="M676,760.2c0.4,3.6,-7.5,4.1,-7.8,0.6" class="g8_2" />
<path d="M666.4,759.3c-0.4,0.5,-0.3,1.3,-0.3,1.7c0,0,0.3,2.1,0.4,3.3c0.6,5.2,12.7,4.5,12.1,-1.1c-0.2,-1.8,-0.3,-2.3,-0.3,-2.2c0,-0.5,-0.2,-1.3,-0.8,-1.7" class="g8_2" />
<path d="M678.9,766.7c0.6,5.5,-11.6,6.3,-12.1,1" class="g8_2" />
<path d="M676.7,766.5c0.4,3.6,-7.5,4.1,-7.8,0.7" class="g8_2" />
<path d="M667.1,765.6c-0.4,0.6,-0.3,1.4,-0.3,1.8c0,0,0.3,2,0.4,3.2c0.6,5.3,12.7,4.5,12.1,-1c-0.2,-1.9,-0.3,-2.3,-0.3,-2.2c0.1,-0.5,-0.1,-1.3,-0.8,-1.8" class="g8_2" />
<path d="M679.8,772.7c0.8,5.5,-11.4,6.6,-12,1.3" class="g8_2" />
<path d="M677.6,772.6c0.5,3.6,-7.4,4.2,-7.8,0.8" class="g8_2" />
<path d="M668.1,771.9c-0.5,0.5,-0.4,1.3,-0.3,1.7c0,0,0.3,2.1,0.4,3.2c0.7,5.3,12.8,4.3,12.1,-1.2C680,773.7,680,773.3,680,773.4c0,-0.5,-0.2,-1.3,-0.9,-1.7" class="g8_2" />
<path d="M681,778.6c1.1,5.4,-11,7.1,-12,1.9" class="g8_2" />
<path d="M678.8,778.6c0.7,3.5,-7.1,4.6,-7.7,1.2" class="g8_2" />
<path d="M669.2,778.4c-0.4,0.6,-0.2,1.3,-0.2,1.7c0,0,0.4,2.1,0.7,3.2c1,5.3,12.9,3.6,11.9,-1.9c-0.3,-1.8,-0.4,-2.3,-0.4,-2.2c0,-0.5,-0.3,-1.2,-0.9,-1.7" class="g8_2" />
<path d="M682.3,784.8c1.4,5.3,-10.6,7.8,-11.8,2.6" class="g8_2" />
<path d="M680.1,784.9c0.9,3.5,-6.8,5,-7.6,1.7" class="g8_2" />
<path d="M670.6,785.3c-0.4,0.6,-0.2,1.3,-0.1,1.7c0,0,0.5,2,0.8,3.2c1.3,5.1,13.2,2.7,11.8,-2.6c-0.4,-1.9,-0.6,-2.3,-0.5,-2.2c-0.1,-0.5,-0.4,-1.3,-1.1,-1.6" class="g8_2" />
<path d="M683.8,790.9c1.5,5.4,-10.5,8,-11.8,2.9" class="g8_2" />
<path d="M681.6,791.1c0.9,3.5,-6.8,5.2,-7.6,1.8" class="g8_2" />
<path d="M672,791.6c-0.3,0.7,-0.1,1.4,0,1.8c0,0,0.5,2,0.8,3.1c1.4,5.2,13.2,2.6,11.8,-2.8c-0.5,-1.8,-0.6,-2.2,-0.6,-2.2c0,-0.4,-0.4,-1.2,-1,-1.6" class="g8_2" />
<path d="M685.5,797.1c1.5,5.3,-10.4,8,-11.8,2.9" class="g8_2" />
<path d="M683.3,797.2c1,3.5,-6.7,5.3,-7.6,1.9" class="g8_2" />
<path d="M673.7,797.8c-0.3,0.7,-0.1,1.4,0,1.8c0,0,0.6,2,0.9,3.2c1.4,5.1,13.2,2.4,11.7,-2.9c-0.5,-1.9,-0.6,-2.3,-0.5,-2.2c-0.1,-0.5,-0.4,-1.2,-1.1,-1.6" class="g8_2" />
<path d="M687.4,803.2c1.6,5.3,-10.3,8.1,-11.7,2.9" class="g8_2" />
<path d="M685.3,803.3c1,3.5,-6.7,5.3,-7.6,2" class="g8_2" />
<path d="M675.7,804c-0.4,0.7,-0.1,1.4,-0.1,1.8c0,0,0.6,2,1,3.1c1.5,5.1,13.2,2.4,11.7,-3c-0.5,-1.8,-0.6,-2.2,-0.6,-2.1c-0.1,-0.5,-0.4,-1.3,-1.1,-1.6" class="g8_2" />
<path d="M689.2,808.7c1.8,5.3,-10,8.6,-11.6,3.5" class="g8_2" />
<path d="M687.1,809c1.1,3.4,-6.5,5.5,-7.5,2.2" class="g8_2" />
<path d="M677.5,810c-0.3,0.7,0,1.4,0.1,1.8c0,0,0.6,2,1,3.1c1.7,5.1,13.3,1.8,11.6,-3.4c-0.6,-1.9,-0.7,-2.2,-0.7,-2.2c0,-0.4,-0.4,-1.2,-1.1,-1.5" class="g8_2" />
<path d="M691.4,814.5c2,5.2,-9.6,8.9,-11.4,3.9" class="g8_2" />
<path d="M689.3,814.9c1.2,3.3,-6.3,5.7,-7.5,2.5" class="g8_2" />
<path d="M679.8,816.3c-0.3,0.6,0,1.3,0.1,1.7c0,0,0.7,2,1.2,3.1c1.8,5,13.3,1.3,11.4,-3.9c-0.6,-1.8,-0.8,-2.2,-0.7,-2.1c-0.2,-0.5,-0.5,-1.2,-1.3,-1.5" class="g8_2" />
<path d="M693.7,820.1c2,5.2,-9.6,9.1,-11.4,4.1" class="g8_2" />
<path d="M691.5,820.5c1.3,3.3,-6.1,5.9,-7.4,2.7" class="g8_2" />
<path d="M682,822.1c-0.2,0.7,0.1,1.4,0.2,1.8c0,0,0.8,1.9,1.2,3c2,4.9,13.4,1.1,11.4,-4.1c-0.7,-1.8,-0.9,-2.2,-0.8,-2.1c-0.1,-0.5,-0.5,-1.2,-1.3,-1.5" class="g8_2" />
<path d="M696.1,825.8c2.2,5.1,-9.2,9.3,-11.3,4.4" class="g8_2" />
<path d="M693.9,826.2c1.5,3.3,-5.9,6.1,-7.2,2.9" class="g8_2" />
<path d="M684.5,828.1c-0.2,0.7,0.1,1.4,0.2,1.8c0,0,0.9,1.9,1.3,3c2.2,4.9,13.5,0.6,11.3,-4.5c-0.7,-1.7,-0.9,-2.1,-0.9,-2c-0.1,-0.5,-0.5,-1.2,-1.3,-1.5" class="g8_2" />
<path d="M698.6,831.6c2.2,5.1,-9.3,9.4,-11.3,4.4" class="g8_2" />
<path d="M696.5,832.1c1.4,3.3,-6,6,-7.4,2.8" class="g8_2" />
<path d="M687,833.9c-0.2,0.7,0.1,1.4,0.2,1.8c0,0,0.8,1.9,1.3,3c2.1,4.9,13.4,0.7,11.3,-4.4c-0.7,-1.8,-0.9,-2.2,-0.9,-2.1c-0.1,-0.5,-0.5,-1.2,-1.2,-1.4" class="g8_2" />
<path d="M701.1,837.1c2.3,5,-9,9.6,-11.2,4.8" class="g8_2" />
<path d="M698.9,837.6c1.6,3.3,-5.8,6.3,-7.2,3.1" class="g8_2" />
<path d="M689.6,839.8c-0.2,0.6,0.1,1.3,0.2,1.7c0,0,0.9,1.9,1.4,3c2.3,4.8,13.5,0.2,11.2,-4.8c-0.8,-1.7,-1,-2.1,-1,-2c-0.1,-0.5,-0.6,-1.2,-1.3,-1.5" class="g8_2" />
<path d="M703.7,842.7c2.4,5,-8.9,9.7,-11.1,4.8" class="g8_2" />
<path d="M701.6,843.3c1.5,3.2,-5.8,6.2,-7.2,3.1" class="g8_2" />
<path d="M692.2,845.4c-0.2,0.7,0.1,1.4,0.3,1.8c0,0,0.9,1.8,1.4,2.9c2.3,4.8,13.4,0.3,11.1,-4.8c-0.8,-1.7,-1,-2.1,-0.9,-2c-0.2,-0.5,-0.6,-1.2,-1.4,-1.4" class="g8_2" />
<path d="M670.9,856.2c3.9,-4.6,7.6,-9.2,16.3,-5.4c8.8,3.8,19.8,1.4,21.4,-8.4c1.7,-9.8,8.2,-10.4,15,-9.9" class="g11_2" />
<path d="M676,867c4,-4.5,7.6,-9.1,16.4,-5.3c8.8,3.7,19.7,1.3,21.4,-8.5c1.6,-9.8,8.2,-10.3,15,-9.9" class="g11_2" />
<path fill-rule="evenodd" d="M528,1016l161,0l0,-22l-161,0Z" class="g19_2" />
<path d="M578,1026l-26,0" class="g20_2" />
<path d="M578,1041l-26,0" class="g20_2" />
<path d="M578,1059l-26,0" class="g20_2" />
<path d="M578,1059l-26,0" class="g21_2" />
<path d="M578,1041l-26,0" class="g22_2" />
<path d="M476.6,839.2l1.8,-7.1" class="g11_2" />
<path d="M480.4,842.1l4.6,-6.4" class="g11_2" />
<path d="M482.6,846.6l7.2,-5" class="g11_2" />
<path d="M483.5,851.3l8.2,-2.8" class="g11_2" />
<path d="M483,855l8,0" class="g11_2" />
<path d="M483.5,860.9l8.3,1.4" class="g11_2" />
<path d="M483.5,866.2l8.3,1.4" class="g11_2" />
<path d="M483.5,871.3l8.3,1.4" class="g11_2" />
<path d="M483.5,876.6l8.3,1.4" class="g11_2" />
<path d="M483.5,882.4l8.3,1.3" class="g11_2" />
<path d="M483.5,887.6l8.3,1.4" class="g11_2" />
<path d="M483.5,892.8l8.3,1.3" class="g11_2" />
<path d="M483.5,898l8.3,1.4" class="g11_2" />
<path d="M483.5,903.9l8.3,1.4" class="g11_2" />
<path d="M483.5,909.2l8.3,1.3" class="g11_2" />
<path d="M483.5,914.3l8.3,1.4" class="g11_2" />
<path d="M483.5,919.6l8.3,1.3" class="g11_2" />
<path d="M483.5,925.3l8.3,1.4" class="g11_2" />
<path d="M483.5,930.6l8.3,1.4" class="g11_2" />
<path d="M483.5,935.7l8.3,1.4" class="g11_2" />
<path d="M483.5,941l8.3,1.4" class="g11_2" />
<path d="M483.5,946.9l8.3,1.4" class="g11_2" />
<path d="M483.5,952.2l8.3,1.3" class="g11_2" />
<path d="M483.5,957.3l8.3,1.4" class="g11_2" />
<path d="M483.5,962.6l8.3,1.4" class="g11_2" />
<path d="M483.5,968.3l8.3,1.4" class="g11_2" />
<path d="M483.5,973.6l8.3,1.4" class="g11_2" />
<path d="M483.5,978.7l8.3,1.4" class="g11_2" />
<path d="M483.5,984l5.3,0.9" class="g11_2" />
<path fill-rule="evenodd" d="M404,171l126,0l0,1l-126,0Z" class="g6_2" />
<image x="102" y="102" width="114" height="39" xlink:href="img/1.png" />
</svg>