<?xml version="1.0" encoding="UTF-8" standalone="no"?>
<!DOCTYPE svg PUBLIC "-//W3C//DTD SVG 1.1//EN"
"http://www.w3.org/Graphics/SVG/1.1/DTD/svg11.dtd">
<svg version="1.1" xmlns="http://www.w3.org/2000/svg" xmlns:xlink="http://www.w3.org/1999/xlink">
<defs>
<style type="text/css"><![CDATA[
.g1_20{
fill: #231F20;
}
]]></style>
</defs>
<path d="M114.3,999.8c-3,5.3,-8.7,9,-16,11c6.7,-2.4,10.3,-6,12.2,-9.3c3.4,-5.6,2.9,-11.8,1,-15.5c-3.9,-7.5,-16,-8.2,-29.6,-7.2c15.4,-3.4,27.6,-1.3,32.4,5.9c2.9,4.4,2.9,10.1,0,15.1m-9.6,5c3.2,-4.1,4.2,-9.5,2.7,-14.6c-1.7,-6,-8.2,-9.6,-19.5,-10.6c13,-0.4,20,1.8,22.7,6.9c1.7,3.3,2.1,9.2,-1,14.4c-1.6,2.7,-4.3,5.6,-9,7.7c1.6,-1,2.9,-2.3,4.1,-3.8m10.5,-20.7c-5.7,-8.6,-21,-10.4,-40,-4.7c0,0,-0.1,0,-0.1,0c0,0.1,0,0.1,0,0.1c-0.1,0,-0.1,0,-0.1,0c0,0.1,0,0.1,0,0.1c-0.1,0,-0.1,0,-0.1,0c0,0.1,0,0.1,0,0.1l0,0.1c-0.1,0,-0.1,0,-0.1,0c0,0,0,0.1,0,0.1c0,0.1,0,0.1,0,0.1c0,0,0,0.1,0,0.1c0.1,0,0.1,0,0.1,0c0,0,0,0.1,0,0.1c0,0.1,0.1,0.1,0.1,0.1c0,0,0,0.1,0.1,0.1l0.1,0l0.1,0.1l0.1,0c12.7,-0.6,28.4,0.7,31,10c1.4,4.8,0.4,9.8,-2.6,13.7c-2.9,3.7,-7.4,6.1,-13,7.3c-2.6,0.3,-5.4,0.6,-8.5,0.6c-0.1,0,-0.1,0,-0.1,0c-0.2,0,-0.4,0.1,-0.4,0.3c0,0.1,0,0.1,-0.1,0.1c0,0.1,0,0.1,0,0.1c0,0,0,0.1,0,0.1l0,0.1c0.1,0,0.1,0,0.1,0.1c0,0.1,0.1,0.1,0.1,0.1c0,0.1,0,0.1,0.1,0.1c0.1,0.1,0.1,0.1,0.2,0.1l0.1,0c1.2,0.1,2.5,0.1,3.7,0.1c13.7,0,24.5,-4.7,29.2,-12.9c3.1,-5.4,3.1,-11.5,0,-16.3Z" class="g1_20" />
<path d="M75.6,1013.5c-0.3,0,-0.6,-0.3,-0.6,-0.6l0,-30.3c0,-0.3,0.3,-0.5,0.6,-0.5c0.3,0,0.5,0.2,0.5,0.5l0,30.3c0,0.3,-0.2,0.6,-0.5,0.6Z" class="g1_20" />
<path d="M77.7,1013.5c-0.3,0,-0.6,-0.3,-0.6,-0.6l0,-30.3c0,-0.3,0.3,-0.5,0.6,-0.5c0.3,0,0.5,0.2,0.5,0.5l0,30.3c0,0.3,-0.2,0.6,-0.5,0.6Z" class="g1_20" />
<path d="M79.8,1013.5c-0.3,0,-0.5,-0.3,-0.5,-0.6l0,-30.3c0,-0.3,0.2,-0.5,0.5,-0.5c0.3,0,0.5,0.2,0.5,0.5l0,30.3c0,0.3,-0.2,0.6,-0.5,0.6Z" class="g1_20" />
<path d="M62.1,1037c3.8,0,6.5,-2.8,6.5,-6.6c0,-3.8,-2.7,-6.6,-6.5,-6.6l-3.5,0l0,13.2ZM56,1021.9c0,-0.3,0.2,-0.5,0.5,-0.5l5.9,0c5,0,9.1,4,9.1,9c0,5,-4.1,9.1,-9.1,9.1l-5.9,0c-0.3,0,-0.5,-0.3,-0.5,-0.5Z" class="g1_20" />
<path d="M73.5,1021.9c0,-0.3,0.2,-0.5,0.5,-0.5l10.4,0c0.2,0,0.4,0.2,0.4,0.5l0,1.4c0,0.3,-0.2,0.5,-0.4,0.5l-8.2,0l0,5.3l6.9,0c0.2,0,0.5,0.2,0.5,0.5l0,1.4c0,0.3,-0.3,0.5,-0.5,0.5l-6.9,0l0,5.6l8.2,0c0.2,0,0.4,0.2,0.4,0.4l0,1.5c0,0.2,-0.2,0.5,-0.4,0.5l-10.4,0c-0.3,0,-0.5,-0.3,-0.5,-0.5Z" class="g1_20" />
<path d="M87.9,1022c0,-0.3,0.2,-0.6,0.6,-0.6l1.5,0c0.3,0,0.6,0.3,0.6,0.6l0,7.1l7.3,-7.5c0.1,-0.1,0.3,-0.2,0.5,-0.2l1.9,0c0.5,0,0.8,0.5,0.4,0.9l-7.5,7.6l7.9,8.7c0.2,0.3,0.1,0.9,-0.4,0.9l-2.1,0c-0.3,0,-0.4,-0.1,-0.5,-0.2l-7.5,-8.5l0,8c0,0.4,-0.3,0.7,-0.6,0.7l-1.5,0c-0.4,0,-0.6,-0.3,-0.6,-0.7Z" class="g1_20" />
<path d="M103.4,1022c0,-0.3,0.3,-0.6,0.6,-0.6l1.5,0c0.4,0,0.7,0.3,0.7,0.6l0,7.1l7.2,-7.5c0.1,-0.1,0.3,-0.2,0.5,-0.2l2,0c0.4,0,0.7,0.5,0.3,0.9l-7.4,7.6l7.9,8.7c0.2,0.3,0,0.9,-0.5,0.9l-2.1,0c-0.2,0,-0.4,-0.1,-0.4,-0.2l-7.5,-8.5l0,8c0,0.4,-0.3,0.7,-0.7,0.7l-1.5,0c-0.3,0,-0.6,-0.3,-0.6,-0.7Z" class="g1_20" />
<path d="M125.6,1037.2c3.7,0,6.7,-3.1,6.7,-6.8c0,-3.6,-3,-6.8,-6.7,-6.8c-3.6,0,-6.7,3.2,-6.7,6.8c0,3.7,3.1,6.8,6.7,6.8m0,-16.1c5.2,0,9.3,4.2,9.3,9.3c0,5.2,-4.1,9.3,-9.3,9.3c-5.1,0,-9.2,-4.1,-9.2,-9.3c0,-5.1,4.1,-9.3,9.2,-9.3Z" class="g1_20" />
</svg>