<?xml version="1.0" encoding="UTF-8" standalone="no"?>
<!DOCTYPE svg PUBLIC "-//W3C//DTD SVG 1.1//EN"
"http://www.w3.org/Graphics/SVG/1.1/DTD/svg11.dtd">
<svg version="1.1" xmlns="http://www.w3.org/2000/svg" xmlns:xlink="http://www.w3.org/1999/xlink">
<defs>
<clipPath id="c0_1"><path d="M210.4,1088.4c-56.7,0,-102.7,-46,-102.7,-102.7C107.7,929,153.7,883,210.4,883c56.7,0,102.7,46,102.7,102.7c0,56.7,-46,102.7,-102.7,102.7Z" /></clipPath>
<style type="text/css"><![CDATA[
.g19_1{
fill: #B3B3B3;
stroke: #000000;
stroke-width: 1;
stroke-linecap: round;
stroke-linejoin: round;
stroke-miterlimit: 2;
}
.g16_1{
fill: #636363;
}
.g20_1{
fill: #E6E6E6;
stroke: #000000;
stroke-width: 1;
stroke-linecap: round;
stroke-linejoin: round;
stroke-miterlimit: 2;
}
.g22_1{
fill: none;
stroke: #000000;
stroke-width: 4;
stroke-linecap: round;
stroke-linejoin: round;
stroke-miterlimit: 2;
}
.g17_1{
fill: none;
stroke: #FFFFFF;
stroke-width: 4;
stroke-linecap: round;
stroke-linejoin: round;
stroke-miterlimit: 2;
}
.g2_1{
fill: none;
stroke: #FFFFFF;
stroke-width: 3;
stroke-linecap: round;
stroke-linejoin: miter;
stroke-miterlimit: 2;
}
.g18_1{
fill: #999999;
stroke: #000000;
stroke-width: 2;
stroke-linecap: round;
stroke-linejoin: round;
stroke-miterlimit: 2;
}
.g15_1{
fill: #D4D4D4;
}
.g3_1{
fill: #FFFFFF;
stroke: #000000;
stroke-width: 2;
stroke-linecap: butt;
stroke-linejoin: miter;
stroke-miterlimit: 2;
}
.g12_1{
fill: #999999;
}
.g14_1{
fill: #636363;
stroke: #000000;
stroke-width: 1;
stroke-linecap: round;
stroke-linejoin: round;
stroke-miterlimit: 2;
}
.g1_1{
fill: #B3B3B3;
}
.g7_1{
fill: #636363;
stroke: #000000;
stroke-width: 1;
stroke-linecap: butt;
stroke-linejoin: miter;
stroke-miterlimit: 2;
}
.g9_1{
fill: none;
stroke: #000000;
stroke-width: 2;
stroke-linecap: round;
stroke-linejoin: round;
stroke-miterlimit: 2;
}
.g13_1{
fill: #FFFFFF;
stroke: #FFFFFF;
stroke-width: 2;
stroke-linecap: round;
stroke-linejoin: round;
stroke-miterlimit: 2;
}
.g23_1{
fill: #CCCCCC;
}
.g5_1{
fill: none;
stroke: #000000;
stroke-width: 2;
stroke-linecap: butt;
stroke-linejoin: miter;
stroke-miterlimit: 2;
}
.g10_1{
fill: #808080;
stroke: #000000;
stroke-width: 1;
stroke-linecap: round;
stroke-linejoin: round;
stroke-miterlimit: 2;
}
.g21_1{
fill: none;
stroke: #000000;
stroke-width: 1;
stroke-linecap: round;
stroke-linejoin: round;
stroke-miterlimit: 2;
stroke-dasharray: 2,3;
}
.g4_1{
fill: none;
stroke: #000000;
stroke-width: 1;
stroke-linecap: butt;
stroke-linejoin: miter;
stroke-miterlimit: 2;
}
.g11_1{
fill: #FFFFFF;
}
.g6_1{
}
.g8_1{
fill: none;
stroke: #000000;
stroke-width: 1;
stroke-linecap: round;
stroke-linejoin: round;
stroke-miterlimit: 2;
}
]]></style>
</defs>
<path fill-rule="evenodd" d="M55,54l824,0l0,1101l-824,0Z" class="g1_1" />
<path d="M55.5,256.5l27,0" class="g2_1" />
<path d="M55.5,430.5l27,0" class="g2_1" />
<path d="M55.5,605.5l27,0" class="g2_1" />
<path d="M55.5,779.5l27,0" class="g2_1" />
<path d="M55.5,953.5l27,0" class="g2_1" />
<path d="M852.5,256.5l28,0" class="g2_1" />
<path d="M852.5,605.5l28,0" class="g2_1" />
<path d="M852.5,779.5l28,0" class="g2_1" />
<path d="M852.5,953.5l28,0" class="g2_1" />
<path d="M236.5,82.5l0,-27" class="g2_1" />
<path d="M390.5,82.5l0,-27" class="g2_1" />
<path d="M544.5,82.5l0,-27" class="g2_1" />
<path d="M698.5,82.5l0,-27" class="g2_1" />
<path d="M236.5,1155.5l0,-28" class="g2_1" />
<path d="M390.5,1155.5l0,-28" class="g2_1" />
<path d="M544.5,1155.5l0,-28" class="g2_1" />
<path d="M698.5,1155.5l0,-28" class="g2_1" />
<path fill-rule="evenodd" d="M82,82l770,0l0,1045l-770,0Z" class="g3_1" />
<path d="M184.5,209.5l646,0" class="g4_1" />
<path d="M103.5,278.5l727,0" class="g4_1" />
<path d="M82,1097l770,0" class="g5_1" />
<path d="M466.5,1099.5l0,28" class="g4_1" />
<path d="M468.5,1099.5l0,28" class="g4_1" />
<path d="M272.5,1099.5l0,28" class="g4_1" />
<path d="M274.5,1099.5l0,28" class="g4_1" />
<path d="M664.5,1099.5l0,28" class="g4_1" />
<path d="M666.5,1099.5l0,28" class="g4_1" />
<path fill-rule="evenodd" d="M106,289l37,0l0,38l-37,0Z" class="g6_1" />
<path fill-rule="evenodd" d="M103.5,287.5l38,0l0,37l-38,0Z" class="g7_1" />
<path d="M103.5,673.5l727,0" class="g4_1" />
<path d="M274.5,1099.5l192,0" class="g8_1" />
<path d="M468.5,1099.5l196,0" class="g8_1" />
<path d="M666.5,1099.5l186,0" class="g8_1" />
<path d="M272.5,1099.5l-190,0" class="g8_1" />
<path d="M467.5,673.5l0,-395" class="g4_1" />
<path fill-rule="evenodd" d="M479,289l37,0l0,38l-37,0Z" class="g6_1" />
<path fill-rule="evenodd" d="M477.5,287.5l37,0l0,37l-37,0Z" class="g7_1" />
<path d="M852.5,430.5l28,0" class="g2_1" />
<path fill-rule="evenodd" d="M106,683l37,0l0,38l-37,0Z" class="g6_1" />
<path fill-rule="evenodd" d="M103.5,681.5l38,0l0,38l-38,0Z" class="g7_1" />
<path d="M189.8,220.3c0.1,-0.1,0.3,-0.2,0.4,-0.3" class="g8_1" />
<path d="M190.2,220c0.3,-0.1,0.7,-0.1,1.1,-0.1c0.6,0.2,1.2,0.5,2,1.1c6.3,-1.6,12.2,-2.7,18.1,-3.4c5.8,-0.5,11.2,-0.6,16.5,-0.2" class="g8_1" />
<path d="M228.6,217.7c-0.3,-0.5,-0.9,-0.9,-1.7,-1.2c-0.8,-0.2,-1.8,-0.4,-3,-0.4c-7.2,-0.2,-13.6,0.1,-19.2,0.7c-5.6,0.7,-10.5,1.8,-14.5,3.2" class="g9_1" />
<path d="M187.3,228.5c1,0.7,2.1,1.4,3.2,2c1.1,0.6,2.2,1.1,3.4,1.5c3.8,-0.5,7.6,-1,11.4,-1.4" class="g8_1" />
<path d="M205.3,230.6c0.3,-0.1,0.6,-0.1,0.9,-0.2c0,-0.4,0,-0.9,0,-1.4c-0.4,-0.3,-0.7,-0.6,-0.9,-0.9c-0.1,-0.3,-0.2,-0.5,-0.2,-0.8c0.2,-1.2,0.7,-2.1,1.3,-2.7c0.7,-0.6,1.6,-1,2.7,-1c1.3,-0.1,2.2,-0.1,3,0c0.7,0.2,1.1,0.5,1.2,0.9c0.9,-0.1,2,-0.2,3.3,-0.4c1.4,-0.3,3,-0.6,4.7,-1.1c1.1,-0.3,1.9,-0.3,2.5,0.1" class="g9_1" />
<path d="M223.8,223.1c0.6,0.4,0.9,1.2,1,2.4c0.1,1,0.2,2.1,0.3,3.2" class="g8_1" />
<path d="M189.8,220.3c-0.4,2,-0.8,3.9,-1.3,5.9c0,0.3,-0.2,0.5,-0.4,0.6c-0.2,0.2,-0.4,0.2,-0.7,0.2c0,0.5,-0.1,1,-0.1,1.5" class="g9_1" />
<path d="M193.3,221.1c-0.1,2.4,-0.1,4.9,-0.2,7.4c0,0.3,0.1,0.7,0.2,1c0.2,0.4,0.4,0.7,0.7,1.1" class="g8_1" />
<path d="M194.1,230.6l12.1,-1.5" class="g8_1" />
<path d="M194.1,230.6L193.5,243" class="g8_1" />
<path d="M225.1,228.7c0,1,0.2,1.7,0.5,2.2c0.3,0.4,0.9,0.6,1.5,0.6" class="g8_1" />
<path d="M222.2,222.9c0.2,1.3,0.4,2.6,0.6,3.9c0.1,0.9,0,1.6,-0.4,2.1c-0.4,0.6,-1.2,0.9,-2.2,1.1c-4.1,0.7,-8.3,1.5,-12.5,2.2" class="g9_1" />
<path d="M224.4,230.2l-1.6,-1" class="g8_1" />
<path fill-rule="evenodd" d="M195.2,222.9c-0.1,0.5,0.1,1,0.5,1c0.3,0.1,0.6,-0.2,0.7,-0.7c0.1,-0.5,-0.1,-1,-0.4,-1c-0.3,-0.1,-0.7,0.3,-0.8,0.7Z" class="g10_1" />
<path fill-rule="evenodd" d="M194.8,228.1c0,0.5,0.1,0.9,0.5,1c0.3,0,0.6,-0.3,0.7,-0.8c0.1,-0.5,-0.1,-0.9,-0.4,-1c-0.3,-0.1,-0.7,0.3,-0.8,0.8Z" class="g10_1" />
<path fill-rule="evenodd" d="M205,222.4c-0.1,0.5,0.1,1,0.4,1.1c0.3,0,0.7,-0.3,0.8,-0.8c0.1,-0.5,-0.1,-0.9,-0.4,-1c-0.4,-0.1,-0.7,0.3,-0.8,0.7Z" class="g10_1" />
<path d="M227.2,222.3c0,-1,-0.3,-1.6,-0.9,-2.1c-0.7,-0.4,-1.7,-0.6,-3.1,-0.5c-1.7,-0.1,-3.8,-0.1,-6.5,0c-2.6,0.1,-5.7,0.3,-9.4,0.6c-1.2,0.1,-2.1,0.5,-2.6,1.1c-0.5,0.7,-0.7,1.5,-0.5,2.8c0.2,0.8,0.4,1.5,0.5,2.2" class="g8_1" />
<path d="M205.6,225.9c0.7,-0.1,1.5,0,2.1,0.2c0.7,0.3,1.3,0.7,1.8,1.3c0.5,-0.9,0.9,-1.8,1.3,-2.6" class="g9_1" />
<path d="M208.2,223.7c1.2,0.2,2.1,0.6,2.6,1.1c0.6,0.4,1,1,1.1,1.6" class="g8_1" />
<path d="M211.9,226.4c0.2,-0.5,0.4,-1,0.6,-1.3c0.3,-0.3,0.6,-0.5,0.9,-0.6" class="g9_1" />
<path d="M211.9,226.4l-1.4,-0.8" class="g9_1" />
<path d="M209.5,227.4l-1.7,-0.9" class="g8_1" />
<path d="M207,225.9c0.3,0.2,0.6,0.5,0.9,0.7" class="g8_1" />
<path d="M208,248.3c0.3,-0.2,0.7,-0.5,1,-0.7c7.2,-1.6,14.5,-3.3,21.7,-4.9c0,0,1.9,-1.2,2.3,-2.7c0,-1.8,0.1,-3.6,0.1,-5.4c-0.3,-2.4,-2.3,-4,-2.3,-4c-0.3,-0.4,-0.3,-0.6,-0.4,-0.9c-0.2,-0.3,-0.3,-0.8,-0.4,-1.2c0,0,-1.4,-10.7,-1.4,-10.7" class="g9_1" />
<path d="M205.3,230.6c0.2,3.8,0.1,8.2,-0.1,13.1c-0.3,4.9,-0.8,10.3,-1.5,16.2" class="g9_1" />
<path d="M203.7,259.9l-3.1,0.7" class="g8_1" />
<path d="M233,234.7l-23.9,4.9" class="g8_1" />
<path d="M209.1,239.6c0,-1.1,0,-2.3,0,-3.5c0,-0.1,0,-0.1,-0.1,-0.2c0,0,-0.1,-0.1,-0.2,-0.1c-0.3,-0.1,-0.5,-0.2,-0.6,-0.4c-0.2,-0.2,-0.3,-0.5,-0.3,-0.8c0,-1.1,-0.2,-2.1,-0.5,-2.9c-0.3,-0.9,-0.7,-1.6,-1.2,-2.1" class="g9_1" />
<path d="M233,240l-28,5.9" class="g8_1" />
<path d="M205,245.9c0.2,-0.1,0.3,-0.2,0.3,-0.3c0.1,-0.1,0.2,-0.2,0.2,-0.4c0,-1.6,0.1,-3.2,0.2,-4.8c0,-1.2,0,-2.4,0,-3.6c0,0,-0.1,-0.1,-0.1,-0.1c0,-0.1,-0.1,-0.1,-0.2,-0.2" class="g8_1" />
<path d="M208.9,236l-3.1,0.7" class="g8_1" />
<path d="M207.8,235.4l-2.2,0.5" class="g8_1" />
<path d="M216.8,230.7c1.6,0.1,2.9,0.7,3.8,1.6c0.9,0.9,1.5,2.3,1.8,4c0,0.1,0.1,0.3,0.1,0.3c0.1,0.1,0.1,0.2,0.2,0.2" class="g8_1" />
<path d="M222.3,242.3c-0.2,0.7,-0.7,1.3,-1.3,1.8c-0.7,0.6,-1.7,1.1,-2.9,1.4" class="g8_1" />
<path d="M222.8,236.8l-0.1,5.3" class="g8_1" />
<path d="M227.7,231.3l2.2,-0.5" class="g8_1" />
<path d="M225,230.9c0,0.3,-0.2,0.6,-0.4,0.7c-0.1,0.2,-0.4,0.3,-0.7,0.3c-0.7,0.2,-1.4,0.3,-2.2,0.5" class="g8_1" />
<path d="M220.1,232.8l-11.3,2" class="g8_1" />
<path d="M202.2,231.1c0.2,3.8,0.1,8.2,-0.1,13.1c-0.3,4.9,-0.8,10.4,-1.5,16.4" class="g8_1" />
<path d="M203.9,258.8l2.9,-0.7" class="g8_1" />
<path d="M206.8,258.1c0.4,-1.1,0.8,-2.4,1,-3.8c0.2,-1.4,0.3,-3.1,0.3,-4.8c-0.1,-0.7,-0.1,-1.4,0,-2c0.1,-0.6,0.4,-1.1,0.7,-1.5" class="g9_1" />
<path d="M209.5,247.6c0.8,0.3,1.4,1.6,1.5,3.2c0.2,1.9,-0.4,3.6,-1.4,3.6c-0.6,0.3,-1.2,0.5,-1.9,0.8" class="g9_1" />
<path d="M210.9,252.9l7.2,4.3" class="g9_1" />
<path d="M218.1,257.2l-25.3,6.2" class="g8_1" />
<path d="M192.8,263.4l-4.3,-2.9" class="g8_1" />
<path d="M190.6,271.7l-0.2,-0.1" class="g8_1" />
<path d="M193.8,251.7l0,1.6l-2.8,0.5l-1.1,-0.5" class="g9_1" />
<path d="M187.6,252.1c0,-1.7,0,-3.4,0,-5.1c-0.1,-0.8,-0.2,-1.7,-0.2,-2.6c0,-0.9,-0.1,-2,-0.1,-3c0,-0.2,-0.1,-0.5,-0.1,-0.6c-0.1,-0.2,-0.1,-0.4,-0.2,-0.5c-0.1,-0.1,-0.2,-0.2,-0.3,-0.4c0,-0.2,-0.1,-0.4,-0.1,-0.7c0.1,-1.1,0.1,-2.5,0.2,-4.3c0.1,-1.8,0.3,-3.9,0.4,-6.4" class="g9_1" />
<path d="M190.9,253.8c0,-1.7,0,-3.3,0,-5c0.3,-0.7,0.5,-1.5,0.7,-2.3c0.2,-0.9,0.4,-1.8,0.5,-2.7c0.1,-0.2,0.2,-0.4,0.2,-0.5" class="g8_1" />
<path d="M192.3,243.3c0.2,-0.1,0.3,-0.1,0.5,-0.1c0.2,0.1,0.4,0.2,0.6,0.2c0.3,0.1,0.5,0.1,0.9,0" class="g9_1" />
<path d="M187.6,247l3.4,1.7l7.3,-1l1.4,-4.5" class="g8_1" />
<path d="M187.6,252.1l0.8,0.4l1.3,-0.1" class="g9_1" />
<path d="M187.1,259.4L183,256.7" class="g8_1" />
<path d="M188.5,252.5l0,-1" class="g8_1" />
<path d="M189,253l0,-1" class="g9_1" />
<path d="M188.4,251.6c0.1,-0.4,0.3,-0.7,0.6,-0.8" class="g8_1" />
<path d="M189,250.8c0.3,-0.1,0.7,0.4,0.9,1c0,0.2,0,0.4,0,0.5" class="g9_1" />
<path d="M200.4,259.7L199,260" class="g8_1" />
<path d="M199,260c0.3,-2.7,0.6,-5.5,0.8,-8.2c0.2,-2.7,0.3,-5.4,0.3,-8.1c0,-0.2,-0.1,-0.5,-0.2,-0.8" class="g8_1" />
<path d="M199.9,242.9c-0.3,0,-0.6,0,-1,0c-1.5,0.1,-3.1,0.3,-4.6,0.5" class="g9_1" />
<path d="M199,260l-1.2,-0.8" class="g8_1" />
<path d="M198.3,247.7c0,0.7,0,2.1,-0.1,4c-0.1,1.9,-0.2,4.4,-0.4,7.5" class="g8_1" />
<path d="M200.6,260.6c-0.1,0,-0.2,-0.1,-0.3,-0.1c0,0,-0.1,-0.1,-0.1,-0.1" class="g8_1" />
<path d="M201.9,231c0.1,3.8,0.1,8,-0.2,12.9c-0.2,5,-0.7,10.4,-1.4,16.4" class="g8_1" />
<path d="M213.7,256.3l-3.5,-2.1" class="g8_1" />
<path d="M209.7,257.2l-2.2,-1.3" class="g8_1" />
<path d="M212.3,256.8l-3.4,-2.1" class="g9_1" />
<path d="M208.2,257.6l-1,-0.6" class="g9_1" />
<path d="M213.7,256.4l-1.4,0.4" class="g9_1" />
<path d="M209.8,257.3l-1.6,0.4" class="g9_1" />
<path fill-rule="evenodd" d="M230.4,232.6c0.3,0.6,0.2,1.1,0,1.3c-0.3,0.1,-0.8,-0.2,-1.1,-0.7c-0.3,-0.6,-0.3,-1.2,0,-1.3c0.3,-0.2,0.8,0.2,1.1,0.7Z" class="g10_1" />
<path d="M187.1,259.4l3.2,-0.7" class="g8_1" />
<path d="M192.1,258.3l0.9,-0.2" class="g8_1" />
<path d="M193.8,251.7c0,-0.2,0.1,-0.4,0.1,-0.6c0.3,-0.8,1,-1.3,1.7,-1.1" class="g9_1" />
<path d="M195.6,250c0.4,0.1,0.7,0.6,0.7,1.1c0.1,2,0.2,4,0.4,6.1c0,0.4,0.2,0.8,0.3,1.1c0.2,0.2,0.5,0.4,0.8,0.5" class="g8_1" />
<path d="M197.2,258.5L193.5,256" class="g8_1" />
<path d="M192.2,254.4c0.6,0.2,1.2,0.6,1.2,1" class="g9_1" />
<path d="M193.4,255.4c0,0.5,-1,1,-2.3,1c-1.3,0,-2.3,-0.5,-2.3,-1" class="g8_1" />
<path d="M188.8,255.4c0,-0.4,0.6,-0.8,1.3,-1" class="g9_1" />
<path d="M188.5,255.5l0,1" class="g8_1" />
<path d="M189,257.3c0.4,0.4,1.2,0.6,2.1,0.6c0.6,0,1.2,-0.1,1.6,-0.3" class="g9_1" />
<path d="M193.5,256.5l0,-1" class="g8_1" />
<path d="M190.1,253.3c0,0.7,0,1.3,0,2c0,0.3,0.4,0.5,1,0.5c0.6,0,1.1,-0.2,1.1,-0.5c0,-0.6,0,-1.1,0,-1.7" class="g8_1" />
<path d="M190,257l0,3" class="g9_1" />
<path d="M192.5,257.5l0,2" class="g8_1" />
<path d="M190.5,263.5l0,8" class="g8_1" />
<path d="M192.2,263.7l0,5.7l-1.6,2.4" class="g9_1" />
<path d="M192.9,258.1c0.2,0,0.4,-0.1,0.7,-0.1c0.8,0,1.4,0.3,1.4,0.6" class="g8_1" />
<path d="M190.5,257.5l0,2" class="g8_1" />
<path d="M190,263l0,8" class="g9_1" />
<path d="M211.3,225.2c0.1,0.2,0.2,0.5,0.2,0.7" class="g8_1" />
<path d="M211.4,225.9l-0.9,-0.5" class="g8_1" />
<path d="M189,256c0.2,0,0.4,0.2,0.5,0.6c0.1,0.3,-0.1,0.6,-0.3,0.7" class="g8_1" />
<path d="M188.4,256.2c0.2,-0.1,0.5,0.2,0.5,0.5c0.1,0.4,0,0.7,-0.3,0.7" class="g8_1" />
<path d="M193.1,256.4c-0.3,-0.2,-0.7,-0.1,-0.9,0.2c-0.2,0.3,-0.1,0.6,0.1,0.8" class="g8_1" />
<path d="M192.8,257.7c0.2,0.1,0.6,0,0.8,-0.2c0.2,-0.3,0.1,-0.7,-0.1,-0.9" class="g9_1" />
<path d="M193.5,256.6c-0.2,-0.1,-0.6,0,-0.8,0.3c-0.2,0.3,-0.2,0.6,0.1,0.8" class="g8_1" />
<path d="M193.5,256.7l-0.4,-0.3" class="g8_1" />
<path d="M192.7,257.6l-0.4,-0.2" class="g8_1" />
<path d="M192.8,263.3l-3,-1l-4.3,-2.9" class="g8_1" />
<path d="M187.1,259.4l-3,-1l-4.2,-2.8" class="g8_1" />
<path d="M213.3,256.5l-3.6,-2.1" class="g8_1" />
<path d="M209.3,257.4l-1.9,-1.2" class="g8_1" />
<path d="M189.8,262.3l-0.2,0.4" class="g8_1" />
<path d="M184.1,258.4l-0.2,0.4" class="g8_1" />
<path d="M218.1,257.2c0,0.2,0,0.3,0,0.5c-8.4,2,-16.9,4,-25.3,6.1c-1,-0.3,-2.1,-0.7,-3.2,-1c-1.4,-1,-2.9,-2,-4.3,-3c0,-0.1,0.1,-0.2,0.2,-0.4c1,0.3,2,0.6,3,1c2,-0.4,3.9,-0.8,5.9,-1.3c0.3,-0.1,0.6,-0.3,0.6,-0.5" class="g9_1" />
<path d="M188.7,255.4l-5.7,1.3l0,-0.1l-3,-1l-0.1,0.1l-0.2,0.4l4.1,2.8l1.6,0.5" class="g9_1" />
<path d="M187.1,259.9l3.2,-0.8" class="g8_1" />
<path d="M192.2,258.7c0.2,-0.1,0.5,-0.1,0.8,-0.2c0.1,0,0.4,-0.1,0.6,-0.1c0.6,0,1,0.2,1.2,0.3" class="g8_1" />
<path d="M189.2,257.3c-0.2,0,-0.3,0.1,-0.5,0.1l-0.1,0c-0.2,0.1,-0.4,-0.2,-0.5,-0.5c-0.1,-0.4,0.1,-0.7,0.3,-0.7c0,0,-0.1,-0.1,-0.1,-0.1c0.2,0,0.5,0,0.7,-0.1" class="g9_1" />
<path d="M229.3,237.3l0.7,-0.2l0,-0.7" class="g8_1" />
<path d="M230,237.1l0.2,0.1" class="g8_1" />
<path d="M230.5,236.9l0.7,-0.1l0,-0.7" class="g8_1" />
<path d="M231.2,236.8l0.2,0.1" class="g8_1" />
<path d="M231.8,236.7l0.6,-0.2l0,-0.7" class="g8_1" />
<path d="M232.4,236.5l0.2,0.2" class="g8_1" />
<path d="M231.8,238l0.6,-0.2l0,-0.6" class="g8_1" />
<path d="M232.4,237.9l0.2,0.1" class="g8_1" />
<path d="M231.8,239.4l0.6,-0.2l0,-0.7" class="g8_1" />
<path d="M232.4,239.2l0.2,0.2" class="g8_1" />
<path d="M230.5,239.6l0.7,-0.1l0,-0.7" class="g8_1" />
<path d="M231.2,239.5l0.2,0.1" class="g8_1" />
<path d="M230.5,238.3l0.6,-0.2l0,-0.7" class="g8_1" />
<path d="M231.2,238.2l0.2,0.1" class="g8_1" />
<path d="M229.3,238.6l0.7,-0.2l0,-0.7" class="g8_1" />
<path d="M230,238.4l0.2,0.2" class="g8_1" />
<path d="M229.3,239.9l0.6,-0.1l0,-0.7" class="g8_1" />
<path d="M229.9,239.8l0.2,0.1" class="g8_1" />
<path d="M194.3,229.7l10.6,-1.2" class="g8_1" />
<path fill-rule="evenodd" d="M268.3,247.2c11.4,-6.5,22.8,-13.1,34.2,-19.8c0.4,-0.5,0.9,-1.1,1.3,-1.7c0.2,-0.2,0.2,-0.4,0.2,-0.5C303.9,225,303.7,225,303.5,225c-0.8,0,-1.5,0.1,-2.3,0.2c-11.3,6.5,-22.6,13.1,-33.9,19.6c0.3,0.8,0.6,1.6,1,2.4Z" class="g11_1" />
<path d="M259.9,252.1c14.2,-8.3,28.4,-16.5,42.6,-24.7c0.4,-0.5,0.9,-1.1,1.3,-1.7c0.2,-0.2,0.2,-0.4,0.2,-0.5C303.9,225,303.7,225,303.5,225c-0.8,0,-1.5,0.1,-2.3,0.2C287.1,233.3,273,241.4,259,249.6" class="g9_1" />
<path d="M301.8,227.3c0.2,-0.5,0.5,-0.8,0.8,-1.1c0.3,-0.3,0.7,-0.5,1.2,-0.6" class="g8_1" />
<path d="M300.8,225.9c0.5,0,1.1,-0.1,1.5,-0.3c0.5,-0.1,0.9,-0.3,1.3,-0.6" class="g8_1" />
<path fill-rule="evenodd" d="M271.6,238.4c-0.7,0.3,-1.3,0.7,-1.9,1.1c-0.4,0.2,-0.7,0.5,-0.9,0.8c-0.2,0.3,-0.4,0.7,-0.5,1.2c0,0.3,0,0.5,-0.1,0.6c-0.1,0.1,-0.3,0.2,-0.5,0.1c-0.6,-0.5,-1.4,-0.8,-2,-0.8c-0.6,-0.1,-1.4,0,-2,0.3c-6.8,3.9,-13.7,7.9,-20.5,11.8c-1.5,1.5,-2.4,2.9,-2.6,4.3c-0.2,1.5,0.2,2.9,1.1,4.2c1.2,1.4,2.6,2.3,3.9,2.5c1.4,0.2,3,-0.1,4.6,-1.1c6.4,-3.7,12.8,-7.4,19.2,-11.1c0.7,-0.6,1.2,-1.2,1.5,-1.9c0.3,-0.6,0.4,-1.4,0.4,-2.1c0,-0.3,0.2,-0.5,0.3,-0.6c0.1,0,0.3,0.1,0.5,0.3c0.4,0.2,0.8,0.4,1.1,0.4c0.4,0,0.8,-0.1,1.1,-0.2c0.7,-0.4,1.5,-0.9,2.2,-1.3c0.7,-0.7,1,-1.5,0.9,-2.5c0,-1,-0.5,-2.2,-1.3,-3.4c-0.8,-1.1,-1.6,-1.9,-2.3,-2.3c-0.8,-0.5,-1.5,-0.6,-2.2,-0.3Z" class="g11_1" />
<path d="M268.4,242.1c-0.1,-1.1,0.3,-2,1,-2.4c0.6,-0.4,1.4,-0.8,2.1,-1.2c1.3,-0.8,3.5,0.5,4.9,2.8c1.3,2.3,1.3,4.9,0,5.6c-0.7,0.4,-1.4,0.9,-2.1,1.3c-0.8,0.4,-1.8,0.2,-2.8,-0.4" class="g9_1" />
<path d="M270.9,248.7c-0.1,-1.1,-0.5,-2.3,-1.2,-3.6c-0.5,-0.9,-1.2,-1.7,-1.9,-2.3" class="g8_1" />
<path d="M271.4,247.2c-0.1,-0.7,-0.3,-1.7,-0.8,-2.5c-0.5,-0.9,-1.2,-1.6,-1.8,-2" class="g8_1" />
<path d="M272.8,247.7c-0.5,-0.2,-0.9,-0.2,-1.1,-0.1c-0.2,0,-0.4,0.3,-0.4,0.5c0,0.9,-0.1,1.8,-0.4,2.4c-0.3,0.7,-0.8,1.3,-1.4,1.6c-6.8,4,-13.6,7.9,-20.5,11.9c-0.9,0.4,-1.5,0.6,-2.4,0.6c-3.3,0,-6,-2.7,-6,-6c0,-1.9,1.1,-3.8,2.6,-4.9c6.7,-4,13.6,-7.9,20.4,-11.9c0.5,-0.3,1.2,-0.4,1.8,-0.4c0.7,0.1,1.5,0.4,2.3,0.8c0.3,0.1,0.7,0.1,0.9,0.1c0.2,-0.1,0.4,-0.5,0.5,-0.9" class="g9_1" />
<path d="M244.1,253.7c1.6,0.2,3.4,1.5,4.6,3.7c1.2,2,1.5,4.1,1.1,5.6" class="g8_1" />
<path d="M273.8,248.1c1.1,-0.9,1,-3.1,-0.2,-5.2c-1.2,-2.1,-3.1,-3.3,-4.4,-2.8" class="g8_1" />
<path d="M247,253.8L265.5,243" class="g8_1" />
<path d="M248.8,254.8l17.9,-10.6" class="g8_1" />
<path d="M250.8,258.5l18.1,-11" class="g8_1" />
<path d="M251.1,260.6l18.1,-11" class="g8_1" />
<path d="M248.8,254.8c-0.7,0.5,-2.9,0,-1.8,-1" class="g8_1" />
<path d="M250.8,258.5c-1.1,0.7,-1,2.7,0.3,2.1" class="g8_1" />
<path d="M269.2,249.6c1.1,-0.6,1.3,-3.1,-0.3,-2.1" class="g8_1" />
<path d="M266.7,244.2c1.1,-0.7,0,-1.9,-1.2,-1.2" class="g8_1" />
<path fill-rule="evenodd" d="M376.6,815.7c1.4,0,2.6,0.8,2.6,1.8c0,1.1,-1.2,1.9,-2.6,1.9c-1.5,0,-2.7,-0.8,-2.7,-1.9c0,-1,1.2,-1.8,2.7,-1.8Zm-79.1,0c1.5,0,2.7,0.8,2.7,1.8c0,1.1,-1.2,1.9,-2.7,1.9c-1.5,0,-2.7,-0.8,-2.7,-1.9c0,-1,1.2,-1.8,2.7,-1.8Zm-5.4,-8.5l1.5,0l87.9,-0.1l0.7,0.1l0.5,0.2l0.5,0.4l0.3,0.4l0.1,0.6l2.2,18.2l0,1.1l-0.3,0.7l-0.5,0.5l-0.5,0.2l-0.6,0.1l-93.6,0l-0.5,-0.1l-0.5,-0.2L288.9,829l-0.2,-0.5l0,-1.1l1.6,-19.1l0.3,-0.5l0.4,-0.3l0.5,-0.2Z" class="g12_1" />
<path d="M270.1,510.6l42.2,-28.4" class="g8_1" />
<path d="M280.3,517.7l32.3,-21.8" class="g8_1" />
<path d="M307.8,485.2l-0.3,-14" class="g8_1" />
<path d="M307.8,513.3l-0.3,-14" class="g8_1" />
<path d="M143.6,623.7L122.2,608.6" class="g8_1" />
<path fill-rule="evenodd" d="M122.5,607.2c1.1,0,1.9,0.7,1.7,1.4c-0.1,0.8,-1.2,1.5,-2.4,1.5c-1.1,0,-1.9,-0.7,-1.7,-1.5c0.2,-0.7,1.2,-1.4,2.4,-1.4Z" class="g6_1" />
<path fill-rule="evenodd" d="M344.2,564.8c1.2,0,2.1,0.6,2.1,1.4c0,0.8,-0.9,1.4,-2.1,1.4c-1.1,0,-2,-0.6,-2,-1.4c0,-0.8,0.9,-1.4,2,-1.4Z" class="g6_1" />
<path fill-rule="evenodd" d="M306.3,498.8c0.6,-1,1.7,-1.6,2.3,-1.2c0.7,0.4,0.7,1.5,0.1,2.5c-0.6,1,-1.7,1.6,-2.3,1.2c-0.7,-0.4,-0.7,-1.5,-0.1,-2.5Z" class="g6_1" />
<path fill-rule="evenodd" d="M306.6,484.6c0.6,-1.1,1.6,-1.6,2.3,-1.2c0.6,0.4,0.7,1.5,0.1,2.5c-0.7,1,-1.7,1.5,-2.4,1.2c-0.6,-0.4,-0.7,-1.5,0,-2.5Z" class="g6_1" />
<path d="M138.1,597.8l-16.9,11.5l-2.3,1.5" class="g8_1" />
<path d="M198.4,641.6l-17,11.5l-2.2,1.5" class="g8_1" />
<path fill-rule="evenodd" d="M182.6,651.1c1.1,0,1.9,0.6,1.7,1.4c-0.1,0.8,-1.2,1.4,-2.3,1.4c-1.2,0,-2,-0.6,-1.8,-1.4c0.2,-0.8,1.2,-1.4,2.4,-1.4Z" class="g6_1" />
<path d="M182.3,652.5L157,634.8" class="g8_1" />
<path d="M219.5,653.4l-17,-12.2" class="g8_1" />
<path d="M346.8,568l-16,-11.2" class="g8_1" />
<path fill-rule="evenodd" d="M585.9,608.8l6.3,-4l0.1,4.7l0.6,8.2l0.9,6.3l-5.8,4.2l-1.1,-7l-0.7,-6.9Z" class="g11_1" />
<path d="M82,82l770,0l0,1045l-770,0Z" class="g9_1" />
<path fill-rule="evenodd" d="M408,186l118,0l0,1l-118,0Z" class="g6_1" />
<path d="M139.9,596.5l61.2,43.7l127.7,-85" class="g9_1" />
<path d="M139.9,596.5l128.6,-85l60.3,43.7" class="g8_1" />
<path d="M150.7,604.2L268.5,525.7l50,36.3" class="g9_1" />
<path d="M268.5,525.5l0,-14" class="g8_1" />
<path d="M141.8,489.4l59.6,42.7L328.1,447.7" class="g9_1" />
<path d="M201.5,532.5l0,-15" class="g8_1" />
<path d="M141.3,475.1l59.8,42.8l127,-84.6" class="g8_1" />
<path d="M141.3,475.1L268.7,390.2l59.4,43.1" class="g9_1" />
<path d="M141.2,475.2l0.3,14.2" class="g9_1" />
<path d="M328.1,433.3l0.1,14.3" class="g9_1" />
<path fill-rule="evenodd" d="M229.4,578.4l-4.6,-2.5L224.6,571l-10.1,5.9l-4.6,-2.5l19.6,-47.8l4.9,1.9l22.1,24l-13.7,7.8l0.5,9.7Z" class="g13_1" />
<path d="M232.2,570.2c-1.1,-0.5,-0.6,-3.8,0.3,-5.5c0.9,-1.7,3.6,-4.3,5.1,-3.5" class="g8_1" />
<path d="M239.8,556.5l0.4,5" class="g8_1" />
<path fill-rule="evenodd" d="M235.6,550.9L233,576.2l-4,2.6l-4.2,-2.9L224.6,571L214,577.3l-4.1,-2.9l20.1,-49l4.4,3.1Z" class="g14_1" />
<path fill-rule="evenodd" d="M242.9,560.4l0.4,9.6l-14.4,8.8l-0.5,-9.9l-14,8l20,-48.4l22.1,24Z" class="g15_1" />
<path d="M229,578.8L243.3,570l-0.5,-9.7l13.7,-7.8l-22.1,-24" class="g8_1" />
<path d="M214.4,576.9l20,-48.4" class="g8_1" />
<path d="M228.9,578.8l-0.5,-9.9" class="g8_1" />
<path d="M214,577.3l14.4,-8.5" class="g8_1" />
<path d="M344.3,566.3L293,600.5" class="g8_1" />
<path fill-rule="evenodd" d="M216.6,649.9c1.1,0,2.1,0.7,2.1,1.5c0,0.7,-1,1.4,-2.1,1.4c-1.1,0,-2.1,-0.7,-2.1,-1.4c0,-0.8,1,-1.5,2.1,-1.5Z" class="g6_1" />
<path d="M264.7,619.3l-48.3,32.2" class="g8_1" />
<path d="M633.9,623.5l55.6,40.7L805.7,578.8" class="g9_1" />
<path d="M750.9,538.2l54.8,40.6" class="g8_1" />
<path d="M633.9,623.5l27,-19.7m6.6,-4.8l83.4,-60.8" class="g8_1" />
<path d="M643.7,630.7l15.8,-11.6m7.8,-5.8l83.6,-61.4l45.5,33.7" class="g9_1" />
<path d="M750.5,551.5l0,-13" class="g8_1" />
<path d="M628.9,428.2c0,-0.3,0.1,-0.6,0.8,-1.2c0.8,-0.6,16.3,-11.9,16.3,-11.9" class="g9_1" />
<path d="M810.9,383.5c0,0.4,-0.2,0.7,-0.4,1C810.2,384.7,690.8,472,690.8,472c0,0,-1.3,1.1,-2.5,0.2c-1.2,-0.9,-58.9,-43.1,-58.9,-43.1c0,0,-0.5,-0.6,-0.5,-0.9" class="g9_1" />
<path d="M750.6,339.6c0.1,0,0.2,0,0.3,0.1c0.1,0,59.3,42.7,59.3,42.7c0,0,0.7,0.6,0.7,1.1" class="g9_1" />
<path d="M810.7,382.8c0,0.5,-0.1,0.8,-0.4,1C810,384,691,471.1,691,471.1c0,0,-1.3,1,-2.5,0.1C687.3,470.3,630,428.5,630,428.5c0,0,-0.5,-0.6,-0.5,-0.9" class="g8_1" />
<path d="M654.2,426.9c-0.4,-0.3,-0.3,-0.9,0,-1.4c0.4,-0.5,1,-0.7,1.3,-0.5" class="g8_1" />
<path d="M655.5,425c0.3,0.3,0.3,0.9,-0.1,1.4c-0.3,0.5,-0.9,0.7,-1.2,0.5" class="g9_1" />
<path d="M653.9,426.8c-0.4,-0.3,-0.3,-0.9,0,-1.4c0.4,-0.5,1,-0.7,1.3,-0.4" class="g8_1" />
<path d="M698,394.7c-0.3,-0.3,-0.3,-0.9,0.1,-1.4c0.3,-0.5,0.9,-0.7,1.2,-0.5" class="g8_1" />
<path d="M742.1,362.9c-0.3,-0.2,-0.3,-0.8,0,-1.3c0.4,-0.5,1,-0.7,1.3,-0.5" class="g8_1" />
<path d="M699.3,392.8c0.4,0.3,0.3,0.9,0,1.4c-0.4,0.5,-0.9,0.7,-1.3,0.5" class="g9_1" />
<path d="M743.4,361.1c0.3,0.3,0.3,0.9,0,1.4c-0.4,0.5,-1,0.7,-1.3,0.4" class="g9_1" />
<path d="M697.7,394.6c-0.3,-0.3,-0.3,-0.9,0.1,-1.4c0.3,-0.5,0.9,-0.7,1.2,-0.5" class="g8_1" />
<path d="M741.8,362.9c-0.3,-0.3,-0.3,-0.9,0,-1.4c0.4,-0.5,1,-0.7,1.3,-0.5" class="g8_1" />
<path d="M798.3,405.7c0.5,-0.2,1.7,-0.8,1.9,-1.3" class="g8_1" />
<path d="M799.3,404c0.1,0.7,0,1.9,-0.3,2.2" class="g8_1" />
<path d="M797.6,406.6c-0.7,-0.5,-0.6,-1.7,0.1,-2.8c0.8,-1,2,-1.4,2.7,-0.9" class="g8_1" />
<path d="M800.4,402.9c0.6,0.5,0.6,1.7,-0.2,2.8c-0.7,1,-1.9,1.4,-2.6,0.9" class="g9_1" />
<path d="M797.2,406.4c-0.7,-0.5,-0.7,-1.8,0.1,-2.8c0.7,-1,1.9,-1.5,2.6,-1" class="g8_1" />
<path d="M797.6,406.6l-0.4,-0.2" class="g9_1" />
<path d="M800.4,402.9l-0.5,-0.3" class="g9_1" />
<path d="M799.3,414.1c0.6,-0.1,1.7,-0.7,1.9,-1.2" class="g8_1" />
<path d="M800.3,412.5c0.1,0.7,0.1,1.9,-0.2,2.2" class="g8_1" />
<path d="M798.7,415.1c-0.7,-0.5,-0.7,-1.7,0.1,-2.8c0.7,-1,1.9,-1.5,2.6,-1" class="g8_1" />
<path d="M801.4,411.3c0.7,0.5,0.6,1.8,-0.1,2.8c-0.8,1.1,-1.9,1.5,-2.6,1" class="g9_1" />
<path d="M798.2,414.9c-0.7,-0.5,-0.7,-1.8,0.1,-2.8c0.7,-1.1,1.9,-1.5,2.6,-1" class="g8_1" />
<path d="M798.7,415.1l-0.5,-0.2" class="g9_1" />
<path d="M801.4,411.3l-0.5,-0.2" class="g9_1" />
<path d="M689.1,473.9l0.8,69.8" class="g9_1" />
<path d="M689.1,458.2c-0.4,-0.1,0.1,0.2,0.4,0.2c0.4,-0.1,0.4,-0.1,0.5,-0.2C690.1,458.1,792.9,383,792.9,383c0,0,0.2,-0.2,0.1,-0.4" class="g9_1" />
<path d="M752.2,353.2l-1.7,-5.3l0,-30.1l-1.2,-1.1c-0.5,-0.1,-0.8,-0.1,-0.8,-0.1l-102,74.1c0,0,-0.3,0.4,-0.3,0.4c0,0.1,-0.2,0.1,-0.2,0.6c0,0.5,0.1,34.8,0.1,34.8l1.3,1.1" class="g9_1" />
<path d="M792.9,382.5L752.2,353.2" class="g8_1" />
<path d="M750.3,317.7l-102,74.1c0,0,-0.4,0.2,-0.4,0.4c-0.1,0.1,-0.1,0.2,-0.2,0.6c0,0.3,0.1,30.4,0.1,30.4l1.2,-0.9" class="g8_1" />
<path d="M647,427.6l41.8,30.5" class="g9_1" />
<path d="M649,422.3l2.5,8.6" class="g9_1" />
<path d="M647.8,423.2l1.9,6.4" class="g8_1" />
<path d="M650.1,425.5l98.8,-71.8" class="g9_1" />
<path d="M750.7,348.4l-1.6,1.1l2.4,8" class="g8_1" />
<path d="M750.9,349l2.3,7.7c0,0,0.3,0.6,0,0.8c-0.2,0.2,-1.7,1.3,-1.7,1.3c0,0,0,0.4,-0.5,0.2c-0.4,-0.2,-2,-0.8,-2.1,-2.2c0,-1.4,0,-3.1,0,-3.1" class="g9_1" />
<path d="M749.7,356.4c0.3,-0.3,0.9,0,1.3,0.5c0.3,0.5,0.3,1.1,0,1.3" class="g8_1" />
<path d="M751,358.2c-0.3,0.3,-0.9,0,-1.3,-0.5c-0.3,-0.5,-0.3,-1.1,0,-1.3" class="g8_1" />
<path d="M750,356.8c0.2,-0.2,0.5,0,0.7,0.3c0.2,0.2,0.2,0.6,0,0.7" class="g8_1" />
<path d="M750.7,357.8c-0.2,0.2,-0.5,0,-0.7,-0.3c-0.2,-0.2,-0.2,-0.6,0,-0.7" class="g8_1" />
<path d="M750.4,356.4l0,-0.9l-0.7,-0.3l0,1.2" class="g8_1" />
<path d="M751.6,357.7c0,0.7,0,0.9,0,0.9" class="g8_1" />
<path d="M748.9,349.7l0,4.1" class="g8_1" />
<path d="M750.5,359.2l-0.1,38.3l11.1,8" class="g8_1" />
<path d="M678.3,450l71.9,-52.4" class="g8_1" />
<path d="M784.1,377.9l-1.7,1.3l2.9,2.1l1.8,-1.1Z" class="g8_1" />
<path d="M787.1,380.3l-0.1,2.8l-2.9,-1.9l-1.7,-2" class="g8_1" />
<path d="M785.3,381.3l1.7,1.8" class="g8_1" />
<path d="M783.5,377.9l-1.6,1.2l1.6,1.8" class="g9_1" />
<path d="M681.7,452.6l0.4,-0.2l3,2l-0.4,0.4" class="g9_1" />
<path d="M755.9,409.6l-2.9,-2c0,0,-0.4,-0.2,-0.9,-0.1c-0.5,0.2,-7.7,5.7,-7.7,5.7c0,0,-0.4,0.1,-0.1,0.5" class="g9_1" />
<path d="M744.3,413.8c0,0,-0.4,-0.2,-0.7,0c-0.3,0.1,-7.5,5.4,-7.5,5.4c-0.1,0.1,-0.3,0.3,-0.3,0.5c0,0.3,0,0.7,0,0.7" class="g9_1" />
<path d="M735.9,420l3.2,2.3" class="g8_1" />
<path d="M735.8,420.6l2.8,2.1" class="g8_1" />
<path d="M744.3,413.8l3.2,2.3" class="g8_1" />
<path d="M748.9,410.7c0,-0.6,0.7,-1.1,1.5,-1.1c0.9,0,1.6,0.5,1.6,1.1" class="g9_1" />
<path d="M752,410.7c0,0.6,-0.7,1.1,-1.6,1.1c-0.8,0,-1.5,-0.5,-1.5,-1.1" class="g8_1" />
<path d="M752.1,412c0,0.6,-0.7,1.1,-1.6,1.1c-0.9,0,-1.6,-0.5,-1.6,-1.1" class="g8_1" />
<path d="M748.9,410.7l0,1.3" class="g9_1" />
<path d="M752,410.7l0.1,1.3" class="g9_1" />
<path d="M730,428.8l-0.6,-0.1l-0.7,0l-0.6,0.1l-0.5,0.3l-0.6,0.3" class="g9_1" />
<path d="M688.5,457.5L727,429.4" class="g9_1" />
<path d="M749.7,410.5l0.6,-0.4l0.7,0.1l0.3,0.6l-0.7,0.4l-0.7,-0.1Z" class="g8_1" />
<path d="M740.3,417c0,-0.6,0.7,-1.1,1.5,-1.1c0.9,0,1.6,0.5,1.6,1.1" class="g9_1" />
<path d="M743.4,417c0,0.6,-0.7,1.1,-1.6,1.1c-0.8,0,-1.5,-0.5,-1.5,-1.1" class="g8_1" />
<path d="M743.5,418.3c0,0.6,-0.7,1.1,-1.6,1.1c-0.9,0,-1.6,-0.5,-1.6,-1.1" class="g8_1" />
<path d="M740.3,417l0,1.3" class="g9_1" />
<path d="M743.4,417l0.1,1.3" class="g9_1" />
<path d="M741.1,416.7l0.5,-0.3l0.8,0.1l0.3,0.6l-0.7,0.4l-0.7,-0.1Z" class="g8_1" />
<path d="M799.6,392.8l0,9.3" class="g9_1" />
<path d="M799.7,406.7l0,4.2" class="g9_1" />
<path d="M799.7,415.6l-0.2,46.6l1.7,1.3l0,6.2L690.5,551.2" class="g9_1" />
<path d="M775.8,483.2l0,-1.1l24.8,-18.3" class="g9_1" />
<path d="M799.5,462.2l0,2.2" class="g8_1" />
<path d="M800.6,463.6l-1,-0.7" class="g8_1" />
<path d="M801.3,464l-25,18.4" class="g8_1" />
<path d="M776.3,482.5l0,1.2c0,0,0,-1.1,0,-1.2Z" class="g8_1" />
<path d="M776.3,483.6c0,0,-0.3,0.4,-0.6,0c-0.3,-0.4,0.1,-0.4,0.1,-0.4" class="g8_1" />
<path d="M775.5,483l-0.7,-0.8l-21.3,15.7c-0.2,0.1,-0.3,0.6,-0.3,0.8" class="g8_1" />
<path d="M774.8,482.2c0.1,0,0.5,-0.3,0.5,-0.3l0,0.7" class="g8_1" />
<path d="M735.9,510.8l-20.8,15.4c0,0,0.8,0.5,0.9,1.1c0,0.7,0,0.7,0,0.7c0,0,-0.2,0.2,-0.4,0c-0.2,-0.3,0,-1,0,-1l-25.1,18.4l0,5.8" class="g8_1" />
<path d="M737.4,512c0,0,-0.1,0,-0.2,-0.1c-0.3,-0.4,0.1,-0.2,-0.3,-0.8c-0.5,-0.5,-1,-0.3,-1,-0.3" class="g9_1" />
<path d="M754.6,498.8l0,0.7c0,0,-0.1,0.4,-0.4,0.1c-0.2,-0.4,0,-1,0,-1l-16.5,12.1l0,1c0,0,-0.1,0.4,-0.3,0.3" class="g8_1" />
<path d="M754.6,498.8c0,-0.5,-0.8,-1.2,-1.1,-0.9" class="g8_1" />
<path d="M754.2,498.6l-0.6,-0.2l-16.3,12l-0.1,1.5" class="g9_1" />
<path d="M690.1,545l25,-18.4" class="g9_1" />
<path d="M690,550.9l0,-5.8" class="g8_1" />
<path d="M715.1,526.7l0.4,0.3" class="g8_1" />
<path d="M690,545.1l-0.5,0.3L676.7,536" class="g8_1" />
<path d="M670.9,531.9L639.3,508l0.9,-0.5" class="g8_1" />
<path d="M677.4,535.6l12.8,9.4" class="g8_1" />
<path d="M672.9,538.9l16.7,12.3l0.4,-0.3" class="g9_1" />
<path d="M689.5,545.4l0.1,5.8" class="g8_1" />
<path d="M690,545.2l0.5,0.2" class="g8_1" />
<path d="M690,550.9l0.4,0.3" class="g9_1" />
<path d="M674.7,521.7l9.2,6.8l0,9.6" class="g8_1" />
<path d="M675.7,521l9.2,6.8l0.1,9.6" class="g8_1" />
<path d="M684.9,527.8l-1,0.7" class="g8_1" />
<path d="M678.9,534.4l5,3.7l1.1,-0.7" class="g9_1" />
<path d="M675.7,521l-1,0.7l-0.1,7.3" class="g9_1" />
<path d="M676.9,527.5c2.2,-2.2,6.4,3.5,4.4,5.2" class="g8_1" />
<path d="M676.9,527.5l-10.8,7.3c-17.3,11.7,6.9,83,-15.1,101.3" class="g9_1" />
<path d="M666.6,534.4L639.2,513.5l0.1,-5.5" class="g9_1" />
<path d="M639.3,508l1.1,-0.6l-0.1,-70.3" class="g9_1" />
<path d="M664,521.2c0.5,-0.3,1.4,0.2,2,1.1c0.6,0.9,0.7,1.9,0.2,2.2c-0.5,0.3,-1.4,-0.3,-2,-1.2c-0.6,-0.9,-0.7,-1.8,-0.2,-2.1Z" class="g8_1" />
<path d="M664.1,521.2c0,0,0.7,-0.3,1.5,0.7c0.8,1.1,0.7,1.6,0.6,2.2" class="g9_1" />
<path d="M692.6,492.3c0.6,-0.1,1.7,-0.7,1.9,-1.2" class="g8_1" />
<path d="M693.7,490.7c0.1,0.7,0,1.9,-0.3,2.2" class="g8_1" />
<path d="M692,493.3c-0.7,-0.5,-0.7,-1.7,0.1,-2.8c0.7,-1,1.9,-1.5,2.6,-1" class="g8_1" />
<path d="M694.7,489.5c0.7,0.5,0.7,1.8,-0.1,2.8c-0.7,1.1,-1.9,1.5,-2.6,1" class="g9_1" />
<path d="M691.5,493.1c-0.7,-0.5,-0.6,-1.8,0.1,-2.8c0.8,-1.1,1.9,-1.5,2.6,-1" class="g8_1" />
<path d="M692,493.3l-0.5,-0.2" class="g9_1" />
<path d="M694.7,489.5l-0.5,-0.2" class="g9_1" />
<path d="M691.9,484.2c0.6,-0.1,1.7,-0.7,1.9,-1.2" class="g8_1" />
<path d="M692.9,482.5c0.2,0.7,0.1,2,-0.2,2.2" class="g8_1" />
<path d="M691.3,485.2c-0.7,-0.5,-0.7,-1.8,0.1,-2.8c0.7,-1,1.9,-1.5,2.6,-1" class="g8_1" />
<path d="M694,481.4c0.7,0.5,0.6,1.8,-0.1,2.8c-0.8,1,-1.9,1.5,-2.6,1" class="g9_1" />
<path d="M690.8,484.9c-0.7,-0.5,-0.6,-1.7,0.1,-2.8c0.8,-1,1.9,-1.4,2.6,-0.9" class="g8_1" />
<path d="M691.3,485.2l-0.5,-0.3" class="g9_1" />
<path d="M694,481.4l-0.5,-0.2" class="g9_1" />
<path d="M640.1,445.1c-0.2,0.2,-0.5,0.7,-0.5,1c0,0.4,0,0.8,0.1,1.2c0.1,0.1,0.3,0.5,0.4,0.4" class="g9_1" />
<path d="M640.2,452.9l-0.3,0.6c0,0,-0.5,1.1,0.2,1.6" class="g8_1" />
<path d="M640.1,451.7l-0.4,0.4c0,0,-1.1,1.5,-0.6,2.7c0.5,1.3,1.6,0,1.1,0.5" class="g9_1" />
<path d="M797.3,413.1c-0.1,-1.1,0.4,-1.7,1.5,-2.1" class="g8_1" />
<path d="M797.3,413.1l0.4,0.2" class="g8_1" />
<path d="M798.8,411l0.3,0.3" class="g8_1" />
<path d="M640.4,507.8l31.1,23.3" class="g8_1" />
<path d="M646.3,391.4l1.3,0.7" class="g8_1" />
<path d="M681.3,532.7L670,540.4c-11.4,7.7,8.6,81.4,-13.4,99.7" class="g9_1" />
<path fill-rule="evenodd" d="M748.7,531.5l-29.3,66.7L715,595L687.8,572.8l18.1,-13.1l-0.1,-11.9l19.9,-15.4l3.7,2.8l0.8,5.3L745.1,529Z" class="g16_1" />
<path fill-rule="evenodd" d="M749.4,531.1l-20,15.3l0,-11.2l-19.9,15.2l0,11.2l-18.2,13.8l28.1,22.8Z" class="g15_1" />
<path d="M748.7,531.5l-29.3,66.7L715,595L687.9,572.8l2.3,-1.7L705.9,559l-0.1,-11.4l19.9,-15.2l3.7,2.8l0,10.8" class="g9_1" />
<path d="M748.7,531.5L745.1,529l-15.7,12.3" class="g9_1" />
<path d="M748.7,531.5l-19.3,14.9" class="g8_1" />
<path d="M691.3,575.4l18.2,-13.8l0,-11.2l19.9,-15.2" class="g8_1" />
<path d="M709.5,550.4l-3.7,-2.8" class="g8_1" />
<path d="M709.5,561.6L706,559" class="g8_1" />
<path d="M691.3,575.4l-3.4,-2.6" class="g8_1" />
<path d="M195.8,1028.9L261.5,709.4" class="g8_1" />
<path d="M483.3,988.6L412.6,709.5" class="g8_1" />
<path d="M385,819.6l16.9,0l33.8,209.2" class="g8_1" />
<path d="M242.4,1028.7L270.3,819.6l18.9,0" class="g8_1" />
<path d="M270.3,819.6L261.5,709.4l150.9,0" class="g8_1" />
<path d="M412.6,709.5L402.1,820.8" class="g8_1" />
<path d="M291.3,1028.8l7.6,-126.7c0,0,0.1,-1.8,1.3,-2.1c1.2,-0.4,73,-0.1,73,-0.1c0,0,0.5,0,0.9,0.7" class="g9_1" />
<path d="M385.4,1028.8L374.8,903c0,0,-0.1,-1.9,-0.7,-2.4" class="g9_1" />
<path d="M386.3,1028.8L375.1,898.7" class="g9_1" />
<path d="M299.4,900.5l0,-1.7l75.7,-0.2" class="g8_1" />
<path d="M375.2,900.1l-1.5,0" class="g9_1" />
<path d="M330.6,925.3l13.1,0l0.2,6.2c0,2,-1.6,5.6,-6.5,5.6c-5,-0.1,-6.9,-3.4,-6.9,-5.5Z" class="g8_1" />
<path d="M330.6,925.3l1.3,2.7l10.3,0l1.5,-2.7" class="g8_1" />
<path d="M342.2,928l0,3.9c0,1,-1,3.7,-4.8,3.8c-5.2,0.2,-5.5,-4,-5.5,-4l0,-3.7Z" class="g9_1" />
<path d="M321.8,943.7l0.9,1.3m5.1,-0.1l0.8,-1.2" class="g8_1" />
<path d="M297,841.8l-0.1,-3c0,0,-0.3,-2.5,3.4,-2.9c3.8,-0.4,3.9,2.3,3.9,2.3l0.1,3.4" class="g9_1" />
<path d="M297,841.8c0,0,0.5,2.1,3.6,2.1c3.2,-0.1,3.6,-2.1,3.6,-2.1" class="g8_1" />
<path d="M298.6,838.8l0.2,-1.5l1.8,-0.8l1.9,0.9l-0.1,1.5l-0.3,0.3l-1.4,-0.6l-0.1,-2.1l0.1,2.1l-1.5,0.7" class="g8_1" />
<path d="M298.6,838.8l1.8,1.1l2,-1" class="g9_1" />
<path d="M300.6,835.9c1.9,0,3.4,1,3.4,2.3c0,1.2,-1.5,2.2,-3.4,2.2c-1.8,0,-3.3,-1,-3.3,-2.2c0,-1.3,1.5,-2.3,3.3,-2.3Z" class="g8_1" />
<path d="M297.1,839.6c0,0,0.5,1.5,3.4,1.6c3,0,3.5,-1.8,3.5,-1.8" class="g8_1" />
<path d="M368.5,841.9l-0.1,-3c0,0,-0.3,-2.4,3.4,-2.8c3.8,-0.4,3.9,2.2,3.9,2.2l0.1,3.5" class="g9_1" />
<path d="M368.5,841.9c0,0,0.5,2.2,3.6,2.1c3.2,-0.1,3.6,-2.1,3.6,-2.1" class="g8_1" />
<path d="M370.1,839l0.2,-1.6l1.8,-0.7l1.9,0.8l-0.1,1.6l-0.3,0.3l-1.4,-0.6l-0.1,-2.1l0.1,2.1l-1.6,0.7" class="g8_1" />
<path d="M370.1,839l1.8,1.1l2,-1" class="g9_1" />
<path d="M372.1,836c1.9,0,3.4,1,3.4,2.3c0,1.2,-1.5,2.3,-3.4,2.3c-1.8,0,-3.3,-1.1,-3.3,-2.3c0,-1.3,1.5,-2.3,3.3,-2.3Z" class="g8_1" />
<path d="M368.6,839.7c0,0,0.5,1.6,3.4,1.6c2.9,0.1,3.5,-1.7,3.5,-1.7" class="g8_1" />
<path d="M299.4,860.6c2.2,0,4,1.3,4,2.9c0,1.6,-1.8,2.9,-4,2.9c-2.2,0,-3.9,-1.3,-3.9,-2.9c0,-1.6,1.7,-2.9,3.9,-2.9Z" class="g8_1" />
<path d="M295.6,864.2c0,0,0.6,2.1,3.7,2.2c3.2,0.1,3.8,-1.9,3.8,-1.9c0,0,0.3,-0.5,0.3,-1.3" class="g9_1" />
<path d="M299.5,862.1c1.5,0,2.6,0.8,2.6,1.8c0,1,-1.1,1.8,-2.6,1.8c-1.5,0,-2.7,-0.8,-2.7,-1.8c0,-1,1.2,-1.8,2.7,-1.8Z" class="g8_1" />
<path d="M297.7,864.2c0,0,0.2,-1.3,1.7,-1.3c1.5,0,1.8,1.1,1.8,1.1" class="g8_1" />
<path d="M297.7,864.2c0,0,-0.2,1.3,1.7,1.3c1.9,-0.1,1.8,-1.5,1.8,-1.5" class="g9_1" />
<path d="M373.8,860.5c2.2,0,4,1.3,4,2.9c0,1.7,-1.8,3,-4,3c-2.2,0,-4,-1.3,-4,-3c0,-1.6,1.8,-2.9,4,-2.9Z" class="g8_1" />
<path d="M369.9,864.2c0,0,0.7,2.1,3.8,2.2c3.1,0.1,3.7,-1.9,3.7,-1.9c0,0,0.3,-0.6,0.3,-1.3" class="g9_1" />
<path d="M373.8,862c1.5,0,2.7,0.8,2.7,1.9c0,1,-1.2,1.8,-2.7,1.8c-1.4,0,-2.6,-0.8,-2.6,-1.8c0,-1.1,1.2,-1.9,2.6,-1.9Z" class="g8_1" />
<path d="M372,864.1c0,0,0.3,-1.2,1.8,-1.2c1.5,0,1.8,1.1,1.8,1.1" class="g8_1" />
<path d="M372,864.1c0,0,-0.1,1.3,1.8,1.3c1.8,0,1.8,-1.4,1.8,-1.4" class="g9_1" />
<path d="M294.3,832.5c0,0,-0.2,0.1,-0.2,0.5c0,0.5,-1.3,17.4,-1.3,17.4c0,0,0.2,1.3,1.6,1.2c1.4,0,84.3,0,84.3,0c0,0,1,0,1.5,-1" class="g8_1" />
<path d="M307.8,852.8l-1,21.8" class="g9_1" />
<path d="M292.8,850.4l0,1.2c0,0,-0.2,1.2,1.7,1.2c1.8,0.1,13.3,0,13.3,0" class="g8_1" />
<path d="M365.2,852.8l13.2,0c0,0,1.5,0,1.7,-1.1" class="g8_1" />
<path d="M306.8,874.6l60,0l-1.6,-21.8l-57.4,0" class="g9_1" />
<path d="M294.3,832.5c0,0,0.3,-0.8,1.7,-0.9c1.4,-0.1,80.5,-0.1,80.5,-0.1c0,0,1.7,0,1.9,1.7c0.2,1.7,1.7,17.3,1.7,17.3l0,1.2" class="g9_1" />
<path d="M294.7,817.6c0,0,0,1.7,2.6,1.8c2.6,0,2.9,-1.9,2.9,-1.9" class="g9_1" />
<path d="M295,818.1c0,0,0.3,-1.1,2.4,-1.1c2,-0.1,2.5,0.8,2.5,0.8" class="g9_1" />
<path d="M294.6,817.4c0,0,0.5,-1.8,2.8,-1.8c2.4,0,2.8,1.7,2.8,1.7" class="g8_1" />
<path d="M373.9,817.6c0,0,0,1.7,2.6,1.8c2.6,0,3,-1.9,3,-1.9" class="g9_1" />
<path d="M374.3,818.1c0,0,0.3,-1.1,2.3,-1.1c2,-0.1,2.6,0.8,2.6,0.8" class="g9_1" />
<path d="M373.9,817.4c0,0,0.4,-1.8,2.7,-1.8c2.4,0,2.9,1.7,2.9,1.7" class="g8_1" />
<path d="M288.7,827.4c0,0,0.2,0.9,1.7,0.9c1.5,0.1,93.9,-0.1,93.9,-0.1c0,0,1.3,-0.1,1.5,-1" class="g8_1" />
<path d="M288.7,827.3l0,1.2c0,0,0.1,1.1,1.7,1.1c1.7,0,93.5,0,93.5,0c0,0,1.6,0,1.8,-1.3c0.2,-1.3,0.1,-1.4,0.1,-1.4l-2.2,-18.1c0,0,0.1,-1.7,-2.1,-1.7c-2.1,0,-89.4,0.1,-89.4,0.1c0,0,-1.6,0.1,-1.8,1.3c-0.3,1.3,-1.6,18.8,-1.6,18.8Z" class="g9_1" />
<path d="M321.9,943.3l6.6,0c0.2,0,0.3,0.2,0.3,0.4l0,14.9c0,0.2,-0.1,0.4,-0.3,0.4l-6.6,0c-0.2,0,-0.3,-0.2,-0.3,-0.4l0,-14.9c0,-0.2,0.1,-0.4,0.3,-0.4Z" class="g8_1" />
<path d="M323.4,945.2l3.8,0c0.2,0,0.5,0.2,0.5,0.5l0,11.8c0,0.3,-0.3,0.6,-0.5,0.6l-3.8,0c-0.3,0,-0.5,-0.3,-0.5,-0.6l0,-11.8c0,-0.3,0.2,-0.5,0.5,-0.5Z" class="g9_1" />
<path d="M321.8,958.7l0.9,-0.6" class="g8_1" />
<path d="M328.6,958.7l-0.9,-0.6" class="g8_1" />
<path d="M346,942.3l0.9,1.3m5.1,0l0.8,-1.3" class="g8_1" />
<path d="M346.2,942.1l6.5,0c0.2,0,0.4,0.2,0.4,0.4l0.4,16.8c0,0.2,-0.1,0.4,-0.3,0.4l-6.6,0c-0.2,0,-0.3,-0.2,-0.3,-0.4l-0.4,-16.8c-0.1,-0.2,0.1,-0.4,0.3,-0.4Z" class="g8_1" />
<path d="M347.6,943.6l3.7,0c0.3,0,0.6,0.2,0.6,0.5l0.5,14.3c0,0.3,-0.2,0.5,-0.5,0.5l-3.8,0c-0.2,0,-0.5,-0.2,-0.5,-0.5l-0.5,-14.3c0,-0.3,0.2,-0.5,0.5,-0.5Z" class="g9_1" />
<path d="M346.6,959.5l0.8,-0.6" class="g8_1" />
<path d="M353.4,959.5l-0.9,-0.6" class="g8_1" />
<path d="M330.4,976.6l15.9,0l0.3,7.4c-0.1,2.4,-2,6.8,-8,6.8c-5.9,-0.1,-8.2,-4.1,-8.2,-6.6Z" class="g8_1" />
<path d="M330.4,976.6l1.6,3.2l12.4,0.1l1.9,-3.3" class="g8_1" />
<path d="M344.4,979.9l0.1,4.6c0,1.3,-1.2,4.5,-5.8,4.7c-6.3,0.2,-6.7,-4.9,-6.7,-4.9l0,-4.5Z" class="g9_1" />
<path d="M319.9,998.8l1.1,1.5m6,0l1.1,-1.5" class="g8_1" />
<path d="M320,998.4l7.9,0c0.2,0,0.4,0.1,0.4,0.4l0,18c0,0.2,-0.2,0.4,-0.4,0.4l-7.9,0c-0.2,0,-0.4,-0.2,-0.4,-0.4l0,-18c0,-0.3,0.2,-0.4,0.4,-0.4Z" class="g8_1" />
<path d="M321.8,1000.6l4.5,0c0.3,0,0.6,0.3,0.6,0.6l0,14.3c0,0.3,-0.3,0.6,-0.6,0.6l-4.5,0c-0.4,0,-0.6,-0.3,-0.6,-0.6l0,-14.3c0,-0.3,0.2,-0.6,0.6,-0.6Z" class="g9_1" />
<path d="M319.9,1016.9l1,-0.7" class="g8_1" />
<path d="M328,1016.9l-1,-0.7" class="g8_1" />
<path d="M349.1,997.1l1.1,1.6m6,-0.1l1,-1.5" class="g8_1" />
<path d="M349.3,996.9l7.9,0c0.2,0,0.4,0.2,0.4,0.4l0.5,20.4c0,0.2,-0.2,0.4,-0.4,0.4l-7.9,0c-0.2,0,-0.4,-0.2,-0.4,-0.4l-0.5,-20.4c0,-0.2,0.2,-0.4,0.4,-0.4Z" class="g8_1" />
<path d="M351,998.6l4.5,0c0.3,0,0.6,0.3,0.6,0.6l0.7,17.3c0,0.4,-0.3,0.6,-0.6,0.6l-4.6,0c-0.3,0,-0.6,-0.2,-0.6,-0.6l-0.6,-17.3c0,-0.3,0.2,-0.6,0.6,-0.6Z" class="g9_1" />
<path d="M349.7,1017.9l1,-0.8" class="g8_1" />
<path d="M358,1017.9l-1.1,-0.7" class="g8_1" />
<path d="M292.8,851.6l0,-1.2L294.1,833c0,0,0,-0.2,0.2,-0.5" class="g9_1" />
<path d="M297.4,817.1l-0.9,-18.7" class="g17_1" />
<path d="M299.5,863l-1.4,-31.5" class="g17_1" />
<path d="M376.7,817c0.7,-11.3,1.1,-19.2,1.1,-19.2" class="g17_1" />
<path d="M373.8,864.1c0.1,-0.4,1,-15.7,2,-32.6" class="g17_1" />
<path fill-rule="evenodd" d="M330,852l0,15.4l11.8,0l0,-15.4l6.1,0l0,-5.6L336.1,832.6l-11.8,14.1l0,5.2Z" class="g18_1" />
<path d="M324.3,851.9L336,837.8L347.9,852" class="g8_1" />
<path d="M336,837.8l0.1,-5.2" class="g8_1" />
<path fill-rule="evenodd" d="M336.1,832.6l11.8,13.8l0,5.6L336,837.8Z" class="g19_1" />
<path fill-rule="evenodd" d="M336,832.7l-11.7,14l0,5.2L336,837.8Z" class="g20_1" />
<path d="M330,867.4L330,852l-5.7,0l0,-5.3l11.8,-14.1l11.8,13.8l0,5.6l-6.1,0l0,15.4Z" class="g9_1" />
<path d="M297.4,817.9l-0.9,-19.5" class="g21_1" />
<path d="M299.5,863.9L298,830.4" class="g21_1" />
<path d="M376.6,818c0.7,-11.3,1.2,-20.2,1.2,-20.2" class="g21_1" />
<path d="M373.8,864.7c0,-0.4,1.1,-17.7,2.1,-34.5" class="g21_1" />
<path fill-rule="evenodd" d="M291.8,784.8l0.3,-0.8l0.7,-0.7l1,-0.6l1.3,-0.4l1,-0.1l1.2,0.1l1.3,0.3l0.9,0.6l0.5,0.6l0.2,0.7l0.1,3.1l0.1,0.8l-0.2,0.5l-0.4,0.8l-0.5,0.4l-0.4,0.2l0.2,6.5l0,0.3l-0.2,0.4l-0.3,0.3l-0.6,0.3l-0.9,0.2l-0.8,0.1l-0.6,0l-0.8,-0.2L294.4,798l-0.2,-0.3L294,797.4l-0.2,-6.8l-0.6,-0.4l-0.6,-0.5l-0.3,-0.4L292,788.8Z" class="g12_1" />
<path d="M292,789l-0.2,-4.2c0,0,0.3,-2.3,4.2,-2.6c3.8,-0.2,4.2,2.3,4.2,2.3l0.2,4c0,0,-0.4,2.2,-3.8,2.5c-3.4,0.3,-4.6,-2,-4.6,-2Z" class="g9_1" />
<path d="M292.8,783.6c0,0,-0.6,0.5,-0.4,1.4c0.2,1,1,1.8,3.5,2c2.6,0.1,3.6,-1.8,3.6,-1.8c0,0,0.3,-0.5,0.1,-1.5" class="g8_1" />
<path d="M291.8,784.8c0,0,-0.3,2.9,4.1,2.9" class="g8_1" />
<path d="M295.9,787.7c0,0,3.2,0,4.2,-2.1" class="g8_1" />
<path d="M293.8,790.8l0.3,6.6c0,0.6,0.9,1.1,2.4,1c1.7,-0.1,2.6,-0.7,2.6,-1.4" class="g9_1" />
<path d="M299.1,797l-0.3,-6.6" class="g9_1" />
<path d="M293.9,785.3l0.1,-1.5l2.1,-0.9l2.2,0.8l0,1.6l-1,0.5l-1,-0.3l-1.2,0.5l1.2,-0.5l-0.2,-2.6" class="g8_1" />
<path d="M293.9,785.3l2.1,1l2.3,-1" class="g9_1" />
<path d="M294,796.7c0.1,0.5,0.9,1,2.5,0.9c1.6,-0.1,2.6,-0.7,2.6,-1.4" class="g8_1" />
<path d="M294,795.9c0,0.6,0.9,1.1,2.5,1c1.6,-0.1,2.6,-0.7,2.5,-1.4" class="g8_1" />
<path d="M294,795.1c0,0.6,0.9,1.1,2.5,1c1.6,-0.1,2.5,-0.7,2.5,-1.4" class="g8_1" />
<path d="M293.9,794.4c0.1,0.6,1,1.1,2.5,1c1.6,-0.1,2.6,-0.7,2.6,-1.4" class="g8_1" />
<path d="M293.9,793.7c0,0.6,0.9,1.1,2.5,1c1.6,-0.1,2.6,-0.7,2.6,-1.4" class="g8_1" />
<path d="M293.9,792.9c0,0.6,0.9,1.1,2.5,1c1.6,-0.1,2.6,-0.7,2.5,-1.4" class="g8_1" />
<path d="M293.9,792.3c0,0.5,0.9,1.1,2.4,1c1.7,-0.1,2.6,-0.8,2.6,-1.5" class="g8_1" />
<path d="M293.8,791.5c0.1,0.6,0.9,1.1,2.5,1c1.6,-0.1,2.6,-0.7,2.6,-1.4" class="g8_1" />
<path d="M293.8,790.8c0,0.6,0.9,1.1,2.5,1c1.6,-0.1,2.6,-0.7,2.5,-1.4" class="g8_1" />
<path fill-rule="evenodd" d="M382.6,783.9l-0.3,-0.8l-0.7,-0.7l-1,-0.6l-1.3,-0.4l-1,-0.1l-1.2,0.1l-1.2,0.3l-1,0.6l-0.5,0.6l-0.2,0.7l-0.1,3.1l0,0.8l0.1,0.5l0.5,0.8l0.4,0.3l0.4,0.3l-0.2,6.5l0,0.3l0.2,0.4l0.3,0.3l0.6,0.3l0.9,0.2l0.8,0.1l0.7,0l0.7,-0.2l0.5,-0.2l0.3,-0.3l0.1,-0.3l0.2,-6.9l0.6,-0.3l0.6,-0.5l0.4,-0.4l0.2,-0.5Z" class="g12_1" />
<path d="M382.4,788.1l0.2,-4.2c0,0,-0.3,-2.3,-4.2,-2.6c-3.8,-0.2,-4.2,2.3,-4.2,2.3l-0.1,4c0,0,0.3,2.2,3.7,2.5c3.4,0.3,4.6,-2,4.6,-2Z" class="g9_1" />
<path d="M381.6,782.6c0,0,0.7,0.6,0.4,1.5c-0.2,1,-1,1.8,-3.5,1.9c-2.6,0.2,-3.6,-1.7,-3.6,-1.7c0,0,-0.3,-0.5,-0.1,-1.5" class="g8_1" />
<path d="M382.6,783.9c0,0,0.4,2.9,-4.1,2.9" class="g8_1" />
<path d="M378.5,786.8c0,0,-3.2,-0.1,-4.2,-2.1" class="g8_1" />
<path d="M380.6,789.9l-0.2,6.6c-0.1,0.6,-0.9,1.1,-2.5,1c-1.6,-0.1,-2.6,-0.7,-2.6,-1.4" class="g9_1" />
<path d="M375.3,796.1l0.3,-6.6" class="g9_1" />
<path d="M380.5,784.4l0,-1.5L378.3,782l-2.2,0.8l0,1.6l1,0.5l1.1,-0.3l1.2,0.5l-1.2,-0.5l0.1,-2.6" class="g8_1" />
<path d="M380.5,784.4l-2.1,1l-2.3,-1" class="g9_1" />
<path d="M380.4,795.8c0,0.5,-0.9,1,-2.5,0.9c-1.6,-0.1,-2.6,-0.7,-2.5,-1.4" class="g8_1" />
<path d="M380.4,795c0,0.6,-0.9,1.1,-2.5,1c-1.6,-0.1,-2.6,-0.7,-2.5,-1.4" class="g8_1" />
<path d="M380.5,794.2c-0.1,0.6,-1,1.1,-2.5,1c-1.6,-0.1,-2.6,-0.7,-2.6,-1.4" class="g8_1" />
<path d="M380.5,793.5c-0.1,0.6,-0.9,1.1,-2.5,1c-1.6,-0.1,-2.6,-0.7,-2.6,-1.4" class="g8_1" />
<path d="M380.5,792.8c0,0.5,-0.9,1.1,-2.5,1c-1.6,-0.1,-2.6,-0.7,-2.5,-1.5" class="g8_1" />
<path d="M380.5,792c0,0.6,-0.9,1.1,-2.5,1c-1.6,-0.1,-2.5,-0.7,-2.5,-1.4" class="g8_1" />
<path d="M380.6,791.4c-0.1,0.5,-0.9,1.1,-2.5,1c-1.6,-0.1,-2.6,-0.8,-2.6,-1.5" class="g8_1" />
<path d="M380.6,790.6c0,0.6,-0.9,1.1,-2.5,1c-1.6,-0.1,-2.6,-0.7,-2.6,-1.4" class="g8_1" />
<path d="M380.6,789.9c0,0.6,-0.9,1.1,-2.5,1c-1.6,-0.1,-2.6,-0.7,-2.5,-1.4" class="g8_1" />
<path fill-rule="evenodd" d="M210.4,883c56.7,0,102.7,46,102.7,102.7c0,56.7,-46,102.7,-102.7,102.7c-56.7,0,-102.7,-46,-102.7,-102.7C107.7,929,153.7,883,210.4,883Z" class="g11_1" />
<g clip-path="url(#c0_1)">
<path fill-rule="evenodd" d="M160.1,965l0.6,-1l1.3,-0.6l90.4,0.6l0.7,0.2l0.8,0.4l0.5,0.6l0.3,0.8l1.8,19.3l-0.1,1.6l-0.4,0.7l-0.3,0.3l-0.8,0.3l-1.2,0l-91.4,0.1l-1.5,0l-0.9,-0.1l-0.6,-0.3l-0.5,-0.6l-0.1,-1Z" class="g12_1" />
<path d="M56.3,1152.1L123.6,825.3" class="g8_1" />
<path d="M364.2,1109L293.3,825.4" class="g8_1" />
<path d="M106.2,1152l30,-222.7l141.1,0l35.9,222.8" class="g8_1" />
<path d="M128.1,825.3l8.2,104" class="g8_1" />
<path d="M287,825.3l-9.7,104" class="g8_1" />
<path d="M158.6,1152l8.2,-135.6c0,0,0.1,-2,1.4,-2.4c1.2,-0.3,78.1,0,78.1,0c0,0,0.5,0,0.9,0.7" class="g9_1" />
<path d="M259.4,1152L248,1017.3c0,0,-0.1,-2,-0.8,-2.6" class="g9_1" />
<path d="M260.3,1152l-12,-139.3" class="g8_1" />
<path d="M166.5,1014.3l0.1,-1.8l81.7,0" class="g8_1" />
<path d="M248.5,1014.2l-1.6,0" class="g8_1" />
<path d="M200.7,1041.2l14,0l0.5,6.5c0.2,2.8,-2.1,5.8,-7,5.8c-5,0,-7.8,-2.8,-7.7,-4.8Z" class="g8_1" />
<path d="M213,1043.1l1.7,-1.9" class="g8_1" />
<path d="M202.2,1043.3l10.8,0" class="g9_1" />
<path d="M200.7,1041.2l1.5,2.1" class="g8_1" />
<path d="M202.2,1043.3l-0.1,4.7c0,0,0.3,4.5,5.9,4.4c4.1,-0.2,5.1,-3,5.1,-4.2l-0.1,-4.9" class="g9_1" />
<path d="M191.3,1060.9l1.1,1.6l5.1,0l1,-1.6" class="g8_1" />
<path d="M192.4,1062.5l5.1,0" class="g9_1" />
<path d="M165,953l-0.1,-3.9c0,0,0.7,-2.4,4,-2.4c3.2,0,3.9,1.7,3.9,3c0,1.2,0,3.2,0,3.2" class="g9_1" />
<path d="M165,953c0,0,0.3,2.4,4,2.3c3.7,-0.2,3.8,-2.8,3.8,-2.8" class="g8_1" />
<path d="M164.9,950c0,0,0.3,2.4,4.2,2.3c3.8,-0.2,3.9,-2.8,3.9,-2.8" class="g8_1" />
<path d="M165,949.4c0,0,0.3,2.4,4,2.2c3.7,-0.2,3.8,-2.8,3.8,-2.8" class="g8_1" />
<path d="M166.8,950.1l1.3,0.6l1.3,0l1.4,-0.7" class="g9_1" />
<path d="M166.8,950.1l0.1,-1.7l2,-0.9l1.9,0.8l0,1.7" class="g8_1" />
<path d="M168.9,947.5l0,2.4l1,0.3l-1,-0.3l-1.2,0.4" class="g8_1" />
<path d="M241.5,952.8l0.1,-3.6c0,0,0.2,-2.4,3.8,-2.5c3.7,-0.1,4,2.9,4,2.9l-0.2,3.4" class="g9_1" />
<path d="M241.5,953c0,0,0.8,2.3,4,2.2c3.2,-0.1,3.7,-1.9,3.7,-1.9" class="g8_1" />
<path d="M241.5,950.1c0,0,0.8,2.3,4.1,2.2c3.2,-0.1,3.7,-1.9,3.7,-1.9" class="g8_1" />
<path d="M241.7,949.5c0,0,0.4,2,3.8,2.1c3.3,0,3.8,-2.7,3.5,-2.8" class="g8_1" />
<path d="M243.5,949.8l0,-1.3l1.9,-0.8l2.1,0.8l0.1,1.7" class="g8_1" />
<path d="M243.5,949.8l1.8,1.1l2.3,-0.7" class="g9_1" />
<path d="M163.4,975.5l-0.1,-3.9c0,0,0.6,-2.7,4.2,-2.8c3.6,-0.1,3.9,2.4,3.9,2.4l0.2,3.9" class="g9_1" />
<path d="M165.3,972.5l0,-1.6l2.2,-1.2l1.9,0.8l0,1.9l0,-1.9l-1.9,-0.8l0,2.2l1.5,0.7l-1.5,-0.7l-1.9,0.7" class="g8_1" />
<path d="M165.3,972.5l1.8,0.7l2.3,-0.8" class="g9_1" />
<path d="M163.4,975.5c0,0,0.3,2.6,4,2.4c3.7,-0.1,4.2,-2.8,4.2,-2.8" class="g8_1" />
<path d="M245.4,947.7l-0.1,2l-0.9,0.4l0.9,-0.4l1.2,0.6l0.8,-0.2l0.2,-1.6" class="g8_1" />
<path d="M243.3,975.2l0.2,-3.9c0,0,0.2,-2.6,4,-2.5c3.9,0,4.1,2.8,4.1,2.8l-0.1,3.8" class="g9_1" />
<path d="M243.3,975.2c0,0,0.5,2.7,4,2.7c3.5,0,4.2,-2.3,4.2,-2.3" class="g8_1" />
<path d="M243.4,972.3c0,0,0.5,2.7,4,2.7c3.5,-0.1,4.2,-2.3,4.2,-2.3" class="g8_1" />
<path d="M243.7,971.5c0,0,0.5,2.5,3.7,2.5c3.3,0,3.9,-2.1,3.9,-2.1" class="g8_1" />
<path d="M245.4,972.2l0.1,-1.8l1.9,-0.8l2.1,0.9l0.1,1.8l-0.4,0.4l-1.9,-0.8l-1.5,0.6l1.5,-0.6l0.1,-2.3" class="g8_1" />
<path d="M245.4,972.2l2,1.1l2.2,-1" class="g9_1" />
<path d="M158.7,986.9l-0.1,-1.2L160.1,965c0.1,-0.6,0.7,-1.4,1.9,-1.4" class="g9_1" />
<path d="M253,963.5c0,0,0.9,-0.2,1,-0.9" class="g8_1" />
<path d="M162,963.6l91,-0.1" class="g9_1" />
<path d="M160.5,962.4c-0.1,-1.5,1.3,-18.8,1.3,-18.8" class="g9_1" />
<path d="M162,963.6c0,0,-1.2,0,-1.5,-1.2" class="g8_1" />
<path d="M254,963.5c0,0,0.1,0.5,-0.2,0.5" class="g8_1" />
<path d="M161.8,943.6c0,0,0.1,-1.5,2.1,-1.5c2,0,86.4,0,86.4,0c0,0,1.7,-0.1,1.9,1.8c0.1,1.8,1.8,18.5,1.8,18.5l0,1.1" class="g9_1" />
<path d="M253,963.5c0.3,0.1,0.9,0.4,1.2,0.9c0.3,0.6,0.3,1.2,0.3,1.6c0,0.4,2,19.3,2,19.3l-0.1,0.6l0,1" class="g9_1" />
<path d="M158.6,985.7c0,0,0.6,1.3,1.6,1.3c1.1,-0.1,94.6,0,94.6,0c0,0,1.1,0,1.5,-0.9c0.3,-0.9,0,1,0,1c0,0,-0.3,1.1,-1.6,1.1c-1.3,0,-94.3,0.1,-94.3,0.1c0,0,-1.7,-0.2,-1.7,-1.4" class="g8_1" />
<path d="M163.4,972.5c0,0,0.3,2.5,4,2.3c3.7,-0.1,4.2,-2.8,4.2,-2.8" class="g8_1" />
<path d="M163.8,971.6c0,0,0.3,2.4,3.6,2.3c3.4,-0.2,3.8,-2.8,3.8,-2.8" class="g8_1" />
<path d="M163.8,971.6l0,-0.6" class="g8_1" />
<path d="M160.5,963.5c0,0,-0.1,0.5,0.3,0.6" class="g8_1" />
<path d="M160.5,962.4l0,1.1" class="g9_1" />
<path d="M191.5,1060.5l6.8,0c0.3,0,0.5,0.2,0.5,0.5l0,15.8c0,0.2,-0.2,0.4,-0.5,0.4l-6.8,0c-0.3,0,-0.5,-0.2,-0.5,-0.4l0,-15.8c0,-0.3,0.2,-0.5,0.5,-0.5Z" class="g8_1" />
<path d="M192,1062l5,0l0,14l-5,0Z" class="g9_1" />
<path d="M219.4,1059.6l1.2,1.9l5,-0.1l1,-1.7" class="g8_1" />
<path d="M219.5,1059.2l6.9,0c0.2,0,0.4,0.2,0.5,0.5l0.8,17.9c0,0.2,-0.2,0.4,-0.5,0.4l-6.8,0c-0.3,0,-0.5,-0.2,-0.5,-0.4l-0.8,-17.9c0,-0.3,0.2,-0.5,0.4,-0.5Z" class="g8_1" />
<path d="M220.6,1061.5l4.8,0L226,1077l-4.8,0Z" class="g9_1" />
</g>
<path d="M210.4,883c56.7,0,102.7,46,102.7,102.7c0,56.7,-46,102.7,-102.7,102.7c-56.7,0,-102.7,-46,-102.7,-102.7C107.7,929,153.7,883,210.4,883Z" class="g22_1" />
<path d="M235.4,846.3c0,-1.6,0.5,-2.9,1.2,-2.9c0.6,0,1,1.4,1,3c0,1.7,-0.5,3,-1.1,2.9c-0.6,0,-1.1,-1.3,-1.1,-3Z" class="g8_1" />
<path d="M236.8,849.3c0,0,0.7,-0.5,0.8,-2.8c0.1,-2.4,-0.7,-2.9,-0.7,-2.9c0,0,-0.2,-0.2,-0.4,-0.2" class="g9_1" />
<path d="M258.4,730.5c0,-1.6,0.5,-2.9,1.1,-2.9c0.6,0,1.1,1.4,1.1,3c-0.1,1.7,-0.6,3,-1.2,2.9c-0.6,0,-1,-1.3,-1,-3Z" class="g8_1" />
<path d="M259.7,733.5c0,0,0.8,-0.5,0.9,-2.8c0,-2.4,-0.7,-2.9,-0.7,-2.9c0,0,-0.2,-0.2,-0.5,-0.2" class="g9_1" />
<path d="M443.7,846.3c0,-1.6,-0.5,-2.9,-1.1,-2.9c-0.6,0,-1.1,1.4,-1,3c0,1.7,0.5,3,1.1,2.9c0.6,0,1.1,-1.3,1,-3Z" class="g8_1" />
<path d="M442.4,849.3c0,0,-0.8,-0.5,-0.8,-2.8c-0.1,-2.4,0.6,-2.9,0.6,-2.9c0,0,0.2,-0.2,0.5,-0.2" class="g9_1" />
<path d="M416.1,730.5c0,-1.6,-0.5,-2.9,-1.1,-2.9c-0.6,0,-1.1,1.4,-1,3c0,1.7,0.5,3,1.1,2.9c0.6,0,1.1,-1.3,1,-3Z" class="g8_1" />
<path d="M414.8,733.5c0,0,-0.8,-0.5,-0.8,-2.8c-0.1,-2.4,0.6,-2.9,0.6,-2.9c0,0,0.2,-0.2,0.5,-0.2" class="g9_1" />
<path fill-rule="evenodd" d="M684.1,762.7l102,-0.2l1.3,0.3l0.7,1l2.3,20.4l-0.2,1.7l-0.5,0.6l-1.1,0.4l-19.8,0l-0.3,8l-0.4,1.8l-1.5,1.5l-1.5,0.6l-6.8,0.1l1.4,0l4.3,0.7l1.6,0.7l0.9,0.7l0.7,1.5l0.6,9.5l-0.5,12.1l0,1.6l-0.8,1.8l-1.5,1.2l-2.3,0.5l-4,0l-7.4,-0.1l-0.4,-10.4l-3.3,0l-0.2,4.4l-0.7,0.4c0,0,-1.5,1.2,-1.5,1.2l-21.8,0.1L722,824.7l-0.5,-0.4l-0.6,-0.7l-1,-0.4l-0.4,-0.4l0,-4.1l-3.3,0.3l0,10.2l-2,0l-3.8,0l-3.5,0l-2.2,0l-1.9,-0.7l-1.2,-0.9l-0.8,-1.8L701,803.1l0.4,-1.6l1.1,-1.1l1.5,-0.9l1.6,-0.2l4.5,-0.4l-5.4,0l-1.6,-0.3l-1.8,-0.8l-0.8,-1l-0.3,-1.2L700,787l-17.4,-0.1l-1.1,-0.1l-0.7,-0.6l0,-0.8l0,-0.8l1.3,-20.3l0.2,-0.7l0.6,-0.6Z" class="g12_1" />
<path d="M844.1,933.3l-31,-184.7c0,0,0.2,-1.1,-1.4,-1.1c-1.7,0,-26.9,0,-26.9,0" class="g8_1" />
<path d="M778.8,747.5l-85.9,0" class="g8_1" />
<path d="M686.9,747.7l-23.3,-0.1" class="g8_1" />
<path d="M653.2,680.4l4,56l10.5,19.1l-0.2,3.7" class="g9_1" />
<path d="M657.3,760.2c0,0,0.6,3.5,5.3,3.4c4.6,0,4.8,-3.4,4.8,-3.4l0.1,-1" class="g9_1" />
<path d="M657.3,760.2l0.3,-8l-38.2,285.6" class="g9_1" />
<path d="M657.3,736.6l-0.5,3.7l0.8,11.9" class="g8_1" />
<path d="M656.8,740.3l10.7,18.9" class="g8_1" />
<path d="M564,1037.3c1.1,-6.1,72.3,-356.9,72.3,-356.9" class="g9_1" />
<path d="M576.1,1040.3c0.8,-4.7,67.3,-359.9,67.3,-359.9" class="g8_1" />
<path d="M646.6,1038.5l17.7,-177L657.5,761.2" class="g8_1" />
<path d="M664.3,861.5l52.2,0" class="g8_1" />
<path d="M751.8,861.4l51.8,0l22.7,186.5" class="g8_1" />
<path d="M803.6,861.4l9.1,-111" class="g8_1" />
<path d="M717.9,996.9l8.2,0l0.1,17.4l-8.4,0Z" class="g8_1" />
<path d="M719.8,999.1l-0.1,14l4.9,-0.1l-0.1,-13.9Z" class="g9_1" />
<path d="M717.9,996.9l1.9,2.2" class="g8_1" />
<path d="M717.8,1014.3l1.9,-0.8l4.9,0l1.6,0.8l-0.1,-17.4l-1.6,2.2" class="g8_1" />
<path d="M743.2,995.5l7.9,0l0.9,20.1l-8.4,0Z" class="g8_1" />
<path d="M744.7,997.7l4.6,-0.1l1.8,-2.1l-7.9,0Z" class="g8_1" />
<path d="M745.2,1014.3l4.9,0l-0.8,-16.7l-4.6,0.1Z" class="g9_1" />
<path d="M743.6,1015.6l1.6,-0.8l4.9,0l1.9,0.8" class="g8_1" />
<path d="M728,984.5l0,-6.3l13.3,0l0.2,6.7" class="g8_1" />
<path d="M728,984.5c0,1.7,0.7,6,6.7,6.1c6,0,6.8,-4.1,6.8,-5.7" class="g8_1" />
<path d="M729.6,985.4l0.1,-5l10,-0.1l0.3,5" class="g8_1" />
<path d="M728,978.2l1.7,2.2l10,-0.1l1.6,-2.1" class="g8_1" />
<path d="M729.7,980.4l0,4.3c0,1.3,1.2,4.7,5.1,4.7c3.9,0,5.1,-2.7,5.1,-4.5" class="g9_1" />
<path d="M739.9,984.9l-0.2,-4.6l-10,0.1" class="g9_1" />
<path d="M692,1042.6l4,-91" class="g9_1" />
<path d="M779.6,1044.4L773,952.5c0,0,0,-2,-1.5,-2c-1.5,0,-74.2,-0.1,-74.2,-0.1c0,0,-1.2,0.1,-1.3,1.2" class="g9_1" />
<path d="M695.9,950.7l0.1,-1.5l77.8,0" class="g8_1" />
<path d="M656.7,729l181,0c0,0,3.8,-0.3,4.5,2.9c0.7,3.3,5.6,24.6,5.6,24.6" class="g9_1" />
<path d="M692.9,887.1L692.8,884c0,0,-0.4,-2.6,3.6,-3.1c3.9,-0.4,4,2.4,4,2.4l0.1,3.7" class="g9_1" />
<path d="M692.9,887.1c0,0,0.5,2.3,3.8,2.2c3.3,-0.1,3.8,-2.2,3.8,-2.2" class="g8_1" />
<path d="M694.5,884l0.2,-1.6l2,-0.8l1.9,0.8l0,1.7l-0.4,0.3l-1.5,-0.6l0,-2.2l0,2.2l-1.6,0.7" class="g8_1" />
<path d="M694.5,884l1.9,1.2l2.2,-1.1" class="g9_1" />
<path d="M696.7,880.9c1.9,0,3.5,1.1,3.5,2.4c0,1.3,-1.6,2.4,-3.5,2.4c-1.9,0,-3.5,-1.1,-3.5,-2.4c0,-1.3,1.6,-2.4,3.5,-2.4Z" class="g8_1" />
<path d="M693,884.8c0,0,0.5,1.6,3.6,1.7c3,0,3.7,-1.9,3.7,-1.9" class="g8_1" />
<path d="M767.8,887.1L767.7,884c0,0,-0.3,-2.7,3.6,-3.1c4,-0.4,4.1,2.4,4.1,2.4l0.1,3.6" class="g9_1" />
<path d="M767.8,887.1c0,0,0.5,2.3,3.8,2.2c3.3,-0.1,3.8,-2.2,3.8,-2.2" class="g8_1" />
<path d="M769.5,884l0.2,-1.6l1.9,-0.8l2,0.8l-0.1,1.7l-0.4,0.3l-1.4,-0.6l-0.1,-2.2l0.1,2.2l-1.6,0.7" class="g8_1" />
<path d="M769.5,884l1.9,1.1l2.1,-1" class="g9_1" />
<path d="M771.6,880.9c2,0,3.6,1.1,3.6,2.4c0,1.3,-1.6,2.4,-3.6,2.4c-1.9,0,-3.5,-1.1,-3.5,-2.4c0,-1.3,1.6,-2.4,3.5,-2.4Z" class="g8_1" />
<path d="M767.9,884.8c0,0,0.5,1.6,3.6,1.7c3.1,0,3.7,-1.9,3.7,-1.9" class="g8_1" />
<path d="M695.7,908.5c2.3,0,4.2,1.3,4.2,3c0,1.6,-1.9,3,-4.2,3c-2.3,0,-4.1,-1.4,-4.1,-3c0,-1.7,1.8,-3,4.1,-3Z" class="g8_1" />
<path d="M691.7,912.2c0,0,0.6,2.2,3.9,2.3c3.3,0,3.9,-2,3.9,-2c0,0,0.3,-0.5,0.3,-1.3" class="g9_1" />
<path d="M695.8,910c1.5,0,2.7,0.8,2.7,1.9c0,1,-1.2,1.8,-2.7,1.8c-1.6,0,-2.8,-0.8,-2.8,-1.8c0,-1.1,1.2,-1.9,2.8,-1.9Z" class="g8_1" />
<path d="M693.9,912.1c0,0,0.2,-1.2,1.8,-1.2c1.6,0,1.9,1.1,1.9,1.1" class="g8_1" />
<path d="M693.9,912.1c0,0,-0.2,1.4,1.8,1.4c1.9,-0.1,1.9,-1.5,1.9,-1.5" class="g9_1" />
<path d="M773.1,908.4c2.3,0,4.1,1.3,4.1,3c0,1.6,-1.8,3,-4.1,3c-2.3,0,-4.2,-1.4,-4.2,-3c0,-1.7,1.9,-3,4.2,-3Z" class="g8_1" />
<path d="M769.1,912.1c0,0,0.6,2.2,3.9,2.3c3.3,0.1,3.9,-2,3.9,-2c0,0,0.3,-0.5,0.3,-1.3" class="g9_1" />
<path d="M773.1,909.9c1.6,0,2.8,0.9,2.8,1.9c0,1,-1.2,1.9,-2.8,1.9c-1.5,0,-2.7,-0.9,-2.7,-1.9c0,-1,1.2,-1.9,2.7,-1.9Z" class="g8_1" />
<path d="M771.3,912.1c0,0,0.2,-1.3,1.8,-1.3c1.5,0,1.8,1.1,1.8,1.1" class="g8_1" />
<path d="M771.3,912.1c0,0,-0.2,1.3,1.7,1.3c2,0,1.9,-1.5,1.9,-1.5" class="g9_1" />
<path d="M637.1,914.2l1.1,-1c0,0,0.5,-1.6,0.2,-4.2" class="g9_1" />
<path d="M638.4,909l-0.7,-0.8l-0.3,0.5" class="g9_1" />
<path d="M637.1,914.2c0,0,-0.5,-0.3,-0.4,-2.6c0.1,-2.4,0,-1.8,0.4,-3.4" class="g8_1" />
<path d="M637.1,908.2l0.3,0.5l0.2,4.2c0,0,-0.6,-0.3,-0.4,-4.1" class="g8_1" />
<path d="M637.6,912.9c0,0,0,0.5,0.2,0.5" class="g8_1" />
<path d="M836.3,914c0,0,0.2,0.7,0.5,0.7c0.4,0.1,0.5,-0.6,0.6,-3.3" class="g8_1" />
<path d="M837.4,911.4c0,0,-0.2,-4.4,-1,-4" class="g8_1" />
<path d="M836.4,907.4l-1.1,1.1c0,0,-0.2,1,-0.1,2.7c0.1,1.7,0.2,2.8,0.8,2.8c0.6,0.1,0.3,0,0.3,0" class="g9_1" />
<path d="M836.1,913.8l0.3,-1l0,1.3" class="g8_1" />
<path d="M835.7,908.5c0,0,0.5,0.3,0.6,2.2c0.1,2,0.1,2.1,0.1,2.1" class="g8_1" />
<path d="M704.3,899.6l-14,0c0,0,-1.6,-0.5,-1.6,-1.2c0,-0.7,0.1,-1.1,0.1,-1.1c0,0,0.4,1.1,1.3,1.1c0.9,0,35.3,0,35.3,0" class="g8_1" />
<path d="M764.3,899.6l13.8,0c0,0,1.9,-0.4,1.9,-1.5c0,-1.1,0,-1.2,0,-1.2c0,0,-0.2,1.5,-1.8,1.5c-1.5,0.1,-35.9,0,-35.9,0" class="g8_1" />
<path d="M780,897.1l-1.6,-20.4c0,0,-0.2,-1.3,-1.7,-1.3c-1.5,0,-25,0,-25,0" class="g9_1" />
<path d="M716.6,875.6l-24.9,-0.1c0,0,-1.9,0,-1.9,1.4c-0.1,1.5,-1,20.4,-1,20.4" class="g9_1" />
<path d="M751.3,829.1c0,0,7.1,0.2,11.4,0.1c4.2,-0.1,4.6,-3.5,4.6,-3.5L767.8,812c0,0,-0.4,-6.9,-0.6,-9.5c-0.3,-2.6,-4.2,-3.2,-4.2,-3.2l-4.7,-0.1l0,-0.3c0,0,2.3,0.1,5.8,0c3.5,-0.1,4.4,-3.1,4.4,-3.1l0.3,-8.9c0,0,18.5,0,19.8,0c1.3,0,1.8,-1.4,1.8,-1.4l0,-1.7c0,0,-2,-17.6,-2.1,-19.3c-0.1,-1.7,-2.5,-1.9,-2.5,-1.9c0,0,-100.1,0.1,-101.6,0.1c-1.5,0,-2.1,1.4,-2.1,1.4l-1.6,20c0,0,0,0.5,0,1.6c0.1,1.1,2.1,1.2,2.1,1.2L700,787c0,0,0,5.3,0.1,8.5c0.1,3.2,5.1,3.4,5.1,3.4c0,0,3,0.3,0,0.4c-2.9,0.1,-4.1,3,-4.1,3l-0.6,9.5c0,0,0.2,11.3,0.3,14c0.1,2.7,3.9,3.4,3.9,3.4l11.5,0l0,-10.2" class="g9_1" />
<path d="M716.2,829.2l0.1,-10.5l35.2,0l-0.2,10.4l-0.4,-10.4l-4.2,0l-0.1,3.3l-0.8,0.3l-0.9,1l-22.5,0.1l-1,-0.9l-0.9,-0.4l0,-3.4" class="g8_1" />
<path d="M722.4,823.3c0,0.2,0,0.1,0,0.1l0,-4.1L721,819.2l-0.5,-0.5" class="g8_1" />
<path d="M744.9,823.3l0,-4.1l1.4,0l0.4,-0.5" class="g8_1" />
<path d="M716,818l35,0" class="g9_1" />
<path d="M719.6,819l-0.1,3.8l0.6,0.6l0.8,0.2l0.8,1c0,0,0.1,0.2,0.9,0.2c0.8,0,22.2,-0.1,22.2,-0.1c0,0,0.5,0,0.8,-0.2c0.2,-0.3,0.8,-0.9,0.8,-0.9l0.7,-0.2l0.5,-0.6l0,-4.1" class="g9_1" />
<path d="M719.7,822.2l0.3,0.5l0.9,0.1L722,824l23.1,0l1.2,-1.2l1.1,-0.4" class="g8_1" />
<path d="M716.5,819l-0.3,10.2" class="g8_1" />
<path d="M706.5,799.2l3.8,0.1l0.4,15.5l-5.6,0c0,0,-3.4,0.1,-4.4,-2.7" class="g8_1" />
<path d="M706.2,798.9l4.2,0l-0.2,0.4" class="g8_1" />
<path d="M710.7,814.8l-0.4,-15.7L706.4,799" class="g9_1" />
<path d="M758.3,799.2l-0.5,15.7" class="g9_1" />
<path d="M757.8,814.9l5.8,-0.1c0,0,3.5,-0.8,4.2,-2.8" class="g8_1" />
<path d="M718.7,810.8c0,0,0.3,1,1.6,1.1" class="g8_1" />
<path d="M718.6,812c0,0,0.3,1,1.6,1" class="g8_1" />
<path d="M748,813.1L720.2,813" class="g8_1" />
<path d="M748,813.1c0,0,1.6,-0.2,1.6,-1.3" class="g8_1" />
<path d="M720.3,811.9l27.5,0c0,0,1.8,-0.3,1.8,-1.2" class="g8_1" />
<path d="M718.6,812l0.1,-9.8c0,0,0.1,-1.2,1.5,-1.3c1.4,-0.1,27.9,0,27.9,0c0,0,1.7,0.1,1.7,1.1c-0.1,1,-0.2,9.8,-0.2,9.8" class="g9_1" />
<path d="M720.2,787l0,2.9l27.1,0l0.1,-3l5,0l-0.2,7.9l-36.3,0.1l-0.1,-8l35.9,0l0.5,7.9" class="g8_1" />
<path d="M700,787l68.8,-0.1" class="g9_1" />
<path d="M715.9,794.9l0,-7.9l4.3,0l0,2.9" class="g9_1" />
<path d="M752.2,794.8l-0.1,-7.9l-4.7,0l-0.1,3" class="g9_1" />
<path d="M690.5,771.8c1.7,0,3.1,0.9,3.1,2c0,1.2,-1.4,2.1,-3.1,2.1c-1.7,0,-3.1,-0.9,-3.1,-2.1c0,-1.1,1.4,-2,3.1,-2Z" class="g8_1" />
<path d="M687.7,774.7c0,0,0.9,-1.5,2.9,-1.4c2,0,2.9,1,2.9,1c0,0,-0.7,1.6,-2.9,1.6c-2.1,0,-2.9,-1.2,-2.9,-1.2" class="g9_1" />
<path d="M777.4,774.4c0,0,0.9,-1.5,2.9,-1.5c2,0.1,2.9,1.1,2.9,1.1c0,0,-0.8,1.6,-2.9,1.5c-2.2,0,-2.9,-1.2,-2.9,-1.2" class="g9_1" />
<path d="M780.1,771.6c1.7,0,3.1,0.9,3.1,2.1c0,1.1,-1.4,2,-3.1,2c-1.7,0,-3.1,-0.9,-3.1,-2c0,-1.2,1.4,-2.1,3.1,-2.1Z" class="g8_1" />
<path d="M704.9,770.6c3.1,0,5.6,1.5,5.6,3.4c0,1.9,-2.5,3.4,-5.6,3.4c-3.1,0,-5.6,-1.5,-5.6,-3.4c0,-1.9,2.5,-3.4,5.6,-3.4Z" class="g8_1" />
<path d="M699.3,774.2c0,0,0.1,3.4,5.6,3.4c5.5,0,5.6,-3.5,5.6,-3.5" class="g9_1" />
<path d="M701.5,774.5l-0.1,-0.9l2.8,0l0.1,-1.7l1.4,-0.1l0,1.8l2.6,0l0,0.9l0,-0.9l-0.9,0.8l-1.9,0.1l0.2,-0.9l-0.2,0.9l-0.1,0.2l-1.1,0.1l-0.1,-1.2l-2.8,0.1l1.1,0.8l1.8,-0.1" class="g8_1" />
<path d="M701.5,774.5l2.6,0l0.1,1.7l1.3,0l0,-1.7l2.8,0" class="g8_1" />
<path d="M758.5,774.2c0,0,0.2,3.4,5.6,3.4c5.5,0,5.6,-3.5,5.6,-3.5" class="g9_1" />
<path d="M764.1,770.6c3.1,0,5.6,1.5,5.6,3.4c0,1.9,-2.5,3.4,-5.6,3.4c-3.1,0,-5.6,-1.5,-5.6,-3.4c0,-1.9,2.5,-3.4,5.6,-3.4Z" class="g8_1" />
<path d="M760.9,774.5l2.6,0l0.1,1.7l1.3,0l0,-1.7l2.8,0" class="g8_1" />
<path d="M760.9,774.5l-0.1,-0.9l2.7,0l-0.1,-1.8l1.4,0l0,1.8l2.8,0l0.1,0.9l-0.1,-0.8l-1,0.6l-1.9,0.1l0.1,-0.8l-0.1,0.8l-0.1,0.4l-1.1,-0.1l0,-1.1l-2.7,0l0.8,0.7" class="g8_1" />
<path d="M713.1,768.8c0,0,0.1,-1.1,1.5,-1.2c1.4,0,39.4,0.1,39.4,0.1c0,0,1.7,0.1,1.7,1.1" class="g8_1" />
<path d="M754.3,780.2l-39.9,0c0,0,-1.6,0.2,-1.7,-1.4c0,-1.5,0.4,-10,0.4,-10" class="g9_1" />
<path d="M755.7,768.8l0.5,10.4c0,0,0,1,-1.9,1c-1.8,0,-6.7,0,-6.7,0l-0.1,-3.3l1.1,-0.7l-0.2,-4.5l-1,-0.7l-27.2,0l-1,0.6l-0.1,4.6l0.9,0.6l0,3.4" class="g9_1" />
<path d="M713.1,770c0,0,0.5,-0.7,2,-0.7c1.5,0,38.8,-0.1,38.8,-0.1c0,0,1.8,0.4,1.9,0.8" class="g8_1" />
<path d="M720,776.8l1.6,1.3l24.5,0l1.4,-1.2l1.1,-0.7l0,-0.7L748,776l-0.7,0.1l-1.3,1.2l-24.2,0l-1.3,-1.1l-0.8,-0.3l-0.6,-0.4" class="g8_1" />
<path d="M720.2,772.1c0,0,-0.1,-0.5,0.6,-0.5c0.7,0,26.2,0.1,26.2,0.1c0,0,0.6,-0.1,0.5,0.4" class="g8_1" />
<path d="M720.2,772.1l0,3.2l0.9,0.3l1,1.1l23.5,0l1,-1.1l0.9,-0.3l0,-3.2" class="g9_1" />
<path d="M719.8,779.5l-3.5,-0.1L716,769.3l35.7,-0.1l-0.3,10.3l-3.6,0" class="g8_1" />
<path d="M716,769.3L715.8,780l36.5,0.2l-0.7,-11" class="g8_1" />
<path d="M725,776.7l0,-2.4l17.7,0l0,2.4" class="g9_1" />
<path d="M725.2,775l0.6,0.5l16,0.1l0.9,-0.6l0,1.7l-1.6,0l0,-1.1l-0.9,0l0,1.1" class="g8_1" />
<path d="M738.5,775.5l1,0l0,1l-1,0Z" class="g8_1" />
<path d="M736.5,775.5l1,0l0,1l-1,0Z" class="g8_1" />
<path d="M735.5,775.5l1,0l0,1l-1,0Z" class="g8_1" />
<path d="M733.5,775.5l1,0l0,1l-1,0Z" class="g8_1" />
<path d="M731.5,775.5l1,0l0,1l-1,0Z" class="g8_1" />
<path d="M730.5,775.5l0,1Z" class="g8_1" />
<path d="M728.5,775.5l1,0l0,1l-1,0Z" class="g8_1" />
<path d="M726.5,775.5l1,0l0,1l-1,0Z" class="g8_1" />
<path d="M778.5,760.5l11,0" class="g8_1" />
<path d="M790.3,752.4l0.5,3.9l-1.2,4.7" class="g9_1" />
<path d="M779.3,754.3l0.3,2.2L779,761" class="g8_1" />
<path d="M780.4,756.5l9.3,-0.1" class="g8_1" />
<path d="M814.7,780.2c0,0,0.1,0.5,0.4,0.6c0.2,0,0.3,-0.6,0.4,-2.8" class="g8_1" />
<path d="M815.5,778c0,0,-0.1,-3.6,-0.7,-3.2" class="g8_1" />
<path d="M814.8,774.8l-0.8,0.8c0,0,-0.2,0.8,-0.1,2.3c0,1.4,0.2,2.2,0.6,2.3c0.4,0,0.2,-0.1,0.2,-0.1" class="g9_1" />
<path d="M814.6,780l0.2,-0.8l0,1.1" class="g8_1" />
<path d="M814.3,775.6c0,0,0.3,0.2,0.4,1.8c0,1.7,0.1,1.8,0.1,1.8" class="g8_1" />
<path d="M654.9,780.3l0.9,-0.9c0,0,0.4,-1.3,0.1,-3.5" class="g9_1" />
<path d="M655.9,775.9l-0.5,-0.6l-0.2,0.4" class="g9_1" />
<path d="M654.9,780.3c0,0,-0.4,-0.3,-0.3,-2.2c0.1,-1.9,0,-1.5,0.4,-2.8" class="g8_1" />
<path d="M655,775.3l0.2,0.4l0.1,3.5c0,0,-0.4,-0.3,-0.3,-3.4" class="g8_1" />
<path d="M655.3,779.2c0,0,0,0.3,0.2,0.4" class="g8_1" />
<path d="M662.4,757c1.9,0,3.5,1.1,3.5,2.6c0,1.5,-1.6,2.7,-3.5,2.7c-1.9,0,-3.5,-1.2,-3.5,-2.7c0,-1.5,1.6,-2.6,3.5,-2.6Z" class="g8_1" />
<path d="M662.4,758.2c1,0,1.8,0.6,1.8,1.4c0,0.7,-0.8,1.3,-1.8,1.3c-1,0,-1.8,-0.6,-1.8,-1.3c0,-0.8,0.8,-1.4,1.8,-1.4Z" class="g8_1" />
<path d="M660.7,755.2l-0.3,2.2l-0.8,-2.2" class="g8_1" />
<path d="M659.6,755.2l2.7,-0.4L663,757" class="g9_1" />
<path d="M728.8,1036l0,-7.1l15.1,0l0.2,7.5" class="g8_1" />
<path d="M728.8,1036c0,1.9,0.8,6.8,7.6,6.9c6.8,0.1,7.7,-4.6,7.7,-6.5" class="g8_1" />
<path d="M730.6,1037l0.1,-5.6l11.4,-0.1l0.3,5.7" class="g8_1" />
<path d="M728.8,1028.9l1.9,2.5l11.4,-0.1l1.8,-2.4" class="g8_1" />
<path d="M730.7,1031.4l0,4.9c0,1.4,1.4,5.3,5.8,5.3c4.5,-0.1,5.8,-3.1,5.8,-5.1" class="g9_1" />
<path d="M742.3,1036.5l-0.2,-5.2l-11.4,0.1" class="g9_1" />
<path fill-rule="evenodd" d="M730.2,840.2l1.4,0l2.9,-0.1l3.2,0l6.7,0.1l0.4,0l0.7,0.1l0.2,0.6l0,12l1.8,0l1,0.4l0.6,1.3l0.1,32.9l-0.6,2.6l-1.5,2.7l-2.1,2.4l-2.4,1.7l-2.2,0l0,5l-0.3,1.5l-0.8,1.3l-0.9,1l0,15.8l-0.1,2.5c0,-0.1,-9.6,-0.2,-9.6,-0.2l0.1,-2.4l0,-16.4l-0.5,-0.8l-0.6,-0.9l-0.4,-1.1l0,-5.3l-2.3,0l-2.2,-1.7l-2.1,-2.1l-1.3,-2.5l-0.8,-3.1l0,-32.9l0.4,-1.1l1.2,-0.6l1.9,0l0,-11.3l0.1,-0.9l0.6,-0.5Z" class="g23_1" />
<path d="M722.1,857.3l0,-16.3c0,0,0.2,-0.8,0.7,-0.8c0.2,0,4.1,-0.1,11.7,-0.1c9.2,0,10.3,0.1,10.3,0.1c0,0,0.9,-0.1,0.9,0.7c0,0.8,0,16.2,0,16.2" class="g9_1" />
<path d="M722.1,857.3c0,0.4,0.5,0.6,0.8,0.6c0.4,0,0.9,0,1.4,0.4c0.5,0.5,1.1,1,1.1,1c0,0,0.4,0.3,1.1,0.3c0.7,0,14.8,0,14.8,0c0,0,0.6,-0.1,1,-0.5c0.5,-0.4,1,-0.8,1,-0.8c0,0,0.5,-0.4,1.1,-0.4c0.6,0,1.3,-0.1,1.3,-0.8" class="g8_1" />
<path d="M722.1,842.7c0,0.5,0.5,0.7,0.8,0.7c0.4,0,0.9,-0.1,1.4,0.4c0.5,0.5,1.1,0.9,1.1,0.9c0,0,0.4,0.3,1.1,0.3c0.7,0,14.8,0,14.8,0c0,0,0.6,-0.1,1,-0.4c0.5,-0.4,1,-0.9,1,-0.9c0,0,0.5,-0.4,1.1,-0.4c0.6,0,1.3,-0.1,1.3,-0.8" class="g8_1" />
<path d="M725.5,859.5l0,-14" class="g8_1" />
<path d="M741.5,859.5l0,-14" class="g8_1" />
<path d="M723.5,857.5l0,-14" class="g8_1" />
<path d="M735.5,859.5l0,-2l-4,0l0,-3l4,0l0,-5l-4,0l0,-3l4,0l0,-1" class="g8_1" />
<path d="M727.5,851.5l3,0l0,2l-3,0Z" class="g8_1" />
<path d="M727.5,852.5l3,0" class="g8_1" />
<path d="M727.5,853.5l3,0" class="g8_1" />
<path d="M737.5,851.5l3,0l0,2l-3,0Z" class="g8_1" />
<path d="M737.5,852.5l3,0" class="g8_1" />
<path d="M737.5,853.5l3,0" class="g8_1" />
<path d="M743.7,842.8l0,-1.1l-9,0l-10.7,0l0,1.1" class="g8_1" />
<path d="M735.1,843.2l7.1,0l0.7,-0.4l0.8,0" class="g9_1" />
<path d="M724,842.8l0.8,0l0.7,0.4l8.6,0" class="g9_1" />
<path d="M726,843l1,0l0,1l-1,0Z" class="g9_1" />
<path d="M728,843l1,0l0,1l-1,0Z" class="g9_1" />
<path d="M730,843l0,1Z" class="g9_1" />
<path d="M731,843l1,0l0,1l-1,0Z" class="g9_1" />
<path d="M733,843l1,0l0,1l-1,0Z" class="g9_1" />
<path d="M735,843l0,1Z" class="g9_1" />
<path d="M736,843l1,0l0,1l-1,0Z" class="g9_1" />
<path d="M738,843l1,0l0,1l-1,0Z" class="g9_1" />
<path d="M740,843l0,1Z" class="g9_1" />
<path d="M741.5,840.5l0,1Z" class="g8_1" />
<path d="M739.5,840.5l1,0l0,1l-1,0Z" class="g8_1" />
<path d="M737.5,840.5l1,0l0,1l-1,0Z" class="g8_1" />
<path d="M730.5,840.5l1,0l0,1l-1,0Z" class="g8_1" />
<path d="M729.5,840.5l0,1Z" class="g8_1" />
<path d="M727.5,840.5l1,0l0,1l-1,0Z" class="g8_1" />
<path d="M725.5,840.5l1,0l0,1l-1,0Z" class="g8_1" />
<path d="M725.5,841.5l0,1" class="g8_1" />
<path d="M726.5,841.5l0,1" class="g8_1" />
<path d="M727.5,841.5l0,1" class="g8_1" />
<path d="M728.5,841.5l0,1" class="g8_1" />
<path d="M728.5,841.5l0,1" class="g8_1" />
<path d="M730.5,841.5l0,1" class="g8_1" />
<path d="M730.5,841.5l0,1" class="g8_1" />
<path d="M731.5,841.5l0,1" class="g8_1" />
<path d="M732.5,841.5l0,1" class="g8_1" />
<path d="M737.5,841.5l0,1" class="g8_1" />
<path d="M736.5,841.5l0,1" class="g8_1" />
<path d="M737.5,841.5l0,1" class="g8_1" />
<path d="M738.5,841.5l0,1" class="g8_1" />
<path d="M739.5,841.5l0,1" class="g8_1" />
<path d="M740.5,841.5l0,1" class="g8_1" />
<path d="M741.5,841.5l0,1" class="g8_1" />
<path d="M742.5,841.5l0,1" class="g8_1" />
<path d="M749.2,860.5c0,1,-0.8,1.7,-1.7,1.7l-27.3,0c-0.9,0,-1.6,-0.7,-1.6,-1.7" class="g8_1" />
<path d="M718.6,860.5l0,-5.9c0,-0.9,0.7,-1.7,1.6,-1.7l1.9,0m23.6,0l1.8,0c0.9,0,1.7,0.8,1.7,1.7l0,5.9" class="g9_1" />
<path d="M721,876l0,-12l25,0l0,12" class="g9_1" />
<path d="M746.5,876.5l-25,0" class="g8_1" />
<path d="M746.5,876.5l-25,0" class="g8_1" />
<path d="M718.6,860.5l0,27c0,0,0.2,5.7,6.5,9.4" class="g9_1" />
<path d="M749.2,860.5l0,27c0,0,-0.2,5.7,-6.6,9.4" class="g9_1" />
<path d="M725,896l17,0" class="g9_1" />
<path d="M726.5,880.5l0,1.6l6.5,3c0,0,0.8,0.5,2.2,-0.2c1.5,-0.7,5.5,-2.6,5.5,-2.6l0,-1.7" class="g9_1" />
<path d="M726.5,880.5l6.5,2.9c0,0,1.1,0.3,2.3,-0.3c1.2,-0.6,5.4,-2.5,5.4,-2.5" class="g8_1" />
<path d="M726.5,881l6.5,2.9c0,0,1.1,0.3,2.3,-0.3c1.2,-0.6,5.4,-2.5,5.4,-2.5" class="g8_1" />
<path d="M726.5,884.1l0,1.6l6.5,2.9c0,0,0.8,0.5,2.2,-0.2c1.5,-0.6,5.5,-2.5,5.5,-2.5l0,-1.8" class="g9_1" />
<path d="M726.5,884.1l6.5,2.8c0,0,1.1,0.4,2.3,-0.2c1.2,-0.6,5.4,-2.6,5.4,-2.6" class="g8_1" />
<path d="M726.5,884.5l6.5,2.9c0,0,1.1,0.4,2.3,-0.2c1.2,-0.6,5.4,-2.6,5.4,-2.6" class="g8_1" />
<path d="M726.5,887.5l0,1.6L733,892c0,0,0.8,0.5,2.2,-0.1c1.5,-0.7,5.5,-2.6,5.5,-2.6l0,-1.7" class="g9_1" />
<path d="M726.5,887.5l6.5,2.8c0,0,1.1,0.4,2.3,-0.2c1.2,-0.6,5.4,-2.5,5.4,-2.5" class="g8_1" />
<path d="M726.5,888l6.5,2.8c0,0,1.1,0.4,2.3,-0.2c1.2,-0.6,5.4,-2.5,5.4,-2.5" class="g8_1" />
<path d="M728.8,905l0,15.6c0,0,0,1.3,-0.1,3.3" class="g9_1" />
<path d="M738.4,905.4l0,15.5c0,0,0,1,-0.1,2.7" class="g9_1" />
<path d="M733.5,841.5l0,1" class="g8_1" />
<path d="M734.5,841.5l0,1" class="g8_1" />
<path d="M735.5,841.5l0,1" class="g8_1" />
<path d="M732.5,840.5l1,0l0,1l-1,0Z" class="g8_1" />
<path d="M734.5,840.5l1,0l0,1l-1,0Z" class="g8_1" />
<path d="M736.5,840.5l0,1Z" class="g8_1" />
<path d="M728.2,896.9c0.9,1,3.3,2,3.9,2.1" class="g9_1" />
<path d="M732,899l0,1" class="g9_1" />
<path d="M728.2,900.7c0.9,1,3.3,2,3.9,2.1" class="g9_1" />
<path d="M732,902l0,2" class="g9_1" />
<path d="M728.2,900.7c-0.4,-0.4,-0.7,-1,-0.7,-1" class="g9_1" />
<path d="M739.4,896.9c-0.9,1,-3.3,2,-3.9,2.1" class="g9_1" />
<path d="M735,899l0,1" class="g9_1" />
<path d="M739.4,900.7c-0.9,1,-3.3,2,-3.9,2.1" class="g9_1" />
<path d="M735,902l0,2" class="g9_1" />
<path d="M739.4,900.7c0.4,-0.4,0.7,-1,0.7,-1" class="g9_1" />
<path d="M728.2,898.8c0.9,1.1,3.3,2.1,3.9,2.2" class="g8_1" />
<path d="M728.2,898.8c-0.4,-0.3,-0.7,-0.9,-0.7,-0.9" class="g8_1" />
<path d="M739.4,898.8c-0.9,1.1,-3.3,2,-3.9,2.1" class="g8_1" />
<path d="M739.4,898.8c0.4,-0.3,0.7,-0.9,0.7,-0.9" class="g8_1" />
<path d="M728.2,902.7c0.9,1,3.3,2,3.9,2.1" class="g8_1" />
<path d="M728.2,902.7c-0.4,-0.4,-0.7,-1,-0.7,-1" class="g8_1" />
<path d="M739.4,902.6c-0.9,1.1,-3.3,2,-3.9,2.2" class="g8_1" />
<path d="M739.4,902.6c0.4,-0.3,0.7,-0.9,0.7,-0.9" class="g8_1" />
<path d="M727.3,902.2c0,1.1,1.9,4.5,6.5,4.5c4.6,0,6.6,-2.6,6.6,-4.5" class="g9_1" />
<path d="M740,896l0,6" class="g9_1" />
<path d="M727,896l0,6" class="g9_1" />
<path d="M727.5,897.5l1,0" class="g8_1" />
<path d="M727.5,901.5l1,0" class="g8_1" />
<path d="M738.5,901.5l2,0" class="g8_1" />
<path d="M738.5,897.5l2,0" class="g8_1" />
<path d="M742.5,899.6l21.8,0l1.3,24.3l-62,0l0.7,-24.3l21.2,0" class="g9_1" />
<path d="M751.3,829.1l-0.4,-10.4" class="g9_1" />
<path d="M690.9,773.8l-0.8,-22.5" class="g17_1" />
<path d="M695.7,911.5L691.4,789.1" class="g17_1" />
<path d="M780.6,773.8l1.2,-22.3" class="g17_1" />
<path d="M773.1,911.8l6.6,-122.1" class="g17_1" />
<path d="M690.9,773.8l-0.8,-22.5" class="g21_1" />
<path d="M695.7,911.5L691.4,789.1" class="g21_1" />
<path d="M780.6,773.8l1.2,-22.3" class="g21_1" />
<path d="M773.1,911.8l6.6,-122.1" class="g21_1" />
<path fill-rule="evenodd" d="M786.9,734.7l-0.4,-0.9l-0.8,-0.7l-1.3,-0.6l-1.2,-0.3l-1.3,0l-1.2,0.1l-1.3,0.3l-1,0.5l-0.8,0.7l-0.3,0.7l0,4.4l0,0.3l0.1,0.3l0.4,0.6l0.6,0.5l0.6,0.3l-0.3,9l0.1,0.3l0.3,0.4l0.4,0.3l0.7,0.3l0.8,0.2l0.7,0l0.8,0l1,-0.3l0.7,-0.3l0.4,-0.3l0.2,-0.4l0.3,-9l0.5,-0.3l0.5,-0.4l0.5,-0.6l0.2,-0.7Z" class="g12_1" />
<path d="M782.2,732.1c-2.3,0,-4.2,0.9,-4.2,2.1c-0.1,1.2,1.8,2.2,4.1,2.3c2.3,0,4.2,-0.9,4.3,-2.1c0,-1.2,-1.9,-2.2,-4.2,-2.3Z" class="g8_1" />
<path d="M786.9,734.7c0,-1.4,-2.1,-2.5,-4.7,-2.6c-2.6,0,-4.7,1,-4.8,2.4" class="g9_1" />
<path d="M777.4,734.5c0,1.4,2.1,2.5,4.7,2.6c2.6,0,4.8,-1,4.8,-2.4" class="g8_1" />
<path d="M777.3,738.9c0,1.3,2.1,2.5,4.7,2.5c2.6,0.1,4.8,-1,4.8,-2.3" class="g9_1" />
<path d="M786.8,739.1l0.1,-4.4" class="g9_1" />
<path d="M777.3,738.9l0.1,-4.4" class="g9_1" />
<path d="M779.6,733.5l0.1,1.4l2.5,0.9l2.4,-0.8" class="g9_1" />
<path d="M784.6,735l-0.3,-1.4l-2.4,-0.8l-2.3,0.7" class="g8_1" />
<path d="M783.3,735.4L781.8,735l-1,0.3" class="g8_1" />
<path d="M781.8,735l0.1,-2.2" class="g8_1" />
<path d="M784.3,735.1l0,-1.5" class="g8_1" />
<path d="M778.8,748.6c0,0.8,1.3,1.6,3,1.6c1.7,0,3,-0.6,3.1,-1.5" class="g8_1" />
<path d="M778.6,747.4c0,0.9,1.3,1.7,3,1.7c1.7,0,3.1,-0.7,3.1,-1.5" class="g8_1" />
<path d="M778.7,746.4c0,0.8,1.3,1.6,3,1.6c1.7,0,3.1,-0.7,3.1,-1.5" class="g8_1" />
<path d="M778.8,745.2c-0.1,0.9,1.3,1.6,3,1.7c1.6,0,3,-0.7,3,-1.6" class="g8_1" />
<path d="M778.8,744.1c0,0.8,1.3,1.6,3,1.6c1.7,0,3.1,-0.7,3.1,-1.5" class="g8_1" />
<path d="M778.8,742.9c0,0.9,1.4,1.6,3,1.7c1.7,0,3.1,-0.7,3.1,-1.6" class="g8_1" />
<path d="M778.9,741.8c0,0.9,1.3,1.6,3,1.6c1.7,0.1,3.1,-0.6,3.1,-1.5" class="g8_1" />
<path d="M779,740.7c0,0.8,1.3,1.6,3,1.6c1.7,0,3.1,-0.6,3.1,-1.5" class="g8_1" />
<path d="M778.8,749.9l0.2,-9" class="g9_1" />
<path d="M784.9,749.9l0.2,-9" class="g9_1" />
<path d="M778.8,749.9c0,0.8,1.3,1.6,3,1.6c1.6,0,3,-0.8,3.1,-1.6" class="g9_1" />
<path d="M784.9,752.3c-0.4,0,5.4,0.1,5.4,0.1" class="g8_1" />
<path fill-rule="evenodd" d="M684.9,734.6l0.3,-1l0.9,-0.7l1.3,-0.6l1.2,-0.2l1.3,-0.1l1.2,0.1l1.3,0.3l1,0.5l0.8,0.7l0.3,0.8l0,4.4l0,0.2l-0.1,0.3l-0.4,0.6l-0.6,0.5l-0.6,0.3l0.3,9l-0.1,0.4l-0.3,0.3l-0.4,0.3l-0.7,0.3l-0.8,0.2l-0.7,0.1l-0.9,-0.1l-1,-0.2l-0.6,-0.4l-0.4,-0.3L687,749.9l-0.3,-9l-0.5,-0.3l-0.5,-0.4l-0.5,-0.6L685,739Z" class="g12_1" />
<path d="M689.6,732c2.3,-0.1,4.2,0.9,4.2,2.1c0.1,1.2,-1.8,2.2,-4.1,2.2c-2.3,0.1,-4.2,-0.9,-4.2,-2.1c-0.1,-1.2,1.8,-2.2,4.1,-2.2Z" class="g8_1" />
<path d="M684.9,734.5c0,-1.3,2.1,-2.5,4.7,-2.5c2.6,-0.1,4.8,1,4.8,2.3" class="g9_1" />
<path d="M694.4,734.3c0,1.4,-2.1,2.5,-4.7,2.6c-2.6,0,-4.7,-1,-4.8,-2.4" class="g8_1" />
<path d="M694.5,738.7c0,1.4,-2.1,2.5,-4.7,2.6c-2.6,0,-4.8,-1,-4.8,-2.4" class="g9_1" />
<path d="M685,738.9l-0.1,-4.4" class="g9_1" />
<path d="M694.5,738.7l-0.1,-4.4" class="g9_1" />
<path d="M692.2,733.4l-0.1,1.4l-2.5,0.8l-2.4,-0.8" class="g9_1" />
<path d="M687.2,734.8l0.3,-1.4l2.4,-0.7l2.3,0.7" class="g8_1" />
<path d="M688.5,735.2l1.5,-0.4l1.1,0.3" class="g8_1" />
<path d="M690,734.8l-0.1,-2.1" class="g8_1" />
<path d="M687.5,734.9l0,-1.5" class="g8_1" />
<path d="M693,748.4c0.1,0.9,-1.3,1.6,-3,1.6c-1.6,0.1,-3,-0.6,-3,-1.5" class="g8_1" />
<path d="M693.2,747.3c0,0.9,-1.3,1.6,-3,1.6c-1.7,0.1,-3.1,-0.6,-3.1,-1.5" class="g8_1" />
<path d="M693.1,746.2c0,0.9,-1.3,1.6,-3,1.6c-1.7,0.1,-3.1,-0.6,-3.1,-1.5" class="g8_1" />
<path d="M693.1,745.1c0,0.8,-1.4,1.6,-3,1.6c-1.7,0,-3.1,-0.7,-3.1,-1.5" class="g8_1" />
<path d="M693,743.9c0,0.9,-1.3,1.6,-3,1.6c-1.7,0.1,-3.1,-0.6,-3.1,-1.5" class="g8_1" />
<path d="M693,742.8c0,0.8,-1.3,1.6,-3,1.6c-1.7,0,-3.1,-0.6,-3.1,-1.5" class="g8_1" />
<path d="M692.9,741.6c0.1,0.9,-1.3,1.6,-3,1.7c-1.6,0,-3,-0.7,-3,-1.6" class="g8_1" />
<path d="M692.8,740.5c0,0.9,-1.3,1.6,-3,1.6c-1.7,0.1,-3,-0.6,-3.1,-1.5" class="g8_1" />
<path d="M693,749.7l-0.2,-9" class="g9_1" />
<path d="M687,749.7l-0.2,-9" class="g9_1" />
<path d="M693,749.7c0.1,0.9,-1.2,1.6,-2.9,1.6c-1.7,0,-3.1,-0.7,-3.1,-1.6" class="g9_1" />
<path d="M674.5,529.4c2.3,-2.2,6.4,3.5,4.5,5.2" class="g9_1" />
<path d="M672.1,530.9c2.2,-2.2,6.4,3.4,4.4,5.2" class="g8_1" />
<path d="M669.9,532.3c2.3,-2.2,6.4,3.4,4.5,5.2" class="g9_1" />
<path d="M667.9,533.6c2.3,-2.2,6.4,3.4,4.5,5.2" class="g8_1" />
<path d="M666,535.1c2.2,-2.2,6.4,3.4,4.4,5.2" class="g9_1" />
<path d="M663.8,536.9c1.8,-2.5,6.9,2.2,5.3,4.3" class="g8_1" />
<path d="M662.4,539.6c1.4,-2.8,7.1,1.2,5.8,3.5" class="g9_1" />
<path d="M661.1,542.6c0.8,-3,7.2,-0.3,6.4,2.3" class="g8_1" />
<path d="M659.5,557.2c-0.1,-3.1,6.9,-2.3,6.8,0.3" class="g9_1" />
<path d="M659.5,554.3c0,-3.1,6.9,-2.3,6.9,0.4" class="g8_1" />
<path d="M659.6,551.5c0,-3.1,6.9,-2.3,6.9,0.3" class="g9_1" />
<path d="M659.9,548.1c0.5,-3.1,7.2,-1.2,6.7,1.4" class="g8_1" />
<path d="M660.2,545.4c0.6,-3.1,7.2,-0.9,6.6,1.7" class="g9_1" />
<path d="M659.4,559.9c-0.1,-3.1,6.9,-2.3,6.8,0.4" class="g8_1" />
<path d="M659.4,562.5c-0.1,-3.1,6.9,-2.3,6.8,0.4" class="g9_1" />
<path d="M659.5,565.2c-0.1,-3.2,6.9,-2.3,6.8,0.3" class="g8_1" />
<path d="M659.6,567.7c-0.1,-3.2,6.9,-2.3,6.8,0.3" class="g9_1" />
<path d="M659.7,570.4c0,-3.1,6.9,-2.3,6.9,0.4" class="g8_1" />
<path d="M659.9,573.4c-0.1,-3.2,6.9,-2.3,6.8,0.3" class="g9_1" />
<path d="M660,576.1c-0.1,-3.2,6.9,-2.3,6.8,0.3" class="g8_1" />
<path d="M660,578.9c0,-3.1,6.9,-2.3,6.9,0.4" class="g9_1" />
<path d="M660.3,581.8c-0.1,-3.2,6.9,-2.3,6.8,0.3" class="g8_1" />
<path d="M660.4,584.7c0,-3.1,6.9,-2.3,6.9,0.4" class="g9_1" />
<path d="M660.5,587.7c-0.1,-3.1,6.9,-2.3,6.8,0.4" class="g8_1" />
<path d="M660.6,590.7c0,-3.2,6.9,-2.3,6.8,0.3" class="g9_1" />
<path d="M660.7,593.4c-0.1,-3.2,6.9,-2.3,6.8,0.3" class="g8_1" />
<path d="M660.7,596.2c0,-3.1,6.9,-2.3,6.9,0.4" class="g9_1" />
<path d="M660.7,598.8c0,-3.1,6.9,-2.3,6.9,0.4" class="g8_1" />
<path d="M660.7,601.4c0.1,-3.2,7,-1.9,6.8,0.8" class="g9_1" />
<path d="M660.8,604.4c0.1,-3.1,7,-1.9,6.8,0.8" class="g8_1" />
<path d="M660.8,607.1c0.1,-3.2,6.8,-2,6.6,0.6" class="g9_1" />
<path d="M660.6,609.8c0.1,-3.2,7,-1.9,6.8,0.7" class="g8_1" />
<path d="M660.3,612.3c0.2,-3.1,7.1,-1.8,6.8,0.8" class="g9_1" />
<path d="M660,614.7c0.3,-3.1,7.1,-1.5,6.8,1.1" class="g8_1" />
<path d="M659.7,617.4c0.5,-3.1,7.2,-1,6.6,1.6" class="g9_1" />
<path d="M659.2,620.3c0.5,-3.2,7.2,-1,6.7,1.5" class="g8_1" />
<path d="M658.5,623.1c0.5,-3.1,7.2,-1,6.7,1.6" class="g9_1" />
<path d="M657.8,625.5c0.7,-3.1,7.3,-0.6,6.6,2" class="g8_1" />
<path d="M657,627.8c0.9,-3,7.3,-0.2,6.4,2.4" class="g9_1" />
<path d="M655.9,629.9c1.5,-2.7,7.1,1.5,5.8,3.7" class="g8_1" />
<path d="M654.4,632.4c1.5,-2.8,7.1,1.4,5.8,3.7" class="g9_1" />
<path d="M651.2,636.2c1.6,-2.7,7.2,1.5,5.8,3.7" class="g9_1" />
<path d="M652.9,634.3c1.5,-2.7,7.1,1.5,5.8,3.7" class="g8_1" />
<image x="102" y="102" width="114" height="39" xlink:href="img/1.png" />
</svg>