<?xml version="1.0" encoding="UTF-8" standalone="no"?>
<!DOCTYPE svg PUBLIC "-//W3C//DTD SVG 1.1//EN"
"http://www.w3.org/Graphics/SVG/1.1/DTD/svg11.dtd">
<svg version="1.1" xmlns="http://www.w3.org/2000/svg" xmlns:xlink="http://www.w3.org/1999/xlink">
<defs>
<style type="text/css"><![CDATA[
.g11_1{
fill: #636363;
}
.g15_1{
fill: none;
stroke: #FFFFFF;
stroke-width: 2;
stroke-linecap: round;
stroke-linejoin: round;
stroke-miterlimit: 2;
}
.g12_1{
fill: #D4D4D4;
}
.g20_1{
fill: none;
stroke: #000000;
stroke-width: 1;
stroke-linecap: round;
stroke-linejoin: round;
stroke-miterlimit: 2;
stroke-dasharray: 2,2;
}
.g8_1{
fill: #636363;
stroke: #000000;
stroke-width: 2;
stroke-linecap: round;
stroke-linejoin: round;
stroke-miterlimit: 2;
}
.g3_1{
fill: none;
stroke: #000000;
stroke-width: 1;
stroke-linecap: butt;
stroke-linejoin: miter;
stroke-miterlimit: 2;
}
.g7_1{
fill: none;
stroke: #000000;
stroke-width: 1;
stroke-linecap: round;
stroke-linejoin: round;
stroke-miterlimit: 2;
}
.g18_1{
fill: none;
stroke: #FFFFFF;
stroke-width: 1;
stroke-linecap: round;
stroke-linejoin: round;
stroke-miterlimit: 2;
}
.g1_1{
fill: #B3B3B3;
}
.g17_1{
fill: none;
stroke: #FFFFFF;
stroke-width: 3;
stroke-linecap: round;
stroke-linejoin: miter;
stroke-miterlimit: 2;
}
.g13_1{
fill: #FFFFFF;
}
.g14_1{
fill: none;
stroke: #000000;
stroke-width: 3;
stroke-linecap: round;
stroke-linejoin: round;
stroke-miterlimit: 2;
}
.g2_1{
fill: #FFFFFF;
stroke: #000000;
stroke-width: 2;
stroke-linecap: butt;
stroke-linejoin: miter;
stroke-miterlimit: 2;
}
.g6_1{
fill: #636363;
stroke: #000000;
stroke-width: 1;
stroke-linecap: butt;
stroke-linejoin: miter;
stroke-miterlimit: 2;
}
.g16_1{
fill: none;
stroke: #000000;
stroke-width: 1;
stroke-linecap: round;
stroke-linejoin: round;
stroke-miterlimit: 2;
stroke-dasharray: 2,3;
}
.g5_1{
}
.g9_1{
fill: #D4D4D4;
stroke: #000000;
stroke-width: 1;
stroke-linecap: round;
stroke-linejoin: round;
stroke-miterlimit: 2;
}
.g4_1{
fill: none;
stroke: #000000;
stroke-width: 2;
stroke-linecap: butt;
stroke-linejoin: miter;
stroke-miterlimit: 2;
}
.g10_1{
fill: none;
stroke: #000000;
stroke-width: 2;
stroke-linecap: round;
stroke-linejoin: round;
stroke-miterlimit: 2;
}
.g19_1{
fill: none;
stroke: #000000;
stroke-width: 1;
stroke-linecap: round;
stroke-linejoin: round;
stroke-miterlimit: 2;
stroke-dasharray: 1,2;
}
]]></style>
</defs>
<path fill-rule="evenodd" d="M55,54l824,0l0,1101l-824,0Z" class="g1_1" />
<path fill-rule="evenodd" d="M82,82l770,0l0,1045l-770,0Z" class="g2_1" />
<path d="M184.5,209.5l646,0" class="g3_1" />
<path d="M103.5,278.5l727,0" class="g3_1" />
<path d="M82,1097l770,0" class="g4_1" />
<path d="M466.5,1099.5l0,28" class="g3_1" />
<path d="M468.5,1099.5l0,28" class="g3_1" />
<path d="M272.5,1099.5l0,28" class="g3_1" />
<path d="M274.5,1099.5l0,28" class="g3_1" />
<path d="M664.5,1099.5l0,28" class="g3_1" />
<path d="M666.5,1099.5l0,28" class="g3_1" />
<path fill-rule="evenodd" d="M106,289l37,0l0,38l-37,0Z" class="g5_1" />
<path fill-rule="evenodd" d="M103.5,287.5l38,0l0,37l-38,0Z" class="g6_1" />
<path d="M103.5,673.5l727,0" class="g3_1" />
<path d="M274.5,1099.5l192,0" class="g7_1" />
<path d="M468.5,1099.5l196,0" class="g7_1" />
<path d="M666.5,1099.5l186,0" class="g7_1" />
<path d="M272.5,1099.5l-190,0" class="g7_1" />
<path d="M467.5,1097.5l0,-819" class="g3_1" />
<path fill-rule="evenodd" d="M479,289l37,0l0,38l-37,0Z" class="g5_1" />
<path fill-rule="evenodd" d="M477.5,287.5l37,0l0,37l-37,0Z" class="g6_1" />
<path fill-rule="evenodd" d="M294.9,974.1l5.2,-2.8l9.8,4l-0.1,-5.5L315,967l32.3,13.1l0,10.7l14.3,5.8l-5.1,2.8l-30.1,10.1Z" class="g8_1" />
<path fill-rule="evenodd" d="M309.8,969.8l32.3,13.1l0,10.7l14.4,5.8l-30.1,10.1L294.9,974.1l15,6.1Z" class="g9_1" />
<path d="M294.9,974.1l5.2,-2.8l9.8,4l-0.1,-5.5L315,967l32.3,13.1l0,10.7l14.3,5.8l-5.1,2.8l-30.1,10.1Z" class="g10_1" />
<path d="M309.9,980.2l0,-3.9" class="g10_1" />
<path d="M342.1,982.9l5.2,-2.8" class="g7_1" />
<path d="M342.1,993.6l5.2,-2.8" class="g7_1" />
<path d="M480.2,916.2l77.3,-15.4" class="g10_1" />
<path d="M690.7,874L827.4,846.7" class="g10_1" />
<path d="M695.6,873.9l0.1,4.3c0,0,0.2,2.3,0.4,2.9" class="g10_1" />
<path d="M715.6,903.9c-1.3,0.1,-0.7,0,-1.7,-1C713,902,672.3,851.8,672.3,851.8c0,0,-5.8,-6.2,-12.3,-4.9c-6.6,1.3,-98,19.8,-98,19.8c0,0,-1.8,0.3,-2.6,1.5c-0.7,1.2,-3.4,4.8,-4,5.6c-0.5,0.8,-0.4,2.4,0.8,4.1c1.2,1.6,9.5,11.7,9.5,11.7" class="g10_1" />
<path d="M558,872.2l99.4,-20.1c0,0,5.3,-1.5,9.7,3.7c4.4,5.3,43.6,53.3,43.6,53.3c0,0,3,3.2,5.6,2.8" class="g7_1" />
<path d="M708.8,895.6l13.9,-2.8c0,0,1,-0.4,1.7,0.5c0.7,0.8,3.9,4.8,3.9,4.8c0,0,0.5,0.8,-0.1,1.6c-0.6,0.9,-6.9,9.8,-6.9,9.8c0,0,-0.4,1.4,-6.5,2.7c-6.2,1.3,-20.6,4.2,-20.6,4.2c0,0,-4.3,1.2,-7.7,-2.9c-3.4,-4.2,-10.9,-13.4,-10.9,-13.4c0,0,-1.4,-2,-4.2,-1.4c-2.8,0.6,-8,1.7,-8,1.7" class="g10_1" />
<path d="M670.5,899.8c1,3.1,1.7,7.4,-1.6,12.1c-3.3,4.7,-13.4,18.7,-13.4,18.7" class="g10_1" />
<path d="M654.9,934.7l8.3,10.3c0,0,0.9,1.2,0.3,2.2c-0.7,1.1,-3.4,4.8,-3.4,4.8c0,0,-0.2,0.4,-1.5,0.8c-1.3,0.3,-37.7,7.4,-37.7,7.4c0,0,-2,0.6,-3.7,-1.2c-1.2,-1.4,-5.1,-6.2,-7.1,-8.7" class="g10_1" />
<path d="M690.9,917c0.1,1.4,-0.7,2.5,-2.4,2.8c-1.8,0.4,-20.8,4.1,-20.8,4.1c0,0,-2.1,0.5,-2.1,2.6c0,2.1,0,8,0.1,12.7c0.1,4.6,4.1,8.9,7.2,9.4c3.2,0.5,4.9,0.8,4.9,0.8c0,0,0.9,0.1,2.3,-0.2c1.5,-0.3,94.3,-18.4,94.3,-18.4c0,0,8.5,-2.7,8.6,-12.9c0,-10.2,0,-12.7,0,-12.7c0,0,-0.3,-1.4,-1.7,-1.8c-1.5,-0.4,-5.4,-0.7,-5.4,-0.7L753.6,907" class="g10_1" />
<path d="M715.6,903.9c0.8,0,0.9,-0.2,1.4,-0.7c0.4,-0.5,6.2,-8.5,6.4,-8.9c0.3,-0.3,0.9,-1.3,0.5,-1.4" class="g7_1" />
<path d="M674.8,948.2c2.6,-0.3,4.4,-0.8,4.4,-0.8L767.8,930c4,-0.8,9.2,-4.6,9.2,-14.2c0,-9.6,0,-11,0,-11c0,0,-0.3,-2.3,-1.8,-2" class="g7_1" />
<path d="M757.2,905.5l0,-1.5" class="g10_1" />
<path d="M757.5,898c0,-0.9,0.8,-1.5,1.8,-1.8c1.1,-0.3,22,-4.4,22,-4.4c0,0,1.7,-0.4,1.7,-2.8c0.1,-2.3,0.2,-32.2,0,-32.8" class="g10_1" />
<path d="M754.3,895.3c4.4,-0.9,21,-4.2,21,-4.2c0,0,1.7,-0.4,1.7,-2.7c0.1,-2.4,0.1,-31,0,-31.6" class="g7_1" />
<path d="M752.7,862.2c0,3.8,-0.6,7.9,-1.9,10.4c-1.2,2.6,-3.3,5.7,-7.5,6.4c-4.2,0.6,-41.7,8.1,-41.7,8.1" class="g10_1" />
<path d="M651.8,941.1l7.5,9c0,0,1.5,2,0,2.6" class="g7_1" />
<path d="M669,912.6l3.4,0.6c0,0,0.9,0.1,1.9,-0.2c1.1,-0.4,10.1,-2.1,10.1,-2.1" class="g10_1" />
<path d="M668.7,912.1c0.4,0,0.8,0,1.4,-0.2c1.1,-0.3,12.9,-2.7,12.9,-2.7" class="g7_1" />
<path d="M663.8,900.8l1.2,1.5c0,0,1,1.6,0.1,2.9c-1,1.4,-12.5,17.3,-12.5,17.3" class="g7_1" />
<path d="M576.5,902.9l11.4,13.9" class="g10_1" />
<path d="M655.7,863.8l-24.8,34.6" class="g10_1" />
<path d="M668.8,873.9l-24.7,34.3" class="g10_1" />
<path d="M655.7,863.8c1.4,-1.8,6.3,-1.6,9.7,1.4c3.5,3,5.3,6,3.4,8.7" class="g7_1" />
<path d="M654.2,866c1.3,-1.8,6.2,-1.7,9.7,1.4c3.4,3,5.3,5.9,3.3,8.6" class="g7_1" />
<path d="M652.6,868.1c1.4,-1.8,6.3,-1.6,9.7,1.4c3.5,3,5.3,6,3.4,8.6" class="g7_1" />
<path d="M651.1,870.2c1.4,-1.8,6.3,-1.6,9.7,1.4c3.5,3,5.3,6,3.4,8.7" class="g7_1" />
<path d="M649.6,872.4c1.3,-1.8,6.2,-1.6,9.7,1.4c3.4,3,5.3,5.9,3.3,8.6" class="g7_1" />
<path d="M648,874.5c1.4,-1.8,6.3,-1.6,9.7,1.4c3.5,3,5.3,6,3.4,8.6" class="g7_1" />
<path d="M646.5,876.7c1.4,-1.9,6.3,-1.7,9.7,1.3c3.5,3.1,5.3,6,3.4,8.7" class="g7_1" />
<path d="M645,878.8c1.3,-1.8,6.2,-1.6,9.7,1.4c3.4,3,5.3,5.9,3.4,8.6" class="g7_1" />
<path d="M643.4,880.9c1.4,-1.8,6.3,-1.6,9.8,1.4c3.4,3,5.2,6,3.3,8.7" class="g7_1" />
<path d="M641.9,883.1c1.4,-1.8,6.3,-1.7,9.7,1.4c3.5,3,5.3,5.9,3.4,8.6" class="g7_1" />
<path d="M640.4,885.2c1.4,-1.8,6.2,-1.6,9.7,1.4c3.4,3,5.3,5.9,3.4,8.6" class="g7_1" />
<path d="M638.8,887.3c1.4,-1.8,6.3,-1.6,9.8,1.4c3.4,3,5.3,6,3.3,8.7" class="g7_1" />
<path d="M637.3,889.5c1.4,-1.8,6.3,-1.7,9.7,1.4c3.5,3,5.3,5.9,3.4,8.6" class="g7_1" />
<path d="M635.8,891.6c1.4,-1.8,6.2,-1.6,9.7,1.4c3.4,3,5.3,6,3.4,8.6" class="g7_1" />
<path d="M634.2,893.8c1.4,-1.9,6.3,-1.7,9.8,1.3c3.4,3,5.3,6,3.3,8.7" class="g7_1" />
<path d="M632.7,895.9c1.4,-1.8,6.3,-1.6,9.7,1.4c3.5,3,5.3,5.9,3.4,8.6" class="g7_1" />
<path d="M631.2,898c1.4,-1.8,6.3,-1.6,9.7,1.4c3.4,3,5.3,6,3.4,8.7" class="g7_1" />
<path d="M632,899.1c2.1,-0.3,5,0.4,7.4,2.4c2.2,2,3.7,3.8,4,5.7" class="g7_1" />
<path d="M571.9,880.4l-24,33.6" class="g10_1" />
<path d="M585,890.5l-24,33.3" class="g10_1" />
<path d="M571.9,880.4c1.4,-1.8,6.3,-1.6,9.8,1.4c3.4,3,5.3,6,3.3,8.7" class="g7_1" />
<path d="M570.4,882.6c1.4,-1.8,6.3,-1.6,9.7,1.4c3.5,3,5.3,5.9,3.4,8.6" class="g7_1" />
<path d="M568.9,884.7c1.4,-1.8,6.3,-1.6,9.7,1.4c3.4,3,5.3,6,3.4,8.6" class="g7_1" />
<path d="M567.3,886.9c1.4,-1.9,6.3,-1.7,9.8,1.3c3.4,3.1,5.3,6,3.3,8.7" class="g7_1" />
<path d="M565.8,889c1.4,-1.8,6.3,-1.6,9.7,1.4c3.5,3,5.3,5.9,3.4,8.6" class="g7_1" />
<path d="M564.3,891.1c1.4,-1.8,6.3,-1.6,9.7,1.4c3.5,3,5.3,6,3.4,8.7" class="g7_1" />
<path d="M562.8,893.3c1.3,-1.8,6.2,-1.7,9.7,1.4c3.4,3,5.3,5.9,3.3,8.6" class="g7_1" />
<path d="M561.2,895.4c1.4,-1.8,6.3,-1.6,9.7,1.4c3.5,3,5.3,5.9,3.4,8.6" class="g7_1" />
<path d="M559.7,897.5c1.4,-1.8,6.3,-1.6,9.7,1.4c3.5,3,5.3,6,3.4,8.7" class="g7_1" />
<path d="M558.2,899.7c1.3,-1.8,6.2,-1.6,9.7,1.4c3.4,3,5.3,5.9,3.4,8.6" class="g7_1" />
<path d="M556.6,901.8c1.4,-1.8,6.3,-1.6,9.8,1.4c3.4,3,5.2,6,3.3,8.6" class="g7_1" />
<path d="M555.1,904c1.4,-1.9,6.3,-1.7,9.7,1.3c3.5,3.1,5.3,6,3.4,8.7" class="g7_1" />
<path d="M553.6,906.1c1.3,-1.8,6.2,-1.6,9.7,1.4c3.4,3,5.3,5.9,3.4,8.6" class="g7_1" />
<path d="M552,908.2c1.4,-1.8,6.3,-1.6,9.8,1.4c3.4,3,5.3,6,3.3,8.7" class="g7_1" />
<path d="M550.5,910.4c1.4,-1.9,6.3,-1.7,9.7,1.3c3.5,3.1,5.3,6,3.4,8.7" class="g7_1" />
<path d="M549,912.5c1.4,-1.8,6.2,-1.6,9.7,1.4c3.4,3,5.3,5.9,3.4,8.6" class="g7_1" />
<path d="M548.4,913.9c2,-0.9,5.9,-0.4,8.8,2.1c2.9,2.6,4.7,5.2,3.9,7.6" class="g7_1" />
<path d="M548.2,915.7c2.1,-0.3,5.1,0.4,7.4,2.5c2.2,1.9,3.8,3.7,4.1,5.6" class="g7_1" />
<path d="M599.1,900c5.6,-7.3,25.5,-6.5,39.6,5.5c14,12,21.5,23.7,13.7,34.4" class="g10_1" />
<path d="M590.6,911.5c5.6,-7.2,25.5,-6.5,39.5,5.5c14,12,21.6,23.7,13.7,34.4" class="g7_1" />
<path d="M643.8,951.4c-5.6,7.3,-25.5,6.5,-39.5,-5.5c-14,-12,-21.6,-23.7,-13.7,-34.4" class="g10_1" />
<path d="M593.6,913.8c5,-6.4,22.6,-5.8,35,4.9c12.4,10.6,19.1,21,12.2,30.4" class="g7_1" />
<path d="M640.8,949.1c-5,6.4,-22.6,5.8,-35,-4.8C593.3,933.6,586.7,923.2,593.6,913.8" class="g7_1" />
<path d="M599.1,900l-8.5,11.5" class="g10_1" />
<path d="M652.4,939.9l-8.6,11.5" class="g10_1" />
<path d="M594.2,908.3l7.9,-10.8" class="g7_1" />
<path d="M595.5,907.8L603.4,897" class="g7_1" />
<path d="M597.2,907.2l7.9,-10.8" class="g7_1" />
<path d="M599.2,906.9L607.1,896" class="g7_1" />
<path d="M601.3,906.4l7.9,-10.8" class="g7_1" />
<path d="M603.6,906.3l7.9,-10.8" class="g7_1" />
<path d="M605.8,906.4l7.9,-10.8" class="g7_1" />
<path d="M608.3,906.6l7.9,-10.8" class="g7_1" />
<path d="M610.7,907l7.9,-10.8" class="g7_1" />
<path d="M613.2,907.6l7.9,-10.8" class="g7_1" />
<path d="M615.8,908.4l7.9,-10.9" class="g7_1" />
<path d="M618.4,909.3l7.9,-10.9" class="g7_1" />
<path d="M621,910.5l7.9,-10.8" class="g7_1" />
<path d="M623.6,911.8l7.9,-10.9" class="g7_1" />
<path d="M626,913.4l7.9,-10.9" class="g7_1" />
<path d="M628.5,915l7.9,-10.8" class="g7_1" />
<path d="M630.7,916.9L638.6,906" class="g7_1" />
<path d="M632.9,918.8L640.8,908" class="g7_1" />
<path d="M635.1,920.8L643,909.9" class="g7_1" />
<path d="M637.1,922.8L645,911.9" class="g7_1" />
<path d="M638.9,924.9l7.9,-10.8" class="g7_1" />
<path d="M640.7,927l7.9,-10.9" class="g7_1" />
<path d="M642.2,928.9l7.9,-10.8" class="g7_1" />
<path d="M643.6,931l7.9,-10.8" class="g7_1" />
<path d="M644.8,933.1l7.9,-10.8" class="g7_1" />
<path d="M645.8,935.1l7.9,-10.8" class="g7_1" />
<path d="M646.7,937.1l7.9,-10.9" class="g7_1" />
<path d="M647.2,939.1L655,928.3" class="g7_1" />
<path d="M647.5,941.1l7.9,-10.9" class="g7_1" />
<path d="M647.5,943l7.9,-10.8" class="g7_1" />
<path d="M647.3,944.8l7.9,-10.9" class="g7_1" />
<path d="M614.8,895.2c7.2,-0.6,16.8,2,24.4,8.5c7.4,6.3,12.6,12.5,13.9,18.5" class="g10_1" />
<path d="M515.8,915.4c5.6,-7.2,25.5,-6.5,39.6,5.5c14,12,21.5,23.8,13.7,34.5" class="g10_1" />
<path d="M507.3,926.9c5.6,-7.2,25.5,-6.5,39.5,5.5c14,12,21.6,23.8,13.7,34.5" class="g7_1" />
<path d="M560.5,966.9c-5.6,7.2,-25.5,6.5,-39.5,-5.5C507,949.3,499.4,937.6,507.3,926.9" class="g10_1" />
<path d="M510.3,929.2c5,-6.4,22.6,-5.7,35,4.9c12.4,10.6,19.1,21,12.2,30.5" class="g7_1" />
<path d="M557.5,964.6c-5,6.4,-22.6,5.7,-35,-4.9c-12.4,-10.6,-19.1,-21,-12.2,-30.5" class="g7_1" />
<path d="M515.8,915.4l-8.5,11.5" class="g10_1" />
<path d="M569.1,955.4l-8.6,11.5" class="g10_1" />
<path d="M510.9,923.8l7.9,-10.9" class="g7_1" />
<path d="M512.2,923.2l7.9,-10.8" class="g7_1" />
<path d="M514,922.6l7.8,-10.8" class="g7_1" />
<path d="M515.9,922.3l7.9,-10.8" class="g7_1" />
<path d="M518,921.9L525.9,911" class="g7_1" />
<path d="M520.3,921.8l7.9,-10.9" class="g7_1" />
<path d="M522.5,921.9L530.4,911" class="g7_1" />
<path d="M525,922l7.9,-10.8" class="g7_1" />
<path d="M527.4,922.5l7.9,-10.9" class="g7_1" />
<path d="M529.9,923l7.9,-10.8" class="g7_1" />
<path d="M532.5,923.8L540.4,913" class="g7_1" />
<path d="M535.1,924.7L543,913.9" class="g7_1" />
<path d="M537.7,925.9l7.9,-10.8" class="g7_1" />
<path d="M540.3,927.2l7.9,-10.8" class="g7_1" />
<path d="M542.8,928.8l7.8,-10.9" class="g7_1" />
<path d="M545.2,930.5l7.9,-10.9" class="g7_1" />
<path d="M547.4,932.3l7.9,-10.8" class="g7_1" />
<path d="M549.6,934.3l7.9,-10.9" class="g7_1" />
<path d="M551.8,936.2l7.9,-10.8" class="g7_1" />
<path d="M553.8,938.2l7.9,-10.8" class="g7_1" />
<path d="M555.6,940.4l7.9,-10.9" class="g7_1" />
<path d="M557.4,942.4l7.9,-10.8" class="g7_1" />
<path d="M558.9,944.4l7.9,-10.9" class="g7_1" />
<path d="M560.3,946.5l7.9,-10.9" class="g7_1" />
<path d="M561.6,948.6l7.8,-10.9" class="g7_1" />
<path d="M562.5,950.6l7.9,-10.9" class="g7_1" />
<path d="M563.4,952.5l7.9,-10.8" class="g7_1" />
<path d="M563.9,954.6l7.8,-10.9" class="g7_1" />
<path d="M564.2,956.5l7.9,-10.8" class="g7_1" />
<path d="M564.2,958.4l7.9,-10.8" class="g7_1" />
<path d="M564,960.2l7.9,-10.8" class="g7_1" />
<path d="M531.5,910.6c7.2,-0.5,16.8,2,24.4,8.5c7.4,6.3,12.6,12.5,14,18.5" class="g10_1" />
<path fill-rule="evenodd" d="M738.5,887l5.9,-1.2l0,10.4l-5.9,-0.8Z" class="g11_1" />
<path fill-rule="evenodd" d="M732.4,896.8l5.9,-1.2l0,6.4l6.2,0.8l0,10.5l-6,1.2l0,-10.3l-6.2,-1Z" class="g11_1" />
<path d="M744.5,902.8l-6,1.4" class="g7_1" />
<path fill-rule="evenodd" d="M738.5,895.4l6.1,0.6l0,-10.3l15.8,15.6l-15.7,11.8l0,-10.4l-6.2,-0.9Z" class="g12_1" />
<path d="M732.3,896.6l0,6.6l6.2,1l0,10.3l6.2,-1.3l15.7,-11.5L744.6,885.8l-6.1,1.2l0,8.4Z" class="g10_1" />
<path d="M744.7,896.2l-6.2,-0.8" class="g10_1" />
<path d="M738.5,901.5l0,-5" class="g7_1" />
<path d="M744.5,912.2l0,-9.4L738.3,902l-6,1.2" class="g7_1" />
<path d="M744.5,886.5l0,9" class="g7_1" />
<path fill-rule="evenodd" d="M663.4,963l5.6,-1l3.4,3l3.8,3l5.1,2.8l4.3,1.3l3.7,0.4l4.5,-1.2l3.7,-2l3.1,-2.5l2.2,-2.8l-5.9,-7l16.6,-6.8l5.9,-1.1l-0.9,23.3l-6,1.5L710,971.3l-3.1,3.1l-4,3l-7.1,3.5l-8,2.2l-7.9,1l-4.8,-0.3L668.3,982l-9.2,-4.4L656,975.5Z" class="g11_1" />
<path d="M702.8,964c0,0,-2.3,5,-12.1,8.6" class="g10_1" />
<path d="M669.3,962l-5.9,1L656,975.5" class="g10_1" />
<path fill-rule="evenodd" d="M661.8,974.4c9.6,6.8,16.9,9.3,26,8.7c9,-0.7,20.6,-8,25.4,-15.7l5.3,5.1l0.9,-23.4l-16.5,7L709,963c-2.4,3.7,-8.9,9.1,-17.8,10c-9,1,-16.2,-5.4,-21.9,-11Z" class="g12_1" />
<path d="M709,963l-6.1,-6.9l-6,0.9" class="g7_1" />
<path d="M702.8,964l6.2,-1" class="g7_1" />
<path d="M690.7,973.1c4.9,-0.1,14,-3.8,18.3,-10.1" class="g7_1" />
<path d="M690.7,972.6c-7.3,-0.2,-13.4,-2.3,-21.4,-10.6" class="g10_1" />
<path d="M713.2,967.4c-3.6,5.3,-11.8,13.6,-25.4,15.7" class="g10_1" />
<path d="M702.8,964l-5.9,-7l16.6,-6.8l5.9,-1.1l-0.9,23.4l-6,1.4L710,971.4" class="g10_1" />
<path d="M702.9,956.1l16.5,-7" class="g7_1" />
<path d="M713.2,967.4l5.3,5.1" class="g7_1" />
<path d="M656.9,975.4l4.9,-1c11,8.7,20.9,8.9,26,8.7" class="g7_1" />
<path d="M656,975.5c13.8,9.3,23.8,9.7,31.8,7.6" class="g10_1" />
<path d="M661.8,974.4L669.3,962" class="g7_1" />
<path fill-rule="evenodd" d="M345.1,1020.4l-52.9,-18l0.4,-12.3l53.9,21.5Z" class="g13_1" />
<path d="M441.8,1049.5c-2.8,-1.2,-34.6,-13.7,-96.1,-38.2C330.1,1005,314,998.6,298.3,992.4C232.6,966.2,172.5,942.2,172.5,942.2c0,0,-2.9,-0.7,-4.6,-0.5c-1.7,0.2,-72.7,27,-72.7,27" class="g10_1" />
<path fill-rule="evenodd" d="M106,683l37,0l0,38l-37,0Z" class="g5_1" />
<path fill-rule="evenodd" d="M103.5,681.5l38,0l0,38l-38,0Z" class="g6_1" />
<path fill-rule="evenodd" d="M479,683l37,0l0,38l-37,0Z" class="g5_1" />
<path fill-rule="evenodd" d="M477.5,681.5l37,0l0,38l-37,0Z" class="g6_1" />
<path fill-rule="evenodd" d="M288.1,247.9c15.4,-8.9,30.8,-17.8,46.2,-26.8c0.6,-0.7,1.2,-1.5,1.8,-2.3c0.2,-0.3,0.3,-0.6,0.2,-0.7c-0.1,-0.2,-0.4,-0.3,-0.7,-0.3c-1,0.1,-2,0.2,-3.1,0.3c-15.2,8.8,-30.4,17.6,-45.7,26.5c0.4,1.1,0.8,2.2,1.3,3.3Z" class="g13_1" />
<path d="M276.8,254.4c19.1,-11.1,38.3,-22.2,57.5,-33.3c0.6,-0.7,1.2,-1.5,1.8,-2.3c0.2,-0.3,0.3,-0.6,0.2,-0.7c-0.1,-0.2,-0.4,-0.3,-0.7,-0.3c-1,0.1,-2,0.2,-3.1,0.3c-18.9,11,-38,21.9,-57,33" class="g10_1" />
<path d="M333.4,220.9c0.2,-0.6,0.6,-1.1,1,-1.4c0.4,-0.4,1,-0.7,1.7,-0.9" class="g7_1" />
<path d="M331.9,219c0.8,0,1.6,-0.1,2.2,-0.3c0.6,-0.2,1.2,-0.5,1.7,-0.8" class="g7_1" />
<path fill-rule="evenodd" d="M292.6,235.9c-0.9,0.5,-1.8,1,-2.6,1.5c-0.5,0.3,-0.9,0.7,-1.2,1.1c-0.3,0.4,-0.6,1,-0.7,1.6c0,0.4,0,0.7,-0.1,0.9c-0.1,0.1,-0.4,0.1,-0.6,0c-0.9,-0.6,-1.9,-1,-2.8,-1.1c-0.8,-0.1,-1.8,0.1,-2.7,0.4c-9.2,5.4,-18.4,10.7,-27.7,16c-2,2,-3.2,4,-3.5,5.9c-0.3,1.9,0.2,3.8,1.6,5.6c1.6,1.9,3.4,3.1,5.2,3.4c1.9,0.3,4,-0.2,6.1,-1.5c8.7,-5,17.4,-10,26.1,-15c0.8,-0.8,1.5,-1.7,1.9,-2.5c0.4,-0.9,0.6,-1.9,0.6,-2.9c0,-0.4,0.2,-0.7,0.4,-0.8c0.1,-0.1,0.4,0.1,0.7,0.4c0.5,0.2,1,0.5,1.5,0.5c0.4,0,1,-0.1,1.4,-0.3c1,-0.5,2,-1.1,3,-1.7c0.9,-0.9,1.3,-2.1,1.3,-3.4c-0.1,-1.4,-0.7,-2.9,-1.8,-4.6c-1.1,-1.5,-2.2,-2.6,-3.2,-3.1c-1,-0.6,-2,-0.7,-2.9,-0.4Z" class="g13_1" />
<path d="M288.2,241c0,-1.5,0.4,-2.8,1.4,-3.3c0.9,-0.5,1.9,-1.1,2.9,-1.7c1.8,-1,4.7,0.7,6.6,3.9c1.8,3.1,1.8,6.5,0,7.6c-1,0.5,-1.9,1.1,-2.9,1.6c-1,0.6,-2.4,0.3,-3.7,-0.5" class="g10_1" />
<path d="M291.6,249.9C291.5,248.4,291,246.7,290,245c-0.7,-1.3,-1.5,-2.3,-2.5,-3.1" class="g7_1" />
<path d="M292.3,247.9c-0.1,-1.1,-0.4,-2.4,-1.1,-3.5c-0.7,-1.2,-1.5,-2.1,-2.4,-2.7" class="g7_1" />
<path d="M294.2,248.4c-0.6,-0.1,-1.2,-0.1,-1.5,-0.1c-0.2,0.1,-0.5,0.4,-0.5,0.8c0,1.2,-0.2,2.4,-0.6,3.2c-0.4,0.9,-1.1,1.7,-1.8,2.2c-9.2,5.3,-18.5,10.6,-27.7,16c-1.2,0.6,-2,0.8,-3.3,0.8c-4.4,0,-8,-3.7,-8,-8.1c0,-2.6,1.4,-5.1,3.4,-6.6c9.1,-5.4,18.4,-10.7,27.6,-16.1c0.7,-0.3,1.6,-0.5,2.5,-0.5c0.8,0.1,1.9,0.5,3,1c0.5,0.3,0.9,0.3,1.2,0.1c0.3,-0.1,0.5,-0.5,0.6,-1.1" class="g10_1" />
<path d="M255.5,256.6c2.1,0.2,4.5,2.1,6.2,5c1.5,2.7,2,5.6,1.4,7.5" class="g7_1" />
<path d="M295.6,249c1.4,-1.1,1.3,-4.1,-0.3,-7c-1.6,-2.8,-4.2,-4.5,-6,-3.8" class="g7_1" />
<path d="M259.4,256.7l24.9,-14.5" class="g7_1" />
<path d="M261.8,258.1L286,243.7" class="g7_1" />
<path d="M264.4,263.1l24.5,-14.8" class="g7_1" />
<path d="M264.9,265.9L289.4,251" class="g7_1" />
<path d="M261.8,258.1c-1,0.6,-3.9,-0.1,-2.4,-1.4" class="g7_1" />
<path d="M264.4,263.1c-1.4,0.9,-1.2,3.5,0.5,2.8" class="g7_1" />
<path d="M289.4,251c1.4,-0.7,1.7,-4.1,-0.5,-2.7" class="g7_1" />
<path d="M286,243.7c1.5,-0.8,0,-2.5,-1.7,-1.5" class="g7_1" />
<path d="M151,657.5l0,-9.5l-5.8,-7.7l-7.1,-4.1l-5.9,0.8" class="g7_1" />
<path d="M137.8,663.1l0.1,1l6.2,3.7c0,0,0.8,0.3,1.6,0c0.7,-0.3,19,-7.3,19,-7.3c0,0,2,-1.2,2.5,-3.1c0.4,-1.9,1.2,-6,1.2,-6" class="g10_1" />
<path d="M146.7,658.3c0.2,-0.2,0.8,-0.2,1.1,-0.2c0.3,0,2.1,0.2,2.1,0.2c0,0,1.5,0,2.3,-0.4c0.8,-0.3,18.5,-7.4,18.5,-7.4c0,0,5.6,-2,5.5,-6.7c-0.1,-4.7,0.1,-7.1,0.1,-7.1" class="g10_1" />
<path d="M177,643.6l8.5,-4.7c0,0,4,-3,1.1,-8.9c-3,-5.9,-7.1,-4.8,-7.1,-4.8l-15.3,3" class="g10_1" />
<path d="M131.7,640.1l0.5,-3.1L154,628.8c0,0,6.2,-1.6,10.2,-0.6" class="g10_1" />
<path d="M146.7,639.7L165,633c0,0,4.4,-2.1,-0.8,-4.8" class="g7_1" />
<path d="M165.7,628.8c1.5,1.5,5.8,3.8,9,4.3c3.2,0.6,1.6,3.6,1.6,3.6" class="g7_1" />
<path d="M151.5,647.9l19.8,-7.4c0,0,5.1,-1.7,5.1,-4.1" class="g7_1" />
<path d="M140.3,656.3l-17.5,6.5c0,0,-2.5,1.3,-1.7,3.7c0.9,2.4,2.5,2,3.6,1.6c1.1,-0.5,18,-7,18,-7" class="g10_1" />
<path d="M140.3,656.3c1.9,-0.8,4.5,3.5,2.4,4.8" class="g7_1" />
<path d="M145.3,666.3l1.4,-8" class="g7_1" />
<path d="M135.6,638.4l-13.3,4.8c0,0,-3.6,5.5,0.8,7.8" class="g10_1" />
<path d="M137.3,645.9L123.1,651" class="g10_1" />
<path d="M146.8,651.6l-13.4,5.3c0,0,-4.8,-1.9,-1.3,-7.7" class="g10_1" />
<path d="M132.1,649.2l13.4,-5.3" class="g10_1" />
<path d="M137.3,645l0,-5.7l-1.7,-0.9" class="g7_1" />
<path d="M147.1,650.6l0,-5.7l-1.7,-1" class="g7_1" />
<path d="M183.8,626.4l85.6,-33.2c0,0,14.4,-6.4,16.5,-8.8" class="g10_1" />
<path d="M188.2,636.1l85.9,-32c0,0,38.9,-13.1,39.5,-42.7" class="g10_1" />
<path d="M312.8,554.9c0.3,1.4,0.8,4.4,0.8,6.5" class="g10_1" />
<path d="M127.2,644.8c0.7,0.4,0.8,1.5,0.2,2.4c-0.6,0.9,-1.6,1.3,-2.2,0.9c-0.7,-0.5,-0.8,-1.5,-0.2,-2.4c0.5,-0.9,1.5,-1.3,2.2,-0.9Z" class="g7_1" />
<path d="M136.9,650.7c0.7,0.4,0.8,1.5,0.2,2.4c-0.6,0.9,-1.6,1.3,-2.2,0.9c-0.7,-0.5,-0.8,-1.5,-0.2,-2.4c0.5,-0.9,1.5,-1.3,2.2,-0.9Z" class="g7_1" />
<path d="M101.6,525.3c0,31.8,50.8,48.7,104.7,48.7c53.8,0,107.1,-22.8,107.1,-56" class="g10_1" />
<path d="M101.6,525.3c0,-28.8,50.3,-47.5,99.3,-47.5c49,0,100.7,15.6,100.7,40.4" class="g10_1" />
<path d="M101.6,540c0,31.8,50.8,48.7,104.7,48.7c53.8,0,107.1,-22.8,107.1,-56" class="g10_1" />
<path d="M121.9,511.2c19.2,-11.8,49.3,-18.7,79,-18.7c44.3,0,90.8,12.8,99.4,33.5" class="g10_1" />
<path d="M101.6,540c0,-2.4,0.4,-4.8,1.1,-7.1" class="g10_1" />
<path d="M101.6,554.2c0,31.7,50.8,48.7,104.7,48.7c53.8,0,107.1,-22.8,107.1,-56" class="g10_1" />
<path d="M122.6,525c19.2,-11.6,49,-18.3,78.3,-18.3c38.8,0,79.4,9.8,94.6,26.2" class="g10_1" />
<path d="M101.6,554.2c0,-2.1,0.3,-4.1,0.8,-6.1" class="g10_1" />
<path d="M312.8,540.5c0.3,1.4,0.6,4.3,0.6,6.4" class="g10_1" />
<path d="M312.8,526.3c0.3,1.4,0.6,4.3,0.6,6.4" class="g10_1" />
<path d="M203.9,437.1l83,45.7" class="g10_1" />
<path d="M197.6,446.7l83.1,46.8" class="g10_1" />
<path d="M286.9,482.8c16,9.2,26.5,20.7,26.5,35.2" class="g10_1" />
<path d="M301.6,518.2c0,27.1,-53.7,43.8,-98.3,43.8c-44.6,0,-89.8,-15.4,-89.8,-36.7c0,-21.4,52.4,-35.8,86.1,-35.8c31.4,0,92.5,8.9,100.7,35.9" class="g10_1" />
<path d="M115.5,532.6c9.9,-17.4,54.3,-28.7,84.1,-28.7c27.9,0,79.4,8.1,96.4,28.8" class="g10_1" />
<path d="M289.1,553.9c-18.6,14.3,-54.4,22.6,-85.8,22.6c-30.4,0,-61.2,-7.2,-77.6,-18.6" class="g10_1" />
<path d="M289.1,568.4C270.5,582.7,234.7,591,203.3,591c-30.4,0,-61.2,-7.2,-77.6,-18.6" class="g10_1" />
<path d="M122.3,539.7c21.4,-15.9,49.3,-21.1,78.6,-21.1c38.8,0,69.8,8.8,86.4,21.5" class="g10_1" />
<path d="M159,552.4c0.4,0,0.6,-0.3,0.6,-1.3c0,-1.1,-0.2,-4.8,-0.2,-4.8c0,0,0.2,-1.3,1.1,-1.7c1,-0.4,10.6,-4,10.6,-4c0,0,0.8,0.1,1.6,0.5c0.9,0.4,2,0.7,2,1.9c0,1.2,0.1,5.7,0.1,5.7c0,0,-0.2,1.6,-1.5,2.2c-1.3,0.6,-12.3,4.8,-12.3,4.8c0,0,-1.6,0.2,-3.1,-0.7c-1.5,-0.8,-18,-9.9,-18,-9.9c0,0,-1.5,-0.8,-1.5,-2.1c-0.1,-1.3,0,-3.2,0,-3.2c0,0,0.1,-1.5,1.3,-2.1c1.3,-0.6,6.7,-2.8,6.7,-2.8" class="g10_1" />
<path d="M146,539l0,-12" class="g10_1" />
<path d="M153,539l0,-15" class="g10_1" />
<path d="M156,524l0,25" class="g10_1" />
<path d="M178.8,520.2l0,10.6c0,0,-0.2,3.7,2.4,4" class="g10_1" />
<path d="M146.4,468.1c3,1.5,3.6,1.9,3.6,1.9c0,0,5.5,3.2,5.5,9" class="g10_1" />
<path d="M155,479l0,4" class="g10_1" />
<path d="M149.8,466.8c2.3,1.1,2.8,1.4,2.8,1.4c0,0,5.5,3.3,5.5,9.1c0,5.9,0,4.7,0,4.7" class="g7_1" />
<path d="M87.8,395.2C138,376.7,228.5,343.4,228.5,343.4c0,0,5.8,-1.7,9.6,0.2c3.9,1.8,47.6,25.8,47.6,25.8c0,0,1.8,0.7,1.8,3c0.1,2.3,-0.1,41.6,-0.1,41.6c0,0,0,1.3,-1.2,2c-1.2,0.6,-70.9,26.3,-70.9,26.3" class="g10_1" />
<path d="M191.5,451.1L101,484.6L89.7,478.4" class="g10_1" />
<path d="M191.5,451.3l1.9,1l2.5,0.1l6.1,-2.3" class="g10_1" />
<path d="M191.7,450.5l0,-9.5c0,-2.7,3.4,-7.7,6.9,-8.5c3.5,-0.8,5,0.6,5.5,0.9c0.5,0.3,2.1,1.9,2.3,4.2" class="g10_1" />
<path d="M100.8,483.6l0,-41.9c0,0,-0.1,-1.9,-1.7,-2.8c-1.6,-0.9,-10,-5.5,-10,-5.5" class="g7_1" />
<path d="M102.3,483.2l0,-42c0,0,-0.1,-1.8,-1.7,-2.7C99,437.6,89.1,432.1,89.1,432.1" class="g7_1" />
<path d="M240.8,431.8l0,-40.2c0,0,0.2,-2,2.1,-2.8c1.9,-0.7,43.7,-16.4,43.7,-16.4" class="g10_1" />
<path d="M240.8,397.5c2.2,0.1,5.6,-1.2,5.7,-2.8" class="g7_1" />
<path d="M246,394l0,-6" class="g10_1" />
<path d="M254,406l0,-22" class="g10_1" />
<path d="M265.5,412.3l0,-19.1c0,-1.6,1.2,-2.4,1.6,-2.6" class="g10_1" />
<path d="M277.9,412.3l0,-19.1c0,-1.6,-1,-2.2,-1.8,-2.6" class="g10_1" />
<path d="M276,392l0,-16" class="g10_1" />
<path d="M267,392l0,-13" class="g10_1" />
<path d="M267.2,392.8c0,0.9,2.7,1.8,4.3,1.8c1.6,0.1,4.6,-0.9,4.6,-2.2" class="g7_1" />
<path d="M265.9,393.6c0,1.2,3.4,2.3,5.5,2.4c2.1,0,5.9,-1.2,5.9,-2.9" class="g7_1" />
<path d="M265.9,412.9c0,1.2,3.4,2.3,5.5,2.4c2.1,0,5.9,-1.2,5.9,-2.9" class="g7_1" />
<path d="M254.7,407.1c-0.1,1.4,3.9,2.7,6.3,2.8c1.3,0,3,-0.4,4.4,-1" class="g7_1" />
<path d="M241.6,414l1.6,-0.5l0.1,-2.5c0,0,2.4,-1.5,2.3,-4c0,-2.5,-1.8,-3,-2.7,-3.4c-0.9,-0.4,-0.1,-1.4,-0.1,-1.4l-1.2,-0.4" class="g10_1" />
<path d="M243.5,406c0.6,0.4,0.7,1.5,0.2,2.4c-0.6,0.9,-1.6,1.3,-2.3,0.9c-0.6,-0.4,-0.7,-1.5,-0.2,-2.4c0.6,-0.9,1.6,-1.3,2.3,-0.9Z" class="g7_1" />
<path d="M286.2,415.1l0,-42c0,0,-0.1,-1.8,-1.7,-2.7c-1.7,-0.9,-45.2,-25,-45.2,-25c0,0,-5.6,-3,-10.8,-2" class="g7_1" />
<path d="M241.8,428.1l9,-3.3l2.1,1.3L264,422l-2,-1.4l20.9,-7.9l0,-36.1" class="g7_1" />
<path d="M263.2,421.4l19.3,-7.2c1,-0.4,1.7,-0.9,1.7,-2c0,-1.2,0,-36.2,0,-36.2L283,375.3l-1.3,0.7l0,31.8L280.4,407l0,-31.5" class="g7_1" />
<path d="M241.8,429.3l9,-3.2l2.1,1.3L264,423.2" class="g7_1" />
<path d="M246.5,392.3l7.8,4.6" class="g7_1" />
<path d="M282.9,412.7L278.2,410" class="g7_1" />
<path d="M282.9,376.6l-1.1,-0.7Z" class="g7_1" />
<path d="M284.2,376l-1.3,0.6" class="g7_1" />
<path d="M102.9,438.9L238.3,388.8" class="g7_1" />
<path d="M193.6,451.1l0,-8.3c0,0,0.9,-7.1,6,-8.8c5,-1.7,5.1,0.7,5.1,0.7" class="g7_1" />
<path d="M195.7,451.6l0,-8.8c0,-1.7,1.7,-5.8,5.2,-7.1c3.6,-1.4,4.3,1.2,4.3,1.2" class="g7_1" />
<path d="M198,446.6c-3.1,-1.7,-1,-6.4,-0.2,-7.6c0.8,-1.2,3.1,-3.9,6.1,-1.9" class="g7_1" />
<path d="M238.3,433.8c4.8,3.8,7.5,8.5,7.7,13.8c0.2,5.3,-0.1,12.6,-0.1,12.6" class="g10_1" />
<path d="M245.8,474.3l0,7.9" class="g10_1" />
<path d="M212,547.6l5,2.8l0.1,3l-21.2,8.5" class="g10_1" />
<path d="M186.1,557c0,1.3,3.4,3.4,6,4.7" class="g10_1" />
<path d="M177.8,560c0,0.4,63.8,-23.9,63.8,-23.9c0,0,4.5,-1.8,4.4,-7.2c-0.1,-5.3,-0.1,-5.4,-0.1,-5.4" class="g10_1" />
<path d="M231.9,527.1c0.9,0.5,1.5,1.3,3.1,0.9c1.6,-0.4,10.9,-4.5,10.9,-4.5" class="g10_1" />
<path d="M233,524.3c0.6,0.4,0.9,-0.2,0.9,-1c0,-0.8,0,-2.4,0,-2.4" class="g10_1" />
<path d="M236.2,521.5l0,4.2c0,0,-0.1,2.5,-1.9,2.4" class="g7_1" />
<path d="M179.7,522.8l8.6,-3.3" class="g10_1" />
<path d="M180.2,533.5c-0.6,0.5,37.6,-14.3,37.6,-14.3" class="g10_1" />
<path d="M183.1,534.8c-0.5,0.5,37.6,-14.3,37.6,-14.3" class="g7_1" />
<path d="M162.4,546.2c-0.5,0.5,9.9,-3.6,9.9,-3.6" class="g7_1" />
<path d="M161.5,554.5l0,-7" class="g7_1" />
<path d="M157.7,552.1L139.9,541.9" class="g7_1" />
<path d="M146.6,539.6c0,0.6,1.7,1.7,3.4,1.8c1.9,0.1,3.9,-0.8,3.9,-1.8" class="g7_1" />
<path d="M135.9,548.7c0.3,-1.3,2.5,-2.9,3.6,-3.4c1.1,-0.5,0.7,1.1,0.7,1.1l-0.1,3.8" class="g10_1" />
<path d="M193.9,559.4L215.8,551Z" class="g7_1" />
<path d="M188.9,556.6l5,2.8" class="g7_1" />
<path d="M231.9,527.1l0,-2.7" class="g7_1" />
<path d="M157,550.5l1.4,0.8" class="g7_1" />
<path d="M161.6,546.4l-1.8,-0.8" class="g7_1" />
<path d="M200.1,492.5l6.1,-2.9" class="g10_1" />
<path d="M216.4,490.2l0,2.8" class="g10_1" />
<path d="M223.3,490.9l0,2.6" class="g10_1" />
<path d="M225.7,491.2l0,2.6" class="g10_1" />
<path d="M246,494.3l0,2.6" class="g10_1" />
<path d="M216.4,504.8l0.1,2.1" class="g10_1" />
<path d="M223.2,505.5l0,2.1" class="g10_1" />
<path d="M225.7,505.9l0,2.1" class="g10_1" />
<path d="M140.5,547.6c0.3,1.2,7.1,3.4,9.3,3" class="g7_1" />
<path d="M264,423.2l0,-1.2l-2,-1.4" class="g14_1" />
<path fill-rule="evenodd" d="M255.3,401.3l0,11.5l-7,2.5l0.1,10.8l61.4,6.2l0,-10l-5.7,-27.7l-16.9,5.7l-11.5,-7Z" class="g13_1" />
<path d="M266.6,404c0,1.1,3.4,2.3,5.5,2.3c2.1,0.1,5.9,-1.2,5.9,-2.8" class="g7_1" />
<path d="M283.6,403.8L278.9,401" class="g7_1" />
<path fill-rule="evenodd" d="M286.9,410.3l-29.6,-7.8l0,8.1l3.4,2l-10.3,4l0,8.1l57.7,5.7l0,-8.1Z" class="g8_1" />
<path fill-rule="evenodd" d="M286.9,402.2l-11.7,-7l-17.9,7.3l11.7,7l-18.6,7.1l57.7,5.7L303,396.6Z" class="g12_1" />
<path d="M257.3,402.5l17.9,-7.3l11.7,6.9L303,396.5l5.1,25.8" class="g10_1" />
<path d="M250.4,416.6l57.7,5.7" class="g7_1" />
<path d="M257.3,402.5l11.5,6.8" class="g7_1" />
<path d="M250.4,416.6l18.4,-7.3" class="g10_1" />
<path d="M324.7,476l0,-39.4c0,0,0,-1.6,1.7,-2.1c1.7,-0.6,42.2,-15.9,42.2,-15.9" class="g7_1" />
<path d="M322.4,474.7l0,-39.4c0,0,0,-1.5,1.7,-2.1c1.8,-0.6,41.1,-15.3,42.2,-15.9c1.1,-0.5,1.6,-0.3,2.4,0.1c0.8,0.4,1.7,0.5,1.8,1.9c0.1,1.5,-0.4,38.9,-0.4,38.9c0,0,0.1,2.3,-1.8,3.1c-1.9,0.8,-19.6,7.3,-19.6,7.3c0,0,-1.1,0.4,-1.9,0c-0.7,-0.4,-1.1,-0.6,-1.1,-1.6c0,-1,0.1,-22.5,0.1,-22.5c0,0,-0.6,-2.6,-4.2,-2.7" class="g10_1" />
<path d="M322.5,475.8l2.3,1.3l10.9,-4.2l0.1,-21.6c0,-2.2,0.9,-8.1,5.8,-9.5" class="g10_1" />
<path d="M347.2,442.3c1.2,1.2,1.3,2.7,1.4,4.1c0.1,1.5,-0.3,20.8,-0.3,20.8" class="g7_1" />
<path d="M340.4,442.3c2.1,-1.1,5.6,-1.2,6.8,0" class="g10_1" />
<path d="M331,451c1.5,0.9,1.7,3.2,0.5,5.2c-1.3,2,-3.4,2.9,-4.9,2c-1.5,-0.9,-1.7,-3.3,-0.4,-5.2c1.2,-2,3.4,-2.9,4.8,-2Z" class="g7_1" />
<path d="M328.7,452.2c0.7,0.4,0.8,1.6,0.2,2.6c-0.6,1,-1.7,1.4,-2.5,1c-0.7,-0.5,-0.8,-1.6,-0.2,-2.6c0.6,-1,1.7,-1.5,2.5,-1Z" class="g7_1" />
<path d="M327.6,454.2l49.5,27.3" class="g15_1" />
<path d="M327.6,454.2l49.5,27.3" class="g16_1" />
<path d="M242.7,407.3l77.1,42.5" class="g15_1" />
<path d="M242.7,407.3l79.7,43.9" class="g16_1" />
<path d="M297.5,939.6l-10.6,-4.3c0,0,-0.5,-0.1,-1,0.2c-0.6,0.3,-2.7,0.9,-2.7,0.9c0,0,-0.5,0.7,-0.5,1.4c0,0.7,-0.1,6.5,-0.1,6.5c0,0,-0.1,5.4,4.8,7.5c4.9,2,88.2,35.2,88.2,35.2c0,0,1.4,0.6,3.5,-0.2c2.1,-0.7,2.1,-0.8,2.1,-0.8c0,0,2.6,-0.8,2.6,-4.1c0,-3.3,0,-6.4,0,-6.4c0,0,0,-1.5,-1.2,-2c-1.3,-0.5,-13,-5.2,-13,-5.2c0,0,-1.6,-0.7,-1.5,-2.1c0.1,-1.4,0,-1.6,0,-1.6" class="g10_1" />
<path d="M365.2,964c0.3,-0.2,0.8,-0.1,1.1,0c0.3,0.1,12.9,5.1,12.9,5.1c0,0,0.8,0.3,1.7,-0.1c0.9,-0.4,2.5,-0.9,2.5,-0.9c0,0,0.4,-0.3,0.4,-1.3c0,-0.9,0,-57.5,0,-57.5" class="g10_1" />
<path d="M357.7,916.9l0,26.5c0,0,0.1,4.8,-3.6,4.8" class="g10_1" />
<path d="M356.1,946.8L313.8,930c0,0,-5.4,-2.5,-5.4,-9.4" class="g10_1" />
<path d="M308.5,917.6l-0.1,3" class="g10_1" />
<path d="M352.9,948.2L310.7,931.4c0,0,-5.4,-2.5,-5.4,-9.5" class="g7_1" />
<path d="M305.3,916.3l0,5.6" class="g7_1" />
<path d="M343.8,914.5c0,0,-15.2,5.7,-17.7,6.7c-2.5,1,-6.7,0.7,-11.1,-1c-4.4,-1.6,-39.7,-15.7,-39.7,-15.7c0,0,-2.8,-0.7,-2.8,-3.3c0,-2.5,0,-3.1,0,-3.1c0,0,0,-1.2,2,-2c2,-0.9,11.8,-4.5,11.8,-4.5" class="g10_1" />
<path d="M273.2,898.7c0.1,0.5,0.3,1.1,1.3,1.5c1,0.4,42.6,16.7,42.6,16.7c0,0,5.2,1.6,9.2,0.2c4,-1.4,12.4,-4.7,12.4,-4.7" class="g7_1" />
<path d="M282.4,890.1l0.1,2.9" class="g10_1" />
<path d="M281.8,907.1l0,21.8c0,0,-0.1,1.8,1.4,2.4c1.4,0.5,13,5.1,13,5.1c0,0,1.3,0.5,1.3,2.2c0,1.6,-0.1,3,-0.1,3" class="g10_1" />
<path d="M379.3,986.4c0.6,-0.6,1.3,-1.7,1.3,-3.2c0,-3.3,-0.1,-6.4,-0.1,-6.4c0,0,0.1,-1.6,-1.2,-2.1c-1.2,-0.5,-13,-5.1,-13,-5.1c0,0,-1.5,-0.7,-1.4,-2.1c0,-1.5,0,-3,0,-3" class="g7_1" />
<path d="M297.2,942.1l-13.5,-5.5" class="g7_1" />
<path d="M360.4,916.2c2.2,0.2,6,-0.4,8.8,-1.4c2.8,-1,35.9,-13.5,35.9,-13.5c0,0,2.9,-1.2,3,-3.2" class="g10_1" />
<path d="M342.4,913.9c4.5,1.8,12.2,4.7,20.7,1.4c8.5,-3.2,65,-24.8,65,-24.8c0,0,1.1,-0.5,1.1,-1.6c0,-1.1,0.1,-54.8,0.1,-54.8c0,0,0.1,-1.8,-1.5,-2.4C426.1,831.1,220.4,750.4,220.4,750.4c0,0,-1.1,-0.4,-2.2,0c-1.1,0.5,-64.9,24.2,-64.9,24.2c0,0,-4,1.2,-4,4.7c0,3.5,0.2,55.7,0.2,55.7c0,0,0,2.2,2.4,3.2c2.4,1,190.5,75.7,190.5,75.7Z" class="g10_1" />
<path d="M353.5,862.5l0,52" class="g7_1" />
<path d="M355.5,860.5l0,52" class="g7_1" />
<path d="M380.5,968.5l0,-57" class="g7_1" />
<path d="M154.3,774.2c-1.9,0.7,-5,4.2,-0.8,5.9c4.2,1.7,194.2,76.2,194.2,76.2c0,0,6.6,2.4,13.5,0c6.8,-2.4,64.7,-24.5,64.7,-24.5" class="g7_1" />
<path d="M272.8,846.1l10.4,4l0.1,5.5" class="g10_1" />
<path d="M272.8,846.1l0,5.6l10.5,3.9l0,-1.8l-8.5,-3.2l0,-3.7" class="g7_1" />
<path d="M274.8,850.6l6.2,-1.3" class="g7_1" />
<path d="M272.8,863.3l10.4,4.1l0.1,5.5" class="g10_1" />
<path d="M272.8,863.3l0,5.7l10.5,3.9l0,-1.9l-8.5,-3.1l0,-3.7" class="g7_1" />
<path d="M274.8,867.9l6.2,-1.4" class="g7_1" />
<path d="M262.4,848.7l0,9.9l3.6,1.7c0,0,1.4,0.6,2.4,0.1" class="g7_1" />
<path d="M262.4,848.7c2.7,0.9,5.7,2.1,6.8,5c1.1,2.9,0.3,4.6,-1,6.3" class="g10_1" />
<path d="M264.4,849.8l0,7.7l3.7,1.7" class="g7_1" />
<path d="M264.6,857.3l5.1,-1.1" class="g7_1" />
<path d="M241.1,833.4l10.4,4l0.1,5.5" class="g10_1" />
<path d="M241.1,833.4l0,5.6l10.5,3.9l0,-1.8l-8.5,-3.2l0,-3.7" class="g7_1" />
<path d="M243.1,837.9l6.2,-1.3" class="g7_1" />
<path d="M241.1,850.6l10.4,4.1l0.1,5.5" class="g10_1" />
<path d="M241.1,850.6l0,5.7l10.5,3.9l0,-1.9l-8.5,-3.1l0,-3.7" class="g7_1" />
<path d="M243.1,855.2l6.2,-1.4" class="g7_1" />
<path d="M230.7,836l0,9.9l3.6,1.7c0,0,1.4,0.6,2.4,0.1" class="g7_1" />
<path d="M230.7,836c2.7,0.9,5.7,2.1,6.8,5c1.1,2.9,0.3,4.6,-1,6.3" class="g10_1" />
<path d="M232.7,837.1l0,7.7l3.7,1.6" class="g7_1" />
<path d="M232.9,844.6l5.1,-1.1" class="g7_1" />
<path d="M210.3,821.5l10.5,4l0,5.5" class="g10_1" />
<path d="M210.3,821.5l0,5.6l10.5,3.9l0,-1.8L212.4,826l0,-3.7" class="g7_1" />
<path d="M212.4,826l6.2,-1.3" class="g7_1" />
<path d="M210.3,838.7l10.5,4.1l0,5.4" class="g10_1" />
<path d="M210.3,838.7l0,5.7l10.5,3.8l0,-1.8l-8.4,-3.1l0,-3.7" class="g7_1" />
<path d="M212.4,843.3l6.2,-1.4" class="g7_1" />
<path d="M199.9,824.1l0,9.9l3.7,1.7c0,0,1.4,0.6,2.3,0.1" class="g7_1" />
<path d="M199.9,824.1c2.8,0.8,5.7,2.1,6.9,5c1.1,2.8,0.2,4.6,-1,6.3" class="g10_1" />
<path d="M202,825.1l0,7.8l3.6,1.6" class="g7_1" />
<path d="M202.2,832.7l5.1,-1.1" class="g7_1" />
<path d="M308.1,861.8c0.5,-0.2,0.8,-0.1,1.4,0.1c0.5,0.2,9.9,3.7,9.9,3.7c0,0,1.6,1,1.6,2.4c0,1.4,-0.1,5.2,-0.1,5.2c0,0,-0.3,0.6,-0.7,0.6" class="g10_1" />
<path d="M312.7,863.2c0,-0.1,-1,1,-1,1l0,1.7l9,3.5" class="g10_1" />
<path d="M308.1,861.8c-0.8,0.5,-0.7,1,-0.7,1.5c-0.1,0.6,0.1,4.8,0.1,4.8c0,0,0.2,1.3,1.7,1.9c1.6,0.6,10.1,3.9,10.1,3.9c0,0,0.6,0.2,1,-0.1" class="g7_1" />
<path d="M310,861.8c-0.7,0.5,-0.7,1,-0.7,1.5c0,0.5,0.1,4.4,0.1,4.4c0,0,0.2,1.2,1.6,1.8c1.5,0.6,9.4,3.6,9.4,3.6c0,0,0.5,0.2,0.9,0" class="g7_1" />
<path d="M309.8,868.1l3,-1.1" class="g7_1" />
<path d="M313.3,864.3l6.1,2.3" class="g7_1" />
<path d="M307.8,873.7c0.5,-0.2,0.9,-0.1,1.4,0.1c0.6,0.2,10,3.7,10,3.7c0,0,1.5,1,1.5,2.4c0,1.4,0,5.2,0,5.2c0,0,-0.3,0.6,-0.7,0.6" class="g10_1" />
<path d="M312.4,875.1c0.1,-0.1,-1,1,-1,1l0,1.7l9.1,3.5" class="g10_1" />
<path d="M307.8,873.7c-0.7,0.5,-0.6,1,-0.7,1.5c0,0.5,0.1,4.8,0.1,4.8c0,0,0.2,1.3,1.8,1.9c1.5,0.6,10,3.9,10,3.9c0,0,0.6,0.2,1,-0.1" class="g7_1" />
<path d="M309.7,873.7c-0.7,0.5,-0.6,1,-0.6,1.5c-0.1,0.5,0.1,4.4,0.1,4.4c0,0,0.1,1.2,1.6,1.8c1.4,0.6,9.3,3.6,9.3,3.6c0,0,0.6,0.2,0.9,-0.1" class="g7_1" />
<path d="M310,879.9l2.6,-1" class="g7_1" />
<path d="M313,876.2l6.2,2.3" class="g7_1" />
<path d="M171.4,792.5l11.1,4.4c1.7,0.7,3.1,2.8,3.1,4.7l0,42.5c0,1.9,-1.4,2.9,-3.1,2.3l-11.1,-4.5c-1.6,-0.6,-3,-2.8,-3,-4.7l0,-42.4c0,-2,1.4,-3,3,-2.3Z" class="g7_1" />
<path d="M173.6,797.4c0.9,-0.4,2,-0.3,3.2,0.2l0.5,0.2c3,1.3,5.5,5.4,5.5,9.1l0,29.8c0,2.2,-0.9,3.7,-2.3,4.3" class="g10_1" />
<path d="M180.5,841c-0.9,0.4,-2,0.4,-3.2,-0.1l-0.5,-0.2c-3,-1.4,-5.5,-5.5,-5.5,-9.1l0,-29.8c0,-2.3,0.9,-3.8,2.3,-4.4" class="g7_1" />
<path d="M171.9,793.4l10.1,4c1.5,0.6,2.8,2.6,2.8,4.3l0,41.8c0,1.8,-1.3,2.7,-2.8,2.1l-10.1,-4c-1.5,-0.6,-2.7,-2.5,-2.7,-4.3l0,-41.8c0,-1.7,1.2,-2.7,2.7,-2.1Z" class="g7_1" />
<path d="M181.5,804.6l-7.2,2.7c0,0,-1.4,0.4,-1.3,1.8c0.1,1.5,-0.1,17.6,-0.1,17.6c0,0,-0.2,2.7,1.7,3.1c1.9,0.4,4.8,0.7,4.8,0.7c0,0,1,0,2,-0.4c0.9,-0.4,1.4,-0.7,1.4,-0.7" class="g10_1" />
<path d="M182.2,831.1l-5.9,2c0,0,-1.2,1.9,-0.4,4.1c0.8,2.1,1.9,2.2,2.7,2.5" class="g10_1" />
<path d="M182.2,838.4c0.4,0.1,-3.6,1.3,-3.6,1.3" class="g10_1" />
<path d="M180.8,839c-0.3,-1.3,0,-3.7,0.1,-3.8c0.1,-0.1,1.6,-0.6,1.6,-0.6" class="g7_1" />
<path d="M180.9,835.2c-1.1,-0.3,-2,-1.8,-2.5,-2.8" class="g7_1" />
<path d="M178.7,830c0.8,-0.1,1.9,0.1,1.9,-2c0,-2,-0.1,-14.4,-0.1,-14.4c0,0,0,-1.7,-1.7,-2.8c-1.8,-1.1,-4.1,-2.5,-4.1,-2.5c0,0,-1,-0.6,-1.3,0.3" class="g7_1" />
<path d="M179,830.3c1,-0.1,2.2,0.1,2.2,-2.1c0,-2.3,-0.1,-15,-0.1,-15c0,0,-0.1,-1.9,-2,-3.1c-1.9,-1.2,-4.4,-2.7,-4.4,-2.7c0,0,-1.1,-0.6,-1.5,0.4" class="g7_1" />
<path d="M174.8,821.2c0.3,-0.1,0.6,0.2,0.7,0.5c0.2,0.4,0.1,0.7,-0.2,0.8c-0.2,0.1,-0.5,-0.1,-0.7,-0.4c-0.1,-0.4,0,-0.8,0.2,-0.9Z" class="g7_1" />
<path d="M174.8,824.4c0.3,-0.1,0.6,0.1,0.7,0.4c0.2,0.4,0.1,0.8,-0.2,0.9c-0.2,0.1,-0.5,-0.2,-0.7,-0.5c-0.1,-0.4,0,-0.7,0.2,-0.8Z" class="g7_1" />
<path d="M176.9,823.6c0.2,-0.1,0.5,0.1,0.7,0.5c0.1,0.3,0,0.7,-0.2,0.8c-0.3,0.1,-0.6,-0.1,-0.7,-0.5c-0.2,-0.3,-0.1,-0.7,0.2,-0.8Z" class="g7_1" />
<path d="M178.9,822.8c0.2,-0.1,0.5,0.1,0.7,0.5c0.1,0.3,0,0.7,-0.2,0.8c-0.3,0.1,-0.6,-0.1,-0.7,-0.4c-0.2,-0.4,-0.1,-0.8,0.2,-0.9Z" class="g7_1" />
<path d="M176.9,820.5c0.2,-0.1,0.5,0.1,0.7,0.4c0.1,0.4,0,0.7,-0.2,0.8c-0.3,0.1,-0.6,-0.1,-0.7,-0.4c-0.2,-0.4,-0.1,-0.7,0.2,-0.8Z" class="g7_1" />
<path d="M178.9,819.7c0.2,-0.1,0.5,0.1,0.7,0.5c0.1,0.3,0,0.7,-0.2,0.8c-0.3,0.1,-0.6,-0.1,-0.7,-0.5c-0.2,-0.3,-0.1,-0.7,0.2,-0.8Z" class="g7_1" />
<path d="M174.8,818.2c0.3,-0.1,0.6,0.1,0.7,0.5c0.2,0.3,0.1,0.7,-0.2,0.8c-0.2,0.1,-0.5,-0.1,-0.7,-0.5c-0.1,-0.3,0,-0.7,0.2,-0.8Z" class="g7_1" />
<path d="M176.9,817.4c0.2,-0.1,0.5,0.1,0.7,0.5c0.1,0.3,0,0.7,-0.2,0.8c-0.3,0.1,-0.6,-0.1,-0.7,-0.5c-0.2,-0.3,-0.1,-0.7,0.2,-0.8Z" class="g7_1" />
<path d="M178.9,816.7c0.2,-0.1,0.5,0.1,0.7,0.4c0.1,0.4,0,0.7,-0.2,0.8c-0.3,0.1,-0.6,-0.1,-0.7,-0.4c-0.2,-0.4,-0.1,-0.7,0.2,-0.8Z" class="g7_1" />
<path d="M174.8,815c0.3,-0.1,0.6,0.1,0.7,0.5c0.2,0.3,0.1,0.7,-0.2,0.8c-0.2,0.1,-0.5,-0.1,-0.7,-0.5c-0.1,-0.3,0,-0.7,0.2,-0.8Z" class="g7_1" />
<path d="M176.9,814.2c0.2,-0.1,0.5,0.1,0.7,0.5c0.1,0.3,0,0.7,-0.2,0.8c-0.3,0.1,-0.6,-0.1,-0.7,-0.5c-0.2,-0.3,-0.1,-0.7,0.2,-0.8Z" class="g7_1" />
<path d="M178.9,813.5c0.2,-0.1,0.5,0.1,0.7,0.4c0.1,0.4,0,0.7,-0.2,0.8c-0.3,0.1,-0.6,-0.1,-0.7,-0.4c-0.2,-0.4,-0.1,-0.7,0.2,-0.8Z" class="g7_1" />
<path d="M174.8,811.9c0.3,-0.1,0.6,0.1,0.7,0.5c0.2,0.4,0.1,0.7,-0.2,0.8c-0.2,0.1,-0.5,-0.1,-0.7,-0.4c-0.1,-0.4,0,-0.8,0.2,-0.9Z" class="g7_1" />
<path d="M176.9,811.2c0.2,-0.1,0.5,0.1,0.7,0.4c0.1,0.4,0,0.7,-0.2,0.8c-0.3,0.1,-0.6,-0.1,-0.7,-0.4c-0.2,-0.4,-0.1,-0.7,0.2,-0.8Z" class="g7_1" />
<path d="M178.9,825.9c0.2,-0.1,0.5,0.1,0.7,0.5c0.1,0.3,0,0.7,-0.2,0.8c-0.3,0.1,-0.6,-0.1,-0.7,-0.5c-0.2,-0.3,-0.1,-0.7,0.2,-0.8Z" class="g7_1" />
<path d="M177,834.1c0.8,-0.3,1.9,0.4,2.4,1.6c0.5,1.2,0.2,2.4,-0.6,2.8c-0.8,0.3,-1.9,-0.4,-2.4,-1.6c-0.5,-1.2,-0.2,-2.4,0.6,-2.8Z" class="g7_1" />
<path d="M176.5,833c1.3,-0.5,2.9,0.6,3.6,2.4c0.8,1.8,0.4,3.7,-0.8,4.2c-1.3,0.5,-2.9,-0.6,-3.6,-2.4c-0.8,-1.8,-0.4,-3.7,0.8,-4.2Z" class="g7_1" />
<path d="M180.8,804.9c-0.3,-1.3,0,-3.7,0.1,-3.8c0.1,-0.1,0.4,-0.2,0.4,-0.2" class="g7_1" />
<path d="M180.9,801.1c-1.1,-0.3,-2,-1.8,-2.6,-2.8" class="g7_1" />
<path d="M177,800c0.8,-0.3,1.9,0.4,2.4,1.6c0.5,1.2,0.2,2.5,-0.6,2.8c-0.8,0.3,-1.9,-0.4,-2.4,-1.6c-0.5,-1.2,-0.2,-2.4,0.6,-2.8Z" class="g7_1" />
<path d="M176.5,798.9c1.3,-0.5,2.9,0.6,3.6,2.4c0.8,1.8,0.4,3.7,-0.9,4.2c-1.2,0.5,-2.8,-0.5,-3.6,-2.4c-0.7,-1.8,-0.3,-3.7,0.9,-4.2Z" class="g7_1" />
<path d="M178.2,798.3l-2.2,0.8c0,0,-1.2,2,-0.3,4.1c0.8,2.2,1.8,2.2,2.6,2.6" class="g10_1" />
<path d="M223,223.6l17.9,10.8" class="g10_1" />
<path d="M220.1,225.4L238,236.1" class="g7_1" />
<path d="M218.7,229.2l17.9,10.7" class="g7_1" />
<path d="M219.2,230.8L238,242" class="g10_1" />
<path d="M151.4,267l60.9,-36.3c3.3,-2,4.7,-1.2,6.9,0.1" class="g10_1" />
<path d="M152.7,264.7L212.5,229c2.7,-1.6,4.6,-0.7,6.2,0.2" class="g7_1" />
<path d="M151.2,261.1l60.9,-36.3c2.8,-1.6,5.3,-1,8,0.6" class="g7_1" />
<path d="M148.5,259.3l59.7,-35.7c6.5,-3.8,9.9,-2.8,14.8,0" class="g10_1" />
<path d="M236.7,239.8c0.6,-0.4,1.9,-2.1,1.3,-3.7" class="g7_1" />
<path d="M238,236.1c0.9,0.5,2.7,-0.6,2.9,-1.7" class="g7_1" />
<path d="M236.6,239.9c0.9,0.1,1.8,0.9,1.4,2.1" class="g7_1" />
<path d="M238,242c0.3,-0.6,1.8,-2.1,2.9,-1.7" class="g10_1" />
<path d="M240.9,240.3c-0.4,-1,0.5,-3.7,1.5,-3.9" class="g10_1" />
<path d="M240.9,234.4c0,0.7,0.2,1.8,1.5,2" class="g10_1" />
<path d="M152.7,264.7c-0.6,-0.4,-1.9,-2.1,-1.3,-3.7" class="g7_1" />
<path d="M151.4,261c-0.9,0.5,-2.7,-0.6,-2.9,-1.7" class="g7_1" />
<path d="M152.7,264.7c-0.8,0.2,-1.7,1.1,-1.3,2.3" class="g7_1" />
<path d="M151.4,267c-0.3,-0.7,-1.8,-2.1,-2.9,-1.7" class="g10_1" />
<path d="M148.5,265.3c0.4,-1.1,-0.5,-3.8,-1.4,-3.9" class="g10_1" />
<path d="M148.5,259.3c0,0.7,-0.2,1.8,-1.4,2.1" class="g10_1" />
<path d="M55.5,256.5l27,0" class="g17_1" />
<path d="M55.5,430.5l27,0" class="g17_1" />
<path d="M55.5,605.5l27,0" class="g17_1" />
<path d="M55.5,779.5l27,0" class="g17_1" />
<path d="M55.5,953.5l27,0" class="g17_1" />
<path d="M852.5,256.5l28,0" class="g17_1" />
<path d="M852.5,605.5l28,0" class="g17_1" />
<path d="M236.5,82.5l0,-27" class="g17_1" />
<path d="M390.5,82.5l0,-27" class="g17_1" />
<path d="M544.5,82.5l0,-27" class="g17_1" />
<path d="M698.5,82.5l0,-27" class="g17_1" />
<path d="M236.5,1155.5l0,-28" class="g17_1" />
<path d="M390.5,1155.5l0,-28" class="g17_1" />
<path d="M544.5,1155.5l0,-28" class="g17_1" />
<path d="M698.5,1155.5l0,-28" class="g17_1" />
<path d="M852.5,430.5l28,0" class="g17_1" />
<path d="M852.5,779.5l28,0" class="g17_1" />
<path d="M852.5,953.5l28,0" class="g17_1" />
<path d="M535.8,540.6l0,-5.6l-3.4,-4.5L528.2,528l-3.5,0.5" class="g7_1" />
<path d="M528,544l0.1,0.5l3.6,2.2c0,0,0.6,0.2,1,0c0.4,-0.1,11.3,-4.3,11.3,-4.3c0,0,1.1,-0.7,1.4,-1.8c0.3,-1.1,0.7,-3.6,0.7,-3.6" class="g10_1" />
<path d="M533.3,541.1c0.1,-0.1,0.5,-0.1,0.6,-0.1c0.2,0,1.3,0.1,1.3,0.1c0,0,0.9,0,1.3,-0.2c0.5,-0.2,11,-4.4,11,-4.4c0,0,3.3,-1.2,3.2,-4c0,-2.7,0.1,-4.2,0.1,-4.2" class="g10_1" />
<path d="M551.2,532.4l5,-2.7c0,0,2.4,-1.8,0.7,-5.3c-1.8,-3.5,-4.2,-2.9,-4.2,-2.9l-9,1.8" class="g10_1" />
<path d="M524.4,530.3l0.3,-1.8l12.9,-4.8c0,0,3.7,-1,6.1,-0.4" class="g10_1" />
<path d="M533.3,530.1l10.8,-4c0,0,2.6,-1.2,-0.4,-2.8" class="g7_1" />
<path d="M544.5,523.7c0.9,0.8,3.5,2.2,5.3,2.5c1.9,0.4,1,2.1,1,2.1" class="g7_1" />
<path d="M536.1,534.9l11.7,-4.3c0,0,3.1,-1,3.1,-2.4" class="g7_1" />
<path d="M529.5,539.9l-10.3,3.9c0,0,-1.5,0.7,-1,2.2c0.5,1.4,1.5,1.1,2.1,0.9c0.6,-0.3,10.6,-4.1,10.6,-4.1" class="g10_1" />
<path d="M529.5,539.9c1.2,-0.5,2.6,2.1,1.4,2.9" class="g7_1" />
<path d="M532.5,545.9l0.8,-4.8" class="g7_1" />
<path d="M526.7,529.3l-7.8,2.9c0,0,-2.1,3.2,0.4,4.6" class="g10_1" />
<path d="M527.8,533.8l-8.5,3" class="g10_1" />
<path d="M533.4,537.2l-8,3.1c0,0,-2.8,-1.1,-0.7,-4.6" class="g10_1" />
<path d="M524.7,535.7l7.9,-3.1" class="g10_1" />
<path d="M527.8,533.2l0,-3.3l-1.1,-0.6" class="g7_1" />
<path d="M533.5,536.5l0,-3.3l-1,-0.6" class="g7_1" />
<path d="M555.2,522.3l50.6,-19.7c0,0,8.6,-3.8,9.8,-5.2" class="g10_1" />
<path d="M557.8,528l50.8,-19c0,0,23,-7.7,23.4,-25.2" class="g10_1" />
<path d="M631.5,480c0.2,0.8,0.5,2.6,0.5,3.8" class="g10_1" />
<path d="M521.8,533.1c0.4,0.2,0.4,0.9,0.1,1.4c-0.3,0.6,-0.9,0.8,-1.3,0.5c-0.4,-0.2,-0.5,-0.8,-0.1,-1.4c0.3,-0.5,0.9,-0.7,1.3,-0.5Z" class="g7_1" />
<path d="M527.5,536.6c0.4,0.2,0.4,0.9,0.1,1.4c-0.3,0.5,-0.9,0.8,-1.3,0.5c-0.4,-0.2,-0.4,-0.8,-0.1,-1.4c0.3,-0.5,0.9,-0.8,1.3,-0.5Z" class="g7_1" />
<path d="M506.6,462.5c0,18.8,30.1,28.8,61.9,28.8c31.8,0,63.3,-13.5,63.3,-33.1" class="g10_1" />
<path d="M506.6,462.5c0,-17,29.8,-28.1,58.7,-28.1c29,0,59.6,9.3,59.6,23.9" class="g10_1" />
<path d="M506.6,471.2c0,18.7,30.1,28.8,61.9,28.8c31.8,0,63.3,-13.5,63.3,-33.1" class="g10_1" />
<path d="M518.7,454.1c11.3,-6.9,29.1,-11,46.6,-11c26.2,0,53.7,7.5,58.8,19.8" class="g10_1" />
<path d="M506.6,471.2c0,-1.5,0.3,-2.9,0.7,-4.2" class="g10_1" />
<path d="M506.6,479.6c0,18.7,30.1,28.7,61.9,28.7c31.8,0,63.3,-13.4,63.3,-33.1" class="g10_1" />
<path d="M519,462.3c11.4,-6.9,29,-10.8,46.3,-10.8c23,0,47,5.8,55.9,15.5" class="g10_1" />
<path d="M506.6,479.6c0,-1.3,0.2,-2.5,0.5,-3.6" class="g10_1" />
<path d="M631.5,471.5c0.2,0.8,0.3,2.5,0.3,3.7" class="g10_1" />
<path d="M631.5,463.1c0.2,0.8,0.3,2.5,0.3,3.8" class="g10_1" />
<path d="M567.1,410.3l49.1,27.1" class="g10_1" />
<path d="M563.4,416l49.1,27.7" class="g10_1" />
<path d="M616.2,437.4c9.4,5.4,15.6,12.2,15.6,20.8" class="g10_1" />
<path d="M624.9,458.3c0,16,-31.8,25.9,-58.1,25.9c-26.4,0,-53.1,-9.1,-53.1,-21.7c0,-12.6,30.9,-21.2,50.9,-21.2c18.5,0,54.6,5.3,59.5,21.3" class="g10_1" />
<path d="M514.9,466.8c5.8,-10.3,32.1,-17,49.7,-17c16.4,0,46.9,4.8,57,17" class="g10_1" />
<path d="M617.4,479.4c-10.9,8.4,-32.1,13.4,-50.6,13.4c-18,0,-36.2,-4.3,-45.9,-11" class="g10_1" />
<path d="M617.4,488c-10.9,8.4,-32.1,13.3,-50.6,13.3c-18,0,-36.2,-4.2,-45.9,-11" class="g10_1" />
<path d="M518.8,471c12.7,-9.4,29.2,-12.5,46.5,-12.5c23,0,41.3,5.2,51.1,12.8" class="g10_1" />
<path d="M540.5,478.5c0.3,0,0.4,-0.2,0.4,-0.8c0,-0.6,-0.1,-2.8,-0.1,-2.8c0,0,0.1,-0.8,0.7,-1c0.5,-0.2,6.2,-2.3,6.2,-2.3c0,0,0.5,0,1,0.2c0.5,0.3,1.2,0.4,1.2,1.1c0,0.8,0,3.4,0,3.4c0,0,-0.1,1,-0.9,1.3c-0.8,0.4,-7.2,2.8,-7.2,2.8c0,0,-1,0.1,-1.9,-0.3c-0.9,-0.5,-10.6,-5.9,-10.6,-5.9c0,0,-0.9,-0.5,-0.9,-1.3c-0.1,-0.7,0,-1.8,0,-1.8c0,0,0.1,-0.9,0.8,-1.3c0.7,-0.3,3.9,-1.6,3.9,-1.6" class="g10_1" />
<path d="M533,470l0,-7" class="g10_1" />
<path d="M537,470l0,-8" class="g10_1" />
<path d="M538,462l0,15" class="g10_1" />
<path d="M552.3,459.5l0,6.2c0,0,-0.1,2.2,1.4,2.4" class="g10_1" />
<path d="M533.1,428.7c1.8,0.9,2.1,1.1,2.1,1.1c0,0,3.3,1.9,3.3,5.3" class="g10_1" />
<path d="M538,435l0,2" class="g10_1" />
<path d="M535.1,427.9c1.4,0.7,1.7,0.9,1.7,0.9c0,0,3.2,1.9,3.2,5.3c0,3.5,0,2.8,0,2.8" class="g7_1" />
<path d="M559.8,418.6l-53.5,19.8l-28,-15.2c0,0,-1.3,-0.2,-1.4,-3.3c0,-3.1,-0.1,-24.4,-0.1,-24.4c0,0,-0.3,-1.8,2.6,-2.9C482.2,391.5,581.6,355,581.6,355c0,0,3.5,-1.1,5.7,0.1c2.3,1.1,28.2,15.2,28.2,15.2c0,0,1,0.4,1,1.8c0.1,1.4,0,24.6,0,24.6c0,0,0,0.8,-0.7,1.2c-0.7,0.3,-42,15.5,-42,15.5" class="g10_1" />
<path d="M559.8,418.7l1.1,0.6l1.5,0.1L566,418" class="g10_1" />
<path d="M559.9,418.3l0,-5.7c0,-1.5,2,-4.5,4.1,-5c2.1,-0.4,2.9,0.4,3.2,0.5c0.3,0.2,1.3,1.2,1.4,2.5" class="g10_1" />
<path d="M506.2,437.9l0,-24.9c0,0,-0.1,-1.1,-1,-1.6c-1,-0.5,-26.8,-14.8,-26.8,-14.8c0,0,-1.5,-0.3,-1.5,-1.8" class="g7_1" />
<path d="M507.1,437.6l0,-24.8c0,0,-0.1,-1.1,-1.1,-1.6c-0.9,-0.6,-26.7,-14.8,-26.7,-14.8c0,0,-1.5,-0.4,-1.5,-1.9" class="g7_1" />
<path d="M588.9,407.2l0,-23.7c0,0,0.2,-1.2,1.3,-1.7c1.1,-0.4,25.8,-9.7,25.8,-9.7" class="g10_1" />
<path d="M588.9,386.9c1.3,0.1,3.3,-0.7,3.4,-1.6" class="g7_1" />
<path d="M592,385l0,-4" class="g10_1" />
<path d="M597,392l0,-13" class="g10_1" />
<path d="M603.5,395.7l0,-11.3c0,-0.9,0.7,-1.4,1,-1.5" class="g10_1" />
<path d="M610.9,395.7l0,-11.3c0,-1,-0.7,-1.3,-1.1,-1.5" class="g10_1" />
<path d="M609,383l0,-9" class="g10_1" />
<path d="M604,383l0,-7" class="g10_1" />
<path d="M604.6,384.1c-0.1,0.6,1.5,1.1,2.5,1.1c0.9,0.1,2.7,-0.5,2.7,-1.3" class="g7_1" />
<path d="M603.8,384.7c-0.1,0.7,2,1.3,3.2,1.3c1.2,0.1,3.5,-0.6,3.5,-1.6" class="g7_1" />
<path d="M603.8,396.1c-0.1,0.7,2,1.3,3.2,1.4c1.2,0,3.5,-0.7,3.5,-1.7" class="g7_1" />
<path d="M597.1,392.6c0,0.8,2.3,1.6,3.8,1.6c0.7,0.1,1.7,-0.1,2.6,-0.5" class="g7_1" />
<path d="M589.4,396.7l0.9,-0.3l0.1,-1.5c0,0,1.4,-0.8,1.4,-2.3c-0.1,-1.5,-1.1,-1.8,-1.6,-2c-0.6,-0.3,-0.1,-0.9,-0.1,-0.9l-0.7,-0.2" class="g10_1" />
<path d="M590.5,392c0.4,0.2,0.4,0.8,0.1,1.4c-0.3,0.5,-0.9,0.7,-1.3,0.5c-0.4,-0.2,-0.5,-0.9,-0.1,-1.4c0.3,-0.5,0.9,-0.8,1.3,-0.5Z" class="g7_1" />
<path d="M615.7,397.4l0,-24.9c0,0,0,-1.1,-1,-1.6C613.8,370.4,588,356.1,588,356.1c0,0,-3.3,-1.7,-6.4,-1.1" class="g7_1" />
<path d="M589.5,405l5.4,-1.9l1.2,0.8l6.5,-2.5l-1.1,-0.8l12.3,-4.7l0,-21.3" class="g7_1" />
<path d="M602.2,401.1l11.4,-4.3c0.6,-0.2,1,-0.5,1,-1.2c0,-0.7,0,-21.4,0,-21.4l-0.7,-0.4l-0.8,0.4l0,18.8l-0.8,-0.4l0,-18.7" class="g7_1" />
<path d="M589.5,405.8l5.4,-1.9l1.2,0.7l6.5,-2.4" class="g7_1" />
<path d="M592.3,383.9l4.6,2.7" class="g7_1" />
<path d="M613.8,395.9L611,394.3" class="g7_1" />
<path d="M613.8,374.6l-0.6,-0.4Z" class="g7_1" />
<path d="M614.6,374.2l-0.8,0.4" class="g7_1" />
<path d="M507.4,411.4l80,-29.6" class="g7_1" />
<path d="M561,418.6l0,-4.9c0,0,0.6,-4.2,3.5,-5.2c3,-1,3.1,0.4,3.1,0.4" class="g7_1" />
<path d="M562.2,418.9l0.1,-5.2c0,-1,1,-3.4,3.1,-4.2c2.1,-0.8,2.5,0.7,2.5,0.7" class="g7_1" />
<path d="M563.6,416c-1.8,-1.1,-0.5,-3.8,-0.1,-4.5c0.5,-0.7,1.8,-2.3,3.6,-1.2" class="g7_1" />
<path d="M587.4,408.4c2.9,2.2,4.5,5,4.6,8.2c0.1,3.1,-0.1,7.4,-0.1,7.4" class="g10_1" />
<path d="M591.8,432.3l0.1,4.7" class="g10_1" />
<path d="M571.9,475.7l3,1.6l0,1.8l-12.5,5" class="g10_1" />
<path d="M556.6,481.2c0,0.8,2,2,3.5,2.8" class="g10_1" />
<path d="M551.7,483c0,0.2,37.7,-14.2,37.7,-14.2c0,0,2.6,-1,2.6,-4.2c-0.1,-3.1,-0.1,-3.2,-0.1,-3.2" class="g10_1" />
<path d="M583.7,463.6c0.5,0.2,0.8,0.7,1.8,0.5c0.9,-0.2,6.4,-2.7,6.4,-2.7" class="g10_1" />
<path d="M584.3,461.9c0.4,0.2,0.5,-0.1,0.5,-0.6c0,-0.5,0,-1.4,0,-1.4" class="g10_1" />
<path d="M586.2,460.2l0,2.5c0,0,-0.1,1.5,-1.1,1.5" class="g7_1" />
<path d="M552.8,461l5.1,-2" class="g10_1" />
<path d="M553.1,467.4c-0.3,0.2,22.2,-8.5,22.2,-8.5" class="g10_1" />
<path d="M554.8,468.1c-0.3,0.3,22.3,-8.4,22.3,-8.4" class="g7_1" />
<path d="M542.6,474.9c-0.3,0.2,5.8,-2.2,5.8,-2.2" class="g7_1" />
<path d="M542.5,479.5l0,-4" class="g7_1" />
<path d="M539.8,478.3l-10.5,-6" class="g7_1" />
<path d="M533.3,471c-0.1,0.3,0.9,0.9,2,1c1.1,0,2.3,-0.5,2.3,-1" class="g7_1" />
<path d="M526.9,476.3c0.2,-0.7,1.5,-1.7,2.1,-2c0.7,-0.3,0.4,0.7,0.4,0.7l0,2.2" class="g10_1" />
<path d="M561.2,482.6l13,-4.9Z" class="g7_1" />
<path d="M558.2,481l3,1.6" class="g7_1" />
<path d="M583.7,463.6l0,-1.7" class="g7_1" />
<path d="M539.4,477.4l0.8,0.5" class="g7_1" />
<path d="M542.1,475l-1,-0.5" class="g7_1" />
<path d="M564.8,443.1l3.6,-1.7" class="g10_1" />
<path d="M574.5,441.7l0,1.7" class="g10_1" />
<path d="M578.6,442.2l0,1.5" class="g10_1" />
<path d="M580,442.3l0,1.6" class="g10_1" />
<path d="M592,444.2l0,1.5" class="g10_1" />
<path d="M574.5,450.4l0,1.2" class="g10_1" />
<path d="M578.5,450.8l0,1.2" class="g10_1" />
<path d="M580,451l0,1.3" class="g10_1" />
<path d="M529.6,475.7c0.2,0.7,4.2,2,5.5,1.7" class="g7_1" />
<path d="M602.6,402.2l0,-0.8l-1.1,-0.8" class="g10_1" />
<path fill-rule="evenodd" d="M597.7,388.4l1,24.8l11.4,-4.1l7.4,4.1l10.6,-5l0.2,-5.9l3.7,-1.9l-0.2,-7.3Z" class="g13_1" />
<path fill-rule="evenodd" d="M630.7,394.1L599,389.8l0.8,21.9l10.4,-3.9l7.3,4.2l9.8,-4.4l0,-5.9l3.4,-1.7Z" class="g11_1" />
<path fill-rule="evenodd" d="M599.1,389.8l0.7,16.1L610.2,402l7.3,4.1l9.8,-4.4L620.6,398l10.1,-3.9Z" class="g12_1" />
<path d="M599,389.8l31.7,4.3l0,5.9l-3.4,1.7l0,5.9l-9.8,4.4l-7.3,-4.2l-10.4,3.9Z" class="g10_1" />
<path d="M627.3,401.7L620.6,398" class="g10_1" />
<path d="M599.8,405.9l10.4,-4l7.3,4.2l9.8,-4.4" class="g7_1" />
<path d="M620.6,398l10.1,-3.9" class="g7_1" />
<path d="M610.5,407.5l0,-6" class="g7_1" />
<path d="M617.5,411.5l0,-6" class="g7_1" />
<path d="M408.5,172.5l118,0" class="g7_1" />
<path d="M389.8,484.3c1.4,0.9,1.6,3.2,0.4,5.2c-1.2,2,-3.4,2.9,-4.9,2c-1.4,-0.9,-1.6,-3.3,-0.4,-5.2c1.2,-2,3.4,-2.9,4.9,-2Z" class="g10_1" />
<path d="M376.8,484.1c-0.7,-0.4,-0.8,-1.5,-0.2,-2.5c0.5,-0.9,1.6,-1.3,2.3,-0.9" class="g10_1" />
<path d="M378.9,480.7l7.2,4.2" class="g10_1" />
<path d="M376.8,484.1l7.3,4.4" class="g10_1" />
<path d="M378.5,485.2c-0.7,-0.4,-0.8,-1.5,-0.2,-2.5c0.6,-0.9,1.6,-1.3,2.3,-0.9" class="g7_1" />
<path d="M380,486c-0.7,-0.4,-0.8,-1.5,-0.2,-2.4c0.6,-1,1.6,-1.4,2.3,-1" class="g7_1" />
<path d="M381.5,486.8c-0.7,-0.4,-0.8,-1.5,-0.2,-2.4c0.6,-1,1.6,-1.4,2.3,-1" class="g7_1" />
<path d="M383.1,487.7c-0.7,-0.4,-0.8,-1.5,-0.2,-2.5c0.5,-0.9,1.6,-1.3,2.3,-0.9" class="g7_1" />
<path d="M386.2,488.4c0.3,0,1,-0.1,1.3,-0.5c0.2,-0.4,0.2,-1,0,-1.4" class="g7_1" />
<path d="M386.2,489.1c0.6,-0.1,2,-0.4,1.7,0.8" class="g7_1" />
<path d="M388.1,486.1c0.2,0.9,0.4,1.4,1.4,1.4" class="g7_1" />
<path d="M389.2,488.1c-0.8,-0.1,-1,0.9,-0.8,1.5" class="g7_1" />
<path d="M387.5,486.5l0.6,-0.4" class="g7_1" />
<path d="M386.2,489.1l0,-0.7" class="g7_1" />
<path d="M388.4,489.6l-0.5,0.3" class="g7_1" />
<path d="M389.2,488.1l0.3,-0.6" class="g7_1" />
<path d="M368.4,415.7l1.3,-10.5l7.9,5.3Zm4.4,-7.7l1.2,0.4l0,0.1l-0.1,0l0,0.1l-0.1,0l-0.1,0l0,0.1l-0.1,0l-0.1,0l-0.1,0l-0.1,0l-0.1,0l-0.1,0L373,408.6l-0.1,0l0,-0.1l-0.1,0l0,-0.1l-0.1,0l0,-0.1l0,-0.1l0,-0.1l0.1,0Zm15.7,-21.2L374,408.4L372.8,408l14.5,-21.6Zm0,0l-1.2,-0.4l0,-0.1l0.1,0l0,-0.1l0.1,0l0.1,0l0,-0.1l0.1,0l0.1,0l0.1,0l0.1,0l0.1,0l0,0.1l0.1,0l0.1,0l0.1,0.1l0.1,0l0,0.1l0,0.1l0.1,0l0,0.1l0,0.1l-0.1,0l0,0.1Z" class="g5_1" />
<path d="M732.8,462.5c1.2,0.6,1.5,2.4,0.6,4c-0.8,1.6,-2.4,2.4,-3.6,1.8c-1.2,-0.6,-1.4,-2.4,-0.6,-4c0.8,-1.6,2.4,-2.4,3.6,-1.8Z" class="g10_1" />
<path d="M728.6,465.8l-3.1,-1.9l-2.3,-2.8l4.1,0.2l3,1.7" class="g10_1" />
<path d="M730.6,466.1c0.3,0,0.9,-0.1,1.2,-0.5c0.2,-0.3,0.2,-0.8,0,-1.3" class="g7_1" />
<path d="M730.6,466.7c0.5,0,1.4,-0.3,1.3,0.6" class="g7_1" />
<path d="M732.3,464c0.2,0.9,0.4,1.4,1.1,1.2" class="g7_1" />
<path d="M733.1,465.6c-0.4,0.1,-0.9,0.9,-0.7,1.4" class="g7_1" />
<path d="M731.8,464.3l0.5,-0.3" class="g7_1" />
<path d="M730.6,466.7l0,-0.6" class="g7_1" />
<path d="M728.2,465.6c-0.8,-0.5,0.3,-3.5,1.9,-2.8" class="g7_1" />
<path d="M727.3,465.1c-0.9,-0.6,0.2,-3.6,1.8,-2.8" class="g7_1" />
<path d="M726.5,464.6c-0.9,-0.6,0.2,-3.6,1.8,-2.8" class="g7_1" />
<path d="M725.5,464c-0.9,-0.6,0.3,-3.5,1.8,-2.7" class="g7_1" />
<path d="M745,475.3c1.2,0.6,1.4,2.4,0.6,4c-0.8,1.6,-2.4,2.4,-3.6,1.8c-1.2,-0.6,-1.5,-2.4,-0.7,-4c0.9,-1.6,2.5,-2.4,3.7,-1.8Z" class="g10_1" />
<path d="M740.7,478.6l-3.1,-1.9l-2.2,-2.8l4.1,0.2l3,1.7" class="g10_1" />
<path d="M742.8,478.9c0.3,0,0.9,-0.1,1.1,-0.5c0.3,-0.3,0.2,-0.8,0.1,-1.3" class="g7_1" />
<path d="M742.8,479.5c0.5,0,1.3,-0.3,1.3,0.6" class="g7_1" />
<path d="M744.5,476.8c0.2,0.9,0.3,1.4,1.1,1.2" class="g7_1" />
<path d="M745.3,478.4c-0.4,0.1,-0.9,0.9,-0.7,1.4" class="g7_1" />
<path d="M744,477.1l0.5,-0.3" class="g7_1" />
<path d="M742.8,479.5l0,-0.6" class="g7_1" />
<path d="M740.4,478.4c-0.9,-0.5,0.2,-3.6,1.8,-2.8" class="g7_1" />
<path d="M739.5,477.8c-0.9,-0.5,0.2,-3.5,1.8,-2.7" class="g7_1" />
<path d="M738.7,477.4c-0.9,-0.6,0.2,-3.6,1.7,-2.8" class="g7_1" />
<path d="M737.7,476.8c-0.9,-0.6,0.2,-3.5,1.8,-2.7" class="g7_1" />
<path d="M782.5,622.1l0,-16.4l11.7,-4.3l1.3,0.7" class="g7_1" />
<path d="M789.4,627.4l6.1,-2.4l0,-15.8" class="g7_1" />
<path d="M786.8,624.1l0,-16.6l5.6,-2.2" class="g7_1" />
<path d="M787.7,624.6l3.3,-1.1l0,-17.2" class="g7_1" />
<path d="M783.8,622.8l0,-16.3L795,602.3" class="g7_1" />
<path d="M783.8,606.5l-1.3,-0.8" class="g7_1" />
<path d="M792.4,605.3l0,19l-3.5,1.2" class="g7_1" />
<path d="M792.4,624.3L791,623.5" class="g7_1" />
<path d="M791.5,602.4l-1.2,-0.7l-7.2,2.6l0,1.2" class="g7_1" />
<path d="M794,608.2l3.7,2.2c0,0,2.1,0.8,3.6,-1.5c1.6,-2.4,0.6,-4.2,-0.2,-4.6c-0.7,-0.5,-4.7,-2.8,-4.7,-2.8c0,0,-1.1,-0.3,-1.9,0.1" class="g7_1" />
<path d="M794,608.2c-1.1,-0.7,-0.6,-3,-0.2,-3.8c0.4,-0.7,1.1,-1.6,1.8,-2.1" class="g7_1" />
<path d="M798,610c-1.1,-0.6,-1.6,-2.4,-0.7,-4c1,-1.6,2.5,-2.2,3.8,-1.3" class="g7_1" />
<path d="M800,606.2c0.5,0.3,0.6,1,0.3,1.6c-0.4,0.6,-1,0.9,-1.5,0.7c-0.4,-0.2,-0.5,-0.9,-0.2,-1.6c0.3,-0.6,1,-0.9,1.4,-0.7Z" class="g7_1" />
<path d="M780,628.3l4.9,3c0,0,2.1,0.8,3.6,-1.5c1.6,-2.3,0.6,-4.1,-0.2,-4.6c-0.7,-0.4,-4.7,-2.8,-4.7,-2.8c0,0,-1.1,-0.3,-1.9,0.1" class="g7_1" />
<path d="M785.2,630.9c-1.1,-0.6,-1.6,-2.4,-0.6,-4c0.9,-1.5,2.4,-2.1,3.7,-1.3" class="g7_1" />
<path d="M787.2,627.2c0.5,0.2,0.6,0.9,0.3,1.5c-0.3,0.7,-1,1,-1.4,0.7c-0.5,-0.2,-0.6,-0.9,-0.3,-1.5c0.3,-0.7,1,-1,1.4,-0.7Z" class="g7_1" />
<path d="M780,628.3c-1.1,-0.7,-0.6,-3,-0.2,-3.8c0.4,-0.7,1,-1.5,1.9,-2" class="g7_1" />
<path d="M799.4,607.5l7.7,4.2" class="g18_1" />
<path d="M799.4,607.5l7.7,4.2" class="g19_1" />
<path d="M786.7,628.3l7.7,4.3" class="g18_1" />
<path d="M786.7,628.3l7.7,4.3" class="g19_1" />
<path d="M638.4,412.5c0.4,0.2,0.5,0.8,0.2,1.4c-0.3,0.5,-0.9,0.8,-1.3,0.6c-0.4,-0.2,-0.5,-0.9,-0.2,-1.4c0.3,-0.6,0.9,-0.9,1.3,-0.6Z" class="g7_1" />
<path d="M631.1,430.6l5,3c0,0,2,0.8,3.6,-1.5c1.5,-2.3,0.5,-4.1,-0.2,-4.6c-0.8,-0.4,-4.8,-2.8,-4.8,-2.8c0,0,-1,-0.3,-1.9,0.1" class="g10_1" />
<path d="M636.3,433.3c-1.1,-0.7,-1.6,-2.5,-0.6,-4.1c1,-1.5,2.4,-2.1,3.8,-1.3" class="g7_1" />
<path d="M638.4,429.5c0.4,0.2,0.5,0.9,0.2,1.5c-0.3,0.7,-1,1,-1.4,0.7c-0.5,-0.2,-0.6,-0.9,-0.3,-1.5c0.4,-0.7,1,-1,1.5,-0.7Z" class="g7_1" />
<path d="M631.1,430.6c-1.1,-0.7,-0.6,-3,-0.2,-3.8c0.4,-0.7,1,-1.5,1.9,-2" class="g10_1" />
<path d="M646.7,411.3l2.2,1.3c0,0,2.1,0.9,3.7,-1.5c1.5,-2.3,0.5,-4.1,-0.2,-4.6c-0.8,-0.4,-4.8,-2.8,-4.8,-2.8c0,0,-1.1,-0.3,-1.9,0.1" class="g10_1" />
<path d="M649.2,412.3c-1.1,-0.6,-1.6,-2.4,-0.6,-4c0.9,-1.6,2.4,-2.2,3.8,-1.3" class="g7_1" />
<path d="M651.3,408.5c0.4,0.2,0.5,0.9,0.2,1.6c-0.3,0.6,-1,0.9,-1.4,0.7c-0.5,-0.3,-0.6,-1,-0.3,-1.6c0.4,-0.6,1,-0.9,1.5,-0.7Z" class="g7_1" />
<path d="M638.8,412.3c0.5,0.3,0.7,1.1,0.3,1.9c-0.4,0.7,-1.2,1.1,-1.7,0.8c-0.6,-0.3,-0.7,-1.1,-0.3,-1.9c0.4,-0.7,1.1,-1.1,1.7,-0.8Z" class="g7_1" />
<path d="M636.8,416.2c1,0.5,2.4,-0.2,3.1,-1.6c0.8,-1.4,0.5,-2.9,-0.5,-3.5c-1,-0.5,-2.6,-1.5,-2.6,-1.5" class="g10_1" />
<path d="M636.8,416.2c-1,-0.6,-1.3,-2.1,-0.6,-3.5c0.8,-1.4,2.2,-2.1,3.2,-1.6" class="g7_1" />
<path d="M634.6,408.6c-1,-0.5,-2.4,0.2,-3.2,1.6c-0.7,1.4,-0.4,2.9,0.6,3.5c1,0.5,4.8,2.5,4.8,2.5" class="g10_1" />
<path d="M634.5,408l10.9,-4.2" class="g10_1" />
<path d="M642.7,404.7l-1.4,-0.8c0,0,-6,2.4,-6.6,2.5c-0.6,0.2,-0.8,1.6,-0.8,1.8" class="g10_1" />
<path d="M633,424l0,-10" class="g10_1" />
<path d="M638,426l0,-10" class="g10_1" />
<path d="M634.5,424.5l0,-9" class="g7_1" />
<path d="M635.5,425.5l0,-10" class="g7_1" />
<path d="M636.5,425.5l0,-9" class="g7_1" />
<path d="M638.6,426.2c1.6,-0.7,2.7,-2.4,2.7,-4.1c0,-1.7,-0.1,-13,-0.1,-13" class="g10_1" />
<path d="M645.5,407.1l-7.4,2.8" class="g10_1" />
<path d="M636.9,409.2l9.8,-3.7Z" class="g7_1" />
<path d="M636.9,409.2L636,408.7l-1.1,0.4" class="g7_1" />
<path d="M646,411l0,12" class="g10_1" />
<path d="M640.3,430.7l6.6,-2.5" class="g10_1" />
<path d="M650.6,425.1c0.4,0.2,0.5,0.8,0.2,1.4c-0.3,0.6,-0.8,0.8,-1.3,0.6c-0.4,-0.2,-0.5,-0.8,-0.2,-1.4c0.3,-0.5,0.9,-0.8,1.3,-0.6Z" class="g7_1" />
<path d="M651,424.9c0.6,0.3,0.7,1.2,0.3,1.9c-0.4,0.8,-1.1,1.1,-1.7,0.9c-0.5,-0.3,-0.7,-1.2,-0.3,-1.9c0.4,-0.8,1.2,-1.1,1.7,-0.9Z" class="g7_1" />
<path d="M649,428.8c1,0.6,2.4,-0.1,3.2,-1.5c0.7,-1.4,0.4,-3,-0.6,-3.5c-1,-0.6,-4.6,-2.7,-4.6,-2.7" class="g10_1" />
<path d="M649,428.5c-1,-0.5,-1.3,-1.8,-0.5,-3.2c0.7,-1.4,2,-1.6,3.1,-1.1" class="g7_1" />
<path d="M647.2,428c1,0.5,1.8,0.8,1.8,0.8" class="g10_1" />
<path d="M646.8,427.7c-0.9,-0.5,-1.7,-2.6,0.2,-4.2" class="g7_1" />
<path d="M646.5,411.1c-0.9,-0.5,-1.5,-3.1,0.3,-4.8" class="g7_1" />
<path d="M645.5,407.7l0,19.9l-5,2" class="g7_1" />
<path d="M644.5,407.7l0,19.3l-4.1,1.6" class="g7_1" />
<path d="M640.6,428.1c2.1,-0.6,3.3,-2.8,3.3,-4.5c0,-1.6,-0.1,-12.3,-0.1,-12.9c0,-0.7,-0.1,-1.7,-0.8,-2.2" class="g7_1" />
<path d="M644.5,427l1,0.6" class="g7_1" />
<path d="M646.8,406.3l0,-0.8l-1,-0.6" class="g10_1" />
<path d="M654.7,598.7c1.1,0.6,1.4,2.4,0.6,4c-0.8,1.6,-2.5,2.4,-3.6,1.8c-1.2,-0.6,-1.5,-2.4,-0.7,-4c0.9,-1.6,2.5,-2.4,3.7,-1.8Z" class="g10_1" />
<path d="M650.4,601.9l-3.1,-1.8l-2.2,-2.9l4.1,0.2l2.9,1.7" class="g10_1" />
<path d="M652.5,602.2c0.3,0,0.8,-0.1,1.1,-0.4c0.2,-0.4,0.2,-0.9,0.1,-1.3" class="g7_1" />
<path d="M652.5,602.9c0.5,-0.1,1.3,-0.4,1.3,0.6" class="g7_1" />
<path d="M654.2,600.2c0.2,0.8,0.3,1.3,1.1,1.1" class="g7_1" />
<path d="M655,601.8c-0.4,0.1,-1,0.9,-0.8,1.4" class="g7_1" />
<path d="M653.7,600.5l0.5,-0.3" class="g7_1" />
<path d="M652.5,602.9l0,-0.7" class="g7_1" />
<path d="M650.1,601.8c-0.9,-0.6,0.2,-3.6,1.8,-2.8" class="g7_1" />
<path d="M649.2,601.2c-0.9,-0.6,0.2,-3.6,1.7,-2.8" class="g7_1" />
<path d="M648.4,600.7c-0.9,-0.6,0.2,-3.5,1.7,-2.7" class="g7_1" />
<path d="M647.4,600.1c-0.9,-0.6,0.2,-3.5,1.8,-2.7" class="g7_1" />
<path d="M666.8,611.5c1.2,0.6,1.5,2.4,0.7,4c-0.9,1.6,-2.5,2.4,-3.7,1.8c-1.1,-0.7,-1.4,-2.4,-0.6,-4c0.8,-1.6,2.5,-2.5,3.6,-1.8Z" class="g10_1" />
<path d="M662.6,614.7l-3.1,-1.8L657.2,610l4.2,0.2l2.9,1.7" class="g10_1" />
<path d="M664.7,615c0.2,0,0.8,-0.1,1.1,-0.5c0.2,-0.3,0.2,-0.8,0,-1.2" class="g7_1" />
<path d="M664.6,615.7c0.5,-0.1,1.4,-0.4,1.4,0.6" class="g7_1" />
<path d="M666.4,613c0.2,0.8,0.3,1.3,1,1.1" class="g7_1" />
<path d="M667.2,614.6c-0.4,0.1,-1,0.9,-0.8,1.4" class="g7_1" />
<path d="M665.8,613.3l0.6,-0.3" class="g7_1" />
<path d="M664.6,615.7l0.1,-0.7" class="g7_1" />
<path d="M662.3,614.6c-0.9,-0.6,0.2,-3.6,1.8,-2.8" class="g7_1" />
<path d="M661.3,614c-0.9,-0.6,0.2,-3.6,1.8,-2.8" class="g7_1" />
<path d="M660.5,613.5c-0.8,-0.6,0.2,-3.5,1.8,-2.7" class="g7_1" />
<path d="M659.5,612.9c-0.8,-0.6,0.3,-3.5,1.9,-2.7" class="g7_1" />
<path d="M637.7,597.6c0.5,0.2,0.6,0.9,0.3,1.6c-0.3,0.6,-1,0.9,-1.4,0.7" class="g7_1" />
<path d="M636.6,599.9c-0.5,-0.3,-0.6,-1,-0.3,-1.6c0.3,-0.6,1,-0.9,1.4,-0.7" class="g7_1" />
<path d="M632.4,582.3c0.1,0,0.2,0,0.3,0.1c0.7,0.3,1.1,1.1,1.2,2" class="g7_1" />
<path d="M628,586.4c0,-0.6,0.2,-1.3,0.5,-2c0.9,-1.7,2.6,-2.6,3.9,-2.1" class="g10_1" />
<path d="M629.3,602.3c-0.8,-0.4,-1.2,-1.2,-1.3,-2.1" class="g10_1" />
<path d="M634,598c0,0.7,-0.2,1.5,-0.6,2.2c-0.9,1.9,-2.8,2.8,-4.1,2.1" class="g7_1" />
<path d="M633.7,581.1c-0.1,-0.1,-0.3,-0.1,-0.4,-0.2c-0.5,-0.1,-1.1,-0.2,-1.7,0l-6.5,2.3c-1,0.4,-1.7,1.1,-2.1,2.1c-0.7,1.6,-0.3,2.9,0.7,3.1c1.1,0.3,1.2,0.6,1.2,1.1c0,0.6,0,9.4,0,9.4c0,0,0,0.9,0.7,1.2c0.8,0.3,1.2,0.9,1.3,1.8c0.2,0.5,0.5,1,0.9,1.4" class="g7_1" />
<path d="M627.4,603.2c0.1,0.2,0.8,0.4,1,0.6c0.8,0.3,1.4,0.3,2.6,0c1.1,-0.3,6,-2.3,6.5,-2.5c0.4,-0.2,1.9,-1.3,1.9,-3.2c0,-2,-1.3,-2.1,-1.6,-2.1c-0.3,-0.1,-0.7,-0.4,-0.7,-1.2c0,-0.7,0,-8.6,0,-8.6c0,0,0.1,-1.1,-0.6,-1.5c-0.8,-0.4,-1.1,-0.8,-1.3,-1.4c-0.2,-1,-1.4,-2.1,-2.2,-2.5" class="g10_1" />
<path d="M628,586.4l0,13.8" class="g10_1" />
<path d="M634,598l-0.1,-13.6" class="g7_1" />
<path d="M632.2,582.5c0.3,0.4,0.5,0.8,0.6,1.4" class="g10_1" />
<path d="M632.8,597.5c0,0.7,-0.2,1.5,-0.5,2.2c-0.7,1.4,-1.9,2.2,-3.1,2.3" class="g10_1" />
<path d="M632.8,597.5l0,-13.6" class="g10_1" />
<path d="M637.4,597.5c0.2,0.4,0.2,0.9,-0.1,1.3c-0.2,0.5,-0.6,0.8,-1,0.8" class="g7_1" />
<path d="M625.4,584.9c0.5,0.3,0.6,1,0.3,1.6c-0.3,0.6,-1,1,-1.4,0.7" class="g7_1" />
<path d="M624.3,587.2c-0.5,-0.2,-0.6,-0.9,-0.3,-1.6c0.3,-0.6,1,-0.9,1.4,-0.7" class="g7_1" />
<path d="M625.4,600.2c0.3,0.3,0.4,0.7,0.5,1.2c0.2,0.8,0.7,1.5,1.5,1.8" class="g10_1" />
<path d="M623.8,589c0,0.6,0,9.3,0,9.3c0,0,0,1,0.8,1.3c0.3,0.1,0.6,0.3,0.8,0.6" class="g10_1" />
<path d="M622.7,587.9c1,0.3,1.2,0.5,1.1,1.1" class="g10_1" />
<path d="M633,580.8c-0.1,-0.1,-0.2,-0.2,-0.4,-0.2c-0.6,-0.4,-1.3,-0.4,-2,-0.2l-6.6,2.3c-0.9,0.4,-1.6,1.1,-2.1,2.1c-0.7,1.6,-0.2,2.8,0.8,3.1" class="g10_1" />
<path d="M625.1,584.9c0.2,0.3,0.2,0.8,-0.1,1.3c-0.2,0.4,-0.6,0.7,-1,0.7" class="g7_1" />
<path d="M810.2,530.2l0,-23.3c0,0,0,-0.9,1,-1.2c1,-0.4,25,-9.4,25,-9.4" class="g7_1" />
<path d="M808.9,529.4l0,-23.2c0,0,0,-1,1,-1.3c1,-0.3,24.3,-9.1,24.9,-9.4c0.7,-0.3,1,-0.2,1.4,0.1c0.5,0.2,1.1,0.2,1.1,1.1c0.1,0.9,-0.2,23,-0.2,23c0,0,0,1.3,-1.1,1.8c-1.1,0.5,-11.6,4.4,-11.6,4.4c0,0,-0.7,0.2,-1.1,-0.1c-0.4,-0.2,-0.7,-0.3,-0.7,-0.9c0,-0.6,0.1,-13.3,0.1,-13.3c0,0,-0.4,-1.6,-2.5,-1.6" class="g10_1" />
<path d="M808.9,530.1l1.4,0.7l6.4,-2.4l0.1,-12.8c0,-1.3,0.5,-4.8,3.4,-5.6" class="g10_1" />
<path d="M823.5,510.3c0.7,0.7,0.8,1.6,0.9,2.4c0,0.9,-0.2,12.3,-0.2,12.3" class="g7_1" />
<path d="M819.5,510.3c1.3,-0.6,3.3,-0.7,4,0" class="g10_1" />
<path d="M814,515.4c0.8,0.6,0.9,1.9,0.2,3.1c-0.7,1.2,-2,1.7,-2.9,1.2c-0.8,-0.6,-0.9,-1.9,-0.2,-3.1c0.7,-1.2,2,-1.7,2.9,-1.2Z" class="g7_1" />
<path d="M812.6,516.1c0.4,0.3,0.5,1,0.1,1.6c-0.4,0.6,-1,0.8,-1.4,0.6c-0.5,-0.3,-0.5,-1,-0.2,-1.6c0.4,-0.6,1,-0.8,1.5,-0.6Z" class="g7_1" />
<path d="M840.1,530.6c0.9,0.6,1,2,0.3,3.1c-0.7,1.2,-2,1.7,-2.9,1.2c-0.9,-0.6,-1,-1.9,-0.3,-3.1c0.8,-1.2,2.1,-1.7,2.9,-1.2Z" class="g10_1" />
<path d="M832.4,530.5c-0.4,-0.2,-0.4,-0.9,-0.1,-1.4c0.4,-0.6,1,-0.8,1.4,-0.6" class="g10_1" />
<path d="M833.7,528.5L838,531" class="g10_1" />
<path d="M832.4,530.5l4.4,2.6" class="g10_1" />
<path d="M833.5,531.2c-0.4,-0.3,-0.5,-0.9,-0.2,-1.5c0.4,-0.5,1,-0.8,1.4,-0.5" class="g7_1" />
<path d="M834.4,531.7c-0.5,-0.3,-0.5,-0.9,-0.2,-1.5c0.4,-0.6,1,-0.8,1.4,-0.5" class="g7_1" />
<path d="M835.2,532.1c-0.4,-0.2,-0.4,-0.9,-0.1,-1.4c0.3,-0.6,1,-0.8,1.4,-0.6" class="g7_1" />
<path d="M836.2,532.6c-0.4,-0.2,-0.5,-0.9,-0.2,-1.4c0.4,-0.6,1,-0.8,1.4,-0.6" class="g7_1" />
<path d="M838.7,532l-0.5,0.6l0,0.9l0.9,0l0.6,-0.7L839.5,532Z" class="g7_1" />
<path d="M614.7,577.4c0,0,0,-5.2,0,-5.9c0,-0.8,-0.6,-1.2,-0.6,-1.2c0,0,-7.9,-4.3,-8.5,-4.6c-0.6,-0.4,-1.2,0,-1.2,0c0,0,-3.9,1.5,-4.7,1.9c-0.8,0.4,-0.9,1.6,-0.9,1.6l0,18l8.7,4.7c0,0,0.6,0.4,1.4,0.1c0.9,-0.2,4.6,-1.7,4.6,-1.7c0,0,1.2,-0.4,1.1,-2.7" class="g10_1" />
<path d="M607.7,590.8l0,-16.9c0,0,-0.2,-1.2,1.3,-1.7c1.4,-0.5,3.8,-1.3,3.8,-1.3" class="g7_1" />
<path d="M600,568.6l7.5,4.1" class="g7_1" />
<path d="M601.7,586.8l0,-15l3.1,1.7l0,15Z" class="g7_1" />
<path d="M598.4,580.3l-1,-0.8l-0.1,-8.8l1.2,-0.9" class="g10_1" />
<path d="M611.7,576.4l4.3,2.7l-0.1,6.8l-1.6,2l-1.5,0.4l-3,-1.7" class="g10_1" />
<path d="M609.6,585.9l0.1,-8.5l1.5,-0.9" class="g7_1" />
<path d="M612.6,587.5l0,-8.4l1.6,-1" class="g7_1" />
<path d="M613.1,587.7l0.1,-8.4l1.5,-1" class="g7_1" />
<path d="M609.8,577.5l2.8,1.5" class="g7_1" />
<path d="M612.2,572.2c0.6,0.3,0.6,1.2,0.2,2c-0.5,0.8,-1.3,1.1,-1.9,0.8c-0.5,-0.4,-0.6,-1.3,-0.2,-2c0.5,-0.8,1.3,-1.1,1.9,-0.8Z" class="g7_1" />
<path d="M612,572.5c0.4,0.3,0.5,1,0.1,1.6c-0.3,0.5,-1,0.8,-1.4,0.5c-0.4,-0.2,-0.5,-0.9,-0.1,-1.5c0.3,-0.6,1,-0.8,1.4,-0.6Z" class="g7_1" />
<path d="M612.2,587.6c0.6,0.4,0.6,1.3,0.2,2c-0.5,0.8,-1.3,1.1,-1.9,0.8c-0.5,-0.4,-0.6,-1.2,-0.2,-2c0.5,-0.8,1.3,-1.1,1.9,-0.8Z" class="g7_1" />
<path d="M612,588c0.4,0.2,0.5,0.9,0.1,1.5c-0.3,0.6,-1,0.8,-1.4,0.6c-0.4,-0.3,-0.5,-1,-0.1,-1.6c0.3,-0.5,1,-0.8,1.4,-0.5Z" class="g7_1" />
<path d="M613.1,584.5l2.7,1.4" class="g7_1" />
<path d="M565.1,573.9l4.9,3c0,0,2.1,0.8,3.7,-1.5c1.5,-2.3,0.5,-4.1,-0.2,-4.6c-0.8,-0.5,-4.8,-2.8,-4.8,-2.8c0,0,-1.1,-0.3,-1.9,0.1" class="g10_1" />
<path d="M570.3,576.5c-1.1,-0.6,-1.6,-2.4,-0.6,-4c0.9,-1.6,2.4,-2.1,3.8,-1.3" class="g7_1" />
<path d="M572.3,572.8c0.5,0.2,0.6,0.9,0.3,1.5c-0.3,0.6,-1,1,-1.4,0.7c-0.5,-0.2,-0.6,-0.9,-0.3,-1.5c0.4,-0.7,1,-1,1.4,-0.7Z" class="g7_1" />
<path d="M565.1,573.9c-1.1,-0.7,-0.6,-3,-0.2,-3.8c0.4,-0.7,1,-1.5,1.9,-2" class="g10_1" />
<path d="M580.7,554.8l2.2,1.3c0,0,2.1,0.8,3.6,-1.5c1.5,-2.4,0.6,-4.2,-0.2,-4.6c-0.8,-0.5,-4.8,-2.8,-4.8,-2.8c0,0,-1,-0.3,-1.8,0.1" class="g10_1" />
<path d="M583.1,555.7c-1,-0.6,-1.5,-2.4,-0.6,-4c1,-1.6,2.4,-2.2,3.8,-1.3" class="g7_1" />
<path d="M585.2,551.9c0.5,0.3,0.6,1,0.2,1.6c-0.3,0.6,-0.9,0.9,-1.4,0.7c-0.4,-0.2,-0.6,-0.9,-0.2,-1.6c0.3,-0.6,0.9,-0.9,1.4,-0.7Z" class="g7_1" />
<path d="M576.2,557.9c0.4,0.2,0.5,0.9,0.2,1.4c-0.3,0.6,-0.9,0.9,-1.3,0.6c-0.4,-0.2,-0.5,-0.8,-0.2,-1.4c0.3,-0.5,0.9,-0.8,1.3,-0.6Z" class="g7_1" />
<path d="M576.6,557.7c0.5,0.3,0.7,1.2,0.3,1.9c-0.4,0.8,-1.2,1.1,-1.7,0.9c-0.6,-0.3,-0.7,-1.2,-0.3,-1.9c0.4,-0.8,1.1,-1.1,1.7,-0.9Z" class="g7_1" />
<path d="M574.6,561.6c1,0.6,2.4,-0.1,3.2,-1.5c0.7,-1.4,0.4,-3,-0.6,-3.5c-1,-0.6,-6.3,-3.6,-6.3,-3.6" class="g10_1" />
<path d="M574.6,561.6c-1,-0.5,-1.3,-2.1,-0.6,-3.5c0.8,-1.4,2.2,-2.1,3.2,-1.5" class="g7_1" />
<path d="M568.5,552c-1,-0.6,-2.4,0.1,-3.2,1.5c-0.7,1.4,-0.4,3,0.6,3.5c1,0.6,8.7,4.6,8.7,4.6" class="g10_1" />
<path d="M588.4,570.6c0.4,0.2,0.5,0.8,0.2,1.4c-0.3,0.5,-0.8,0.8,-1.3,0.6c-0.4,-0.2,-0.5,-0.8,-0.2,-1.4c0.3,-0.6,0.9,-0.8,1.3,-0.6Z" class="g7_1" />
<path d="M588.8,570.4c0.6,0.3,0.7,1.1,0.3,1.9c-0.4,0.7,-1.1,1.1,-1.7,0.8c-0.5,-0.3,-0.7,-1.1,-0.3,-1.9c0.4,-0.7,1.2,-1.1,1.7,-0.8Z" class="g7_1" />
<path d="M586.8,574.3c1,0.5,2.4,-0.2,3.2,-1.6c0.7,-1.4,0.4,-2.9,-0.6,-3.5c-1,-0.5,-8.4,-4.7,-8.4,-4.7" class="g10_1" />
<path d="M586.8,574.3c-1,-0.6,-1.3,-2.1,-0.5,-3.5c0.7,-1.4,2.1,-2.1,3.1,-1.6" class="g7_1" />
<path d="M580.5,571c1,0.5,6.3,3.3,6.3,3.3" class="g10_1" />
<path d="M567,567l0,-9" class="g10_1" />
<path d="M568.5,568.5l0,-10" class="g7_1" />
<path d="M569.5,568.5l0,-9" class="g7_1" />
<path d="M570.5,569.5l0,-10" class="g7_1" />
<path d="M572,569l0,-9" class="g10_1" />
<path d="M580.5,570.8c-0.9,-0.5,-1.7,-2.6,0.2,-4.2" class="g7_1" />
<path d="M580,555l0,11" class="g10_1" />
<path d="M574.3,573.9l6.5,-2.5" class="g10_1" />
<path d="M579.5,550.9l0,19.9l-5,2" class="g7_1" />
<path d="M580.4,554.6c-0.9,-0.5,-1.5,-3.1,0.3,-4.8" class="g7_1" />
<path d="M580.7,549.7l0,-0.8l-1.1,-0.6" class="g10_1" />
<path d="M570.6,552.6l9.8,-3.7Z" class="g7_1" />
<path d="M570.8,552.5l-0.9,-0.6l-1.2,0.4" class="g7_1" />
<path d="M579.4,550.4l-7.5,2.8" class="g10_1" />
<path d="M568.5,551.3l10.9,-4.1" class="g10_1" />
<path d="M576.7,548l-1.4,-0.8c0,0,-6,2.4,-6.6,2.6c-0.6,0.1,-0.8,1.5,-0.8,1.8" class="g10_1" />
<path d="M572.4,564.9l0.6,-0.3l0,-0.6l0.8,-1l0.1,-1.4" class="g10_1" />
<path d="M572.4,566.6l2.1,-1.2l0,-0.6l0.8,-1l0,-1.4" class="g7_1" />
<path d="M574.5,565.4L573,564.6" class="g7_1" />
<path d="M574.5,564.8L573,564" class="g7_1" />
<path d="M575.2,563.8l-1.4,-0.9" class="g7_1" />
<path d="M572.5,568.4l4.6,-1.7l0,-5.2" class="g7_1" />
<path d="M572.8,569.7l1.6,-0.5l1.3,0.7l1.4,-0.4" class="g7_1" />
<path d="M575.7,568.6l3,-1l-1.6,-0.9" class="g7_1" />
<path d="M573.7,570.7l0.8,-0.2l1.1,0.6l1.5,-0.4l0,-1.2l-1,-0.6" class="g10_1" />
<path d="M577.2,569.3l1.2,-0.4" class="g10_1" />
<path d="M574.4,569.2l0,1.5" class="g7_1" />
<path d="M575.5,569.5l0,2" class="g7_1" />
<path d="M578.8,567.6l0,1.5" class="g7_1" />
<path d="M579.5,570.8l-2,-1" class="g7_1" />
<path d="M572.8,553.9l1.6,-0.6l1.3,0.8l1.4,-0.4" class="g7_1" />
<path d="M575.7,552.8l3,-1.1l-1.6,-0.9" class="g7_1" />
<path d="M574.2,554.7l0.3,0l1.2,0.6l1.4,-0.4l0,-1.2l-1,-0.6" class="g10_1" />
<path d="M577.2,553.5l1.2,-0.5" class="g10_1" />
<path d="M574.4,553.3l0,1.5" class="g7_1" />
<path d="M575.7,554.1l0,1.5" class="g7_1" />
<path d="M578.8,551.7l0,1.5" class="g7_1" />
<path d="M621.3,552.6l4.9,2.9c0,0,2.1,0.9,3.6,-1.5c1.6,-2.3,0.6,-4.1,-0.1,-4.6c-0.8,-0.4,-4.8,-2.8,-4.8,-2.8c0,0,-1.1,-0.3,-1.9,0.1" class="g10_1" />
<path d="M626.5,555.2c-1.1,-0.6,-1.6,-2.4,-0.6,-4c0.9,-1.6,2.4,-2.2,3.8,-1.3" class="g7_1" />
<path d="M628.5,551.4c0.5,0.2,0.6,0.9,0.3,1.6c-0.3,0.6,-1,0.9,-1.4,0.7c-0.5,-0.3,-0.6,-1,-0.3,-1.6c0.3,-0.6,1,-0.9,1.4,-0.7Z" class="g7_1" />
<path d="M644.6,549.2c0.4,0.2,0.5,0.8,0.2,1.4c-0.3,0.6,-0.8,0.8,-1.3,0.6c-0.4,-0.2,-0.5,-0.8,-0.2,-1.4c0.3,-0.5,0.9,-0.8,1.3,-0.6Z" class="g7_1" />
<path d="M645,549c0.6,0.3,0.7,1.2,0.3,1.9c-0.4,0.8,-1.1,1.1,-1.7,0.9c-0.5,-0.3,-0.7,-1.2,-0.3,-1.9c0.4,-0.8,1.2,-1.1,1.7,-0.9Z" class="g7_1" />
<path d="M643,552.9c1,0.5,2.4,-0.2,3.2,-1.5c0.7,-1.4,0.4,-3,-0.6,-3.5c-1,-0.6,-8.4,-4.7,-8.4,-4.7" class="g10_1" />
<path d="M643,552.9c-1,-0.5,-1.3,-2.1,-0.6,-3.5c0.8,-1.4,2.2,-2.1,3.2,-1.5" class="g7_1" />
<path d="M636.7,549.6c1,0.6,6.3,3.3,6.3,3.3" class="g10_1" />
<path d="M621.3,552.6c-1.1,-0.8,-0.6,-3.1,-0.2,-3.8c0.4,-0.8,1,-1.6,1.9,-2.1" class="g10_1" />
<path d="M636.9,533.5l2.2,1.2c0,0,2,0.8,3.6,-1.5c1.5,-2.3,0.5,-4.1,-0.2,-4.6c-0.8,-0.4,-4.8,-2.8,-4.8,-2.8c0,0,-1,-0.3,-1.8,0.1" class="g10_1" />
<path d="M639.3,534.3c-1,-0.6,-1.6,-2.4,-0.6,-4c1,-1.5,2.4,-2.1,3.8,-1.3" class="g7_1" />
<path d="M641.4,530.6c0.4,0.2,0.5,0.9,0.2,1.5c-0.3,0.7,-0.9,1,-1.4,0.7c-0.5,-0.2,-0.6,-0.9,-0.3,-1.5c0.4,-0.7,1,-1,1.5,-0.7Z" class="g7_1" />
<path d="M632.5,536.5c0.4,0.2,0.5,0.8,0.2,1.4c-0.3,0.5,-0.9,0.8,-1.3,0.6c-0.4,-0.2,-0.5,-0.8,-0.2,-1.4c0.3,-0.5,0.9,-0.8,1.3,-0.6Z" class="g7_1" />
<path d="M632.9,536.3c0.5,0.3,0.7,1.1,0.3,1.9c-0.4,0.7,-1.2,1.1,-1.7,0.8c-0.6,-0.3,-0.7,-1.1,-0.3,-1.8c0.4,-0.8,1.1,-1.2,1.7,-0.9Z" class="g7_1" />
<path d="M630.9,540.2c1,0.5,2.4,-0.2,3.1,-1.6c0.8,-1.4,0.5,-2.9,-0.5,-3.5c-1,-0.5,-6.3,-3.5,-6.3,-3.5" class="g10_1" />
<path d="M630.9,540.2c-1.1,-0.5,-1.3,-2.1,-0.6,-3.5c0.7,-1.4,2.2,-2.1,3.2,-1.6" class="g7_1" />
<path d="M624.8,530.5c-1,-0.5,-2.4,0.2,-3.2,1.6c-0.7,1.4,-0.4,3,0.6,3.5c1,0.5,8.7,4.6,8.7,4.6" class="g10_1" />
<path d="M624,546l0,-10" class="g10_1" />
<path d="M625.5,546.5l0,-9" class="g7_1" />
<path d="M635.1,533.2l0,10.6l-7.9,3.1" class="g7_1" />
<path d="M632.3,540.6l0,1.9l-5,2" class="g10_1" />
<path d="M627,546l0,-8" class="g10_1" />
<path d="M630.8,551.6l5.4,-2" class="g10_1" />
<path d="M630.2,549.9l4.9,-1.8" class="g7_1" />
<path d="M628.8,549.1l4.9,-1.9" class="g7_1" />
<path d="M628.2,548.2l7.2,-2.7" class="g10_1" />
<path d="M635.1,543.8l-2.6,-1.2" class="g7_1" />
<path d="M635.1,548.1l-1.4,-0.8" class="g7_1" />
<path d="M625.4,530.9l11.5,-4.2Z" class="g7_1" />
<path d="M624.7,530l11,-4.1" class="g10_1" />
<path d="M633,526.7l-1.4,-0.8c0,0,-6.1,2.4,-6.7,2.6c-0.6,0.2,-0.7,1.5,-0.8,1.8" class="g10_1" />
<path d="M635.2,529.1l-7.5,2.9" class="g10_1" />
<path d="M632,534.3l3.2,-1.2" class="g10_1" />
<path d="M630.5,533.3l4.6,-1.7" class="g7_1" />
<path d="M629.3,532.5l4.4,-1.7" class="g7_1" />
<path d="M635.1,531.6L633.7,531" class="g7_1" />
<path d="M636.3,549.4c-0.4,-0.2,-1,-0.6,-1.2,-1.3" class="g7_1" />
<path d="M635.6,545.3c0.1,-0.6,1.1,-1.3,1.3,-1.4c0.3,-0.1,0.3,-0.1,0.3,-0.1" class="g7_1" />
<path d="M636,543l0,-10" class="g10_1" />
<path d="M636.4,533.1c-0.3,-0.2,-1.1,-0.7,-1.3,-1.4" class="g7_1" />
<path d="M635.5,528.9c0.1,-0.8,1.1,-1.6,1.4,-1.7" class="g7_1" />
<path d="M624.8,586.1l18.9,10.4" class="g15_1" />
<path d="M624.8,586.1l18.9,10.4" class="g20_1" />
<path d="M575.7,558.9l45.2,25" class="g15_1" />
<path d="M575.7,558.9l45.2,25" class="g20_1" />
<path d="M637.2,598.8L656,609.2" class="g15_1" />
<path d="M637.2,598.8L656,609.2" class="g20_1" />
<path d="M709.9,576.6c1.2,0.6,1.4,2.4,0.6,4c-0.8,1.6,-2.4,2.4,-3.6,1.8c-1.2,-0.6,-1.5,-2.4,-0.6,-4c0.8,-1.6,2.4,-2.4,3.6,-1.8Z" class="g10_1" />
<path d="M705.6,579.9L702.5,578l-2.2,-2.9l4.1,0.3l3,1.6" class="g10_1" />
<path d="M707.7,580.2c0.3,0,0.9,-0.2,1.1,-0.5c0.3,-0.3,0.2,-0.9,0.1,-1.3" class="g7_1" />
<path d="M707.7,580.8c0.5,-0.1,1.3,-0.4,1.3,0.6" class="g7_1" />
<path d="M709.4,578.1c0.2,0.8,0.4,1.3,1.1,1.1" class="g7_1" />
<path d="M710.2,579.7c-0.4,0.1,-0.9,0.9,-0.7,1.4" class="g7_1" />
<path d="M708.9,578.4l0.5,-0.3" class="g7_1" />
<path d="M707.7,580.8l0,-0.6" class="g7_1" />
<path d="M705.3,579.7c-0.9,-0.6,0.3,-3.6,1.8,-2.8" class="g7_1" />
<path d="M704.4,579.1c-0.9,-0.5,0.2,-3.5,1.8,-2.8" class="g7_1" />
<path d="M703.6,578.6c-0.9,-0.5,0.2,-3.5,1.8,-2.7" class="g7_1" />
<path d="M702.6,578c-0.9,-0.5,0.2,-3.4,1.8,-2.6" class="g7_1" />
<path d="M721.9,589.4c1.2,0.6,1.5,2.4,0.7,4c-0.9,1.6,-2.5,2.4,-3.7,1.8c-1.1,-0.6,-1.4,-2.4,-0.6,-4c0.8,-1.6,2.5,-2.4,3.6,-1.8Z" class="g10_1" />
<path d="M717.7,592.7l-3.1,-1.9L712.3,588l4.2,0.2l2.9,1.6" class="g10_1" />
<path d="M719.7,593c0.3,0,0.9,-0.1,1.2,-0.5c0.2,-0.3,0.2,-0.9,0,-1.3" class="g7_1" />
<path d="M719.7,593.6c0.5,-0.1,1.4,-0.3,1.4,0.6" class="g7_1" />
<path d="M721.4,590.9c0.3,0.8,0.4,1.3,1.1,1.1" class="g7_1" />
<path d="M722.3,592.5c-0.4,0.1,-1,0.9,-0.8,1.4" class="g7_1" />
<path d="M720.9,591.2l0.5,-0.3" class="g7_1" />
<path d="M719.7,593.6l0,-0.6" class="g7_1" />
<path d="M717.4,592.5c-0.9,-0.5,0.2,-3.6,1.8,-2.8" class="g7_1" />
<path d="M716.4,591.9c-0.9,-0.5,0.2,-3.5,1.8,-2.7" class="g7_1" />
<path d="M715.6,591.4c-0.8,-0.5,0.2,-3.5,1.8,-2.7" class="g7_1" />
<path d="M714.6,590.8c-0.8,-0.5,0.3,-3.4,1.9,-2.6" class="g7_1" />
<path d="M691,579.1c-1,-0.5,-1.2,-1.3,-1.2,-2.1" class="g7_1" />
<path d="M693.7,573.8c1,0.6,1.3,2.2,0.5,3.7c-0.7,1.4,-2.6,2.7,-4.3,1.4" class="g10_1" />
<path d="M692.4,575.3c0.2,0.4,0.2,0.9,0,1.3c-0.3,0.5,-0.7,0.8,-1,0.8" class="g7_1" />
<path d="M692.7,575.3c0.5,0.3,0.6,1,0.2,1.6c-0.3,0.6,-0.9,0.9,-1.4,0.7" class="g7_1" />
<path d="M691.5,577.6c-0.4,-0.2,-0.5,-0.9,-0.2,-1.6c0.3,-0.6,0.9,-0.9,1.4,-0.7" class="g7_1" />
<path d="M680.3,562.6c0.2,0.4,0.2,0.9,0,1.3c-0.3,0.5,-0.7,0.8,-1,0.8" class="g7_1" />
<path d="M678.6,566.6c0.7,0.3,1,0.4,1.3,0.3" class="g10_1" />
<path d="M681.5,561.1c-1.1,-0.6,-2.6,0.1,-3.3,1.6c-0.8,1.4,-0.5,3.1,0.5,3.6" class="g7_1" />
<path d="M682.5,563.2c0,0,0,-1.6,-1,-2.1" class="g10_1" />
<path d="M692.2,573.2l-0.8,-0.6l-9.2,3.4l0,-8.8l9.1,-3.6l1.1,-1.4l-2.3,-1.9c0,0,-7.5,2.9,-7.6,2.9" class="g7_1" />
<path d="M680.1,566.6l0,11.6l2.1,1.7l7.5,-2.8" class="g7_1" />
<path d="M682.6,562.1c0.2,0,6.6,-2.5,6.6,-2.5l3.2,2.6l-1.1,1.4l-9.1,3.6l0,8.8" class="g10_1" />
<path d="M692.7,573.6l-2.2,-1.7l-8.1,3" class="g10_1" />
<path d="M679.2,567.2l0,10.3l3,2.4l7.5,-2.8" class="g10_1" />
<path d="M693.7,573.8c-0.3,-0.1,-1.1,-0.3,-1.1,-0.3" class="g10_1" />
<path d="M680.6,562.6c0.5,0.2,0.6,0.9,0.2,1.6c-0.3,0.6,-0.9,0.9,-1.4,0.7" class="g7_1" />
<path d="M679.4,564.9c-0.4,-0.3,-0.5,-1,-0.2,-1.6c0.3,-0.6,0.9,-0.9,1.4,-0.7" class="g7_1" />
<path d="M680.6,560.6c-1.1,-0.6,-2.5,0.2,-3.3,1.6c-0.7,1.5,-0.5,3.5,0.6,4c1,0.6,0.7,0.4,0.7,0.4" class="g10_1" />
<path d="M680.6,560.6l0.9,0.5" class="g10_1" />
<path d="M689.9,578.9c-0.6,-0.3,-0.9,-0.8,-1,-1.2" class="g10_1" />
<path d="M680.1,563.7L699,574.2" class="g15_1" />
<path d="M680.1,563.7L699,574.2" class="g20_1" />
<path d="M692.5,576.5l18.9,10.4" class="g15_1" />
<path d="M692.5,576.5l18.9,10.4" class="g20_1" />
<path d="M558.7,575.6L541.4,582l89.9,49.1l26.3,-9.7" class="g10_1" />
<path d="M642,522.8l14.7,-5.4L761.2,577l-16.1,6" class="g10_1" />
<path d="M650.7,409.6l12.5,7.6" class="g15_1" />
<path d="M650.7,409.6l12.5,7.6" class="g16_1" />
<path d="M672.7,418.7c1.2,0.6,1.5,2.4,0.7,4c-0.8,1.6,-2.5,2.4,-3.7,1.8c-1.1,-0.7,-1.4,-2.5,-0.6,-4.1c0.8,-1.6,2.5,-2.4,3.6,-1.7Z" class="g10_1" />
<path d="M668.5,421.9L665.4,420l-2.3,-2.8l4.2,0.2l2.9,1.7" class="g10_1" />
<path d="M668.2,421.8c-0.9,-0.6,0.2,-3.6,1.8,-2.8" class="g7_1" />
<path d="M667.2,421.2c-0.8,-0.6,0.2,-3.6,1.8,-2.8" class="g7_1" />
<path d="M666.4,420.7c-0.8,-0.6,0.2,-3.5,1.8,-2.8" class="g7_1" />
<path d="M665.5,420.1c-0.9,-0.6,0.2,-3.5,1.8,-2.7" class="g7_1" />
<path d="M637.6,430.7l12.5,7.5" class="g15_1" />
<path d="M637.6,430.7l12.5,7.5" class="g16_1" />
<path d="M660.9,440.2c1.2,0.7,1.4,2.5,0.6,4.1c-0.8,1.6,-2.4,2.4,-3.6,1.7c-1.2,-0.6,-1.5,-2.4,-0.7,-4c0.9,-1.6,2.5,-2.4,3.7,-1.8Z" class="g10_1" />
<path d="M656.6,443.5l-3.1,-1.9l-2.2,-2.8l4.1,0.2l3,1.7" class="g10_1" />
<path d="M656.3,443.3c-0.9,-0.5,0.2,-3.5,1.8,-2.7" class="g7_1" />
<path d="M655.4,442.8c-0.9,-0.6,0.2,-3.6,1.8,-2.8" class="g7_1" />
<path d="M654.6,442.3c-0.9,-0.6,0.2,-3.5,1.7,-2.8" class="g7_1" />
<path d="M653.6,441.7c-0.9,-0.6,0.2,-3.5,1.8,-2.7" class="g7_1" />
<path d="M812.1,517.6l19,10.5" class="g15_1" />
<path d="M811.7,517.3l19.4,10.8" class="g16_1" />
<path d="M584.8,605.7l-11.1,4.1" class="g10_1" />
<path d="M707.8,536.5l-10.7,4" class="g10_1" />
<path d="M652.9,400l14.7,-5.5l115.3,66.2l-16,6" class="g10_1" />
<path d="M725.4,417.1l-11,4.1" class="g10_1" />
<path d="M671.8,421l-0.3,0.6l-0.5,0.3l0.3,0.5l-0.3,0.7l0.7,-0.2l0.6,0.2l0.2,-0.6l0.6,-0.3l-0.3,-0.5l0.1,-0.7l-0.6,0.3Z" class="g7_1" />
<path d="M764.5,624.7l-17.3,6.4L791,655l16,-5.9" class="g10_1" />
<path d="M771,644.1l-11,4.1" class="g10_1" />
<path d="M571.9,573.9l7.7,4.3" class="g18_1" />
<path d="M571.9,573.9l7.7,4.3" class="g19_1" />
<path d="M584.7,553.2l7.7,4.3" class="g18_1" />
<path d="M584.7,553.2l7.7,4.3" class="g19_1" />
<path d="M640.9,531.7l7.7,4.2" class="g18_1" />
<path d="M640.9,531.7l7.7,4.2" class="g19_1" />
<path d="M627.9,552.6l7.8,4.2" class="g18_1" />
<path d="M627.9,552.6l7.8,4.2" class="g19_1" />
<path d="M658.5,546.9l0,-0.2l-0.7,-0.4l-2.1,0l-6.2,2.3l0,10.2l1.6,0.9l0.2,-0.1" class="g10_1" />
<path d="M651.1,559l0.2,0.2l0,0.7l0.4,0.2l0.7,-0.3" class="g7_1" />
<path d="M651.7,559.4l0.7,0.4l0,0.6l8.4,4.7l0.6,-0.3" class="g10_1" />
<path d="M660.8,564.4l0.6,0.4l0,0.6l0.5,0.3l0.3,-0.1" class="g7_1" />
<path d="M661.9,565l0.3,0.2l0,0.7l0.6,0.3l2.1,0.1l6.4,-2.4l0,-10.1l-1.7,-1l-7.4,2.9l0,0.5" class="g10_1" />
<path d="M651.3,550.3l0,-0.7l7.5,-2.7l0.4,0.2l0,0.6" class="g7_1" />
<path d="M652.4,550.9l0,-0.6l7.5,-2.8l8.3,4.6l0,0.6" class="g10_1" />
<path d="M661.5,555.9l0,-0.7l7.4,-2.8l0.5,0.3l0,0.3" class="g10_1" />
<path d="M662.2,555.7l0.7,0.4l2,0l6.4,-2.3" class="g7_1" />
<path d="M663.6,562.4l0,-2.5l1.3,0l0,-1.1l1,-0.4l0,-1.4l3.8,-1.4" class="g10_1" />
<path d="M663.6,561.6l1.4,0.8l0,1.2" class="g10_1" />
<path d="M665,562.6l1,0.6l0,1.4" class="g10_1" />
<path d="M665,566.3l0,-2.7l1,-0.4" class="g7_1" />
<path d="M666,564.6l3.7,-1.4l-5.8,-3.3" class="g7_1" />
<path d="M669.5,563.5l0,-8" class="g7_1" />
<path d="M662.5,556.5l0,10" class="g7_1" />
<path d="M664.5,558.5l0,-2" class="g7_1" />
<path d="M660.5,564.5l0,1" class="g7_1" />
<path d="M651.5,559.5l0,1" class="g7_1" />
<path d="M651.7,557.5l0,-5l-0.6,-0.4l0,5Z" class="g10_1" />
<path d="M651.1,557.1l0.6,-0.2" class="g7_1" />
<path d="M649.5,548.6l1.5,0.9l7.4,-2.8l-7.4,2.8l0,0.6l0.3,0.2" class="g7_1" />
<path d="M651.3,549.6l0.5,0.3l7.4,-2.8l-7.4,2.8l0,0.6l0.6,0.4l-0.6,-0.4l0.6,-0.2" class="g10_1" />
<path d="M652.4,550.3l4.2,2.3l7.3,-2.8l-7.3,2.8l4.2,2.3l7.4,-2.8l-7.4,2.8l0,0.6l0.7,0.4l-0.7,-0.4l0.6,-0.2" class="g7_1" />
<path d="M661.5,555.2l0.4,0.3l7.5,-2.8l-7.5,2.8l0,0.6l0.3,0.2" class="g7_1" />
<path d="M656.5,552.5l0,10" class="g7_1" />
<path d="M663.6,562.4l1.4,0" class="g7_1" />
<path d="M664.4,559.9l3,0.7L668,561" class="g7_1" />
<path d="M667.5,560.5l0,-4" class="g7_1" />
<path d="M667.5,560.5l0,-4" class="g7_1" />
<path d="M664.9,559.1l2.5,0.6l0.6,0.4" class="g7_1" />
<path d="M665.5,558.6l1.9,0.4l0.6,0.4" class="g7_1" />
<path d="M665.9,558.1l1.5,0.3l0.6,0.4" class="g7_1" />
<path d="M665.9,557.4l1.5,0.3l0.6,0.5" class="g7_1" />
<path d="M666.4,556.9l1,0.2l0.6,0.4" class="g7_1" />
<path d="M678.7,453.3l0,-17.6c0,0,0.1,-1.2,0.9,-1.5c0.8,-0.4,4.9,-2,4.9,-2c0,0,0.6,-0.4,1.2,0c0.6,0.3,2.1,1.1,2.1,1.1c0,0,0.5,0.4,0.5,1.1c0,0.8,0,5.8,0,5.8" class="g10_1" />
<path d="M678.7,453.3l2.3,1.5c0,0,0.6,0.4,1.2,0.2c0.5,-0.1,3.3,-1.2,3.3,-1.2" class="g10_1" />
<path d="M688,451l0,-2" class="g10_1" />
<path d="M678.3,437.3c-0.6,0.5,-0.8,1.1,-0.8,1.9c-0.1,0.8,-0.1,6.3,-0.1,6.3c0,0,0.4,0.9,0.9,1.2" class="g10_1" />
<path d="M681.2,454.7l0,-17.7c0,0,0.1,-1.1,0.9,-1.5c0.8,-0.4,4.8,-2,4.8,-2c0,0,0.7,-0.3,1.3,0" class="g7_1" />
<path d="M686.9,439.6l2,1c0,0,0.6,0.5,0.6,1.2c0.1,0.7,0,6.6,0,6.6c0,0,-0.1,0.7,-0.6,1.2c-0.6,0.4,-3,1.7,-3,1.7l-3,-1.5" class="g10_1" />
<path d="M682.6,449.3l0,-8.1c0,0,0,-1.3,1.1,-1.5c1,-0.2,3.2,-0.1,3.2,-0.1" class="g7_1" />
<path d="M685.3,450.6l0,-8.1c0,0,0,-1.3,1,-1.5c1.1,-0.1,2.9,0,2.9,0" class="g7_1" />
<path d="M683.3,440.3l1.8,1" class="g7_1" />
<path d="M685.6,450.6l0,-8.1c0,0,0,-1.1,0.9,-1.2c0.9,-0.2,2.4,-0.1,2.4,-0.1" class="g7_1" />
<path d="M686.5,436.3c0.3,0.2,0.4,0.8,0.1,1.2c-0.3,0.5,-0.8,0.7,-1.2,0.5" class="g10_1" />
<path d="M685.7,437.9c-0.3,-0.2,-0.3,-0.6,-0.1,-1c0.2,-0.3,0.6,-0.5,0.9,-0.3" class="g7_1" />
<path d="M684.2,437.3c-0.4,-0.2,-0.4,-0.7,-0.1,-1.2c0.3,-0.5,0.8,-0.7,1.1,-0.5" class="g7_1" />
<path d="M685.2,435.6l1.3,0.7" class="g10_1" />
<path d="M684.2,437.3l1.2,0.7" class="g10_1" />
<path d="M678.6,435.1c-0.2,-0.5,-0.1,-1.2,0.2,-1.8c0.6,-0.8,1.5,-1.2,2.1,-0.8c0.6,0.4,1.1,0.6,1.1,0.6" class="g10_1" />
<path d="M681.8,433l-1,-0.5" class="g7_1" />
<path d="M679.9,435.2l1.6,0.9" class="g7_1" />
<path d="M685.3,437.6C685,437.5,685,437,685.2,436.7c0.2,-0.4,0.6,-0.5,0.9,-0.4" class="g7_1" />
<path d="M684.9,437.4c-0.3,-0.2,-0.3,-0.6,-0.1,-1c0.2,-0.3,0.6,-0.5,0.9,-0.3" class="g7_1" />
<path d="M684.4,437.1c-0.3,-0.2,-0.3,-0.6,-0.1,-0.9c0.2,-0.4,0.6,-0.6,0.9,-0.4" class="g7_1" />
<path d="M684.1,437.9c-0.5,-0.3,-0.6,-1.2,-0.2,-1.9c0.5,-0.8,1.3,-1.1,1.8,-0.7" class="g7_1" />
<path d="M686.5,451.8c0.3,0.2,0.4,0.7,0.1,1.2c-0.3,0.5,-0.8,0.7,-1.2,0.5" class="g10_1" />
<path d="M685.7,453.3c-0.3,-0.1,-0.3,-0.6,-0.1,-0.9c0.2,-0.4,0.6,-0.5,0.9,-0.4" class="g7_1" />
<path d="M684.2,452.8c-0.4,-0.2,-0.4,-0.8,-0.1,-1.3c0.3,-0.4,0.8,-0.6,1.1,-0.4" class="g7_1" />
<path d="M685.2,451.1l1.3,0.7" class="g7_1" />
<path d="M684.2,452.8l1.2,0.7" class="g10_1" />
<path d="M685.3,453.1c-0.3,-0.2,-0.3,-0.6,-0.1,-1c0.2,-0.3,0.6,-0.5,0.9,-0.3" class="g7_1" />
<path d="M684.9,452.8c-0.3,-0.1,-0.3,-0.6,-0.1,-0.9c0.2,-0.4,0.6,-0.6,0.9,-0.4" class="g7_1" />
<path d="M684.4,452.6c-0.3,-0.2,-0.3,-0.6,-0.1,-1c0.2,-0.4,0.6,-0.5,0.9,-0.4" class="g7_1" />
<path d="M684.1,453.4c-0.5,-0.4,-0.6,-1.2,-0.2,-2c0.5,-0.7,1.3,-1,1.8,-0.7" class="g7_1" />
<path d="M686.9,453.2l0.5,-0.2c0.3,-0.1,0.9,-0.4,0.9,-1.3" class="g10_1" />
<path d="M679.6,447l0.8,0.7l0.1,-0.7" class="g7_1" />
<path d="M680.2,446.6l0,-0.4" class="g7_1" />
<path d="M680,445.2c-0.1,-0.1,-0.2,0.3,0,0.5c0.1,0.2,0.3,0.4,0.4,0.4c0.1,0,0.2,-0.1,0.2,-0.2c0,-0.2,-0.2,-0.4,-0.3,-0.5" class="g7_1" />
<path d="M679.9,444.2c0.1,-0.1,0.4,0.1,0.5,0.3c0.2,0.3,0.2,0.5,0.1,0.6c-0.1,0.1,-0.4,0,-0.5,-0.3c-0.2,-0.2,-0.2,-0.5,-0.1,-0.6Z" class="g7_1" />
<path d="M680.5,444.2L680,443.8c0,0,-0.1,-0.1,-0.1,-0.2c0,-0.2,-0.1,-0.4,0.1,-0.3c0.1,0.1,0.5,0.4,0.5,0.4" class="g7_1" />
<path d="M680.5,443.7L680,443.3c0,0,-0.1,-0.1,-0.1,-0.2c0,-0.2,-0.1,-0.4,0.1,-0.3c0.1,0.1,0.5,0.4,0.5,0.4" class="g7_1" />
<path d="M679.5,441.7c0.1,-0.1,0.3,0,0.4,0.2c0.1,0.2,0.2,0.4,0.1,0.5c-0.1,0,-0.3,-0.1,-0.4,-0.3c-0.2,-0.1,-0.2,-0.3,-0.1,-0.4Z" class="g7_1" />
<path d="M696.4,459.4c-0.3,-0.2,-0.3,-0.7,-0.1,-1.2c0.3,-0.4,0.8,-0.6,1.1,-0.4" class="g7_1" />
<path d="M697.4,457.8c0.3,0.2,0.4,0.7,0.1,1.2c-0.3,0.4,-0.7,0.6,-1.1,0.4" class="g7_1" />
<path d="M696.1,460c-0.5,-0.4,-0.6,-1.3,-0.1,-2c0.4,-0.8,1.2,-1.1,1.7,-0.8" class="g7_1" />
<path d="M697.7,457.2c0.6,0.4,0.6,1.3,0.2,2c-0.5,0.8,-1.2,1.1,-1.8,0.8" class="g10_1" />
<path d="M695.4,459.8c0.2,-0.4,0.2,-1.4,0,-1.7" class="g7_1" />
<path d="M696.7,456.8c0.2,0.1,0.7,0.2,0.8,0.2" class="g7_1" />
<path d="M695.4,458.1c0.5,-0.1,1.2,-0.8,1.3,-1.3" class="g7_1" />
<path d="M693.8,458.9c-0.2,-0.6,-0.2,-1,0,-1.7" class="g10_1" />
<path d="M693.8,457.2c0.1,-0.5,0.7,-1.2,1.3,-1.2" class="g10_1" />
<path d="M695.1,456c0.5,-0.1,0.8,0.1,1,0.2c0.2,0.1,1.6,0.8,1.6,0.8" class="g10_1" />
<path d="M693.8,458.9l1.6,0.9c0,0,0.4,0.2,0.8,0.2" class="g10_1" />
<path d="M695.4,458.1l-1.6,-0.8" class="g7_1" />
<path d="M696.7,456.8L695,456" class="g7_1" />
<path d="M696.4,444.1c-0.3,-0.2,-0.3,-0.8,-0.1,-1.2c0.3,-0.5,0.8,-0.7,1.1,-0.5" class="g7_1" />
<path d="M697.4,442.4c0.3,0.2,0.4,0.8,0.1,1.2c-0.3,0.5,-0.7,0.7,-1.1,0.5" class="g7_1" />
<path d="M696.1,444.6c-0.5,-0.3,-0.6,-1.2,-0.1,-2c0.4,-0.7,1.2,-1.1,1.7,-0.7" class="g7_1" />
<path d="M697.7,441.9c0.6,0.3,0.6,1.2,0.2,2c-0.5,0.7,-1.2,1.1,-1.8,0.7" class="g10_1" />
<path d="M695.4,444.4c0.2,-0.3,0.2,-1.3,0,-1.6" class="g7_1" />
<path d="M696.7,441.5c0.2,0.1,0.7,0.2,0.8,0.2" class="g7_1" />
<path d="M695.4,442.8c0.5,-0.2,1.2,-0.9,1.3,-1.3" class="g7_1" />
<path d="M693.8,443.6c-0.2,-0.6,-0.2,-1.1,0,-1.7" class="g10_1" />
<path d="M693.8,441.9c0.1,-0.6,0.7,-1.2,1.3,-1.3" class="g10_1" />
<path d="M695.1,440.6c0.5,0,0.8,0.2,1,0.2c0.2,0.1,1.6,0.9,1.6,0.9" class="g10_1" />
<path d="M693.8,443.6l1.6,0.8c0,0,0.4,0.2,0.8,0.2" class="g10_1" />
<path d="M695.4,442.8l-1.6,-0.9" class="g7_1" />
<path d="M696.7,441.5L695,440.6" class="g7_1" />
<path d="M703.5,448.4c0.5,0.3,0.7,1.1,0.3,1.8c-0.4,0.6,-1,1,-1.5,0.7" class="g7_1" />
<path d="M702.3,450.9c-0.5,-0.2,-0.7,-1,-0.3,-1.7c0.3,-0.7,1,-1,1.5,-0.8" class="g10_1" />
<path d="M703.1,448.4c0.3,0.3,0.3,0.9,0,1.4c-0.3,0.5,-0.7,0.8,-1.1,0.8" class="g10_1" />
<path d="M716.3,461.9c0.5,0.3,0.7,1,0.3,1.7c-0.3,0.7,-1,1,-1.5,0.8" class="g7_1" />
<path d="M715.1,464.4c-0.5,-0.3,-0.7,-1.1,-0.3,-1.7c0.3,-0.7,1,-1.1,1.5,-0.8" class="g10_1" />
<path d="M715.9,461.8c0.3,0.4,0.3,0.9,0,1.4c-0.3,0.5,-0.7,0.8,-1.1,0.9" class="g10_1" />
<path d="M710.2,444.3l-7.4,2.8c0,0,-2.3,1,-2.3,3.4" class="g7_1" />
<path d="M700.5,450.5c0,0.8,0.3,1.8,1.6,2.1" class="g7_1" />
<path d="M702.1,452.6c0.4,0.1,0.8,0.5,0.8,1.3c0,0.8,0,8.2,0,8.2" class="g7_1" />
<path d="M702.9,462.1c0,0.5,0.1,1.4,1.1,1.6" class="g7_1" />
<path d="M704,463.7c0.9,0.3,1.7,1.2,1.7,2.2" class="g7_1" />
<path d="M705.5,465.5l0,1" class="g7_1" />
<path d="M705.9,468c0.7,0.4,1.7,0.9,2.6,0.5" class="g10_1" />
<path d="M705.7,466.6c0,0.4,0.2,1.2,0.7,1.7" class="g7_1" />
<path d="M708.5,468.5l7.1,-2.7" class="g10_1" />
<path d="M715.6,465.8c1.5,-0.5,2.4,-2.1,2.4,-3.4" class="g10_1" />
<path d="M718,462.4c0,-1,-0.1,-1.8,-1.4,-2.1" class="g10_1" />
<path d="M716.6,460.3c-0.6,-0.3,-0.8,-0.6,-0.8,-1.5" class="g10_1" />
<path d="M715.8,458.8l0,-8c0,0,0,-1.5,-1.4,-1.8" class="g10_1" />
<path d="M714.4,449c-0.7,-0.2,-1.4,-1.2,-1.4,-2" class="g10_1" />
<path d="M711.7,444.2c-0.4,-0.1,-0.9,-0.1,-1.5,0.1" class="g7_1" />
<path d="M713,447c0,-0.4,0,-0.9,0,-0.9c0,-0.6,-0.2,-1.4,-1.2,-1.9" class="g10_1" />
<path d="M709.2,443.7l-7.4,2.8c0,0,-2.2,1,-2.2,3.5" class="g10_1" />
<path d="M699.6,450c0,0.6,0.1,1.4,0.9,1.8" class="g10_1" />
<path d="M700.5,451.8c1.3,0.7,1.4,1,1.4,1.5c0,0.8,0,8.2,0,8.2" class="g10_1" />
<path d="M701.9,461.5c0,0.6,0.1,1.4,1.1,1.6" class="g10_1" />
<path d="M703,463.1c0.9,0.3,1.7,1.2,1.7,2.2" class="g10_1" />
<path d="M704,465l0,1" class="g10_1" />
<path d="M704.7,466.1c0,0.5,0.3,1.5,1.2,1.9" class="g10_1" />
<path d="M717,460.4c-0.2,-0.2,-0.5,-0.3,-0.8,-0.4" class="g7_1" />
<path d="M714.7,449.1c-0.2,-0.1,-0.4,-0.3,-0.7,-0.3" class="g7_1" />
<path d="M711.8,444.2c-1.2,-0.8,-1.8,-0.8,-2.6,-0.5" class="g10_1" />
<path d="M706.6,463.7c0.3,0.2,0.9,0.2,1.8,-0.2" class="g7_1" />
<path d="M708.5,450c0,0,-2.6,0.5,-2.5,3.6c0.1,3.2,0,8.7,0,8.7c0,0,-0.1,1,0.6,1.4" class="g10_1" />
<path d="M709.2,447.1c0,0.1,0,2,0,2l0.5,0.3" class="g10_1" />
<path d="M711.8,449.6c-0.4,-0.1,-0.9,-0.1,-1.6,0.1" class="g10_1" />
<path d="M712.6,451.1c0,-0.7,-0.3,-1.2,-0.8,-1.5" class="g7_1" />
<path d="M712.6,451.1l0,7.9c0,0,0.2,2.1,-2.4,3.5" class="g7_1" />
<path d="M710.2,462.5l0,1.9c0,0,-0.1,1.2,-1.1,1.4" class="g7_1" />
<path d="M709.1,465.8c-0.4,0,-0.7,-0.1,-0.7,-0.6c0,-0.5,0,-1.7,0,-1.7" class="g10_1" />
<path d="M708.5,450l0,-1.5c0,0,-0.1,-1.1,1,-1.5" class="g10_1" />
<path d="M710.2,449.7l0,-1.9c0,0,0.1,-1.1,-0.7,-0.8" class="g7_1" />
<path d="M706.2,463.3c0.3,-0.1,0.7,-0.2,1.2,-0.4" class="g10_1" />
<path d="M711.6,450.5c0,-0.4,-0.1,-0.7,-0.2,-0.9" class="g10_1" />
<path d="M711.6,450.5l0,7.9c0,0,0.2,2.1,-2.4,3.5" class="g10_1" />
<path d="M709.2,461.9l0,1.9c0,0,-0.1,0.8,-0.7,1.2" class="g10_1" />
<path d="M708.4,463.5l-1,-0.6" class="g10_1" />
<path d="M710.2,462.5l-0.5,-0.3" class="g7_1" />
<path d="M703.1,449.9L722,460.4" class="g15_1" />
<path d="M702.7,449.6L722,460.4" class="g16_1" />
<path d="M715.4,462.6l18.9,10.6" class="g15_1" />
<path d="M715,462.3l19.3,10.9" class="g16_1" />
<path d="M660,442.4l-0.3,0.6l-0.5,0.3l0.3,0.5l-0.3,0.7l0.7,-0.2l0.6,0.2l0.2,-0.6l0.6,-0.3L661,443.1l0.1,-0.7l-0.6,0.3Z" class="g7_1" />
<path d="M644.3,417.4l54.5,30.5" class="g15_1" />
<path d="M644.3,417.4l54.5,30.5" class="g16_1" />
<path d="M631.9,537.5l45.2,25" class="g15_1" />
<path d="M631.9,537.5l45.2,25" class="g20_1" />
<path d="M815.9,612.9c1.2,0.6,1.4,2.4,0.6,4c-0.8,1.6,-2.4,2.4,-3.6,1.8c-1.2,-0.6,-1.5,-2.4,-0.6,-4c0.8,-1.6,2.4,-2.4,3.6,-1.8Z" class="g10_1" />
<path d="M811.6,616.2l-3.1,-1.9l-2.2,-2.9l4.1,0.2l3,1.7" class="g10_1" />
<path d="M811.3,616c-0.9,-0.6,0.3,-3.6,1.8,-2.8" class="g7_1" />
<path d="M810.4,615.4c-0.9,-0.6,0.2,-3.5,1.8,-2.8" class="g7_1" />
<path d="M809.6,614.9c-0.9,-0.5,0.2,-3.5,1.8,-2.7" class="g7_1" />
<path d="M808.6,614.3c-0.9,-0.5,0.2,-3.4,1.8,-2.7" class="g7_1" />
<path d="M815,615.1l-0.3,0.6l-0.5,0.2l0.3,0.6l-0.3,0.7l0.7,-0.3l0.6,0.3l0.2,-0.7l0.6,-0.3L816,615.7l0.1,-0.6l-0.6,0.2Z" class="g7_1" />
<path d="M803.5,633.7c1.2,0.6,1.5,2.4,0.6,4c-0.8,1.6,-2.4,2.4,-3.6,1.8c-1.2,-0.6,-1.5,-2.4,-0.6,-4c0.8,-1.6,2.4,-2.4,3.6,-1.8Z" class="g10_1" />
<path d="M799.3,637l-3.1,-1.9l-2.3,-2.8l4.1,0.2l3,1.7" class="g10_1" />
<path d="M798.9,636.8c-0.8,-0.5,0.3,-3.5,1.9,-2.8" class="g7_1" />
<path d="M798,636.3c-0.9,-0.6,0.2,-3.6,1.8,-2.8" class="g7_1" />
<path d="M797.2,635.8c-0.9,-0.6,0.2,-3.6,1.8,-2.8" class="g7_1" />
<path d="M796.2,635.2c-0.9,-0.6,0.3,-3.5,1.8,-2.7" class="g7_1" />
<path d="M802.6,635.9l-0.2,0.6l-0.6,0.3l0.3,0.5l-0.3,0.7l0.7,-0.2l0.6,0.2l0.2,-0.6l0.6,-0.4l-0.3,-0.4l0.1,-0.7l-0.5,0.2Z" class="g7_1" />
<path d="M588.7,579.3c1.2,0.6,1.4,2.4,0.6,4c-0.8,1.6,-2.4,2.4,-3.6,1.8c-1.2,-0.6,-1.5,-2.4,-0.6,-4c0.8,-1.6,2.4,-2.4,3.6,-1.8Z" class="g10_1" />
<path d="M584.4,582.6l-3.1,-1.9l-2.2,-2.8l4.1,0.2l3,1.7" class="g10_1" />
<path d="M584.1,582.4c-0.9,-0.5,0.2,-3.5,1.8,-2.8" class="g7_1" />
<path d="M583.2,581.8c-0.9,-0.5,0.2,-3.5,1.8,-2.7" class="g7_1" />
<path d="M582.4,581.4c-0.9,-0.6,0.2,-3.6,1.8,-2.8" class="g7_1" />
<path d="M581.4,580.8c-0.9,-0.6,0.2,-3.5,1.8,-2.7" class="g7_1" />
<path d="M587.8,581.5l-0.3,0.6l-0.5,0.3l0.3,0.5l-0.3,0.7l0.7,-0.2l0.6,0.2l0.2,-0.6l0.6,-0.4l-0.3,-0.4l0.1,-0.7l-0.6,0.2Z" class="g7_1" />
<path d="M601.5,558.6c1.2,0.6,1.5,2.4,0.7,4c-0.9,1.6,-2.5,2.4,-3.7,1.8c-1.1,-0.6,-1.4,-2.4,-0.6,-4c0.8,-1.6,2.5,-2.4,3.6,-1.8Z" class="g10_1" />
<path d="M597.3,561.9L594.2,560l-2.3,-2.8l4.2,0.2l2.9,1.7" class="g10_1" />
<path d="M597,561.7c-0.9,-0.5,0.2,-3.5,1.8,-2.8" class="g7_1" />
<path d="M596,561.1c-0.8,-0.5,0.2,-3.5,1.8,-2.7" class="g7_1" />
<path d="M595.2,560.7c-0.8,-0.6,0.2,-3.6,1.8,-2.8" class="g7_1" />
<path d="M594.2,560.1c-0.8,-0.6,0.3,-3.5,1.9,-2.7" class="g7_1" />
<path d="M600.6,560.8l-0.2,0.6l-0.6,0.3l0.3,0.5l-0.2,0.7l0.7,-0.2l0.5,0.2l0.2,-0.6l0.6,-0.4l-0.2,-0.4l0,-0.7l-0.5,0.2Z" class="g7_1" />
<path d="M657.7,537c1.2,0.7,1.5,2.4,0.6,4c-0.8,1.7,-2.4,2.5,-3.6,1.8c-1.2,-0.6,-1.5,-2.4,-0.6,-4c0.8,-1.6,2.4,-2.4,3.6,-1.8Z" class="g10_1" />
<path d="M653.4,540.3l-3,-1.9l-2.3,-2.8l4.1,0.2l3,1.7" class="g10_1" />
<path d="M653.1,540.1c-0.9,-0.5,0.3,-3.5,1.8,-2.8" class="g7_1" />
<path d="M652.2,539.6c-0.9,-0.6,0.2,-3.6,1.8,-2.8" class="g7_1" />
<path d="M651.4,539.1c-0.9,-0.6,0.2,-3.5,1.8,-2.8" class="g7_1" />
<path d="M650.4,538.5c-0.9,-0.6,0.2,-3.5,1.8,-2.7" class="g7_1" />
<path d="M656.8,539.2l-0.3,0.6l-0.5,0.3l0.3,0.5l-0.3,0.7l0.7,-0.2l0.6,0.2l0.2,-0.6l0.6,-0.3l-0.3,-0.5l0.1,-0.7l-0.6,0.3Z" class="g7_1" />
<path d="M644.7,558c1.2,0.6,1.5,2.4,0.7,4c-0.9,1.6,-2.5,2.4,-3.7,1.8c-1.1,-0.6,-1.4,-2.4,-0.6,-4c0.8,-1.6,2.5,-2.4,3.6,-1.8Z" class="g10_1" />
<path d="M640.5,561.3l-3.1,-1.9l-2.3,-2.9l4.2,0.2l2.9,1.7" class="g10_1" />
<path d="M640.2,561.1c-0.9,-0.6,0.2,-3.6,1.8,-2.8" class="g7_1" />
<path d="M639.2,560.5c-0.8,-0.6,0.2,-3.6,1.8,-2.8" class="g7_1" />
<path d="M638.4,560c-0.8,-0.6,0.2,-3.5,1.8,-2.7" class="g7_1" />
<path d="M637.5,559.4c-0.9,-0.6,0.2,-3.4,1.8,-2.7" class="g7_1" />
<path d="M643.8,560.2l-0.2,0.6L643,561l0.3,0.6l-0.2,0.7l0.7,-0.3l0.5,0.3l0.2,-0.7l0.6,-0.3l-0.2,-0.5l0,-0.6l-0.5,0.2Z" class="g7_1" />
<path d="M82,1127l770,0L852,82L82,82Z" class="g10_1" />
<image x="102" y="102" width="114" height="39" xlink:href="img/1.png" />
</svg>