<?xml version="1.0" encoding="UTF-8" standalone="no"?>
<!DOCTYPE svg PUBLIC "-//W3C//DTD SVG 1.1//EN"
"http://www.w3.org/Graphics/SVG/1.1/DTD/svg11.dtd">
<svg viewBox="0 0 935 1210" version="1.1" xmlns="http://www.w3.org/2000/svg" xmlns:xlink="http://www.w3.org/1999/xlink">
<defs>
<style type="text/css"><![CDATA[
.g11_3{
fill: #636363;
}
.g12_3{
fill: #D4D4D4;
}
.g18_3{
fill: none;
stroke: #000000;
stroke-width: 4;
stroke-linecap: round;
stroke-linejoin: round;
stroke-miterlimit: 2;
}
.g2_3{
fill: none;
stroke: #FFFFFF;
stroke-width: 3;
stroke-linecap: round;
stroke-linejoin: miter;
stroke-miterlimit: 2;
}
.g14_3{
fill: none;
stroke: #000000;
stroke-width: 3;
stroke-linecap: round;
stroke-linejoin: round;
stroke-miterlimit: 2;
}
.g15_3{
fill: none;
stroke: #000000;
stroke-width: 2;
stroke-linecap: round;
stroke-linejoin: round;
stroke-miterlimit: 2;
stroke-dasharray: 4,5;
}
.g3_3{
fill: #FFFFFF;
stroke: #000000;
stroke-width: 2;
stroke-linecap: butt;
stroke-linejoin: miter;
stroke-miterlimit: 2;
}
.g1_3{
fill: #B3B3B3;
}
.g7_3{
fill: #636363;
stroke: #000000;
stroke-width: 1;
stroke-linecap: butt;
stroke-linejoin: miter;
stroke-miterlimit: 2;
}
.g10_3{
fill: none;
stroke: #000000;
stroke-width: 2;
stroke-linecap: round;
stroke-linejoin: round;
stroke-miterlimit: 2;
}
.g19_3{
fill: none;
stroke: #FFFFFF;
stroke-width: 2;
stroke-linecap: round;
stroke-linejoin: round;
stroke-miterlimit: 2;
}
.g5_3{
fill: none;
stroke: #000000;
stroke-width: 2;
stroke-linecap: butt;
stroke-linejoin: miter;
stroke-miterlimit: 2;
}
.g20_3{
fill: none;
stroke: #808080;
stroke-width: 2;
stroke-linecap: round;
stroke-linejoin: round;
stroke-miterlimit: 2;
}
.g17_3{
stroke: #000000;
stroke-width: 2;
stroke-linecap: round;
stroke-linejoin: round;
stroke-miterlimit: 2;
}
.g4_3{
fill: none;
stroke: #000000;
stroke-width: 1;
stroke-linecap: butt;
stroke-linejoin: miter;
stroke-miterlimit: 2;
}
.g9_3{
fill: #FFFFFF;
}
.g16_3{
fill: none;
stroke: #000000;
stroke-width: 2;
stroke-linecap: round;
stroke-linejoin: round;
stroke-miterlimit: 2;
stroke-dasharray: 4,6;
}
.g6_3{
}
.g13_3{
fill: #FFFFFF;
stroke: #000000;
stroke-width: 3;
stroke-linecap: round;
stroke-linejoin: round;
stroke-miterlimit: 2;
}
.g8_3{
fill: none;
stroke: #000000;
stroke-width: 1;
stroke-linecap: round;
stroke-linejoin: round;
stroke-miterlimit: 2;
}
]]></style>
</defs>
<path fill-rule="evenodd" d="M55,54l824,0l0,1101l-824,0Z" class="g1_3" />
<path d="M55.5,256.5l27,0" class="g2_3" />
<path d="M55.5,430.5l27,0" class="g2_3" />
<path d="M55.5,605.5l27,0" class="g2_3" />
<path d="M55.5,779.5l27,0" class="g2_3" />
<path d="M55.5,953.5l27,0" class="g2_3" />
<path d="M852.5,256.5l28,0" class="g2_3" />
<path d="M852.5,605.5l28,0" class="g2_3" />
<path d="M236.5,82.5l0,-27" class="g2_3" />
<path d="M390.5,82.5l0,-27" class="g2_3" />
<path d="M544.5,82.5l0,-27" class="g2_3" />
<path d="M698.5,82.5l0,-27" class="g2_3" />
<path d="M236.5,1155.5l0,-28" class="g2_3" />
<path d="M390.5,1155.5l0,-28" class="g2_3" />
<path d="M544.5,1155.5l0,-28" class="g2_3" />
<path d="M698.5,1155.5l0,-28" class="g2_3" />
<path d="M852.5,430.5l28,0" class="g2_3" />
<path d="M852.5,779.5l28,0" class="g2_3" />
<path d="M852.5,953.5l28,0" class="g2_3" />
<path fill-rule="evenodd" d="M82,82l770,0l0,1045l-770,0Z" class="g3_3" />
<path d="M184.5,209.5l646,0" class="g4_3" />
<path d="M103.5,278.5l727,0" class="g4_3" />
<path d="M82,1097l770,0" class="g5_3" />
<path d="M466.5,1099.5l0,28" class="g4_3" />
<path d="M468.5,1099.5l0,28" class="g4_3" />
<path d="M272.5,1099.5l0,28" class="g4_3" />
<path d="M274.5,1099.5l0,28" class="g4_3" />
<path d="M664.5,1099.5l0,28" class="g4_3" />
<path d="M666.5,1099.5l0,28" class="g4_3" />
<path fill-rule="evenodd" d="M106,289l37,0l0,38l-37,0Z" class="g6_3" />
<path fill-rule="evenodd" d="M103.5,287.5l38,0l0,37l-38,0Z" class="g7_3" />
<path d="M274.5,1099.5l192,0" class="g8_3" />
<path d="M468.5,1099.5l196,0" class="g8_3" />
<path d="M666.5,1099.5l186,0" class="g8_3" />
<path d="M272.5,1099.5l-190,0" class="g8_3" />
<path fill-rule="evenodd" d="M283.1,247.9c15.3,-8.9,30.8,-17.8,46.2,-26.8c0.6,-0.7,1.1,-1.5,1.7,-2.3c0.3,-0.3,0.3,-0.6,0.3,-0.7c-0.2,-0.2,-0.4,-0.3,-0.7,-0.3c-1,0.1,-2.1,0.2,-3.1,0.3c-15.2,8.8,-30.5,17.6,-45.7,26.5c0.4,1.1,0.8,2.2,1.3,3.3Z" class="g9_3" />
<path d="M271.8,254.4c19.1,-11.1,38.3,-22.2,57.5,-33.3c0.6,-0.7,1.1,-1.5,1.7,-2.3c0.3,-0.3,0.3,-0.6,0.3,-0.7c-0.2,-0.2,-0.4,-0.3,-0.7,-0.3c-1,0.1,-2.1,0.2,-3.1,0.3c-19,11,-38,21.9,-57,33" class="g10_3" />
<path d="M328.4,220.9c0.1,-0.6,0.5,-1.1,0.9,-1.4c0.4,-0.4,1.1,-0.7,1.7,-0.9" class="g8_3" />
<path d="M326.9,219c0.8,0,1.5,-0.1,2.2,-0.3c0.6,-0.2,1.2,-0.5,1.6,-0.8" class="g8_3" />
<path fill-rule="evenodd" d="M287.5,235.9c-0.8,0.5,-1.7,1,-2.6,1.5c-0.4,0.3,-0.8,0.7,-1.1,1.1c-0.3,0.4,-0.6,1,-0.7,1.6c0,0.4,0,0.7,-0.1,0.9c-0.2,0.1,-0.4,0.1,-0.7,0c-0.9,-0.6,-1.8,-1,-2.7,-1.1c-0.9,-0.1,-1.9,0.1,-2.7,0.4c-9.3,5.4,-18.5,10.7,-27.7,16c-2,2,-3.2,4,-3.5,5.9c-0.3,1.9,0.2,3.8,1.5,5.6c1.7,1.9,3.5,3.1,5.3,3.4c1.9,0.3,3.9,-0.2,6.1,-1.5c8.6,-5,17.3,-10,26,-15c0.9,-0.8,1.6,-1.7,2,-2.5c0.4,-0.9,0.6,-1.9,0.6,-2.9c0,-0.4,0.2,-0.7,0.3,-0.8c0.2,-0.1,0.5,0.1,0.8,0.4c0.4,0.2,1,0.5,1.4,0.5c0.5,0,1,-0.1,1.4,-0.3c1,-0.5,2.1,-1.1,3.1,-1.7c0.9,-0.9,1.3,-2.1,1.2,-3.4c0,-1.4,-0.7,-2.9,-1.7,-4.6c-1.1,-1.5,-2.2,-2.6,-3.2,-3.1c-1,-0.6,-2,-0.7,-3,-0.4Z" class="g9_3" />
<path d="M283.2,241c-0.1,-1.5,0.4,-2.8,1.3,-3.3c0.9,-0.5,1.9,-1.1,2.9,-1.7c1.8,-1,4.8,0.7,6.6,3.9c1.8,3.1,1.8,6.5,0,7.6c-0.9,0.5,-1.9,1.1,-2.9,1.6c-1,0.6,-2.3,0.3,-3.6,-0.5" class="g10_3" />
<path d="M286.6,249.9C286.5,248.4,286,246.7,285,245c-0.7,-1.3,-1.6,-2.3,-2.6,-3.1" class="g8_3" />
<path d="M287.2,247.9c0,-1.1,-0.4,-2.4,-1.1,-3.5c-0.6,-1.2,-1.5,-2.1,-2.3,-2.7" class="g8_3" />
<path d="M289.2,248.4c-0.7,-0.1,-1.2,-0.1,-1.5,-0.1c-0.3,0.1,-0.5,0.4,-0.5,0.8c0,1.2,-0.2,2.4,-0.7,3.2c-0.4,0.9,-1,1.7,-1.8,2.2c-9.2,5.3,-18.4,10.6,-27.6,16c-1.2,0.6,-2,0.8,-3.4,0.8c-4.4,0,-8,-3.7,-8,-8.1c0,-2.6,1.4,-5.1,3.4,-6.6c9.2,-5.4,18.4,-10.7,27.6,-16.1c0.7,-0.3,1.7,-0.5,2.5,-0.5c0.9,0.1,2,0.5,3.1,1c0.4,0.3,0.9,0.3,1.2,0.1c0.3,-0.1,0.5,-0.5,0.6,-1.1" class="g10_3" />
<path d="M250.5,256.6c2.1,0.2,4.5,2.1,6.2,5c1.5,2.7,2,5.6,1.4,7.5" class="g8_3" />
<path d="M290.5,249c1.5,-1.1,1.4,-4.1,-0.2,-7c-1.7,-2.8,-4.3,-4.5,-6,-3.8" class="g8_3" />
<path d="M101.7,485.1l248,70.4L592,458.4" class="g10_3" />
<path d="M592,458.4l22.6,-8.7" class="g10_3" />
<path d="M695.6,416.7L828.9,363.6" class="g10_3" />
<path d="M641.1,474.1c2.9,-0.6,5.8,-1.8,8.6,-3.8c2.8,-1.9,5.2,-3.5,5.3,-4.3" class="g10_3" />
<path d="M629.1,452.9c0,-1.6,3.4,-2.4,5.9,-2.4c2.4,0,5.8,0.4,5.8,2.3" class="g8_3" />
<path d="M629,452l0,39" class="g10_3" />
<path d="M640,491l0,-38" class="g10_3" />
<path d="M629.1,455.4c0,-1.5,3.4,-2.4,5.9,-2.4c2.4,0,5.8,0.5,5.8,2.3" class="g8_3" />
<path d="M629.1,458c0,-1.6,3.4,-2.4,5.9,-2.4c2.4,0,5.8,0.5,5.8,2.3" class="g8_3" />
<path d="M629.1,460.6c0,-1.6,3.4,-2.4,5.9,-2.4c2.4,0,5.8,0.5,5.8,2.3" class="g8_3" />
<path d="M629.1,463.2c0,-1.6,3.4,-2.4,5.9,-2.4c2.4,0,5.8,0.4,5.8,2.2" class="g8_3" />
<path d="M629.1,465.7c0,-1.5,3.4,-2.4,5.9,-2.4c2.4,0,5.8,0.5,5.8,2.3" class="g8_3" />
<path d="M629.1,468.3c0,-1.6,3.4,-2.4,5.9,-2.4c2.4,0,5.8,0.5,5.8,2.3" class="g8_3" />
<path d="M629.1,470.8c0,-1.5,3.4,-2.4,5.9,-2.4c2.4,0,5.8,0.5,5.8,2.3" class="g8_3" />
<path d="M629.1,473.4c0,-1.6,3.4,-2.4,5.9,-2.4c2.4,0,5.8,0.5,5.8,2.3" class="g8_3" />
<path d="M629.1,476c0,-1.6,3.4,-2.4,5.9,-2.4c2.4,0,5.8,0.5,5.8,2.3" class="g8_3" />
<path d="M629.1,478.6c0,-1.6,3.4,-2.4,5.9,-2.4c2.4,0,5.8,0.4,5.8,2.2" class="g8_3" />
<path d="M629.1,481.1c0,-1.5,3.4,-2.4,5.9,-2.4c2.4,0,5.8,0.5,5.8,2.3" class="g8_3" />
<path d="M629.1,483.6c0,-1.6,3.4,-2.4,5.9,-2.4c2.4,0,5.8,0.5,5.8,2.3" class="g8_3" />
<path d="M629.1,486.2c0,-1.6,3.4,-2.4,5.9,-2.4c2.4,0,5.8,0.4,5.8,2.2" class="g8_3" />
<path d="M629.1,488.7c0,-1.5,3.4,-2.4,5.9,-2.4c2.4,0,5.8,0.5,5.8,2.3" class="g8_3" />
<path d="M629.1,491.3c0,-1.5,3.4,-2.4,5.9,-2.4c2.4,0,5.8,0.5,5.8,2.3" class="g8_3" />
<path d="M659.2,503.3l0,11.6c0,4.7,-10.9,8.5,-24.3,8.5c-13.3,0,-24.2,-3.8,-24.2,-8.5l0,-11.6" class="g10_3" />
<path d="M610.7,514.9c0,-4.7,10.9,-8.5,24.2,-8.5c13.4,0,24.3,3.8,24.3,8.5" class="g8_3" />
<path d="M610.7,503.3c0,-4.6,10.9,-8.4,24.2,-8.4c13.4,0,24.3,3.8,24.3,8.4" class="g10_3" />
<path d="M617.4,497.1c0,-3.4,7.9,-6.2,17.5,-6.2c9.7,0,17.6,2.8,17.6,6.2" class="g10_3" />
<path d="M656.2,514.9c0,4.1,-9.5,7.5,-21.3,7.5c-11.7,0,-21.2,-3.4,-21.2,-7.5" class="g8_3" />
<path d="M613.7,514.9c0,-4.1,9.5,-7.4,21.2,-7.4c11.8,0,21.3,3.3,21.3,7.4" class="g8_3" />
<path d="M634.5,506.5l0,-12" class="g8_3" />
<path d="M631.5,506.5l0,-12" class="g8_3" />
<path d="M629.5,506.5l0,-12" class="g8_3" />
<path d="M628.5,506.5l0,-11" class="g8_3" />
<path d="M626.5,506.5l0,-11" class="g8_3" />
<path d="M624.5,507.5l0,-12" class="g8_3" />
<path d="M622.5,507.5l0,-12" class="g8_3" />
<path d="M621.5,507.5l0,-11" class="g8_3" />
<path d="M620.5,508.5l0,-12" class="g8_3" />
<path d="M618.5,508.5l0,-12" class="g8_3" />
<path d="M617.5,509.5l0,-12" class="g8_3" />
<path d="M616.5,509.5l0,-12" class="g8_3" />
<path d="M614.5,510.5l0,-12" class="g8_3" />
<path d="M613.5,510.5l0,-11" class="g8_3" />
<path d="M611.5,512.5l0,-11" class="g8_3" />
<path d="M636.5,506.5l0,-12" class="g8_3" />
<path d="M638.5,506.5l0,-12" class="g8_3" />
<path d="M640.5,506.5l0,-11" class="g8_3" />
<path d="M642.5,506.5l0,-11" class="g8_3" />
<path d="M644.5,506.5l0,-11" class="g8_3" />
<path d="M645.5,507.5l0,-12" class="g8_3" />
<path d="M647.5,507.5l0,-11" class="g8_3" />
<path d="M648.5,507.5l0,-11" class="g8_3" />
<path d="M649.5,508.5l0,-12" class="g8_3" />
<path d="M651.5,508.5l0,-12" class="g8_3" />
<path d="M652.5,509.5l0,-12" class="g8_3" />
<path d="M654.5,509.5l0,-11" class="g8_3" />
<path d="M655.5,510.5l0,-12" class="g8_3" />
<path d="M656.5,510.5l0,-11" class="g8_3" />
<path d="M657.5,511.5l0,-11" class="g8_3" />
<path d="M658.5,512.5l0,-12" class="g8_3" />
<path d="M690.5,428.7c0,-1.6,3.5,-2.4,5.9,-2.4c2.5,0,5.9,0.5,5.9,2.3" class="g8_3" />
<path d="M690,428l0,39" class="g10_3" />
<path d="M702,467l0,-39" class="g10_3" />
<path d="M690.5,431.3c0,-1.6,3.5,-2.4,5.9,-2.4c2.5,0,5.9,0.4,5.9,2.2" class="g8_3" />
<path d="M690.5,433.8c0,-1.5,3.5,-2.4,5.9,-2.4c2.5,0,5.9,0.5,5.9,2.3" class="g8_3" />
<path d="M690.5,436.4c0,-1.6,3.5,-2.4,5.9,-2.4c2.5,0,5.9,0.5,5.9,2.3" class="g8_3" />
<path d="M690.5,439c0,-1.6,3.5,-2.4,5.9,-2.4c2.5,0,5.9,0.5,5.9,2.3" class="g8_3" />
<path d="M690.5,441.6c0,-1.6,3.5,-2.4,5.9,-2.4c2.5,0,5.9,0.4,5.9,2.2" class="g8_3" />
<path d="M690.5,444.1c0,-1.6,3.5,-2.4,5.9,-2.4c2.5,0,5.9,0.5,5.9,2.3" class="g8_3" />
<path d="M690.5,446.7c0,-1.6,3.5,-2.4,5.9,-2.4c2.5,0,5.9,0.4,5.9,2.2" class="g8_3" />
<path d="M690.5,449.2c0,-1.5,3.5,-2.4,5.9,-2.4c2.5,0,5.9,0.5,5.9,2.3" class="g8_3" />
<path d="M690.5,451.8c0,-1.5,3.5,-2.4,5.9,-2.4c2.5,0,5.9,0.5,5.9,2.3" class="g8_3" />
<path d="M690.5,454.4c0,-1.6,3.5,-2.4,5.9,-2.4c2.5,0,5.9,0.5,5.9,2.3" class="g8_3" />
<path d="M690.5,457c0,-1.6,3.5,-2.4,5.9,-2.4c2.5,0,5.9,0.4,5.9,2.2" class="g8_3" />
<path d="M690.5,459.4c0,-1.5,3.5,-2.4,5.9,-2.4c2.5,0,5.9,0.5,5.9,2.3" class="g8_3" />
<path d="M690.5,462c0,-1.6,3.5,-2.4,5.9,-2.4c2.5,0,5.9,0.5,5.9,2.3" class="g8_3" />
<path d="M690.5,464.6c0,-1.6,3.5,-2.4,5.9,-2.4c2.5,0,5.9,0.4,5.9,2.2" class="g8_3" />
<path d="M690.5,467.2c0,-1.6,3.5,-2.4,5.9,-2.4c2.5,0,5.9,0.4,5.9,2.2" class="g8_3" />
<path d="M720.6,479.2l0,11.5c0,4.7,-10.8,8.5,-24.2,8.5c-13.4,0,-24.2,-3.8,-24.2,-8.5l0,-11.5" class="g10_3" />
<path d="M672.2,490.7c0,-4.7,10.8,-8.5,24.2,-8.5c13.4,0,24.2,3.8,24.2,8.5" class="g8_3" />
<path d="M672.2,479.2c0,-4.7,10.8,-8.5,24.2,-8.5c13.4,0,24.2,3.8,24.2,8.5" class="g10_3" />
<path d="M678.9,472.9c0,-3.4,7.8,-6.1,17.5,-6.1c9.7,0,17.6,2.7,17.6,6.1" class="g10_3" />
<path d="M717.6,490.7c0,4.2,-9.5,7.5,-21.2,7.5c-11.7,0,-21.2,-3.3,-21.2,-7.5" class="g8_3" />
<path d="M675.2,490.7c0,-4.1,9.5,-7.4,21.2,-7.4c11.7,0,21.2,3.3,21.2,7.4" class="g8_3" />
<path d="M695.5,482.5l0,-12" class="g8_3" />
<path d="M693.5,482.5l0,-12" class="g8_3" />
<path d="M691.5,482.5l0,-12" class="g8_3" />
<path d="M689.5,482.5l0,-12" class="g8_3" />
<path d="M687.5,482.5l0,-11" class="g8_3" />
<path d="M685.5,483.5l0,-12" class="g8_3" />
<path d="M684.5,483.5l0,-12" class="g8_3" />
<path d="M682.5,483.5l0,-11" class="g8_3" />
<path d="M681.5,484.5l0,-12" class="g8_3" />
<path d="M679.5,484.5l0,-12" class="g8_3" />
<path d="M678.5,485.5l0,-12" class="g8_3" />
<path d="M677.5,485.5l0,-12" class="g8_3" />
<path d="M675.5,486.5l0,-12" class="g8_3" />
<path d="M674.5,486.5l0,-11" class="g8_3" />
<path d="M672.5,488.5l0,-11" class="g8_3" />
<path d="M697.5,482.5l0,-12" class="g8_3" />
<path d="M699.5,482.5l0,-12" class="g8_3" />
<path d="M701.5,482.5l0,-12" class="g8_3" />
<path d="M703.5,482.5l0,-12" class="g8_3" />
<path d="M705.5,482.5l0,-11" class="g8_3" />
<path d="M707.5,483.5l0,-12" class="g8_3" />
<path d="M708.5,483.5l0,-12" class="g8_3" />
<path d="M710.5,483.5l0,-11" class="g8_3" />
<path d="M711.5,484.5l0,-12" class="g8_3" />
<path d="M712.5,484.5l0,-12" class="g8_3" />
<path d="M714.5,484.5l0,-11" class="g8_3" />
<path d="M715.5,485.5l0,-12" class="g8_3" />
<path d="M716.5,486.5l0,-12" class="g8_3" />
<path d="M717.5,486.5l0,-11" class="g8_3" />
<path d="M718.5,487.5l0,-12" class="g8_3" />
<path d="M719.5,488.5l0,-12" class="g8_3" />
<path d="M628.1,458.4l-11,-3.3c0,0,-1.9,-1.1,-1.9,-2.8c0,-1.6,-0.1,-4,-0.1,-4c0,0,0.4,-1.2,2.1,-1.8c1.8,-0.7,72.3,-29,72.3,-29c0,0,5,-1.6,11.4,-0.1c6.3,1.4,37.1,10.7,37.1,10.7c0,0,2.4,1.2,2.6,-1.7c0.2,-2.8,-0.2,-9.4,-0.2,-9.4l4.4,1.4l0.2,10.8c0,0,0.1,3.3,-4.6,5.2c-4.6,1.9,-4.2,1.6,-4.2,1.6" class="g10_3" />
<path d="M739,426l0,-27" class="g10_3" />
<path d="M715,420c1.3,-1.3,2.7,-6,2.6,-10.5" class="g10_3" />
<path d="M735.5,426.5l0,-25" class="g8_3" />
<path d="M617.1,452.1L690,422.9c0,0,3.8,-2,10.6,-0.1c6.7,1.8,37,10.6,37,10.6c0,0,3.6,1,4.8,-0.1" class="g8_3" />
<path d="M672.2,481.5c-5,2.2,-7.1,3.4,-7.9,3.7c-0.9,0.2,-1.3,0.5,-5.5,-0.6c-4.2,-1.2,-4.9,-2.2,-5.3,-5.6c-0.3,-3.4,-1,-10.6,-1,-10.6l18,-6.8c0,0,1.9,-0.5,1.9,-3.2c0,-2.7,0.1,-4.9,0.1,-4.9" class="g10_3" />
<path d="M641.8,462l13.2,4" class="g10_3" />
<path d="M672.5,453.5c0,0,-0.7,-1.2,-2,-0.6c-1.2,0.6,-5.5,2.5,-5.5,2.5" class="g10_3" />
<path d="M703.6,440.1l4.2,-2c0,0,3.6,-0.3,5.1,0.1c1.5,0.5,8.2,2.4,8.2,2.4" class="g10_3" />
<path d="M717.8,442.3l14.8,-5.9c0,0,2.4,-0.5,4.6,0.4c2.3,1,2.5,1.9,2.5,3.1c0,1.1,0,8.1,0,8.1c0,0,-0.9,6.8,-5.7,9.1c-4.8,2.3,-23.1,9.2,-23.1,9.2" class="g10_3" />
<path d="M707.3,439.4c1.4,1.4,1.7,2.7,1.7,4.9c0,2.2,0.2,18.9,0.2,18.9c0,0,0.1,1.8,1.5,3.2c1,1,3,1.5,4.4,1.8c3.4,0.6,3.6,1.6,3.6,1.6c0,0,1.1,4.1,-0.7,4.6" class="g10_3" />
<path d="M672.4,458.4c-0.1,6.4,-0.1,17.4,-0.1,17.4l0,2.7" class="g10_3" />
<path d="M671.9,478c0,0,-9.6,4.6,-11.3,5c-1.6,0.4,-5.1,0.8,-5.6,-0.1" class="g8_3" />
<path d="M710.9,463.1l19,-7.6c0,0,4.9,-2.1,5.3,-9.4c0.5,-7.4,0.3,-8.5,0.3,-8.5" class="g8_3" />
<path d="M703.6,440.1c0.9,1.2,1.1,1.9,1.3,3.6C705,445.5,705,463,705,463c0,0,-0.4,3.7,1.2,4.8" class="g8_3" />
<path d="M664.1,456.5l6.9,2.4" class="g8_3" />
<path d="M570.8,546.6c-7.1,-2.6,-17.3,-8.1,-18.1,-14.9c-0.8,-6.8,7.8,-14.5,13.4,-16.9" class="g10_3" />
<path fill-rule="evenodd" d="M570.8,546.6l15.1,-5.9l0.1,-6.4c0,0,-19.3,-5.5,-19.3,-9.8c0,-4.4,5.4,-6.5,7.2,-7.3c1.8,-0.8,11.2,2.7,11.2,2.7l4.5,-10.6l0,-6.4l-31.3,3.3l0,6.2c0,0,0.2,0.3,-0.5,1.4c-0.7,1.2,-4.1,4.2,-4.4,6.6c-0.2,2.5,-1.6,7.6,-0.7,11.3c1,3.6,2.5,7.8,18.1,14.9Z" class="g11_3" />
<path fill-rule="evenodd" d="M571.1,546.7l14.8,-6c-0.7,0.3,-12.3,-3.7,-14,-5.3c-0.8,-0.8,-4.7,-2.6,-5.8,-6.2c-0.4,-1.4,0.1,-2.9,0.9,-4.6c1.7,-4,4.8,-5.6,6.6,-6.4c1.8,-0.8,11.7,2.5,11.7,2.5l4.6,-11.3l-31.3,3.1c0,0,7.5,2.3,6.2,3c-1.4,0.6,-8.8,5.6,-10.6,10c-1.9,4.4,-2.2,2.6,-1.2,6.3c0.9,3.6,2.5,7.8,18.1,14.9Z" class="g12_3" />
<path d="M558.3,506.2l0,6.5l8.2,2.2" class="g10_3" />
<path d="M573.9,517.2l11.2,2.7l4.5,-10.6l0,-6.4l-31.3,3.3" class="g10_3" />
<path d="M558.3,512.7l31.3,-3.4" class="g8_3" />
<path d="M571.1,546.7l14.8,-6l0.1,-6.4c0,0,-16.7,-3.9,-19.6,-10.5" class="g10_3" />
<path d="M573.9,517.2c-5.1,2.1,-8.4,5.9,-8.1,10.2" class="g10_3" />
<path d="M559.3,512.9c-4.1,3.5,-6.3,7.1,-6.7,11c-0.3,3.8,0,7.1,0,7.1c0,0,0.2,8.9,18.5,15.7" class="g10_3" />
<path d="M565.8,527.4c-0.2,5.2,8,10.7,20.1,13.3" class="g8_3" />
<path d="M566.5,514.9c-6,2,-14.1,9.9,-13.9,16.1" class="g8_3" />
<path fill-rule="evenodd" d="M771.1,499.4l-0.1,7.9l-31.1,3.4l-0.1,-6.6l4.8,-10.7l10.8,2.9l4,-2.1l2.7,-3.1L762,487.9l-3.5,-3L753.1,482l-4.4,-1.6l-4.8,-1.2l0,-6.7l14.8,-5.7l8.8,4.2l5.3,4l3.6,5l0.6,4.3l0,4.2l-0.7,4.1l-2.1,3.6Z" class="g11_3" />
<path d="M743.9,479.2l0,-6.7l14.8,-5.7" class="g10_3" />
<path d="M739.9,510.7l-0.1,-6.6l4.8,-10.7l10.8,2.9c0,0,5.8,-1.5,7.5,-7.1" class="g10_3" />
<path d="M745.2,499.9l-0.6,-6.5" class="g8_3" />
<path d="M755.5,502.4l-0.1,-6.1" class="g8_3" />
<path fill-rule="evenodd" d="M772,498.6l-8.9,6.1l7.9,2.7l-31.1,3.3l5.3,-10.8l10.3,2.5l3.2,-1.4l3,-2.3l1.6,-2.4l0.8,-2.8L764,491.4l-2,-3.5l-3.5,-3L753.1,482l-4.4,-1.6l-4.8,-1.2l14.8,-5.8l6,2.5l5.1,2.9l4.6,4.1l1.9,2.9l0.7,3.4l-0.6,2.7l-2.2,4.3Z" class="g12_3" />
<path d="M764.1,492.6c0.1,-5.5,-9.3,-11.1,-20.2,-13.4" class="g10_3" />
<path d="M758.7,473.4c10.8,3.8,17.8,9.4,18.3,15.1" class="g8_3" />
<path d="M743.9,479.2l14.8,-5.8l0,-6.6" class="g8_3" />
<path d="M763.1,504.7c6.3,-3,13.8,-9.1,13.9,-15.5c0.1,-6.4,-0.1,-7,-0.1,-7c0,0,0.4,-8.3,-18.2,-15.4" class="g10_3" />
<path d="M739.9,510.7l5.3,-10.8l10.3,2.5c0,0,8.4,-2.1,8.6,-9.8" class="g8_3" />
<path d="M739.9,510.7L771,507.3l0.2,-6.3" class="g10_3" />
<path d="M763.1,504.7l7.9,2.6" class="g8_3" />
<path d="M673.5,487.5l0,-11" class="g8_3" />
<path d="M612.5,511.5l0,-11" class="g8_3" />
<path d="M254.4,256.7l24.9,-14.5" class="g8_3" />
<path d="M256.8,258.1L281,243.7" class="g8_3" />
<path d="M259.4,263.1l24.5,-14.8" class="g8_3" />
<path d="M259.9,265.9L284.4,251" class="g8_3" />
<path d="M256.8,258.1c-1,0.6,-3.9,-0.1,-2.4,-1.4" class="g8_3" />
<path d="M259.4,263.1c-1.4,0.9,-1.2,3.5,0.5,2.8" class="g8_3" />
<path d="M284.4,251c1.4,-0.7,1.7,-4.1,-0.5,-2.7" class="g8_3" />
<path d="M281,243.7c1.4,-0.8,0,-2.5,-1.7,-1.5" class="g8_3" />
<path d="M223,223.6l17.9,10.8" class="g10_3" />
<path d="M220.1,225.4L238,236.1" class="g8_3" />
<path d="M218.7,229.2l17.9,10.7" class="g8_3" />
<path d="M219.2,230.8L238,242" class="g10_3" />
<path d="M151.4,267l60.9,-36.3c3.3,-2,4.7,-1.2,6.9,0.1" class="g10_3" />
<path d="M152.7,264.7L212.5,229c2.7,-1.6,4.6,-0.7,6.2,0.2" class="g8_3" />
<path d="M151.2,261.1l60.9,-36.3c2.8,-1.6,5.3,-1,8,0.6" class="g8_3" />
<path d="M148.5,259.3l59.7,-35.7c6.5,-3.8,9.9,-2.8,14.8,0" class="g10_3" />
<path d="M236.7,239.8c0.6,-0.4,1.9,-2.1,1.3,-3.7" class="g8_3" />
<path d="M238,236.1c0.9,0.5,2.7,-0.6,2.9,-1.7" class="g8_3" />
<path d="M236.6,239.9c0.9,0.1,1.8,0.9,1.4,2.1" class="g8_3" />
<path d="M238,242c0.3,-0.6,1.8,-2.1,2.9,-1.7" class="g10_3" />
<path d="M240.9,240.3c-0.4,-1,0.5,-3.7,1.5,-3.9" class="g10_3" />
<path d="M240.9,234.4c0,0.7,0.2,1.8,1.5,2" class="g10_3" />
<path d="M152.7,264.7c-0.6,-0.4,-1.9,-2.1,-1.3,-3.7" class="g8_3" />
<path d="M151.4,261c-0.9,0.5,-2.7,-0.6,-2.9,-1.7" class="g8_3" />
<path d="M152.7,264.7c-0.8,0.2,-1.7,1.1,-1.3,2.3" class="g8_3" />
<path d="M151.4,267c-0.3,-0.7,-1.8,-2.1,-2.9,-1.7" class="g10_3" />
<path d="M148.5,265.3c0.4,-1.1,-0.5,-3.8,-1.4,-3.9" class="g10_3" />
<path d="M148.5,259.3c0,0.7,-0.2,1.8,-1.4,2.1" class="g10_3" />
<path d="M408.5,169.5l118,0" class="g8_3" />
<path fill-rule="evenodd" d="M471.5,656.3c112.3,0,203.4,65.4,203.4,146.2c0,80.7,-91.1,146.1,-203.4,146.1C359.1,948.6,268,883.2,268,802.5c0,-80.8,91.1,-146.2,203.5,-146.2Z" class="g1_3" />
<path fill-rule="evenodd" d="M471.5,662.8c107.3,0,194.4,62.5,194.4,139.7c0,77.1,-87.1,139.6,-194.4,139.6C364.1,942.1,277.1,879.6,277.1,802.5c0,-77.2,87,-139.7,194.4,-139.7Z" class="g13_3" />
<path d="M536.1,873.4c0.7,0,1.1,0.9,1.1,1.7c0,0.8,0,17.3,0,17.3c0,0,0.1,6,6.6,5.9c6.5,0,8.9,0,8.9,0l0,-4.6c0,0,-8.7,0,-9.4,0.1c-0.7,0,-1.6,-0.6,-1.6,-1.7c0,-1,0,-16.6,0,-17.5c0,-0.8,-0.4,-1.3,-0.4,-1.3l-41.1,0.1l-0.1,-4.5l46,0c0,0,2.1,-0.3,2.1,-1.5c0,-1.2,0,-8.9,0,-8.9l4.3,-0.2l0.1,9.4c0,0,-0.1,5.7,-5.7,5.6c-5.6,0,-5.6,0,-5.6,0" class="g10_3" />
<path d="M507.5,868.9l0.1,-17.3l9.4,0l0,17.3" class="g10_3" />
<path d="M507.4,873.4l0,21l-8.2,0l0,4.3c0,0,-0.1,1.3,-1,1.4" class="g10_3" />
<path d="M517.1,873.4l0,21l8.2,0l0,4.3c0,0,0.1,1.3,1,1.4" class="g10_3" />
<path d="M507,894l10,0" class="g10_3" />
<path d="M492,900l39,0l0,9l-39,0Z" class="g10_3" />
<path d="M497.3,910c6.8,4.8,19.2,7,30.8,-0.3" class="g10_3" />
<path d="M494.9,900.2c0,-0.2,0,9.3,0,9.3" class="g8_3" />
<path d="M496.5,900.2c0,-0.2,0,9.3,0,9.3" class="g8_3" />
<path d="M498.7,900.2c0,-0.2,0,9.3,0,9.3" class="g8_3" />
<path d="M501.1,900.2c0,-0.2,0,9.3,0,9.3" class="g8_3" />
<path d="M503.4,900.2c0,-0.2,0,9.3,0,9.3" class="g8_3" />
<path d="M505.9,900.2c0,-0.2,0,9.3,0,9.3" class="g8_3" />
<path d="M508,900.2c0,-0.2,0,9.3,0,9.3" class="g8_3" />
<path d="M510.1,900.2c0,-0.2,0,9.3,0,9.3" class="g8_3" />
<path d="M512.5,900.2c0,-0.2,0,9.3,0,9.3" class="g8_3" />
<path d="M514.8,900.2c0,-0.2,0,9.3,0,9.3" class="g8_3" />
<path d="M517.3,900.2c0,-0.2,0,9.3,0,9.3" class="g8_3" />
<path d="M519.7,900.2c0,-0.2,0,9.3,0,9.3" class="g8_3" />
<path d="M521.8,900.2c0,-0.2,0,9.3,0,9.3" class="g8_3" />
<path d="M523.5,900.2c0,-0.2,0,9.3,0,9.3" class="g8_3" />
<path d="M525.3,900.2c0,-0.2,0,9.3,0,9.3" class="g8_3" />
<path d="M527.1,900.2c0,-0.2,0,9.3,0,9.3" class="g8_3" />
<path d="M528.7,900.2c0,-0.2,0,9.3,0,9.3" class="g8_3" />
<path d="M530,900.2c0,-0.2,0,9.3,0,9.3" class="g8_3" />
<path d="M491.5,812.9l0,-4.8l41.5,0c0,0,8.7,0.3,9.7,-9.1" class="g10_3" />
<path d="M533.3,812.9c4,-0.3,8,-2.6,9.4,-4.4" class="g10_3" />
<path d="M542.7,868.9l0,-87.7c0,0,-0.3,-9.8,-11.4,-9.8c-11.1,0,-86.4,0,-86.4,0l0,-4.4l86.6,0c0,0,15.7,0.1,15.7,14.4c0,14.4,0,87.2,0,87.2" class="g10_3" />
<path d="M546.9,873.3l0,17.7l-4.2,0l0,-17.7" class="g10_3" />
<path d="M528.4,702.1c3.1,0,4.3,5.1,4.3,5.1c0,0,0.1,55.4,0,57.5c-0.1,2.2,-1.8,2.2,-1.8,2.2c0,0,-101.6,0.1,-103.4,0c-1.9,0,-2.3,-1.6,-2.3,-1.6l0,-63.2Z" class="g10_3" />
<path d="M532.7,743l3.6,0l1.8,2.2l0,20.8l-5.9,0" class="g10_3" />
<path d="M507.4,892.4l9.7,-1.6" class="g8_3" />
<path d="M507.4,890.5l9.7,-1.6" class="g8_3" />
<path d="M507.4,888.7l9.7,-1.7" class="g8_3" />
<path d="M507.4,886.8l9.7,-1.6" class="g8_3" />
<path d="M507.4,884.9l9.7,-1.6" class="g8_3" />
<path d="M507.4,883l9.7,-1.6" class="g8_3" />
<path d="M507.4,881.1l9.7,-1.6" class="g8_3" />
<path d="M507.4,879.2l9.7,-1.6" class="g8_3" />
<path d="M507.4,877.3l9.7,-1.6" class="g8_3" />
<path d="M507.4,875.6l9.7,-1.6" class="g8_3" />
<path d="M507.4,868.1l9.7,-1.6" class="g8_3" />
<path d="M507.4,866.2l9.7,-1.6" class="g8_3" />
<path d="M507.4,864.3l9.7,-1.6" class="g8_3" />
<path d="M507.4,862.4l9.7,-1.6" class="g8_3" />
<path d="M507.4,860.5l9.7,-1.6" class="g8_3" />
<path d="M507.4,858.6l9.7,-1.6" class="g8_3" />
<path d="M507.4,856.7l9.8,-1.6" class="g8_3" />
<path d="M507.4,854.9l9.8,-1.6" class="g8_3" />
<path d="M507.4,853.1l9.8,-1.6" class="g8_3" />
<path fill-rule="evenodd" d="M278.8,812.9l262.3,0l0,37.7l-250.8,0L285.9,841L283,833l-1.9,-6.7l-1.4,-6.6Z" class="g11_3" />
<path d="M278.1,812.9l261.3,0c0,0,2.3,0.5,2.3,2.1c0,1.6,0,34,0,34c0,0,0.3,2.2,-2.3,2.2c-2.6,0,-249.4,0,-249.4,0" class="g10_3" />
<path d="M538.5,749.6c2.4,0,8.8,0.2,8.8,0.2" class="g14_3" />
<path d="M547.3,749.8c7.9,-0.1,22.7,5.9,22.7,21.5c0,15.6,0,150.9,0,150.9" class="g14_3" />
<path d="M538.5,758.7c2.4,0,9,0.2,9,0.2" class="g14_3" />
<path d="M547.5,758.9c7.9,-0.2,13.2,4.9,13.2,16.1c0,11.1,0,150.9,0,150.9" class="g14_3" />
<path d="M267,812l-58,0" class="g15_3" />
<path d="M275,852l-67,0" class="g16_3" />
<path d="M221.9,811.2l-7,-14l14,0Zm-1.1,-13.3l2.3,0l0,0.1l0,0.1l-0.1,0l0,0.1l0,0.1l-0.1,0l0,0.1l-0.1,0l0,0.1l-0.1,0l-0.1,0.1l-0.1,0l-0.1,0l-0.1,0.1l-0.1,0l-0.1,0l-0.1,0l-0.1,0l-0.1,0l-0.1,0l-0.1,0l-0.1,0l0,-0.1l-0.1,0l-0.1,0l-0.1,-0.1l-0.1,0l0,-0.1l-0.1,0l0,-0.1l-0.1,0l0,-0.1l-0.1,-0.1l0,-0.1Zm2.3,-23.4l0,23.4l-2.3,0l0,-23.4Zm0,0l-2.3,0l0,-0.1l0,-0.1l0.1,-0.1l0,-0.1l0.1,0l0,-0.1l0.1,0l0,-0.1l0.1,0l0.1,-0.1l0.1,0l0,-0.1l0.1,0l0.1,0l0.1,0l0.1,0l0.1,0l0.1,0l0.1,0l0.1,0l0.1,0l0.1,0l0.1,0.1l0.1,0l0.1,0.1l0.1,0l0,0.1l0.1,0l0,0.1l0.1,0l0,0.1l0,0.1l0.1,0l0,0.1Z" class="g6_3" />
<path d="M221.9,854.2l7,14l-14,0Zm-1.1,13.2l0,0l0,-0.1l0,-0.1l0.1,0l0,-0.1L221,867l0.1,0l0,-0.1l0.1,0l0.1,-0.1l0.1,0l0.1,-0.1l0.1,0l0.1,0l0.1,0l0.1,0l0.1,0l0.1,0l0.1,0l0.1,0l0.1,0l0,0.1l0.1,0l0.1,0l0.1,0.1l0.1,0l0,0.1l0.1,0l0,0.1l0.1,0l0,0.1l0.1,0.1l0,0.1Zm2.3,21.1l-2.3,0l0,-21.1l2.3,0Zm0,0l0,0l0,0.1l-0.1,0.1l0,0.1l-0.1,0l0,0.1l-0.1,0l0,0.1l-0.1,0l-0.1,0.1l-0.1,0l-0.1,0l0,0.1l-0.1,0l-0.1,0l-0.1,0l-0.1,0l-0.1,0l-0.1,0l-0.1,0l-0.1,0l-0.1,0l-0.1,-0.1l-0.1,0L221.2,889l-0.1,0l0,-0.1l-0.1,0l-0.1,-0.1l0,-0.1l-0.1,0l0,-0.1l0,-0.1Z" class="g6_3" />
<path d="M541.2,749.7c2.1,0,3.5,0,3.5,0" class="g14_3" />
<path d="M553.6,760.2l2.2,-8.7" class="g10_3" />
<path d="M556.9,762.4l5.3,-7.3" class="g10_3" />
<path d="M560.1,765.6l7.3,-5.1" class="g10_3" />
<path d="M561,770.3l8.3,-2.8" class="g10_3" />
<path d="M561,774l8,0" class="g10_3" />
<path d="M561.1,779.9l8.2,1.4" class="g10_3" />
<path d="M561.1,785.2l8.2,1.3" class="g10_3" />
<path d="M561.1,790.3l8.2,1.4" class="g10_3" />
<path d="M561.1,795.6l8.2,1.3" class="g10_3" />
<path d="M561.1,801.3l8.2,1.4" class="g10_3" />
<path d="M561.1,806.6l8.2,1.4" class="g10_3" />
<path d="M561.1,811.7l8.2,1.4" class="g10_3" />
<path d="M561.1,817l8.2,1.4" class="g10_3" />
<path d="M561.1,822.8l8.2,1.4" class="g10_3" />
<path d="M561.1,828.1l8.2,1.4" class="g10_3" />
<path d="M561.1,833.2l8.2,1.4" class="g10_3" />
<path d="M561.1,838.5l8.2,1.4" class="g10_3" />
<path d="M561.1,844.3l8.2,1.3" class="g10_3" />
<path d="M561.1,849.5l8.2,1.4" class="g10_3" />
<path d="M561.1,854.7l8.2,1.3" class="g10_3" />
<path d="M561.1,859.9l8.2,1.4" class="g10_3" />
<path d="M561.1,865.8l8.2,1.4" class="g10_3" />
<path d="M561.1,871.1l8.2,1.4" class="g10_3" />
<path d="M561.1,876.3l8.2,1.3" class="g10_3" />
<path d="M561.1,881.5l8.2,1.4" class="g10_3" />
<path d="M561.1,887.3l8.2,1.4" class="g10_3" />
<path d="M561.1,892.5l8.2,1.4" class="g10_3" />
<path d="M561.1,897.7l8.2,1.4" class="g10_3" />
<path d="M560.9,903l8.9,1.4" class="g10_3" />
<path d="M549.2,759L549,749.9" class="g10_3" />
<path d="M544.1,758.5l-0.5,-8.8" class="g10_3" />
<path d="M560.9,908.2l8.9,1.5" class="g10_3" />
<path d="M560.9,913.3l8.9,1.5" class="g10_3" />
<path d="M560.9,918.1l8.9,1.5" class="g10_3" />
<path d="M560.9,922.9l6.3,1" class="g10_3" />
<path fill-rule="evenodd" d="M657,947l140,0l0,-21l-140,0Z" class="g17_3" />
<path d="M695,957l-25,0" class="g18_3" />
<path d="M695,973l-25,0" class="g18_3" />
<path d="M695,990l-25,0" class="g18_3" />
<path d="M695,990l-25,0" class="g19_3" />
<path d="M695,973l-25,0" class="g20_3" />
<path d="M720,672.1c1.1,0.1,2.4,-0.1,3.6,-0.5" class="g8_3" />
<path d="M730.8,667.6c1.1,5.4,-10.3,10.9,-12.9,5.3c-0.1,-0.3,-0.2,-0.6,-0.3,-0.8" class="g8_3" />
<path d="M719.3,676.6c2.6,5.9,15.3,-0.6,12.6,-6.2" class="g8_3" />
<path d="M721.4,675.1c1.7,3.8,9.8,-0.4,8.1,-4" class="g8_3" />
<path d="M730.8,668.8c0.6,0.5,0.7,0.8,0.9,1.2c0,0,1,2.2,1.5,3.5c2.6,5.6,-9.9,12,-12.6,6.2c-0.9,-2,-1.1,-2.5,-1.1,-2.4c-0.3,-0.4,-0.5,-1.4,-0.2,-2.2" class="g8_3" />
<path d="M722.4,683.3c2.6,5.9,15.3,-0.4,12.7,-6" class="g8_3" />
<path d="M724.5,681.8c1.7,3.9,9.9,-0.2,8.3,-3.9" class="g8_3" />
<path d="M733.6,675.4c0.8,0.3,1.1,1.1,1.3,1.5c0,0,1,2.2,1.5,3.5c2.5,5.7,-10.1,11.9,-12.7,6c-0.9,-2,-1.1,-2.5,-1,-2.4c-0.3,-0.4,-0.6,-1.4,-0.3,-2.2" class="g8_3" />
<path d="M725.6,690.1c2.3,6.1,15.2,0.3,12.9,-5.4" class="g8_3" />
<path d="M727.7,688.8c1.5,3.9,9.9,0.2,8.4,-3.6" class="g8_3" />
<path d="M737,682.7c0.8,0.3,1.1,1.2,1.3,1.6c0,0,0.8,2.2,1.3,3.5c2.3,5.8,-10.5,11.5,-12.9,5.5c-0.8,-2,-1,-2.5,-0.9,-2.4c-0.3,-0.5,-0.5,-1.4,-0.2,-2.2" class="g8_3" />
<path d="M728,696.9c2,6.1,15.3,1,13.2,-4.8" class="g8_3" />
<path d="M730.3,695.7c1.2,3.9,9.8,0.6,8.5,-3.2" class="g8_3" />
<path d="M739.9,690c0.7,0.4,1,1.2,1.1,1.7c0,0,0.8,2.3,1.2,3.6c2,5.9,-11.1,10.9,-13.2,4.8c-0.7,-2.1,-0.8,-2.5,-0.8,-2.4c-0.3,-0.5,-0.4,-1.5,0,-2.3" class="g8_3" />
<path d="M730.3,703.7c1.9,6.2,15.2,1.2,13.3,-4.7" class="g8_3" />
<path d="M732.5,702.5c1.3,4,9.9,0.7,8.6,-3" class="g8_3" />
<path d="M742.2,697c0.8,0.4,1,1.2,1.2,1.7c0,0,0.7,2.2,1.1,3.6c1.9,5.9,-11.2,10.8,-13.2,4.6c-0.7,-2,-0.9,-2.5,-0.8,-2.4c-0.3,-0.5,-0.5,-1.5,0,-2.3" class="g8_3" />
<path d="M732.8,710.5c1.8,6.2,15.2,1.5,13.3,-4.4" class="g8_3" />
<path d="M735,709.3c1.2,4,9.9,1,8.7,-2.8" class="g8_3" />
<path d="M744.8,704c0.7,0.4,1,1.3,1.1,1.7c0,0,0.7,2.3,1.1,3.6c1.7,6,-11.5,10.6,-13.4,4.4c-0.6,-2.1,-0.7,-2.6,-0.7,-2.5c-0.2,-0.5,-0.4,-1.4,0.1,-2.2" class="g8_3" />
<path d="M734.8,717.5c1.7,6.2,15.1,1.7,13.4,-4.2" class="g8_3" />
<path d="M737.1,716.4c1.1,4,9.8,1.1,8.6,-2.8" class="g8_3" />
<path d="M746.9,711.2c0.7,0.4,1,1.3,1.1,1.7c0,0,0.6,2.4,1,3.7c1.7,5.9,-11.6,10.4,-13.4,4.2c-0.6,-2.2,-0.7,-2.6,-0.7,-2.5c-0.2,-0.5,-0.4,-1.5,0.1,-2.3" class="g8_3" />
<path d="M736.5,724.5c1.5,6.3,15.1,2.3,13.6,-3.7" class="g8_3" />
<path d="M738.9,723.5c0.9,4,9.7,1.5,8.7,-2.4" class="g8_3" />
<path d="M748.9,718.7c0.7,0.4,0.9,1.3,1,1.8c0,0,0.6,2.3,0.9,3.6c1.4,6,-12,10,-13.6,3.7c-0.5,-2.1,-0.6,-2.6,-0.6,-2.5c-0.2,-0.5,-0.3,-1.4,0.2,-2.2" class="g8_3" />
<path d="M738.3,731.7c1.5,6.3,15.1,2.3,13.5,-3.7" class="g8_3" />
<path d="M740.6,730.7c0.9,4,9.8,1.5,8.8,-2.4" class="g8_3" />
<path d="M750.6,725.9c0.7,0.4,0.9,1.3,1.1,1.8c0,0,0.5,2.3,0.8,3.6c1.5,6.1,-12,10,-13.5,3.7c-0.6,-2.1,-0.6,-2.6,-0.6,-2.5c-0.2,-0.5,-0.3,-1.4,0.1,-2.2" class="g8_3" />
<path d="M739.7,738.7c1.3,6.3,15,2.5,13.6,-3.5" class="g8_3" />
<path d="M742,737.7c0.9,4.1,9.8,1.6,8.8,-2.3" class="g8_3" />
<path d="M752.1,733c0.7,0.5,0.9,1.4,1,1.8c0,0,0.5,2.4,0.8,3.7c1.4,6.1,-12.1,9.8,-13.6,3.5c-0.5,-2.1,-0.6,-2.6,-0.6,-2.5c-0.2,-0.5,-0.2,-1.5,0.3,-2.3" class="g8_3" />
<path d="M740.7,745.5c1,6.4,14.9,3.4,13.8,-2.7" class="g8_3" />
<path d="M743.1,744.6c0.6,4.2,9.6,2.3,8.9,-1.7" class="g8_3" />
<path d="M753.5,740.6c0.6,0.5,0.8,1.4,0.9,1.9c0,0,0.3,2.3,0.5,3.7c1,6.1,-12.7,9,-13.8,2.7c-0.3,-2.2,-0.4,-2.7,-0.4,-2.6c-0.1,-0.5,-0.2,-1.5,0.4,-2.2" class="g8_3" />
<path d="M741.7,752.8c0.6,6.4,14.7,4.3,14,-1.8" class="g8_3" />
<path d="M744.2,752.1c0.4,4.1,9.4,2.7,9,-1.2" class="g8_3" />
<path d="M754.8,748.6c0.6,0.6,0.7,1.5,0.8,2c0,0,0.2,2.3,0.3,3.7c0.6,6.2,-13.2,8.3,-13.9,1.9c-0.3,-2.2,-0.3,-2.7,-0.3,-2.6c-0.1,-0.6,-0.1,-1.5,0.5,-2.2" class="g8_3" />
<path d="M742.6,760.1c0.5,6.4,14.6,4.5,14,-1.6" class="g8_3" />
<path d="M745.1,759.4c0.3,4.2,9.4,2.9,9,-1" class="g8_3" />
<path d="M755.7,756.2c0.6,0.5,0.7,1.4,0.8,1.9c0,0,0.2,2.4,0.3,3.8c0.5,6.1,-13.4,8,-14,1.6c-0.2,-2.2,-0.2,-2.7,-0.2,-2.6c-0.2,-0.6,-0.1,-1.5,0.5,-2.2" class="g8_3" />
<path d="M743.2,767.5c0.5,6.4,14.5,4.6,14,-1.6" class="g8_3" />
<path d="M745.6,766.8c0.3,4.1,9.5,3,9.1,-1" class="g8_3" />
<path d="M756.3,763.6c0.6,0.6,0.7,1.5,0.8,1.9c0,0,0.1,2.4,0.2,3.8c0.5,6.2,-13.4,8,-13.9,1.5c-0.2,-2.2,-0.3,-2.6,-0.3,-2.5c-0.1,-0.6,0,-1.5,0.6,-2.2" class="g8_3" />
<path d="M743.5,774.9c0.4,6.4,14.5,4.7,14,-1.4" class="g8_3" />
<path d="M745.9,774.2c0.3,4.2,9.4,3.1,9.1,-0.9" class="g8_3" />
<path d="M756.6,771.1c0.7,0.6,0.7,1.5,0.8,2c0,0,0.1,2.4,0.2,3.7c0.4,6.2,-13.5,7.9,-14,1.4c-0.1,-2.1,-0.2,-2.6,-0.2,-2.5c-0.1,-0.6,0,-1.5,0.6,-2.2" class="g8_3" />
<path d="M743.7,781.7c0.2,6.4,14.3,5.3,14,-0.9" class="g8_3" />
<path d="M746.2,781.1c0.1,4.2,9.3,3.4,9.1,-0.6" class="g8_3" />
<path d="M757,778.4c0.6,0.6,0.6,1.5,0.7,2c0,0,0,2.4,0.1,3.8c0.2,6.2,-13.8,7.3,-14.1,0.8c0,-2.2,0,-2.6,-0.1,-2.5c0,-0.6,0,-1.5,0.7,-2.2" class="g8_3" />
<path d="M743.6,788.8c0,6.5,14.1,5.9,14.1,-0.3" class="g8_3" />
<path d="M746.1,788.4c0,4.1,9.2,3.8,9.1,-0.2" class="g8_3" />
<path d="M757.1,786.1c0.5,0.6,0.5,1.5,0.5,2c0,0,0,2.4,0,3.8c-0.1,6.2,-14.1,6.7,-14.1,0.3c0,-2.2,0,-2.7,0,-2.6c0,-0.5,0.1,-1.5,0.8,-2.1" class="g8_3" />
<path d="M743.4,795.8c-0.1,6.5,14,6.2,14.1,0" class="g8_3" />
<path d="M746,795.4c-0.2,4.2,9,4,9,0" class="g8_3" />
<path d="M756.9,793.4c0.6,0.6,0.5,1.5,0.5,2c0,0,0,2.4,-0.1,3.7c-0.1,6.2,-14.2,6.6,-14,0.1c0,-2.2,0,-2.7,0,-2.6c0,-0.5,0.1,-1.5,0.8,-2.1" class="g8_3" />
<path d="M743.1,803c-0.4,6.4,13.8,6.5,14,0.3" class="g8_3" />
<path d="M745.6,802.6c-0.3,4.2,8.9,4.3,9.1,0.3" class="g8_3" />
<path d="M756.6,800.9c0.5,0.7,0.5,1.5,0.5,2c0,0,-0.2,2.4,-0.3,3.8c-0.3,6.2,-14.3,6.1,-14,-0.4c0.1,-2.2,0.1,-2.6,0.1,-2.5c0,-0.6,0.2,-1.5,0.8,-2.1" class="g8_3" />
<path d="M742.7,810.4c-0.4,6.4,13.8,6.4,14,0.3" class="g8_3" />
<path d="M745.2,810c-0.3,4.2,8.9,4.2,9.1,0.2" class="g8_3" />
<path d="M756.2,808.2c0.5,0.7,0.5,1.6,0.5,2.1c0,0,-0.2,2.3,-0.3,3.7c-0.3,6.2,-14.3,6.2,-14,-0.3c0.1,-2.2,0.1,-2.7,0.1,-2.6c0,-0.5,0.1,-1.5,0.8,-2.1" class="g8_3" />
<path d="M742.1,817.3c-0.5,6.4,13.6,6.9,14.1,0.8" class="g8_3" />
<path d="M744.7,817c-0.4,4.2,8.8,4.5,9.1,0.5" class="g8_3" />
<path d="M755.7,815.6c0.5,0.7,0.5,1.6,0.4,2.1c0,0,-0.2,2.3,-0.3,3.7c-0.5,6.2,-14.5,5.7,-14,-0.8c0.1,-2.2,0.2,-2.6,0.2,-2.5c-0.1,-0.6,0.1,-1.5,0.9,-2.1" class="g8_3" />
<path d="M741.5,824.5c-0.6,6.4,13.6,7,14.1,0.8" class="g8_3" />
<path d="M744.1,824.2c-0.4,4.2,8.7,4.5,9,0.5" class="g8_3" />
<path d="M755.1,822.9c0.5,0.6,0.5,1.5,0.4,2c0,0,-0.2,2.4,-0.3,3.7c-0.6,6.2,-14.6,5.7,-14.1,-0.8c0.2,-2.2,0.3,-2.6,0.3,-2.5c-0.1,-0.6,0.1,-1.5,0.9,-2.1" class="g8_3" />
<path d="M678.7,497c0.7,5.1,11.3,6.5,13.6,2.1" class="g8_3" />
<path d="M692.6,501.6c-0.5,6.5,-14.5,4.7,-14,-1.5" class="g8_3" />
<path d="M690.2,501c-0.3,4.1,-9.5,3,-9.1,-1" class="g8_3" />
<path d="M679.1,498.3c-0.4,0.7,-0.3,1,-0.4,1.4c0,0,-0.1,2.4,-0.2,3.8c-0.5,6.2,13.4,7.9,13.9,1.5c0.2,-2.2,0.2,-2.7,0.2,-2.6c0.2,-0.5,0.1,-1.5,-0.5,-2.2" class="g8_3" />
<path d="M692,509c-0.4,6.4,-14.5,4.9,-14,-1.3" class="g8_3" />
<path d="M689.5,508.4c-0.2,4.1,-9.4,3.1,-9.1,-0.9" class="g8_3" />
<path d="M678.8,505.4c-0.6,0.5,-0.7,1.4,-0.8,1.9c0,0,-0.1,2.4,-0.2,3.8c-0.3,6.2,13.6,7.7,14,1.3c0.2,-2.2,0.2,-2.7,0.2,-2.6c0.1,-0.6,0.1,-1.5,-0.6,-2.2" class="g8_3" />
<path d="M691.4,516.5c-0.1,6.5,-14.3,5.5,-14.1,-0.7" class="g8_3" />
<path d="M688.9,516c-0.1,4.2,-9.2,3.5,-9.1,-0.5" class="g8_3" />
<path d="M678,513.5c-0.5,0.5,-0.6,1.4,-0.6,1.9c0,0,0,2.4,0,3.8c-0.2,6.2,13.8,7.1,14,0.7c0.1,-2.2,0,-2.7,0.1,-2.6c0,-0.5,-0.1,-1.5,-0.7,-2.1" class="g8_3" />
<path d="M691.4,523.7c0.2,6.5,-14,6.2,-14.1,0" class="g8_3" />
<path d="M688.9,523.3c0.1,4.2,-9.1,4,-9.1,0" class="g8_3" />
<path d="M677.9,521.3c-0.5,0.6,-0.5,1.5,-0.5,2c0,0,0.1,2.4,0.1,3.8c0.2,6.2,14.2,6.4,14.1,0c-0.1,-2.2,-0.1,-2.7,-0.1,-2.6c0.1,-0.6,-0.1,-1.5,-0.8,-2.1" class="g8_3" />
<path d="M691.6,530.9c0.3,6.4,-13.9,6.3,-14.1,0.1" class="g8_3" />
<path d="M689.1,530.5c0.2,4.2,-9,4.1,-9.1,0.1" class="g8_3" />
<path d="M678.1,528.6c-0.6,0.7,-0.5,1.6,-0.5,2c0,0,0.1,2.4,0.1,3.8c0.3,6.2,14.3,6.3,14.1,-0.1c-0.1,-2.2,-0.1,-2.7,-0.1,-2.6c0.1,-0.6,-0.1,-1.5,-0.8,-2.1" class="g8_3" />
<path d="M691.6,538.1c0.4,6.4,-13.8,6.6,-14.1,0.5" class="g8_3" />
<path d="M689.1,537.8c0.3,4.1,-8.9,4.3,-9.1,0.3" class="g8_3" />
<path d="M678.1,536.1c-0.6,0.7,-0.5,1.6,-0.5,2.1c0,0,0.2,2.3,0.3,3.7c0.4,6.2,14.4,6,14,-0.5c-0.1,-2.2,-0.2,-2.6,-0.1,-2.5c0,-0.6,-0.2,-1.5,-0.9,-2.1" class="g8_3" />
<path d="M692.1,545.4c0.6,6.4,-13.6,6.8,-14,0.7" class="g8_3" />
<path d="M689.6,545.1c0.3,4.1,-8.8,4.4,-9.1,0.4" class="g8_3" />
<path d="M678.5,543.6c-0.5,0.7,-0.4,1.6,-0.4,2c0,0,0.2,2.4,0.3,3.8c0.5,6.2,14.5,5.8,14.1,-0.7c-0.2,-2.2,-0.2,-2.7,-0.2,-2.6c0,-0.5,-0.2,-1.4,-0.9,-2" class="g8_3" />
<path d="M692.9,552.6c0.7,6.4,-13.4,7.3,-14,1.2" class="g8_3" />
<path d="M690.3,552.4c0.5,4.1,-8.6,4.7,-9,0.8" class="g8_3" />
<path d="M679.3,551.3c-0.6,0.7,-0.5,1.6,-0.4,2.1c0,0,0.3,2.3,0.4,3.7c0.8,6.2,14.7,5.2,14,-1.2c-0.2,-2.2,-0.3,-2.6,-0.2,-2.5c0,-0.6,-0.3,-1.5,-1,-2.1" class="g8_3" />
<path d="M693.7,560c0.8,6.4,-13.4,7.3,-14,1.1" class="g8_3" />
<path d="M691.2,559.8c0.5,4.1,-8.7,4.7,-9.1,0.7" class="g8_3" />
<path d="M680.1,558.7c-0.5,0.7,-0.4,1.5,-0.4,2c0,0,0.3,2.4,0.5,3.8c0.7,6.1,14.7,5.2,14,-1.2c-0.2,-2.2,-0.3,-2.7,-0.3,-2.6c0,-0.5,-0.2,-1.5,-0.9,-2" class="g8_3" />
<path d="M694.8,567c0.9,6.4,-13.3,7.5,-14,1.4" class="g8_3" />
<path d="M692.3,566.8c0.5,4.1,-8.6,4.9,-9.1,0.9" class="g8_3" />
<path d="M681.1,565.9c-0.4,0.7,-0.3,1.6,-0.3,2.1c0,0,0.4,2.3,0.5,3.7c0.9,6.1,14.8,5,14,-1.4C695,568.1,695,567.6,695,567.7c0,-0.5,-0.3,-1.4,-1,-2" class="g8_3" />
<path d="M696.2,573.7c1.2,6.4,-12.8,8.3,-13.9,2.3" class="g8_3" />
<path d="M693.6,573.7c0.8,4.1,-8.3,5.4,-8.9,1.5" class="g8_3" />
<path d="M682.5,573.5c-0.4,0.7,-0.3,1.6,-0.2,2.1c0,0,0.5,2.3,0.7,3.7c1.2,6,15.1,4.1,13.9,-2.3c-0.4,-2.1,-0.5,-2.6,-0.5,-2.5c0,-0.6,-0.3,-1.5,-1.1,-2" class="g8_3" />
<path d="M697.7,580.9c1.6,6.2,-12.3,9.1,-13.7,3.1" class="g8_3" />
<path d="M695.2,581.1c1,4,-8,5.8,-8.9,1.9" class="g8_3" />
<path d="M684,581.5c-0.4,0.7,-0.1,1.6,0,2.1c0,0,0.6,2.3,0.9,3.6c1.6,6,15.3,3.2,13.7,-3.1C698.1,582,698,581.5,698,581.6c-0.1,-0.5,-0.4,-1.4,-1.2,-1.9" class="g8_3" />
<path d="M699.4,588.1c1.7,6.2,-12.1,9.2,-13.7,3.3" class="g8_3" />
<path d="M696.8,588.3c1.2,4,-7.8,6,-8.8,2.1" class="g8_3" />
<path d="M685.7,588.9c-0.4,0.7,-0.1,1.6,0,2.1c0,0,0.6,2.3,1,3.6c1.6,6,15.3,2.9,13.7,-3.3c-0.6,-2.1,-0.8,-2.6,-0.7,-2.5c-0.1,-0.6,-0.5,-1.4,-1.3,-1.9" class="g8_3" />
<path d="M701.4,595.2c1.7,6.2,-12.1,9.3,-13.7,3.4" class="g8_3" />
<path d="M698.8,595.4c1.2,4,-7.8,6.1,-8.8,2.2" class="g8_3" />
<path d="M687.7,596.1c-0.4,0.7,-0.1,1.6,0,2.1c0,0,0.6,2.3,1,3.6c1.7,5.9,15.4,2.8,13.7,-3.4c-0.6,-2.1,-0.8,-2.6,-0.7,-2.5c-0.1,-0.5,-0.5,-1.4,-1.3,-1.8" class="g8_3" />
<path d="M703.6,602.3c1.9,6.1,-12,9.4,-13.6,3.4" class="g8_3" />
<path d="M701.1,602.5c1.2,4,-7.8,6.1,-8.8,2.2" class="g8_3" />
<path d="M690,603.3c-0.4,0.7,-0.1,1.5,0,2c0,0,0.7,2.3,1,3.6c1.8,6,15.4,2.8,13.7,-3.4c-0.6,-2.1,-0.8,-2.6,-0.7,-2.5c-0.1,-0.6,-0.5,-1.4,-1.3,-1.9" class="g8_3" />
<path d="M705.7,608.7c2.1,6.1,-11.6,9.9,-13.4,4" class="g8_3" />
<path d="M703.2,609c1.4,4,-7.5,6.4,-8.7,2.6" class="g8_3" />
<path d="M692.2,610.2c-0.4,0.8,-0.1,1.6,0,2.1c0,0,0.8,2.3,1.2,3.6c2,5.9,15.5,2.1,13.5,-4c-0.7,-2.1,-0.9,-2.6,-0.8,-2.5c-0.1,-0.5,-0.5,-1.4,-1.4,-1.8" class="g8_3" />
<path d="M708.3,615.4c2.3,6,-11.2,10.4,-13.3,4.5" class="g8_3" />
<path d="M705.8,615.8c1.5,3.9,-7.3,6.7,-8.6,3" class="g8_3" />
<path d="M694.8,617.5c-0.4,0.8,-0.1,1.6,0.1,2.1c0,0,0.8,2.2,1.3,3.5c2.2,5.8,15.6,1.5,13.3,-4.6c-0.7,-2,-0.9,-2.5,-0.9,-2.4c-0.1,-0.5,-0.5,-1.4,-1.4,-1.7" class="g8_3" />
<path d="M710.9,621.9c2.4,6,-11.1,10.6,-13.3,4.8" class="g8_3" />
<path d="M708.4,622.4c1.5,3.9,-7.2,6.8,-8.6,3.1" class="g8_3" />
<path d="M697.4,624.2c-0.3,0.8,0,1.6,0.2,2.1c0,0,0.9,2.2,1.4,3.5c2.2,5.7,15.5,1.3,13.2,-4.8c-0.8,-2,-1,-2.5,-0.9,-2.4c-0.2,-0.5,-0.6,-1.3,-1.5,-1.7" class="g8_3" />
<path d="M713.7,628.5c2.6,5.9,-10.7,10.9,-13.1,5.2" class="g8_3" />
<path d="M711.2,629c1.7,3.9,-6.9,7.1,-8.5,3.4" class="g8_3" />
<path d="M700.3,631.2c-0.3,0.8,0,1.6,0.2,2.1c0,0,1,2.2,1.5,3.4c2.5,5.7,15.6,0.8,13.1,-5.1c-0.9,-2.1,-1.1,-2.5,-1,-2.4c-0.2,-0.6,-0.7,-1.4,-1.5,-1.7" class="g8_3" />
<path d="M716.6,635.3c2.5,5.9,-10.8,10.8,-13.1,5.1" class="g8_3" />
<path d="M714.1,635.8c1.7,3.9,-7,7,-8.5,3.3" class="g8_3" />
<path d="M703.2,638c-0.3,0.7,0,1.5,0.2,2c0,0,1,2.2,1.5,3.5c2.4,5.7,15.6,0.8,13.1,-5.1c-0.9,-2.1,-1.1,-2.5,-1,-2.4c-0.2,-0.6,-0.6,-1.4,-1.5,-1.7" class="g8_3" />
<path d="M719.5,641.6c2.7,5.9,-10.4,11.2,-13,5.6" class="g8_3" />
<path d="M717,642.3c1.8,3.7,-6.7,7.2,-8.4,3.5" class="g8_3" />
<path d="M706.1,644.7c-0.2,0.8,0.1,1.6,0.3,2.1c0,0,1.1,2.1,1.6,3.4c2.7,5.6,15.6,0.3,13,-5.5c-1,-2,-1.2,-2.5,-1.1,-2.4c-0.2,-0.5,-0.7,-1.3,-1.6,-1.6" class="g8_3" />
<path d="M722.5,648.2c2.8,5.8,-10.4,11.2,-12.9,5.6" class="g8_3" />
<path d="M720,648.8c1.8,3.8,-6.7,7.3,-8.3,3.6" class="g8_3" />
<path d="M709.2,651.3c-0.3,0.8,0.1,1.6,0.3,2.1c0,0,1,2.1,1.6,3.4c2.7,5.6,15.6,0.2,12.9,-5.6c-0.9,-2,-1.1,-2.4,-1.1,-2.4c-0.1,-0.5,-0.7,-1.3,-1.5,-1.6" class="g8_3" />
<path d="M684.4,663.8c4.6,-5.3,8.9,-10.6,19,-6.2c10.2,4.4,22.9,1.5,24.8,-9.8c2,-11.4,9.5,-12,17.4,-11.5" class="g10_3" />
<path d="M690.4,676.4c4.6,-5.3,8.8,-10.6,19,-6.2c10.2,4.3,22.9,1.5,24.8,-9.8c1.9,-11.4,9.5,-12,17.4,-11.5" class="g10_3" />
</svg>