<?xml version="1.0" encoding="UTF-8" standalone="no"?>
<!DOCTYPE svg PUBLIC "-//W3C//DTD SVG 1.1//EN"
"http://www.w3.org/Graphics/SVG/1.1/DTD/svg11.dtd">
<svg viewBox="0 0 935 1210" version="1.1" xmlns="http://www.w3.org/2000/svg" xmlns:xlink="http://www.w3.org/1999/xlink">
<defs>
<style type="text/css"><![CDATA[
.g12_1{
fill: #636363;
}
.g20_1{
fill: none;
stroke: #000000;
stroke-width: 4;
stroke-linecap: round;
stroke-linejoin: round;
stroke-miterlimit: 2;
}
.g2_1{
fill: none;
stroke: #FFFFFF;
stroke-width: 3;
stroke-linecap: round;
stroke-linejoin: miter;
stroke-miterlimit: 2;
}
.g14_1{
fill: none;
stroke: #000000;
stroke-width: 3;
stroke-linecap: round;
stroke-linejoin: round;
stroke-miterlimit: 2;
}
.g17_1{
fill: none;
stroke: #000000;
stroke-width: 2;
stroke-linecap: round;
stroke-linejoin: round;
stroke-miterlimit: 2;
stroke-dasharray: 3,5;
}
.g3_1{
fill: #FFFFFF;
stroke: #000000;
stroke-width: 2;
stroke-linecap: butt;
stroke-linejoin: miter;
stroke-miterlimit: 2;
}
.g13_1{
fill: #D4D4D4;
}
.g1_1{
fill: #B3B3B3;
}
.g7_1{
fill: #636363;
stroke: #000000;
stroke-width: 1;
stroke-linecap: butt;
stroke-linejoin: miter;
stroke-miterlimit: 2;
}
.g10_1{
fill: none;
stroke: #000000;
stroke-width: 2;
stroke-linecap: round;
stroke-linejoin: round;
stroke-miterlimit: 2;
}
.g21_1{
fill: none;
stroke: #FFFFFF;
stroke-width: 2;
stroke-linecap: round;
stroke-linejoin: round;
stroke-miterlimit: 2;
}
.g5_1{
fill: none;
stroke: #000000;
stroke-width: 2;
stroke-linecap: butt;
stroke-linejoin: miter;
stroke-miterlimit: 2;
}
.g22_1{
fill: none;
stroke: #808080;
stroke-width: 2;
stroke-linecap: round;
stroke-linejoin: round;
stroke-miterlimit: 2;
}
.g9_1{
fill: #E6E6E6;
stroke: #000000;
stroke-width: 1;
stroke-linecap: round;
stroke-linejoin: round;
stroke-miterlimit: 2;
}
.g19_1{
stroke: #000000;
stroke-width: 2;
stroke-linecap: round;
stroke-linejoin: round;
stroke-miterlimit: 2;
}
.g4_1{
fill: none;
stroke: #000000;
stroke-width: 1;
stroke-linecap: butt;
stroke-linejoin: miter;
stroke-miterlimit: 2;
}
.g8_1{
fill: #636363;
stroke: #000000;
stroke-width: 2;
stroke-linecap: round;
stroke-linejoin: round;
stroke-miterlimit: 2;
}
.g15_1{
fill: #FFFFFF;
}
.g18_1{
fill: none;
stroke: #000000;
stroke-width: 2;
stroke-linecap: round;
stroke-linejoin: round;
stroke-miterlimit: 2;
stroke-dasharray: 4,5;
}
.g6_1{
}
.g16_1{
fill: #FFFFFF;
stroke: #000000;
stroke-width: 3;
stroke-linecap: round;
stroke-linejoin: round;
stroke-miterlimit: 2;
}
.g11_1{
fill: none;
stroke: #000000;
stroke-width: 1;
stroke-linecap: round;
stroke-linejoin: round;
stroke-miterlimit: 2;
}
]]></style>
</defs>
<path fill-rule="evenodd" d="M55,54l824,0l0,1101l-824,0Z" class="g1_1" />
<path d="M55.5,256.5l27,0" class="g2_1" />
<path d="M55.5,430.5l27,0" class="g2_1" />
<path d="M55.5,605.5l27,0" class="g2_1" />
<path d="M55.5,779.5l27,0" class="g2_1" />
<path d="M55.5,953.5l27,0" class="g2_1" />
<path d="M852.5,256.5l28,0" class="g2_1" />
<path d="M852.5,449.5l28,0" class="g2_1" />
<path d="M852.5,605.5l28,0" class="g2_1" />
<path d="M852.5,779.5l28,0" class="g2_1" />
<path d="M852.5,953.5l28,0" class="g2_1" />
<path d="M236.5,82.5l0,-27" class="g2_1" />
<path d="M390.5,82.5l0,-27" class="g2_1" />
<path d="M544.5,82.5l0,-27" class="g2_1" />
<path d="M698.5,82.5l0,-27" class="g2_1" />
<path d="M236.5,1155.5l0,-28" class="g2_1" />
<path d="M390.5,1155.5l0,-28" class="g2_1" />
<path d="M544.5,1155.5l0,-28" class="g2_1" />
<path d="M698.5,1155.5l0,-28" class="g2_1" />
<path fill-rule="evenodd" d="M82,82l770,0l0,1045l-770,0Z" class="g3_1" />
<path d="M408.5,163.5l118,0" class="g4_1" />
<path d="M184.5,209.5l646,0" class="g4_1" />
<path d="M103.5,278.5l727,0" class="g4_1" />
<path d="M82,1097l770,0" class="g5_1" />
<path d="M466.5,1099.5l0,28" class="g4_1" />
<path d="M468.5,1099.5l0,28" class="g4_1" />
<path d="M272.5,1099.5l0,28" class="g4_1" />
<path d="M274.5,1099.5l0,28" class="g4_1" />
<path d="M664.5,1099.5l0,28" class="g4_1" />
<path d="M666.5,1099.5l0,28" class="g4_1" />
<path fill-rule="evenodd" d="M106,289l37,0l0,38l-37,0Z" class="g6_1" />
<path fill-rule="evenodd" d="M103.5,287.5l38,0l0,37l-38,0Z" class="g7_1" />
<path fill-rule="evenodd" d="M106,559l37,0l0,38l-37,0Z" class="g6_1" />
<path fill-rule="evenodd" d="M103.5,557.5l38,0l0,38l-38,0Z" class="g7_1" />
<path d="M103.5,548.5l727,0" class="g4_1" />
<path fill-rule="evenodd" d="M271.6,488.9l2.1,-1.1l10.5,3.4l-0.1,-6.9l2.1,-1.2l27.1,8.8l0,9l12.1,3.9l-2.1,1.1l-25.2,10.6Z" class="g8_1" />
<path fill-rule="evenodd" d="M284.1,484.3l27.1,8.8l0,9l12.1,3.8l-25.2,10.6L271.6,488.9l12.6,4.1Z" class="g9_1" />
<path d="M271.6,488.9l2.1,-1.1l10.5,3.4l-0.1,-6.9l2.1,-1.2l27.1,8.8l0,9l12.1,3.9l-2.1,1.1l-25.2,10.6Z" class="g10_1" />
<path d="M284.2,493l0,-1.8" class="g10_1" />
<path d="M311.2,493.1l2.1,-1.2" class="g11_1" />
<path d="M311.2,502.1l2.1,-1.2" class="g11_1" />
<path d="M274.5,1099.5l192,0" class="g11_1" />
<path d="M468.5,1099.5l196,0" class="g11_1" />
<path d="M666.5,1099.5l186,0" class="g11_1" />
<path d="M272.5,1099.5l-190,0" class="g11_1" />
<path d="M483.1,441.5L596.6,418.7" class="g10_1" />
<path d="M706.8,396.6L829.9,372" class="g10_1" />
<path d="M710.8,396.6l0.1,3.5c0,0,0.2,1.9,0.3,2.4" class="g10_1" />
<path d="M727.4,421.4c-1.1,0,-0.7,-0.1,-1.4,-0.8c-0.8,-0.8,-34.5,-42.4,-34.5,-42.4c0,0,-4.8,-5.1,-10.1,-4c-5.4,1.1,-81.1,16.4,-81.1,16.4c0,0,-1.4,0.3,-2.1,1.2c-0.6,1,-2.8,4,-3.3,4.7c-0.4,0.6,-0.4,2,0.6,3.3c1,1.4,7.9,9.7,7.9,9.7" class="g10_1" />
<path d="M597.1,395.2l82.2,-16.7c0,0,4.3,-1.2,8,3.1c3.6,4.3,36,44.1,36,44.1c0,0,2.5,2.6,4.6,2.3" class="g11_1" />
<path d="M721.7,414.4l11.6,-2.2c0,0,0.7,-0.4,1.3,0.4c0.6,0.7,3.3,3.9,3.3,3.9c0,0,0.4,0.7,-0.1,1.4c-0.5,0.7,-5.7,8,-5.7,8c0,0,-0.3,1.2,-5.4,2.3c-5.1,1.1,-17,3.4,-17,3.4c0,0,-3.6,1.1,-6.4,-2.3c-2.8,-3.5,-9,-11.1,-9,-11.1c0,0,-1.1,-1.6,-3.5,-1.1c-2.3,0.5,-6.6,1.3,-6.6,1.3" class="g10_1" />
<path d="M690.1,418c0.8,2.6,1.4,6.1,-1.3,10c-2.8,3.8,-11.1,15.4,-11.1,15.4" class="g10_1" />
<path d="M677.2,446.8l6.9,8.5c0,0,0.7,1,0.1,1.9c-0.5,0.9,-2.8,3.9,-2.8,3.9c0,0,-0.1,0.4,-1.1,0.7c-1.1,0.2,-31.2,6.1,-31.2,6.1c0,0,-1.7,0.5,-3.1,-1c-1,-1.1,-4.2,-5.1,-5.9,-7.2" class="g10_1" />
<path d="M707,432.2c0,1.2,-0.6,2,-2.1,2.3c-1.4,0.3,-17.2,3.4,-17.2,3.4c0,0,-1.7,0.4,-1.7,2.2c0.1,1.7,0,6.5,0.1,10.4c0.1,3.9,3.4,7.4,6,7.8c2.6,0.4,4,0.7,4,0.7c0,0,0.7,0.1,2,-0.2c1.2,-0.2,77.9,-15.2,77.9,-15.2c0,0,7,-2.2,7.1,-10.7c0,-8.4,0,-10.5,0,-10.5c0,0,-0.2,-1.1,-1.4,-1.5c-1.2,-0.3,-4.5,-0.6,-4.5,-0.6l-18.4,3.6" class="g10_1" />
<path d="M727.4,421.4c0.7,0,0.7,-0.2,1.1,-0.6c0.4,-0.4,5.2,-7.1,5.4,-7.4c0.2,-0.2,0.7,-1.1,0.3,-1.2" class="g11_1" />
<path d="M693.7,458c2.1,-0.3,3.5,-0.7,3.5,-0.7l73.4,-14.4c3.2,-0.6,7.5,-3.8,7.5,-11.7c0,-8,0,-9.1,0,-9.1c0,0,-0.2,-1.9,-1.5,-1.7" class="g11_1" />
<path d="M769.9,421.1l0,-1.6" class="g10_1" />
<path d="M762,416.4c0,-0.6,0.7,-1.2,1.5,-1.4c0.9,-0.2,18.2,-3.7,18.2,-3.7c0,0,1.4,-0.3,1.4,-2.2c0.1,-2,0.1,-26.7,0,-27.2" class="g10_1" />
<path d="M759.4,414.3c3.6,-0.8,17.3,-3.5,17.3,-3.5c0,0,1.4,-0.3,1.4,-2.3c0.1,-1.9,0.1,-25.6,0,-26.1" class="g11_1" />
<path d="M758,386.9c0.1,3.1,-0.5,6.5,-1.5,8.6c-1,2.1,-2.7,4.7,-6.2,5.2c-3.5,0.6,-34.5,6.7,-34.5,6.7" class="g10_1" />
<path d="M674.6,452.1l6.2,7.5c0,0,1.3,1.6,0,2.1" class="g11_1" />
<path d="M688.8,428.6l2.9,0.4c0,0,0.6,0.2,1.5,-0.2c0.9,-0.3,8.3,-1.7,8.3,-1.7" class="g10_1" />
<path d="M688.6,428.2c0.3,-0.1,0.7,-0.1,1.2,-0.2c0.9,-0.2,10.6,-2.3,10.6,-2.3" class="g11_1" />
<path d="M684.5,418.8l1,1.2c0,0,0.9,1.3,0.1,2.5c-0.8,1.1,-10.3,14.3,-10.3,14.3" class="g11_1" />
<path d="M612.3,420.5l9.5,11.5" class="g10_1" />
<path d="M677.8,388.2l-20.5,28.6" class="g10_1" />
<path d="M688.6,396.5l-20.3,28.4" class="g10_1" />
<path d="M677.8,388.2c1.2,-1.5,5.2,-1.3,8.1,1.2c2.8,2.5,4.3,4.9,2.7,7.1" class="g11_1" />
<path d="M676.6,390c1.1,-1.5,5.1,-1.4,8,1.1c2.8,2.5,4.4,5,2.8,7.2" class="g11_1" />
<path d="M675.3,391.8c1.1,-1.5,5.2,-1.4,8,1.1c2.9,2.5,4.4,4.9,2.8,7.1" class="g11_1" />
<path d="M674,393.5c1.2,-1.5,5.2,-1.3,8.1,1.2c2.8,2.5,4.3,4.9,2.7,7.1" class="g11_1" />
<path d="M672.8,395.3c1.1,-1.5,5.1,-1.4,8,1.1c2.8,2.5,4.4,5,2.8,7.2" class="g11_1" />
<path d="M671.5,397.1c1.1,-1.5,5.2,-1.4,8,1.1c2.9,2.5,4.4,4.9,2.8,7.1" class="g11_1" />
<path d="M670.2,398.8c1.2,-1.5,5.2,-1.3,8.1,1.2c2.8,2.5,4.3,4.9,2.7,7.1" class="g11_1" />
<path d="M669,400.6c1.1,-1.5,5.1,-1.4,8,1.1c2.8,2.5,4.4,5,2.8,7.2" class="g11_1" />
<path d="M667.7,402.4c1.1,-1.5,5.2,-1.4,8,1.1c2.9,2.5,4.4,4.9,2.8,7.1" class="g11_1" />
<path d="M666.4,404.1c1.2,-1.5,5.2,-1.3,8.1,1.2c2.8,2.5,4.3,4.9,2.8,7.1" class="g11_1" />
<path d="M665.2,405.9c1.1,-1.5,5.1,-1.4,8,1.1c2.8,2.5,4.4,5,2.8,7.2" class="g11_1" />
<path d="M663.9,407.7c1.1,-1.5,5.2,-1.4,8,1.1c2.9,2.5,4.4,4.9,2.8,7.1" class="g11_1" />
<path d="M662.6,409.4c1.2,-1.5,5.2,-1.3,8.1,1.2c2.8,2.5,4.3,4.9,2.8,7.1" class="g11_1" />
<path d="M661.4,411.2c1.1,-1.5,5.1,-1.4,8,1.1c2.8,2.5,4.4,5,2.8,7.2" class="g11_1" />
<path d="M660.1,413c1.1,-1.5,5.2,-1.4,8,1.1c2.9,2.5,4.4,4.9,2.8,7.1" class="g11_1" />
<path d="M658.8,414.7c1.2,-1.5,5.2,-1.3,8.1,1.2c2.8,2.5,4.3,4.9,2.8,7.1" class="g11_1" />
<path d="M657.6,416.5c1.1,-1.5,5.1,-1.4,8,1.1c2.8,2.5,4.4,5,2.8,7.2" class="g11_1" />
<path d="M658.2,417.3c1.8,-0.2,4.2,0.4,6.1,2.1c1.9,1.6,3.1,3.1,3.4,4.7" class="g11_1" />
<path d="M608.6,402l-19.9,27.7" class="g10_1" />
<path d="M619.4,410.2l-19.9,27.6" class="g10_1" />
<path d="M608.6,402c1.1,-1.5,5.2,-1.4,8,1.1c2.9,2.5,4.4,4.9,2.8,7.1" class="g11_1" />
<path d="M607.3,403.7c1.2,-1.5,5.2,-1.3,8,1.2c2.9,2.5,4.4,4.9,2.8,7.1" class="g11_1" />
<path d="M606,405.5c1.2,-1.5,5.2,-1.4,8.1,1.1c2.8,2.5,4.4,5,2.8,7.2" class="g11_1" />
<path d="M604.8,407.3c1.1,-1.5,5.2,-1.4,8,1.1c2.9,2.5,4.4,4.9,2.8,7.1" class="g11_1" />
<path d="M603.5,409c1.2,-1.5,5.2,-1.3,8.1,1.2c2.8,2.5,4.3,4.9,2.7,7.1" class="g11_1" />
<path d="M602.2,410.8c1.2,-1.5,5.2,-1.4,8.1,1.1c2.8,2.5,4.4,5,2.8,7.2" class="g11_1" />
<path d="M601,412.6c1.1,-1.5,5.2,-1.4,8,1.1c2.9,2.5,4.4,4.9,2.8,7.1" class="g11_1" />
<path d="M599.7,414.3c1.2,-1.5,5.2,-1.3,8.1,1.2c2.8,2.5,4.3,4.9,2.7,7.1" class="g11_1" />
<path d="M598.4,416.1c1.2,-1.5,5.2,-1.4,8.1,1.1c2.8,2.5,4.4,5,2.8,7.2" class="g11_1" />
<path d="M597.2,417.9c1.1,-1.5,5.2,-1.4,8,1.1c2.9,2.5,4.4,4.9,2.8,7.1" class="g11_1" />
<path d="M595.9,419.6c1.2,-1.5,5.2,-1.3,8.1,1.2c2.8,2.5,4.3,4.9,2.7,7.1" class="g11_1" />
<path d="M594.6,421.4c1.2,-1.5,5.2,-1.4,8.1,1.1c2.8,2.5,4.4,5,2.8,7.2" class="g11_1" />
<path d="M593.4,423.2c1.1,-1.5,5.2,-1.4,8,1.1c2.9,2.5,4.4,4.9,2.8,7.1" class="g11_1" />
<path d="M592.1,424.9c1.2,-1.5,5.2,-1.3,8.1,1.2c2.8,2.5,4.3,4.9,2.7,7.1" class="g11_1" />
<path d="M590.8,426.7c1.2,-1.5,5.2,-1.4,8.1,1.1c2.8,2.5,4.4,5,2.8,7.2" class="g11_1" />
<path d="M589.6,428.5c1.1,-1.5,5.2,-1.4,8,1.1c2.9,2.5,4.4,4.9,2.8,7.1" class="g11_1" />
<path d="M589.1,429.6c1.7,-0.8,4.9,-0.3,7.3,1.8c2.4,2.1,3.9,4.2,3.2,6.2" class="g11_1" />
<path d="M589,431.1c1.7,-0.3,4.2,0.4,6.1,2c1.8,1.6,3.1,3.2,3.3,4.7" class="g11_1" />
<path d="M631,418.1c4.7,-6,21.1,-5.4,32.7,4.6c11.6,9.9,17.9,19.6,11.4,28.4" class="g10_1" />
<path d="M624,427.6c4.6,-6,21.1,-5.3,32.7,4.6c11.6,9.9,17.8,19.6,11.3,28.5" class="g11_1" />
<path d="M668,460.7c-4.6,5.9,-21.1,5.3,-32.7,-4.6C623.7,446.2,617.5,436.5,624,427.6" class="g10_1" />
<path d="M626.5,429.5c4.1,-5.3,18.7,-4.7,29,4.1c10.2,8.7,15.7,17.3,10,25.2" class="g11_1" />
<path d="M665.5,458.8c-4.1,5.3,-18.7,4.7,-29,-4.1c-10.2,-8.8,-15.7,-17.4,-10,-25.2" class="g11_1" />
<path d="M631,418.1l-7,9.5" class="g10_1" />
<path d="M675.1,451.1l-7.1,9.6" class="g10_1" />
<path d="M627,425l6.5,-8.9" class="g11_1" />
<path d="M628.1,424.6l6.5,-9" class="g11_1" />
<path d="M629.5,424.1l6.5,-9" class="g11_1" />
<path d="M631.1,423.8l6.5,-9" class="g11_1" />
<path d="M632.9,423.4l6.5,-8.9" class="g11_1" />
<path d="M634.7,423.4l6.6,-9" class="g11_1" />
<path d="M636.6,423.5l6.5,-9" class="g11_1" />
<path d="M638.7,423.6l6.5,-9" class="g11_1" />
<path d="M640.6,423.9l6.5,-8.9" class="g11_1" />
<path d="M642.7,424.4l6.6,-9" class="g11_1" />
<path d="M644.9,425l6.5,-8.9" class="g11_1" />
<path d="M647,425.8l6.5,-9" class="g11_1" />
<path d="M649.1,426.8l6.6,-8.9" class="g11_1" />
<path d="M651.3,427.9l6.6,-9" class="g11_1" />
<path d="M653.3,429.2l6.5,-9" class="g11_1" />
<path d="M655.3,430.6l6.6,-9" class="g11_1" />
<path d="M657.2,432.1l6.5,-9" class="g11_1" />
<path d="M659,433.7l6.5,-9" class="g11_1" />
<path d="M660.8,435.3l6.5,-9" class="g11_1" />
<path d="M662.5,437l6.5,-9" class="g11_1" />
<path d="M664,438.7l6.5,-8.9" class="g11_1" />
<path d="M665.5,440.4l6.5,-8.9" class="g11_1" />
<path d="M666.7,442.1l6.5,-9" class="g11_1" />
<path d="M667.9,443.8l6.5,-9" class="g11_1" />
<path d="M668.9,445.5l6.5,-8.9" class="g11_1" />
<path d="M669.7,447.2l6.5,-9" class="g11_1" />
<path d="M670.4,448.8l6.5,-9" class="g11_1" />
<path d="M670.8,450.5l6.5,-9" class="g11_1" />
<path d="M671,452.1l6.5,-9" class="g11_1" />
<path d="M671.1,453.7l6.5,-9" class="g11_1" />
<path d="M670.9,455.2l6.5,-9" class="g11_1" />
<path d="M644,414.2c6,-0.5,13.9,1.6,20.2,7c6.1,5.2,10.4,10.3,11.5,15.3" class="g10_1" />
<path d="M562.2,430.9c4.6,-6,21.1,-5.4,32.7,4.5c11.6,9.9,17.8,19.7,11.3,28.5" class="g10_1" />
<path d="M555.1,440.4c4.6,-6,21.1,-5.4,32.7,4.5c11.6,10,17.8,19.7,11.3,28.5" class="g11_1" />
<path d="M599.1,473.4c-4.6,6,-21.1,5.4,-32.7,-4.5c-11.6,-10,-17.8,-19.7,-11.3,-28.5" class="g10_1" />
<path d="M557.6,442.3c4.1,-5.3,18.7,-4.8,29,4c10.2,8.8,15.7,17.4,10,25.2" class="g11_1" />
<path d="M596.6,471.5c-4.1,5.3,-18.7,4.8,-28.9,-4c-10.3,-8.8,-15.8,-17.4,-10.1,-25.2" class="g11_1" />
<path d="M562.2,430.9l-7.1,9.5" class="g10_1" />
<path d="M606.2,463.9l-7.1,9.5" class="g10_1" />
<path d="M558.1,437.8l6.5,-9" class="g11_1" />
<path d="M559.2,437.3l6.5,-8.9" class="g11_1" />
<path d="M560.6,436.8l6.5,-8.9" class="g11_1" />
<path d="M562.2,436.6l6.6,-9" class="g11_1" />
<path d="M564,436.2l6.5,-9" class="g11_1" />
<path d="M565.9,436.1l6.5,-9" class="g11_1" />
<path d="M567.7,436.2l6.5,-9" class="g11_1" />
<path d="M569.8,436.3l6.5,-8.9" class="g11_1" />
<path d="M571.7,436.7l6.5,-9" class="g11_1" />
<path d="M573.8,437.2l6.6,-9" class="g11_1" />
<path d="M576,437.8l6.5,-9" class="g11_1" />
<path d="M578.1,438.5l6.5,-8.9" class="g11_1" />
<path d="M580.3,439.6l6.5,-9" class="g11_1" />
<path d="M582.4,440.6l6.6,-8.9" class="g11_1" />
<path d="M584.4,441.9L591,433" class="g11_1" />
<path d="M586.5,443.3l6.5,-8.9" class="g11_1" />
<path d="M588.3,444.8l6.5,-8.9" class="g11_1" />
<path d="M590.1,446.5l6.5,-9" class="g11_1" />
<path d="M591.9,448.1l6.5,-9" class="g11_1" />
<path d="M593.6,449.7l6.5,-8.9" class="g11_1" />
<path d="M595.1,451.5l6.5,-9" class="g11_1" />
<path d="M596.6,453.2l6.5,-9" class="g11_1" />
<path d="M597.8,454.8l6.5,-9" class="g11_1" />
<path d="M599,456.5l6.5,-8.9" class="g11_1" />
<path d="M600,458.3l6.5,-9" class="g11_1" />
<path d="M600.8,459.9l6.5,-8.9" class="g11_1" />
<path d="M601.5,461.5l6.5,-8.9" class="g11_1" />
<path d="M601.9,463.2l6.5,-8.9" class="g11_1" />
<path d="M602.1,464.8l6.6,-8.9" class="g11_1" />
<path d="M602.2,466.4l6.5,-8.9" class="g11_1" />
<path d="M602,467.9l6.5,-9" class="g11_1" />
<path d="M575.2,426.9c5.9,-0.5,13.9,1.7,20.1,7c6.1,5.2,10.4,10.4,11.5,15.3" class="g10_1" />
<path fill-rule="evenodd" d="M749.5,401l6.5,-1.3l0,11.3l-6.5,-0.8Z" class="g12_1" />
<path fill-rule="evenodd" d="M742.9,411.6l6.4,-1.3l0,7l6.8,0.9l0,11.4l-6.6,1.2l0,-11.2l-6.7,-1Z" class="g12_1" />
<path d="M756.1,418.2l-6.6,1.4" class="g11_1" />
<path fill-rule="evenodd" d="M749.5,410.2l6.6,0.6l0,-11.3l17.2,17.1l-17,12.8l0,-11.4l-6.8,-0.9Z" class="g13_1" />
<path d="M742.8,411.4l0,7.2l6.7,1l0,11.2l6.8,-1.3l17,-12.6L756.2,399.6l-6.7,1.4l0,9.1Z" class="g10_1" />
<path d="M756.2,411l-6.7,-0.9" class="g10_1" />
<path d="M749.5,417.5l0,-7" class="g11_1" />
<path d="M756.1,428.4l0,-10.2l-6.8,-1l-6.5,1.4" class="g11_1" />
<path d="M755.5,400.5l0,10" class="g11_1" />
<path fill-rule="evenodd" d="M655.6,489.4l7.5,-1.3l4.6,4l5,4l6.8,3.7l5.8,1.7l5,0.6l5.9,-1.6l5,-2.7l4.2,-3.4l2.9,-3.7l-7.9,-9.3l22.3,-9.1l7.8,-1.5L729.3,502l-8,1.9L718,500.5l-4.3,4.1l-5.3,4l-9.4,4.8l-10.8,2.8l-10.5,1.4l-6.4,-0.5l-9.1,-2.4L650,508.8l-4.3,-2.7Z" class="g12_1" />
<path d="M708.3,490.7c0,0,-3,6.7,-16.2,11.5" class="g14_1" />
<path d="M663.5,488l-7.9,1.4l-9.9,16.7" class="g14_1" />
<path fill-rule="evenodd" d="M653.5,504.6c12.8,9.1,22.6,12.4,34.7,11.6c12.1,-0.9,27.5,-10.6,34,-21l7.1,6.9l1.2,-31.3l-22,9.4l8.1,9.1c-3.2,5,-11.8,12.3,-23.8,13.5c-12,1.3,-21.6,-7.3,-29.3,-14.8Z" class="g13_1" />
<path d="M716.6,489.3l-8.1,-9.2l-8.1,1.3" class="g11_1" />
<path d="M708.3,490.7l8.3,-1.4" class="g11_1" />
<path d="M692.1,502.8c6.5,0,18.8,-4.9,24.5,-13.5" class="g11_1" />
<path d="M692.1,502.2c-9.7,-0.2,-17.9,-3,-28.6,-14.2" class="g14_1" />
<path d="M722.2,495.2c-4.9,7.1,-15.7,18.2,-34,21" class="g14_1" />
<path d="M708.3,490.7l-7.9,-9.3l22.3,-9.1l7.8,-1.5l-1.2,31.3l-8,1.8L718,500.7" class="g14_1" />
<path d="M708.5,480.1l22,-9.3" class="g11_1" />
<path d="M722.2,495.2l7.1,6.9" class="g11_1" />
<path d="M647,505.9l6.5,-1.3c14.7,11.6,28,11.9,34.7,11.6" class="g11_1" />
<path d="M645.7,506.1c18.5,12.4,31.9,13,42.5,10.1" class="g14_1" />
<path d="M653.5,504.6l10,-16.6" class="g11_1" />
<path d="M140.8,717.2l208.3,59.1l263,-104.4" class="g10_1" />
<path d="M682.4,642.6l146,-58.2" class="g10_1" />
<path d="M624,645.6c0,-1.4,2.9,-2.1,5,-2.1c2.1,0,5,0.4,5,2" class="g11_1" />
<path d="M623,645l0,19m0,10l0,4" class="g10_1" />
<path d="M634,678l0,-5m0,-13l0,-15" class="g10_1" />
<path d="M624,647.8c0,-1.4,2.9,-2.1,5,-2.1c2.1,0,5,0.4,5,2" class="g11_1" />
<path d="M624,650c0,-1.4,2.9,-2.1,5,-2.1c2.1,0,5,0.4,5,2" class="g11_1" />
<path d="M624,652.2c0,-1.3,2.9,-2,5,-2c2.1,0,5,0.4,5,1.9" class="g11_1" />
<path d="M624,654.4c0,-1.4,2.9,-2.1,5,-2.1c2.1,0,5,0.4,5,2" class="g11_1" />
<path d="M624,656.6c0,-1.3,2.9,-2,5,-2c2.1,0,5,0.4,5,1.9" class="g11_1" />
<path d="M624,658.8c0,-1.4,2.9,-2.1,5,-2.1c2.1,0,5,0.4,5,2" class="g11_1" />
<path d="M624,661c0,-1.4,2.9,-2.1,5,-2.1c2.1,0,5,0.4,5,2" class="g11_1" />
<path d="M624,663.2c0,-1.4,2.9,-2.1,5,-2.1c0.8,0,1.7,0.1,2.5,0.3" class="g11_1" />
<path d="M624,674.1c0,-1.3,2.9,-2,5,-2c2.1,0,5,0.4,5,1.9" class="g11_1" />
<path d="M624,676.3c0,-1.3,2.9,-2,5,-2c2.1,0,5,0.4,5,2" class="g11_1" />
<path d="M624,678.6c0,-1.4,2.9,-2.1,5,-2.1c2.1,0,5,0.4,5,2" class="g11_1" />
<path d="M649.8,689.3l0,9.9c0,4.1,-9.3,7.3,-20.8,7.3c-11.5,0,-20.8,-3.2,-20.8,-7.3l0,-9.9" class="g10_1" />
<path d="M608.2,699.2c0,-4,9.3,-7.3,20.8,-7.3c11.5,0,20.8,3.3,20.8,7.3" class="g11_1" />
<path d="M608.2,689.3c0,-4,9.3,-7.3,20.8,-7.3c11.5,0,20.8,3.3,20.8,7.3" class="g10_1" />
<path d="M614,683.9c0,-2.9,6.7,-5.2,15,-5.2c8.3,0,15.1,2.3,15.1,5.2" class="g10_1" />
<path d="M647.2,699.2c0,3.6,-8.1,6.4,-18.2,6.4c-10,0,-18.2,-2.8,-18.2,-6.4" class="g11_1" />
<path d="M610.8,699.2c0,-3.5,8.2,-6.4,18.2,-6.4c10.1,0,18.2,2.9,18.2,6.4" class="g11_1" />
<path d="M628.5,691.5l0,-9" class="g11_1" />
<path d="M626.5,691.5l0,-9" class="g11_1" />
<path d="M624.5,692.5l0,-10" class="g11_1" />
<path d="M623.5,692.5l0,-10" class="g11_1" />
<path d="M621.5,692.5l0,-10" class="g11_1" />
<path d="M620.5,692.5l0,-10" class="g11_1" />
<path d="M618.5,692.5l0,-10" class="g11_1" />
<path d="M617.5,693.5l0,-10" class="g11_1" />
<path d="M616.5,693.5l0,-10" class="g11_1" />
<path d="M615.5,693.5l0,-10" class="g11_1" />
<path d="M613.5,694.5l0,-10" class="g11_1" />
<path d="M612.5,694.5l0,-10" class="g11_1" />
<path d="M611.5,695.5l0,-10" class="g11_1" />
<path d="M610.5,695.5l0,-10" class="g11_1" />
<path d="M608.5,697.5l0,-10" class="g11_1" />
<path d="M630.5,691.5l0,-9" class="g11_1" />
<path d="M631.5,691.5l0,-10" class="g11_1" />
<path d="M633.5,692.5l0,-10" class="g11_1" />
<path d="M635.5,692.5l0,-10" class="g11_1" />
<path d="M636.5,692.5l0,-10" class="g11_1" />
<path d="M638.5,692.5l0,-10" class="g11_1" />
<path d="M639.5,692.5l0,-9" class="g11_1" />
<path d="M640.5,693.5l0,-10" class="g11_1" />
<path d="M641.5,693.5l0,-10" class="g11_1" />
<path d="M642.5,693.5l0,-10" class="g11_1" />
<path d="M644.5,694.5l0,-10" class="g11_1" />
<path d="M645.5,694.5l0,-10" class="g11_1" />
<path d="M646.5,695.5l0,-10" class="g11_1" />
<path d="M647.5,695.5l0,-10" class="g11_1" />
<path d="M648.5,696.5l0,-10" class="g11_1" />
<path d="M648.5,697.5l0,-10" class="g11_1" />
<path d="M676.7,653.3c0,-1.4,3,-2.1,5.1,-2.1c2.1,0,5,0.4,5,2" class="g11_1" />
<path d="M676,653l0,33" class="g10_1" />
<path d="M686,686l0,-33" class="g10_1" />
<path d="M676.7,655.5c0,-1.4,3,-2.1,5.1,-2.1c2.1,0,5,0.4,5,2" class="g11_1" />
<path d="M676.7,657.7c0,-1.4,3,-2.1,5.1,-2.1c2.1,0,5,0.4,5,2" class="g11_1" />
<path d="M676.7,659.9c0,-1.3,3,-2,5.1,-2c2.1,0,5,0.4,5,1.9" class="g11_1" />
<path d="M676.7,662.1c0,-1.3,3,-2,5.1,-2c2.1,0,5,0.4,5,1.9" class="g11_1" />
<path d="M676.7,664.3c0,-1.3,3,-2,5.1,-2c2.1,0,5,0.4,5,1.9" class="g11_1" />
<path d="M676.7,666.5c0,-1.3,3,-2,5.1,-2c2.1,0,5,0.4,5,1.9" class="g11_1" />
<path d="M676.7,668.7c0,-1.3,3,-2,5.1,-2c2.1,0,5,0.4,5,1.9" class="g11_1" />
<path d="M676.7,670.9c0,-1.3,3,-2,5.1,-2c2.1,0,5,0.4,5,1.9" class="g11_1" />
<path d="M676.7,673.1c0,-1.3,3,-2,5.1,-2c2.1,0,5,0.4,5,1.9" class="g11_1" />
<path d="M676.7,675.3c0,-1.3,3,-2,5.1,-2c2.1,0,5,0.4,5,1.9" class="g11_1" />
<path d="M676.7,677.6c0,-1.4,3,-2.1,5.1,-2.1c2.1,0,5,0.4,5,2" class="g11_1" />
<path d="M676.7,679.7c0,-1.4,3,-2.1,5.1,-2.1c2.1,0,5,0.4,5,2" class="g11_1" />
<path d="M676.7,681.9c0,-1.4,3,-2.1,5.1,-2.1c2.1,0,5,0.4,5,2" class="g11_1" />
<path d="M676.7,684.1c0,-1.4,3,-2.1,5.1,-2.1c2.1,0,5,0.4,5,2" class="g11_1" />
<path d="M676.7,686.3c0,-1.3,3,-2,5.1,-2c2.1,0,5,0.4,5,1.9" class="g11_1" />
<path d="M702.5,696.6l0,9.9c0,4.1,-9.3,7.3,-20.7,7.3c-11.5,0,-20.8,-3.2,-20.8,-7.3l0,-9.9" class="g10_1" />
<path d="M661,706.5c0,-4,9.3,-7.2,20.8,-7.2c11.4,0,20.7,3.2,20.7,7.2" class="g11_1" />
<path d="M661,696.6c0,-4,9.3,-7.3,20.8,-7.3c11.4,0,20.7,3.3,20.7,7.3" class="g10_1" />
<path d="M666.7,691.3c0,-3,6.7,-5.3,15.1,-5.3c8.3,0,15,2.3,15,5.3" class="g10_1" />
<path d="M700,706.5c0,3.6,-8.2,6.4,-18.2,6.4c-10.1,0,-18.3,-2.8,-18.3,-6.4" class="g11_1" />
<path d="M663.5,706.5c0,-3.5,8.2,-6.4,18.3,-6.4c10,0,18.2,2.9,18.2,6.4" class="g11_1" />
<path d="M681.5,699.5l0,-10" class="g11_1" />
<path d="M679.5,699.5l0,-10" class="g11_1" />
<path d="M677.5,699.5l0,-10" class="g11_1" />
<path d="M675.5,699.5l0,-10" class="g11_1" />
<path d="M674.5,699.5l0,-10" class="g11_1" />
<path d="M672.5,700.5l0,-10" class="g11_1" />
<path d="M671.5,700.5l0,-10" class="g11_1" />
<path d="M669.5,700.5l0,-10" class="g11_1" />
<path d="M668.5,700.5l0,-10" class="g11_1" />
<path d="M667.5,701.5l0,-10" class="g11_1" />
<path d="M666.5,701.5l0,-10" class="g11_1" />
<path d="M665.5,702.5l0,-10" class="g11_1" />
<path d="M664.5,702.5l0,-10" class="g11_1" />
<path d="M663.5,703.5l0,-10" class="g11_1" />
<path d="M661.5,704.5l0,-10" class="g11_1" />
<path d="M682.5,699.5l0,-10" class="g11_1" />
<path d="M684.5,699.5l0,-10" class="g11_1" />
<path d="M686.5,699.5l0,-10" class="g11_1" />
<path d="M687.5,699.5l0,-10" class="g11_1" />
<path d="M689.5,699.5l0,-10" class="g11_1" />
<path d="M690.5,700.5l0,-10" class="g11_1" />
<path d="M692.5,700.5l0,-10" class="g11_1" />
<path d="M693.5,700.5l0,-10" class="g11_1" />
<path d="M694.5,700.5l0,-10" class="g11_1" />
<path d="M695.5,701.5l0,-10" class="g11_1" />
<path d="M697.5,701.5l0,-10" class="g11_1" />
<path d="M698.5,702.5l0,-10" class="g11_1" />
<path d="M699.5,702.5l0,-10" class="g11_1" />
<path d="M700.5,703.5l0,-10" class="g11_1" />
<path d="M701.5,703.5l0,-10" class="g11_1" />
<path d="M701.5,704.5l0,-10" class="g11_1" />
<path d="M623.1,678.8l-9.4,-2.9c0,0,-1.6,-0.9,-1.6,-2.3c0,-1.4,-0.1,-3.5,-0.1,-3.5c0,0,0.3,-1,1.8,-1.6c1.5,-0.5,62,-24.8,62,-24.8c0,0,4.3,-1.4,9.8,-0.1c5.4,1.2,31.9,9.2,31.9,9.2c0,0,2.1,1,2.2,-1.5c0.2,-2.4,-0.2,-8,-0.2,-8l3.8,1.2l0.2,9.2c0,0,0.1,2.8,-3.9,4.5c-4,1.6,-3.7,1.4,-3.7,1.4" class="g10_1" />
<path d="M719,651l0,-23" class="g10_1" />
<path d="M697.7,645.8c1.2,-1.1,2.3,-5.1,2.2,-9" class="g10_1" />
<path d="M715.5,651.5l0,-21" class="g11_1" />
<path d="M613.7,673.4l62.5,-25.1c0,0,3.3,-1.7,9.1,-0.1c5.8,1.6,31.8,9.1,31.8,9.1c0,0,3.1,0.9,4.1,0" class="g11_1" />
<path d="M661,698.6c-4.3,1.9,-6.1,2.9,-6.8,3.2c-0.8,0.2,-1.1,0.5,-4.7,-0.5M647.8,686l11.8,-4.4c0,0,1.6,-0.5,1.6,-2.8c0,-2.3,0.1,-4.2,0.1,-4.2" class="g10_1" />
<path d="M661.3,674.6c0,0,-0.6,-1,-1.7,-0.5c-1.1,0.5,-4.8,2.1,-4.8,2.1" class="g10_1" />
<path d="M687.9,663.1l3.6,-1.7c0,0,3.1,-0.3,4.4,0.1c1.3,0.4,7,2,7,2" class="g10_1" />
<path d="M700.1,665l12.7,-5.1c0,0,2.1,-0.4,4,0.4c1.9,0.8,2.1,1.6,2.1,2.6c0,1,0,7,0,7c0,0,-0.8,5.8,-4.9,7.8c-4.1,2,-19.8,7.9,-19.8,7.9" class="g10_1" />
<path d="M691.1,662.5c1.2,1.2,1.4,2.3,1.4,4.2c0,1.9,0.2,16.2,0.2,16.2c0,0,0.1,1.6,1.3,2.8c0.9,0.8,2.6,1.2,3.8,1.5c2.9,0.6,3.1,1.4,3.1,1.4c0,0,0.9,3.5,-0.6,4" class="g10_1" />
<path d="M661.2,678.8c-0.2,5.5,-0.2,14.9,-0.2,14.9l0,2.4" class="g10_1" />
<path d="M660.8,695.6c0,0,-8.4,4,-9.8,4.3c-0.2,0,-0.6,0.1,-1,0.2" class="g11_1" />
<path d="M694.2,682.8l16.3,-6.5c0,0,4.2,-1.8,4.6,-8.1c0.4,-6.3,0.2,-7.3,0.2,-7.3" class="g11_1" />
<path d="M687.9,663.1c0.8,1,1,1.6,1.1,3.1c0.1,1.5,0.1,16.5,0.1,16.5c0,0,-0.3,3.2,1.1,4.2" class="g11_1" />
<path d="M654,677.2l5.9,2" class="g11_1" />
<path d="M599.5,756.6c-6.1,-2.2,-14.8,-7,-15.5,-12.8c-0.7,-5.8,6.6,-12.4,11.5,-14.5" class="g10_1" />
<path fill-rule="evenodd" d="M599.5,756.6l13,-5l0.1,-5.5c0,0,-16.7,-4.7,-16.6,-8.5c0,-3.7,4.6,-5.5,6.2,-6.2c1.5,-0.7,9.6,2.3,9.6,2.3l3.9,-9.1l0,-5.5l-26.9,2.8l0,5.3c0,0,0.1,0.3,-0.5,1.3c-0.5,1,-3.5,3.6,-3.7,5.7c-0.2,2,-1.4,6.5,-0.6,9.6c0.8,3.1,2.1,6.7,15.5,12.8Z" class="g12_1" />
<path fill-rule="evenodd" d="M599.8,756.7l12.7,-5.1c-0.7,0.2,-10.6,-3.2,-12,-4.6c-0.8,-0.7,-4.1,-2.2,-5,-5.3c-0.4,-1.2,0.1,-2.5,0.7,-4c1.5,-3.4,4.2,-4.8,5.7,-5.5c1.6,-0.7,10.1,2.2,10.1,2.2l3.9,-9.7L589,727.3c0,0,6.5,2,5.3,2.6c-1.2,0.6,-7.5,4.8,-9.1,8.6c-1.6,3.8,-1.8,2.3,-1,5.4c0.8,3.1,2.2,6.7,15.6,12.8Z" class="g13_1" />
<path d="M588.8,721.9l0,5.6l7,1.9" class="g10_1" />
<path d="M602.2,731.4l9.6,2.3l3.8,-9.1l0,-5.5l-26.8,2.8" class="g10_1" />
<path d="M588.8,727.5l26.8,-2.9" class="g11_1" />
<path d="M599.8,756.7l12.7,-5.1l0.1,-5.5c0,0,-14.4,-3.4,-16.9,-9" class="g10_1" />
<path d="M602.2,731.4c-4.4,1.8,-7.2,5,-7,8.7" class="g10_1" />
<path d="M589.6,727.7c-3.5,3,-5.4,6.1,-5.7,9.4c-0.3,3.3,0,6.1,0,6.1c0,0,0.2,7.7,15.9,13.5" class="g10_1" />
<path d="M595.2,740.1c-0.1,4.5,6.9,9.2,17.3,11.5" class="g11_1" />
<path d="M595.8,729.4c-5.1,1.7,-12.1,8.5,-11.9,13.8" class="g11_1" />
<path fill-rule="evenodd" d="M717.4,745.5l-0.1,6.8l-26.7,2.8l0,-5.6l4.1,-9.2l9.2,2.5l3.5,-1.8l2.3,-2.7l-0.1,-2.7l-3,-2.5l-4.7,-2.5l-3.7,-1.4l-4.1,-1.1l0,-5.7l12.7,-4.9l7.5,3.6l4.6,3.4l3.1,4.3l0.5,3.7l0,3.6l-0.6,3.5l-1.8,3.1Z" class="g12_1" />
<path d="M694.1,728.1l0,-5.7l12.7,-4.9" class="g10_1" />
<path d="M690.6,755.1l0,-5.6l4.1,-9.2l9.2,2.5c0,0,5,-1.3,6.5,-6.1" class="g10_1" />
<path d="M695.2,745.9l-0.5,-5.6" class="g11_1" />
<path d="M704,748.1l-0.1,-5.3" class="g11_1" />
<path fill-rule="evenodd" d="M718.2,744.8l-7.7,5.2l6.8,2.3l-26.7,2.8l4.6,-9.2l8.8,2.2l2.8,-1.2l2.5,-2l1.4,-2.1l0.7,-2.4l-0.1,-1.8l-1.7,-3l-3,-2.5l-4.7,-2.5l-3.7,-1.4l-4.1,-1.1l12.7,-4.9l5.1,2.1l4.4,2.5l4,3.5l1.6,2.5l0.6,2.9L722,739l-1.9,3.7Z" class="g13_1" />
<path d="M711.4,739.6c0.1,-4.7,-8,-9.5,-17.3,-11.5" class="g10_1" />
<path d="M706.8,723.2c9.3,3.2,15.2,8,15.7,12.9" class="g11_1" />
<path d="M694.1,728.1l12.7,-4.9l0,-5.7" class="g11_1" />
<path d="M710.5,750c5.5,-2.6,11.9,-7.8,12,-13.3c0.1,-5.5,-0.1,-5.9,-0.1,-5.9c0,0,0.3,-7.2,-15.6,-13.3" class="g10_1" />
<path d="M690.6,755.1l4.6,-9.2l8.8,2.2c0,0,7.2,-1.9,7.4,-8.5" class="g11_1" />
<path d="M690.6,755.1l26.7,-2.8l0.2,-5.4" class="g10_1" />
<path d="M710.5,750l6.8,2.3" class="g11_1" />
<path fill-rule="evenodd" d="M397.2,528.8L340.9,517.5l0.5,-13.1l57.3,14.9Z" class="g15_1" />
<path d="M467.5,548.5l0,-270" class="g4_1" />
<path fill-rule="evenodd" d="M479,289l37,0l0,38l-37,0Z" class="g6_1" />
<path fill-rule="evenodd" d="M477.5,287.5l37,0l0,37l-37,0Z" class="g7_1" />
<path d="M662.5,703.5l0,-10" class="g11_1" />
<path d="M609.5,696.5l0,-10" class="g11_1" />
<path fill-rule="evenodd" d="M407.8,750.5c99.8,0,180.6,58.1,180.6,129.7c0,71.7,-80.8,129.7,-180.6,129.7c-99.7,0,-180.5,-58,-180.5,-129.7c0,-71.6,80.8,-129.7,180.5,-129.7Z" class="g1_1" />
<path fill-rule="evenodd" d="M407.8,756.3c95.3,0,172.6,55.5,172.6,123.9c0,68.5,-77.3,124,-172.6,124c-95.2,0,-172.5,-55.5,-172.5,-124c0,-68.4,77.3,-123.9,172.5,-123.9Z" class="g16_1" />
<path d="M465.2,943.2c0.7,0,1,0.8,1,1.5c0,0.7,-0.1,15.3,-0.1,15.3c0,0,0.1,5.4,5.9,5.3c5.8,0,7.9,0,7.9,0l0,-4.1c0,0,-7.7,0,-8.3,0.1c-0.6,0,-1.4,-0.6,-1.4,-1.5c0,-0.9,0,-14.8,0,-15.5c0,-0.7,-0.4,-1.2,-0.4,-1.2l-36.4,0.1l-0.2,-4l40.8,0c0,0,1.9,-0.2,1.9,-1.3c0,-1.1,0,-8,0,-8l3.9,-0.1l0.1,8.3c0,0,-0.2,5.1,-5.1,5c-5,0,-5,0,-5,0" class="g10_1" />
<path d="M439.8,939.2l0.1,-15.4l8.3,0l0,15.4" class="g10_1" />
<path d="M439.7,943.2l0,18.6l-7.2,0l0,3.9c0,0,-0.2,1.1,-0.9,1.2" class="g10_1" />
<path d="M448.4,943.2l0,18.6l7.2,0l0,3.9c0,0,0.1,1.1,0.9,1.2" class="g10_1" />
<path d="M439,961l9,0" class="g10_1" />
<path d="M426,966l35,0l0,9l-35,0Z" class="g10_1" />
<path d="M430.8,975.7c6,4.2,17,6.2,27.3,-0.3" class="g10_1" />
<path d="M428.6,967c0,-0.2,0,8.2,0,8.2" class="g11_1" />
<path d="M430.1,967c0,-0.2,0,8.2,0,8.2" class="g11_1" />
<path d="M432,967c0,-0.2,0,8.2,0,8.2" class="g11_1" />
<path d="M434.1,967c0,-0.2,0,8.2,0,8.2" class="g11_1" />
<path d="M436.2,967c0,-0.2,0,8.2,0,8.2" class="g11_1" />
<path d="M438.4,967c0,-0.2,0,8.2,0,8.2" class="g11_1" />
<path d="M440.2,967c0,-0.2,0,8.2,0,8.2" class="g11_1" />
<path d="M442.1,967c0,-0.2,0,8.2,0,8.2" class="g11_1" />
<path d="M444.3,967c0,-0.2,0,8.2,0,8.2" class="g11_1" />
<path d="M446.3,967c0,-0.2,0,8.2,0,8.2" class="g11_1" />
<path d="M448.5,967c0,-0.2,0,8.2,0,8.2" class="g11_1" />
<path d="M450.6,967c0,-0.2,0,8.2,0,8.2" class="g11_1" />
<path d="M452.5,967c0,-0.2,0,8.2,0,8.2" class="g11_1" />
<path d="M454,967c0,-0.2,0,8.2,0,8.2" class="g11_1" />
<path d="M455.6,967c0,-0.2,0,8.2,0,8.2" class="g11_1" />
<path d="M457.2,967c0,-0.2,0,8.2,0,8.2" class="g11_1" />
<path d="M458.6,967c0,-0.2,0,8.2,0,8.2" class="g11_1" />
<path d="M459.8,967c0,-0.2,0,8.2,0,8.2" class="g11_1" />
<path d="M425.6,889.5l0,-4.2l36.8,0c0,0,7.8,0.2,8.7,-8.2" class="g10_1" />
<path d="M462.7,889.5c3.6,-0.2,7.1,-2.3,8.4,-3.9" class="g10_1" />
<path d="M471.1,939.2l0,-77.5c0,0,-0.3,-8.7,-10.1,-8.7c-9.9,0.1,-68.4,0,-68.4,0l0,-3.9l68.5,0c0,0,13.9,0.1,13.9,12.8c0,12.8,0,77,0,77" class="g10_1" />
<path d="M474.8,943.1l0,15.7l-3.7,0l0,-15.7" class="g10_1" />
<path d="M458.4,791.2c2.7,0,3.8,4.5,3.8,4.5c0,0,0,49.2,0,51c-0.1,1.9,-1.6,2,-1.6,2c0,0,-90.2,0.1,-91.8,0c-1.6,-0.1,-2.1,-1.5,-2.1,-1.5l0,-56Z" class="g10_1" />
<path d="M462.2,827.5l3.1,0l1.7,1.9l0,18.5l-5.3,0" class="g10_1" />
<path d="M439.7,960.1l8.7,-1.5" class="g11_1" />
<path d="M439.7,958.4l8.7,-1.4" class="g11_1" />
<path d="M439.7,956.7l8.7,-1.4" class="g11_1" />
<path d="M439.7,955.1l8.7,-1.4" class="g11_1" />
<path d="M439.7,953.4l8.7,-1.4" class="g11_1" />
<path d="M439.7,951.8l8.7,-1.5" class="g11_1" />
<path d="M439.7,950l8.7,-1.4" class="g11_1" />
<path d="M439.7,948.3l8.7,-1.4" class="g11_1" />
<path d="M439.7,946.7l8.7,-1.5" class="g11_1" />
<path d="M439.7,945.1l8.7,-1.4" class="g11_1" />
<path d="M439.7,938.5l8.7,-1.5" class="g11_1" />
<path d="M439.7,936.8l8.7,-1.4" class="g11_1" />
<path d="M439.7,935.1l8.7,-1.4" class="g11_1" />
<path d="M439.7,933.4l8.7,-1.4" class="g11_1" />
<path d="M439.7,931.7l8.7,-1.4" class="g11_1" />
<path d="M439.7,930.1l8.7,-1.5" class="g11_1" />
<path d="M439.8,928.4l8.6,-1.4" class="g11_1" />
<path d="M439.8,926.8l8.6,-1.4" class="g11_1" />
<path d="M439.8,925.2l8.6,-1.4" class="g11_1" />
<path fill-rule="evenodd" d="M236.8,889.5l232.9,0l0,33.5L247,923l-3.9,-8.5l-2.5,-7.1l-1.7,-6l-1.2,-5.9Z" class="g12_1" />
<path d="M236.2,889.5l232,0c0,0,2,0.4,2,1.8c0,1.4,-0.1,30.2,-0.1,30.2c0,0,0.3,2,-1.9,2c-2.3,0,-221.4,0,-221.4,0" class="g10_1" />
<path d="M467.3,835.1c2.1,0,8,0.1,8,0.1" class="g14_1" />
<path d="M475.3,835.2c7,-0.1,20.1,5.2,20.1,19c0,13.9,0,132.7,0,132.7" class="g14_1" />
<path d="M467.3,843.1c2.1,0,8.1,0.2,8.1,0.2" class="g14_1" />
<path d="M475.4,843.3c7,-0.2,11.8,4.4,11.8,14.2c0,9.9,0,132.6,0,132.6" class="g14_1" />
<path d="M226,889l-89,0" class="g17_1" />
<path d="M234,924l-97,0" class="g18_1" />
<path d="M153.3,888L147,875.5l12.5,0Zm-1.1,-11.8l2.1,0l0,0.1l-0.1,0l0,0.1l0,0.1l-0.1,0l0,0.1l-0.1,0l0,0.1l-0.1,0l0,0.1l-0.1,0l-0.1,0l-0.1,0l0,0.1l-0.1,0l-0.1,0l-0.1,0l-0.1,0l-0.1,0l-0.1,0l-0.1,0l0,-0.1l-0.1,0l-0.1,0l-0.1,0l0,-0.1l-0.1,0l0,-0.1l-0.1,0l0,-0.1l-0.1,0l0,-0.1l0,-0.1l-0.1,0l0,-0.1Zm2.1,-20.8l0,20.8l-2.1,0l0,-20.8Zm0,0l-2.1,0l0,-0.1l0.1,0l0,-0.1l0,-0.1l0.1,0l0,-0.1l0.1,-0.1l0.1,0l0,-0.1l0.1,0l0.1,0l0,-0.1l0.1,0l0.1,0l0.1,0l0.1,0l0.1,0l0.1,0l0.1,0l0.1,0l0.1,0l0,0.1l0.1,0l0.1,0l0,0.1l0.1,0l0.1,0.1l0,0.1l0.1,0l0,0.1l0.1,0.1l0,0.1Z" class="g6_1" />
<path d="M153.3,926.1l6.2,12.4l-12.5,0Zm-1.1,11.8l0,0l0,-0.1l0.1,0l0,-0.1l0,-0.1l0.1,0l0,-0.1l0.1,0l0,-0.1l0.1,0l0.1,-0.1l0.1,0l0.1,0l0.1,0l0,-0.1l0.1,0l0.1,0l0.1,0l0.1,0l0.1,0l0.1,0.1l0.1,0l0.1,0l0.1,0.1l0.1,0l0,0.1l0.1,0l0,0.1l0.1,0l0,0.1l0,0.1l0.1,0l0,0.1Zm2.1,18.7l-2.1,0l0,-18.7l2.1,0Zm0,0l0,0l0,0.1l-0.1,0l0,0.1l0,0.1l-0.1,0l0,0.1l-0.1,0l-0.1,0.1l-0.1,0l-0.1,0l0,0.1l-0.1,0l-0.1,0l-0.1,0l-0.1,0l-0.1,0l-0.1,0l-0.1,0l-0.1,0l-0.1,0l0,-0.1l-0.1,0l-0.1,0L152.5,957l-0.1,0l0,-0.1l-0.1,0l0,-0.1l0,-0.1l-0.1,-0.1Z" class="g6_1" />
<path fill-rule="evenodd" d="M207.2,247.9C222.6,239,238,230.1,253.5,221.1c0.5,-0.7,1.1,-1.5,1.7,-2.3c0.2,-0.3,0.3,-0.6,0.2,-0.7c-0.1,-0.2,-0.3,-0.3,-0.7,-0.3c-1,0.1,-2,0.2,-3,0.3c-15.2,8.8,-30.5,17.6,-45.7,26.5c0.4,1.1,0.8,2.2,1.2,3.3Z" class="g15_1" />
<path d="M195.9,254.4c19.2,-11.1,38.4,-22.2,57.6,-33.3c0.5,-0.7,1.1,-1.5,1.7,-2.3c0.2,-0.3,0.3,-0.6,0.2,-0.7c-0.1,-0.2,-0.3,-0.3,-0.7,-0.3c-1,0.1,-2,0.2,-3,0.3c-19,11,-38,21.9,-57,33" class="g10_1" />
<path d="M252.5,220.9c0.2,-0.6,0.6,-1.1,1,-1.4c0.4,-0.4,1.1,-0.7,1.7,-0.9" class="g11_1" />
<path d="M251.1,219c0.7,0,1.5,-0.1,2.1,-0.3c0.7,-0.2,1.2,-0.5,1.7,-0.8" class="g11_1" />
<path fill-rule="evenodd" d="M211.7,235.9c-0.9,0.5,-1.7,1,-2.6,1.5c-0.5,0.3,-0.9,0.7,-1.2,1.1c-0.3,0.4,-0.5,1,-0.7,1.6c0,0.4,0,0.7,-0.1,0.9c-0.1,0.1,-0.3,0.1,-0.6,0c-0.9,-0.6,-1.9,-1,-2.7,-1.1c-0.9,-0.1,-1.9,0.1,-2.8,0.4c-9.2,5.4,-18.4,10.7,-27.6,16c-2.1,2,-3.3,4,-3.6,5.9c-0.3,1.9,0.3,3.8,1.6,5.6c1.6,1.9,3.4,3.1,5.3,3.4c1.8,0.3,3.9,-0.2,6.1,-1.5c8.6,-5,17.3,-10,26,-15c0.9,-0.8,1.6,-1.7,2,-2.5c0.4,-0.9,0.6,-1.9,0.6,-2.9c0,-0.4,0.1,-0.7,0.3,-0.8c0.2,-0.1,0.5,0.1,0.8,0.4c0.4,0.2,0.9,0.5,1.4,0.5c0.5,0,1,-0.1,1.4,-0.3c1,-0.5,2,-1.1,3.1,-1.7c0.8,-0.9,1.2,-2.1,1.2,-3.4c-0.1,-1.4,-0.7,-2.9,-1.8,-4.6c-1.1,-1.5,-2.2,-2.6,-3.1,-3.1c-1,-0.6,-2.1,-0.7,-3,-0.4Z" class="g15_1" />
<path d="M207.4,241c-0.1,-1.5,0.4,-2.8,1.3,-3.3c0.9,-0.5,1.9,-1.1,2.9,-1.7c1.8,-1,4.7,0.7,6.6,3.9c1.8,3.1,1.8,6.5,0,7.6c-0.9,0.5,-1.9,1.1,-2.9,1.6c-1,0.6,-2.3,0.3,-3.7,-0.5" class="g10_1" />
<path d="M210.8,249.9c-0.1,-1.5,-0.7,-3.2,-1.7,-4.9c-0.6,-1.3,-1.5,-2.3,-2.5,-3.1" class="g11_1" />
<path d="M211.4,247.9c0,-1.1,-0.4,-2.4,-1.1,-3.5c-0.6,-1.2,-1.5,-2.1,-2.4,-2.7" class="g11_1" />
<path d="M213.3,248.4c-0.6,-0.1,-1.1,-0.1,-1.4,-0.1c-0.3,0.1,-0.5,0.4,-0.5,0.8c0,1.2,-0.3,2.4,-0.7,3.2c-0.4,0.9,-1,1.7,-1.8,2.2c-9.2,5.3,-18.4,10.6,-27.6,16c-1.3,0.6,-2.1,0.8,-3.4,0.8c-4.4,0,-8,-3.7,-8,-8.1c0,-2.6,1.4,-5.1,3.4,-6.6c9.2,-5.4,18.4,-10.7,27.6,-16.1c0.7,-0.3,1.6,-0.5,2.5,-0.5c0.9,0.1,2,0.5,3,1c0.5,0.3,1,0.3,1.2,0.1c0.3,-0.1,0.6,-0.5,0.7,-1.1" class="g10_1" />
<path d="M174.6,256.6c2.1,0.2,4.6,2.1,6.2,5c1.6,2.7,2,5.6,1.4,7.5" class="g11_1" />
<path d="M214.7,249c1.5,-1.1,1.3,-4.1,-0.3,-7c-1.6,-2.8,-4.2,-4.5,-5.9,-3.8" class="g11_1" />
<path d="M178.6,256.7l24.9,-14.5" class="g11_1" />
<path d="M181,258.1l24.1,-14.4" class="g11_1" />
<path d="M183.6,263.1L208,248.3" class="g11_1" />
<path d="M184.1,265.9L208.5,251" class="g11_1" />
<path d="M181,258.1c-1,0.6,-4,-0.1,-2.4,-1.4" class="g11_1" />
<path d="M183.6,263.1c-1.4,0.9,-1.3,3.5,0.5,2.8" class="g11_1" />
<path d="M208.5,251c1.4,-0.7,1.7,-4.1,-0.5,-2.7" class="g11_1" />
<path d="M205.1,243.7c1.5,-0.8,0.1,-2.5,-1.6,-1.5" class="g11_1" />
<path d="M213.9,342L249,327.1" class="g10_1" />
<path d="M250.6,327.2l90.8,29.2" class="g10_1" />
<path d="M213.4,344.2l84.7,27.2" class="g11_1" />
<path d="M305.7,371.2l35.7,-14.8" class="g11_1" />
<path d="M306.2,408l37.1,-15.5l0.1,-33.8" class="g10_1" />
<path d="M214.3,381.1L298,408.4" class="g10_1" />
<path d="M212.7,344.2l0,35.3" class="g10_1" />
<path d="M223.5,363.1l0,6.3l2.4,0.8" class="g11_1" />
<path d="M223.5,363.1l2.9,0.9" class="g11_1" />
<path d="M223.5,363.1l0.9,0.7l0,4.7l-0.9,0.9" class="g11_1" />
<path d="M224.4,363.8l0.7,0.1l0,4.4l-0.7,0.2" class="g11_1" />
<path d="M224.4,368.5l2.2,0.9" class="g11_1" />
<path d="M225.1,368.3c0,0,1.9,0.9,2.1,0.8" class="g11_1" />
<path d="M225.1,368.3l3,-1.2" class="g11_1" />
<path d="M225.9,370.2c0,0,2,0.5,2.4,-1.8" class="g11_1" />
<path d="M226.6,369.4c0,0,0.9,0.2,1.6,-1" class="g11_1" />
<path d="M226.4,364.1c0,0,2,1.1,1.8,4.4" class="g10_1" />
<path d="M227.2,369.1c0,0,0.5,-0.1,0.9,-0.5" class="g10_1" />
<path d="M243.7,369.6l0.1,6.3l2.4,0.8" class="g11_1" />
<path d="M243.7,369.6l3,0.9" class="g11_1" />
<path d="M243.7,369.6l1,0.7l0,4.7l-0.9,0.9" class="g11_1" />
<path d="M244.7,370.3l0.7,0.1l0,4.4l-0.7,0.2" class="g11_1" />
<path d="M244.7,375l2.2,0.9" class="g11_1" />
<path d="M245.4,374.8c0,0,1.9,0.9,2.1,0.8" class="g11_1" />
<path d="M245.4,374.8l3,-1.2" class="g11_1" />
<path d="M246.2,376.7c0,0,2,0.5,2.3,-1.8" class="g11_1" />
<path d="M246.9,375.9c0,0,0.9,0.2,1.6,-1" class="g11_1" />
<path d="M246.6,370.6c0,0,2.1,0.9,1.9,4.4" class="g10_1" />
<path d="M247.5,375.6c0,0,0.5,-0.1,0.8,-0.5" class="g10_1" />
<path d="M236.8,377.8L231,375.9l0.1,-3.4l0.9,0.6l0,2.1l5,1.7l-0.1,-0.5l-4.4,-1.5l2.2,-1l-2.2,-0.7l0,1.7l-0.5,0.3l-0.9,0.7" class="g11_1" />
<path d="M231.2,372.5l5.8,1.9l-0.1,3.3" class="g10_1" />
<path d="M257,384.4l-5.9,-1.9l0.1,-3.5l0.9,0.6l0,2.1l5,1.7L257,382.9l-4.4,-1.4l2.3,-1l-2.3,-0.7l0,1.7l-0.5,0.2l-0.9,0.8" class="g11_1" />
<path d="M251.3,379l5.8,1.9l0,3.3" class="g10_1" />
<path d="M237.2,366.9l-6.7,-2.2l0,-3.5l1,0.6l-0.1,2.2l0.6,-0.4l2.3,-0.9L232,361.9l0,1.7l5.4,1.8l0,0.5l-6,-1.9l-0.9,0.7" class="g11_1" />
<path d="M230.6,361.2l6.8,2.3l0,3.3" class="g10_1" />
<path d="M257.4,373.4l-6.7,-2.2l-0.1,-3.5l1,0.6l0,2.2l0.5,-0.4l2.3,-0.9l-2.3,-0.8l0,1.7l5.4,1.8l0,0.5l-5.9,-1.9l-0.9,0.7" class="g11_1" />
<path d="M250.7,367.7l6.9,2.2l-0.1,3.4" class="g10_1" />
<path d="M299.5,375.5l0,28" class="g11_1" />
<path d="M303.5,376.5l0,28" class="g11_1" />
<path d="M214.3,381.1c0,0,-1.6,-0.4,-1.6,-1.6" class="g10_1" />
<path d="M306.2,408c0,0,-3.1,1.4,-8.2,0.4" class="g10_1" />
<path d="M305.7,371.2c0,0,-2.5,1.1,-7.6,0.2" class="g11_1" />
<path d="M341.4,356.4c0,0,1.8,0.2,2,2.3" class="g10_1" />
<path d="M213.9,342c0,0,-1.2,0.5,-1.2,2.2" class="g10_1" />
<path d="M213.9,342c0,0,-1.9,1.2,-0.5,2.2" class="g11_1" />
<path d="M249,327.1c0,0,0.9,-0.1,1.6,0.1" class="g10_1" />
<path d="M214.9,342.1l35.8,-14.9" class="g11_1" />
<path d="M215,344.2L298.6,371" class="g11_1" />
<path d="M305.5,370.7L340.3,356" class="g11_1" />
<path d="M298.6,371c0,0,3.9,1,6.9,-0.3" class="g11_1" />
<path d="M214.9,342.1c0,0,-1.4,1.1,0.1,2.1" class="g11_1" />
<path d="M330.2,399.1l-21.6,9.1" class="g10_1" />
<path d="M330.2,399.1c0,0,0.9,-0.4,0.9,-1.5" class="g10_1" />
<path d="M308.6,408.2c0,0,-2.6,0.6,-3.9,0.2" class="g10_1" />
<path d="M271.5,387.5l0,-4" class="g11_1" />
<path d="M279.7,390.8l-7.4,-2.5" class="g11_1" />
<path d="M280,386l0,4" class="g10_1" />
<path d="M272.8,383.2l7,2.4" class="g10_1" />
<path d="M271.8,383.8c0,0,0.1,-0.9,1,-0.6" class="g11_1" />
<path d="M279.8,385.6c0,0,0.7,0.1,0.7,1" class="g10_1" />
<path d="M272.3,388.3c0,0,-0.5,-0.2,-0.5,-1" class="g11_1" />
<path d="M280.5,390.5c0,0,0,0.5,-0.8,0.3" class="g11_1" />
<path d="M273.5,386.5l0,-3" class="g11_1" />
<path d="M280.5,390.1l-7,-2.3" class="g11_1" />
<path d="M273.5,387.8c0,0,-0.5,-0.2,-0.5,-1" class="g11_1" />
<path d="M274.2,384.3l5.8,1.9l0,1.3l-5.8,-1.9Z" class="g11_1" />
<path d="M273.2,387.5l3,-1.3" class="g11_1" />
<path d="M274.2,384.3l0.9,-0.3" class="g11_1" />
<path d="M280,386.2l0.4,-0.1" class="g11_1" />
<path d="M280,387.5l0.5,-0.2" class="g11_1" />
<path d="M271.5,380.5l0,-4" class="g11_1" />
<path d="M279.5,383.5L272.1,381" class="g11_1" />
<path d="M280,379l0,4" class="g10_1" />
<path d="M272.6,375.9l7,2.4" class="g10_1" />
<path d="M271.6,376.5c0,0,0.1,-0.9,1,-0.6" class="g11_1" />
<path d="M279.6,378.3c0,0,0.7,0.1,0.7,1" class="g10_1" />
<path d="M272.1,381c0,0,-0.5,-0.2,-0.5,-1" class="g11_1" />
<path d="M280.3,383.2c0,0,0,0.5,-0.8,0.3" class="g11_1" />
<path d="M272.5,379.5l0,-3" class="g11_1" />
<path d="M280.3,382.8l-7,-2.3" class="g11_1" />
<path d="M273.3,380.5c0,0,-0.5,-0.2,-0.5,-1" class="g11_1" />
<path d="M274,377l5.8,2l0,1.2L274,378.3Z" class="g11_1" />
<path d="M273,380.3l3,-1.4" class="g11_1" />
<path d="M274,377l0.9,-0.3" class="g11_1" />
<path d="M279.8,379l0.4,-0.2" class="g11_1" />
<path d="M279.8,380.2l0.5,-0.2" class="g11_1" />
<path d="M320.4,478.5l-0.1,-75.2" class="g11_1" />
<path d="M279.3,478.2l38,12.5" class="g10_1" />
<path d="M276.4,469.6l0.1,4" class="g10_1" />
<path d="M276.5,417.8l0,45.8" class="g10_1" />
<path d="M276.5,401.4l0,6.1" class="g10_1" />
<path d="M311.2,480l8.5,2.7" class="g11_1" />
<path d="M276.9,468.8l8.9,2.9" class="g11_1" />
<path d="M312.7,479.1l8.7,2.8" class="g10_1" />
<path d="M278.7,468l7.9,2.6" class="g10_1" />
<path d="M311.1,476l8.7,2.8" class="g10_1" />
<path d="M277.3,465l8.5,2.8" class="g10_1" />
<path d="M289,434.2l18.8,6.1" class="g11_1" />
<path d="M291.2,433.7l18.6,6.3" class="g10_1" />
<path d="M269.9,415.7l18.5,6" class="g10_1" />
<path d="M269.9,413.1l18.8,6.1" class="g11_1" />
<path d="M321.9,477.9L322,402.5" class="g10_1" />
<path d="M285.5,420.7l0,7.7" class="g11_1" />
<path d="M287.3,421.3l-0.1,6" class="g10_1" />
<path d="M311.3,407.1l0,29.9" class="g10_1" />
<path d="M269.6,411.3l13.7,-5.9" class="g10_1" />
<path d="M284.6,404.1c0,0,-0.6,1,-1.3,1.3" class="g10_1" />
<path d="M269,412l0,2" class="g10_1" />
<path d="M269.6,411.3c0,0,-0.5,0.3,-0.5,1.2" class="g10_1" />
<path d="M269.1,414.8c0,0,0.1,0.6,0.8,0.9" class="g10_1" />
<path d="M269.2,412.1c-0.1,0.2,0.2,0.8,0.7,1" class="g11_1" />
<path d="M293.1,419l14.4,-6.1" class="g11_1" />
<path d="M293.8,421.4l13.7,-5.8" class="g10_1" />
<path d="M288.7,419.2c0,0,3.3,0.3,4.4,-0.2" class="g11_1" />
<path d="M288.4,421.7c0,0,3,0.4,5.4,-0.3" class="g10_1" />
<path d="M310.3,407.5c0,-0.1,-0.8,3.7,-2.8,5.4" class="g11_1" />
<path d="M311.3,410.1c0,0,-1.7,4.5,-3.8,5.5" class="g10_1" />
<path d="M285.5,428.4c0,0,0.6,4.4,3.5,5.8" class="g11_1" />
<path d="M287.2,427.3c0,0,0.2,4.5,4,6.4" class="g10_1" />
<path d="M311.3,436.9c0,0,0,2.3,-1.5,3.1c-1.5,0.7,-2,0.3,-2,0.3" class="g10_1" />
<path d="M321.9,477.9c0,0,-1.6,0.9,-2.1,0.9" class="g10_1" />
<path d="M320.4,483.8l-0.1,4.2" class="g11_1" />
<path d="M322,483l0.1,4.3" class="g10_1" />
<path d="M310.3,476.3l0,2.7" class="g11_1" />
<path d="M312,476.3l0,1.9" class="g10_1" />
<path d="M310.3,479c0,0,0.2,0.8,0.9,1" class="g11_1" />
<path d="M311.1,476c0,0,-0.8,0,-0.8,0.3" class="g10_1" />
<path d="M312,478.2c0,0,0.3,0.8,0.7,0.9" class="g10_1" />
<path d="M319.7,482.7c0,0,0.7,0.5,0.7,1.1" class="g11_1" />
<path d="M321.4,481.9c0,0,0.6,0.4,0.6,1.1" class="g10_1" />
<path d="M320.3,488c0,0,-0.1,1.6,-0.9,2.2" class="g11_1" />
<path d="M317.3,490.7c0,0,2.1,0.2,3.1,-0.9" class="g10_1" />
<path d="M322.1,487.3c0,0,-0.4,2,-1.9,2.7" class="g10_1" />
<path d="M276.5,473.6c0,0,-0.1,3.4,2.8,4.6" class="g10_1" />
<path d="M276.5,463.6c0,0,-0.1,1.1,0.8,1.4" class="g10_1" />
<path d="M286.6,468.7l0,2.4" class="g10_1" />
<path d="M285.8,467.8c0,0,0.7,0.2,0.8,0.9" class="g10_1" />
<path d="M286.6,471.1c0,0,-0.1,0.5,-0.8,0.6" class="g10_1" />
<path d="M278.7,468l-1.8,0.8c0,0,-0.5,0.4,-0.5,0.8" class="g10_1" />
<path fill-rule="evenodd" d="M255.2,496.5L330.3,521l0,17.2L255.2,513.8Z" class="g15_1" />
<path d="M130.6,507.3l68.1,-28.9l196.1,63" class="g10_1" />
<path d="M223.5,363.1l2.9,1" class="g10_1" />
<path d="M246.6,370.6l-2.9,-1" class="g10_1" />
<path d="M227.3,370c0.7,-0.5,0.8,-1.1,0.9,-1.9" class="g10_1" />
<path d="M247.6,376.7c0.7,-0.5,0.8,-1.1,0.9,-1.9" class="g10_1" />
<path d="M703.5,862.9c1,0.1,2.1,0,3.2,-0.4" class="g11_1" />
<path d="M712.9,859c0.9,4.7,-8.9,9.4,-11.1,4.6c-0.2,-0.2,-0.3,-0.4,-0.4,-0.7" class="g11_1" />
<path d="M702.9,866.8c2.3,5.1,13.2,-0.5,10.9,-5.4" class="g11_1" />
<path d="M704.7,865.5c1.5,3.3,8.5,-0.3,7.1,-3.4" class="g11_1" />
<path d="M712.9,860.1c0.5,0.4,0.5,0.7,0.7,1.1c0,0,0.9,1.8,1.3,2.9c2.2,4.9,-8.5,10.4,-10.8,5.4c-0.8,-1.8,-1,-2.1,-1,-2.1c-0.2,-0.4,-0.4,-1.1,-0.2,-1.9" class="g11_1" />
<path d="M705.7,872.6c2.2,5.1,13.1,-0.4,10.9,-5.2" class="g11_1" />
<path d="M707.5,871.3c1.4,3.3,8.5,-0.2,7,-3.3" class="g11_1" />
<path d="M715.3,865.7c0.6,0.3,0.9,1,1.1,1.4c0,0,0.8,1.9,1.3,3c2.1,4.9,-8.7,10.2,-11,5.2c-0.7,-1.8,-0.9,-2.2,-0.9,-2.1c-0.2,-0.4,-0.4,-1.2,-0.1,-1.9" class="g11_1" />
<path d="M708.4,878.5c1.9,5.2,13.1,0.2,11.1,-4.7" class="g11_1" />
<path d="M710.2,877.3c1.3,3.4,8.5,0.2,7.2,-3" class="g11_1" />
<path d="M718.2,872.1c0.7,0.3,1,1,1.1,1.4c0,0,0.8,1.9,1.2,3c1.9,5,-9.1,9.9,-11.2,4.7c-0.7,-1.7,-0.8,-2.1,-0.8,-2.1c-0.2,-0.4,-0.4,-1.2,-0.1,-1.9" class="g11_1" />
<path d="M710.5,884.3c1.7,5.3,13.1,0.9,11.4,-4.2" class="g11_1" />
<path d="M712.4,883.2c1.1,3.4,8.5,0.6,7.3,-2.7" class="g11_1" />
<path d="M720.7,878.4c0.6,0.3,0.8,1,1,1.4c0,0,0.6,2,1,3.1c1.7,5.1,-9.6,9.4,-11.4,4.2c-0.6,-1.8,-0.7,-2.2,-0.7,-2.1c-0.2,-0.5,-0.4,-1.3,0,-2" class="g11_1" />
<path d="M712.4,890.2c1.7,5.3,13.2,1,11.5,-4.1" class="g11_1" />
<path d="M714.4,889.1c1,3.4,8.5,0.7,7.4,-2.6" class="g11_1" />
<path d="M722.7,884.3c0.6,0.4,0.9,1.1,1,1.5c0,0,0.6,2,1,3.1c1.6,5.1,-9.7,9.3,-11.4,4.1c-0.6,-1.9,-0.8,-2.3,-0.7,-2.2c-0.2,-0.4,-0.4,-1.2,0,-1.9" class="g11_1" />
<path d="M714.6,896c1.5,5.3,13,1.3,11.5,-3.8" class="g11_1" />
<path d="M716.5,895c1,3.4,8.5,0.8,7.4,-2.5" class="g11_1" />
<path d="M724.9,890.4c0.7,0.4,0.9,1.1,1,1.5c0,0,0.6,2,0.9,3.1c1.5,5.1,-9.9,9.1,-11.5,3.8c-0.6,-1.8,-0.7,-2.2,-0.6,-2.1c-0.2,-0.5,-0.4,-1.3,0,-2" class="g11_1" />
<path d="M716.3,902c1.5,5.4,13.1,1.6,11.6,-3.6" class="g11_1" />
<path d="M718.2,901.1c1,3.4,8.5,0.9,7.5,-2.4" class="g11_1" />
<path d="M726.7,896.6c0.7,0.4,0.9,1.1,1,1.5c0,0,0.5,2,0.9,3.2c1.4,5.1,-10.1,8.9,-11.6,3.6c-0.5,-1.9,-0.6,-2.3,-0.6,-2.2c-0.2,-0.4,-0.3,-1.2,0.1,-1.9" class="g11_1" />
<path d="M717.8,908.1c1.3,5.4,13,2,11.7,-3.2" class="g11_1" />
<path d="M719.8,907.2c0.8,3.5,8.4,1.3,7.6,-2.1" class="g11_1" />
<path d="M728.5,903.1c0.6,0.4,0.7,1.1,0.9,1.5c0,0,0.4,2,0.7,3.2c1.2,5.2,-10.4,8.5,-11.7,3.2c-0.4,-1.9,-0.5,-2.3,-0.5,-2.2c-0.2,-0.5,-0.3,-1.3,0.1,-1.9" class="g11_1" />
<path d="M719.3,914.3c1.3,5.4,13,2,11.7,-3.2" class="g11_1" />
<path d="M721.3,913.4c0.8,3.5,8.4,1.3,7.6,-2.1" class="g11_1" />
<path d="M729.9,909.3c0.7,0.4,0.8,1.1,1,1.5c0,0,0.4,2,0.7,3.2c1.2,5.2,-10.4,8.6,-11.7,3.2c-0.5,-1.9,-0.5,-2.3,-0.5,-2.2c-0.2,-0.4,-0.3,-1.3,0.1,-1.9" class="g11_1" />
<path d="M720.5,920.3c1.2,5.4,13,2.2,11.7,-3" class="g11_1" />
<path d="M722.5,919.4c0.8,3.5,8.4,1.5,7.6,-1.9" class="g11_1" />
<path d="M731.2,915.4c0.6,0.4,0.8,1.2,0.9,1.6c0,0,0.4,2,0.7,3.2c1.1,5.2,-10.5,8.4,-11.7,3c-0.5,-1.9,-0.5,-2.3,-0.5,-2.2c-0.2,-0.5,-0.3,-1.3,0.2,-1.9" class="g11_1" />
<path d="M721.4,926.2c0.9,5.5,12.8,2.9,11.9,-2.3" class="g11_1" />
<path d="M723.4,925.4c0.6,3.6,8.3,1.9,7.7,-1.5" class="g11_1" />
<path d="M732.4,922c0.6,0.4,0.7,1.1,0.8,1.6c0,0,0.3,2,0.5,3.2c0.8,5.2,-11,7.8,-11.9,2.3c-0.3,-1.9,-0.4,-2.3,-0.4,-2.2c-0.1,-0.5,-0.2,-1.3,0.3,-1.9" class="g11_1" />
<path d="M722.3,932.5c0.5,5.5,12.6,3.7,12,-1.6" class="g11_1" />
<path d="M724.4,931.8c0.3,3.6,8.1,2.4,7.7,-1" class="g11_1" />
<path d="M733.5,928.9c0.5,0.5,0.6,1.2,0.7,1.6c0,0,0.2,2.1,0.3,3.3c0.5,5.3,-11.4,7.1,-12,1.6c-0.2,-1.9,-0.3,-2.3,-0.3,-2.3c-0.1,-0.4,0,-1.3,0.5,-1.9" class="g11_1" />
<path d="M723,938.7c0.5,5.6,12.6,4,12.1,-1.3" class="g11_1" />
<path d="M725.1,938.1c0.3,3.6,8.2,2.6,7.8,-0.8" class="g11_1" />
<path d="M734.3,935.4c0.6,0.4,0.6,1.2,0.7,1.6c0,0,0.1,2.1,0.2,3.3c0.5,5.3,-11.5,6.9,-12,1.3C723,939.8,723,939.3,723,939.4c-0.1,-0.4,-0.1,-1.3,0.5,-1.9" class="g11_1" />
<path d="M723.5,945.1c0.4,5.5,12.6,4,12.1,-1.3" class="g11_1" />
<path d="M725.6,944.5c0.3,3.6,8.2,2.6,7.8,-0.8" class="g11_1" />
<path d="M734.8,941.8c0.6,0.5,0.6,1.2,0.7,1.6c0,0,0.1,2.1,0.2,3.3c0.4,5.3,-11.5,6.8,-12,1.3c-0.2,-1.9,-0.2,-2.3,-0.2,-2.2c-0.1,-0.5,-0.1,-1.3,0.5,-1.9" class="g11_1" />
<path d="M723.8,951.5c0.3,5.5,12.5,4.1,12,-1.2" class="g11_1" />
<path d="M725.9,950.9c0.2,3.6,8.1,2.7,7.8,-0.8" class="g11_1" />
<path d="M735.1,948.3c0.6,0.4,0.6,1.2,0.7,1.6c0,0,0.1,2.1,0.2,3.3c0.3,5.3,-11.7,6.7,-12.1,1.2c-0.1,-1.9,-0.2,-2.3,-0.2,-2.2c-0.1,-0.5,0,-1.3,0.5,-1.9" class="g11_1" />
<path d="M724,957.3c0.1,5.6,12.3,4.6,12.1,-0.7" class="g11_1" />
<path d="M726.1,956.9c0.1,3.5,8,2.9,7.9,-0.5" class="g11_1" />
<path d="M735.4,954.6c0.6,0.5,0.6,1.2,0.6,1.6c0,0,0.1,2.1,0.1,3.3c0.2,5.3,-11.9,6.3,-12.1,0.7c-0.1,-1.9,-0.1,-2.3,-0.1,-2.2c-0.1,-0.5,0,-1.3,0.6,-1.8" class="g11_1" />
<path d="M723.9,963.5c-0.1,5.6,12.2,5.1,12.1,-0.3" class="g11_1" />
<path d="M726.1,963.1c-0.1,3.6,7.8,3.3,7.8,-0.2" class="g11_1" />
<path d="M735.5,961.2c0.5,0.5,0.5,1.3,0.5,1.7c0,0,-0.1,2.1,-0.1,3.2c0,5.4,-12.1,5.9,-12.1,0.3c0,-1.9,0,-2.3,0,-2.2c0,-0.5,0.1,-1.3,0.7,-1.9" class="g11_1" />
<path d="M723.8,969.6c-0.2,5.5,12,5.2,12.1,-0.1" class="g11_1" />
<path d="M725.9,969.2c-0.1,3.6,7.8,3.4,7.9,-0.1" class="g11_1" />
<path d="M735.3,967.4c0.5,0.6,0.5,1.3,0.5,1.7c0,0,-0.1,2.1,-0.1,3.3c-0.1,5.3,-12.2,5.6,-12.1,0.1c0,-1.9,0.1,-2.4,0,-2.3c0,-0.5,0.1,-1.3,0.7,-1.8" class="g11_1" />
<path d="M723.4,975.7c-0.3,5.5,11.9,5.6,12.1,0.3" class="g11_1" />
<path d="M725.6,975.4c-0.2,3.6,7.7,3.7,7.8,0.2" class="g11_1" />
<path d="M735.1,973.9c0.5,0.6,0.4,1.3,0.4,1.8c0,0,-0.1,2,-0.2,3.2c-0.3,5.3,-12.4,5.2,-12.1,-0.3c0.1,-1.9,0.1,-2.3,0.1,-2.2c0,-0.5,0.1,-1.3,0.7,-1.8" class="g11_1" />
<path d="M723.1,982.1c-0.3,5.5,11.9,5.5,12.1,0.2" class="g11_1" />
<path d="M725.2,981.8c-0.2,3.5,7.8,3.6,7.9,0.1" class="g11_1" />
<path d="M734.7,980.2c0.5,0.6,0.4,1.3,0.4,1.8c0,0,-0.1,2,-0.1,3.2c-0.3,5.3,-12.4,5.3,-12.2,-0.2c0.1,-1.9,0.2,-2.4,0.1,-2.3c0,-0.5,0.2,-1.3,0.8,-1.8" class="g11_1" />
<path d="M722.6,988c-0.5,5.6,11.8,6,12.1,0.7" class="g11_1" />
<path d="M724.8,987.8c-0.3,3.6,7.6,3.9,7.8,0.4" class="g11_1" />
<path d="M734.3,986.6c0.5,0.6,0.4,1.3,0.4,1.8c0,0,-0.2,2,-0.3,3.2c-0.5,5.3,-12.5,4.9,-12.1,-0.7c0.2,-1.9,0.2,-2.3,0.2,-2.2c0,-0.5,0.1,-1.3,0.7,-1.8" class="g11_1" />
<path d="M722.1,994.2c-0.5,5.6,11.7,6,12.1,0.7" class="g11_1" />
<path d="M724.3,994c-0.4,3.6,7.6,3.9,7.8,0.5" class="g11_1" />
<path d="M733.8,992.8c0.5,0.6,0.4,1.4,0.4,1.8c0,0,-0.2,2,-0.3,3.2c-0.5,5.3,-12.6,4.9,-12.1,-0.7c0.1,-1.9,0.2,-2.3,0.1,-2.2c0,-0.5,0.2,-1.3,0.8,-1.8" class="g11_1" />
<path d="M668,712.1c0.6,4.3,9.8,5.6,11.7,1.8" class="g11_1" />
<path d="M679.9,716c-0.3,5.6,-12.5,4.1,-12,-1.2" class="g11_1" />
<path d="M677.8,715.5c-0.2,3.6,-8.1,2.6,-7.8,-0.9" class="g11_1" />
<path d="M668.3,713.2c-0.3,0.5,-0.3,0.8,-0.3,1.2c0,0,-0.1,2.1,-0.2,3.3c-0.4,5.3,11.6,6.8,12,1.3c0.2,-1.9,0.2,-2.4,0.2,-2.3c0.1,-0.4,0,-1.3,-0.5,-1.9" class="g11_1" />
<path d="M679.4,722.4c-0.3,5.6,-12.5,4.2,-12.1,-1.1" class="g11_1" />
<path d="M677.3,721.9c-0.2,3.5,-8.1,2.7,-7.8,-0.8" class="g11_1" />
<path d="M668,719.3c-0.5,0.5,-0.5,1.2,-0.6,1.6c0,0,-0.1,2.1,-0.2,3.3c-0.3,5.3,11.7,6.6,12.1,1.1c0.1,-1.9,0.1,-2.3,0.1,-2.2c0.1,-0.5,0.1,-1.3,-0.5,-1.9" class="g11_1" />
<path d="M678.9,728.9c-0.1,5.5,-12.3,4.7,-12.1,-0.6" class="g11_1" />
<path d="M676.7,728.4c0,3.6,-7.9,3.1,-7.8,-0.4" class="g11_1" />
<path d="M667.4,726.2c-0.5,0.5,-0.5,1.3,-0.5,1.7c0,0,-0.1,2.1,-0.1,3.3c-0.1,5.3,12,6.1,12.1,0.6c0.1,-1.9,0.1,-2.3,0.1,-2.2c0,-0.5,-0.1,-1.3,-0.6,-1.9" class="g11_1" />
<path d="M678.9,735.1c0.2,5.5,-12,5.3,-12.1,0" class="g11_1" />
<path d="M676.7,734.7c0.2,3.6,-7.8,3.5,-7.8,0" class="g11_1" />
<path d="M667.3,733c-0.5,0.5,-0.5,1.3,-0.5,1.7c0,0,0.1,2.1,0.1,3.3c0.2,5.3,12.3,5.5,12.2,0C679,736.1,679,735.7,679,735.8c0,-0.5,-0.1,-1.3,-0.7,-1.9" class="g11_1" />
<path d="M679.1,741.3c0.2,5.5,-12,5.4,-12.2,0.1" class="g11_1" />
<path d="M676.9,740.9c0.2,3.6,-7.8,3.6,-7.8,0.1" class="g11_1" />
<path d="M667.4,739.3c-0.4,0.6,-0.4,1.3,-0.4,1.7c0,0,0.1,2.1,0.1,3.3c0.3,5.3,12.3,5.4,12.2,-0.1c-0.1,-1.9,-0.1,-2.4,-0.1,-2.3c0,-0.4,-0.1,-1.3,-0.7,-1.8" class="g11_1" />
<path d="M679.1,747.5c0.4,5.5,-11.9,5.7,-12.1,0.4" class="g11_1" />
<path d="M676.9,747.2c0.3,3.6,-7.7,3.7,-7.8,0.2" class="g11_1" />
<path d="M667.4,745.8c-0.5,0.5,-0.4,1.3,-0.4,1.7c0,0,0.2,2.1,0.2,3.3c0.4,5.3,12.5,5.1,12.1,-0.4c-0.1,-1.9,-0.1,-2.4,-0.1,-2.3c0,-0.5,-0.1,-1.3,-0.7,-1.8" class="g11_1" />
<path d="M679.5,753.7c0.5,5.6,-11.7,5.9,-12.1,0.6" class="g11_1" />
<path d="M677.3,753.5c0.3,3.6,-7.6,3.8,-7.8,0.4" class="g11_1" />
<path d="M667.8,752.2c-0.4,0.6,-0.4,1.4,-0.3,1.8c0,0,0.1,2,0.2,3.2c0.5,5.3,12.5,5,12.1,-0.6c-0.1,-1.9,-0.2,-2.3,-0.1,-2.2c0,-0.5,-0.2,-1.3,-0.8,-1.8" class="g11_1" />
<path d="M680.2,760c0.6,5.5,-11.6,6.3,-12.1,1" class="g11_1" />
<path d="M678,759.8c0.4,3.6,-7.5,4.1,-7.8,0.6" class="g11_1" />
<path d="M668.4,758.9c-0.4,0.5,-0.3,1.3,-0.3,1.7c0,0,0.3,2.1,0.4,3.3c0.6,5.2,12.7,4.5,12.1,-1.1c-0.2,-1.8,-0.3,-2.3,-0.3,-2.2c0,-0.5,-0.2,-1.3,-0.8,-1.7" class="g11_1" />
<path d="M680.9,766.3c0.7,5.5,-11.5,6.3,-12.1,1" class="g11_1" />
<path d="M678.7,766.1c0.5,3.6,-7.4,4.1,-7.8,0.7" class="g11_1" />
<path d="M669.2,765.2c-0.5,0.6,-0.4,1.4,-0.4,1.8c0,0,0.3,2,0.4,3.2c0.7,5.3,12.7,4.5,12.1,-1c-0.2,-1.9,-0.3,-2.3,-0.2,-2.2c0,-0.5,-0.2,-1.3,-0.8,-1.8" class="g11_1" />
<path d="M681.8,772.3c0.8,5.5,-11.4,6.6,-12,1.3" class="g11_1" />
<path d="M679.6,772.2c0.5,3.6,-7.4,4.2,-7.8,0.8" class="g11_1" />
<path d="M670.1,771.5c-0.4,0.5,-0.3,1.3,-0.3,1.7c0,0,0.3,2.1,0.4,3.2c0.8,5.3,12.8,4.3,12.1,-1.2C682.1,773.3,682,772.9,682,773c0,-0.5,-0.2,-1.3,-0.8,-1.7" class="g11_1" />
<path d="M683,778.2c1.1,5.4,-11,7.1,-11.9,1.9" class="g11_1" />
<path d="M680.8,778.2c0.7,3.5,-7.1,4.6,-7.7,1.2" class="g11_1" />
<path d="M671.2,778c-0.3,0.6,-0.2,1.3,-0.1,1.7c0,0,0.4,2.1,0.6,3.2c1,5.3,13,3.6,11.9,-1.9c-0.3,-1.8,-0.4,-2.3,-0.4,-2.2c0,-0.5,-0.2,-1.2,-0.9,-1.7" class="g11_1" />
<path d="M684.3,784.4c1.4,5.3,-10.5,7.8,-11.8,2.6" class="g11_1" />
<path d="M682.2,784.5c0.9,3.5,-6.9,5,-7.7,1.7" class="g11_1" />
<path d="M672.6,784.9c-0.4,0.6,-0.2,1.3,-0.1,1.7c0,0,0.5,2,0.8,3.2c1.4,5.2,13.2,2.7,11.8,-2.6c-0.4,-1.9,-0.5,-2.3,-0.5,-2.2c0,-0.5,-0.4,-1.3,-1,-1.6" class="g11_1" />
<path d="M685.8,790.5c1.5,5.4,-10.5,8,-11.8,2.9" class="g11_1" />
<path d="M683.6,790.7c1,3.5,-6.8,5.2,-7.6,1.8" class="g11_1" />
<path d="M674,791.2c-0.3,0.7,-0.1,1.4,0,1.8c0,0,0.5,2,0.9,3.1c1.4,5.2,13.2,2.6,11.7,-2.8c-0.5,-1.8,-0.6,-2.2,-0.5,-2.2c-0.1,-0.4,-0.4,-1.2,-1.1,-1.6" class="g11_1" />
<path d="M687.5,796.7c1.5,5.3,-10.4,8,-11.8,2.9" class="g11_1" />
<path d="M685.3,796.8c1,3.5,-6.7,5.3,-7.6,1.9" class="g11_1" />
<path d="M675.7,797.4c-0.3,0.7,-0.1,1.4,0,1.8c0,0,0.6,2,0.9,3.2c1.4,5.1,13.2,2.4,11.8,-2.9c-0.5,-1.9,-0.7,-2.3,-0.6,-2.2c-0.1,-0.5,-0.4,-1.2,-1.1,-1.6" class="g11_1" />
<path d="M689.5,802.8c1.5,5.3,-10.4,8.1,-11.8,2.9" class="g11_1" />
<path d="M687.3,802.9c1,3.5,-6.7,5.3,-7.6,2" class="g11_1" />
<path d="M677.7,803.6c-0.3,0.7,-0.1,1.4,0,1.8c0,0,0.6,2,0.9,3.1c1.5,5.1,13.2,2.4,11.7,-3c-0.5,-1.8,-0.6,-2.2,-0.6,-2.1c0,-0.5,-0.4,-1.3,-1.1,-1.6" class="g11_1" />
<path d="M691.3,808.3c1.7,5.3,-10,8.6,-11.6,3.5" class="g11_1" />
<path d="M689.1,808.6c1.1,3.4,-6.5,5.5,-7.5,2.2" class="g11_1" />
<path d="M679.6,809.6c-0.4,0.7,-0.1,1.4,0,1.8c0,0,0.7,2,1,3.1c1.7,5.1,13.4,1.8,11.7,-3.4c-0.6,-1.9,-0.8,-2.2,-0.7,-2.2c-0.1,-0.4,-0.5,-1.2,-1.2,-1.5" class="g11_1" />
<path d="M693.5,814.1c1.9,5.2,-9.7,8.9,-11.5,3.9" class="g11_1" />
<path d="M691.3,814.5c1.3,3.3,-6.3,5.7,-7.4,2.5" class="g11_1" />
<path d="M681.8,815.9c-0.3,0.6,0,1.3,0.1,1.7c0,0,0.8,2,1.2,3.1c1.9,5,13.4,1.3,11.4,-3.9c-0.6,-1.8,-0.8,-2.2,-0.7,-2.1c-0.1,-0.5,-0.5,-1.2,-1.2,-1.5" class="g11_1" />
<path d="M695.7,819.7c2.1,5.2,-9.5,9.1,-11.4,4.1" class="g11_1" />
<path d="M693.5,820.1c1.4,3.4,-6.1,5.9,-7.3,2.7" class="g11_1" />
<path d="M684.1,821.7c-0.3,0.7,0,1.4,0.1,1.8c0,0,0.8,1.9,1.2,3c2,4.9,13.4,1.1,11.4,-4.1c-0.7,-1.8,-0.8,-2.2,-0.8,-2.1c-0.1,-0.5,-0.5,-1.2,-1.2,-1.5" class="g11_1" />
<path d="M698.1,825.4c2.2,5.1,-9.2,9.3,-11.3,4.4" class="g11_1" />
<path d="M696,825.8c1.4,3.3,-6,6.1,-7.3,2.9" class="g11_1" />
<path d="M686.6,827.7c-0.3,0.7,0,1.4,0.2,1.8c0,0,0.8,1.9,1.3,3c2.1,4.9,13.4,0.6,11.2,-4.5c-0.7,-1.7,-0.9,-2.1,-0.8,-2c-0.2,-0.5,-0.6,-1.2,-1.3,-1.5" class="g11_1" />
<path d="M700.6,831.2c2.2,5.1,-9.3,9.4,-11.3,4.4" class="g11_1" />
<path d="M698.5,831.7c1.4,3.3,-6,6,-7.3,2.8" class="g11_1" />
<path d="M689.1,833.5c-0.3,0.7,0,1.4,0.1,1.8c0,0,0.9,1.9,1.3,3c2.1,4.9,13.5,0.7,11.3,-4.4c-0.7,-1.8,-0.9,-2.2,-0.8,-2.1c-0.2,-0.5,-0.6,-1.2,-1.3,-1.4" class="g11_1" />
<path d="M703.1,836.7c2.4,5,-9,9.6,-11.1,4.8" class="g11_1" />
<path d="M701,837.2c1.5,3.3,-5.8,6.3,-7.2,3.1" class="g11_1" />
<path d="M691.6,839.4c-0.2,0.6,0.1,1.3,0.3,1.7c0,0,0.8,1.9,1.4,3c2.2,4.8,13.4,0.2,11.1,-4.8c-0.8,-1.7,-1,-2.1,-0.9,-2c-0.2,-0.5,-0.6,-1.2,-1.4,-1.5" class="g11_1" />
<path d="M705.7,842.3c2.4,5,-8.9,9.7,-11.1,4.8" class="g11_1" />
<path d="M703.6,842.9c1.5,3.2,-5.8,6.2,-7.2,3.1" class="g11_1" />
<path d="M694.2,845c-0.2,0.7,0.1,1.4,0.3,1.8c0,0,0.9,1.8,1.4,2.9c2.3,4.8,13.4,0.3,11.1,-4.8c-0.8,-1.7,-1,-2.1,-0.9,-2c-0.2,-0.5,-0.6,-1.2,-1.4,-1.4" class="g11_1" />
<path d="M672.9,855.8c3.9,-4.6,7.6,-9.2,16.4,-5.4c8.7,3.8,19.7,1.4,21.4,-8.4c1.6,-9.8,8.1,-10.4,15,-9.9" class="g10_1" />
<path d="M678,866.6c4,-4.5,7.6,-9.1,16.4,-5.3c8.8,3.7,19.7,1.3,21.4,-8.5c1.7,-9.8,8.2,-10.3,15,-9.9" class="g10_1" />
<path fill-rule="evenodd" d="M549,1013l140,0l0,-22l-140,0Z" class="g19_1" />
<path d="M587,1023l-25,0" class="g20_1" />
<path d="M587,1039l-25,0" class="g20_1" />
<path d="M587,1056l-25,0" class="g20_1" />
<path d="M587,1056l-25,0" class="g21_1" />
<path d="M587,1039l-25,0" class="g22_1" />
<path d="M480.2,843.8l1.8,-7.1" class="g10_1" />
<path d="M484,846.6l4.6,-6.3" class="g10_1" />
<path d="M486.2,851.2l7.3,-5.1" class="g10_1" />
<path d="M487.1,855.9l8.2,-2.8" class="g10_1" />
<path d="M487,860l8,0" class="g10_1" />
<path d="M487.1,865.5l8.3,1.4" class="g10_1" />
<path d="M487.1,870.7l8.3,1.4" class="g10_1" />
<path d="M487.1,875.9l8.3,1.4" class="g10_1" />
<path d="M487.1,881.2l8.3,1.3" class="g10_1" />
<path d="M487.1,886.9l8.3,1.4" class="g10_1" />
<path d="M487.1,892.2l8.3,1.4" class="g10_1" />
<path d="M487.1,897.3l8.3,1.4" class="g10_1" />
<path d="M487.1,902.6l8.3,1.4" class="g10_1" />
<path d="M487.1,908.4l8.3,1.4" class="g10_1" />
<path d="M487.1,913.7l8.3,1.4" class="g10_1" />
<path d="M487.1,918.8l8.3,1.4" class="g10_1" />
<path d="M487.1,924.1l8.3,1.4" class="g10_1" />
<path d="M487.1,929.9l8.3,1.3" class="g10_1" />
<path d="M487.1,935.1l8.3,1.4" class="g10_1" />
<path d="M487.1,940.3l8.3,1.3" class="g10_1" />
<path d="M487.1,945.5l8.3,1.4" class="g10_1" />
<path d="M487.1,951.4l8.3,1.4" class="g10_1" />
<path d="M487.1,956.7l8.3,1.4" class="g10_1" />
<path d="M487.1,961.9l8.3,1.3" class="g10_1" />
<path d="M487.1,967.1l8.3,1.4" class="g10_1" />
<path d="M487.1,972.9l8.3,1.3" class="g10_1" />
<path d="M487.1,978.1l8.3,1.4" class="g10_1" />
<path d="M487.1,983.3l8.3,1.4" class="g10_1" />
<path d="M487.1,988.6l3.1,0.5" class="g10_1" />
<path d="M475.2,843.3l0.1,-8.1" class="g10_1" />
<path d="M470,843.4l-0.9,-8.2" class="g10_1" />
</svg>